 0
SECTION
 2
HEADER
 9
$ACADVER
 1
AC1009
 9
$INSBASE
 10
0.0
 20
0.0
 30
0.0
 9
$EXTMIN
 10
0.0
 20
0.0
 30
0.0
 9
$EXTMAX
 10
0.3999999463558197
 20
0.0799999907612801
 30
0.3999999463558197
 9
$LIMMIN
 10
0.0
 20
0.0
 9
$LIMMAX
 10
12.0
 20
9.0
 9
$ORTHOMODE
 70
0
 9
$REGENMODE
 70
1
 9
$FILLMODE
 70
1
 9
$QTEXTMODE
 70
0
 9
$MIRRTEXT
 70
0
 9
$DRAGMODE
 70
2
 9
$LTSCALE
 40
1.0
 9
$OSMODE
 70
43
 9
$ATTMODE
 70
1
 9
$TEXTSIZE
 40
1.0
 9
$TRACEWID
 40
0.05
 9
$TEXTSTYLE
 7
STANDARD
 9
$CLAYER
 8
0
 9
$CELTYPE
 6
CONTINUOUS
 9
$CECOLOR
 62
256
 9
$DIMSCALE
 40
1.0
 9
$DIMASZ
 40
0.18
 9
$DIMEXO
 40
0.0625
 9
$DIMDLI
 40
0.38
 9
$DIMRND
 40
0.0
 9
$DIMDLE
 40
0.0
 9
$DIMEXE
 40
0.18
 9
$DIMTP
 40
0.0
 9
$DIMTM
 40
0.0
 9
$DIMTXT
 40
0.18
 9
$DIMCEN
 40
0.09
 9
$DIMTSZ
 40
0.0
 9
$DIMTOL
 70
0
 9
$DIMLIM
 70
0
 9
$DIMTIH
 70
1
 9
$DIMTOH
 70
1
 9
$DIMSE1
 70
0
 9
$DIMSE2
 70
0
 9
$DIMTAD
 70
0
 9
$DIMZIN
 70
0
 9
$DIMBLK
 1

 9
$DIMASO
 70
1
 9
$DIMSHO
 70
1
 9
$DIMPOST
 1

 9
$DIMAPOST
 1

 9
$DIMALT
 70
0
 9
$DIMALTD
 70
2
 9
$DIMALTF
 40
25.3999999999999986
 9
$DIMLFAC
 40
1.0
 9
$DIMTOFL
 70
0
 9
$DIMTVP
 40
0.0
 9
$DIMTIX
 70
0
 9
$DIMSOXD
 70
0
 9
$DIMSAH
 70
0
 9
$DIMBLK1
 1

 9
$DIMBLK2
 1

 9
$DIMSTYLE
 2
STANDARD
 9
$DIMCLRD
 70
0
 9
$DIMCLRE
 70
0
 9
$DIMCLRT
 70
0
 9
$DIMTFAC
 40
1.0
 9
$DIMGAP
 40
0.09
 9
$LUNITS
 70
2
 9
$LUPREC
 70
4
 9
$SKETCHINC
 40
0.1
 9
$FILLETRAD
 40
0.0
 9
$AUNITS
 70
0
 9
$AUPREC
 70
0
 9
$MENU
 1
.
 9
$ELEVATION
 40
0.0
 9
$PELEVATION
 40
0.0
 9
$THICKNESS
 40
0.0
 9
$LIMCHECK
 70
0
 9
$BLIPMODE
 70
0
 9
$CHAMFERA
 40
0.0
 9
$CHAMFERB
 40
0.0
 9
$SKPOLY
 70
0
 9
$TDCREATE
 40
2458917.6843287041410804
 9
$TDUPDATE
 40
2458917.6844791672192514
 9
$TDINDWG
 40
0.000150463
 9
$TDUSRTIMER
 40
0.000150463
 9
$USRTIMER
 70
1
 9
$ANGBASE
 50
0.0
 9
$ANGDIR
 70
0
 9
$PDMODE
 70
0
 9
$PDSIZE
 40
0.0
 9
$PLINEWID
 40
0.0
 9
$COORDS
 70
1
 9
$SPLFRAME
 70
0
 9
$SPLINETYPE
 70
6
 9
$SPLINESEGS
 70
8
 9
$ATTDIA
 70
0
 9
$ATTREQ
 70
1
 9
$HANDLING
 70
1
 9
$HANDSEED
 5
29F
 9
$SURFTAB1
 70
6
 9
$SURFTAB2
 70
6
 9
$SURFTYPE
 70
6
 9
$SURFU
 70
6
 9
$SURFV
 70
6
 9
$UCSNAME
 2

 9
$UCSORG
 10
0.0
 20
0.0
 30
0.0
 9
$UCSXDIR
 10
1.0
 20
0.0
 30
0.0
 9
$UCSYDIR
 10
0.0
 20
1.0
 30
0.0
 9
$PUCSNAME
 2

 9
$PUCSORG
 10
0.0
 20
0.0
 30
0.0
 9
$PUCSXDIR
 10
1.0
 20
0.0
 30
0.0
 9
$PUCSYDIR
 10
0.0
 20
1.0
 30
0.0
 9
$USERI1
 70
0
 9
$USERI2
 70
0
 9
$USERI3
 70
0
 9
$USERI4
 70
0
 9
$USERI5
 70
0
 9
$USERR1
 40
0.0
 9
$USERR2
 40
0.0
 9
$USERR3
 40
0.0
 9
$USERR4
 40
0.0
 9
$USERR5
 40
0.0
 9
$WORLDVIEW
 70
1
 9
$SHADEDGE
 70
3
 9
$SHADEDIF
 70
70
 9
$TILEMODE
 70
1
 9
$MAXACTVP
 70
64
 9
$PLIMCHECK
 70
0
 9
$PEXTMIN
 10
1.0000000000000000E+20
 20
1.0000000000000000E+20
 30
1.0000000000000000E+20
 9
$PEXTMAX
 10
-1.0000000000000000E+20
 20
-1.0000000000000000E+20
 30
-1.0000000000000000E+20
 9
$PLIMMIN
 10
0.0
 20
0.0
 9
$PLIMMAX
 10
12.0
 20
9.0
 9
$UNITMODE
 70
0
 9
$VISRETAIN
 70
1
 9
$PLINEGEN
 70
0
 9
$PSLTSCALE
 70
1
 0
ENDSEC
 0
SECTION
 2
TABLES
 0
TABLE
 2
VPORT
 70
1
 0
VPORT
 2
*ACTIVE
 70
0
 10
0.0
 20
0.0
 11
1.0
 21
1.0
 12
0.2641283948707149
 22
0.0414443714930126
 13
0.0
 23
0.0
 14
0.1
 24
0.1
 15
0.1
 25
0.1
 16
0.0
 26
0.0
 36
1.0
 17
0.0
 27
0.0
 37
0.0
 40
0.5870335298469592
 41
1.8654073199527741
 42
50.0
 43
0.0
 44
0.0
 50
0.0
 51
0.0
 71
0
 72
100
 73
1
 74
1
 75
0
 76
0
 77
0
 78
0
 0
ENDTAB
 0
TABLE
 2
LTYPE
 70
8
 0
LTYPE
 2
CONTINUOUS
 70
0
 3
Solid line
 72
65
 73
0
 40
0.0
 0
LTYPE
 2
DOT
 70
0
 3
. . . . . . .
 72
65
 73
2
 40
0.25
 49
0.0
 49
-0.25
 0
LTYPE
 2
DASHED
 70
0
 3
__ __ __ __ __
 72
65
 73
2
 40
0.8
 49
0.5
 49
-0.3
 0
LTYPE
 2
DASHDOT
 70
0
 3
__ . __ . __ .
 72
65
 73
4
 40
1.0
 49
0.5
 49
-0.25
 49
0.0
 49
-0.25
 0
LTYPE
 2
DIVIDE
 70
0
 3
____ . . ____ . . 
 72
65
 73
6
 40
1.25
 49
0.5
 49
-0.25
 49
0.0
 49
-0.25
 49
0.0
 49
-0.25
 0
LTYPE
 2
BORDER
 70
0
 3
__ __ . __ __ . 
 72
65
 73
6
 40
1.75
 49
0.5
 49
-0.25
 49
0.5
 49
-0.25
 49
0.0
 49
-0.25
 0
LTYPE
 2
HIDDEN
 70
0
 3
__ __ __ __ __
 72
65
 73
2
 40
0.4
 49
0.25
 49
-0.25
 0
LTYPE
 2
CENTER
 70
0
 3
____ _ ____ _ __
 72
65
 73
4
 40
2.0
 49
1.25
 49
-0.25
 49
0.25
 49
-0.25
 0
ENDTAB
 0
TABLE
 2
LAYER
 70
2
 0
LAYER
 2
0
 70
0
 62
7
 6
CONTINUOUS
 0
LAYER
 2
PYDXF
 70
0
 62
7
 6
CONTINUOUS
 0
ENDTAB
 0
TABLE
 2
STYLE
 70
2
 0
STYLE
 2
STANDARD
 70
0
 40
0.0
 41
1.0
 50
0.0
 71
0
 42
1.0
 3
txt
 4

 0
STYLE
 2
ANNOTATIVE
 70
0
 40
0.0
 41
1.0
 50
0.0
 71
0
 42
0.2
 3
txt
 4

 0
ENDTAB
 0
TABLE
 2
VIEW
 70
1
 0
VIEW
 2
BF_TOPVIEW
 70
0
 40
120.0
 10
0.0
 20
0.0
 41
200.0
 11
0.0
 21
0.0
 31
1.0
 12
0.0
 22
0.0
 32
0.0
 42
50.0
 43
0.0
 44
0.0
 50
0.0
 71
0
 0
ENDTAB
 0
TABLE
 2
UCS
 70
0
 0
ENDTAB
 0
TABLE
 2
APPID
 70
4
 0
APPID
 2
ACAD
 70
0
 0
APPID
 2
ACADANNOTATIVE
 70
0
 0
APPID
 2
ACAD_NAV_VCDISPLAY
 70
0
 0
APPID
 2
ACAD_MLEADERVER
 70
0
 0
ENDTAB
 0
TABLE
 2
DIMSTYLE
 70
2
 0
DIMSTYLE
 2
STANDARD
 70
0
 3

 4

 5

 6

 7

 40
1.0
 41
0.18
 42
0.0625
 43
0.38
 44
0.18
 45
0.0
 46
0.0
 47
0.0
 48
0.0
 140
0.18
 141
0.09
 142
0.0
 143
25.3999999999999986
 144
1.0
 145
0.0
 146
1.0
 147
0.09
 71
0
 72
0
 73
1
 74
1
 75
0
 76
0
 77
0
 78
0
 170
0
 171
2
 172
0
 173
0
 174
0
 175
0
 176
0
 177
0
 178
0
 0
DIMSTYLE
 2
ANNOTATIVE
 70
0
 3

 4

 5

 6

 7

 40
1.0
 41
0.18
 42
0.0625
 43
0.38
 44
0.18
 45
0.0
 46
0.0
 47
0.0
 48
0.0
 140
0.18
 141
0.09
 142
0.0
 143
25.3999999999999986
 144
1.0
 145
0.0
 146
1.0
 147
0.09
 71
0
 72
0
 73
1
 74
1
 75
0
 76
0
 77
0
 78
0
 170
0
 171
2
 172
0
 173
0
 174
0
 175
0
 176
0
 177
0
 178
0
 0
ENDTAB
 0
ENDSEC
 0
SECTION
 2
BLOCKS
 0
BLOCK
 8
0
 2
$MODEL_SPACE
 70
0
 10
0.0
 20
0.0
 30
0.0
 3
$MODEL_SPACE
 1

 0
ENDBLK
 5
71
 8
0
 0
BLOCK
 67
1
 8
0
 2
$PAPER_SPACE
 70
0
 10
0.0
 20
0.0
 30
0.0
 3
$PAPER_SPACE
 1

 0
ENDBLK
 5
6D
 67
1
 8
0
 0
ENDSEC
 0
SECTION
 2
ENTITIES
 0
POLYLINE
 5
7F
 8
0
 62
131
 66
1
 10
0.0
 20
0.0
 30
0.0
 70
64
 71
204
 72
252
 0
VERTEX
 5
80
 8
0
 62
131
 10
0.0
 20
0.0
 30
0.4
 70
192
 0
VERTEX
 5
81
 8
0
 62
131
 10
0.06
 20
0.08
 30
0.34
 70
192
 0
VERTEX
 5
82
 8
0
 62
131
 10
0.34
 20
0.0
 30
0.06
 70
192
 0
VERTEX
 5
83
 8
0
 62
131
 10
0.4
 20
0.0
 30
0.4
 70
192
 0
VERTEX
 5
84
 8
0
 62
131
 10
0.4
 20
0.08
 30
0.4
 70
192
 0
VERTEX
 5
85
 8
0
 62
131
 10
0.0
 20
0.08
 30
0.4
 70
192
 0
VERTEX
 5
86
 8
0
 62
131
 10
0.06
 20
0.0
 30
0.34
 70
192
 0
VERTEX
 5
87
 8
0
 62
131
 10
0.34
 20
0.08
 30
0.34
 70
192
 0
VERTEX
 5
88
 8
0
 62
131
 10
0.34
 20
0.0
 30
0.34
 70
192
 0
VERTEX
 5
89
 8
0
 62
131
 10
0.34
 20
0.08
 30
0.06
 70
192
 0
VERTEX
 5
8A
 8
0
 62
131
 10
0.4
 20
0.0
 30
0.0
 70
192
 0
VERTEX
 5
8B
 8
0
 62
131
 10
0.06
 20
0.0
 30
0.06
 70
192
 0
VERTEX
 5
8C
 8
0
 62
131
 10
0.06
 20
0.08
 30
0.06
 70
192
 0
VERTEX
 5
8D
 8
0
 62
131
 10
0.0
 20
0.08
 30
0.0
 70
192
 0
VERTEX
 5
8E
 8
0
 62
131
 10
0.4
 20
0.08
 30
0.0
 70
192
 0
VERTEX
 5
8F
 8
0
 62
131
 10
0.0
 20
0.0
 30
0.0
 70
192
 0
VERTEX
 5
90
 8
0
 62
131
 10
0.08
 20
0.03
 30
0.08
 70
192
 0
VERTEX
 5
91
 8
0
 62
131
 10
0.1361522525548935
 20
0.03
 30
0.06
 70
192
 0
VERTEX
 5
92
 8
0
 62
131
 10
0.1361522525548935
 20
0.03
 30
0.08
 70
192
 0
VERTEX
 5
93
 8
0
 62
131
 10
0.06
 20
0.03
 30
0.06
 70
192
 0
VERTEX
 5
94
 8
0
 62
131
 10
0.1702943742275238
 20
0.03
 30
0.06
 70
192
 0
VERTEX
 5
95
 8
0
 62
131
 10
0.08
 20
0.04
 30
0.08
 70
192
 0
VERTEX
 5
96
 8
0
 62
131
 10
0.1361522525548935
 20
0.04
 30
0.06
 70
192
 0
VERTEX
 5
97
 8
0
 62
131
 10
0.06
 20
0.03
 30
0.1702943742275238
 70
192
 0
VERTEX
 5
98
 8
0
 62
131
 10
0.06
 20
0.03
 30
0.1361522525548935
 70
192
 0
VERTEX
 5
99
 8
0
 62
131
 10
0.1702943742275238
 20
0.04
 30
0.06
 70
192
 0
VERTEX
 5
9A
 8
0
 62
131
 10
0.2297056466341019
 20
0.03
 30
0.06
 70
192
 0
VERTEX
 5
9B
 8
0
 62
131
 10
0.1561522334814071
 20
0.03
 30
0.0941421538591385
 70
192
 0
VERTEX
 5
9C
 8
0
 62
131
 10
0.1702943742275238
 20
0.03
 30
0.08
 70
192
 0
VERTEX
 5
9D
 8
0
 62
131
 10
0.1561522334814071
 20
0.04
 30
0.0941421538591385
 70
192
 0
VERTEX
 5
9E
 8
0
 62
131
 10
0.1561522334814071
 20
0.04
 30
0.1361522525548935
 70
192
 0
VERTEX
 5
9F
 8
0
 62
131
 10
0.1361522525548935
 20
0.04
 30
0.08
 70
192
 0
VERTEX
 5
A0
 8
0
 62
131
 10
0.2
 20
0.03
 30
0.1097056344151497
 70
192
 0
VERTEX
 5
A1
 8
0
 62
131
 10
0.1702943742275238
 20
0.04
 30
0.08
 70
192
 0
VERTEX
 5
A2
 8
0
 62
131
 10
0.06
 20
0.04
 30
0.06
 70
192
 0
VERTEX
 5
A3
 8
0
 62
131
 10
0.06
 20
0.04
 30
0.1361522525548935
 70
192
 0
VERTEX
 5
A4
 8
0
 62
131
 10
0.08
 20
0.03
 30
0.2297056466341019
 70
192
 0
VERTEX
 5
A5
 8
0
 62
131
 10
0.06
 20
0.03
 30
0.2297056466341019
 70
192
 0
VERTEX
 5
A6
 8
0
 62
131
 10
0.2297056466341019
 20
0.04
 30
0.06
 70
192
 0
VERTEX
 5
A7
 8
0
 62
131
 10
0.2638477683067322
 20
0.03
 30
0.06
 70
192
 0
VERTEX
 5
A8
 8
0
 62
131
 10
0.2
 20
0.04
 30
0.1097056344151497
 70
192
 0
VERTEX
 5
A9
 8
0
 62
131
 10
0.08
 20
0.03
 30
0.1361522525548935
 70
192
 0
VERTEX
 5
AA
 8
0
 62
131
 10
0.1361522525548935
 20
0.03
 30
0.1361522525548935
 70
192
 0
VERTEX
 5
AB
 8
0
 62
131
 10
0.1361522525548935
 20
0.04
 30
0.1361522525548935
 70
192
 0
VERTEX
 5
AC
 8
0
 62
131
 10
0.06
 20
0.04
 30
0.2297056466341019
 70
192
 0
VERTEX
 5
AD
 8
0
 62
131
 10
0.1238477677106857
 20
0.03
 30
0.1858578622341156
 70
192
 0
VERTEX
 5
AE
 8
0
 62
131
 10
0.08
 20
0.03
 30
0.1702943742275238
 70
192
 0
VERTEX
 5
AF
 8
0
 62
131
 10
0.08
 20
0.04
 30
0.1702943742275238
 70
192
 0
VERTEX
 5
B0
 8
0
 62
131
 10
0.2638477683067322
 20
0.04
 30
0.06
 70
192
 0
VERTEX
 5
B1
 8
0
 62
131
 10
0.2297056466341019
 20
0.03
 30
0.08
 70
192
 0
VERTEX
 5
B2
 8
0
 62
131
 10
0.32
 20
0.03
 30
0.08
 70
192
 0
VERTEX
 5
B3
 8
0
 62
131
 10
0.1561522334814071
 20
0.03
 30
0.1361522525548935
 70
192
 0
VERTEX
 5
B4
 8
0
 62
131
 10
0.1735534071922302
 20
0.03
 30
0.1361522525548935
 70
192
 0
VERTEX
 5
B5
 8
0
 62
131
 10
0.1561522334814071
 20
0.03
 30
0.1561522334814071
 70
192
 0
VERTEX
 5
B6
 8
0
 62
131
 10
0.1858578622341156
 20
0.03
 30
0.1238477677106857
 70
192
 0
VERTEX
 5
B7
 8
0
 62
131
 10
0.1858578622341156
 20
0.04
 30
0.1238477677106857
 70
192
 0
VERTEX
 5
B8
 8
0
 62
131
 10
0.1561522334814071
 20
0.04
 30
0.1561522334814071
 70
192
 0
VERTEX
 5
B9
 8
0
 62
131
 10
0.1818376630544662
 20
0.04
 30
0.1561522334814071
 70
192
 0
VERTEX
 5
BA
 8
0
 62
131
 10
0.1735534071922302
 20
0.04
 30
0.1361522525548935
 70
192
 0
VERTEX
 5
BB
 8
0
 62
131
 10
0.2638477683067322
 20
0.03
 30
0.1361522525548935
 70
192
 0
VERTEX
 5
BC
 8
0
 62
131
 10
0.2638477683067322
 20
0.03
 30
0.08
 70
192
 0
VERTEX
 5
BD
 8
0
 62
131
 10
0.2638477683067322
 20
0.04
 30
0.08
 70
192
 0
VERTEX
 5
BE
 8
0
 62
131
 10
0.2297056466341019
 20
0.04
 30
0.08
 70
192
 0
VERTEX
 5
BF
 8
0
 62
131
 10
0.2438477873802185
 20
0.04
 30
0.0941421538591385
 70
192
 0
VERTEX
 5
C0
 8
0
 62
131
 10
0.0941421538591385
 20
0.03
 30
0.1561522334814071
 70
192
 0
VERTEX
 5
C1
 8
0
 62
131
 10
0.1361522525548935
 20
0.04
 30
0.1561522334814071
 70
192
 0
VERTEX
 5
C2
 8
0
 62
131
 10
0.08
 20
0.04
 30
0.1361522525548935
 70
192
 0
VERTEX
 5
C3
 8
0
 62
131
 10
0.08
 20
0.04
 30
0.2297056466341019
 70
192
 0
VERTEX
 5
C4
 8
0
 62
131
 10
0.06
 20
0.04
 30
0.1702943742275238
 70
192
 0
VERTEX
 5
C5
 8
0
 62
131
 10
0.0941421538591385
 20
0.03
 30
0.2438477873802185
 70
192
 0
VERTEX
 5
C6
 8
0
 62
131
 10
0.08
 20
0.03
 30
0.2638477683067322
 70
192
 0
VERTEX
 5
C7
 8
0
 62
131
 10
0.06
 20
0.03
 30
0.2638477683067322
 70
192
 0
VERTEX
 5
C8
 8
0
 62
131
 10
0.34
 20
0.03
 30
0.06
 70
192
 0
VERTEX
 5
C9
 8
0
 62
131
 10
0.2264466136693954
 20
0.03
 30
0.1361522525548935
 70
192
 0
VERTEX
 5
CA
 8
0
 62
131
 10
0.2438477873802185
 20
0.03
 30
0.0941421538591385
 70
192
 0
VERTEX
 5
CB
 8
0
 62
131
 10
0.1361522525548935
 20
0.03
 30
0.1561522334814071
 70
192
 0
VERTEX
 5
CC
 8
0
 62
131
 10
0.1361522525548935
 20
0.04
 30
0.1735534071922302
 70
192
 0
VERTEX
 5
CD
 8
0
 62
131
 10
0.1361522525548935
 20
0.03
 30
0.1735534071922302
 70
192
 0
VERTEX
 5
CE
 8
0
 62
131
 10
0.1561522334814071
 20
0.03
 30
0.1818376630544662
 70
192
 0
VERTEX
 5
CF
 8
0
 62
131
 10
0.1379899084568023
 20
0.03
 30
0.2
 70
192
 0
VERTEX
 5
D0
 8
0
 62
131
 10
0.1818376630544662
 20
0.03
 30
0.1561522334814071
 70
192
 0
VERTEX
 5
D1
 8
0
 62
131
 10
0.2
 20
0.03
 30
0.1379899084568023
 70
192
 0
VERTEX
 5
D2
 8
0
 62
131
 10
0.2
 20
0.04
 30
0.1379899084568023
 70
192
 0
VERTEX
 5
D3
 8
0
 62
131
 10
0.2264466136693954
 20
0.04
 30
0.1361522525548935
 70
192
 0
VERTEX
 5
D4
 8
0
 62
131
 10
0.2141421288251877
 20
0.04
 30
0.1238477677106857
 70
192
 0
VERTEX
 5
D5
 8
0
 62
131
 10
0.1379899084568023
 20
0.04
 30
0.2
 70
192
 0
VERTEX
 5
D6
 8
0
 62
131
 10
0.2638477683067322
 20
0.04
 30
0.1361522525548935
 70
192
 0
VERTEX
 5
D7
 8
0
 62
131
 10
0.32
 20
0.03
 30
0.1361522525548935
 70
192
 0
VERTEX
 5
D8
 8
0
 62
131
 10
0.32
 20
0.04
 30
0.1361522525548935
 70
192
 0
VERTEX
 5
D9
 8
0
 62
131
 10
0.34
 20
0.04
 30
0.06
 70
192
 0
VERTEX
 5
DA
 8
0
 62
131
 10
0.32
 20
0.04
 30
0.08
 70
192
 0
VERTEX
 5
DB
 8
0
 62
131
 10
0.2141421288251877
 20
0.03
 30
0.1238477677106857
 70
192
 0
VERTEX
 5
DC
 8
0
 62
131
 10
0.1238477677106857
 20
0.04
 30
0.1858578622341156
 70
192
 0
VERTEX
 5
DD
 8
0
 62
131
 10
0.0941421538591385
 20
0.04
 30
0.1561522334814071
 70
192
 0
VERTEX
 5
DE
 8
0
 62
131
 10
0.1097056344151497
 20
0.04
 30
0.2
 70
192
 0
VERTEX
 5
DF
 8
0
 62
131
 10
0.06
 20
0.04
 30
0.2638477683067322
 70
192
 0
VERTEX
 5
E0
 8
0
 62
131
 10
0.1561522334814071
 20
0.03
 30
0.2181623578071595
 70
192
 0
VERTEX
 5
E1
 8
0
 62
131
 10
0.1097056344151497
 20
0.03
 30
0.2
 70
192
 0
VERTEX
 5
E2
 8
0
 62
131
 10
0.1361522525548935
 20
0.03
 30
0.2638477683067322
 70
192
 0
VERTEX
 5
E3
 8
0
 62
131
 10
0.08
 20
0.04
 30
0.32
 70
192
 0
VERTEX
 5
E4
 8
0
 62
131
 10
0.06
 20
0.03
 30
0.34
 70
192
 0
VERTEX
 5
E5
 8
0
 62
131
 10
0.08
 20
0.03
 30
0.32
 70
192
 0
VERTEX
 5
E6
 8
0
 62
131
 10
0.34
 20
0.04
 30
0.2297056466341019
 70
192
 0
VERTEX
 5
E7
 8
0
 62
131
 10
0.2181623578071595
 20
0.04
 30
0.1561522334814071
 70
192
 0
VERTEX
 5
E8
 8
0
 62
131
 10
0.2438477873802185
 20
0.03
 30
0.1361522525548935
 70
192
 0
VERTEX
 5
E9
 8
0
 62
131
 10
0.2438477873802185
 20
0.03
 30
0.1561522334814071
 70
192
 0
VERTEX
 5
EA
 8
0
 62
131
 10
0.34
 20
0.03
 30
0.2297056466341019
 70
192
 0
VERTEX
 5
EB
 8
0
 62
131
 10
0.34
 20
0.03
 30
0.2638477683067322
 70
192
 0
VERTEX
 5
EC
 8
0
 62
131
 10
0.32
 20
0.03
 30
0.2638477683067322
 70
192
 0
VERTEX
 5
ED
 8
0
 62
131
 10
0.32
 20
0.04
 30
0.1702943742275238
 70
192
 0
VERTEX
 5
EE
 8
0
 62
131
 10
0.32
 20
0.03
 30
0.1702943742275238
 70
192
 0
VERTEX
 5
EF
 8
0
 62
131
 10
0.3058578670024872
 20
0.03
 30
0.1561522334814071
 70
192
 0
VERTEX
 5
F0
 8
0
 62
131
 10
0.2638477683067322
 20
0.03
 30
0.1561522334814071
 70
192
 0
VERTEX
 5
F1
 8
0
 62
131
 10
0.1561522334814071
 20
0.04
 30
0.1818376630544662
 70
192
 0
VERTEX
 5
F2
 8
0
 62
131
 10
0.2438477873802185
 20
0.04
 30
0.1361522525548935
 70
192
 0
VERTEX
 5
F3
 8
0
 62
131
 10
0.2438477873802185
 20
0.04
 30
0.1561522334814071
 70
192
 0
VERTEX
 5
F4
 8
0
 62
131
 10
0.2638477683067322
 20
0.04
 30
0.1561522334814071
 70
192
 0
VERTEX
 5
F5
 8
0
 62
131
 10
0.0941421538591385
 20
0.04
 30
0.2438477873802185
 70
192
 0
VERTEX
 5
F6
 8
0
 62
131
 10
0.06
 20
0.04
 30
0.34
 70
192
 0
VERTEX
 5
F7
 8
0
 62
131
 10
0.1361522525548935
 20
0.03
 30
0.34
 70
192
 0
VERTEX
 5
F8
 8
0
 62
131
 10
0.1361522525548935
 20
0.04
 30
0.34
 70
192
 0
VERTEX
 5
F9
 8
0
 62
131
 10
0.1361522525548935
 20
0.03
 30
0.2264466136693954
 70
192
 0
VERTEX
 5
FA
 8
0
 62
131
 10
0.1561522334814071
 20
0.03
 30
0.2438477873802185
 70
192
 0
VERTEX
 5
FB
 8
0
 62
131
 10
0.1238477677106857
 20
0.03
 30
0.2141421288251877
 70
192
 0
VERTEX
 5
FC
 8
0
 62
131
 10
0.1361522525548935
 20
0.03
 30
0.2438477873802185
 70
192
 0
VERTEX
 5
FD
 8
0
 62
131
 10
0.1561522334814071
 20
0.03
 30
0.2638477683067322
 70
192
 0
VERTEX
 5
FE
 8
0
 62
131
 10
0.08
 20
0.04
 30
0.2638477683067322
 70
192
 0
VERTEX
 5
FF
 8
0
 62
131
 10
0.1361522525548935
 20
0.03
 30
0.32
 70
192
 0
VERTEX
 5
100
 8
0
 62
131
 10
0.1702943742275238
 20
0.03
 30
0.34
 70
192
 0
VERTEX
 5
101
 8
0
 62
131
 10
0.34
 20
0.04
 30
0.2638477683067322
 70
192
 0
VERTEX
 5
102
 8
0
 62
131
 10
0.2181623578071595
 20
0.03
 30
0.1561522334814071
 70
192
 0
VERTEX
 5
103
 8
0
 62
131
 10
0.32
 20
0.04
 30
0.2297056466341019
 70
192
 0
VERTEX
 5
104
 8
0
 62
131
 10
0.2902943789958954
 20
0.03
 30
0.2
 70
192
 0
VERTEX
 5
105
 8
0
 62
131
 10
0.2761522531509399
 20
0.03
 30
0.2141421288251877
 70
192
 0
VERTEX
 5
106
 8
0
 62
131
 10
0.3058578670024872
 20
0.04
 30
0.1561522334814071
 70
192
 0
VERTEX
 5
107
 8
0
 62
131
 10
0.1238477677106857
 20
0.04
 30
0.2141421288251877
 70
192
 0
VERTEX
 5
108
 8
0
 62
131
 10
0.2438477873802185
 20
0.04
 30
0.1818376630544662
 70
192
 0
VERTEX
 5
109
 8
0
 62
131
 10
0.2902943789958954
 20
0.04
 30
0.2
 70
192
 0
VERTEX
 5
10A
 8
0
 62
131
 10
0.2761522531509399
 20
0.04
 30
0.1858578622341156
 70
192
 0
VERTEX
 5
10B
 8
0
 62
131
 10
0.1361522525548935
 20
0.04
 30
0.2638477683067322
 70
192
 0
VERTEX
 5
10C
 8
0
 62
131
 10
0.1735534071922302
 20
0.03
 30
0.2638477683067322
 70
192
 0
VERTEX
 5
10D
 8
0
 62
131
 10
0.34
 20
0.04
 30
0.34
 70
192
 0
VERTEX
 5
10E
 8
0
 62
131
 10
0.2438477873802185
 20
0.03
 30
0.1818376630544662
 70
192
 0
VERTEX
 5
10F
 8
0
 62
131
 10
0.2638477683067322
 20
0.03
 30
0.1735534071922302
 70
192
 0
VERTEX
 5
110
 8
0
 62
131
 10
0.2761522531509399
 20
0.03
 30
0.1858578622341156
 70
192
 0
VERTEX
 5
111
 8
0
 62
131
 10
0.2620101273059845
 20
0.03
 30
0.2
 70
192
 0
VERTEX
 5
112
 8
0
 62
131
 10
0.2638477683067322
 20
0.03
 30
0.32
 70
192
 0
VERTEX
 5
113
 8
0
 62
131
 10
0.32
 20
0.04
 30
0.32
 70
192
 0
VERTEX
 5
114
 8
0
 62
131
 10
0.32
 20
0.04
 30
0.2638477683067322
 70
192
 0
VERTEX
 5
115
 8
0
 62
131
 10
0.3058578670024872
 20
0.03
 30
0.2438477873802185
 70
192
 0
VERTEX
 5
116
 8
0
 62
131
 10
0.2638477683067322
 20
0.03
 30
0.2638477683067322
 70
192
 0
VERTEX
 5
117
 8
0
 62
131
 10
0.2638477683067322
 20
0.03
 30
0.2438477873802185
 70
192
 0
VERTEX
 5
118
 8
0
 62
131
 10
0.32
 20
0.03
 30
0.2297056466341019
 70
192
 0
VERTEX
 5
119
 8
0
 62
131
 10
0.2761522531509399
 20
0.04
 30
0.2141421288251877
 70
192
 0
VERTEX
 5
11A
 8
0
 62
131
 10
0.2638477683067322
 20
0.03
 30
0.2264466136693954
 70
192
 0
VERTEX
 5
11B
 8
0
 62
131
 10
0.2638477683067322
 20
0.04
 30
0.1735534071922302
 70
192
 0
VERTEX
 5
11C
 8
0
 62
131
 10
0.1361522525548935
 20
0.04
 30
0.2264466136693954
 70
192
 0
VERTEX
 5
11D
 8
0
 62
131
 10
0.1561522334814071
 20
0.04
 30
0.2181623578071595
 70
192
 0
VERTEX
 5
11E
 8
0
 62
131
 10
0.1361522525548935
 20
0.04
 30
0.2438477873802185
 70
192
 0
VERTEX
 5
11F
 8
0
 62
131
 10
0.1561522334814071
 20
0.04
 30
0.2638477683067322
 70
192
 0
VERTEX
 5
120
 8
0
 62
131
 10
0.1702943742275238
 20
0.04
 30
0.32
 70
192
 0
VERTEX
 5
121
 8
0
 62
131
 10
0.1361522525548935
 20
0.04
 30
0.32
 70
192
 0
VERTEX
 5
122
 8
0
 62
131
 10
0.1702943742275238
 20
0.04
 30
0.34
 70
192
 0
VERTEX
 5
123
 8
0
 62
131
 10
0.2297056466341019
 20
0.03
 30
0.34
 70
192
 0
VERTEX
 5
124
 8
0
 62
131
 10
0.1561522334814071
 20
0.04
 30
0.2438477873802185
 70
192
 0
VERTEX
 5
125
 8
0
 62
131
 10
0.1818376630544662
 20
0.03
 30
0.2438477873802185
 70
192
 0
VERTEX
 5
126
 8
0
 62
131
 10
0.1561522334814071
 20
0.03
 30
0.3058578670024872
 70
192
 0
VERTEX
 5
127
 8
0
 62
131
 10
0.2141421288251877
 20
0.03
 30
0.2761522531509399
 70
192
 0
VERTEX
 5
128
 8
0
 62
131
 10
0.2297056466341019
 20
0.03
 30
0.32
 70
192
 0
VERTEX
 5
129
 8
0
 62
131
 10
0.2638477683067322
 20
0.03
 30
0.34
 70
192
 0
VERTEX
 5
12A
 8
0
 62
131
 10
0.34
 20
0.03
 30
0.34
 70
192
 0
VERTEX
 5
12B
 8
0
 62
131
 10
0.32
 20
0.03
 30
0.32
 70
192
 0
VERTEX
 5
12C
 8
0
 62
131
 10
0.2638477683067322
 20
0.04
 30
0.32
 70
192
 0
VERTEX
 5
12D
 8
0
 62
131
 10
0.2638477683067322
 20
0.04
 30
0.2638477683067322
 70
192
 0
VERTEX
 5
12E
 8
0
 62
131
 10
0.3058578670024872
 20
0.04
 30
0.2438477873802185
 70
192
 0
VERTEX
 5
12F
 8
0
 62
131
 10
0.2638477683067322
 20
0.04
 30
0.2264466136693954
 70
192
 0
VERTEX
 5
130
 8
0
 62
131
 10
0.2438477873802185
 20
0.04
 30
0.2181623578071595
 70
192
 0
VERTEX
 5
131
 8
0
 62
131
 10
0.2620101273059845
 20
0.04
 30
0.2
 70
192
 0
VERTEX
 5
132
 8
0
 62
131
 10
0.2638477683067322
 20
0.04
 30
0.2438477873802185
 70
192
 0
VERTEX
 5
133
 8
0
 62
131
 10
0.2438477873802185
 20
0.04
 30
0.2438477873802185
 70
192
 0
VERTEX
 5
134
 8
0
 62
131
 10
0.1735534071922302
 20
0.04
 30
0.2638477683067322
 70
192
 0
VERTEX
 5
135
 8
0
 62
131
 10
0.1818376630544662
 20
0.04
 30
0.2438477873802185
 70
192
 0
VERTEX
 5
136
 8
0
 62
131
 10
0.1858578622341156
 20
0.03
 30
0.2761522531509399
 70
192
 0
VERTEX
 5
137
 8
0
 62
131
 10
0.1561522334814071
 20
0.04
 30
0.3058578670024872
 70
192
 0
VERTEX
 5
138
 8
0
 62
131
 10
0.2
 20
0.03
 30
0.2620101273059845
 70
192
 0
VERTEX
 5
139
 8
0
 62
131
 10
0.2
 20
0.03
 30
0.2902943789958954
 70
192
 0
VERTEX
 5
13A
 8
0
 62
131
 10
0.2141421288251877
 20
0.04
 30
0.2761522531509399
 70
192
 0
VERTEX
 5
13B
 8
0
 62
131
 10
0.1702943742275238
 20
0.03
 30
0.32
 70
192
 0
VERTEX
 5
13C
 8
0
 62
131
 10
0.2438477873802185
 20
0.03
 30
0.2638477683067322
 70
192
 0
VERTEX
 5
13D
 8
0
 62
131
 10
0.2264466136693954
 20
0.03
 30
0.2638477683067322
 70
192
 0
VERTEX
 5
13E
 8
0
 62
131
 10
0.2181623578071595
 20
0.03
 30
0.2438477873802185
 70
192
 0
VERTEX
 5
13F
 8
0
 62
131
 10
0.2438477873802185
 20
0.03
 30
0.2181623578071595
 70
192
 0
VERTEX
 5
140
 8
0
 62
131
 10
0.2638477683067322
 20
0.04
 30
0.34
 70
192
 0
VERTEX
 5
141
 8
0
 62
131
 10
0.2297056466341019
 20
0.04
 30
0.32
 70
192
 0
VERTEX
 5
142
 8
0
 62
131
 10
0.2297056466341019
 20
0.04
 30
0.34
 70
192
 0
VERTEX
 5
143
 8
0
 62
131
 10
0.2
 20
0.04
 30
0.2620101273059845
 70
192
 0
VERTEX
 5
144
 8
0
 62
131
 10
0.1858578622341156
 20
0.04
 30
0.2761522531509399
 70
192
 0
VERTEX
 5
145
 8
0
 62
131
 10
0.2
 20
0.04
 30
0.2902943789958954
 70
192
 0
VERTEX
 5
146
 8
0
 62
131
 10
0.2181623578071595
 20
0.04
 30
0.2438477873802185
 70
192
 0
VERTEX
 5
147
 8
0
 62
131
 10
0.2438477873802185
 20
0.03
 30
0.3058578670024872
 70
192
 0
VERTEX
 5
148
 8
0
 62
131
 10
0.2264466136693954
 20
0.04
 30
0.2638477683067322
 70
192
 0
VERTEX
 5
149
 8
0
 62
131
 10
0.2438477873802185
 20
0.04
 30
0.3058578670024872
 70
192
 0
VERTEX
 5
14A
 8
0
 62
131
 10
0.2438477873802185
 20
0.04
 30
0.2638477683067322
 70
192
 0
VERTEX
 5
14B
 8
0
 62
131
 10
0.2438477873802185
 20
0.03
 30
0.2438477873802185
 70
192
 0
VERTEX
 5
14C
 8
0
 62
131
 10
0.0
 20
0.0
 30
0.0
 70
128
 71
4
 72
1
 73
7
 74
9
 0
VERTEX
 5
14D
 8
0
 62
131
 10
0.0
 20
0.0
 30
0.0
 70
128
 71
9
 72
7
 73
2
 74
8
 0
VERTEX
 5
14E
 8
0
 62
131
 10
0.0
 20
0.0
 30
0.0
 70
128
 71
9
 72
3
 73
11
 74
4
 0
VERTEX
 5
14F
 8
0
 62
131
 10
0.0
 20
0.0
 30
0.0
 70
128
 71
1
 72
4
 73
5
 74
6
 0
VERTEX
 5
150
 8
0
 62
131
 10
0.0
 20
0.0
 30
0.0
 70
128
 71
1
 72
16
 73
12
 74
7
 0
VERTEX
 5
151
 8
0
 62
131
 10
0.0
 20
0.0
 30
0.0
 70
128
 71
7
 72
12
 73
13
 74
2
 0
VERTEX
 5
152
 8
0
 62
131
 10
0.0
 20
0.0
 30
0.0
 70
128
 71
6
 72
5
 73
8
 74
2
 0
VERTEX
 5
153
 8
0
 62
131
 10
0.0
 20
0.0
 30
0.0
 70
128
 71
3
 72
9
 73
8
 74
10
 0
VERTEX
 5
154
 8
0
 62
131
 10
0.0
 20
0.0
 30
0.0
 70
128
 71
3
 72
12
 73
16
 74
11
 0
VERTEX
 5
155
 8
0
 62
131
 10
0.0
 20
0.0
 30
0.0
 70
128
 71
4
 72
11
 73
15
 74
5
 0
VERTEX
 5
156
 8
0
 62
131
 10
0.0
 20
0.0
 30
0.0
 70
128
 71
16
 72
1
 73
6
 74
14
 0
VERTEX
 5
157
 8
0
 62
131
 10
0.0
 20
0.0
 30
0.0
 70
128
 71
12
 72
3
 73
10
 74
13
 0
VERTEX
 5
158
 8
0
 62
131
 10
0.0
 20
0.0
 30
0.0
 70
128
 71
2
 72
13
 73
14
 74
6
 0
VERTEX
 5
159
 8
0
 62
131
 10
0.0
 20
0.0
 30
0.0
 70
128
 71
5
 72
15
 73
10
 74
8
 0
VERTEX
 5
15A
 8
0
 62
131
 10
0.0
 20
0.0
 30
0.0
 70
128
 71
11
 72
16
 73
14
 74
15
 0
VERTEX
 5
15B
 8
0
 62
131
 10
0.0
 20
0.0
 30
0.0
 70
128
 71
13
 72
10
 73
15
 74
14
 0
VERTEX
 5
15C
 8
0
 62
131
 10
0.0
 20
0.0
 30
0.0
 70
128
 71
19
 72
17
 73
20
 74
18
 0
VERTEX
 5
15D
 8
0
 62
131
 10
0.0
 20
0.0
 30
0.0
 70
128
 71
17
 72
19
 73
32
 74
22
 0
VERTEX
 5
15E
 8
0
 62
131
 10
0.0
 20
0.0
 30
0.0
 70
128
 71
25
 72
20
 73
17
 74
42
 0
VERTEX
 5
15F
 8
0
 62
131
 10
0.0
 20
0.0
 30
0.0
 70
128
 71
18
 72
20
 73
35
 74
23
 0
VERTEX
 5
160
 8
0
 62
131
 10
0.0
 20
0.0
 30
0.0
 70
128
 71
29
 72
19
 73
18
 74
21
 0
VERTEX
 5
161
 8
0
 62
131
 10
0.0
 20
0.0
 30
0.0
 70
128
 71
19
 72
43
 73
44
 74
32
 0
VERTEX
 5
162
 8
0
 62
131
 10
0.0
 20
0.0
 30
0.0
 70
128
 71
22
 72
32
 73
23
 74
35
 0
VERTEX
 5
163
 8
0
 62
131
 10
0.0
 20
0.0
 30
0.0
 70
128
 71
42
 72
17
 73
22
 74
67
 0
VERTEX
 5
164
 8
0
 62
131
 10
0.0
 20
0.0
 30
0.0
 70
128
 71
20
 72
25
 73
36
 74
35
 0
VERTEX
 5
165
 8
0
 62
131
 10
0.0
 20
0.0
 30
0.0
 70
128
 71
42
 72
47
 73
24
 74
25
 0
VERTEX
 5
166
 8
0
 62
131
 10
0.0
 20
0.0
 30
0.0
 70
128
 71
21
 72
18
 73
23
 74
26
 0
VERTEX
 5
167
 8
0
 62
131
 10
0.0
 20
0.0
 30
0.0
 70
128
 71
50
 72
29
 73
21
 74
27
 0
VERTEX
 5
168
 8
0
 62
131
 10
0.0
 20
0.0
 30
0.0
 70
128
 71
43
 72
19
 73
28
 74
52
 0
VERTEX
 5
169
 8
0
 62
131
 10
0.0
 20
0.0
 30
0.0
 70
128
 71
28
 72
55
 73
56
 74
30
 0
VERTEX
 5
16A
 8
0
 62
131
 10
0.0
 20
0.0
 30
0.0
 70
128
 71
52
 72
28
 73
30
 74
31
 0
VERTEX
 5
16B
 8
0
 62
131
 10
0.0
 20
0.0
 30
0.0
 70
128
 71
32
 72
44
 73
31
 74
30
 0
VERTEX
 5
16C
 8
0
 62
131
 10
0.0
 20
0.0
 30
0.0
 70
128
 71
29
 72
50
 73
63
 74
34
 0
VERTEX
 5
16D
 8
0
 62
131
 10
0.0
 20
0.0
 30
0.0
 70
128
 71
33
 72
29
 73
34
 74
41
 0
VERTEX
 5
16E
 8
0
 62
131
 10
0.0
 20
0.0
 30
0.0
 70
128
 71
32
 72
34
 73
26
 74
23
 0
VERTEX
 5
16F
 8
0
 62
131
 10
0.0
 20
0.0
 30
0.0
 70
128
 71
43
 72
42
 73
67
 74
44
 0
VERTEX
 5
170
 8
0
 62
131
 10
0.0
 20
0.0
 30
0.0
 70
128
 71
35
 72
36
 73
67
 74
22
 0
VERTEX
 5
171
 8
0
 62
131
 10
0.0
 20
0.0
 30
0.0
 70
128
 71
25
 72
24
 73
69
 74
36
 0
VERTEX
 5
172
 8
0
 62
131
 10
0.0
 20
0.0
 30
0.0
 70
128
 71
65
 72
47
 73
42
 0
VERTEX
 5
173
 8
0
 62
131
 10
0.0
 20
0.0
 30
0.0
 70
128
 71
47
 72
37
 73
38
 74
24
 0
VERTEX
 5
174
 8
0
 62
131
 10
0.0
 20
0.0
 30
0.0
 70
128
 71
27
 72
21
 73
26
 74
39
 0
VERTEX
 5
175
 8
0
 62
131
 10
0.0
 20
0.0
 30
0.0
 70
128
 71
55
 72
28
 73
29
 74
33
 0
VERTEX
 5
176
 8
0
 62
131
 10
0.0
 20
0.0
 30
0.0
 70
128
 71
61
 72
50
 73
27
 74
40
 0
VERTEX
 5
177
 8
0
 62
131
 10
0.0
 20
0.0
 30
0.0
 70
128
 71
52
 72
54
 73
76
 74
43
 0
VERTEX
 5
178
 8
0
 62
131
 10
0.0
 20
0.0
 30
0.0
 70
128
 71
55
 72
53
 73
59
 74
56
 0
VERTEX
 5
179
 8
0
 62
131
 10
0.0
 20
0.0
 30
0.0
 70
128
 71
30
 72
56
 73
41
 74
34
 0
VERTEX
 5
17A
 8
0
 62
131
 10
0.0
 20
0.0
 30
0.0
 70
128
 71
53
 72
52
 73
31
 74
59
 0
VERTEX
 5
17B
 8
0
 62
131
 10
0.0
 20
0.0
 30
0.0
 70
128
 71
57
 72
31
 73
44
 74
66
 0
VERTEX
 5
17C
 8
0
 62
131
 10
0.0
 20
0.0
 30
0.0
 70
128
 71
50
 72
33
 73
41
 74
63
 0
VERTEX
 5
17D
 8
0
 62
131
 10
0.0
 20
0.0
 30
0.0
 70
128
 71
34
 72
63
 73
39
 74
26
 0
VERTEX
 5
17E
 8
0
 62
131
 10
0.0
 20
0.0
 30
0.0
 70
128
 71
42
 72
43
 73
76
 74
65
 0
VERTEX
 5
17F
 8
0
 62
131
 10
0.0
 20
0.0
 30
0.0
 70
128
 71
44
 72
67
 73
94
 74
66
 0
VERTEX
 5
180
 8
0
 62
131
 10
0.0
 20
0.0
 30
0.0
 70
128
 71
48
 72
67
 73
36
 74
69
 0
VERTEX
 5
181
 8
0
 62
131
 10
0.0
 20
0.0
 30
0.0
 70
128
 71
24
 72
38
 73
45
 74
69
 0
VERTEX
 5
182
 8
0
 62
131
 10
0.0
 20
0.0
 30
0.0
 70
128
 71
65
 72
46
 73
98
 74
47
 0
VERTEX
 5
183
 8
0
 62
131
 10
0.0
 20
0.0
 30
0.0
 70
128
 71
37
 72
47
 73
48
 74
68
 0
VERTEX
 5
184
 8
0
 62
131
 10
0.0
 20
0.0
 30
0.0
 70
128
 71
37
 72
71
 73
72
 74
38
 0
VERTEX
 5
185
 8
0
 62
131
 10
0.0
 20
0.0
 30
0.0
 70
128
 71
40
 72
27
 73
39
 74
49
 0
VERTEX
 5
186
 8
0
 62
131
 10
0.0
 20
0.0
 30
0.0
 70
128
 71
82
 72
55
 73
33
 74
92
 0
VERTEX
 5
187
 8
0
 62
131
 10
0.0
 20
0.0
 30
0.0
 70
128
 71
40
 72
73
 73
51
 74
61
 0
VERTEX
 5
188
 8
0
 62
131
 10
0.0
 20
0.0
 30
0.0
 70
128
 71
81
 72
54
 73
52
 74
53
 0
VERTEX
 5
189
 8
0
 62
131
 10
0.0
 20
0.0
 30
0.0
 70
128
 71
78
 72
76
 73
54
 74
79
 0
VERTEX
 5
18A
 8
0
 62
131
 10
0.0
 20
0.0
 30
0.0
 70
128
 71
53
 72
55
 73
82
 74
81
 0
VERTEX
 5
18B
 8
0
 62
131
 10
0.0
 20
0.0
 30
0.0
 70
128
 71
56
 72
59
 73
58
 74
83
 0
VERTEX
 5
18C
 8
0
 62
131
 10
0.0
 20
0.0
 30
0.0
 70
128
 71
56
 72
83
 73
85
 74
41
 0
VERTEX
 5
18D
 8
0
 62
131
 10
0.0
 20
0.0
 30
0.0
 70
128
 71
57
 72
58
 73
59
 74
31
 0
VERTEX
 5
18E
 8
0
 62
131
 10
0.0
 20
0.0
 30
0.0
 70
128
 71
66
 72
77
 73
114
 74
57
 0
VERTEX
 5
18F
 8
0
 62
131
 10
0.0
 20
0.0
 30
0.0
 70
128
 71
33
 72
50
 73
75
 74
92
 0
VERTEX
 5
190
 8
0
 62
131
 10
0.0
 20
0.0
 30
0.0
 70
128
 71
63
 72
41
 73
85
 74
64
 0
VERTEX
 5
191
 8
0
 62
131
 10
0.0
 20
0.0
 30
0.0
 70
128
 71
60
 72
61
 73
62
 74
87
 0
VERTEX
 5
192
 8
0
 62
131
 10
0.0
 20
0.0
 30
0.0
 70
128
 71
64
 72
62
 73
63
 0
VERTEX
 5
193
 8
0
 62
131
 10
0.0
 20
0.0
 30
0.0
 70
128
 71
61
 72
51
 73
91
 74
62
 0
VERTEX
 5
194
 8
0
 62
131
 10
0.0
 20
0.0
 30
0.0
 70
128
 71
63
 72
62
 73
49
 74
39
 0
VERTEX
 5
195
 8
0
 62
131
 10
0.0
 20
0.0
 30
0.0
 70
128
 71
34
 72
32
 73
30
 0
VERTEX
 5
196
 8
0
 62
131
 10
0.0
 20
0.0
 30
0.0
 70
128
 71
92
 72
75
 73
64
 74
85
 0
VERTEX
 5
197
 8
0
 62
131
 10
0.0
 20
0.0
 30
0.0
 70
128
 71
75
 72
105
 73
115
 74
64
 0
VERTEX
 5
198
 8
0
 62
131
 10
0.0
 20
0.0
 30
0.0
 70
128
 71
65
 72
76
 73
66
 74
94
 0
VERTEX
 5
199
 8
0
 62
131
 10
0.0
 20
0.0
 30
0.0
 70
128
 71
48
 72
94
 73
67
 0
VERTEX
 5
19A
 8
0
 62
131
 10
0.0
 20
0.0
 30
0.0
 70
128
 71
68
 72
48
 73
69
 74
45
 0
VERTEX
 5
19B
 8
0
 62
131
 10
0.0
 20
0.0
 30
0.0
 70
128
 71
38
 72
72
 73
96
 74
45
 0
VERTEX
 5
19C
 8
0
 62
131
 10
0.0
 20
0.0
 30
0.0
 70
128
 71
46
 72
65
 73
94
 74
93
 0
VERTEX
 5
19D
 8
0
 62
131
 10
0.0
 20
0.0
 30
0.0
 70
128
 71
46
 72
80
 73
124
 74
98
 0
VERTEX
 5
19E
 8
0
 62
131
 10
0.0
 20
0.0
 30
0.0
 70
128
 71
47
 72
98
 73
95
 74
48
 0
VERTEX
 5
19F
 8
0
 62
131
 10
0.0
 20
0.0
 30
0.0
 70
128
 71
98
 72
37
 73
68
 74
95
 0
VERTEX
 5
1A0
 8
0
 62
131
 10
0.0
 20
0.0
 30
0.0
 70
128
 71
70
 72
71
 73
37
 0
VERTEX
 5
1A1
 8
0
 62
131
 10
0.0
 20
0.0
 30
0.0
 70
128
 71
71
 72
102
 73
101
 74
72
 0
VERTEX
 5
1A2
 8
0
 62
131
 10
0.0
 20
0.0
 30
0.0
 70
128
 71
73
 72
40
 73
49
 74
90
 0
VERTEX
 5
1A3
 8
0
 62
131
 10
0.0
 20
0.0
 30
0.0
 70
128
 71
131
 72
82
 73
92
 74
74
 0
VERTEX
 5
1A4
 8
0
 62
131
 10
0.0
 20
0.0
 30
0.0
 70
128
 71
75
 72
61
 73
60
 74
105
 0
VERTEX
 5
1A5
 8
0
 62
131
 10
0.0
 20
0.0
 30
0.0
 70
128
 71
51
 72
73
 73
107
 0
VERTEX
 5
1A6
 8
0
 62
131
 10
0.0
 20
0.0
 30
0.0
 70
128
 71
107
 72
153
 73
111
 0
VERTEX
 5
1A7
 8
0
 62
131
 10
0.0
 20
0.0
 30
0.0
 70
128
 71
88
 72
51
 73
107
 0
VERTEX
 5
1A8
 8
0
 62
131
 10
0.0
 20
0.0
 30
0.0
 70
128
 71
107
 72
111
 73
88
 0
VERTEX
 5
1A9
 8
0
 62
131
 10
0.0
 20
0.0
 30
0.0
 70
128
 71
54
 72
81
 73
58
 74
57
 0
VERTEX
 5
1AA
 8
0
 62
131
 10
0.0
 20
0.0
 30
0.0
 70
128
 71
76
 72
78
 73
77
 74
66
 0
VERTEX
 5
1AB
 8
0
 62
131
 10
0.0
 20
0.0
 30
0.0
 70
128
 71
79
 72
54
 73
57
 74
114
 0
VERTEX
 5
1AC
 8
0
 62
131
 10
0.0
 20
0.0
 30
0.0
 70
128
 71
46
 72
78
 73
79
 74
80
 0
VERTEX
 5
1AD
 8
0
 62
131
 10
0.0
 20
0.0
 30
0.0
 70
128
 71
81
 72
82
 73
83
 74
58
 0
VERTEX
 5
1AE
 8
0
 62
131
 10
0.0
 20
0.0
 30
0.0
 70
128
 71
83
 72
104
 73
84
 74
85
 0
VERTEX
 5
1AF
 8
0
 62
131
 10
0.0
 20
0.0
 30
0.0
 70
128
 71
77
 72
93
 73
86
 74
114
 0
VERTEX
 5
1B0
 8
0
 62
131
 10
0.0
 20
0.0
 30
0.0
 70
128
 71
62
 72
64
 73
115
 74
87
 0
VERTEX
 5
1B1
 8
0
 62
131
 10
0.0
 20
0.0
 30
0.0
 70
128
 71
88
 72
60
 73
87
 74
89
 0
VERTEX
 5
1B2
 8
0
 62
131
 10
0.0
 20
0.0
 30
0.0
 70
128
 71
51
 72
88
 73
89
 74
91
 0
VERTEX
 5
1B3
 8
0
 62
131
 10
0.0
 20
0.0
 30
0.0
 70
128
 71
90
 72
49
 73
62
 74
91
 0
VERTEX
 5
1B4
 8
0
 62
131
 10
0.0
 20
0.0
 30
0.0
 70
128
 71
74
 72
92
 73
85
 74
84
 0
VERTEX
 5
1B5
 8
0
 62
131
 10
0.0
 20
0.0
 30
0.0
 70
128
 71
105
 72
74
 73
84
 74
115
 0
VERTEX
 5
1B6
 8
0
 62
131
 10
0.0
 20
0.0
 30
0.0
 70
128
 71
93
 72
94
 73
48
 74
95
 0
VERTEX
 5
1B7
 8
0
 62
131
 10
0.0
 20
0.0
 30
0.0
 70
128
 71
127
 72
68
 73
45
 74
96
 0
VERTEX
 5
1B8
 8
0
 62
131
 10
0.0
 20
0.0
 30
0.0
 70
128
 71
72
 72
101
 73
119
 74
96
 0
VERTEX
 5
1B9
 8
0
 62
131
 10
0.0
 20
0.0
 30
0.0
 70
128
 71
78
 72
46
 73
93
 74
77
 0
VERTEX
 5
1BA
 8
0
 62
131
 10
0.0
 20
0.0
 30
0.0
 70
128
 71
122
 72
124
 73
80
 74
97
 0
VERTEX
 5
1BB
 8
0
 62
131
 10
0.0
 20
0.0
 30
0.0
 70
128
 71
37
 72
98
 73
124
 74
70
 0
VERTEX
 5
1BC
 8
0
 62
131
 10
0.0
 20
0.0
 30
0.0
 70
128
 71
95
 72
68
 73
118
 74
136
 0
VERTEX
 5
1BD
 8
0
 62
131
 10
0.0
 20
0.0
 30
0.0
 70
128
 71
70
 72
125
 73
99
 74
71
 0
VERTEX
 5
1BE
 8
0
 62
131
 10
0.0
 20
0.0
 30
0.0
 70
128
 71
102
 72
71
 73
127
 74
100
 0
VERTEX
 5
1BF
 8
0
 62
131
 10
0.0
 20
0.0
 30
0.0
 70
128
 71
120
 72
101
 73
102
 74
128
 0
VERTEX
 5
1C0
 8
0
 62
131
 10
0.0
 20
0.0
 30
0.0
 70
128
 71
107
 72
73
 73
90
 74
103
 0
VERTEX
 5
1C1
 8
0
 62
131
 10
0.0
 20
0.0
 30
0.0
 70
128
 71
82
 72
131
 73
104
 74
83
 0
VERTEX
 5
1C2
 8
0
 62
131
 10
0.0
 20
0.0
 30
0.0
 70
128
 71
74
 72
105
 73
106
 74
131
 0
VERTEX
 5
1C3
 8
0
 62
131
 10
0.0
 20
0.0
 30
0.0
 70
128
 71
105
 72
60
 73
113
 74
106
 0
VERTEX
 5
1C4
 8
0
 62
131
 10
0.0
 20
0.0
 30
0.0
 70
128
 71
153
 72
107
 73
108
 74
109
 0
VERTEX
 5
1C5
 8
0
 62
131
 10
0.0
 20
0.0
 30
0.0
 70
128
 71
111
 72
153
 73
132
 74
110
 0
VERTEX
 5
1C6
 8
0
 62
131
 10
0.0
 20
0.0
 30
0.0
 70
128
 71
113
 72
60
 73
88
 0
VERTEX
 5
1C7
 8
0
 62
131
 10
0.0
 20
0.0
 30
0.0
 70
128
 71
88
 72
111
 73
133
 0
VERTEX
 5
1C8
 8
0
 62
131
 10
0.0
 20
0.0
 30
0.0
 70
128
 71
133
 72
145
 73
112
 0
VERTEX
 5
1C9
 8
0
 62
131
 10
0.0
 20
0.0
 30
0.0
 70
128
 71
112
 72
113
 73
88
 0
VERTEX
 5
1CA
 8
0
 62
131
 10
0.0
 20
0.0
 30
0.0
 70
128
 71
88
 72
133
 73
112
 0
VERTEX
 5
1CB
 8
0
 62
131
 10
0.0
 20
0.0
 30
0.0
 70
128
 71
80
 72
79
 73
114
 74
86
 0
VERTEX
 5
1CC
 8
0
 62
131
 10
0.0
 20
0.0
 30
0.0
 70
128
 71
115
 72
84
 73
104
 74
116
 0
VERTEX
 5
1CD
 8
0
 62
131
 10
0.0
 20
0.0
 30
0.0
 70
128
 71
86
 72
93
 73
95
 74
136
 0
VERTEX
 5
1CE
 8
0
 62
131
 10
0.0
 20
0.0
 30
0.0
 70
128
 71
87
 72
115
 73
116
 74
117
 0
VERTEX
 5
1CF
 8
0
 62
131
 10
0.0
 20
0.0
 30
0.0
 70
128
 71
89
 72
87
 73
117
 0
VERTEX
 5
1D0
 8
0
 62
131
 10
0.0
 20
0.0
 30
0.0
 70
128
 71
135
 72
139
 73
138
 0
VERTEX
 5
1D1
 8
0
 62
131
 10
0.0
 20
0.0
 30
0.0
 70
128
 71
89
 72
117
 73
135
 0
VERTEX
 5
1D2
 8
0
 62
131
 10
0.0
 20
0.0
 30
0.0
 70
128
 71
138
 72
110
 73
89
 0
VERTEX
 5
1D3
 8
0
 62
131
 10
0.0
 20
0.0
 30
0.0
 70
128
 71
89
 72
135
 73
138
 0
VERTEX
 5
1D4
 8
0
 62
131
 10
0.0
 20
0.0
 30
0.0
 70
128
 71
132
 72
103
 73
90
 0
VERTEX
 5
1D5
 8
0
 62
131
 10
0.0
 20
0.0
 30
0.0
 70
128
 71
90
 72
91
 73
89
 0
VERTEX
 5
1D6
 8
0
 62
131
 10
0.0
 20
0.0
 30
0.0
 70
128
 71
89
 72
110
 73
132
 0
VERTEX
 5
1D7
 8
0
 62
131
 10
0.0
 20
0.0
 30
0.0
 70
128
 71
90
 72
89
 73
132
 0
VERTEX
 5
1D8
 8
0
 62
131
 10
0.0
 20
0.0
 30
0.0
 70
128
 71
127
 72
118
 73
68
 0
VERTEX
 5
1D9
 8
0
 62
131
 10
0.0
 20
0.0
 30
0.0
 70
128
 71
100
 72
127
 73
96
 74
119
 0
VERTEX
 5
1DA
 8
0
 62
131
 10
0.0
 20
0.0
 30
0.0
 70
128
 71
101
 72
120
 73
121
 74
119
 0
VERTEX
 5
1DB
 8
0
 62
131
 10
0.0
 20
0.0
 30
0.0
 70
128
 71
124
 72
122
 73
157
 74
136
 0
VERTEX
 5
1DC
 8
0
 62
131
 10
0.0
 20
0.0
 30
0.0
 70
128
 71
97
 72
80
 73
86
 74
158
 0
VERTEX
 5
1DD
 8
0
 62
131
 10
0.0
 20
0.0
 30
0.0
 70
128
 71
125
 72
122
 73
97
 74
123
 0
VERTEX
 5
1DE
 8
0
 62
131
 10
0.0
 20
0.0
 30
0.0
 70
128
 71
70
 72
124
 73
136
 74
118
 0
VERTEX
 5
1DF
 8
0
 62
131
 10
0.0
 20
0.0
 30
0.0
 70
128
 71
125
 72
70
 73
118
 74
159
 0
VERTEX
 5
1E0
 8
0
 62
131
 10
0.0
 20
0.0
 30
0.0
 70
128
 71
125
 72
123
 73
126
 74
99
 0
VERTEX
 5
1E1
 8
0
 62
131
 10
0.0
 20
0.0
 30
0.0
 70
128
 71
71
 72
99
 73
140
 74
127
 0
VERTEX
 5
1E2
 8
0
 62
131
 10
0.0
 20
0.0
 30
0.0
 70
128
 71
128
 72
102
 73
100
 74
162
 0
VERTEX
 5
1E3
 8
0
 62
131
 10
0.0
 20
0.0
 30
0.0
 70
128
 71
128
 72
188
 73
129
 74
120
 0
VERTEX
 5
1E4
 8
0
 62
131
 10
0.0
 20
0.0
 30
0.0
 70
128
 71
108
 72
107
 73
103
 74
130
 0
VERTEX
 5
1E5
 8
0
 62
131
 10
0.0
 20
0.0
 30
0.0
 70
128
 71
131
 72
106
 73
116
 74
104
 0
VERTEX
 5
1E6
 8
0
 62
131
 10
0.0
 20
0.0
 30
0.0
 70
128
 71
143
 72
106
 73
113
 74
144
 0
VERTEX
 5
1E7
 8
0
 62
131
 10
0.0
 20
0.0
 30
0.0
 70
128
 71
108
 72
171
 73
172
 74
109
 0
VERTEX
 5
1E8
 8
0
 62
131
 10
0.0
 20
0.0
 30
0.0
 70
128
 71
109
 72
150
 73
153
 0
VERTEX
 5
1E9
 8
0
 62
131
 10
0.0
 20
0.0
 30
0.0
 70
128
 71
153
 72
133
 73
138
 74
132
 0
VERTEX
 5
1EA
 8
0
 62
131
 10
0.0
 20
0.0
 30
0.0
 70
128
 71
133
 72
111
 73
110
 74
138
 0
VERTEX
 5
1EB
 8
0
 62
131
 10
0.0
 20
0.0
 30
0.0
 70
128
 71
145
 72
133
 73
134
 74
146
 0
VERTEX
 5
1EC
 8
0
 62
131
 10
0.0
 20
0.0
 30
0.0
 70
128
 71
112
 72
145
 73
139
 74
135
 0
VERTEX
 5
1ED
 8
0
 62
131
 10
0.0
 20
0.0
 30
0.0
 70
128
 71
113
 72
112
 73
135
 74
117
 0
VERTEX
 5
1EE
 8
0
 62
131
 10
0.0
 20
0.0
 30
0.0
 70
128
 71
136
 72
157
 73
158
 74
86
 0
VERTEX
 5
1EF
 8
0
 62
131
 10
0.0
 20
0.0
 30
0.0
 70
128
 71
116
 72
137
 73
156
 74
117
 0
VERTEX
 5
1F0
 8
0
 62
131
 10
0.0
 20
0.0
 30
0.0
 70
128
 71
138
 72
139
 73
178
 74
154
 0
VERTEX
 5
1F1
 8
0
 62
131
 10
0.0
 20
0.0
 30
0.0
 70
128
 71
103
 72
132
 73
149
 74
130
 0
VERTEX
 5
1F2
 8
0
 62
131
 10
0.0
 20
0.0
 30
0.0
 70
128
 71
159
 72
118
 73
127
 74
140
 0
VERTEX
 5
1F3
 8
0
 62
131
 10
0.0
 20
0.0
 30
0.0
 70
128
 71
119
 72
121
 73
162
 74
100
 0
VERTEX
 5
1F4
 8
0
 62
131
 10
0.0
 20
0.0
 30
0.0
 70
128
 71
120
 72
129
 73
163
 74
121
 0
VERTEX
 5
1F5
 8
0
 62
131
 10
0.0
 20
0.0
 30
0.0
 70
128
 71
122
 72
125
 73
159
 74
157
 0
VERTEX
 5
1F6
 8
0
 62
131
 10
0.0
 20
0.0
 30
0.0
 70
128
 71
123
 72
97
 73
158
 74
165
 0
VERTEX
 5
1F7
 8
0
 62
131
 10
0.0
 20
0.0
 30
0.0
 70
128
 71
141
 72
126
 73
123
 74
166
 0
VERTEX
 5
1F8
 8
0
 62
131
 10
0.0
 20
0.0
 30
0.0
 70
128
 71
128
 72
99
 73
126
 74
167
 0
VERTEX
 5
1F9
 8
0
 62
131
 10
0.0
 20
0.0
 30
0.0
 70
128
 71
99
 72
128
 73
162
 74
140
 0
VERTEX
 5
1FA
 8
0
 62
131
 10
0.0
 20
0.0
 30
0.0
 70
128
 71
167
 72
188
 73
128
 0
VERTEX
 5
1FB
 8
0
 62
131
 10
0.0
 20
0.0
 30
0.0
 70
128
 71
169
 72
164
 73
129
 74
188
 0
VERTEX
 5
1FC
 8
0
 62
131
 10
0.0
 20
0.0
 30
0.0
 70
128
 71
171
 72
108
 73
130
 74
142
 0
VERTEX
 5
1FD
 8
0
 62
131
 10
0.0
 20
0.0
 30
0.0
 70
128
 71
106
 72
143
 73
137
 74
116
 0
VERTEX
 5
1FE
 8
0
 62
131
 10
0.0
 20
0.0
 30
0.0
 70
128
 71
144
 72
113
 73
117
 74
156
 0
VERTEX
 5
1FF
 8
0
 62
131
 10
0.0
 20
0.0
 30
0.0
 70
128
 71
144
 72
145
 73
146
 74
143
 0
VERTEX
 5
200
 8
0
 62
131
 10
0.0
 20
0.0
 30
0.0
 70
128
 71
171
 72
170
 73
147
 74
172
 0
VERTEX
 5
201
 8
0
 62
131
 10
0.0
 20
0.0
 30
0.0
 70
128
 71
109
 72
172
 73
148
 74
149
 0
VERTEX
 5
202
 8
0
 62
131
 10
0.0
 20
0.0
 30
0.0
 70
128
 71
150
 72
109
 73
151
 74
152
 0
VERTEX
 5
203
 8
0
 62
131
 10
0.0
 20
0.0
 30
0.0
 70
128
 71
150
 72
134
 73
133
 74
153
 0
VERTEX
 5
204
 8
0
 62
131
 10
0.0
 20
0.0
 30
0.0
 70
128
 71
154
 72
175
 73
132
 74
138
 0
VERTEX
 5
205
 8
0
 62
131
 10
0.0
 20
0.0
 30
0.0
 70
128
 71
146
 72
134
 73
155
 74
192
 0
VERTEX
 5
206
 8
0
 62
131
 10
0.0
 20
0.0
 30
0.0
 70
128
 71
145
 72
144
 73
156
 74
139
 0
VERTEX
 5
207
 8
0
 62
131
 10
0.0
 20
0.0
 30
0.0
 70
128
 71
157
 72
159
 73
165
 74
158
 0
VERTEX
 5
208
 8
0
 62
131
 10
0.0
 20
0.0
 30
0.0
 70
128
 71
139
 72
156
 73
137
 74
178
 0
VERTEX
 5
209
 8
0
 62
131
 10
0.0
 20
0.0
 30
0.0
 70
128
 71
154
 72
178
 73
177
 74
176
 0
VERTEX
 5
20A
 8
0
 62
131
 10
0.0
 20
0.0
 30
0.0
 70
128
 71
175
 72
149
 73
132
 0
VERTEX
 5
20B
 8
0
 62
131
 10
0.0
 20
0.0
 30
0.0
 70
128
 71
142
 72
130
 73
149
 74
148
 0
VERTEX
 5
20C
 8
0
 62
131
 10
0.0
 20
0.0
 30
0.0
 70
128
 71
165
 72
159
 73
140
 74
160
 0
VERTEX
 5
20D
 8
0
 62
131
 10
0.0
 20
0.0
 30
0.0
 70
128
 71
161
 72
162
 73
121
 74
163
 0
VERTEX
 5
20E
 8
0
 62
131
 10
0.0
 20
0.0
 30
0.0
 70
128
 71
129
 72
164
 73
195
 74
163
 0
VERTEX
 5
20F
 8
0
 62
131
 10
0.0
 20
0.0
 30
0.0
 70
128
 71
166
 72
123
 73
165
 74
182
 0
VERTEX
 5
210
 8
0
 62
131
 10
0.0
 20
0.0
 30
0.0
 70
128
 71
126
 72
141
 73
181
 74
160
 0
VERTEX
 5
211
 8
0
 62
131
 10
0.0
 20
0.0
 30
0.0
 70
128
 71
183
 72
141
 73
166
 74
185
 0
VERTEX
 5
212
 8
0
 62
131
 10
0.0
 20
0.0
 30
0.0
 70
128
 71
167
 72
126
 73
160
 74
184
 0
VERTEX
 5
213
 8
0
 62
131
 10
0.0
 20
0.0
 30
0.0
 70
128
 71
140
 72
162
 73
184
 74
160
 0
VERTEX
 5
214
 8
0
 62
131
 10
0.0
 20
0.0
 30
0.0
 70
128
 71
147
 72
170
 73
164
 74
169
 0
VERTEX
 5
215
 8
0
 62
131
 10
0.0
 20
0.0
 30
0.0
 70
128
 71
169
 72
188
 73
161
 74
194
 0
VERTEX
 5
216
 8
0
 62
131
 10
0.0
 20
0.0
 30
0.0
 70
128
 71
170
 72
171
 73
142
 74
193
 0
VERTEX
 5
217
 8
0
 62
131
 10
0.0
 20
0.0
 30
0.0
 70
128
 71
143
 72
146
 73
178
 74
137
 0
VERTEX
 5
218
 8
0
 62
131
 10
0.0
 20
0.0
 30
0.0
 70
128
 71
172
 72
147
 73
173
 74
148
 0
VERTEX
 5
219
 8
0
 62
131
 10
0.0
 20
0.0
 30
0.0
 70
128
 71
149
 72
174
 73
151
 74
109
 0
VERTEX
 5
21A
 8
0
 62
131
 10
0.0
 20
0.0
 30
0.0
 70
128
 71
204
 72
152
 73
151
 74
189
 0
VERTEX
 5
21B
 8
0
 62
131
 10
0.0
 20
0.0
 30
0.0
 70
128
 71
150
 72
152
 73
179
 74
175
 0
VERTEX
 5
21C
 8
0
 62
131
 10
0.0
 20
0.0
 30
0.0
 70
128
 71
134
 72
150
 73
175
 74
154
 0
VERTEX
 5
21D
 8
0
 62
131
 10
0.0
 20
0.0
 30
0.0
 70
128
 71
155
 72
134
 73
154
 74
176
 0
VERTEX
 5
21E
 8
0
 62
131
 10
0.0
 20
0.0
 30
0.0
 70
128
 71
155
 72
152
 73
204
 74
192
 0
VERTEX
 5
21F
 8
0
 62
131
 10
0.0
 20
0.0
 30
0.0
 70
128
 71
146
 72
192
 73
177
 74
178
 0
VERTEX
 5
220
 8
0
 62
131
 10
0.0
 20
0.0
 30
0.0
 70
128
 71
179
 72
176
 73
177
 74
180
 0
VERTEX
 5
221
 8
0
 62
131
 10
0.0
 20
0.0
 30
0.0
 70
128
 71
149
 72
175
 73
179
 74
174
 0
VERTEX
 5
222
 8
0
 62
131
 10
0.0
 20
0.0
 30
0.0
 70
128
 71
193
 72
142
 73
148
 74
173
 0
VERTEX
 5
223
 8
0
 62
131
 10
0.0
 20
0.0
 30
0.0
 70
128
 71
160
 72
181
 73
182
 74
165
 0
VERTEX
 5
224
 8
0
 62
131
 10
0.0
 20
0.0
 30
0.0
 70
128
 71
161
 72
184
 73
162
 0
VERTEX
 5
225
 8
0
 62
131
 10
0.0
 20
0.0
 30
0.0
 70
128
 71
195
 72
194
 73
161
 74
163
 0
VERTEX
 5
226
 8
0
 62
131
 10
0.0
 20
0.0
 30
0.0
 70
128
 71
164
 72
170
 73
193
 74
195
 0
VERTEX
 5
227
 8
0
 62
131
 10
0.0
 20
0.0
 30
0.0
 70
128
 71
185
 72
166
 73
182
 74
196
 0
VERTEX
 5
228
 8
0
 62
131
 10
0.0
 20
0.0
 30
0.0
 70
128
 71
141
 72
183
 73
197
 74
181
 0
VERTEX
 5
229
 8
0
 62
131
 10
0.0
 20
0.0
 30
0.0
 70
128
 71
183
 72
167
 73
184
 74
197
 0
VERTEX
 5
22A
 8
0
 62
131
 10
0.0
 20
0.0
 30
0.0
 70
128
 71
168
 72
185
 73
191
 74
190
 0
VERTEX
 5
22B
 8
0
 62
131
 10
0.0
 20
0.0
 30
0.0
 70
128
 71
200
 72
169
 73
186
 74
168
 0
VERTEX
 5
22C
 8
0
 62
131
 10
0.0
 20
0.0
 30
0.0
 70
128
 71
183
 72
186
 73
188
 74
167
 0
VERTEX
 5
22D
 8
0
 62
131
 10
0.0
 20
0.0
 30
0.0
 70
128
 71
186
 72
183
 73
185
 74
168
 0
VERTEX
 5
22E
 8
0
 62
131
 10
0.0
 20
0.0
 30
0.0
 70
128
 71
188
 72
186
 73
198
 74
161
 0
VERTEX
 5
22F
 8
0
 62
131
 10
0.0
 20
0.0
 30
0.0
 70
128
 71
169
 72
200
 73
147
 0
VERTEX
 5
230
 8
0
 62
131
 10
0.0
 20
0.0
 30
0.0
 70
128
 71
50
 72
61
 73
75
 0
VERTEX
 5
231
 8
0
 62
131
 10
0.0
 20
0.0
 30
0.0
 70
128
 71
186
 72
169
 73
194
 74
198
 0
VERTEX
 5
232
 8
0
 62
131
 10
0.0
 20
0.0
 30
0.0
 70
128
 71
173
 72
147
 73
151
 74
174
 0
VERTEX
 5
233
 8
0
 62
131
 10
0.0
 20
0.0
 30
0.0
 70
128
 71
200
 72
189
 73
151
 74
147
 0
VERTEX
 5
234
 8
0
 62
131
 10
0.0
 20
0.0
 30
0.0
 70
128
 71
204
 72
189
 73
190
 74
191
 0
VERTEX
 5
235
 8
0
 62
131
 10
0.0
 20
0.0
 30
0.0
 70
128
 71
152
 72
155
 73
176
 74
179
 0
VERTEX
 5
236
 8
0
 62
131
 10
0.0
 20
0.0
 30
0.0
 70
128
 71
192
 72
204
 73
180
 74
177
 0
VERTEX
 5
237
 8
0
 62
131
 10
0.0
 20
0.0
 30
0.0
 70
128
 71
179
 72
180
 73
203
 74
174
 0
VERTEX
 5
238
 8
0
 62
131
 10
0.0
 20
0.0
 30
0.0
 70
128
 71
193
 72
173
 73
194
 74
195
 0
VERTEX
 5
239
 8
0
 62
131
 10
0.0
 20
0.0
 30
0.0
 70
128
 71
181
 72
197
 73
196
 74
182
 0
VERTEX
 5
23A
 8
0
 62
131
 10
0.0
 20
0.0
 30
0.0
 70
128
 71
161
 72
198
 73
197
 74
184
 0
VERTEX
 5
23B
 8
0
 62
131
 10
0.0
 20
0.0
 30
0.0
 70
128
 71
191
 72
185
 73
196
 74
199
 0
VERTEX
 5
23C
 8
0
 62
131
 10
0.0
 20
0.0
 30
0.0
 70
128
 71
196
 72
197
 73
198
 74
187
 0
VERTEX
 5
23D
 8
0
 62
131
 10
0.0
 20
0.0
 30
0.0
 70
128
 71
29
 72
28
 73
19
 0
VERTEX
 5
23E
 8
0
 62
131
 10
0.0
 20
0.0
 30
0.0
 70
128
 71
168
 72
190
 73
201
 74
187
 0
VERTEX
 5
23F
 8
0
 62
131
 10
0.0
 20
0.0
 30
0.0
 70
128
 71
200
 72
168
 73
187
 74
202
 0
VERTEX
 5
240
 8
0
 62
131
 10
0.0
 20
0.0
 30
0.0
 70
128
 71
196
 72
187
 73
201
 74
199
 0
VERTEX
 5
241
 8
0
 62
131
 10
0.0
 20
0.0
 30
0.0
 70
128
 71
194
 72
202
 73
187
 74
198
 0
VERTEX
 5
242
 8
0
 62
131
 10
0.0
 20
0.0
 30
0.0
 70
128
 71
189
 72
200
 73
202
 74
203
 0
VERTEX
 5
243
 8
0
 62
131
 10
0.0
 20
0.0
 30
0.0
 70
128
 71
202
 72
194
 73
173
 0
VERTEX
 5
244
 8
0
 62
131
 10
0.0
 20
0.0
 30
0.0
 70
128
 71
203
 72
202
 73
173
 74
174
 0
VERTEX
 5
245
 8
0
 62
131
 10
0.0
 20
0.0
 30
0.0
 70
128
 71
190
 72
189
 73
203
 74
201
 0
VERTEX
 5
246
 8
0
 62
131
 10
0.0
 20
0.0
 30
0.0
 70
128
 71
204
 72
191
 73
199
 74
180
 0
VERTEX
 5
247
 8
0
 62
131
 10
0.0
 20
0.0
 30
0.0
 70
128
 71
203
 72
180
 73
199
 74
201
 0
SEQEND
 5
248
 8
0
 62
131
 0
ENDSEC
 0
EOF
