 0
SECTION
 2
HEADER
 9
$ACADVER
 1
AC1009
 9
$INSBASE
 10
0.0
 20
0.0
 30
0.0
 9
$EXTMIN
 10
0.0
 20
-0.0500000007450581
 30
0.0
 9
$EXTMAX
 10
0.7999998927116394
 20
0.0500000081956387
 30
2.0749998092651358
 9
$LIMMIN
 10
0.0
 20
0.0
 9
$LIMMAX
 10
12.0
 20
9.0
 9
$ORTHOMODE
 70
0
 9
$REGENMODE
 70
1
 9
$FILLMODE
 70
1
 9
$QTEXTMODE
 70
0
 9
$MIRRTEXT
 70
0
 9
$DRAGMODE
 70
2
 9
$LTSCALE
 40
1.0
 9
$OSMODE
 70
43
 9
$ATTMODE
 70
1
 9
$TEXTSIZE
 40
1.0
 9
$TRACEWID
 40
0.05
 9
$TEXTSTYLE
 7
STANDARD
 9
$CLAYER
 8
0
 9
$CELTYPE
 6
CONTINUOUS
 9
$CECOLOR
 62
256
 9
$DIMSCALE
 40
1.0
 9
$DIMASZ
 40
0.18
 9
$DIMEXO
 40
0.0625
 9
$DIMDLI
 40
0.38
 9
$DIMRND
 40
0.0
 9
$DIMDLE
 40
0.0
 9
$DIMEXE
 40
0.18
 9
$DIMTP
 40
0.0
 9
$DIMTM
 40
0.0
 9
$DIMTXT
 40
0.18
 9
$DIMCEN
 40
0.09
 9
$DIMTSZ
 40
0.0
 9
$DIMTOL
 70
0
 9
$DIMLIM
 70
0
 9
$DIMTIH
 70
1
 9
$DIMTOH
 70
1
 9
$DIMSE1
 70
0
 9
$DIMSE2
 70
0
 9
$DIMTAD
 70
0
 9
$DIMZIN
 70
0
 9
$DIMBLK
 1

 9
$DIMASO
 70
1
 9
$DIMSHO
 70
1
 9
$DIMPOST
 1

 9
$DIMAPOST
 1

 9
$DIMALT
 70
0
 9
$DIMALTD
 70
2
 9
$DIMALTF
 40
25.3999999999999986
 9
$DIMLFAC
 40
1.0
 9
$DIMTOFL
 70
0
 9
$DIMTVP
 40
0.0
 9
$DIMTIX
 70
0
 9
$DIMSOXD
 70
0
 9
$DIMSAH
 70
0
 9
$DIMBLK1
 1

 9
$DIMBLK2
 1

 9
$DIMSTYLE
 2
STANDARD
 9
$DIMCLRD
 70
0
 9
$DIMCLRE
 70
0
 9
$DIMCLRT
 70
0
 9
$DIMTFAC
 40
1.0
 9
$DIMGAP
 40
0.09
 9
$LUNITS
 70
2
 9
$LUPREC
 70
4
 9
$SKETCHINC
 40
0.1
 9
$FILLETRAD
 40
0.0
 9
$AUNITS
 70
0
 9
$AUPREC
 70
0
 9
$MENU
 1
.
 9
$ELEVATION
 40
0.0
 9
$PELEVATION
 40
0.0
 9
$THICKNESS
 40
0.0
 9
$LIMCHECK
 70
0
 9
$BLIPMODE
 70
0
 9
$CHAMFERA
 40
0.0
 9
$CHAMFERB
 40
0.0
 9
$SKPOLY
 70
0
 9
$TDCREATE
 40
2458918.3995138891041279
 9
$TDUPDATE
 40
2458918.3996527781710029
 9
$TDINDWG
 40
0.0001388889
 9
$TDUSRTIMER
 40
0.0001388889
 9
$USRTIMER
 70
1
 9
$ANGBASE
 50
0.0
 9
$ANGDIR
 70
0
 9
$PDMODE
 70
0
 9
$PDSIZE
 40
0.0
 9
$PLINEWID
 40
0.0
 9
$COORDS
 70
1
 9
$SPLFRAME
 70
0
 9
$SPLINETYPE
 70
6
 9
$SPLINESEGS
 70
8
 9
$ATTDIA
 70
0
 9
$ATTREQ
 70
1
 9
$HANDLING
 70
1
 9
$HANDSEED
 5
1B3
 9
$SURFTAB1
 70
6
 9
$SURFTAB2
 70
6
 9
$SURFTYPE
 70
6
 9
$SURFU
 70
6
 9
$SURFV
 70
6
 9
$UCSNAME
 2

 9
$UCSORG
 10
0.0
 20
0.0
 30
0.0
 9
$UCSXDIR
 10
1.0
 20
0.0
 30
0.0
 9
$UCSYDIR
 10
0.0
 20
1.0
 30
0.0
 9
$PUCSNAME
 2

 9
$PUCSORG
 10
0.0
 20
0.0
 30
0.0
 9
$PUCSXDIR
 10
1.0
 20
0.0
 30
0.0
 9
$PUCSYDIR
 10
0.0
 20
1.0
 30
0.0
 9
$USERI1
 70
0
 9
$USERI2
 70
0
 9
$USERI3
 70
0
 9
$USERI4
 70
0
 9
$USERI5
 70
0
 9
$USERR1
 40
0.0
 9
$USERR2
 40
0.0
 9
$USERR3
 40
0.0
 9
$USERR4
 40
0.0
 9
$USERR5
 40
0.0
 9
$WORLDVIEW
 70
1
 9
$SHADEDGE
 70
3
 9
$SHADEDIF
 70
70
 9
$TILEMODE
 70
1
 9
$MAXACTVP
 70
64
 9
$PLIMCHECK
 70
0
 9
$PEXTMIN
 10
1.0000000000000000E+20
 20
1.0000000000000000E+20
 30
1.0000000000000000E+20
 9
$PEXTMAX
 10
-1.0000000000000000E+20
 20
-1.0000000000000000E+20
 30
-1.0000000000000000E+20
 9
$PLIMMIN
 10
0.0
 20
0.0
 9
$PLIMMAX
 10
12.0
 20
9.0
 9
$UNITMODE
 70
0
 9
$VISRETAIN
 70
1
 9
$PLINEGEN
 70
0
 9
$PSLTSCALE
 70
1
 0
ENDSEC
 0
SECTION
 2
TABLES
 0
TABLE
 2
VPORT
 70
1
 0
VPORT
 2
*ACTIVE
 70
0
 10
0.0
 20
0.0
 11
1.0
 21
1.0
 12
-0.672963400236128
 22
1.0
 13
0.0
 23
0.0
 14
0.1
 24
0.1
 15
0.1
 25
0.1
 16
0.0
 26
0.0
 36
1.0
 17
0.0
 27
0.0
 37
0.0
 40
10.0
 41
1.8654073199527741
 42
50.0
 43
0.0
 44
0.0
 50
0.0
 51
0.0
 71
0
 72
100
 73
1
 74
1
 75
0
 76
0
 77
0
 78
0
 0
ENDTAB
 0
TABLE
 2
LTYPE
 70
8
 0
LTYPE
 2
CONTINUOUS
 70
0
 3
Solid line
 72
65
 73
0
 40
0.0
 0
LTYPE
 2
DOT
 70
0
 3
. . . . . . .
 72
65
 73
2
 40
0.25
 49
0.0
 49
-0.25
 0
LTYPE
 2
DASHED
 70
0
 3
__ __ __ __ __
 72
65
 73
2
 40
0.8
 49
0.5
 49
-0.3
 0
LTYPE
 2
DASHDOT
 70
0
 3
__ . __ . __ .
 72
65
 73
4
 40
1.0
 49
0.5
 49
-0.25
 49
0.0
 49
-0.25
 0
LTYPE
 2
DIVIDE
 70
0
 3
____ . . ____ . . 
 72
65
 73
6
 40
1.25
 49
0.5
 49
-0.25
 49
0.0
 49
-0.25
 49
0.0
 49
-0.25
 0
LTYPE
 2
BORDER
 70
0
 3
__ __ . __ __ . 
 72
65
 73
6
 40
1.75
 49
0.5
 49
-0.25
 49
0.5
 49
-0.25
 49
0.0
 49
-0.25
 0
LTYPE
 2
HIDDEN
 70
0
 3
__ __ __ __ __
 72
65
 73
2
 40
0.4
 49
0.25
 49
-0.25
 0
LTYPE
 2
CENTER
 70
0
 3
____ _ ____ _ __
 72
65
 73
4
 40
2.0
 49
1.25
 49
-0.25
 49
0.25
 49
-0.25
 0
ENDTAB
 0
TABLE
 2
LAYER
 70
2
 0
LAYER
 2
0
 70
0
 62
7
 6
CONTINUOUS
 0
LAYER
 2
PYDXF
 70
0
 62
7
 6
CONTINUOUS
 0
ENDTAB
 0
TABLE
 2
STYLE
 70
2
 0
STYLE
 2
STANDARD
 70
0
 40
0.0
 41
1.0
 50
0.0
 71
0
 42
1.0
 3
txt
 4

 0
STYLE
 2
ANNOTATIVE
 70
0
 40
0.0
 41
1.0
 50
0.0
 71
0
 42
0.2
 3
txt
 4

 0
ENDTAB
 0
TABLE
 2
VIEW
 70
1
 0
VIEW
 2
BF_TOPVIEW
 70
0
 40
120.0
 10
0.0
 20
0.0
 41
200.0
 11
0.0
 21
0.0
 31
1.0
 12
0.0
 22
0.0
 32
0.0
 42
50.0
 43
0.0
 44
0.0
 50
0.0
 71
0
 0
ENDTAB
 0
TABLE
 2
UCS
 70
0
 0
ENDTAB
 0
TABLE
 2
APPID
 70
4
 0
APPID
 2
ACAD
 70
0
 0
APPID
 2
ACADANNOTATIVE
 70
0
 0
APPID
 2
ACAD_NAV_VCDISPLAY
 70
0
 0
APPID
 2
ACAD_MLEADERVER
 70
0
 0
ENDTAB
 0
TABLE
 2
DIMSTYLE
 70
2
 0
DIMSTYLE
 2
STANDARD
 70
0
 3

 4

 5

 6

 7

 40
1.0
 41
0.18
 42
0.0625
 43
0.38
 44
0.18
 45
0.0
 46
0.0
 47
0.0
 48
0.0
 140
0.18
 141
0.09
 142
0.0
 143
25.3999999999999986
 144
1.0
 145
0.0
 146
1.0
 147
0.09
 71
0
 72
0
 73
1
 74
1
 75
0
 76
0
 77
0
 78
0
 170
0
 171
2
 172
0
 173
0
 174
0
 175
0
 176
0
 177
0
 178
0
 0
DIMSTYLE
 2
ANNOTATIVE
 70
0
 3

 4

 5

 6

 7

 40
1.0
 41
0.18
 42
0.0625
 43
0.38
 44
0.18
 45
0.0
 46
0.0
 47
0.0
 48
0.0
 140
0.18
 141
0.09
 142
0.0
 143
25.3999999999999986
 144
1.0
 145
0.0
 146
1.0
 147
0.09
 71
0
 72
0
 73
1
 74
1
 75
0
 76
0
 77
0
 78
0
 170
0
 171
2
 172
0
 173
0
 174
0
 175
0
 176
0
 177
0
 178
0
 0
ENDTAB
 0
ENDSEC
 0
SECTION
 2
BLOCKS
 0
BLOCK
 8
0
 2
$MODEL_SPACE
 70
0
 10
0.0
 20
0.0
 30
0.0
 3
$MODEL_SPACE
 1

 0
ENDBLK
 5
71
 8
0
 0
BLOCK
 67
1
 8
0
 2
$PAPER_SPACE
 70
0
 10
0.0
 20
0.0
 30
0.0
 3
$PAPER_SPACE
 1

 0
ENDBLK
 5
6D
 67
1
 8
0
 0
ENDSEC
 0
SECTION
 2
ENTITIES
 0
POLYLINE
 5
7F
 8
0
 62
131
 66
1
 10
0
 20
0.08
 30
0
 70
64
 71
112
 72
108
 0
VERTEX
 5
80
 8
0
 62
131
 10
0.691
 20
0.13
 30
0.08
 70
192
 0
VERTEX
 5
81
 8
0
 62
131
 10
0.691
 20
0.13
 30
0
 70
192
 0
VERTEX
 5
82
 8
0
 62
131
 10
0.109
 20
0.13
 30
0
 70
192
 0
VERTEX
 5
83
 8
0
 62
131
 10
0.109
 20
0.084
 30
0
 70
192
 0
VERTEX
 5
84
 8
0
 62
131
 10
0.029
 20
0.13
 30
0
 70
192
 0
VERTEX
 5
85
 8
0
 62
131
 10
0.029
 20
0.084
 30
0
 70
192
 0
VERTEX
 5
86
 8
0
 62
131
 10
0.029
 20
0.084
 30
0.08
 70
192
 0
VERTEX
 5
87
 8
0
 62
131
 10
0.029
 20
0.13
 30
0.08
 70
192
 0
VERTEX
 5
88
 8
0
 62
131
 10
0.029
 20
0.13
 30
0.65533322095871
 70
192
 0
VERTEX
 5
89
 8
0
 62
131
 10
0.109
 20
0.13
 30
0.08
 70
192
 0
VERTEX
 5
8A
 8
0
 62
131
 10
0.109
 20
0.13
 30
0.65533322095871
 70
192
 0
VERTEX
 5
8B
 8
0
 62
131
 10
0.109
 20
0.115
 30
0.08
 70
192
 0
VERTEX
 5
8C
 8
0
 62
131
 10
0.109
 20
0.115
 30
0.65533322095871
 70
192
 0
VERTEX
 5
8D
 8
0
 62
131
 10
0.691
 20
0.115
 30
0.08
 70
192
 0
VERTEX
 5
8E
 8
0
 62
131
 10
0.691
 20
0.13
 30
0.65533322095871
 70
192
 0
VERTEX
 5
8F
 8
0
 62
131
 10
0.771
 20
0.13
 30
0.08
 70
192
 0
VERTEX
 5
90
 8
0
 62
131
 10
0.771
 20
0.084
 30
0
 70
192
 0
VERTEX
 5
91
 8
0
 62
131
 10
0.771
 20
0.13
 30
0
 70
192
 0
VERTEX
 5
92
 8
0
 62
131
 10
0.691
 20
0.084
 30
0
 70
192
 0
VERTEX
 5
93
 8
0
 62
131
 10
0.029
 20
0.084
 30
0.65533322095871
 70
192
 0
VERTEX
 5
94
 8
0
 62
131
 10
0.109
 20
0.13
 30
0.735333263874054
 70
192
 0
VERTEX
 5
95
 8
0
 62
131
 10
0.029
 20
0.13
 30
0.735333263874054
 70
192
 0
VERTEX
 5
96
 8
0
 62
131
 10
0.691
 20
0.115
 30
0.65533322095871
 70
192
 0
VERTEX
 5
97
 8
0
 62
131
 10
0.771
 20
0.13
 30
0.65533322095871
 70
192
 0
VERTEX
 5
98
 8
0
 62
131
 10
0.771
 20
0.084
 30
0.65533322095871
 70
192
 0
VERTEX
 5
99
 8
0
 62
131
 10
0.771
 20
0.13
 30
0.735333263874054
 70
192
 0
VERTEX
 5
9A
 8
0
 62
131
 10
0.691
 20
0.084
 30
0.08
 70
192
 0
VERTEX
 5
9B
 8
0
 62
131
 10
0.109
 20
0.084
 30
0.08
 70
192
 0
VERTEX
 5
9C
 8
0
 62
131
 10
0.771
 20
0.084
 30
0.735333263874054
 70
192
 0
VERTEX
 5
9D
 8
0
 62
131
 10
0.771
 20
0.084
 30
0.08
 70
192
 0
VERTEX
 5
9E
 8
0
 62
131
 10
0.691
 20
0.099
 30
0.65533322095871
 70
192
 0
VERTEX
 5
9F
 8
0
 62
131
 10
0.691
 20
0.099
 30
0.08
 70
192
 0
VERTEX
 5
A0
 8
0
 62
131
 10
0.109
 20
0.099
 30
0.08
 70
192
 0
VERTEX
 5
A1
 8
0
 62
131
 10
0.109
 20
0.099
 30
0.65533322095871
 70
192
 0
VERTEX
 5
A2
 8
0
 62
131
 10
0.109
 20
0.084
 30
0.735333263874054
 70
192
 0
VERTEX
 5
A3
 8
0
 62
131
 10
0.029
 20
0.084
 30
0.735333263874054
 70
192
 0
VERTEX
 5
A4
 8
0
 62
131
 10
0.029
 20
0.13
 30
1.31066656112671
 70
192
 0
VERTEX
 5
A5
 8
0
 62
131
 10
0.029
 20
0.084
 30
1.31066656112671
 70
192
 0
VERTEX
 5
A6
 8
0
 62
131
 10
0.109
 20
0.115
 30
0.735333263874054
 70
192
 0
VERTEX
 5
A7
 8
0
 62
131
 10
0.109
 20
0.13
 30
1.31066656112671
 70
192
 0
VERTEX
 5
A8
 8
0
 62
131
 10
0.109
 20
0.115
 30
1.31066656112671
 70
192
 0
VERTEX
 5
A9
 8
0
 62
131
 10
0.771
 20
0.13
 30
1.31066656112671
 70
192
 0
VERTEX
 5
AA
 8
0
 62
131
 10
0.691
 20
0.13
 30
0.735333263874054
 70
192
 0
VERTEX
 5
AB
 8
0
 62
131
 10
0.691
 20
0.115
 30
1.31066656112671
 70
192
 0
VERTEX
 5
AC
 8
0
 62
131
 10
0.691
 20
0.084
 30
0.65533322095871
 70
192
 0
VERTEX
 5
AD
 8
0
 62
131
 10
0.691
 20
0.084
 30
0.735333263874054
 70
192
 0
VERTEX
 5
AE
 8
0
 62
131
 10
0.109
 20
0.084
 30
0.65533322095871
 70
192
 0
VERTEX
 5
AF
 8
0
 62
131
 10
0.029
 20
0.13
 30
1.39066672325134
 70
192
 0
VERTEX
 5
B0
 8
0
 62
131
 10
0.691
 20
0.115
 30
0.735333263874054
 70
192
 0
VERTEX
 5
B1
 8
0
 62
131
 10
0.691
 20
0.13
 30
1.31066656112671
 70
192
 0
VERTEX
 5
B2
 8
0
 62
131
 10
0.771
 20
0.13
 30
1.39066672325134
 70
192
 0
VERTEX
 5
B3
 8
0
 62
131
 10
0.771
 20
0.084
 30
1.31066656112671
 70
192
 0
VERTEX
 5
B4
 8
0
 62
131
 10
0.691
 20
0.13
 30
1.966
 70
192
 0
VERTEX
 5
B5
 8
0
 62
131
 10
0.109
 20
0.099
 30
0.735333263874054
 70
192
 0
VERTEX
 5
B6
 8
0
 62
131
 10
0.109
 20
0.099
 30
1.31066656112671
 70
192
 0
VERTEX
 5
B7
 8
0
 62
131
 10
0.109
 20
0.084
 30
1.39066672325134
 70
192
 0
VERTEX
 5
B8
 8
0
 62
131
 10
0.029
 20
0.084
 30
1.39066672325134
 70
192
 0
VERTEX
 5
B9
 8
0
 62
131
 10
0.109
 20
0.13
 30
1.39066672325134
 70
192
 0
VERTEX
 5
BA
 8
0
 62
131
 10
0.109
 20
0.115
 30
1.39066672325134
 70
192
 0
VERTEX
 5
BB
 8
0
 62
131
 10
0.029
 20
0.13
 30
1.966
 70
192
 0
VERTEX
 5
BC
 8
0
 62
131
 10
0.771
 20
0.084
 30
1.966
 70
192
 0
VERTEX
 5
BD
 8
0
 62
131
 10
0.771
 20
0.084
 30
1.39066672325134
 70
192
 0
VERTEX
 5
BE
 8
0
 62
131
 10
0.691
 20
0.13
 30
1.39066672325134
 70
192
 0
VERTEX
 5
BF
 8
0
 62
131
 10
0.691
 20
0.115
 30
1.39066672325134
 70
192
 0
VERTEX
 5
C0
 8
0
 62
131
 10
0.771
 20
0.13
 30
2.046
 70
192
 0
VERTEX
 5
C1
 8
0
 62
131
 10
0.771
 20
0.13
 30
1.966
 70
192
 0
VERTEX
 5
C2
 8
0
 62
131
 10
0.691
 20
0.13
 30
2.046
 70
192
 0
VERTEX
 5
C3
 8
0
 62
131
 10
0.691
 20
0.099
 30
0.735333263874054
 70
192
 0
VERTEX
 5
C4
 8
0
 62
131
 10
0.691
 20
0.099
 30
1.31066656112671
 70
192
 0
VERTEX
 5
C5
 8
0
 62
131
 10
0.691
 20
0.084
 30
1.31066656112671
 70
192
 0
VERTEX
 5
C6
 8
0
 62
131
 10
0.109
 20
0.084
 30
1.31066656112671
 70
192
 0
VERTEX
 5
C7
 8
0
 62
131
 10
0.109
 20
0.115
 30
1.966
 70
192
 0
VERTEX
 5
C8
 8
0
 62
131
 10
0.691
 20
0.115
 30
1.966
 70
192
 0
VERTEX
 5
C9
 8
0
 62
131
 10
0.109
 20
0.13
 30
1.966
 70
192
 0
VERTEX
 5
CA
 8
0
 62
131
 10
0.109
 20
0.13
 30
2.046
 70
192
 0
VERTEX
 5
CB
 8
0
 62
131
 10
0.029
 20
0.13
 30
2.046
 70
192
 0
VERTEX
 5
CC
 8
0
 62
131
 10
0.691
 20
0.084
 30
1.966
 70
192
 0
VERTEX
 5
CD
 8
0
 62
131
 10
0.691
 20
0.084
 30
1.39066672325134
 70
192
 0
VERTEX
 5
CE
 8
0
 62
131
 10
0.691
 20
0.084
 30
2.046
 70
192
 0
VERTEX
 5
CF
 8
0
 62
131
 10
0.109
 20
0.084
 30
1.966
 70
192
 0
VERTEX
 5
D0
 8
0
 62
131
 10
0.109
 20
0.084
 30
2.046
 70
192
 0
VERTEX
 5
D1
 8
0
 62
131
 10
0.029
 20
0.084
 30
2.046
 70
192
 0
VERTEX
 5
D2
 8
0
 62
131
 10
0.029
 20
0.084
 30
1.966
 70
192
 0
VERTEX
 5
D3
 8
0
 62
131
 10
0.771
 20
0.084
 30
2.046
 70
192
 0
VERTEX
 5
D4
 8
0
 62
131
 10
0.691
 20
0.099
 30
1.39066672325134
 70
192
 0
VERTEX
 5
D5
 8
0
 62
131
 10
0.109
 20
0.099
 30
1.39066672325134
 70
192
 0
VERTEX
 5
D6
 8
0
 62
131
 10
0.691
 20
0.099
 30
1.966
 70
192
 0
VERTEX
 5
D7
 8
0
 62
131
 10
0.109
 20
0.099
 30
1.966
 70
192
 0
VERTEX
 5
D8
 8
0
 62
131
 10
0.025
 20
0.13
 30
2.05
 70
192
 0
VERTEX
 5
D9
 8
0
 62
131
 10
0.025
 20
0.08
 30
2.05
 70
192
 0
VERTEX
 5
DA
 8
0
 62
131
 10
0.04
 20
0.08
 30
0
 70
192
 0
VERTEX
 5
DB
 8
0
 62
131
 10
0
 20
0.03
 30
0
 70
192
 0
VERTEX
 5
DC
 8
0
 62
131
 10
0
 20
0.13
 30
0
 70
192
 0
VERTEX
 5
DD
 8
0
 62
131
 10
0.025
 20
0.13
 30
0
 70
192
 0
VERTEX
 5
DE
 8
0
 62
131
 10
0.025
 20
0.08
 30
0
 70
192
 0
VERTEX
 5
DF
 8
0
 62
131
 10
0.04
 20
0.03
 30
0
 70
192
 0
VERTEX
 5
E0
 8
0
 62
131
 10
0
 20
0.03
 30
2.075
 70
192
 0
VERTEX
 5
E1
 8
0
 62
131
 10
0.04
 20
0.03
 30
2.035
 70
192
 0
VERTEX
 5
E2
 8
0
 62
131
 10
0
 20
0.13
 30
2.075
 70
192
 0
VERTEX
 5
E3
 8
0
 62
131
 10
0.8
 20
0.13
 30
2.075
 70
192
 0
VERTEX
 5
E4
 8
0
 62
131
 10
0.775
 20
0.08
 30
2.05
 70
192
 0
VERTEX
 5
E5
 8
0
 62
131
 10
0.775
 20
0.13
 30
2.05
 70
192
 0
VERTEX
 5
E6
 8
0
 62
131
 10
0.76
 20
0.08
 30
2.035
 70
192
 0
VERTEX
 5
E7
 8
0
 62
131
 10
0.8
 20
0.03
 30
2.075
 70
192
 0
VERTEX
 5
E8
 8
0
 62
131
 10
0.04
 20
0.08
 30
2.035
 70
192
 0
VERTEX
 5
E9
 8
0
 62
131
 10
0.8
 20
0.13
 30
0
 70
192
 0
VERTEX
 5
EA
 8
0
 62
131
 10
0.775
 20
0.13
 30
0
 70
192
 0
VERTEX
 5
EB
 8
0
 62
131
 10
0.76
 20
0.08
 30
0
 70
192
 0
VERTEX
 5
EC
 8
0
 62
131
 10
0.775
 20
0.08
 30
0
 70
192
 0
VERTEX
 5
ED
 8
0
 62
131
 10
0.8
 20
0.03
 30
0
 70
192
 0
VERTEX
 5
EE
 8
0
 62
131
 10
0.76
 20
0.03
 30
0
 70
192
 0
VERTEX
 5
EF
 8
0
 62
131
 10
0.76
 20
0.03
 30
2.035
 70
192
 0
VERTEX
 5
F0
 8
0
 62
131
 10
0
 20
0.08
 30
0
 70
128
 71
1
 72
2
 73
3
 74
10
 0
VERTEX
 5
F1
 8
0
 62
131
 10
0
 20
0.08
 30
0
 70
128
 71
5
 72
8
 73
10
 74
3
 0
VERTEX
 5
F2
 8
0
 62
131
 10
0
 20
0.08
 30
0
 70
128
 71
1
 72
10
 73
12
 74
14
 0
VERTEX
 5
F3
 8
0
 62
131
 10
0
 20
0.08
 30
0
 70
128
 71
2
 72
1
 73
16
 74
18
 0
VERTEX
 5
F4
 8
0
 62
131
 10
0
 20
0.08
 30
0
 70
128
 71
3
 72
2
 73
19
 74
4
 0
VERTEX
 5
F5
 8
0
 62
131
 10
0
 20
0.08
 30
0
 70
128
 71
8
 72
5
 73
6
 74
7
 0
VERTEX
 5
F6
 8
0
 62
131
 10
0
 20
0.08
 30
0
 70
128
 71
11
 72
10
 73
8
 74
9
 0
VERTEX
 5
F7
 8
0
 62
131
 10
0
 20
0.08
 30
0
 70
128
 71
5
 72
3
 73
4
 74
6
 0
VERTEX
 5
F8
 8
0
 62
131
 10
0
 20
0.08
 30
0
 70
128
 71
10
 72
11
 73
13
 74
12
 0
VERTEX
 5
F9
 8
0
 62
131
 10
0
 20
0.08
 30
0
 70
128
 71
12
 72
13
 73
23
 74
14
 0
VERTEX
 5
FA
 8
0
 62
131
 10
0
 20
0.08
 30
0
 70
128
 71
15
 72
1
 73
14
 74
23
 0
VERTEX
 5
FB
 8
0
 62
131
 10
0
 20
0.08
 30
0
 70
128
 71
1
 72
15
 73
24
 74
16
 0
VERTEX
 5
FC
 8
0
 62
131
 10
0
 20
0.08
 30
0
 70
128
 71
18
 72
16
 73
30
 74
17
 0
VERTEX
 5
FD
 8
0
 62
131
 10
0
 20
0.08
 30
0
 70
128
 71
2
 72
18
 73
17
 74
19
 0
VERTEX
 5
FE
 8
0
 62
131
 10
0
 20
0.08
 30
0
 70
128
 71
28
 72
4
 73
19
 74
27
 0
VERTEX
 5
FF
 8
0
 62
131
 10
0
 20
0.08
 30
0
 70
128
 71
7
 72
6
 73
4
 74
28
 0
VERTEX
 5
100
 8
0
 62
131
 10
0
 20
0.08
 30
0
 70
128
 71
9
 72
8
 73
7
 74
20
 0
VERTEX
 5
101
 8
0
 62
131
 10
0
 20
0.08
 30
0
 70
128
 71
21
 72
11
 73
9
 74
22
 0
VERTEX
 5
102
 8
0
 62
131
 10
0
 20
0.08
 30
0
 70
128
 71
11
 72
15
 73
23
 74
13
 0
VERTEX
 5
103
 8
0
 62
131
 10
0
 20
0.08
 30
0
 70
128
 71
16
 72
24
 73
25
 74
30
 0
VERTEX
 5
104
 8
0
 62
131
 10
0
 20
0.08
 30
0
 70
128
 71
26
 72
24
 73
15
 74
43
 0
VERTEX
 5
105
 8
0
 62
131
 10
0
 20
0.08
 30
0
 70
128
 71
27
 72
19
 73
17
 74
30
 0
VERTEX
 5
106
 8
0
 62
131
 10
0
 20
0.08
 30
0
 70
128
 71
28
 72
27
 73
32
 74
33
 0
VERTEX
 5
107
 8
0
 62
131
 10
0
 20
0.08
 30
0
 70
128
 71
28
 72
47
 73
20
 74
7
 0
VERTEX
 5
108
 8
0
 62
131
 10
0
 20
0.08
 30
0
 70
128
 71
22
 72
9
 73
20
 74
36
 0
VERTEX
 5
109
 8
0
 62
131
 10
0
 20
0.08
 30
0
 70
128
 71
43
 72
15
 73
11
 74
21
 0
VERTEX
 5
10A
 8
0
 62
131
 10
0
 20
0.08
 30
0
 70
128
 71
40
 72
21
 73
22
 74
37
 0
VERTEX
 5
10B
 8
0
 62
131
 10
0
 20
0.08
 30
0
 70
128
 71
24
 72
26
 73
29
 74
25
 0
VERTEX
 5
10C
 8
0
 62
131
 10
0
 20
0.08
 30
0
 70
128
 71
30
 72
25
 73
45
 74
27
 0
VERTEX
 5
10D
 8
0
 62
131
 10
0
 20
0.08
 30
0
 70
128
 71
42
 72
26
 73
43
 74
50
 0
VERTEX
 5
10E
 8
0
 62
131
 10
0
 20
0.08
 30
0
 70
128
 71
27
 72
45
 73
31
 74
32
 0
VERTEX
 5
10F
 8
0
 62
131
 10
0
 20
0.08
 30
0
 70
128
 71
34
 72
33
 73
32
 74
31
 0
VERTEX
 5
110
 8
0
 62
131
 10
0
 20
0.08
 30
0
 70
128
 71
47
 72
28
 73
33
 74
34
 0
VERTEX
 5
111
 8
0
 62
131
 10
0
 20
0.08
 30
0
 70
128
 71
47
 72
35
 73
36
 74
20
 0
VERTEX
 5
112
 8
0
 62
131
 10
0
 20
0.08
 30
0
 70
128
 71
37
 72
22
 73
36
 74
38
 0
VERTEX
 5
113
 8
0
 62
131
 10
0
 20
0.08
 30
0
 70
128
 71
43
 72
21
 73
39
 74
49
 0
VERTEX
 5
114
 8
0
 62
131
 10
0
 20
0.08
 30
0
 70
128
 71
21
 72
40
 73
41
 74
39
 0
VERTEX
 5
115
 8
0
 62
131
 10
0
 20
0.08
 30
0
 70
128
 71
58
 72
40
 73
37
 74
48
 0
VERTEX
 5
116
 8
0
 62
131
 10
0
 20
0.08
 30
0
 70
128
 71
26
 72
42
 73
52
 74
29
 0
VERTEX
 5
117
 8
0
 62
131
 10
0
 20
0.08
 30
0
 70
128
 71
25
 72
29
 73
46
 74
45
 0
VERTEX
 5
118
 8
0
 62
131
 10
0
 20
0.08
 30
0
 70
128
 71
50
 72
43
 73
49
 74
44
 0
VERTEX
 5
119
 8
0
 62
131
 10
0
 20
0.08
 30
0
 70
128
 71
51
 72
42
 73
50
 74
63
 0
VERTEX
 5
11A
 8
0
 62
131
 10
0
 20
0.08
 30
0
 70
128
 71
45
 72
47
 73
34
 74
31
 0
VERTEX
 5
11B
 8
0
 62
131
 10
0
 20
0.08
 30
0
 70
128
 71
45
 72
46
 73
35
 74
47
 0
VERTEX
 5
11C
 8
0
 62
131
 10
0
 20
0.08
 30
0
 70
128
 71
35
 72
71
 73
38
 74
36
 0
VERTEX
 5
11D
 8
0
 62
131
 10
0
 20
0.08
 30
0
 70
128
 71
48
 72
37
 73
38
 74
57
 0
VERTEX
 5
11E
 8
0
 62
131
 10
0
 20
0.08
 30
0
 70
128
 71
39
 72
41
 73
44
 74
49
 0
VERTEX
 5
11F
 8
0
 62
131
 10
0
 20
0.08
 30
0
 70
128
 71
40
 72
50
 73
44
 74
41
 0
VERTEX
 5
120
 8
0
 62
131
 10
0
 20
0.08
 30
0
 70
128
 71
40
 72
58
 73
63
 74
50
 0
VERTEX
 5
121
 8
0
 62
131
 10
0
 20
0.08
 30
0
 70
128
 71
74
 72
58
 73
48
 74
60
 0
VERTEX
 5
122
 8
0
 62
131
 10
0
 20
0.08
 30
0
 70
128
 71
42
 72
51
 73
62
 74
52
 0
VERTEX
 5
123
 8
0
 62
131
 10
0
 20
0.08
 30
0
 70
128
 71
29
 72
52
 73
70
 74
46
 0
VERTEX
 5
124
 8
0
 62
131
 10
0
 20
0.08
 30
0
 70
128
 71
66
 72
51
 73
63
 74
53
 0
VERTEX
 5
125
 8
0
 62
131
 10
0
 20
0.08
 30
0
 70
128
 71
35
 72
46
 73
68
 74
54
 0
VERTEX
 5
126
 8
0
 62
131
 10
0
 20
0.08
 30
0
 70
128
 71
71
 72
35
 73
54
 74
55
 0
VERTEX
 5
127
 8
0
 62
131
 10
0
 20
0.08
 30
0
 70
128
 71
71
 72
56
 73
57
 74
38
 0
VERTEX
 5
128
 8
0
 62
131
 10
0
 20
0.08
 30
0
 70
128
 71
60
 72
48
 73
57
 74
83
 0
VERTEX
 5
129
 8
0
 62
131
 10
0
 20
0.08
 30
0
 70
128
 71
63
 72
58
 73
59
 74
64
 0
VERTEX
 5
12A
 8
0
 62
131
 10
0
 20
0.08
 30
0
 70
128
 71
58
 72
74
 73
72
 74
59
 0
VERTEX
 5
12B
 8
0
 62
131
 10
0
 20
0.08
 30
0
 70
128
 71
75
 72
74
 73
60
 74
76
 0
VERTEX
 5
12C
 8
0
 62
131
 10
0
 20
0.08
 30
0
 70
128
 71
51
 72
66
 73
61
 74
62
 0
VERTEX
 5
12D
 8
0
 62
131
 10
0
 20
0.08
 30
0
 70
128
 71
52
 72
62
 73
78
 74
70
 0
VERTEX
 5
12E
 8
0
 62
131
 10
0
 20
0.08
 30
0
 70
128
 71
46
 72
70
 73
69
 74
68
 0
VERTEX
 5
12F
 8
0
 62
131
 10
0
 20
0.08
 30
0
 70
128
 71
53
 72
63
 73
64
 74
73
 0
VERTEX
 5
130
 8
0
 62
131
 10
0
 20
0.08
 30
0
 70
128
 71
65
 72
66
 73
53
 74
67
 0
VERTEX
 5
131
 8
0
 62
131
 10
0
 20
0.08
 30
0
 70
128
 71
55
 72
54
 73
68
 74
69
 0
VERTEX
 5
132
 8
0
 62
131
 10
0
 20
0.08
 30
0
 70
128
 71
70
 72
71
 73
55
 74
69
 0
VERTEX
 5
133
 8
0
 62
131
 10
0
 20
0.08
 30
0
 70
128
 71
56
 72
71
 73
70
 74
78
 0
VERTEX
 5
134
 8
0
 62
131
 10
0
 20
0.08
 30
0
 70
128
 71
56
 72
80
 73
83
 74
57
 0
VERTEX
 5
135
 8
0
 62
131
 10
0
 20
0.08
 30
0
 70
128
 71
76
 72
60
 73
83
 74
82
 0
VERTEX
 5
136
 8
0
 62
131
 10
0
 20
0.08
 30
0
 70
128
 71
59
 72
72
 73
73
 74
64
 0
VERTEX
 5
137
 8
0
 62
131
 10
0
 20
0.08
 30
0
 70
128
 71
74
 72
53
 73
73
 74
72
 0
VERTEX
 5
138
 8
0
 62
131
 10
0
 20
0.08
 30
0
 70
128
 71
67
 72
53
 73
74
 74
75
 0
VERTEX
 5
139
 8
0
 62
131
 10
0
 20
0.08
 30
0
 70
128
 71
75
 72
76
 73
82
 74
81
 0
VERTEX
 5
13A
 8
0
 62
131
 10
0
 20
0.08
 30
0
 70
128
 71
66
 72
65
 73
84
 74
61
 0
VERTEX
 5
13B
 8
0
 62
131
 10
0
 20
0.08
 30
0
 70
128
 71
62
 72
61
 73
77
 74
78
 0
VERTEX
 5
13C
 8
0
 62
131
 10
0
 20
0.08
 30
0
 70
128
 71
65
 72
67
 73
79
 74
84
 0
VERTEX
 5
13D
 8
0
 62
131
 10
0
 20
0.08
 30
0
 70
128
 71
56
 72
78
 73
85
 74
86
 0
VERTEX
 5
13E
 8
0
 62
131
 10
0
 20
0.08
 30
0
 70
128
 71
80
 72
56
 73
86
 74
88
 0
VERTEX
 5
13F
 8
0
 62
131
 10
0
 20
0.08
 30
0
 70
128
 71
80
 72
81
 73
82
 74
83
 0
VERTEX
 5
140
 8
0
 62
131
 10
0
 20
0.08
 30
0
 70
128
 71
67
 72
75
 73
81
 74
79
 0
VERTEX
 5
141
 8
0
 62
131
 10
0
 20
0.08
 30
0
 70
128
 71
61
 72
84
 73
79
 74
77
 0
VERTEX
 5
142
 8
0
 62
131
 10
0
 20
0.08
 30
0
 70
128
 71
78
 72
77
 73
87
 74
85
 0
VERTEX
 5
143
 8
0
 62
131
 10
0
 20
0.08
 30
0
 70
128
 71
88
 72
86
 73
85
 74
87
 0
VERTEX
 5
144
 8
0
 62
131
 10
0
 20
0.08
 30
0
 70
128
 71
77
 72
80
 73
88
 74
87
 0
VERTEX
 5
145
 8
0
 62
131
 10
0
 20
0.08
 30
0
 70
128
 71
77
 72
79
 73
81
 74
80
 0
VERTEX
 5
146
 8
0
 62
131
 10
0
 20
0.08
 30
0
 70
128
 71
94
 72
95
 73
92
 74
93
 0
VERTEX
 5
147
 8
0
 62
131
 10
0
 20
0.08
 30
0
 70
128
 71
95
 72
94
 73
89
 74
90
 0
VERTEX
 5
148
 8
0
 62
131
 10
0
 20
0.08
 30
0
 70
128
 71
96
 72
92
 73
95
 74
91
 0
VERTEX
 5
149
 8
0
 62
131
 10
0
 20
0.08
 30
0
 70
128
 71
93
 72
92
 73
97
 74
99
 0
VERTEX
 5
14A
 8
0
 62
131
 10
0
 20
0.08
 30
0
 70
128
 71
93
 72
99
 73
89
 74
94
 0
VERTEX
 5
14B
 8
0
 62
131
 10
0
 20
0.08
 30
0
 70
128
 71
90
 72
89
 73
102
 74
101
 0
VERTEX
 5
14C
 8
0
 62
131
 10
0
 20
0.08
 30
0
 70
128
 71
95
 72
90
 73
105
 74
91
 0
VERTEX
 5
14D
 8
0
 62
131
 10
0
 20
0.08
 30
0
 70
128
 71
96
 72
98
 73
97
 74
92
 0
VERTEX
 5
14E
 8
0
 62
131
 10
0
 20
0.08
 30
0
 70
128
 71
96
 72
91
 73
105
 74
98
 0
VERTEX
 5
14F
 8
0
 62
131
 10
0
 20
0.08
 30
0
 70
128
 71
99
 72
97
 73
104
 74
100
 0
VERTEX
 5
150
 8
0
 62
131
 10
0
 20
0.08
 30
0
 70
128
 71
99
 72
100
 73
102
 74
89
 0
VERTEX
 5
151
 8
0
 62
131
 10
0
 20
0.08
 30
0
 70
128
 71
101
 72
102
 73
107
 74
109
 0
VERTEX
 5
152
 8
0
 62
131
 10
0
 20
0.08
 30
0
 70
128
 71
90
 72
101
 73
103
 74
105
 0
VERTEX
 5
153
 8
0
 62
131
 10
0
 20
0.08
 30
0
 70
128
 71
98
 72
112
 73
104
 74
97
 0
VERTEX
 5
154
 8
0
 62
131
 10
0
 20
0.08
 30
0
 70
128
 71
98
 72
105
 73
103
 74
112
 0
VERTEX
 5
155
 8
0
 62
131
 10
0
 20
0.08
 30
0
 70
128
 71
100
 72
104
 73
110
 74
106
 0
VERTEX
 5
156
 8
0
 62
131
 10
0
 20
0.08
 30
0
 70
128
 71
107
 72
102
 73
100
 74
106
 0
VERTEX
 5
157
 8
0
 62
131
 10
0
 20
0.08
 30
0
 70
128
 71
106
 72
110
 73
109
 74
107
 0
VERTEX
 5
158
 8
0
 62
131
 10
0
 20
0.08
 30
0
 70
128
 71
108
 72
103
 73
101
 74
109
 0
VERTEX
 5
159
 8
0
 62
131
 10
0
 20
0.08
 30
0
 70
128
 71
110
 72
104
 73
112
 74
111
 0
VERTEX
 5
15A
 8
0
 62
131
 10
0
 20
0.08
 30
0
 70
128
 71
112
 72
103
 73
108
 74
111
 0
VERTEX
 5
15B
 8
0
 62
131
 10
0
 20
0.08
 30
0
 70
128
 71
108
 72
109
 73
110
 74
111
 0
SEQEND
 5
15C
 8
0
 62
131
 0
ENDSEC
 0
EOF
