 0
SECTION
 2
HEADER
 9
$ACADVER
 1
AC1009
 9
$INSBASE
 10
0.0
 20
0.0
 30
0.0
 9
$EXTMIN
 10
0.0
 20
-0.0499999970197678
 30
0.0
 9
$EXTMAX
 10
0.7999999523162842
 20
0.0500000081956387
 30
2.4000003337860099
 9
$LIMMIN
 10
0.0
 20
0.0
 9
$LIMMAX
 10
12.0
 20
9.0
 9
$ORTHOMODE
 70
0
 9
$REGENMODE
 70
1
 9
$FILLMODE
 70
1
 9
$QTEXTMODE
 70
0
 9
$MIRRTEXT
 70
0
 9
$DRAGMODE
 70
2
 9
$LTSCALE
 40
1.0
 9
$OSMODE
 70
43
 9
$ATTMODE
 70
1
 9
$TEXTSIZE
 40
1.0
 9
$TRACEWID
 40
0.05
 9
$TEXTSTYLE
 7
STANDARD
 9
$CLAYER
 8
0
 9
$CELTYPE
 6
CONTINUOUS
 9
$CECOLOR
 62
256
 9
$DIMSCALE
 40
1.0
 9
$DIMASZ
 40
0.18
 9
$DIMEXO
 40
0.0625
 9
$DIMDLI
 40
0.38
 9
$DIMRND
 40
0.0
 9
$DIMDLE
 40
0.0
 9
$DIMEXE
 40
0.18
 9
$DIMTP
 40
0.0
 9
$DIMTM
 40
0.0
 9
$DIMTXT
 40
0.18
 9
$DIMCEN
 40
0.09
 9
$DIMTSZ
 40
0.0
 9
$DIMTOL
 70
0
 9
$DIMLIM
 70
0
 9
$DIMTIH
 70
1
 9
$DIMTOH
 70
1
 9
$DIMSE1
 70
0
 9
$DIMSE2
 70
0
 9
$DIMTAD
 70
0
 9
$DIMZIN
 70
0
 9
$DIMBLK
 1

 9
$DIMASO
 70
1
 9
$DIMSHO
 70
1
 9
$DIMPOST
 1

 9
$DIMAPOST
 1

 9
$DIMALT
 70
0
 9
$DIMALTD
 70
2
 9
$DIMALTF
 40
25.3999999999999986
 9
$DIMLFAC
 40
1.0
 9
$DIMTOFL
 70
0
 9
$DIMTVP
 40
0.0
 9
$DIMTIX
 70
0
 9
$DIMSOXD
 70
0
 9
$DIMSAH
 70
0
 9
$DIMBLK1
 1

 9
$DIMBLK2
 1

 9
$DIMSTYLE
 2
STANDARD
 9
$DIMCLRD
 70
0
 9
$DIMCLRE
 70
0
 9
$DIMCLRT
 70
0
 9
$DIMTFAC
 40
1.0
 9
$DIMGAP
 40
0.09
 9
$LUNITS
 70
2
 9
$LUPREC
 70
4
 9
$SKETCHINC
 40
0.1
 9
$FILLETRAD
 40
0.0
 9
$AUNITS
 70
0
 9
$AUPREC
 70
0
 9
$MENU
 1
.
 9
$ELEVATION
 40
0.0
 9
$PELEVATION
 40
0.0
 9
$THICKNESS
 40
0.0
 9
$LIMCHECK
 70
0
 9
$BLIPMODE
 70
0
 9
$CHAMFERA
 40
0.0
 9
$CHAMFERB
 40
0.0
 9
$SKPOLY
 70
0
 9
$TDCREATE
 40
2458918.4291898151859641
 9
$TDUPDATE
 40
2458918.4293287037871778
 9
$TDINDWG
 40
0.0001388889
 9
$TDUSRTIMER
 40
0.0001388889
 9
$USRTIMER
 70
1
 9
$ANGBASE
 50
0.0
 9
$ANGDIR
 70
0
 9
$PDMODE
 70
0
 9
$PDSIZE
 40
0.0
 9
$PLINEWID
 40
0.0
 9
$COORDS
 70
1
 9
$SPLFRAME
 70
0
 9
$SPLINETYPE
 70
6
 9
$SPLINESEGS
 70
8
 9
$ATTDIA
 70
0
 9
$ATTREQ
 70
1
 9
$HANDLING
 70
1
 9
$HANDSEED
 5
694
 9
$SURFTAB1
 70
6
 9
$SURFTAB2
 70
6
 9
$SURFTYPE
 70
6
 9
$SURFU
 70
6
 9
$SURFV
 70
6
 9
$UCSNAME
 2

 9
$UCSORG
 10
0.0
 20
0.0
 30
0.0
 9
$UCSXDIR
 10
1.0
 20
0.0
 30
0.0
 9
$UCSYDIR
 10
0.0
 20
1.0
 30
0.0
 9
$PUCSNAME
 2

 9
$PUCSORG
 10
0.0
 20
0.0
 30
0.0
 9
$PUCSXDIR
 10
1.0
 20
0.0
 30
0.0
 9
$PUCSYDIR
 10
0.0
 20
1.0
 30
0.0
 9
$USERI1
 70
0
 9
$USERI2
 70
0
 9
$USERI3
 70
0
 9
$USERI4
 70
0
 9
$USERI5
 70
0
 9
$USERR1
 40
0.0
 9
$USERR2
 40
0.0
 9
$USERR3
 40
0.0
 9
$USERR4
 40
0.0
 9
$USERR5
 40
0.0
 9
$WORLDVIEW
 70
1
 9
$SHADEDGE
 70
3
 9
$SHADEDIF
 70
70
 9
$TILEMODE
 70
1
 9
$MAXACTVP
 70
64
 9
$PLIMCHECK
 70
0
 9
$PEXTMIN
 10
1.0000000000000000E+20
 20
1.0000000000000000E+20
 30
1.0000000000000000E+20
 9
$PEXTMAX
 10
-1.0000000000000000E+20
 20
-1.0000000000000000E+20
 30
-1.0000000000000000E+20
 9
$PLIMMIN
 10
0.0
 20
0.0
 9
$PLIMMAX
 10
12.0
 20
9.0
 9
$UNITMODE
 70
0
 9
$VISRETAIN
 70
1
 9
$PLINEGEN
 70
0
 9
$PSLTSCALE
 70
1
 0
ENDSEC
 0
SECTION
 2
TABLES
 0
TABLE
 2
VPORT
 70
1
 0
VPORT
 2
*ACTIVE
 70
0
 10
0.0
 20
0.0
 11
1.0
 21
1.0
 12
-0.9817351598173509
 22
1.0
 13
0.0
 23
0.0
 14
0.1
 24
0.1
 15
0.1
 25
0.1
 16
0.0
 26
0.0
 36
1.0
 17
0.0
 27
0.0
 37
0.0
 40
9.6693272519954387
 41
1.8654073199527741
 42
50.0
 43
0.0
 44
0.0
 50
0.0
 51
0.0
 71
0
 72
100
 73
1
 74
1
 75
0
 76
0
 77
0
 78
0
 0
ENDTAB
 0
TABLE
 2
LTYPE
 70
8
 0
LTYPE
 2
CONTINUOUS
 70
0
 3
Solid line
 72
65
 73
0
 40
0.0
 0
LTYPE
 2
DOT
 70
0
 3
. . . . . . .
 72
65
 73
2
 40
0.25
 49
0.0
 49
-0.25
 0
LTYPE
 2
DASHED
 70
0
 3
__ __ __ __ __
 72
65
 73
2
 40
0.8
 49
0.5
 49
-0.3
 0
LTYPE
 2
DASHDOT
 70
0
 3
__ . __ . __ .
 72
65
 73
4
 40
1.0
 49
0.5
 49
-0.25
 49
0.0
 49
-0.25
 0
LTYPE
 2
DIVIDE
 70
0
 3
____ . . ____ . . 
 72
65
 73
6
 40
1.25
 49
0.5
 49
-0.25
 49
0.0
 49
-0.25
 49
0.0
 49
-0.25
 0
LTYPE
 2
BORDER
 70
0
 3
__ __ . __ __ . 
 72
65
 73
6
 40
1.75
 49
0.5
 49
-0.25
 49
0.5
 49
-0.25
 49
0.0
 49
-0.25
 0
LTYPE
 2
HIDDEN
 70
0
 3
__ __ __ __ __
 72
65
 73
2
 40
0.4
 49
0.25
 49
-0.25
 0
LTYPE
 2
CENTER
 70
0
 3
____ _ ____ _ __
 72
65
 73
4
 40
2.0
 49
1.25
 49
-0.25
 49
0.25
 49
-0.25
 0
ENDTAB
 0
TABLE
 2
LAYER
 70
2
 0
LAYER
 2
0
 70
0
 62
7
 6
CONTINUOUS
 0
LAYER
 2
PYDXF
 70
0
 62
7
 6
CONTINUOUS
 0
ENDTAB
 0
TABLE
 2
STYLE
 70
2
 0
STYLE
 2
STANDARD
 70
0
 40
0.0
 41
1.0
 50
0.0
 71
0
 42
1.0
 3
txt
 4

 0
STYLE
 2
ANNOTATIVE
 70
0
 40
0.0
 41
1.0
 50
0.0
 71
0
 42
0.2
 3
txt
 4

 0
ENDTAB
 0
TABLE
 2
VIEW
 70
1
 0
VIEW
 2
BF_TOPVIEW
 70
0
 40
120.0
 10
0.0
 20
0.0
 41
200.0
 11
0.0
 21
0.0
 31
1.0
 12
0.0
 22
0.0
 32
0.0
 42
50.0
 43
0.0
 44
0.0
 50
0.0
 71
0
 0
ENDTAB
 0
TABLE
 2
UCS
 70
0
 0
ENDTAB
 0
TABLE
 2
APPID
 70
4
 0
APPID
 2
ACAD
 70
0
 0
APPID
 2
ACADANNOTATIVE
 70
0
 0
APPID
 2
ACAD_NAV_VCDISPLAY
 70
0
 0
APPID
 2
ACAD_MLEADERVER
 70
0
 0
ENDTAB
 0
TABLE
 2
DIMSTYLE
 70
2
 0
DIMSTYLE
 2
STANDARD
 70
0
 3

 4

 5

 6

 7

 40
1.0
 41
0.18
 42
0.0625
 43
0.38
 44
0.18
 45
0.0
 46
0.0
 47
0.0
 48
0.0
 140
0.18
 141
0.09
 142
0.0
 143
25.3999999999999986
 144
1.0
 145
0.0
 146
1.0
 147
0.09
 71
0
 72
0
 73
1
 74
1
 75
0
 76
0
 77
0
 78
0
 170
0
 171
2
 172
0
 173
0
 174
0
 175
0
 176
0
 177
0
 178
0
 0
DIMSTYLE
 2
ANNOTATIVE
 70
0
 3

 4

 5

 6

 7

 40
1.0
 41
0.18
 42
0.0625
 43
0.38
 44
0.18
 45
0.0
 46
0.0
 47
0.0
 48
0.0
 140
0.18
 141
0.09
 142
0.0
 143
25.3999999999999986
 144
1.0
 145
0.0
 146
1.0
 147
0.09
 71
0
 72
0
 73
1
 74
1
 75
0
 76
0
 77
0
 78
0
 170
0
 171
2
 172
0
 173
0
 174
0
 175
0
 176
0
 177
0
 178
0
 0
ENDTAB
 0
ENDSEC
 0
SECTION
 2
BLOCKS
 0
BLOCK
 8
0
 2
$MODEL_SPACE
 70
0
 10
0.0
 20
0.0
 30
0.0
 3
$MODEL_SPACE
 1

 0
ENDBLK
 5
71
 8
0
 0
BLOCK
 67
1
 8
0
 2
$PAPER_SPACE
 70
0
 10
0.0
 20
0.0
 30
0.0
 3
$PAPER_SPACE
 1

 0
ENDBLK
 5
6D
 67
1
 8
0
 0
ENDSEC
 0
SECTION
 2
ENTITIES
 0
POLYLINE
 5
7F
 8
0
 62
131
 66
1
 10
0
 20
0.08
 30
0
 70
64
 71
668
 72
801
 0
VERTEX
 5
80
 8
0
 62
131
 10
0.443847715854645
 20
0.084
 30
2.17154312133789
 70
192
 0
VERTEX
 5
81
 8
0
 62
131
 10
0.463847696781159
 20
0.084
 30
2.18894410133362
 70
192
 0
VERTEX
 5
82
 8
0
 62
131
 10
0.443847715854645
 20
0.084
 30
2.19722843170166
 70
192
 0
VERTEX
 5
83
 8
0
 62
131
 10
0.462010085582733
 20
0.084
 30
2.21539068222046
 70
192
 0
VERTEX
 5
84
 8
0
 62
131
 10
0.463847696781159
 20
0.094
 30
2.17154312133789
 70
192
 0
VERTEX
 5
85
 8
0
 62
131
 10
0.443847715854645
 20
0.094
 30
2.17154312133789
 70
192
 0
VERTEX
 5
86
 8
0
 62
131
 10
0.418162286281586
 20
0.094
 30
2.17154312133789
 70
192
 0
VERTEX
 5
87
 8
0
 62
131
 10
0.507695436477661
 20
0.084
 30
2.16970539093018
 70
192
 0
VERTEX
 5
88
 8
0
 62
131
 10
0.463847696781159
 20
0.084
 30
2.17154312133789
 70
192
 0
VERTEX
 5
89
 8
0
 62
131
 10
0.418162286281586
 20
0.084
 30
2.17154312133789
 70
192
 0
VERTEX
 5
8A
 8
0
 62
131
 10
0.476152181625366
 20
0.094
 30
2.20124864578247
 70
192
 0
VERTEX
 5
8B
 8
0
 62
131
 10
0.476152181625366
 20
0.084
 30
2.20124864578247
 70
192
 0
VERTEX
 5
8C
 8
0
 62
131
 10
0.462010085582733
 20
0.094
 30
2.21539068222046
 70
192
 0
VERTEX
 5
8D
 8
0
 62
131
 10
0.463847696781159
 20
0.094
 30
2.18894410133362
 70
192
 0
VERTEX
 5
8E
 8
0
 62
131
 10
0.443847715854645
 20
0.094
 30
2.19722843170166
 70
192
 0
VERTEX
 5
8F
 8
0
 62
131
 10
0.42970559
 20
0.084
 30
2.09539079666138
 70
192
 0
VERTEX
 5
90
 8
0
 62
131
 10
0.443847715854645
 20
0.084
 30
2.15154314041138
 70
192
 0
VERTEX
 5
91
 8
0
 62
131
 10
0.521837592124939
 20
0.084
 30
2.18384742736816
 70
192
 0
VERTEX
 5
92
 8
0
 62
131
 10
0.507695436477661
 20
0.084
 30
2.19798970222473
 70
192
 0
VERTEX
 5
93
 8
0
 62
131
 10
0.48124885559082
 20
0.084
 30
2.17154312133789
 70
192
 0
VERTEX
 5
94
 8
0
 62
131
 10
0.493553340435028
 20
0.084
 30
2.18384742736816
 70
192
 0
VERTEX
 5
95
 8
0
 62
131
 10
0.48124885559082
 20
0.094
 30
2.17154312133789
 70
192
 0
VERTEX
 5
96
 8
0
 62
131
 10
0.489533126354217
 20
0.084
 30
2.15154314041138
 70
192
 0
VERTEX
 5
97
 8
0
 62
131
 10
0.463847696781159
 20
0.084
 30
2.15154314041138
 70
192
 0
VERTEX
 5
98
 8
0
 62
131
 10
0.4
 20
0.084
 30
2.15338063240051
 70
192
 0
VERTEX
 5
99
 8
0
 62
131
 10
0.426446557044983
 20
0.084
 30
2.15154314041138
 70
192
 0
VERTEX
 5
9A
 8
0
 62
131
 10
0.489533126354217
 20
0.094
 30
2.15154314041138
 70
192
 0
VERTEX
 5
9B
 8
0
 62
131
 10
0.476152181625366
 20
0.084
 30
2.22953295707703
 70
192
 0
VERTEX
 5
9C
 8
0
 62
131
 10
0.443847715854645
 20
0.084
 30
2.23355317115784
 70
192
 0
VERTEX
 5
9D
 8
0
 62
131
 10
0.490294337272644
 20
0.094
 30
2.21539068222046
 70
192
 0
VERTEX
 5
9E
 8
0
 62
131
 10
0.443847715854645
 20
0.084
 30
2.25923848152161
 70
192
 0
VERTEX
 5
9F
 8
0
 62
131
 10
0.443847715854645
 20
0.094
 30
2.23355317115784
 70
192
 0
VERTEX
 5
A0
 8
0
 62
131
 10
0.463847696781159
 20
0.094
 30
2.24183750152588
 70
192
 0
VERTEX
 5
A1
 8
0
 62
131
 10
0.443847715854645
 20
0.094
 30
2.15154314041138
 70
192
 0
VERTEX
 5
A2
 8
0
 62
131
 10
0.463847696781159
 20
0.094
 30
2.15154314041138
 70
192
 0
VERTEX
 5
A3
 8
0
 62
131
 10
0.426446557044983
 20
0.094
 30
2.15154314041138
 70
192
 0
VERTEX
 5
A4
 8
0
 62
131
 10
0.443847715854645
 20
0.084
 30
2.10953307151794
 70
192
 0
VERTEX
 5
A5
 8
0
 62
131
 10
0.443847715854645
 20
0.094
 30
2.10953307151794
 70
192
 0
VERTEX
 5
A6
 8
0
 62
131
 10
0.463847696781159
 20
0.094
 30
2.09539079666138
 70
192
 0
VERTEX
 5
A7
 8
0
 62
131
 10
0.42970559
 20
0.094
 30
2.09539079666138
 70
192
 0
VERTEX
 5
A8
 8
0
 62
131
 10
0.463847696781159
 20
0.084
 30
2.09539079666138
 70
192
 0
VERTEX
 5
A9
 8
0
 62
131
 10
0.493553340435028
 20
0.094
 30
2.18384742736816
 70
192
 0
VERTEX
 5
AA
 8
0
 62
131
 10
0.525857925415039
 20
0.094
 30
2.15154314041138
 70
192
 0
VERTEX
 5
AB
 8
0
 62
131
 10
0.507695436477661
 20
0.094
 30
2.16970539093018
 70
192
 0
VERTEX
 5
AC
 8
0
 62
131
 10
0.414142072200775
 20
0.084
 30
2.13923859596252
 70
192
 0
VERTEX
 5
AD
 8
0
 62
131
 10
0.490294337272644
 20
0.084
 30
2.21539068222046
 70
192
 0
VERTEX
 5
AE
 8
0
 62
131
 10
0.493553340435028
 20
0.084
 30
2.24693417549133
 70
192
 0
VERTEX
 5
AF
 8
0
 62
131
 10
0.476152181625366
 20
0.094
 30
2.22953295707703
 70
192
 0
VERTEX
 5
B0
 8
0
 62
131
 10
0.463847696781159
 20
0.084
 30
2.24183750152588
 70
192
 0
VERTEX
 5
B1
 8
0
 62
131
 10
0.493553340435028
 20
0.094
 30
2.24693417549133
 70
192
 0
VERTEX
 5
B2
 8
0
 62
131
 10
0.443847715854645
 20
0.094
 30
2.25923848152161
 70
192
 0
VERTEX
 5
B3
 8
0
 62
131
 10
0.463847696781159
 20
0.094
 30
2.25923848152161
 70
192
 0
VERTEX
 5
B4
 8
0
 62
131
 10
0.4
 20
0.094
 30
2.15338063240051
 70
192
 0
VERTEX
 5
B5
 8
0
 62
131
 10
0.414142072200775
 20
0.094
 30
2.13923859596252
 70
192
 0
VERTEX
 5
B6
 8
0
 62
131
 10
0.4
 20
0.094
 30
2.12509632110596
 70
192
 0
VERTEX
 5
B7
 8
0
 62
131
 10
0.373553335666656
 20
0.084
 30
2.15154314041138
 70
192
 0
VERTEX
 5
B8
 8
0
 62
131
 10
0.381837606430054
 20
0.084
 30
2.17154312133789
 70
192
 0
VERTEX
 5
B9
 8
0
 62
131
 10
0.385857820510864
 20
0.094
 30
2.13923859596252
 70
192
 0
VERTEX
 5
BA
 8
0
 62
131
 10
0.381837606430054
 20
0.094
 30
2.17154312133789
 70
192
 0
VERTEX
 5
BB
 8
0
 62
131
 10
0.463847696781159
 20
0.094
 30
2.07039070129394
 70
192
 0
VERTEX
 5
BC
 8
0
 62
131
 10
0.42970559
 20
0.094
 30
2.07039070129394
 70
192
 0
VERTEX
 5
BD
 8
0
 62
131
 10
0.551543176174164
 20
0.084
 30
2.09539079666138
 70
192
 0
VERTEX
 5
BE
 8
0
 62
131
 10
0.463847696781159
 20
0.084
 30
2.07039070129394
 70
192
 0
VERTEX
 5
BF
 8
0
 62
131
 10
0.54
 20
0.084
 30
2.07039070129394
 70
192
 0
VERTEX
 5
C0
 8
0
 62
131
 10
0.42970559
 20
0.084
 30
2.07039070129394
 70
192
 0
VERTEX
 5
C1
 8
0
 62
131
 10
0.525857925415039
 20
0.084
 30
2.15154314041138
 70
192
 0
VERTEX
 5
C2
 8
0
 62
131
 10
0.521837592124939
 20
0.094
 30
2.18384742736816
 70
192
 0
VERTEX
 5
C3
 8
0
 62
131
 10
0.534142136573792
 20
0.094
 30
2.17154312133789
 70
192
 0
VERTEX
 5
C4
 8
0
 62
131
 10
0.534142136573792
 20
0.084
 30
2.17154312133789
 70
192
 0
VERTEX
 5
C5
 8
0
 62
131
 10
0.571543157100677
 20
0.084
 30
2.17154312133789
 70
192
 0
VERTEX
 5
C6
 8
0
 62
131
 10
0.539238691329956
 20
0.084
 30
2.20124864578247
 70
192
 0
VERTEX
 5
C7
 8
0
 62
131
 10
0.507695436477661
 20
0.094
 30
2.19798970222473
 70
192
 0
VERTEX
 5
C8
 8
0
 62
131
 10
0.525096714496613
 20
0.094
 30
2.21539068222046
 70
192
 0
VERTEX
 5
C9
 8
0
 62
131
 10
0.539238691329956
 20
0.094
 30
2.20124864578247
 70
192
 0
VERTEX
 5
CA
 8
0
 62
131
 10
0.507695436477661
 20
0.084
 30
2.23279190063477
 70
192
 0
VERTEX
 5
CB
 8
0
 62
131
 10
0.525096714496613
 20
0.084
 30
2.21539068222046
 70
192
 0
VERTEX
 5
CC
 8
0
 62
131
 10
0.507695436477661
 20
0.094
 30
2.23279190063477
 70
192
 0
VERTEX
 5
CD
 8
0
 62
131
 10
0.48124885559082
 20
0.084
 30
2.25923848152161
 70
192
 0
VERTEX
 5
CE
 8
0
 62
131
 10
0.489533126354217
 20
0.084
 30
2.27923846244812
 70
192
 0
VERTEX
 5
CF
 8
0
 62
131
 10
0.507695436477661
 20
0.084
 30
2.26107621192932
 70
192
 0
VERTEX
 5
D0
 8
0
 62
131
 10
0.463847696781159
 20
0.084
 30
2.25923848152161
 70
192
 0
VERTEX
 5
D1
 8
0
 62
131
 10
0.373553335666656
 20
0.094
 30
2.15154314041138
 70
192
 0
VERTEX
 5
D2
 8
0
 62
131
 10
0.356152176856995
 20
0.084
 30
2.17154312133789
 70
192
 0
VERTEX
 5
D3
 8
0
 62
131
 10
0.356152176856995
 20
0.094
 30
2.15154314041138
 70
192
 0
VERTEX
 5
D4
 8
0
 62
131
 10
0.356152176856995
 20
0.084
 30
2.19722843170166
 70
192
 0
VERTEX
 5
D5
 8
0
 62
131
 10
0.356152176856995
 20
0.094
 30
2.17154312133789
 70
192
 0
VERTEX
 5
D6
 8
0
 62
131
 10
0.356152176856995
 20
0.094
 30
2.19722843170166
 70
192
 0
VERTEX
 5
D7
 8
0
 62
131
 10
0.4
 20
0.084
 30
2.12509632110596
 70
192
 0
VERTEX
 5
D8
 8
0
 62
131
 10
0.370294332504273
 20
0.094
 30
2.09539079666138
 70
192
 0
VERTEX
 5
D9
 8
0
 62
131
 10
0.370294332504273
 20
0.094
 30
2.07039070129394
 70
192
 0
VERTEX
 5
DA
 8
0
 62
131
 10
0.370294332504273
 20
0.084
 30
2.09539079666138
 70
192
 0
VERTEX
 5
DB
 8
0
 62
131
 10
0.475391030311584
 20
0.094
 30
2.07039070129394
 70
192
 0
VERTEX
 5
DC
 8
0
 62
131
 10
0.475391030311584
 20
0.084
 30
2.07039070129394
 70
192
 0
VERTEX
 5
DD
 8
0
 62
131
 10
0.54
 20
0.094
 30
2.07039070129394
 70
192
 0
VERTEX
 5
DE
 8
0
 62
131
 10
0.551543176174164
 20
0.084
 30
2.07039070129394
 70
192
 0
VERTEX
 5
DF
 8
0
 62
131
 10
0.5856853723526
 20
0.084
 30
2.09539079666138
 70
192
 0
VERTEX
 5
E0
 8
0
 62
131
 10
0.5856853723526
 20
0.094
 30
2.09539079666138
 70
192
 0
VERTEX
 5
E1
 8
0
 62
131
 10
0.551543176174164
 20
0.094
 30
2.09539079666138
 70
192
 0
VERTEX
 5
E2
 8
0
 62
131
 10
0.551543176174164
 20
0.094
 30
2.07039070129394
 70
192
 0
VERTEX
 5
E3
 8
0
 62
131
 10
0.571543157100677
 20
0.094
 30
2.10953307151794
 70
192
 0
VERTEX
 5
E4
 8
0
 62
131
 10
0.551543176174164
 20
0.084
 30
2.15154314041138
 70
192
 0
VERTEX
 5
E5
 8
0
 62
131
 10
0.571543157100677
 20
0.084
 30
2.15154314041138
 70
192
 0
VERTEX
 5
E6
 8
0
 62
131
 10
0.571543157100677
 20
0.084
 30
2.10953307151794
 70
192
 0
VERTEX
 5
E7
 8
0
 62
131
 10
0.336152195930481
 20
0.084
 30
2.09539079666138
 70
192
 0
VERTEX
 5
E8
 8
0
 62
131
 10
0.370294332504273
 20
0.084
 30
2.07039070129394
 70
192
 0
VERTEX
 5
E9
 8
0
 62
131
 10
0.551543176174164
 20
0.084
 30
2.17154312133789
 70
192
 0
VERTEX
 5
EA
 8
0
 62
131
 10
0.551543176174164
 20
0.084
 30
2.18894410133362
 70
192
 0
VERTEX
 5
EB
 8
0
 62
131
 10
0.551543176174164
 20
0.094
 30
2.18894410133362
 70
192
 0
VERTEX
 5
EC
 8
0
 62
131
 10
0.571543157100677
 20
0.084
 30
2.23355317115784
 70
192
 0
VERTEX
 5
ED
 8
0
 62
131
 10
0.539238691329956
 20
0.094
 30
2.22953295707703
 70
192
 0
VERTEX
 5
EE
 8
0
 62
131
 10
0.553380846977234
 20
0.094
 30
2.21539068222046
 70
192
 0
VERTEX
 5
EF
 8
0
 62
131
 10
0.385857820510864
 20
0.084
 30
2.13923859596252
 70
192
 0
VERTEX
 5
F0
 8
0
 62
131
 10
0.356152176856995
 20
0.094
 30
2.10953307151794
 70
192
 0
VERTEX
 5
F1
 8
0
 62
131
 10
0.521837592124939
 20
0.094
 30
2.24693417549133
 70
192
 0
VERTEX
 5
F2
 8
0
 62
131
 10
0.521837592124939
 20
0.084
 30
2.24693417549133
 70
192
 0
VERTEX
 5
F3
 8
0
 62
131
 10
0.551543176174164
 20
0.084
 30
2.25923848152161
 70
192
 0
VERTEX
 5
F4
 8
0
 62
131
 10
0.534142136573792
 20
0.084
 30
2.25923848152161
 70
192
 0
VERTEX
 5
F5
 8
0
 62
131
 10
0.507695436477661
 20
0.094
 30
2.26107621192932
 70
192
 0
VERTEX
 5
F6
 8
0
 62
131
 10
0.525857925415039
 20
0.094
 30
2.27923846244812
 70
192
 0
VERTEX
 5
F7
 8
0
 62
131
 10
0.48124885559082
 20
0.094
 30
2.25923848152161
 70
192
 0
VERTEX
 5
F8
 8
0
 62
131
 10
0.489533126354217
 20
0.094
 30
2.27923846244812
 70
192
 0
VERTEX
 5
F9
 8
0
 62
131
 10
0.463847696781159
 20
0.094
 30
2.27923846244812
 70
192
 0
VERTEX
 5
FA
 8
0
 62
131
 10
0.443847715854645
 20
0.084
 30
2.27923846244812
 70
192
 0
VERTEX
 5
FB
 8
0
 62
131
 10
0.418162286281586
 20
0.084
 30
2.25923848152161
 70
192
 0
VERTEX
 5
FC
 8
0
 62
131
 10
0.426446557044983
 20
0.084
 30
2.27923846244812
 70
192
 0
VERTEX
 5
FD
 8
0
 62
131
 10
0.414142072200775
 20
0.094
 30
2.29154300689697
 70
192
 0
VERTEX
 5
FE
 8
0
 62
131
 10
0.426446557044983
 20
0.094
 30
2.27923846244812
 70
192
 0
VERTEX
 5
FF
 8
0
 62
131
 10
0.418162286281586
 20
0.094
 30
2.25923848152161
 70
192
 0
VERTEX
 5
100
 8
0
 62
131
 10
0.414142072200775
 20
0.084
 30
2.29154300689697
 70
192
 0
VERTEX
 5
101
 8
0
 62
131
 10
0.385857820510864
 20
0.094
 30
2.29154300689697
 70
192
 0
VERTEX
 5
102
 8
0
 62
131
 10
0.4
 20
0.084
 30
2.27740097045898
 70
192
 0
VERTEX
 5
103
 8
0
 62
131
 10
0.381837606430054
 20
0.084
 30
2.25923848152161
 70
192
 0
VERTEX
 5
104
 8
0
 62
131
 10
0.336152195930481
 20
0.094
 30
2.09539079666138
 70
192
 0
VERTEX
 5
105
 8
0
 62
131
 10
0.336152195930481
 20
0.084
 30
2.17154312133789
 70
192
 0
VERTEX
 5
106
 8
0
 62
131
 10
0.336152195930481
 20
0.094
 30
2.15154314041138
 70
192
 0
VERTEX
 5
107
 8
0
 62
131
 10
0.337989836931229
 20
0.094
 30
2.21539068222046
 70
192
 0
VERTEX
 5
108
 8
0
 62
131
 10
0.356152176856995
 20
0.084
 30
2.10953307151794
 70
192
 0
VERTEX
 5
109
 8
0
 62
131
 10
0.5856853723526
 20
0.094
 30
2.07039070129394
 70
192
 0
VERTEX
 5
10A
 8
0
 62
131
 10
0.5856853723526
 20
0.084
 30
2.07039070129394
 70
192
 0
VERTEX
 5
10B
 8
0
 62
131
 10
0.61539089679718
 20
0.094
 30
2.12509632110596
 70
192
 0
VERTEX
 5
10C
 8
0
 62
131
 10
0.659238696098328
 20
0.094
 30
2.10953307151794
 70
192
 0
VERTEX
 5
10D
 8
0
 62
131
 10
0.645096659660339
 20
0.094
 30
2.07039070129394
 70
192
 0
VERTEX
 5
10E
 8
0
 62
131
 10
0.571543157100677
 20
0.094
 30
2.15154314041138
 70
192
 0
VERTEX
 5
10F
 8
0
 62
131
 10
0.551543176174164
 20
0.094
 30
2.15154314041138
 70
192
 0
VERTEX
 5
110
 8
0
 62
131
 10
0.601248979568481
 20
0.084
 30
2.13923859596252
 70
192
 0
VERTEX
 5
111
 8
0
 62
131
 10
0.26
 20
0.084
 30
2.07039070129394
 70
192
 0
VERTEX
 5
112
 8
0
 62
131
 10
0.324608892202377
 20
0.084
 30
2.07039070129394
 70
192
 0
VERTEX
 5
113
 8
0
 62
131
 10
0.336152195930481
 20
0.084
 30
2.07039070129394
 70
192
 0
VERTEX
 5
114
 8
0
 62
131
 10
0.551543176174164
 20
0.094
 30
2.17154312133789
 70
192
 0
VERTEX
 5
115
 8
0
 62
131
 10
0.61539089679718
 20
0.084
 30
2.15338063240051
 70
192
 0
VERTEX
 5
116
 8
0
 62
131
 10
0.597228646278381
 20
0.084
 30
2.17154312133789
 70
192
 0
VERTEX
 5
117
 8
0
 62
131
 10
0.588944435119629
 20
0.084
 30
2.15154314041138
 70
192
 0
VERTEX
 5
118
 8
0
 62
131
 10
0.571543157100677
 20
0.094
 30
2.17154312133789
 70
192
 0
VERTEX
 5
119
 8
0
 62
131
 10
0.571543157100677
 20
0.094
 30
2.19722843170166
 70
192
 0
VERTEX
 5
11A
 8
0
 62
131
 10
0.571543157100677
 20
0.084
 30
2.19722843170166
 70
192
 0
VERTEX
 5
11B
 8
0
 62
131
 10
0.553380846977234
 20
0.084
 30
2.21539068222046
 70
192
 0
VERTEX
 5
11C
 8
0
 62
131
 10
0.571543157100677
 20
0.094
 30
2.23355317115784
 70
192
 0
VERTEX
 5
11D
 8
0
 62
131
 10
0.539238691329956
 20
0.084
 30
2.22953295707703
 70
192
 0
VERTEX
 5
11E
 8
0
 62
131
 10
0.356152176856995
 20
0.084
 30
2.15154314041138
 70
192
 0
VERTEX
 5
11F
 8
0
 62
131
 10
0.336152195930481
 20
0.084
 30
2.15154314041138
 70
192
 0
VERTEX
 5
120
 8
0
 62
131
 10
0.525857925415039
 20
0.084
 30
2.27923846244812
 70
192
 0
VERTEX
 5
121
 8
0
 62
131
 10
0.551543176174164
 20
0.094
 30
2.27923846244812
 70
192
 0
VERTEX
 5
122
 8
0
 62
131
 10
0.571543157100677
 20
0.084
 30
2.25923848152161
 70
192
 0
VERTEX
 5
123
 8
0
 62
131
 10
0.534142136573792
 20
0.094
 30
2.25923848152161
 70
192
 0
VERTEX
 5
124
 8
0
 62
131
 10
0.463847696781159
 20
0.084
 30
2.27923846244812
 70
192
 0
VERTEX
 5
125
 8
0
 62
131
 10
0.443847715854645
 20
0.094
 30
2.27923846244812
 70
192
 0
VERTEX
 5
126
 8
0
 62
131
 10
0.463847696781159
 20
0.084
 30
2.33539080619812
 70
192
 0
VERTEX
 5
127
 8
0
 62
131
 10
0.4
 20
0.084
 30
2.30568528175354
 70
192
 0
VERTEX
 5
128
 8
0
 62
131
 10
0.443847715854645
 20
0.084
 30
2.32124876976013
 70
192
 0
VERTEX
 5
129
 8
0
 62
131
 10
0.443847715854645
 20
0.094
 30
2.32124876976013
 70
192
 0
VERTEX
 5
12A
 8
0
 62
131
 10
0.4
 20
0.094
 30
2.30568528175354
 70
192
 0
VERTEX
 5
12B
 8
0
 62
131
 10
0.385857820510864
 20
0.084
 30
2.29154300689697
 70
192
 0
VERTEX
 5
12C
 8
0
 62
131
 10
0.373553335666656
 20
0.084
 30
2.27923846244812
 70
192
 0
VERTEX
 5
12D
 8
0
 62
131
 10
0.4
 20
0.094
 30
2.27740097045898
 70
192
 0
VERTEX
 5
12E
 8
0
 62
131
 10
0.292304456233978
 20
0.084
 30
2.16970539093018
 70
192
 0
VERTEX
 5
12F
 8
0
 62
131
 10
0.318751037120819
 20
0.094
 30
2.17154312133789
 70
192
 0
VERTEX
 5
130
 8
0
 62
131
 10
0.336152195930481
 20
0.094
 30
2.17154312133789
 70
192
 0
VERTEX
 5
131
 8
0
 62
131
 10
0.336152195930481
 20
0.084
 30
2.18894410133362
 70
192
 0
VERTEX
 5
132
 8
0
 62
131
 10
0.356152176856995
 20
0.084
 30
2.23355317115784
 70
192
 0
VERTEX
 5
133
 8
0
 62
131
 10
0.26
 20
0.094
 30
2.07039070129394
 70
192
 0
VERTEX
 5
134
 8
0
 62
131
 10
0.248456671833992
 20
0.094
 30
2.07039070129394
 70
192
 0
VERTEX
 5
135
 8
0
 62
131
 10
0.336152195930481
 20
0.094
 30
2.07039070129394
 70
192
 0
VERTEX
 5
136
 8
0
 62
131
 10
0.214314535260201
 20
0.094
 30
2.09539079666138
 70
192
 0
VERTEX
 5
137
 8
0
 62
131
 10
0.645096659660339
 20
0.084
 30
2.09539079666138
 70
192
 0
VERTEX
 5
138
 8
0
 62
131
 10
0.645096659660339
 20
0.084
 30
2.07039070129394
 70
192
 0
VERTEX
 5
139
 8
0
 62
131
 10
0.67923891544342
 20
0.084
 30
2.07039070129394
 70
192
 0
VERTEX
 5
13A
 8
0
 62
131
 10
0.629533112049103
 20
0.084
 30
2.13923859596252
 70
192
 0
VERTEX
 5
13B
 8
0
 62
131
 10
0.601248979568481
 20
0.094
 30
2.13923859596252
 70
192
 0
VERTEX
 5
13C
 8
0
 62
131
 10
0.61539089679718
 20
0.084
 30
2.12509632110596
 70
192
 0
VERTEX
 5
13D
 8
0
 62
131
 10
0.659238696098328
 20
0.084
 30
2.10953307151794
 70
192
 0
VERTEX
 5
13E
 8
0
 62
131
 10
0.67923891544342
 20
0.084
 30
2.09539079666138
 70
192
 0
VERTEX
 5
13F
 8
0
 62
131
 10
0.67923891544342
 20
0.094
 30
2.09539079666138
 70
192
 0
VERTEX
 5
140
 8
0
 62
131
 10
0.645096659660339
 20
0.094
 30
2.09539079666138
 70
192
 0
VERTEX
 5
141
 8
0
 62
131
 10
0.588944435119629
 20
0.094
 30
2.15154314041138
 70
192
 0
VERTEX
 5
142
 8
0
 62
131
 10
0.597228646278381
 20
0.094
 30
2.17154312133789
 70
192
 0
VERTEX
 5
143
 8
0
 62
131
 10
0.248456671833992
 20
0.084
 30
2.07039070129394
 70
192
 0
VERTEX
 5
144
 8
0
 62
131
 10
0.324608892202377
 20
0.094
 30
2.07039070129394
 70
192
 0
VERTEX
 5
145
 8
0
 62
131
 10
0.571543157100677
 20
0.094
 30
2.25923848152161
 70
192
 0
VERTEX
 5
146
 8
0
 62
131
 10
0.551543176174164
 20
0.084
 30
2.24183750152588
 70
192
 0
VERTEX
 5
147
 8
0
 62
131
 10
0.551543176174164
 20
0.094
 30
2.24183750152588
 70
192
 0
VERTEX
 5
148
 8
0
 62
131
 10
0.551543176174164
 20
0.084
 30
2.32124876976013
 70
192
 0
VERTEX
 5
149
 8
0
 62
131
 10
0.551543176174164
 20
0.084
 30
2.27923846244812
 70
192
 0
VERTEX
 5
14A
 8
0
 62
131
 10
0.551543176174164
 20
0.094
 30
2.25923848152161
 70
192
 0
VERTEX
 5
14B
 8
0
 62
131
 10
0.571543157100677
 20
0.094
 30
2.27923846244812
 70
192
 0
VERTEX
 5
14C
 8
0
 62
131
 10
0.42970559
 20
0.084
 30
2.36039066314697
 70
192
 0
VERTEX
 5
14D
 8
0
 62
131
 10
0.42970559
 20
0.084
 30
2.33539080619812
 70
192
 0
VERTEX
 5
14E
 8
0
 62
131
 10
0.356152176856995
 20
0.094
 30
2.32124876976013
 70
192
 0
VERTEX
 5
14F
 8
0
 62
131
 10
0.356152176856995
 20
0.084
 30
2.32124876976013
 70
192
 0
VERTEX
 5
150
 8
0
 62
131
 10
0.356152176856995
 20
0.084
 30
2.27923846244812
 70
192
 0
VERTEX
 5
151
 8
0
 62
131
 10
0.356152176856995
 20
0.094
 30
2.27923846244812
 70
192
 0
VERTEX
 5
152
 8
0
 62
131
 10
0.373553335666656
 20
0.094
 30
2.27923846244812
 70
192
 0
VERTEX
 5
153
 8
0
 62
131
 10
0.381837606430054
 20
0.094
 30
2.25923848152161
 70
192
 0
VERTEX
 5
154
 8
0
 62
131
 10
0.356152176856995
 20
0.094
 30
2.25923848152161
 70
192
 0
VERTEX
 5
155
 8
0
 62
131
 10
0.356152176856995
 20
0.094
 30
2.23355317115784
 70
192
 0
VERTEX
 5
156
 8
0
 62
131
 10
0.310466766357422
 20
0.084
 30
2.15154314041138
 70
192
 0
VERTEX
 5
157
 8
0
 62
131
 10
0.292304456233978
 20
0.094
 30
2.16970539093018
 70
192
 0
VERTEX
 5
158
 8
0
 62
131
 10
0.318751037120819
 20
0.084
 30
2.17154312133789
 70
192
 0
VERTEX
 5
159
 8
0
 62
131
 10
0.310466766357422
 20
0.094
 30
2.15154314041138
 70
192
 0
VERTEX
 5
15A
 8
0
 62
131
 10
0.336152195930481
 20
0.094
 30
2.18894410133362
 70
192
 0
VERTEX
 5
15B
 8
0
 62
131
 10
0.337989836931229
 20
0.084
 30
2.21539068222046
 70
192
 0
VERTEX
 5
15C
 8
0
 62
131
 10
0.323847711086273
 20
0.094
 30
2.20124864578247
 70
192
 0
VERTEX
 5
15D
 8
0
 62
131
 10
0.323847711086273
 20
0.084
 30
2.22953295707703
 70
192
 0
VERTEX
 5
15E
 8
0
 62
131
 10
0.214314535260201
 20
0.094
 30
2.07039070129394
 70
192
 0
VERTEX
 5
15F
 8
0
 62
131
 10
0.248456671833992
 20
0.094
 30
2.09539079666138
 70
192
 0
VERTEX
 5
160
 8
0
 62
131
 10
0.228456676006317
 20
0.084
 30
2.10953307151794
 70
192
 0
VERTEX
 5
161
 8
0
 62
131
 10
0.248456671833992
 20
0.084
 30
2.09539079666138
 70
192
 0
VERTEX
 5
162
 8
0
 62
131
 10
0.228456676006317
 20
0.084
 30
2.15154314041138
 70
192
 0
VERTEX
 5
163
 8
0
 62
131
 10
0.198751032352448
 20
0.094
 30
2.13923859596252
 70
192
 0
VERTEX
 5
164
 8
0
 62
131
 10
0.228456676006317
 20
0.094
 30
2.15154314041138
 70
192
 0
VERTEX
 5
165
 8
0
 62
131
 10
0.248456671833992
 20
0.094
 30
2.15154314041138
 70
192
 0
VERTEX
 5
166
 8
0
 62
131
 10
0.27414208650589
 20
0.094
 30
2.15154314041138
 70
192
 0
VERTEX
 5
167
 8
0
 62
131
 10
0.248456671833992
 20
0.084
 30
2.15154314041138
 70
192
 0
VERTEX
 5
168
 8
0
 62
131
 10
0.641837656497955
 20
0.084
 30
2.15154314041138
 70
192
 0
VERTEX
 5
169
 8
0
 62
131
 10
0.61539089679718
 20
0.094
 30
2.15338063240051
 70
192
 0
VERTEX
 5
16A
 8
0
 62
131
 10
0.659238696098328
 20
0.084
 30
2.15154314041138
 70
192
 0
VERTEX
 5
16B
 8
0
 62
131
 10
0.629533112049103
 20
0.094
 30
2.13923859596252
 70
192
 0
VERTEX
 5
16C
 8
0
 62
131
 10
0.641837656497955
 20
0.094
 30
2.15154314041138
 70
192
 0
VERTEX
 5
16D
 8
0
 62
131
 10
0.735390901565552
 20
0.084
 30
2.15154314041138
 70
192
 0
VERTEX
 5
16E
 8
0
 62
131
 10
0.67923891544342
 20
0.094
 30
2.07039070129394
 70
192
 0
VERTEX
 5
16F
 8
0
 62
131
 10
0.154903277754784
 20
0.084
 30
2.07039070129394
 70
192
 0
VERTEX
 5
170
 8
0
 62
131
 10
0.214314535260201
 20
0.084
 30
2.07039070129394
 70
192
 0
VERTEX
 5
171
 8
0
 62
131
 10
0.633553445339203
 20
0.094
 30
2.17154312133789
 70
192
 0
VERTEX
 5
172
 8
0
 62
131
 10
0.588944435119629
 20
0.084
 30
2.27923846244812
 70
192
 0
VERTEX
 5
173
 8
0
 62
131
 10
0.597228646278381
 20
0.084
 30
2.25923848152161
 70
192
 0
VERTEX
 5
174
 8
0
 62
131
 10
0.571543157100677
 20
0.084
 30
2.27923846244812
 70
192
 0
VERTEX
 5
175
 8
0
 62
131
 10
0.551543176174164
 20
0.084
 30
2.33539080619812
 70
192
 0
VERTEX
 5
176
 8
0
 62
131
 10
0.571543157100677
 20
0.084
 30
2.33539080619812
 70
192
 0
VERTEX
 5
177
 8
0
 62
131
 10
0.588944435119629
 20
0.094
 30
2.27923846244812
 70
192
 0
VERTEX
 5
178
 8
0
 62
131
 10
0.597228646278381
 20
0.094
 30
2.25923848152161
 70
192
 0
VERTEX
 5
179
 8
0
 62
131
 10
0.551543176174164
 20
0.084
 30
2.36039066314697
 70
192
 0
VERTEX
 5
17A
 8
0
 62
131
 10
0.551543176174164
 20
0.094
 30
2.33539080619812
 70
192
 0
VERTEX
 5
17B
 8
0
 62
131
 10
0.463847696781159
 20
0.094
 30
2.33539080619812
 70
192
 0
VERTEX
 5
17C
 8
0
 62
131
 10
0.463847696781159
 20
0.094
 30
2.36039066314697
 70
192
 0
VERTEX
 5
17D
 8
0
 62
131
 10
0.551543176174164
 20
0.094
 30
2.36039066314697
 70
192
 0
VERTEX
 5
17E
 8
0
 62
131
 10
0.463847696781159
 20
0.084
 30
2.36039066314697
 70
192
 0
VERTEX
 5
17F
 8
0
 62
131
 10
0.370294332504273
 20
0.084
 30
2.33539080619812
 70
192
 0
VERTEX
 5
180
 8
0
 62
131
 10
0.356152176856995
 20
0.084
 30
2.25923848152161
 70
192
 0
VERTEX
 5
181
 8
0
 62
131
 10
0.42970559
 20
0.094
 30
2.36039066314697
 70
192
 0
VERTEX
 5
182
 8
0
 62
131
 10
0.42970559
 20
0.094
 30
2.33539080619812
 70
192
 0
VERTEX
 5
183
 8
0
 62
131
 10
0.292304456233978
 20
0.084
 30
2.19798970222473
 70
192
 0
VERTEX
 5
184
 8
0
 62
131
 10
0.306446582078934
 20
0.094
 30
2.18384742736816
 70
192
 0
VERTEX
 5
185
 8
0
 62
131
 10
0.306446582078934
 20
0.084
 30
2.18384742736816
 70
192
 0
VERTEX
 5
186
 8
0
 62
131
 10
0.323847711086273
 20
0.084
 30
2.20124864578247
 70
192
 0
VERTEX
 5
187
 8
0
 62
131
 10
0.2781623005867
 20
0.094
 30
2.18384742736816
 70
192
 0
VERTEX
 5
188
 8
0
 62
131
 10
0.2781623005867
 20
0.084
 30
2.18384742736816
 70
192
 0
VERTEX
 5
189
 8
0
 62
131
 10
0.265857815742493
 20
0.084
 30
2.17154312133789
 70
192
 0
VERTEX
 5
18A
 8
0
 62
131
 10
0.248456671833992
 20
0.084
 30
2.17154312133789
 70
192
 0
VERTEX
 5
18B
 8
0
 62
131
 10
0.27414208650589
 20
0.084
 30
2.15154314041138
 70
192
 0
VERTEX
 5
18C
 8
0
 62
131
 10
0.292304456233978
 20
0.094
 30
2.19798970222473
 70
192
 0
VERTEX
 5
18D
 8
0
 62
131
 10
0.292304456233978
 20
0.084
 30
2.23279190063477
 70
192
 0
VERTEX
 5
18E
 8
0
 62
131
 10
0.306446582078934
 20
0.094
 30
2.24693417549133
 70
192
 0
VERTEX
 5
18F
 8
0
 62
131
 10
0.323847711086273
 20
0.094
 30
2.22953295707703
 70
192
 0
VERTEX
 5
190
 8
0
 62
131
 10
0.309705585241318
 20
0.084
 30
2.21539068222046
 70
192
 0
VERTEX
 5
191
 8
0
 62
131
 10
0.309705585241318
 20
0.094
 30
2.21539068222046
 70
192
 0
VERTEX
 5
192
 8
0
 62
131
 10
0.336152195930481
 20
0.084
 30
2.24183750152588
 70
192
 0
VERTEX
 5
193
 8
0
 62
131
 10
0.336152195930481
 20
0.094
 30
2.24183750152588
 70
192
 0
VERTEX
 5
194
 8
0
 62
131
 10
0.214314535260201
 20
0.084
 30
2.09539079666138
 70
192
 0
VERTEX
 5
195
 8
0
 62
131
 10
0.228456676006317
 20
0.094
 30
2.10953307151794
 70
192
 0
VERTEX
 5
196
 8
0
 62
131
 10
0.140761137008667
 20
0.084
 30
2.10953307151794
 70
192
 0
VERTEX
 5
197
 8
0
 62
131
 10
0.184608906507492
 20
0.084
 30
2.12509632110596
 70
192
 0
VERTEX
 5
198
 8
0
 62
131
 10
0.228456676006317
 20
0.084
 30
2.17154312133789
 70
192
 0
VERTEX
 5
199
 8
0
 62
131
 10
0.211055502295494
 20
0.094
 30
2.15154314041138
 70
192
 0
VERTEX
 5
19A
 8
0
 62
131
 10
0.211055502295494
 20
0.084
 30
2.15154314041138
 70
192
 0
VERTEX
 5
19B
 8
0
 62
131
 10
0.735390901565552
 20
0.084
 30
2.09539079666138
 70
192
 0
VERTEX
 5
19C
 8
0
 62
131
 10
0.659238696098328
 20
0.094
 30
2.15154314041138
 70
192
 0
VERTEX
 5
19D
 8
0
 62
131
 10
0.67923891544342
 20
0.084
 30
2.15154314041138
 70
192
 0
VERTEX
 5
19E
 8
0
 62
131
 10
0.67923891544342
 20
0.084
 30
2.17154312133789
 70
192
 0
VERTEX
 5
19F
 8
0
 62
131
 10
0.659238696098328
 20
0.094
 30
2.17154312133789
 70
192
 0
VERTEX
 5
1A0
 8
0
 62
131
 10
0.67923891544342
 20
0.094
 30
2.17154312133789
 70
192
 0
VERTEX
 5
1A1
 8
0
 62
131
 10
0.67923891544342
 20
0.094
 30
2.15154314041138
 70
192
 0
VERTEX
 5
1A2
 8
0
 62
131
 10
0.760391116142273
 20
0.094
 30
2.15154314041138
 70
192
 0
VERTEX
 5
1A3
 8
0
 62
131
 10
0.760391116142273
 20
0.094
 30
2.07039070129394
 70
192
 0
VERTEX
 5
1A4
 8
0
 62
131
 10
0.735390901565552
 20
0.094
 30
2.09539079666138
 70
192
 0
VERTEX
 5
1A5
 8
0
 62
131
 10
0.721248984336853
 20
0.094
 30
2.17154312133789
 70
192
 0
VERTEX
 5
1A6
 8
0
 62
131
 10
0.154903277754784
 20
0.084
 30
2.09539079666138
 70
192
 0
VERTEX
 5
1A7
 8
0
 62
131
 10
0.633553445339203
 20
0.084
 30
2.17154312133789
 70
192
 0
VERTEX
 5
1A8
 8
0
 62
131
 10
0.601248979568481
 20
0.084
 30
2.29154300689697
 70
192
 0
VERTEX
 5
1A9
 8
0
 62
131
 10
0.61539089679718
 20
0.094
 30
2.27740097045898
 70
192
 0
VERTEX
 5
1AA
 8
0
 62
131
 10
0.571543157100677
 20
0.094
 30
2.32124876976013
 70
192
 0
VERTEX
 5
1AB
 8
0
 62
131
 10
0.5856853723526
 20
0.094
 30
2.33539080619812
 70
192
 0
VERTEX
 5
1AC
 8
0
 62
131
 10
0.370294332504273
 20
0.084
 30
2.36039066314697
 70
192
 0
VERTEX
 5
1AD
 8
0
 62
131
 10
0.370294332504273
 20
0.094
 30
2.36039066314697
 70
192
 0
VERTEX
 5
1AE
 8
0
 62
131
 10
0.370294332504273
 20
0.094
 30
2.33539080619812
 70
192
 0
VERTEX
 5
1AF
 8
0
 62
131
 10
0.248456671833992
 20
0.084
 30
2.33539080619812
 70
192
 0
VERTEX
 5
1B0
 8
0
 62
131
 10
0.336152195930481
 20
0.084
 30
2.36039066314697
 70
192
 0
VERTEX
 5
1B1
 8
0
 62
131
 10
0.248456671833992
 20
0.084
 30
2.36039066314697
 70
192
 0
VERTEX
 5
1B2
 8
0
 62
131
 10
0.336152195930481
 20
0.094
 30
2.36039066314697
 70
192
 0
VERTEX
 5
1B3
 8
0
 62
131
 10
0.336152195930481
 20
0.094
 30
2.33539080619812
 70
192
 0
VERTEX
 5
1B4
 8
0
 62
131
 10
0.336152195930481
 20
0.084
 30
2.27923846244812
 70
192
 0
VERTEX
 5
1B5
 8
0
 62
131
 10
0.310466766357422
 20
0.084
 30
2.27923846244812
 70
192
 0
VERTEX
 5
1B6
 8
0
 62
131
 10
0.292304456233978
 20
0.084
 30
2.26107621192932
 70
192
 0
VERTEX
 5
1B7
 8
0
 62
131
 10
0.336152195930481
 20
0.094
 30
2.27923846244812
 70
192
 0
VERTEX
 5
1B8
 8
0
 62
131
 10
0.336152195930481
 20
0.084
 30
2.25923848152161
 70
192
 0
VERTEX
 5
1B9
 8
0
 62
131
 10
0.274903267621994
 20
0.094
 30
2.21539068222046
 70
192
 0
VERTEX
 5
1BA
 8
0
 62
131
 10
0.260761141777039
 20
0.094
 30
2.20124864578247
 70
192
 0
VERTEX
 5
1BB
 8
0
 62
131
 10
0.265857815742493
 20
0.094
 30
2.17154312133789
 70
192
 0
VERTEX
 5
1BC
 8
0
 62
131
 10
0.248456671833992
 20
0.094
 30
2.17154312133789
 70
192
 0
VERTEX
 5
1BD
 8
0
 62
131
 10
0.292304456233978
 20
0.094
 30
2.23279190063477
 70
192
 0
VERTEX
 5
1BE
 8
0
 62
131
 10
0.274903267621994
 20
0.084
 30
2.21539068222046
 70
192
 0
VERTEX
 5
1BF
 8
0
 62
131
 10
0.120761156082153
 20
0.094
 30
2.09539079666138
 70
192
 0
VERTEX
 5
1C0
 8
0
 62
131
 10
0.154903277754784
 20
0.094
 30
2.07039070129394
 70
192
 0
VERTEX
 5
1C1
 8
0
 62
131
 10
0.120761156082153
 20
0.094
 30
2.07039070129394
 70
192
 0
VERTEX
 5
1C2
 8
0
 62
131
 10
0.198751032352448
 20
0.084
 30
2.13923859596252
 70
192
 0
VERTEX
 5
1C3
 8
0
 62
131
 10
0.140761137008667
 20
0.094
 30
2.10953307151794
 70
192
 0
VERTEX
 5
1C4
 8
0
 62
131
 10
0.184608906507492
 20
0.094
 30
2.12509632110596
 70
192
 0
VERTEX
 5
1C5
 8
0
 62
131
 10
0.154903277754784
 20
0.094
 30
2.09539079666138
 70
192
 0
VERTEX
 5
1C6
 8
0
 62
131
 10
0.120761156082153
 20
0.084
 30
2.09539079666138
 70
192
 0
VERTEX
 5
1C7
 8
0
 62
131
 10
0.228456676006317
 20
0.084
 30
2.19722843170166
 70
192
 0
VERTEX
 5
1C8
 8
0
 62
131
 10
0.202771246433258
 20
0.084
 30
2.17154312133789
 70
192
 0
VERTEX
 5
1C9
 8
0
 62
131
 10
0.184608906507492
 20
0.084
 30
2.15338063240051
 70
192
 0
VERTEX
 5
1CA
 8
0
 62
131
 10
0.760391116142273
 20
0.084
 30
2.07039070129394
 70
192
 0
VERTEX
 5
1CB
 8
0
 62
131
 10
0.760391116142273
 20
0.084
 30
2.15154314041138
 70
192
 0
VERTEX
 5
1CC
 8
0
 62
131
 10
0.760391116142273
 20
0.084
 30
2.18568515777588
 70
192
 0
VERTEX
 5
1CD
 8
0
 62
131
 10
0.659238696098328
 20
0.084
 30
2.19722843170166
 70
192
 0
VERTEX
 5
1CE
 8
0
 62
131
 10
0.735390901565552
 20
0.094
 30
2.18568515777588
 70
192
 0
VERTEX
 5
1CF
 8
0
 62
131
 10
0.735390901565552
 20
0.084
 30
2.18568515777588
 70
192
 0
VERTEX
 5
1D0
 8
0
 62
131
 10
0.721248984336853
 20
0.084
 30
2.17154312133789
 70
192
 0
VERTEX
 5
1D1
 8
0
 62
131
 10
0.735390901565552
 20
0.094
 30
2.15154314041138
 70
192
 0
VERTEX
 5
1D2
 8
0
 62
131
 10
0.120761156082153
 20
0.084
 30
2.07039070129394
 70
192
 0
VERTEX
 5
1D3
 8
0
 62
131
 10
0.659238696098328
 20
0.084
 30
2.17154312133789
 70
192
 0
VERTEX
 5
1D4
 8
0
 62
131
 10
0.659238696098328
 20
0.094
 30
2.19722843170166
 70
192
 0
VERTEX
 5
1D5
 8
0
 62
131
 10
0.633553445339203
 20
0.084
 30
2.25923848152161
 70
192
 0
VERTEX
 5
1D6
 8
0
 62
131
 10
0.61539089679718
 20
0.084
 30
2.27740097045898
 70
192
 0
VERTEX
 5
1D7
 8
0
 62
131
 10
0.601248979568481
 20
0.094
 30
2.29154300689697
 70
192
 0
VERTEX
 5
1D8
 8
0
 62
131
 10
0.61539089679718
 20
0.084
 30
2.30568528175354
 70
192
 0
VERTEX
 5
1D9
 8
0
 62
131
 10
0.571543157100677
 20
0.084
 30
2.32124876976013
 70
192
 0
VERTEX
 5
1DA
 8
0
 62
131
 10
0.629533112049103
 20
0.084
 30
2.29154300689697
 70
192
 0
VERTEX
 5
1DB
 8
0
 62
131
 10
0.5856853723526
 20
0.084
 30
2.33539080619812
 70
192
 0
VERTEX
 5
1DC
 8
0
 62
131
 10
0.645096659660339
 20
0.094
 30
2.33539080619812
 70
192
 0
VERTEX
 5
1DD
 8
0
 62
131
 10
0.645096659660339
 20
0.084
 30
2.33539080619812
 70
192
 0
VERTEX
 5
1DE
 8
0
 62
131
 10
0.5856853723526
 20
0.084
 30
2.36039066314697
 70
192
 0
VERTEX
 5
1DF
 8
0
 62
131
 10
0.5856853723526
 20
0.094
 30
2.36039066314697
 70
192
 0
VERTEX
 5
1E0
 8
0
 62
131
 10
0.248456671833992
 20
0.094
 30
2.36039066314697
 70
192
 0
VERTEX
 5
1E1
 8
0
 62
131
 10
0.336152195930481
 20
0.084
 30
2.33539080619812
 70
192
 0
VERTEX
 5
1E2
 8
0
 62
131
 10
0.214314535260201
 20
0.084
 30
2.36039066314697
 70
192
 0
VERTEX
 5
1E3
 8
0
 62
131
 10
0.310466766357422
 20
0.094
 30
2.27923846244812
 70
192
 0
VERTEX
 5
1E4
 8
0
 62
131
 10
0.336152195930481
 20
0.094
 30
2.25923848152161
 70
192
 0
VERTEX
 5
1E5
 8
0
 62
131
 10
0.318751037120819
 20
0.084
 30
2.25923848152161
 70
192
 0
VERTEX
 5
1E6
 8
0
 62
131
 10
0.306446582078934
 20
0.084
 30
2.24693417549133
 70
192
 0
VERTEX
 5
1E7
 8
0
 62
131
 10
0.318751037120819
 20
0.094
 30
2.25923848152161
 70
192
 0
VERTEX
 5
1E8
 8
0
 62
131
 10
0.260761141777039
 20
0.084
 30
2.22953295707703
 70
192
 0
VERTEX
 5
1E9
 8
0
 62
131
 10
0.260761141777039
 20
0.084
 30
2.20124864578247
 70
192
 0
VERTEX
 5
1EA
 8
0
 62
131
 10
0.248456671833992
 20
0.084
 30
2.18894410133362
 70
192
 0
VERTEX
 5
1EB
 8
0
 62
131
 10
0.265857815742493
 20
0.094
 30
2.25923848152161
 70
192
 0
VERTEX
 5
1EC
 8
0
 62
131
 10
0.2781623005867
 20
0.094
 30
2.24693417549133
 70
192
 0
VERTEX
 5
1ED
 8
0
 62
131
 10
0.2781623005867
 20
0.084
 30
2.24693417549133
 70
192
 0
VERTEX
 5
1EE
 8
0
 62
131
 10
0.158162295818329
 20
0.084
 30
2.15154314041138
 70
192
 0
VERTEX
 5
1EF
 8
0
 62
131
 10
0.170466765761375
 20
0.084
 30
2.13923859596252
 70
192
 0
VERTEX
 5
1F0
 8
0
 62
131
 10
0.158162295818329
 20
0.094
 30
2.15154314041138
 70
192
 0
VERTEX
 5
1F1
 8
0
 62
131
 10
0.184608906507492
 20
0.094
 30
2.15338063240051
 70
192
 0
VERTEX
 5
1F2
 8
0
 62
131
 10
0.140761137008667
 20
0.084
 30
2.15154314041138
 70
192
 0
VERTEX
 5
1F3
 8
0
 62
131
 10
0.170466765761375
 20
0.094
 30
2.13923859596252
 70
192
 0
VERTEX
 5
1F4
 8
0
 62
131
 10
0.140761137008667
 20
0.094
 30
2.15154314041138
 70
192
 0
VERTEX
 5
1F5
 8
0
 62
131
 10
0.0646089166402817
 20
0.084
 30
2.15154314041138
 70
192
 0
VERTEX
 5
1F6
 8
0
 62
131
 10
0.0646089166402817
 20
0.094
 30
2.09539079666138
 70
192
 0
VERTEX
 5
1F7
 8
0
 62
131
 10
0.0646089166402817
 20
0.094
 30
2.15154314041138
 70
192
 0
VERTEX
 5
1F8
 8
0
 62
131
 10
0.228456676006317
 20
0.094
 30
2.17154312133789
 70
192
 0
VERTEX
 5
1F9
 8
0
 62
131
 10
0.202771246433258
 20
0.094
 30
2.17154312133789
 70
192
 0
VERTEX
 5
1FA
 8
0
 62
131
 10
0.248456671833992
 20
0.094
 30
2.18894410133362
 70
192
 0
VERTEX
 5
1FB
 8
0
 62
131
 10
0.67923891544342
 20
0.084
 30
2.18894410133362
 70
192
 0
VERTEX
 5
1FC
 8
0
 62
131
 10
0.67923891544342
 20
0.094
 30
2.18894410133362
 70
192
 0
VERTEX
 5
1FD
 8
0
 62
131
 10
0.677401185035706
 20
0.084
 30
2.21539068222046
 70
192
 0
VERTEX
 5
1FE
 8
0
 62
131
 10
0.760391116142273
 20
0.094
 30
2.24509644508362
 70
192
 0
VERTEX
 5
1FF
 8
0
 62
131
 10
0.760391116142273
 20
0.094
 30
2.18568515777588
 70
192
 0
VERTEX
 5
200
 8
0
 62
131
 10
0.705685377120972
 20
0.094
 30
2.21539068222046
 70
192
 0
VERTEX
 5
201
 8
0
 62
131
 10
0.0646089166402817
 20
0.084
 30
2.09539079666138
 70
192
 0
VERTEX
 5
202
 8
0
 62
131
 10
0.633553445339203
 20
0.094
 30
2.25923848152161
 70
192
 0
VERTEX
 5
203
 8
0
 62
131
 10
0.629533112049103
 20
0.094
 30
2.29154300689697
 70
192
 0
VERTEX
 5
204
 8
0
 62
131
 10
0.61539089679718
 20
0.094
 30
2.30568528175354
 70
192
 0
VERTEX
 5
205
 8
0
 62
131
 10
0.659238696098328
 20
0.084
 30
2.32124876976013
 70
192
 0
VERTEX
 5
206
 8
0
 62
131
 10
0.659238696098328
 20
0.084
 30
2.27923846244812
 70
192
 0
VERTEX
 5
207
 8
0
 62
131
 10
0.67923891544342
 20
0.084
 30
2.33539080619812
 70
192
 0
VERTEX
 5
208
 8
0
 62
131
 10
0.645096659660339
 20
0.084
 30
2.36039066314697
 70
192
 0
VERTEX
 5
209
 8
0
 62
131
 10
0.645096659660339
 20
0.094
 30
2.36039066314697
 70
192
 0
VERTEX
 5
20A
 8
0
 62
131
 10
0.248456671833992
 20
0.094
 30
2.33539080619812
 70
192
 0
VERTEX
 5
20B
 8
0
 62
131
 10
0.214314535260201
 20
0.094
 30
2.33539080619812
 70
192
 0
VERTEX
 5
20C
 8
0
 62
131
 10
0.248456671833992
 20
0.084
 30
2.32124876976013
 70
192
 0
VERTEX
 5
20D
 8
0
 62
131
 10
0.248456671833992
 20
0.084
 30
2.27923846244812
 70
192
 0
VERTEX
 5
20E
 8
0
 62
131
 10
0.228456676006317
 20
0.084
 30
2.33539080619812
 70
192
 0
VERTEX
 5
20F
 8
0
 62
131
 10
0.27414208650589
 20
0.094
 30
2.27923846244812
 70
192
 0
VERTEX
 5
210
 8
0
 62
131
 10
0.27414208650589
 20
0.084
 30
2.27923846244812
 70
192
 0
VERTEX
 5
211
 8
0
 62
131
 10
0.292304456233978
 20
0.094
 30
2.26107621192932
 70
192
 0
VERTEX
 5
212
 8
0
 62
131
 10
0.248456671833992
 20
0.094
 30
2.24183750152588
 70
192
 0
VERTEX
 5
213
 8
0
 62
131
 10
0.248456671833992
 20
0.084
 30
2.24183750152588
 70
192
 0
VERTEX
 5
214
 8
0
 62
131
 10
0.228456676006317
 20
0.084
 30
2.23355317115784
 70
192
 0
VERTEX
 5
215
 8
0
 62
131
 10
0.228456676006317
 20
0.094
 30
2.23355317115784
 70
192
 0
VERTEX
 5
216
 8
0
 62
131
 10
0.246619015932083
 20
0.094
 30
2.21539068222046
 70
192
 0
VERTEX
 5
217
 8
0
 62
131
 10
0.246619015932083
 20
0.084
 30
2.21539068222046
 70
192
 0
VERTEX
 5
218
 8
0
 62
131
 10
0.228456676006317
 20
0.094
 30
2.19722843170166
 70
192
 0
VERTEX
 5
219
 8
0
 62
131
 10
0.260761141777039
 20
0.094
 30
2.22953295707703
 70
192
 0
VERTEX
 5
21A
 8
0
 62
131
 10
0.248456671833992
 20
0.084
 30
2.25923848152161
 70
192
 0
VERTEX
 5
21B
 8
0
 62
131
 10
0.265857815742493
 20
0.084
 30
2.25923848152161
 70
192
 0
VERTEX
 5
21C
 8
0
 62
131
 10
0.248456671833992
 20
0.094
 30
2.27923846244812
 70
192
 0
VERTEX
 5
21D
 8
0
 62
131
 10
0.0396089106798172
 20
0.094
 30
2.07039070129394
 70
192
 0
VERTEX
 5
21E
 8
0
 62
131
 10
0.0396089106798172
 20
0.094
 30
2.15154314041138
 70
192
 0
VERTEX
 5
21F
 8
0
 62
131
 10
0.166446581482887
 20
0.094
 30
2.17154312133789
 70
192
 0
VERTEX
 5
220
 8
0
 62
131
 10
0.140761137008667
 20
0.084
 30
2.17154312133789
 70
192
 0
VERTEX
 5
221
 8
0
 62
131
 10
0.120761156082153
 20
0.084
 30
2.15154314041138
 70
192
 0
VERTEX
 5
222
 8
0
 62
131
 10
0.120761156082153
 20
0.094
 30
2.15154314041138
 70
192
 0
VERTEX
 5
223
 8
0
 62
131
 10
0.0787510424852371
 20
0.084
 30
2.17154312133789
 70
192
 0
VERTEX
 5
224
 8
0
 62
131
 10
0.0787510424852371
 20
0.094
 30
2.17154312133789
 70
192
 0
VERTEX
 5
225
 8
0
 62
131
 10
0.760391116142273
 20
0.084
 30
2.24509644508362
 70
192
 0
VERTEX
 5
226
 8
0
 62
131
 10
0.691543102264404
 20
0.084
 30
2.20124864578247
 70
192
 0
VERTEX
 5
227
 8
0
 62
131
 10
0.691543102264404
 20
0.094
 30
2.20124864578247
 70
192
 0
VERTEX
 5
228
 8
0
 62
131
 10
0.677401185035706
 20
0.094
 30
2.21539068222046
 70
192
 0
VERTEX
 5
229
 8
0
 62
131
 10
0.705685377120972
 20
0.084
 30
2.21539068222046
 70
192
 0
VERTEX
 5
22A
 8
0
 62
131
 10
0.0396089106798172
 20
0.084
 30
2.07039070129394
 70
192
 0
VERTEX
 5
22B
 8
0
 62
131
 10
0.0396089106798172
 20
0.084
 30
2.15154314041138
 70
192
 0
VERTEX
 5
22C
 8
0
 62
131
 10
0.0646089166402817
 20
0.084
 30
2.18568515777588
 70
192
 0
VERTEX
 5
22D
 8
0
 62
131
 10
0.641837656497955
 20
0.084
 30
2.27923846244812
 70
192
 0
VERTEX
 5
22E
 8
0
 62
131
 10
0.641837656497955
 20
0.094
 30
2.27923846244812
 70
192
 0
VERTEX
 5
22F
 8
0
 62
131
 10
0.659238696098328
 20
0.094
 30
2.32124876976013
 70
192
 0
VERTEX
 5
230
 8
0
 62
131
 10
0.67923891544342
 20
0.094
 30
2.33539080619812
 70
192
 0
VERTEX
 5
231
 8
0
 62
131
 10
0.659238696098328
 20
0.094
 30
2.27923846244812
 70
192
 0
VERTEX
 5
232
 8
0
 62
131
 10
0.67923891544342
 20
0.084
 30
2.27923846244812
 70
192
 0
VERTEX
 5
233
 8
0
 62
131
 10
0.67923891544342
 20
0.084
 30
2.36039066314697
 70
192
 0
VERTEX
 5
234
 8
0
 62
131
 10
0.67923891544342
 20
0.094
 30
2.36039066314697
 70
192
 0
VERTEX
 5
235
 8
0
 62
131
 10
0.214314535260201
 20
0.094
 30
2.36039066314697
 70
192
 0
VERTEX
 5
236
 8
0
 62
131
 10
0.154903277754784
 20
0.094
 30
2.36039066314697
 70
192
 0
VERTEX
 5
237
 8
0
 62
131
 10
0.154903277754784
 20
0.084
 30
2.36039066314697
 70
192
 0
VERTEX
 5
238
 8
0
 62
131
 10
0.228456676006317
 20
0.084
 30
2.32124876976013
 70
192
 0
VERTEX
 5
239
 8
0
 62
131
 10
0.214314535260201
 20
0.084
 30
2.33539080619812
 70
192
 0
VERTEX
 5
23A
 8
0
 62
131
 10
0.228456676006317
 20
0.084
 30
2.27923846244812
 70
192
 0
VERTEX
 5
23B
 8
0
 62
131
 10
0.248456671833992
 20
0.094
 30
2.25923848152161
 70
192
 0
VERTEX
 5
23C
 8
0
 62
131
 10
0.166446581482887
 20
0.084
 30
2.17154312133789
 70
192
 0
VERTEX
 5
23D
 8
0
 62
131
 10
0.140761137008667
 20
0.084
 30
2.19722843170166
 70
192
 0
VERTEX
 5
23E
 8
0
 62
131
 10
0.120761156082153
 20
0.094
 30
2.17154312133789
 70
192
 0
VERTEX
 5
23F
 8
0
 62
131
 10
0.760391116142273
 20
0.084
 30
2.27923846244812
 70
192
 0
VERTEX
 5
240
 8
0
 62
131
 10
0.760391116142273
 20
0.084
 30
2.36039066314697
 70
192
 0
VERTEX
 5
241
 8
0
 62
131
 10
0.735390901565552
 20
0.084
 30
2.24509644508362
 70
192
 0
VERTEX
 5
242
 8
0
 62
131
 10
0.721248984336853
 20
0.084
 30
2.25923848152161
 70
192
 0
VERTEX
 5
243
 8
0
 62
131
 10
0.691543102264404
 20
0.084
 30
2.22953295707703
 70
192
 0
VERTEX
 5
244
 8
0
 62
131
 10
0.67923891544342
 20
0.084
 30
2.24183750152588
 70
192
 0
VERTEX
 5
245
 8
0
 62
131
 10
0.659238696098328
 20
0.094
 30
2.23355317115784
 70
192
 0
VERTEX
 5
246
 8
0
 62
131
 10
0.721248984336853
 20
0.094
 30
2.25923848152161
 70
192
 0
VERTEX
 5
247
 8
0
 62
131
 10
0.735390901565552
 20
0.094
 30
2.27923846244812
 70
192
 0
VERTEX
 5
248
 8
0
 62
131
 10
0.735390901565552
 20
0.094
 30
2.24509644508362
 70
192
 0
VERTEX
 5
249
 8
0
 62
131
 10
0.760391116142273
 20
0.094
 30
2.27923846244812
 70
192
 0
VERTEX
 5
24A
 8
0
 62
131
 10
0.0396089106798172
 20
0.084
 30
2.18568515777588
 70
192
 0
VERTEX
 5
24B
 8
0
 62
131
 10
0.0396089106798172
 20
0.094
 30
2.18568515777588
 70
192
 0
VERTEX
 5
24C
 8
0
 62
131
 10
0.0646089166402817
 20
0.084
 30
2.24509644508362
 70
192
 0
VERTEX
 5
24D
 8
0
 62
131
 10
0.67923891544342
 20
0.094
 30
2.25923848152161
 70
192
 0
VERTEX
 5
24E
 8
0
 62
131
 10
0.659238696098328
 20
0.084
 30
2.25923848152161
 70
192
 0
VERTEX
 5
24F
 8
0
 62
131
 10
0.659238696098328
 20
0.084
 30
2.23355317115784
 70
192
 0
VERTEX
 5
250
 8
0
 62
131
 10
0.659238696098328
 20
0.094
 30
2.25923848152161
 70
192
 0
VERTEX
 5
251
 8
0
 62
131
 10
0.735390901565552
 20
0.084
 30
2.27923846244812
 70
192
 0
VERTEX
 5
252
 8
0
 62
131
 10
0.67923891544342
 20
0.094
 30
2.27923846244812
 70
192
 0
VERTEX
 5
253
 8
0
 62
131
 10
0.184608906507492
 20
0.094
 30
2.30568528175354
 70
192
 0
VERTEX
 5
254
 8
0
 62
131
 10
0.120761156082153
 20
0.084
 30
2.36039066314697
 70
192
 0
VERTEX
 5
255
 8
0
 62
131
 10
0.140761137008667
 20
0.084
 30
2.32124876976013
 70
192
 0
VERTEX
 5
256
 8
0
 62
131
 10
0.154903277754784
 20
0.084
 30
2.33539080619812
 70
192
 0
VERTEX
 5
257
 8
0
 62
131
 10
0.120761156082153
 20
0.084
 30
2.33539080619812
 70
192
 0
VERTEX
 5
258
 8
0
 62
131
 10
0.184608906507492
 20
0.084
 30
2.30568528175354
 70
192
 0
VERTEX
 5
259
 8
0
 62
131
 10
0.198751032352448
 20
0.094
 30
2.29154300689697
 70
192
 0
VERTEX
 5
25A
 8
0
 62
131
 10
0.198751032352448
 20
0.084
 30
2.29154300689697
 70
192
 0
VERTEX
 5
25B
 8
0
 62
131
 10
0.228456676006317
 20
0.094
 30
2.32124876976013
 70
192
 0
VERTEX
 5
25C
 8
0
 62
131
 10
0.228456676006317
 20
0.084
 30
2.25923848152161
 70
192
 0
VERTEX
 5
25D
 8
0
 62
131
 10
0.211055502295494
 20
0.084
 30
2.27923846244812
 70
192
 0
VERTEX
 5
25E
 8
0
 62
131
 10
0.202771246433258
 20
0.084
 30
2.25923848152161
 70
192
 0
VERTEX
 5
25F
 8
0
 62
131
 10
0.228456676006317
 20
0.094
 30
2.25923848152161
 70
192
 0
VERTEX
 5
260
 8
0
 62
131
 10
0.0396089106798172
 20
0.094
 30
2.24509644508362
 70
192
 0
VERTEX
 5
261
 8
0
 62
131
 10
0.140761137008667
 20
0.094
 30
2.17154312133789
 70
192
 0
VERTEX
 5
262
 8
0
 62
131
 10
0.120761156082153
 20
0.084
 30
2.17154312133789
 70
192
 0
VERTEX
 5
263
 8
0
 62
131
 10
0.108456686139107
 20
0.084
 30
2.20124864578247
 70
192
 0
VERTEX
 5
264
 8
0
 62
131
 10
0.120761156082153
 20
0.084
 30
2.18894410133362
 70
192
 0
VERTEX
 5
265
 8
0
 62
131
 10
0.140761137008667
 20
0.094
 30
2.19722843170166
 70
192
 0
VERTEX
 5
266
 8
0
 62
131
 10
0.760391116142273
 20
0.094
 30
2.36039066314697
 70
192
 0
VERTEX
 5
267
 8
0
 62
131
 10
0.735390901565552
 20
0.084
 30
2.33539080619812
 70
192
 0
VERTEX
 5
268
 8
0
 62
131
 10
0.735390901565552
 20
0.094
 30
2.33539080619812
 70
192
 0
VERTEX
 5
269
 8
0
 62
131
 10
0.691543102264404
 20
0.094
 30
2.22953295707703
 70
192
 0
VERTEX
 5
26A
 8
0
 62
131
 10
0.67923891544342
 20
0.094
 30
2.24183750152588
 70
192
 0
VERTEX
 5
26B
 8
0
 62
131
 10
0.0396089106798172
 20
0.084
 30
2.24509644508362
 70
192
 0
VERTEX
 5
26C
 8
0
 62
131
 10
0.0646089166402817
 20
0.084
 30
2.27923846244812
 70
192
 0
VERTEX
 5
26D
 8
0
 62
131
 10
0.0396089106798172
 20
0.084
 30
2.27923846244812
 70
192
 0
VERTEX
 5
26E
 8
0
 62
131
 10
0.67923891544342
 20
0.084
 30
2.25923848152161
 70
192
 0
VERTEX
 5
26F
 8
0
 62
131
 10
0.140761137008667
 20
0.094
 30
2.32124876976013
 70
192
 0
VERTEX
 5
270
 8
0
 62
131
 10
0.0396089106798172
 20
0.094
 30
2.36039066314697
 70
192
 0
VERTEX
 5
271
 8
0
 62
131
 10
0.120761156082153
 20
0.094
 30
2.36039066314697
 70
192
 0
VERTEX
 5
272
 8
0
 62
131
 10
0.228456676006317
 20
0.094
 30
2.27923846244812
 70
192
 0
VERTEX
 5
273
 8
0
 62
131
 10
0.140761137008667
 20
0.084
 30
2.27923846244812
 70
192
 0
VERTEX
 5
274
 8
0
 62
131
 10
0.120761156082153
 20
0.094
 30
2.33539080619812
 70
192
 0
VERTEX
 5
275
 8
0
 62
131
 10
0.170466765761375
 20
0.094
 30
2.29154300689697
 70
192
 0
VERTEX
 5
276
 8
0
 62
131
 10
0.154903277754784
 20
0.094
 30
2.33539080619812
 70
192
 0
VERTEX
 5
277
 8
0
 62
131
 10
0.211055502295494
 20
0.094
 30
2.27923846244812
 70
192
 0
VERTEX
 5
278
 8
0
 62
131
 10
0.170466765761375
 20
0.084
 30
2.29154300689697
 70
192
 0
VERTEX
 5
279
 8
0
 62
131
 10
0.184608906507492
 20
0.084
 30
2.27740097045898
 70
192
 0
VERTEX
 5
27A
 8
0
 62
131
 10
0.202771246433258
 20
0.094
 30
2.25923848152161
 70
192
 0
VERTEX
 5
27B
 8
0
 62
131
 10
0.184608906507492
 20
0.094
 30
2.27740097045898
 70
192
 0
VERTEX
 5
27C
 8
0
 62
131
 10
0.0646089166402817
 20
0.094
 30
2.27923846244812
 70
192
 0
VERTEX
 5
27D
 8
0
 62
131
 10
0.0646089166402817
 20
0.094
 30
2.24509644508362
 70
192
 0
VERTEX
 5
27E
 8
0
 62
131
 10
0.122598811984062
 20
0.094
 30
2.21539068222046
 70
192
 0
VERTEX
 5
27F
 8
0
 62
131
 10
0.120761156082153
 20
0.094
 30
2.18894410133362
 70
192
 0
VERTEX
 5
280
 8
0
 62
131
 10
0.122598811984062
 20
0.084
 30
2.21539068222046
 70
192
 0
VERTEX
 5
281
 8
0
 62
131
 10
0.108456686139107
 20
0.094
 30
2.20124864578247
 70
192
 0
VERTEX
 5
282
 8
0
 62
131
 10
0.0646089166402817
 20
0.094
 30
2.18568515777588
 70
192
 0
VERTEX
 5
283
 8
0
 62
131
 10
0.0943145453929902
 20
0.094
 30
2.21539068222046
 70
192
 0
VERTEX
 5
284
 8
0
 62
131
 10
0.0646089166402817
 20
0.094
 30
2.33539080619812
 70
192
 0
VERTEX
 5
285
 8
0
 62
131
 10
0.0396089106798172
 20
0.094
 30
2.27923846244812
 70
192
 0
VERTEX
 5
286
 8
0
 62
131
 10
0.0396089106798172
 20
0.084
 30
2.36039066314697
 70
192
 0
VERTEX
 5
287
 8
0
 62
131
 10
0.120761156082153
 20
0.084
 30
2.27923846244812
 70
192
 0
VERTEX
 5
288
 8
0
 62
131
 10
0.0646089166402817
 20
0.084
 30
2.33539080619812
 70
192
 0
VERTEX
 5
289
 8
0
 62
131
 10
0.166446581482887
 20
0.084
 30
2.25923848152161
 70
192
 0
VERTEX
 5
28A
 8
0
 62
131
 10
0.140761137008667
 20
0.084
 30
2.25923848152161
 70
192
 0
VERTEX
 5
28B
 8
0
 62
131
 10
0.0787510424852371
 20
0.094
 30
2.25923848152161
 70
192
 0
VERTEX
 5
28C
 8
0
 62
131
 10
0.140761137008667
 20
0.084
 30
2.23355317115784
 70
192
 0
VERTEX
 5
28D
 8
0
 62
131
 10
0.0943145453929902
 20
0.084
 30
2.21539068222046
 70
192
 0
VERTEX
 5
28E
 8
0
 62
131
 10
0.108456686139107
 20
0.084
 30
2.22953295707703
 70
192
 0
VERTEX
 5
28F
 8
0
 62
131
 10
0.0787510424852371
 20
0.084
 30
2.25923848152161
 70
192
 0
VERTEX
 5
290
 8
0
 62
131
 10
0.120761156082153
 20
0.094
 30
2.24183750152588
 70
192
 0
VERTEX
 5
291
 8
0
 62
131
 10
0.140761137008667
 20
0.094
 30
2.23355317115784
 70
192
 0
VERTEX
 5
292
 8
0
 62
131
 10
0.158162295818329
 20
0.094
 30
2.27923846244812
 70
192
 0
VERTEX
 5
293
 8
0
 62
131
 10
0.140761137008667
 20
0.094
 30
2.25923848152161
 70
192
 0
VERTEX
 5
294
 8
0
 62
131
 10
0.140761137008667
 20
0.094
 30
2.27923846244812
 70
192
 0
VERTEX
 5
295
 8
0
 62
131
 10
0.120761156082153
 20
0.094
 30
2.27923846244812
 70
192
 0
VERTEX
 5
296
 8
0
 62
131
 10
0.158162295818329
 20
0.084
 30
2.27923846244812
 70
192
 0
VERTEX
 5
297
 8
0
 62
131
 10
0.166446581482887
 20
0.094
 30
2.25923848152161
 70
192
 0
VERTEX
 5
298
 8
0
 62
131
 10
0.120761156082153
 20
0.084
 30
2.24183750152588
 70
192
 0
VERTEX
 5
299
 8
0
 62
131
 10
0.108456686139107
 20
0.094
 30
2.22953295707703
 70
192
 0
VERTEX
 5
29A
 8
0
 62
131
 10
0.120761156082153
 20
0.094
 30
2.25923848152161
 70
192
 0
VERTEX
 5
29B
 8
0
 62
131
 10
0.120761156082153
 20
0.084
 30
2.25923848152161
 70
192
 0
VERTEX
 5
29C
 8
0
 62
131
 10
0.109
 20
0.13
 30
0
 70
192
 0
VERTEX
 5
29D
 8
0
 62
131
 10
0.691
 20
0.13
 30
0.08
 70
192
 0
VERTEX
 5
29E
 8
0
 62
131
 10
0.109
 20
0.13
 30
0.08
 70
192
 0
VERTEX
 5
29F
 8
0
 62
131
 10
0.691
 20
0.115
 30
0.08
 70
192
 0
VERTEX
 5
2A0
 8
0
 62
131
 10
0.691
 20
0.13
 30
0
 70
192
 0
VERTEX
 5
2A1
 8
0
 62
131
 10
0.771
 20
0.13
 30
0
 70
192
 0
VERTEX
 5
2A2
 8
0
 62
131
 10
0.691
 20
0.084
 30
0
 70
192
 0
VERTEX
 5
2A3
 8
0
 62
131
 10
0.109
 20
0.084
 30
0
 70
192
 0
VERTEX
 5
2A4
 8
0
 62
131
 10
0.029
 20
0.13
 30
0.08
 70
192
 0
VERTEX
 5
2A5
 8
0
 62
131
 10
0.109
 20
0.13
 30
0.655333161354065
 70
192
 0
VERTEX
 5
2A6
 8
0
 62
131
 10
0.029
 20
0.13
 30
0.655333161354065
 70
192
 0
VERTEX
 5
2A7
 8
0
 62
131
 10
0.029
 20
0.13
 30
0
 70
192
 0
VERTEX
 5
2A8
 8
0
 62
131
 10
0.109
 20
0.115
 30
0.655333161354065
 70
192
 0
VERTEX
 5
2A9
 8
0
 62
131
 10
0.109
 20
0.115
 30
0.08
 70
192
 0
VERTEX
 5
2AA
 8
0
 62
131
 10
0.691
 20
0.13
 30
0.655333399772644
 70
192
 0
VERTEX
 5
2AB
 8
0
 62
131
 10
0.771
 20
0.13
 30
0.08
 70
192
 0
VERTEX
 5
2AC
 8
0
 62
131
 10
0.771
 20
0.084
 30
0
 70
192
 0
VERTEX
 5
2AD
 8
0
 62
131
 10
0.691
 20
0.084
 30
0.08
 70
192
 0
VERTEX
 5
2AE
 8
0
 62
131
 10
0.029
 20
0.084
 30
0
 70
192
 0
VERTEX
 5
2AF
 8
0
 62
131
 10
0.029
 20
0.084
 30
0.655333161354065
 70
192
 0
VERTEX
 5
2B0
 8
0
 62
131
 10
0.691
 20
0.115
 30
0.655333399772644
 70
192
 0
VERTEX
 5
2B1
 8
0
 62
131
 10
0.771
 20
0.13
 30
0.655333518981934
 70
192
 0
VERTEX
 5
2B2
 8
0
 62
131
 10
0.771
 20
0.084
 30
0.655333518981934
 70
192
 0
VERTEX
 5
2B3
 8
0
 62
131
 10
0.691
 20
0.13
 30
0.735333442687988
 70
192
 0
VERTEX
 5
2B4
 8
0
 62
131
 10
0.771
 20
0.084
 30
0.08
 70
192
 0
VERTEX
 5
2B5
 8
0
 62
131
 10
0.109
 20
0.084
 30
0.08
 70
192
 0
VERTEX
 5
2B6
 8
0
 62
131
 10
0.109
 20
0.084
 30
0.655333161354065
 70
192
 0
VERTEX
 5
2B7
 8
0
 62
131
 10
0.029
 20
0.084
 30
0.08
 70
192
 0
VERTEX
 5
2B8
 8
0
 62
131
 10
0.029
 20
0.13
 30
0.73533308506012
 70
192
 0
VERTEX
 5
2B9
 8
0
 62
131
 10
0.029
 20
0.13
 30
1.31066656112671
 70
192
 0
VERTEX
 5
2BA
 8
0
 62
131
 10
0.771
 20
0.13
 30
0.735333442687988
 70
192
 0
VERTEX
 5
2BB
 8
0
 62
131
 10
0.691
 20
0.084
 30
0.655333399772644
 70
192
 0
VERTEX
 5
2BC
 8
0
 62
131
 10
0.771
 20
0.13
 30
1.31066679954529
 70
192
 0
VERTEX
 5
2BD
 8
0
 62
131
 10
0.691
 20
0.13
 30
1.31066679954529
 70
192
 0
VERTEX
 5
2BE
 8
0
 62
131
 10
0.691
 20
0.099
 30
0.655333399772644
 70
192
 0
VERTEX
 5
2BF
 8
0
 62
131
 10
0.109
 20
0.099
 30
0.655333161354065
 70
192
 0
VERTEX
 5
2C0
 8
0
 62
131
 10
0.109
 20
0.099
 30
0.08
 70
192
 0
VERTEX
 5
2C1
 8
0
 62
131
 10
0.691
 20
0.099
 30
0.08
 70
192
 0
VERTEX
 5
2C2
 8
0
 62
131
 10
0.109
 20
0.084
 30
0.735333204269409
 70
192
 0
VERTEX
 5
2C3
 8
0
 62
131
 10
0.029
 20
0.084
 30
0.73533308506012
 70
192
 0
VERTEX
 5
2C4
 8
0
 62
131
 10
0.109
 20
0.13
 30
0.735333204269409
 70
192
 0
VERTEX
 5
2C5
 8
0
 62
131
 10
0.109
 20
0.13
 30
1.31066656112671
 70
192
 0
VERTEX
 5
2C6
 8
0
 62
131
 10
0.109
 20
0.13
 30
1.39066660404205
 70
192
 0
VERTEX
 5
2C7
 8
0
 62
131
 10
0.691
 20
0.115
 30
0.735333442687988
 70
192
 0
VERTEX
 5
2C8
 8
0
 62
131
 10
0.771
 20
0.13
 30
1.39066696166992
 70
192
 0
VERTEX
 5
2C9
 8
0
 62
131
 10
0.109
 20
0.084
 30
1.31066656112671
 70
192
 0
VERTEX
 5
2CA
 8
0
 62
131
 10
0.029
 20
0.084
 30
1.31066656112671
 70
192
 0
VERTEX
 5
2CB
 8
0
 62
131
 10
0.029
 20
0.13
 30
1.39066660404205
 70
192
 0
VERTEX
 5
2CC
 8
0
 62
131
 10
0.109
 20
0.115
 30
0.735333204269409
 70
192
 0
VERTEX
 5
2CD
 8
0
 62
131
 10
0.691
 20
0.115
 30
1.31066679954529
 70
192
 0
VERTEX
 5
2CE
 8
0
 62
131
 10
0.109
 20
0.115
 30
1.31066656112671
 70
192
 0
VERTEX
 5
2CF
 8
0
 62
131
 10
0.771
 20
0.084
 30
1.39066696166992
 70
192
 0
VERTEX
 5
2D0
 8
0
 62
131
 10
0.771
 20
0.084
 30
0.735333442687988
 70
192
 0
VERTEX
 5
2D1
 8
0
 62
131
 10
0.691
 20
0.084
 30
0.735333442687988
 70
192
 0
VERTEX
 5
2D2
 8
0
 62
131
 10
0.109
 20
0.099
 30
0.735333204269409
 70
192
 0
VERTEX
 5
2D3
 8
0
 62
131
 10
0.109
 20
0.099
 30
1.31066656112671
 70
192
 0
VERTEX
 5
2D4
 8
0
 62
131
 10
0.029
 20
0.084
 30
1.39066660404205
 70
192
 0
VERTEX
 5
2D5
 8
0
 62
131
 10
0.029
 20
0.084
 30
1.966
 70
192
 0
VERTEX
 5
2D6
 8
0
 62
131
 10
0.691
 20
0.13
 30
1.39066696166992
 70
192
 0
VERTEX
 5
2D7
 8
0
 62
131
 10
0.109
 20
0.115
 30
1.39066660404205
 70
192
 0
VERTEX
 5
2D8
 8
0
 62
131
 10
0.109
 20
0.115
 30
1.966
 70
192
 0
VERTEX
 5
2D9
 8
0
 62
131
 10
0.029
 20
0.13
 30
1.966
 70
192
 0
VERTEX
 5
2DA
 8
0
 62
131
 10
0.029
 20
0.13
 30
2.046
 70
192
 0
VERTEX
 5
2DB
 8
0
 62
131
 10
0.771
 20
0.084
 30
1.31066679954529
 70
192
 0
VERTEX
 5
2DC
 8
0
 62
131
 10
0.691
 20
0.084
 30
1.31066679954529
 70
192
 0
VERTEX
 5
2DD
 8
0
 62
131
 10
0.691
 20
0.13
 30
1.966
 70
192
 0
VERTEX
 5
2DE
 8
0
 62
131
 10
0.691
 20
0.115
 30
1.39066696166992
 70
192
 0
VERTEX
 5
2DF
 8
0
 62
131
 10
0.771
 20
0.13
 30
1.966
 70
192
 0
VERTEX
 5
2E0
 8
0
 62
131
 10
0.691
 20
0.099
 30
0.735333442687988
 70
192
 0
VERTEX
 5
2E1
 8
0
 62
131
 10
0.691
 20
0.099
 30
1.31066679954529
 70
192
 0
VERTEX
 5
2E2
 8
0
 62
131
 10
0.109
 20
0.084
 30
1.39066660404205
 70
192
 0
VERTEX
 5
2E3
 8
0
 62
131
 10
0.029
 20
0.084
 30
2.046
 70
192
 0
VERTEX
 5
2E4
 8
0
 62
131
 10
0.691
 20
0.115
 30
1.966
 70
192
 0
VERTEX
 5
2E5
 8
0
 62
131
 10
0.109
 20
0.13
 30
1.966
 70
192
 0
VERTEX
 5
2E6
 8
0
 62
131
 10
0.109
 20
0.13
 30
2.046
 70
192
 0
VERTEX
 5
2E7
 8
0
 62
131
 10
0.771
 20
0.13
 30
2.046
 70
192
 0
VERTEX
 5
2E8
 8
0
 62
131
 10
0.771
 20
0.084
 30
2.046
 70
192
 0
VERTEX
 5
2E9
 8
0
 62
131
 10
0.771
 20
0.084
 30
1.966
 70
192
 0
VERTEX
 5
2EA
 8
0
 62
131
 10
0.691
 20
0.084
 30
1.966
 70
192
 0
VERTEX
 5
2EB
 8
0
 62
131
 10
0.691
 20
0.13
 30
2.046
 70
192
 0
VERTEX
 5
2EC
 8
0
 62
131
 10
0.691
 20
0.099
 30
1.39066696166992
 70
192
 0
VERTEX
 5
2ED
 8
0
 62
131
 10
0.109
 20
0.099
 30
1.39066660404205
 70
192
 0
VERTEX
 5
2EE
 8
0
 62
131
 10
0.109
 20
0.084
 30
1.966
 70
192
 0
VERTEX
 5
2EF
 8
0
 62
131
 10
0.691
 20
0.084
 30
2.046
 70
192
 0
VERTEX
 5
2F0
 8
0
 62
131
 10
0.691
 20
0.084
 30
1.39066696166992
 70
192
 0
VERTEX
 5
2F1
 8
0
 62
131
 10
0.109
 20
0.099
 30
1.966
 70
192
 0
VERTEX
 5
2F2
 8
0
 62
131
 10
0.691
 20
0.099
 30
1.966
 70
192
 0
VERTEX
 5
2F3
 8
0
 62
131
 10
0.109
 20
0.084
 30
2.046
 70
192
 0
VERTEX
 5
2F4
 8
0
 62
131
 10
0.025
 20
0.08
 30
0
 70
192
 0
VERTEX
 5
2F5
 8
0
 62
131
 10
0
 20
0.03
 30
0
 70
192
 0
VERTEX
 5
2F6
 8
0
 62
131
 10
0.025
 20
0.13
 30
0
 70
192
 0
VERTEX
 5
2F7
 8
0
 62
131
 10
0.04
 20
0.08
 30
0
 70
192
 0
VERTEX
 5
2F8
 8
0
 62
131
 10
0
 20
0.03
 30
2.05
 70
192
 0
VERTEX
 5
2F9
 8
0
 62
131
 10
0
 20
0.13
 30
0
 70
192
 0
VERTEX
 5
2FA
 8
0
 62
131
 10
0
 20
0.13
 30
2.05
 70
192
 0
VERTEX
 5
2FB
 8
0
 62
131
 10
0.025
 20
0.13
 30
2.05
 70
192
 0
VERTEX
 5
2FC
 8
0
 62
131
 10
0.775
 20
0.13
 30
2.05
 70
192
 0
VERTEX
 5
2FD
 8
0
 62
131
 10
0.775
 20
0.08
 30
2.05
 70
192
 0
VERTEX
 5
2FE
 8
0
 62
131
 10
0.025
 20
0.08
 30
2.05
 70
192
 0
VERTEX
 5
2FF
 8
0
 62
131
 10
0.04
 20
0.03
 30
0
 70
192
 0
VERTEX
 5
300
 8
0
 62
131
 10
0.04
 20
0.08
 30
2.035
 70
192
 0
VERTEX
 5
301
 8
0
 62
131
 10
0
 20
0.13
 30
2.075
 70
192
 0
VERTEX
 5
302
 8
0
 62
131
 10
0.04
 20
0.13
 30
2.075
 70
192
 0
VERTEX
 5
303
 8
0
 62
131
 10
0.76
 20
0.08
 30
2.035
 70
192
 0
VERTEX
 5
304
 8
0
 62
131
 10
0.04
 20
0.03
 30
2.035
 70
192
 0
VERTEX
 5
305
 8
0
 62
131
 10
0
 20
0.03
 30
2.075
 70
192
 0
VERTEX
 5
306
 8
0
 62
131
 10
0.04
 20
0.03
 30
2.075
 70
192
 0
VERTEX
 5
307
 8
0
 62
131
 10
0.8
 20
0.13
 30
2.075
 70
192
 0
VERTEX
 5
308
 8
0
 62
131
 10
0.775
 20
0.08
 30
0
 70
192
 0
VERTEX
 5
309
 8
0
 62
131
 10
0.775
 20
0.13
 30
0
 70
192
 0
VERTEX
 5
30A
 8
0
 62
131
 10
0.76
 20
0.03
 30
2.075
 70
192
 0
VERTEX
 5
30B
 8
0
 62
131
 10
0.76
 20
0.03
 30
2.035
 70
192
 0
VERTEX
 5
30C
 8
0
 62
131
 10
0.76
 20
0.08
 30
0
 70
192
 0
VERTEX
 5
30D
 8
0
 62
131
 10
0
 20
0.13
 30
2.4
 70
192
 0
VERTEX
 5
30E
 8
0
 62
131
 10
0
 20
0.03
 30
2.4
 70
192
 0
VERTEX
 5
30F
 8
0
 62
131
 10
0.8
 20
0.03
 30
2.4
 70
192
 0
VERTEX
 5
310
 8
0
 62
131
 10
0.76
 20
0.13
 30
2.075
 70
192
 0
VERTEX
 5
311
 8
0
 62
131
 10
0.8
 20
0.13
 30
2.05
 70
192
 0
VERTEX
 5
312
 8
0
 62
131
 10
0.8
 20
0.13
 30
0
 70
192
 0
VERTEX
 5
313
 8
0
 62
131
 10
0.8
 20
0.03
 30
2.05
 70
192
 0
VERTEX
 5
314
 8
0
 62
131
 10
0.8
 20
0.03
 30
2.075
 70
192
 0
VERTEX
 5
315
 8
0
 62
131
 10
0.8
 20
0.03
 30
0
 70
192
 0
VERTEX
 5
316
 8
0
 62
131
 10
0.76
 20
0.03
 30
0
 70
192
 0
VERTEX
 5
317
 8
0
 62
131
 10
0.04
 20
0.03
 30
2.36
 70
192
 0
VERTEX
 5
318
 8
0
 62
131
 10
0.04
 20
0.13
 30
2.36
 70
192
 0
VERTEX
 5
319
 8
0
 62
131
 10
0.76
 20
0.13
 30
2.36
 70
192
 0
VERTEX
 5
31A
 8
0
 62
131
 10
0.76
 20
0.03
 30
2.36
 70
192
 0
VERTEX
 5
31B
 8
0
 62
131
 10
0.8
 20
0.13
 30
2.4
 70
192
 0
VERTEX
 5
31C
 8
0
 62
131
 10
0
 20
0.08
 30
0
 70
128
 71
3
 72
1
 73
9
 74
2
 0
VERTEX
 5
31D
 8
0
 62
131
 10
0
 20
0.08
 30
0
 70
128
 71
1
 72
3
 73
15
 74
6
 0
VERTEX
 5
31E
 8
0
 62
131
 10
0
 20
0.08
 30
0
 70
128
 71
9
 72
1
 73
17
 74
24
 0
VERTEX
 5
31F
 8
0
 62
131
 10
0
 20
0.08
 30
0
 70
128
 71
2
 72
9
 73
5
 74
14
 0
VERTEX
 5
320
 8
0
 62
131
 10
0
 20
0.08
 30
0
 70
128
 71
2
 72
12
 73
4
 74
3
 0
VERTEX
 5
321
 8
0
 62
131
 10
0
 20
0.08
 30
0
 70
128
 71
3
 72
4
 73
13
 74
15
 0
VERTEX
 5
322
 8
0
 62
131
 10
0
 20
0.08
 30
0
 70
128
 71
6
 72
15
 73
14
 74
5
 0
VERTEX
 5
323
 8
0
 62
131
 10
0
 20
0.08
 30
0
 70
128
 71
10
 72
1
 73
6
 74
7
 0
VERTEX
 5
324
 8
0
 62
131
 10
0
 20
0.08
 30
0
 70
128
 71
37
 72
41
 73
24
 74
17
 0
VERTEX
 5
325
 8
0
 62
131
 10
0
 20
0.08
 30
0
 70
128
 71
24
 72
23
 73
8
 0
VERTEX
 5
326
 8
0
 62
131
 10
0
 20
0.08
 30
0
 70
128
 71
8
 72
21
 73
20
 0
VERTEX
 5
327
 8
0
 62
131
 10
0
 20
0.08
 30
0
 70
128
 71
20
 72
9
 73
24
 0
VERTEX
 5
328
 8
0
 62
131
 10
0
 20
0.08
 30
0
 70
128
 71
8
 72
20
 73
24
 0
VERTEX
 5
329
 8
0
 62
131
 10
0
 20
0.08
 30
0
 70
128
 71
1
 72
10
 73
26
 74
17
 0
VERTEX
 5
32A
 8
0
 62
131
 10
0
 20
0.08
 30
0
 70
128
 71
20
 72
22
 73
5
 74
9
 0
VERTEX
 5
32B
 8
0
 62
131
 10
0
 20
0.08
 30
0
 70
128
 71
12
 72
2
 73
14
 74
11
 0
VERTEX
 5
32C
 8
0
 62
131
 10
0
 20
0.08
 30
0
 70
128
 71
12
 72
46
 73
28
 74
4
 0
VERTEX
 5
32D
 8
0
 62
131
 10
0
 20
0.08
 30
0
 70
128
 71
4
 72
29
 73
32
 74
13
 0
VERTEX
 5
32E
 8
0
 62
131
 10
0
 20
0.08
 30
0
 70
128
 71
11
 72
14
 73
15
 74
13
 0
VERTEX
 5
32F
 8
0
 62
131
 10
0
 20
0.08
 30
0
 70
128
 71
35
 72
34
 73
6
 74
5
 0
VERTEX
 5
330
 8
0
 62
131
 10
0
 20
0.08
 30
0
 70
128
 71
34
 72
36
 73
7
 74
6
 0
VERTEX
 5
331
 8
0
 62
131
 10
0
 20
0.08
 30
0
 70
128
 71
25
 72
10
 73
7
 74
53
 0
VERTEX
 5
332
 8
0
 62
131
 10
0
 20
0.08
 30
0
 70
128
 71
37
 72
16
 73
41
 0
VERTEX
 5
333
 8
0
 62
131
 10
0
 20
0.08
 30
0
 70
128
 71
24
 72
41
 73
39
 74
35
 0
VERTEX
 5
334
 8
0
 62
131
 10
0
 20
0.08
 30
0
 70
128
 71
37
 72
17
 73
34
 74
38
 0
VERTEX
 5
335
 8
0
 62
131
 10
0
 20
0.08
 30
0
 70
128
 71
23
 72
27
 73
44
 74
8
 0
VERTEX
 5
336
 8
0
 62
131
 10
0
 20
0.08
 30
0
 70
128
 71
21
 72
8
 73
18
 74
19
 0
VERTEX
 5
337
 8
0
 62
131
 10
0
 20
0.08
 30
0
 70
128
 71
20
 72
21
 73
42
 74
22
 0
VERTEX
 5
338
 8
0
 62
131
 10
0
 20
0.08
 30
0
 70
128
 71
27
 72
23
 73
24
 74
35
 0
VERTEX
 5
339
 8
0
 62
131
 10
0
 20
0.08
 30
0
 70
128
 71
17
 72
26
 73
36
 74
34
 0
VERTEX
 5
33A
 8
0
 62
131
 10
0
 20
0.08
 30
0
 70
128
 71
10
 72
25
 73
45
 74
26
 0
VERTEX
 5
33B
 8
0
 62
131
 10
0
 20
0.08
 30
0
 70
128
 71
5
 72
22
 73
27
 74
35
 0
VERTEX
 5
33C
 8
0
 62
131
 10
0
 20
0.08
 30
0
 70
128
 71
42
 72
21
 73
12
 74
11
 0
VERTEX
 5
33D
 8
0
 62
131
 10
0
 20
0.08
 30
0
 70
128
 71
12
 72
21
 73
19
 74
46
 0
VERTEX
 5
33E
 8
0
 62
131
 10
0
 20
0.08
 30
0
 70
128
 71
46
 72
75
 73
47
 74
28
 0
VERTEX
 5
33F
 8
0
 62
131
 10
0
 20
0.08
 30
0
 70
128
 71
4
 72
28
 73
49
 74
29
 0
VERTEX
 5
340
 8
0
 62
131
 10
0
 20
0.08
 30
0
 70
128
 71
30
 72
11
 73
13
 74
48
 0
VERTEX
 5
341
 8
0
 62
131
 10
0
 20
0.08
 30
0
 70
128
 71
29
 72
31
 73
51
 74
32
 0
VERTEX
 5
342
 8
0
 62
131
 10
0
 20
0.08
 30
0
 70
128
 71
48
 72
13
 73
32
 74
33
 0
VERTEX
 5
343
 8
0
 62
131
 10
0
 20
0.08
 30
0
 70
128
 71
39
 72
38
 73
34
 74
35
 0
VERTEX
 5
344
 8
0
 62
131
 10
0
 20
0.08
 30
0
 70
128
 71
53
 72
7
 73
36
 74
54
 0
VERTEX
 5
345
 8
0
 62
131
 10
0
 20
0.08
 30
0
 70
128
 71
57
 72
25
 73
53
 74
59
 0
VERTEX
 5
346
 8
0
 62
131
 10
0
 20
0.08
 30
0
 70
128
 71
45
 72
37
 73
38
 74
54
 0
VERTEX
 5
347
 8
0
 62
131
 10
0
 20
0.08
 30
0
 70
128
 71
40
 72
38
 73
39
 0
VERTEX
 5
348
 8
0
 62
131
 10
0
 20
0.08
 30
0
 70
128
 71
41
 72
62
 73
98
 74
39
 0
VERTEX
 5
349
 8
0
 62
131
 10
0
 20
0.08
 30
0
 70
128
 71
88
 72
16
 73
37
 74
45
 0
VERTEX
 5
34A
 8
0
 62
131
 10
0
 20
0.08
 30
0
 70
128
 71
41
 72
16
 73
65
 74
63
 0
VERTEX
 5
34B
 8
0
 62
131
 10
0
 20
0.08
 30
0
 70
128
 71
44
 72
27
 73
22
 74
42
 0
VERTEX
 5
34C
 8
0
 62
131
 10
0
 20
0.08
 30
0
 70
128
 71
43
 72
66
 73
8
 74
44
 0
VERTEX
 5
34D
 8
0
 62
131
 10
0
 20
0.08
 30
0
 70
128
 71
101
 72
106
 73
69
 0
VERTEX
 5
34E
 8
0
 62
131
 10
0
 20
0.08
 30
0
 70
128
 71
69
 72
18
 73
8
 0
VERTEX
 5
34F
 8
0
 62
131
 10
0
 20
0.08
 30
0
 70
128
 71
8
 72
66
 73
101
 0
VERTEX
 5
350
 8
0
 62
131
 10
0
 20
0.08
 30
0
 70
128
 71
69
 72
8
 73
101
 0
VERTEX
 5
351
 8
0
 62
131
 10
0
 20
0.08
 30
0
 70
128
 71
19
 72
18
 73
71
 74
76
 0
VERTEX
 5
352
 8
0
 62
131
 10
0
 20
0.08
 30
0
 70
128
 71
26
 72
45
 73
54
 74
36
 0
VERTEX
 5
353
 8
0
 62
131
 10
0
 20
0.08
 30
0
 70
128
 71
25
 72
112
 73
88
 74
45
 0
VERTEX
 5
354
 8
0
 62
131
 10
0
 20
0.08
 30
0
 70
128
 71
72
 72
42
 73
11
 74
30
 0
VERTEX
 5
355
 8
0
 62
131
 10
0
 20
0.08
 30
0
 70
128
 71
77
 72
75
 73
46
 74
30
 0
VERTEX
 5
356
 8
0
 62
131
 10
0
 20
0.08
 30
0
 70
128
 71
19
 72
72
 73
30
 74
46
 0
VERTEX
 5
357
 8
0
 62
131
 10
0
 20
0.08
 30
0
 70
128
 71
47
 72
75
 73
115
 74
80
 0
VERTEX
 5
358
 8
0
 62
131
 10
0
 20
0.08
 30
0
 70
128
 71
28
 72
47
 73
50
 74
48
 0
VERTEX
 5
359
 8
0
 62
131
 10
0
 20
0.08
 30
0
 70
128
 71
49
 72
28
 73
48
 74
33
 0
VERTEX
 5
35A
 8
0
 62
131
 10
0
 20
0.08
 30
0
 70
128
 71
49
 72
81
 73
31
 74
29
 0
VERTEX
 5
35B
 8
0
 62
131
 10
0
 20
0.08
 30
0
 70
128
 71
48
 72
50
 73
77
 74
30
 0
VERTEX
 5
35C
 8
0
 62
131
 10
0
 20
0.08
 30
0
 70
128
 71
31
 72
124
 73
128
 74
51
 0
VERTEX
 5
35D
 8
0
 62
131
 10
0
 20
0.08
 30
0
 70
128
 71
52
 72
33
 73
32
 74
51
 0
VERTEX
 5
35E
 8
0
 62
131
 10
0
 20
0.08
 30
0
 70
128
 71
58
 72
53
 73
54
 74
55
 0
VERTEX
 5
35F
 8
0
 62
131
 10
0
 20
0.08
 30
0
 70
128
 71
56
 72
112
 73
25
 74
57
 0
VERTEX
 5
360
 8
0
 62
131
 10
0
 20
0.08
 30
0
 70
128
 71
58
 72
82
 73
59
 74
53
 0
VERTEX
 5
361
 8
0
 62
131
 10
0
 20
0.08
 30
0
 70
128
 71
83
 72
57
 73
59
 74
86
 0
VERTEX
 5
362
 8
0
 62
131
 10
0
 20
0.08
 30
0
 70
128
 71
40
 72
55
 73
54
 74
38
 0
VERTEX
 5
363
 8
0
 62
131
 10
0
 20
0.08
 30
0
 70
128
 71
16
 72
88
 73
55
 74
40
 0
VERTEX
 5
364
 8
0
 62
131
 10
0
 20
0.08
 30
0
 70
128
 71
91
 72
16
 73
40
 74
89
 0
VERTEX
 5
365
 8
0
 62
131
 10
0
 20
0.08
 30
0
 70
128
 71
40
 72
39
 73
60
 74
61
 0
VERTEX
 5
366
 8
0
 62
131
 10
0
 20
0.08
 30
0
 70
128
 71
95
 72
62
 73
41
 0
VERTEX
 5
367
 8
0
 62
131
 10
0
 20
0.08
 30
0
 70
128
 71
41
 72
63
 73
93
 0
VERTEX
 5
368
 8
0
 62
131
 10
0
 20
0.08
 30
0
 70
128
 71
64
 72
95
 73
41
 0
VERTEX
 5
369
 8
0
 62
131
 10
0
 20
0.08
 30
0
 70
128
 71
41
 72
93
 73
64
 0
VERTEX
 5
36A
 8
0
 62
131
 10
0
 20
0.08
 30
0
 70
128
 71
62
 72
101
 73
144
 74
98
 0
VERTEX
 5
36B
 8
0
 62
131
 10
0
 20
0.08
 30
0
 70
128
 71
99
 72
94
 73
92
 0
VERTEX
 5
36C
 8
0
 62
131
 10
0
 20
0.08
 30
0
 70
128
 71
92
 72
60
 73
39
 0
VERTEX
 5
36D
 8
0
 62
131
 10
0
 20
0.08
 30
0
 70
128
 71
39
 72
98
 73
99
 0
VERTEX
 5
36E
 8
0
 62
131
 10
0
 20
0.08
 30
0
 70
128
 71
92
 72
39
 73
99
 0
VERTEX
 5
36F
 8
0
 62
131
 10
0
 20
0.08
 30
0
 70
128
 71
16
 72
91
 73
105
 74
65
 0
VERTEX
 5
370
 8
0
 62
131
 10
0
 20
0.08
 30
0
 70
128
 71
63
 72
65
 73
61
 74
60
 0
VERTEX
 5
371
 8
0
 62
131
 10
0
 20
0.08
 30
0
 70
128
 71
42
 72
72
 73
67
 74
44
 0
VERTEX
 5
372
 8
0
 62
131
 10
0
 20
0.08
 30
0
 70
128
 71
66
 72
43
 73
144
 74
101
 0
VERTEX
 5
373
 8
0
 62
131
 10
0
 20
0.08
 30
0
 70
128
 71
67
 72
68
 73
43
 74
44
 0
VERTEX
 5
374
 8
0
 62
131
 10
0
 20
0.08
 30
0
 70
128
 71
68
 72
69
 73
106
 74
149
 0
VERTEX
 5
375
 8
0
 62
131
 10
0
 20
0.08
 30
0
 70
128
 71
69
 72
68
 73
67
 74
18
 0
VERTEX
 5
376
 8
0
 62
131
 10
0
 20
0.08
 30
0
 70
128
 71
101
 72
102
 73
70
 74
106
 0
VERTEX
 5
377
 8
0
 62
131
 10
0
 20
0.08
 30
0
 70
128
 71
71
 72
18
 73
67
 74
74
 0
VERTEX
 5
378
 8
0
 62
131
 10
0
 20
0.08
 30
0
 70
128
 71
76
 72
71
 73
156
 74
158
 0
VERTEX
 5
379
 8
0
 62
131
 10
0
 20
0.08
 30
0
 70
128
 71
72
 72
19
 73
76
 74
73
 0
VERTEX
 5
37A
 8
0
 62
131
 10
0
 20
0.08
 30
0
 70
128
 71
74
 72
67
 73
72
 74
73
 0
VERTEX
 5
37B
 8
0
 62
131
 10
0
 20
0.08
 30
0
 70
128
 71
112
 72
137
 73
91
 74
88
 0
VERTEX
 5
37C
 8
0
 62
131
 10
0
 20
0.08
 30
0
 70
128
 71
75
 72
77
 73
73
 74
76
 0
VERTEX
 5
37D
 8
0
 62
131
 10
0
 20
0.08
 30
0
 70
128
 71
158
 72
115
 73
75
 74
76
 0
VERTEX
 5
37E
 8
0
 62
131
 10
0
 20
0.08
 30
0
 70
128
 71
115
 72
117
 73
161
 74
80
 0
VERTEX
 5
37F
 8
0
 62
131
 10
0
 20
0.08
 30
0
 70
128
 71
165
 72
81
 73
78
 0
VERTEX
 5
380
 8
0
 62
131
 10
0
 20
0.08
 30
0
 70
128
 71
78
 72
47
 73
80
 0
VERTEX
 5
381
 8
0
 62
131
 10
0
 20
0.08
 30
0
 70
128
 71
80
 72
79
 73
165
 0
VERTEX
 5
382
 8
0
 62
131
 10
0
 20
0.08
 30
0
 70
128
 71
78
 72
80
 73
165
 0
VERTEX
 5
383
 8
0
 62
131
 10
0
 20
0.08
 30
0
 70
128
 71
78
 72
120
 73
50
 74
47
 0
VERTEX
 5
384
 8
0
 62
131
 10
0
 20
0.08
 30
0
 70
128
 71
50
 72
118
 73
114
 74
77
 0
VERTEX
 5
385
 8
0
 62
131
 10
0
 20
0.08
 30
0
 70
128
 71
81
 72
49
 73
33
 74
52
 0
VERTEX
 5
386
 8
0
 62
131
 10
0
 20
0.08
 30
0
 70
128
 71
31
 72
81
 73
165
 74
123
 0
VERTEX
 5
387
 8
0
 62
131
 10
0
 20
0.08
 30
0
 70
128
 71
31
 72
123
 73
125
 74
124
 0
VERTEX
 5
388
 8
0
 62
131
 10
0
 20
0.08
 30
0
 70
128
 71
124
 72
131
 73
174
 74
128
 0
VERTEX
 5
389
 8
0
 62
131
 10
0
 20
0.08
 30
0
 70
128
 71
166
 72
51
 73
128
 74
127
 0
VERTEX
 5
38A
 8
0
 62
131
 10
0
 20
0.08
 30
0
 70
128
 71
52
 72
51
 73
166
 74
122
 0
VERTEX
 5
38B
 8
0
 62
131
 10
0
 20
0.08
 30
0
 70
128
 71
113
 72
58
 73
55
 74
89
 0
VERTEX
 5
38C
 8
0
 62
131
 10
0
 20
0.08
 30
0
 70
128
 71
112
 72
56
 73
82
 74
58
 0
VERTEX
 5
38D
 8
0
 62
131
 10
0
 20
0.08
 30
0
 70
128
 71
57
 72
83
 73
159
 74
56
 0
VERTEX
 5
38E
 8
0
 62
131
 10
0
 20
0.08
 30
0
 70
128
 71
86
 72
59
 73
82
 74
84
 0
VERTEX
 5
38F
 8
0
 62
131
 10
0
 20
0.08
 30
0
 70
128
 71
85
 72
83
 73
86
 74
87
 0
VERTEX
 5
390
 8
0
 62
131
 10
0
 20
0.08
 30
0
 70
128
 71
88
 72
91
 73
89
 74
55
 0
VERTEX
 5
391
 8
0
 62
131
 10
0
 20
0.08
 30
0
 70
128
 71
89
 72
40
 73
61
 74
90
 0
VERTEX
 5
392
 8
0
 62
131
 10
0
 20
0.08
 30
0
 70
128
 71
60
 72
92
 73
93
 74
63
 0
VERTEX
 5
393
 8
0
 62
131
 10
0
 20
0.08
 30
0
 70
128
 71
64
 72
93
 73
92
 74
94
 0
VERTEX
 5
394
 8
0
 62
131
 10
0
 20
0.08
 30
0
 70
128
 71
95
 72
64
 73
94
 74
99
 0
VERTEX
 5
395
 8
0
 62
131
 10
0
 20
0.08
 30
0
 70
128
 71
96
 72
62
 73
95
 74
139
 0
VERTEX
 5
396
 8
0
 62
131
 10
0
 20
0.08
 30
0
 70
128
 71
96
 72
103
 73
62
 0
VERTEX
 5
397
 8
0
 62
131
 10
0
 20
0.08
 30
0
 70
128
 71
96
 72
184
 73
193
 74
97
 0
VERTEX
 5
398
 8
0
 62
131
 10
0
 20
0.08
 30
0
 70
128
 71
189
 72
96
 73
97
 74
140
 0
VERTEX
 5
399
 8
0
 62
131
 10
0
 20
0.08
 30
0
 70
128
 71
98
 72
97
 73
138
 74
99
 0
VERTEX
 5
39A
 8
0
 62
131
 10
0
 20
0.08
 30
0
 70
128
 71
100
 72
97
 73
98
 0
VERTEX
 5
39B
 8
0
 62
131
 10
0
 20
0.08
 30
0
 70
128
 71
62
 72
103
 73
102
 74
101
 0
VERTEX
 5
39C
 8
0
 62
131
 10
0
 20
0.08
 30
0
 70
128
 71
100
 72
98
 73
144
 74
143
 0
VERTEX
 5
39D
 8
0
 62
131
 10
0
 20
0.08
 30
0
 70
128
 71
103
 72
145
 73
188
 74
100
 0
VERTEX
 5
39E
 8
0
 62
131
 10
0
 20
0.08
 30
0
 70
128
 71
102
 72
103
 73
100
 74
143
 0
VERTEX
 5
39F
 8
0
 62
131
 10
0
 20
0.08
 30
0
 70
128
 71
91
 72
104
 73
148
 74
105
 0
VERTEX
 5
3A0
 8
0
 62
131
 10
0
 20
0.08
 30
0
 70
128
 71
65
 72
105
 73
90
 74
61
 0
VERTEX
 5
3A1
 8
0
 62
131
 10
0
 20
0.08
 30
0
 70
128
 71
144
 72
43
 73
68
 74
149
 0
VERTEX
 5
3A2
 8
0
 62
131
 10
0
 20
0.08
 30
0
 70
128
 71
106
 72
107
 73
108
 74
149
 0
VERTEX
 5
3A3
 8
0
 62
131
 10
0
 20
0.08
 30
0
 70
128
 71
102
 72
152
 73
151
 74
70
 0
VERTEX
 5
3A4
 8
0
 62
131
 10
0
 20
0.08
 30
0
 70
128
 71
70
 72
155
 73
107
 74
106
 0
VERTEX
 5
3A5
 8
0
 62
131
 10
0
 20
0.08
 30
0
 70
128
 71
107
 72
71
 73
74
 74
108
 0
VERTEX
 5
3A6
 8
0
 62
131
 10
0
 20
0.08
 30
0
 70
128
 71
71
 72
107
 73
155
 74
156
 0
VERTEX
 5
3A7
 8
0
 62
131
 10
0
 20
0.08
 30
0
 70
128
 71
158
 72
156
 73
109
 74
199
 0
VERTEX
 5
3A8
 8
0
 62
131
 10
0
 20
0.08
 30
0
 70
128
 71
74
 72
73
 73
110
 74
111
 0
VERTEX
 5
3A9
 8
0
 62
131
 10
0
 20
0.08
 30
0
 70
128
 71
137
 72
112
 73
58
 74
113
 0
VERTEX
 5
3AA
 8
0
 62
131
 10
0
 20
0.08
 30
0
 70
128
 71
91
 72
137
 73
104
 0
VERTEX
 5
3AB
 8
0
 62
131
 10
0
 20
0.08
 30
0
 70
128
 71
77
 72
114
 73
110
 74
73
 0
VERTEX
 5
3AC
 8
0
 62
131
 10
0
 20
0.08
 30
0
 70
128
 71
110
 72
114
 73
115
 74
158
 0
VERTEX
 5
3AD
 8
0
 62
131
 10
0
 20
0.08
 30
0
 70
128
 71
164
 72
117
 73
115
 74
114
 0
VERTEX
 5
3AE
 8
0
 62
131
 10
0
 20
0.08
 30
0
 70
128
 71
202
 72
161
 73
117
 74
116
 0
VERTEX
 5
3AF
 8
0
 62
131
 10
0
 20
0.08
 30
0
 70
128
 71
161
 72
119
 73
118
 74
80
 0
VERTEX
 5
3B0
 8
0
 62
131
 10
0
 20
0.08
 30
0
 70
128
 71
118
 72
119
 73
164
 74
114
 0
VERTEX
 5
3B1
 8
0
 62
131
 10
0
 20
0.08
 30
0
 70
128
 71
79
 72
80
 73
118
 74
121
 0
VERTEX
 5
3B2
 8
0
 62
131
 10
0
 20
0.08
 30
0
 70
128
 71
120
 72
78
 73
81
 74
52
 0
VERTEX
 5
3B3
 8
0
 62
131
 10
0
 20
0.08
 30
0
 70
128
 71
79
 72
121
 73
122
 74
165
 0
VERTEX
 5
3B4
 8
0
 62
131
 10
0
 20
0.08
 30
0
 70
128
 71
50
 72
120
 73
121
 74
118
 0
VERTEX
 5
3B5
 8
0
 62
131
 10
0
 20
0.08
 30
0
 70
128
 71
169
 72
123
 73
165
 74
167
 0
VERTEX
 5
3B6
 8
0
 62
131
 10
0
 20
0.08
 30
0
 70
128
 71
125
 72
123
 73
166
 74
127
 0
VERTEX
 5
3B7
 8
0
 62
131
 10
0
 20
0.08
 30
0
 70
128
 71
129
 72
131
 73
124
 74
125
 0
VERTEX
 5
3B8
 8
0
 62
131
 10
0
 20
0.08
 30
0
 70
128
 71
129
 72
125
 73
127
 74
126
 0
VERTEX
 5
3B9
 8
0
 62
131
 10
0
 20
0.08
 30
0
 70
128
 71
174
 72
126
 73
127
 74
128
 0
VERTEX
 5
3BA
 8
0
 62
131
 10
0
 20
0.08
 30
0
 70
128
 71
172
 72
168
 73
256
 74
208
 0
VERTEX
 5
3BB
 8
0
 62
131
 10
0
 20
0.08
 30
0
 70
128
 71
131
 72
132
 73
212
 74
174
 0
VERTEX
 5
3BC
 8
0
 62
131
 10
0
 20
0.08
 30
0
 70
128
 71
166
 72
170
 73
252
 74
122
 0
VERTEX
 5
3BD
 8
0
 62
131
 10
0
 20
0.08
 30
0
 70
128
 71
122
 72
121
 73
120
 74
52
 0
VERTEX
 5
3BE
 8
0
 62
131
 10
0
 20
0.08
 30
0
 70
128
 71
113
 72
89
 73
133
 0
VERTEX
 5
3BF
 8
0
 62
131
 10
0
 20
0.08
 30
0
 70
128
 71
56
 72
159
 73
84
 74
82
 0
VERTEX
 5
3C0
 8
0
 62
131
 10
0
 20
0.08
 30
0
 70
128
 71
160
 72
159
 73
83
 74
134
 0
VERTEX
 5
3C1
 8
0
 62
131
 10
0
 20
0.08
 30
0
 70
128
 71
84
 72
135
 73
177
 74
86
 0
VERTEX
 5
3C2
 8
0
 62
131
 10
0
 20
0.08
 30
0
 70
128
 71
83
 72
85
 73
178
 74
134
 0
VERTEX
 5
3C3
 8
0
 62
131
 10
0
 20
0.08
 30
0
 70
128
 71
87
 72
86
 73
177
 74
219
 0
VERTEX
 5
3C4
 8
0
 62
131
 10
0
 20
0.08
 30
0
 70
128
 71
220
 72
85
 73
87
 74
136
 0
VERTEX
 5
3C5
 8
0
 62
131
 10
0
 20
0.08
 30
0
 70
128
 71
133
 72
89
 73
90
 74
182
 0
VERTEX
 5
3C6
 8
0
 62
131
 10
0
 20
0.08
 30
0
 70
128
 71
104
 72
160
 73
135
 74
133
 0
VERTEX
 5
3C7
 8
0
 62
131
 10
0
 20
0.08
 30
0
 70
128
 71
226
 72
104
 73
133
 74
224
 0
VERTEX
 5
3C8
 8
0
 62
131
 10
0
 20
0.08
 30
0
 70
128
 71
159
 72
137
 73
113
 74
84
 0
VERTEX
 5
3C9
 8
0
 62
131
 10
0
 20
0.08
 30
0
 70
128
 71
139
 72
95
 73
99
 74
138
 0
VERTEX
 5
3CA
 8
0
 62
131
 10
0
 20
0.08
 30
0
 70
128
 71
184
 72
96
 73
139
 74
185
 0
VERTEX
 5
3CB
 8
0
 62
131
 10
0
 20
0.08
 30
0
 70
128
 71
96
 72
189
 73
145
 74
103
 0
VERTEX
 5
3CC
 8
0
 62
131
 10
0
 20
0.08
 30
0
 70
128
 71
140
 72
97
 73
100
 74
188
 0
VERTEX
 5
3CD
 8
0
 62
131
 10
0
 20
0.08
 30
0
 70
128
 71
184
 72
189
 73
140
 74
193
 0
VERTEX
 5
3CE
 8
0
 62
131
 10
0
 20
0.08
 30
0
 70
128
 71
97
 72
193
 73
142
 74
138
 0
VERTEX
 5
3CF
 8
0
 62
131
 10
0
 20
0.08
 30
0
 70
128
 71
143
 72
144
 73
149
 74
153
 0
VERTEX
 5
3D0
 8
0
 62
131
 10
0
 20
0.08
 30
0
 70
128
 71
145
 72
152
 73
194
 74
188
 0
VERTEX
 5
3D1
 8
0
 62
131
 10
0
 20
0.08
 30
0
 70
128
 71
152
 72
102
 73
143
 74
194
 0
VERTEX
 5
3D2
 8
0
 62
131
 10
0
 20
0.08
 30
0
 70
128
 71
148
 72
104
 73
226
 0
VERTEX
 5
3D3
 8
0
 62
131
 10
0
 20
0.08
 30
0
 70
128
 71
226
 72
196
 73
146
 0
VERTEX
 5
3D4
 8
0
 62
131
 10
0
 20
0.08
 30
0
 70
128
 71
147
 72
148
 73
226
 0
VERTEX
 5
3D5
 8
0
 62
131
 10
0
 20
0.08
 30
0
 70
128
 71
226
 72
146
 73
147
 0
VERTEX
 5
3D6
 8
0
 62
131
 10
0
 20
0.08
 30
0
 70
128
 71
105
 72
148
 73
182
 74
90
 0
VERTEX
 5
3D7
 8
0
 62
131
 10
0
 20
0.08
 30
0
 70
128
 71
154
 72
153
 73
149
 74
108
 0
VERTEX
 5
3D8
 8
0
 62
131
 10
0
 20
0.08
 30
0
 70
128
 71
150
 72
151
 73
152
 74
145
 0
VERTEX
 5
3D9
 8
0
 62
131
 10
0
 20
0.08
 30
0
 70
128
 71
70
 72
151
 73
195
 74
153
 0
VERTEX
 5
3DA
 8
0
 62
131
 10
0
 20
0.08
 30
0
 70
128
 71
155
 72
70
 73
153
 74
154
 0
VERTEX
 5
3DB
 8
0
 62
131
 10
0
 20
0.08
 30
0
 70
128
 71
108
 72
74
 73
111
 74
154
 0
VERTEX
 5
3DC
 8
0
 62
131
 10
0
 20
0.08
 30
0
 70
128
 71
156
 72
155
 73
154
 74
111
 0
VERTEX
 5
3DD
 8
0
 62
131
 10
0
 20
0.08
 30
0
 70
128
 71
109
 72
156
 73
111
 74
157
 0
VERTEX
 5
3DE
 8
0
 62
131
 10
0
 20
0.08
 30
0
 70
128
 71
116
 72
199
 73
109
 74
163
 0
VERTEX
 5
3DF
 8
0
 62
131
 10
0
 20
0.08
 30
0
 70
128
 71
158
 72
199
 73
200
 74
110
 0
VERTEX
 5
3E0
 8
0
 62
131
 10
0
 20
0.08
 30
0
 70
128
 71
111
 72
110
 73
200
 74
157
 0
VERTEX
 5
3E1
 8
0
 62
131
 10
0
 20
0.08
 30
0
 70
128
 71
104
 72
137
 73
159
 74
160
 0
VERTEX
 5
3E2
 8
0
 62
131
 10
0
 20
0.08
 30
0
 70
128
 71
117
 72
164
 73
203
 74
116
 0
VERTEX
 5
3E3
 8
0
 62
131
 10
0
 20
0.08
 30
0
 70
128
 71
119
 72
161
 73
202
 74
162
 0
VERTEX
 5
3E4
 8
0
 62
131
 10
0
 20
0.08
 30
0
 70
128
 71
116
 72
163
 73
245
 74
202
 0
VERTEX
 5
3E5
 8
0
 62
131
 10
0
 20
0.08
 30
0
 70
128
 71
203
 72
164
 73
119
 74
162
 0
VERTEX
 5
3E6
 8
0
 62
131
 10
0
 20
0.08
 30
0
 70
128
 71
252
 72
167
 73
165
 74
122
 0
VERTEX
 5
3E7
 8
0
 62
131
 10
0
 20
0.08
 30
0
 70
128
 71
123
 72
169
 73
170
 74
166
 0
VERTEX
 5
3E8
 8
0
 62
131
 10
0
 20
0.08
 30
0
 70
128
 71
206
 72
169
 73
167
 0
VERTEX
 5
3E9
 8
0
 62
131
 10
0
 20
0.08
 30
0
 70
128
 71
169
 72
129
 73
126
 74
170
 0
VERTEX
 5
3EA
 8
0
 62
131
 10
0
 20
0.08
 30
0
 70
128
 71
475
 72
473
 73
505
 74
506
 0
VERTEX
 5
3EB
 8
0
 62
131
 10
0
 20
0.08
 30
0
 70
128
 71
174
 72
130
 73
171
 74
126
 0
VERTEX
 5
3EC
 8
0
 62
131
 10
0
 20
0.08
 30
0
 70
128
 71
172
 72
173
 73
132
 74
131
 0
VERTEX
 5
3ED
 8
0
 62
131
 10
0
 20
0.08
 30
0
 70
128
 71
172
 72
208
 73
207
 74
130
 0
VERTEX
 5
3EE
 8
0
 62
131
 10
0
 20
0.08
 30
0
 70
128
 71
173
 72
172
 73
130
 74
211
 0
VERTEX
 5
3EF
 8
0
 62
131
 10
0
 20
0.08
 30
0
 70
128
 71
211
 72
130
 73
174
 74
212
 0
VERTEX
 5
3F0
 8
0
 62
131
 10
0
 20
0.08
 30
0
 70
128
 71
132
 72
257
 73
213
 74
212
 0
VERTEX
 5
3F1
 8
0
 62
131
 10
0
 20
0.08
 30
0
 70
128
 71
170
 72
259
 73
252
 0
VERTEX
 5
3F2
 8
0
 62
131
 10
0
 20
0.08
 30
0
 70
128
 71
113
 72
133
 73
135
 74
84
 0
VERTEX
 5
3F3
 8
0
 62
131
 10
0
 20
0.08
 30
0
 70
128
 71
262
 72
175
 73
215
 0
VERTEX
 5
3F4
 8
0
 62
131
 10
0
 20
0.08
 30
0
 70
128
 71
215
 72
160
 73
134
 0
VERTEX
 5
3F5
 8
0
 62
131
 10
0
 20
0.08
 30
0
 70
128
 71
217
 72
262
 73
215
 0
VERTEX
 5
3F6
 8
0
 62
131
 10
0
 20
0.08
 30
0
 70
128
 71
215
 72
134
 73
217
 0
VERTEX
 5
3F7
 8
0
 62
131
 10
0
 20
0.08
 30
0
 70
128
 71
176
 72
177
 73
135
 74
218
 0
VERTEX
 5
3F8
 8
0
 62
131
 10
0
 20
0.08
 30
0
 70
128
 71
263
 72
178
 73
85
 74
220
 0
VERTEX
 5
3F9
 8
0
 62
131
 10
0
 20
0.08
 30
0
 70
128
 71
134
 72
178
 73
219
 74
177
 0
VERTEX
 5
3FA
 8
0
 62
131
 10
0
 20
0.08
 30
0
 70
128
 71
219
 72
221
 73
136
 74
87
 0
VERTEX
 5
3FB
 8
0
 62
131
 10
0
 20
0.08
 30
0
 70
128
 71
179
 72
220
 73
136
 74
214
 0
VERTEX
 5
3FC
 8
0
 62
131
 10
0
 20
0.08
 30
0
 70
128
 71
182
 72
197
 73
180
 0
VERTEX
 5
3FD
 8
0
 62
131
 10
0
 20
0.08
 30
0
 70
128
 71
180
 72
181
 73
224
 0
VERTEX
 5
3FE
 8
0
 62
131
 10
0
 20
0.08
 30
0
 70
128
 71
224
 72
133
 73
182
 0
VERTEX
 5
3FF
 8
0
 62
131
 10
0
 20
0.08
 30
0
 70
128
 71
180
 72
224
 73
182
 0
VERTEX
 5
400
 8
0
 62
131
 10
0
 20
0.08
 30
0
 70
128
 71
215
 72
218
 73
135
 74
160
 0
VERTEX
 5
401
 8
0
 62
131
 10
0
 20
0.08
 30
0
 70
128
 71
232
 72
226
 73
224
 74
230
 0
VERTEX
 5
402
 8
0
 62
131
 10
0
 20
0.08
 30
0
 70
128
 71
185
 72
139
 73
138
 74
142
 0
VERTEX
 5
403
 8
0
 62
131
 10
0
 20
0.08
 30
0
 70
128
 71
191
 72
184
 73
185
 74
186
 0
VERTEX
 5
404
 8
0
 62
131
 10
0
 20
0.08
 30
0
 70
128
 71
187
 72
150
 73
145
 74
189
 0
VERTEX
 5
405
 8
0
 62
131
 10
0
 20
0.08
 30
0
 70
128
 71
234
 72
236
 73
140
 74
188
 0
VERTEX
 5
406
 8
0
 62
131
 10
0
 20
0.08
 30
0
 70
128
 71
191
 72
190
 73
184
 0
VERTEX
 5
407
 8
0
 62
131
 10
0
 20
0.08
 30
0
 70
128
 71
190
 72
187
 73
189
 74
184
 0
VERTEX
 5
408
 8
0
 62
131
 10
0
 20
0.08
 30
0
 70
128
 71
236
 72
141
 73
193
 74
140
 0
VERTEX
 5
409
 8
0
 62
131
 10
0
 20
0.08
 30
0
 70
128
 71
141
 72
192
 73
193
 0
VERTEX
 5
40A
 8
0
 62
131
 10
0
 20
0.08
 30
0
 70
128
 71
187
 72
190
 73
141
 74
236
 0
VERTEX
 5
40B
 8
0
 62
131
 10
0
 20
0.08
 30
0
 70
128
 71
190
 72
235
 73
285
 74
141
 0
VERTEX
 5
40C
 8
0
 62
131
 10
0
 20
0.08
 30
0
 70
128
 71
191
 72
284
 73
293
 74
192
 0
VERTEX
 5
40D
 8
0
 62
131
 10
0
 20
0.08
 30
0
 70
128
 71
286
 72
191
 73
192
 74
290
 0
VERTEX
 5
40E
 8
0
 62
131
 10
0
 20
0.08
 30
0
 70
128
 71
193
 72
192
 73
239
 74
142
 0
VERTEX
 5
40F
 8
0
 62
131
 10
0
 20
0.08
 30
0
 70
128
 71
194
 72
143
 73
153
 74
195
 0
VERTEX
 5
410
 8
0
 62
131
 10
0
 20
0.08
 30
0
 70
128
 71
195
 72
234
 73
188
 74
194
 0
VERTEX
 5
411
 8
0
 62
131
 10
0
 20
0.08
 30
0
 70
128
 71
226
 72
277
 73
241
 74
196
 0
VERTEX
 5
412
 8
0
 62
131
 10
0
 20
0.08
 30
0
 70
128
 71
146
 72
196
 73
181
 74
180
 0
VERTEX
 5
413
 8
0
 62
131
 10
0
 20
0.08
 30
0
 70
128
 71
147
 72
146
 73
180
 74
197
 0
VERTEX
 5
414
 8
0
 62
131
 10
0
 20
0.08
 30
0
 70
128
 71
197
 72
182
 73
148
 74
147
 0
VERTEX
 5
415
 8
0
 62
131
 10
0
 20
0.08
 30
0
 70
128
 71
151
 72
150
 73
234
 74
195
 0
VERTEX
 5
416
 8
0
 62
131
 10
0
 20
0.08
 30
0
 70
128
 71
163
 72
109
 73
157
 74
198
 0
VERTEX
 5
417
 8
0
 62
131
 10
0
 20
0.08
 30
0
 70
128
 71
199
 72
116
 73
203
 74
200
 0
VERTEX
 5
418
 8
0
 62
131
 10
0
 20
0.08
 30
0
 70
128
 71
200
 72
203
 73
198
 74
157
 0
VERTEX
 5
419
 8
0
 62
131
 10
0
 20
0.08
 30
0
 70
128
 71
201
 72
246
 73
251
 0
VERTEX
 5
41A
 8
0
 62
131
 10
0
 20
0.08
 30
0
 70
128
 71
251
 72
162
 73
202
 0
VERTEX
 5
41B
 8
0
 62
131
 10
0
 20
0.08
 30
0
 70
128
 71
251
 72
202
 73
201
 0
VERTEX
 5
41C
 8
0
 62
131
 10
0
 20
0.08
 30
0
 70
128
 71
245
 72
163
 73
244
 74
243
 0
VERTEX
 5
41D
 8
0
 62
131
 10
0
 20
0.08
 30
0
 70
128
 71
202
 72
245
 73
346
 0
VERTEX
 5
41E
 8
0
 62
131
 10
0
 20
0.08
 30
0
 70
128
 71
346
 72
246
 73
201
 0
VERTEX
 5
41F
 8
0
 62
131
 10
0
 20
0.08
 30
0
 70
128
 71
346
 72
201
 73
202
 0
VERTEX
 5
420
 8
0
 62
131
 10
0
 20
0.08
 30
0
 70
128
 71
198
 72
203
 73
162
 74
204
 0
VERTEX
 5
421
 8
0
 62
131
 10
0
 20
0.08
 30
0
 70
128
 71
246
 72
167
 73
252
 74
251
 0
VERTEX
 5
422
 8
0
 62
131
 10
0
 20
0.08
 30
0
 70
128
 71
169
 72
206
 73
168
 74
129
 0
VERTEX
 5
423
 8
0
 62
131
 10
0
 20
0.08
 30
0
 70
128
 71
167
 72
255
 73
205
 74
206
 0
VERTEX
 5
424
 8
0
 62
131
 10
0
 20
0.08
 30
0
 70
128
 71
256
 72
168
 73
171
 74
303
 0
VERTEX
 5
425
 8
0
 62
131
 10
0
 20
0.08
 30
0
 70
128
 71
208
 72
256
 73
354
 0
VERTEX
 5
426
 8
0
 62
131
 10
0
 20
0.08
 30
0
 70
128
 71
259
 72
170
 73
126
 74
171
 0
VERTEX
 5
427
 8
0
 62
131
 10
0
 20
0.08
 30
0
 70
128
 71
168
 72
206
 73
259
 74
171
 0
VERTEX
 5
428
 8
0
 62
131
 10
0
 20
0.08
 30
0
 70
128
 71
303
 72
171
 73
130
 74
207
 0
VERTEX
 5
429
 8
0
 62
131
 10
0
 20
0.08
 30
0
 70
128
 71
173
 72
209
 73
257
 74
132
 0
VERTEX
 5
42A
 8
0
 62
131
 10
0
 20
0.08
 30
0
 70
128
 71
208
 72
209
 73
210
 74
207
 0
VERTEX
 5
42B
 8
0
 62
131
 10
0
 20
0.08
 30
0
 70
128
 71
209
 72
173
 73
211
 74
210
 0
VERTEX
 5
42C
 8
0
 62
131
 10
0
 20
0.08
 30
0
 70
128
 71
210
 72
211
 73
212
 74
213
 0
VERTEX
 5
42D
 8
0
 62
131
 10
0
 20
0.08
 30
0
 70
128
 71
257
 72
179
 73
214
 74
213
 0
VERTEX
 5
42E
 8
0
 62
131
 10
0
 20
0.08
 30
0
 70
128
 71
253
 72
252
 73
259
 74
258
 0
VERTEX
 5
42F
 8
0
 62
131
 10
0
 20
0.08
 30
0
 70
128
 71
218
 72
215
 73
175
 74
216
 0
VERTEX
 5
430
 8
0
 62
131
 10
0
 20
0.08
 30
0
 70
128
 71
176
 72
217
 73
134
 74
177
 0
VERTEX
 5
431
 8
0
 62
131
 10
0
 20
0.08
 30
0
 70
128
 71
262
 72
217
 73
176
 74
261
 0
VERTEX
 5
432
 8
0
 62
131
 10
0
 20
0.08
 30
0
 70
128
 71
175
 72
262
 73
260
 74
265
 0
VERTEX
 5
433
 8
0
 62
131
 10
0
 20
0.08
 30
0
 70
128
 71
218
 72
216
 73
261
 74
176
 0
VERTEX
 5
434
 8
0
 62
131
 10
0
 20
0.08
 30
0
 70
128
 71
178
 72
263
 73
221
 74
219
 0
VERTEX
 5
435
 8
0
 62
131
 10
0
 20
0.08
 30
0
 70
128
 71
273
 72
263
 73
220
 74
222
 0
VERTEX
 5
436
 8
0
 62
131
 10
0
 20
0.08
 30
0
 70
128
 71
221
 72
274
 73
272
 74
136
 0
VERTEX
 5
437
 8
0
 62
131
 10
0
 20
0.08
 30
0
 70
128
 71
262
 72
261
 73
221
 74
263
 0
VERTEX
 5
438
 8
0
 62
131
 10
0
 20
0.08
 30
0
 70
128
 71
222
 72
220
 73
179
 74
275
 0
VERTEX
 5
439
 8
0
 62
131
 10
0
 20
0.08
 30
0
 70
128
 71
136
 72
272
 73
276
 74
214
 0
VERTEX
 5
43A
 8
0
 62
131
 10
0
 20
0.08
 30
0
 70
128
 71
183
 72
224
 73
181
 74
223
 0
VERTEX
 5
43B
 8
0
 62
131
 10
0
 20
0.08
 30
0
 70
128
 71
225
 72
277
 73
226
 0
VERTEX
 5
43C
 8
0
 62
131
 10
0
 20
0.08
 30
0
 70
128
 71
183
 72
278
 73
224
 0
VERTEX
 5
43D
 8
0
 62
131
 10
0
 20
0.08
 30
0
 70
128
 71
295
 72
277
 73
183
 74
326
 0
VERTEX
 5
43E
 8
0
 62
131
 10
0
 20
0.08
 30
0
 70
128
 71
277
 72
280
 73
325
 74
183
 0
VERTEX
 5
43F
 8
0
 62
131
 10
0
 20
0.08
 30
0
 70
128
 71
225
 72
226
 73
232
 74
227
 0
VERTEX
 5
440
 8
0
 62
131
 10
0
 20
0.08
 30
0
 70
128
 71
323
 72
225
 73
278
 74
228
 0
VERTEX
 5
441
 8
0
 62
131
 10
0
 20
0.08
 30
0
 70
128
 71
225
 72
227
 73
229
 74
278
 0
VERTEX
 5
442
 8
0
 62
131
 10
0
 20
0.08
 30
0
 70
128
 71
224
 72
278
 73
229
 74
230
 0
VERTEX
 5
443
 8
0
 62
131
 10
0
 20
0.08
 30
0
 70
128
 71
231
 72
268
 73
232
 74
230
 0
VERTEX
 5
444
 8
0
 62
131
 10
0
 20
0.08
 30
0
 70
128
 71
186
 72
185
 73
142
 74
239
 0
VERTEX
 5
445
 8
0
 62
131
 10
0
 20
0.08
 30
0
 70
128
 71
284
 72
191
 73
186
 74
331
 0
VERTEX
 5
446
 8
0
 62
131
 10
0
 20
0.08
 30
0
 70
128
 71
187
 72
233
 73
296
 74
150
 0
VERTEX
 5
447
 8
0
 62
131
 10
0
 20
0.08
 30
0
 70
128
 71
237
 72
236
 73
234
 74
242
 0
VERTEX
 5
448
 8
0
 62
131
 10
0
 20
0.08
 30
0
 70
128
 71
191
 72
286
 73
235
 74
190
 0
VERTEX
 5
449
 8
0
 62
131
 10
0
 20
0.08
 30
0
 70
128
 71
290
 72
192
 73
141
 74
285
 0
VERTEX
 5
44A
 8
0
 62
131
 10
0
 20
0.08
 30
0
 70
128
 71
233
 72
187
 73
236
 74
237
 0
VERTEX
 5
44B
 8
0
 62
131
 10
0
 20
0.08
 30
0
 70
128
 71
235
 72
233
 73
237
 74
285
 0
VERTEX
 5
44C
 8
0
 62
131
 10
0
 20
0.08
 30
0
 70
128
 71
284
 72
238
 73
338
 74
293
 0
VERTEX
 5
44D
 8
0
 62
131
 10
0
 20
0.08
 30
0
 70
128
 71
192
 72
293
 73
292
 74
239
 0
VERTEX
 5
44E
 8
0
 62
131
 10
0
 20
0.08
 30
0
 70
128
 71
238
 72
286
 73
290
 74
338
 0
VERTEX
 5
44F
 8
0
 62
131
 10
0
 20
0.08
 30
0
 70
128
 71
277
 72
295
 73
240
 74
241
 0
VERTEX
 5
450
 8
0
 62
131
 10
0
 20
0.08
 30
0
 70
128
 71
196
 72
241
 73
223
 74
181
 0
VERTEX
 5
451
 8
0
 62
131
 10
0
 20
0.08
 30
0
 70
128
 71
150
 72
296
 73
242
 74
234
 0
VERTEX
 5
452
 8
0
 62
131
 10
0
 20
0.08
 30
0
 70
128
 71
244
 72
163
 73
198
 74
249
 0
VERTEX
 5
453
 8
0
 62
131
 10
0
 20
0.08
 30
0
 70
128
 71
299
 72
204
 73
162
 74
251
 0
VERTEX
 5
454
 8
0
 62
131
 10
0
 20
0.08
 30
0
 70
128
 71
343
 72
297
 73
243
 74
244
 0
VERTEX
 5
455
 8
0
 62
131
 10
0
 20
0.08
 30
0
 70
128
 71
245
 72
243
 73
248
 74
204
 0
VERTEX
 5
456
 8
0
 62
131
 10
0
 20
0.08
 30
0
 70
128
 71
346
 72
245
 73
204
 74
299
 0
VERTEX
 5
457
 8
0
 62
131
 10
0
 20
0.08
 30
0
 70
128
 71
246
 72
346
 73
247
 0
VERTEX
 5
458
 8
0
 62
131
 10
0
 20
0.08
 30
0
 70
128
 71
198
 72
204
 73
248
 74
249
 0
VERTEX
 5
459
 8
0
 62
131
 10
0
 20
0.08
 30
0
 70
128
 71
167
 72
246
 73
250
 74
255
 0
VERTEX
 5
45A
 8
0
 62
131
 10
0
 20
0.08
 30
0
 70
128
 71
251
 72
252
 73
253
 74
254
 0
VERTEX
 5
45B
 8
0
 62
131
 10
0
 20
0.08
 30
0
 70
128
 71
206
 72
256
 73
303
 74
259
 0
VERTEX
 5
45C
 8
0
 62
131
 10
0
 20
0.08
 30
0
 70
128
 71
205
 72
255
 73
253
 74
258
 0
VERTEX
 5
45D
 8
0
 62
131
 10
0
 20
0.08
 30
0
 70
128
 71
206
 72
205
 73
301
 74
256
 0
VERTEX
 5
45E
 8
0
 62
131
 10
0
 20
0.08
 30
0
 70
128
 71
303
 72
207
 73
308
 0
VERTEX
 5
45F
 8
0
 62
131
 10
0
 20
0.08
 30
0
 70
128
 71
305
 72
354
 73
256
 74
301
 0
VERTEX
 5
460
 8
0
 62
131
 10
0
 20
0.08
 30
0
 70
128
 71
209
 72
208
 73
354
 74
309
 0
VERTEX
 5
461
 8
0
 62
131
 10
0
 20
0.08
 30
0
 70
128
 71
313
 72
257
 73
209
 74
309
 0
VERTEX
 5
462
 8
0
 62
131
 10
0
 20
0.08
 30
0
 70
128
 71
207
 72
210
 73
312
 74
308
 0
VERTEX
 5
463
 8
0
 62
131
 10
0
 20
0.08
 30
0
 70
128
 71
213
 72
357
 73
312
 74
210
 0
VERTEX
 5
464
 8
0
 62
131
 10
0
 20
0.08
 30
0
 70
128
 71
313
 72
275
 73
179
 74
257
 0
VERTEX
 5
465
 8
0
 62
131
 10
0
 20
0.08
 30
0
 70
128
 71
276
 72
357
 73
213
 74
214
 0
VERTEX
 5
466
 8
0
 62
131
 10
0
 20
0.08
 30
0
 70
128
 71
258
 72
259
 73
303
 74
302
 0
VERTEX
 5
467
 8
0
 62
131
 10
0
 20
0.08
 30
0
 70
128
 71
268
 72
231
 73
216
 74
175
 0
VERTEX
 5
468
 8
0
 62
131
 10
0
 20
0.08
 30
0
 70
128
 71
262
 72
263
 73
273
 74
260
 0
VERTEX
 5
469
 8
0
 62
131
 10
0
 20
0.08
 30
0
 70
128
 71
265
 72
260
 73
319
 74
362
 0
VERTEX
 5
46A
 8
0
 62
131
 10
0
 20
0.08
 30
0
 70
128
 71
266
 72
267
 73
232
 0
VERTEX
 5
46B
 8
0
 62
131
 10
0
 20
0.08
 30
0
 70
128
 71
232
 72
268
 73
175
 0
VERTEX
 5
46C
 8
0
 62
131
 10
0
 20
0.08
 30
0
 70
128
 71
175
 72
265
 73
266
 0
VERTEX
 5
46D
 8
0
 62
131
 10
0
 20
0.08
 30
0
 70
128
 71
266
 72
232
 73
175
 0
VERTEX
 5
46E
 8
0
 62
131
 10
0
 20
0.08
 30
0
 70
128
 71
269
 72
261
 73
216
 74
264
 0
VERTEX
 5
46F
 8
0
 62
131
 10
0
 20
0.08
 30
0
 70
128
 71
270
 72
273
 73
222
 74
359
 0
VERTEX
 5
470
 8
0
 62
131
 10
0
 20
0.08
 30
0
 70
128
 71
261
 72
269
 73
274
 74
221
 0
VERTEX
 5
471
 8
0
 62
131
 10
0
 20
0.08
 30
0
 70
128
 71
271
 72
272
 73
274
 74
318
 0
VERTEX
 5
472
 8
0
 62
131
 10
0
 20
0.08
 30
0
 70
128
 71
269
 72
260
 73
273
 74
274
 0
VERTEX
 5
473
 8
0
 62
131
 10
0
 20
0.08
 30
0
 70
128
 71
270
 72
318
 73
274
 74
273
 0
VERTEX
 5
474
 8
0
 62
131
 10
0
 20
0.08
 30
0
 70
128
 71
222
 72
275
 73
276
 74
272
 0
VERTEX
 5
475
 8
0
 62
131
 10
0
 20
0.08
 30
0
 70
128
 71
326
 72
183
 73
223
 74
321
 0
VERTEX
 5
476
 8
0
 62
131
 10
0
 20
0.08
 30
0
 70
128
 71
280
 72
277
 73
225
 74
323
 0
VERTEX
 5
477
 8
0
 62
131
 10
0
 20
0.08
 30
0
 70
128
 71
183
 72
325
 73
228
 74
278
 0
VERTEX
 5
478
 8
0
 62
131
 10
0
 20
0.08
 30
0
 70
128
 71
280
 72
295
 73
326
 74
325
 0
VERTEX
 5
479
 8
0
 62
131
 10
0
 20
0.08
 30
0
 70
128
 71
227
 72
232
 73
267
 74
281
 0
VERTEX
 5
47A
 8
0
 62
131
 10
0
 20
0.08
 30
0
 70
128
 71
283
 72
323
 73
228
 74
282
 0
VERTEX
 5
47B
 8
0
 62
131
 10
0
 20
0.08
 30
0
 70
128
 71
227
 72
283
 73
282
 74
229
 0
VERTEX
 5
47C
 8
0
 62
131
 10
0
 20
0.08
 30
0
 70
128
 71
230
 72
229
 73
377
 74
317
 0
VERTEX
 5
47D
 8
0
 62
131
 10
0
 20
0.08
 30
0
 70
128
 71
231
 72
230
 73
317
 74
316
 0
VERTEX
 5
47E
 8
0
 62
131
 10
0
 20
0.08
 30
0
 70
128
 71
331
 72
186
 73
239
 74
292
 0
VERTEX
 5
47F
 8
0
 62
131
 10
0
 20
0.08
 30
0
 70
128
 71
331
 72
332
 73
238
 74
284
 0
VERTEX
 5
480
 8
0
 62
131
 10
0
 20
0.08
 30
0
 70
128
 71
340
 72
296
 73
233
 74
235
 0
VERTEX
 5
481
 8
0
 62
131
 10
0
 20
0.08
 30
0
 70
128
 71
242
 72
288
 73
285
 74
237
 0
VERTEX
 5
482
 8
0
 62
131
 10
0
 20
0.08
 30
0
 70
128
 71
340
 72
235
 73
286
 74
287
 0
VERTEX
 5
483
 8
0
 62
131
 10
0
 20
0.08
 30
0
 70
128
 71
285
 72
288
 73
289
 74
290
 0
VERTEX
 5
484
 8
0
 62
131
 10
0
 20
0.08
 30
0
 70
128
 71
291
 72
292
 73
293
 74
338
 0
VERTEX
 5
485
 8
0
 62
131
 10
0
 20
0.08
 30
0
 70
128
 71
286
 72
238
 73
337
 74
287
 0
VERTEX
 5
486
 8
0
 62
131
 10
0
 20
0.08
 30
0
 70
128
 71
338
 72
290
 73
289
 74
294
 0
VERTEX
 5
487
 8
0
 62
131
 10
0
 20
0.08
 30
0
 70
128
 71
295
 72
327
 73
339
 74
240
 0
VERTEX
 5
488
 8
0
 62
131
 10
0
 20
0.08
 30
0
 70
128
 71
241
 72
240
 73
321
 74
223
 0
VERTEX
 5
489
 8
0
 62
131
 10
0
 20
0.08
 30
0
 70
128
 71
296
 72
340
 73
288
 74
242
 0
VERTEX
 5
48A
 8
0
 62
131
 10
0
 20
0.08
 30
0
 70
128
 71
343
 72
244
 73
249
 74
298
 0
VERTEX
 5
48B
 8
0
 62
131
 10
0
 20
0.08
 30
0
 70
128
 71
300
 72
299
 73
251
 0
VERTEX
 5
48C
 8
0
 62
131
 10
0
 20
0.08
 30
0
 70
128
 71
344
 72
298
 73
249
 74
248
 0
VERTEX
 5
48D
 8
0
 62
131
 10
0
 20
0.08
 30
0
 70
128
 71
243
 72
297
 73
344
 74
248
 0
VERTEX
 5
48E
 8
0
 62
131
 10
0
 20
0.08
 30
0
 70
128
 71
471
 72
470
 73
505
 74
473
 0
VERTEX
 5
48F
 8
0
 62
131
 10
0
 20
0.08
 30
0
 70
128
 71
297
 72
346
 73
299
 74
344
 0
VERTEX
 5
490
 8
0
 62
131
 10
0
 20
0.08
 30
0
 70
128
 71
348
 72
247
 73
346
 0
VERTEX
 5
491
 8
0
 62
131
 10
0
 20
0.08
 30
0
 70
128
 71
351
 72
250
 73
246
 0
VERTEX
 5
492
 8
0
 62
131
 10
0
 20
0.08
 30
0
 70
128
 71
247
 72
348
 73
351
 0
VERTEX
 5
493
 8
0
 62
131
 10
0
 20
0.08
 30
0
 70
128
 71
246
 72
247
 73
351
 0
VERTEX
 5
494
 8
0
 62
131
 10
0
 20
0.08
 30
0
 70
128
 71
253
 72
255
 73
250
 74
254
 0
VERTEX
 5
495
 8
0
 62
131
 10
0
 20
0.08
 30
0
 70
128
 71
251
 72
254
 73
352
 74
300
 0
VERTEX
 5
496
 8
0
 62
131
 10
0
 20
0.08
 30
0
 70
128
 71
301
 72
205
 73
258
 74
302
 0
VERTEX
 5
497
 8
0
 62
131
 10
0
 20
0.08
 30
0
 70
128
 71
308
 72
307
 73
302
 74
303
 0
VERTEX
 5
498
 8
0
 62
131
 10
0
 20
0.08
 30
0
 70
128
 71
304
 72
354
 73
305
 74
306
 0
VERTEX
 5
499
 8
0
 62
131
 10
0
 20
0.08
 30
0
 70
128
 71
305
 72
301
 73
302
 74
307
 0
VERTEX
 5
49A
 8
0
 62
131
 10
0
 20
0.08
 30
0
 70
128
 71
354
 72
308
 73
312
 74
309
 0
VERTEX
 5
49B
 8
0
 62
131
 10
0
 20
0.08
 30
0
 70
128
 71
358
 72
313
 73
309
 0
VERTEX
 5
49C
 8
0
 62
131
 10
0
 20
0.08
 30
0
 70
128
 71
309
 72
310
 73
311
 0
VERTEX
 5
49D
 8
0
 62
131
 10
0
 20
0.08
 30
0
 70
128
 71
311
 72
359
 73
358
 0
VERTEX
 5
49E
 8
0
 62
131
 10
0
 20
0.08
 30
0
 70
128
 71
358
 72
309
 73
311
 0
VERTEX
 5
49F
 8
0
 62
131
 10
0
 20
0.08
 30
0
 70
128
 71
356
 72
312
 73
357
 74
360
 0
VERTEX
 5
4A0
 8
0
 62
131
 10
0
 20
0.08
 30
0
 70
128
 71
275
 72
313
 73
357
 74
276
 0
VERTEX
 5
4A1
 8
0
 62
131
 10
0
 20
0.08
 30
0
 70
128
 71
316
 72
264
 73
216
 74
231
 0
VERTEX
 5
4A2
 8
0
 62
131
 10
0
 20
0.08
 30
0
 70
128
 71
260
 72
269
 73
314
 74
319
 0
VERTEX
 5
4A3
 8
0
 62
131
 10
0
 20
0.08
 30
0
 70
128
 71
362
 72
319
 73
361
 74
408
 0
VERTEX
 5
4A4
 8
0
 62
131
 10
0
 20
0.08
 30
0
 70
128
 71
265
 72
362
 73
315
 74
264
 0
VERTEX
 5
4A5
 8
0
 62
131
 10
0
 20
0.08
 30
0
 70
128
 71
264
 72
315
 73
314
 74
269
 0
VERTEX
 5
4A6
 8
0
 62
131
 10
0
 20
0.08
 30
0
 70
128
 71
316
 72
266
 73
265
 74
264
 0
VERTEX
 5
4A7
 8
0
 62
131
 10
0
 20
0.08
 30
0
 70
128
 71
266
 72
316
 73
317
 74
267
 0
VERTEX
 5
4A8
 8
0
 62
131
 10
0
 20
0.08
 30
0
 70
128
 71
359
 72
222
 73
272
 74
271
 0
VERTEX
 5
4A9
 8
0
 62
131
 10
0
 20
0.08
 30
0
 70
128
 71
270
 72
359
 73
311
 74
366
 0
VERTEX
 5
4AA
 8
0
 62
131
 10
0
 20
0.08
 30
0
 70
128
 71
402
 72
271
 73
318
 74
365
 0
VERTEX
 5
4AB
 8
0
 62
131
 10
0
 20
0.08
 30
0
 70
128
 71
318
 72
270
 73
319
 74
314
 0
VERTEX
 5
4AC
 8
0
 62
131
 10
0
 20
0.08
 30
0
 70
128
 71
320
 72
326
 73
321
 74
322
 0
VERTEX
 5
4AD
 8
0
 62
131
 10
0
 20
0.08
 30
0
 70
128
 71
330
 72
368
 73
280
 74
323
 0
VERTEX
 5
4AE
 8
0
 62
131
 10
0
 20
0.08
 30
0
 70
128
 71
372
 72
370
 73
228
 74
325
 0
VERTEX
 5
4AF
 8
0
 62
131
 10
0
 20
0.08
 30
0
 70
128
 71
279
 72
327
 73
295
 0
VERTEX
 5
4B0
 8
0
 62
131
 10
0
 20
0.08
 30
0
 70
128
 71
368
 72
279
 73
295
 74
280
 0
VERTEX
 5
4B1
 8
0
 62
131
 10
0
 20
0.08
 30
0
 70
128
 71
279
 72
368
 73
372
 74
324
 0
VERTEX
 5
4B2
 8
0
 62
131
 10
0
 20
0.08
 30
0
 70
128
 71
371
 72
279
 73
324
 74
373
 0
VERTEX
 5
4B3
 8
0
 62
131
 10
0
 20
0.08
 30
0
 70
128
 71
324
 72
372
 73
325
 74
326
 0
VERTEX
 5
4B4
 8
0
 62
131
 10
0
 20
0.08
 30
0
 70
128
 71
320
 72
324
 73
326
 0
VERTEX
 5
4B5
 8
0
 62
131
 10
0
 20
0.08
 30
0
 70
128
 71
386
 72
327
 73
320
 74
375
 0
VERTEX
 5
4B6
 8
0
 62
131
 10
0
 20
0.08
 30
0
 70
128
 71
327
 72
418
 73
419
 74
320
 0
VERTEX
 5
4B7
 8
0
 62
131
 10
0
 20
0.08
 30
0
 70
128
 71
328
 72
281
 73
267
 74
363
 0
VERTEX
 5
4B8
 8
0
 62
131
 10
0
 20
0.08
 30
0
 70
128
 71
283
 72
227
 73
281
 74
329
 0
VERTEX
 5
4B9
 8
0
 62
131
 10
0
 20
0.08
 30
0
 70
128
 71
329
 72
330
 73
323
 74
283
 0
VERTEX
 5
4BA
 8
0
 62
131
 10
0
 20
0.08
 30
0
 70
128
 71
370
 72
378
 73
282
 74
228
 0
VERTEX
 5
4BB
 8
0
 62
131
 10
0
 20
0.08
 30
0
 70
128
 71
229
 72
282
 73
378
 74
377
 0
VERTEX
 5
4BC
 8
0
 62
131
 10
0
 20
0.08
 30
0
 70
128
 71
377
 72
409
 73
379
 74
317
 0
VERTEX
 5
4BD
 8
0
 62
131
 10
0
 20
0.08
 30
0
 70
128
 71
332
 72
331
 73
292
 74
291
 0
VERTEX
 5
4BE
 8
0
 62
131
 10
0
 20
0.08
 30
0
 70
128
 71
336
 72
238
 73
332
 74
333
 0
VERTEX
 5
4BF
 8
0
 62
131
 10
0
 20
0.08
 30
0
 70
128
 71
287
 72
380
 73
334
 74
340
 0
VERTEX
 5
4C0
 8
0
 62
131
 10
0
 20
0.08
 30
0
 70
128
 71
381
 72
289
 73
288
 74
341
 0
VERTEX
 5
4C1
 8
0
 62
131
 10
0
 20
0.08
 30
0
 70
128
 71
338
 72
335
 73
384
 74
291
 0
VERTEX
 5
4C2
 8
0
 62
131
 10
0
 20
0.08
 30
0
 70
128
 71
336
 72
337
 73
238
 0
VERTEX
 5
4C3
 8
0
 62
131
 10
0
 20
0.08
 30
0
 70
128
 71
287
 72
337
 73
294
 74
289
 0
VERTEX
 5
4C4
 8
0
 62
131
 10
0
 20
0.08
 30
0
 70
128
 71
294
 72
335
 73
338
 0
VERTEX
 5
4C5
 8
0
 62
131
 10
0
 20
0.08
 30
0
 70
128
 71
327
 72
386
 73
427
 74
339
 0
VERTEX
 5
4C6
 8
0
 62
131
 10
0
 20
0.08
 30
0
 70
128
 71
240
 72
339
 73
322
 74
321
 0
VERTEX
 5
4C7
 8
0
 62
131
 10
0
 20
0.08
 30
0
 70
128
 71
340
 72
334
 73
341
 74
288
 0
VERTEX
 5
4C8
 8
0
 62
131
 10
0
 20
0.08
 30
0
 70
128
 71
342
 72
343
 73
298
 74
387
 0
VERTEX
 5
4C9
 8
0
 62
131
 10
0
 20
0.08
 30
0
 70
128
 71
299
 72
300
 73
389
 74
344
 0
VERTEX
 5
4CA
 8
0
 62
131
 10
0
 20
0.08
 30
0
 70
128
 71
388
 72
298
 73
344
 74
389
 0
VERTEX
 5
4CB
 8
0
 62
131
 10
0
 20
0.08
 30
0
 70
128
 71
390
 72
347
 73
388
 74
432
 0
VERTEX
 5
4CC
 8
0
 62
131
 10
0
 20
0.08
 30
0
 70
128
 71
350
 72
390
 73
392
 0
VERTEX
 5
4CD
 8
0
 62
131
 10
0
 20
0.08
 30
0
 70
128
 71
345
 72
350
 73
349
 74
389
 0
VERTEX
 5
4CE
 8
0
 62
131
 10
0
 20
0.08
 30
0
 70
128
 71
348
 72
346
 73
297
 74
345
 0
VERTEX
 5
4CF
 8
0
 62
131
 10
0
 20
0.08
 30
0
 70
128
 71
430
 72
347
 73
343
 74
342
 0
VERTEX
 5
4D0
 8
0
 62
131
 10
0
 20
0.08
 30
0
 70
128
 71
348
 72
345
 73
389
 74
300
 0
VERTEX
 5
4D1
 8
0
 62
131
 10
0
 20
0.08
 30
0
 70
128
 71
350
 72
348
 73
300
 74
349
 0
VERTEX
 5
4D2
 8
0
 62
131
 10
0
 20
0.08
 30
0
 70
128
 71
351
 72
348
 73
350
 74
393
 0
VERTEX
 5
4D3
 8
0
 62
131
 10
0
 20
0.08
 30
0
 70
128
 71
250
 72
351
 73
352
 74
254
 0
VERTEX
 5
4D4
 8
0
 62
131
 10
0
 20
0.08
 30
0
 70
128
 71
300
 72
352
 73
394
 74
349
 0
VERTEX
 5
4D5
 8
0
 62
131
 10
0
 20
0.08
 30
0
 70
128
 71
308
 72
395
 73
353
 74
307
 0
VERTEX
 5
4D6
 8
0
 62
131
 10
0
 20
0.08
 30
0
 70
128
 71
354
 72
304
 73
395
 74
308
 0
VERTEX
 5
4D7
 8
0
 62
131
 10
0
 20
0.08
 30
0
 70
128
 71
305
 72
307
 73
353
 74
306
 0
VERTEX
 5
4D8
 8
0
 62
131
 10
0
 20
0.08
 30
0
 70
128
 71
399
 72
304
 73
306
 0
VERTEX
 5
4D9
 8
0
 62
131
 10
0
 20
0.08
 30
0
 70
128
 71
306
 72
355
 73
442
 0
VERTEX
 5
4DA
 8
0
 62
131
 10
0
 20
0.08
 30
0
 70
128
 71
306
 72
442
 73
399
 0
VERTEX
 5
4DB
 8
0
 62
131
 10
0
 20
0.08
 30
0
 70
128
 71
356
 72
310
 73
309
 74
312
 0
VERTEX
 5
4DC
 8
0
 62
131
 10
0
 20
0.08
 30
0
 70
128
 71
358
 72
360
 73
357
 74
313
 0
VERTEX
 5
4DD
 8
0
 62
131
 10
0
 20
0.08
 30
0
 70
128
 71
311
 72
310
 73
356
 74
402
 0
VERTEX
 5
4DE
 8
0
 62
131
 10
0
 20
0.08
 30
0
 70
128
 71
360
 72
358
 73
359
 74
271
 0
VERTEX
 5
4DF
 8
0
 62
131
 10
0
 20
0.08
 30
0
 70
128
 71
360
 72
271
 73
402
 74
356
 0
VERTEX
 5
4E0
 8
0
 62
131
 10
0
 20
0.08
 30
0
 70
128
 71
366
 72
361
 73
319
 74
270
 0
VERTEX
 5
4E1
 8
0
 62
131
 10
0
 20
0.08
 30
0
 70
128
 71
408
 72
361
 73
404
 74
405
 0
VERTEX
 5
4E2
 8
0
 62
131
 10
0
 20
0.08
 30
0
 70
128
 71
363
 72
362
 73
408
 74
328
 0
VERTEX
 5
4E3
 8
0
 62
131
 10
0
 20
0.08
 30
0
 70
128
 71
362
 72
363
 73
379
 74
315
 0
VERTEX
 5
4E4
 8
0
 62
131
 10
0
 20
0.08
 30
0
 70
128
 71
314
 72
315
 73
407
 74
410
 0
VERTEX
 5
4E5
 8
0
 62
131
 10
0
 20
0.08
 30
0
 70
128
 71
363
 72
267
 73
317
 74
379
 0
VERTEX
 5
4E6
 8
0
 62
131
 10
0
 20
0.08
 30
0
 70
128
 71
412
 72
366
 73
311
 74
401
 0
VERTEX
 5
4E7
 8
0
 62
131
 10
0
 20
0.08
 30
0
 70
128
 71
365
 72
318
 73
314
 74
410
 0
VERTEX
 5
4E8
 8
0
 62
131
 10
0
 20
0.08
 30
0
 70
128
 71
400
 72
402
 73
365
 74
364
 0
VERTEX
 5
4E9
 8
0
 62
131
 10
0
 20
0.08
 30
0
 70
128
 71
365
 72
410
 73
361
 74
366
 0
VERTEX
 5
4EA
 8
0
 62
131
 10
0
 20
0.08
 30
0
 70
128
 71
412
 72
364
 73
365
 74
366
 0
VERTEX
 5
4EB
 8
0
 62
131
 10
0
 20
0.08
 30
0
 70
128
 71
375
 72
320
 73
322
 74
414
 0
VERTEX
 5
4EC
 8
0
 62
131
 10
0
 20
0.08
 30
0
 70
128
 71
367
 72
368
 73
330
 74
445
 0
VERTEX
 5
4ED
 8
0
 62
131
 10
0
 20
0.08
 30
0
 70
128
 71
372
 72
369
 73
416
 74
370
 0
VERTEX
 5
4EE
 8
0
 62
131
 10
0
 20
0.08
 30
0
 70
128
 71
418
 72
327
 73
279
 74
371
 0
VERTEX
 5
4EF
 8
0
 62
131
 10
0
 20
0.08
 30
0
 70
128
 71
320
 72
419
 73
373
 74
324
 0
VERTEX
 5
4F0
 8
0
 62
131
 10
0
 20
0.08
 30
0
 70
128
 71
368
 72
367
 73
369
 74
372
 0
VERTEX
 5
4F1
 8
0
 62
131
 10
0
 20
0.08
 30
0
 70
128
 71
367
 72
371
 73
373
 74
369
 0
VERTEX
 5
4F2
 8
0
 62
131
 10
0
 20
0.08
 30
0
 70
128
 71
374
 72
386
 73
375
 74
376
 0
VERTEX
 5
4F3
 8
0
 62
131
 10
0
 20
0.08
 30
0
 70
128
 71
418
 72
374
 73
376
 74
419
 0
VERTEX
 5
4F4
 8
0
 62
131
 10
0
 20
0.08
 30
0
 70
128
 71
281
 72
328
 73
409
 74
377
 0
VERTEX
 5
4F5
 8
0
 62
131
 10
0
 20
0.08
 30
0
 70
128
 71
329
 72
281
 73
377
 74
378
 0
VERTEX
 5
4F6
 8
0
 62
131
 10
0
 20
0.08
 30
0
 70
128
 71
330
 72
329
 73
378
 74
370
 0
VERTEX
 5
4F7
 8
0
 62
131
 10
0
 20
0.08
 30
0
 70
128
 71
315
 72
379
 73
409
 74
407
 0
VERTEX
 5
4F8
 8
0
 62
131
 10
0
 20
0.08
 30
0
 70
128
 71
333
 72
332
 73
291
 74
384
 0
VERTEX
 5
4F9
 8
0
 62
131
 10
0
 20
0.08
 30
0
 70
128
 71
450
 72
336
 73
333
 74
422
 0
VERTEX
 5
4FA
 8
0
 62
131
 10
0
 20
0.08
 30
0
 70
128
 71
380
 72
287
 73
289
 74
381
 0
VERTEX
 5
4FB
 8
0
 62
131
 10
0
 20
0.08
 30
0
 70
128
 71
380
 72
423
 73
382
 74
334
 0
VERTEX
 5
4FC
 8
0
 62
131
 10
0
 20
0.08
 30
0
 70
128
 71
424
 72
381
 73
341
 74
425
 0
VERTEX
 5
4FD
 8
0
 62
131
 10
0
 20
0.08
 30
0
 70
128
 71
335
 72
457
 73
383
 74
384
 0
VERTEX
 5
4FE
 8
0
 62
131
 10
0
 20
0.08
 30
0
 70
128
 71
423
 72
337
 73
336
 74
426
 0
VERTEX
 5
4FF
 8
0
 62
131
 10
0
 20
0.08
 30
0
 70
128
 71
337
 72
423
 73
424
 74
294
 0
VERTEX
 5
500
 8
0
 62
131
 10
0
 20
0.08
 30
0
 70
128
 71
294
 72
424
 73
385
 74
335
 0
VERTEX
 5
501
 8
0
 62
131
 10
0
 20
0.08
 30
0
 70
128
 71
428
 72
427
 73
386
 74
374
 0
VERTEX
 5
502
 8
0
 62
131
 10
0
 20
0.08
 30
0
 70
128
 71
339
 72
427
 73
414
 74
322
 0
VERTEX
 5
503
 8
0
 62
131
 10
0
 20
0.08
 30
0
 70
128
 71
334
 72
382
 73
425
 74
341
 0
VERTEX
 5
504
 8
0
 62
131
 10
0
 20
0.08
 30
0
 70
128
 71
388
 72
431
 73
387
 74
298
 0
VERTEX
 5
505
 8
0
 62
131
 10
0
 20
0.08
 30
0
 70
128
 71
463
 72
342
 73
387
 74
465
 0
VERTEX
 5
506
 8
0
 62
131
 10
0
 20
0.08
 30
0
 70
128
 71
347
 72
430
 73
431
 74
388
 0
VERTEX
 5
507
 8
0
 62
131
 10
0
 20
0.08
 30
0
 70
128
 71
389
 72
349
 73
432
 74
388
 0
VERTEX
 5
508
 8
0
 62
131
 10
0
 20
0.08
 30
0
 70
128
 71
391
 72
390
 73
432
 74
434
 0
VERTEX
 5
509
 8
0
 62
131
 10
0
 20
0.08
 30
0
 70
128
 71
435
 72
392
 73
390
 74
391
 0
VERTEX
 5
50A
 8
0
 62
131
 10
0
 20
0.08
 30
0
 70
128
 71
350
 72
392
 73
436
 74
393
 0
VERTEX
 5
50B
 8
0
 62
131
 10
0
 20
0.08
 30
0
 70
128
 71
391
 72
430
 73
342
 74
463
 0
VERTEX
 5
50C
 8
0
 62
131
 10
0
 20
0.08
 30
0
 70
128
 71
351
 72
393
 73
394
 74
352
 0
VERTEX
 5
50D
 8
0
 62
131
 10
0
 20
0.08
 30
0
 70
128
 71
433
 72
349
 73
394
 74
437
 0
VERTEX
 5
50E
 8
0
 62
131
 10
0
 20
0.08
 30
0
 70
128
 71
353
 72
395
 73
396
 74
438
 0
VERTEX
 5
50F
 8
0
 62
131
 10
0
 20
0.08
 30
0
 70
128
 71
413
 72
395
 73
304
 0
VERTEX
 5
510
 8
0
 62
131
 10
0
 20
0.08
 30
0
 70
128
 71
397
 72
398
 73
413
 0
VERTEX
 5
511
 8
0
 62
131
 10
0
 20
0.08
 30
0
 70
128
 71
304
 72
397
 73
413
 0
VERTEX
 5
512
 8
0
 62
131
 10
0
 20
0.08
 30
0
 70
128
 71
355
 72
306
 73
353
 74
438
 0
VERTEX
 5
513
 8
0
 62
131
 10
0
 20
0.08
 30
0
 70
128
 71
442
 72
355
 73
440
 74
471
 0
VERTEX
 5
514
 8
0
 62
131
 10
0
 20
0.08
 30
0
 70
128
 71
399
 72
442
 73
441
 0
VERTEX
 5
515
 8
0
 62
131
 10
0
 20
0.08
 30
0
 70
128
 71
441
 72
304
 73
399
 0
VERTEX
 5
516
 8
0
 62
131
 10
0
 20
0.08
 30
0
 70
128
 71
400
 72
401
 73
311
 74
402
 0
VERTEX
 5
517
 8
0
 62
131
 10
0
 20
0.08
 30
0
 70
128
 71
404
 72
361
 73
410
 74
403
 0
VERTEX
 5
518
 8
0
 62
131
 10
0
 20
0.08
 30
0
 70
128
 71
404
 72
411
 73
477
 74
405
 0
VERTEX
 5
519
 8
0
 62
131
 10
0
 20
0.08
 30
0
 70
128
 71
408
 72
405
 73
406
 74
407
 0
VERTEX
 5
51A
 8
0
 62
131
 10
0
 20
0.08
 30
0
 70
128
 71
328
 72
408
 73
407
 74
409
 0
VERTEX
 5
51B
 8
0
 62
131
 10
0
 20
0.08
 30
0
 70
128
 71
410
 72
407
 73
406
 74
403
 0
VERTEX
 5
51C
 8
0
 62
131
 10
0
 20
0.08
 30
0
 70
128
 71
401
 72
398
 73
411
 74
412
 0
VERTEX
 5
51D
 8
0
 62
131
 10
0
 20
0.08
 30
0
 70
128
 71
364
 72
444
 73
413
 74
400
 0
VERTEX
 5
51E
 8
0
 62
131
 10
0
 20
0.08
 30
0
 70
128
 71
364
 72
412
 73
411
 74
444
 0
VERTEX
 5
51F
 8
0
 62
131
 10
0
 20
0.08
 30
0
 70
128
 71
414
 72
415
 73
376
 74
375
 0
VERTEX
 5
520
 8
0
 62
131
 10
0
 20
0.08
 30
0
 70
128
 71
445
 72
330
 73
370
 74
416
 0
VERTEX
 5
521
 8
0
 62
131
 10
0
 20
0.08
 30
0
 70
128
 71
445
 72
417
 73
371
 74
367
 0
VERTEX
 5
522
 8
0
 62
131
 10
0
 20
0.08
 30
0
 70
128
 71
482
 72
416
 73
369
 74
373
 0
VERTEX
 5
523
 8
0
 62
131
 10
0
 20
0.08
 30
0
 70
128
 71
371
 72
417
 73
483
 74
418
 0
VERTEX
 5
524
 8
0
 62
131
 10
0
 20
0.08
 30
0
 70
128
 71
482
 72
373
 73
419
 74
447
 0
VERTEX
 5
525
 8
0
 62
131
 10
0
 20
0.08
 30
0
 70
128
 71
374
 72
418
 73
483
 74
420
 0
VERTEX
 5
526
 8
0
 62
131
 10
0
 20
0.08
 30
0
 70
128
 71
419
 72
376
 73
421
 74
447
 0
VERTEX
 5
527
 8
0
 62
131
 10
0
 20
0.08
 30
0
 70
128
 71
422
 72
333
 73
384
 74
383
 0
VERTEX
 5
528
 8
0
 62
131
 10
0
 20
0.08
 30
0
 70
128
 71
336
 72
450
 73
457
 74
335
 0
VERTEX
 5
529
 8
0
 62
131
 10
0
 20
0.08
 30
0
 70
128
 71
466
 72
450
 73
422
 74
448
 0
VERTEX
 5
52A
 8
0
 62
131
 10
0
 20
0.08
 30
0
 70
128
 71
423
 72
380
 73
381
 74
424
 0
VERTEX
 5
52B
 8
0
 62
131
 10
0
 20
0.08
 30
0
 70
128
 71
382
 72
423
 73
426
 74
452
 0
VERTEX
 5
52C
 8
0
 62
131
 10
0
 20
0.08
 30
0
 70
128
 71
424
 72
425
 73
490
 74
385
 0
VERTEX
 5
52D
 8
0
 62
131
 10
0
 20
0.08
 30
0
 70
128
 71
457
 72
456
 73
458
 74
383
 0
VERTEX
 5
52E
 8
0
 62
131
 10
0
 20
0.08
 30
0
 70
128
 71
426
 72
336
 73
335
 74
385
 0
VERTEX
 5
52F
 8
0
 62
131
 10
0
 20
0.08
 30
0
 70
128
 71
427
 72
428
 73
415
 74
414
 0
VERTEX
 5
530
 8
0
 62
131
 10
0
 20
0.08
 30
0
 70
128
 71
374
 72
429
 73
459
 74
428
 0
VERTEX
 5
531
 8
0
 62
131
 10
0
 20
0.08
 30
0
 70
128
 71
382
 72
464
 73
454
 74
425
 0
VERTEX
 5
532
 8
0
 62
131
 10
0
 20
0.08
 30
0
 70
128
 71
431
 72
434
 73
465
 74
387
 0
VERTEX
 5
533
 8
0
 62
131
 10
0
 20
0.08
 30
0
 70
128
 71
464
 72
463
 73
465
 74
454
 0
VERTEX
 5
534
 8
0
 62
131
 10
0
 20
0.08
 30
0
 70
128
 71
430
 72
391
 73
434
 74
431
 0
VERTEX
 5
535
 8
0
 62
131
 10
0
 20
0.08
 30
0
 70
128
 71
432
 72
349
 73
433
 0
VERTEX
 5
536
 8
0
 62
131
 10
0
 20
0.08
 30
0
 70
128
 71
433
 72
467
 73
434
 74
432
 0
VERTEX
 5
537
 8
0
 62
131
 10
0
 20
0.08
 30
0
 70
128
 71
392
 72
435
 73
467
 74
433
 0
VERTEX
 5
538
 8
0
 62
131
 10
0
 20
0.08
 30
0
 70
128
 71
463
 72
495
 73
435
 74
391
 0
VERTEX
 5
539
 8
0
 62
131
 10
0
 20
0.08
 30
0
 70
128
 71
449
 72
436
 73
392
 74
488
 0
VERTEX
 5
53A
 8
0
 62
131
 10
0
 20
0.08
 30
0
 70
128
 71
393
 72
436
 73
437
 74
394
 0
VERTEX
 5
53B
 8
0
 62
131
 10
0
 20
0.08
 30
0
 70
128
 71
437
 72
487
 73
489
 74
433
 0
VERTEX
 5
53C
 8
0
 62
131
 10
0
 20
0.08
 30
0
 70
128
 71
476
 72
396
 73
395
 0
VERTEX
 5
53D
 8
0
 62
131
 10
0
 20
0.08
 30
0
 70
128
 71
438
 72
396
 73
503
 74
439
 0
VERTEX
 5
53E
 8
0
 62
131
 10
0
 20
0.08
 30
0
 70
128
 71
304
 72
441
 73
443
 0
VERTEX
 5
53F
 8
0
 62
131
 10
0
 20
0.08
 30
0
 70
128
 71
443
 72
398
 73
397
 0
VERTEX
 5
540
 8
0
 62
131
 10
0
 20
0.08
 30
0
 70
128
 71
443
 72
397
 73
304
 0
VERTEX
 5
541
 8
0
 62
131
 10
0
 20
0.08
 30
0
 70
128
 71
401
 72
400
 73
413
 74
398
 0
VERTEX
 5
542
 8
0
 62
131
 10
0
 20
0.08
 30
0
 70
128
 71
499
 72
476
 73
395
 74
413
 0
VERTEX
 5
543
 8
0
 62
131
 10
0
 20
0.08
 30
0
 70
128
 71
440
 72
355
 73
438
 74
439
 0
VERTEX
 5
544
 8
0
 62
131
 10
0
 20
0.08
 30
0
 70
128
 71
472
 72
471
 73
440
 74
469
 0
VERTEX
 5
545
 8
0
 62
131
 10
0
 20
0.08
 30
0
 70
128
 71
442
 72
471
 73
503
 74
396
 0
VERTEX
 5
546
 8
0
 62
131
 10
0
 20
0.08
 30
0
 70
128
 71
441
 72
442
 73
473
 74
475
 0
VERTEX
 5
547
 8
0
 62
131
 10
0
 20
0.08
 30
0
 70
128
 71
411
 72
404
 73
403
 74
444
 0
VERTEX
 5
548
 8
0
 62
131
 10
0
 20
0.08
 30
0
 70
128
 71
477
 72
411
 73
398
 74
443
 0
VERTEX
 5
549
 8
0
 62
131
 10
0
 20
0.08
 30
0
 70
128
 71
405
 72
477
 73
480
 74
406
 0
VERTEX
 5
54A
 8
0
 62
131
 10
0
 20
0.08
 30
0
 70
128
 71
444
 72
403
 73
406
 74
480
 0
VERTEX
 5
54B
 8
0
 62
131
 10
0
 20
0.08
 30
0
 70
128
 71
444
 72
480
 73
499
 74
413
 0
VERTEX
 5
54C
 8
0
 62
131
 10
0
 20
0.08
 30
0
 70
128
 71
515
 72
376
 73
415
 74
460
 0
VERTEX
 5
54D
 8
0
 62
131
 10
0
 20
0.08
 30
0
 70
128
 71
417
 72
445
 73
416
 74
482
 0
VERTEX
 5
54E
 8
0
 62
131
 10
0
 20
0.08
 30
0
 70
128
 71
485
 72
483
 73
417
 74
446
 0
VERTEX
 5
54F
 8
0
 62
131
 10
0
 20
0.08
 30
0
 70
128
 71
447
 72
512
 73
486
 74
482
 0
VERTEX
 5
550
 8
0
 62
131
 10
0
 20
0.08
 30
0
 70
128
 71
420
 72
483
 73
447
 74
421
 0
VERTEX
 5
551
 8
0
 62
131
 10
0
 20
0.08
 30
0
 70
128
 71
420
 72
429
 73
374
 0
VERTEX
 5
552
 8
0
 62
131
 10
0
 20
0.08
 30
0
 70
128
 71
515
 72
421
 73
376
 0
VERTEX
 5
553
 8
0
 62
131
 10
0
 20
0.08
 30
0
 70
128
 71
448
 72
422
 73
383
 74
458
 0
VERTEX
 5
554
 8
0
 62
131
 10
0
 20
0.08
 30
0
 70
128
 71
450
 72
426
 73
385
 74
457
 0
VERTEX
 5
555
 8
0
 62
131
 10
0
 20
0.08
 30
0
 70
128
 71
466
 72
451
 73
450
 0
VERTEX
 5
556
 8
0
 62
131
 10
0
 20
0.08
 30
0
 70
128
 71
488
 72
466
 73
448
 74
449
 0
VERTEX
 5
557
 8
0
 62
131
 10
0
 20
0.08
 30
0
 70
128
 71
426
 72
450
 73
451
 74
452
 0
VERTEX
 5
558
 8
0
 62
131
 10
0
 20
0.08
 30
0
 70
128
 71
452
 72
453
 73
464
 74
382
 0
VERTEX
 5
559
 8
0
 62
131
 10
0
 20
0.08
 30
0
 70
128
 71
491
 72
490
 73
425
 74
454
 0
VERTEX
 5
55A
 8
0
 62
131
 10
0
 20
0.08
 30
0
 70
128
 71
457
 72
385
 73
490
 74
455
 0
VERTEX
 5
55B
 8
0
 62
131
 10
0
 20
0.08
 30
0
 70
128
 71
455
 72
456
 73
457
 0
VERTEX
 5
55C
 8
0
 62
131
 10
0
 20
0.08
 30
0
 70
128
 71
456
 72
489
 73
487
 74
458
 0
VERTEX
 5
55D
 8
0
 62
131
 10
0
 20
0.08
 30
0
 70
128
 71
428
 72
459
 73
460
 74
415
 0
VERTEX
 5
55E
 8
0
 62
131
 10
0
 20
0.08
 30
0
 70
128
 71
429
 72
461
 73
492
 74
459
 0
VERTEX
 5
55F
 8
0
 62
131
 10
0
 20
0.08
 30
0
 70
128
 71
462
 72
465
 73
434
 74
467
 0
VERTEX
 5
560
 8
0
 62
131
 10
0
 20
0.08
 30
0
 70
128
 71
453
 72
495
 73
463
 74
464
 0
VERTEX
 5
561
 8
0
 62
131
 10
0
 20
0.08
 30
0
 70
128
 71
462
 72
491
 73
454
 74
465
 0
VERTEX
 5
562
 8
0
 62
131
 10
0
 20
0.08
 30
0
 70
128
 71
435
 72
466
 73
456
 74
467
 0
VERTEX
 5
563
 8
0
 62
131
 10
0
 20
0.08
 30
0
 70
128
 71
488
 72
392
 73
433
 74
489
 0
VERTEX
 5
564
 8
0
 62
131
 10
0
 20
0.08
 30
0
 70
128
 71
495
 72
451
 73
466
 74
435
 0
VERTEX
 5
565
 8
0
 62
131
 10
0
 20
0.08
 30
0
 70
128
 71
436
 72
449
 73
487
 74
437
 0
VERTEX
 5
566
 8
0
 62
131
 10
0
 20
0.08
 30
0
 70
128
 71
396
 72
476
 73
474
 74
468
 0
VERTEX
 5
567
 8
0
 62
131
 10
0
 20
0.08
 30
0
 70
128
 71
503
 72
501
 73
498
 74
439
 0
VERTEX
 5
568
 8
0
 62
131
 10
0
 20
0.08
 30
0
 70
128
 71
443
 72
441
 73
476
 74
499
 0
VERTEX
 5
569
 8
0
 62
131
 10
0
 20
0.08
 30
0
 70
128
 71
469
 72
440
 73
439
 74
498
 0
VERTEX
 5
56A
 8
0
 62
131
 10
0
 20
0.08
 30
0
 70
128
 71
470
 72
471
 73
472
 0
VERTEX
 5
56B
 8
0
 62
131
 10
0
 20
0.08
 30
0
 70
128
 71
469
 72
519
 73
521
 74
472
 0
VERTEX
 5
56C
 8
0
 62
131
 10
0
 20
0.08
 30
0
 70
128
 71
471
 72
473
 73
468
 74
503
 0
VERTEX
 5
56D
 8
0
 62
131
 10
0
 20
0.08
 30
0
 70
128
 71
473
 72
442
 73
396
 74
468
 0
VERTEX
 5
56E
 8
0
 62
131
 10
0
 20
0.08
 30
0
 70
128
 71
441
 72
475
 73
474
 74
476
 0
VERTEX
 5
56F
 8
0
 62
131
 10
0
 20
0.08
 30
0
 70
128
 71
477
 72
443
 73
478
 74
479
 0
VERTEX
 5
570
 8
0
 62
131
 10
0
 20
0.08
 30
0
 70
128
 71
477
 72
479
 73
507
 74
480
 0
VERTEX
 5
571
 8
0
 62
131
 10
0
 20
0.08
 30
0
 70
128
 71
499
 72
480
 73
507
 74
504
 0
VERTEX
 5
572
 8
0
 62
131
 10
0
 20
0.08
 30
0
 70
128
 71
510
 72
515
 73
460
 74
481
 0
VERTEX
 5
573
 8
0
 62
131
 10
0
 20
0.08
 30
0
 70
128
 71
446
 72
417
 73
482
 74
486
 0
VERTEX
 5
574
 8
0
 62
131
 10
0
 20
0.08
 30
0
 70
128
 71
483
 72
485
 73
512
 74
447
 0
VERTEX
 5
575
 8
0
 62
131
 10
0
 20
0.08
 30
0
 70
128
 71
484
 72
485
 73
446
 74
513
 0
VERTEX
 5
576
 8
0
 62
131
 10
0
 20
0.08
 30
0
 70
128
 71
512
 72
514
 73
511
 74
486
 0
VERTEX
 5
577
 8
0
 62
131
 10
0
 20
0.08
 30
0
 70
128
 71
484
 72
420
 73
421
 74
514
 0
VERTEX
 5
578
 8
0
 62
131
 10
0
 20
0.08
 30
0
 70
128
 71
420
 72
484
 73
526
 74
429
 0
VERTEX
 5
579
 8
0
 62
131
 10
0
 20
0.08
 30
0
 70
128
 71
514
 72
421
 73
515
 74
516
 0
VERTEX
 5
57A
 8
0
 62
131
 10
0
 20
0.08
 30
0
 70
128
 71
449
 72
448
 73
458
 74
487
 0
VERTEX
 5
57B
 8
0
 62
131
 10
0
 20
0.08
 30
0
 70
128
 71
466
 72
488
 73
489
 74
456
 0
VERTEX
 5
57C
 8
0
 62
131
 10
0
 20
0.08
 30
0
 70
128
 71
452
 72
451
 73
455
 74
490
 0
VERTEX
 5
57D
 8
0
 62
131
 10
0
 20
0.08
 30
0
 70
128
 71
453
 72
452
 73
490
 74
491
 0
VERTEX
 5
57E
 8
0
 62
131
 10
0
 20
0.08
 30
0
 70
128
 71
455
 72
462
 73
467
 74
456
 0
VERTEX
 5
57F
 8
0
 62
131
 10
0
 20
0.08
 30
0
 70
128
 71
459
 72
492
 73
481
 74
460
 0
VERTEX
 5
580
 8
0
 62
131
 10
0
 20
0.08
 30
0
 70
128
 71
461
 72
429
 73
515
 74
510
 0
VERTEX
 5
581
 8
0
 62
131
 10
0
 20
0.08
 30
0
 70
128
 71
461
 72
493
 73
494
 74
492
 0
VERTEX
 5
582
 8
0
 62
131
 10
0
 20
0.08
 30
0
 70
128
 71
495
 72
453
 73
491
 74
462
 0
VERTEX
 5
583
 8
0
 62
131
 10
0
 20
0.08
 30
0
 70
128
 71
451
 72
495
 73
462
 74
455
 0
VERTEX
 5
584
 8
0
 62
131
 10
0
 20
0.08
 30
0
 70
128
 71
508
 72
502
 73
468
 74
474
 0
VERTEX
 5
585
 8
0
 62
131
 10
0
 20
0.08
 30
0
 70
128
 71
503
 72
496
 73
501
 0
VERTEX
 5
586
 8
0
 62
131
 10
0
 20
0.08
 30
0
 70
128
 71
497
 72
498
 73
501
 74
517
 0
VERTEX
 5
587
 8
0
 62
131
 10
0
 20
0.08
 30
0
 70
128
 71
478
 72
443
 73
499
 74
504
 0
VERTEX
 5
588
 8
0
 62
131
 10
0
 20
0.08
 30
0
 70
128
 71
519
 72
469
 73
498
 74
497
 0
VERTEX
 5
589
 8
0
 62
131
 10
0
 20
0.08
 30
0
 70
128
 71
472
 72
520
 73
500
 74
470
 0
VERTEX
 5
58A
 8
0
 62
131
 10
0
 20
0.08
 30
0
 70
128
 71
493
 72
521
 73
519
 74
494
 0
VERTEX
 5
58B
 8
0
 62
131
 10
0
 20
0.08
 30
0
 70
128
 71
472
 72
521
 73
517
 74
501
 0
VERTEX
 5
58C
 8
0
 62
131
 10
0
 20
0.08
 30
0
 70
128
 71
347
 72
390
 73
350
 74
345
 0
VERTEX
 5
58D
 8
0
 62
131
 10
0
 20
0.08
 30
0
 70
128
 71
503
 72
468
 73
502
 74
496
 0
VERTEX
 5
58E
 8
0
 62
131
 10
0
 20
0.08
 30
0
 70
128
 71
475
 72
478
 73
504
 74
474
 0
VERTEX
 5
58F
 8
0
 62
131
 10
0
 20
0.08
 30
0
 70
128
 71
345
 72
297
 73
343
 74
347
 0
VERTEX
 5
590
 8
0
 62
131
 10
0
 20
0.08
 30
0
 70
128
 71
505
 72
470
 73
496
 74
502
 0
VERTEX
 5
591
 8
0
 62
131
 10
0
 20
0.08
 30
0
 70
128
 71
505
 72
535
 73
522
 74
506
 0
VERTEX
 5
592
 8
0
 62
131
 10
0
 20
0.08
 30
0
 70
128
 71
131
 72
129
 73
168
 74
172
 0
VERTEX
 5
593
 8
0
 62
131
 10
0
 20
0.08
 30
0
 70
128
 71
475
 72
506
 73
479
 74
478
 0
VERTEX
 5
594
 8
0
 62
131
 10
0
 20
0.08
 30
0
 70
128
 71
479
 72
506
 73
508
 74
507
 0
VERTEX
 5
595
 8
0
 62
131
 10
0
 20
0.08
 30
0
 70
128
 71
508
 72
474
 73
504
 74
507
 0
VERTEX
 5
596
 8
0
 62
131
 10
0
 20
0.08
 30
0
 70
128
 71
509
 72
510
 73
481
 74
518
 0
VERTEX
 5
597
 8
0
 62
131
 10
0
 20
0.08
 30
0
 70
128
 71
513
 72
446
 73
486
 74
511
 0
VERTEX
 5
598
 8
0
 62
131
 10
0
 20
0.08
 30
0
 70
128
 71
485
 72
484
 73
514
 74
512
 0
VERTEX
 5
599
 8
0
 62
131
 10
0
 20
0.08
 30
0
 70
128
 71
484
 72
513
 73
527
 74
526
 0
VERTEX
 5
59A
 8
0
 62
131
 10
0
 20
0.08
 30
0
 70
128
 71
511
 72
514
 73
516
 74
538
 0
VERTEX
 5
59B
 8
0
 62
131
 10
0
 20
0.08
 30
0
 70
128
 71
429
 72
526
 73
516
 74
515
 0
VERTEX
 5
59C
 8
0
 62
131
 10
0
 20
0.08
 30
0
 70
128
 71
492
 72
494
 73
518
 74
481
 0
VERTEX
 5
59D
 8
0
 62
131
 10
0
 20
0.08
 30
0
 70
128
 71
526
 72
461
 73
510
 74
516
 0
VERTEX
 5
59E
 8
0
 62
131
 10
0
 20
0.08
 30
0
 70
128
 71
528
 72
493
 73
461
 0
VERTEX
 5
59F
 8
0
 62
131
 10
0
 20
0.08
 30
0
 70
128
 71
531
 72
502
 73
508
 74
536
 0
VERTEX
 5
5A0
 8
0
 62
131
 10
0
 20
0.08
 30
0
 70
128
 71
534
 72
501
 73
496
 74
533
 0
VERTEX
 5
5A1
 8
0
 62
131
 10
0
 20
0.08
 30
0
 70
128
 71
517
 72
509
 73
518
 74
497
 0
VERTEX
 5
5A2
 8
0
 62
131
 10
0
 20
0.08
 30
0
 70
128
 71
494
 72
519
 73
497
 74
518
 0
VERTEX
 5
5A3
 8
0
 62
131
 10
0
 20
0.08
 30
0
 70
128
 71
520
 72
472
 73
501
 74
534
 0
VERTEX
 5
5A4
 8
0
 62
131
 10
0
 20
0.08
 30
0
 70
128
 71
540
 72
523
 73
500
 74
520
 0
VERTEX
 5
5A5
 8
0
 62
131
 10
0
 20
0.08
 30
0
 70
128
 71
470
 72
500
 73
533
 74
496
 0
VERTEX
 5
5A6
 8
0
 62
131
 10
0
 20
0.08
 30
0
 70
128
 71
521
 72
493
 73
509
 74
517
 0
VERTEX
 5
5A7
 8
0
 62
131
 10
0
 20
0.08
 30
0
 70
128
 71
535
 72
505
 73
502
 74
531
 0
VERTEX
 5
5A8
 8
0
 62
131
 10
0
 20
0.08
 30
0
 70
128
 71
506
 72
522
 73
536
 74
508
 0
VERTEX
 5
5A9
 8
0
 62
131
 10
0
 20
0.08
 30
0
 70
128
 71
535
 72
500
 73
523
 74
522
 0
VERTEX
 5
5AA
 8
0
 62
131
 10
0
 20
0.08
 30
0
 70
128
 71
509
 72
524
 73
510
 0
VERTEX
 5
5AB
 8
0
 62
131
 10
0
 20
0.08
 30
0
 70
128
 71
525
 72
513
 73
511
 74
530
 0
VERTEX
 5
5AC
 8
0
 62
131
 10
0
 20
0.08
 30
0
 70
128
 71
537
 72
527
 73
513
 74
525
 0
VERTEX
 5
5AD
 8
0
 62
131
 10
0
 20
0.08
 30
0
 70
128
 71
461
 72
526
 73
527
 74
528
 0
VERTEX
 5
5AE
 8
0
 62
131
 10
0
 20
0.08
 30
0
 70
128
 71
516
 72
510
 73
524
 74
538
 0
VERTEX
 5
5AF
 8
0
 62
131
 10
0
 20
0.08
 30
0
 70
128
 71
538
 72
529
 73
530
 74
511
 0
VERTEX
 5
5B0
 8
0
 62
131
 10
0
 20
0.08
 30
0
 70
128
 71
528
 72
540
 73
520
 74
493
 0
VERTEX
 5
5B1
 8
0
 62
131
 10
0
 20
0.08
 30
0
 70
128
 71
533
 72
531
 73
536
 74
532
 0
VERTEX
 5
5B2
 8
0
 62
131
 10
0
 20
0.08
 30
0
 70
128
 71
532
 72
539
 73
534
 74
533
 0
VERTEX
 5
5B3
 8
0
 62
131
 10
0
 20
0.08
 30
0
 70
128
 71
493
 72
520
 73
534
 74
509
 0
VERTEX
 5
5B4
 8
0
 62
131
 10
0
 20
0.08
 30
0
 70
128
 71
540
 72
537
 73
525
 74
523
 0
VERTEX
 5
5B5
 8
0
 62
131
 10
0
 20
0.08
 30
0
 70
128
 71
500
 72
535
 73
531
 74
533
 0
VERTEX
 5
5B6
 8
0
 62
131
 10
0
 20
0.08
 30
0
 70
128
 71
522
 72
523
 73
532
 74
536
 0
VERTEX
 5
5B7
 8
0
 62
131
 10
0
 20
0.08
 30
0
 70
128
 71
539
 72
524
 73
509
 74
534
 0
VERTEX
 5
5B8
 8
0
 62
131
 10
0
 20
0.08
 30
0
 70
128
 71
523
 72
525
 73
530
 74
532
 0
VERTEX
 5
5B9
 8
0
 62
131
 10
0
 20
0.08
 30
0
 70
128
 71
527
 72
537
 73
529
 74
538
 0
VERTEX
 5
5BA
 8
0
 62
131
 10
0
 20
0.08
 30
0
 70
128
 71
528
 72
527
 73
538
 74
524
 0
VERTEX
 5
5BB
 8
0
 62
131
 10
0
 20
0.08
 30
0
 70
128
 71
529
 72
539
 73
532
 74
530
 0
VERTEX
 5
5BC
 8
0
 62
131
 10
0
 20
0.08
 30
0
 70
128
 71
540
 72
528
 73
524
 74
539
 0
VERTEX
 5
5BD
 8
0
 62
131
 10
0
 20
0.08
 30
0
 70
128
 71
537
 72
540
 73
539
 74
529
 0
VERTEX
 5
5BE
 8
0
 62
131
 10
0
 20
0.08
 30
0
 70
128
 71
541
 72
543
 73
542
 74
545
 0
VERTEX
 5
5BF
 8
0
 62
131
 10
0
 20
0.08
 30
0
 70
128
 71
552
 72
549
 73
543
 74
541
 0
VERTEX
 5
5C0
 8
0
 62
131
 10
0
 20
0.08
 30
0
 70
128
 71
542
 72
543
 73
554
 74
544
 0
VERTEX
 5
5C1
 8
0
 62
131
 10
0
 20
0.08
 30
0
 70
128
 71
545
 72
542
 73
556
 74
546
 0
VERTEX
 5
5C2
 8
0
 62
131
 10
0
 20
0.08
 30
0
 70
128
 71
541
 72
545
 73
547
 74
548
 0
VERTEX
 5
5C3
 8
0
 62
131
 10
0
 20
0.08
 30
0
 70
128
 71
549
 72
552
 73
559
 74
568
 0
VERTEX
 5
5C4
 8
0
 62
131
 10
0
 20
0.08
 30
0
 70
128
 71
550
 72
543
 73
549
 74
551
 0
VERTEX
 5
5C5
 8
0
 62
131
 10
0
 20
0.08
 30
0
 70
128
 71
552
 72
541
 73
548
 74
559
 0
VERTEX
 5
5C6
 8
0
 62
131
 10
0
 20
0.08
 30
0
 70
128
 71
543
 72
550
 73
553
 74
554
 0
VERTEX
 5
5C7
 8
0
 62
131
 10
0
 20
0.08
 30
0
 70
128
 71
554
 72
553
 73
561
 74
544
 0
VERTEX
 5
5C8
 8
0
 62
131
 10
0
 20
0.08
 30
0
 70
128
 71
555
 72
542
 73
544
 74
561
 0
VERTEX
 5
5C9
 8
0
 62
131
 10
0
 20
0.08
 30
0
 70
128
 71
562
 72
556
 73
542
 74
555
 0
VERTEX
 5
5CA
 8
0
 62
131
 10
0
 20
0.08
 30
0
 70
128
 71
546
 72
556
 73
565
 74
557
 0
VERTEX
 5
5CB
 8
0
 62
131
 10
0
 20
0.08
 30
0
 70
128
 71
545
 72
546
 73
557
 74
547
 0
VERTEX
 5
5CC
 8
0
 62
131
 10
0
 20
0.08
 30
0
 70
128
 71
566
 72
548
 73
547
 74
558
 0
VERTEX
 5
5CD
 8
0
 62
131
 10
0
 20
0.08
 30
0
 70
128
 71
568
 72
559
 73
548
 74
566
 0
VERTEX
 5
5CE
 8
0
 62
131
 10
0
 20
0.08
 30
0
 70
128
 71
551
 72
549
 73
568
 74
560
 0
VERTEX
 5
5CF
 8
0
 62
131
 10
0
 20
0.08
 30
0
 70
128
 71
581
 72
550
 73
551
 74
569
 0
VERTEX
 5
5D0
 8
0
 62
131
 10
0
 20
0.08
 30
0
 70
128
 71
550
 72
555
 73
561
 74
553
 0
VERTEX
 5
5D1
 8
0
 62
131
 10
0
 20
0.08
 30
0
 70
128
 71
556
 72
562
 73
563
 74
565
 0
VERTEX
 5
5D2
 8
0
 62
131
 10
0
 20
0.08
 30
0
 70
128
 71
571
 72
562
 73
555
 74
564
 0
VERTEX
 5
5D3
 8
0
 62
131
 10
0
 20
0.08
 30
0
 70
128
 71
558
 72
547
 73
557
 74
565
 0
VERTEX
 5
5D4
 8
0
 62
131
 10
0
 20
0.08
 30
0
 70
128
 71
566
 72
558
 73
578
 74
577
 0
VERTEX
 5
5D5
 8
0
 62
131
 10
0
 20
0.08
 30
0
 70
128
 71
566
 72
567
 73
560
 74
568
 0
VERTEX
 5
5D6
 8
0
 62
131
 10
0
 20
0.08
 30
0
 70
128
 71
569
 72
551
 73
560
 74
580
 0
VERTEX
 5
5D7
 8
0
 62
131
 10
0
 20
0.08
 30
0
 70
128
 71
564
 72
555
 73
550
 74
581
 0
VERTEX
 5
5D8
 8
0
 62
131
 10
0
 20
0.08
 30
0
 70
128
 71
582
 72
581
 73
569
 74
570
 0
VERTEX
 5
5D9
 8
0
 62
131
 10
0
 20
0.08
 30
0
 70
128
 71
562
 72
571
 73
593
 74
563
 0
VERTEX
 5
5DA
 8
0
 62
131
 10
0
 20
0.08
 30
0
 70
128
 71
565
 72
563
 73
572
 74
558
 0
VERTEX
 5
5DB
 8
0
 62
131
 10
0
 20
0.08
 30
0
 70
128
 71
573
 72
571
 73
564
 74
574
 0
VERTEX
 5
5DC
 8
0
 62
131
 10
0
 20
0.08
 30
0
 70
128
 71
558
 72
572
 73
575
 74
578
 0
VERTEX
 5
5DD
 8
0
 62
131
 10
0
 20
0.08
 30
0
 70
128
 71
576
 72
577
 73
578
 74
575
 0
VERTEX
 5
5DE
 8
0
 62
131
 10
0
 20
0.08
 30
0
 70
128
 71
567
 72
566
 73
577
 74
576
 0
VERTEX
 5
5DF
 8
0
 62
131
 10
0
 20
0.08
 30
0
 70
128
 71
567
 72
579
 73
580
 74
560
 0
VERTEX
 5
5E0
 8
0
 62
131
 10
0
 20
0.08
 30
0
 70
128
 71
570
 72
569
 73
580
 74
587
 0
VERTEX
 5
5E1
 8
0
 62
131
 10
0
 20
0.08
 30
0
 70
128
 71
564
 72
581
 73
589
 74
584
 0
VERTEX
 5
5E2
 8
0
 62
131
 10
0
 20
0.08
 30
0
 70
128
 71
581
 72
582
 73
591
 74
589
 0
VERTEX
 5
5E3
 8
0
 62
131
 10
0
 20
0.08
 30
0
 70
128
 71
583
 72
582
 73
570
 74
588
 0
VERTEX
 5
5E4
 8
0
 62
131
 10
0
 20
0.08
 30
0
 70
128
 71
571
 72
573
 73
604
 74
593
 0
VERTEX
 5
5E5
 8
0
 62
131
 10
0
 20
0.08
 30
0
 70
128
 71
563
 72
593
 73
594
 74
572
 0
VERTEX
 5
5E6
 8
0
 62
131
 10
0
 20
0.08
 30
0
 70
128
 71
574
 72
564
 73
584
 74
590
 0
VERTEX
 5
5E7
 8
0
 62
131
 10
0
 20
0.08
 30
0
 70
128
 71
585
 72
573
 73
574
 74
599
 0
VERTEX
 5
5E8
 8
0
 62
131
 10
0
 20
0.08
 30
0
 70
128
 71
572
 72
567
 73
576
 74
575
 0
VERTEX
 5
5E9
 8
0
 62
131
 10
0
 20
0.08
 30
0
 70
128
 71
572
 72
594
 73
579
 74
567
 0
VERTEX
 5
5EA
 8
0
 62
131
 10
0
 20
0.08
 30
0
 70
128
 71
579
 72
586
 73
587
 74
580
 0
VERTEX
 5
5EB
 8
0
 62
131
 10
0
 20
0.08
 30
0
 70
128
 71
588
 72
570
 73
587
 74
597
 0
VERTEX
 5
5EC
 8
0
 62
131
 10
0
 20
0.08
 30
0
 70
128
 71
589
 72
591
 73
590
 74
584
 0
VERTEX
 5
5ED
 8
0
 62
131
 10
0
 20
0.08
 30
0
 70
128
 71
582
 72
574
 73
590
 74
591
 0
VERTEX
 5
5EE
 8
0
 62
131
 10
0
 20
0.08
 30
0
 70
128
 71
582
 72
583
 73
599
 74
574
 0
VERTEX
 5
5EF
 8
0
 62
131
 10
0
 20
0.08
 30
0
 70
128
 71
614
 72
583
 73
588
 74
602
 0
VERTEX
 5
5F0
 8
0
 62
131
 10
0
 20
0.08
 30
0
 70
128
 71
573
 72
585
 73
592
 74
604
 0
VERTEX
 5
5F1
 8
0
 62
131
 10
0
 20
0.08
 30
0
 70
128
 71
593
 72
604
 73
605
 74
594
 0
VERTEX
 5
5F2
 8
0
 62
131
 10
0
 20
0.08
 30
0
 70
128
 71
608
 72
585
 73
599
 74
606
 0
VERTEX
 5
5F3
 8
0
 62
131
 10
0
 20
0.08
 30
0
 70
128
 71
579
 72
594
 73
609
 74
595
 0
VERTEX
 5
5F4
 8
0
 62
131
 10
0
 20
0.08
 30
0
 70
128
 71
586
 72
579
 73
595
 74
596
 0
VERTEX
 5
5F5
 8
0
 62
131
 10
0
 20
0.08
 30
0
 70
128
 71
586
 72
611
 73
597
 74
587
 0
VERTEX
 5
5F6
 8
0
 62
131
 10
0
 20
0.08
 30
0
 70
128
 71
602
 72
588
 73
597
 74
598
 0
VERTEX
 5
5F7
 8
0
 62
131
 10
0
 20
0.08
 30
0
 70
128
 71
599
 72
583
 73
600
 74
607
 0
VERTEX
 5
5F8
 8
0
 62
131
 10
0
 20
0.08
 30
0
 70
128
 71
583
 72
614
 73
601
 74
600
 0
VERTEX
 5
5F9
 8
0
 62
131
 10
0
 20
0.08
 30
0
 70
128
 71
615
 72
614
 73
602
 74
603
 0
VERTEX
 5
5FA
 8
0
 62
131
 10
0
 20
0.08
 30
0
 70
128
 71
585
 72
608
 73
618
 74
592
 0
VERTEX
 5
5FB
 8
0
 62
131
 10
0
 20
0.08
 30
0
 70
128
 71
604
 72
592
 73
625
 74
605
 0
VERTEX
 5
5FC
 8
0
 62
131
 10
0
 20
0.08
 30
0
 70
128
 71
594
 72
605
 73
610
 74
609
 0
VERTEX
 5
5FD
 8
0
 62
131
 10
0
 20
0.08
 30
0
 70
128
 71
606
 72
599
 73
607
 74
613
 0
VERTEX
 5
5FE
 8
0
 62
131
 10
0
 20
0.08
 30
0
 70
128
 71
616
 72
608
 73
606
 74
620
 0
VERTEX
 5
5FF
 8
0
 62
131
 10
0
 20
0.08
 30
0
 70
128
 71
596
 72
595
 73
609
 74
610
 0
VERTEX
 5
600
 8
0
 62
131
 10
0
 20
0.08
 30
0
 70
128
 71
605
 72
586
 73
596
 74
610
 0
VERTEX
 5
601
 8
0
 62
131
 10
0
 20
0.08
 30
0
 70
128
 71
611
 72
586
 73
605
 74
625
 0
VERTEX
 5
602
 8
0
 62
131
 10
0
 20
0.08
 30
0
 70
128
 71
611
 72
623
 73
598
 74
597
 0
VERTEX
 5
603
 8
0
 62
131
 10
0
 20
0.08
 30
0
 70
128
 71
603
 72
602
 73
598
 74
612
 0
VERTEX
 5
604
 8
0
 62
131
 10
0
 20
0.08
 30
0
 70
128
 71
600
 72
601
 73
613
 74
607
 0
VERTEX
 5
605
 8
0
 62
131
 10
0
 20
0.08
 30
0
 70
128
 71
614
 72
606
 73
613
 74
601
 0
VERTEX
 5
606
 8
0
 62
131
 10
0
 20
0.08
 30
0
 70
128
 71
620
 72
606
 73
614
 74
615
 0
VERTEX
 5
607
 8
0
 62
131
 10
0
 20
0.08
 30
0
 70
128
 71
615
 72
603
 73
612
 74
628
 0
VERTEX
 5
608
 8
0
 62
131
 10
0
 20
0.08
 30
0
 70
128
 71
608
 72
616
 73
617
 74
618
 0
VERTEX
 5
609
 8
0
 62
131
 10
0
 20
0.08
 30
0
 70
128
 71
592
 72
618
 73
619
 74
625
 0
VERTEX
 5
60A
 8
0
 62
131
 10
0
 20
0.08
 30
0
 70
128
 71
616
 72
620
 73
624
 74
617
 0
VERTEX
 5
60B
 8
0
 62
131
 10
0
 20
0.08
 30
0
 70
128
 71
611
 72
625
 73
621
 74
622
 0
VERTEX
 5
60C
 8
0
 62
131
 10
0
 20
0.08
 30
0
 70
128
 71
623
 72
611
 73
622
 74
626
 0
VERTEX
 5
60D
 8
0
 62
131
 10
0
 20
0.08
 30
0
 70
128
 71
623
 72
628
 73
612
 74
598
 0
VERTEX
 5
60E
 8
0
 62
131
 10
0
 20
0.08
 30
0
 70
128
 71
620
 72
615
 73
628
 74
624
 0
VERTEX
 5
60F
 8
0
 62
131
 10
0
 20
0.08
 30
0
 70
128
 71
618
 72
617
 73
624
 74
619
 0
VERTEX
 5
610
 8
0
 62
131
 10
0
 20
0.08
 30
0
 70
128
 71
625
 72
619
 73
627
 74
621
 0
VERTEX
 5
611
 8
0
 62
131
 10
0
 20
0.08
 30
0
 70
128
 71
626
 72
622
 73
621
 74
627
 0
VERTEX
 5
612
 8
0
 62
131
 10
0
 20
0.08
 30
0
 70
128
 71
619
 72
623
 73
626
 74
627
 0
VERTEX
 5
613
 8
0
 62
131
 10
0
 20
0.08
 30
0
 70
128
 71
619
 72
624
 73
628
 74
623
 0
VERTEX
 5
614
 8
0
 62
131
 10
0
 20
0.08
 30
0
 70
128
 71
631
 72
629
 73
630
 74
634
 0
VERTEX
 5
615
 8
0
 62
131
 10
0
 20
0.08
 30
0
 70
128
 71
629
 72
631
 73
636
 74
639
 0
VERTEX
 5
616
 8
0
 62
131
 10
0
 20
0.08
 30
0
 70
128
 71
640
 72
630
 73
629
 74
632
 0
VERTEX
 5
617
 8
0
 62
131
 10
0
 20
0.08
 30
0
 70
128
 71
630
 72
633
 73
635
 74
634
 0
VERTEX
 5
618
 8
0
 62
131
 10
0
 20
0.08
 30
0
 70
128
 71
634
 72
635
 73
636
 74
631
 0
VERTEX
 5
619
 8
0
 62
131
 10
0
 20
0.08
 30
0
 70
128
 71
639
 72
636
 73
637
 74
638
 0
VERTEX
 5
61A
 8
0
 62
131
 10
0
 20
0.08
 30
0
 70
128
 71
629
 72
639
 73
641
 74
632
 0
VERTEX
 5
61B
 8
0
 62
131
 10
0
 20
0.08
 30
0
 70
128
 71
640
 72
645
 73
633
 74
630
 0
VERTEX
 5
61C
 8
0
 62
131
 10
0
 20
0.08
 30
0
 70
128
 71
640
 72
632
 73
641
 74
645
 0
VERTEX
 5
61D
 8
0
 62
131
 10
0
 20
0.08
 30
0
 70
128
 71
642
 72
635
 73
633
 74
646
 0
VERTEX
 5
61E
 8
0
 62
131
 10
0
 20
0.08
 30
0
 70
128
 71
642
 72
636
 73
635
 0
VERTEX
 5
61F
 8
0
 62
131
 10
0
 20
0.08
 30
0
 70
128
 71
637
 72
636
 73
643
 74
657
 0
VERTEX
 5
620
 8
0
 62
131
 10
0
 20
0.08
 30
0
 70
128
 71
638
 72
637
 73
650
 74
649
 0
VERTEX
 5
621
 8
0
 62
131
 10
0
 20
0.08
 30
0
 70
128
 71
639
 72
638
 73
644
 74
641
 0
VERTEX
 5
622
 8
0
 62
131
 10
0
 20
0.08
 30
0
 70
128
 71
646
 72
633
 73
645
 74
647
 0
VERTEX
 5
623
 8
0
 62
131
 10
0
 20
0.08
 30
0
 70
128
 71
645
 72
641
 73
644
 74
652
 0
VERTEX
 5
624
 8
0
 62
131
 10
0
 20
0.08
 30
0
 70
128
 71
642
 72
646
 73
655
 74
654
 0
VERTEX
 5
625
 8
0
 62
131
 10
0
 20
0.08
 30
0
 70
128
 71
642
 72
643
 73
636
 0
VERTEX
 5
626
 8
0
 62
131
 10
0
 20
0.08
 30
0
 70
128
 71
647
 72
651
 73
657
 74
643
 0
VERTEX
 5
627
 8
0
 62
131
 10
0
 20
0.08
 30
0
 70
128
 71
658
 72
637
 73
657
 74
648
 0
VERTEX
 5
628
 8
0
 62
131
 10
0
 20
0.08
 30
0
 70
128
 71
650
 72
637
 73
658
 74
659
 0
VERTEX
 5
629
 8
0
 62
131
 10
0
 20
0.08
 30
0
 70
128
 71
659
 72
662
 73
649
 74
650
 0
VERTEX
 5
62A
 8
0
 62
131
 10
0
 20
0.08
 30
0
 70
128
 71
653
 72
644
 73
638
 74
649
 0
VERTEX
 5
62B
 8
0
 62
131
 10
0
 20
0.08
 30
0
 70
128
 71
651
 72
647
 73
645
 74
652
 0
VERTEX
 5
62C
 8
0
 62
131
 10
0
 20
0.08
 30
0
 70
128
 71
647
 72
664
 73
655
 74
646
 0
VERTEX
 5
62D
 8
0
 62
131
 10
0
 20
0.08
 30
0
 70
128
 71
652
 72
644
 73
653
 74
663
 0
VERTEX
 5
62E
 8
0
 62
131
 10
0
 20
0.08
 30
0
 70
128
 71
642
 72
654
 73
665
 74
643
 0
VERTEX
 5
62F
 8
0
 62
131
 10
0
 20
0.08
 30
0
 70
128
 71
647
 72
643
 73
665
 74
664
 0
VERTEX
 5
630
 8
0
 62
131
 10
0
 20
0.08
 30
0
 70
128
 71
654
 72
655
 73
656
 74
668
 0
VERTEX
 5
631
 8
0
 62
131
 10
0
 20
0.08
 30
0
 70
128
 71
667
 72
666
 73
657
 74
651
 0
VERTEX
 5
632
 8
0
 62
131
 10
0
 20
0.08
 30
0
 70
128
 71
657
 72
666
 73
668
 74
648
 0
VERTEX
 5
633
 8
0
 62
131
 10
0
 20
0.08
 30
0
 70
128
 71
661
 72
660
 73
658
 74
648
 0
VERTEX
 5
634
 8
0
 62
131
 10
0
 20
0.08
 30
0
 70
128
 71
659
 72
658
 73
660
 74
662
 0
VERTEX
 5
635
 8
0
 62
131
 10
0
 20
0.08
 30
0
 70
128
 71
653
 72
649
 73
662
 74
663
 0
VERTEX
 5
636
 8
0
 62
131
 10
0
 20
0.08
 30
0
 70
128
 71
651
 72
652
 73
660
 74
661
 0
VERTEX
 5
637
 8
0
 62
131
 10
0
 20
0.08
 30
0
 70
128
 71
664
 72
667
 73
656
 74
655
 0
VERTEX
 5
638
 8
0
 62
131
 10
0
 20
0.08
 30
0
 70
128
 71
662
 72
660
 73
652
 74
663
 0
VERTEX
 5
639
 8
0
 62
131
 10
0
 20
0.08
 30
0
 70
128
 71
654
 72
668
 73
666
 74
665
 0
VERTEX
 5
63A
 8
0
 62
131
 10
0
 20
0.08
 30
0
 70
128
 71
664
 72
665
 73
666
 74
667
 0
VERTEX
 5
63B
 8
0
 62
131
 10
0
 20
0.08
 30
0
 70
128
 71
668
 72
656
 73
661
 74
648
 0
VERTEX
 5
63C
 8
0
 62
131
 10
0
 20
0.08
 30
0
 70
128
 71
661
 72
656
 73
667
 74
651
 0
SEQEND
 5
63D
 8
0
 62
131
 0
ENDSEC
 0
EOF
