 0
SECTION
 2
HEADER
 9
$ACADVER
 1
AC1009
 9
$INSBASE
 10
0.0
 20
0.0
 30
0.0
 9
$EXTMIN
 10
0.005
 20
0.0
 30
0.0
 9
$EXTMAX
 10
0.335
 20
0.4950000000000001
 30
0.0
 9
$LIMMIN
 10
0.0
 20
0.0
 9
$LIMMAX
 10
12.0
 20
9.0
 9
$ORTHOMODE
 70
1
 9
$REGENMODE
 70
1
 9
$FILLMODE
 70
1
 9
$QTEXTMODE
 70
0
 9
$MIRRTEXT
 70
0
 9
$DRAGMODE
 70
2
 9
$LTSCALE
 40
1.0
 9
$OSMODE
 70
43
 9
$ATTMODE
 70
1
 9
$TEXTSIZE
 40
0.2
 9
$TRACEWID
 40
0.05
 9
$TEXTSTYLE
 7
STANDARD
 9
$CLAYER
 8
0
 9
$CELTYPE
 6
BYLAYER
 9
$CECOLOR
 62
256
 9
$DIMSCALE
 40
1.0
 9
$DIMASZ
 40
0.18
 9
$DIMEXO
 40
0.0625
 9
$DIMDLI
 40
0.38
 9
$DIMRND
 40
0.0
 9
$DIMDLE
 40
0.0
 9
$DIMEXE
 40
0.18
 9
$DIMTP
 40
0.0
 9
$DIMTM
 40
0.0
 9
$DIMTXT
 40
0.18
 9
$DIMCEN
 40
0.09
 9
$DIMTSZ
 40
0.0
 9
$DIMTOL
 70
0
 9
$DIMLIM
 70
0
 9
$DIMTIH
 70
1
 9
$DIMTOH
 70
1
 9
$DIMSE1
 70
0
 9
$DIMSE2
 70
0
 9
$DIMTAD
 70
0
 9
$DIMZIN
 70
0
 9
$DIMBLK
 1

 9
$DIMASO
 70
1
 9
$DIMSHO
 70
1
 9
$DIMPOST
 1

 9
$DIMAPOST
 1

 9
$DIMALT
 70
0
 9
$DIMALTD
 70
2
 9
$DIMALTF
 40
25.3999999999999986
 9
$DIMLFAC
 40
1.0
 9
$DIMTOFL
 70
0
 9
$DIMTVP
 40
0.0
 9
$DIMTIX
 70
0
 9
$DIMSOXD
 70
0
 9
$DIMSAH
 70
0
 9
$DIMBLK1
 1

 9
$DIMBLK2
 1

 9
$DIMSTYLE
 2
STANDARD
 9
$DIMCLRD
 70
0
 9
$DIMCLRE
 70
0
 9
$DIMCLRT
 70
0
 9
$DIMTFAC
 40
1.0
 9
$DIMGAP
 40
0.09
 9
$LUNITS
 70
2
 9
$LUPREC
 70
4
 9
$SKETCHINC
 40
0.1
 9
$FILLETRAD
 40
0.0
 9
$AUNITS
 70
0
 9
$AUPREC
 70
0
 9
$MENU
 1
.
 9
$ELEVATION
 40
0.0
 9
$PELEVATION
 40
0.0
 9
$THICKNESS
 40
0.0
 9
$LIMCHECK
 70
0
 9
$BLIPMODE
 70
0
 9
$CHAMFERA
 40
0.0
 9
$CHAMFERB
 40
0.0
 9
$SKPOLY
 70
0
 9
$TDCREATE
 40
2458893.5274768518283963
 9
$TDUPDATE
 40
2458912.7128472221083939
 9
$TDINDWG
 40
0.0693865741
 9
$TDUSRTIMER
 40
0.0693865741
 9
$USRTIMER
 70
1
 9
$ANGBASE
 50
0.0
 9
$ANGDIR
 70
0
 9
$PDMODE
 70
0
 9
$PDSIZE
 40
0.0
 9
$PLINEWID
 40
0.0
 9
$COORDS
 70
1
 9
$SPLFRAME
 70
0
 9
$SPLINETYPE
 70
6
 9
$SPLINESEGS
 70
8
 9
$ATTDIA
 70
0
 9
$ATTREQ
 70
1
 9
$HANDLING
 70
1
 9
$HANDSEED
 5
69A
 9
$SURFTAB1
 70
6
 9
$SURFTAB2
 70
6
 9
$SURFTYPE
 70
6
 9
$SURFU
 70
6
 9
$SURFV
 70
6
 9
$UCSNAME
 2

 9
$UCSORG
 10
0.0
 20
0.0
 30
0.0
 9
$UCSXDIR
 10
1.0
 20
0.0
 30
0.0
 9
$UCSYDIR
 10
0.0
 20
1.0
 30
0.0
 9
$PUCSNAME
 2

 9
$PUCSORG
 10
0.0
 20
0.0
 30
0.0
 9
$PUCSXDIR
 10
1.0
 20
0.0
 30
0.0
 9
$PUCSYDIR
 10
0.0
 20
1.0
 30
0.0
 9
$USERI1
 70
0
 9
$USERI2
 70
0
 9
$USERI3
 70
0
 9
$USERI4
 70
0
 9
$USERI5
 70
0
 9
$USERR1
 40
0.0
 9
$USERR2
 40
0.0
 9
$USERR3
 40
0.0
 9
$USERR4
 40
0.0
 9
$USERR5
 40
0.0
 9
$WORLDVIEW
 70
1
 9
$SHADEDGE
 70
3
 9
$SHADEDIF
 70
70
 9
$TILEMODE
 70
1
 9
$MAXACTVP
 70
64
 9
$PLIMCHECK
 70
0
 9
$PEXTMIN
 10
1.0000000000000000E+20
 20
1.0000000000000000E+20
 30
1.0000000000000000E+20
 9
$PEXTMAX
 10
-1.0000000000000000E+20
 20
-1.0000000000000000E+20
 30
-1.0000000000000000E+20
 9
$PLIMMIN
 10
0.0
 20
0.0
 9
$PLIMMAX
 10
12.0
 20
9.0
 9
$UNITMODE
 70
0
 9
$VISRETAIN
 70
1
 9
$PLINEGEN
 70
0
 9
$PSLTSCALE
 70
1
 0
ENDSEC
 0
SECTION
 2
TABLES
 0
TABLE
 2
VPORT
 70
1
 0
VPORT
 2
*ACTIVE
 70
0
 10
0.0
 20
0.0
 11
1.0
 21
1.0
 12
0.3495565868392942
 22
0.2463717519273181
 13
0.0
 23
0.0
 14
1.0
 24
1.0
 15
0.0
 25
0.0
 16
0.0
 26
0.0
 36
1.0
 17
0.0
 27
0.0
 37
0.0
 40
1.3038827917097171
 41
1.8654073199527741
 42
50.0
 43
0.0
 44
0.0
 50
0.0
 51
0.0
 71
0
 72
1000
 73
1
 74
3
 75
0
 76
0
 77
0
 78
0
 0
ENDTAB
 0
TABLE
 2
LTYPE
 70
2
 0
LTYPE
 2
CONTINUOUS
 70
0
 3
Solid line
 72
65
 73
0
 40
0.0
 0
ENDTAB
 0
TABLE
 2
LAYER
 70
1
 0
LAYER
 2
0
 70
0
 62
7
 6
CONTINUOUS
 0
ENDTAB
 0
TABLE
 2
STYLE
 70
2
 0
STYLE
 2
STANDARD
 70
0
 40
0.0
 41
1.0
 50
0.0
 71
0
 42
0.2
 3
txt
 4

 0
STYLE
 2
ANNOTATIVE
 70
0
 40
0.0
 41
1.0
 50
0.0
 71
0
 42
0.2
 3
txt
 4

 0
ENDTAB
 0
TABLE
 2
VIEW
 70
0
 0
ENDTAB
 0
TABLE
 2
UCS
 70
0
 0
ENDTAB
 0
TABLE
 2
APPID
 70
5
 0
APPID
 2
ACAD
 70
0
 0
APPID
 2
ACADANNOTATIVE
 70
0
 0
APPID
 2
ACAD_NAV_VCDISPLAY
 70
0
 0
APPID
 2
ACAD_EXEMPT_FROM_CAD_STANDARDS
 70
0
 0
APPID
 2
ACAD_MLEADERVER
 70
0
 0
ENDTAB
 0
TABLE
 2
DIMSTYLE
 70
3
 0
DIMSTYLE
 2
STANDARD
 70
0
 3

 4

 5

 6

 7

 40
1.0
 41
0.18
 42
0.0625
 43
0.38
 44
0.18
 45
0.0
 46
0.0
 47
0.0
 48
0.0
 140
0.18
 141
0.09
 142
0.0
 143
25.3999999999999986
 144
1.0
 145
0.0
 146
1.0
 147
0.09
 71
0
 72
0
 73
1
 74
1
 75
0
 76
0
 77
0
 78
0
 170
0
 171
2
 172
0
 173
0
 174
0
 175
0
 176
0
 177
0
 178
0
 0
DIMSTYLE
 2
ANNOTATIVE
 70
0
 3

 4

 5

 6

 7

 40
1.0
 41
0.18
 42
0.0625
 43
0.38
 44
0.18
 45
0.0
 46
0.0
 47
0.0
 48
0.0
 140
0.18
 141
0.09
 142
0.0
 143
25.3999999999999986
 144
1.0
 145
0.0
 146
1.0
 147
0.09
 71
0
 72
0
 73
1
 74
1
 75
0
 76
0
 77
0
 78
0
 170
0
 171
2
 172
0
 173
0
 174
0
 175
0
 176
0
 177
0
 178
0
 0
ENDTAB
 0
ENDSEC
 0
SECTION
 2
BLOCKS
 0
BLOCK
 8
0
 2
$MODEL_SPACE
 70
0
 10
0.0
 20
0.0
 30
0.0
 3
$MODEL_SPACE
 1

 0
ENDBLK
 5
5F3
 8
0
 0
BLOCK
 67
1
 8
0
 2
$PAPER_SPACE
 70
0
 10
0.0
 20
0.0
 30
0.0
 3
$PAPER_SPACE
 1

 0
ENDBLK
 5
5EF
 67
1
 8
0
 0
BLOCK
 8
0
 2
PARAPET
 70
0
 10
0.0
 20
0.0
 30
0.0
 3
PARAPET
 1

 0
POLYLINE
 5
38D
 8
0
 66
1
 10
0.0
 20
0.0
 30
0.0
 0
VERTEX
 5
619
 8
0
 10
0.25
 20
0.0
 30
0.0
 0
VERTEX
 5
61A
 8
0
 10
0.25
 20
0.7950000000000002
 30
0.0
 0
VERTEX
 5
61B
 8
0
 10
0.09
 20
0.7950000000000002
 30
0.0
 0
VERTEX
 5
61C
 8
0
 10
0.09
 20
0.02
 30
0.0
 0
VERTEX
 5
61D
 8
0
 10
-0.08
 20
0.02
 30
0.0
 0
VERTEX
 5
61E
 8
0
 10
-0.08
 20
0.0
 30
0.0
 0
SEQEND
 5
61F
 8
0
 0
POLYLINE
 5
38E
 8
0
 62
255
 66
1
 10
0.0
 20
0.0
 30
0.0
 0
VERTEX
 5
620
 8
0
 62
255
 10
0.265
 20
0.7950000000000002
 30
0.0
 0
VERTEX
 5
621
 8
0
 62
255
 10
0.268
 20
0.8070000000000001
 30
0.0
 0
VERTEX
 5
622
 8
0
 62
255
 10
0.274
 20
0.8159999999999999
 30
0.0
 0
VERTEX
 5
623
 8
0
 62
255
 10
0.283
 20
0.822
 30
0.0
 0
VERTEX
 5
624
 8
0
 62
255
 10
0.295
 20
0.825
 30
0.0
 0
VERTEX
 5
625
 8
0
 62
255
 10
0.295
 20
0.84
 30
0.0
 0
VERTEX
 5
626
 8
0
 62
255
 10
0.305
 20
0.84
 30
0.0
 0
VERTEX
 5
627
 8
0
 62
255
 10
0.317
 20
0.8420000000000001
 30
0.0
 0
VERTEX
 5
628
 8
0
 62
255
 10
0.326
 20
0.849
 30
0.0
 0
VERTEX
 5
629
 8
0
 62
255
 10
0.333
 20
0.858
 30
0.0
 0
VERTEX
 5
62A
 8
0
 62
255
 10
0.335
 20
0.8699999999999999
 30
0.0
 0
VERTEX
 5
62B
 8
0
 62
255
 10
0.333
 20
0.882
 30
0.0
 0
VERTEX
 5
62C
 8
0
 62
255
 10
0.326
 20
0.8909999999999998
 30
0.0
 0
VERTEX
 5
62D
 8
0
 62
255
 10
0.317
 20
0.898
 30
0.0
 0
VERTEX
 5
62E
 8
0
 62
255
 10
0.305
 20
0.9
 30
0.0
 0
VERTEX
 5
62F
 8
0
 62
255
 10
0.035
 20
0.9
 30
0.0
 0
VERTEX
 5
630
 8
0
 62
255
 10
0.023
 20
0.898
 30
0.0
 0
VERTEX
 5
631
 8
0
 62
255
 10
0.014
 20
0.8909999999999998
 30
0.0
 0
VERTEX
 5
632
 8
0
 62
255
 10
0.007
 20
0.882
 30
0.0
 0
VERTEX
 5
633
 8
0
 62
255
 10
0.005
 20
0.8699999999999999
 30
0.0
 0
VERTEX
 5
634
 8
0
 62
255
 10
0.007
 20
0.858
 30
0.0
 0
VERTEX
 5
635
 8
0
 62
255
 10
0.014
 20
0.849
 30
0.0
 0
VERTEX
 5
636
 8
0
 62
255
 10
0.023
 20
0.8420000000000001
 30
0.0
 0
VERTEX
 5
637
 8
0
 62
255
 10
0.035
 20
0.84
 30
0.0
 0
VERTEX
 5
638
 8
0
 62
255
 10
0.045
 20
0.84
 30
0.0
 0
VERTEX
 5
639
 8
0
 62
255
 10
0.045
 20
0.825
 30
0.0
 0
VERTEX
 5
63A
 8
0
 62
255
 10
0.057
 20
0.822
 30
0.0
 0
VERTEX
 5
63B
 8
0
 62
255
 10
0.066
 20
0.8159999999999999
 30
0.0
 0
VERTEX
 5
63C
 8
0
 62
255
 10
0.072
 20
0.8070000000000001
 30
0.0
 0
VERTEX
 5
63D
 8
0
 62
255
 10
0.075
 20
0.7950000000000002
 30
0.0
 0
SEQEND
 5
63E
 8
0
 62
255
 0
POLYLINE
 5
38F
 8
0
 62
255
 66
1
 10
0.0
 20
0.0
 30
0.0
 0
VERTEX
 5
63F
 8
0
 62
255
 10
0.25
 20
-0.1
 30
0.0
 0
VERTEX
 5
640
 8
0
 62
255
 10
0.265
 20
-0.1
 30
0.0
 0
VERTEX
 5
641
 8
0
 62
255
 10
0.265
 20
-0.085
 30
0.0
 0
VERTEX
 5
642
 8
0
 62
255
 10
0.278
 20
-0.084
 30
0.0
 0
VERTEX
 5
643
 8
0
 62
255
 10
0.289
 20
-0.081
 30
0.0
 0
VERTEX
 5
644
 8
0
 62
255
 10
0.301
 20
-0.074
 30
0.0
 0
VERTEX
 5
645
 8
0
 62
255
 10
0.309
 20
-0.065
 30
0.0
 0
VERTEX
 5
646
 8
0
 62
255
 10
0.315
 20
-0.055
 30
0.0
 0
VERTEX
 5
647
 8
0
 62
255
 10
0.324
 20
-0.044
 30
0.0
 0
VERTEX
 5
648
 8
0
 62
255
 10
0.334
 20
-0.038
 30
0.0
 0
VERTEX
 5
649
 8
0
 62
255
 10
0.345
 20
-0.035
 30
0.0
 0
VERTEX
 5
64A
 8
0
 62
255
 10
0.345
 20
-0.015
 30
0.0
 0
VERTEX
 5
64B
 8
0
 62
255
 10
0.25
 20
0.0
 30
0.0
 0
SEQEND
 5
64C
 8
0
 62
255
 0
ENDBLK
 5
391
 8
0
 0
ENDSEC
 0
SECTION
 2
ENTITIES
 0
POLYLINE
 5
393
 8
0
 66
1
 10
0.0
 20
0.0
 30
0.0
 0
VERTEX
 5
64D
 8
0
 10
0.25
 20
0.0
 30
0.0
 0
VERTEX
 5
64E
 8
0
 10
0.25
 20
0.245
 30
0.0
 0
VERTEX
 5
64F
 8
0
 10
0.09
 20
0.245
 30
0.0
 0
VERTEX
 5
650
 8
0
 10
0.09
 20
0.0
 30
0.0
 0
SEQEND
 5
651
 8
0
 0
POLYLINE
 5
602
 8
0
 62
255
 66
1
 10
0.0
 20
0.0
 30
0.0
 0
VERTEX
 5
692
 8
0
 62
255
 10
0.265
 20
0.245
 30
0.0
 0
VERTEX
 5
693
 8
0
 62
255
 10
0.265
 20
0.395
 30
0.0
 0
VERTEX
 5
694
 8
0
 62
255
 10
0.075
 20
0.395
 30
0.0
 0
VERTEX
 5
695
 8
0
 62
255
 10
0.075
 20
0.245
 30
0.0
 0
SEQEND
 5
696
 8
0
 62
255
 0
ENDSEC
 0
EOF
