 0
SECTION
 2
HEADER
 9
$ACADVER
 1
AC1009
 9
$INSBASE
 10
0.0
 20
0.0
 30
0.0
 9
$EXTMIN
 10
-0.14
 20
-0.29
 30
-0.14
 9
$EXTMAX
 10
1.05
 20
0.08
 30
1.5849997520446759
 9
$LIMMIN
 10
0.0
 20
0.0
 9
$LIMMAX
 10
12.0
 20
9.0
 9
$ORTHOMODE
 70
1
 9
$REGENMODE
 70
1
 9
$FILLMODE
 70
1
 9
$QTEXTMODE
 70
0
 9
$MIRRTEXT
 70
0
 9
$DRAGMODE
 70
2
 9
$LTSCALE
 40
1.0
 9
$OSMODE
 70
43
 9
$ATTMODE
 70
1
 9
$TEXTSIZE
 40
1.0
 9
$TRACEWID
 40
0.05
 9
$TEXTSTYLE
 7
STANDARD
 9
$CLAYER
 8
0
 9
$CELTYPE
 6
CONTINUOUS
 9
$CECOLOR
 62
256
 9
$DIMSCALE
 40
1.0
 9
$DIMASZ
 40
0.18
 9
$DIMEXO
 40
0.0625
 9
$DIMDLI
 40
0.38
 9
$DIMRND
 40
0.0
 9
$DIMDLE
 40
0.0
 9
$DIMEXE
 40
0.18
 9
$DIMTP
 40
0.0
 9
$DIMTM
 40
0.0
 9
$DIMTXT
 40
0.18
 9
$DIMCEN
 40
0.09
 9
$DIMTSZ
 40
0.0
 9
$DIMTOL
 70
0
 9
$DIMLIM
 70
0
 9
$DIMTIH
 70
1
 9
$DIMTOH
 70
1
 9
$DIMSE1
 70
0
 9
$DIMSE2
 70
0
 9
$DIMTAD
 70
0
 9
$DIMZIN
 70
0
 9
$DIMBLK
 1

 9
$DIMASO
 70
1
 9
$DIMSHO
 70
1
 9
$DIMPOST
 1

 9
$DIMAPOST
 1

 9
$DIMALT
 70
0
 9
$DIMALTD
 70
2
 9
$DIMALTF
 40
25.3999999999999986
 9
$DIMLFAC
 40
1.0
 9
$DIMTOFL
 70
0
 9
$DIMTVP
 40
0.0
 9
$DIMTIX
 70
0
 9
$DIMSOXD
 70
0
 9
$DIMSAH
 70
0
 9
$DIMBLK1
 1

 9
$DIMBLK2
 1

 9
$DIMSTYLE
 2
STANDARD
 9
$DIMCLRD
 70
0
 9
$DIMCLRE
 70
0
 9
$DIMCLRT
 70
0
 9
$DIMTFAC
 40
1.0
 9
$DIMGAP
 40
0.09
 9
$LUNITS
 70
2
 9
$LUPREC
 70
4
 9
$SKETCHINC
 40
0.1
 9
$FILLETRAD
 40
0.0
 9
$AUNITS
 70
0
 9
$AUPREC
 70
0
 9
$MENU
 1
.
 9
$ELEVATION
 40
0.0
 9
$PELEVATION
 40
0.0
 9
$THICKNESS
 40
0.0
 9
$LIMCHECK
 70
0
 9
$BLIPMODE
 70
0
 9
$CHAMFERA
 40
0.0
 9
$CHAMFERB
 40
0.0
 9
$SKPOLY
 70
0
 9
$TDCREATE
 40
2458904.9074884261935949
 9
$TDUPDATE
 40
2458918.4902083338238299
 9
$TDINDWG
 40
0.0042592593
 9
$TDUSRTIMER
 40
0.0042592593
 9
$USRTIMER
 70
1
 9
$ANGBASE
 50
0.0
 9
$ANGDIR
 70
0
 9
$PDMODE
 70
0
 9
$PDSIZE
 40
0.0
 9
$PLINEWID
 40
0.0
 9
$COORDS
 70
1
 9
$SPLFRAME
 70
0
 9
$SPLINETYPE
 70
6
 9
$SPLINESEGS
 70
8
 9
$ATTDIA
 70
0
 9
$ATTREQ
 70
1
 9
$HANDLING
 70
1
 9
$HANDSEED
 5
60C
 9
$SURFTAB1
 70
6
 9
$SURFTAB2
 70
6
 9
$SURFTYPE
 70
6
 9
$SURFU
 70
6
 9
$SURFV
 70
6
 9
$UCSNAME
 2

 9
$UCSORG
 10
0.0
 20
0.0
 30
0.0
 9
$UCSXDIR
 10
1.0
 20
0.0
 30
0.0
 9
$UCSYDIR
 10
0.0
 20
1.0
 30
0.0
 9
$PUCSNAME
 2

 9
$PUCSORG
 10
0.0
 20
0.0
 30
0.0
 9
$PUCSXDIR
 10
1.0
 20
0.0
 30
0.0
 9
$PUCSYDIR
 10
0.0
 20
1.0
 30
0.0
 9
$USERI1
 70
0
 9
$USERI2
 70
0
 9
$USERI3
 70
0
 9
$USERI4
 70
0
 9
$USERI5
 70
0
 9
$USERR1
 40
0.0
 9
$USERR2
 40
0.0
 9
$USERR3
 40
0.0
 9
$USERR4
 40
0.0
 9
$USERR5
 40
0.0
 9
$WORLDVIEW
 70
1
 9
$SHADEDGE
 70
3
 9
$SHADEDIF
 70
70
 9
$TILEMODE
 70
1
 9
$MAXACTVP
 70
64
 9
$PLIMCHECK
 70
0
 9
$PEXTMIN
 10
1.0000000000000000E+20
 20
1.0000000000000000E+20
 30
1.0000000000000000E+20
 9
$PEXTMAX
 10
-1.0000000000000000E+20
 20
-1.0000000000000000E+20
 30
-1.0000000000000000E+20
 9
$PLIMMIN
 10
0.0
 20
0.0
 9
$PLIMMAX
 10
12.0
 20
9.0
 9
$UNITMODE
 70
0
 9
$VISRETAIN
 70
1
 9
$PLINEGEN
 70
0
 9
$PSLTSCALE
 70
1
 0
ENDSEC
 0
SECTION
 2
TABLES
 0
TABLE
 2
VPORT
 70
1
 0
VPORT
 2
*ACTIVE
 70
0
 10
0.0
 20
0.0
 11
1.0
 21
1.0
 12
0.0
 22
0.0
 13
0.0
 23
0.0
 14
0.1
 24
0.1
 15
0.1
 25
0.1
 16
-2.6269769178754672
 26
-7.5749975707388941
 36
9.3574710476856335
 17
1.3654850682387469
 27
0.3773611325282316
 37
0.4328760847425609
 40
4.890477703601408
 41
1.8654073199527741
 42
50.0
 43
0.0
 44
0.0
 50
0.0
 51
0.0000000000000022
 71
0
 72
100
 73
1
 74
1
 75
0
 76
0
 77
0
 78
0
 0
ENDTAB
 0
TABLE
 2
LTYPE
 70
9
 0
LTYPE
 2
CONTINUOUS
 70
0
 3
Solid line
 72
65
 73
0
 40
0.0
 0
LTYPE
 2
DOT
 70
0
 3
. . . . . . .
 72
65
 73
2
 40
0.25
 49
0.0
 49
-0.25
 0
LTYPE
 2
DASHED
 70
0
 3
__ __ __ __ __
 72
65
 73
2
 40
0.8
 49
0.5
 49
-0.3
 0
LTYPE
 2
DASHDOT
 70
0
 3
__ . __ . __ .
 72
65
 73
4
 40
1.0
 49
0.5
 49
-0.25
 49
0.0
 49
-0.25
 0
LTYPE
 2
DIVIDE
 70
0
 3
____ . . ____ . . 
 72
65
 73
6
 40
1.25
 49
0.5
 49
-0.25
 49
0.0
 49
-0.25
 49
0.0
 49
-0.25
 0
LTYPE
 2
BORDER
 70
0
 3
__ __ . __ __ . 
 72
65
 73
6
 40
1.75
 49
0.5
 49
-0.25
 49
0.5
 49
-0.25
 49
0.0
 49
-0.25
 0
LTYPE
 2
HIDDEN
 70
0
 3
__ __ __ __ __
 72
65
 73
2
 40
0.4
 49
0.25
 49
-0.25
 0
LTYPE
 2
CENTER
 70
0
 3
____ _ ____ _ __
 72
65
 73
4
 40
2.0
 49
1.25
 49
-0.25
 49
0.25
 49
-0.25
 0
ENDTAB
 0
TABLE
 2
LAYER
 70
2
 0
LAYER
 2
0
 70
0
 62
7
 6
CONTINUOUS
 0
LAYER
 2
PYDXF
 70
0
 62
7
 6
CONTINUOUS
 0
ENDTAB
 0
TABLE
 2
STYLE
 70
2
 0
STYLE
 2
STANDARD
 70
0
 40
0.0
 41
1.0
 50
0.0
 71
0
 42
1.0
 3
txt
 4

 0
STYLE
 2
ANNOTATIVE
 70
0
 40
0.0
 41
1.0
 50
0.0
 71
0
 42
0.2
 3
txt
 4

 0
ENDTAB
 0
TABLE
 2
VIEW
 70
1
 0
VIEW
 2
BF_TOPVIEW
 70
0
 40
120.0
 10
0.0
 20
0.0
 41
200.0
 11
0.0
 21
0.0
 31
1.0
 12
0.0
 22
0.0
 32
0.0
 42
50.0
 43
0.0
 44
0.0
 50
0.0
 71
0
 0
ENDTAB
 0
TABLE
 2
UCS
 70
0
 0
ENDTAB
 0
TABLE
 2
APPID
 70
5
 0
APPID
 2
ACAD
 70
0
 0
APPID
 2
ACADANNOTATIVE
 70
0
 0
APPID
 2
ACAD_NAV_VCDISPLAY
 70
0
 0
APPID
 2
ACAD_MLEADERVER
 70
0
 0
APPID
 2
ACAD_EXEMPT_FROM_CAD_STANDARDS
 70
0
 0
ENDTAB
 0
TABLE
 2
DIMSTYLE
 70
3
 0
DIMSTYLE
 2
STANDARD
 70
0
 3

 4

 5

 6

 7

 40
1.0
 41
0.18
 42
0.0625
 43
0.38
 44
0.18
 45
0.0
 46
0.0
 47
0.0
 48
0.0
 140
0.18
 141
0.09
 142
0.0
 143
25.3999999999999986
 144
1.0
 145
0.0
 146
1.0
 147
0.09
 71
0
 72
0
 73
1
 74
1
 75
0
 76
0
 77
0
 78
0
 170
0
 171
2
 172
0
 173
0
 174
0
 175
0
 176
0
 177
0
 178
0
 0
DIMSTYLE
 2
ANNOTATIVE
 70
0
 3

 4

 5

 6

 7

 40
1.0
 41
0.18
 42
0.0625
 43
0.38
 44
0.18
 45
0.0
 46
0.0
 47
0.0
 48
0.0
 140
0.18
 141
0.09
 142
0.0
 143
25.3999999999999986
 144
1.0
 145
0.0
 146
1.0
 147
0.09
 71
0
 72
0
 73
1
 74
1
 75
0
 76
0
 77
0
 78
0
 170
0
 171
2
 172
0
 173
0
 174
0
 175
0
 176
0
 177
0
 178
0
 0
ENDTAB
 0
ENDSEC
 0
SECTION
 2
BLOCKS
 0
BLOCK
 8
0
 2
$MODEL_SPACE
 70
0
 10
0.0
 20
0.0
 30
0.0
 3
$MODEL_SPACE
 1

 0
ENDBLK
 5
597
 8
0
 0
BLOCK
 67
1
 8
0
 2
$PAPER_SPACE
 70
0
 10
0.0
 20
0.0
 30
0.0
 3
$PAPER_SPACE
 1

 0
ENDBLK
 5
593
 67
1
 8
0
 0
ENDSEC
 0
SECTION
 2
ENTITIES
 0
POLYLINE
 5
7F
 8
0
 62
131
 66
1
 10
0
 20
0.25
 30
0
 70
64
 71
481
 72
392
 0
VERTEX
 5
80
 8
0
 62
131
 10
0.074
 20
0
 30
0.622
 70
192
 0
VERTEX
 5
81
 8
0
 62
131
 10
0.393
 20
0
 30
0.622
 70
192
 0
VERTEX
 5
82
 8
0
 62
131
 10
0.074
 20
0
 30
0.632
 70
192
 0
VERTEX
 5
83
 8
0
 62
131
 10
0.393
 20
0
 30
0.632
 70
192
 0
VERTEX
 5
84
 8
0
 62
131
 10
0.393
 20
-0.04
 30
0.592
 70
192
 0
VERTEX
 5
85
 8
0
 62
131
 10
0.074
 20
-0.04
 30
0.582
 70
192
 0
VERTEX
 5
86
 8
0
 62
131
 10
0.393
 20
-0.04
 30
0.582
 70
192
 0
VERTEX
 5
87
 8
0
 62
131
 10
0.074
 20
-0.04
 30
0.592
 70
192
 0
VERTEX
 5
88
 8
0
 62
131
 10
0.836
 20
0
 30
0.682
 70
192
 0
VERTEX
 5
89
 8
0
 62
131
 10
0.836
 20
0
 30
0.672
 70
192
 0
VERTEX
 5
8A
 8
0
 62
131
 10
0.517
 20
-0.04
 30
0.642
 70
192
 0
VERTEX
 5
8B
 8
0
 62
131
 10
0.836
 20
-0.04
 30
0.632
 70
192
 0
VERTEX
 5
8C
 8
0
 62
131
 10
0.517
 20
0
 30
0.682
 70
192
 0
VERTEX
 5
8D
 8
0
 62
131
 10
0.517
 20
0
 30
0.672
 70
192
 0
VERTEX
 5
8E
 8
0
 62
131
 10
0.836
 20
-0.04
 30
0.642
 70
192
 0
VERTEX
 5
8F
 8
0
 62
131
 10
0.517
 20
-0.04
 30
0.632
 70
192
 0
VERTEX
 5
90
 8
0
 62
131
 10
0.836
 20
0
 30
0.622
 70
192
 0
VERTEX
 5
91
 8
0
 62
131
 10
0.517
 20
0
 30
0.632
 70
192
 0
VERTEX
 5
92
 8
0
 62
131
 10
0.836
 20
0
 30
0.632
 70
192
 0
VERTEX
 5
93
 8
0
 62
131
 10
0.836
 20
-0.04
 30
0.592
 70
192
 0
VERTEX
 5
94
 8
0
 62
131
 10
0.517
 20
0
 30
0.622
 70
192
 0
VERTEX
 5
95
 8
0
 62
131
 10
0.836
 20
-0.04
 30
0.582
 70
192
 0
VERTEX
 5
96
 8
0
 62
131
 10
0.517
 20
-0.04
 30
0.582
 70
192
 0
VERTEX
 5
97
 8
0
 62
131
 10
0.517
 20
-0.04
 30
0.592
 70
192
 0
VERTEX
 5
98
 8
0
 62
131
 10
0.836
 20
0
 30
0.222
 70
192
 0
VERTEX
 5
99
 8
0
 62
131
 10
0.836
 20
0
 30
0.232
 70
192
 0
VERTEX
 5
9A
 8
0
 62
131
 10
0.836
 20
-0.04
 30
0.192
 70
192
 0
VERTEX
 5
9B
 8
0
 62
131
 10
0.517
 20
-0.04
 30
0.182
 70
192
 0
VERTEX
 5
9C
 8
0
 62
131
 10
0.836
 20
-0.04
 30
0.182
 70
192
 0
VERTEX
 5
9D
 8
0
 62
131
 10
0.517
 20
0
 30
0.222
 70
192
 0
VERTEX
 5
9E
 8
0
 62
131
 10
0.517
 20
0
 30
0.232
 70
192
 0
VERTEX
 5
9F
 8
0
 62
131
 10
0.517
 20
-0.04
 30
0.192
 70
192
 0
VERTEX
 5
A0
 8
0
 62
131
 10
0.517
 20
-0.04
 30
0.492
 70
192
 0
VERTEX
 5
A1
 8
0
 62
131
 10
0.517
 20
0
 30
0.532
 70
192
 0
VERTEX
 5
A2
 8
0
 62
131
 10
0.836
 20
0
 30
0.532
 70
192
 0
VERTEX
 5
A3
 8
0
 62
131
 10
0.836
 20
0
 30
0.522
 70
192
 0
VERTEX
 5
A4
 8
0
 62
131
 10
0.517
 20
0
 30
0.522
 70
192
 0
VERTEX
 5
A5
 8
0
 62
131
 10
0.836
 20
-0.04
 30
0.492
 70
192
 0
VERTEX
 5
A6
 8
0
 62
131
 10
0.517
 20
-0.04
 30
0.482
 70
192
 0
VERTEX
 5
A7
 8
0
 62
131
 10
0.836
 20
-0.04
 30
0.482
 70
192
 0
VERTEX
 5
A8
 8
0
 62
131
 10
0.836
 20
0
 30
0.482
 70
192
 0
VERTEX
 5
A9
 8
0
 62
131
 10
0.836
 20
-0.04
 30
0.442
 70
192
 0
VERTEX
 5
AA
 8
0
 62
131
 10
0.517
 20
0
 30
0.482
 70
192
 0
VERTEX
 5
AB
 8
0
 62
131
 10
0.836
 20
0
 30
0.472
 70
192
 0
VERTEX
 5
AC
 8
0
 62
131
 10
0.836
 20
-0.04
 30
0.432
 70
192
 0
VERTEX
 5
AD
 8
0
 62
131
 10
0.517
 20
0
 30
0.472
 70
192
 0
VERTEX
 5
AE
 8
0
 62
131
 10
0.517
 20
-0.04
 30
0.442
 70
192
 0
VERTEX
 5
AF
 8
0
 62
131
 10
0.517
 20
-0.04
 30
0.432
 70
192
 0
VERTEX
 5
B0
 8
0
 62
131
 10
0.836
 20
0
 30
0.572
 70
192
 0
VERTEX
 5
B1
 8
0
 62
131
 10
0.517
 20
0
 30
0.582
 70
192
 0
VERTEX
 5
B2
 8
0
 62
131
 10
0.836
 20
-0.04
 30
0.542
 70
192
 0
VERTEX
 5
B3
 8
0
 62
131
 10
0.836
 20
0
 30
0.582
 70
192
 0
VERTEX
 5
B4
 8
0
 62
131
 10
0.517
 20
-0.04
 30
0.542
 70
192
 0
VERTEX
 5
B5
 8
0
 62
131
 10
0.517
 20
0
 30
0.572
 70
192
 0
VERTEX
 5
B6
 8
0
 62
131
 10
0.517
 20
-0.04
 30
0.532
 70
192
 0
VERTEX
 5
B7
 8
0
 62
131
 10
0.836
 20
-0.04
 30
0.532
 70
192
 0
VERTEX
 5
B8
 8
0
 62
131
 10
0.836
 20
0
 30
0.172
 70
192
 0
VERTEX
 5
B9
 8
0
 62
131
 10
0.836
 20
-0.04
 30
0.142
 70
192
 0
VERTEX
 5
BA
 8
0
 62
131
 10
0.517
 20
-0.04
 30
0.142
 70
192
 0
VERTEX
 5
BB
 8
0
 62
131
 10
0.836
 20
-0.04
 30
0.132
 70
192
 0
VERTEX
 5
BC
 8
0
 62
131
 10
0.836
 20
0
 30
0.182
 70
192
 0
VERTEX
 5
BD
 8
0
 62
131
 10
0.517
 20
-0.04
 30
0.132
 70
192
 0
VERTEX
 5
BE
 8
0
 62
131
 10
0.517
 20
0
 30
0.172
 70
192
 0
VERTEX
 5
BF
 8
0
 62
131
 10
0.517
 20
0
 30
0.182
 70
192
 0
VERTEX
 5
C0
 8
0
 62
131
 10
0.836
 20
0
 30
0.382
 70
192
 0
VERTEX
 5
C1
 8
0
 62
131
 10
0.836
 20
0
 30
0.372
 70
192
 0
VERTEX
 5
C2
 8
0
 62
131
 10
0.517
 20
0
 30
0.372
 70
192
 0
VERTEX
 5
C3
 8
0
 62
131
 10
0.517
 20
0
 30
0.382
 70
192
 0
VERTEX
 5
C4
 8
0
 62
131
 10
0.836
 20
-0.04
 30
0.332
 70
192
 0
VERTEX
 5
C5
 8
0
 62
131
 10
0.517
 20
-0.04
 30
0.332
 70
192
 0
VERTEX
 5
C6
 8
0
 62
131
 10
0.517
 20
-0.04
 30
0.342
 70
192
 0
VERTEX
 5
C7
 8
0
 62
131
 10
0.836
 20
-0.04
 30
0.342
 70
192
 0
VERTEX
 5
C8
 8
0
 62
131
 10
0.517
 20
0
 30
0.432
 70
192
 0
VERTEX
 5
C9
 8
0
 62
131
 10
0.517
 20
0
 30
0.422
 70
192
 0
VERTEX
 5
CA
 8
0
 62
131
 10
0.836
 20
0
 30
0.422
 70
192
 0
VERTEX
 5
CB
 8
0
 62
131
 10
0.836
 20
0
 30
0.432
 70
192
 0
VERTEX
 5
CC
 8
0
 62
131
 10
0.836
 20
-0.04
 30
0.392
 70
192
 0
VERTEX
 5
CD
 8
0
 62
131
 10
0.517
 20
-0.04
 30
0.382
 70
192
 0
VERTEX
 5
CE
 8
0
 62
131
 10
0.517
 20
-0.04
 30
0.392
 70
192
 0
VERTEX
 5
CF
 8
0
 62
131
 10
0.836
 20
-0.04
 30
0.382
 70
192
 0
VERTEX
 5
D0
 8
0
 62
131
 10
0.836
 20
-0.04
 30
0.092
 70
192
 0
VERTEX
 5
D1
 8
0
 62
131
 10
0.836
 20
0
 30
0.132
 70
192
 0
VERTEX
 5
D2
 8
0
 62
131
 10
0.517
 20
-0.04
 30
0.092
 70
192
 0
VERTEX
 5
D3
 8
0
 62
131
 10
0.836
 20
0
 30
0.122
 70
192
 0
VERTEX
 5
D4
 8
0
 62
131
 10
0.517
 20
0
 30
0.122
 70
192
 0
VERTEX
 5
D5
 8
0
 62
131
 10
0.517
 20
0
 30
0.132
 70
192
 0
VERTEX
 5
D6
 8
0
 62
131
 10
0.517
 20
-0.04
 30
0.082
 70
192
 0
VERTEX
 5
D7
 8
0
 62
131
 10
0.836
 20
-0.04
 30
0.082
 70
192
 0
VERTEX
 5
D8
 8
0
 62
131
 10
0.517
 20
0
 30
0.272
 70
192
 0
VERTEX
 5
D9
 8
0
 62
131
 10
0.836
 20
-0.04
 30
0.242
 70
192
 0
VERTEX
 5
DA
 8
0
 62
131
 10
0.836
 20
0
 30
0.282
 70
192
 0
VERTEX
 5
DB
 8
0
 62
131
 10
0.517
 20
-0.04
 30
0.242
 70
192
 0
VERTEX
 5
DC
 8
0
 62
131
 10
0.836
 20
0
 30
0.272
 70
192
 0
VERTEX
 5
DD
 8
0
 62
131
 10
0.517
 20
-0.04
 30
0.232
 70
192
 0
VERTEX
 5
DE
 8
0
 62
131
 10
0.517
 20
0
 30
0.282
 70
192
 0
VERTEX
 5
DF
 8
0
 62
131
 10
0.836
 20
-0.04
 30
0.232
 70
192
 0
VERTEX
 5
E0
 8
0
 62
131
 10
0.517
 20
0
 30
0.322
 70
192
 0
VERTEX
 5
E1
 8
0
 62
131
 10
0.836
 20
0
 30
0.322
 70
192
 0
VERTEX
 5
E2
 8
0
 62
131
 10
0.836
 20
0
 30
0.332
 70
192
 0
VERTEX
 5
E3
 8
0
 62
131
 10
0.517
 20
-0.04
 30
0.292
 70
192
 0
VERTEX
 5
E4
 8
0
 62
131
 10
0.836
 20
-0.04
 30
0.292
 70
192
 0
VERTEX
 5
E5
 8
0
 62
131
 10
0.517
 20
0
 30
0.332
 70
192
 0
VERTEX
 5
E6
 8
0
 62
131
 10
0.836
 20
-0.04
 30
0.282
 70
192
 0
VERTEX
 5
E7
 8
0
 62
131
 10
0.517
 20
-0.04
 30
0.282
 70
192
 0
VERTEX
 5
E8
 8
0
 62
131
 10
0.517
 20
0
 30
1.35266673564911
 70
192
 0
VERTEX
 5
E9
 8
0
 62
131
 10
0.836
 20
0
 30
1.36266684532166
 70
192
 0
VERTEX
 5
EA
 8
0
 62
131
 10
0.836
 20
0
 30
1.35266673564911
 70
192
 0
VERTEX
 5
EB
 8
0
 62
131
 10
0.517
 20
-0.04
 30
1.32266676425934
 70
192
 0
VERTEX
 5
EC
 8
0
 62
131
 10
0.517
 20
0
 30
1.36266684532166
 70
192
 0
VERTEX
 5
ED
 8
0
 62
131
 10
0.517
 20
-0.04
 30
1.31266677379608
 70
192
 0
VERTEX
 5
EE
 8
0
 62
131
 10
0.836
 20
-0.04
 30
1.32266676425934
 70
192
 0
VERTEX
 5
EF
 8
0
 62
131
 10
0.836
 20
-0.04
 30
1.31266677379608
 70
192
 0
VERTEX
 5
F0
 8
0
 62
131
 10
0.517
 20
0
 30
1.30266690254211
 70
192
 0
VERTEX
 5
F1
 8
0
 62
131
 10
0.836
 20
0
 30
1.30266690254211
 70
192
 0
VERTEX
 5
F2
 8
0
 62
131
 10
0.517
 20
0
 30
1.31266701221466
 70
192
 0
VERTEX
 5
F3
 8
0
 62
131
 10
0.836
 20
-0.04
 30
1.27266693115234
 70
192
 0
VERTEX
 5
F4
 8
0
 62
131
 10
0.836
 20
0
 30
1.31266701221466
 70
192
 0
VERTEX
 5
F5
 8
0
 62
131
 10
0.836
 20
-0.04
 30
1.26266694068908
 70
192
 0
VERTEX
 5
F6
 8
0
 62
131
 10
0.517
 20
-0.04
 30
1.27266693115234
 70
192
 0
VERTEX
 5
F7
 8
0
 62
131
 10
0.517
 20
-0.04
 30
1.26266694068908
 70
192
 0
VERTEX
 5
F8
 8
0
 62
131
 10
0.517
 20
-0.04
 30
0.872666895389557
 70
192
 0
VERTEX
 5
F9
 8
0
 62
131
 10
0.836
 20
0
 30
0.912666976451874
 70
192
 0
VERTEX
 5
FA
 8
0
 62
131
 10
0.836
 20
0
 30
0.902666866779327
 70
192
 0
VERTEX
 5
FB
 8
0
 62
131
 10
0.836
 20
-0.04
 30
0.872666895389557
 70
192
 0
VERTEX
 5
FC
 8
0
 62
131
 10
0.517
 20
0
 30
0.902666866779327
 70
192
 0
VERTEX
 5
FD
 8
0
 62
131
 10
0.517
 20
0
 30
0.912666976451874
 70
192
 0
VERTEX
 5
FE
 8
0
 62
131
 10
0.836
 20
-0.04
 30
0.8626669049263
 70
192
 0
VERTEX
 5
FF
 8
0
 62
131
 10
0.517
 20
-0.04
 30
0.8626669049263
 70
192
 0
VERTEX
 5
100
 8
0
 62
131
 10
0.517
 20
0
 30
1.20266687870025
 70
192
 0
VERTEX
 5
101
 8
0
 62
131
 10
0.836
 20
0
 30
1.21266686916351
 70
192
 0
VERTEX
 5
102
 8
0
 62
131
 10
0.517
 20
0
 30
1.21266686916351
 70
192
 0
VERTEX
 5
103
 8
0
 62
131
 10
0.517
 20
-0.04
 30
1.17266690731048
 70
192
 0
VERTEX
 5
104
 8
0
 62
131
 10
0.836
 20
-0.04
 30
1.17266690731048
 70
192
 0
VERTEX
 5
105
 8
0
 62
131
 10
0.836
 20
0
 30
1.20266687870025
 70
192
 0
VERTEX
 5
106
 8
0
 62
131
 10
0.836
 20
-0.04
 30
1.16266691684723
 70
192
 0
VERTEX
 5
107
 8
0
 62
131
 10
0.517
 20
-0.04
 30
1.16266691684723
 70
192
 0
VERTEX
 5
108
 8
0
 62
131
 10
0.836
 20
0
 30
1.16266703605652
 70
192
 0
VERTEX
 5
109
 8
0
 62
131
 10
0.836
 20
0
 30
1.15266692638397
 70
192
 0
VERTEX
 5
10A
 8
0
 62
131
 10
0.836
 20
-0.04
 30
1.11266696453094
 70
192
 0
VERTEX
 5
10B
 8
0
 62
131
 10
0.517
 20
0
 30
1.15266692638397
 70
192
 0
VERTEX
 5
10C
 8
0
 62
131
 10
0.517
 20
0
 30
1.16266703605652
 70
192
 0
VERTEX
 5
10D
 8
0
 62
131
 10
0.517
 20
-0.04
 30
1.1226669549942
 70
192
 0
VERTEX
 5
10E
 8
0
 62
131
 10
0.517
 20
-0.04
 30
1.11266696453094
 70
192
 0
VERTEX
 5
10F
 8
0
 62
131
 10
0.836
 20
-0.04
 30
1.1226669549942
 70
192
 0
VERTEX
 5
110
 8
0
 62
131
 10
0.517
 20
0
 30
1.26266705989838
 70
192
 0
VERTEX
 5
111
 8
0
 62
131
 10
0.836
 20
0
 30
1.26266705989838
 70
192
 0
VERTEX
 5
112
 8
0
 62
131
 10
0.836
 20
-0.04
 30
1.21266710758209
 70
192
 0
VERTEX
 5
113
 8
0
 62
131
 10
0.517
 20
0
 30
1.25266706943512
 70
192
 0
VERTEX
 5
114
 8
0
 62
131
 10
0.836
 20
0
 30
1.25266706943512
 70
192
 0
VERTEX
 5
115
 8
0
 62
131
 10
0.517
 20
-0.04
 30
1.21266710758209
 70
192
 0
VERTEX
 5
116
 8
0
 62
131
 10
0.517
 20
-0.04
 30
1.22266709804535
 70
192
 0
VERTEX
 5
117
 8
0
 62
131
 10
0.836
 20
-0.04
 30
1.22266709804535
 70
192
 0
VERTEX
 5
118
 8
0
 62
131
 10
0.517
 20
0
 30
0.8626669049263
 70
192
 0
VERTEX
 5
119
 8
0
 62
131
 10
0.836
 20
0
 30
0.852666914463043
 70
192
 0
VERTEX
 5
11A
 8
0
 62
131
 10
0.836
 20
0
 30
0.8626669049263
 70
192
 0
VERTEX
 5
11B
 8
0
 62
131
 10
0.836
 20
-0.04
 30
0.812666893005371
 70
192
 0
VERTEX
 5
11C
 8
0
 62
131
 10
0.517
 20
-0.04
 30
0.812666893005371
 70
192
 0
VERTEX
 5
11D
 8
0
 62
131
 10
0.517
 20
0
 30
0.852666914463043
 70
192
 0
VERTEX
 5
11E
 8
0
 62
131
 10
0.517
 20
-0.04
 30
0.822666943073273
 70
192
 0
VERTEX
 5
11F
 8
0
 62
131
 10
0.836
 20
-0.04
 30
0.822666943073273
 70
192
 0
VERTEX
 5
120
 8
0
 62
131
 10
0.517
 20
0
 30
1.06266689300537
 70
192
 0
VERTEX
 5
121
 8
0
 62
131
 10
0.836
 20
0
 30
1.06266689300537
 70
192
 0
VERTEX
 5
122
 8
0
 62
131
 10
0.836
 20
0
 30
1.05266690254211
 70
192
 0
VERTEX
 5
123
 8
0
 62
131
 10
0.836
 20
-0.04
 30
1.01266694068908
 70
192
 0
VERTEX
 5
124
 8
0
 62
131
 10
0.517
 20
-0.04
 30
1.01266694068908
 70
192
 0
VERTEX
 5
125
 8
0
 62
131
 10
0.517
 20
-0.04
 30
1.02266693115234
 70
192
 0
VERTEX
 5
126
 8
0
 62
131
 10
0.517
 20
0
 30
1.05266690254211
 70
192
 0
VERTEX
 5
127
 8
0
 62
131
 10
0.836
 20
-0.04
 30
1.02266693115234
 70
192
 0
VERTEX
 5
128
 8
0
 62
131
 10
0.517
 20
0
 30
1.11266672611237
 70
192
 0
VERTEX
 5
129
 8
0
 62
131
 10
0.836
 20
0
 30
1.10266673564911
 70
192
 0
VERTEX
 5
12A
 8
0
 62
131
 10
0.836
 20
-0.04
 30
1.07266664505005
 70
192
 0
VERTEX
 5
12B
 8
0
 62
131
 10
0.517
 20
-0.04
 30
1.07266664505005
 70
192
 0
VERTEX
 5
12C
 8
0
 62
131
 10
0.836
 20
0
 30
1.11266672611237
 70
192
 0
VERTEX
 5
12D
 8
0
 62
131
 10
0.517
 20
0
 30
1.10266673564911
 70
192
 0
VERTEX
 5
12E
 8
0
 62
131
 10
0.517
 20
-0.04
 30
1.06266665458679
 70
192
 0
VERTEX
 5
12F
 8
0
 62
131
 10
0.836
 20
-0.04
 30
1.06266665458679
 70
192
 0
VERTEX
 5
130
 8
0
 62
131
 10
0.836
 20
0
 30
0.812666893005371
 70
192
 0
VERTEX
 5
131
 8
0
 62
131
 10
0.836
 20
0
 30
0.802666902542114
 70
192
 0
VERTEX
 5
132
 8
0
 62
131
 10
0.836
 20
-0.04
 30
0.772666931152344
 70
192
 0
VERTEX
 5
133
 8
0
 62
131
 10
0.517
 20
-0.04
 30
0.762666881084442
 70
192
 0
VERTEX
 5
134
 8
0
 62
131
 10
0.836
 20
-0.04
 30
0.762666881084442
 70
192
 0
VERTEX
 5
135
 8
0
 62
131
 10
0.517
 20
0
 30
0.802666902542114
 70
192
 0
VERTEX
 5
136
 8
0
 62
131
 10
0.517
 20
0
 30
0.812666893005371
 70
192
 0
VERTEX
 5
137
 8
0
 62
131
 10
0.517
 20
-0.04
 30
0.772666931152344
 70
192
 0
VERTEX
 5
138
 8
0
 62
131
 10
0.517
 20
0
 30
0.952666819095611
 70
192
 0
VERTEX
 5
139
 8
0
 62
131
 10
0.517
 20
-0.04
 30
0.922666847705841
 70
192
 0
VERTEX
 5
13A
 8
0
 62
131
 10
0.517
 20
0
 30
0.962666809558868
 70
192
 0
VERTEX
 5
13B
 8
0
 62
131
 10
0.836
 20
0
 30
0.962666809558868
 70
192
 0
VERTEX
 5
13C
 8
0
 62
131
 10
0.836
 20
-0.04
 30
0.922666847705841
 70
192
 0
VERTEX
 5
13D
 8
0
 62
131
 10
0.836
 20
0
 30
0.952666819095611
 70
192
 0
VERTEX
 5
13E
 8
0
 62
131
 10
0.517
 20
-0.04
 30
0.912666857242584
 70
192
 0
VERTEX
 5
13F
 8
0
 62
131
 10
0.836
 20
-0.04
 30
0.912666857242584
 70
192
 0
VERTEX
 5
140
 8
0
 62
131
 10
0.517
 20
0
 30
1.00266683101654
 70
192
 0
VERTEX
 5
141
 8
0
 62
131
 10
0.836
 20
-0.04
 30
0.97266685962677
 70
192
 0
VERTEX
 5
142
 8
0
 62
131
 10
0.836
 20
0
 30
1.01266682147979
 70
192
 0
VERTEX
 5
143
 8
0
 62
131
 10
0.836
 20
-0.04
 30
0.962666928768158
 70
192
 0
VERTEX
 5
144
 8
0
 62
131
 10
0.836
 20
0
 30
1.00266683101654
 70
192
 0
VERTEX
 5
145
 8
0
 62
131
 10
0.517
 20
0
 30
1.01266682147979
 70
192
 0
VERTEX
 5
146
 8
0
 62
131
 10
0.517
 20
-0.04
 30
0.97266685962677
 70
192
 0
VERTEX
 5
147
 8
0
 62
131
 10
0.517
 20
-0.04
 30
0.962666928768158
 70
192
 0
VERTEX
 5
148
 8
0
 62
131
 10
0.393
 20
0
 30
0.672
 70
192
 0
VERTEX
 5
149
 8
0
 62
131
 10
0.393
 20
0
 30
0.682
 70
192
 0
VERTEX
 5
14A
 8
0
 62
131
 10
0.393
 20
-0.04
 30
0.632
 70
192
 0
VERTEX
 5
14B
 8
0
 62
131
 10
0.074
 20
0
 30
0.672
 70
192
 0
VERTEX
 5
14C
 8
0
 62
131
 10
0.074
 20
0
 30
0.682
 70
192
 0
VERTEX
 5
14D
 8
0
 62
131
 10
0.074
 20
-0.04
 30
0.642
 70
192
 0
VERTEX
 5
14E
 8
0
 62
131
 10
0.074
 20
-0.04
 30
0.632
 70
192
 0
VERTEX
 5
14F
 8
0
 62
131
 10
0.393
 20
-0.04
 30
0.642
 70
192
 0
VERTEX
 5
150
 8
0
 62
131
 10
0.074
 20
0
 30
0.222
 70
192
 0
VERTEX
 5
151
 8
0
 62
131
 10
0.074
 20
0
 30
0.232
 70
192
 0
VERTEX
 5
152
 8
0
 62
131
 10
0.393
 20
0
 30
0.232
 70
192
 0
VERTEX
 5
153
 8
0
 62
131
 10
0.393
 20
0
 30
0.222
 70
192
 0
VERTEX
 5
154
 8
0
 62
131
 10
0.074
 20
-0.04
 30
0.182
 70
192
 0
VERTEX
 5
155
 8
0
 62
131
 10
0.074
 20
-0.04
 30
0.192
 70
192
 0
VERTEX
 5
156
 8
0
 62
131
 10
0.393
 20
-0.04
 30
0.182
 70
192
 0
VERTEX
 5
157
 8
0
 62
131
 10
0.393
 20
-0.04
 30
0.192
 70
192
 0
VERTEX
 5
158
 8
0
 62
131
 10
0.393
 20
0
 30
0.532
 70
192
 0
VERTEX
 5
159
 8
0
 62
131
 10
0.393
 20
-0.04
 30
0.492
 70
192
 0
VERTEX
 5
15A
 8
0
 62
131
 10
0.074
 20
0
 30
0.532
 70
192
 0
VERTEX
 5
15B
 8
0
 62
131
 10
0.393
 20
0
 30
0.522
 70
192
 0
VERTEX
 5
15C
 8
0
 62
131
 10
0.393
 20
-0.04
 30
0.482
 70
192
 0
VERTEX
 5
15D
 8
0
 62
131
 10
0.074
 20
0
 30
0.522
 70
192
 0
VERTEX
 5
15E
 8
0
 62
131
 10
0.074
 20
-0.04
 30
0.492
 70
192
 0
VERTEX
 5
15F
 8
0
 62
131
 10
0.074
 20
-0.04
 30
0.482
 70
192
 0
VERTEX
 5
160
 8
0
 62
131
 10
0.393
 20
0
 30
0.472
 70
192
 0
VERTEX
 5
161
 8
0
 62
131
 10
0.074
 20
0
 30
0.472
 70
192
 0
VERTEX
 5
162
 8
0
 62
131
 10
0.074
 20
-0.04
 30
0.442
 70
192
 0
VERTEX
 5
163
 8
0
 62
131
 10
0.393
 20
0
 30
0.482
 70
192
 0
VERTEX
 5
164
 8
0
 62
131
 10
0.393
 20
-0.04
 30
0.442
 70
192
 0
VERTEX
 5
165
 8
0
 62
131
 10
0.074
 20
-0.04
 30
0.432
 70
192
 0
VERTEX
 5
166
 8
0
 62
131
 10
0.074
 20
0
 30
0.482
 70
192
 0
VERTEX
 5
167
 8
0
 62
131
 10
0.393
 20
-0.04
 30
0.432
 70
192
 0
VERTEX
 5
168
 8
0
 62
131
 10
0.393
 20
0
 30
0.582
 70
192
 0
VERTEX
 5
169
 8
0
 62
131
 10
0.074
 20
0
 30
0.582
 70
192
 0
VERTEX
 5
16A
 8
0
 62
131
 10
0.074
 20
-0.04
 30
0.542
 70
192
 0
VERTEX
 5
16B
 8
0
 62
131
 10
0.393
 20
-0.04
 30
0.542
 70
192
 0
VERTEX
 5
16C
 8
0
 62
131
 10
0.393
 20
-0.04
 30
0.532
 70
192
 0
VERTEX
 5
16D
 8
0
 62
131
 10
0.393
 20
0
 30
0.572
 70
192
 0
VERTEX
 5
16E
 8
0
 62
131
 10
0.074
 20
0
 30
0.572
 70
192
 0
VERTEX
 5
16F
 8
0
 62
131
 10
0.074
 20
-0.04
 30
0.532
 70
192
 0
VERTEX
 5
170
 8
0
 62
131
 10
0.074
 20
0
 30
0.182
 70
192
 0
VERTEX
 5
171
 8
0
 62
131
 10
0.393
 20
-0.04
 30
0.142
 70
192
 0
VERTEX
 5
172
 8
0
 62
131
 10
0.393
 20
-0.04
 30
0.132
 70
192
 0
VERTEX
 5
173
 8
0
 62
131
 10
0.393
 20
0
 30
0.182
 70
192
 0
VERTEX
 5
174
 8
0
 62
131
 10
0.393
 20
0
 30
0.172
 70
192
 0
VERTEX
 5
175
 8
0
 62
131
 10
0.074
 20
-0.04
 30
0.132
 70
192
 0
VERTEX
 5
176
 8
0
 62
131
 10
0.074
 20
0
 30
0.172
 70
192
 0
VERTEX
 5
177
 8
0
 62
131
 10
0.074
 20
-0.04
 30
0.142
 70
192
 0
VERTEX
 5
178
 8
0
 62
131
 10
0.393
 20
0
 30
0.372
 70
192
 0
VERTEX
 5
179
 8
0
 62
131
 10
0.074
 20
0
 30
0.382
 70
192
 0
VERTEX
 5
17A
 8
0
 62
131
 10
0.074
 20
-0.04
 30
0.342
 70
192
 0
VERTEX
 5
17B
 8
0
 62
131
 10
0.393
 20
0
 30
0.382
 70
192
 0
VERTEX
 5
17C
 8
0
 62
131
 10
0.393
 20
-0.04
 30
0.342
 70
192
 0
VERTEX
 5
17D
 8
0
 62
131
 10
0.074
 20
-0.04
 30
0.332
 70
192
 0
VERTEX
 5
17E
 8
0
 62
131
 10
0.074
 20
0
 30
0.372
 70
192
 0
VERTEX
 5
17F
 8
0
 62
131
 10
0.393
 20
-0.04
 30
0.332
 70
192
 0
VERTEX
 5
180
 8
0
 62
131
 10
0.393
 20
0
 30
0.432
 70
192
 0
VERTEX
 5
181
 8
0
 62
131
 10
0.074
 20
-0.04
 30
0.392
 70
192
 0
VERTEX
 5
182
 8
0
 62
131
 10
0.393
 20
-0.04
 30
0.382
 70
192
 0
VERTEX
 5
183
 8
0
 62
131
 10
0.393
 20
0
 30
0.422
 70
192
 0
VERTEX
 5
184
 8
0
 62
131
 10
0.074
 20
0
 30
0.432
 70
192
 0
VERTEX
 5
185
 8
0
 62
131
 10
0.074
 20
0
 30
0.422
 70
192
 0
VERTEX
 5
186
 8
0
 62
131
 10
0.074
 20
-0.04
 30
0.382
 70
192
 0
VERTEX
 5
187
 8
0
 62
131
 10
0.393
 20
-0.04
 30
0.392
 70
192
 0
VERTEX
 5
188
 8
0
 62
131
 10
0.393
 20
-0.04
 30
0.092
 70
192
 0
VERTEX
 5
189
 8
0
 62
131
 10
0.393
 20
0
 30
0.132
 70
192
 0
VERTEX
 5
18A
 8
0
 62
131
 10
0.393
 20
0
 30
0.122
 70
192
 0
VERTEX
 5
18B
 8
0
 62
131
 10
0.074
 20
-0.04
 30
0.082
 70
192
 0
VERTEX
 5
18C
 8
0
 62
131
 10
0.393
 20
-0.04
 30
0.082
 70
192
 0
VERTEX
 5
18D
 8
0
 62
131
 10
0.074
 20
0
 30
0.132
 70
192
 0
VERTEX
 5
18E
 8
0
 62
131
 10
0.074
 20
0
 30
0.122
 70
192
 0
VERTEX
 5
18F
 8
0
 62
131
 10
0.074
 20
-0.04
 30
0.092
 70
192
 0
VERTEX
 5
190
 8
0
 62
131
 10
0.074
 20
0
 30
0.272
 70
192
 0
VERTEX
 5
191
 8
0
 62
131
 10
0.074
 20
-0.04
 30
0.242
 70
192
 0
VERTEX
 5
192
 8
0
 62
131
 10
0.074
 20
0
 30
0.282
 70
192
 0
VERTEX
 5
193
 8
0
 62
131
 10
0.393
 20
0
 30
0.282
 70
192
 0
VERTEX
 5
194
 8
0
 62
131
 10
0.393
 20
0
 30
0.272
 70
192
 0
VERTEX
 5
195
 8
0
 62
131
 10
0.393
 20
-0.04
 30
0.232
 70
192
 0
VERTEX
 5
196
 8
0
 62
131
 10
0.393
 20
-0.04
 30
0.242
 70
192
 0
VERTEX
 5
197
 8
0
 62
131
 10
0.074
 20
-0.04
 30
0.232
 70
192
 0
VERTEX
 5
198
 8
0
 62
131
 10
0.393
 20
0
 30
0.332
 70
192
 0
VERTEX
 5
199
 8
0
 62
131
 10
0.074
 20
0
 30
0.332
 70
192
 0
VERTEX
 5
19A
 8
0
 62
131
 10
0.393
 20
-0.04
 30
0.292
 70
192
 0
VERTEX
 5
19B
 8
0
 62
131
 10
0.393
 20
-0.04
 30
0.282
 70
192
 0
VERTEX
 5
19C
 8
0
 62
131
 10
0.074
 20
-0.04
 30
0.282
 70
192
 0
VERTEX
 5
19D
 8
0
 62
131
 10
0.393
 20
0
 30
0.322
 70
192
 0
VERTEX
 5
19E
 8
0
 62
131
 10
0.074
 20
-0.04
 30
0.292
 70
192
 0
VERTEX
 5
19F
 8
0
 62
131
 10
0.074
 20
0
 30
0.322
 70
192
 0
VERTEX
 5
1A0
 8
0
 62
131
 10
0.393
 20
0
 30
1.35266673564911
 70
192
 0
VERTEX
 5
1A1
 8
0
 62
131
 10
0.393
 20
0
 30
1.36266684532166
 70
192
 0
VERTEX
 5
1A2
 8
0
 62
131
 10
0.393
 20
-0.04
 30
1.31266677379608
 70
192
 0
VERTEX
 5
1A3
 8
0
 62
131
 10
0.074
 20
0
 30
1.35266673564911
 70
192
 0
VERTEX
 5
1A4
 8
0
 62
131
 10
0.074
 20
0
 30
1.36266684532166
 70
192
 0
VERTEX
 5
1A5
 8
0
 62
131
 10
0.074
 20
-0.04
 30
1.31266677379608
 70
192
 0
VERTEX
 5
1A6
 8
0
 62
131
 10
0.074
 20
-0.04
 30
1.32266676425934
 70
192
 0
VERTEX
 5
1A7
 8
0
 62
131
 10
0.393
 20
-0.04
 30
1.32266676425934
 70
192
 0
VERTEX
 5
1A8
 8
0
 62
131
 10
0.074
 20
-0.04
 30
1.27266693115234
 70
192
 0
VERTEX
 5
1A9
 8
0
 62
131
 10
0.393
 20
0
 30
1.31266701221466
 70
192
 0
VERTEX
 5
1AA
 8
0
 62
131
 10
0.074
 20
-0.04
 30
1.26266694068908
 70
192
 0
VERTEX
 5
1AB
 8
0
 62
131
 10
0.393
 20
0
 30
1.30266690254211
 70
192
 0
VERTEX
 5
1AC
 8
0
 62
131
 10
0.393
 20
-0.04
 30
1.26266694068908
 70
192
 0
VERTEX
 5
1AD
 8
0
 62
131
 10
0.074
 20
0
 30
1.30266690254211
 70
192
 0
VERTEX
 5
1AE
 8
0
 62
131
 10
0.074
 20
0
 30
1.31266701221466
 70
192
 0
VERTEX
 5
1AF
 8
0
 62
131
 10
0.393
 20
-0.04
 30
1.27266693115234
 70
192
 0
VERTEX
 5
1B0
 8
0
 62
131
 10
0.074
 20
-0.04
 30
0.872666895389557
 70
192
 0
VERTEX
 5
1B1
 8
0
 62
131
 10
0.393
 20
0
 30
0.912666976451874
 70
192
 0
VERTEX
 5
1B2
 8
0
 62
131
 10
0.393
 20
-0.04
 30
0.8626669049263
 70
192
 0
VERTEX
 5
1B3
 8
0
 62
131
 10
0.074
 20
0
 30
0.902666866779327
 70
192
 0
VERTEX
 5
1B4
 8
0
 62
131
 10
0.393
 20
0
 30
0.902666866779327
 70
192
 0
VERTEX
 5
1B5
 8
0
 62
131
 10
0.074
 20
-0.04
 30
0.8626669049263
 70
192
 0
VERTEX
 5
1B6
 8
0
 62
131
 10
0.074
 20
0
 30
0.912666976451874
 70
192
 0
VERTEX
 5
1B7
 8
0
 62
131
 10
0.393
 20
-0.04
 30
0.872666895389557
 70
192
 0
VERTEX
 5
1B8
 8
0
 62
131
 10
0.074
 20
0
 30
1.21266686916351
 70
192
 0
VERTEX
 5
1B9
 8
0
 62
131
 10
0.074
 20
0
 30
1.20266687870025
 70
192
 0
VERTEX
 5
1BA
 8
0
 62
131
 10
0.393
 20
0
 30
1.21266686916351
 70
192
 0
VERTEX
 5
1BB
 8
0
 62
131
 10
0.393
 20
-0.04
 30
1.17266690731048
 70
192
 0
VERTEX
 5
1BC
 8
0
 62
131
 10
0.393
 20
-0.04
 30
1.16266691684723
 70
192
 0
VERTEX
 5
1BD
 8
0
 62
131
 10
0.393
 20
0
 30
1.20266687870025
 70
192
 0
VERTEX
 5
1BE
 8
0
 62
131
 10
0.074
 20
-0.04
 30
1.17266690731048
 70
192
 0
VERTEX
 5
1BF
 8
0
 62
131
 10
0.074
 20
-0.04
 30
1.16266691684723
 70
192
 0
VERTEX
 5
1C0
 8
0
 62
131
 10
0.393
 20
0
 30
1.16266703605652
 70
192
 0
VERTEX
 5
1C1
 8
0
 62
131
 10
0.393
 20
-0.04
 30
1.11266696453094
 70
192
 0
VERTEX
 5
1C2
 8
0
 62
131
 10
0.074
 20
-0.04
 30
1.11266696453094
 70
192
 0
VERTEX
 5
1C3
 8
0
 62
131
 10
0.393
 20
0
 30
1.15266692638397
 70
192
 0
VERTEX
 5
1C4
 8
0
 62
131
 10
0.074
 20
0
 30
1.15266692638397
 70
192
 0
VERTEX
 5
1C5
 8
0
 62
131
 10
0.074
 20
0
 30
1.16266703605652
 70
192
 0
VERTEX
 5
1C6
 8
0
 62
131
 10
0.074
 20
-0.04
 30
1.1226669549942
 70
192
 0
VERTEX
 5
1C7
 8
0
 62
131
 10
0.393
 20
-0.04
 30
1.1226669549942
 70
192
 0
VERTEX
 5
1C8
 8
0
 62
131
 10
0.074
 20
0
 30
1.26266705989838
 70
192
 0
VERTEX
 5
1C9
 8
0
 62
131
 10
0.074
 20
0
 30
1.25266706943512
 70
192
 0
VERTEX
 5
1CA
 8
0
 62
131
 10
0.074
 20
-0.04
 30
1.22266709804535
 70
192
 0
VERTEX
 5
1CB
 8
0
 62
131
 10
0.393
 20
0
 30
1.26266705989838
 70
192
 0
VERTEX
 5
1CC
 8
0
 62
131
 10
0.393
 20
-0.04
 30
1.21266710758209
 70
192
 0
VERTEX
 5
1CD
 8
0
 62
131
 10
0.393
 20
0
 30
1.25266706943512
 70
192
 0
VERTEX
 5
1CE
 8
0
 62
131
 10
0.074
 20
-0.04
 30
1.21266710758209
 70
192
 0
VERTEX
 5
1CF
 8
0
 62
131
 10
0.393
 20
-0.04
 30
1.22266709804535
 70
192
 0
VERTEX
 5
1D0
 8
0
 62
131
 10
0.074
 20
0
 30
0.852666914463043
 70
192
 0
VERTEX
 5
1D1
 8
0
 62
131
 10
0.393
 20
0
 30
0.8626669049263
 70
192
 0
VERTEX
 5
1D2
 8
0
 62
131
 10
0.074
 20
0
 30
0.8626669049263
 70
192
 0
VERTEX
 5
1D3
 8
0
 62
131
 10
0.393
 20
0
 30
0.852666914463043
 70
192
 0
VERTEX
 5
1D4
 8
0
 62
131
 10
0.393
 20
-0.04
 30
0.812666893005371
 70
192
 0
VERTEX
 5
1D5
 8
0
 62
131
 10
0.074
 20
-0.04
 30
0.822666943073273
 70
192
 0
VERTEX
 5
1D6
 8
0
 62
131
 10
0.074
 20
-0.04
 30
0.812666893005371
 70
192
 0
VERTEX
 5
1D7
 8
0
 62
131
 10
0.393
 20
-0.04
 30
0.822666943073273
 70
192
 0
VERTEX
 5
1D8
 8
0
 62
131
 10
0.393
 20
0
 30
1.06266689300537
 70
192
 0
VERTEX
 5
1D9
 8
0
 62
131
 10
0.074
 20
0
 30
1.05266690254211
 70
192
 0
VERTEX
 5
1DA
 8
0
 62
131
 10
0.393
 20
0
 30
1.05266690254211
 70
192
 0
VERTEX
 5
1DB
 8
0
 62
131
 10
0.074
 20
-0.04
 30
1.01266694068908
 70
192
 0
VERTEX
 5
1DC
 8
0
 62
131
 10
0.393
 20
-0.04
 30
1.01266694068908
 70
192
 0
VERTEX
 5
1DD
 8
0
 62
131
 10
0.074
 20
-0.04
 30
1.02266693115234
 70
192
 0
VERTEX
 5
1DE
 8
0
 62
131
 10
0.074
 20
0
 30
1.06266689300537
 70
192
 0
VERTEX
 5
1DF
 8
0
 62
131
 10
0.393
 20
-0.04
 30
1.02266693115234
 70
192
 0
VERTEX
 5
1E0
 8
0
 62
131
 10
0.074
 20
0
 30
1.11266672611237
 70
192
 0
VERTEX
 5
1E1
 8
0
 62
131
 10
0.393
 20
0
 30
1.10266673564911
 70
192
 0
VERTEX
 5
1E2
 8
0
 62
131
 10
0.074
 20
0
 30
1.10266673564911
 70
192
 0
VERTEX
 5
1E3
 8
0
 62
131
 10
0.074
 20
-0.04
 30
1.07266664505005
 70
192
 0
VERTEX
 5
1E4
 8
0
 62
131
 10
0.393
 20
0
 30
1.11266672611237
 70
192
 0
VERTEX
 5
1E5
 8
0
 62
131
 10
0.393
 20
-0.04
 30
1.06266665458679
 70
192
 0
VERTEX
 5
1E6
 8
0
 62
131
 10
0.074
 20
-0.04
 30
1.06266665458679
 70
192
 0
VERTEX
 5
1E7
 8
0
 62
131
 10
0.393
 20
-0.04
 30
1.07266664505005
 70
192
 0
VERTEX
 5
1E8
 8
0
 62
131
 10
0.393
 20
0
 30
0.812666893005371
 70
192
 0
VERTEX
 5
1E9
 8
0
 62
131
 10
0.393
 20
0
 30
0.802666902542114
 70
192
 0
VERTEX
 5
1EA
 8
0
 62
131
 10
0.074
 20
-0.04
 30
0.762666881084442
 70
192
 0
VERTEX
 5
1EB
 8
0
 62
131
 10
0.393
 20
-0.04
 30
0.762666881084442
 70
192
 0
VERTEX
 5
1EC
 8
0
 62
131
 10
0.074
 20
0
 30
0.802666902542114
 70
192
 0
VERTEX
 5
1ED
 8
0
 62
131
 10
0.074
 20
0
 30
0.812666893005371
 70
192
 0
VERTEX
 5
1EE
 8
0
 62
131
 10
0.074
 20
-0.04
 30
0.772666931152344
 70
192
 0
VERTEX
 5
1EF
 8
0
 62
131
 10
0.393
 20
-0.04
 30
0.772666931152344
 70
192
 0
VERTEX
 5
1F0
 8
0
 62
131
 10
0.393
 20
0
 30
0.952666819095611
 70
192
 0
VERTEX
 5
1F1
 8
0
 62
131
 10
0.393
 20
-0.04
 30
0.922666847705841
 70
192
 0
VERTEX
 5
1F2
 8
0
 62
131
 10
0.393
 20
0
 30
0.962666809558868
 70
192
 0
VERTEX
 5
1F3
 8
0
 62
131
 10
0.393
 20
-0.04
 30
0.912666857242584
 70
192
 0
VERTEX
 5
1F4
 8
0
 62
131
 10
0.074
 20
0
 30
0.952666819095611
 70
192
 0
VERTEX
 5
1F5
 8
0
 62
131
 10
0.074
 20
0
 30
0.962666809558868
 70
192
 0
VERTEX
 5
1F6
 8
0
 62
131
 10
0.074
 20
-0.04
 30
0.922666847705841
 70
192
 0
VERTEX
 5
1F7
 8
0
 62
131
 10
0.074
 20
-0.04
 30
0.912666857242584
 70
192
 0
VERTEX
 5
1F8
 8
0
 62
131
 10
0.074
 20
0
 30
1.01266682147979
 70
192
 0
VERTEX
 5
1F9
 8
0
 62
131
 10
0.393
 20
0
 30
1.01266682147979
 70
192
 0
VERTEX
 5
1FA
 8
0
 62
131
 10
0.074
 20
0
 30
1.00266683101654
 70
192
 0
VERTEX
 5
1FB
 8
0
 62
131
 10
0.074
 20
-0.04
 30
0.97266685962677
 70
192
 0
VERTEX
 5
1FC
 8
0
 62
131
 10
0.393
 20
-0.04
 30
0.97266685962677
 70
192
 0
VERTEX
 5
1FD
 8
0
 62
131
 10
0.393
 20
0
 30
1.00266683101654
 70
192
 0
VERTEX
 5
1FE
 8
0
 62
131
 10
0.393
 20
-0.04
 30
0.962666928768158
 70
192
 0
VERTEX
 5
1FF
 8
0
 62
131
 10
0.074
 20
-0.04
 30
0.962666928768158
 70
192
 0
VERTEX
 5
200
 8
0
 62
131
 10
0.836
 20
-0.04
 30
0.072
 70
192
 0
VERTEX
 5
201
 8
0
 62
131
 10
0.896
 20
-0.04
 30
0.69266664981842
 70
192
 0
VERTEX
 5
202
 8
0
 62
131
 10
0.517
 20
-0.04
 30
0.072
 70
192
 0
VERTEX
 5
203
 8
0
 62
131
 10
0.457
 20
0
 30
0.012
 70
192
 0
VERTEX
 5
204
 8
0
 62
131
 10
0.457
 20
-0.04
 30
0.69266664981842
 70
192
 0
VERTEX
 5
205
 8
0
 62
131
 10
0.457
 20
-0.04
 30
0.012
 70
192
 0
VERTEX
 5
206
 8
0
 62
131
 10
0.517
 20
-0.04
 30
0.69266664981842
 70
192
 0
VERTEX
 5
207
 8
0
 62
131
 10
0.517
 20
0
 30
0.072
 70
192
 0
VERTEX
 5
208
 8
0
 62
131
 10
0.836
 20
0
 30
0.072
 70
192
 0
VERTEX
 5
209
 8
0
 62
131
 10
0.896
 20
0
 30
0.012
 70
192
 0
VERTEX
 5
20A
 8
0
 62
131
 10
0.896
 20
0
 30
0.69266664981842
 70
192
 0
VERTEX
 5
20B
 8
0
 62
131
 10
0.896
 20
-0.04
 30
0.012
 70
192
 0
VERTEX
 5
20C
 8
0
 62
131
 10
0.836
 20
-0.04
 30
0.752666473388672
 70
192
 0
VERTEX
 5
20D
 8
0
 62
131
 10
0.457
 20
-0.04
 30
0.752666473388672
 70
192
 0
VERTEX
 5
20E
 8
0
 62
131
 10
0.457
 20
0
 30
0.752666473388672
 70
192
 0
VERTEX
 5
20F
 8
0
 62
131
 10
0.457
 20
0
 30
0.69266664981842
 70
192
 0
VERTEX
 5
210
 8
0
 62
131
 10
0.836
 20
-0.04
 30
0.69266664981842
 70
192
 0
VERTEX
 5
211
 8
0
 62
131
 10
0.896
 20
-0.04
 30
1.43333339691162
 70
192
 0
VERTEX
 5
212
 8
0
 62
131
 10
0.836
 20
-0.04
 30
1.37333333492279
 70
192
 0
VERTEX
 5
213
 8
0
 62
131
 10
0.457
 20
-0.04
 30
1.43333339691162
 70
192
 0
VERTEX
 5
214
 8
0
 62
131
 10
0.517
 20
0
 30
0.69266664981842
 70
192
 0
VERTEX
 5
215
 8
0
 62
131
 10
0.517
 20
0
 30
0.752666473388672
 70
192
 0
VERTEX
 5
216
 8
0
 62
131
 10
0.517
 20
-0.04
 30
0.752666473388672
 70
192
 0
VERTEX
 5
217
 8
0
 62
131
 10
0.836
 20
0
 30
0.69266664981842
 70
192
 0
VERTEX
 5
218
 8
0
 62
131
 10
0.836
 20
0
 30
0.752666473388672
 70
192
 0
VERTEX
 5
219
 8
0
 62
131
 10
0.896
 20
-0.04
 30
0.752666473388672
 70
192
 0
VERTEX
 5
21A
 8
0
 62
131
 10
0.896
 20
0
 30
0.752666473388672
 70
192
 0
VERTEX
 5
21B
 8
0
 62
131
 10
0.896
 20
0
 30
1.43333339691162
 70
192
 0
VERTEX
 5
21C
 8
0
 62
131
 10
0.457
 20
0
 30
1.43333339691162
 70
192
 0
VERTEX
 5
21D
 8
0
 62
131
 10
0.517
 20
-0.04
 30
1.37333333492279
 70
192
 0
VERTEX
 5
21E
 8
0
 62
131
 10
0.836
 20
0
 30
1.37333333492279
 70
192
 0
VERTEX
 5
21F
 8
0
 62
131
 10
0.517
 20
0
 30
1.37333333492279
 70
192
 0
VERTEX
 5
220
 8
0
 62
131
 10
0.453
 20
-0.04
 30
0.012
 70
192
 0
VERTEX
 5
221
 8
0
 62
131
 10
0.014
 20
-0.04
 30
0.69266664981842
 70
192
 0
VERTEX
 5
222
 8
0
 62
131
 10
0.014
 20
0
 30
0.012
 70
192
 0
VERTEX
 5
223
 8
0
 62
131
 10
0.393
 20
-0.04
 30
0.69266664981842
 70
192
 0
VERTEX
 5
224
 8
0
 62
131
 10
0.393
 20
0
 30
0.072
 70
192
 0
VERTEX
 5
225
 8
0
 62
131
 10
0.014
 20
-0.04
 30
0.012
 70
192
 0
VERTEX
 5
226
 8
0
 62
131
 10
0.074
 20
-0.04
 30
0.072
 70
192
 0
VERTEX
 5
227
 8
0
 62
131
 10
0.074
 20
-0.04
 30
0.69266664981842
 70
192
 0
VERTEX
 5
228
 8
0
 62
131
 10
0.014
 20
-0.04
 30
0.752666473388672
 70
192
 0
VERTEX
 5
229
 8
0
 62
131
 10
0.453
 20
-0.04
 30
0.69266664981842
 70
192
 0
VERTEX
 5
22A
 8
0
 62
131
 10
0.453
 20
0
 30
0.012
 70
192
 0
VERTEX
 5
22B
 8
0
 62
131
 10
0.393
 20
-0.04
 30
0.072
 70
192
 0
VERTEX
 5
22C
 8
0
 62
131
 10
0.393
 20
0
 30
0.69266664981842
 70
192
 0
VERTEX
 5
22D
 8
0
 62
131
 10
0.393
 20
-0.04
 30
0.752666473388672
 70
192
 0
VERTEX
 5
22E
 8
0
 62
131
 10
0.014
 20
0
 30
0.69266664981842
 70
192
 0
VERTEX
 5
22F
 8
0
 62
131
 10
0.074
 20
0
 30
0.072
 70
192
 0
VERTEX
 5
230
 8
0
 62
131
 10
0.074
 20
0
 30
0.69266664981842
 70
192
 0
VERTEX
 5
231
 8
0
 62
131
 10
0.453
 20
-0.04
 30
1.43333339691162
 70
192
 0
VERTEX
 5
232
 8
0
 62
131
 10
0.014
 20
0
 30
0.752666473388672
 70
192
 0
VERTEX
 5
233
 8
0
 62
131
 10
0.074
 20
0
 30
0.752666473388672
 70
192
 0
VERTEX
 5
234
 8
0
 62
131
 10
0.074
 20
-0.04
 30
0.752666473388672
 70
192
 0
VERTEX
 5
235
 8
0
 62
131
 10
0.074
 20
-0.04
 30
1.37333333492279
 70
192
 0
VERTEX
 5
236
 8
0
 62
131
 10
0.453
 20
0
 30
0.69266664981842
 70
192
 0
VERTEX
 5
237
 8
0
 62
131
 10
0.453
 20
-0.04
 30
0.752666473388672
 70
192
 0
VERTEX
 5
238
 8
0
 62
131
 10
0.393
 20
-0.04
 30
1.37333333492279
 70
192
 0
VERTEX
 5
239
 8
0
 62
131
 10
0.393
 20
0
 30
0.752666473388672
 70
192
 0
VERTEX
 5
23A
 8
0
 62
131
 10
0.014
 20
-0.04
 30
1.43333339691162
 70
192
 0
VERTEX
 5
23B
 8
0
 62
131
 10
0.074
 20
0
 30
1.37333333492279
 70
192
 0
VERTEX
 5
23C
 8
0
 62
131
 10
0.393
 20
0
 30
1.37333333492279
 70
192
 0
VERTEX
 5
23D
 8
0
 62
131
 10
0.453
 20
0
 30
1.43333339691162
 70
192
 0
VERTEX
 5
23E
 8
0
 62
131
 10
0.453
 20
0
 30
0.752666473388672
 70
192
 0
VERTEX
 5
23F
 8
0
 62
131
 10
0.014
 20
0
 30
1.43333339691162
 70
192
 0
VERTEX
 5
240
 8
0
 62
131
 10
0.85
 20
0.33
 30
1.385
 70
192
 0
VERTEX
 5
241
 8
0
 62
131
 10
0
 20
0.33
 30
1.445
 70
192
 0
VERTEX
 5
242
 8
0
 62
131
 10
0
 20
0.25
 30
1.445
 70
192
 0
VERTEX
 5
243
 8
0
 62
131
 10
0.91
 20
0.33
 30
0
 70
192
 0
VERTEX
 5
244
 8
0
 62
131
 10
0.06
 20
0.25
 30
1.385
 70
192
 0
VERTEX
 5
245
 8
0
 62
131
 10
0.06
 20
0.33
 30
0.06
 70
192
 0
VERTEX
 5
246
 8
0
 62
131
 10
0
 20
0.33
 30
0
 70
192
 0
VERTEX
 5
247
 8
0
 62
131
 10
0.91
 20
0.25
 30
1.445
 70
192
 0
VERTEX
 5
248
 8
0
 62
131
 10
0.91
 20
0.25
 30
1.445
 70
192
 0
VERTEX
 5
249
 8
0
 62
131
 10
0.91
 20
0.25
 30
0
 70
192
 0
VERTEX
 5
24A
 8
0
 62
131
 10
0.91
 20
0.33
 30
1.445
 70
192
 0
VERTEX
 5
24B
 8
0
 62
131
 10
0.85
 20
0.33
 30
0.06
 70
192
 0
VERTEX
 5
24C
 8
0
 62
131
 10
0.85
 20
0.25
 30
1.385
 70
192
 0
VERTEX
 5
24D
 8
0
 62
131
 10
0.85
 20
0.25
 30
0.06
 70
192
 0
VERTEX
 5
24E
 8
0
 62
131
 10
0.06
 20
0.33
 30
1.385
 70
192
 0
VERTEX
 5
24F
 8
0
 62
131
 10
0
 20
0.25
 30
0
 70
192
 0
VERTEX
 5
250
 8
0
 62
131
 10
0.06
 20
0.25
 30
0.06
 70
192
 0
VERTEX
 5
251
 8
0
 62
131
 10
1.05
 20
0.25
 30
1.585
 70
192
 0
VERTEX
 5
252
 8
0
 62
131
 10
1.05
 20
-0.03
 30
1.585
 70
192
 0
VERTEX
 5
253
 8
0
 62
131
 10
0.9
 20
-0.03
 30
0.01
 70
192
 0
VERTEX
 5
254
 8
0
 62
131
 10
1.05
 20
-0.03
 30
-0.14
 70
192
 0
VERTEX
 5
255
 8
0
 62
131
 10
0.9
 20
0.25
 30
1.435
 70
192
 0
VERTEX
 5
256
 8
0
 62
131
 10
0.9
 20
-0.03
 30
1.435
 70
192
 0
VERTEX
 5
257
 8
0
 62
131
 10
1.05
 20
0.25
 30
-0.14
 70
192
 0
VERTEX
 5
258
 8
0
 62
131
 10
-0.14
 20
0.25
 30
1.585
 70
192
 0
VERTEX
 5
259
 8
0
 62
131
 10
-0.14
 20
-0.03
 30
1.585
 70
192
 0
VERTEX
 5
25A
 8
0
 62
131
 10
0.01
 20
-0.03
 30
1.435
 70
192
 0
VERTEX
 5
25B
 8
0
 62
131
 10
0.01
 20
0.25
 30
1.435
 70
192
 0
VERTEX
 5
25C
 8
0
 62
131
 10
0.01
 20
-0.03
 30
0.01
 70
192
 0
VERTEX
 5
25D
 8
0
 62
131
 10
0.01
 20
0.25
 30
0.01
 70
192
 0
VERTEX
 5
25E
 8
0
 62
131
 10
0.9
 20
0.25
 30
0.01
 70
192
 0
VERTEX
 5
25F
 8
0
 62
131
 10
-0.14
 20
-0.03
 30
-0.14
 70
192
 0
VERTEX
 5
260
 8
0
 62
131
 10
-0.14
 20
0.25
 30
-0.14
 70
192
 0
VERTEX
 5
261
 8
0
 62
131
 10
0
 20
0.25
 30
0
 70
128
 71
2
 72
1
 73
3
 74
4
 0
VERTEX
 5
262
 8
0
 62
131
 10
0
 20
0.25
 30
0
 70
128
 71
8
 72
5
 73
4
 74
3
 0
VERTEX
 5
263
 8
0
 62
131
 10
0
 20
0.25
 30
0
 70
128
 71
5
 72
7
 73
2
 74
4
 0
VERTEX
 5
264
 8
0
 62
131
 10
0
 20
0.25
 30
0
 70
128
 71
1
 72
2
 73
7
 74
6
 0
VERTEX
 5
265
 8
0
 62
131
 10
0
 20
0.25
 30
0
 70
128
 71
3
 72
1
 73
6
 74
8
 0
VERTEX
 5
266
 8
0
 62
131
 10
0
 20
0.25
 30
0
 70
128
 71
5
 72
8
 73
6
 74
7
 0
VERTEX
 5
267
 8
0
 62
131
 10
0
 20
0.25
 30
0
 70
128
 71
13
 72
9
 73
10
 74
14
 0
VERTEX
 5
268
 8
0
 62
131
 10
0
 20
0.25
 30
0
 70
128
 71
11
 72
15
 73
9
 74
13
 0
VERTEX
 5
269
 8
0
 62
131
 10
0
 20
0.25
 30
0
 70
128
 71
15
 72
12
 73
10
 74
9
 0
VERTEX
 5
26A
 8
0
 62
131
 10
0
 20
0.25
 30
0
 70
128
 71
12
 72
16
 73
14
 74
10
 0
VERTEX
 5
26B
 8
0
 62
131
 10
0
 20
0.25
 30
0
 70
128
 71
16
 72
11
 73
13
 74
14
 0
VERTEX
 5
26C
 8
0
 62
131
 10
0
 20
0.25
 30
0
 70
128
 71
15
 72
11
 73
16
 74
12
 0
VERTEX
 5
26D
 8
0
 62
131
 10
0
 20
0.25
 30
0
 70
128
 71
18
 72
19
 73
17
 74
21
 0
VERTEX
 5
26E
 8
0
 62
131
 10
0
 20
0.25
 30
0
 70
128
 71
24
 72
20
 73
19
 74
18
 0
VERTEX
 5
26F
 8
0
 62
131
 10
0
 20
0.25
 30
0
 70
128
 71
20
 72
22
 73
17
 74
19
 0
VERTEX
 5
270
 8
0
 62
131
 10
0
 20
0.25
 30
0
 70
128
 71
22
 72
23
 73
21
 74
17
 0
VERTEX
 5
271
 8
0
 62
131
 10
0
 20
0.25
 30
0
 70
128
 71
23
 72
24
 73
18
 74
21
 0
VERTEX
 5
272
 8
0
 62
131
 10
0
 20
0.25
 30
0
 70
128
 71
20
 72
24
 73
23
 74
22
 0
VERTEX
 5
273
 8
0
 62
131
 10
0
 20
0.25
 30
0
 70
128
 71
31
 72
26
 73
25
 74
30
 0
VERTEX
 5
274
 8
0
 62
131
 10
0
 20
0.25
 30
0
 70
128
 71
32
 72
27
 73
26
 74
31
 0
VERTEX
 5
275
 8
0
 62
131
 10
0
 20
0.25
 30
0
 70
128
 71
27
 72
29
 73
25
 74
26
 0
VERTEX
 5
276
 8
0
 62
131
 10
0
 20
0.25
 30
0
 70
128
 71
29
 72
28
 73
30
 74
25
 0
VERTEX
 5
277
 8
0
 62
131
 10
0
 20
0.25
 30
0
 70
128
 71
28
 72
32
 73
31
 74
30
 0
VERTEX
 5
278
 8
0
 62
131
 10
0
 20
0.25
 30
0
 70
128
 71
27
 72
32
 73
28
 74
29
 0
VERTEX
 5
279
 8
0
 62
131
 10
0
 20
0.25
 30
0
 70
128
 71
34
 72
35
 73
36
 74
37
 0
VERTEX
 5
27A
 8
0
 62
131
 10
0
 20
0.25
 30
0
 70
128
 71
33
 72
38
 73
35
 74
34
 0
VERTEX
 5
27B
 8
0
 62
131
 10
0
 20
0.25
 30
0
 70
128
 71
38
 72
40
 73
36
 74
35
 0
VERTEX
 5
27C
 8
0
 62
131
 10
0
 20
0.25
 30
0
 70
128
 71
40
 72
39
 73
37
 74
36
 0
VERTEX
 5
27D
 8
0
 62
131
 10
0
 20
0.25
 30
0
 70
128
 71
39
 72
33
 73
34
 74
37
 0
VERTEX
 5
27E
 8
0
 62
131
 10
0
 20
0.25
 30
0
 70
128
 71
38
 72
33
 73
39
 74
40
 0
VERTEX
 5
27F
 8
0
 62
131
 10
0
 20
0.25
 30
0
 70
128
 71
43
 72
41
 73
44
 74
46
 0
VERTEX
 5
280
 8
0
 62
131
 10
0
 20
0.25
 30
0
 70
128
 71
47
 72
42
 73
41
 74
43
 0
VERTEX
 5
281
 8
0
 62
131
 10
0
 20
0.25
 30
0
 70
128
 71
42
 72
45
 73
44
 74
41
 0
VERTEX
 5
282
 8
0
 62
131
 10
0
 20
0.25
 30
0
 70
128
 71
45
 72
48
 73
46
 74
44
 0
VERTEX
 5
283
 8
0
 62
131
 10
0
 20
0.25
 30
0
 70
128
 71
48
 72
47
 73
43
 74
46
 0
VERTEX
 5
284
 8
0
 62
131
 10
0
 20
0.25
 30
0
 70
128
 71
42
 72
47
 73
48
 74
45
 0
VERTEX
 5
285
 8
0
 62
131
 10
0
 20
0.25
 30
0
 70
128
 71
50
 72
52
 73
49
 74
54
 0
VERTEX
 5
286
 8
0
 62
131
 10
0
 20
0.25
 30
0
 70
128
 71
53
 72
51
 73
52
 74
50
 0
VERTEX
 5
287
 8
0
 62
131
 10
0
 20
0.25
 30
0
 70
128
 71
51
 72
56
 73
49
 74
52
 0
VERTEX
 5
288
 8
0
 62
131
 10
0
 20
0.25
 30
0
 70
128
 71
56
 72
55
 73
54
 74
49
 0
VERTEX
 5
289
 8
0
 62
131
 10
0
 20
0.25
 30
0
 70
128
 71
55
 72
53
 73
50
 74
54
 0
VERTEX
 5
28A
 8
0
 62
131
 10
0
 20
0.25
 30
0
 70
128
 71
51
 72
53
 73
55
 74
56
 0
VERTEX
 5
28B
 8
0
 62
131
 10
0
 20
0.25
 30
0
 70
128
 71
64
 72
61
 73
57
 74
63
 0
VERTEX
 5
28C
 8
0
 62
131
 10
0
 20
0.25
 30
0
 70
128
 71
59
 72
58
 73
61
 74
64
 0
VERTEX
 5
28D
 8
0
 62
131
 10
0
 20
0.25
 30
0
 70
128
 71
58
 72
60
 73
57
 74
61
 0
VERTEX
 5
28E
 8
0
 62
131
 10
0
 20
0.25
 30
0
 70
128
 71
60
 72
62
 73
63
 74
57
 0
VERTEX
 5
28F
 8
0
 62
131
 10
0
 20
0.25
 30
0
 70
128
 71
62
 72
59
 73
64
 74
63
 0
VERTEX
 5
290
 8
0
 62
131
 10
0
 20
0.25
 30
0
 70
128
 71
58
 72
59
 73
62
 74
60
 0
VERTEX
 5
291
 8
0
 62
131
 10
0
 20
0.25
 30
0
 70
128
 71
68
 72
65
 73
66
 74
67
 0
VERTEX
 5
292
 8
0
 62
131
 10
0
 20
0.25
 30
0
 70
128
 71
71
 72
72
 73
65
 74
68
 0
VERTEX
 5
293
 8
0
 62
131
 10
0
 20
0.25
 30
0
 70
128
 71
72
 72
69
 73
66
 74
65
 0
VERTEX
 5
294
 8
0
 62
131
 10
0
 20
0.25
 30
0
 70
128
 71
69
 72
70
 73
67
 74
66
 0
VERTEX
 5
295
 8
0
 62
131
 10
0
 20
0.25
 30
0
 70
128
 71
70
 72
71
 73
68
 74
67
 0
VERTEX
 5
296
 8
0
 62
131
 10
0
 20
0.25
 30
0
 70
128
 71
72
 72
71
 73
70
 74
69
 0
VERTEX
 5
297
 8
0
 62
131
 10
0
 20
0.25
 30
0
 70
128
 71
73
 72
76
 73
75
 74
74
 0
VERTEX
 5
298
 8
0
 62
131
 10
0
 20
0.25
 30
0
 70
128
 71
79
 72
77
 73
76
 74
73
 0
VERTEX
 5
299
 8
0
 62
131
 10
0
 20
0.25
 30
0
 70
128
 71
77
 72
80
 73
75
 74
76
 0
VERTEX
 5
29A
 8
0
 62
131
 10
0
 20
0.25
 30
0
 70
128
 71
80
 72
78
 73
74
 74
75
 0
VERTEX
 5
29B
 8
0
 62
131
 10
0
 20
0.25
 30
0
 70
128
 71
78
 72
79
 73
73
 74
74
 0
VERTEX
 5
29C
 8
0
 62
131
 10
0
 20
0.25
 30
0
 70
128
 71
77
 72
79
 73
78
 74
80
 0
VERTEX
 5
29D
 8
0
 62
131
 10
0
 20
0.25
 30
0
 70
128
 71
86
 72
82
 73
84
 74
85
 0
VERTEX
 5
29E
 8
0
 62
131
 10
0
 20
0.25
 30
0
 70
128
 71
83
 72
81
 73
82
 74
86
 0
VERTEX
 5
29F
 8
0
 62
131
 10
0
 20
0.25
 30
0
 70
128
 71
81
 72
88
 73
84
 74
82
 0
VERTEX
 5
2A0
 8
0
 62
131
 10
0
 20
0.25
 30
0
 70
128
 71
88
 72
87
 73
85
 74
84
 0
VERTEX
 5
2A1
 8
0
 62
131
 10
0
 20
0.25
 30
0
 70
128
 71
87
 72
83
 73
86
 74
85
 0
VERTEX
 5
2A2
 8
0
 62
131
 10
0
 20
0.25
 30
0
 70
128
 71
81
 72
83
 73
87
 74
88
 0
VERTEX
 5
2A3
 8
0
 62
131
 10
0
 20
0.25
 30
0
 70
128
 71
95
 72
91
 73
93
 74
89
 0
VERTEX
 5
2A4
 8
0
 62
131
 10
0
 20
0.25
 30
0
 70
128
 71
92
 72
90
 73
91
 74
95
 0
VERTEX
 5
2A5
 8
0
 62
131
 10
0
 20
0.25
 30
0
 70
128
 71
90
 72
96
 73
93
 74
91
 0
VERTEX
 5
2A6
 8
0
 62
131
 10
0
 20
0.25
 30
0
 70
128
 71
96
 72
94
 73
89
 74
93
 0
VERTEX
 5
2A7
 8
0
 62
131
 10
0
 20
0.25
 30
0
 70
128
 71
94
 72
92
 73
95
 74
89
 0
VERTEX
 5
2A8
 8
0
 62
131
 10
0
 20
0.25
 30
0
 70
128
 71
90
 72
92
 73
94
 74
96
 0
VERTEX
 5
2A9
 8
0
 62
131
 10
0
 20
0.25
 30
0
 70
128
 71
102
 72
99
 73
98
 74
97
 0
VERTEX
 5
2AA
 8
0
 62
131
 10
0
 20
0.25
 30
0
 70
128
 71
100
 72
101
 73
99
 74
102
 0
VERTEX
 5
2AB
 8
0
 62
131
 10
0
 20
0.25
 30
0
 70
128
 71
101
 72
103
 73
98
 74
99
 0
VERTEX
 5
2AC
 8
0
 62
131
 10
0
 20
0.25
 30
0
 70
128
 71
103
 72
104
 73
97
 74
98
 0
VERTEX
 5
2AD
 8
0
 62
131
 10
0
 20
0.25
 30
0
 70
128
 71
104
 72
100
 73
102
 74
97
 0
VERTEX
 5
2AE
 8
0
 62
131
 10
0
 20
0.25
 30
0
 70
128
 71
101
 72
100
 73
104
 74
103
 0
VERTEX
 5
2AF
 8
0
 62
131
 10
0
 20
0.25
 30
0
 70
128
 71
109
 72
106
 73
107
 74
105
 0
VERTEX
 5
2B0
 8
0
 62
131
 10
0
 20
0.25
 30
0
 70
128
 71
108
 72
111
 73
106
 74
109
 0
VERTEX
 5
2B1
 8
0
 62
131
 10
0
 20
0.25
 30
0
 70
128
 71
111
 72
112
 73
107
 74
106
 0
VERTEX
 5
2B2
 8
0
 62
131
 10
0
 20
0.25
 30
0
 70
128
 71
112
 72
110
 73
105
 74
107
 0
VERTEX
 5
2B3
 8
0
 62
131
 10
0
 20
0.25
 30
0
 70
128
 71
110
 72
108
 73
109
 74
105
 0
VERTEX
 5
2B4
 8
0
 62
131
 10
0
 20
0.25
 30
0
 70
128
 71
111
 72
108
 73
110
 74
112
 0
VERTEX
 5
2B5
 8
0
 62
131
 10
0
 20
0.25
 30
0
 70
128
 71
115
 72
117
 73
114
 74
113
 0
VERTEX
 5
2B6
 8
0
 62
131
 10
0
 20
0.25
 30
0
 70
128
 71
119
 72
116
 73
117
 74
115
 0
VERTEX
 5
2B7
 8
0
 62
131
 10
0
 20
0.25
 30
0
 70
128
 71
116
 72
118
 73
114
 74
117
 0
VERTEX
 5
2B8
 8
0
 62
131
 10
0
 20
0.25
 30
0
 70
128
 71
118
 72
120
 73
113
 74
114
 0
VERTEX
 5
2B9
 8
0
 62
131
 10
0
 20
0.25
 30
0
 70
128
 71
120
 72
119
 73
115
 74
113
 0
VERTEX
 5
2BA
 8
0
 62
131
 10
0
 20
0.25
 30
0
 70
128
 71
116
 72
119
 73
120
 74
118
 0
VERTEX
 5
2BB
 8
0
 62
131
 10
0
 20
0.25
 30
0
 70
128
 71
126
 72
122
 73
123
 74
125
 0
VERTEX
 5
2BC
 8
0
 62
131
 10
0
 20
0.25
 30
0
 70
128
 71
121
 72
124
 73
122
 74
126
 0
VERTEX
 5
2BD
 8
0
 62
131
 10
0
 20
0.25
 30
0
 70
128
 71
124
 72
127
 73
123
 74
122
 0
VERTEX
 5
2BE
 8
0
 62
131
 10
0
 20
0.25
 30
0
 70
128
 71
127
 72
128
 73
125
 74
123
 0
VERTEX
 5
2BF
 8
0
 62
131
 10
0
 20
0.25
 30
0
 70
128
 71
128
 72
121
 73
126
 74
125
 0
VERTEX
 5
2C0
 8
0
 62
131
 10
0
 20
0.25
 30
0
 70
128
 71
124
 72
121
 73
128
 74
127
 0
VERTEX
 5
2C1
 8
0
 62
131
 10
0
 20
0.25
 30
0
 70
128
 71
131
 72
130
 73
134
 74
129
 0
VERTEX
 5
2C2
 8
0
 62
131
 10
0
 20
0.25
 30
0
 70
128
 71
132
 72
133
 73
130
 74
131
 0
VERTEX
 5
2C3
 8
0
 62
131
 10
0
 20
0.25
 30
0
 70
128
 71
133
 72
135
 73
134
 74
130
 0
VERTEX
 5
2C4
 8
0
 62
131
 10
0
 20
0.25
 30
0
 70
128
 71
135
 72
136
 73
129
 74
134
 0
VERTEX
 5
2C5
 8
0
 62
131
 10
0
 20
0.25
 30
0
 70
128
 71
136
 72
132
 73
131
 74
129
 0
VERTEX
 5
2C6
 8
0
 62
131
 10
0
 20
0.25
 30
0
 70
128
 71
133
 72
132
 73
136
 74
135
 0
VERTEX
 5
2C7
 8
0
 62
131
 10
0
 20
0.25
 30
0
 70
128
 71
141
 72
137
 73
138
 74
140
 0
VERTEX
 5
2C8
 8
0
 62
131
 10
0
 20
0.25
 30
0
 70
128
 71
142
 72
144
 73
137
 74
141
 0
VERTEX
 5
2C9
 8
0
 62
131
 10
0
 20
0.25
 30
0
 70
128
 71
144
 72
139
 73
138
 74
137
 0
VERTEX
 5
2CA
 8
0
 62
131
 10
0
 20
0.25
 30
0
 70
128
 71
139
 72
143
 73
140
 74
138
 0
VERTEX
 5
2CB
 8
0
 62
131
 10
0
 20
0.25
 30
0
 70
128
 71
140
 72
143
 73
142
 74
141
 0
VERTEX
 5
2CC
 8
0
 62
131
 10
0
 20
0.25
 30
0
 70
128
 71
144
 72
142
 73
143
 74
139
 0
VERTEX
 5
2CD
 8
0
 62
131
 10
0
 20
0.25
 30
0
 70
128
 71
145
 72
146
 73
149
 74
148
 0
VERTEX
 5
2CE
 8
0
 62
131
 10
0
 20
0.25
 30
0
 70
128
 71
151
 72
152
 73
146
 74
145
 0
VERTEX
 5
2CF
 8
0
 62
131
 10
0
 20
0.25
 30
0
 70
128
 71
152
 72
147
 73
149
 74
146
 0
VERTEX
 5
2D0
 8
0
 62
131
 10
0
 20
0.25
 30
0
 70
128
 71
147
 72
150
 73
148
 74
149
 0
VERTEX
 5
2D1
 8
0
 62
131
 10
0
 20
0.25
 30
0
 70
128
 71
150
 72
151
 73
145
 74
148
 0
VERTEX
 5
2D2
 8
0
 62
131
 10
0
 20
0.25
 30
0
 70
128
 71
152
 72
151
 73
150
 74
147
 0
VERTEX
 5
2D3
 8
0
 62
131
 10
0
 20
0.25
 30
0
 70
128
 71
153
 72
155
 73
154
 74
158
 0
VERTEX
 5
2D4
 8
0
 62
131
 10
0
 20
0.25
 30
0
 70
128
 71
159
 72
160
 73
155
 74
153
 0
VERTEX
 5
2D5
 8
0
 62
131
 10
0
 20
0.25
 30
0
 70
128
 71
160
 72
156
 73
154
 74
155
 0
VERTEX
 5
2D6
 8
0
 62
131
 10
0
 20
0.25
 30
0
 70
128
 71
156
 72
157
 73
158
 74
154
 0
VERTEX
 5
2D7
 8
0
 62
131
 10
0
 20
0.25
 30
0
 70
128
 71
157
 72
159
 73
153
 74
158
 0
VERTEX
 5
2D8
 8
0
 62
131
 10
0
 20
0.25
 30
0
 70
128
 71
160
 72
159
 73
157
 74
156
 0
VERTEX
 5
2D9
 8
0
 62
131
 10
0
 20
0.25
 30
0
 70
128
 71
161
 72
162
 73
163
 74
167
 0
VERTEX
 5
2DA
 8
0
 62
131
 10
0
 20
0.25
 30
0
 70
128
 71
166
 72
168
 73
162
 74
161
 0
VERTEX
 5
2DB
 8
0
 62
131
 10
0
 20
0.25
 30
0
 70
128
 71
168
 72
164
 73
163
 74
162
 0
VERTEX
 5
2DC
 8
0
 62
131
 10
0
 20
0.25
 30
0
 70
128
 71
164
 72
165
 73
167
 74
163
 0
VERTEX
 5
2DD
 8
0
 62
131
 10
0
 20
0.25
 30
0
 70
128
 71
165
 72
166
 73
161
 74
167
 0
VERTEX
 5
2DE
 8
0
 62
131
 10
0
 20
0.25
 30
0
 70
128
 71
168
 72
166
 73
165
 74
164
 0
VERTEX
 5
2DF
 8
0
 62
131
 10
0
 20
0.25
 30
0
 70
128
 71
169
 72
173
 73
170
 74
174
 0
VERTEX
 5
2E0
 8
0
 62
131
 10
0
 20
0.25
 30
0
 70
128
 71
172
 72
171
 73
173
 74
169
 0
VERTEX
 5
2E1
 8
0
 62
131
 10
0
 20
0.25
 30
0
 70
128
 71
171
 72
176
 73
170
 74
173
 0
VERTEX
 5
2E2
 8
0
 62
131
 10
0
 20
0.25
 30
0
 70
128
 71
176
 72
175
 73
174
 74
170
 0
VERTEX
 5
2E3
 8
0
 62
131
 10
0
 20
0.25
 30
0
 70
128
 71
175
 72
172
 73
169
 74
174
 0
VERTEX
 5
2E4
 8
0
 62
131
 10
0
 20
0.25
 30
0
 70
128
 71
171
 72
172
 73
175
 74
176
 0
VERTEX
 5
2E5
 8
0
 62
131
 10
0
 20
0.25
 30
0
 70
128
 71
183
 72
177
 73
178
 74
182
 0
VERTEX
 5
2E6
 8
0
 62
131
 10
0
 20
0.25
 30
0
 70
128
 71
184
 72
179
 73
177
 74
183
 0
VERTEX
 5
2E7
 8
0
 62
131
 10
0
 20
0.25
 30
0
 70
128
 71
179
 72
181
 73
178
 74
177
 0
VERTEX
 5
2E8
 8
0
 62
131
 10
0
 20
0.25
 30
0
 70
128
 71
181
 72
180
 73
182
 74
178
 0
VERTEX
 5
2E9
 8
0
 62
131
 10
0
 20
0.25
 30
0
 70
128
 71
180
 72
184
 73
183
 74
182
 0
VERTEX
 5
2EA
 8
0
 62
131
 10
0
 20
0.25
 30
0
 70
128
 71
179
 72
184
 73
180
 74
181
 0
VERTEX
 5
2EB
 8
0
 62
131
 10
0
 20
0.25
 30
0
 70
128
 71
187
 72
188
 73
190
 74
185
 0
VERTEX
 5
2EC
 8
0
 62
131
 10
0
 20
0.25
 30
0
 70
128
 71
186
 72
189
 73
188
 74
187
 0
VERTEX
 5
2ED
 8
0
 62
131
 10
0
 20
0.25
 30
0
 70
128
 71
189
 72
192
 73
190
 74
188
 0
VERTEX
 5
2EE
 8
0
 62
131
 10
0
 20
0.25
 30
0
 70
128
 71
192
 72
191
 73
185
 74
190
 0
VERTEX
 5
2EF
 8
0
 62
131
 10
0
 20
0.25
 30
0
 70
128
 71
191
 72
186
 73
187
 74
185
 0
VERTEX
 5
2F0
 8
0
 62
131
 10
0
 20
0.25
 30
0
 70
128
 71
189
 72
186
 73
191
 74
192
 0
VERTEX
 5
2F1
 8
0
 62
131
 10
0
 20
0.25
 30
0
 70
128
 71
198
 72
195
 73
197
 74
193
 0
VERTEX
 5
2F2
 8
0
 62
131
 10
0
 20
0.25
 30
0
 70
128
 71
199
 72
194
 73
195
 74
198
 0
VERTEX
 5
2F3
 8
0
 62
131
 10
0
 20
0.25
 30
0
 70
128
 71
194
 72
196
 73
197
 74
195
 0
VERTEX
 5
2F4
 8
0
 62
131
 10
0
 20
0.25
 30
0
 70
128
 71
196
 72
200
 73
193
 74
197
 0
VERTEX
 5
2F5
 8
0
 62
131
 10
0
 20
0.25
 30
0
 70
128
 71
200
 72
199
 73
198
 74
193
 0
VERTEX
 5
2F6
 8
0
 62
131
 10
0
 20
0.25
 30
0
 70
128
 71
194
 72
199
 73
200
 74
196
 0
VERTEX
 5
2F7
 8
0
 62
131
 10
0
 20
0.25
 30
0
 70
128
 71
205
 72
202
 73
201
 74
204
 0
VERTEX
 5
2F8
 8
0
 62
131
 10
0
 20
0.25
 30
0
 70
128
 71
206
 72
208
 73
202
 74
205
 0
VERTEX
 5
2F9
 8
0
 62
131
 10
0
 20
0.25
 30
0
 70
128
 71
208
 72
203
 73
201
 74
202
 0
VERTEX
 5
2FA
 8
0
 62
131
 10
0
 20
0.25
 30
0
 70
128
 71
203
 72
207
 73
204
 74
201
 0
VERTEX
 5
2FB
 8
0
 62
131
 10
0
 20
0.25
 30
0
 70
128
 71
207
 72
206
 73
205
 74
204
 0
VERTEX
 5
2FC
 8
0
 62
131
 10
0
 20
0.25
 30
0
 70
128
 71
208
 72
206
 73
207
 74
203
 0
VERTEX
 5
2FD
 8
0
 62
131
 10
0
 20
0.25
 30
0
 70
128
 71
210
 72
211
 73
212
 74
209
 0
VERTEX
 5
2FE
 8
0
 62
131
 10
0
 20
0.25
 30
0
 70
128
 71
214
 72
216
 73
211
 74
210
 0
VERTEX
 5
2FF
 8
0
 62
131
 10
0
 20
0.25
 30
0
 70
128
 71
216
 72
215
 73
212
 74
211
 0
VERTEX
 5
300
 8
0
 62
131
 10
0
 20
0.25
 30
0
 70
128
 71
215
 72
213
 73
209
 74
212
 0
VERTEX
 5
301
 8
0
 62
131
 10
0
 20
0.25
 30
0
 70
128
 71
213
 72
214
 73
210
 74
209
 0
VERTEX
 5
302
 8
0
 62
131
 10
0
 20
0.25
 30
0
 70
128
 71
216
 72
214
 73
213
 74
215
 0
VERTEX
 5
303
 8
0
 62
131
 10
0
 20
0.25
 30
0
 70
128
 71
219
 72
217
 73
220
 74
222
 0
VERTEX
 5
304
 8
0
 62
131
 10
0
 20
0.25
 30
0
 70
128
 71
223
 72
218
 73
217
 74
219
 0
VERTEX
 5
305
 8
0
 62
131
 10
0
 20
0.25
 30
0
 70
128
 71
218
 72
221
 73
220
 74
217
 0
VERTEX
 5
306
 8
0
 62
131
 10
0
 20
0.25
 30
0
 70
128
 71
221
 72
224
 73
222
 74
220
 0
VERTEX
 5
307
 8
0
 62
131
 10
0
 20
0.25
 30
0
 70
128
 71
224
 72
223
 73
219
 74
222
 0
VERTEX
 5
308
 8
0
 62
131
 10
0
 20
0.25
 30
0
 70
128
 71
218
 72
223
 73
224
 74
221
 0
VERTEX
 5
309
 8
0
 62
131
 10
0
 20
0.25
 30
0
 70
128
 71
231
 72
228
 73
225
 74
226
 0
VERTEX
 5
30A
 8
0
 62
131
 10
0
 20
0.25
 30
0
 70
128
 71
227
 72
229
 73
228
 74
231
 0
VERTEX
 5
30B
 8
0
 62
131
 10
0
 20
0.25
 30
0
 70
128
 71
229
 72
232
 73
225
 74
228
 0
VERTEX
 5
30C
 8
0
 62
131
 10
0
 20
0.25
 30
0
 70
128
 71
232
 72
230
 73
226
 74
225
 0
VERTEX
 5
30D
 8
0
 62
131
 10
0
 20
0.25
 30
0
 70
128
 71
230
 72
227
 73
231
 74
226
 0
VERTEX
 5
30E
 8
0
 62
131
 10
0
 20
0.25
 30
0
 70
128
 71
229
 72
227
 73
230
 74
232
 0
VERTEX
 5
30F
 8
0
 62
131
 10
0
 20
0.25
 30
0
 70
128
 71
234
 72
233
 73
238
 74
239
 0
VERTEX
 5
310
 8
0
 62
131
 10
0
 20
0.25
 30
0
 70
128
 71
235
 72
236
 73
233
 74
234
 0
VERTEX
 5
311
 8
0
 62
131
 10
0
 20
0.25
 30
0
 70
128
 71
236
 72
237
 73
238
 74
233
 0
VERTEX
 5
312
 8
0
 62
131
 10
0
 20
0.25
 30
0
 70
128
 71
237
 72
240
 73
239
 74
238
 0
VERTEX
 5
313
 8
0
 62
131
 10
0
 20
0.25
 30
0
 70
128
 71
240
 72
235
 73
234
 74
239
 0
VERTEX
 5
314
 8
0
 62
131
 10
0
 20
0.25
 30
0
 70
128
 71
236
 72
235
 73
240
 74
237
 0
VERTEX
 5
315
 8
0
 62
131
 10
0
 20
0.25
 30
0
 70
128
 71
241
 72
244
 73
245
 74
247
 0
VERTEX
 5
316
 8
0
 62
131
 10
0
 20
0.25
 30
0
 70
128
 71
248
 72
242
 73
244
 74
241
 0
VERTEX
 5
317
 8
0
 62
131
 10
0
 20
0.25
 30
0
 70
128
 71
242
 72
243
 73
245
 74
244
 0
VERTEX
 5
318
 8
0
 62
131
 10
0
 20
0.25
 30
0
 70
128
 71
243
 72
246
 73
247
 74
245
 0
VERTEX
 5
319
 8
0
 62
131
 10
0
 20
0.25
 30
0
 70
128
 71
246
 72
248
 73
241
 74
247
 0
VERTEX
 5
31A
 8
0
 62
131
 10
0
 20
0.25
 30
0
 70
128
 71
242
 72
248
 73
246
 74
243
 0
VERTEX
 5
31B
 8
0
 62
131
 10
0
 20
0.25
 30
0
 70
128
 71
250
 72
252
 73
249
 74
255
 0
VERTEX
 5
31C
 8
0
 62
131
 10
0
 20
0.25
 30
0
 70
128
 71
251
 72
253
 73
252
 74
250
 0
VERTEX
 5
31D
 8
0
 62
131
 10
0
 20
0.25
 30
0
 70
128
 71
253
 72
256
 73
249
 74
252
 0
VERTEX
 5
31E
 8
0
 62
131
 10
0
 20
0.25
 30
0
 70
128
 71
256
 72
254
 73
255
 74
249
 0
VERTEX
 5
31F
 8
0
 62
131
 10
0
 20
0.25
 30
0
 70
128
 71
254
 72
251
 73
250
 74
255
 0
VERTEX
 5
320
 8
0
 62
131
 10
0
 20
0.25
 30
0
 70
128
 71
253
 72
251
 73
254
 74
256
 0
VERTEX
 5
321
 8
0
 62
131
 10
0
 20
0.25
 30
0
 70
128
 71
261
 72
257
 73
260
 74
262
 0
VERTEX
 5
322
 8
0
 62
131
 10
0
 20
0.25
 30
0
 70
128
 71
258
 72
264
 73
257
 74
261
 0
VERTEX
 5
323
 8
0
 62
131
 10
0
 20
0.25
 30
0
 70
128
 71
264
 72
259
 73
260
 74
257
 0
VERTEX
 5
324
 8
0
 62
131
 10
0
 20
0.25
 30
0
 70
128
 71
259
 72
263
 73
262
 74
260
 0
VERTEX
 5
325
 8
0
 62
131
 10
0
 20
0.25
 30
0
 70
128
 71
263
 72
258
 73
261
 74
262
 0
VERTEX
 5
326
 8
0
 62
131
 10
0
 20
0.25
 30
0
 70
128
 71
264
 72
258
 73
263
 74
259
 0
VERTEX
 5
327
 8
0
 62
131
 10
0
 20
0.25
 30
0
 70
128
 71
270
 72
266
 73
267
 74
271
 0
VERTEX
 5
328
 8
0
 62
131
 10
0
 20
0.25
 30
0
 70
128
 71
272
 72
265
 73
266
 74
270
 0
VERTEX
 5
329
 8
0
 62
131
 10
0
 20
0.25
 30
0
 70
128
 71
265
 72
269
 73
267
 74
266
 0
VERTEX
 5
32A
 8
0
 62
131
 10
0
 20
0.25
 30
0
 70
128
 71
269
 72
268
 73
271
 74
267
 0
VERTEX
 5
32B
 8
0
 62
131
 10
0
 20
0.25
 30
0
 70
128
 71
268
 72
272
 73
270
 74
271
 0
VERTEX
 5
32C
 8
0
 62
131
 10
0
 20
0.25
 30
0
 70
128
 71
265
 72
272
 73
268
 74
269
 0
VERTEX
 5
32D
 8
0
 62
131
 10
0
 20
0.25
 30
0
 70
128
 71
275
 72
276
 73
277
 74
273
 0
VERTEX
 5
32E
 8
0
 62
131
 10
0
 20
0.25
 30
0
 70
128
 71
274
 72
279
 73
276
 74
275
 0
VERTEX
 5
32F
 8
0
 62
131
 10
0
 20
0.25
 30
0
 70
128
 71
279
 72
278
 73
277
 74
276
 0
VERTEX
 5
330
 8
0
 62
131
 10
0
 20
0.25
 30
0
 70
128
 71
278
 72
280
 73
273
 74
277
 0
VERTEX
 5
331
 8
0
 62
131
 10
0
 20
0.25
 30
0
 70
128
 71
280
 72
274
 73
275
 74
273
 0
VERTEX
 5
332
 8
0
 62
131
 10
0
 20
0.25
 30
0
 70
128
 71
279
 72
274
 73
280
 74
278
 0
VERTEX
 5
333
 8
0
 62
131
 10
0
 20
0.25
 30
0
 70
128
 71
282
 72
281
 73
286
 74
288
 0
VERTEX
 5
334
 8
0
 62
131
 10
0
 20
0.25
 30
0
 70
128
 71
287
 72
283
 73
281
 74
282
 0
VERTEX
 5
335
 8
0
 62
131
 10
0
 20
0.25
 30
0
 70
128
 71
283
 72
284
 73
286
 74
281
 0
VERTEX
 5
336
 8
0
 62
131
 10
0
 20
0.25
 30
0
 70
128
 71
284
 72
285
 73
288
 74
286
 0
VERTEX
 5
337
 8
0
 62
131
 10
0
 20
0.25
 30
0
 70
128
 71
285
 72
287
 73
282
 74
288
 0
VERTEX
 5
338
 8
0
 62
131
 10
0
 20
0.25
 30
0
 70
128
 71
283
 72
287
 73
285
 74
284
 0
VERTEX
 5
339
 8
0
 62
131
 10
0
 20
0.25
 30
0
 70
128
 71
293
 72
290
 73
289
 74
292
 0
VERTEX
 5
33A
 8
0
 62
131
 10
0
 20
0.25
 30
0
 70
128
 71
295
 72
296
 73
290
 74
293
 0
VERTEX
 5
33B
 8
0
 62
131
 10
0
 20
0.25
 30
0
 70
128
 71
296
 72
291
 73
289
 74
290
 0
VERTEX
 5
33C
 8
0
 62
131
 10
0
 20
0.25
 30
0
 70
128
 71
291
 72
294
 73
292
 74
289
 0
VERTEX
 5
33D
 8
0
 62
131
 10
0
 20
0.25
 30
0
 70
128
 71
294
 72
295
 73
293
 74
292
 0
VERTEX
 5
33E
 8
0
 62
131
 10
0
 20
0.25
 30
0
 70
128
 71
296
 72
295
 73
294
 74
291
 0
VERTEX
 5
33F
 8
0
 62
131
 10
0
 20
0.25
 30
0
 70
128
 71
303
 72
298
 73
300
 74
302
 0
VERTEX
 5
340
 8
0
 62
131
 10
0
 20
0.25
 30
0
 70
128
 71
297
 72
304
 73
298
 74
303
 0
VERTEX
 5
341
 8
0
 62
131
 10
0
 20
0.25
 30
0
 70
128
 71
304
 72
301
 73
300
 74
298
 0
VERTEX
 5
342
 8
0
 62
131
 10
0
 20
0.25
 30
0
 70
128
 71
301
 72
299
 73
302
 74
300
 0
VERTEX
 5
343
 8
0
 62
131
 10
0
 20
0.25
 30
0
 70
128
 71
299
 72
297
 73
303
 74
302
 0
VERTEX
 5
344
 8
0
 62
131
 10
0
 20
0.25
 30
0
 70
128
 71
304
 72
297
 73
299
 74
301
 0
VERTEX
 5
345
 8
0
 62
131
 10
0
 20
0.25
 30
0
 70
128
 71
311
 72
306
 73
309
 74
308
 0
VERTEX
 5
346
 8
0
 62
131
 10
0
 20
0.25
 30
0
 70
128
 71
305
 72
312
 73
306
 74
311
 0
VERTEX
 5
347
 8
0
 62
131
 10
0
 20
0.25
 30
0
 70
128
 71
312
 72
307
 73
309
 74
306
 0
VERTEX
 5
348
 8
0
 62
131
 10
0
 20
0.25
 30
0
 70
128
 71
307
 72
310
 73
308
 74
309
 0
VERTEX
 5
349
 8
0
 62
131
 10
0
 20
0.25
 30
0
 70
128
 71
310
 72
305
 73
311
 74
308
 0
VERTEX
 5
34A
 8
0
 62
131
 10
0
 20
0.25
 30
0
 70
128
 71
312
 72
305
 73
310
 74
307
 0
VERTEX
 5
34B
 8
0
 62
131
 10
0
 20
0.25
 30
0
 70
128
 71
313
 72
315
 73
318
 74
314
 0
VERTEX
 5
34C
 8
0
 62
131
 10
0
 20
0.25
 30
0
 70
128
 71
319
 72
316
 73
315
 74
313
 0
VERTEX
 5
34D
 8
0
 62
131
 10
0
 20
0.25
 30
0
 70
128
 71
316
 72
317
 73
318
 74
315
 0
VERTEX
 5
34E
 8
0
 62
131
 10
0
 20
0.25
 30
0
 70
128
 71
317
 72
320
 73
314
 74
318
 0
VERTEX
 5
34F
 8
0
 62
131
 10
0
 20
0.25
 30
0
 70
128
 71
320
 72
319
 73
313
 74
314
 0
VERTEX
 5
350
 8
0
 62
131
 10
0
 20
0.25
 30
0
 70
128
 71
316
 72
319
 73
320
 74
317
 0
VERTEX
 5
351
 8
0
 62
131
 10
0
 20
0.25
 30
0
 70
128
 71
326
 72
321
 73
324
 74
325
 0
VERTEX
 5
352
 8
0
 62
131
 10
0
 20
0.25
 30
0
 70
128
 71
327
 72
328
 73
321
 74
326
 0
VERTEX
 5
353
 8
0
 62
131
 10
0
 20
0.25
 30
0
 70
128
 71
328
 72
322
 73
324
 74
321
 0
VERTEX
 5
354
 8
0
 62
131
 10
0
 20
0.25
 30
0
 70
128
 71
322
 72
323
 73
325
 74
324
 0
VERTEX
 5
355
 8
0
 62
131
 10
0
 20
0.25
 30
0
 70
128
 71
323
 72
327
 73
326
 74
325
 0
VERTEX
 5
356
 8
0
 62
131
 10
0
 20
0.25
 30
0
 70
128
 71
328
 72
327
 73
323
 74
322
 0
VERTEX
 5
357
 8
0
 62
131
 10
0
 20
0.25
 30
0
 70
128
 71
329
 72
332
 73
334
 74
330
 0
VERTEX
 5
358
 8
0
 62
131
 10
0
 20
0.25
 30
0
 70
128
 71
331
 72
336
 73
332
 74
329
 0
VERTEX
 5
359
 8
0
 62
131
 10
0
 20
0.25
 30
0
 70
128
 71
336
 72
333
 73
334
 74
332
 0
VERTEX
 5
35A
 8
0
 62
131
 10
0
 20
0.25
 30
0
 70
128
 71
333
 72
335
 73
330
 74
334
 0
VERTEX
 5
35B
 8
0
 62
131
 10
0
 20
0.25
 30
0
 70
128
 71
335
 72
331
 73
329
 74
330
 0
VERTEX
 5
35C
 8
0
 62
131
 10
0
 20
0.25
 30
0
 70
128
 71
336
 72
331
 73
335
 74
333
 0
VERTEX
 5
35D
 8
0
 62
131
 10
0
 20
0.25
 30
0
 70
128
 71
339
 72
338
 73
340
 74
337
 0
VERTEX
 5
35E
 8
0
 62
131
 10
0
 20
0.25
 30
0
 70
128
 71
342
 72
344
 73
338
 74
339
 0
VERTEX
 5
35F
 8
0
 62
131
 10
0
 20
0.25
 30
0
 70
128
 71
344
 72
341
 73
340
 74
338
 0
VERTEX
 5
360
 8
0
 62
131
 10
0
 20
0.25
 30
0
 70
128
 71
341
 72
343
 73
337
 74
340
 0
VERTEX
 5
361
 8
0
 62
131
 10
0
 20
0.25
 30
0
 70
128
 71
343
 72
342
 73
339
 74
337
 0
VERTEX
 5
362
 8
0
 62
131
 10
0
 20
0.25
 30
0
 70
128
 71
344
 72
342
 73
343
 74
341
 0
VERTEX
 5
363
 8
0
 62
131
 10
0
 20
0.25
 30
0
 70
128
 71
351
 72
345
 73
347
 74
346
 0
VERTEX
 5
364
 8
0
 62
131
 10
0
 20
0.25
 30
0
 70
128
 71
350
 72
352
 73
345
 74
351
 0
VERTEX
 5
365
 8
0
 62
131
 10
0
 20
0.25
 30
0
 70
128
 71
352
 72
349
 73
347
 74
345
 0
VERTEX
 5
366
 8
0
 62
131
 10
0
 20
0.25
 30
0
 70
128
 71
349
 72
348
 73
346
 74
347
 0
VERTEX
 5
367
 8
0
 62
131
 10
0
 20
0.25
 30
0
 70
128
 71
348
 72
350
 73
351
 74
346
 0
VERTEX
 5
368
 8
0
 62
131
 10
0
 20
0.25
 30
0
 70
128
 71
352
 72
350
 73
348
 74
349
 0
VERTEX
 5
369
 8
0
 62
131
 10
0
 20
0.25
 30
0
 70
128
 71
353
 72
357
 73
354
 74
355
 0
VERTEX
 5
36A
 8
0
 62
131
 10
0
 20
0.25
 30
0
 70
128
 71
356
 72
360
 73
357
 74
353
 0
VERTEX
 5
36B
 8
0
 62
131
 10
0
 20
0.25
 30
0
 70
128
 71
360
 72
358
 73
354
 74
357
 0
VERTEX
 5
36C
 8
0
 62
131
 10
0
 20
0.25
 30
0
 70
128
 71
358
 72
359
 73
355
 74
354
 0
VERTEX
 5
36D
 8
0
 62
131
 10
0
 20
0.25
 30
0
 70
128
 71
359
 72
356
 73
353
 74
355
 0
VERTEX
 5
36E
 8
0
 62
131
 10
0
 20
0.25
 30
0
 70
128
 71
360
 72
356
 73
359
 74
358
 0
VERTEX
 5
36F
 8
0
 62
131
 10
0
 20
0.25
 30
0
 70
128
 71
366
 72
361
 73
362
 74
365
 0
VERTEX
 5
370
 8
0
 62
131
 10
0
 20
0.25
 30
0
 70
128
 71
367
 72
368
 73
361
 74
366
 0
VERTEX
 5
371
 8
0
 62
131
 10
0
 20
0.25
 30
0
 70
128
 71
368
 72
364
 73
362
 74
361
 0
VERTEX
 5
372
 8
0
 62
131
 10
0
 20
0.25
 30
0
 70
128
 71
364
 72
363
 73
365
 74
362
 0
VERTEX
 5
373
 8
0
 62
131
 10
0
 20
0.25
 30
0
 70
128
 71
363
 72
367
 73
366
 74
365
 0
VERTEX
 5
374
 8
0
 62
131
 10
0
 20
0.25
 30
0
 70
128
 71
368
 72
367
 73
363
 74
364
 0
VERTEX
 5
375
 8
0
 62
131
 10
0
 20
0.25
 30
0
 70
128
 71
374
 72
371
 73
369
 74
373
 0
VERTEX
 5
376
 8
0
 62
131
 10
0
 20
0.25
 30
0
 70
128
 71
375
 72
370
 73
371
 74
374
 0
VERTEX
 5
377
 8
0
 62
131
 10
0
 20
0.25
 30
0
 70
128
 71
370
 72
372
 73
369
 74
371
 0
VERTEX
 5
378
 8
0
 62
131
 10
0
 20
0.25
 30
0
 70
128
 71
372
 72
376
 73
373
 74
369
 0
VERTEX
 5
379
 8
0
 62
131
 10
0
 20
0.25
 30
0
 70
128
 71
376
 72
375
 73
374
 74
373
 0
VERTEX
 5
37A
 8
0
 62
131
 10
0
 20
0.25
 30
0
 70
128
 71
370
 72
375
 73
376
 74
372
 0
VERTEX
 5
37B
 8
0
 62
131
 10
0
 20
0.25
 30
0
 70
128
 71
377
 72
378
 73
382
 74
379
 0
VERTEX
 5
37C
 8
0
 62
131
 10
0
 20
0.25
 30
0
 70
128
 71
380
 72
381
 73
378
 74
377
 0
VERTEX
 5
37D
 8
0
 62
131
 10
0
 20
0.25
 30
0
 70
128
 71
381
 72
383
 73
382
 74
378
 0
VERTEX
 5
37E
 8
0
 62
131
 10
0
 20
0.25
 30
0
 70
128
 71
383
 72
384
 73
379
 74
382
 0
VERTEX
 5
37F
 8
0
 62
131
 10
0
 20
0.25
 30
0
 70
128
 71
384
 72
380
 73
377
 74
379
 0
VERTEX
 5
380
 8
0
 62
131
 10
0
 20
0.25
 30
0
 70
128
 71
381
 72
380
 73
384
 74
383
 0
VERTEX
 5
381
 8
0
 62
131
 10
0
 20
0.25
 30
0
 70
128
 71
387
 72
390
 73
396
 74
385
 0
VERTEX
 5
382
 8
0
 62
131
 10
0
 20
0.25
 30
0
 70
128
 71
389
 72
390
 73
387
 74
391
 0
VERTEX
 5
383
 8
0
 62
131
 10
0
 20
0.25
 30
0
 70
128
 71
388
 72
394
 73
396
 74
390
 0
VERTEX
 5
384
 8
0
 62
131
 10
0
 20
0.25
 30
0
 70
128
 71
401
 72
385
 73
396
 74
386
 0
VERTEX
 5
385
 8
0
 62
131
 10
0
 20
0.25
 30
0
 70
128
 71
387
 72
385
 73
393
 74
392
 0
VERTEX
 5
386
 8
0
 62
131
 10
0
 20
0.25
 30
0
 70
128
 71
388
 72
390
 73
389
 74
400
 0
VERTEX
 5
387
 8
0
 62
131
 10
0
 20
0.25
 30
0
 70
128
 71
391
 72
387
 73
392
 74
405
 0
VERTEX
 5
388
 8
0
 62
131
 10
0
 20
0.25
 30
0
 70
128
 71
391
 72
407
 73
398
 74
389
 0
VERTEX
 5
389
 8
0
 62
131
 10
0
 20
0.25
 30
0
 70
128
 71
388
 72
392
 73
393
 74
394
 0
VERTEX
 5
38A
 8
0
 62
131
 10
0
 20
0.25
 30
0
 70
128
 71
395
 72
386
 73
396
 74
394
 0
VERTEX
 5
38B
 8
0
 62
131
 10
0
 20
0.25
 30
0
 70
128
 71
385
 72
401
 73
408
 74
393
 0
VERTEX
 5
38C
 8
0
 62
131
 10
0
 20
0.25
 30
0
 70
128
 71
397
 72
401
 73
386
 74
410
 0
VERTEX
 5
38D
 8
0
 62
131
 10
0
 20
0.25
 30
0
 70
128
 71
400
 72
389
 73
398
 74
399
 0
VERTEX
 5
38E
 8
0
 62
131
 10
0
 20
0.25
 30
0
 70
128
 71
388
 72
400
 73
405
 74
392
 0
VERTEX
 5
38F
 8
0
 62
131
 10
0
 20
0.25
 30
0
 70
128
 71
401
 72
391
 73
405
 74
408
 0
VERTEX
 5
390
 8
0
 62
131
 10
0
 20
0.25
 30
0
 70
128
 71
407
 72
391
 73
401
 74
397
 0
VERTEX
 5
391
 8
0
 62
131
 10
0
 20
0.25
 30
0
 70
128
 71
404
 72
398
 73
407
 74
414
 0
VERTEX
 5
392
 8
0
 62
131
 10
0
 20
0.25
 30
0
 70
128
 71
393
 72
408
 73
395
 74
394
 0
VERTEX
 5
393
 8
0
 62
131
 10
0
 20
0.25
 30
0
 70
128
 71
411
 72
410
 73
386
 74
395
 0
VERTEX
 5
394
 8
0
 62
131
 10
0
 20
0.25
 30
0
 70
128
 71
403
 72
397
 73
410
 74
402
 0
VERTEX
 5
395
 8
0
 62
131
 10
0
 20
0.25
 30
0
 70
128
 71
399
 72
398
 73
404
 74
413
 0
VERTEX
 5
396
 8
0
 62
131
 10
0
 20
0.25
 30
0
 70
128
 71
406
 72
405
 73
400
 74
399
 0
VERTEX
 5
397
 8
0
 62
131
 10
0
 20
0.25
 30
0
 70
128
 71
405
 72
406
 73
409
 74
408
 0
VERTEX
 5
398
 8
0
 62
131
 10
0
 20
0.25
 30
0
 70
128
 71
407
 72
397
 73
409
 74
406
 0
VERTEX
 5
399
 8
0
 62
131
 10
0
 20
0.25
 30
0
 70
128
 71
414
 72
407
 73
406
 74
416
 0
VERTEX
 5
39A
 8
0
 62
131
 10
0
 20
0.25
 30
0
 70
128
 71
404
 72
414
 73
403
 74
402
 0
VERTEX
 5
39B
 8
0
 62
131
 10
0
 20
0.25
 30
0
 70
128
 71
408
 72
409
 73
411
 74
395
 0
VERTEX
 5
39C
 8
0
 62
131
 10
0
 20
0.25
 30
0
 70
128
 71
412
 72
402
 73
410
 74
411
 0
VERTEX
 5
39D
 8
0
 62
131
 10
0
 20
0.25
 30
0
 70
128
 71
397
 72
403
 73
415
 74
409
 0
VERTEX
 5
39E
 8
0
 62
131
 10
0
 20
0.25
 30
0
 70
128
 71
404
 72
402
 73
412
 74
413
 0
VERTEX
 5
39F
 8
0
 62
131
 10
0
 20
0.25
 30
0
 70
128
 71
399
 72
413
 73
416
 74
406
 0
VERTEX
 5
3A0
 8
0
 62
131
 10
0
 20
0.25
 30
0
 70
128
 71
403
 72
414
 73
416
 74
415
 0
VERTEX
 5
3A1
 8
0
 62
131
 10
0
 20
0.25
 30
0
 70
128
 71
409
 72
415
 73
412
 74
411
 0
VERTEX
 5
3A2
 8
0
 62
131
 10
0
 20
0.25
 30
0
 70
128
 71
416
 72
413
 73
412
 74
415
 0
VERTEX
 5
3A3
 8
0
 62
131
 10
0
 20
0.25
 30
0
 70
128
 71
423
 72
422
 73
417
 74
428
 0
VERTEX
 5
3A4
 8
0
 62
131
 10
0
 20
0.25
 30
0
 70
128
 71
418
 72
422
 73
423
 74
424
 0
VERTEX
 5
3A5
 8
0
 62
131
 10
0
 20
0.25
 30
0
 70
128
 71
419
 72
427
 73
417
 74
422
 0
VERTEX
 5
3A6
 8
0
 62
131
 10
0
 20
0.25
 30
0
 70
128
 71
420
 72
428
 73
417
 74
426
 0
VERTEX
 5
3A7
 8
0
 62
131
 10
0
 20
0.25
 30
0
 70
128
 71
423
 72
428
 73
421
 74
432
 0
VERTEX
 5
3A8
 8
0
 62
131
 10
0
 20
0.25
 30
0
 70
128
 71
419
 72
422
 73
418
 74
431
 0
VERTEX
 5
3A9
 8
0
 62
131
 10
0
 20
0.25
 30
0
 70
128
 71
424
 72
423
 73
432
 74
433
 0
VERTEX
 5
3AA
 8
0
 62
131
 10
0
 20
0.25
 30
0
 70
128
 71
424
 72
437
 73
425
 74
418
 0
VERTEX
 5
3AB
 8
0
 62
131
 10
0
 20
0.25
 30
0
 70
128
 71
419
 72
432
 73
421
 74
427
 0
VERTEX
 5
3AC
 8
0
 62
131
 10
0
 20
0.25
 30
0
 70
128
 71
439
 72
426
 73
417
 74
427
 0
VERTEX
 5
3AD
 8
0
 62
131
 10
0
 20
0.25
 30
0
 70
128
 71
428
 72
420
 73
429
 74
421
 0
VERTEX
 5
3AE
 8
0
 62
131
 10
0
 20
0.25
 30
0
 70
128
 71
430
 72
420
 73
426
 74
440
 0
VERTEX
 5
3AF
 8
0
 62
131
 10
0
 20
0.25
 30
0
 70
128
 71
431
 72
418
 73
425
 74
435
 0
VERTEX
 5
3B0
 8
0
 62
131
 10
0
 20
0.25
 30
0
 70
128
 71
419
 72
431
 73
433
 74
432
 0
VERTEX
 5
3B1
 8
0
 62
131
 10
0
 20
0.25
 30
0
 70
128
 71
420
 72
424
 73
433
 74
429
 0
VERTEX
 5
3B2
 8
0
 62
131
 10
0
 20
0.25
 30
0
 70
128
 71
437
 72
424
 73
420
 74
430
 0
VERTEX
 5
3B3
 8
0
 62
131
 10
0
 20
0.25
 30
0
 70
128
 71
443
 72
425
 73
437
 74
438
 0
VERTEX
 5
3B4
 8
0
 62
131
 10
0
 20
0.25
 30
0
 70
128
 71
421
 72
429
 73
439
 74
427
 0
VERTEX
 5
3B5
 8
0
 62
131
 10
0
 20
0.25
 30
0
 70
128
 71
447
 72
440
 73
426
 74
439
 0
VERTEX
 5
3B6
 8
0
 62
131
 10
0
 20
0.25
 30
0
 70
128
 71
441
 72
430
 73
440
 74
434
 0
VERTEX
 5
3B7
 8
0
 62
131
 10
0
 20
0.25
 30
0
 70
128
 71
435
 72
425
 73
443
 74
448
 0
VERTEX
 5
3B8
 8
0
 62
131
 10
0
 20
0.25
 30
0
 70
128
 71
436
 72
433
 73
431
 74
435
 0
VERTEX
 5
3B9
 8
0
 62
131
 10
0
 20
0.25
 30
0
 70
128
 71
433
 72
436
 73
442
 74
429
 0
VERTEX
 5
3BA
 8
0
 62
131
 10
0
 20
0.25
 30
0
 70
128
 71
437
 72
430
 73
442
 74
436
 0
VERTEX
 5
3BB
 8
0
 62
131
 10
0
 20
0.25
 30
0
 70
128
 71
438
 72
437
 73
436
 74
444
 0
VERTEX
 5
3BC
 8
0
 62
131
 10
0
 20
0.25
 30
0
 70
128
 71
443
 72
438
 73
441
 74
434
 0
VERTEX
 5
3BD
 8
0
 62
131
 10
0
 20
0.25
 30
0
 70
128
 71
429
 72
442
 73
447
 74
439
 0
VERTEX
 5
3BE
 8
0
 62
131
 10
0
 20
0.25
 30
0
 70
128
 71
446
 72
434
 73
440
 74
447
 0
VERTEX
 5
3BF
 8
0
 62
131
 10
0
 20
0.25
 30
0
 70
128
 71
430
 72
441
 73
445
 74
442
 0
VERTEX
 5
3C0
 8
0
 62
131
 10
0
 20
0.25
 30
0
 70
128
 71
443
 72
434
 73
446
 74
448
 0
VERTEX
 5
3C1
 8
0
 62
131
 10
0
 20
0.25
 30
0
 70
128
 71
435
 72
448
 73
444
 74
436
 0
VERTEX
 5
3C2
 8
0
 62
131
 10
0
 20
0.25
 30
0
 70
128
 71
441
 72
438
 73
444
 74
445
 0
VERTEX
 5
3C3
 8
0
 62
131
 10
0
 20
0.25
 30
0
 70
128
 71
442
 72
445
 73
446
 74
447
 0
VERTEX
 5
3C4
 8
0
 62
131
 10
0
 20
0.25
 30
0
 70
128
 71
444
 72
448
 73
446
 74
445
 0
VERTEX
 5
3C5
 8
0
 62
131
 10
0
 20
0.25
 30
0
 70
128
 71
450
 72
459
 73
449
 74
463
 0
VERTEX
 5
3C6
 8
0
 62
131
 10
0
 20
0.25
 30
0
 70
128
 71
457
 72
459
 73
450
 0
VERTEX
 5
3C7
 8
0
 62
131
 10
0
 20
0.25
 30
0
 70
128
 71
450
 72
451
 73
456
 0
VERTEX
 5
3C8
 8
0
 62
131
 10
0
 20
0.25
 30
0
 70
128
 71
450
 72
456
 73
457
 0
VERTEX
 5
3C9
 8
0
 62
131
 10
0
 20
0.25
 30
0
 70
128
 71
460
 72
449
 73
459
 74
452
 0
VERTEX
 5
3CA
 8
0
 62
131
 10
0
 20
0.25
 30
0
 70
128
 71
463
 72
449
 73
461
 74
453
 0
VERTEX
 5
3CB
 8
0
 62
131
 10
0
 20
0.25
 30
0
 70
128
 71
455
 72
450
 73
463
 74
454
 0
VERTEX
 5
3CC
 8
0
 62
131
 10
0
 20
0.25
 30
0
 70
128
 71
450
 72
455
 73
464
 74
451
 0
VERTEX
 5
3CD
 8
0
 62
131
 10
0
 20
0.25
 30
0
 70
128
 71
456
 72
451
 73
453
 74
461
 0
VERTEX
 5
3CE
 8
0
 62
131
 10
0
 20
0.25
 30
0
 70
128
 71
458
 72
457
 73
456
 0
VERTEX
 5
3CF
 8
0
 62
131
 10
0
 20
0.25
 30
0
 70
128
 71
456
 72
461
 73
462
 0
VERTEX
 5
3D0
 8
0
 62
131
 10
0
 20
0.25
 30
0
 70
128
 71
456
 72
462
 73
458
 0
VERTEX
 5
3D1
 8
0
 62
131
 10
0
 20
0.25
 30
0
 70
128
 71
452
 72
459
 73
457
 74
458
 0
VERTEX
 5
3D2
 8
0
 62
131
 10
0
 20
0.25
 30
0
 70
128
 71
449
 72
460
 73
462
 74
461
 0
VERTEX
 5
3D3
 8
0
 62
131
 10
0
 20
0.25
 30
0
 70
128
 71
452
 72
455
 73
454
 74
460
 0
VERTEX
 5
3D4
 8
0
 62
131
 10
0
 20
0.25
 30
0
 70
128
 71
454
 72
463
 73
453
 74
465
 0
VERTEX
 5
3D5
 8
0
 62
131
 10
0
 20
0.25
 30
0
 70
128
 71
455
 72
452
 73
458
 74
464
 0
VERTEX
 5
3D6
 8
0
 62
131
 10
0
 20
0.25
 30
0
 70
128
 71
465
 72
453
 73
451
 74
464
 0
VERTEX
 5
3D7
 8
0
 62
131
 10
0
 20
0.25
 30
0
 70
128
 71
464
 72
458
 73
462
 74
465
 0
VERTEX
 5
3D8
 8
0
 62
131
 10
0
 20
0.25
 30
0
 70
128
 71
460
 72
454
 73
465
 74
462
 0
VERTEX
 5
3D9
 8
0
 62
131
 10
0
 20
0.25
 30
0
 70
128
 71
466
 72
473
 73
474
 74
467
 0
VERTEX
 5
3DA
 8
0
 62
131
 10
0
 20
0.25
 30
0
 70
128
 71
471
 72
475
 73
476
 74
470
 0
VERTEX
 5
3DB
 8
0
 62
131
 10
0
 20
0.25
 30
0
 70
128
 71
479
 72
468
 73
471
 74
470
 0
VERTEX
 5
3DC
 8
0
 62
131
 10
0
 20
0.25
 30
0
 70
128
 71
466
 72
467
 73
469
 74
472
 0
VERTEX
 5
3DD
 8
0
 62
131
 10
0
 20
0.25
 30
0
 70
128
 71
475
 72
477
 73
478
 74
476
 0
VERTEX
 5
3DE
 8
0
 62
131
 10
0
 20
0.25
 30
0
 70
128
 71
468
 72
479
 73
478
 74
477
 0
VERTEX
 5
3DF
 8
0
 62
131
 10
0
 20
0.25
 30
0
 70
128
 71
468
 72
477
 73
480
 74
469
 0
VERTEX
 5
3E0
 8
0
 62
131
 10
0
 20
0.25
 30
0
 70
128
 71
475
 72
474
 73
480
 74
477
 0
VERTEX
 5
3E1
 8
0
 62
131
 10
0
 20
0.25
 30
0
 70
128
 71
475
 72
471
 73
467
 74
474
 0
VERTEX
 5
3E2
 8
0
 62
131
 10
0
 20
0.25
 30
0
 70
128
 71
468
 72
469
 73
467
 74
471
 0
VERTEX
 5
3E3
 8
0
 62
131
 10
0
 20
0.25
 30
0
 70
128
 71
476
 72
478
 73
481
 74
473
 0
VERTEX
 5
3E4
 8
0
 62
131
 10
0
 20
0.25
 30
0
 70
128
 71
479
 72
470
 73
466
 74
472
 0
VERTEX
 5
3E5
 8
0
 62
131
 10
0
 20
0.25
 30
0
 70
128
 71
479
 72
472
 73
481
 74
478
 0
VERTEX
 5
3E6
 8
0
 62
131
 10
0
 20
0.25
 30
0
 70
128
 71
473
 72
466
 73
470
 74
476
 0
VERTEX
 5
3E7
 8
0
 62
131
 10
0
 20
0.25
 30
0
 70
128
 71
481
 72
472
 73
469
 74
480
 0
VERTEX
 5
3E8
 8
0
 62
131
 10
0
 20
0.25
 30
0
 70
128
 71
481
 72
480
 73
474
 74
473
 0
SEQEND
 5
3E9
 8
0
 62
131
 0
ENDSEC
 0
EOF
