 0
SECTION
 2
HEADER
 9
$ACADVER
 1
AC1009
 9
$INSBASE
 10
0.0
 20
0.0
 30
0.0
 9
$EXTMIN
 10
-0.2099999934434891
 20
-0.3199999928474426
 30
0.0
 9
$EXTMAX
 10
1.4299999475479119
 20
0.0799999982118607
 30
2.3900010585784899
 9
$LIMMIN
 10
0.0
 20
0.0
 9
$LIMMAX
 10
12.0
 20
9.0
 9
$ORTHOMODE
 70
0
 9
$REGENMODE
 70
1
 9
$FILLMODE
 70
1
 9
$QTEXTMODE
 70
0
 9
$MIRRTEXT
 70
0
 9
$DRAGMODE
 70
2
 9
$LTSCALE
 40
1.0
 9
$OSMODE
 70
43
 9
$ATTMODE
 70
1
 9
$TEXTSIZE
 40
1.0
 9
$TRACEWID
 40
0.05
 9
$TEXTSTYLE
 7
STANDARD
 9
$CLAYER
 8
0
 9
$CELTYPE
 6
CONTINUOUS
 9
$CECOLOR
 62
256
 9
$DIMSCALE
 40
1.0
 9
$DIMASZ
 40
0.18
 9
$DIMEXO
 40
0.0625
 9
$DIMDLI
 40
0.38
 9
$DIMRND
 40
0.0
 9
$DIMDLE
 40
0.0
 9
$DIMEXE
 40
0.18
 9
$DIMTP
 40
0.0
 9
$DIMTM
 40
0.0
 9
$DIMTXT
 40
0.18
 9
$DIMCEN
 40
0.09
 9
$DIMTSZ
 40
0.0
 9
$DIMTOL
 70
0
 9
$DIMLIM
 70
0
 9
$DIMTIH
 70
1
 9
$DIMTOH
 70
1
 9
$DIMSE1
 70
0
 9
$DIMSE2
 70
0
 9
$DIMTAD
 70
0
 9
$DIMZIN
 70
0
 9
$DIMBLK
 1

 9
$DIMASO
 70
1
 9
$DIMSHO
 70
1
 9
$DIMPOST
 1

 9
$DIMAPOST
 1

 9
$DIMALT
 70
0
 9
$DIMALTD
 70
2
 9
$DIMALTF
 40
25.3999999999999986
 9
$DIMLFAC
 40
1.0
 9
$DIMTOFL
 70
0
 9
$DIMTVP
 40
0.0
 9
$DIMTIX
 70
0
 9
$DIMSOXD
 70
0
 9
$DIMSAH
 70
0
 9
$DIMBLK1
 1

 9
$DIMBLK2
 1

 9
$DIMSTYLE
 2
STANDARD
 9
$DIMCLRD
 70
0
 9
$DIMCLRE
 70
0
 9
$DIMCLRT
 70
0
 9
$DIMTFAC
 40
1.0
 9
$DIMGAP
 40
0.09
 9
$LUNITS
 70
2
 9
$LUPREC
 70
4
 9
$SKETCHINC
 40
0.1
 9
$FILLETRAD
 40
0.0
 9
$AUNITS
 70
0
 9
$AUPREC
 70
0
 9
$MENU
 1
.
 9
$ELEVATION
 40
0.0
 9
$PELEVATION
 40
0.0
 9
$THICKNESS
 40
0.0
 9
$LIMCHECK
 70
0
 9
$BLIPMODE
 70
0
 9
$CHAMFERA
 40
0.0
 9
$CHAMFERB
 40
0.0
 9
$SKPOLY
 70
0
 9
$TDCREATE
 40
2458917.6960879629477859
 9
$TDUPDATE
 40
2458917.6962268520146608
 9
$TDINDWG
 40
0.0001388889
 9
$TDUSRTIMER
 40
0.0001388889
 9
$USRTIMER
 70
1
 9
$ANGBASE
 50
0.0
 9
$ANGDIR
 70
0
 9
$PDMODE
 70
0
 9
$PDSIZE
 40
0.0
 9
$PLINEWID
 40
0.0
 9
$COORDS
 70
1
 9
$SPLFRAME
 70
0
 9
$SPLINETYPE
 70
6
 9
$SPLINESEGS
 70
8
 9
$ATTDIA
 70
0
 9
$ATTREQ
 70
1
 9
$HANDLING
 70
1
 9
$HANDSEED
 5
2FF
 9
$SURFTAB1
 70
6
 9
$SURFTAB2
 70
6
 9
$SURFTYPE
 70
6
 9
$SURFU
 70
6
 9
$SURFV
 70
6
 9
$UCSNAME
 2

 9
$UCSORG
 10
0.0
 20
0.0
 30
0.0
 9
$UCSXDIR
 10
1.0
 20
0.0
 30
0.0
 9
$UCSYDIR
 10
0.0
 20
1.0
 30
0.0
 9
$PUCSNAME
 2

 9
$PUCSORG
 10
0.0
 20
0.0
 30
0.0
 9
$PUCSXDIR
 10
1.0
 20
0.0
 30
0.0
 9
$PUCSYDIR
 10
0.0
 20
1.0
 30
0.0
 9
$USERI1
 70
0
 9
$USERI2
 70
0
 9
$USERI3
 70
0
 9
$USERI4
 70
0
 9
$USERI5
 70
0
 9
$USERR1
 40
0.0
 9
$USERR2
 40
0.0
 9
$USERR3
 40
0.0
 9
$USERR4
 40
0.0
 9
$USERR5
 40
0.0
 9
$WORLDVIEW
 70
1
 9
$SHADEDGE
 70
3
 9
$SHADEDIF
 70
70
 9
$TILEMODE
 70
1
 9
$MAXACTVP
 70
64
 9
$PLIMCHECK
 70
0
 9
$PEXTMIN
 10
1.0000000000000000E+20
 20
1.0000000000000000E+20
 30
1.0000000000000000E+20
 9
$PEXTMAX
 10
-1.0000000000000000E+20
 20
-1.0000000000000000E+20
 30
-1.0000000000000000E+20
 9
$PLIMMIN
 10
0.0
 20
0.0
 9
$PLIMMAX
 10
12.0
 20
9.0
 9
$UNITMODE
 70
0
 9
$VISRETAIN
 70
1
 9
$PLINEGEN
 70
0
 9
$PSLTSCALE
 70
1
 0
ENDSEC
 0
SECTION
 2
TABLES
 0
TABLE
 2
VPORT
 70
1
 0
VPORT
 2
*ACTIVE
 70
0
 10
0.0
 20
0.0
 11
1.0
 21
1.0
 12
-0.9817351598173509
 22
1.0
 13
0.0
 23
0.0
 14
0.1
 24
0.1
 15
0.1
 25
0.1
 16
0.0
 26
0.0
 36
1.0
 17
0.0
 27
0.0
 37
0.0
 40
9.6693272519954387
 41
1.8654073199527741
 42
50.0
 43
0.0
 44
0.0
 50
0.0
 51
0.0
 71
0
 72
100
 73
1
 74
1
 75
0
 76
0
 77
0
 78
0
 0
ENDTAB
 0
TABLE
 2
LTYPE
 70
8
 0
LTYPE
 2
CONTINUOUS
 70
0
 3
Solid line
 72
65
 73
0
 40
0.0
 0
LTYPE
 2
DOT
 70
0
 3
. . . . . . .
 72
65
 73
2
 40
0.25
 49
0.0
 49
-0.25
 0
LTYPE
 2
DASHED
 70
0
 3
__ __ __ __ __
 72
65
 73
2
 40
0.8
 49
0.5
 49
-0.3
 0
LTYPE
 2
DASHDOT
 70
0
 3
__ . __ . __ .
 72
65
 73
4
 40
1.0
 49
0.5
 49
-0.25
 49
0.0
 49
-0.25
 0
LTYPE
 2
DIVIDE
 70
0
 3
____ . . ____ . . 
 72
65
 73
6
 40
1.25
 49
0.5
 49
-0.25
 49
0.0
 49
-0.25
 49
0.0
 49
-0.25
 0
LTYPE
 2
BORDER
 70
0
 3
__ __ . __ __ . 
 72
65
 73
6
 40
1.75
 49
0.5
 49
-0.25
 49
0.5
 49
-0.25
 49
0.0
 49
-0.25
 0
LTYPE
 2
HIDDEN
 70
0
 3
__ __ __ __ __
 72
65
 73
2
 40
0.4
 49
0.25
 49
-0.25
 0
LTYPE
 2
CENTER
 70
0
 3
____ _ ____ _ __
 72
65
 73
4
 40
2.0
 49
1.25
 49
-0.25
 49
0.25
 49
-0.25
 0
ENDTAB
 0
TABLE
 2
LAYER
 70
2
 0
LAYER
 2
0
 70
0
 62
7
 6
CONTINUOUS
 0
LAYER
 2
PYDXF
 70
0
 62
7
 6
CONTINUOUS
 0
ENDTAB
 0
TABLE
 2
STYLE
 70
2
 0
STYLE
 2
STANDARD
 70
0
 40
0.0
 41
1.0
 50
0.0
 71
0
 42
1.0
 3
txt
 4

 0
STYLE
 2
ANNOTATIVE
 70
0
 40
0.0
 41
1.0
 50
0.0
 71
0
 42
0.2
 3
txt
 4

 0
ENDTAB
 0
TABLE
 2
VIEW
 70
1
 0
VIEW
 2
BF_TOPVIEW
 70
0
 40
120.0
 10
0.0
 20
0.0
 41
200.0
 11
0.0
 21
0.0
 31
1.0
 12
0.0
 22
0.0
 32
0.0
 42
50.0
 43
0.0
 44
0.0
 50
0.0
 71
0
 0
ENDTAB
 0
TABLE
 2
UCS
 70
0
 0
ENDTAB
 0
TABLE
 2
APPID
 70
4
 0
APPID
 2
ACAD
 70
0
 0
APPID
 2
ACADANNOTATIVE
 70
0
 0
APPID
 2
ACAD_NAV_VCDISPLAY
 70
0
 0
APPID
 2
ACAD_MLEADERVER
 70
0
 0
ENDTAB
 0
TABLE
 2
DIMSTYLE
 70
2
 0
DIMSTYLE
 2
STANDARD
 70
0
 3

 4

 5

 6

 7

 40
1.0
 41
0.18
 42
0.0625
 43
0.38
 44
0.18
 45
0.0
 46
0.0
 47
0.0
 48
0.0
 140
0.18
 141
0.09
 142
0.0
 143
25.3999999999999986
 144
1.0
 145
0.0
 146
1.0
 147
0.09
 71
0
 72
0
 73
1
 74
1
 75
0
 76
0
 77
0
 78
0
 170
0
 171
2
 172
0
 173
0
 174
0
 175
0
 176
0
 177
0
 178
0
 0
DIMSTYLE
 2
ANNOTATIVE
 70
0
 3

 4

 5

 6

 7

 40
1.0
 41
0.18
 42
0.0625
 43
0.38
 44
0.18
 45
0.0
 46
0.0
 47
0.0
 48
0.0
 140
0.18
 141
0.09
 142
0.0
 143
25.3999999999999986
 144
1.0
 145
0.0
 146
1.0
 147
0.09
 71
0
 72
0
 73
1
 74
1
 75
0
 76
0
 77
0
 78
0
 170
0
 171
2
 172
0
 173
0
 174
0
 175
0
 176
0
 177
0
 178
0
 0
ENDTAB
 0
ENDSEC
 0
SECTION
 2
BLOCKS
 0
BLOCK
 8
0
 2
$MODEL_SPACE
 70
0
 10
0.0
 20
0.0
 30
0.0
 3
$MODEL_SPACE
 1

 0
ENDBLK
 5
71
 8
0
 0
BLOCK
 67
1
 8
0
 2
$PAPER_SPACE
 70
0
 10
0.0
 20
0.0
 30
0.0
 3
$PAPER_SPACE
 1

 0
ENDBLK
 5
6D
 67
1
 8
0
 0
ENDSEC
 0
SECTION
 2
ENTITIES
 0
POLYLINE
 5
7F
 8
0
 62
131
 66
1
 10
0
 20
0.25
 30
0
 70
64
 71
278
 72
274
 0
VERTEX
 5
80
 8
0
 62
131
 10
0.608
 20
0.33
 30
2.158
 70
192
 0
VERTEX
 5
81
 8
0
 62
131
 10
0.608
 20
0.28
 30
2.158
 70
192
 0
VERTEX
 5
82
 8
0
 62
131
 10
0.042
 20
0.28
 30
2.158
 70
192
 0
VERTEX
 5
83
 8
0
 62
131
 10
0.518
 20
0.28
 30
2.038
 70
192
 0
VERTEX
 5
84
 8
0
 62
131
 10
0.162
 20
0.28
 30
2.038
 70
192
 0
VERTEX
 5
85
 8
0
 62
131
 10
0.042
 20
0.33
 30
2.158
 70
192
 0
VERTEX
 5
86
 8
0
 62
131
 10
0.162
 20
0.33
 30
2.038
 70
192
 0
VERTEX
 5
87
 8
0
 62
131
 10
0.182
 20
0.31
 30
2.018
 70
192
 0
VERTEX
 5
88
 8
0
 62
131
 10
0.503
 20
0.31
 30
2.018
 70
192
 0
VERTEX
 5
89
 8
0
 62
131
 10
0.608
 20
0.33
 30
1.11
 70
192
 0
VERTEX
 5
8A
 8
0
 62
131
 10
0.518
 20
0.33
 30
1.11
 70
192
 0
VERTEX
 5
8B
 8
0
 62
131
 10
0.608
 20
0.28
 30
1.01
 70
192
 0
VERTEX
 5
8C
 8
0
 62
131
 10
0.518
 20
0.28
 30
1.11
 70
192
 0
VERTEX
 5
8D
 8
0
 62
131
 10
0.608
 20
0.28
 30
1.11
 70
192
 0
VERTEX
 5
8E
 8
0
 62
131
 10
0.162
 20
0.28
 30
1.11
 70
192
 0
VERTEX
 5
8F
 8
0
 62
131
 10
0.042
 20
0.28
 30
1.11
 70
192
 0
VERTEX
 5
90
 8
0
 62
131
 10
0.042
 20
0.28
 30
1.01
 70
192
 0
VERTEX
 5
91
 8
0
 62
131
 10
0.162
 20
0.33
 30
1.11
 70
192
 0
VERTEX
 5
92
 8
0
 62
131
 10
0.518
 20
0.33
 30
2.038
 70
192
 0
VERTEX
 5
93
 8
0
 62
131
 10
0.503
 20
0.31
 30
1.13
 70
192
 0
VERTEX
 5
94
 8
0
 62
131
 10
0.608
 20
0.33
 30
1.01
 70
192
 0
VERTEX
 5
95
 8
0
 62
131
 10
0.042
 20
0.33
 30
1.11
 70
192
 0
VERTEX
 5
96
 8
0
 62
131
 10
0.042
 20
0.33
 30
1.01
 70
192
 0
VERTEX
 5
97
 8
0
 62
131
 10
0.608
 20
0.28
 30
0.77
 70
192
 0
VERTEX
 5
98
 8
0
 62
131
 10
0.503
 20
0.3
 30
2.018
 70
192
 0
VERTEX
 5
99
 8
0
 62
131
 10
0.182
 20
0.3
 30
1.13
 70
192
 0
VERTEX
 5
9A
 8
0
 62
131
 10
0.182
 20
0.3
 30
2.018
 70
192
 0
VERTEX
 5
9B
 8
0
 62
131
 10
0.162
 20
0.28
 30
1.01
 70
192
 0
VERTEX
 5
9C
 8
0
 62
131
 10
0.042
 20
0.28
 30
0.77
 70
192
 0
VERTEX
 5
9D
 8
0
 62
131
 10
0.182
 20
0.31
 30
1.13
 70
192
 0
VERTEX
 5
9E
 8
0
 62
131
 10
0.042
 20
0.33
 30
0.77
 70
192
 0
VERTEX
 5
9F
 8
0
 62
131
 10
0.518
 20
0.28
 30
0.77
 70
192
 0
VERTEX
 5
A0
 8
0
 62
131
 10
0.503
 20
0.3
 30
1.13
 70
192
 0
VERTEX
 5
A1
 8
0
 62
131
 10
0.162
 20
0.28
 30
0.77
 70
192
 0
VERTEX
 5
A2
 8
0
 62
131
 10
0.042
 20
0.28
 30
0.67
 70
192
 0
VERTEX
 5
A3
 8
0
 62
131
 10
0.518
 20
0.33
 30
1.01
 70
192
 0
VERTEX
 5
A4
 8
0
 62
131
 10
0.162
 20
0.33
 30
1.01
 70
192
 0
VERTEX
 5
A5
 8
0
 62
131
 10
0.182
 20
0.31
 30
0.99
 70
192
 0
VERTEX
 5
A6
 8
0
 62
131
 10
0.503
 20
0.31
 30
0.79
 70
192
 0
VERTEX
 5
A7
 8
0
 62
131
 10
0.608
 20
0.33
 30
0.77
 70
192
 0
VERTEX
 5
A8
 8
0
 62
131
 10
0.608
 20
0.33
 30
0.67
 70
192
 0
VERTEX
 5
A9
 8
0
 62
131
 10
0.162
 20
0.33
 30
0.67
 70
192
 0
VERTEX
 5
AA
 8
0
 62
131
 10
0.042
 20
0.33
 30
0.67
 70
192
 0
VERTEX
 5
AB
 8
0
 62
131
 10
0.182
 20
0.31
 30
0.79
 70
192
 0
VERTEX
 5
AC
 8
0
 62
131
 10
0.608
 20
0.28
 30
0
 70
192
 0
VERTEX
 5
AD
 8
0
 62
131
 10
0.608
 20
0.28
 30
0.67
 70
192
 0
VERTEX
 5
AE
 8
0
 62
131
 10
0.518
 20
0.28
 30
1.01
 70
192
 0
VERTEX
 5
AF
 8
0
 62
131
 10
0.503
 20
0.3
 30
0.99
 70
192
 0
VERTEX
 5
B0
 8
0
 62
131
 10
0.503
 20
0.31
 30
0.99
 70
192
 0
VERTEX
 5
B1
 8
0
 62
131
 10
0.162
 20
0.33
 30
0.77
 70
192
 0
VERTEX
 5
B2
 8
0
 62
131
 10
0.518
 20
0.33
 30
0.67
 70
192
 0
VERTEX
 5
B3
 8
0
 62
131
 10
0.518
 20
0.33
 30
0.77
 70
192
 0
VERTEX
 5
B4
 8
0
 62
131
 10
0.518
 20
0.33
 30
0.17
 70
192
 0
VERTEX
 5
B5
 8
0
 62
131
 10
0.518
 20
0.28
 30
0.17
 70
192
 0
VERTEX
 5
B6
 8
0
 62
131
 10
0.608
 20
0.33
 30
0
 70
192
 0
VERTEX
 5
B7
 8
0
 62
131
 10
0.042
 20
0.28
 30
0
 70
192
 0
VERTEX
 5
B8
 8
0
 62
131
 10
0.503
 20
0.3
 30
0.79
 70
192
 0
VERTEX
 5
B9
 8
0
 62
131
 10
0.182
 20
0.3
 30
0.99
 70
192
 0
VERTEX
 5
BA
 8
0
 62
131
 10
0.182
 20
0.3
 30
0.79
 70
192
 0
VERTEX
 5
BB
 8
0
 62
131
 10
0.202
 20
0.3
 30
0.81
 70
192
 0
VERTEX
 5
BC
 8
0
 62
131
 10
0.162
 20
0.28
 30
0.17
 70
192
 0
VERTEX
 5
BD
 8
0
 62
131
 10
0.503
 20
0.31
 30
0.65
 70
192
 0
VERTEX
 5
BE
 8
0
 62
131
 10
0.162
 20
0.33
 30
0.17
 70
192
 0
VERTEX
 5
BF
 8
0
 62
131
 10
0.042
 20
0.33
 30
0
 70
192
 0
VERTEX
 5
C0
 8
0
 62
131
 10
0.182
 20
0.31
 30
0.65
 70
192
 0
VERTEX
 5
C1
 8
0
 62
131
 10
0.503
 20
0.3
 30
0.19
 70
192
 0
VERTEX
 5
C2
 8
0
 62
131
 10
0.503
 20
0.3
 30
0.65
 70
192
 0
VERTEX
 5
C3
 8
0
 62
131
 10
0.518
 20
0.28
 30
0.67
 70
192
 0
VERTEX
 5
C4
 8
0
 62
131
 10
0.162
 20
0.28
 30
0.67
 70
192
 0
VERTEX
 5
C5
 8
0
 62
131
 10
0.483
 20
0.3
 30
0.97
 70
192
 0
VERTEX
 5
C6
 8
0
 62
131
 10
0.202
 20
0.3
 30
0.97
 70
192
 0
VERTEX
 5
C7
 8
0
 62
131
 10
0.202
 20
0.29
 30
0.97
 70
192
 0
VERTEX
 5
C8
 8
0
 62
131
 10
0.182
 20
0.3
 30
0.19
 70
192
 0
VERTEX
 5
C9
 8
0
 62
131
 10
0.503
 20
0.31
 30
0.19
 70
192
 0
VERTEX
 5
CA
 8
0
 62
131
 10
0.182
 20
0.31
 30
0.19
 70
192
 0
VERTEX
 5
CB
 8
0
 62
131
 10
0.182
 20
0.3
 30
0.65
 70
192
 0
VERTEX
 5
CC
 8
0
 62
131
 10
0.483
 20
0.3
 30
0.81
 70
192
 0
VERTEX
 5
CD
 8
0
 62
131
 10
0.483
 20
0.29
 30
0.81
 70
192
 0
VERTEX
 5
CE
 8
0
 62
131
 10
0.483
 20
0.29
 30
0.97
 70
192
 0
VERTEX
 5
CF
 8
0
 62
131
 10
0.282
 20
0.26
 30
0.89
 70
192
 0
VERTEX
 5
D0
 8
0
 62
131
 10
0.403
 20
0.26
 30
0.89
 70
192
 0
VERTEX
 5
D1
 8
0
 62
131
 10
0.202
 20
0.29
 30
0.81
 70
192
 0
VERTEX
 5
D2
 8
0
 62
131
 10
1.178
 20
0.33
 30
2.158
 70
192
 0
VERTEX
 5
D3
 8
0
 62
131
 10
1.058
 20
0.33
 30
2.038
 70
192
 0
VERTEX
 5
D4
 8
0
 62
131
 10
0.702
 20
0.33
 30
2.038
 70
192
 0
VERTEX
 5
D5
 8
0
 62
131
 10
0.612
 20
0.28
 30
1.11
 70
192
 0
VERTEX
 5
D6
 8
0
 62
131
 10
0.612
 20
0.28
 30
2.158
 70
192
 0
VERTEX
 5
D7
 8
0
 62
131
 10
0.612
 20
0.33
 30
2.158
 70
192
 0
VERTEX
 5
D8
 8
0
 62
131
 10
0.702
 20
0.28
 30
2.038
 70
192
 0
VERTEX
 5
D9
 8
0
 62
131
 10
1.178
 20
0.33
 30
1.11
 70
192
 0
VERTEX
 5
DA
 8
0
 62
131
 10
1.178
 20
0.28
 30
2.158
 70
192
 0
VERTEX
 5
DB
 8
0
 62
131
 10
0.612
 20
0.33
 30
1.11
 70
192
 0
VERTEX
 5
DC
 8
0
 62
131
 10
0.612
 20
0.28
 30
1.01
 70
192
 0
VERTEX
 5
DD
 8
0
 62
131
 10
0.612
 20
0.33
 30
1.01
 70
192
 0
VERTEX
 5
DE
 8
0
 62
131
 10
1.038
 20
0.3
 30
2.018
 70
192
 0
VERTEX
 5
DF
 8
0
 62
131
 10
0.717
 20
0.3
 30
2.018
 70
192
 0
VERTEX
 5
E0
 8
0
 62
131
 10
1.178
 20
0.28
 30
1.11
 70
192
 0
VERTEX
 5
E1
 8
0
 62
131
 10
1.058
 20
0.33
 30
1.11
 70
192
 0
VERTEX
 5
E2
 8
0
 62
131
 10
1.038
 20
0.31
 30
1.13
 70
192
 0
VERTEX
 5
E3
 8
0
 62
131
 10
1.038
 20
0.31
 30
2.018
 70
192
 0
VERTEX
 5
E4
 8
0
 62
131
 10
0.717
 20
0.31
 30
2.018
 70
192
 0
VERTEX
 5
E5
 8
0
 62
131
 10
0.702
 20
0.33
 30
1.11
 70
192
 0
VERTEX
 5
E6
 8
0
 62
131
 10
0.612
 20
0.28
 30
0.77
 70
192
 0
VERTEX
 5
E7
 8
0
 62
131
 10
0.702
 20
0.28
 30
1.01
 70
192
 0
VERTEX
 5
E8
 8
0
 62
131
 10
0.702
 20
0.28
 30
1.11
 70
192
 0
VERTEX
 5
E9
 8
0
 62
131
 10
1.058
 20
0.28
 30
2.038
 70
192
 0
VERTEX
 5
EA
 8
0
 62
131
 10
1.178
 20
0.28
 30
1.01
 70
192
 0
VERTEX
 5
EB
 8
0
 62
131
 10
1.178
 20
0.28
 30
0.77
 70
192
 0
VERTEX
 5
EC
 8
0
 62
131
 10
0.717
 20
0.31
 30
1.13
 70
192
 0
VERTEX
 5
ED
 8
0
 62
131
 10
0.612
 20
0.33
 30
0.77
 70
192
 0
VERTEX
 5
EE
 8
0
 62
131
 10
1.178
 20
0.33
 30
1.01
 70
192
 0
VERTEX
 5
EF
 8
0
 62
131
 10
0.717
 20
0.3
 30
1.13
 70
192
 0
VERTEX
 5
F0
 8
0
 62
131
 10
1.038
 20
0.3
 30
1.13
 70
192
 0
VERTEX
 5
F1
 8
0
 62
131
 10
1.058
 20
0.28
 30
1.11
 70
192
 0
VERTEX
 5
F2
 8
0
 62
131
 10
1.178
 20
0.28
 30
0.67
 70
192
 0
VERTEX
 5
F3
 8
0
 62
131
 10
1.178
 20
0.33
 30
0.67
 70
192
 0
VERTEX
 5
F4
 8
0
 62
131
 10
1.058
 20
0.33
 30
1.01
 70
192
 0
VERTEX
 5
F5
 8
0
 62
131
 10
0.717
 20
0.31
 30
0.99
 70
192
 0
VERTEX
 5
F6
 8
0
 62
131
 10
0.702
 20
0.33
 30
1.01
 70
192
 0
VERTEX
 5
F7
 8
0
 62
131
 10
0.612
 20
0.33
 30
0.67
 70
192
 0
VERTEX
 5
F8
 8
0
 62
131
 10
0.702
 20
0.33
 30
0.67
 70
192
 0
VERTEX
 5
F9
 8
0
 62
131
 10
1.178
 20
0.33
 30
0.77
 70
192
 0
VERTEX
 5
FA
 8
0
 62
131
 10
1.058
 20
0.33
 30
0.77
 70
192
 0
VERTEX
 5
FB
 8
0
 62
131
 10
1.038
 20
0.31
 30
0.99
 70
192
 0
VERTEX
 5
FC
 8
0
 62
131
 10
0.612
 20
0.28
 30
0
 70
192
 0
VERTEX
 5
FD
 8
0
 62
131
 10
0.612
 20
0.28
 30
0.67
 70
192
 0
VERTEX
 5
FE
 8
0
 62
131
 10
0.717
 20
0.3
 30
0.99
 70
192
 0
VERTEX
 5
FF
 8
0
 62
131
 10
1.058
 20
0.28
 30
1.01
 70
192
 0
VERTEX
 5
100
 8
0
 62
131
 10
1.058
 20
0.28
 30
0.77
 70
192
 0
VERTEX
 5
101
 8
0
 62
131
 10
1.038
 20
0.3
 30
0.99
 70
192
 0
VERTEX
 5
102
 8
0
 62
131
 10
1.178
 20
0.28
 30
0
 70
192
 0
VERTEX
 5
103
 8
0
 62
131
 10
1.178
 20
0.33
 30
0
 70
192
 0
VERTEX
 5
104
 8
0
 62
131
 10
0.717
 20
0.31
 30
0.79
 70
192
 0
VERTEX
 5
105
 8
0
 62
131
 10
1.038
 20
0.31
 30
0.79
 70
192
 0
VERTEX
 5
106
 8
0
 62
131
 10
0.702
 20
0.33
 30
0.77
 70
192
 0
VERTEX
 5
107
 8
0
 62
131
 10
0.612
 20
0.33
 30
0
 70
192
 0
VERTEX
 5
108
 8
0
 62
131
 10
1.058
 20
0.33
 30
0.67
 70
192
 0
VERTEX
 5
109
 8
0
 62
131
 10
0.702
 20
0.28
 30
0.77
 70
192
 0
VERTEX
 5
10A
 8
0
 62
131
 10
0.717
 20
0.3
 30
0.79
 70
192
 0
VERTEX
 5
10B
 8
0
 62
131
 10
1.018
 20
0.3
 30
0.97
 70
192
 0
VERTEX
 5
10C
 8
0
 62
131
 10
1.018
 20
0.3
 30
0.81
 70
192
 0
VERTEX
 5
10D
 8
0
 62
131
 10
1.038
 20
0.3
 30
0.79
 70
192
 0
VERTEX
 5
10E
 8
0
 62
131
 10
1.058
 20
0.28
 30
0.17
 70
192
 0
VERTEX
 5
10F
 8
0
 62
131
 10
1.058
 20
0.33
 30
0.17
 70
192
 0
VERTEX
 5
110
 8
0
 62
131
 10
1.038
 20
0.31
 30
0.19
 70
192
 0
VERTEX
 5
111
 8
0
 62
131
 10
1.038
 20
0.31
 30
0.65
 70
192
 0
VERTEX
 5
112
 8
0
 62
131
 10
0.702
 20
0.28
 30
0.17
 70
192
 0
VERTEX
 5
113
 8
0
 62
131
 10
0.702
 20
0.28
 30
0.67
 70
192
 0
VERTEX
 5
114
 8
0
 62
131
 10
0.737
 20
0.3
 30
0.81
 70
192
 0
VERTEX
 5
115
 8
0
 62
131
 10
0.737
 20
0.3
 30
0.97
 70
192
 0
VERTEX
 5
116
 8
0
 62
131
 10
1.038
 20
0.3
 30
0.65
 70
192
 0
VERTEX
 5
117
 8
0
 62
131
 10
1.038
 20
0.3
 30
0.19
 70
192
 0
VERTEX
 5
118
 8
0
 62
131
 10
1.058
 20
0.28
 30
0.67
 70
192
 0
VERTEX
 5
119
 8
0
 62
131
 10
0.717
 20
0.31
 30
0.65
 70
192
 0
VERTEX
 5
11A
 8
0
 62
131
 10
0.702
 20
0.33
 30
0.17
 70
192
 0
VERTEX
 5
11B
 8
0
 62
131
 10
0.717
 20
0.31
 30
0.19
 70
192
 0
VERTEX
 5
11C
 8
0
 62
131
 10
0.717
 20
0.3
 30
0.19
 70
192
 0
VERTEX
 5
11D
 8
0
 62
131
 10
0.717
 20
0.3
 30
0.65
 70
192
 0
VERTEX
 5
11E
 8
0
 62
131
 10
0.737
 20
0.29
 30
0.81
 70
192
 0
VERTEX
 5
11F
 8
0
 62
131
 10
0.938
 20
0.26
 30
0.89
 70
192
 0
VERTEX
 5
120
 8
0
 62
131
 10
0.737
 20
0.29
 30
0.97
 70
192
 0
VERTEX
 5
121
 8
0
 62
131
 10
1.018
 20
0.29
 30
0.97
 70
192
 0
VERTEX
 5
122
 8
0
 62
131
 10
1.018
 20
0.29
 30
0.81
 70
192
 0
VERTEX
 5
123
 8
0
 62
131
 10
0.817
 20
0.26
 30
0.89
 70
192
 0
VERTEX
 5
124
 8
0
 62
131
 10
1.18
 20
0.33
 30
0
 70
192
 0
VERTEX
 5
125
 8
0
 62
131
 10
1.22
 20
0.33
 30
2.2
 70
192
 0
VERTEX
 5
126
 8
0
 62
131
 10
1.18
 20
0.28
 30
2.16
 70
192
 0
VERTEX
 5
127
 8
0
 62
131
 10
1.18
 20
0.33
 30
2.16
 70
192
 0
VERTEX
 5
128
 8
0
 62
131
 10
1.22
 20
0.25
 30
2.2
 70
192
 0
VERTEX
 5
129
 8
0
 62
131
 10
1.22
 20
0.33
 30
0
 70
192
 0
VERTEX
 5
12A
 8
0
 62
131
 10
1.22
 20
0.25
 30
0
 70
192
 0
VERTEX
 5
12B
 8
0
 62
131
 10
1.18
 20
0.28
 30
0
 70
192
 0
VERTEX
 5
12C
 8
0
 62
131
 10
1.16
 20
0.28
 30
0
 70
192
 0
VERTEX
 5
12D
 8
0
 62
131
 10
1.16
 20
0.28
 30
2.14
 70
192
 0
VERTEX
 5
12E
 8
0
 62
131
 10
0.04
 20
0.33
 30
2.16
 70
192
 0
VERTEX
 5
12F
 8
0
 62
131
 10
1.16
 20
0.25
 30
0
 70
192
 0
VERTEX
 5
130
 8
0
 62
131
 10
1.16
 20
0.25
 30
2.14
 70
192
 0
VERTEX
 5
131
 8
0
 62
131
 10
0.04
 20
0.28
 30
2.16
 70
192
 0
VERTEX
 5
132
 8
0
 62
131
 10
0.04
 20
0.28
 30
0
 70
192
 0
VERTEX
 5
133
 8
0
 62
131
 10
0
 20
0.33
 30
2.2
 70
192
 0
VERTEX
 5
134
 8
0
 62
131
 10
0.06
 20
0.28
 30
2.14
 70
192
 0
VERTEX
 5
135
 8
0
 62
131
 10
0.06
 20
0.28
 30
0
 70
192
 0
VERTEX
 5
136
 8
0
 62
131
 10
0.04
 20
0.33
 30
0
 70
192
 0
VERTEX
 5
137
 8
0
 62
131
 10
0.06
 20
0.25
 30
2.14
 70
192
 0
VERTEX
 5
138
 8
0
 62
131
 10
0
 20
0.25
 30
2.2
 70
192
 0
VERTEX
 5
139
 8
0
 62
131
 10
0
 20
0.33
 30
0
 70
192
 0
VERTEX
 5
13A
 8
0
 62
131
 10
0.06
 20
0.25
 30
0
 70
192
 0
VERTEX
 5
13B
 8
0
 62
131
 10
-0.02
 20
-0.05
 30
0.48
 70
192
 0
VERTEX
 5
13C
 8
0
 62
131
 10
-0.19
 20
-0.05
 30
0.45
 70
192
 0
VERTEX
 5
13D
 8
0
 62
131
 10
-0.19
 20
0.25
 30
0.45
 70
192
 0
VERTEX
 5
13E
 8
0
 62
131
 10
0.01
 20
-0.05
 30
2.19
 70
192
 0
VERTEX
 5
13F
 8
0
 62
131
 10
-0.02
 20
-0.05
 30
2.19
 70
192
 0
VERTEX
 5
140
 8
0
 62
131
 10
0.01
 20
-0.05
 30
0.45
 70
192
 0
VERTEX
 5
141
 8
0
 62
131
 10
-0.02
 20
-0.03
 30
0.48
 70
192
 0
VERTEX
 5
142
 8
0
 62
131
 10
-0.02
 20
-0.03
 30
2.19
 70
192
 0
VERTEX
 5
143
 8
0
 62
131
 10
-0.16
 20
-0.03
 30
2.19
 70
192
 0
VERTEX
 5
144
 8
0
 62
131
 10
-0.16
 20
-0.03
 30
0.48
 70
192
 0
VERTEX
 5
145
 8
0
 62
131
 10
-0.16
 20
-0.05
 30
0.48
 70
192
 0
VERTEX
 5
146
 8
0
 62
131
 10
-0.16
 20
-0.05
 30
2.22
 70
192
 0
VERTEX
 5
147
 8
0
 62
131
 10
-0.19
 20
0.25
 30
2.19
 70
192
 0
VERTEX
 5
148
 8
0
 62
131
 10
0.03
 20
-0.07
 30
0
 70
192
 0
VERTEX
 5
149
 8
0
 62
131
 10
-0.21
 20
-0.07
 30
0.45
 70
192
 0
VERTEX
 5
14A
 8
0
 62
131
 10
-0.21
 20
-0.07
 30
0
 70
192
 0
VERTEX
 5
14B
 8
0
 62
131
 10
0.03
 20
0.25
 30
0.45
 70
192
 0
VERTEX
 5
14C
 8
0
 62
131
 10
0.03
 20
-0.07
 30
0.45
 70
192
 0
VERTEX
 5
14D
 8
0
 62
131
 10
0.01
 20
0.25
 30
0.45
 70
192
 0
VERTEX
 5
14E
 8
0
 62
131
 10
-0.02
 20
-0.05
 30
2.22
 70
192
 0
VERTEX
 5
14F
 8
0
 62
131
 10
-0.16
 20
-0.05
 30
2.19
 70
192
 0
VERTEX
 5
150
 8
0
 62
131
 10
-0.19
 20
-0.05
 30
2.19
 70
192
 0
VERTEX
 5
151
 8
0
 62
131
 10
-0.21
 20
0.25
 30
0.45
 70
192
 0
VERTEX
 5
152
 8
0
 62
131
 10
-0.21
 20
0.25
 30
0
 70
192
 0
VERTEX
 5
153
 8
0
 62
131
 10
0.03
 20
0.25
 30
0
 70
192
 0
VERTEX
 5
154
 8
0
 62
131
 10
-0.02
 20
0.25
 30
2.22
 70
192
 0
VERTEX
 5
155
 8
0
 62
131
 10
1.21
 20
-0.05
 30
2.22
 70
192
 0
VERTEX
 5
156
 8
0
 62
131
 10
-0.19
 20
-0.05
 30
2.22
 70
192
 0
VERTEX
 5
157
 8
0
 62
131
 10
-0.19
 20
0.25
 30
2.22
 70
192
 0
VERTEX
 5
158
 8
0
 62
131
 10
-0.19
 20
0.25
 30
2.39
 70
192
 0
VERTEX
 5
159
 8
0
 62
131
 10
-0.16
 20
-0.03
 30
2.22
 70
192
 0
VERTEX
 5
15A
 8
0
 62
131
 10
-0.16
 20
-0.03
 30
2.36
 70
192
 0
VERTEX
 5
15B
 8
0
 62
131
 10
0.01
 20
0.25
 30
2.39
 70
192
 0
VERTEX
 5
15C
 8
0
 62
131
 10
0.01
 20
0.25
 30
2.19
 70
192
 0
VERTEX
 5
15D
 8
0
 62
131
 10
-0.02
 20
0.25
 30
2.39
 70
192
 0
VERTEX
 5
15E
 8
0
 62
131
 10
1.21
 20
-0.03
 30
2.22
 70
192
 0
VERTEX
 5
15F
 8
0
 62
131
 10
0.01
 20
-0.05
 30
2.22
 70
192
 0
VERTEX
 5
160
 8
0
 62
131
 10
0.01
 20
-0.03
 30
2.22
 70
192
 0
VERTEX
 5
161
 8
0
 62
131
 10
0.01
 20
-0.05
 30
2.36
 70
192
 0
VERTEX
 5
162
 8
0
 62
131
 10
0.01
 20
-0.05
 30
2.39
 70
192
 0
VERTEX
 5
163
 8
0
 62
131
 10
-0.02
 20
-0.03
 30
2.22
 70
192
 0
VERTEX
 5
164
 8
0
 62
131
 10
-0.02
 20
-0.05
 30
2.36
 70
192
 0
VERTEX
 5
165
 8
0
 62
131
 10
-0.19
 20
-0.05
 30
2.39
 70
192
 0
VERTEX
 5
166
 8
0
 62
131
 10
-0.02
 20
-0.03
 30
2.36
 70
192
 0
VERTEX
 5
167
 8
0
 62
131
 10
-0.16
 20
-0.05
 30
2.36
 70
192
 0
VERTEX
 5
168
 8
0
 62
131
 10
1.21
 20
0.25
 30
2.39
 70
192
 0
VERTEX
 5
169
 8
0
 62
131
 10
1.21
 20
-0.05
 30
2.39
 70
192
 0
VERTEX
 5
16A
 8
0
 62
131
 10
1.24
 20
-0.05
 30
0.48
 70
192
 0
VERTEX
 5
16B
 8
0
 62
131
 10
1.21
 20
-0.05
 30
2.19
 70
192
 0
VERTEX
 5
16C
 8
0
 62
131
 10
1.21
 20
-0.05
 30
0.45
 70
192
 0
VERTEX
 5
16D
 8
0
 62
131
 10
-0.02
 20
-0.05
 30
2.39
 70
192
 0
VERTEX
 5
16E
 8
0
 62
131
 10
1.21
 20
-0.03
 30
2.36
 70
192
 0
VERTEX
 5
16F
 8
0
 62
131
 10
0.01
 20
-0.03
 30
2.36
 70
192
 0
VERTEX
 5
170
 8
0
 62
131
 10
1.21
 20
-0.05
 30
2.36
 70
192
 0
VERTEX
 5
171
 8
0
 62
131
 10
1.41
 20
0.25
 30
2.22
 70
192
 0
VERTEX
 5
172
 8
0
 62
131
 10
1.24
 20
0.25
 30
2.22
 70
192
 0
VERTEX
 5
173
 8
0
 62
131
 10
1.21
 20
0.25
 30
2.19
 70
192
 0
VERTEX
 5
174
 8
0
 62
131
 10
1.41
 20
0.25
 30
0.45
 70
192
 0
VERTEX
 5
175
 8
0
 62
131
 10
1.41
 20
0.25
 30
2.19
 70
192
 0
VERTEX
 5
176
 8
0
 62
131
 10
1.19
 20
0.25
 30
0
 70
192
 0
VERTEX
 5
177
 8
0
 62
131
 10
1.21
 20
0.25
 30
0.45
 70
192
 0
VERTEX
 5
178
 8
0
 62
131
 10
1.19
 20
0.25
 30
0.45
 70
192
 0
VERTEX
 5
179
 8
0
 62
131
 10
1.19
 20
-0.07
 30
0
 70
192
 0
VERTEX
 5
17A
 8
0
 62
131
 10
1.41
 20
-0.05
 30
0.45
 70
192
 0
VERTEX
 5
17B
 8
0
 62
131
 10
1.43
 20
-0.07
 30
0.45
 70
192
 0
VERTEX
 5
17C
 8
0
 62
131
 10
1.24
 20
-0.03
 30
0.48
 70
192
 0
VERTEX
 5
17D
 8
0
 62
131
 10
1.24
 20
-0.05
 30
2.19
 70
192
 0
VERTEX
 5
17E
 8
0
 62
131
 10
1.41
 20
-0.05
 30
2.22
 70
192
 0
VERTEX
 5
17F
 8
0
 62
131
 10
1.24
 20
-0.03
 30
2.22
 70
192
 0
VERTEX
 5
180
 8
0
 62
131
 10
1.24
 20
-0.03
 30
2.36
 70
192
 0
VERTEX
 5
181
 8
0
 62
131
 10
1.24
 20
-0.05
 30
2.22
 70
192
 0
VERTEX
 5
182
 8
0
 62
131
 10
1.24
 20
-0.05
 30
2.36
 70
192
 0
VERTEX
 5
183
 8
0
 62
131
 10
1.24
 20
0.25
 30
2.39
 70
192
 0
VERTEX
 5
184
 8
0
 62
131
 10
1.24
 20
-0.05
 30
2.39
 70
192
 0
VERTEX
 5
185
 8
0
 62
131
 10
1.41
 20
0.25
 30
2.39
 70
192
 0
VERTEX
 5
186
 8
0
 62
131
 10
1.41
 20
-0.05
 30
2.19
 70
192
 0
VERTEX
 5
187
 8
0
 62
131
 10
1.38
 20
-0.05
 30
2.19
 70
192
 0
VERTEX
 5
188
 8
0
 62
131
 10
1.43
 20
0.25
 30
0
 70
192
 0
VERTEX
 5
189
 8
0
 62
131
 10
1.43
 20
0.25
 30
0.45
 70
192
 0
VERTEX
 5
18A
 8
0
 62
131
 10
1.43
 20
-0.07
 30
0
 70
192
 0
VERTEX
 5
18B
 8
0
 62
131
 10
1.19
 20
-0.07
 30
0.45
 70
192
 0
VERTEX
 5
18C
 8
0
 62
131
 10
1.38
 20
-0.03
 30
0.48
 70
192
 0
VERTEX
 5
18D
 8
0
 62
131
 10
1.24
 20
-0.03
 30
2.19
 70
192
 0
VERTEX
 5
18E
 8
0
 62
131
 10
1.38
 20
-0.03
 30
2.19
 70
192
 0
VERTEX
 5
18F
 8
0
 62
131
 10
1.38
 20
-0.05
 30
0.48
 70
192
 0
VERTEX
 5
190
 8
0
 62
131
 10
1.38
 20
-0.05
 30
2.36
 70
192
 0
VERTEX
 5
191
 8
0
 62
131
 10
1.41
 20
-0.05
 30
2.39
 70
192
 0
VERTEX
 5
192
 8
0
 62
131
 10
1.38
 20
-0.05
 30
2.22
 70
192
 0
VERTEX
 5
193
 8
0
 62
131
 10
1.38
 20
-0.03
 30
2.36
 70
192
 0
VERTEX
 5
194
 8
0
 62
131
 10
1.38
 20
-0.03
 30
2.22
 70
192
 0
VERTEX
 5
195
 8
0
 62
131
 10
0
 20
0.25
 30
0
 70
192
 0
VERTEX
 5
196
 8
0
 62
131
 10
0
 20
0.25
 30
0
 70
128
 71
1
 72
6
 73
3
 74
2
 0
VERTEX
 5
197
 8
0
 62
131
 10
0
 20
0.25
 30
0
 70
128
 71
6
 72
1
 73
19
 74
7
 0
VERTEX
 5
198
 8
0
 62
131
 10
0
 20
0.25
 30
0
 70
128
 71
10
 72
1
 73
2
 74
14
 0
VERTEX
 5
199
 8
0
 62
131
 10
0
 20
0.25
 30
0
 70
128
 71
2
 72
3
 73
5
 74
4
 0
VERTEX
 5
19A
 8
0
 62
131
 10
0
 20
0.25
 30
0
 70
128
 71
6
 72
22
 73
16
 74
3
 0
VERTEX
 5
19B
 8
0
 62
131
 10
0
 20
0.25
 30
0
 70
128
 71
9
 72
8
 73
7
 74
19
 0
VERTEX
 5
19C
 8
0
 62
131
 10
0
 20
0.25
 30
0
 70
128
 71
1
 72
10
 73
11
 74
19
 0
VERTEX
 5
19D
 8
0
 62
131
 10
0
 20
0.25
 30
0
 70
128
 71
7
 72
18
 73
22
 74
6
 0
VERTEX
 5
19E
 8
0
 62
131
 10
0
 20
0.25
 30
0
 70
128
 71
14
 72
12
 73
21
 74
10
 0
VERTEX
 5
19F
 8
0
 62
131
 10
0
 20
0.25
 30
0
 70
128
 71
4
 72
13
 73
14
 74
2
 0
VERTEX
 5
1A0
 8
0
 62
131
 10
0
 20
0.25
 30
0
 70
128
 71
27
 72
25
 73
4
 74
5
 0
VERTEX
 5
1A1
 8
0
 62
131
 10
0
 20
0.25
 30
0
 70
128
 71
3
 72
16
 73
15
 74
5
 0
VERTEX
 5
1A2
 8
0
 62
131
 10
0
 20
0.25
 30
0
 70
128
 71
22
 72
23
 73
17
 74
16
 0
VERTEX
 5
1A3
 8
0
 62
131
 10
0
 20
0.25
 30
0
 70
128
 71
8
 72
30
 73
18
 74
7
 0
VERTEX
 5
1A4
 8
0
 62
131
 10
0
 20
0.25
 30
0
 70
128
 71
30
 72
8
 73
9
 74
20
 0
VERTEX
 5
1A5
 8
0
 62
131
 10
0
 20
0.25
 30
0
 70
128
 71
20
 72
9
 73
19
 74
11
 0
VERTEX
 5
1A6
 8
0
 62
131
 10
0
 20
0.25
 30
0
 70
128
 71
36
 72
11
 73
10
 74
21
 0
VERTEX
 5
1A7
 8
0
 62
131
 10
0
 20
0.25
 30
0
 70
128
 71
18
 72
37
 73
23
 74
22
 0
VERTEX
 5
1A8
 8
0
 62
131
 10
0
 20
0.25
 30
0
 70
128
 71
12
 72
24
 73
40
 74
21
 0
VERTEX
 5
1A9
 8
0
 62
131
 10
0
 20
0.25
 30
0
 70
128
 71
12
 72
14
 73
13
 74
47
 0
VERTEX
 5
1AA
 8
0
 62
131
 10
0
 20
0.25
 30
0
 70
128
 71
25
 72
33
 73
13
 74
4
 0
VERTEX
 5
1AB
 8
0
 62
131
 10
0
 20
0.25
 30
0
 70
128
 71
27
 72
26
 73
33
 74
25
 0
VERTEX
 5
1AC
 8
0
 62
131
 10
0
 20
0.25
 30
0
 70
128
 71
26
 72
27
 73
5
 74
15
 0
VERTEX
 5
1AD
 8
0
 62
131
 10
0
 20
0.25
 30
0
 70
128
 71
16
 72
17
 73
28
 74
15
 0
VERTEX
 5
1AE
 8
0
 62
131
 10
0
 20
0.25
 30
0
 70
128
 71
23
 72
31
 73
29
 74
17
 0
VERTEX
 5
1AF
 8
0
 62
131
 10
0
 20
0.25
 30
0
 70
128
 71
30
 72
20
 73
11
 74
18
 0
VERTEX
 5
1B0
 8
0
 62
131
 10
0
 20
0.25
 30
0
 70
128
 71
11
 72
36
 73
37
 74
18
 0
VERTEX
 5
1B1
 8
0
 62
131
 10
0
 20
0.25
 30
0
 70
128
 71
52
 72
36
 73
21
 74
40
 0
VERTEX
 5
1B2
 8
0
 62
131
 10
0
 20
0.25
 30
0
 70
128
 71
37
 72
50
 73
31
 74
23
 0
VERTEX
 5
1B3
 8
0
 62
131
 10
0
 20
0.25
 30
0
 70
128
 71
24
 72
46
 73
41
 74
40
 0
VERTEX
 5
1B4
 8
0
 62
131
 10
0
 20
0.25
 30
0
 70
128
 71
47
 72
32
 73
24
 74
12
 0
VERTEX
 5
1B5
 8
0
 62
131
 10
0
 20
0.25
 30
0
 70
128
 71
47
 72
13
 73
15
 74
28
 0
VERTEX
 5
1B6
 8
0
 62
131
 10
0
 20
0.25
 30
0
 70
128
 71
33
 72
26
 73
15
 74
13
 0
VERTEX
 5
1B7
 8
0
 62
131
 10
0
 20
0.25
 30
0
 70
128
 71
34
 72
28
 73
17
 74
29
 0
VERTEX
 5
1B8
 8
0
 62
131
 10
0
 20
0.25
 30
0
 70
128
 71
31
 72
43
 73
35
 74
29
 0
VERTEX
 5
1B9
 8
0
 62
131
 10
0
 20
0.25
 30
0
 70
128
 71
49
 72
38
 73
37
 74
36
 0
VERTEX
 5
1BA
 8
0
 62
131
 10
0
 20
0.25
 30
0
 70
128
 71
39
 72
49
 73
36
 74
52
 0
VERTEX
 5
1BB
 8
0
 62
131
 10
0
 20
0.25
 30
0
 70
128
 71
40
 72
41
 73
51
 74
52
 0
VERTEX
 5
1BC
 8
0
 62
131
 10
0
 20
0.25
 30
0
 70
128
 71
50
 72
42
 73
43
 74
31
 0
VERTEX
 5
1BD
 8
0
 62
131
 10
0
 20
0.25
 30
0
 70
128
 71
38
 72
44
 73
50
 74
37
 0
VERTEX
 5
1BE
 8
0
 62
131
 10
0
 20
0.25
 30
0
 70
128
 71
55
 72
41
 73
46
 74
45
 0
VERTEX
 5
1BF
 8
0
 62
131
 10
0
 20
0.25
 30
0
 70
128
 71
32
 72
68
 73
46
 74
24
 0
VERTEX
 5
1C0
 8
0
 62
131
 10
0
 20
0.25
 30
0
 70
128
 71
48
 72
57
 73
32
 74
47
 0
VERTEX
 5
1C1
 8
0
 62
131
 10
0
 20
0.25
 30
0
 70
128
 71
58
 72
48
 73
47
 74
28
 0
VERTEX
 5
1C2
 8
0
 62
131
 10
0
 20
0.25
 30
0
 70
128
 71
59
 72
58
 73
28
 74
34
 0
VERTEX
 5
1C3
 8
0
 62
131
 10
0
 20
0.25
 30
0
 70
128
 71
69
 72
34
 73
29
 74
35
 0
VERTEX
 5
1C4
 8
0
 62
131
 10
0
 20
0.25
 30
0
 70
128
 71
56
 72
35
 73
43
 74
64
 0
VERTEX
 5
1C5
 8
0
 62
131
 10
0
 20
0.25
 30
0
 70
128
 71
49
 72
39
 73
44
 74
38
 0
VERTEX
 5
1C6
 8
0
 62
131
 10
0
 20
0.25
 30
0
 70
128
 71
44
 72
39
 73
52
 74
50
 0
VERTEX
 5
1C7
 8
0
 62
131
 10
0
 20
0.25
 30
0
 70
128
 71
52
 72
51
 73
42
 74
50
 0
VERTEX
 5
1C8
 8
0
 62
131
 10
0
 20
0.25
 30
0
 70
128
 71
53
 72
51
 73
41
 74
55
 0
VERTEX
 5
1C9
 8
0
 62
131
 10
0
 20
0.25
 30
0
 70
128
 71
64
 72
43
 73
42
 74
63
 0
VERTEX
 5
1CA
 8
0
 62
131
 10
0
 20
0.25
 30
0
 70
128
 71
45
 72
46
 73
68
 74
54
 0
VERTEX
 5
1CB
 8
0
 62
131
 10
0
 20
0.25
 30
0
 70
128
 71
45
 72
56
 73
64
 74
55
 0
VERTEX
 5
1CC
 8
0
 62
131
 10
0
 20
0.25
 30
0
 70
128
 71
68
 72
32
 73
34
 74
69
 0
VERTEX
 5
1CD
 8
0
 62
131
 10
0
 20
0.25
 30
0
 70
128
 71
57
 72
59
 73
34
 74
32
 0
VERTEX
 5
1CE
 8
0
 62
131
 10
0
 20
0.25
 30
0
 70
128
 71
70
 72
77
 73
57
 74
48
 0
VERTEX
 5
1CF
 8
0
 62
131
 10
0
 20
0.25
 30
0
 70
128
 71
48
 72
58
 73
71
 74
70
 0
VERTEX
 5
1D0
 8
0
 62
131
 10
0
 20
0.25
 30
0
 70
128
 71
58
 72
59
 73
60
 74
71
 0
VERTEX
 5
1D1
 8
0
 62
131
 10
0
 20
0.25
 30
0
 70
128
 71
61
 72
69
 73
35
 74
56
 0
VERTEX
 5
1D2
 8
0
 62
131
 10
0
 20
0.25
 30
0
 70
128
 71
62
 72
65
 73
42
 74
51
 0
VERTEX
 5
1D3
 8
0
 62
131
 10
0
 20
0.25
 30
0
 70
128
 71
74
 72
62
 73
51
 74
53
 0
VERTEX
 5
1D4
 8
0
 62
131
 10
0
 20
0.25
 30
0
 70
128
 71
63
 72
53
 73
55
 74
64
 0
VERTEX
 5
1D5
 8
0
 62
131
 10
0
 20
0.25
 30
0
 70
128
 71
65
 72
75
 73
63
 74
42
 0
VERTEX
 5
1D6
 8
0
 62
131
 10
0
 20
0.25
 30
0
 70
128
 71
67
 72
66
 73
54
 74
68
 0
VERTEX
 5
1D7
 8
0
 62
131
 10
0
 20
0.25
 30
0
 70
128
 71
56
 72
45
 73
54
 74
61
 0
VERTEX
 5
1D8
 8
0
 62
131
 10
0
 20
0.25
 30
0
 70
128
 71
76
 72
67
 73
68
 74
69
 0
VERTEX
 5
1D9
 8
0
 62
131
 10
0
 20
0.25
 30
0
 70
128
 71
77
 72
60
 73
59
 74
57
 0
VERTEX
 5
1DA
 8
0
 62
131
 10
0
 20
0.25
 30
0
 70
128
 71
79
 72
78
 73
77
 74
70
 0
VERTEX
 5
1DB
 8
0
 62
131
 10
0
 20
0.25
 30
0
 70
128
 71
72
 72
79
 73
70
 74
71
 0
VERTEX
 5
1DC
 8
0
 62
131
 10
0
 20
0.25
 30
0
 70
128
 71
82
 72
72
 73
71
 74
60
 0
VERTEX
 5
1DD
 8
0
 62
131
 10
0
 20
0.25
 30
0
 70
128
 71
73
 72
76
 73
69
 74
61
 0
VERTEX
 5
1DE
 8
0
 62
131
 10
0
 20
0.25
 30
0
 70
128
 71
62
 72
74
 73
75
 74
65
 0
VERTEX
 5
1DF
 8
0
 62
131
 10
0
 20
0.25
 30
0
 70
128
 71
75
 72
74
 73
53
 74
63
 0
VERTEX
 5
1E0
 8
0
 62
131
 10
0
 20
0.25
 30
0
 70
128
 71
66
 72
73
 73
61
 74
54
 0
VERTEX
 5
1E1
 8
0
 62
131
 10
0
 20
0.25
 30
0
 70
128
 71
66
 72
67
 73
76
 74
73
 0
VERTEX
 5
1E2
 8
0
 62
131
 10
0
 20
0.25
 30
0
 70
128
 71
78
 72
82
 73
60
 74
77
 0
VERTEX
 5
1E3
 8
0
 62
131
 10
0
 20
0.25
 30
0
 70
128
 71
81
 72
78
 73
79
 0
VERTEX
 5
1E4
 8
0
 62
131
 10
0
 20
0.25
 30
0
 70
128
 71
80
 72
81
 73
79
 74
72
 0
VERTEX
 5
1E5
 8
0
 62
131
 10
0
 20
0.25
 30
0
 70
128
 71
80
 72
72
 73
82
 0
VERTEX
 5
1E6
 8
0
 62
131
 10
0
 20
0.25
 30
0
 70
128
 71
82
 72
78
 73
81
 74
80
 0
VERTEX
 5
1E7
 8
0
 62
131
 10
0
 20
0.25
 30
0
 70
128
 71
83
 72
88
 73
87
 74
91
 0
VERTEX
 5
1E8
 8
0
 62
131
 10
0
 20
0.25
 30
0
 70
128
 71
84
 72
85
 73
88
 74
83
 0
VERTEX
 5
1E9
 8
0
 62
131
 10
0
 20
0.25
 30
0
 70
128
 71
88
 72
92
 73
86
 74
87
 0
VERTEX
 5
1EA
 8
0
 62
131
 10
0
 20
0.25
 30
0
 70
128
 71
89
 72
106
 73
91
 74
87
 0
VERTEX
 5
1EB
 8
0
 62
131
 10
0
 20
0.25
 30
0
 70
128
 71
91
 72
97
 73
90
 74
83
 0
VERTEX
 5
1EC
 8
0
 62
131
 10
0
 20
0.25
 30
0
 70
128
 71
85
 72
84
 73
100
 74
101
 0
VERTEX
 5
1ED
 8
0
 62
131
 10
0
 20
0.25
 30
0
 70
128
 71
85
 72
102
 73
92
 74
88
 0
VERTEX
 5
1EE
 8
0
 62
131
 10
0
 20
0.25
 30
0
 70
128
 71
83
 72
90
 73
98
 74
84
 0
VERTEX
 5
1EF
 8
0
 62
131
 10
0
 20
0.25
 30
0
 70
128
 71
92
 72
94
 73
93
 74
86
 0
VERTEX
 5
1F0
 8
0
 62
131
 10
0
 20
0.25
 30
0
 70
128
 71
87
 72
86
 73
105
 74
89
 0
VERTEX
 5
1F1
 8
0
 62
131
 10
0
 20
0.25
 30
0
 70
128
 71
106
 72
89
 73
96
 74
95
 0
VERTEX
 5
1F2
 8
0
 62
131
 10
0
 20
0.25
 30
0
 70
128
 71
106
 72
114
 73
97
 74
91
 0
VERTEX
 5
1F3
 8
0
 62
131
 10
0
 20
0.25
 30
0
 70
128
 71
97
 72
107
 73
111
 74
90
 0
VERTEX
 5
1F4
 8
0
 62
131
 10
0
 20
0.25
 30
0
 70
128
 71
84
 72
98
 73
99
 74
100
 0
VERTEX
 5
1F5
 8
0
 62
131
 10
0
 20
0.25
 30
0
 70
128
 71
109
 72
101
 73
100
 74
99
 0
VERTEX
 5
1F6
 8
0
 62
131
 10
0
 20
0.25
 30
0
 70
128
 71
102
 72
85
 73
101
 74
109
 0
VERTEX
 5
1F7
 8
0
 62
131
 10
0
 20
0.25
 30
0
 70
128
 71
94
 72
92
 73
102
 74
119
 0
VERTEX
 5
1F8
 8
0
 62
131
 10
0
 20
0.25
 30
0
 70
128
 71
90
 72
111
 73
117
 74
98
 0
VERTEX
 5
1F9
 8
0
 62
131
 10
0
 20
0.25
 30
0
 70
128
 71
94
 72
110
 73
103
 74
93
 0
VERTEX
 5
1FA
 8
0
 62
131
 10
0
 20
0.25
 30
0
 70
128
 71
104
 72
105
 73
86
 74
93
 0
VERTEX
 5
1FB
 8
0
 62
131
 10
0
 20
0.25
 30
0
 70
128
 71
89
 72
105
 73
112
 74
96
 0
VERTEX
 5
1FC
 8
0
 62
131
 10
0
 20
0.25
 30
0
 70
128
 71
96
 72
112
 73
113
 74
95
 0
VERTEX
 5
1FD
 8
0
 62
131
 10
0
 20
0.25
 30
0
 70
128
 71
114
 72
106
 73
95
 74
113
 0
VERTEX
 5
1FE
 8
0
 62
131
 10
0
 20
0.25
 30
0
 70
128
 71
114
 72
128
 73
107
 74
97
 0
VERTEX
 5
1FF
 8
0
 62
131
 10
0
 20
0.25
 30
0
 70
128
 71
107
 72
108
 73
122
 74
111
 0
VERTEX
 5
200
 8
0
 62
131
 10
0
 20
0.25
 30
0
 70
128
 71
98
 72
102
 73
109
 74
99
 0
VERTEX
 5
201
 8
0
 62
131
 10
0
 20
0.25
 30
0
 70
128
 71
98
 72
117
 73
119
 74
102
 0
VERTEX
 5
202
 8
0
 62
131
 10
0
 20
0.25
 30
0
 70
128
 71
110
 72
94
 73
119
 74
135
 0
VERTEX
 5
203
 8
0
 62
131
 10
0
 20
0.25
 30
0
 70
128
 71
111
 72
122
 73
123
 74
117
 0
VERTEX
 5
204
 8
0
 62
131
 10
0
 20
0.25
 30
0
 70
128
 71
110
 72
120
 73
126
 74
103
 0
VERTEX
 5
205
 8
0
 62
131
 10
0
 20
0.25
 30
0
 70
128
 71
93
 72
103
 73
138
 74
104
 0
VERTEX
 5
206
 8
0
 62
131
 10
0
 20
0.25
 30
0
 70
128
 71
128
 72
114
 73
105
 74
104
 0
VERTEX
 5
207
 8
0
 62
131
 10
0
 20
0.25
 30
0
 70
128
 71
105
 72
114
 73
113
 74
112
 0
VERTEX
 5
208
 8
0
 62
131
 10
0
 20
0.25
 30
0
 70
128
 71
108
 72
107
 73
128
 74
129
 0
VERTEX
 5
209
 8
0
 62
131
 10
0
 20
0.25
 30
0
 70
128
 71
108
 72
115
 73
116
 74
122
 0
VERTEX
 5
20A
 8
0
 62
131
 10
0
 20
0.25
 30
0
 70
128
 71
119
 72
117
 73
124
 74
118
 0
VERTEX
 5
20B
 8
0
 62
131
 10
0
 20
0.25
 30
0
 70
128
 71
135
 72
119
 73
118
 74
133
 0
VERTEX
 5
20C
 8
0
 62
131
 10
0
 20
0.25
 30
0
 70
128
 71
135
 72
121
 73
120
 74
110
 0
VERTEX
 5
20D
 8
0
 62
131
 10
0
 20
0.25
 30
0
 70
128
 71
122
 72
116
 73
137
 74
123
 0
VERTEX
 5
20E
 8
0
 62
131
 10
0
 20
0.25
 30
0
 70
128
 71
117
 72
123
 73
134
 74
124
 0
VERTEX
 5
20F
 8
0
 62
131
 10
0
 20
0.25
 30
0
 70
128
 71
125
 72
126
 73
120
 74
136
 0
VERTEX
 5
210
 8
0
 62
131
 10
0
 20
0.25
 30
0
 70
128
 71
103
 72
126
 73
148
 74
138
 0
VERTEX
 5
211
 8
0
 62
131
 10
0
 20
0.25
 30
0
 70
128
 71
104
 72
138
 73
139
 74
127
 0
VERTEX
 5
212
 8
0
 62
131
 10
0
 20
0.25
 30
0
 70
128
 71
128
 72
104
 73
127
 74
130
 0
VERTEX
 5
213
 8
0
 62
131
 10
0
 20
0.25
 30
0
 70
128
 71
129
 72
128
 73
130
 74
142
 0
VERTEX
 5
214
 8
0
 62
131
 10
0
 20
0.25
 30
0
 70
128
 71
115
 72
108
 73
129
 74
153
 0
VERTEX
 5
215
 8
0
 62
131
 10
0
 20
0.25
 30
0
 70
128
 71
132
 72
116
 73
115
 74
131
 0
VERTEX
 5
216
 8
0
 62
131
 10
0
 20
0.25
 30
0
 70
128
 71
124
 72
134
 73
133
 74
118
 0
VERTEX
 5
217
 8
0
 62
131
 10
0
 20
0.25
 30
0
 70
128
 71
123
 72
135
 73
133
 74
134
 0
VERTEX
 5
218
 8
0
 62
131
 10
0
 20
0.25
 30
0
 70
128
 71
123
 72
137
 73
121
 74
135
 0
VERTEX
 5
219
 8
0
 62
131
 10
0
 20
0.25
 30
0
 70
128
 71
136
 72
120
 73
121
 74
155
 0
VERTEX
 5
21A
 8
0
 62
131
 10
0
 20
0.25
 30
0
 70
128
 71
144
 72
137
 73
116
 74
132
 0
VERTEX
 5
21B
 8
0
 62
131
 10
0
 20
0.25
 30
0
 70
128
 71
147
 72
148
 73
126
 74
125
 0
VERTEX
 5
21C
 8
0
 62
131
 10
0
 20
0.25
 30
0
 70
128
 71
136
 72
132
 73
131
 74
125
 0
VERTEX
 5
21D
 8
0
 62
131
 10
0
 20
0.25
 30
0
 70
128
 71
153
 72
129
 73
138
 74
148
 0
VERTEX
 5
21E
 8
0
 62
131
 10
0
 20
0.25
 30
0
 70
128
 71
138
 72
129
 73
142
 74
139
 0
VERTEX
 5
21F
 8
0
 62
131
 10
0
 20
0.25
 30
0
 70
128
 71
127
 72
139
 73
149
 74
150
 0
VERTEX
 5
220
 8
0
 62
131
 10
0
 20
0.25
 30
0
 70
128
 71
150
 72
140
 73
130
 74
127
 0
VERTEX
 5
221
 8
0
 62
131
 10
0
 20
0.25
 30
0
 70
128
 71
140
 72
141
 73
142
 74
130
 0
VERTEX
 5
222
 8
0
 62
131
 10
0
 20
0.25
 30
0
 70
128
 71
131
 72
115
 73
153
 74
143
 0
VERTEX
 5
223
 8
0
 62
131
 10
0
 20
0.25
 30
0
 70
128
 71
121
 72
137
 73
146
 74
154
 0
VERTEX
 5
224
 8
0
 62
131
 10
0
 20
0.25
 30
0
 70
128
 71
155
 72
121
 73
154
 74
156
 0
VERTEX
 5
225
 8
0
 62
131
 10
0
 20
0.25
 30
0
 70
128
 71
132
 72
136
 73
155
 74
144
 0
VERTEX
 5
226
 8
0
 62
131
 10
0
 20
0.25
 30
0
 70
128
 71
137
 72
144
 73
145
 74
146
 0
VERTEX
 5
227
 8
0
 62
131
 10
0
 20
0.25
 30
0
 70
128
 71
148
 72
147
 73
157
 74
158
 0
VERTEX
 5
228
 8
0
 62
131
 10
0
 20
0.25
 30
0
 70
128
 71
143
 72
147
 73
125
 74
131
 0
VERTEX
 5
229
 8
0
 62
131
 10
0
 20
0.25
 30
0
 70
128
 71
153
 72
148
 73
158
 74
151
 0
VERTEX
 5
22A
 8
0
 62
131
 10
0
 20
0.25
 30
0
 70
128
 71
139
 72
142
 73
141
 74
149
 0
VERTEX
 5
22B
 8
0
 62
131
 10
0
 20
0.25
 30
0
 70
128
 71
150
 72
149
 73
159
 74
161
 0
VERTEX
 5
22C
 8
0
 62
131
 10
0
 20
0.25
 30
0
 70
128
 71
140
 72
150
 73
161
 74
162
 0
VERTEX
 5
22D
 8
0
 62
131
 10
0
 20
0.25
 30
0
 70
128
 71
141
 72
140
 73
162
 74
163
 0
VERTEX
 5
22E
 8
0
 62
131
 10
0
 20
0.25
 30
0
 70
128
 71
143
 72
153
 73
151
 74
152
 0
VERTEX
 5
22F
 8
0
 62
131
 10
0
 20
0.25
 30
0
 70
128
 71
146
 72
145
 73
156
 74
154
 0
VERTEX
 5
230
 8
0
 62
131
 10
0
 20
0.25
 30
0
 70
128
 71
144
 72
155
 73
156
 74
145
 0
VERTEX
 5
231
 8
0
 62
131
 10
0
 20
0.25
 30
0
 70
128
 71
147
 72
143
 73
152
 74
157
 0
VERTEX
 5
232
 8
0
 62
131
 10
0
 20
0.25
 30
0
 70
128
 71
152
 72
151
 73
158
 74
157
 0
VERTEX
 5
233
 8
0
 62
131
 10
0
 20
0.25
 30
0
 70
128
 71
149
 72
141
 73
163
 74
159
 0
VERTEX
 5
234
 8
0
 62
131
 10
0
 20
0.25
 30
0
 70
128
 71
161
 72
159
 73
164
 0
VERTEX
 5
235
 8
0
 62
131
 10
0
 20
0.25
 30
0
 70
128
 71
162
 72
161
 73
164
 74
160
 0
VERTEX
 5
236
 8
0
 62
131
 10
0
 20
0.25
 30
0
 70
128
 71
163
 72
162
 73
160
 0
VERTEX
 5
237
 8
0
 62
131
 10
0
 20
0.25
 30
0
 70
128
 71
160
 72
164
 73
159
 74
163
 0
VERTEX
 5
238
 8
0
 62
131
 10
0
 20
0.25
 30
0
 70
128
 71
165
 72
168
 73
166
 74
170
 0
VERTEX
 5
239
 8
0
 62
131
 10
0
 20
0.25
 30
0
 70
128
 71
172
 72
167
 73
168
 74
165
 0
VERTEX
 5
23A
 8
0
 62
131
 10
0
 20
0.25
 30
0
 70
128
 71
170
 72
166
 73
169
 74
171
 0
VERTEX
 5
23B
 8
0
 62
131
 10
0
 20
0.25
 30
0
 70
128
 71
170
 72
171
 73
172
 74
165
 0
VERTEX
 5
23C
 8
0
 62
131
 10
0
 20
0.25
 30
0
 70
128
 71
173
 72
174
 73
167
 74
172
 0
VERTEX
 5
23D
 8
0
 62
131
 10
0
 20
0.25
 30
0
 70
128
 71
167
 72
178
 73
175
 74
168
 0
VERTEX
 5
23E
 8
0
 62
131
 10
0
 20
0.25
 30
0
 70
128
 71
171
 72
169
 73
177
 74
176
 0
VERTEX
 5
23F
 8
0
 62
131
 10
0
 20
0.25
 30
0
 70
128
 71
173
 72
172
 73
171
 74
176
 0
VERTEX
 5
240
 8
0
 62
131
 10
0
 20
0.25
 30
0
 70
128
 71
176
 72
177
 73
174
 74
173
 0
VERTEX
 5
241
 8
0
 62
131
 10
0
 20
0.25
 30
0
 70
128
 71
174
 72
181
 73
178
 74
167
 0
VERTEX
 5
242
 8
0
 62
131
 10
0
 20
0.25
 30
0
 70
128
 71
183
 72
175
 73
178
 74
179
 0
VERTEX
 5
243
 8
0
 62
131
 10
0
 20
0.25
 30
0
 70
128
 71
168
 72
175
 73
180
 74
166
 0
VERTEX
 5
244
 8
0
 62
131
 10
0
 20
0.25
 30
0
 70
128
 71
181
 72
174
 73
177
 74
184
 0
VERTEX
 5
245
 8
0
 62
131
 10
0
 20
0.25
 30
0
 70
128
 71
179
 72
178
 73
181
 74
182
 0
VERTEX
 5
246
 8
0
 62
131
 10
0
 20
0.25
 30
0
 70
128
 71
186
 72
180
 73
175
 74
183
 0
VERTEX
 5
247
 8
0
 62
131
 10
0
 20
0.25
 30
0
 70
128
 71
183
 72
179
 73
278
 74
186
 0
VERTEX
 5
248
 8
0
 62
131
 10
0
 20
0.25
 30
0
 70
128
 71
169
 72
166
 73
180
 74
185
 0
VERTEX
 5
249
 8
0
 62
131
 10
0
 20
0.25
 30
0
 70
128
 71
182
 72
181
 73
184
 74
187
 0
VERTEX
 5
24A
 8
0
 62
131
 10
0
 20
0.25
 30
0
 70
128
 71
187
 72
278
 73
179
 74
182
 0
VERTEX
 5
24B
 8
0
 62
131
 10
0
 20
0.25
 30
0
 70
128
 71
278
 72
185
 73
180
 74
186
 0
VERTEX
 5
24C
 8
0
 62
131
 10
0
 20
0.25
 30
0
 70
128
 71
184
 72
177
 73
169
 74
185
 0
VERTEX
 5
24D
 8
0
 62
131
 10
0
 20
0.25
 30
0
 70
128
 71
187
 72
184
 73
185
 74
278
 0
VERTEX
 5
24E
 8
0
 62
131
 10
0
 20
0.25
 30
0
 70
128
 71
188
 72
198
 73
189
 74
193
 0
VERTEX
 5
24F
 8
0
 62
131
 10
0
 20
0.25
 30
0
 70
128
 71
198
 72
188
 73
194
 74
197
 0
VERTEX
 5
250
 8
0
 62
131
 10
0
 20
0.25
 30
0
 70
128
 71
198
 72
208
 73
209
 74
189
 0
VERTEX
 5
251
 8
0
 62
131
 10
0
 20
0.25
 30
0
 70
128
 71
193
 72
189
 73
202
 74
205
 0
VERTEX
 5
252
 8
0
 62
131
 10
0
 20
0.25
 30
0
 70
128
 71
193
 72
191
 73
192
 74
188
 0
VERTEX
 5
253
 8
0
 62
131
 10
0
 20
0.25
 30
0
 70
128
 71
188
 72
192
 73
195
 74
194
 0
VERTEX
 5
254
 8
0
 62
131
 10
0
 20
0.25
 30
0
 70
128
 71
197
 72
194
 73
195
 74
196
 0
VERTEX
 5
255
 8
0
 62
131
 10
0
 20
0.25
 30
0
 70
128
 71
208
 72
198
 73
197
 74
196
 0
VERTEX
 5
256
 8
0
 62
131
 10
0
 20
0.25
 30
0
 70
128
 71
215
 72
209
 73
208
 74
199
 0
VERTEX
 5
257
 8
0
 62
131
 10
0
 20
0.25
 30
0
 70
128
 71
189
 72
209
 73
200
 74
190
 0
VERTEX
 5
258
 8
0
 62
131
 10
0
 20
0.25
 30
0
 70
128
 71
189
 72
190
 73
210
 74
202
 0
VERTEX
 5
259
 8
0
 62
131
 10
0
 20
0.25
 30
0
 70
128
 71
203
 72
201
 73
205
 74
202
 0
VERTEX
 5
25A
 8
0
 62
131
 10
0
 20
0.25
 30
0
 70
128
 71
206
 72
193
 73
205
 74
204
 0
VERTEX
 5
25B
 8
0
 62
131
 10
0
 20
0.25
 30
0
 70
128
 71
191
 72
193
 73
206
 74
221
 0
VERTEX
 5
25C
 8
0
 62
131
 10
0
 20
0.25
 30
0
 70
128
 71
212
 72
211
 73
190
 74
206
 0
VERTEX
 5
25D
 8
0
 62
131
 10
0
 20
0.25
 30
0
 70
128
 71
190
 72
200
 73
221
 74
206
 0
VERTEX
 5
25E
 8
0
 62
131
 10
0
 20
0.25
 30
0
 70
128
 71
207
 72
192
 73
191
 74
224
 0
VERTEX
 5
25F
 8
0
 62
131
 10
0
 20
0.25
 30
0
 70
128
 71
192
 72
208
 73
196
 74
195
 0
VERTEX
 5
260
 8
0
 62
131
 10
0
 20
0.25
 30
0
 70
128
 71
216
 72
200
 73
209
 74
215
 0
VERTEX
 5
261
 8
0
 62
131
 10
0
 20
0.25
 30
0
 70
128
 71
208
 72
192
 73
207
 74
199
 0
VERTEX
 5
262
 8
0
 62
131
 10
0
 20
0.25
 30
0
 70
128
 71
230
 72
215
 73
199
 74
232
 0
VERTEX
 5
263
 8
0
 62
131
 10
0
 20
0.25
 30
0
 70
128
 71
210
 72
190
 73
211
 0
VERTEX
 5
264
 8
0
 62
131
 10
0
 20
0.25
 30
0
 70
128
 71
203
 72
202
 73
210
 74
211
 0
VERTEX
 5
265
 8
0
 62
131
 10
0
 20
0.25
 30
0
 70
128
 71
211
 72
212
 73
201
 74
203
 0
VERTEX
 5
266
 8
0
 62
131
 10
0
 20
0.25
 30
0
 70
128
 71
204
 72
205
 73
201
 74
212
 0
VERTEX
 5
267
 8
0
 62
131
 10
0
 20
0.25
 30
0
 70
128
 71
204
 72
212
 73
206
 0
VERTEX
 5
268
 8
0
 62
131
 10
0
 20
0.25
 30
0
 70
128
 71
191
 72
221
 73
244
 74
236
 0
VERTEX
 5
269
 8
0
 62
131
 10
0
 20
0.25
 30
0
 70
128
 71
216
 72
213
 73
221
 74
200
 0
VERTEX
 5
26A
 8
0
 62
131
 10
0
 20
0.25
 30
0
 70
128
 71
191
 72
236
 73
214
 74
224
 0
VERTEX
 5
26B
 8
0
 62
131
 10
0
 20
0.25
 30
0
 70
128
 71
224
 72
226
 73
229
 74
207
 0
VERTEX
 5
26C
 8
0
 62
131
 10
0
 20
0.25
 30
0
 70
128
 71
217
 72
216
 73
215
 74
230
 0
VERTEX
 5
26D
 8
0
 62
131
 10
0
 20
0.25
 30
0
 70
128
 71
199
 72
207
 73
228
 74
218
 0
VERTEX
 5
26E
 8
0
 62
131
 10
0
 20
0.25
 30
0
 70
128
 71
232
 72
199
 73
218
 74
219
 0
VERTEX
 5
26F
 8
0
 62
131
 10
0
 20
0.25
 30
0
 70
128
 71
232
 72
229
 73
238
 74
230
 0
VERTEX
 5
270
 8
0
 62
131
 10
0
 20
0.25
 30
0
 70
128
 71
244
 72
221
 73
220
 74
233
 0
VERTEX
 5
271
 8
0
 62
131
 10
0
 20
0.25
 30
0
 70
128
 71
244
 72
248
 73
237
 74
236
 0
VERTEX
 5
272
 8
0
 62
131
 10
0
 20
0.25
 30
0
 70
128
 71
217
 72
222
 73
213
 74
216
 0
VERTEX
 5
273
 8
0
 62
131
 10
0
 20
0.25
 30
0
 70
128
 71
222
 72
220
 73
221
 74
213
 0
VERTEX
 5
274
 8
0
 62
131
 10
0
 20
0.25
 30
0
 70
128
 71
236
 72
254
 73
258
 74
214
 0
VERTEX
 5
275
 8
0
 62
131
 10
0
 20
0.25
 30
0
 70
128
 71
224
 72
214
 73
223
 74
225
 0
VERTEX
 5
276
 8
0
 62
131
 10
0
 20
0.25
 30
0
 70
128
 71
226
 72
224
 73
225
 74
240
 0
VERTEX
 5
277
 8
0
 62
131
 10
0
 20
0.25
 30
0
 70
128
 71
229
 72
226
 73
227
 74
238
 0
VERTEX
 5
278
 8
0
 62
131
 10
0
 20
0.25
 30
0
 70
128
 71
207
 72
229
 73
231
 74
228
 0
VERTEX
 5
279
 8
0
 62
131
 10
0
 20
0.25
 30
0
 70
128
 71
230
 72
238
 73
222
 74
217
 0
VERTEX
 5
27A
 8
0
 62
131
 10
0
 20
0.25
 30
0
 70
128
 71
218
 72
228
 73
231
 74
219
 0
VERTEX
 5
27B
 8
0
 62
131
 10
0
 20
0.25
 30
0
 70
128
 71
229
 72
232
 73
219
 74
231
 0
VERTEX
 5
27C
 8
0
 62
131
 10
0
 20
0.25
 30
0
 70
128
 71
227
 72
234
 73
233
 74
220
 0
VERTEX
 5
27D
 8
0
 62
131
 10
0
 20
0.25
 30
0
 70
128
 71
243
 72
244
 73
233
 74
260
 0
VERTEX
 5
27E
 8
0
 62
131
 10
0
 20
0.25
 30
0
 70
128
 71
248
 72
244
 73
246
 74
245
 0
VERTEX
 5
27F
 8
0
 62
131
 10
0
 20
0.25
 30
0
 70
128
 71
237
 72
248
 73
249
 74
268
 0
VERTEX
 5
280
 8
0
 62
131
 10
0
 20
0.25
 30
0
 70
128
 71
235
 72
254
 73
236
 74
237
 0
VERTEX
 5
281
 8
0
 62
131
 10
0
 20
0.25
 30
0
 70
128
 71
238
 72
227
 73
220
 74
222
 0
VERTEX
 5
282
 8
0
 62
131
 10
0
 20
0.25
 30
0
 70
128
 71
254
 72
264
 73
275
 74
258
 0
VERTEX
 5
283
 8
0
 62
131
 10
0
 20
0.25
 30
0
 70
128
 71
241
 72
214
 73
258
 74
259
 0
VERTEX
 5
284
 8
0
 62
131
 10
0
 20
0.25
 30
0
 70
128
 71
214
 72
241
 73
239
 74
223
 0
VERTEX
 5
285
 8
0
 62
131
 10
0
 20
0.25
 30
0
 70
128
 71
239
 72
240
 73
225
 74
223
 0
VERTEX
 5
286
 8
0
 62
131
 10
0
 20
0.25
 30
0
 70
128
 71
241
 72
226
 73
240
 74
239
 0
VERTEX
 5
287
 8
0
 62
131
 10
0
 20
0.25
 30
0
 70
128
 71
226
 72
241
 73
234
 74
227
 0
VERTEX
 5
288
 8
0
 62
131
 10
0
 20
0.25
 30
0
 70
128
 71
260
 72
233
 73
234
 74
261
 0
VERTEX
 5
289
 8
0
 62
131
 10
0
 20
0.25
 30
0
 70
128
 71
246
 72
244
 73
243
 74
242
 0
VERTEX
 5
28A
 8
0
 62
131
 10
0
 20
0.25
 30
0
 70
128
 71
262
 72
242
 73
243
 74
260
 0
VERTEX
 5
28B
 8
0
 62
131
 10
0
 20
0.25
 30
0
 70
128
 71
245
 72
246
 73
263
 74
251
 0
VERTEX
 5
28C
 8
0
 62
131
 10
0
 20
0.25
 30
0
 70
128
 71
265
 72
247
 73
248
 74
245
 0
VERTEX
 5
28D
 8
0
 62
131
 10
0
 20
0.25
 30
0
 70
128
 71
249
 72
248
 73
247
 0
VERTEX
 5
28E
 8
0
 62
131
 10
0
 20
0.25
 30
0
 70
128
 71
250
 72
268
 73
249
 74
247
 0
VERTEX
 5
28F
 8
0
 62
131
 10
0
 20
0.25
 30
0
 70
128
 71
251
 72
237
 73
268
 74
252
 0
VERTEX
 5
290
 8
0
 62
131
 10
0
 20
0.25
 30
0
 70
128
 71
254
 72
235
 73
253
 74
270
 0
VERTEX
 5
291
 8
0
 62
131
 10
0
 20
0.25
 30
0
 70
128
 71
272
 72
235
 73
237
 74
251
 0
VERTEX
 5
292
 8
0
 62
131
 10
0
 20
0.25
 30
0
 70
128
 71
264
 72
254
 73
270
 74
271
 0
VERTEX
 5
293
 8
0
 62
131
 10
0
 20
0.25
 30
0
 70
128
 71
275
 72
264
 73
263
 74
255
 0
VERTEX
 5
294
 8
0
 62
131
 10
0
 20
0.25
 30
0
 70
128
 71
258
 72
275
 73
277
 74
256
 0
VERTEX
 5
295
 8
0
 62
131
 10
0
 20
0.25
 30
0
 70
128
 71
259
 72
258
 73
256
 74
257
 0
VERTEX
 5
296
 8
0
 62
131
 10
0
 20
0.25
 30
0
 70
128
 71
241
 72
259
 73
261
 74
234
 0
VERTEX
 5
297
 8
0
 62
131
 10
0
 20
0.25
 30
0
 70
128
 71
262
 72
260
 73
261
 74
274
 0
VERTEX
 5
298
 8
0
 62
131
 10
0
 20
0.25
 30
0
 70
128
 71
255
 72
263
 73
246
 74
242
 0
VERTEX
 5
299
 8
0
 62
131
 10
0
 20
0.25
 30
0
 70
128
 71
274
 72
255
 73
242
 74
262
 0
VERTEX
 5
29A
 8
0
 62
131
 10
0
 20
0.25
 30
0
 70
128
 71
251
 72
263
 73
264
 74
272
 0
VERTEX
 5
29B
 8
0
 62
131
 10
0
 20
0.25
 30
0
 70
128
 71
245
 72
251
 73
252
 74
266
 0
VERTEX
 5
29C
 8
0
 62
131
 10
0
 20
0.25
 30
0
 70
128
 71
247
 72
265
 73
267
 74
250
 0
VERTEX
 5
29D
 8
0
 62
131
 10
0
 20
0.25
 30
0
 70
128
 71
266
 72
265
 73
245
 0
VERTEX
 5
29E
 8
0
 62
131
 10
0
 20
0.25
 30
0
 70
128
 71
250
 72
267
 73
252
 74
268
 0
VERTEX
 5
29F
 8
0
 62
131
 10
0
 20
0.25
 30
0
 70
128
 71
235
 72
272
 73
269
 74
253
 0
VERTEX
 5
2A0
 8
0
 62
131
 10
0
 20
0.25
 30
0
 70
128
 71
271
 72
270
 73
253
 74
269
 0
VERTEX
 5
2A1
 8
0
 62
131
 10
0
 20
0.25
 30
0
 70
128
 71
272
 72
264
 73
271
 74
269
 0
VERTEX
 5
2A2
 8
0
 62
131
 10
0
 20
0.25
 30
0
 70
128
 71
273
 72
275
 73
255
 74
274
 0
VERTEX
 5
2A3
 8
0
 62
131
 10
0
 20
0.25
 30
0
 70
128
 71
275
 72
273
 73
276
 74
277
 0
VERTEX
 5
2A4
 8
0
 62
131
 10
0
 20
0.25
 30
0
 70
128
 71
256
 72
277
 73
276
 74
257
 0
VERTEX
 5
2A5
 8
0
 62
131
 10
0
 20
0.25
 30
0
 70
128
 71
273
 72
259
 73
257
 74
276
 0
VERTEX
 5
2A6
 8
0
 62
131
 10
0
 20
0.25
 30
0
 70
128
 71
274
 72
261
 73
259
 74
273
 0
VERTEX
 5
2A7
 8
0
 62
131
 10
0
 20
0.25
 30
0
 70
128
 71
265
 72
266
 73
252
 74
267
 0
SEQEND
 5
2A8
 8
0
 62
131
 0
ENDSEC
 0
EOF
