 0
SECTION
 2
HEADER
 9
$ACADVER
 1
AC1009
 9
$INSBASE
 10
0.0
 20
0.0
 30
0.0
 9
$EXTMIN
 10
0.0
 20
0.0
 30
0.0
 9
$EXTMAX
 10
0.0
 20
0.0
 30
0.0
 0
ENDSEC
 0
SECTION
 2
TABLES
 0
TABLE
 2
VPORT
 70
1
 0
VPORT
 2
*ACTIVE
 70
0
 10
0.0
 20
0.0
 11
1.0
 21
1.0
 12
-5.0
 22
1.0
 13
0.0
 23
0.0
 14
0.1
 24
0.1
 15
0.1
 25
0.1
 16
0.0
 26
0.0
 36
1.0
 17
0.0
 27
0.0
 37
0.0
 40
10.0
 41
1.0
 42
50.0
 43
0.0
 44
0.0
 50
0.0
 51
0.0
 71
0
 72
100
 73
1
 74
1
 75
0
 76
0
 77
0
 78
0
 0
ENDTAB
 0
TABLE
 2
LTYPE
 70
8
 0
LTYPE
 2
CONTINUOUS
 70
0
 3
Solid line
 72
65
 73
0
 40
0.0
 0
LTYPE
 2
DOT
 70
0
 3
. . . . . . .
 72
65
 73
2
 40
0.25
 49
0.0
 49
-0.25
 0
LTYPE
 2
DASHED
 70
0
 3
__ __ __ __ __
 72
65
 73
2
 40
0.8
 49
0.5
 49
-0.3
 0
LTYPE
 2
DASHDOT
 70
0
 3
__ . __ . __ .
 72
65
 73
4
 40
1.0
 49
0.5
 49
-0.25
 49
0.0
 49
-0.25
 0
LTYPE
 2
DIVIDE
 70
0
 3
____ . . ____ . . 
 72
65
 73
6
 40
1.25
 49
0.5
 49
-0.25
 49
0.0
 49
-0.25
 49
0.0
 49
-0.25
 0
LTYPE
 2
BORDER
 70
0
 3
__ __ . __ __ . 
 72
65
 73
6
 40
1.75
 49
0.5
 49
-0.25
 49
0.5
 49
-0.25
 49
0.0
 49
-0.25
 0
LTYPE
 2
HIDDEN
 70
0
 3
__ __ __ __ __
 72
65
 73
2
 40
0.4
 49
0.25
 49
-0.25
 0
LTYPE
 2
CENTER
 70
0
 3
____ _ ____ _ __
 72
65
 73
4
 40
2.0
 49
1.25
 49
-0.25
 49
0.25
 49
-0.25
 0
ENDTAB
 0
TABLE
 2
LAYER
 70
1
 0
LAYER
 2
PYDXF
 70
64
 62
7
 6
continuous
 0
ENDTAB
 0
TABLE
 2
STYLE
 70
1
 0
STYLE
 2
STANDARD
 70
0
 40
0
 41
1.0
 50
0.0
 71
0
 42
1
 3
ARIAL.TTF
 4

 0
ENDTAB
 0
TABLE
 2
VIEW
 70
1
 0
VIEW
 2
BF_TOPVIEW
 70
0
 40
120.0
 10
0.0
 20
0.0
 41
200.0
 11
0.0
 21
0.0
 31
1.0
 12
0.0
 22
0.0
 32
0.0
 42
50.0
 43
0.0
 44
0.0
 50
0.0
 71
0
 0
ENDTAB
 0
ENDSEC
 0
SECTION
 2
BLOCKS
 0
ENDSEC
 0
SECTION
 2
ENTITIES
 0
POLYLINE
 8
0
 70
64
 66
1
 10
0.0
 20
0.0
 30
0.0
 71
20
 72
18
 0
VERTEX
 8
0
 10
0.2286
 20
-0.2286
 30
3.124201774597168
 70
192
 0
VERTEX
 8
0
 10
0.2286
 20
0.2286
 30
3.1682519912719727
 70
192
 0
VERTEX
 8
0
 10
0.2286
 20
-0.2286
 30
3.1682519912719727
 70
192
 0
VERTEX
 8
0
 10
0.2349499762058258
 20
-0.23495
 30
3.1809520721435547
 70
192
 0
VERTEX
 8
0
 10
-0.2286
 20
0.2286
 30
3.124201774597168
 70
192
 0
VERTEX
 8
0
 10
-0.2286
 20
-0.2286
 30
3.124201774597168
 70
192
 0
VERTEX
 8
0
 10
-0.2286
 20
-0.2286
 30
3.1682519912719727
 70
192
 0
VERTEX
 8
0
 10
0.2286
 20
0.2286
 30
3.124201774597168
 70
192
 0
VERTEX
 8
0
 10
0.24764996767044067
 20
-0.24765
 30
3.1873016357421875
 70
192
 0
VERTEX
 8
0
 10
-0.2349500209093094
 20
-0.23495
 30
3.1809520721435547
 70
192
 0
VERTEX
 8
0
 10
-0.2286
 20
0.2286
 30
3.1682519912719727
 70
192
 0
VERTEX
 8
0
 10
-0.2349500209093094
 20
0.23495
 30
3.1809520721435547
 70
192
 0
VERTEX
 8
0
 10
0.2349499762058258
 20
0.23495
 30
3.1809520721435547
 70
192
 0
VERTEX
 8
0
 10
0.24764996767044067
 20
0.24765
 30
3.1873016357421875
 70
192
 0
VERTEX
 8
0
 10
-0.24765002727508545
 20
-0.24765
 30
3.1873016357421875
 70
192
 0
VERTEX
 8
0
 10
0.24764996767044067
 20
0.24765
 30
3.2
 70
192
 0
VERTEX
 8
0
 10
0.24764996767044067
 20
-0.24765
 30
3.2
 70
192
 0
VERTEX
 8
0
 10
-0.24765002727508545
 20
-0.24765
 30
3.2
 70
192
 0
VERTEX
 8
0
 10
-0.24765002727508545
 20
0.24765
 30
3.1873016357421875
 70
192
 0
VERTEX
 8
0
 10
-0.24765002727508545
 20
0.24765
 30
3.2
 70
192
 0
VERTEX
 8
0
 10
0.0
 20
0.0
 30
0.0
 70
128
 71
1
 72
3
 73
7
 74
6
 0
VERTEX
 8
0
 10
0.0
 20
0.0
 30
0.0
 70
128
 71
1
 72
8
 73
2
 74
3
 0
VERTEX
 8
0
 10
0.0
 20
0.0
 30
0.0
 70
128
 71
3
 72
4
 73
10
 74
7
 0
VERTEX
 8
0
 10
0.0
 20
0.0
 30
0.0
 70
128
 71
11
 72
5
 73
6
 74
7
 0
VERTEX
 8
0
 10
0.0
 20
0.0
 30
0.0
 70
128
 71
1
 72
6
 73
5
 74
8
 0
VERTEX
 8
0
 10
0.0
 20
0.0
 30
0.0
 70
128
 71
5
 72
11
 73
2
 74
8
 0
VERTEX
 8
0
 10
0.0
 20
0.0
 30
0.0
 70
128
 71
2
 72
13
 73
4
 74
3
 0
VERTEX
 8
0
 10
0.0
 20
0.0
 30
0.0
 70
128
 71
4
 72
9
 73
15
 74
10
 0
VERTEX
 8
0
 10
0.0
 20
0.0
 30
0.0
 70
128
 71
12
 72
11
 73
7
 74
10
 0
VERTEX
 8
0
 10
0.0
 20
0.0
 30
0.0
 70
128
 71
11
 72
12
 73
13
 74
2
 0
VERTEX
 8
0
 10
0.0
 20
0.0
 30
0.0
 70
128
 71
13
 72
14
 73
9
 74
4
 0
VERTEX
 8
0
 10
0.0
 20
0.0
 30
0.0
 70
128
 71
9
 72
17
 73
18
 74
15
 0
VERTEX
 8
0
 10
0.0
 20
0.0
 30
0.0
 70
128
 71
19
 72
12
 73
10
 74
15
 0
VERTEX
 8
0
 10
0.0
 20
0.0
 30
0.0
 70
128
 71
12
 72
19
 73
14
 74
13
 0
VERTEX
 8
0
 10
0.0
 20
0.0
 30
0.0
 70
128
 71
14
 72
16
 73
17
 74
9
 0
VERTEX
 8
0
 10
0.0
 20
0.0
 30
0.0
 70
128
 71
16
 72
20
 73
18
 74
17
 0
VERTEX
 8
0
 10
0.0
 20
0.0
 30
0.0
 70
128
 71
20
 72
19
 73
15
 74
18
 0
VERTEX
 8
0
 10
0.0
 20
0.0
 30
0.0
 70
128
 71
19
 72
20
 73
16
 74
14
 0
SEQEND
 8
0
 0
POLYLINE
 8
0
 70
64
 66
1
 10
0.0
 20
0.0
 30
0.0
 71
866
 72
864
 0
VERTEX
 8
0
 10
-0.11596488952636719
 20
0.11596494168043137
 30
2.4662017822265625
 70
192
 0
VERTEX
 8
0
 10
-0.10776310414075851
 20
0.10776302218437195
 30
2.9106101989746094
 70
192
 0
VERTEX
 8
0
 10
-0.13198228180408478
 20
0.0762
 30
2.9106101989746094
 70
192
 0
VERTEX
 8
0
 10
-0.11225321143865585
 20
0.11225322633981705
 30
2.9233102798461914
 70
192
 0
VERTEX
 8
0
 10
-0.12268219888210297
 20
0.12268221378326416
 30
2.021742820739746
 70
192
 0
VERTEX
 8
0
 10
-0.0762
 20
0.13198217749595642
 30
2.9106101989746094
 70
192
 0
VERTEX
 8
0
 10
-0.0793750137090683
 20
0.13748152554035187
 30
2.9233102798461914
 70
192
 0
VERTEX
 8
0
 10
-0.039444029331207275
 20
0.14720693230628967
 30
2.9106101989746094
 70
192
 0
VERTEX
 8
0
 10
-0.082
 20
0.1420273780822754
 30
2.4662017822265625
 70
192
 0
VERTEX
 8
0
 10
-0.04244612529873848
 20
0.15841089189052582
 30
2.4662017822265625
 70
192
 0
VERTEX
 8
0
 10
-0.04490481689572334
 20
0.16758689284324646
 30
2.021742820739746
 70
192
 0
VERTEX
 8
0
 10
-0.164
 20
-2.4223327343975143e-08
 30
2.4662017822265625
 70
192
 0
VERTEX
 8
0
 10
-0.1524
 20
-2.4223327343975143e-08
 30
2.9106101989746094
 70
192
 0
VERTEX
 8
0
 10
-0.1472071260213852
 20
0.039443884044885635
 30
2.9106101989746094
 70
192
 0
VERTEX
 8
0
 10
-0.13748157024383545
 20
0.0793749988079071
 30
2.9233102798461914
 70
192
 0
VERTEX
 8
0
 10
-0.14202739298343658
 20
0.082
 30
2.4662017822265625
 70
192
 0
VERTEX
 8
0
 10
-0.15666306018829346
 20
0.09044939279556274
 30
1.5772457122802734
 70
192
 0
VERTEX
 8
0
 10
-0.15025438368320465
 20
0.0867493525147438
 30
2.021742820739746
 70
192
 0
VERTEX
 8
0
 10
-0.1212334930896759
 20
0.12123339623212814
 30
2.9296607971191406
 70
192
 0
VERTEX
 8
0
 10
-0.08572500944137573
 20
0.14847998321056366
 30
2.9296607971191406
 70
192
 0
VERTEX
 8
0
 10
0.039443884044885635
 20
0.14720693230628967
 30
2.9106101989746094
 70
192
 0
VERTEX
 8
0
 10
-2.4223327343975143e-08
 20
0.164
 30
2.4662017822265625
 70
192
 0
VERTEX
 8
0
 10
-0.08674942702054977
 20
0.15025441348552704
 30
2.021742820739746
 70
192
 0
VERTEX
 8
0
 10
-0.13166272640228271
 20
0.13166265189647675
 30
1.132716178894043
 70
192
 0
VERTEX
 8
0
 10
-0.09309960901737213
 20
0.16125310957431793
 30
1.132716178894043
 70
192
 0
VERTEX
 8
0
 10
-0.15841098129749298
 20
-0.04244612529873848
 30
2.4662017822265625
 70
192
 0
VERTEX
 8
0
 10
-0.1472071260213852
 20
-0.039444029331207275
 30
2.9106101989746094
 70
192
 0
VERTEX
 8
0
 10
-0.15841098129749298
 20
0.04244617372751236
 30
2.4662017822265625
 70
192
 0
VERTEX
 8
0
 10
-0.16758698225021362
 20
0.044904887676239014
 30
2.021742820739746
 70
192
 0
VERTEX
 8
0
 10
-0.15334074199199677
 20
0.04108751192688942
 30
2.9233102798461914
 70
192
 0
VERTEX
 8
0
 10
-0.14848007261753082
 20
0.08572500199079514
 30
2.9360103607177734
 70
192
 0
VERTEX
 8
0
 10
-0.16125324368476868
 20
0.09309959411621094
 30
1.132716178894043
 70
192
 0
VERTEX
 8
0
 10
-0.12791484594345093
 20
0.12791486084461212
 30
1.5772457122802734
 70
192
 0
VERTEX
 8
0
 10
-0.12572360038757324
 20
0.12572363018989563
 30
2.937008857727051
 70
192
 0
VERTEX
 8
0
 10
-0.08572500944137573
 20
0.14847998321056366
 30
2.9360103607177734
 70
192
 0
VERTEX
 8
0
 10
-0.04108753427863121
 20
0.15334075689315796
 30
2.9233102798461914
 70
192
 0
VERTEX
 8
0
 10
-0.04437456652522087
 20
0.1656079888343811
 30
2.9296607971191406
 70
192
 0
VERTEX
 8
0
 10
-2.4223327343975143e-08
 20
0.1524
 30
2.9106101989746094
 70
192
 0
VERTEX
 8
0
 10
0.04108751192688942
 20
0.15334075689315796
 30
2.9233102798461914
 70
192
 0
VERTEX
 8
0
 10
-2.4223327343975143e-08
 20
0.17349873483181
 30
2.021742820739746
 70
192
 0
VERTEX
 8
0
 10
0.04244617372751236
 20
0.15841089189052582
 30
2.4662017822265625
 70
192
 0
VERTEX
 8
0
 10
-0.046820107847452164
 20
0.1747349500656128
 30
1.5772457122802734
 70
192
 0
VERTEX
 8
0
 10
-0.09044944494962692
 20
0.15666309
 30
1.5772457122802734
 70
192
 0
VERTEX
 8
0
 10
-0.1656080037355423
 20
0.04437451809644699
 30
2.9296607971191406
 70
192
 0
VERTEX
 8
0
 10
-0.1747349202632904
 20
0.046820033341646194
 30
1.5772457122802734
 70
192
 0
VERTEX
 8
0
 10
-0.1656080037355423
 20
0.04437451809644699
 30
2.9360103607177734
 70
192
 0
VERTEX
 8
0
 10
-0.14848007261753082
 20
0.08572500199079514
 30
2.9296607971191406
 70
192
 0
VERTEX
 8
0
 10
-0.1212334930896759
 20
0.12123339623212814
 30
2.9360103607177734
 70
192
 0
VERTEX
 8
0
 10
-0.09326881915330887
 20
0.1615462601184845
 30
2.945746421813965
 70
192
 0
VERTEX
 8
0
 10
-0.0889
 20
0.1539793312549591
 30
2.937008857727051
 70
192
 0
VERTEX
 8
0
 10
-0.04437456652522087
 20
0.1656079888343811
 30
2.9360103607177734
 70
192
 0
VERTEX
 8
0
 10
-2.4223327343975143e-08
 20
0.17144997417926788
 30
2.9360103607177734
 70
192
 0
VERTEX
 8
0
 10
-2.4223327343975143e-08
 20
0.15874996781349182
 30
2.9233102798461914
 70
192
 0
VERTEX
 8
0
 10
-2.4223327343975143e-08
 20
0.17144997417926788
 30
2.9296607971191406
 70
192
 0
VERTEX
 8
0
 10
0.04437451809644699
 20
0.1656079888343811
 30
2.9296607971191406
 70
192
 0
VERTEX
 8
0
 10
0.0793749988079071
 20
0.13748152554035187
 30
2.9233102798461914
 70
192
 0
VERTEX
 8
0
 10
0.0762
 20
0.13198217749595642
 30
2.9106101989746094
 70
192
 0
VERTEX
 8
0
 10
0.082
 20
0.1420273780822754
 30
2.4662017822265625
 70
192
 0
VERTEX
 8
0
 10
0.044904887676239014
 20
0.16758689284324646
 30
2.021742820739746
 70
192
 0
VERTEX
 8
0
 10
0.0867493525147438
 20
0.15025441348552704
 30
2.021742820739746
 70
192
 0
VERTEX
 8
0
 10
-2.4223327343975143e-08
 20
0.18089881539344788
 30
1.5772457122802734
 70
192
 0
VERTEX
 8
0
 10
-0.04819192364811897
 20
0.17985454201698303
 30
1.132716178894043
 70
192
 0
VERTEX
 8
0
 10
-0.09469981491565704
 20
0.1640248
 30
0.6881685256958008
 70
192
 0
VERTEX
 8
0
 10
-0.13392573595046997
 20
0.13392578065395355
 30
0.6881685256958008
 70
192
 0
VERTEX
 8
0
 10
-0.10776310414075851
 20
-0.10776310414075851
 30
2.9106101989746094
 70
192
 0
VERTEX
 8
0
 10
-0.13198228180408478
 20
-0.0762
 30
2.9106101989746094
 70
192
 0
VERTEX
 8
0
 10
-0.17145001888275146
 20
-2.4223327343975143e-08
 30
2.9296607971191406
 70
192
 0
VERTEX
 8
0
 10
-0.1587500274181366
 20
-2.4223327343975143e-08
 30
2.9233102798461914
 70
192
 0
VERTEX
 8
0
 10
-0.1747349202632904
 20
-0.046820107847452164
 30
1.5772457122802734
 70
192
 0
VERTEX
 8
0
 10
-0.16758698225021362
 20
-0.04490481689572334
 30
2.021742820739746
 70
192
 0
VERTEX
 8
0
 10
-0.17349880933761597
 20
-2.4223327343975143e-08
 30
2.021742820739746
 70
192
 0
VERTEX
 8
0
 10
-0.18294595181941986
 20
0.0490201897919178
 30
0.6881685256958008
 70
192
 0
VERTEX
 8
0
 10
-0.1798546016216278
 20
0.048191897571086884
 30
1.132716178894043
 70
192
 0
VERTEX
 8
0
 10
-0.16402487456798553
 20
0.09469979256391525
 30
0.6881685256958008
 70
192
 0
VERTEX
 8
0
 10
-0.1539793312549591
 20
0.0889
 30
2.937008857727051
 70
192
 0
VERTEX
 8
0
 10
-0.13190202414989471
 20
0.13190190494060516
 30
2.945746421813965
 70
192
 0
VERTEX
 8
0
 10
-0.16497787833213806
 20
0.0952499732375145
 30
0.24361038208007812
 70
192
 0
VERTEX
 8
0
 10
-0.09326881915330887
 20
0.1615462601184845
 30
2.957855224609375
 70
192
 0
VERTEX
 8
0
 10
-0.046018049120903015
 20
0.1717415750026703
 30
2.937008857727051
 70
192
 0
VERTEX
 8
0
 10
-2.4223327343975143e-08
 20
0.1778
 30
2.937008857727051
 70
192
 0
VERTEX
 8
0
 10
0.11596494168043137
 20
0.11596494168043137
 30
2.4662017822265625
 70
192
 0
VERTEX
 8
0
 10
0.12268221378326416
 20
0.12268221378326416
 30
2.021742820739746
 70
192
 0
VERTEX
 8
0
 10
-2.4223327343975143e-08
 20
0.18619921803474426
 30
1.132716178894043
 70
192
 0
VERTEX
 8
0
 10
0.046820033341646194
 20
0.1747349500656128
 30
1.5772457122802734
 70
192
 0
VERTEX
 8
0
 10
0.048191897571086884
 20
0.17985454201698303
 30
1.132716178894043
 70
192
 0
VERTEX
 8
0
 10
-0.04902023822069168
 20
0.18294602632522583
 30
0.6881685256958008
 70
192
 0
VERTEX
 8
0
 10
-2.4223327343975143e-08
 20
0.18939965963363647
 30
0.6881685256958008
 70
192
 0
VERTEX
 8
0
 10
-0.1347038596868515
 20
0.13470378518104553
 30
0.24361038208007812
 70
192
 0
VERTEX
 8
0
 10
-0.09525002539157867
 20
0.1649777889251709
 30
0.24361038208007812
 70
192
 0
VERTEX
 8
0
 10
-0.14202739298343658
 20
-0.082
 30
2.4662017822265625
 70
192
 0
VERTEX
 8
0
 10
-0.15025438368320465
 20
-0.08674942702054977
 30
2.021742820739746
 70
192
 0
VERTEX
 8
0
 10
-0.15334074199199677
 20
-0.04108753427863121
 30
2.9233102798461914
 70
192
 0
VERTEX
 8
0
 10
-0.15666306018829346
 20
-0.09044944494962692
 30
1.5772457122802734
 70
192
 0
VERTEX
 8
0
 10
-0.1656080037355423
 20
-0.04437456652522087
 30
2.9296607971191406
 70
192
 0
VERTEX
 8
0
 10
-0.17145001888275146
 20
-2.4223327343975143e-08
 30
2.9360103607177734
 70
192
 0
VERTEX
 8
0
 10
-0.18089890480041504
 20
-2.4223327343975143e-08
 30
1.5772457122802734
 70
192
 0
VERTEX
 8
0
 10
-0.1893995851278305
 20
-2.4223327343975143e-08
 30
0.6881685256958008
 70
192
 0
VERTEX
 8
0
 10
-0.18619918823242188
 20
-2.4223327343975143e-08
 30
1.132716178894043
 70
192
 0
VERTEX
 8
0
 10
-0.17174164950847626
 20
0.046017903834581375
 30
2.937008857727051
 70
192
 0
VERTEX
 8
0
 10
-0.16154633462429047
 20
0.09326879680156708
 30
2.945746421813965
 70
192
 0
VERTEX
 8
0
 10
-0.1840088963508606
 20
0.049304936081171036
 30
0.24361038208007812
 70
192
 0
VERTEX
 8
0
 10
-0.16154633462429047
 20
0.09326879680156708
 30
2.957855224609375
 70
192
 0
VERTEX
 8
0
 10
-0.17047712206840515
 20
0.098425
 30
0.2309103012084961
 70
192
 0
VERTEX
 8
0
 10
-0.13190202414989471
 20
0.13190190494060516
 30
2.957855224609375
 70
192
 0
VERTEX
 8
0
 10
-0.04827951267361641
 20
0.18018145859241486
 30
2.957855224609375
 70
192
 0
VERTEX
 8
0
 10
-0.04827951267361641
 20
0.18018145859241486
 30
2.945746421813965
 70
192
 0
VERTEX
 8
0
 10
0.08572500199079514
 20
0.14847998321056366
 30
2.9360103607177734
 70
192
 0
VERTEX
 8
0
 10
0.08572500199079514
 20
0.14847998321056366
 30
2.9296607971191406
 70
192
 0
VERTEX
 8
0
 10
0.12123339623212814
 20
0.12123339623212814
 30
2.9296607971191406
 70
192
 0
VERTEX
 8
0
 10
0.10776302218437195
 20
0.10776302218437195
 30
2.9106101989746094
 70
192
 0
VERTEX
 8
0
 10
0.13198217749595642
 20
0.0762
 30
2.9106101989746094
 70
192
 0
VERTEX
 8
0
 10
0.09309959411621094
 20
0.16125310957431793
 30
1.132716178894043
 70
192
 0
VERTEX
 8
0
 10
-0.15266437828540802
 20
0.1526643931865692
 30
0.21821069717407227
 70
192
 0
VERTEX
 8
0
 10
-0.0984250083565712
 20
0.17047716677188873
 30
0.2309103012084961
 70
192
 0
VERTEX
 8
0
 10
-0.0762
 20
-0.13198228180408478
 30
2.9106101989746094
 70
192
 0
VERTEX
 8
0
 10
-0.11596488952636719
 20
-0.11596488952636719
 30
2.4662017822265625
 70
192
 0
VERTEX
 8
0
 10
-0.12268219888210297
 20
-0.12268219888210297
 30
2.021742820739746
 70
192
 0
VERTEX
 8
0
 10
-0.13748157024383545
 20
-0.0793750137090683
 30
2.9233102798461914
 70
192
 0
VERTEX
 8
0
 10
-0.1798546016216278
 20
-0.04819192364811897
 30
1.132716178894043
 70
192
 0
VERTEX
 8
0
 10
-0.1905
 20
-2.4223327343975143e-08
 30
0.24361038208007812
 70
192
 0
VERTEX
 8
0
 10
-0.18018150329589844
 20
0.04827951267361641
 30
2.945746421813965
 70
192
 0
VERTEX
 8
0
 10
-0.12572360038757324
 20
0.12572363018989563
 30
2.9665918350219727
 70
192
 0
VERTEX
 8
0
 10
-0.13919401168823242
 20
0.13919399678707123
 30
0.2309103012084961
 70
192
 0
VERTEX
 8
0
 10
-0.11225321143865585
 20
0.11225322633981705
 30
2.9685916900634766
 70
192
 0
VERTEX
 8
0
 10
-0.0889
 20
0.1539793312549591
 30
2.9665918350219727
 70
192
 0
VERTEX
 8
0
 10
-2.4223327343975143e-08
 20
0.18653762340545654
 30
2.945746421813965
 70
192
 0
VERTEX
 8
0
 10
0.04437451809644699
 20
0.1656079888343811
 30
2.9360103607177734
 70
192
 0
VERTEX
 8
0
 10
0.046017903834581375
 20
0.1717415750026703
 30
2.937008857727051
 70
192
 0
VERTEX
 8
0
 10
0.12123339623212814
 20
0.12123339623212814
 30
2.9360103607177734
 70
192
 0
VERTEX
 8
0
 10
0.11225322633981705
 20
0.11225322633981705
 30
2.9233102798461914
 70
192
 0
VERTEX
 8
0
 10
0.14847998321056366
 20
0.08572500199079514
 30
2.9296607971191406
 70
192
 0
VERTEX
 8
0
 10
0.13748152554035187
 20
0.0793749988079071
 30
2.9233102798461914
 70
192
 0
VERTEX
 8
0
 10
0.14720693230628967
 20
0.039443884044885635
 30
2.9106101989746094
 70
192
 0
VERTEX
 8
0
 10
0.1420273780822754
 20
0.082
 30
2.4662017822265625
 70
192
 0
VERTEX
 8
0
 10
0.15841089189052582
 20
0.04244617372751236
 30
2.4662017822265625
 70
192
 0
VERTEX
 8
0
 10
0.12791486084461212
 20
0.12791486084461212
 30
1.5772457122802734
 70
192
 0
VERTEX
 8
0
 10
0.15025441348552704
 20
0.0867493525147438
 30
2.021742820739746
 70
192
 0
VERTEX
 8
0
 10
0.09044939279556274
 20
0.15666309
 30
1.5772457122802734
 70
192
 0
VERTEX
 8
0
 10
0.0490201897919178
 20
0.18294602632522583
 30
0.6881685256958008
 70
192
 0
VERTEX
 8
0
 10
0.049304936081171036
 20
0.18400874733924866
 30
0.24361038208007812
 70
192
 0
VERTEX
 8
0
 10
-0.05094856023788452
 20
0.19014258682727814
 30
0.2309103012084961
 70
192
 0
VERTEX
 8
0
 10
-0.04930505529046059
 20
0.18400874733924866
 30
0.24361038208007812
 70
192
 0
VERTEX
 8
0
 10
-0.10795002430677414
 20
0.18697494268417358
 30
0.21821069717407227
 70
192
 0
VERTEX
 8
0
 10
-0.082
 20
-0.14202739298343658
 30
2.4662017822265625
 70
192
 0
VERTEX
 8
0
 10
-0.08674942702054977
 20
-0.15025438368320465
 30
2.021742820739746
 70
192
 0
VERTEX
 8
0
 10
-0.0793750137090683
 20
-0.13748157024383545
 30
2.9233102798461914
 70
192
 0
VERTEX
 8
0
 10
-0.11225321143865585
 20
-0.11225321143865585
 30
2.9233102798461914
 70
192
 0
VERTEX
 8
0
 10
-0.1212334930896759
 20
-0.1212334930896759
 30
2.9296607971191406
 70
192
 0
VERTEX
 8
0
 10
-0.1212334930896759
 20
-0.1212334930896759
 30
2.9360103607177734
 70
192
 0
VERTEX
 8
0
 10
-0.14848007261753082
 20
-0.08572500944137573
 30
2.9296607971191406
 70
192
 0
VERTEX
 8
0
 10
-0.1656080037355423
 20
-0.04437456652522087
 30
2.9360103607177734
 70
192
 0
VERTEX
 8
0
 10
-0.14848007261753082
 20
-0.08572500944137573
 30
2.9360103607177734
 70
192
 0
VERTEX
 8
0
 10
-0.17174164950847626
 20
-0.046018049120903015
 30
2.937008857727051
 70
192
 0
VERTEX
 8
0
 10
-0.16125324368476868
 20
-0.09309960901737213
 30
1.132716178894043
 70
192
 0
VERTEX
 8
0
 10
-0.18653762340545654
 20
-2.4223327343975143e-08
 30
2.945746421813965
 70
192
 0
VERTEX
 8
0
 10
-0.1778
 20
-2.4223327343975143e-08
 30
2.937008857727051
 70
192
 0
VERTEX
 8
0
 10
-0.1539793312549591
 20
0.0889
 30
2.9665918350219727
 70
192
 0
VERTEX
 8
0
 10
-0.1869749128818512
 20
0.10794997215270996
 30
0.21821069717407227
 70
192
 0
VERTEX
 8
0
 10
-0.0793750137090683
 20
0.13748152554035187
 30
2.9685916900634766
 70
192
 0
VERTEX
 8
0
 10
-0.046018049120903015
 20
0.1717415750026703
 30
2.9665918350219727
 70
192
 0
VERTEX
 8
0
 10
0.04827951267361641
 20
0.18018145859241486
 30
2.945746421813965
 70
192
 0
VERTEX
 8
0
 10
0.0889
 20
0.1539793312549591
 30
2.937008857727051
 70
192
 0
VERTEX
 8
0
 10
0.14847998321056366
 20
0.08572500199079514
 30
2.9360103607177734
 70
192
 0
VERTEX
 8
0
 10
0.15334075689315796
 20
0.04108751192688942
 30
2.9233102798461914
 70
192
 0
VERTEX
 8
0
 10
0.1524
 20
-2.4223327343975143e-08
 30
2.9106101989746094
 70
192
 0
VERTEX
 8
0
 10
0.16758689284324646
 20
0.044904887676239014
 30
2.021742820739746
 70
192
 0
VERTEX
 8
0
 10
0.1747349500656128
 20
0.046820033341646194
 30
1.5772457122802734
 70
192
 0
VERTEX
 8
0
 10
0.13166265189647675
 20
0.13166265189647675
 30
1.132716178894043
 70
192
 0
VERTEX
 8
0
 10
0.0952499732375145
 20
0.1649777889251709
 30
0.24361038208007812
 70
192
 0
VERTEX
 8
0
 10
-2.4223327343975143e-08
 20
0.1905
 30
0.24361038208007812
 70
192
 0
VERTEX
 8
0
 10
0.05094856023788452
 20
0.19014258682727814
 30
0.2309103012084961
 70
192
 0
VERTEX
 8
0
 10
-0.10795002430677414
 20
0.18697494268417358
 30
0.1928105354309082
 70
192
 0
VERTEX
 8
0
 10
-0.11698063462972641
 20
0.20261628925800323
 30
0.1847701072692871
 70
192
 0
VERTEX
 8
0
 10
-2.4223327343975143e-08
 20
-0.164
 30
2.4662017822265625
 70
192
 0
VERTEX
 8
0
 10
-2.4223327343975143e-08
 20
-0.1524
 30
2.9106101989746094
 70
192
 0
VERTEX
 8
0
 10
-2.4223327343975143e-08
 20
-0.1587500274181366
 30
2.9233102798461914
 70
192
 0
VERTEX
 8
0
 10
-0.039444029331207275
 20
-0.1472071260213852
 30
2.9106101989746094
 70
192
 0
VERTEX
 8
0
 10
-0.04244612529873848
 20
-0.15841098129749298
 30
2.4662017822265625
 70
192
 0
VERTEX
 8
0
 10
-0.04108753427863121
 20
-0.15334074199199677
 30
2.9233102798461914
 70
192
 0
VERTEX
 8
0
 10
-0.08572500944137573
 20
-0.14848007261753082
 30
2.9296607971191406
 70
192
 0
VERTEX
 8
0
 10
-0.04490481689572334
 20
-0.16758698225021362
 30
2.021742820739746
 70
192
 0
VERTEX
 8
0
 10
-0.09044944494962692
 20
-0.15666306018829346
 30
1.5772457122802734
 70
192
 0
VERTEX
 8
0
 10
-0.12791484594345093
 20
-0.12791484594345093
 30
1.5772457122802734
 70
192
 0
VERTEX
 8
0
 10
-0.13166272640228271
 20
-0.13166272640228271
 30
1.132716178894043
 70
192
 0
VERTEX
 8
0
 10
-0.12572360038757324
 20
-0.12572360038757324
 30
2.937008857727051
 70
192
 0
VERTEX
 8
0
 10
-0.1539793312549591
 20
-0.0889
 30
2.937008857727051
 70
192
 0
VERTEX
 8
0
 10
-0.16402487456798553
 20
-0.09469981491565704
 30
0.6881685256958008
 70
192
 0
VERTEX
 8
0
 10
-0.18294595181941986
 20
-0.04902023822069168
 30
0.6881685256958008
 70
192
 0
VERTEX
 8
0
 10
-0.1840088963508606
 20
-0.04930505529046059
 30
0.24361038208007812
 70
192
 0
VERTEX
 8
0
 10
-0.19014251232147217
 20
-0.05094856023788452
 30
0.2309103012084961
 70
192
 0
VERTEX
 8
0
 10
-0.17174164950847626
 20
0.046017903834581375
 30
2.9665918350219727
 70
192
 0
VERTEX
 8
0
 10
-0.18018150329589844
 20
0.04827951267361641
 30
2.957855224609375
 70
192
 0
VERTEX
 8
0
 10
-0.19014251232147217
 20
0.05094856023788452
 30
0.2309103012084961
 70
192
 0
VERTEX
 8
0
 10
-0.20854341983795166
 20
0.05587895214557648
 30
0.1928105354309082
 70
192
 0
VERTEX
 8
0
 10
-0.20854341983795166
 20
0.05587895214557648
 30
0.21821069717407227
 70
192
 0
VERTEX
 8
0
 10
-0.1869749128818512
 20
0.10794997215270996
 30
0.1928105354309082
 70
192
 0
VERTEX
 8
0
 10
-0.13748157024383545
 20
0.0793749988079071
 30
3.0373010635375977
 70
192
 0
VERTEX
 8
0
 10
-0.2026163786649704
 20
0.1169806718826294
 30
0.1847701072692871
 70
192
 0
VERTEX
 8
0
 10
-0.15266437828540802
 20
0.1526643931865692
 30
0.1928105354309082
 70
192
 0
VERTEX
 8
0
 10
-0.0793750137090683
 20
0.13748152554035187
 30
3.0373010635375977
 70
192
 0
VERTEX
 8
0
 10
-0.04108753427863121
 20
0.15334075689315796
 30
2.9685916900634766
 70
192
 0
VERTEX
 8
0
 10
-2.4223327343975143e-08
 20
0.15874996781349182
 30
2.9685916900634766
 70
192
 0
VERTEX
 8
0
 10
-2.4223327343975143e-08
 20
0.1778
 30
2.9665918350219727
 70
192
 0
VERTEX
 8
0
 10
-2.4223327343975143e-08
 20
0.18653762340545654
 30
2.957855224609375
 70
192
 0
VERTEX
 8
0
 10
0.04827951267361641
 20
0.18018145859241486
 30
2.957855224609375
 70
192
 0
VERTEX
 8
0
 10
0.09326879680156708
 20
0.1615462601184845
 30
2.957855224609375
 70
192
 0
VERTEX
 8
0
 10
0.12572363018989563
 20
0.12572363018989563
 30
2.937008857727051
 70
192
 0
VERTEX
 8
0
 10
0.1656079888343811
 20
0.04437451809644699
 30
2.9296607971191406
 70
192
 0
VERTEX
 8
0
 10
0.17144997417926788
 20
-2.4223327343975143e-08
 30
2.9296607971191406
 70
192
 0
VERTEX
 8
0
 10
0.15874996781349182
 20
-2.4223327343975143e-08
 30
2.9233102798461914
 70
192
 0
VERTEX
 8
0
 10
0.14720693230628967
 20
-0.039444029331207275
 30
2.9106101989746094
 70
192
 0
VERTEX
 8
0
 10
0.15841089189052582
 20
-0.04244612529873848
 30
2.4662017822265625
 70
192
 0
VERTEX
 8
0
 10
0.1420273780822754
 20
-0.082
 30
2.4662017822265625
 70
192
 0
VERTEX
 8
0
 10
0.164
 20
-2.4223327343975143e-08
 30
2.4662017822265625
 70
192
 0
VERTEX
 8
0
 10
0.15666309
 20
0.09044939279556274
 30
1.5772457122802734
 70
192
 0
VERTEX
 8
0
 10
0.16125310957431793
 20
0.09309959411621094
 30
1.132716178894043
 70
192
 0
VERTEX
 8
0
 10
0.09469979256391525
 20
0.1640248
 30
0.6881685256958008
 70
192
 0
VERTEX
 8
0
 10
0.13470378518104553
 20
0.13470378518104553
 30
0.24361038208007812
 70
192
 0
VERTEX
 8
0
 10
-2.4223327343975143e-08
 20
0.2159
 30
0.21821069717407227
 70
192
 0
VERTEX
 8
0
 10
-2.4223327343975143e-08
 20
0.1968499720096588
 30
0.2309103012084961
 70
192
 0
VERTEX
 8
0
 10
-0.05587906017899513
 20
0.2085433453321457
 30
0.21821069717407227
 70
192
 0
VERTEX
 8
0
 10
-2.4223327343975143e-08
 20
0.2159
 30
0.1928105354309082
 70
192
 0
VERTEX
 8
0
 10
0.039443884044885635
 20
-0.1472071260213852
 30
2.9106101989746094
 70
192
 0
VERTEX
 8
0
 10
0.04244617372751236
 20
-0.15841098129749298
 30
2.4662017822265625
 70
192
 0
VERTEX
 8
0
 10
-2.4223327343975143e-08
 20
-0.17349880933761597
 30
2.021742820739746
 70
192
 0
VERTEX
 8
0
 10
-2.4223327343975143e-08
 20
-0.17145001888275146
 30
2.9296607971191406
 70
192
 0
VERTEX
 8
0
 10
-2.4223327343975143e-08
 20
-0.18089890480041504
 30
1.5772457122802734
 70
192
 0
VERTEX
 8
0
 10
-0.04437456652522087
 20
-0.1656080037355423
 30
2.9296607971191406
 70
192
 0
VERTEX
 8
0
 10
-0.046820107847452164
 20
-0.1747349202632904
 30
1.5772457122802734
 70
192
 0
VERTEX
 8
0
 10
-0.08572500944137573
 20
-0.14848007261753082
 30
2.9360103607177734
 70
192
 0
VERTEX
 8
0
 10
-0.0889
 20
-0.1539793312549591
 30
2.937008857727051
 70
192
 0
VERTEX
 8
0
 10
-0.09309960901737213
 20
-0.16125324368476868
 30
1.132716178894043
 70
192
 0
VERTEX
 8
0
 10
-0.1347038596868515
 20
-0.1347038596868515
 30
0.24361038208007812
 70
192
 0
VERTEX
 8
0
 10
-0.13392573595046997
 20
-0.13392573595046997
 30
0.6881685256958008
 70
192
 0
VERTEX
 8
0
 10
-0.16497787833213806
 20
-0.09525002539157867
 30
0.24361038208007812
 70
192
 0
VERTEX
 8
0
 10
-0.18018150329589844
 20
-0.04827951267361641
 30
2.957855224609375
 70
192
 0
VERTEX
 8
0
 10
-0.18018150329589844
 20
-0.04827951267361641
 30
2.945746421813965
 70
192
 0
VERTEX
 8
0
 10
-0.17047712206840515
 20
-0.0984250083565712
 30
0.2309103012084961
 70
192
 0
VERTEX
 8
0
 10
-0.17174164950847626
 20
-0.046018049120903015
 30
2.9665918350219727
 70
192
 0
VERTEX
 8
0
 10
-0.1778
 20
-2.4223327343975143e-08
 30
2.9665918350219727
 70
192
 0
VERTEX
 8
0
 10
-0.18653762340545654
 20
-2.4223327343975143e-08
 30
2.957855224609375
 70
192
 0
VERTEX
 8
0
 10
-0.1968500167131424
 20
-2.4223327343975143e-08
 30
0.2309103012084961
 70
192
 0
VERTEX
 8
0
 10
-0.1587500274181366
 20
-2.4223327343975143e-08
 30
2.9685916900634766
 70
192
 0
VERTEX
 8
0
 10
-0.15334074199199677
 20
0.04108751192688942
 30
2.9685916900634766
 70
192
 0
VERTEX
 8
0
 10
-0.13748157024383545
 20
0.0793749988079071
 30
2.9685916900634766
 70
192
 0
VERTEX
 8
0
 10
-0.11674334853887558
 20
0.11674318462610245
 30
3.048002243041992
 70
192
 0
VERTEX
 8
0
 10
-0.11225321143865585
 20
0.11225322633981705
 30
3.0373010635375977
 70
192
 0
VERTEX
 8
0
 10
-0.1654355823993683
 20
0.16543550789356232
 30
0.1847701072692871
 70
192
 0
VERTEX
 8
0
 10
-0.08255002647638321
 20
0.14298087358474731
 30
3.048002243041992
 70
192
 0
VERTEX
 8
0
 10
-0.04108753427863121
 20
0.15334075689315796
 30
3.0373010635375977
 70
192
 0
VERTEX
 8
0
 10
-2.4223327343975143e-08
 20
0.15874996781349182
 30
3.0373010635375977
 70
192
 0
VERTEX
 8
0
 10
0.046017903834581375
 20
0.1717415750026703
 30
2.9665918350219727
 70
192
 0
VERTEX
 8
0
 10
0.09326879680156708
 20
0.1615462601184845
 30
2.945746421813965
 70
192
 0
VERTEX
 8
0
 10
0.13190190494060516
 20
0.13190190494060516
 30
2.945746421813965
 70
192
 0
VERTEX
 8
0
 10
0.1656079888343811
 20
0.04437451809644699
 30
2.9360103607177734
 70
192
 0
VERTEX
 8
0
 10
0.1717415750026703
 20
0.046017903834581375
 30
2.937008857727051
 70
192
 0
VERTEX
 8
0
 10
0.1656079888343811
 20
-0.04437456652522087
 30
2.9296607971191406
 70
192
 0
VERTEX
 8
0
 10
0.15334075689315796
 20
-0.04108753427863121
 30
2.9233102798461914
 70
192
 0
VERTEX
 8
0
 10
0.13748152554035187
 20
-0.0793750137090683
 30
2.9233102798461914
 70
192
 0
VERTEX
 8
0
 10
0.15025441348552704
 20
-0.08674942702054977
 30
2.021742820739746
 70
192
 0
VERTEX
 8
0
 10
0.17349873483181
 20
-2.4223327343975143e-08
 30
2.021742820739746
 70
192
 0
VERTEX
 8
0
 10
0.16758689284324646
 20
-0.04490481689572334
 30
2.021742820739746
 70
192
 0
VERTEX
 8
0
 10
0.17985454201698303
 20
0.048191897571086884
 30
1.132716178894043
 70
192
 0
VERTEX
 8
0
 10
0.13392578065395355
 20
0.13392578065395355
 30
0.6881685256958008
 70
192
 0
VERTEX
 8
0
 10
0.098425
 20
0.17047716677188873
 30
0.2309103012084961
 70
192
 0
VERTEX
 8
0
 10
0.13919399678707123
 20
0.13919399678707123
 30
0.2309103012084961
 70
192
 0
VERTEX
 8
0
 10
0.10794997215270996
 20
0.18697494268417358
 30
0.21821069717407227
 70
192
 0
VERTEX
 8
0
 10
-0.05587906017899513
 20
0.2085433453321457
 30
0.1928105354309082
 70
192
 0
VERTEX
 8
0
 10
0.082
 20
-0.14202739298343658
 30
2.4662017822265625
 70
192
 0
VERTEX
 8
0
 10
0.0762
 20
-0.13198228180408478
 30
2.9106101989746094
 70
192
 0
VERTEX
 8
0
 10
0.04108751192688942
 20
-0.15334074199199677
 30
2.9233102798461914
 70
192
 0
VERTEX
 8
0
 10
-0.046018049120903015
 20
-0.17174164950847626
 30
2.937008857727051
 70
192
 0
VERTEX
 8
0
 10
-0.04819192364811897
 20
-0.1798546016216278
 30
1.132716178894043
 70
192
 0
VERTEX
 8
0
 10
-0.09469981491565704
 20
-0.16402487456798553
 30
0.6881685256958008
 70
192
 0
VERTEX
 8
0
 10
-0.16154633462429047
 20
-0.09326881915330887
 30
2.945746421813965
 70
192
 0
VERTEX
 8
0
 10
-0.16154633462429047
 20
-0.09326881915330887
 30
2.957855224609375
 70
192
 0
VERTEX
 8
0
 10
-0.20854341983795166
 20
-0.05587906017899513
 30
0.21821069717407227
 70
192
 0
VERTEX
 8
0
 10
-0.2159
 20
-2.4223327343975143e-08
 30
0.21821069717407227
 70
192
 0
VERTEX
 8
0
 10
-0.2159
 20
-2.4223327343975143e-08
 30
0.1928105354309082
 70
192
 0
VERTEX
 8
0
 10
-0.1587500274181366
 20
-2.4223327343975143e-08
 30
3.0373010635375977
 70
192
 0
VERTEX
 8
0
 10
-0.2259892076253891
 20
0.060553595423698425
 30
0.1847701072692871
 70
192
 0
VERTEX
 8
0
 10
-0.15334074199199677
 20
0.04108751192688942
 30
3.0373010635375977
 70
192
 0
VERTEX
 8
0
 10
-0.14298081398010254
 20
0.08254997432231903
 30
3.048002243041992
 70
192
 0
VERTEX
 8
0
 10
-0.1580621600151062
 20
0.09125707298517227
 30
3.0547075271606445
 70
192
 0
VERTEX
 8
0
 10
-0.17492897808551788
 20
0.17492902278900146
 30
0.1702585220336914
 70
192
 0
VERTEX
 8
0
 10
-0.1796051412820816
 20
0.1796051412820816
 30
0.1516270637512207
 70
192
 0
VERTEX
 8
0
 10
-0.091257244348526
 20
0.1580621302127838
 30
3.0547075271606445
 70
192
 0
VERTEX
 8
0
 10
-0.04723822697997093
 20
0.17629526555538177
 30
3.0547075271606445
 70
192
 0
VERTEX
 8
0
 10
-0.042731065303087234
 20
0.15947434306144714
 30
3.048002243041992
 70
192
 0
VERTEX
 8
0
 10
0.04108751192688942
 20
0.15334075689315796
 30
2.9685916900634766
 70
192
 0
VERTEX
 8
0
 10
0.0889
 20
0.1539793312549591
 30
2.9665918350219727
 70
192
 0
VERTEX
 8
0
 10
0.1615462601184845
 20
0.09326879680156708
 30
2.957855224609375
 70
192
 0
VERTEX
 8
0
 10
0.1539793312549591
 20
0.0889
 30
2.937008857727051
 70
192
 0
VERTEX
 8
0
 10
0.13198217749595642
 20
-0.0762
 30
2.9106101989746094
 70
192
 0
VERTEX
 8
0
 10
0.11596494168043137
 20
-0.11596488952636719
 30
2.4662017822265625
 70
192
 0
VERTEX
 8
0
 10
0.15666309
 20
-0.09044944494962692
 30
1.5772457122802734
 70
192
 0
VERTEX
 8
0
 10
0.18619921803474426
 20
-2.4223327343975143e-08
 30
1.132716178894043
 70
192
 0
VERTEX
 8
0
 10
0.18089881539344788
 20
-2.4223327343975143e-08
 30
1.5772457122802734
 70
192
 0
VERTEX
 8
0
 10
0.1747349500656128
 20
-0.046820107847452164
 30
1.5772457122802734
 70
192
 0
VERTEX
 8
0
 10
0.1640248
 20
0.09469979256391525
 30
0.6881685256958008
 70
192
 0
VERTEX
 8
0
 10
0.17047716677188873
 20
0.098425
 30
0.2309103012084961
 70
192
 0
VERTEX
 8
0
 10
0.1526643931865692
 20
0.1526643931865692
 30
0.21821069717407227
 70
192
 0
VERTEX
 8
0
 10
0.05587895214557648
 20
0.2085433453321457
 30
0.21821069717407227
 70
192
 0
VERTEX
 8
0
 10
-2.4223327343975143e-08
 20
0.23396113514900208
 30
0.1847701072692871
 70
192
 0
VERTEX
 8
0
 10
-0.06402846425771713
 20
0.23895733058452606
 30
0.1702585220336914
 70
192
 0
VERTEX
 8
0
 10
-0.0605536550283432
 20
0.22598908841609955
 30
0.1847701072692871
 70
192
 0
VERTEX
 8
0
 10
-0.12369348108768463
 20
0.21424338221549988
 30
0.1702585220336914
 70
192
 0
VERTEX
 8
0
 10
-0.1787058562040329
 20
0.17870573699474335
 30
0.1318979263305664
 70
192
 0
VERTEX
 8
0
 10
-0.12636414170265198
 20
0.21886897087097168
 30
0.1318979263305664
 70
192
 0
VERTEX
 8
0
 10
0.10776302218437195
 20
-0.10776310414075851
 30
2.9106101989746094
 70
192
 0
VERTEX
 8
0
 10
0.12268221378326416
 20
-0.12268219888210297
 30
2.021742820739746
 70
192
 0
VERTEX
 8
0
 10
0.0867493525147438
 20
-0.15025438368320465
 30
2.021742820739746
 70
192
 0
VERTEX
 8
0
 10
0.08572500199079514
 20
-0.14848007261753082
 30
2.9296607971191406
 70
192
 0
VERTEX
 8
0
 10
0.04437451809644699
 20
-0.1656080037355423
 30
2.9296607971191406
 70
192
 0
VERTEX
 8
0
 10
0.044904887676239014
 20
-0.16758698225021362
 30
2.021742820739746
 70
192
 0
VERTEX
 8
0
 10
-2.4223327343975143e-08
 20
-0.17145001888275146
 30
2.9360103607177734
 70
192
 0
VERTEX
 8
0
 10
0.048191897571086884
 20
-0.1798546016216278
 30
1.132716178894043
 70
192
 0
VERTEX
 8
0
 10
-0.04437456652522087
 20
-0.1656080037355423
 30
2.9360103607177734
 70
192
 0
VERTEX
 8
0
 10
-0.09326881915330887
 20
-0.16154633462429047
 30
2.945746421813965
 70
192
 0
VERTEX
 8
0
 10
-0.09525002539157867
 20
-0.16497787833213806
 30
0.24361038208007812
 70
192
 0
VERTEX
 8
0
 10
-0.09326881915330887
 20
-0.16154633462429047
 30
2.957855224609375
 70
192
 0
VERTEX
 8
0
 10
-0.13190202414989471
 20
-0.13190202414989471
 30
2.957855224609375
 70
192
 0
VERTEX
 8
0
 10
-0.13190202414989471
 20
-0.13190202414989471
 30
2.945746421813965
 70
192
 0
VERTEX
 8
0
 10
-0.1539793312549591
 20
-0.0889
 30
2.9665918350219727
 70
192
 0
VERTEX
 8
0
 10
-0.13919401168823242
 20
-0.13919401168823242
 30
0.2309103012084961
 70
192
 0
VERTEX
 8
0
 10
-0.1869749128818512
 20
-0.10795002430677414
 30
0.21821069717407227
 70
192
 0
VERTEX
 8
0
 10
-0.13748157024383545
 20
-0.0793750137090683
 30
2.9685916900634766
 70
192
 0
VERTEX
 8
0
 10
-0.1869749128818512
 20
-0.10795002430677414
 30
0.1928105354309082
 70
192
 0
VERTEX
 8
0
 10
-0.20854341983795166
 20
-0.05587906017899513
 30
0.1928105354309082
 70
192
 0
VERTEX
 8
0
 10
-0.23396125435829163
 20
-2.4223327343975143e-08
 30
0.1847701072692871
 70
192
 0
VERTEX
 8
0
 10
-0.15947437286376953
 20
0.042730893939733505
 30
3.048002243041992
 70
192
 0
VERTEX
 8
0
 10
-0.1762954294681549
 20
0.04723813012242317
 30
3.0547075271606445
 70
192
 0
VERTEX
 8
0
 10
-0.23895740509033203
 20
0.0640282854437828
 30
0.1702585220336914
 70
192
 0
VERTEX
 8
0
 10
-0.21424336731433868
 20
0.12369339168071747
 30
0.1702585220336914
 70
192
 0
VERTEX
 8
0
 10
-0.2199704796075821
 20
0.127
 30
0.1516270637512207
 70
192
 0
VERTEX
 8
0
 10
-0.1580621600151062
 20
0.09125707298517227
 30
3.0674076080322266
 70
192
 0
VERTEX
 8
0
 10
-0.12905722856521606
 20
0.1290571093559265
 30
3.0547075271606445
 70
192
 0
VERTEX
 8
0
 10
-0.2188690751791
 20
0.12636394798755646
 30
0.1318979263305664
 70
192
 0
VERTEX
 8
0
 10
-0.091257244348526
 20
0.1580621302127838
 30
3.0674076080322266
 70
192
 0
VERTEX
 8
0
 10
-2.4223327343975143e-08
 20
0.1651
 30
3.048002243041992
 70
192
 0
VERTEX
 8
0
 10
0.04108751192688942
 20
0.15334075689315796
 30
3.0373010635375977
 70
192
 0
VERTEX
 8
0
 10
0.13190190494060516
 20
0.13190190494060516
 30
2.957855224609375
 70
192
 0
VERTEX
 8
0
 10
0.12572363018989563
 20
0.12572363018989563
 30
2.9665918350219727
 70
192
 0
VERTEX
 8
0
 10
0.1615462601184845
 20
0.09326879680156708
 30
2.945746421813965
 70
192
 0
VERTEX
 8
0
 10
0.18018145859241486
 20
0.04827951267361641
 30
2.957855224609375
 70
192
 0
VERTEX
 8
0
 10
0.18018145859241486
 20
0.04827951267361641
 30
2.945746421813965
 70
192
 0
VERTEX
 8
0
 10
0.17144997417926788
 20
-2.4223327343975143e-08
 30
2.9360103607177734
 70
192
 0
VERTEX
 8
0
 10
0.14847998321056366
 20
-0.08572500944137573
 30
2.9360103607177734
 70
192
 0
VERTEX
 8
0
 10
0.14847998321056366
 20
-0.08572500944137573
 30
2.9296607971191406
 70
192
 0
VERTEX
 8
0
 10
0.12791486084461212
 20
-0.12791484594345093
 30
1.5772457122802734
 70
192
 0
VERTEX
 8
0
 10
0.17985454201698303
 20
-0.04819192364811897
 30
1.132716178894043
 70
192
 0
VERTEX
 8
0
 10
0.18400874733924866
 20
0.049304936081171036
 30
0.24361038208007812
 70
192
 0
VERTEX
 8
0
 10
0.18294602632522583
 20
0.0490201897919178
 30
0.6881685256958008
 70
192
 0
VERTEX
 8
0
 10
0.18939965963363647
 20
-2.4223327343975143e-08
 30
0.6881685256958008
 70
192
 0
VERTEX
 8
0
 10
0.1649777889251709
 20
0.0952499732375145
 30
0.24361038208007812
 70
192
 0
VERTEX
 8
0
 10
0.10794997215270996
 20
0.18697494268417358
 30
0.1928105354309082
 70
192
 0
VERTEX
 8
0
 10
0.05587895214557648
 20
0.2085433453321457
 30
0.1928105354309082
 70
192
 0
VERTEX
 8
0
 10
0.0640282854437828
 20
0.23895733058452606
 30
0.1702585220336914
 70
192
 0
VERTEX
 8
0
 10
-0.127
 20
0.21997031569480896
 30
0.1516270637512207
 70
192
 0
VERTEX
 8
0
 10
-0.17237694561481476
 20
0.172376811504364
 30
0.11427021026611328
 70
192
 0
VERTEX
 8
0
 10
0.11225322633981705
 20
-0.11225321143865585
 30
2.9233102798461914
 70
192
 0
VERTEX
 8
0
 10
0.0793749988079071
 20
-0.13748157024383545
 30
2.9233102798461914
 70
192
 0
VERTEX
 8
0
 10
0.04437451809644699
 20
-0.1656080037355423
 30
2.9360103607177734
 70
192
 0
VERTEX
 8
0
 10
0.09044939279556274
 20
-0.15666306018829346
 30
1.5772457122802734
 70
192
 0
VERTEX
 8
0
 10
0.046820033341646194
 20
-0.1747349202632904
 30
1.5772457122802734
 70
192
 0
VERTEX
 8
0
 10
-2.4223327343975143e-08
 20
-0.18619918823242188
 30
1.132716178894043
 70
192
 0
VERTEX
 8
0
 10
-0.04902023822069168
 20
-0.18294595181941986
 30
0.6881685256958008
 70
192
 0
VERTEX
 8
0
 10
-0.04827951267361641
 20
-0.18018150329589844
 30
2.945746421813965
 70
192
 0
VERTEX
 8
0
 10
-0.15266437828540802
 20
-0.15266437828540802
 30
0.21821069717407227
 70
192
 0
VERTEX
 8
0
 10
-0.15266437828540802
 20
-0.15266437828540802
 30
0.1928105354309082
 70
192
 0
VERTEX
 8
0
 10
-0.15334074199199677
 20
-0.04108753427863121
 30
3.0373010635375977
 70
192
 0
VERTEX
 8
0
 10
-0.15334074199199677
 20
-0.04108753427863121
 30
2.9685916900634766
 70
192
 0
VERTEX
 8
0
 10
-0.15947437286376953
 20
-0.042731065303087234
 30
3.048002243041992
 70
192
 0
VERTEX
 8
0
 10
-0.1651
 20
-2.4223327343975143e-08
 30
3.048002243041992
 70
192
 0
VERTEX
 8
0
 10
-0.2259892076253891
 20
-0.0605536550283432
 30
0.1847701072692871
 70
192
 0
VERTEX
 8
0
 10
-0.18251445889472961
 20
-2.4223327343975143e-08
 30
3.0547075271606445
 70
192
 0
VERTEX
 8
0
 10
-0.24534517526626587
 20
0.06574
 30
0.1516270637512207
 70
192
 0
VERTEX
 8
0
 10
-0.12905722856521606
 20
0.1290571093559265
 30
3.0674076080322266
 70
192
 0
VERTEX
 8
0
 10
-0.1375216245651245
 20
0.1375216692686081
 30
3.0715837478637695
 70
192
 0
VERTEX
 8
0
 10
-0.14499351382255554
 20
0.14499333500862122
 30
3.0785884857177734
 70
192
 0
VERTEX
 8
0
 10
-0.09724247455596924
 20
0.16842888295650482
 30
3.0715837478637695
 70
192
 0
VERTEX
 8
0
 10
-0.05033641308546066
 20
0.18785783648490906
 30
3.0715837478637695
 70
192
 0
VERTEX
 8
0
 10
0.08254997432231903
 20
0.14298087358474731
 30
3.048002243041992
 70
192
 0
VERTEX
 8
0
 10
0.0793749988079071
 20
0.13748152554035187
 30
2.9685916900634766
 70
192
 0
VERTEX
 8
0
 10
0.0793749988079071
 20
0.13748152554035187
 30
3.0373010635375977
 70
192
 0
VERTEX
 8
0
 10
0.11225322633981705
 20
0.11225322633981705
 30
2.9685916900634766
 70
192
 0
VERTEX
 8
0
 10
0.13748152554035187
 20
0.0793749988079071
 30
2.9685916900634766
 70
192
 0
VERTEX
 8
0
 10
0.1778
 20
-2.4223327343975143e-08
 30
2.937008857727051
 70
192
 0
VERTEX
 8
0
 10
0.1656079888343811
 20
-0.04437456652522087
 30
2.9360103607177734
 70
192
 0
VERTEX
 8
0
 10
0.1717415750026703
 20
-0.046018049120903015
 30
2.937008857727051
 70
192
 0
VERTEX
 8
0
 10
0.12123339623212814
 20
-0.1212334930896759
 30
2.9360103607177734
 70
192
 0
VERTEX
 8
0
 10
0.16125310957431793
 20
-0.09309960901737213
 30
1.132716178894043
 70
192
 0
VERTEX
 8
0
 10
0.18294602632522583
 20
-0.04902023822069168
 30
0.6881685256958008
 70
192
 0
VERTEX
 8
0
 10
0.1905
 20
-2.4223327343975143e-08
 30
0.24361038208007812
 70
192
 0
VERTEX
 8
0
 10
0.2085433453321457
 20
0.05587895214557648
 30
0.21821069717407227
 70
192
 0
VERTEX
 8
0
 10
0.1169806718826294
 20
0.20261628925800323
 30
0.1847701072692871
 70
192
 0
VERTEX
 8
0
 10
0.060553595423698425
 20
0.22598908841609955
 30
0.1847701072692871
 70
192
 0
VERTEX
 8
0
 10
-2.4223327343975143e-08
 20
0.254
 30
0.1516270637512207
 70
192
 0
VERTEX
 8
0
 10
-2.4223327343975143e-08
 20
0.24738681316375732
 30
0.1702585220336914
 70
192
 0
VERTEX
 8
0
 10
-0.06574004888534546
 20
0.24534517526626587
 30
0.1516270637512207
 70
192
 0
VERTEX
 8
0
 10
-0.1143
 20
0.19797340035438538
 30
0.10160207748413086
 70
192
 0
VERTEX
 8
0
 10
0.12123339623212814
 20
-0.1212334930896759
 30
2.9296607971191406
 70
192
 0
VERTEX
 8
0
 10
0.08572500199079514
 20
-0.14848007261753082
 30
2.9360103607177734
 70
192
 0
VERTEX
 8
0
 10
0.09469979256391525
 20
-0.16402487456798553
 30
0.6881685256958008
 70
192
 0
VERTEX
 8
0
 10
0.09309959411621094
 20
-0.16125324368476868
 30
1.132716178894043
 70
192
 0
VERTEX
 8
0
 10
0.0490201897919178
 20
-0.18294595181941986
 30
0.6881685256958008
 70
192
 0
VERTEX
 8
0
 10
0.046017903834581375
 20
-0.17174164950847626
 30
2.937008857727051
 70
192
 0
VERTEX
 8
0
 10
-2.4223327343975143e-08
 20
-0.18653762340545654
 30
2.945746421813965
 70
192
 0
VERTEX
 8
0
 10
-2.4223327343975143e-08
 20
-0.1778
 30
2.937008857727051
 70
192
 0
VERTEX
 8
0
 10
-2.4223327343975143e-08
 20
-0.1893995851278305
 30
0.6881685256958008
 70
192
 0
VERTEX
 8
0
 10
-2.4223327343975143e-08
 20
-0.1968500167131424
 30
0.2309103012084961
 70
192
 0
VERTEX
 8
0
 10
-2.4223327343975143e-08
 20
-0.1905
 30
0.24361038208007812
 70
192
 0
VERTEX
 8
0
 10
-0.04930505529046059
 20
-0.1840088963508606
 30
0.24361038208007812
 70
192
 0
VERTEX
 8
0
 10
-0.05094856023788452
 20
-0.19014251232147217
 30
0.2309103012084961
 70
192
 0
VERTEX
 8
0
 10
-0.0984250083565712
 20
-0.17047712206840515
 30
0.2309103012084961
 70
192
 0
VERTEX
 8
0
 10
-0.12572360038757324
 20
-0.12572360038757324
 30
2.9665918350219727
 70
192
 0
VERTEX
 8
0
 10
-0.0889
 20
-0.1539793312549591
 30
2.9665918350219727
 70
192
 0
VERTEX
 8
0
 10
-0.10795002430677414
 20
-0.1869749128818512
 30
0.21821069717407227
 70
192
 0
VERTEX
 8
0
 10
-0.13748157024383545
 20
-0.0793750137090683
 30
3.0373010635375977
 70
192
 0
VERTEX
 8
0
 10
-0.14298081398010254
 20
-0.08255002647638321
 30
3.048002243041992
 70
192
 0
VERTEX
 8
0
 10
-0.21424336731433868
 20
-0.12369348108768463
 30
0.1702585220336914
 70
192
 0
VERTEX
 8
0
 10
-0.2026163786649704
 20
-0.11698063462972641
 30
0.1847701072692871
 70
192
 0
VERTEX
 8
0
 10
-0.1762954294681549
 20
-0.04723822697997093
 30
3.0547075271606445
 70
192
 0
VERTEX
 8
0
 10
-0.23895740509033203
 20
-0.06402846425771713
 30
0.1702585220336914
 70
192
 0
VERTEX
 8
0
 10
-0.2473869025707245
 20
-2.4223327343975143e-08
 30
0.1702585220336914
 70
192
 0
VERTEX
 8
0
 10
-0.25272825360298157
 20
-2.4223327343975143e-08
 30
0.1318979263305664
 70
192
 0
VERTEX
 8
0
 10
-0.254
 20
-2.4223327343975143e-08
 30
0.1516270637512207
 70
192
 0
VERTEX
 8
0
 10
-0.24411673843860626
 20
0.0654108077287674
 30
0.1318979263305664
 70
192
 0
VERTEX
 8
0
 10
-0.1762954294681549
 20
0.04723813012242317
 30
3.0674076080322266
 70
192
 0
VERTEX
 8
0
 10
-0.187858
 20
0.05033641308546066
 30
3.0715837478637695
 70
192
 0
VERTEX
 8
0
 10
-0.23547127842903137
 20
0.06309433281421661
 30
0.11427021026611328
 70
192
 0
VERTEX
 8
0
 10
-0.21111775934696198
 20
0.12188897281885147
 30
0.11427021026611328
 70
192
 0
VERTEX
 8
0
 10
-0.16164463758468628
 20
0.1616445630788803
 30
0.10160207748413086
 70
192
 0
VERTEX
 8
0
 10
-0.10252589732408524
 20
0.17757998406887054
 30
3.0785884857177734
 70
192
 0
VERTEX
 8
0
 10
-0.04723822697997093
 20
0.17629526555538177
 30
3.0674076080322266
 70
192
 0
VERTEX
 8
0
 10
-2.4223327343975143e-08
 20
0.18251445889472961
 30
3.0547075271606445
 70
192
 0
VERTEX
 8
0
 10
0.042730893939733505
 20
0.15947434306144714
 30
3.048002243041992
 70
192
 0
VERTEX
 8
0
 10
0.04723813012242317
 20
0.17629526555538177
 30
3.0547075271606445
 70
192
 0
VERTEX
 8
0
 10
0.11225322633981705
 20
0.11225322633981705
 30
3.0373010635375977
 70
192
 0
VERTEX
 8
0
 10
0.1539793312549591
 20
0.0889
 30
2.9665918350219727
 70
192
 0
VERTEX
 8
0
 10
0.1717415750026703
 20
0.046017903834581375
 30
2.9665918350219727
 70
192
 0
VERTEX
 8
0
 10
0.1778
 20
-2.4223327343975143e-08
 30
2.9665918350219727
 70
192
 0
VERTEX
 8
0
 10
0.18653762340545654
 20
-2.4223327343975143e-08
 30
2.957855224609375
 70
192
 0
VERTEX
 8
0
 10
0.18653762340545654
 20
-2.4223327343975143e-08
 30
2.945746421813965
 70
192
 0
VERTEX
 8
0
 10
0.18018145859241486
 20
-0.04827951267361641
 30
2.945746421813965
 70
192
 0
VERTEX
 8
0
 10
0.1615462601184845
 20
-0.09326881915330887
 30
2.945746421813965
 70
192
 0
VERTEX
 8
0
 10
0.1539793312549591
 20
-0.0889
 30
2.937008857727051
 70
192
 0
VERTEX
 8
0
 10
0.18400874733924866
 20
-0.04930505529046059
 30
0.24361038208007812
 70
192
 0
VERTEX
 8
0
 10
0.1640248
 20
-0.09469981491565704
 30
0.6881685256958008
 70
192
 0
VERTEX
 8
0
 10
0.19014258682727814
 20
0.05094856023788452
 30
0.2309103012084961
 70
192
 0
VERTEX
 8
0
 10
0.1968499720096588
 20
-2.4223327343975143e-08
 30
0.2309103012084961
 70
192
 0
VERTEX
 8
0
 10
0.2159
 20
-2.4223327343975143e-08
 30
0.21821069717407227
 70
192
 0
VERTEX
 8
0
 10
0.18697494268417358
 20
0.10794997215270996
 30
0.1928105354309082
 70
192
 0
VERTEX
 8
0
 10
0.18697494268417358
 20
0.10794997215270996
 30
0.21821069717407227
 70
192
 0
VERTEX
 8
0
 10
0.1526643931865692
 20
0.1526643931865692
 30
0.1928105354309082
 70
192
 0
VERTEX
 8
0
 10
0.12369339168071747
 20
0.21424338221549988
 30
0.1702585220336914
 70
192
 0
VERTEX
 8
0
 10
-2.4223327343975143e-08
 20
0.2527281939983368
 30
0.1318979263305664
 70
192
 0
VERTEX
 8
0
 10
0.06574
 20
0.24534517526626587
 30
0.1516270637512207
 70
192
 0
VERTEX
 8
0
 10
-0.06541088968515396
 20
0.24411655962467194
 30
0.1318979263305664
 70
192
 0
VERTEX
 8
0
 10
-0.1218889132142067
 20
0.21111765503883362
 30
0.11427021026611328
 70
192
 0
VERTEX
 8
0
 10
-0.0630943551659584
 20
0.23547115921974182
 30
0.11427021026611328
 70
192
 0
VERTEX
 8
0
 10
-0.05916604772210121
 20
0.22081053256988525
 30
0.10160207748413086
 70
192
 0
VERTEX
 8
0
 10
-0.1143
 20
0.1143
 30
0.10160207748413086
 70
192
 0
VERTEX
 8
0
 10
0.12572363018989563
 20
-0.12572360038757324
 30
2.937008857727051
 70
192
 0
VERTEX
 8
0
 10
0.0889
 20
-0.1539793312549591
 30
2.937008857727051
 70
192
 0
VERTEX
 8
0
 10
0.13166265189647675
 20
-0.13166272640228271
 30
1.132716178894043
 70
192
 0
VERTEX
 8
0
 10
0.09326879680156708
 20
-0.16154633462429047
 30
2.945746421813965
 70
192
 0
VERTEX
 8
0
 10
0.049304936081171036
 20
-0.1840088963508606
 30
0.24361038208007812
 70
192
 0
VERTEX
 8
0
 10
-2.4223327343975143e-08
 20
-0.18653762340545654
 30
2.957855224609375
 70
192
 0
VERTEX
 8
0
 10
-2.4223327343975143e-08
 20
-0.1778
 30
2.9665918350219727
 70
192
 0
VERTEX
 8
0
 10
-0.04827951267361641
 20
-0.18018150329589844
 30
2.957855224609375
 70
192
 0
VERTEX
 8
0
 10
-0.0793750137090683
 20
-0.13748157024383545
 30
2.9685916900634766
 70
192
 0
VERTEX
 8
0
 10
-0.05587906017899513
 20
-0.20854341983795166
 30
0.1928105354309082
 70
192
 0
VERTEX
 8
0
 10
-0.05587906017899513
 20
-0.20854341983795166
 30
0.21821069717407227
 70
192
 0
VERTEX
 8
0
 10
-0.11225321143865585
 20
-0.11225321143865585
 30
2.9685916900634766
 70
192
 0
VERTEX
 8
0
 10
-0.1654355823993683
 20
-0.1654355823993683
 30
0.1847701072692871
 70
192
 0
VERTEX
 8
0
 10
-0.18251445889472961
 20
-2.4223327343975143e-08
 30
3.0674076080322266
 70
192
 0
VERTEX
 8
0
 10
-0.17758002877235413
 20
0.10252579301595688
 30
3.0785884857177734
 70
192
 0
VERTEX
 8
0
 10
-0.16842888295650482
 20
0.0972423404455185
 30
3.0715837478637695
 70
192
 0
VERTEX
 8
0
 10
-0.19797344505786896
 20
0.1143
 30
0.10160207748413086
 70
192
 0
VERTEX
 8
0
 10
-0.10677959769964218
 20
0.18494750559329987
 30
3.08798885345459
 70
192
 0
VERTEX
 8
0
 10
-0.053071312606334686
 20
0.19806481897830963
 30
3.0785884857177734
 70
192
 0
VERTEX
 8
0
 10
-2.4223327343975143e-08
 20
0.20505160093307495
 30
3.0785884857177734
 70
192
 0
VERTEX
 8
0
 10
-2.4223327343975143e-08
 20
0.19448494911193848
 30
3.0715837478637695
 70
192
 0
VERTEX
 8
0
 10
-2.4223327343975143e-08
 20
0.18251445889472961
 30
3.0674076080322266
 70
192
 0
VERTEX
 8
0
 10
0.05033641308546066
 20
0.18785783648490906
 30
3.0715837478637695
 70
192
 0
VERTEX
 8
0
 10
0.09125707298517227
 20
0.1580621302127838
 30
3.0547075271606445
 70
192
 0
VERTEX
 8
0
 10
0.11674318462610245
 20
0.11674318462610245
 30
3.048002243041992
 70
192
 0
VERTEX
 8
0
 10
0.13748152554035187
 20
0.0793749988079071
 30
3.0373010635375977
 70
192
 0
VERTEX
 8
0
 10
0.13392578065395355
 20
-0.13392573595046997
 30
0.6881685256958008
 70
192
 0
VERTEX
 8
0
 10
0.1649777889251709
 20
-0.09525002539157867
 30
0.24361038208007812
 70
192
 0
VERTEX
 8
0
 10
0.2085433453321457
 20
0.05587895214557648
 30
0.1928105354309082
 70
192
 0
VERTEX
 8
0
 10
0.17492902278900146
 20
0.17492902278900146
 30
0.1702585220336914
 70
192
 0
VERTEX
 8
0
 10
0.16543550789356232
 20
0.16543550789356232
 30
0.1847701072692871
 70
192
 0
VERTEX
 8
0
 10
0.20261628925800323
 20
0.1169806718826294
 30
0.1847701072692871
 70
192
 0
VERTEX
 8
0
 10
0.127
 20
0.21997031569480896
 30
0.1516270637512207
 70
192
 0
VERTEX
 8
0
 10
0.12636394798755646
 20
0.21886897087097168
 30
0.1318979263305664
 70
192
 0
VERTEX
 8
0
 10
0.0654108077287674
 20
0.24411655962467194
 30
0.1318979263305664
 70
192
 0
VERTEX
 8
0
 10
-2.4223327343975143e-08
 20
0.2286
 30
0.10160207748413086
 70
192
 0
VERTEX
 8
0
 10
-0.05916604772210121
 20
0.1143
 30
0.10160207748413086
 70
192
 0
VERTEX
 8
0
 10
-0.1143
 20
0.05916596204042435
 30
0.10160207748413086
 70
192
 0
VERTEX
 8
0
 10
-0.2208106517791748
 20
0.05916596204042435
 30
0.10160207748413086
 70
192
 0
VERTEX
 8
0
 10
0.13190190494060516
 20
-0.13190202414989471
 30
2.945746421813965
 70
192
 0
VERTEX
 8
0
 10
0.13470378518104553
 20
-0.1347038596868515
 30
0.24361038208007812
 70
192
 0
VERTEX
 8
0
 10
0.04827951267361641
 20
-0.18018150329589844
 30
2.945746421813965
 70
192
 0
VERTEX
 8
0
 10
0.0952499732375145
 20
-0.16497787833213806
 30
0.24361038208007812
 70
192
 0
VERTEX
 8
0
 10
0.04827951267361641
 20
-0.18018150329589844
 30
2.957855224609375
 70
192
 0
VERTEX
 8
0
 10
0.05587895214557648
 20
-0.20854341983795166
 30
0.21821069717407227
 70
192
 0
VERTEX
 8
0
 10
0.05094856023788452
 20
-0.19014251232147217
 30
0.2309103012084961
 70
192
 0
VERTEX
 8
0
 10
-2.4223327343975143e-08
 20
-0.2159
 30
0.21821069717407227
 70
192
 0
VERTEX
 8
0
 10
-0.046018049120903015
 20
-0.17174164950847626
 30
2.9665918350219727
 70
192
 0
VERTEX
 8
0
 10
-0.04108753427863121
 20
-0.15334074199199677
 30
3.0373010635375977
 70
192
 0
VERTEX
 8
0
 10
-0.0793750137090683
 20
-0.13748157024383545
 30
3.0373010635375977
 70
192
 0
VERTEX
 8
0
 10
-0.10795002430677414
 20
-0.1869749128818512
 30
0.1928105354309082
 70
192
 0
VERTEX
 8
0
 10
-0.11698063462972641
 20
-0.2026163786649704
 30
0.1847701072692871
 70
192
 0
VERTEX
 8
0
 10
-0.11225321143865585
 20
-0.11225321143865585
 30
3.0373010635375977
 70
192
 0
VERTEX
 8
0
 10
-0.17492897808551788
 20
-0.17492897808551788
 30
0.1702585220336914
 70
192
 0
VERTEX
 8
0
 10
-0.11674334853887558
 20
-0.11674334853887558
 30
3.048002243041992
 70
192
 0
VERTEX
 8
0
 10
-0.1580621600151062
 20
-0.091257244348526
 30
3.0547075271606445
 70
192
 0
VERTEX
 8
0
 10
-0.24534517526626587
 20
-0.06574004888534546
 30
0.1516270637512207
 70
192
 0
VERTEX
 8
0
 10
-0.1762954294681549
 20
-0.04723822697997093
 30
3.0674076080322266
 70
192
 0
VERTEX
 8
0
 10
-0.19448493421077728
 20
-2.4223327343975143e-08
 30
3.0715837478637695
 70
192
 0
VERTEX
 8
0
 10
-0.24411673843860626
 20
-0.06541088968515396
 30
0.1318979263305664
 70
192
 0
VERTEX
 8
0
 10
-0.243777796626091
 20
-2.4223327343975143e-08
 30
0.11427021026611328
 70
192
 0
VERTEX
 8
0
 10
-0.2286
 20
-2.4223327343975143e-08
 30
0.10160207748413086
 70
192
 0
VERTEX
 8
0
 10
-0.15100914239883423
 20
0.15100906789302826
 30
3.08798885345459
 70
192
 0
VERTEX
 8
0
 10
-0.1551951915025711
 20
0.15519525110721588
 30
3.099198341369629
 70
192
 0
VERTEX
 8
0
 10
-0.10973957926034927
 20
0.19007451832294464
 30
3.099198341369629
 70
192
 0
VERTEX
 8
0
 10
-0.055273186415433884
 20
0.20628224313259125
 30
3.08798885345459
 70
192
 0
VERTEX
 8
0
 10
0.04723813012242317
 20
0.17629526555538177
 30
3.0674076080322266
 70
192
 0
VERTEX
 8
0
 10
0.09125707298517227
 20
0.1580621302127838
 30
3.0674076080322266
 70
192
 0
VERTEX
 8
0
 10
0.1290571093559265
 20
0.1290571093559265
 30
3.0547075271606445
 70
192
 0
VERTEX
 8
0
 10
0.1580621302127838
 20
0.09125707298517227
 30
3.0547075271606445
 70
192
 0
VERTEX
 8
0
 10
0.15334075689315796
 20
0.04108751192688942
 30
2.9685916900634766
 70
192
 0
VERTEX
 8
0
 10
0.15874996781349182
 20
-2.4223327343975143e-08
 30
2.9685916900634766
 70
192
 0
VERTEX
 8
0
 10
0.18018145859241486
 20
-0.04827951267361641
 30
2.957855224609375
 70
192
 0
VERTEX
 8
0
 10
0.1717415750026703
 20
-0.046018049120903015
 30
2.9665918350219727
 70
192
 0
VERTEX
 8
0
 10
0.2085433453321457
 20
-0.05587906017899513
 30
0.21821069717407227
 70
192
 0
VERTEX
 8
0
 10
0.19014258682727814
 20
-0.05094856023788452
 30
0.2309103012084961
 70
192
 0
VERTEX
 8
0
 10
0.2085433453321457
 20
-0.05587906017899513
 30
0.1928105354309082
 70
192
 0
VERTEX
 8
0
 10
0.22598908841609955
 20
0.060553595423698425
 30
0.1847701072692871
 70
192
 0
VERTEX
 8
0
 10
0.1796051412820816
 20
0.1796051412820816
 30
0.1516270637512207
 70
192
 0
VERTEX
 8
0
 10
0.21424338221549988
 20
0.12369339168071747
 30
0.1702585220336914
 70
192
 0
VERTEX
 8
0
 10
-2.4223327343975143e-08
 20
0.24377772212028503
 30
0.11427021026611328
 70
192
 0
VERTEX
 8
0
 10
0.06309433281421661
 20
0.23547115921974182
 30
0.11427021026611328
 70
192
 0
VERTEX
 8
0
 10
-2.4223327343975143e-08
 20
0.1143
 30
0.10160207748413086
 70
192
 0
VERTEX
 8
0
 10
-0.05916604772210121
 20
0.05916596204042435
 30
0.10160207748413086
 70
192
 0
VERTEX
 8
0
 10
-0.1143
 20
-2.4223327343975143e-08
 30
0.10160207748413086
 70
192
 0
VERTEX
 8
0
 10
0.13919399678707123
 20
-0.13919401168823242
 30
0.2309103012084961
 70
192
 0
VERTEX
 8
0
 10
0.098425
 20
-0.17047712206840515
 30
0.2309103012084961
 70
192
 0
VERTEX
 8
0
 10
0.0889
 20
-0.1539793312549591
 30
2.9665918350219727
 70
192
 0
VERTEX
 8
0
 10
0.046017903834581375
 20
-0.17174164950847626
 30
2.9665918350219727
 70
192
 0
VERTEX
 8
0
 10
0.10794997215270996
 20
-0.1869749128818512
 30
0.21821069717407227
 70
192
 0
VERTEX
 8
0
 10
-2.4223327343975143e-08
 20
-0.2159
 30
0.1928105354309082
 70
192
 0
VERTEX
 8
0
 10
-0.04108753427863121
 20
-0.15334074199199677
 30
2.9685916900634766
 70
192
 0
VERTEX
 8
0
 10
-0.0605536550283432
 20
-0.2259892076253891
 30
0.1847701072692871
 70
192
 0
VERTEX
 8
0
 10
-0.08255002647638321
 20
-0.14298081398010254
 30
3.048002243041992
 70
192
 0
VERTEX
 8
0
 10
-0.12369348108768463
 20
-0.21424336731433868
 30
0.1702585220336914
 70
192
 0
VERTEX
 8
0
 10
-0.127
 20
-0.2199704796075821
 30
0.1516270637512207
 70
192
 0
VERTEX
 8
0
 10
-0.1796051412820816
 20
-0.1796051412820816
 30
0.1516270637512207
 70
192
 0
VERTEX
 8
0
 10
-0.12905722856521606
 20
-0.12905722856521606
 30
3.0674076080322266
 70
192
 0
VERTEX
 8
0
 10
-0.1580621600151062
 20
-0.091257244348526
 30
3.0674076080322266
 70
192
 0
VERTEX
 8
0
 10
-0.2199704796075821
 20
-0.127
 30
0.1516270637512207
 70
192
 0
VERTEX
 8
0
 10
-0.16842888295650482
 20
-0.09724247455596924
 30
3.0715837478637695
 70
192
 0
VERTEX
 8
0
 10
-0.187858
 20
-0.05033641308546066
 30
3.0715837478637695
 70
192
 0
VERTEX
 8
0
 10
-0.2188690751791
 20
-0.12636414170265198
 30
0.1318979263305664
 70
192
 0
VERTEX
 8
0
 10
-0.2208106517791748
 20
-0.05916604772210121
 30
0.10160207748413086
 70
192
 0
VERTEX
 8
0
 10
-0.23547127842903137
 20
-0.0630943551659584
 30
0.11427021026611328
 70
192
 0
VERTEX
 8
0
 10
-0.2050517499446869
 20
-2.4223327343975143e-08
 30
3.0785884857177734
 70
192
 0
VERTEX
 8
0
 10
-0.19806480407714844
 20
0.05307122692465782
 30
3.0785884857177734
 70
192
 0
VERTEX
 8
0
 10
-0.20628231763839722
 20
0.0552731528878212
 30
3.08798885345459
 70
192
 0
VERTEX
 8
0
 10
-0.1849476546049118
 20
0.10677953064441681
 30
3.08798885345459
 70
192
 0
VERTEX
 8
0
 10
-0.11122215539216995
 20
0.1926421821117401
 30
3.111525535583496
 70
192
 0
VERTEX
 8
0
 10
-0.05680539831519127
 20
0.212
 30
3.099198341369629
 70
192
 0
VERTEX
 8
0
 10
0.05307122692465782
 20
0.19806481897830963
 30
3.0785884857177734
 70
192
 0
VERTEX
 8
0
 10
0.1290571093559265
 20
0.1290571093559265
 30
3.0674076080322266
 70
192
 0
VERTEX
 8
0
 10
0.1580621302127838
 20
0.09125707298517227
 30
3.0674076080322266
 70
192
 0
VERTEX
 8
0
 10
0.14298087358474731
 20
0.08254997432231903
 30
3.048002243041992
 70
192
 0
VERTEX
 8
0
 10
0.15334075689315796
 20
0.04108751192688942
 30
3.0373010635375977
 70
192
 0
VERTEX
 8
0
 10
0.15334075689315796
 20
-0.04108753427863121
 30
2.9685916900634766
 70
192
 0
VERTEX
 8
0
 10
0.1539793312549591
 20
-0.0889
 30
2.9665918350219727
 70
192
 0
VERTEX
 8
0
 10
0.1615462601184845
 20
-0.09326881915330887
 30
2.957855224609375
 70
192
 0
VERTEX
 8
0
 10
0.18697494268417358
 20
-0.10795002430677414
 30
0.21821069717407227
 70
192
 0
VERTEX
 8
0
 10
0.17047716677188873
 20
-0.0984250083565712
 30
0.2309103012084961
 70
192
 0
VERTEX
 8
0
 10
0.18697494268417358
 20
-0.10795002430677414
 30
0.1928105354309082
 70
192
 0
VERTEX
 8
0
 10
0.2159
 20
-2.4223327343975143e-08
 30
0.1928105354309082
 70
192
 0
VERTEX
 8
0
 10
0.21997031569480896
 20
0.127
 30
0.1516270637512207
 70
192
 0
VERTEX
 8
0
 10
0.21886897087097168
 20
0.12636394798755646
 30
0.1318979263305664
 70
192
 0
VERTEX
 8
0
 10
0.05916596204042435
 20
0.22081053256988525
 30
0.10160207748413086
 70
192
 0
VERTEX
 8
0
 10
0.05916596204042435
 20
0.1143
 30
0.10160207748413086
 70
192
 0
VERTEX
 8
0
 10
-2.4223327343975143e-08
 20
0.05916596204042435
 30
0.10160207748413086
 70
192
 0
VERTEX
 8
0
 10
-0.05916604772210121
 20
-2.4223327343975143e-08
 30
0.10160207748413086
 70
192
 0
VERTEX
 8
0
 10
-0.1143
 20
-0.05916604772210121
 30
0.10160207748413086
 70
192
 0
VERTEX
 8
0
 10
0.13190190494060516
 20
-0.13190202414989471
 30
2.957855224609375
 70
192
 0
VERTEX
 8
0
 10
0.12572363018989563
 20
-0.12572360038757324
 30
2.9665918350219727
 70
192
 0
VERTEX
 8
0
 10
0.09326879680156708
 20
-0.16154633462429047
 30
2.957855224609375
 70
192
 0
VERTEX
 8
0
 10
0.04108751192688942
 20
-0.15334074199199677
 30
2.9685916900634766
 70
192
 0
VERTEX
 8
0
 10
0.10794997215270996
 20
-0.1869749128818512
 30
0.1928105354309082
 70
192
 0
VERTEX
 8
0
 10
0.04108751192688942
 20
-0.15334074199199677
 30
3.0373010635375977
 70
192
 0
VERTEX
 8
0
 10
-2.4223327343975143e-08
 20
-0.1587500274181366
 30
2.9685916900634766
 70
192
 0
VERTEX
 8
0
 10
0.05587895214557648
 20
-0.20854341983795166
 30
0.1928105354309082
 70
192
 0
VERTEX
 8
0
 10
-2.4223327343975143e-08
 20
-0.23396125435829163
 30
0.1847701072692871
 70
192
 0
VERTEX
 8
0
 10
-2.4223327343975143e-08
 20
-0.1651
 30
3.048002243041992
 70
192
 0
VERTEX
 8
0
 10
-0.042731065303087234
 20
-0.15947437286376953
 30
3.048002243041992
 70
192
 0
VERTEX
 8
0
 10
-0.06402846425771713
 20
-0.23895740509033203
 30
0.1702585220336914
 70
192
 0
VERTEX
 8
0
 10
-0.091257244348526
 20
-0.1580621600151062
 30
3.0547075271606445
 70
192
 0
VERTEX
 8
0
 10
-0.12905722856521606
 20
-0.12905722856521606
 30
3.0547075271606445
 70
192
 0
VERTEX
 8
0
 10
-0.1787058562040329
 20
-0.1787058562040329
 30
0.1318979263305664
 70
192
 0
VERTEX
 8
0
 10
-0.21111775934696198
 20
-0.1218889132142067
 30
0.11427021026611328
 70
192
 0
VERTEX
 8
0
 10
-0.19806480407714844
 20
-0.053071312606334686
 30
3.0785884857177734
 70
192
 0
VERTEX
 8
0
 10
-0.212
 20
0.05680527538061142
 30
3.099198341369629
 70
192
 0
VERTEX
 8
0
 10
-0.19264237582683563
 20
0.11122199147939682
 30
3.111525535583496
 70
192
 0
VERTEX
 8
0
 10
-0.19007448852062225
 20
0.10973940044641495
 30
3.099198341369629
 70
192
 0
VERTEX
 8
0
 10
-0.157169
 20
0.15716905891895294
 30
3.124201774597168
 70
192
 0
VERTEX
 8
0
 10
-0.15729184448719025
 20
0.1572917252779007
 30
3.111525535583496
 70
192
 0
VERTEX
 8
0
 10
-0.19249194860458374
 20
0.11113512516021729
 30
3.124201774597168
 70
192
 0
VERTEX
 8
0
 10
-0.11113528162240982
 20
0.11113512516021729
 30
3.124201774597168
 70
192
 0
VERTEX
 8
0
 10
-0.11113528162240982
 20
0.192491814494133
 30
3.124201774597168
 70
192
 0
VERTEX
 8
0
 10
-0.057572830468416214
 20
0.21486467123031616
 30
3.111525535583496
 70
192
 0
VERTEX
 8
0
 10
-2.4223327343975143e-08
 20
0.21947906911373138
 30
3.099198341369629
 70
192
 0
VERTEX
 8
0
 10
-2.4223327343975143e-08
 20
0.21355907619
 30
3.08798885345459
 70
192
 0
VERTEX
 8
0
 10
0.05680527538061142
 20
0.212
 30
3.099198341369629
 70
192
 0
VERTEX
 8
0
 10
0.10677953064441681
 20
0.18494750559329987
 30
3.08798885345459
 70
192
 0
VERTEX
 8
0
 10
0.10252579301595688
 20
0.17757998406887054
 30
3.0785884857177734
 70
192
 0
VERTEX
 8
0
 10
0.0972423404455185
 20
0.16842888295650482
 30
3.0715837478637695
 70
192
 0
VERTEX
 8
0
 10
0.17629526555538177
 20
0.04723813012242317
 30
3.0547075271606445
 70
192
 0
VERTEX
 8
0
 10
0.15947434306144714
 20
0.042730893939733505
 30
3.048002243041992
 70
192
 0
VERTEX
 8
0
 10
0.15874996781349182
 20
-2.4223327343975143e-08
 30
3.0373010635375977
 70
192
 0
VERTEX
 8
0
 10
0.15947434306144714
 20
-0.042731065303087234
 30
3.048002243041992
 70
192
 0
VERTEX
 8
0
 10
0.13748152554035187
 20
-0.0793750137090683
 30
2.9685916900634766
 70
192
 0
VERTEX
 8
0
 10
0.11225322633981705
 20
-0.11225321143865585
 30
2.9685916900634766
 70
192
 0
VERTEX
 8
0
 10
0.24738681316375732
 20
-2.4223327343975143e-08
 30
0.1702585220336914
 70
192
 0
VERTEX
 8
0
 10
0.23396113514900208
 20
-2.4223327343975143e-08
 30
0.1847701072692871
 70
192
 0
VERTEX
 8
0
 10
0.23895733058452606
 20
0.0640282854437828
 30
0.1702585220336914
 70
192
 0
VERTEX
 8
0
 10
0.254
 20
-2.4223327343975143e-08
 30
0.1516270637512207
 70
192
 0
VERTEX
 8
0
 10
0.24534517526626587
 20
0.06574
 30
0.1516270637512207
 70
192
 0
VERTEX
 8
0
 10
0.24411655962467194
 20
0.0654108077287674
 30
0.1318979263305664
 70
192
 0
VERTEX
 8
0
 10
0.172376811504364
 20
0.172376811504364
 30
0.11427021026611328
 70
192
 0
VERTEX
 8
0
 10
0.17870573699474335
 20
0.17870573699474335
 30
0.1318979263305664
 70
192
 0
VERTEX
 8
0
 10
0.1143
 20
0.19797340035438538
 30
0.10160207748413086
 70
192
 0
VERTEX
 8
0
 10
0.12188897281885147
 20
0.21111765503883362
 30
0.11427021026611328
 70
192
 0
VERTEX
 8
0
 10
0.1616445630788803
 20
0.1616445630788803
 30
0.10160207748413086
 70
192
 0
VERTEX
 8
0
 10
0.1143
 20
0.1143
 30
0.10160207748413086
 70
192
 0
VERTEX
 8
0
 10
0.05916596204042435
 20
0.05916596204042435
 30
0.10160207748413086
 70
192
 0
VERTEX
 8
0
 10
-2.4223327343975143e-08
 20
-2.4223327343975143e-08
 30
0.10160207748413086
 70
192
 0
VERTEX
 8
0
 10
-0.05916604772210121
 20
-0.05916604772210121
 30
0.10160207748413086
 70
192
 0
VERTEX
 8
0
 10
-0.1143
 20
-0.1143
 30
0.10160207748413086
 70
192
 0
VERTEX
 8
0
 10
-0.19797344505786896
 20
-0.1143
 30
0.10160207748413086
 70
192
 0
VERTEX
 8
0
 10
0.1526643931865692
 20
-0.15266437828540802
 30
0.21821069717407227
 70
192
 0
VERTEX
 8
0
 10
0.0793749988079071
 20
-0.13748157024383545
 30
2.9685916900634766
 70
192
 0
VERTEX
 8
0
 10
-2.4223327343975143e-08
 20
-0.1587500274181366
 30
3.0373010635375977
 70
192
 0
VERTEX
 8
0
 10
-2.4223327343975143e-08
 20
-0.254
 30
0.1516270637512207
 70
192
 0
VERTEX
 8
0
 10
-2.4223327343975143e-08
 20
-0.2473869025707245
 30
0.1702585220336914
 70
192
 0
VERTEX
 8
0
 10
-0.04723822697997093
 20
-0.1762954294681549
 30
3.0674076080322266
 70
192
 0
VERTEX
 8
0
 10
-0.091257244348526
 20
-0.1580621600151062
 30
3.0674076080322266
 70
192
 0
VERTEX
 8
0
 10
-0.12636414170265198
 20
-0.2188690751791
 30
0.1318979263305664
 70
192
 0
VERTEX
 8
0
 10
-0.1375216245651245
 20
-0.1375216245651245
 30
3.0715837478637695
 70
192
 0
VERTEX
 8
0
 10
-0.17237694561481476
 20
-0.17237694561481476
 30
0.11427021026611328
 70
192
 0
VERTEX
 8
0
 10
-0.17758002877235413
 20
-0.10252589732408524
 30
3.0785884857177734
 70
192
 0
VERTEX
 8
0
 10
-0.20628231763839722
 20
-0.055273186415433884
 30
3.08798885345459
 70
192
 0
VERTEX
 8
0
 10
-0.21355915069580078
 20
-2.4223327343975143e-08
 30
3.08798885345459
 70
192
 0
VERTEX
 8
0
 10
-0.21486467123031616
 20
0.0575728677213192
 30
3.111525535583496
 70
192
 0
VERTEX
 8
0
 10
-0.21469685435295105
 20
0.05752790719270706
 30
3.124201774597168
 70
192
 0
VERTEX
 8
0
 10
-0.11113528162240982
 20
0.05752790719270706
 30
3.124201774597168
 70
192
 0
VERTEX
 8
0
 10
-0.05752786993980408
 20
0.11113512516021729
 30
3.124201774597168
 70
192
 0
VERTEX
 8
0
 10
-0.05752786993980408
 20
0.2146967500448227
 30
3.124201774597168
 70
192
 0
VERTEX
 8
0
 10
-2.4223327343975143e-08
 20
0.22227051854133606
 30
3.124201774597168
 70
192
 0
VERTEX
 8
0
 10
-2.4223327343975143e-08
 20
0.2224442958831787
 30
3.111525535583496
 70
192
 0
VERTEX
 8
0
 10
0.0552731528878212
 20
0.20628224313259125
 30
3.08798885345459
 70
192
 0
VERTEX
 8
0
 10
0.15100906789302826
 20
0.15100906789302826
 30
3.08798885345459
 70
192
 0
VERTEX
 8
0
 10
0.1375216692686081
 20
0.1375216692686081
 30
3.0715837478637695
 70
192
 0
VERTEX
 8
0
 10
0.14499333500862122
 20
0.14499333500862122
 30
3.0785884857177734
 70
192
 0
VERTEX
 8
0
 10
0.16842888295650482
 20
0.0972423404455185
 30
3.0715837478637695
 70
192
 0
VERTEX
 8
0
 10
0.18785783648490906
 20
0.05033641308546066
 30
3.0715837478637695
 70
192
 0
VERTEX
 8
0
 10
0.17629526555538177
 20
0.04723813012242317
 30
3.0674076080322266
 70
192
 0
VERTEX
 8
0
 10
0.18251445889472961
 20
-2.4223327343975143e-08
 30
3.0674076080322266
 70
192
 0
VERTEX
 8
0
 10
0.1651
 20
-2.4223327343975143e-08
 30
3.048002243041992
 70
192
 0
VERTEX
 8
0
 10
0.18251445889472961
 20
-2.4223327343975143e-08
 30
3.0547075271606445
 70
192
 0
VERTEX
 8
0
 10
0.15334075689315796
 20
-0.04108753427863121
 30
3.0373010635375977
 70
192
 0
VERTEX
 8
0
 10
0.13748152554035187
 20
-0.0793750137090683
 30
3.0373010635375977
 70
192
 0
VERTEX
 8
0
 10
0.20261628925800323
 20
-0.11698063462972641
 30
0.1847701072692871
 70
192
 0
VERTEX
 8
0
 10
0.23895733058452606
 20
-0.06402846425771713
 30
0.1702585220336914
 70
192
 0
VERTEX
 8
0
 10
0.22598908841609955
 20
-0.0605536550283432
 30
0.1847701072692871
 70
192
 0
VERTEX
 8
0
 10
0.21111765503883362
 20
0.12188897281885147
 30
0.11427021026611328
 70
192
 0
VERTEX
 8
0
 10
0.19797340035438538
 20
0.1143
 30
0.10160207748413086
 70
192
 0
VERTEX
 8
0
 10
0.1143
 20
0.05916596204042435
 30
0.10160207748413086
 70
192
 0
VERTEX
 8
0
 10
0.05916596204042435
 20
-2.4223327343975143e-08
 30
0.10160207748413086
 70
192
 0
VERTEX
 8
0
 10
-2.4223327343975143e-08
 20
-0.05916604772210121
 30
0.10160207748413086
 70
192
 0
VERTEX
 8
0
 10
-0.05916604772210121
 20
-0.1143
 30
0.10160207748413086
 70
192
 0
VERTEX
 8
0
 10
-0.16164463758468628
 20
-0.16164463758468628
 30
0.10160207748413086
 70
192
 0
VERTEX
 8
0
 10
0.1526643931865692
 20
-0.15266437828540802
 30
0.1928105354309082
 70
192
 0
VERTEX
 8
0
 10
0.1169806718826294
 20
-0.2026163786649704
 30
0.1847701072692871
 70
192
 0
VERTEX
 8
0
 10
0.08254997432231903
 20
-0.14298081398010254
 30
3.048002243041992
 70
192
 0
VERTEX
 8
0
 10
0.042730893939733505
 20
-0.15947437286376953
 30
3.048002243041992
 70
192
 0
VERTEX
 8
0
 10
0.060553595423698425
 20
-0.2259892076253891
 30
0.1847701072692871
 70
192
 0
VERTEX
 8
0
 10
0.04723813012242317
 20
-0.1762954294681549
 30
3.0547075271606445
 70
192
 0
VERTEX
 8
0
 10
0.06574
 20
-0.24534517526626587
 30
0.1516270637512207
 70
192
 0
VERTEX
 8
0
 10
-2.4223327343975143e-08
 20
-0.18251445889472961
 30
3.0547075271606445
 70
192
 0
VERTEX
 8
0
 10
-2.4223327343975143e-08
 20
-0.18251445889472961
 30
3.0674076080322266
 70
192
 0
VERTEX
 8
0
 10
-0.04723822697997093
 20
-0.1762954294681549
 30
3.0547075271606445
 70
192
 0
VERTEX
 8
0
 10
-2.4223327343975143e-08
 20
-0.25272825360298157
 30
0.1318979263305664
 70
192
 0
VERTEX
 8
0
 10
-0.06574004888534546
 20
-0.24534517526626587
 30
0.1516270637512207
 70
192
 0
VERTEX
 8
0
 10
-0.05033641308546066
 20
-0.187858
 30
3.0715837478637695
 70
192
 0
VERTEX
 8
0
 10
-0.09724247455596924
 20
-0.16842888295650482
 30
3.0715837478637695
 70
192
 0
VERTEX
 8
0
 10
-0.1143
 20
-0.19797344505786896
 30
0.10160207748413086
 70
192
 0
VERTEX
 8
0
 10
-0.1218889132142067
 20
-0.21111775934696198
 30
0.11427021026611328
 70
192
 0
VERTEX
 8
0
 10
-0.1849476546049118
 20
-0.10677959769964218
 30
3.08798885345459
 70
192
 0
VERTEX
 8
0
 10
-0.19007448852062225
 20
-0.10973957926034927
 30
3.099198341369629
 70
192
 0
VERTEX
 8
0
 10
-0.212
 20
-0.05680539831519127
 30
3.099198341369629
 70
192
 0
VERTEX
 8
0
 10
-0.21947914361953735
 20
-2.4223327343975143e-08
 30
3.099198341369629
 70
192
 0
VERTEX
 8
0
 10
-0.22244426608085632
 20
-2.4223327343975143e-08
 30
3.111525535583496
 70
192
 0
VERTEX
 8
0
 10
-0.11113528162240982
 20
-2.4223327343975143e-08
 30
3.124201774597168
 70
192
 0
VERTEX
 8
0
 10
-0.05752786993980408
 20
0.05752790719270706
 30
3.124201774597168
 70
192
 0
VERTEX
 8
0
 10
-2.4223327343975143e-08
 20
0.11113512516021729
 30
3.124201774597168
 70
192
 0
VERTEX
 8
0
 10
0.05752790719270706
 20
0.2146967500448227
 30
3.124201774597168
 70
192
 0
VERTEX
 8
0
 10
0.0575728677213192
 20
0.21486467123031616
 30
3.111525535583496
 70
192
 0
VERTEX
 8
0
 10
0.10973940044641495
 20
0.19007451832294464
 30
3.099198341369629
 70
192
 0
VERTEX
 8
0
 10
0.18494750559329987
 20
0.10677953064441681
 30
3.08798885345459
 70
192
 0
VERTEX
 8
0
 10
0.17757998406887054
 20
0.10252579301595688
 30
3.0785884857177734
 70
192
 0
VERTEX
 8
0
 10
0.17629526555538177
 20
-0.04723822697997093
 30
3.0674076080322266
 70
192
 0
VERTEX
 8
0
 10
0.17629526555538177
 20
-0.04723822697997093
 30
3.0547075271606445
 70
192
 0
VERTEX
 8
0
 10
0.14298087358474731
 20
-0.08255002647638321
 30
3.048002243041992
 70
192
 0
VERTEX
 8
0
 10
0.16543550789356232
 20
-0.1654355823993683
 30
0.1847701072692871
 70
192
 0
VERTEX
 8
0
 10
0.21424338221549988
 20
-0.12369348108768463
 30
0.1702585220336914
 70
192
 0
VERTEX
 8
0
 10
0.23547115921974182
 20
0.06309433281421661
 30
0.11427021026611328
 70
192
 0
VERTEX
 8
0
 10
0.1143
 20
-2.4223327343975143e-08
 30
0.10160207748413086
 70
192
 0
VERTEX
 8
0
 10
0.05916596204042435
 20
-0.05916604772210121
 30
0.10160207748413086
 70
192
 0
VERTEX
 8
0
 10
-2.4223327343975143e-08
 20
-0.1143
 30
0.10160207748413086
 70
192
 0
VERTEX
 8
0
 10
-0.05916604772210121
 20
-0.2208106517791748
 30
0.10160207748413086
 70
192
 0
VERTEX
 8
0
 10
0.11225322633981705
 20
-0.11225321143865585
 30
3.0373010635375977
 70
192
 0
VERTEX
 8
0
 10
0.0793749988079071
 20
-0.13748157024383545
 30
3.0373010635375977
 70
192
 0
VERTEX
 8
0
 10
0.12369339168071747
 20
-0.21424336731433868
 30
0.1702585220336914
 70
192
 0
VERTEX
 8
0
 10
0.0640282854437828
 20
-0.23895740509033203
 30
0.1702585220336914
 70
192
 0
VERTEX
 8
0
 10
-0.06541088968515396
 20
-0.24411673843860626
 30
0.1318979263305664
 70
192
 0
VERTEX
 8
0
 10
-0.053071312606334686
 20
-0.19806480407714844
 30
3.0785884857177734
 70
192
 0
VERTEX
 8
0
 10
-0.10252589732408524
 20
-0.17758002877235413
 30
3.0785884857177734
 70
192
 0
VERTEX
 8
0
 10
-0.10677959769964218
 20
-0.1849476546049118
 30
3.08798885345459
 70
192
 0
VERTEX
 8
0
 10
-0.15100914239883423
 20
-0.15100914239883423
 30
3.08798885345459
 70
192
 0
VERTEX
 8
0
 10
-0.14499351382255554
 20
-0.14499351382255554
 30
3.0785884857177734
 70
192
 0
VERTEX
 8
0
 10
-0.1551951915025711
 20
-0.1551951915025711
 30
3.099198341369629
 70
192
 0
VERTEX
 8
0
 10
-0.19264237582683563
 20
-0.11122215539216995
 30
3.111525535583496
 70
192
 0
VERTEX
 8
0
 10
-0.22227053344249725
 20
-2.4223327343975143e-08
 30
3.124201774597168
 70
192
 0
VERTEX
 8
0
 10
-0.11113528162240982
 20
-0.05752786993980408
 30
3.124201774597168
 70
192
 0
VERTEX
 8
0
 10
-0.05752786993980408
 20
-2.4223327343975143e-08
 30
3.124201774597168
 70
192
 0
VERTEX
 8
0
 10
-2.4223327343975143e-08
 20
0.05752790719270706
 30
3.124201774597168
 70
192
 0
VERTEX
 8
0
 10
0.05752790719270706
 20
0.11113512516021729
 30
3.124201774597168
 70
192
 0
VERTEX
 8
0
 10
0.15519525110721588
 20
0.15519525110721588
 30
3.099198341369629
 70
192
 0
VERTEX
 8
0
 10
0.19448494911193848
 20
-2.4223327343975143e-08
 30
3.0715837478637695
 70
192
 0
VERTEX
 8
0
 10
0.18785783648490906
 20
-0.05033641308546066
 30
3.0715837478637695
 70
192
 0
VERTEX
 8
0
 10
0.1580621302127838
 20
-0.091257244348526
 30
3.0674076080322266
 70
192
 0
VERTEX
 8
0
 10
0.1580621302127838
 20
-0.091257244348526
 30
3.0547075271606445
 70
192
 0
VERTEX
 8
0
 10
0.1290571093559265
 20
-0.12905722856521606
 30
3.0547075271606445
 70
192
 0
VERTEX
 8
0
 10
0.21997031569480896
 20
-0.127
 30
0.1516270637512207
 70
192
 0
VERTEX
 8
0
 10
0.1796051412820816
 20
-0.1796051412820816
 30
0.1516270637512207
 70
192
 0
VERTEX
 8
0
 10
0.24534517526626587
 20
-0.06574004888534546
 30
0.1516270637512207
 70
192
 0
VERTEX
 8
0
 10
0.2527281939983368
 20
-2.4223327343975143e-08
 30
0.1318979263305664
 70
192
 0
VERTEX
 8
0
 10
0.22081053256988525
 20
0.05916596204042435
 30
0.10160207748413086
 70
192
 0
VERTEX
 8
0
 10
0.2286
 20
-2.4223327343975143e-08
 30
0.10160207748413086
 70
192
 0
VERTEX
 8
0
 10
0.1143
 20
-0.05916604772210121
 30
0.10160207748413086
 70
192
 0
VERTEX
 8
0
 10
0.05916596204042435
 20
-0.1143
 30
0.10160207748413086
 70
192
 0
VERTEX
 8
0
 10
0.11674318462610245
 20
-0.11674334853887558
 30
3.048002243041992
 70
192
 0
VERTEX
 8
0
 10
0.09125707298517227
 20
-0.1580621600151062
 30
3.0547075271606445
 70
192
 0
VERTEX
 8
0
 10
0.17492902278900146
 20
-0.17492897808551788
 30
0.1702585220336914
 70
192
 0
VERTEX
 8
0
 10
0.12636394798755646
 20
-0.2188690751791
 30
0.1318979263305664
 70
192
 0
VERTEX
 8
0
 10
0.0654108077287674
 20
-0.24411673843860626
 30
0.1318979263305664
 70
192
 0
VERTEX
 8
0
 10
0.04723813012242317
 20
-0.1762954294681549
 30
3.0674076080322266
 70
192
 0
VERTEX
 8
0
 10
-2.4223327343975143e-08
 20
-0.19448493421077728
 30
3.0715837478637695
 70
192
 0
VERTEX
 8
0
 10
-2.4223327343975143e-08
 20
-0.2050517499446869
 30
3.0785884857177734
 70
192
 0
VERTEX
 8
0
 10
-2.4223327343975143e-08
 20
-0.2286
 30
0.10160207748413086
 70
192
 0
VERTEX
 8
0
 10
-0.0630943551659584
 20
-0.23547127842903137
 30
0.11427021026611328
 70
192
 0
VERTEX
 8
0
 10
-0.10973957926034927
 20
-0.19007448852062225
 30
3.099198341369629
 70
192
 0
VERTEX
 8
0
 10
-0.21469685435295105
 20
-0.05752786993980408
 30
3.124201774597168
 70
192
 0
VERTEX
 8
0
 10
-0.21486467123031616
 20
-0.057572830468416214
 30
3.111525535583496
 70
192
 0
VERTEX
 8
0
 10
-0.19249194860458374
 20
-0.11113528162240982
 30
3.124201774597168
 70
192
 0
VERTEX
 8
0
 10
-0.11113528162240982
 20
-0.11113528162240982
 30
3.124201774597168
 70
192
 0
VERTEX
 8
0
 10
-0.05752786993980408
 20
-0.05752786993980408
 30
3.124201774597168
 70
192
 0
VERTEX
 8
0
 10
-2.4223327343975143e-08
 20
-2.4223327343975143e-08
 30
3.124201774597168
 70
192
 0
VERTEX
 8
0
 10
0.05752790719270706
 20
0.05752790719270706
 30
3.124201774597168
 70
192
 0
VERTEX
 8
0
 10
0.11113512516021729
 20
0.11113512516021729
 30
3.124201774597168
 70
192
 0
VERTEX
 8
0
 10
0.11122199147939682
 20
0.1926421821117401
 30
3.111525535583496
 70
192
 0
VERTEX
 8
0
 10
0.11113512516021729
 20
0.192491814494133
 30
3.124201774597168
 70
192
 0
VERTEX
 8
0
 10
0.1572917252779007
 20
0.1572917252779007
 30
3.111525535583496
 70
192
 0
VERTEX
 8
0
 10
0.19007451832294464
 20
0.10973940044641495
 30
3.099198341369629
 70
192
 0
VERTEX
 8
0
 10
0.19806481897830963
 20
0.05307122692465782
 30
3.0785884857177734
 70
192
 0
VERTEX
 8
0
 10
0.21886897087097168
 20
-0.12636414170265198
 30
0.1318979263305664
 70
192
 0
VERTEX
 8
0
 10
0.24411655962467194
 20
-0.06541088968515396
 30
0.1318979263305664
 70
192
 0
VERTEX
 8
0
 10
0.24377772212028503
 20
-2.4223327343975143e-08
 30
0.11427021026611328
 70
192
 0
VERTEX
 8
0
 10
0.22081053256988525
 20
-0.05916604772210121
 30
0.10160207748413086
 70
192
 0
VERTEX
 8
0
 10
0.1143
 20
-0.1143
 30
0.10160207748413086
 70
192
 0
VERTEX
 8
0
 10
0.05916596204042435
 20
-0.2208106517791748
 30
0.10160207748413086
 70
192
 0
VERTEX
 8
0
 10
0.127
 20
-0.2199704796075821
 30
0.1516270637512207
 70
192
 0
VERTEX
 8
0
 10
0.09125707298517227
 20
-0.1580621600151062
 30
3.0674076080322266
 70
192
 0
VERTEX
 8
0
 10
0.05033641308546066
 20
-0.187858
 30
3.0715837478637695
 70
192
 0
VERTEX
 8
0
 10
-2.4223327343975143e-08
 20
-0.243777796626091
 30
0.11427021026611328
 70
192
 0
VERTEX
 8
0
 10
-2.4223327343975143e-08
 20
-0.21355915069580078
 30
3.08798885345459
 70
192
 0
VERTEX
 8
0
 10
-0.157169
 20
-0.157169
 30
3.124201774597168
 70
192
 0
VERTEX
 8
0
 10
-0.05752786993980408
 20
-0.11113528162240982
 30
3.124201774597168
 70
192
 0
VERTEX
 8
0
 10
-2.4223327343975143e-08
 20
-0.05752786993980408
 30
3.124201774597168
 70
192
 0
VERTEX
 8
0
 10
0.05752790719270706
 20
-2.4223327343975143e-08
 30
3.124201774597168
 70
192
 0
VERTEX
 8
0
 10
0.11113512516021729
 20
0.05752790719270706
 30
3.124201774597168
 70
192
 0
VERTEX
 8
0
 10
0.15716905891895294
 20
0.15716905891895294
 30
3.124201774597168
 70
192
 0
VERTEX
 8
0
 10
0.192491814494133
 20
0.11113512516021729
 30
3.124201774597168
 70
192
 0
VERTEX
 8
0
 10
0.1926421821117401
 20
0.11122199147939682
 30
3.111525535583496
 70
192
 0
VERTEX
 8
0
 10
0.20628224313259125
 20
0.0552731528878212
 30
3.08798885345459
 70
192
 0
VERTEX
 8
0
 10
0.212
 20
0.05680527538061142
 30
3.099198341369629
 70
192
 0
VERTEX
 8
0
 10
0.21947906911373138
 20
-2.4223327343975143e-08
 30
3.099198341369629
 70
192
 0
VERTEX
 8
0
 10
0.21355907619
 20
-2.4223327343975143e-08
 30
3.08798885345459
 70
192
 0
VERTEX
 8
0
 10
0.20505160093307495
 20
-2.4223327343975143e-08
 30
3.0785884857177734
 70
192
 0
VERTEX
 8
0
 10
0.19806481897830963
 20
-0.053071312606334686
 30
3.0785884857177734
 70
192
 0
VERTEX
 8
0
 10
0.17757998406887054
 20
-0.10252589732408524
 30
3.0785884857177734
 70
192
 0
VERTEX
 8
0
 10
0.1375216692686081
 20
-0.1375216245651245
 30
3.0715837478637695
 70
192
 0
VERTEX
 8
0
 10
0.17870573699474335
 20
-0.1787058562040329
 30
0.1318979263305664
 70
192
 0
VERTEX
 8
0
 10
0.23547115921974182
 20
-0.0630943551659584
 30
0.11427021026611328
 70
192
 0
VERTEX
 8
0
 10
0.19797340035438538
 20
-0.1143
 30
0.10160207748413086
 70
192
 0
VERTEX
 8
0
 10
0.1290571093559265
 20
-0.12905722856521606
 30
3.0674076080322266
 70
192
 0
VERTEX
 8
0
 10
0.1143
 20
-0.19797344505786896
 30
0.10160207748413086
 70
192
 0
VERTEX
 8
0
 10
0.12188897281885147
 20
-0.21111775934696198
 30
0.11427021026611328
 70
192
 0
VERTEX
 8
0
 10
0.06309433281421661
 20
-0.23547127842903137
 30
0.11427021026611328
 70
192
 0
VERTEX
 8
0
 10
-2.4223327343975143e-08
 20
-0.21947914361953735
 30
3.099198341369629
 70
192
 0
VERTEX
 8
0
 10
-0.055273186415433884
 20
-0.20628231763839722
 30
3.08798885345459
 70
192
 0
VERTEX
 8
0
 10
-0.05680539831519127
 20
-0.212
 30
3.099198341369629
 70
192
 0
VERTEX
 8
0
 10
-0.11113528162240982
 20
-0.19249194860458374
 30
3.124201774597168
 70
192
 0
VERTEX
 8
0
 10
-0.15729184448719025
 20
-0.15729184448719025
 30
3.111525535583496
 70
192
 0
VERTEX
 8
0
 10
-0.05752786993980408
 20
-0.21469685435295105
 30
3.124201774597168
 70
192
 0
VERTEX
 8
0
 10
-2.4223327343975143e-08
 20
-0.11113528162240982
 30
3.124201774597168
 70
192
 0
VERTEX
 8
0
 10
0.05752790719270706
 20
-0.05752786993980408
 30
3.124201774597168
 70
192
 0
VERTEX
 8
0
 10
0.11113512516021729
 20
-2.4223327343975143e-08
 30
3.124201774597168
 70
192
 0
VERTEX
 8
0
 10
0.2146967500448227
 20
0.05752790719270706
 30
3.124201774597168
 70
192
 0
VERTEX
 8
0
 10
0.2224442958831787
 20
-2.4223327343975143e-08
 30
3.111525535583496
 70
192
 0
VERTEX
 8
0
 10
0.20628224313259125
 20
-0.055273186415433884
 30
3.08798885345459
 70
192
 0
VERTEX
 8
0
 10
0.16842888295650482
 20
-0.09724247455596924
 30
3.0715837478637695
 70
192
 0
VERTEX
 8
0
 10
0.14499333500862122
 20
-0.14499351382255554
 30
3.0785884857177734
 70
192
 0
VERTEX
 8
0
 10
0.21111765503883362
 20
-0.1218889132142067
 30
0.11427021026611328
 70
192
 0
VERTEX
 8
0
 10
0.1616445630788803
 20
-0.16164463758468628
 30
0.10160207748413086
 70
192
 0
VERTEX
 8
0
 10
0.0972423404455185
 20
-0.16842888295650482
 30
3.0715837478637695
 70
192
 0
VERTEX
 8
0
 10
0.172376811504364
 20
-0.17237694561481476
 30
0.11427021026611328
 70
192
 0
VERTEX
 8
0
 10
0.05307122692465782
 20
-0.19806480407714844
 30
3.0785884857177734
 70
192
 0
VERTEX
 8
0
 10
-0.11122215539216995
 20
-0.19264237582683563
 30
3.111525535583496
 70
192
 0
VERTEX
 8
0
 10
-2.4223327343975143e-08
 20
-0.22227053344249725
 30
3.124201774597168
 70
192
 0
VERTEX
 8
0
 10
0.05752790719270706
 20
-0.11113528162240982
 30
3.124201774597168
 70
192
 0
VERTEX
 8
0
 10
0.11113512516021729
 20
-0.05752786993980408
 30
3.124201774597168
 70
192
 0
VERTEX
 8
0
 10
0.22227051854133606
 20
-2.4223327343975143e-08
 30
3.124201774597168
 70
192
 0
VERTEX
 8
0
 10
0.21486467123031616
 20
0.0575728677213192
 30
3.111525535583496
 70
192
 0
VERTEX
 8
0
 10
0.21486467123031616
 20
-0.057572830468416214
 30
3.111525535583496
 70
192
 0
VERTEX
 8
0
 10
0.212
 20
-0.05680539831519127
 30
3.099198341369629
 70
192
 0
VERTEX
 8
0
 10
0.18494750559329987
 20
-0.10677959769964218
 30
3.08798885345459
 70
192
 0
VERTEX
 8
0
 10
0.15100906789302826
 20
-0.15100914239883423
 30
3.08798885345459
 70
192
 0
VERTEX
 8
0
 10
0.10252579301595688
 20
-0.17758002877235413
 30
3.0785884857177734
 70
192
 0
VERTEX
 8
0
 10
0.05680527538061142
 20
-0.212
 30
3.099198341369629
 70
192
 0
VERTEX
 8
0
 10
0.0552731528878212
 20
-0.20628231763839722
 30
3.08798885345459
 70
192
 0
VERTEX
 8
0
 10
0.0575728677213192
 20
-0.21486467123031616
 30
3.111525535583496
 70
192
 0
VERTEX
 8
0
 10
-0.057572830468416214
 20
-0.21486467123031616
 30
3.111525535583496
 70
192
 0
VERTEX
 8
0
 10
0.05752790719270706
 20
-0.21469685435295105
 30
3.124201774597168
 70
192
 0
VERTEX
 8
0
 10
0.11113512516021729
 20
-0.11113528162240982
 30
3.124201774597168
 70
192
 0
VERTEX
 8
0
 10
0.2146967500448227
 20
-0.05752786993980408
 30
3.124201774597168
 70
192
 0
VERTEX
 8
0
 10
0.1926421821117401
 20
-0.11122215539216995
 30
3.111525535583496
 70
192
 0
VERTEX
 8
0
 10
0.19007451832294464
 20
-0.10973957926034927
 30
3.099198341369629
 70
192
 0
VERTEX
 8
0
 10
0.10677953064441681
 20
-0.1849476546049118
 30
3.08798885345459
 70
192
 0
VERTEX
 8
0
 10
-2.4223327343975143e-08
 20
-0.22244426608085632
 30
3.111525535583496
 70
192
 0
VERTEX
 8
0
 10
0.192491814494133
 20
-0.11113528162240982
 30
3.124201774597168
 70
192
 0
VERTEX
 8
0
 10
0.15519525110721588
 20
-0.1551951915025711
 30
3.099198341369629
 70
192
 0
VERTEX
 8
0
 10
0.11122199147939682
 20
-0.19264237582683563
 30
3.111525535583496
 70
192
 0
VERTEX
 8
0
 10
0.10973940044641495
 20
-0.19007448852062225
 30
3.099198341369629
 70
192
 0
VERTEX
 8
0
 10
0.15716905891895294
 20
-0.157169
 30
3.124201774597168
 70
192
 0
VERTEX
 8
0
 10
0.1572917252779007
 20
-0.15729184448719025
 30
3.111525535583496
 70
192
 0
VERTEX
 8
0
 10
0.11113512516021729
 20
-0.19249194860458374
 30
3.124201774597168
 70
192
 0
VERTEX
 8
0
 10
0.0
 20
0.0
 30
0.0
 70
128
 71
1
 72
2
 73
6
 74
9
 0
VERTEX
 8
0
 10
0.0
 20
0.0
 30
0.0
 70
128
 71
2
 72
1
 73
16
 74
3
 0
VERTEX
 8
0
 10
0.0
 20
0.0
 30
0.0
 70
128
 71
2
 72
4
 73
7
 74
6
 0
VERTEX
 8
0
 10
0.0
 20
0.0
 30
0.0
 70
128
 71
9
 72
6
 73
8
 74
10
 0
VERTEX
 8
0
 10
0.0
 20
0.0
 30
0.0
 70
128
 71
5
 72
1
 73
9
 74
23
 0
VERTEX
 8
0
 10
0.0
 20
0.0
 30
0.0
 70
128
 71
28
 72
14
 73
3
 74
16
 0
VERTEX
 8
0
 10
0.0
 20
0.0
 30
0.0
 70
128
 71
3
 72
15
 73
4
 74
2
 0
VERTEX
 8
0
 10
0.0
 20
0.0
 30
0.0
 70
128
 71
1
 72
5
 73
18
 74
16
 0
VERTEX
 8
0
 10
0.0
 20
0.0
 30
0.0
 70
128
 71
4
 72
19
 73
20
 74
7
 0
VERTEX
 8
0
 10
0.0
 20
0.0
 30
0.0
 70
128
 71
6
 72
7
 73
36
 74
8
 0
VERTEX
 8
0
 10
0.0
 20
0.0
 30
0.0
 70
128
 71
10
 72
8
 73
38
 74
22
 0
VERTEX
 8
0
 10
0.0
 20
0.0
 30
0.0
 70
128
 71
23
 72
9
 73
10
 74
11
 0
VERTEX
 8
0
 10
0.0
 20
0.0
 30
0.0
 70
128
 71
33
 72
5
 73
23
 74
43
 0
VERTEX
 8
0
 10
0.0
 20
0.0
 30
0.0
 70
128
 71
12
 72
13
 73
14
 74
28
 0
VERTEX
 8
0
 10
0.0
 20
0.0
 30
0.0
 70
128
 71
14
 72
30
 73
15
 74
3
 0
VERTEX
 8
0
 10
0.0
 20
0.0
 30
0.0
 70
128
 71
29
 72
28
 73
16
 74
18
 0
VERTEX
 8
0
 10
0.0
 20
0.0
 30
0.0
 70
128
 71
15
 72
47
 73
19
 74
4
 0
VERTEX
 8
0
 10
0.0
 20
0.0
 30
0.0
 70
128
 71
17
 72
18
 73
5
 74
33
 0
VERTEX
 8
0
 10
0.0
 20
0.0
 30
0.0
 70
128
 71
19
 72
48
 73
35
 74
20
 0
VERTEX
 8
0
 10
0.0
 20
0.0
 30
0.0
 70
128
 71
7
 72
20
 73
37
 74
36
 0
VERTEX
 8
0
 10
0.0
 20
0.0
 30
0.0
 70
128
 71
8
 72
36
 73
53
 74
38
 0
VERTEX
 8
0
 10
0.0
 20
0.0
 30
0.0
 70
128
 71
22
 72
38
 73
21
 74
41
 0
VERTEX
 8
0
 10
0.0
 20
0.0
 30
0.0
 70
128
 71
11
 72
10
 73
22
 74
40
 0
VERTEX
 8
0
 10
0.0
 20
0.0
 30
0.0
 70
128
 71
43
 72
23
 73
11
 74
42
 0
VERTEX
 8
0
 10
0.0
 20
0.0
 30
0.0
 70
128
 71
24
 72
33
 73
43
 74
25
 0
VERTEX
 8
0
 10
0.0
 20
0.0
 30
0.0
 70
128
 71
26
 72
27
 73
13
 74
12
 0
VERTEX
 8
0
 10
0.0
 20
0.0
 30
0.0
 70
128
 71
13
 72
68
 73
30
 74
14
 0
VERTEX
 8
0
 10
0.0
 20
0.0
 30
0.0
 70
128
 71
71
 72
12
 73
28
 74
29
 0
VERTEX
 8
0
 10
0.0
 20
0.0
 30
0.0
 70
128
 71
30
 72
44
 73
47
 74
15
 0
VERTEX
 8
0
 10
0.0
 20
0.0
 30
0.0
 70
128
 71
45
 72
29
 73
18
 74
17
 0
VERTEX
 8
0
 10
0.0
 20
0.0
 30
0.0
 70
128
 71
47
 72
31
 73
48
 74
19
 0
VERTEX
 8
0
 10
0.0
 20
0.0
 30
0.0
 70
128
 71
32
 72
17
 73
33
 74
24
 0
VERTEX
 8
0
 10
0.0
 20
0.0
 30
0.0
 70
128
 71
35
 72
48
 73
34
 74
50
 0
VERTEX
 8
0
 10
0.0
 20
0.0
 30
0.0
 70
128
 71
20
 72
35
 73
51
 74
37
 0
VERTEX
 8
0
 10
0.0
 20
0.0
 30
0.0
 70
128
 71
36
 72
37
 73
54
 74
53
 0
VERTEX
 8
0
 10
0.0
 20
0.0
 30
0.0
 70
128
 71
38
 72
53
 73
39
 74
21
 0
VERTEX
 8
0
 10
0.0
 20
0.0
 30
0.0
 70
128
 71
41
 72
21
 73
57
 74
58
 0
VERTEX
 8
0
 10
0.0
 20
0.0
 30
0.0
 70
128
 71
40
 72
22
 73
41
 74
59
 0
VERTEX
 8
0
 10
0.0
 20
0.0
 30
0.0
 70
128
 71
42
 72
11
 73
40
 74
61
 0
VERTEX
 8
0
 10
0.0
 20
0.0
 30
0.0
 70
128
 71
25
 72
43
 73
42
 74
62
 0
VERTEX
 8
0
 10
0.0
 20
0.0
 30
0.0
 70
128
 71
64
 72
24
 73
25
 74
63
 0
VERTEX
 8
0
 10
0.0
 20
0.0
 30
0.0
 70
128
 71
90
 72
66
 73
27
 74
26
 0
VERTEX
 8
0
 10
0.0
 20
0.0
 30
0.0
 70
128
 71
27
 72
92
 73
68
 74
13
 0
VERTEX
 8
0
 10
0.0
 20
0.0
 30
0.0
 70
128
 71
70
 72
26
 73
12
 74
71
 0
VERTEX
 8
0
 10
0.0
 20
0.0
 30
0.0
 70
128
 71
68
 72
67
 73
44
 74
30
 0
VERTEX
 8
0
 10
0.0
 20
0.0
 30
0.0
 70
128
 71
96
 72
71
 73
29
 74
45
 0
VERTEX
 8
0
 10
0.0
 20
0.0
 30
0.0
 70
128
 71
44
 72
46
 73
31
 74
47
 0
VERTEX
 8
0
 10
0.0
 20
0.0
 30
0.0
 70
128
 71
73
 72
45
 73
17
 74
32
 0
VERTEX
 8
0
 10
0.0
 20
0.0
 30
0.0
 70
128
 71
48
 72
31
 73
75
 74
34
 0
VERTEX
 8
0
 10
0.0
 20
0.0
 30
0.0
 70
128
 71
74
 72
32
 73
24
 74
64
 0
VERTEX
 8
0
 10
0.0
 20
0.0
 30
0.0
 70
128
 71
34
 72
76
 73
49
 74
50
 0
VERTEX
 8
0
 10
0.0
 20
0.0
 30
0.0
 70
128
 71
51
 72
35
 73
50
 74
79
 0
VERTEX
 8
0
 10
0.0
 20
0.0
 30
0.0
 70
128
 71
37
 72
51
 73
52
 74
54
 0
VERTEX
 8
0
 10
0.0
 20
0.0
 30
0.0
 70
128
 71
53
 72
54
 73
55
 74
39
 0
VERTEX
 8
0
 10
0.0
 20
0.0
 30
0.0
 70
128
 71
21
 72
39
 73
56
 74
57
 0
VERTEX
 8
0
 10
0.0
 20
0.0
 30
0.0
 70
128
 71
58
 72
57
 73
110
 74
81
 0
VERTEX
 8
0
 10
0.0
 20
0.0
 30
0.0
 70
128
 71
59
 72
41
 73
58
 74
60
 0
VERTEX
 8
0
 10
0.0
 20
0.0
 30
0.0
 70
128
 71
61
 72
40
 73
59
 74
84
 0
VERTEX
 8
0
 10
0.0
 20
0.0
 30
0.0
 70
128
 71
62
 72
42
 73
61
 74
83
 0
VERTEX
 8
0
 10
0.0
 20
0.0
 30
0.0
 70
128
 71
63
 72
25
 73
62
 74
86
 0
VERTEX
 8
0
 10
0.0
 20
0.0
 30
0.0
 70
128
 71
88
 72
64
 73
63
 74
89
 0
VERTEX
 8
0
 10
0.0
 20
0.0
 30
0.0
 70
128
 71
116
 72
65
 73
66
 74
90
 0
VERTEX
 8
0
 10
0.0
 20
0.0
 30
0.0
 70
128
 71
66
 72
118
 73
92
 74
27
 0
VERTEX
 8
0
 10
0.0
 20
0.0
 30
0.0
 70
128
 71
91
 72
90
 73
26
 74
70
 0
VERTEX
 8
0
 10
0.0
 20
0.0
 30
0.0
 70
128
 71
92
 72
94
 73
67
 74
68
 0
VERTEX
 8
0
 10
0.0
 20
0.0
 30
0.0
 70
128
 71
69
 72
70
 73
71
 74
96
 0
VERTEX
 8
0
 10
0.0
 20
0.0
 30
0.0
 70
128
 71
67
 72
95
 73
46
 74
44
 0
VERTEX
 8
0
 10
0.0
 20
0.0
 30
0.0
 70
128
 71
98
 72
96
 73
45
 74
73
 0
VERTEX
 8
0
 10
0.0
 20
0.0
 30
0.0
 70
128
 71
31
 72
46
 73
99
 74
75
 0
VERTEX
 8
0
 10
0.0
 20
0.0
 30
0.0
 70
128
 71
72
 72
73
 73
32
 74
74
 0
VERTEX
 8
0
 10
0.0
 20
0.0
 30
0.0
 70
128
 71
75
 72
100
 73
76
 74
34
 0
VERTEX
 8
0
 10
0.0
 20
0.0
 30
0.0
 70
128
 71
77
 72
74
 73
64
 74
88
 0
VERTEX
 8
0
 10
0.0
 20
0.0
 30
0.0
 70
128
 71
76
 72
104
 73
78
 74
49
 0
VERTEX
 8
0
 10
0.0
 20
0.0
 30
0.0
 70
128
 71
50
 72
49
 73
106
 74
79
 0
VERTEX
 8
0
 10
0.0
 20
0.0
 30
0.0
 70
128
 71
52
 72
51
 73
79
 74
80
 0
VERTEX
 8
0
 10
0.0
 20
0.0
 30
0.0
 70
128
 71
54
 72
52
 73
127
 74
55
 0
VERTEX
 8
0
 10
0.0
 20
0.0
 30
0.0
 70
128
 71
39
 72
55
 73
108
 74
56
 0
VERTEX
 8
0
 10
0.0
 20
0.0
 30
0.0
 70
128
 71
57
 72
56
 73
130
 74
110
 0
VERTEX
 8
0
 10
0.0
 20
0.0
 30
0.0
 70
128
 71
81
 72
110
 73
111
 74
134
 0
VERTEX
 8
0
 10
0.0
 20
0.0
 30
0.0
 70
128
 71
60
 72
58
 73
81
 74
82
 0
VERTEX
 8
0
 10
0.0
 20
0.0
 30
0.0
 70
128
 71
84
 72
59
 73
60
 74
138
 0
VERTEX
 8
0
 10
0.0
 20
0.0
 30
0.0
 70
128
 71
83
 72
61
 73
84
 74
85
 0
VERTEX
 8
0
 10
0.0
 20
0.0
 30
0.0
 70
128
 71
86
 72
62
 73
83
 74
87
 0
VERTEX
 8
0
 10
0.0
 20
0.0
 30
0.0
 70
128
 71
89
 72
63
 73
86
 74
142
 0
VERTEX
 8
0
 10
0.0
 20
0.0
 30
0.0
 70
128
 71
123
 72
88
 73
89
 74
114
 0
VERTEX
 8
0
 10
0.0
 20
0.0
 30
0.0
 70
128
 71
144
 72
115
 73
65
 74
116
 0
VERTEX
 8
0
 10
0.0
 20
0.0
 30
0.0
 70
128
 71
65
 72
147
 73
118
 74
66
 0
VERTEX
 8
0
 10
0.0
 20
0.0
 30
0.0
 70
128
 71
117
 72
116
 73
90
 74
91
 0
VERTEX
 8
0
 10
0.0
 20
0.0
 30
0.0
 70
128
 71
118
 72
150
 73
94
 74
92
 0
VERTEX
 8
0
 10
0.0
 20
0.0
 30
0.0
 70
128
 71
93
 72
91
 73
70
 74
69
 0
VERTEX
 8
0
 10
0.0
 20
0.0
 30
0.0
 70
128
 71
94
 72
151
 73
95
 74
67
 0
VERTEX
 8
0
 10
0.0
 20
0.0
 30
0.0
 70
128
 71
119
 72
69
 73
96
 74
98
 0
VERTEX
 8
0
 10
0.0
 20
0.0
 30
0.0
 70
128
 71
46
 72
95
 73
156
 74
99
 0
VERTEX
 8
0
 10
0.0
 20
0.0
 30
0.0
 70
128
 71
97
 72
98
 73
73
 74
72
 0
VERTEX
 8
0
 10
0.0
 20
0.0
 30
0.0
 70
128
 71
99
 72
121
 73
100
 74
75
 0
VERTEX
 8
0
 10
0.0
 20
0.0
 30
0.0
 70
128
 71
101
 72
72
 73
74
 74
77
 0
VERTEX
 8
0
 10
0.0
 20
0.0
 30
0.0
 70
128
 71
100
 72
102
 73
104
 74
76
 0
VERTEX
 8
0
 10
0.0
 20
0.0
 30
0.0
 70
128
 71
103
 72
77
 73
88
 74
123
 0
VERTEX
 8
0
 10
0.0
 20
0.0
 30
0.0
 70
128
 71
104
 72
122
 73
125
 74
78
 0
VERTEX
 8
0
 10
0.0
 20
0.0
 30
0.0
 70
128
 71
49
 72
78
 73
105
 74
106
 0
VERTEX
 8
0
 10
0.0
 20
0.0
 30
0.0
 70
128
 71
79
 72
106
 73
126
 74
80
 0
VERTEX
 8
0
 10
0.0
 20
0.0
 30
0.0
 70
128
 71
127
 72
52
 73
80
 74
128
 0
VERTEX
 8
0
 10
0.0
 20
0.0
 30
0.0
 70
128
 71
55
 72
127
 73
107
 74
108
 0
VERTEX
 8
0
 10
0.0
 20
0.0
 30
0.0
 70
128
 71
56
 72
108
 73
109
 74
130
 0
VERTEX
 8
0
 10
0.0
 20
0.0
 30
0.0
 70
128
 71
110
 72
130
 73
132
 74
111
 0
VERTEX
 8
0
 10
0.0
 20
0.0
 30
0.0
 70
128
 71
134
 72
111
 73
133
 74
135
 0
VERTEX
 8
0
 10
0.0
 20
0.0
 30
0.0
 70
128
 71
82
 72
81
 73
134
 74
137
 0
VERTEX
 8
0
 10
0.0
 20
0.0
 30
0.0
 70
128
 71
138
 72
60
 73
82
 74
136
 0
VERTEX
 8
0
 10
0.0
 20
0.0
 30
0.0
 70
128
 71
85
 72
84
 73
138
 74
112
 0
VERTEX
 8
0
 10
0.0
 20
0.0
 30
0.0
 70
128
 71
87
 72
83
 73
85
 74
139
 0
VERTEX
 8
0
 10
0.0
 20
0.0
 30
0.0
 70
128
 71
142
 72
86
 73
87
 74
170
 0
VERTEX
 8
0
 10
0.0
 20
0.0
 30
0.0
 70
128
 71
114
 72
89
 73
142
 74
141
 0
VERTEX
 8
0
 10
0.0
 20
0.0
 30
0.0
 70
128
 71
113
 72
123
 73
114
 74
143
 0
VERTEX
 8
0
 10
0.0
 20
0.0
 30
0.0
 70
128
 71
178
 72
177
 73
115
 74
144
 0
VERTEX
 8
0
 10
0.0
 20
0.0
 30
0.0
 70
128
 71
115
 72
146
 73
147
 74
65
 0
VERTEX
 8
0
 10
0.0
 20
0.0
 30
0.0
 70
128
 71
145
 72
144
 73
116
 74
117
 0
VERTEX
 8
0
 10
0.0
 20
0.0
 30
0.0
 70
128
 71
147
 72
148
 73
150
 74
118
 0
VERTEX
 8
0
 10
0.0
 20
0.0
 30
0.0
 70
128
 71
183
 72
117
 73
91
 74
93
 0
VERTEX
 8
0
 10
0.0
 20
0.0
 30
0.0
 70
128
 71
150
 72
152
 73
151
 74
94
 0
VERTEX
 8
0
 10
0.0
 20
0.0
 30
0.0
 70
128
 71
154
 72
93
 73
69
 74
119
 0
VERTEX
 8
0
 10
0.0
 20
0.0
 30
0.0
 70
128
 71
95
 72
151
 73
153
 74
156
 0
VERTEX
 8
0
 10
0.0
 20
0.0
 30
0.0
 70
128
 71
188
 72
119
 73
98
 74
97
 0
VERTEX
 8
0
 10
0.0
 20
0.0
 30
0.0
 70
128
 71
156
 72
155
 73
121
 74
99
 0
VERTEX
 8
0
 10
0.0
 20
0.0
 30
0.0
 70
128
 71
120
 72
97
 73
72
 74
101
 0
VERTEX
 8
0
 10
0.0
 20
0.0
 30
0.0
 70
128
 71
121
 72
192
 73
102
 74
100
 0
VERTEX
 8
0
 10
0.0
 20
0.0
 30
0.0
 70
128
 71
193
 72
101
 73
77
 74
103
 0
VERTEX
 8
0
 10
0.0
 20
0.0
 30
0.0
 70
128
 71
102
 72
157
 73
122
 74
104
 0
VERTEX
 8
0
 10
0.0
 20
0.0
 30
0.0
 70
128
 71
158
 72
103
 73
123
 74
113
 0
VERTEX
 8
0
 10
0.0
 20
0.0
 30
0.0
 70
128
 71
124
 72
159
 73
125
 74
122
 0
VERTEX
 8
0
 10
0.0
 20
0.0
 30
0.0
 70
128
 71
78
 72
125
 73
160
 74
105
 0
VERTEX
 8
0
 10
0.0
 20
0.0
 30
0.0
 70
128
 71
106
 72
105
 73
204
 74
126
 0
VERTEX
 8
0
 10
0.0
 20
0.0
 30
0.0
 70
128
 71
80
 72
126
 73
161
 74
128
 0
VERTEX
 8
0
 10
0.0
 20
0.0
 30
0.0
 70
128
 71
107
 72
127
 73
128
 74
162
 0
VERTEX
 8
0
 10
0.0
 20
0.0
 30
0.0
 70
128
 71
108
 72
107
 73
129
 74
109
 0
VERTEX
 8
0
 10
0.0
 20
0.0
 30
0.0
 70
128
 71
130
 72
109
 73
131
 74
132
 0
VERTEX
 8
0
 10
0.0
 20
0.0
 30
0.0
 70
128
 71
111
 72
132
 73
164
 74
133
 0
VERTEX
 8
0
 10
0.0
 20
0.0
 30
0.0
 70
128
 71
135
 72
133
 73
165
 74
214
 0
VERTEX
 8
0
 10
0.0
 20
0.0
 30
0.0
 70
128
 71
137
 72
134
 73
135
 74
166
 0
VERTEX
 8
0
 10
0.0
 20
0.0
 30
0.0
 70
128
 71
136
 72
82
 73
137
 74
215
 0
VERTEX
 8
0
 10
0.0
 20
0.0
 30
0.0
 70
128
 71
112
 72
138
 73
136
 74
168
 0
VERTEX
 8
0
 10
0.0
 20
0.0
 30
0.0
 70
128
 71
139
 72
85
 73
112
 74
217
 0
VERTEX
 8
0
 10
0.0
 20
0.0
 30
0.0
 70
128
 71
170
 72
87
 73
139
 74
140
 0
VERTEX
 8
0
 10
0.0
 20
0.0
 30
0.0
 70
128
 71
141
 72
142
 73
170
 74
220
 0
VERTEX
 8
0
 10
0.0
 20
0.0
 30
0.0
 70
128
 71
143
 72
114
 73
141
 74
221
 0
VERTEX
 8
0
 10
0.0
 20
0.0
 30
0.0
 70
128
 71
199
 72
113
 73
143
 74
172
 0
VERTEX
 8
0
 10
0.0
 20
0.0
 30
0.0
 70
128
 71
174
 72
175
 73
177
 74
178
 0
VERTEX
 8
0
 10
0.0
 20
0.0
 30
0.0
 70
128
 71
177
 72
179
 73
146
 74
115
 0
VERTEX
 8
0
 10
0.0
 20
0.0
 30
0.0
 70
128
 71
181
 72
178
 73
144
 74
145
 0
VERTEX
 8
0
 10
0.0
 20
0.0
 30
0.0
 70
128
 71
146
 72
180
 73
148
 74
147
 0
VERTEX
 8
0
 10
0.0
 20
0.0
 30
0.0
 70
128
 71
182
 72
145
 73
117
 74
183
 0
VERTEX
 8
0
 10
0.0
 20
0.0
 30
0.0
 70
128
 71
148
 72
149
 73
152
 74
150
 0
VERTEX
 8
0
 10
0.0
 20
0.0
 30
0.0
 70
128
 71
184
 72
183
 73
93
 74
154
 0
VERTEX
 8
0
 10
0.0
 20
0.0
 30
0.0
 70
128
 71
151
 72
152
 73
186
 74
153
 0
VERTEX
 8
0
 10
0.0
 20
0.0
 30
0.0
 70
128
 71
187
 72
154
 73
119
 74
188
 0
VERTEX
 8
0
 10
0.0
 20
0.0
 30
0.0
 70
128
 71
153
 72
237
 73
155
 74
156
 0
VERTEX
 8
0
 10
0.0
 20
0.0
 30
0.0
 70
128
 71
189
 72
188
 73
97
 74
120
 0
VERTEX
 8
0
 10
0.0
 20
0.0
 30
0.0
 70
128
 71
155
 72
241
 73
192
 74
121
 0
VERTEX
 8
0
 10
0.0
 20
0.0
 30
0.0
 70
128
 71
242
 72
120
 73
101
 74
193
 0
VERTEX
 8
0
 10
0.0
 20
0.0
 30
0.0
 70
128
 71
192
 72
191
 73
157
 74
102
 0
VERTEX
 8
0
 10
0.0
 20
0.0
 30
0.0
 70
128
 71
195
 72
193
 73
103
 74
158
 0
VERTEX
 8
0
 10
0.0
 20
0.0
 30
0.0
 70
128
 71
245
 72
124
 73
122
 74
157
 0
VERTEX
 8
0
 10
0.0
 20
0.0
 30
0.0
 70
128
 71
196
 72
158
 73
113
 74
199
 0
VERTEX
 8
0
 10
0.0
 20
0.0
 30
0.0
 70
128
 71
124
 72
247
 73
200
 74
159
 0
VERTEX
 8
0
 10
0.0
 20
0.0
 30
0.0
 70
128
 71
159
 72
201
 73
160
 74
125
 0
VERTEX
 8
0
 10
0.0
 20
0.0
 30
0.0
 70
128
 71
105
 72
160
 73
203
 74
204
 0
VERTEX
 8
0
 10
0.0
 20
0.0
 30
0.0
 70
128
 71
126
 72
204
 73
205
 74
161
 0
VERTEX
 8
0
 10
0.0
 20
0.0
 30
0.0
 70
128
 71
128
 72
161
 73
253
 74
162
 0
VERTEX
 8
0
 10
0.0
 20
0.0
 30
0.0
 70
128
 71
129
 72
107
 73
162
 74
207
 0
VERTEX
 8
0
 10
0.0
 20
0.0
 30
0.0
 70
128
 71
109
 72
129
 73
163
 74
131
 0
VERTEX
 8
0
 10
0.0
 20
0.0
 30
0.0
 70
128
 71
132
 72
131
 73
208
 74
164
 0
VERTEX
 8
0
 10
0.0
 20
0.0
 30
0.0
 70
128
 71
133
 72
164
 73
210
 74
165
 0
VERTEX
 8
0
 10
0.0
 20
0.0
 30
0.0
 70
128
 71
214
 72
165
 73
211
 74
212
 0
VERTEX
 8
0
 10
0.0
 20
0.0
 30
0.0
 70
128
 71
166
 72
135
 73
214
 74
261
 0
VERTEX
 8
0
 10
0.0
 20
0.0
 30
0.0
 70
128
 71
215
 72
137
 73
166
 74
167
 0
VERTEX
 8
0
 10
0.0
 20
0.0
 30
0.0
 70
128
 71
168
 72
136
 73
215
 74
216
 0
VERTEX
 8
0
 10
0.0
 20
0.0
 30
0.0
 70
128
 71
217
 72
112
 73
168
 74
264
 0
VERTEX
 8
0
 10
0.0
 20
0.0
 30
0.0
 70
128
 71
140
 72
139
 73
217
 74
169
 0
VERTEX
 8
0
 10
0.0
 20
0.0
 30
0.0
 70
128
 71
220
 72
170
 73
140
 74
171
 0
VERTEX
 8
0
 10
0.0
 20
0.0
 30
0.0
 70
128
 71
221
 72
141
 73
220
 74
219
 0
VERTEX
 8
0
 10
0.0
 20
0.0
 30
0.0
 70
128
 71
172
 72
143
 73
221
 74
268
 0
VERTEX
 8
0
 10
0.0
 20
0.0
 30
0.0
 70
128
 71
248
 72
199
 73
172
 74
173
 0
VERTEX
 8
0
 10
0.0
 20
0.0
 30
0.0
 70
128
 71
224
 72
223
 73
175
 74
174
 0
VERTEX
 8
0
 10
0.0
 20
0.0
 30
0.0
 70
128
 71
175
 72
176
 73
179
 74
177
 0
VERTEX
 8
0
 10
0.0
 20
0.0
 30
0.0
 70
128
 71
225
 72
174
 73
178
 74
181
 0
VERTEX
 8
0
 10
0.0
 20
0.0
 30
0.0
 70
128
 71
179
 72
228
 73
180
 74
146
 0
VERTEX
 8
0
 10
0.0
 20
0.0
 30
0.0
 70
128
 71
229
 72
181
 73
145
 74
182
 0
VERTEX
 8
0
 10
0.0
 20
0.0
 30
0.0
 70
128
 71
180
 72
230
 73
149
 74
148
 0
VERTEX
 8
0
 10
0.0
 20
0.0
 30
0.0
 70
128
 71
232
 72
182
 73
183
 74
184
 0
VERTEX
 8
0
 10
0.0
 20
0.0
 30
0.0
 70
128
 71
152
 72
149
 73
185
 74
186
 0
VERTEX
 8
0
 10
0.0
 20
0.0
 30
0.0
 70
128
 71
234
 72
184
 73
154
 74
187
 0
VERTEX
 8
0
 10
0.0
 20
0.0
 30
0.0
 70
128
 71
186
 72
275
 73
237
 74
153
 0
VERTEX
 8
0
 10
0.0
 20
0.0
 30
0.0
 70
128
 71
235
 72
187
 73
188
 74
189
 0
VERTEX
 8
0
 10
0.0
 20
0.0
 30
0.0
 70
128
 71
237
 72
236
 73
241
 74
155
 0
VERTEX
 8
0
 10
0.0
 20
0.0
 30
0.0
 70
128
 71
190
 72
189
 73
120
 74
242
 0
VERTEX
 8
0
 10
0.0
 20
0.0
 30
0.0
 70
128
 71
241
 72
240
 73
191
 74
192
 0
VERTEX
 8
0
 10
0.0
 20
0.0
 30
0.0
 70
128
 71
278
 72
242
 73
193
 74
195
 0
VERTEX
 8
0
 10
0.0
 20
0.0
 30
0.0
 70
128
 71
244
 72
245
 73
157
 74
191
 0
VERTEX
 8
0
 10
0.0
 20
0.0
 30
0.0
 70
128
 71
194
 72
195
 73
158
 74
196
 0
VERTEX
 8
0
 10
0.0
 20
0.0
 30
0.0
 70
128
 71
245
 72
197
 73
247
 74
124
 0
VERTEX
 8
0
 10
0.0
 20
0.0
 30
0.0
 70
128
 71
198
 72
196
 73
199
 74
248
 0
VERTEX
 8
0
 10
0.0
 20
0.0
 30
0.0
 70
128
 71
247
 72
246
 73
249
 74
200
 0
VERTEX
 8
0
 10
0.0
 20
0.0
 30
0.0
 70
128
 71
159
 72
200
 73
250
 74
201
 0
VERTEX
 8
0
 10
0.0
 20
0.0
 30
0.0
 70
128
 71
201
 72
202
 73
203
 74
160
 0
VERTEX
 8
0
 10
0.0
 20
0.0
 30
0.0
 70
128
 71
204
 72
203
 73
252
 74
205
 0
VERTEX
 8
0
 10
0.0
 20
0.0
 30
0.0
 70
128
 71
161
 72
205
 73
206
 74
253
 0
VERTEX
 8
0
 10
0.0
 20
0.0
 30
0.0
 70
128
 71
162
 72
253
 73
254
 74
207
 0
VERTEX
 8
0
 10
0.0
 20
0.0
 30
0.0
 70
128
 71
163
 72
129
 73
207
 74
293
 0
VERTEX
 8
0
 10
0.0
 20
0.0
 30
0.0
 70
128
 71
131
 72
163
 73
255
 74
208
 0
VERTEX
 8
0
 10
0.0
 20
0.0
 30
0.0
 70
128
 71
164
 72
208
 73
209
 74
210
 0
VERTEX
 8
0
 10
0.0
 20
0.0
 30
0.0
 70
128
 71
165
 72
210
 73
258
 74
211
 0
VERTEX
 8
0
 10
0.0
 20
0.0
 30
0.0
 70
128
 71
212
 72
211
 73
294
 74
213
 0
VERTEX
 8
0
 10
0.0
 20
0.0
 30
0.0
 70
128
 71
261
 72
214
 73
212
 74
262
 0
VERTEX
 8
0
 10
0.0
 20
0.0
 30
0.0
 70
128
 71
167
 72
166
 73
261
 74
298
 0
VERTEX
 8
0
 10
0.0
 20
0.0
 30
0.0
 70
128
 71
216
 72
215
 73
167
 74
263
 0
VERTEX
 8
0
 10
0.0
 20
0.0
 30
0.0
 70
128
 71
264
 72
168
 73
216
 74
300
 0
VERTEX
 8
0
 10
0.0
 20
0.0
 30
0.0
 70
128
 71
169
 72
217
 73
264
 74
218
 0
VERTEX
 8
0
 10
0.0
 20
0.0
 30
0.0
 70
128
 71
171
 72
140
 73
169
 74
265
 0
VERTEX
 8
0
 10
0.0
 20
0.0
 30
0.0
 70
128
 71
219
 72
220
 73
171
 74
303
 0
VERTEX
 8
0
 10
0.0
 20
0.0
 30
0.0
 70
128
 71
268
 72
221
 73
219
 74
222
 0
VERTEX
 8
0
 10
0.0
 20
0.0
 30
0.0
 70
128
 71
173
 72
172
 73
268
 74
306
 0
VERTEX
 8
0
 10
0.0
 20
0.0
 30
0.0
 70
128
 71
285
 72
248
 73
173
 74
307
 0
VERTEX
 8
0
 10
0.0
 20
0.0
 30
0.0
 70
128
 71
269
 72
270
 73
223
 74
224
 0
VERTEX
 8
0
 10
0.0
 20
0.0
 30
0.0
 70
128
 71
223
 72
271
 73
176
 74
175
 0
VERTEX
 8
0
 10
0.0
 20
0.0
 30
0.0
 70
128
 71
315
 72
224
 73
174
 74
225
 0
VERTEX
 8
0
 10
0.0
 20
0.0
 30
0.0
 70
128
 71
176
 72
226
 73
228
 74
179
 0
VERTEX
 8
0
 10
0.0
 20
0.0
 30
0.0
 70
128
 71
227
 72
225
 73
181
 74
229
 0
VERTEX
 8
0
 10
0.0
 20
0.0
 30
0.0
 70
128
 71
228
 72
318
 73
230
 74
180
 0
VERTEX
 8
0
 10
0.0
 20
0.0
 30
0.0
 70
128
 71
273
 72
229
 73
182
 74
232
 0
VERTEX
 8
0
 10
0.0
 20
0.0
 30
0.0
 70
128
 71
149
 72
230
 73
231
 74
185
 0
VERTEX
 8
0
 10
0.0
 20
0.0
 30
0.0
 70
128
 71
274
 72
232
 73
184
 74
234
 0
VERTEX
 8
0
 10
0.0
 20
0.0
 30
0.0
 70
128
 71
185
 72
323
 73
275
 74
186
 0
VERTEX
 8
0
 10
0.0
 20
0.0
 30
0.0
 70
128
 71
233
 72
234
 73
187
 74
235
 0
VERTEX
 8
0
 10
0.0
 20
0.0
 30
0.0
 70
128
 71
275
 72
276
 73
236
 74
237
 0
VERTEX
 8
0
 10
0.0
 20
0.0
 30
0.0
 70
128
 71
238
 72
235
 73
189
 74
190
 0
VERTEX
 8
0
 10
0.0
 20
0.0
 30
0.0
 70
128
 71
236
 72
239
 73
240
 74
241
 0
VERTEX
 8
0
 10
0.0
 20
0.0
 30
0.0
 70
128
 71
277
 72
190
 73
242
 74
278
 0
VERTEX
 8
0
 10
0.0
 20
0.0
 30
0.0
 70
128
 71
243
 72
244
 73
191
 74
240
 0
VERTEX
 8
0
 10
0.0
 20
0.0
 30
0.0
 70
128
 71
279
 72
278
 73
195
 74
194
 0
VERTEX
 8
0
 10
0.0
 20
0.0
 30
0.0
 70
128
 71
244
 72
282
 73
197
 74
245
 0
VERTEX
 8
0
 10
0.0
 20
0.0
 30
0.0
 70
128
 71
281
 72
194
 73
196
 74
198
 0
VERTEX
 8
0
 10
0.0
 20
0.0
 30
0.0
 70
128
 71
197
 72
283
 73
246
 74
247
 0
VERTEX
 8
0
 10
0.0
 20
0.0
 30
0.0
 70
128
 71
334
 72
198
 73
248
 74
285
 0
VERTEX
 8
0
 10
0.0
 20
0.0
 30
0.0
 70
128
 71
246
 72
337
 73
287
 74
249
 0
VERTEX
 8
0
 10
0.0
 20
0.0
 30
0.0
 70
128
 71
200
 72
249
 73
289
 74
250
 0
VERTEX
 8
0
 10
0.0
 20
0.0
 30
0.0
 70
128
 71
201
 72
250
 73
251
 74
202
 0
VERTEX
 8
0
 10
0.0
 20
0.0
 30
0.0
 70
128
 71
202
 72
290
 73
252
 74
203
 0
VERTEX
 8
0
 10
0.0
 20
0.0
 30
0.0
 70
128
 71
205
 72
252
 73
291
 74
206
 0
VERTEX
 8
0
 10
0.0
 20
0.0
 30
0.0
 70
128
 71
253
 72
206
 73
342
 74
254
 0
VERTEX
 8
0
 10
0.0
 20
0.0
 30
0.0
 70
128
 71
207
 72
254
 73
344
 74
293
 0
VERTEX
 8
0
 10
0.0
 20
0.0
 30
0.0
 70
128
 71
255
 72
163
 73
293
 74
256
 0
VERTEX
 8
0
 10
0.0
 20
0.0
 30
0.0
 70
128
 71
208
 72
255
 73
347
 74
209
 0
VERTEX
 8
0
 10
0.0
 20
0.0
 30
0.0
 70
128
 71
210
 72
209
 73
257
 74
258
 0
VERTEX
 8
0
 10
0.0
 20
0.0
 30
0.0
 70
128
 71
211
 72
258
 73
259
 74
294
 0
VERTEX
 8
0
 10
0.0
 20
0.0
 30
0.0
 70
128
 71
213
 72
294
 73
310
 74
295
 0
VERTEX
 8
0
 10
0.0
 20
0.0
 30
0.0
 70
128
 71
262
 72
212
 73
213
 74
260
 0
VERTEX
 8
0
 10
0.0
 20
0.0
 30
0.0
 70
128
 71
298
 72
261
 73
262
 74
299
 0
VERTEX
 8
0
 10
0.0
 20
0.0
 30
0.0
 70
128
 71
263
 72
167
 73
298
 74
297
 0
VERTEX
 8
0
 10
0.0
 20
0.0
 30
0.0
 70
128
 71
300
 72
216
 73
263
 74
353
 0
VERTEX
 8
0
 10
0.0
 20
0.0
 30
0.0
 70
128
 71
218
 72
264
 73
300
 74
355
 0
VERTEX
 8
0
 10
0.0
 20
0.0
 30
0.0
 70
128
 71
265
 72
169
 73
218
 74
266
 0
VERTEX
 8
0
 10
0.0
 20
0.0
 30
0.0
 70
128
 71
303
 72
171
 73
265
 74
267
 0
VERTEX
 8
0
 10
0.0
 20
0.0
 30
0.0
 70
128
 71
222
 72
219
 73
303
 74
357
 0
VERTEX
 8
0
 10
0.0
 20
0.0
 30
0.0
 70
128
 71
306
 72
268
 73
222
 74
304
 0
VERTEX
 8
0
 10
0.0
 20
0.0
 30
0.0
 70
128
 71
307
 72
173
 73
306
 74
305
 0
VERTEX
 8
0
 10
0.0
 20
0.0
 30
0.0
 70
128
 71
286
 72
285
 73
307
 74
359
 0
VERTEX
 8
0
 10
0.0
 20
0.0
 30
0.0
 70
128
 71
295
 72
310
 73
270
 74
269
 0
VERTEX
 8
0
 10
0.0
 20
0.0
 30
0.0
 70
128
 71
270
 72
362
 73
271
 74
223
 0
VERTEX
 8
0
 10
0.0
 20
0.0
 30
0.0
 70
128
 71
312
 72
269
 73
224
 74
315
 0
VERTEX
 8
0
 10
0.0
 20
0.0
 30
0.0
 70
128
 71
271
 72
314
 73
226
 74
176
 0
VERTEX
 8
0
 10
0.0
 20
0.0
 30
0.0
 70
128
 71
365
 72
315
 73
225
 74
227
 0
VERTEX
 8
0
 10
0.0
 20
0.0
 30
0.0
 70
128
 71
226
 72
316
 73
318
 74
228
 0
VERTEX
 8
0
 10
0.0
 20
0.0
 30
0.0
 70
128
 71
366
 72
227
 73
229
 74
273
 0
VERTEX
 8
0
 10
0.0
 20
0.0
 30
0.0
 70
128
 71
230
 72
318
 73
272
 74
231
 0
VERTEX
 8
0
 10
0.0
 20
0.0
 30
0.0
 70
128
 71
367
 72
273
 73
232
 74
274
 0
VERTEX
 8
0
 10
0.0
 20
0.0
 30
0.0
 70
128
 71
231
 72
319
 73
323
 74
185
 0
VERTEX
 8
0
 10
0.0
 20
0.0
 30
0.0
 70
128
 71
320
 72
274
 73
234
 74
233
 0
VERTEX
 8
0
 10
0.0
 20
0.0
 30
0.0
 70
128
 71
323
 72
322
 73
276
 74
275
 0
VERTEX
 8
0
 10
0.0
 20
0.0
 30
0.0
 70
128
 71
325
 72
233
 73
235
 74
238
 0
VERTEX
 8
0
 10
0.0
 20
0.0
 30
0.0
 70
128
 71
276
 72
324
 73
239
 74
236
 0
VERTEX
 8
0
 10
0.0
 20
0.0
 30
0.0
 70
128
 71
326
 72
238
 73
190
 74
277
 0
VERTEX
 8
0
 10
0.0
 20
0.0
 30
0.0
 70
128
 71
372
 72
243
 73
240
 74
239
 0
VERTEX
 8
0
 10
0.0
 20
0.0
 30
0.0
 70
128
 71
329
 72
277
 73
278
 74
279
 0
VERTEX
 8
0
 10
0.0
 20
0.0
 30
0.0
 70
128
 71
243
 72
280
 73
282
 74
244
 0
VERTEX
 8
0
 10
0.0
 20
0.0
 30
0.0
 70
128
 71
330
 72
279
 73
194
 74
281
 0
VERTEX
 8
0
 10
0.0
 20
0.0
 30
0.0
 70
128
 71
282
 72
331
 73
283
 74
197
 0
VERTEX
 8
0
 10
0.0
 20
0.0
 30
0.0
 70
128
 71
333
 72
281
 73
198
 74
334
 0
VERTEX
 8
0
 10
0.0
 20
0.0
 30
0.0
 70
128
 71
283
 72
284
 73
337
 74
246
 0
VERTEX
 8
0
 10
0.0
 20
0.0
 30
0.0
 70
128
 71
335
 72
334
 73
285
 74
286
 0
VERTEX
 8
0
 10
0.0
 20
0.0
 30
0.0
 70
128
 71
337
 72
378
 73
339
 74
287
 0
VERTEX
 8
0
 10
0.0
 20
0.0
 30
0.0
 70
128
 71
249
 72
287
 73
288
 74
289
 0
VERTEX
 8
0
 10
0.0
 20
0.0
 30
0.0
 70
128
 71
250
 72
289
 73
340
 74
251
 0
VERTEX
 8
0
 10
0.0
 20
0.0
 30
0.0
 70
128
 71
202
 72
251
 73
341
 74
290
 0
VERTEX
 8
0
 10
0.0
 20
0.0
 30
0.0
 70
128
 71
290
 72
384
 73
291
 74
252
 0
VERTEX
 8
0
 10
0.0
 20
0.0
 30
0.0
 70
128
 71
206
 72
291
 73
343
 74
342
 0
VERTEX
 8
0
 10
0.0
 20
0.0
 30
0.0
 70
128
 71
254
 72
342
 73
292
 74
344
 0
VERTEX
 8
0
 10
0.0
 20
0.0
 30
0.0
 70
128
 71
293
 72
344
 73
346
 74
256
 0
VERTEX
 8
0
 10
0.0
 20
0.0
 30
0.0
 70
128
 71
347
 72
255
 73
256
 74
388
 0
VERTEX
 8
0
 10
0.0
 20
0.0
 30
0.0
 70
128
 71
209
 72
347
 73
389
 74
257
 0
VERTEX
 8
0
 10
0.0
 20
0.0
 30
0.0
 70
128
 71
258
 72
257
 73
349
 74
259
 0
VERTEX
 8
0
 10
0.0
 20
0.0
 30
0.0
 70
128
 71
294
 72
259
 73
361
 74
310
 0
VERTEX
 8
0
 10
0.0
 20
0.0
 30
0.0
 70
128
 71
260
 72
213
 73
295
 74
311
 0
VERTEX
 8
0
 10
0.0
 20
0.0
 30
0.0
 70
128
 71
299
 72
262
 73
260
 74
296
 0
VERTEX
 8
0
 10
0.0
 20
0.0
 30
0.0
 70
128
 71
297
 72
298
 73
299
 74
351
 0
VERTEX
 8
0
 10
0.0
 20
0.0
 30
0.0
 70
128
 71
353
 72
263
 73
297
 74
354
 0
VERTEX
 8
0
 10
0.0
 20
0.0
 30
0.0
 70
128
 71
355
 72
300
 73
353
 74
352
 0
VERTEX
 8
0
 10
0.0
 20
0.0
 30
0.0
 70
128
 71
266
 72
218
 73
355
 74
301
 0
VERTEX
 8
0
 10
0.0
 20
0.0
 30
0.0
 70
128
 71
267
 72
265
 73
266
 74
302
 0
VERTEX
 8
0
 10
0.0
 20
0.0
 30
0.0
 70
128
 71
357
 72
303
 73
267
 74
356
 0
VERTEX
 8
0
 10
0.0
 20
0.0
 30
0.0
 70
128
 71
304
 72
222
 73
357
 74
397
 0
VERTEX
 8
0
 10
0.0
 20
0.0
 30
0.0
 70
128
 71
305
 72
306
 73
304
 74
399
 0
VERTEX
 8
0
 10
0.0
 20
0.0
 30
0.0
 70
128
 71
359
 72
307
 73
305
 74
400
 0
VERTEX
 8
0
 10
0.0
 20
0.0
 30
0.0
 70
128
 71
308
 72
286
 73
359
 74
309
 0
VERTEX
 8
0
 10
0.0
 20
0.0
 30
0.0
 70
128
 71
310
 72
361
 73
362
 74
270
 0
VERTEX
 8
0
 10
0.0
 20
0.0
 30
0.0
 70
128
 71
311
 72
295
 73
269
 74
312
 0
VERTEX
 8
0
 10
0.0
 20
0.0
 30
0.0
 70
128
 71
362
 72
313
 73
314
 74
271
 0
VERTEX
 8
0
 10
0.0
 20
0.0
 30
0.0
 70
128
 71
364
 72
312
 73
315
 74
365
 0
VERTEX
 8
0
 10
0.0
 20
0.0
 30
0.0
 70
128
 71
314
 72
363
 73
316
 74
226
 0
VERTEX
 8
0
 10
0.0
 20
0.0
 30
0.0
 70
128
 71
317
 72
365
 73
227
 74
366
 0
VERTEX
 8
0
 10
0.0
 20
0.0
 30
0.0
 70
128
 71
318
 72
316
 73
409
 74
272
 0
VERTEX
 8
0
 10
0.0
 20
0.0
 30
0.0
 70
128
 71
410
 72
366
 73
273
 74
367
 0
VERTEX
 8
0
 10
0.0
 20
0.0
 30
0.0
 70
128
 71
272
 72
368
 73
319
 74
231
 0
VERTEX
 8
0
 10
0.0
 20
0.0
 30
0.0
 70
128
 71
413
 72
367
 73
274
 74
320
 0
VERTEX
 8
0
 10
0.0
 20
0.0
 30
0.0
 70
128
 71
319
 72
321
 73
322
 74
323
 0
VERTEX
 8
0
 10
0.0
 20
0.0
 30
0.0
 70
128
 71
415
 72
320
 73
233
 74
325
 0
VERTEX
 8
0
 10
0.0
 20
0.0
 30
0.0
 70
128
 71
322
 72
416
 73
324
 74
276
 0
VERTEX
 8
0
 10
0.0
 20
0.0
 30
0.0
 70
128
 71
369
 72
325
 73
238
 74
326
 0
VERTEX
 8
0
 10
0.0
 20
0.0
 30
0.0
 70
128
 71
239
 72
324
 73
327
 74
372
 0
VERTEX
 8
0
 10
0.0
 20
0.0
 30
0.0
 70
128
 71
328
 72
326
 73
277
 74
329
 0
VERTEX
 8
0
 10
0.0
 20
0.0
 30
0.0
 70
128
 71
372
 72
371
 73
280
 74
243
 0
VERTEX
 8
0
 10
0.0
 20
0.0
 30
0.0
 70
128
 71
375
 72
329
 73
279
 74
330
 0
VERTEX
 8
0
 10
0.0
 20
0.0
 30
0.0
 70
128
 71
280
 72
374
 73
331
 74
282
 0
VERTEX
 8
0
 10
0.0
 20
0.0
 30
0.0
 70
128
 71
425
 72
330
 73
281
 74
333
 0
VERTEX
 8
0
 10
0.0
 20
0.0
 30
0.0
 70
128
 71
331
 72
332
 73
284
 74
283
 0
VERTEX
 8
0
 10
0.0
 20
0.0
 30
0.0
 70
128
 71
377
 72
333
 73
334
 74
335
 0
VERTEX
 8
0
 10
0.0
 20
0.0
 30
0.0
 70
128
 71
284
 72
336
 73
378
 74
337
 0
VERTEX
 8
0
 10
0.0
 20
0.0
 30
0.0
 70
128
 71
338
 72
335
 73
286
 74
308
 0
VERTEX
 8
0
 10
0.0
 20
0.0
 30
0.0
 70
128
 71
378
 72
379
 73
381
 74
339
 0
VERTEX
 8
0
 10
0.0
 20
0.0
 30
0.0
 70
128
 71
287
 72
339
 73
435
 74
288
 0
VERTEX
 8
0
 10
0.0
 20
0.0
 30
0.0
 70
128
 71
289
 72
288
 73
436
 74
340
 0
VERTEX
 8
0
 10
0.0
 20
0.0
 30
0.0
 70
128
 71
251
 72
340
 73
437
 74
341
 0
VERTEX
 8
0
 10
0.0
 20
0.0
 30
0.0
 70
128
 71
290
 72
341
 73
385
 74
384
 0
VERTEX
 8
0
 10
0.0
 20
0.0
 30
0.0
 70
128
 71
384
 72
386
 73
343
 74
291
 0
VERTEX
 8
0
 10
0.0
 20
0.0
 30
0.0
 70
128
 71
342
 72
343
 73
440
 74
292
 0
VERTEX
 8
0
 10
0.0
 20
0.0
 30
0.0
 70
128
 71
344
 72
292
 73
345
 74
346
 0
VERTEX
 8
0
 10
0.0
 20
0.0
 30
0.0
 70
128
 71
256
 72
346
 73
444
 74
388
 0
VERTEX
 8
0
 10
0.0
 20
0.0
 30
0.0
 70
128
 71
388
 72
390
 73
389
 74
347
 0
VERTEX
 8
0
 10
0.0
 20
0.0
 30
0.0
 70
128
 71
257
 72
389
 73
348
 74
349
 0
VERTEX
 8
0
 10
0.0
 20
0.0
 30
0.0
 70
128
 71
259
 72
349
 73
402
 74
361
 0
VERTEX
 8
0
 10
0.0
 20
0.0
 30
0.0
 70
128
 71
296
 72
260
 73
311
 74
350
 0
VERTEX
 8
0
 10
0.0
 20
0.0
 30
0.0
 70
128
 71
351
 72
299
 73
296
 74
392
 0
VERTEX
 8
0
 10
0.0
 20
0.0
 30
0.0
 70
128
 71
354
 72
297
 73
351
 74
393
 0
VERTEX
 8
0
 10
0.0
 20
0.0
 30
0.0
 70
128
 71
352
 72
353
 73
354
 74
394
 0
VERTEX
 8
0
 10
0.0
 20
0.0
 30
0.0
 70
128
 71
301
 72
355
 73
352
 74
450
 0
VERTEX
 8
0
 10
0.0
 20
0.0
 30
0.0
 70
128
 71
302
 72
266
 73
301
 74
454
 0
VERTEX
 8
0
 10
0.0
 20
0.0
 30
0.0
 70
128
 71
356
 72
267
 73
302
 74
455
 0
VERTEX
 8
0
 10
0.0
 20
0.0
 30
0.0
 70
128
 71
397
 72
357
 73
356
 74
396
 0
VERTEX
 8
0
 10
0.0
 20
0.0
 30
0.0
 70
128
 71
399
 72
304
 73
397
 74
358
 0
VERTEX
 8
0
 10
0.0
 20
0.0
 30
0.0
 70
128
 71
400
 72
305
 73
399
 74
398
 0
VERTEX
 8
0
 10
0.0
 20
0.0
 30
0.0
 70
128
 71
309
 72
359
 73
400
 74
459
 0
VERTEX
 8
0
 10
0.0
 20
0.0
 30
0.0
 70
128
 71
360
 72
308
 73
309
 74
460
 0
VERTEX
 8
0
 10
0.0
 20
0.0
 30
0.0
 70
128
 71
361
 72
402
 73
313
 74
362
 0
VERTEX
 8
0
 10
0.0
 20
0.0
 30
0.0
 70
128
 71
350
 72
311
 73
312
 74
364
 0
VERTEX
 8
0
 10
0.0
 20
0.0
 30
0.0
 70
128
 71
313
 72
403
 73
363
 74
314
 0
VERTEX
 8
0
 10
0.0
 20
0.0
 30
0.0
 70
128
 71
405
 72
364
 73
365
 74
317
 0
VERTEX
 8
0
 10
0.0
 20
0.0
 30
0.0
 70
128
 71
316
 72
363
 73
407
 74
409
 0
VERTEX
 8
0
 10
0.0
 20
0.0
 30
0.0
 70
128
 71
406
 72
317
 73
366
 74
410
 0
VERTEX
 8
0
 10
0.0
 20
0.0
 30
0.0
 70
128
 71
409
 72
408
 73
368
 74
272
 0
VERTEX
 8
0
 10
0.0
 20
0.0
 30
0.0
 70
128
 71
412
 72
410
 73
367
 74
413
 0
VERTEX
 8
0
 10
0.0
 20
0.0
 30
0.0
 70
128
 71
368
 72
471
 73
321
 74
319
 0
VERTEX
 8
0
 10
0.0
 20
0.0
 30
0.0
 70
128
 71
414
 72
413
 73
320
 74
415
 0
VERTEX
 8
0
 10
0.0
 20
0.0
 30
0.0
 70
128
 71
321
 72
417
 73
416
 74
322
 0
VERTEX
 8
0
 10
0.0
 20
0.0
 30
0.0
 70
128
 71
418
 72
415
 73
325
 74
369
 0
VERTEX
 8
0
 10
0.0
 20
0.0
 30
0.0
 70
128
 71
324
 72
416
 73
475
 74
327
 0
VERTEX
 8
0
 10
0.0
 20
0.0
 30
0.0
 70
128
 71
370
 72
369
 73
326
 74
328
 0
VERTEX
 8
0
 10
0.0
 20
0.0
 30
0.0
 70
128
 71
327
 72
419
 73
371
 74
372
 0
VERTEX
 8
0
 10
0.0
 20
0.0
 30
0.0
 70
128
 71
422
 72
328
 73
329
 74
375
 0
VERTEX
 8
0
 10
0.0
 20
0.0
 30
0.0
 70
128
 71
371
 72
373
 73
374
 74
280
 0
VERTEX
 8
0
 10
0.0
 20
0.0
 30
0.0
 70
128
 71
424
 72
375
 73
330
 74
425
 0
VERTEX
 8
0
 10
0.0
 20
0.0
 30
0.0
 70
128
 71
374
 72
376
 73
332
 74
331
 0
VERTEX
 8
0
 10
0.0
 20
0.0
 30
0.0
 70
128
 71
427
 72
425
 73
333
 74
377
 0
VERTEX
 8
0
 10
0.0
 20
0.0
 30
0.0
 70
128
 71
332
 72
429
 73
336
 74
284
 0
VERTEX
 8
0
 10
0.0
 20
0.0
 30
0.0
 70
128
 71
428
 72
377
 73
335
 74
338
 0
VERTEX
 8
0
 10
0.0
 20
0.0
 30
0.0
 70
128
 71
336
 72
479
 73
379
 74
378
 0
VERTEX
 8
0
 10
0.0
 20
0.0
 30
0.0
 70
128
 71
432
 72
338
 73
308
 74
360
 0
VERTEX
 8
0
 10
0.0
 20
0.0
 30
0.0
 70
128
 71
379
 72
380
 73
434
 74
381
 0
VERTEX
 8
0
 10
0.0
 20
0.0
 30
0.0
 70
128
 71
339
 72
381
 73
382
 74
435
 0
VERTEX
 8
0
 10
0.0
 20
0.0
 30
0.0
 70
128
 71
288
 72
435
 73
485
 74
436
 0
VERTEX
 8
0
 10
0.0
 20
0.0
 30
0.0
 70
128
 71
340
 72
436
 73
438
 74
437
 0
VERTEX
 8
0
 10
0.0
 20
0.0
 30
0.0
 70
128
 71
341
 72
437
 73
383
 74
385
 0
VERTEX
 8
0
 10
0.0
 20
0.0
 30
0.0
 70
128
 71
384
 72
385
 73
439
 74
386
 0
VERTEX
 8
0
 10
0.0
 20
0.0
 30
0.0
 70
128
 71
386
 72
387
 73
440
 74
343
 0
VERTEX
 8
0
 10
0.0
 20
0.0
 30
0.0
 70
128
 71
292
 72
440
 73
441
 74
345
 0
VERTEX
 8
0
 10
0.0
 20
0.0
 30
0.0
 70
128
 71
346
 72
345
 73
443
 74
444
 0
VERTEX
 8
0
 10
0.0
 20
0.0
 30
0.0
 70
128
 71
388
 72
444
 73
445
 74
390
 0
VERTEX
 8
0
 10
0.0
 20
0.0
 30
0.0
 70
128
 71
348
 72
389
 73
390
 74
447
 0
VERTEX
 8
0
 10
0.0
 20
0.0
 30
0.0
 70
128
 71
349
 72
348
 73
391
 74
402
 0
VERTEX
 8
0
 10
0.0
 20
0.0
 30
0.0
 70
128
 71
392
 72
296
 73
350
 74
466
 0
VERTEX
 8
0
 10
0.0
 20
0.0
 30
0.0
 70
128
 71
393
 72
351
 73
392
 74
449
 0
VERTEX
 8
0
 10
0.0
 20
0.0
 30
0.0
 70
128
 71
394
 72
354
 73
393
 74
448
 0
VERTEX
 8
0
 10
0.0
 20
0.0
 30
0.0
 70
128
 71
450
 72
352
 73
394
 74
451
 0
VERTEX
 8
0
 10
0.0
 20
0.0
 30
0.0
 70
128
 71
454
 72
301
 73
450
 74
395
 0
VERTEX
 8
0
 10
0.0
 20
0.0
 30
0.0
 70
128
 71
455
 72
302
 73
454
 74
453
 0
VERTEX
 8
0
 10
0.0
 20
0.0
 30
0.0
 70
128
 71
396
 72
356
 73
455
 74
494
 0
VERTEX
 8
0
 10
0.0
 20
0.0
 30
0.0
 70
128
 71
358
 72
397
 73
396
 74
456
 0
VERTEX
 8
0
 10
0.0
 20
0.0
 30
0.0
 70
128
 71
398
 72
399
 73
358
 74
458
 0
VERTEX
 8
0
 10
0.0
 20
0.0
 30
0.0
 70
128
 71
459
 72
400
 73
398
 74
457
 0
VERTEX
 8
0
 10
0.0
 20
0.0
 30
0.0
 70
128
 71
460
 72
309
 73
459
 74
461
 0
VERTEX
 8
0
 10
0.0
 20
0.0
 30
0.0
 70
128
 71
433
 72
360
 73
460
 74
401
 0
VERTEX
 8
0
 10
0.0
 20
0.0
 30
0.0
 70
128
 71
402
 72
391
 73
403
 74
313
 0
VERTEX
 8
0
 10
0.0
 20
0.0
 30
0.0
 70
128
 71
466
 72
350
 73
364
 74
405
 0
VERTEX
 8
0
 10
0.0
 20
0.0
 30
0.0
 70
128
 71
363
 72
403
 73
465
 74
407
 0
VERTEX
 8
0
 10
0.0
 20
0.0
 30
0.0
 70
128
 71
404
 72
405
 73
317
 74
406
 0
VERTEX
 8
0
 10
0.0
 20
0.0
 30
0.0
 70
128
 71
407
 72
505
 73
408
 74
409
 0
VERTEX
 8
0
 10
0.0
 20
0.0
 30
0.0
 70
128
 71
468
 72
406
 73
410
 74
412
 0
VERTEX
 8
0
 10
0.0
 20
0.0
 30
0.0
 70
128
 71
408
 72
469
 73
471
 74
368
 0
VERTEX
 8
0
 10
0.0
 20
0.0
 30
0.0
 70
128
 71
411
 72
412
 73
413
 74
414
 0
VERTEX
 8
0
 10
0.0
 20
0.0
 30
0.0
 70
128
 71
471
 72
511
 73
417
 74
321
 0
VERTEX
 8
0
 10
0.0
 20
0.0
 30
0.0
 70
128
 71
474
 72
414
 73
415
 74
418
 0
VERTEX
 8
0
 10
0.0
 20
0.0
 30
0.0
 70
128
 71
416
 72
417
 73
472
 74
475
 0
VERTEX
 8
0
 10
0.0
 20
0.0
 30
0.0
 70
128
 71
514
 72
418
 73
369
 74
370
 0
VERTEX
 8
0
 10
0.0
 20
0.0
 30
0.0
 70
128
 71
475
 72
516
 73
419
 74
327
 0
VERTEX
 8
0
 10
0.0
 20
0.0
 30
0.0
 70
128
 71
476
 72
370
 73
328
 74
422
 0
VERTEX
 8
0
 10
0.0
 20
0.0
 30
0.0
 70
128
 71
419
 72
420
 73
373
 74
371
 0
VERTEX
 8
0
 10
0.0
 20
0.0
 30
0.0
 70
128
 71
421
 72
422
 73
375
 74
424
 0
VERTEX
 8
0
 10
0.0
 20
0.0
 30
0.0
 70
128
 71
373
 72
423
 73
376
 74
374
 0
VERTEX
 8
0
 10
0.0
 20
0.0
 30
0.0
 70
128
 71
520
 72
424
 73
425
 74
427
 0
VERTEX
 8
0
 10
0.0
 20
0.0
 30
0.0
 70
128
 71
376
 72
477
 73
429
 74
332
 0
VERTEX
 8
0
 10
0.0
 20
0.0
 30
0.0
 70
128
 71
426
 72
427
 73
377
 74
428
 0
VERTEX
 8
0
 10
0.0
 20
0.0
 30
0.0
 70
128
 71
429
 72
430
 73
479
 74
336
 0
VERTEX
 8
0
 10
0.0
 20
0.0
 30
0.0
 70
128
 71
431
 72
428
 73
338
 74
432
 0
VERTEX
 8
0
 10
0.0
 20
0.0
 30
0.0
 70
128
 71
479
 72
478
 73
380
 74
379
 0
VERTEX
 8
0
 10
0.0
 20
0.0
 30
0.0
 70
128
 71
480
 72
432
 73
360
 74
433
 0
VERTEX
 8
0
 10
0.0
 20
0.0
 30
0.0
 70
128
 71
380
 72
526
 73
481
 74
434
 0
VERTEX
 8
0
 10
0.0
 20
0.0
 30
0.0
 70
128
 71
381
 72
434
 73
482
 74
382
 0
VERTEX
 8
0
 10
0.0
 20
0.0
 30
0.0
 70
128
 71
435
 72
382
 73
484
 74
485
 0
VERTEX
 8
0
 10
0.0
 20
0.0
 30
0.0
 70
128
 71
436
 72
485
 73
530
 74
438
 0
VERTEX
 8
0
 10
0.0
 20
0.0
 30
0.0
 70
128
 71
437
 72
438
 73
487
 74
383
 0
VERTEX
 8
0
 10
0.0
 20
0.0
 30
0.0
 70
128
 71
385
 72
383
 73
488
 74
439
 0
VERTEX
 8
0
 10
0.0
 20
0.0
 30
0.0
 70
128
 71
386
 72
439
 73
489
 74
387
 0
VERTEX
 8
0
 10
0.0
 20
0.0
 30
0.0
 70
128
 71
387
 72
534
 73
441
 74
440
 0
VERTEX
 8
0
 10
0.0
 20
0.0
 30
0.0
 70
128
 71
345
 72
441
 73
442
 74
443
 0
VERTEX
 8
0
 10
0.0
 20
0.0
 30
0.0
 70
128
 71
444
 72
443
 73
536
 74
445
 0
VERTEX
 8
0
 10
0.0
 20
0.0
 30
0.0
 70
128
 71
390
 72
445
 73
446
 74
447
 0
VERTEX
 8
0
 10
0.0
 20
0.0
 30
0.0
 70
128
 71
391
 72
348
 73
447
 74
464
 0
VERTEX
 8
0
 10
0.0
 20
0.0
 30
0.0
 70
128
 71
449
 72
392
 73
466
 74
490
 0
VERTEX
 8
0
 10
0.0
 20
0.0
 30
0.0
 70
128
 71
448
 72
393
 73
449
 74
491
 0
VERTEX
 8
0
 10
0.0
 20
0.0
 30
0.0
 70
128
 71
451
 72
394
 73
448
 74
539
 0
VERTEX
 8
0
 10
0.0
 20
0.0
 30
0.0
 70
128
 71
395
 72
450
 73
451
 74
452
 0
VERTEX
 8
0
 10
0.0
 20
0.0
 30
0.0
 70
128
 71
453
 72
454
 73
395
 74
492
 0
VERTEX
 8
0
 10
0.0
 20
0.0
 30
0.0
 70
128
 71
494
 72
455
 73
453
 74
495
 0
VERTEX
 8
0
 10
0.0
 20
0.0
 30
0.0
 70
128
 71
456
 72
396
 73
494
 74
493
 0
VERTEX
 8
0
 10
0.0
 20
0.0
 30
0.0
 70
128
 71
458
 72
358
 73
456
 74
496
 0
VERTEX
 8
0
 10
0.0
 20
0.0
 30
0.0
 70
128
 71
457
 72
398
 73
458
 74
498
 0
VERTEX
 8
0
 10
0.0
 20
0.0
 30
0.0
 70
128
 71
461
 72
459
 73
457
 74
544
 0
VERTEX
 8
0
 10
0.0
 20
0.0
 30
0.0
 70
128
 71
401
 72
460
 73
461
 74
462
 0
VERTEX
 8
0
 10
0.0
 20
0.0
 30
0.0
 70
128
 71
433
 72
401
 73
463
 74
480
 0
VERTEX
 8
0
 10
0.0
 20
0.0
 30
0.0
 70
128
 71
403
 72
391
 73
464
 74
465
 0
VERTEX
 8
0
 10
0.0
 20
0.0
 30
0.0
 70
128
 71
490
 72
466
 73
405
 74
404
 0
VERTEX
 8
0
 10
0.0
 20
0.0
 30
0.0
 70
128
 71
465
 72
467
 73
505
 74
407
 0
VERTEX
 8
0
 10
0.0
 20
0.0
 30
0.0
 70
128
 71
506
 72
404
 73
406
 74
468
 0
VERTEX
 8
0
 10
0.0
 20
0.0
 30
0.0
 70
128
 71
505
 72
507
 73
469
 74
408
 0
VERTEX
 8
0
 10
0.0
 20
0.0
 30
0.0
 70
128
 71
509
 72
468
 73
412
 74
411
 0
VERTEX
 8
0
 10
0.0
 20
0.0
 30
0.0
 70
128
 71
469
 72
470
 73
511
 74
471
 0
VERTEX
 8
0
 10
0.0
 20
0.0
 30
0.0
 70
128
 71
510
 72
411
 73
414
 74
474
 0
VERTEX
 8
0
 10
0.0
 20
0.0
 30
0.0
 70
128
 71
417
 72
511
 73
555
 74
472
 0
VERTEX
 8
0
 10
0.0
 20
0.0
 30
0.0
 70
128
 71
473
 72
474
 73
418
 74
514
 0
VERTEX
 8
0
 10
0.0
 20
0.0
 30
0.0
 70
128
 71
472
 72
513
 73
516
 74
475
 0
VERTEX
 8
0
 10
0.0
 20
0.0
 30
0.0
 70
128
 71
515
 72
514
 73
370
 74
476
 0
VERTEX
 8
0
 10
0.0
 20
0.0
 30
0.0
 70
128
 71
516
 72
518
 73
420
 74
419
 0
VERTEX
 8
0
 10
0.0
 20
0.0
 30
0.0
 70
128
 71
517
 72
476
 73
422
 74
421
 0
VERTEX
 8
0
 10
0.0
 20
0.0
 30
0.0
 70
128
 71
420
 72
519
 73
423
 74
373
 0
VERTEX
 8
0
 10
0.0
 20
0.0
 30
0.0
 70
128
 71
563
 72
421
 73
424
 74
520
 0
VERTEX
 8
0
 10
0.0
 20
0.0
 30
0.0
 70
128
 71
423
 72
521
 73
477
 74
376
 0
VERTEX
 8
0
 10
0.0
 20
0.0
 30
0.0
 70
128
 71
523
 72
520
 73
427
 74
426
 0
VERTEX
 8
0
 10
0.0
 20
0.0
 30
0.0
 70
128
 71
477
 72
522
 73
430
 74
429
 0
VERTEX
 8
0
 10
0.0
 20
0.0
 30
0.0
 70
128
 71
524
 72
426
 73
428
 74
431
 0
VERTEX
 8
0
 10
0.0
 20
0.0
 30
0.0
 70
128
 71
430
 72
570
 73
478
 74
479
 0
VERTEX
 8
0
 10
0.0
 20
0.0
 30
0.0
 70
128
 71
502
 72
431
 73
432
 74
480
 0
VERTEX
 8
0
 10
0.0
 20
0.0
 30
0.0
 70
128
 71
478
 72
572
 73
526
 74
380
 0
VERTEX
 8
0
 10
0.0
 20
0.0
 30
0.0
 70
128
 71
526
 72
527
 73
528
 74
481
 0
VERTEX
 8
0
 10
0.0
 20
0.0
 30
0.0
 70
128
 71
434
 72
481
 73
529
 74
482
 0
VERTEX
 8
0
 10
0.0
 20
0.0
 30
0.0
 70
128
 71
382
 72
482
 73
483
 74
484
 0
VERTEX
 8
0
 10
0.0
 20
0.0
 30
0.0
 70
128
 71
485
 72
484
 73
486
 74
530
 0
VERTEX
 8
0
 10
0.0
 20
0.0
 30
0.0
 70
128
 71
438
 72
530
 73
531
 74
487
 0
VERTEX
 8
0
 10
0.0
 20
0.0
 30
0.0
 70
128
 71
383
 72
487
 73
532
 74
488
 0
VERTEX
 8
0
 10
0.0
 20
0.0
 30
0.0
 70
128
 71
439
 72
488
 73
578
 74
489
 0
VERTEX
 8
0
 10
0.0
 20
0.0
 30
0.0
 70
128
 71
387
 72
489
 73
579
 74
534
 0
VERTEX
 8
0
 10
0.0
 20
0.0
 30
0.0
 70
128
 71
534
 72
535
 73
442
 74
441
 0
VERTEX
 8
0
 10
0.0
 20
0.0
 30
0.0
 70
128
 71
443
 72
442
 73
537
 74
536
 0
VERTEX
 8
0
 10
0.0
 20
0.0
 30
0.0
 70
128
 71
445
 72
536
 73
582
 74
446
 0
VERTEX
 8
0
 10
0.0
 20
0.0
 30
0.0
 70
128
 71
447
 72
446
 73
503
 74
464
 0
VERTEX
 8
0
 10
0.0
 20
0.0
 30
0.0
 70
128
 71
491
 72
449
 73
490
 74
504
 0
VERTEX
 8
0
 10
0.0
 20
0.0
 30
0.0
 70
128
 71
539
 72
448
 73
491
 74
584
 0
VERTEX
 8
0
 10
0.0
 20
0.0
 30
0.0
 70
128
 71
452
 72
451
 73
539
 74
538
 0
VERTEX
 8
0
 10
0.0
 20
0.0
 30
0.0
 70
128
 71
492
 72
395
 73
452
 74
586
 0
VERTEX
 8
0
 10
0.0
 20
0.0
 30
0.0
 70
128
 71
495
 72
453
 73
492
 74
541
 0
VERTEX
 8
0
 10
0.0
 20
0.0
 30
0.0
 70
128
 71
493
 72
494
 73
495
 74
543
 0
VERTEX
 8
0
 10
0.0
 20
0.0
 30
0.0
 70
128
 71
496
 72
456
 73
493
 74
542
 0
VERTEX
 8
0
 10
0.0
 20
0.0
 30
0.0
 70
128
 71
498
 72
458
 73
496
 74
497
 0
VERTEX
 8
0
 10
0.0
 20
0.0
 30
0.0
 70
128
 71
544
 72
457
 73
498
 74
545
 0
VERTEX
 8
0
 10
0.0
 20
0.0
 30
0.0
 70
128
 71
462
 72
461
 73
544
 74
499
 0
VERTEX
 8
0
 10
0.0
 20
0.0
 30
0.0
 70
128
 71
500
 72
463
 73
401
 74
462
 0
VERTEX
 8
0
 10
0.0
 20
0.0
 30
0.0
 70
128
 71
480
 72
463
 73
501
 74
502
 0
VERTEX
 8
0
 10
0.0
 20
0.0
 30
0.0
 70
128
 71
464
 72
503
 73
467
 74
465
 0
VERTEX
 8
0
 10
0.0
 20
0.0
 30
0.0
 70
128
 71
504
 72
490
 73
404
 74
506
 0
VERTEX
 8
0
 10
0.0
 20
0.0
 30
0.0
 70
128
 71
467
 72
596
 73
507
 74
505
 0
VERTEX
 8
0
 10
0.0
 20
0.0
 30
0.0
 70
128
 71
550
 72
506
 73
468
 74
509
 0
VERTEX
 8
0
 10
0.0
 20
0.0
 30
0.0
 70
128
 71
507
 72
552
 73
470
 74
469
 0
VERTEX
 8
0
 10
0.0
 20
0.0
 30
0.0
 70
128
 71
508
 72
509
 73
411
 74
510
 0
VERTEX
 8
0
 10
0.0
 20
0.0
 30
0.0
 70
128
 71
511
 72
470
 73
600
 74
555
 0
VERTEX
 8
0
 10
0.0
 20
0.0
 30
0.0
 70
128
 71
554
 72
510
 73
474
 74
473
 0
VERTEX
 8
0
 10
0.0
 20
0.0
 30
0.0
 70
128
 71
555
 72
512
 73
513
 74
472
 0
VERTEX
 8
0
 10
0.0
 20
0.0
 30
0.0
 70
128
 71
556
 72
473
 73
514
 74
515
 0
VERTEX
 8
0
 10
0.0
 20
0.0
 30
0.0
 70
128
 71
513
 72
557
 73
518
 74
516
 0
VERTEX
 8
0
 10
0.0
 20
0.0
 30
0.0
 70
128
 71
558
 72
515
 73
476
 74
517
 0
VERTEX
 8
0
 10
0.0
 20
0.0
 30
0.0
 70
128
 71
518
 72
607
 73
519
 74
420
 0
VERTEX
 8
0
 10
0.0
 20
0.0
 30
0.0
 70
128
 71
560
 72
517
 73
421
 74
563
 0
VERTEX
 8
0
 10
0.0
 20
0.0
 30
0.0
 70
128
 71
519
 72
562
 73
521
 74
423
 0
VERTEX
 8
0
 10
0.0
 20
0.0
 30
0.0
 70
128
 71
566
 72
563
 73
520
 74
523
 0
VERTEX
 8
0
 10
0.0
 20
0.0
 30
0.0
 70
128
 71
521
 72
565
 73
522
 74
477
 0
VERTEX
 8
0
 10
0.0
 20
0.0
 30
0.0
 70
128
 71
568
 72
523
 73
426
 74
524
 0
VERTEX
 8
0
 10
0.0
 20
0.0
 30
0.0
 70
128
 71
522
 72
569
 73
570
 74
430
 0
VERTEX
 8
0
 10
0.0
 20
0.0
 30
0.0
 70
128
 71
525
 72
524
 73
431
 74
502
 0
VERTEX
 8
0
 10
0.0
 20
0.0
 30
0.0
 70
128
 71
570
 72
571
 73
572
 74
478
 0
VERTEX
 8
0
 10
0.0
 20
0.0
 30
0.0
 70
128
 71
572
 72
613
 73
527
 74
526
 0
VERTEX
 8
0
 10
0.0
 20
0.0
 30
0.0
 70
128
 71
527
 72
615
 73
573
 74
528
 0
VERTEX
 8
0
 10
0.0
 20
0.0
 30
0.0
 70
128
 71
481
 72
528
 73
574
 74
529
 0
VERTEX
 8
0
 10
0.0
 20
0.0
 30
0.0
 70
128
 71
482
 72
529
 73
621
 74
483
 0
VERTEX
 8
0
 10
0.0
 20
0.0
 30
0.0
 70
128
 71
484
 72
483
 73
575
 74
486
 0
VERTEX
 8
0
 10
0.0
 20
0.0
 30
0.0
 70
128
 71
530
 72
486
 73
625
 74
531
 0
VERTEX
 8
0
 10
0.0
 20
0.0
 30
0.0
 70
128
 71
487
 72
531
 73
576
 74
532
 0
VERTEX
 8
0
 10
0.0
 20
0.0
 30
0.0
 70
128
 71
488
 72
532
 73
533
 74
578
 0
VERTEX
 8
0
 10
0.0
 20
0.0
 30
0.0
 70
128
 71
489
 72
578
 73
627
 74
579
 0
VERTEX
 8
0
 10
0.0
 20
0.0
 30
0.0
 70
128
 71
534
 72
579
 73
628
 74
535
 0
VERTEX
 8
0
 10
0.0
 20
0.0
 30
0.0
 70
128
 71
535
 72
580
 73
537
 74
442
 0
VERTEX
 8
0
 10
0.0
 20
0.0
 30
0.0
 70
128
 71
536
 72
537
 73
581
 74
582
 0
VERTEX
 8
0
 10
0.0
 20
0.0
 30
0.0
 70
128
 71
446
 72
582
 73
594
 74
503
 0
VERTEX
 8
0
 10
0.0
 20
0.0
 30
0.0
 70
128
 71
584
 72
491
 73
504
 74
549
 0
VERTEX
 8
0
 10
0.0
 20
0.0
 30
0.0
 70
128
 71
538
 72
539
 73
584
 74
583
 0
VERTEX
 8
0
 10
0.0
 20
0.0
 30
0.0
 70
128
 71
586
 72
452
 73
538
 74
540
 0
VERTEX
 8
0
 10
0.0
 20
0.0
 30
0.0
 70
128
 71
541
 72
492
 73
586
 74
633
 0
VERTEX
 8
0
 10
0.0
 20
0.0
 30
0.0
 70
128
 71
543
 72
495
 73
541
 74
634
 0
VERTEX
 8
0
 10
0.0
 20
0.0
 30
0.0
 70
128
 71
542
 72
493
 73
543
 74
587
 0
VERTEX
 8
0
 10
0.0
 20
0.0
 30
0.0
 70
128
 71
497
 72
496
 73
542
 74
639
 0
VERTEX
 8
0
 10
0.0
 20
0.0
 30
0.0
 70
128
 71
545
 72
498
 73
497
 74
641
 0
VERTEX
 8
0
 10
0.0
 20
0.0
 30
0.0
 70
128
 71
499
 72
544
 73
545
 74
589
 0
VERTEX
 8
0
 10
0.0
 20
0.0
 30
0.0
 70
128
 71
499
 72
546
 73
500
 74
462
 0
VERTEX
 8
0
 10
0.0
 20
0.0
 30
0.0
 70
128
 71
547
 72
501
 73
463
 74
500
 0
VERTEX
 8
0
 10
0.0
 20
0.0
 30
0.0
 70
128
 71
502
 72
501
 73
548
 74
525
 0
VERTEX
 8
0
 10
0.0
 20
0.0
 30
0.0
 70
128
 71
503
 72
594
 73
596
 74
467
 0
VERTEX
 8
0
 10
0.0
 20
0.0
 30
0.0
 70
128
 71
549
 72
504
 73
506
 74
550
 0
VERTEX
 8
0
 10
0.0
 20
0.0
 30
0.0
 70
128
 71
596
 72
551
 73
552
 74
507
 0
VERTEX
 8
0
 10
0.0
 20
0.0
 30
0.0
 70
128
 71
553
 72
550
 73
509
 74
508
 0
VERTEX
 8
0
 10
0.0
 20
0.0
 30
0.0
 70
128
 71
470
 72
552
 73
597
 74
600
 0
VERTEX
 8
0
 10
0.0
 20
0.0
 30
0.0
 70
128
 71
601
 72
508
 73
510
 74
554
 0
VERTEX
 8
0
 10
0.0
 20
0.0
 30
0.0
 70
128
 71
600
 72
651
 73
512
 74
555
 0
VERTEX
 8
0
 10
0.0
 20
0.0
 30
0.0
 70
128
 71
602
 72
554
 73
473
 74
556
 0
VERTEX
 8
0
 10
0.0
 20
0.0
 30
0.0
 70
128
 71
512
 72
604
 73
557
 74
513
 0
VERTEX
 8
0
 10
0.0
 20
0.0
 30
0.0
 70
128
 71
605
 72
556
 73
515
 74
558
 0
VERTEX
 8
0
 10
0.0
 20
0.0
 30
0.0
 70
128
 71
557
 72
606
 73
607
 74
518
 0
VERTEX
 8
0
 10
0.0
 20
0.0
 30
0.0
 70
128
 71
559
 72
558
 73
517
 74
560
 0
VERTEX
 8
0
 10
0.0
 20
0.0
 30
0.0
 70
128
 71
607
 72
561
 73
562
 74
519
 0
VERTEX
 8
0
 10
0.0
 20
0.0
 30
0.0
 70
128
 71
608
 72
560
 73
563
 74
566
 0
VERTEX
 8
0
 10
0.0
 20
0.0
 30
0.0
 70
128
 71
562
 72
564
 73
565
 74
521
 0
VERTEX
 8
0
 10
0.0
 20
0.0
 30
0.0
 70
128
 71
609
 72
566
 73
523
 74
568
 0
VERTEX
 8
0
 10
0.0
 20
0.0
 30
0.0
 70
128
 71
565
 72
610
 73
569
 74
522
 0
VERTEX
 8
0
 10
0.0
 20
0.0
 30
0.0
 70
128
 71
567
 72
568
 73
524
 74
525
 0
VERTEX
 8
0
 10
0.0
 20
0.0
 30
0.0
 70
128
 71
569
 72
661
 73
571
 74
570
 0
VERTEX
 8
0
 10
0.0
 20
0.0
 30
0.0
 70
128
 71
571
 72
611
 73
613
 74
572
 0
VERTEX
 8
0
 10
0.0
 20
0.0
 30
0.0
 70
128
 71
613
 72
612
 73
615
 74
527
 0
VERTEX
 8
0
 10
0.0
 20
0.0
 30
0.0
 70
128
 71
615
 72
614
 73
618
 74
573
 0
VERTEX
 8
0
 10
0.0
 20
0.0
 30
0.0
 70
128
 71
528
 72
573
 73
619
 74
574
 0
VERTEX
 8
0
 10
0.0
 20
0.0
 30
0.0
 70
128
 71
529
 72
574
 73
620
 74
621
 0
VERTEX
 8
0
 10
0.0
 20
0.0
 30
0.0
 70
128
 71
483
 72
621
 73
669
 74
575
 0
VERTEX
 8
0
 10
0.0
 20
0.0
 30
0.0
 70
128
 71
486
 72
575
 73
624
 74
625
 0
VERTEX
 8
0
 10
0.0
 20
0.0
 30
0.0
 70
128
 71
531
 72
625
 73
671
 74
576
 0
VERTEX
 8
0
 10
0.0
 20
0.0
 30
0.0
 70
128
 71
532
 72
576
 73
577
 74
533
 0
VERTEX
 8
0
 10
0.0
 20
0.0
 30
0.0
 70
128
 71
578
 72
533
 73
626
 74
627
 0
VERTEX
 8
0
 10
0.0
 20
0.0
 30
0.0
 70
128
 71
579
 72
627
 73
677
 74
628
 0
VERTEX
 8
0
 10
0.0
 20
0.0
 30
0.0
 70
128
 71
535
 72
628
 73
679
 74
580
 0
VERTEX
 8
0
 10
0.0
 20
0.0
 30
0.0
 70
128
 71
580
 72
630
 73
581
 74
537
 0
VERTEX
 8
0
 10
0.0
 20
0.0
 30
0.0
 70
128
 71
582
 72
581
 73
595
 74
594
 0
VERTEX
 8
0
 10
0.0
 20
0.0
 30
0.0
 70
128
 71
583
 72
584
 73
549
 74
649
 0
VERTEX
 8
0
 10
0.0
 20
0.0
 30
0.0
 70
128
 71
540
 72
538
 73
583
 74
585
 0
VERTEX
 8
0
 10
0.0
 20
0.0
 30
0.0
 70
128
 71
633
 72
586
 73
540
 74
683
 0
VERTEX
 8
0
 10
0.0
 20
0.0
 30
0.0
 70
128
 71
634
 72
541
 73
633
 74
632
 0
VERTEX
 8
0
 10
0.0
 20
0.0
 30
0.0
 70
128
 71
587
 72
543
 73
634
 74
636
 0
VERTEX
 8
0
 10
0.0
 20
0.0
 30
0.0
 70
128
 71
639
 72
542
 73
587
 74
588
 0
VERTEX
 8
0
 10
0.0
 20
0.0
 30
0.0
 70
128
 71
641
 72
497
 73
639
 74
638
 0
VERTEX
 8
0
 10
0.0
 20
0.0
 30
0.0
 70
128
 71
589
 72
545
 73
641
 74
640
 0
VERTEX
 8
0
 10
0.0
 20
0.0
 30
0.0
 70
128
 71
589
 72
590
 73
546
 74
499
 0
VERTEX
 8
0
 10
0.0
 20
0.0
 30
0.0
 70
128
 71
547
 72
500
 73
546
 74
591
 0
VERTEX
 8
0
 10
0.0
 20
0.0
 30
0.0
 70
128
 71
592
 72
548
 73
501
 74
547
 0
VERTEX
 8
0
 10
0.0
 20
0.0
 30
0.0
 70
128
 71
525
 72
548
 73
593
 74
567
 0
VERTEX
 8
0
 10
0.0
 20
0.0
 30
0.0
 70
128
 71
594
 72
595
 73
551
 74
596
 0
VERTEX
 8
0
 10
0.0
 20
0.0
 30
0.0
 70
128
 71
649
 72
549
 73
550
 74
553
 0
VERTEX
 8
0
 10
0.0
 20
0.0
 30
0.0
 70
128
 71
552
 72
551
 73
650
 74
597
 0
VERTEX
 8
0
 10
0.0
 20
0.0
 30
0.0
 70
128
 71
598
 72
553
 73
508
 74
601
 0
VERTEX
 8
0
 10
0.0
 20
0.0
 30
0.0
 70
128
 71
597
 72
599
 73
651
 74
600
 0
VERTEX
 8
0
 10
0.0
 20
0.0
 30
0.0
 70
128
 71
695
 72
601
 73
554
 74
602
 0
VERTEX
 8
0
 10
0.0
 20
0.0
 30
0.0
 70
128
 71
651
 72
603
 73
604
 74
512
 0
VERTEX
 8
0
 10
0.0
 20
0.0
 30
0.0
 70
128
 71
653
 72
602
 73
556
 74
605
 0
VERTEX
 8
0
 10
0.0
 20
0.0
 30
0.0
 70
128
 71
604
 72
700
 73
606
 74
557
 0
VERTEX
 8
0
 10
0.0
 20
0.0
 30
0.0
 70
128
 71
702
 72
605
 73
558
 74
559
 0
VERTEX
 8
0
 10
0.0
 20
0.0
 30
0.0
 70
128
 71
606
 72
655
 73
561
 74
607
 0
VERTEX
 8
0
 10
0.0
 20
0.0
 30
0.0
 70
128
 71
656
 72
559
 73
560
 74
608
 0
VERTEX
 8
0
 10
0.0
 20
0.0
 30
0.0
 70
128
 71
561
 72
657
 73
564
 74
562
 0
VERTEX
 8
0
 10
0.0
 20
0.0
 30
0.0
 70
128
 71
658
 72
608
 73
566
 74
609
 0
VERTEX
 8
0
 10
0.0
 20
0.0
 30
0.0
 70
128
 71
564
 72
659
 73
610
 74
565
 0
VERTEX
 8
0
 10
0.0
 20
0.0
 30
0.0
 70
128
 71
648
 72
609
 73
568
 74
567
 0
VERTEX
 8
0
 10
0.0
 20
0.0
 30
0.0
 70
128
 71
610
 72
660
 73
661
 74
569
 0
VERTEX
 8
0
 10
0.0
 20
0.0
 30
0.0
 70
128
 71
661
 72
710
 73
611
 74
571
 0
VERTEX
 8
0
 10
0.0
 20
0.0
 30
0.0
 70
128
 71
611
 72
662
 73
612
 74
613
 0
VERTEX
 8
0
 10
0.0
 20
0.0
 30
0.0
 70
128
 71
612
 72
616
 73
614
 74
615
 0
VERTEX
 8
0
 10
0.0
 20
0.0
 30
0.0
 70
128
 71
616
 72
617
 73
618
 74
614
 0
VERTEX
 8
0
 10
0.0
 20
0.0
 30
0.0
 70
128
 71
573
 72
618
 73
666
 74
619
 0
VERTEX
 8
0
 10
0.0
 20
0.0
 30
0.0
 70
128
 71
574
 72
619
 73
668
 74
620
 0
VERTEX
 8
0
 10
0.0
 20
0.0
 30
0.0
 70
128
 71
621
 72
620
 73
622
 74
669
 0
VERTEX
 8
0
 10
0.0
 20
0.0
 30
0.0
 70
128
 71
575
 72
669
 73
623
 74
624
 0
VERTEX
 8
0
 10
0.0
 20
0.0
 30
0.0
 70
128
 71
625
 72
624
 73
672
 74
671
 0
VERTEX
 8
0
 10
0.0
 20
0.0
 30
0.0
 70
128
 71
576
 72
671
 73
673
 74
577
 0
VERTEX
 8
0
 10
0.0
 20
0.0
 30
0.0
 70
128
 71
533
 72
577
 73
675
 74
626
 0
VERTEX
 8
0
 10
0.0
 20
0.0
 30
0.0
 70
128
 71
627
 72
626
 73
678
 74
677
 0
VERTEX
 8
0
 10
0.0
 20
0.0
 30
0.0
 70
128
 71
628
 72
677
 73
629
 74
679
 0
VERTEX
 8
0
 10
0.0
 20
0.0
 30
0.0
 70
128
 71
580
 72
679
 73
680
 74
630
 0
VERTEX
 8
0
 10
0.0
 20
0.0
 30
0.0
 70
128
 71
630
 72
631
 73
595
 74
581
 0
VERTEX
 8
0
 10
0.0
 20
0.0
 30
0.0
 70
128
 71
585
 72
583
 73
649
 74
691
 0
VERTEX
 8
0
 10
0.0
 20
0.0
 30
0.0
 70
128
 71
683
 72
540
 73
585
 74
681
 0
VERTEX
 8
0
 10
0.0
 20
0.0
 30
0.0
 70
128
 71
632
 72
633
 73
683
 74
682
 0
VERTEX
 8
0
 10
0.0
 20
0.0
 30
0.0
 70
128
 71
636
 72
634
 73
632
 74
635
 0
VERTEX
 8
0
 10
0.0
 20
0.0
 30
0.0
 70
128
 71
588
 72
587
 73
636
 74
637
 0
VERTEX
 8
0
 10
0.0
 20
0.0
 30
0.0
 70
128
 71
638
 72
639
 73
588
 74
684
 0
VERTEX
 8
0
 10
0.0
 20
0.0
 30
0.0
 70
128
 71
640
 72
641
 73
638
 74
642
 0
VERTEX
 8
0
 10
0.0
 20
0.0
 30
0.0
 70
128
 71
589
 72
640
 73
643
 74
590
 0
VERTEX
 8
0
 10
0.0
 20
0.0
 30
0.0
 70
128
 71
591
 72
546
 73
590
 74
644
 0
VERTEX
 8
0
 10
0.0
 20
0.0
 30
0.0
 70
128
 71
592
 72
547
 73
591
 74
645
 0
VERTEX
 8
0
 10
0.0
 20
0.0
 30
0.0
 70
128
 71
646
 72
593
 73
548
 74
592
 0
VERTEX
 8
0
 10
0.0
 20
0.0
 30
0.0
 70
128
 71
567
 72
593
 73
647
 74
648
 0
VERTEX
 8
0
 10
0.0
 20
0.0
 30
0.0
 70
128
 71
631
 72
650
 73
551
 74
595
 0
VERTEX
 8
0
 10
0.0
 20
0.0
 30
0.0
 70
128
 71
691
 72
649
 73
553
 74
598
 0
VERTEX
 8
0
 10
0.0
 20
0.0
 30
0.0
 70
128
 71
650
 72
731
 73
599
 74
597
 0
VERTEX
 8
0
 10
0.0
 20
0.0
 30
0.0
 70
128
 71
692
 72
598
 73
601
 74
695
 0
VERTEX
 8
0
 10
0.0
 20
0.0
 30
0.0
 70
128
 71
599
 72
694
 73
603
 74
651
 0
VERTEX
 8
0
 10
0.0
 20
0.0
 30
0.0
 70
128
 71
733
 72
695
 73
602
 74
653
 0
VERTEX
 8
0
 10
0.0
 20
0.0
 30
0.0
 70
128
 71
603
 72
698
 73
700
 74
604
 0
VERTEX
 8
0
 10
0.0
 20
0.0
 30
0.0
 70
128
 71
652
 72
653
 73
605
 74
702
 0
VERTEX
 8
0
 10
0.0
 20
0.0
 30
0.0
 70
128
 71
700
 72
654
 73
655
 74
606
 0
VERTEX
 8
0
 10
0.0
 20
0.0
 30
0.0
 70
128
 71
734
 72
702
 73
559
 74
656
 0
VERTEX
 8
0
 10
0.0
 20
0.0
 30
0.0
 70
128
 71
655
 72
704
 73
657
 74
561
 0
VERTEX
 8
0
 10
0.0
 20
0.0
 30
0.0
 70
128
 71
706
 72
656
 73
608
 74
658
 0
VERTEX
 8
0
 10
0.0
 20
0.0
 30
0.0
 70
128
 71
657
 72
739
 73
659
 74
564
 0
VERTEX
 8
0
 10
0.0
 20
0.0
 30
0.0
 70
128
 71
690
 72
658
 73
609
 74
648
 0
VERTEX
 8
0
 10
0.0
 20
0.0
 30
0.0
 70
128
 71
659
 72
707
 73
660
 74
610
 0
VERTEX
 8
0
 10
0.0
 20
0.0
 30
0.0
 70
128
 71
660
 72
709
 73
710
 74
661
 0
VERTEX
 8
0
 10
0.0
 20
0.0
 30
0.0
 70
128
 71
710
 72
711
 73
662
 74
611
 0
VERTEX
 8
0
 10
0.0
 20
0.0
 30
0.0
 70
128
 71
662
 72
663
 73
616
 74
612
 0
VERTEX
 8
0
 10
0.0
 20
0.0
 30
0.0
 70
128
 71
663
 72
664
 73
617
 74
616
 0
VERTEX
 8
0
 10
0.0
 20
0.0
 30
0.0
 70
128
 71
666
 72
618
 73
617
 74
665
 0
VERTEX
 8
0
 10
0.0
 20
0.0
 30
0.0
 70
128
 71
619
 72
666
 73
667
 74
668
 0
VERTEX
 8
0
 10
0.0
 20
0.0
 30
0.0
 70
128
 71
620
 72
668
 73
716
 74
622
 0
VERTEX
 8
0
 10
0.0
 20
0.0
 30
0.0
 70
128
 71
669
 72
622
 73
717
 74
623
 0
VERTEX
 8
0
 10
0.0
 20
0.0
 30
0.0
 70
128
 71
624
 72
623
 73
670
 74
672
 0
VERTEX
 8
0
 10
0.0
 20
0.0
 30
0.0
 70
128
 71
671
 72
672
 73
719
 74
673
 0
VERTEX
 8
0
 10
0.0
 20
0.0
 30
0.0
 70
128
 71
577
 72
673
 73
674
 74
675
 0
VERTEX
 8
0
 10
0.0
 20
0.0
 30
0.0
 70
128
 71
626
 72
675
 73
676
 74
678
 0
VERTEX
 8
0
 10
0.0
 20
0.0
 30
0.0
 70
128
 71
677
 72
678
 73
721
 74
629
 0
VERTEX
 8
0
 10
0.0
 20
0.0
 30
0.0
 70
128
 71
679
 72
629
 73
722
 74
680
 0
VERTEX
 8
0
 10
0.0
 20
0.0
 30
0.0
 70
128
 71
630
 72
680
 73
730
 74
631
 0
VERTEX
 8
0
 10
0.0
 20
0.0
 30
0.0
 70
128
 71
681
 72
585
 73
691
 74
723
 0
VERTEX
 8
0
 10
0.0
 20
0.0
 30
0.0
 70
128
 71
682
 72
683
 73
681
 74
724
 0
VERTEX
 8
0
 10
0.0
 20
0.0
 30
0.0
 70
128
 71
635
 72
632
 73
682
 74
755
 0
VERTEX
 8
0
 10
0.0
 20
0.0
 30
0.0
 70
128
 71
637
 72
636
 73
635
 74
756
 0
VERTEX
 8
0
 10
0.0
 20
0.0
 30
0.0
 70
128
 71
684
 72
588
 73
637
 74
725
 0
VERTEX
 8
0
 10
0.0
 20
0.0
 30
0.0
 70
128
 71
642
 72
638
 73
684
 74
685
 0
VERTEX
 8
0
 10
0.0
 20
0.0
 30
0.0
 70
128
 71
685
 72
643
 73
640
 74
642
 0
VERTEX
 8
0
 10
0.0
 20
0.0
 30
0.0
 70
128
 71
590
 72
643
 73
686
 74
644
 0
VERTEX
 8
0
 10
0.0
 20
0.0
 30
0.0
 70
128
 71
645
 72
591
 73
644
 74
687
 0
VERTEX
 8
0
 10
0.0
 20
0.0
 30
0.0
 70
128
 71
645
 72
688
 73
646
 74
592
 0
VERTEX
 8
0
 10
0.0
 20
0.0
 30
0.0
 70
128
 71
689
 72
647
 73
593
 74
646
 0
VERTEX
 8
0
 10
0.0
 20
0.0
 30
0.0
 70
128
 71
648
 72
647
 73
705
 74
690
 0
VERTEX
 8
0
 10
0.0
 20
0.0
 30
0.0
 70
128
 71
631
 72
730
 73
731
 74
650
 0
VERTEX
 8
0
 10
0.0
 20
0.0
 30
0.0
 70
128
 71
723
 72
691
 73
598
 74
692
 0
VERTEX
 8
0
 10
0.0
 20
0.0
 30
0.0
 70
128
 71
731
 72
693
 73
694
 74
599
 0
VERTEX
 8
0
 10
0.0
 20
0.0
 30
0.0
 70
128
 71
732
 72
692
 73
695
 74
733
 0
VERTEX
 8
0
 10
0.0
 20
0.0
 30
0.0
 70
128
 71
694
 72
696
 73
698
 74
603
 0
VERTEX
 8
0
 10
0.0
 20
0.0
 30
0.0
 70
128
 71
697
 72
733
 73
653
 74
652
 0
VERTEX
 8
0
 10
0.0
 20
0.0
 30
0.0
 70
128
 71
698
 72
699
 73
654
 74
700
 0
VERTEX
 8
0
 10
0.0
 20
0.0
 30
0.0
 70
128
 71
701
 72
652
 73
702
 74
734
 0
VERTEX
 8
0
 10
0.0
 20
0.0
 30
0.0
 70
128
 71
654
 72
703
 73
704
 74
655
 0
VERTEX
 8
0
 10
0.0
 20
0.0
 30
0.0
 70
128
 71
770
 72
734
 73
656
 74
706
 0
VERTEX
 8
0
 10
0.0
 20
0.0
 30
0.0
 70
128
 71
704
 72
736
 73
739
 74
657
 0
VERTEX
 8
0
 10
0.0
 20
0.0
 30
0.0
 70
128
 71
705
 72
706
 73
658
 74
690
 0
VERTEX
 8
0
 10
0.0
 20
0.0
 30
0.0
 70
128
 71
739
 72
738
 73
707
 74
659
 0
VERTEX
 8
0
 10
0.0
 20
0.0
 30
0.0
 70
128
 71
707
 72
708
 73
709
 74
660
 0
VERTEX
 8
0
 10
0.0
 20
0.0
 30
0.0
 70
128
 71
709
 72
773
 73
711
 74
710
 0
VERTEX
 8
0
 10
0.0
 20
0.0
 30
0.0
 70
128
 71
711
 72
742
 73
663
 74
662
 0
VERTEX
 8
0
 10
0.0
 20
0.0
 30
0.0
 70
128
 71
742
 72
712
 73
664
 74
663
 0
VERTEX
 8
0
 10
0.0
 20
0.0
 30
0.0
 70
128
 71
665
 72
617
 73
664
 74
713
 0
VERTEX
 8
0
 10
0.0
 20
0.0
 30
0.0
 70
128
 71
665
 72
714
 73
667
 74
666
 0
VERTEX
 8
0
 10
0.0
 20
0.0
 30
0.0
 70
128
 71
668
 72
667
 73
715
 74
716
 0
VERTEX
 8
0
 10
0.0
 20
0.0
 30
0.0
 70
128
 71
622
 72
716
 73
780
 74
717
 0
VERTEX
 8
0
 10
0.0
 20
0.0
 30
0.0
 70
128
 71
623
 72
717
 73
747
 74
670
 0
VERTEX
 8
0
 10
0.0
 20
0.0
 30
0.0
 70
128
 71
672
 72
670
 73
718
 74
719
 0
VERTEX
 8
0
 10
0.0
 20
0.0
 30
0.0
 70
128
 71
673
 72
719
 73
784
 74
674
 0
VERTEX
 8
0
 10
0.0
 20
0.0
 30
0.0
 70
128
 71
675
 72
674
 73
748
 74
676
 0
VERTEX
 8
0
 10
0.0
 20
0.0
 30
0.0
 70
128
 71
678
 72
676
 73
720
 74
721
 0
VERTEX
 8
0
 10
0.0
 20
0.0
 30
0.0
 70
128
 71
629
 72
721
 73
751
 74
722
 0
VERTEX
 8
0
 10
0.0
 20
0.0
 30
0.0
 70
128
 71
680
 72
722
 73
761
 74
730
 0
VERTEX
 8
0
 10
0.0
 20
0.0
 30
0.0
 70
128
 71
724
 72
681
 73
723
 74
763
 0
VERTEX
 8
0
 10
0.0
 20
0.0
 30
0.0
 70
128
 71
755
 72
682
 73
724
 74
753
 0
VERTEX
 8
0
 10
0.0
 20
0.0
 30
0.0
 70
128
 71
756
 72
635
 73
755
 74
786
 0
VERTEX
 8
0
 10
0.0
 20
0.0
 30
0.0
 70
128
 71
725
 72
637
 73
756
 74
787
 0
VERTEX
 8
0
 10
0.0
 20
0.0
 30
0.0
 70
128
 71
685
 72
684
 73
725
 74
757
 0
VERTEX
 8
0
 10
0.0
 20
0.0
 30
0.0
 70
128
 71
757
 72
686
 73
643
 74
685
 0
VERTEX
 8
0
 10
0.0
 20
0.0
 30
0.0
 70
128
 71
644
 72
686
 73
726
 74
687
 0
VERTEX
 8
0
 10
0.0
 20
0.0
 30
0.0
 70
128
 71
687
 72
727
 73
688
 74
645
 0
VERTEX
 8
0
 10
0.0
 20
0.0
 30
0.0
 70
128
 71
688
 72
728
 73
689
 74
646
 0
VERTEX
 8
0
 10
0.0
 20
0.0
 30
0.0
 70
128
 71
729
 72
705
 73
647
 74
689
 0
VERTEX
 8
0
 10
0.0
 20
0.0
 30
0.0
 70
128
 71
730
 72
761
 73
693
 74
731
 0
VERTEX
 8
0
 10
0.0
 20
0.0
 30
0.0
 70
128
 71
763
 72
723
 73
692
 74
732
 0
VERTEX
 8
0
 10
0.0
 20
0.0
 30
0.0
 70
128
 71
693
 72
762
 73
696
 74
694
 0
VERTEX
 8
0
 10
0.0
 20
0.0
 30
0.0
 70
128
 71
791
 72
732
 73
733
 74
697
 0
VERTEX
 8
0
 10
0.0
 20
0.0
 30
0.0
 70
128
 71
696
 72
766
 73
699
 74
698
 0
VERTEX
 8
0
 10
0.0
 20
0.0
 30
0.0
 70
128
 71
765
 72
697
 73
652
 74
701
 0
VERTEX
 8
0
 10
0.0
 20
0.0
 30
0.0
 70
128
 71
699
 72
767
 73
703
 74
654
 0
VERTEX
 8
0
 10
0.0
 20
0.0
 30
0.0
 70
128
 71
794
 72
701
 73
734
 74
770
 0
VERTEX
 8
0
 10
0.0
 20
0.0
 30
0.0
 70
128
 71
703
 72
735
 73
736
 74
704
 0
VERTEX
 8
0
 10
0.0
 20
0.0
 30
0.0
 70
128
 71
729
 72
770
 73
706
 74
705
 0
VERTEX
 8
0
 10
0.0
 20
0.0
 30
0.0
 70
128
 71
736
 72
737
 73
738
 74
739
 0
VERTEX
 8
0
 10
0.0
 20
0.0
 30
0.0
 70
128
 71
738
 72
740
 73
708
 74
707
 0
VERTEX
 8
0
 10
0.0
 20
0.0
 30
0.0
 70
128
 71
708
 72
741
 73
773
 74
709
 0
VERTEX
 8
0
 10
0.0
 20
0.0
 30
0.0
 70
128
 71
773
 72
772
 73
742
 74
711
 0
VERTEX
 8
0
 10
0.0
 20
0.0
 30
0.0
 70
128
 71
772
 72
743
 73
712
 74
742
 0
VERTEX
 8
0
 10
0.0
 20
0.0
 30
0.0
 70
128
 71
713
 72
664
 73
712
 74
744
 0
VERTEX
 8
0
 10
0.0
 20
0.0
 30
0.0
 70
128
 71
713
 72
745
 73
714
 74
665
 0
VERTEX
 8
0
 10
0.0
 20
0.0
 30
0.0
 70
128
 71
714
 72
746
 73
715
 74
667
 0
VERTEX
 8
0
 10
0.0
 20
0.0
 30
0.0
 70
128
 71
716
 72
715
 73
781
 74
780
 0
VERTEX
 8
0
 10
0.0
 20
0.0
 30
0.0
 70
128
 71
717
 72
780
 73
782
 74
747
 0
VERTEX
 8
0
 10
0.0
 20
0.0
 30
0.0
 70
128
 71
670
 72
747
 73
783
 74
718
 0
VERTEX
 8
0
 10
0.0
 20
0.0
 30
0.0
 70
128
 71
719
 72
718
 73
804
 74
784
 0
VERTEX
 8
0
 10
0.0
 20
0.0
 30
0.0
 70
128
 71
674
 72
784
 73
808
 74
748
 0
VERTEX
 8
0
 10
0.0
 20
0.0
 30
0.0
 70
128
 71
676
 72
748
 73
749
 74
720
 0
VERTEX
 8
0
 10
0.0
 20
0.0
 30
0.0
 70
128
 71
721
 72
720
 73
750
 74
751
 0
VERTEX
 8
0
 10
0.0
 20
0.0
 30
0.0
 70
128
 71
722
 72
751
 73
752
 74
761
 0
VERTEX
 8
0
 10
0.0
 20
0.0
 30
0.0
 70
128
 71
753
 72
724
 73
763
 74
754
 0
VERTEX
 8
0
 10
0.0
 20
0.0
 30
0.0
 70
128
 71
786
 72
755
 73
753
 74
785
 0
VERTEX
 8
0
 10
0.0
 20
0.0
 30
0.0
 70
128
 71
787
 72
756
 73
786
 74
813
 0
VERTEX
 8
0
 10
0.0
 20
0.0
 30
0.0
 70
128
 71
757
 72
725
 73
787
 74
758
 0
VERTEX
 8
0
 10
0.0
 20
0.0
 30
0.0
 70
128
 71
758
 72
726
 73
686
 74
757
 0
VERTEX
 8
0
 10
0.0
 20
0.0
 30
0.0
 70
128
 71
687
 72
726
 73
759
 74
727
 0
VERTEX
 8
0
 10
0.0
 20
0.0
 30
0.0
 70
128
 71
727
 72
760
 73
728
 74
688
 0
VERTEX
 8
0
 10
0.0
 20
0.0
 30
0.0
 70
128
 71
729
 72
689
 73
728
 74
769
 0
VERTEX
 8
0
 10
0.0
 20
0.0
 30
0.0
 70
128
 71
761
 72
752
 73
762
 74
693
 0
VERTEX
 8
0
 10
0.0
 20
0.0
 30
0.0
 70
128
 71
754
 72
763
 73
732
 74
791
 0
VERTEX
 8
0
 10
0.0
 20
0.0
 30
0.0
 70
128
 71
762
 72
792
 73
766
 74
696
 0
VERTEX
 8
0
 10
0.0
 20
0.0
 30
0.0
 70
128
 71
764
 72
791
 73
697
 74
765
 0
VERTEX
 8
0
 10
0.0
 20
0.0
 30
0.0
 70
128
 71
766
 72
793
 73
767
 74
699
 0
VERTEX
 8
0
 10
0.0
 20
0.0
 30
0.0
 70
128
 71
818
 72
765
 73
701
 74
794
 0
VERTEX
 8
0
 10
0.0
 20
0.0
 30
0.0
 70
128
 71
767
 72
768
 73
735
 74
703
 0
VERTEX
 8
0
 10
0.0
 20
0.0
 30
0.0
 70
128
 71
769
 72
794
 73
770
 74
729
 0
VERTEX
 8
0
 10
0.0
 20
0.0
 30
0.0
 70
128
 71
735
 72
820
 73
737
 74
736
 0
VERTEX
 8
0
 10
0.0
 20
0.0
 30
0.0
 70
128
 71
737
 72
771
 73
740
 74
738
 0
VERTEX
 8
0
 10
0.0
 20
0.0
 30
0.0
 70
128
 71
740
 72
823
 73
741
 74
708
 0
VERTEX
 8
0
 10
0.0
 20
0.0
 30
0.0
 70
128
 71
741
 72
774
 73
772
 74
773
 0
VERTEX
 8
0
 10
0.0
 20
0.0
 30
0.0
 70
128
 71
774
 72
775
 73
743
 74
772
 0
VERTEX
 8
0
 10
0.0
 20
0.0
 30
0.0
 70
128
 71
744
 72
712
 73
743
 74
776
 0
VERTEX
 8
0
 10
0.0
 20
0.0
 30
0.0
 70
128
 71
745
 72
713
 73
744
 74
777
 0
VERTEX
 8
0
 10
0.0
 20
0.0
 30
0.0
 70
128
 71
745
 72
778
 73
746
 74
714
 0
VERTEX
 8
0
 10
0.0
 20
0.0
 30
0.0
 70
128
 71
746
 72
779
 73
781
 74
715
 0
VERTEX
 8
0
 10
0.0
 20
0.0
 30
0.0
 70
128
 71
780
 72
781
 73
801
 74
782
 0
VERTEX
 8
0
 10
0.0
 20
0.0
 30
0.0
 70
128
 71
747
 72
782
 73
803
 74
783
 0
VERTEX
 8
0
 10
0.0
 20
0.0
 30
0.0
 70
128
 71
718
 72
783
 73
805
 74
804
 0
VERTEX
 8
0
 10
0.0
 20
0.0
 30
0.0
 70
128
 71
784
 72
804
 73
807
 74
808
 0
VERTEX
 8
0
 10
0.0
 20
0.0
 30
0.0
 70
128
 71
748
 72
808
 73
809
 74
749
 0
VERTEX
 8
0
 10
0.0
 20
0.0
 30
0.0
 70
128
 71
720
 72
749
 73
831
 74
750
 0
VERTEX
 8
0
 10
0.0
 20
0.0
 30
0.0
 70
128
 71
751
 72
750
 73
815
 74
752
 0
VERTEX
 8
0
 10
0.0
 20
0.0
 30
0.0
 70
128
 71
785
 72
753
 73
754
 74
812
 0
VERTEX
 8
0
 10
0.0
 20
0.0
 30
0.0
 70
128
 71
813
 72
786
 73
785
 74
833
 0
VERTEX
 8
0
 10
0.0
 20
0.0
 30
0.0
 70
128
 71
758
 72
787
 73
813
 74
788
 0
VERTEX
 8
0
 10
0.0
 20
0.0
 30
0.0
 70
128
 71
788
 72
759
 73
726
 74
758
 0
VERTEX
 8
0
 10
0.0
 20
0.0
 30
0.0
 70
128
 71
727
 72
759
 73
789
 74
760
 0
VERTEX
 8
0
 10
0.0
 20
0.0
 30
0.0
 70
128
 71
769
 72
728
 73
760
 74
790
 0
VERTEX
 8
0
 10
0.0
 20
0.0
 30
0.0
 70
128
 71
752
 72
815
 73
792
 74
762
 0
VERTEX
 8
0
 10
0.0
 20
0.0
 30
0.0
 70
128
 71
812
 72
754
 73
791
 74
764
 0
VERTEX
 8
0
 10
0.0
 20
0.0
 30
0.0
 70
128
 71
792
 72
835
 73
793
 74
766
 0
VERTEX
 8
0
 10
0.0
 20
0.0
 30
0.0
 70
128
 71
817
 72
764
 73
765
 74
818
 0
VERTEX
 8
0
 10
0.0
 20
0.0
 30
0.0
 70
128
 71
793
 72
837
 73
768
 74
767
 0
VERTEX
 8
0
 10
0.0
 20
0.0
 30
0.0
 70
128
 71
790
 72
818
 73
794
 74
769
 0
VERTEX
 8
0
 10
0.0
 20
0.0
 30
0.0
 70
128
 71
768
 72
795
 73
820
 74
735
 0
VERTEX
 8
0
 10
0.0
 20
0.0
 30
0.0
 70
128
 71
820
 72
821
 73
771
 74
737
 0
VERTEX
 8
0
 10
0.0
 20
0.0
 30
0.0
 70
128
 71
771
 72
838
 73
823
 74
740
 0
VERTEX
 8
0
 10
0.0
 20
0.0
 30
0.0
 70
128
 71
823
 72
796
 73
774
 74
741
 0
VERTEX
 8
0
 10
0.0
 20
0.0
 30
0.0
 70
128
 71
796
 72
822
 73
775
 74
774
 0
VERTEX
 8
0
 10
0.0
 20
0.0
 30
0.0
 70
128
 71
776
 72
743
 73
775
 74
797
 0
VERTEX
 8
0
 10
0.0
 20
0.0
 30
0.0
 70
128
 71
777
 72
744
 73
776
 74
798
 0
VERTEX
 8
0
 10
0.0
 20
0.0
 30
0.0
 70
128
 71
778
 72
745
 73
777
 74
799
 0
VERTEX
 8
0
 10
0.0
 20
0.0
 30
0.0
 70
128
 71
778
 72
800
 73
779
 74
746
 0
VERTEX
 8
0
 10
0.0
 20
0.0
 30
0.0
 70
128
 71
801
 72
781
 73
779
 74
802
 0
VERTEX
 8
0
 10
0.0
 20
0.0
 30
0.0
 70
128
 71
782
 72
801
 73
802
 74
803
 0
VERTEX
 8
0
 10
0.0
 20
0.0
 30
0.0
 70
128
 71
783
 72
803
 73
843
 74
805
 0
VERTEX
 8
0
 10
0.0
 20
0.0
 30
0.0
 70
128
 71
804
 72
805
 73
806
 74
807
 0
VERTEX
 8
0
 10
0.0
 20
0.0
 30
0.0
 70
128
 71
808
 72
807
 73
830
 74
809
 0
VERTEX
 8
0
 10
0.0
 20
0.0
 30
0.0
 70
128
 71
749
 72
809
 73
810
 74
831
 0
VERTEX
 8
0
 10
0.0
 20
0.0
 30
0.0
 70
128
 71
750
 72
831
 73
811
 74
815
 0
VERTEX
 8
0
 10
0.0
 20
0.0
 30
0.0
 70
128
 71
833
 72
785
 73
812
 74
836
 0
VERTEX
 8
0
 10
0.0
 20
0.0
 30
0.0
 70
128
 71
788
 72
813
 73
833
 74
814
 0
VERTEX
 8
0
 10
0.0
 20
0.0
 30
0.0
 70
128
 71
814
 72
789
 73
759
 74
788
 0
VERTEX
 8
0
 10
0.0
 20
0.0
 30
0.0
 70
128
 71
760
 72
789
 73
816
 74
790
 0
VERTEX
 8
0
 10
0.0
 20
0.0
 30
0.0
 70
128
 71
815
 72
811
 73
835
 74
792
 0
VERTEX
 8
0
 10
0.0
 20
0.0
 30
0.0
 70
128
 71
836
 72
812
 73
764
 74
817
 0
VERTEX
 8
0
 10
0.0
 20
0.0
 30
0.0
 70
128
 71
835
 72
848
 73
837
 74
793
 0
VERTEX
 8
0
 10
0.0
 20
0.0
 30
0.0
 70
128
 71
816
 72
817
 73
818
 74
790
 0
VERTEX
 8
0
 10
0.0
 20
0.0
 30
0.0
 70
128
 71
837
 72
850
 73
795
 74
768
 0
VERTEX
 8
0
 10
0.0
 20
0.0
 30
0.0
 70
128
 71
795
 72
819
 73
821
 74
820
 0
VERTEX
 8
0
 10
0.0
 20
0.0
 30
0.0
 70
128
 71
821
 72
852
 73
838
 74
771
 0
VERTEX
 8
0
 10
0.0
 20
0.0
 30
0.0
 70
128
 71
838
 72
822
 73
796
 74
823
 0
VERTEX
 8
0
 10
0.0
 20
0.0
 30
0.0
 70
128
 71
797
 72
775
 73
822
 74
824
 0
VERTEX
 8
0
 10
0.0
 20
0.0
 30
0.0
 70
128
 71
798
 72
776
 73
797
 74
825
 0
VERTEX
 8
0
 10
0.0
 20
0.0
 30
0.0
 70
128
 71
798
 72
826
 73
799
 74
777
 0
VERTEX
 8
0
 10
0.0
 20
0.0
 30
0.0
 70
128
 71
799
 72
827
 73
800
 74
778
 0
VERTEX
 8
0
 10
0.0
 20
0.0
 30
0.0
 70
128
 71
802
 72
779
 73
800
 74
828
 0
VERTEX
 8
0
 10
0.0
 20
0.0
 30
0.0
 70
128
 71
803
 72
802
 73
828
 74
843
 0
VERTEX
 8
0
 10
0.0
 20
0.0
 30
0.0
 70
128
 71
805
 72
843
 73
829
 74
806
 0
VERTEX
 8
0
 10
0.0
 20
0.0
 30
0.0
 70
128
 71
807
 72
806
 73
845
 74
830
 0
VERTEX
 8
0
 10
0.0
 20
0.0
 30
0.0
 70
128
 71
809
 72
830
 73
846
 74
810
 0
VERTEX
 8
0
 10
0.0
 20
0.0
 30
0.0
 70
128
 71
831
 72
810
 73
832
 74
811
 0
VERTEX
 8
0
 10
0.0
 20
0.0
 30
0.0
 70
128
 71
814
 72
833
 73
836
 74
834
 0
VERTEX
 8
0
 10
0.0
 20
0.0
 30
0.0
 70
128
 71
834
 72
816
 73
789
 74
814
 0
VERTEX
 8
0
 10
0.0
 20
0.0
 30
0.0
 70
128
 71
811
 72
832
 73
848
 74
835
 0
VERTEX
 8
0
 10
0.0
 20
0.0
 30
0.0
 70
128
 71
834
 72
836
 73
817
 74
816
 0
VERTEX
 8
0
 10
0.0
 20
0.0
 30
0.0
 70
128
 71
848
 72
858
 73
850
 74
837
 0
VERTEX
 8
0
 10
0.0
 20
0.0
 30
0.0
 70
128
 71
850
 72
849
 73
819
 74
795
 0
VERTEX
 8
0
 10
0.0
 20
0.0
 30
0.0
 70
128
 71
819
 72
859
 73
852
 74
821
 0
VERTEX
 8
0
 10
0.0
 20
0.0
 30
0.0
 70
128
 71
852
 72
824
 73
822
 74
838
 0
VERTEX
 8
0
 10
0.0
 20
0.0
 30
0.0
 70
128
 71
839
 72
825
 73
797
 74
824
 0
VERTEX
 8
0
 10
0.0
 20
0.0
 30
0.0
 70
128
 71
825
 72
840
 73
826
 74
798
 0
VERTEX
 8
0
 10
0.0
 20
0.0
 30
0.0
 70
128
 71
826
 72
841
 73
827
 74
799
 0
VERTEX
 8
0
 10
0.0
 20
0.0
 30
0.0
 70
128
 71
828
 72
800
 73
827
 74
842
 0
VERTEX
 8
0
 10
0.0
 20
0.0
 30
0.0
 70
128
 71
843
 72
828
 73
842
 74
829
 0
VERTEX
 8
0
 10
0.0
 20
0.0
 30
0.0
 70
128
 71
806
 72
829
 73
844
 74
845
 0
VERTEX
 8
0
 10
0.0
 20
0.0
 30
0.0
 70
128
 71
830
 72
845
 73
857
 74
846
 0
VERTEX
 8
0
 10
0.0
 20
0.0
 30
0.0
 70
128
 71
810
 72
846
 73
847
 74
832
 0
VERTEX
 8
0
 10
0.0
 20
0.0
 30
0.0
 70
128
 71
832
 72
847
 73
858
 74
848
 0
VERTEX
 8
0
 10
0.0
 20
0.0
 30
0.0
 70
128
 71
858
 72
863
 73
849
 74
850
 0
VERTEX
 8
0
 10
0.0
 20
0.0
 30
0.0
 70
128
 71
849
 72
851
 73
859
 74
819
 0
VERTEX
 8
0
 10
0.0
 20
0.0
 30
0.0
 70
128
 71
859
 72
839
 73
824
 74
852
 0
VERTEX
 8
0
 10
0.0
 20
0.0
 30
0.0
 70
128
 71
853
 72
840
 73
825
 74
839
 0
VERTEX
 8
0
 10
0.0
 20
0.0
 30
0.0
 70
128
 71
840
 72
854
 73
841
 74
826
 0
VERTEX
 8
0
 10
0.0
 20
0.0
 30
0.0
 70
128
 71
842
 72
827
 73
841
 74
855
 0
VERTEX
 8
0
 10
0.0
 20
0.0
 30
0.0
 70
128
 71
829
 72
842
 73
855
 74
844
 0
VERTEX
 8
0
 10
0.0
 20
0.0
 30
0.0
 70
128
 71
845
 72
844
 73
856
 74
857
 0
VERTEX
 8
0
 10
0.0
 20
0.0
 30
0.0
 70
128
 71
846
 72
857
 73
861
 74
847
 0
VERTEX
 8
0
 10
0.0
 20
0.0
 30
0.0
 70
128
 71
847
 72
861
 73
863
 74
858
 0
VERTEX
 8
0
 10
0.0
 20
0.0
 30
0.0
 70
128
 71
863
 72
862
 73
851
 74
849
 0
VERTEX
 8
0
 10
0.0
 20
0.0
 30
0.0
 70
128
 71
851
 72
853
 73
839
 74
859
 0
VERTEX
 8
0
 10
0.0
 20
0.0
 30
0.0
 70
128
 71
853
 72
866
 73
854
 74
840
 0
VERTEX
 8
0
 10
0.0
 20
0.0
 30
0.0
 70
128
 71
855
 72
841
 73
854
 74
860
 0
VERTEX
 8
0
 10
0.0
 20
0.0
 30
0.0
 70
128
 71
844
 72
855
 73
860
 74
856
 0
VERTEX
 8
0
 10
0.0
 20
0.0
 30
0.0
 70
128
 71
857
 72
856
 73
865
 74
861
 0
VERTEX
 8
0
 10
0.0
 20
0.0
 30
0.0
 70
128
 71
861
 72
865
 73
862
 74
863
 0
VERTEX
 8
0
 10
0.0
 20
0.0
 30
0.0
 70
128
 71
862
 72
866
 73
853
 74
851
 0
VERTEX
 8
0
 10
0.0
 20
0.0
 30
0.0
 70
128
 71
860
 72
854
 73
866
 74
864
 0
VERTEX
 8
0
 10
0.0
 20
0.0
 30
0.0
 70
128
 71
856
 72
860
 73
864
 74
865
 0
VERTEX
 8
0
 10
0.0
 20
0.0
 30
0.0
 70
128
 71
865
 72
864
 73
866
 74
862
 0
SEQEND
 8
0
 0
POLYLINE
 8
0
 70
64
 66
1
 10
0.0
 20
0.0
 30
0.0
 71
8
 72
6
 0
VERTEX
 8
0
 10
0.254
 20
-0.254
 30
0.0
 70
192
 0
VERTEX
 8
0
 10
-0.254
 20
0.254
 30
0.10160207748413086
 70
192
 0
VERTEX
 8
0
 10
-0.254
 20
-0.254
 30
0.10160207748413086
 70
192
 0
VERTEX
 8
0
 10
0.254
 20
-0.254
 30
0.10160207748413086
 70
192
 0
VERTEX
 8
0
 10
-0.254
 20
-0.254
 30
0.0
 70
192
 0
VERTEX
 8
0
 10
0.254
 20
0.254
 30
0.0
 70
192
 0
VERTEX
 8
0
 10
-0.254
 20
0.254
 30
0.0
 70
192
 0
VERTEX
 8
0
 10
0.254
 20
0.254
 30
0.10160207748413086
 70
192
 0
VERTEX
 8
0
 10
0.0
 20
0.0
 30
0.0
 70
128
 71
5
 72
1
 73
4
 74
3
 0
VERTEX
 8
0
 10
0.0
 20
0.0
 30
0.0
 70
128
 71
1
 72
5
 73
7
 74
6
 0
VERTEX
 8
0
 10
0.0
 20
0.0
 30
0.0
 70
128
 71
1
 72
6
 73
8
 74
4
 0
VERTEX
 8
0
 10
0.0
 20
0.0
 30
0.0
 70
128
 71
8
 72
2
 73
3
 74
4
 0
VERTEX
 8
0
 10
0.0
 20
0.0
 30
0.0
 70
128
 71
7
 72
5
 73
3
 74
2
 0
VERTEX
 8
0
 10
0.0
 20
0.0
 30
0.0
 70
128
 71
6
 72
7
 73
2
 74
8
 0
SEQEND
 8
0
 0
ENDSEC
 0
EOF
