  0
SECTION
  2
HEADER
  9
$ACADVER
  1
AC1009
  9
$INSBASE
 10
0.0
 20
0.0
 30
0.0
  9
$EXTMIN
 10
0.0
 20
0.0
 30
0.0
  9
$EXTMAX
 10
0.0
 20
0.0
 30
0.0
  0
ENDSEC
  0
SECTION
  2
TABLES
  0
TABLE
  2
VPORT
 70
1
  0
VPORT
  2
*ACTIVE
 70
0
 10
0.0
 20
0.0
 11
1.0
 21
1.0
 12
-5.0
 22
1.0
 13
0.0
 23
0.0
 14
0.1
 24
0.1
 15
0.1
 25
0.1
 16
0.0
 26
0.0
 36
1.0
 17
0.0
 27
0.0
 37
0.0
 40
10.0
 41
1.0
 42
50.0
 43
0.0
 44
0.0
 50
0.0
 51
0.0
 71
0
 72
100
 73
1
 74
1
 75
0
 76
0
 77
0
 78
0
  0
ENDTAB
  0
TABLE
  2
LTYPE
 70
8
  0
LTYPE
  2
CONTINUOUS
 70
0
  3
Solid line
 72
65
 73
0
 40
0.0
  0
LTYPE
  2
DOT
 70
0
  3
. . . . . . .
 72
65
 73
2
 40
0.25
 49
0.0
 49
-0.25
  0
LTYPE
  2
DASHED
 70
0
  3
__ __ __ __ __
 72
65
 73
2
 40
0.8
 49
0.5
 49
-0.3
  0
LTYPE
  2
DASHDOT
 70
0
  3
__ . __ . __ .
 72
65
 73
4
 40
1.0
 49
0.5
 49
-0.25
 49
0.0
 49
-0.25
  0
LTYPE
  2
DIVIDE
 70
0
  3
____ . . ____ . . 
 72
65
 73
6
 40
1.25
 49
0.5
 49
-0.25
 49
0.0
 49
-0.25
 49
0.0
 49
-0.25
  0
LTYPE
  2
BORDER
 70
0
  3
__ __ . __ __ . 
 72
65
 73
6
 40
1.75
 49
0.5
 49
-0.25
 49
0.5
 49
-0.25
 49
0.0
 49
-0.25
  0
LTYPE
  2
HIDDEN
 70
0
  3
__ __ __ __ __
 72
65
 73
2
 40
0.4
 49
0.25
 49
-0.25
  0
LTYPE
  2
CENTER
 70
0
  3
____ _ ____ _ __
 72
65
 73
4
 40
2.0
 49
1.25
 49
-0.25
 49
0.25
 49
-0.25
  0
ENDTAB
  0
TABLE
  2
LAYER
 70
1
  0
LAYER
  2
PYDXF
 70
64
 62
7
  6
continuous
  0
ENDTAB
  0
TABLE
  2
STYLE
 70
1
  0
STYLE
  2
STANDARD
 70
0
 40
0
 41
1.0
 50
0.0
 71
0
 42
1
 3
ARIAL.TTF
 4

  0
ENDTAB
  0
TABLE
  2
VIEW
 70
1
  0
VIEW
  2
BF_TOPVIEW
 70
0
 40
120.0
 10
0.0
 20
0.0
 41
200.0
 11
0.0
 21
0.0
 31
1.0
 12
0.0
 22
0.0
 32
0.0
 42
50.0
 43
0.0
 44
0.0
 50
0.0
 71
0
  0
ENDTAB
  0
ENDSEC
  0
SECTION
  2
BLOCKS
  0
ENDSEC
  0
SECTION
  2
ENTITIES
  0
POLYLINE
  8
0
 70
64
 66
1
 10
0.0
 20
0.0
 30
0.0
 71
32
 72
60
  0
VERTEX
  8
0
 10
-0.04168469458818436
 20
-0.10005723685026169
 30
-0.04500032961368561
 70
192
  0
VERTEX
  8
0
 10
0.04189365357160568
 20
-0.10005723685026169
 30
-0.04500032961368561
 70
192
  0
VERTEX
  8
0
 10
-0.05668479949235916
 20
-0.11505734175443649
 30
-0.04500032961368561
 70
192
  0
VERTEX
  8
0
 10
0.05689375847578049
 20
-0.11505734175443649
 30
-0.04500032961368561
 70
192
  0
VERTEX
  8
0
 10
-0.05968458205461502
 20
-0.11805712431669235
 30
-0.03300030529499054
 70
192
  0
VERTEX
  8
0
 10
0.059893541038036346
 20
-0.11805712431669235
 30
-0.03300030529499054
 70
192
  0
VERTEX
  8
0
 10
-0.06568462401628494
 20
-0.12405715882778168
 30
-0.024000300094485283
 70
192
  0
VERTEX
  8
0
 10
0.06589358299970627
 20
-0.12405715882778168
 30
-0.024000300094485283
 70
192
  0
VERTEX
  8
0
 10
-0.07468468695878983
 20
-0.13305722177028656
 30
-0.018000317737460136
 70
192
  0
VERTEX
  8
0
 10
0.07489364594221115
 20
-0.13305722177028656
 30
-0.018000317737460136
 70
192
  0
VERTEX
  8
0
 10
-0.08668477088212967
 20
-0.1450573056936264
 30
-0.015000326558947563
 70
192
  0
VERTEX
  8
0
 10
0.086893729865551
 20
-0.1450573056936264
 30
-0.015000326558947563
 70
192
  0
VERTEX
  8
0
 10
-0.08668477088212967
 20
-0.1450573056936264
 30
-3.111927071586251e-07
 70
192
  0
VERTEX
  8
0
 10
0.086893729865551
 20
-0.1450573056936264
 30
-3.111927071586251e-07
 70
192
  0
VERTEX
  8
0
 10
0.059893541038036346
 20
-5.732913996325806e-05
 30
-0.03300030529499054
 70
192
  0
VERTEX
  8
0
 10
0.06589358299970627
 20
-5.732913996325806e-05
 30
-0.024000300094485283
 70
192
  0
VERTEX
  8
0
 10
0.07489364594221115
 20
-5.732913996325806e-05
 30
-0.018000317737460136
 70
192
  0
VERTEX
  8
0
 10
0.086893729865551
 20
-5.732913996325806e-05
 30
-0.015000326558947563
 70
192
  0
VERTEX
  8
0
 10
0.086893729865551
 20
-5.732913996325806e-05
 30
-3.111927071586251e-07
 70
192
  0
VERTEX
  8
0
 10
-0.04168469458818436
 20
-5.732913996325806e-05
 30
-0.04500032961368561
 70
192
  0
VERTEX
  8
0
 10
-0.05668479949235916
 20
-5.732913996325806e-05
 30
-0.04500032961368561
 70
192
  0
VERTEX
  8
0
 10
-0.05968458205461502
 20
-5.732913996325806e-05
 30
-0.03300030529499054
 70
192
  0
VERTEX
  8
0
 10
-0.06568462401628494
 20
-5.732913996325806e-05
 30
-0.024000300094485283
 70
192
  0
VERTEX
  8
0
 10
-0.07468468695878983
 20
-5.732913996325806e-05
 30
-0.018000317737460136
 70
192
  0
VERTEX
  8
0
 10
-0.08668477088212967
 20
-5.732913996325806e-05
 30
-0.015000326558947563
 70
192
  0
VERTEX
  8
0
 10
-0.08668477088212967
 20
-5.732913996325806e-05
 30
-3.111927071586251e-07
 70
192
  0
VERTEX
  8
0
 10
0.05689375847578049
 20
-5.732913996325806e-05
 30
-0.04500032961368561
 70
192
  0
VERTEX
  8
0
 10
0.04189365357160568
 20
-5.732913996325806e-05
 30
-0.04500032961368561
 70
192
  0
VERTEX
  8
0
 10
-0.04168469458818436
 20
-5.732913996325806e-05
 30
-0.1650003343820572
 70
192
  0
VERTEX
  8
0
 10
0.04189365357160568
 20
-5.732913996325806e-05
 30
-0.1650003343820572
 70
192
  0
VERTEX
  8
0
 10
-0.04168469458818436
 20
-0.10005723685026169
 30
-0.1650003343820572
 70
192
  0
VERTEX
  8
0
 10
0.04189365357160568
 20
-0.10005723685026169
 30
-0.1650003343820572
 70
192
  0
VERTEX
  8
0
 10
0.0
 20
0.0
 30
0.0
 70
128
 71
13
 72
11
 73
12
  0
VERTEX
  8
0
 10
0.0
 20
0.0
 30
0.0
 70
128
 71
13
 72
12
 73
14
  0
VERTEX
  8
0
 10
0.0
 20
0.0
 30
0.0
 70
128
 71
25
 72
24
 73
9
  0
VERTEX
  8
0
 10
0.0
 20
0.0
 30
0.0
 70
128
 71
25
 72
9
 73
11
  0
VERTEX
  8
0
 10
0.0
 20
0.0
 30
0.0
 70
128
 71
17
 72
18
 73
12
  0
VERTEX
  8
0
 10
0.0
 20
0.0
 30
0.0
 70
128
 71
17
 72
12
 73
10
  0
VERTEX
  8
0
 10
0.0
 20
0.0
 30
0.0
 70
128
 71
6
 72
4
 73
27
  0
VERTEX
  8
0
 10
0.0
 20
0.0
 30
0.0
 70
128
 71
6
 72
27
 73
15
  0
VERTEX
  8
0
 10
0.0
 20
0.0
 30
0.0
 70
128
 71
8
 72
6
 73
15
  0
VERTEX
  8
0
 10
0.0
 20
0.0
 30
0.0
 70
128
 71
8
 72
15
 73
16
  0
VERTEX
  8
0
 10
0.0
 20
0.0
 30
0.0
 70
128
 71
1
 72
2
 73
4
  0
VERTEX
  8
0
 10
0.0
 20
0.0
 30
0.0
 70
128
 71
1
 72
4
 73
3
  0
VERTEX
  8
0
 10
0.0
 20
0.0
 30
0.0
 70
128
 71
4
 72
2
 73
28
  0
VERTEX
  8
0
 10
0.0
 20
0.0
 30
0.0
 70
128
 71
4
 72
28
 73
27
  0
VERTEX
  8
0
 10
0.0
 20
0.0
 30
0.0
 70
128
 71
20
 72
1
 73
3
  0
VERTEX
  8
0
 10
0.0
 20
0.0
 30
0.0
 70
128
 71
20
 72
3
 73
21
  0
VERTEX
  8
0
 10
0.0
 20
0.0
 30
0.0
 70
128
 71
8
 72
10
 73
9
  0
VERTEX
  8
0
 10
0.0
 20
0.0
 30
0.0
 70
128
 71
8
 72
9
 73
7
  0
VERTEX
  8
0
 10
0.0
 20
0.0
 30
0.0
 70
128
 71
22
 72
21
 73
3
  0
VERTEX
  8
0
 10
0.0
 20
0.0
 30
0.0
 70
128
 71
22
 72
3
 73
5
  0
VERTEX
  8
0
 10
0.0
 20
0.0
 30
0.0
 70
128
 71
14
 72
12
 73
18
  0
VERTEX
  8
0
 10
0.0
 20
0.0
 30
0.0
 70
128
 71
14
 72
18
 73
19
  0
VERTEX
  8
0
 10
0.0
 20
0.0
 30
0.0
 70
128
 71
7
 72
9
 73
24
  0
VERTEX
  8
0
 10
0.0
 20
0.0
 30
0.0
 70
128
 71
7
 72
24
 73
23
  0
VERTEX
  8
0
 10
0.0
 20
0.0
 30
0.0
 70
128
 71
23
 72
22
 73
5
  0
VERTEX
  8
0
 10
0.0
 20
0.0
 30
0.0
 70
128
 71
23
 72
5
 73
7
  0
VERTEX
  8
0
 10
0.0
 20
0.0
 30
0.0
 70
128
 71
5
 72
3
 73
4
  0
VERTEX
  8
0
 10
0.0
 20
0.0
 30
0.0
 70
128
 71
5
 72
4
 73
6
  0
VERTEX
  8
0
 10
0.0
 20
0.0
 30
0.0
 70
128
 71
2
 72
1
 73
31
  0
VERTEX
  8
0
 10
0.0
 20
0.0
 30
0.0
 70
128
 71
2
 72
31
 73
32
  0
VERTEX
  8
0
 10
0.0
 20
0.0
 30
0.0
 70
128
 71
7
 72
5
 73
6
  0
VERTEX
  8
0
 10
0.0
 20
0.0
 30
0.0
 70
128
 71
7
 72
6
 73
8
  0
VERTEX
  8
0
 10
0.0
 20
0.0
 30
0.0
 70
128
 71
16
 72
17
 73
10
  0
VERTEX
  8
0
 10
0.0
 20
0.0
 30
0.0
 70
128
 71
16
 72
10
 73
8
  0
VERTEX
  8
0
 10
0.0
 20
0.0
 30
0.0
 70
128
 71
26
 72
25
 73
11
  0
VERTEX
  8
0
 10
0.0
 20
0.0
 30
0.0
 70
128
 71
26
 72
11
 73
13
  0
VERTEX
  8
0
 10
0.0
 20
0.0
 30
0.0
 70
128
 71
9
 72
10
 73
12
  0
VERTEX
  8
0
 10
0.0
 20
0.0
 30
0.0
 70
128
 71
9
 72
12
 73
11
  0
VERTEX
  8
0
 10
0.0
 20
0.0
 30
0.0
 70
128
 71
30
 72
32
 73
31
  0
VERTEX
  8
0
 10
0.0
 20
0.0
 30
0.0
 70
128
 71
30
 72
31
 73
29
  0
VERTEX
  8
0
 10
0.0
 20
0.0
 30
0.0
 70
128
 71
20
 72
28
 73
30
  0
VERTEX
  8
0
 10
0.0
 20
0.0
 30
0.0
 70
128
 71
20
 72
30
 73
29
  0
VERTEX
  8
0
 10
0.0
 20
0.0
 30
0.0
 70
128
 71
1
 72
20
 73
29
  0
VERTEX
  8
0
 10
0.0
 20
0.0
 30
0.0
 70
128
 71
1
 72
29
 73
31
  0
VERTEX
  8
0
 10
0.0
 20
0.0
 30
0.0
 70
128
 71
28
 72
2
 73
32
  0
VERTEX
  8
0
 10
0.0
 20
0.0
 30
0.0
 70
128
 71
28
 72
32
 73
30
  0
VERTEX
  8
0
 10
0.0
 20
0.0
 30
0.0
 70
128
 71
13
 72
14
 73
19
  0
VERTEX
  8
0
 10
0.0
 20
0.0
 30
0.0
 70
128
 71
13
 72
19
 73
26
  0
VERTEX
  8
0
 10
0.0
 20
0.0
 30
0.0
 70
128
 71
26
 72
19
 73
18
  0
VERTEX
  8
0
 10
0.0
 20
0.0
 30
0.0
 70
128
 71
26
 72
18
 73
25
  0
VERTEX
  8
0
 10
0.0
 20
0.0
 30
0.0
 70
128
 71
27
 72
28
 73
15
  0
VERTEX
  8
0
 10
0.0
 20
0.0
 30
0.0
 70
128
 71
22
 72
20
 73
21
  0
VERTEX
  8
0
 10
0.0
 20
0.0
 30
0.0
 70
128
 71
20
 72
22
 73
15
  0
VERTEX
  8
0
 10
0.0
 20
0.0
 30
0.0
 70
128
 71
20
 72
15
 73
28
  0
VERTEX
  8
0
 10
0.0
 20
0.0
 30
0.0
 70
128
 71
23
 72
16
 73
15
  0
VERTEX
  8
0
 10
0.0
 20
0.0
 30
0.0
 70
128
 71
23
 72
15
 73
22
  0
VERTEX
  8
0
 10
0.0
 20
0.0
 30
0.0
 70
128
 71
17
 72
16
 73
23
  0
VERTEX
  8
0
 10
0.0
 20
0.0
 30
0.0
 70
128
 71
17
 72
23
 73
24
  0
VERTEX
  8
0
 10
0.0
 20
0.0
 30
0.0
 70
128
 71
17
 72
24
 73
25
  0
VERTEX
  8
0
 10
0.0
 20
0.0
 30
0.0
 70
128
 71
17
 72
25
 73
18
  0
SEQEND
  8
0
  0
ENDSEC
  0
EOF
