 0
SECTION
 2
HEADER
 9
$ACADVER
 1
AC1009
 9
$INSBASE
 10
0.0
 20
0.0
 30
0.0
 9
$EXTMIN
 10
0.0
 20
0.0
 30
0.0
 9
$EXTMAX
 10
0.0
 20
0.0
 30
0.0
 0
ENDSEC
 0
SECTION
 2
ENTITIES
 0
POLYLINE
 8
0
 70
64
 66
1
 10
0.0
 20
0.0
 30
0.0
 71
507
 72
968
 0
VERTEX
 8
0
 10
0.04540
 20
-0.07945
 30
0.01702
 70
192
 0
VERTEX
 8
0
 10
-0.04540
 20
-0.07945
 30
0.01702
 70
192
 0
VERTEX
 8
0
 10
0.05188
 20
-0.07134
 30
0.00972
 70
192
 0
VERTEX
 8
0
 10
-0.05188
 20
-0.07134
 30
0.00972
 70
192
 0
VERTEX
 8
0
 10
0.05675
 20
-0.06
 30
0.00567
 70
192
 0
VERTEX
 8
0
 10
-0.05675
 20
-0.06
 30
0.00567
 70
192
 0
VERTEX
 8
0
 10
0.03648
 20
-0.06404
 30
-0.00243
 70
192
 0
VERTEX
 8
0
 10
-0.03648
 20
-0.06404
 30
-0.00243
 70
192
 0
VERTEX
 8
0
 10
0.03648
 20
-0.07458
 30
0.00324
 70
192
 0
VERTEX
 8
0
 10
-0.03648
 20
-0.07458
 30
0.00324
 70
192
 0
VERTEX
 8
0
 10
0.03648
 20
-0.08107
 30
0.01378
 70
192
 0
VERTEX
 8
0
 10
-0.03648
 20
-0.08107
 30
0.01378
 70
192
 0
VERTEX
 8
0
 10
0.02837
 20
-0.08269
 30
0.01702
 70
192
 0
VERTEX
 8
0
 10
-0.02837
 20
-0.08269
 30
0.01702
 70
192
 0
VERTEX
 8
0
 10
0.02107
 20
-0.07701
 30
0.00972
 70
192
 0
VERTEX
 8
0
 10
-0.02107
 20
-0.07701
 30
0.00972
 70
192
 0
VERTEX
 8
0
 10
0.01621
 20
-0.06728
 30
0.00567
 70
192
 0
VERTEX
 8
0
 10
-0.01621
 20
-0.06728
 30
0.00567
 70
192
 0
VERTEX
 8
0
 10
0.00810
 20
-0.06810
 30
0.02513
 70
192
 0
VERTEX
 8
0
 10
-0.00810
 20
-0.06810
 30
0.02513
 70
192
 0
VERTEX
 8
0
 10
0.01459
 20
-0.07701
 30
0.02513
 70
192
 0
VERTEX
 8
0
 10
-0.01459
 20
-0.07701
 30
0.02513
 70
192
 0
VERTEX
 8
0
 10
0.02513
 20
-0.08269
 30
0.02513
 70
192
 0
VERTEX
 8
0
 10
-0.02513
 20
-0.08269
 30
0.02513
 70
192
 0
VERTEX
 8
0
 10
0.02837
 20
-0.08269
 30
0.03405
 70
192
 0
VERTEX
 8
0
 10
-0.02837
 20
-0.08269
 30
0.03405
 70
192
 0
VERTEX
 8
0
 10
0.02107
 20
-0.07701
 30
0.04053
 70
192
 0
VERTEX
 8
0
 10
-0.02107
 20
-0.07701
 30
0.04053
 70
192
 0
VERTEX
 8
0
 10
0.01621
 20
-0.06728
 30
0.04540
 70
192
 0
VERTEX
 8
0
 10
-0.01621
 20
-0.06728
 30
0.04540
 70
192
 0
VERTEX
 8
0
 10
0.03648
 20
-0.06404
 30
0.05350
 70
192
 0
VERTEX
 8
0
 10
-0.03648
 20
-0.06404
 30
0.05350
 70
192
 0
VERTEX
 8
0
 10
0.03648
 20
-0.07458
 30
0.04702
 70
192
 0
VERTEX
 8
0
 10
-0.03648
 20
-0.07458
 30
0.04702
 70
192
 0
VERTEX
 8
0
 10
0.03648
 20
-0.08107
 30
0.03729
 70
192
 0
VERTEX
 8
0
 10
-0.03648
 20
-0.08107
 30
0.03729
 70
192
 0
VERTEX
 8
0
 10
0.04540
 20
-0.07945
 30
0.03405
 70
192
 0
VERTEX
 8
0
 10
-0.04540
 20
-0.07945
 30
0.03405
 70
192
 0
VERTEX
 8
0
 10
0.05188
 20
-0.07134
 30
0.04053
 70
192
 0
VERTEX
 8
0
 10
-0.05188
 20
-0.07134
 30
0.04053
 70
192
 0
VERTEX
 8
0
 10
0.05675
 20
-0.06
 30
0.04540
 70
192
 0
VERTEX
 8
0
 10
-0.05675
 20
-0.06
 30
0.04540
 70
192
 0
VERTEX
 8
0
 10
0.06485
 20
-0.05837
 30
0.02513
 70
192
 0
VERTEX
 8
0
 10
-0.06485
 20
-0.05837
 30
0.02513
 70
192
 0
VERTEX
 8
0
 10
0.05837
 20
-0.06972
 30
0.02513
 70
192
 0
VERTEX
 8
0
 10
-0.05837
 20
-0.06972
 30
0.02513
 70
192
 0
VERTEX
 8
0
 10
0.04864
 20
-0.07863
 30
0.02513
 70
192
 0
VERTEX
 8
0
 10
-0.04864
 20
-0.07863
 30
0.02513
 70
192
 0
VERTEX
 8
0
 10
0.04945
 20
-0.08026
 30
0.02513
 70
192
 0
VERTEX
 8
0
 10
-0.04945
 20
-0.08026
 30
0.02513
 70
192
 0
VERTEX
 8
0
 10
0.04621
 20
-0.08107
 30
0.03486
 70
192
 0
VERTEX
 8
0
 10
-0.04621
 20
-0.08107
 30
0.03486
 70
192
 0
VERTEX
 8
0
 10
0.03648
 20
-0.08350
 30
0.03891
 70
192
 0
VERTEX
 8
0
 10
-0.03648
 20
-0.08350
 30
0.03891
 70
192
 0
VERTEX
 8
0
 10
0.02756
 20
-0.08512
 30
0.03486
 70
192
 0
VERTEX
 8
0
 10
-0.02756
 20
-0.08512
 30
0.03486
 70
192
 0
VERTEX
 8
0
 10
0.02351
 20
-0.08512
 30
0.02513
 70
192
 0
VERTEX
 8
0
 10
-0.02351
 20
-0.08512
 30
0.02513
 70
192
 0
VERTEX
 8
0
 10
0.02756
 20
-0.08512
 30
0.01621
 70
192
 0
VERTEX
 8
0
 10
-0.02756
 20
-0.08512
 30
0.01621
 70
192
 0
VERTEX
 8
0
 10
0.03648
 20
-0.08593
 30
0.02513
 70
192
 0
VERTEX
 8
0
 10
-0.03648
 20
-0.08593
 30
0.02513
 70
192
 0
VERTEX
 8
0
 10
0.03648
 20
-0.08350
 30
0.01216
 70
192
 0
VERTEX
 8
0
 10
-0.03648
 20
-0.08350
 30
0.01216
 70
192
 0
VERTEX
 8
0
 10
0.04621
 20
-0.08107
 30
0.01621
 70
192
 0
VERTEX
 8
0
 10
-0.04621
 20
-0.08107
 30
0.01621
 70
192
 0
VERTEX
 8
0
 10
0.0
 20
-0.07701
 30
0.04458
 70
192
 0
VERTEX
 8
0
 10
0.0
 20
-0.08512
 30
0.03648
 70
192
 0
VERTEX
 8
0
 10
0.0
 20
-0.07620
 30
-0.07053
 70
192
 0
VERTEX
 8
0
 10
0.0
 20
-0.08107
 30
-0.03323
 70
192
 0
VERTEX
 8
0
 10
0.0
 20
-0.08269
 30
-0.01945
 70
192
 0
VERTEX
 8
0
 10
0.0
 20
-0.07458
 30
-0.08026
 70
192
 0
VERTEX
 8
0
 10
0.0
 20
-0.06242
 30
0.04215
 70
192
 0
VERTEX
 8
0
 10
0.0
 20
-0.05918
 30
0.05918
 70
192
 0
VERTEX
 8
0
 10
0.0
 20
0.05675
 30
0.09323
 70
192
 0
VERTEX
 8
0
 10
0.0
 20
0.08836
 30
0.05837
 70
192
 0
VERTEX
 8
0
 10
0.0
 20
0.08593
 30
0.00729
 70
192
 0
VERTEX
 8
0
 10
0.0
 20
0.03648
 30
-0.03972
 70
192
 0
VERTEX
 8
0
 10
0.02107
 20
-0.05837
 30
-0.01945
 70
192
 0
VERTEX
 8
0
 10
-0.02107
 20
-0.05837
 30
-0.01945
 70
192
 0
VERTEX
 8
0
 10
0.03242
 20
-0.05918
 30
-0.04540
 70
192
 0
VERTEX
 8
0
 10
-0.03242
 20
-0.05918
 30
-0.04540
 70
192
 0
VERTEX
 8
0
 10
0.03648
 20
-0.05918
 30
-0.07215
 70
192
 0
VERTEX
 8
0
 10
-0.03648
 20
-0.05918
 30
-0.07215
 70
192
 0
VERTEX
 8
0
 10
0.03810
 20
-0.05512
 30
-0.09242
 70
192
 0
VERTEX
 8
0
 10
-0.03810
 20
-0.05512
 30
-0.09242
 70
192
 0
VERTEX
 8
0
 10
0.03405
 20
-0.05431
 30
-0.09809
 70
192
 0
VERTEX
 8
0
 10
-0.03405
 20
-0.05431
 30
-0.09809
 70
192
 0
VERTEX
 8
0
 10
0.01864
 20
-0.05756
 30
-0.10052
 70
192
 0
VERTEX
 8
0
 10
-0.01864
 20
-0.05756
 30
-0.10052
 70
192
 0
VERTEX
 8
0
 10
0.0
 20
-0.06
 30
-0.10215
 70
192
 0
VERTEX
 8
0
 10
0.04540
 20
-0.05512
 30
-0.01459
 70
192
 0
VERTEX
 8
0
 10
-0.04540
 20
-0.05512
 30
-0.01459
 70
192
 0
VERTEX
 8
0
 10
0.06566
 20
-0.05593
 30
-0.00405
 70
192
 0
VERTEX
 8
0
 10
-0.06566
 20
-0.05593
 30
-0.00405
 70
192
 0
VERTEX
 8
0
 10
0.08593
 20
-0.04621
 30
0.01540
 70
192
 0
VERTEX
 8
0
 10
-0.08593
 20
-0.04621
 30
0.01540
 70
192
 0
VERTEX
 8
0
 10
0.08917
 20
-0.06161
 30
0.04458
 70
192
 0
VERTEX
 8
0
 10
-0.08917
 20
-0.06161
 30
0.04458
 70
192
 0
VERTEX
 8
0
 10
0.07377
 20
-0.06485
 30
0.05026
 70
192
 0
VERTEX
 8
0
 10
-0.07377
 20
-0.06485
 30
0.05026
 70
192
 0
VERTEX
 8
0
 10
0.05107
 20
-0.07134
 30
0.06242
 70
192
 0
VERTEX
 8
0
 10
-0.05107
 20
-0.07134
 30
0.06242
 70
192
 0
VERTEX
 8
0
 10
0.03323
 20
-0.07620
 30
0.07863
 70
192
 0
VERTEX
 8
0
 10
-0.03323
 20
-0.07620
 30
0.07863
 70
192
 0
VERTEX
 8
0
 10
0.01621
 20
-0.07863
 30
0.07458
 70
192
 0
VERTEX
 8
0
 10
-0.01621
 20
-0.07863
 30
0.07458
 70
192
 0
VERTEX
 8
0
 10
0.00648
 20
-0.07782
 30
0.05107
 70
192
 0
VERTEX
 8
0
 10
-0.00648
 20
-0.07782
 30
0.05107
 70
192
 0
VERTEX
 8
0
 10
0.01702
 20
-0.08026
 30
0.04296
 70
192
 0
VERTEX
 8
0
 10
-0.01702
 20
-0.08026
 30
0.04296
 70
192
 0
VERTEX
 8
0
 10
0.01297
 20
-0.07945
 30
0.03161
 70
192
 0
VERTEX
 8
0
 10
-0.01297
 20
-0.07945
 30
0.03161
 70
192
 0
VERTEX
 8
0
 10
0.02107
 20
-0.07701
 30
0.00972
 70
192
 0
VERTEX
 8
0
 10
-0.02107
 20
-0.07701
 30
0.00972
 70
192
 0
VERTEX
 8
0
 10
0.03891
 20
-0.07296
 30
0.00162
 70
192
 0
VERTEX
 8
0
 10
-0.03891
 20
-0.07296
 30
0.00162
 70
192
 0
VERTEX
 8
0
 10
0.05107
 20
-0.06972
 30
0.00648
 70
192
 0
VERTEX
 8
0
 10
-0.05107
 20
-0.06972
 30
0.00648
 70
192
 0
VERTEX
 8
0
 10
0.06485
 20
-0.06728
 30
0.01945
 70
192
 0
VERTEX
 8
0
 10
-0.06485
 20
-0.06728
 30
0.01945
 70
192
 0
VERTEX
 8
0
 10
0.06647
 20
-0.06728
 30
0.03080
 70
192
 0
VERTEX
 8
0
 10
-0.06647
 20
-0.06728
 30
0.03080
 70
192
 0
VERTEX
 8
0
 10
0.06242
 20
-0.06891
 30
0.03891
 70
192
 0
VERTEX
 8
0
 10
-0.06242
 20
-0.06891
 30
0.03891
 70
192
 0
VERTEX
 8
0
 10
0.04458
 20
-0.07458
 30
0.04540
 70
192
 0
VERTEX
 8
0
 10
-0.04458
 20
-0.07458
 30
0.04540
 70
192
 0
VERTEX
 8
0
 10
0.02594
 20
-0.07863
 30
0.04864
 70
192
 0
VERTEX
 8
0
 10
-0.02594
 20
-0.07863
 30
0.04864
 70
192
 0
VERTEX
 8
0
 10
0.0
 20
-0.07620
 30
-0.07945
 70
192
 0
VERTEX
 8
0
 10
0.01135
 20
-0.07620
 30
-0.07458
 70
192
 0
VERTEX
 8
0
 10
-0.01135
 20
-0.07620
 30
-0.07458
 70
192
 0
VERTEX
 8
0
 10
0.01216
 20
-0.07377
 30
-0.08674
 70
192
 0
VERTEX
 8
0
 10
-0.01216
 20
-0.07377
 30
-0.08674
 70
192
 0
VERTEX
 8
0
 10
0.00648
 20
-0.07215
 30
-0.09161
 70
192
 0
VERTEX
 8
0
 10
-0.00648
 20
-0.07215
 30
-0.09161
 70
192
 0
VERTEX
 8
0
 10
0.0
 20
-0.07134
 30
-0.09242
 70
192
 0
VERTEX
 8
0
 10
0.0
 20
-0.07782
 30
-0.02026
 70
192
 0
VERTEX
 8
0
 10
0.0
 20
-0.07701
 30
-0.01459
 70
192
 0
VERTEX
 8
0
 10
0.01053
 20
-0.07701
 30
-0.01540
 70
192
 0
VERTEX
 8
0
 10
-0.01053
 20
-0.07701
 30
-0.01540
 70
192
 0
VERTEX
 8
0
 10
0.01297
 20
-0.07782
 30
-0.02351
 70
192
 0
VERTEX
 8
0
 10
-0.01297
 20
-0.07782
 30
-0.02351
 70
192
 0
VERTEX
 8
0
 10
0.00891
 20
-0.07701
 30
-0.03
 70
192
 0
VERTEX
 8
0
 10
-0.00891
 20
-0.07701
 30
-0.03
 70
192
 0
VERTEX
 8
0
 10
0.04134
 20
-0.06972
 30
-0.00486
 70
192
 0
VERTEX
 8
0
 10
-0.04134
 20
-0.06972
 30
-0.00486
 70
192
 0
VERTEX
 8
0
 10
0.06404
 20
-0.06485
 30
0.00567
 70
192
 0
VERTEX
 8
0
 10
-0.06404
 20
-0.06485
 30
0.00567
 70
192
 0
VERTEX
 8
0
 10
0.07539
 20
-0.06242
 30
0.02107
 70
192
 0
VERTEX
 8
0
 10
-0.07539
 20
-0.06242
 30
0.02107
 70
192
 0
VERTEX
 8
0
 10
0.07701
 20
-0.06810
 30
0.03891
 70
192
 0
VERTEX
 8
0
 10
-0.07701
 20
-0.06810
 30
0.03891
 70
192
 0
VERTEX
 8
0
 10
0.07134
 20
-0.07539
 30
0.04296
 70
192
 0
VERTEX
 8
0
 10
-0.07134
 20
-0.07539
 30
0.04296
 70
192
 0
VERTEX
 8
0
 10
0.04540
 20
-0.08269
 30
0.05675
 70
192
 0
VERTEX
 8
0
 10
-0.04540
 20
-0.08269
 30
0.05675
 70
192
 0
VERTEX
 8
0
 10
0.03242
 20
-0.08674
 30
0.06647
 70
192
 0
VERTEX
 8
0
 10
-0.03242
 20
-0.08674
 30
0.06647
 70
192
 0
VERTEX
 8
0
 10
0.02107
 20
-0.08836
 30
0.06404
 70
192
 0
VERTEX
 8
0
 10
-0.02107
 20
-0.08836
 30
0.06404
 70
192
 0
VERTEX
 8
0
 10
0.01053
 20
-0.08755
 30
0.04458
 70
192
 0
VERTEX
 8
0
 10
-0.01053
 20
-0.08755
 30
0.04458
 70
192
 0
VERTEX
 8
0
 10
0.01297
 20
-0.08431
 30
-0.01053
 70
192
 0
VERTEX
 8
0
 10
-0.01297
 20
-0.08431
 30
-0.01053
 70
192
 0
VERTEX
 8
0
 10
0.02188
 20
-0.07377
 30
-0.04621
 70
192
 0
VERTEX
 8
0
 10
-0.02188
 20
-0.07377
 30
-0.04621
 70
192
 0
VERTEX
 8
0
 10
0.02594
 20
-0.07134
 30
-0.07296
 70
192
 0
VERTEX
 8
0
 10
-0.02594
 20
-0.07134
 30
-0.07296
 70
192
 0
VERTEX
 8
0
 10
0.02756
 20
-0.06891
 30
-0.08512
 70
192
 0
VERTEX
 8
0
 10
-0.02756
 20
-0.06891
 30
-0.08512
 70
192
 0
VERTEX
 8
0
 10
0.02432
 20
-0.06566
 30
-0.09485
 70
192
 0
VERTEX
 8
0
 10
-0.02432
 20
-0.06566
 30
-0.09485
 70
192
 0
VERTEX
 8
0
 10
0.01702
 20
-0.06566
 30
-0.09647
 70
192
 0
VERTEX
 8
0
 10
-0.01702
 20
-0.06566
 30
-0.09647
 70
192
 0
VERTEX
 8
0
 10
0.0
 20
-0.06647
 30
-0.09809
 70
192
 0
VERTEX
 8
0
 10
0.0
 20
-0.07539
 30
0.00486
 70
192
 0
VERTEX
 8
0
 10
0.0
 20
-0.07945
 30
0.02188
 70
192
 0
VERTEX
 8
0
 10
0.03405
 20
-0.07701
 30
0.04945
 70
192
 0
VERTEX
 8
0
 10
-0.03405
 20
-0.07701
 30
0.04945
 70
192
 0
VERTEX
 8
0
 10
0.01702
 20
-0.07782
 30
0.01459
 70
192
 0
VERTEX
 8
0
 10
-0.01702
 20
-0.07782
 30
0.01459
 70
192
 0
VERTEX
 8
0
 10
0.01378
 20
-0.07863
 30
0.02188
 70
192
 0
VERTEX
 8
0
 10
-0.01378
 20
-0.07863
 30
0.02188
 70
192
 0
VERTEX
 8
0
 10
0.01216
 20
-0.07620
 30
-0.07134
 70
192
 0
VERTEX
 8
0
 10
-0.01216
 20
-0.07620
 30
-0.07134
 70
192
 0
VERTEX
 8
0
 10
0.00810
 20
-0.07782
 30
-0.04621
 70
192
 0
VERTEX
 8
0
 10
-0.00810
 20
-0.07782
 30
-0.04621
 70
192
 0
VERTEX
 8
0
 10
0.0
 20
-0.07782
 30
-0.04621
 70
192
 0
VERTEX
 8
0
 10
0.0
 20
-0.07701
 30
-0.03405
 70
192
 0
VERTEX
 8
0
 10
0.00972
 20
-0.08107
 30
-0.02837
 70
192
 0
VERTEX
 8
0
 10
-0.00972
 20
-0.08107
 30
-0.02837
 70
192
 0
VERTEX
 8
0
 10
0.01378
 20
-0.08269
 30
-0.02351
 70
192
 0
VERTEX
 8
0
 10
-0.01378
 20
-0.08269
 30
-0.02351
 70
192
 0
VERTEX
 8
0
 10
0.01135
 20
-0.08107
 30
-0.01378
 70
192
 0
VERTEX
 8
0
 10
-0.01135
 20
-0.08107
 30
-0.01378
 70
192
 0
VERTEX
 8
0
 10
0.00405
 20
-0.08107
 30
-0.01297
 70
192
 0
VERTEX
 8
0
 10
-0.00405
 20
-0.08107
 30
-0.01297
 70
192
 0
VERTEX
 8
0
 10
0.0
 20
-0.08593
 30
-0.02107
 70
192
 0
VERTEX
 8
0
 10
0.00486
 20
-0.08431
 30
-0.01540
 70
192
 0
VERTEX
 8
0
 10
-0.00486
 20
-0.08431
 30
-0.01540
 70
192
 0
VERTEX
 8
0
 10
0.00972
 20
-0.08431
 30
-0.01621
 70
192
 0
VERTEX
 8
0
 10
-0.00972
 20
-0.08431
 30
-0.01621
 70
192
 0
VERTEX
 8
0
 10
0.01135
 20
-0.08593
 30
-0.02351
 70
192
 0
VERTEX
 8
0
 10
-0.01135
 20
-0.08593
 30
-0.02351
 70
192
 0
VERTEX
 8
0
 10
0.00810
 20
-0.08350
 30
-0.02594
 70
192
 0
VERTEX
 8
0
 10
-0.00810
 20
-0.08350
 30
-0.02594
 70
192
 0
VERTEX
 8
0
 10
0.0
 20
-0.08350
 30
-0.03
 70
192
 0
VERTEX
 8
0
 10
0.02675
 20
-0.05756
 30
-0.03242
 70
192
 0
VERTEX
 8
0
 10
-0.02675
 20
-0.05756
 30
-0.03242
 70
192
 0
VERTEX
 8
0
 10
0.01702
 20
-0.07377
 30
-0.02513
 70
192
 0
VERTEX
 8
0
 10
-0.01702
 20
-0.07377
 30
-0.02513
 70
192
 0
VERTEX
 8
0
 10
0.01864
 20
-0.07377
 30
-0.03242
 70
192
 0
VERTEX
 8
0
 10
-0.01864
 20
-0.07377
 30
-0.03242
 70
192
 0
VERTEX
 8
0
 10
0.02432
 20
-0.05756
 30
-0.02594
 70
192
 0
VERTEX
 8
0
 10
-0.02432
 20
-0.05756
 30
-0.02594
 70
192
 0
VERTEX
 8
0
 10
0.0
 20
-0.07134
 30
-0.09080
 70
192
 0
VERTEX
 8
0
 10
0.00486
 20
-0.07134
 30
-0.08998
 70
192
 0
VERTEX
 8
0
 10
-0.00486
 20
-0.07134
 30
-0.08998
 70
192
 0
VERTEX
 8
0
 10
0.00972
 20
-0.07377
 30
-0.08512
 70
192
 0
VERTEX
 8
0
 10
-0.00972
 20
-0.07377
 30
-0.08512
 70
192
 0
VERTEX
 8
0
 10
0.00972
 20
-0.07539
 30
-0.07701
 70
192
 0
VERTEX
 8
0
 10
-0.00972
 20
-0.07539
 30
-0.07701
 70
192
 0
VERTEX
 8
0
 10
0.0
 20
-0.06810
 30
-0.08107
 70
192
 0
VERTEX
 8
0
 10
0.00972
 20
-0.06891
 30
-0.07782
 70
192
 0
VERTEX
 8
0
 10
-0.00972
 20
-0.06891
 30
-0.07782
 70
192
 0
VERTEX
 8
0
 10
0.00972
 20
-0.06647
 30
-0.08431
 70
192
 0
VERTEX
 8
0
 10
-0.00972
 20
-0.06647
 30
-0.08431
 70
192
 0
VERTEX
 8
0
 10
0.00486
 20
-0.06566
 30
-0.08836
 70
192
 0
VERTEX
 8
0
 10
-0.00486
 20
-0.06566
 30
-0.08836
 70
192
 0
VERTEX
 8
0
 10
0.0
 20
-0.06566
 30
-0.08917
 70
192
 0
VERTEX
 8
0
 10
0.01783
 20
-0.08107
 30
0.02270
 70
192
 0
VERTEX
 8
0
 10
-0.01783
 20
-0.08107
 30
0.02270
 70
192
 0
VERTEX
 8
0
 10
0.01945
 20
-0.08026
 30
0.01621
 70
192
 0
VERTEX
 8
0
 10
-0.01945
 20
-0.08026
 30
0.01621
 70
192
 0
VERTEX
 8
0
 10
0.03486
 20
-0.07863
 30
0.04458
 70
192
 0
VERTEX
 8
0
 10
-0.03486
 20
-0.07863
 30
0.04458
 70
192
 0
VERTEX
 8
0
 10
0.02837
 20
-0.08026
 30
0.04377
 70
192
 0
VERTEX
 8
0
 10
-0.02837
 20
-0.08026
 30
0.04377
 70
192
 0
VERTEX
 8
0
 10
0.04377
 20
-0.08026
 30
0.04134
 70
192
 0
VERTEX
 8
0
 10
-0.04377
 20
-0.08026
 30
0.04134
 70
192
 0
VERTEX
 8
0
 10
0.05837
 20
-0.07215
 30
0.03648
 70
192
 0
VERTEX
 8
0
 10
-0.05837
 20
-0.07215
 30
0.03648
 70
192
 0
VERTEX
 8
0
 10
0.06080
 20
-0.07134
 30
0.03
 70
192
 0
VERTEX
 8
0
 10
-0.06080
 20
-0.07134
 30
0.03
 70
192
 0
VERTEX
 8
0
 10
0.06
 20
-0.07053
 30
0.02026
 70
192
 0
VERTEX
 8
0
 10
-0.06
 20
-0.07053
 30
0.02026
 70
192
 0
VERTEX
 8
0
 10
0.04945
 20
-0.07458
 30
0.01053
 70
192
 0
VERTEX
 8
0
 10
-0.04945
 20
-0.07458
 30
0.01053
 70
192
 0
VERTEX
 8
0
 10
0.03891
 20
-0.07701
 30
0.00648
 70
192
 0
VERTEX
 8
0
 10
-0.03891
 20
-0.07701
 30
0.00648
 70
192
 0
VERTEX
 8
0
 10
0.02351
 20
-0.08107
 30
0.01135
 70
192
 0
VERTEX
 8
0
 10
-0.02351
 20
-0.08107
 30
0.01135
 70
192
 0
VERTEX
 8
0
 10
0.01864
 20
-0.08107
 30
0.03080
 70
192
 0
VERTEX
 8
0
 10
-0.01864
 20
-0.08107
 30
0.03080
 70
192
 0
VERTEX
 8
0
 10
0.02188
 20
-0.08107
 30
0.03891
 70
192
 0
VERTEX
 8
0
 10
-0.02188
 20
-0.08107
 30
0.03891
 70
192
 0
VERTEX
 8
0
 10
0.02432
 20
-0.07863
 30
0.03729
 70
192
 0
VERTEX
 8
0
 10
-0.02432
 20
-0.07863
 30
0.03729
 70
192
 0
VERTEX
 8
0
 10
0.02026
 20
-0.07863
 30
0.03080
 70
192
 0
VERTEX
 8
0
 10
-0.02026
 20
-0.07863
 30
0.03080
 70
192
 0
VERTEX
 8
0
 10
0.02513
 20
-0.07863
 30
0.01297
 70
192
 0
VERTEX
 8
0
 10
-0.02513
 20
-0.07863
 30
0.01297
 70
192
 0
VERTEX
 8
0
 10
0.03891
 20
-0.07539
 30
0.00891
 70
192
 0
VERTEX
 8
0
 10
-0.03891
 20
-0.07539
 30
0.00891
 70
192
 0
VERTEX
 8
0
 10
0.04783
 20
-0.07296
 30
0.01216
 70
192
 0
VERTEX
 8
0
 10
-0.04783
 20
-0.07296
 30
0.01216
 70
192
 0
VERTEX
 8
0
 10
0.05675
 20
-0.06972
 30
0.02188
 70
192
 0
VERTEX
 8
0
 10
-0.05675
 20
-0.06972
 30
0.02188
 70
192
 0
VERTEX
 8
0
 10
0.05756
 20
-0.06972
 30
0.02918
 70
192
 0
VERTEX
 8
0
 10
-0.05756
 20
-0.06972
 30
0.02918
 70
192
 0
VERTEX
 8
0
 10
0.05512
 20
-0.07053
 30
0.03486
 70
192
 0
VERTEX
 8
0
 10
-0.05512
 20
-0.07053
 30
0.03486
 70
192
 0
VERTEX
 8
0
 10
0.04296
 20
-0.07782
 30
0.04053
 70
192
 0
VERTEX
 8
0
 10
-0.04296
 20
-0.07782
 30
0.04053
 70
192
 0
VERTEX
 8
0
 10
0.02918
 20
-0.07945
 30
0.04134
 70
192
 0
VERTEX
 8
0
 10
-0.02918
 20
-0.07945
 30
0.04134
 70
192
 0
VERTEX
 8
0
 10
0.03486
 20
-0.07782
 30
0.04215
 70
192
 0
VERTEX
 8
0
 10
-0.03486
 20
-0.07782
 30
0.04215
 70
192
 0
VERTEX
 8
0
 10
0.02107
 20
-0.07782
 30
0.01783
 70
192
 0
VERTEX
 8
0
 10
-0.02107
 20
-0.07782
 30
0.01783
 70
192
 0
VERTEX
 8
0
 10
0.02026
 20
-0.07782
 30
0.02351
 70
192
 0
VERTEX
 8
0
 10
-0.02026
 20
-0.07782
 30
0.02351
 70
192
 0
VERTEX
 8
0
 10
0.01135
 20
-0.06323
 30
0.04783
 70
192
 0
VERTEX
 8
0
 10
-0.01135
 20
-0.06323
 30
0.04783
 70
192
 0
VERTEX
 8
0
 10
0.02026
 20
-0.06404
 30
0.06891
 70
192
 0
VERTEX
 8
0
 10
-0.02026
 20
-0.06404
 30
0.06891
 70
192
 0
VERTEX
 8
0
 10
0.03486
 20
-0.06161
 30
0.07134
 70
192
 0
VERTEX
 8
0
 10
-0.03486
 20
-0.06161
 30
0.07134
 70
192
 0
VERTEX
 8
0
 10
0.05026
 20
-0.05756
 30
0.05756
 70
192
 0
VERTEX
 8
0
 10
-0.05026
 20
-0.05756
 30
0.05756
 70
192
 0
VERTEX
 8
0
 10
0.07053
 20
-0.05107
 30
0.04702
 70
192
 0
VERTEX
 8
0
 10
-0.07053
 20
-0.05107
 30
0.04702
 70
192
 0
VERTEX
 8
0
 10
0.08269
 20
-0.04783
 30
0.04215
 70
192
 0
VERTEX
 8
0
 10
-0.08269
 20
-0.04783
 30
0.04215
 70
192
 0
VERTEX
 8
0
 10
0.08026
 20
-0.03891
 30
0.01702
 70
192
 0
VERTEX
 8
0
 10
-0.08026
 20
-0.03891
 30
0.01702
 70
192
 0
VERTEX
 8
0
 10
0.06242
 20
-0.04296
 30
0.0
 70
192
 0
VERTEX
 8
0
 10
-0.06242
 20
-0.04296
 30
0.0
 70
192
 0
VERTEX
 8
0
 10
0.04540
 20
-0.04864
 30
-0.00972
 70
192
 0
VERTEX
 8
0
 10
-0.04540
 20
-0.04864
 30
-0.00972
 70
192
 0
VERTEX
 8
0
 10
0.0
 20
-0.03
 30
0.09323
 70
192
 0
VERTEX
 8
0
 10
0.0
 20
0.00810
 30
0.10215
 70
192
 0
VERTEX
 8
0
 10
0.0
 20
0.06972
 30
-0.02026
 70
192
 0
VERTEX
 8
0
 10
0.0
 20
-0.01945
 30
-0.04783
 70
192
 0
VERTEX
 8
0
 10
0.0
 20
-0.04783
 30
-0.10134
 70
192
 0
VERTEX
 8
0
 10
0.0
 20
-0.03567
 30
-0.08350
 70
192
 0
VERTEX
 8
0
 10
0.0
 20
-0.03323
 30
-0.05918
 70
192
 0
VERTEX
 8
0
 10
0.0
 20
-0.02918
 30
-0.05026
 70
192
 0
VERTEX
 8
0
 10
0.08836
 20
-0.00567
 30
0.02432
 70
192
 0
VERTEX
 8
0
 10
-0.08836
 20
-0.00567
 30
0.02432
 70
192
 0
VERTEX
 8
0
 10
0.08917
 20
0.00486
 30
0.03323
 70
192
 0
VERTEX
 8
0
 10
-0.08917
 20
0.00486
 30
0.03323
 70
192
 0
VERTEX
 8
0
 10
0.08026
 20
0.04540
 30
0.02756
 70
192
 0
VERTEX
 8
0
 10
-0.08026
 20
0.04540
 30
0.02756
 70
192
 0
VERTEX
 8
0
 10
0.04783
 20
0.07296
 30
0.04540
 70
192
 0
VERTEX
 8
0
 10
-0.04783
 20
0.07296
 30
0.04540
 70
192
 0
VERTEX
 8
0
 10
0.07620
 20
-0.00729
 30
-0.00486
 70
192
 0
VERTEX
 8
0
 10
-0.07620
 20
-0.00729
 30
-0.00486
 70
192
 0
VERTEX
 8
0
 10
0.06161
 20
0.01702
 30
-0.01297
 70
192
 0
VERTEX
 8
0
 10
-0.06161
 20
0.01702
 30
-0.01297
 70
192
 0
VERTEX
 8
0
 10
0.06647
 20
0.04458
 30
-0.
 70
192
 0
VERTEX
 8
0
 10
-0.06647
 20
0.04458
 30
-0.
 70
192
 0
VERTEX
 8
0
 10
0.03486
 20
0.06891
 30
0.00567
 70
192
 0
VERTEX
 8
0
 10
-0.03486
 20
0.06891
 30
0.00567
 70
192
 0
VERTEX
 8
0
 10
0.02432
 20
-0.04215
 30
-0.03648
 70
192
 0
VERTEX
 8
0
 10
-0.02432
 20
-0.04215
 30
-0.03648
 70
192
 0
VERTEX
 8
0
 10
0.01864
 20
-0.02675
 30
-0.04296
 70
192
 0
VERTEX
 8
0
 10
-0.01864
 20
-0.02675
 30
-0.04296
 70
192
 0
VERTEX
 8
0
 10
0.03
 20
-0.03972
 30
-0.07377
 70
192
 0
VERTEX
 8
0
 10
-0.03
 20
-0.03972
 30
-0.07377
 70
192
 0
VERTEX
 8
0
 10
0.02594
 20
-0.04053
 30
-0.05188
 70
192
 0
VERTEX
 8
0
 10
-0.02594
 20
-0.04053
 30
-0.05188
 70
192
 0
VERTEX
 8
0
 10
0.03405
 20
-0.04134
 30
-0.09485
 70
192
 0
VERTEX
 8
0
 10
-0.03405
 20
-0.04134
 30
-0.09485
 70
192
 0
VERTEX
 8
0
 10
0.01459
 20
-0.03810
 30
-0.07863
 70
192
 0
VERTEX
 8
0
 10
-0.01459
 20
-0.03810
 30
-0.07863
 70
192
 0
VERTEX
 8
0
 10
0.01297
 20
-0.03729
 30
-0.05593
 70
192
 0
VERTEX
 8
0
 10
-0.01297
 20
-0.03729
 30
-0.05593
 70
192
 0
VERTEX
 8
0
 10
0.01702
 20
-0.04540
 30
-0.09809
 70
192
 0
VERTEX
 8
0
 10
-0.01702
 20
-0.04540
 30
-0.09809
 70
192
 0
VERTEX
 8
0
 10
0.02270
 20
-0.04458
 30
-0.02918
 70
192
 0
VERTEX
 8
0
 10
-0.02270
 20
-0.04458
 30
-0.02918
 70
192
 0
VERTEX
 8
0
 10
0.02188
 20
-0.04864
 30
-0.02351
 70
192
 0
VERTEX
 8
0
 10
-0.02188
 20
-0.04864
 30
-0.02351
 70
192
 0
VERTEX
 8
0
 10
0.02107
 20
-0.05188
 30
-0.01783
 70
192
 0
VERTEX
 8
0
 10
-0.02107
 20
-0.05188
 30
-0.01783
 70
192
 0
VERTEX
 8
0
 10
0.02188
 20
-0.01702
 30
-0.04053
 70
192
 0
VERTEX
 8
0
 10
-0.02188
 20
-0.01702
 30
-0.04053
 70
192
 0
VERTEX
 8
0
 10
0.03080
 20
0.02756
 30
-0.03242
 70
192
 0
VERTEX
 8
0
 10
-0.03080
 20
0.02756
 30
-0.03242
 70
192
 0
VERTEX
 8
0
 10
0.03567
 20
0.05593
 30
-0.01540
 70
192
 0
VERTEX
 8
0
 10
-0.03567
 20
0.05593
 30
-0.01540
 70
192
 0
VERTEX
 8
0
 10
0.04702
 20
0.03972
 30
0.08998
 70
192
 0
VERTEX
 8
0
 10
-0.04702
 20
0.03972
 30
0.08998
 70
192
 0
VERTEX
 8
0
 10
0.04702
 20
0.00729
 30
0.09647
 70
192
 0
VERTEX
 8
0
 10
-0.04702
 20
0.00729
 30
0.09647
 70
192
 0
VERTEX
 8
0
 10
0.04702
 20
-0.02432
 30
0.08836
 70
192
 0
VERTEX
 8
0
 10
-0.04702
 20
-0.02432
 30
0.08836
 70
192
 0
VERTEX
 8
0
 10
0.04783
 20
-0.04458
 30
0.05431
 70
192
 0
VERTEX
 8
0
 10
-0.04783
 20
-0.04458
 30
0.05431
 70
192
 0
VERTEX
 8
0
 10
0.07539
 20
-0.03486
 30
0.04215
 70
192
 0
VERTEX
 8
0
 10
-0.07539
 20
-0.03486
 30
0.04215
 70
192
 0
VERTEX
 8
0
 10
0.06566
 20
-0.02918
 30
0.04702
 70
192
 0
VERTEX
 8
0
 10
-0.06566
 20
-0.02918
 30
0.04702
 70
192
 0
VERTEX
 8
0
 10
0.06647
 20
-0.00567
 30
0.07296
 70
192
 0
VERTEX
 8
0
 10
-0.06647
 20
-0.00567
 30
0.07296
 70
192
 0
VERTEX
 8
0
 10
0.08269
 20
-0.01297
 30
0.05837
 70
192
 0
VERTEX
 8
0
 10
-0.08269
 20
-0.01297
 30
0.05837
 70
192
 0
VERTEX
 8
0
 10
0.08269
 20
0.01216
 30
0.06404
 70
192
 0
VERTEX
 8
0
 10
-0.08269
 20
0.01216
 30
0.06404
 70
192
 0
VERTEX
 8
0
 10
0.06647
 20
0.02026
 30
0.07782
 70
192
 0
VERTEX
 8
0
 10
-0.06647
 20
0.02026
 30
0.07782
 70
192
 0
VERTEX
 8
0
 10
0.06647
 20
0.04621
 30
0.07053
 70
192
 0
VERTEX
 8
0
 10
-0.06647
 20
0.04621
 30
0.07053
 70
192
 0
VERTEX
 8
0
 10
0.08269
 20
0.03729
 30
0.05593
 70
192
 0
VERTEX
 8
0
 10
-0.08269
 20
0.03729
 30
0.05593
 70
192
 0
VERTEX
 8
0
 10
0.06404
 20
0.06080
 30
0.03405
 70
192
 0
VERTEX
 8
0
 10
-0.06404
 20
0.06080
 30
0.03405
 70
192
 0
VERTEX
 8
0
 10
0.05026
 20
0.05675
 30
0.00243
 70
192
 0
VERTEX
 8
0
 10
-0.05026
 20
0.05675
 30
0.00243
 70
192
 0
VERTEX
 8
0
 10
0.08512
 20
0.02107
 30
0.03405
 70
192
 0
VERTEX
 8
0
 10
-0.08512
 20
0.02107
 30
0.03405
 70
192
 0
VERTEX
 8
0
 10
0.04215
 20
-0.01540
 30
-0.01783
 70
192
 0
VERTEX
 8
0
 10
-0.04215
 20
-0.01540
 30
-0.01783
 70
192
 0
VERTEX
 8
0
 10
0.04458
 20
0.02188
 30
-0.02026
 70
192
 0
VERTEX
 8
0
 10
-0.04458
 20
0.02188
 30
-0.02026
 70
192
 0
VERTEX
 8
0
 10
0.09242
 20
0.02432
 30
0.04215
 70
192
 0
VERTEX
 8
0
 10
-0.09242
 20
0.02432
 30
0.04215
 70
192
 0
VERTEX
 8
0
 10
0.08026
 20
0.01297
 30
-0.01459
 70
192
 0
VERTEX
 8
0
 10
-0.08026
 20
0.01297
 30
-0.01459
 70
192
 0
VERTEX
 8
0
 10
0.10782
 20
0.03405
 30
-0.01053
 70
192
 0
VERTEX
 8
0
 10
-0.10782
 20
0.03405
 30
-0.01053
 70
192
 0
VERTEX
 8
0
 10
0.13295
 20
0.04458
 30
0.00567
 70
192
 0
VERTEX
 8
0
 10
-0.13295
 20
0.04458
 30
0.00567
 70
192
 0
VERTEX
 8
0
 10
0.14025
 20
0.04377
 30
0.03323
 70
192
 0
VERTEX
 8
0
 10
-0.14025
 20
0.04377
 30
0.03323
 70
192
 0
VERTEX
 8
0
 10
0.12809
 20
0.04377
 30
0.05269
 70
192
 0
VERTEX
 8
0
 10
-0.12809
 20
0.04377
 30
0.05269
 70
192
 0
VERTEX
 8
0
 10
0.10620
 20
0.03242
 30
0.04945
 70
192
 0
VERTEX
 8
0
 10
-0.10620
 20
0.03242
 30
0.04945
 70
192
 0
VERTEX
 8
0
 10
0.10539
 20
0.03
 30
0.04296
 70
192
 0
VERTEX
 8
0
 10
-0.10539
 20
0.03
 30
0.04296
 70
192
 0
VERTEX
 8
0
 10
0.12322
 20
0.04053
 30
0.04540
 70
192
 0
VERTEX
 8
0
 10
-0.12322
 20
0.04053
 30
0.04540
 70
192
 0
VERTEX
 8
0
 10
0.13133
 20
0.04215
 30
0.03
 70
192
 0
VERTEX
 8
0
 10
-0.13133
 20
0.04215
 30
0.03
 70
192
 0
VERTEX
 8
0
 10
0.12566
 20
0.04215
 30
0.00810
 70
192
 0
VERTEX
 8
0
 10
-0.12566
 20
0.04215
 30
0.00810
 70
192
 0
VERTEX
 8
0
 10
0.10701
 20
0.03161
 30
-0.00405
 70
192
 0
VERTEX
 8
0
 10
-0.10701
 20
0.03161
 30
-0.00405
 70
192
 0
VERTEX
 8
0
 10
0.08593
 20
0.01378
 30
-0.00729
 70
192
 0
VERTEX
 8
0
 10
-0.08593
 20
0.01378
 30
-0.00729
 70
192
 0
VERTEX
 8
0
 10
0.09566
 20
0.02270
 30
0.03729
 70
192
 0
VERTEX
 8
0
 10
-0.09566
 20
0.02270
 30
0.03729
 70
192
 0
VERTEX
 8
0
 10
0.09809
 20
0.03
 30
0.03161
 70
192
 0
VERTEX
 8
0
 10
-0.09809
 20
0.03
 30
0.03161
 70
192
 0
VERTEX
 8
0
 10
0.09161
 20
0.02188
 30
-0.00243
 70
192
 0
VERTEX
 8
0
 10
-0.09161
 20
0.02188
 30
-0.00243
 70
192
 0
VERTEX
 8
0
 10
0.10782
 20
0.03810
 30
0.0
 70
192
 0
VERTEX
 8
0
 10
-0.10782
 20
0.03810
 30
0.0
 70
192
 0
VERTEX
 8
0
 10
0.12322
 20
0.04621
 30
0.00972
 70
192
 0
VERTEX
 8
0
 10
-0.12322
 20
0.04621
 30
0.00972
 70
192
 0
VERTEX
 8
0
 10
0.12809
 20
0.04621
 30
0.02594
 70
192
 0
VERTEX
 8
0
 10
-0.12809
 20
0.04621
 30
0.02594
 70
192
 0
VERTEX
 8
0
 10
0.12160
 20
0.04540
 30
0.03729
 70
192
 0
VERTEX
 8
0
 10
-0.12160
 20
0.04540
 30
0.03729
 70
192
 0
VERTEX
 8
0
 10
0.10620
 20
0.03729
 30
0.03567
 70
192
 0
VERTEX
 8
0
 10
-0.10620
 20
0.03729
 30
0.03567
 70
192
 0
VERTEX
 8
0
 10
0.08755
 20
0.02188
 30
0.03
 70
192
 0
VERTEX
 8
0
 10
-0.08755
 20
0.02188
 30
0.03
 70
192
 0
VERTEX
 8
0
 10
0.08674
 20
0.02837
 30
0.01783
 70
192
 0
VERTEX
 8
0
 10
-0.08674
 20
0.02837
 30
0.01783
 70
192
 0
VERTEX
 8
0
 10
0.07863
 20
0.02837
 30
0.00972
 70
192
 0
VERTEX
 8
0
 10
-0.07863
 20
0.02837
 30
0.00972
 70
192
 0
VERTEX
 8
0
 10
0.08512
 20
0.02837
 30
0.00891
 70
192
 0
VERTEX
 8
0
 10
-0.08512
 20
0.02837
 30
0.00891
 70
192
 0
VERTEX
 8
0
 10
0.08755
 20
0.02837
 30
0.00162
 70
192
 0
VERTEX
 8
0
 10
-0.08755
 20
0.02837
 30
0.00162
 70
192
 0
VERTEX
 8
0
 10
0.08431
 20
0.02837
 30
-0.00162
 70
192
 0
VERTEX
 8
0
 10
-0.08431
 20
0.02837
 30
-0.00162
 70
192
 0
VERTEX
 8
0
 10
0.07539
 20
0.00729
 30
0.0
 70
192
 0
VERTEX
 8
0
 10
-0.07539
 20
0.00729
 30
0.0
 70
192
 0
VERTEX
 8
0
 10
0.07458
 20
0.01783
 30
-0.00243
 70
192
 0
VERTEX
 8
0
 10
-0.07458
 20
0.01783
 30
-0.00243
 70
192
 0
VERTEX
 8
0
 10
0.07458
 20
0.01945
 30
0.00405
 70
192
 0
VERTEX
 8
0
 10
-0.07458
 20
0.01945
 30
0.00405
 70
192
 0
VERTEX
 8
0
 10
0.08269
 20
0.02188
 30
0.02107
 70
192
 0
VERTEX
 8
0
 10
-0.08269
 20
0.02188
 30
0.02107
 70
192
 0
VERTEX
 8
0
 10
0.09242
 20
0.02756
 30
0.02513
 70
192
 0
VERTEX
 8
0
 10
-0.09242
 20
0.02756
 30
0.02513
 70
192
 0
VERTEX
 8
0
 10
0.09242
 20
0.03323
 30
0.02432
 70
192
 0
VERTEX
 8
0
 10
-0.09242
 20
0.03323
 30
0.02432
 70
192
 0
VERTEX
 8
0
 10
0.08431
 20
0.03323
 30
-0.00162
 70
192
 0
VERTEX
 8
0
 10
-0.08431
 20
0.03323
 30
-0.00162
 70
192
 0
VERTEX
 8
0
 10
0.08836
 20
0.03323
 30
0.00162
 70
192
 0
VERTEX
 8
0
 10
-0.08836
 20
0.03323
 30
0.00162
 70
192
 0
VERTEX
 8
0
 10
0.08593
 20
0.03323
 30
0.00810
 70
192
 0
VERTEX
 8
0
 10
-0.08593
 20
0.03323
 30
0.00810
 70
192
 0
VERTEX
 8
0
 10
0.07945
 20
0.03323
 30
0.00972
 70
192
 0
VERTEX
 8
0
 10
-0.07945
 20
0.03323
 30
0.00972
 70
192
 0
VERTEX
 8
0
 10
0.08755
 20
0.03323
 30
0.01783
 70
192
 0
VERTEX
 8
0
 10
-0.08755
 20
0.03323
 30
0.01783
 70
192
 0
VERTEX
 8
0
 10
0.10782
 20
0.04296
 30
0.03405
 70
192
 0
VERTEX
 8
0
 10
-0.10782
 20
0.04296
 30
0.03405
 70
192
 0
VERTEX
 8
0
 10
0.12322
 20
0.05026
 30
0.03567
 70
192
 0
VERTEX
 8
0
 10
-0.12322
 20
0.05026
 30
0.03567
 70
192
 0
VERTEX
 8
0
 10
0.13052
 20
0.05107
 30
0.02513
 70
192
 0
VERTEX
 8
0
 10
-0.13052
 20
0.05107
 30
0.02513
 70
192
 0
VERTEX
 8
0
 10
0.12566
 20
0.05026
 30
0.00891
 70
192
 0
VERTEX
 8
0
 10
-0.12566
 20
0.05026
 30
0.00891
 70
192
 0
VERTEX
 8
0
 10
0.10863
 20
0.04377
 30
0.0
 70
192
 0
VERTEX
 8
0
 10
-0.10863
 20
0.04377
 30
0.0
 70
192
 0
VERTEX
 8
0
 10
0.09161
 20
0.02756
 30
-0.00162
 70
192
 0
VERTEX
 8
0
 10
-0.09161
 20
0.02756
 30
-0.00162
 70
192
 0
VERTEX
 8
0
 10
0.09890
 20
0.03567
 30
0.03
 70
192
 0
VERTEX
 8
0
 10
-0.09890
 20
0.03567
 30
0.03
 70
192
 0
VERTEX
 8
0
 10
0.09242
 20
0.03405
 30
0.01135
 70
192
 0
VERTEX
 8
0
 10
-0.09242
 20
0.03405
 30
0.01135
 70
192
 0
VERTEX
 8
0
 10
0.09728
 20
0.03486
 30
0.00648
 70
192
 0
VERTEX
 8
0
 10
-0.09728
 20
0.03486
 30
0.00648
 70
192
 0
VERTEX
 8
0
 10
0.10377
 20
0.03810
 30
0.01297
 70
192
 0
VERTEX
 8
0
 10
-0.10377
 20
0.03810
 30
0.01297
 70
192
 0
VERTEX
 8
0
 10
0.09971
 20
0.03648
 30
0.01783
 70
192
 0
VERTEX
 8
0
 10
-0.09971
 20
0.03648
 30
0.01783
 70
192
 0
VERTEX
 8
0
 10
0.10539
 20
0.03891
 30
0.02432
 70
192
 0
VERTEX
 8
0
 10
-0.10539
 20
0.03891
 30
0.02432
 70
192
 0
VERTEX
 8
0
 10
0.10944
 20
0.03972
 30
0.01945
 70
192
 0
VERTEX
 8
0
 10
-0.10944
 20
0.03972
 30
0.01945
 70
192
 0
VERTEX
 8
0
 10
0.11512
 20
0.04053
 30
0.02188
 70
192
 0
VERTEX
 8
0
 10
-0.11512
 20
0.04053
 30
0.02188
 70
192
 0
VERTEX
 8
0
 10
0.11269
 20
0.04053
 30
0.02837
 70
192
 0
VERTEX
 8
0
 10
-0.11269
 20
0.04053
 30
0.02837
 70
192
 0
VERTEX
 8
0
 10
0.10620
 20
0.05026
 30
0.04540
 70
192
 0
VERTEX
 8
0
 10
-0.10620
 20
0.05026
 30
0.04540
 70
192
 0
VERTEX
 8
0
 10
0.12971
 20
0.05675
 30
0.04864
 70
192
 0
VERTEX
 8
0
 10
-0.12971
 20
0.05675
 30
0.04864
 70
192
 0
VERTEX
 8
0
 10
0.14187
 20
0.05188
 30
0.03080
 70
192
 0
VERTEX
 8
0
 10
-0.14187
 20
0.05188
 30
0.03080
 70
192
 0
VERTEX
 8
0
 10
0.13620
 20
0.05512
 30
0.00567
 70
192
 0
VERTEX
 8
0
 10
-0.13620
 20
0.05512
 30
0.00567
 70
192
 0
VERTEX
 8
0
 10
0.10782
 20
0.05107
 30
-0.00891
 70
192
 0
VERTEX
 8
0
 10
-0.10782
 20
0.05107
 30
-0.00891
 70
192
 0
VERTEX
 8
0
 10
0.08188
 20
0.03405
 30
-0.01297
 70
192
 0
VERTEX
 8
0
 10
-0.08188
 20
0.03405
 30
-0.01297
 70
192
 0
VERTEX
 8
0
 10
0.08917
 20
0.03972
 30
0.03972
 70
192
 0
VERTEX
 8
0
 10
-0.08917
 20
0.03972
 30
0.03972
 70
192
 0
VERTEX
 8
0
 10
0.0
 20
0.0
 30
0.0
 70
128
 71
47
 72
1
 73
3
 0
VERTEX
 8
0
 10
0.0
 20
0.0
 30
0.0
 70
128
 71
47
 72
3
 73
45
 0
VERTEX
 8
0
 10
0.0
 20
0.0
 30
0.0
 70
128
 71
4
 72
2
 73
48
 0
VERTEX
 8
0
 10
0.0
 20
0.0
 30
0.0
 70
128
 71
4
 72
48
 73
46
 0
VERTEX
 8
0
 10
0.0
 20
0.0
 30
0.0
 70
128
 71
45
 72
3
 73
5
 0
VERTEX
 8
0
 10
0.0
 20
0.0
 30
0.0
 70
128
 71
45
 72
5
 73
43
 0
VERTEX
 8
0
 10
0.0
 20
0.0
 30
0.0
 70
128
 71
6
 72
4
 73
46
 0
VERTEX
 8
0
 10
0.0
 20
0.0
 30
0.0
 70
128
 71
6
 72
46
 73
44
 0
VERTEX
 8
0
 10
0.0
 20
0.0
 30
0.0
 70
128
 71
3
 72
9
 73
7
 0
VERTEX
 8
0
 10
0.0
 20
0.0
 30
0.0
 70
128
 71
3
 72
7
 73
5
 0
VERTEX
 8
0
 10
0.0
 20
0.0
 30
0.0
 70
128
 71
8
 72
10
 73
4
 0
VERTEX
 8
0
 10
0.0
 20
0.0
 30
0.0
 70
128
 71
8
 72
4
 73
6
 0
VERTEX
 8
0
 10
0.0
 20
0.0
 30
0.0
 70
128
 71
1
 72
11
 73
9
 0
VERTEX
 8
0
 10
0.0
 20
0.0
 30
0.0
 70
128
 71
1
 72
9
 73
3
 0
VERTEX
 8
0
 10
0.0
 20
0.0
 30
0.0
 70
128
 71
10
 72
12
 73
2
 0
VERTEX
 8
0
 10
0.0
 20
0.0
 30
0.0
 70
128
 71
10
 72
2
 73
4
 0
VERTEX
 8
0
 10
0.0
 20
0.0
 30
0.0
 70
128
 71
11
 72
13
 73
15
 0
VERTEX
 8
0
 10
0.0
 20
0.0
 30
0.0
 70
128
 71
11
 72
15
 73
9
 0
VERTEX
 8
0
 10
0.0
 20
0.0
 30
0.0
 70
128
 71
16
 72
14
 73
12
 0
VERTEX
 8
0
 10
0.0
 20
0.0
 30
0.0
 70
128
 71
16
 72
12
 73
10
 0
VERTEX
 8
0
 10
0.0
 20
0.0
 30
0.0
 70
128
 71
9
 72
15
 73
17
 0
VERTEX
 8
0
 10
0.0
 20
0.0
 30
0.0
 70
128
 71
9
 72
17
 73
7
 0
VERTEX
 8
0
 10
0.0
 20
0.0
 30
0.0
 70
128
 71
18
 72
16
 73
10
 0
VERTEX
 8
0
 10
0.0
 20
0.0
 30
0.0
 70
128
 71
18
 72
10
 73
8
 0
VERTEX
 8
0
 10
0.0
 20
0.0
 30
0.0
 70
128
 71
15
 72
21
 73
19
 0
VERTEX
 8
0
 10
0.0
 20
0.0
 30
0.0
 70
128
 71
15
 72
19
 73
17
 0
VERTEX
 8
0
 10
0.0
 20
0.0
 30
0.0
 70
128
 71
20
 72
22
 73
16
 0
VERTEX
 8
0
 10
0.0
 20
0.0
 30
0.0
 70
128
 71
20
 72
16
 73
18
 0
VERTEX
 8
0
 10
0.0
 20
0.0
 30
0.0
 70
128
 71
13
 72
23
 73
21
 0
VERTEX
 8
0
 10
0.0
 20
0.0
 30
0.0
 70
128
 71
13
 72
21
 73
15
 0
VERTEX
 8
0
 10
0.0
 20
0.0
 30
0.0
 70
128
 71
22
 72
24
 73
14
 0
VERTEX
 8
0
 10
0.0
 20
0.0
 30
0.0
 70
128
 71
22
 72
14
 73
16
 0
VERTEX
 8
0
 10
0.0
 20
0.0
 30
0.0
 70
128
 71
23
 72
25
 73
27
 0
VERTEX
 8
0
 10
0.0
 20
0.0
 30
0.0
 70
128
 71
23
 72
27
 73
21
 0
VERTEX
 8
0
 10
0.0
 20
0.0
 30
0.0
 70
128
 71
28
 72
26
 73
24
 0
VERTEX
 8
0
 10
0.0
 20
0.0
 30
0.0
 70
128
 71
28
 72
24
 73
22
 0
VERTEX
 8
0
 10
0.0
 20
0.0
 30
0.0
 70
128
 71
21
 72
27
 73
29
 0
VERTEX
 8
0
 10
0.0
 20
0.0
 30
0.0
 70
128
 71
21
 72
29
 73
19
 0
VERTEX
 8
0
 10
0.0
 20
0.0
 30
0.0
 70
128
 71
30
 72
28
 73
22
 0
VERTEX
 8
0
 10
0.0
 20
0.0
 30
0.0
 70
128
 71
30
 72
22
 73
20
 0
VERTEX
 8
0
 10
0.0
 20
0.0
 30
0.0
 70
128
 71
27
 72
33
 73
31
 0
VERTEX
 8
0
 10
0.0
 20
0.0
 30
0.0
 70
128
 71
27
 72
31
 73
29
 0
VERTEX
 8
0
 10
0.0
 20
0.0
 30
0.0
 70
128
 71
32
 72
34
 73
28
 0
VERTEX
 8
0
 10
0.0
 20
0.0
 30
0.0
 70
128
 71
32
 72
28
 73
30
 0
VERTEX
 8
0
 10
0.0
 20
0.0
 30
0.0
 70
128
 71
25
 72
35
 73
33
 0
VERTEX
 8
0
 10
0.0
 20
0.0
 30
0.0
 70
128
 71
25
 72
33
 73
27
 0
VERTEX
 8
0
 10
0.0
 20
0.0
 30
0.0
 70
128
 71
34
 72
36
 73
26
 0
VERTEX
 8
0
 10
0.0
 20
0.0
 30
0.0
 70
128
 71
34
 72
26
 73
28
 0
VERTEX
 8
0
 10
0.0
 20
0.0
 30
0.0
 70
128
 71
35
 72
37
 73
39
 0
VERTEX
 8
0
 10
0.0
 20
0.0
 30
0.0
 70
128
 71
35
 72
39
 73
33
 0
VERTEX
 8
0
 10
0.0
 20
0.0
 30
0.0
 70
128
 71
40
 72
38
 73
36
 0
VERTEX
 8
0
 10
0.0
 20
0.0
 30
0.0
 70
128
 71
40
 72
36
 73
34
 0
VERTEX
 8
0
 10
0.0
 20
0.0
 30
0.0
 70
128
 71
33
 72
39
 73
41
 0
VERTEX
 8
0
 10
0.0
 20
0.0
 30
0.0
 70
128
 71
33
 72
41
 73
31
 0
VERTEX
 8
0
 10
0.0
 20
0.0
 30
0.0
 70
128
 71
42
 72
40
 73
34
 0
VERTEX
 8
0
 10
0.0
 20
0.0
 30
0.0
 70
128
 71
42
 72
34
 73
32
 0
VERTEX
 8
0
 10
0.0
 20
0.0
 30
0.0
 70
128
 71
39
 72
45
 73
43
 0
VERTEX
 8
0
 10
0.0
 20
0.0
 30
0.0
 70
128
 71
39
 72
43
 73
41
 0
VERTEX
 8
0
 10
0.0
 20
0.0
 30
0.0
 70
128
 71
44
 72
46
 73
40
 0
VERTEX
 8
0
 10
0.0
 20
0.0
 30
0.0
 70
128
 71
44
 72
40
 73
42
 0
VERTEX
 8
0
 10
0.0
 20
0.0
 30
0.0
 70
128
 71
37
 72
47
 73
45
 0
VERTEX
 8
0
 10
0.0
 20
0.0
 30
0.0
 70
128
 71
37
 72
45
 73
39
 0
VERTEX
 8
0
 10
0.0
 20
0.0
 30
0.0
 70
128
 71
46
 72
48
 73
38
 0
VERTEX
 8
0
 10
0.0
 20
0.0
 30
0.0
 70
128
 71
46
 72
38
 73
40
 0
VERTEX
 8
0
 10
0.0
 20
0.0
 30
0.0
 70
128
 71
47
 72
37
 73
51
 0
VERTEX
 8
0
 10
0.0
 20
0.0
 30
0.0
 70
128
 71
47
 72
51
 73
49
 0
VERTEX
 8
0
 10
0.0
 20
0.0
 30
0.0
 70
128
 71
52
 72
38
 73
48
 0
VERTEX
 8
0
 10
0.0
 20
0.0
 30
0.0
 70
128
 71
52
 72
48
 73
50
 0
VERTEX
 8
0
 10
0.0
 20
0.0
 30
0.0
 70
128
 71
37
 72
35
 73
53
 0
VERTEX
 8
0
 10
0.0
 20
0.0
 30
0.0
 70
128
 71
37
 72
53
 73
51
 0
VERTEX
 8
0
 10
0.0
 20
0.0
 30
0.0
 70
128
 71
54
 72
36
 73
38
 0
VERTEX
 8
0
 10
0.0
 20
0.0
 30
0.0
 70
128
 71
54
 72
38
 73
52
 0
VERTEX
 8
0
 10
0.0
 20
0.0
 30
0.0
 70
128
 71
35
 72
25
 73
55
 0
VERTEX
 8
0
 10
0.0
 20
0.0
 30
0.0
 70
128
 71
35
 72
55
 73
53
 0
VERTEX
 8
0
 10
0.0
 20
0.0
 30
0.0
 70
128
 71
56
 72
26
 73
36
 0
VERTEX
 8
0
 10
0.0
 20
0.0
 30
0.0
 70
128
 71
56
 72
36
 73
54
 0
VERTEX
 8
0
 10
0.0
 20
0.0
 30
0.0
 70
128
 71
25
 72
23
 73
57
 0
VERTEX
 8
0
 10
0.0
 20
0.0
 30
0.0
 70
128
 71
25
 72
57
 73
55
 0
VERTEX
 8
0
 10
0.0
 20
0.0
 30
0.0
 70
128
 71
58
 72
24
 73
26
 0
VERTEX
 8
0
 10
0.0
 20
0.0
 30
0.0
 70
128
 71
58
 72
26
 73
56
 0
VERTEX
 8
0
 10
0.0
 20
0.0
 30
0.0
 70
128
 71
23
 72
13
 73
59
 0
VERTEX
 8
0
 10
0.0
 20
0.0
 30
0.0
 70
128
 71
23
 72
59
 73
57
 0
VERTEX
 8
0
 10
0.0
 20
0.0
 30
0.0
 70
128
 71
60
 72
14
 73
24
 0
VERTEX
 8
0
 10
0.0
 20
0.0
 30
0.0
 70
128
 71
60
 72
24
 73
58
 0
VERTEX
 8
0
 10
0.0
 20
0.0
 30
0.0
 70
128
 71
13
 72
11
 73
63
 0
VERTEX
 8
0
 10
0.0
 20
0.0
 30
0.0
 70
128
 71
13
 72
63
 73
59
 0
VERTEX
 8
0
 10
0.0
 20
0.0
 30
0.0
 70
128
 71
64
 72
12
 73
14
 0
VERTEX
 8
0
 10
0.0
 20
0.0
 30
0.0
 70
128
 71
64
 72
14
 73
60
 0
VERTEX
 8
0
 10
0.0
 20
0.0
 30
0.0
 70
128
 71
11
 72
1
 73
65
 0
VERTEX
 8
0
 10
0.0
 20
0.0
 30
0.0
 70
128
 71
11
 72
65
 73
63
 0
VERTEX
 8
0
 10
0.0
 20
0.0
 30
0.0
 70
128
 71
66
 72
2
 73
12
 0
VERTEX
 8
0
 10
0.0
 20
0.0
 30
0.0
 70
128
 71
66
 72
12
 73
64
 0
VERTEX
 8
0
 10
0.0
 20
0.0
 30
0.0
 70
128
 71
1
 72
47
 73
49
 0
VERTEX
 8
0
 10
0.0
 20
0.0
 30
0.0
 70
128
 71
1
 72
49
 73
65
 0
VERTEX
 8
0
 10
0.0
 20
0.0
 30
0.0
 70
128
 71
50
 72
48
 73
2
 0
VERTEX
 8
0
 10
0.0
 20
0.0
 30
0.0
 70
128
 71
50
 72
2
 73
66
 0
VERTEX
 8
0
 10
0.0
 20
0.0
 30
0.0
 70
128
 71
61
 72
65
 73
49
 0
VERTEX
 8
0
 10
0.0
 20
0.0
 30
0.0
 70
128
 71
50
 72
66
 73
62
 0
VERTEX
 8
0
 10
0.0
 20
0.0
 30
0.0
 70
128
 71
63
 72
65
 73
61
 0
VERTEX
 8
0
 10
0.0
 20
0.0
 30
0.0
 70
128
 71
62
 72
66
 73
64
 0
VERTEX
 8
0
 10
0.0
 20
0.0
 30
0.0
 70
128
 71
61
 72
59
 73
63
 0
VERTEX
 8
0
 10
0.0
 20
0.0
 30
0.0
 70
128
 71
64
 72
60
 73
62
 0
VERTEX
 8
0
 10
0.0
 20
0.0
 30
0.0
 70
128
 71
61
 72
57
 73
59
 0
VERTEX
 8
0
 10
0.0
 20
0.0
 30
0.0
 70
128
 71
60
 72
58
 73
62
 0
VERTEX
 8
0
 10
0.0
 20
0.0
 30
0.0
 70
128
 71
61
 72
55
 73
57
 0
VERTEX
 8
0
 10
0.0
 20
0.0
 30
0.0
 70
128
 71
58
 72
56
 73
62
 0
VERTEX
 8
0
 10
0.0
 20
0.0
 30
0.0
 70
128
 71
61
 72
53
 73
55
 0
VERTEX
 8
0
 10
0.0
 20
0.0
 30
0.0
 70
128
 71
56
 72
54
 73
62
 0
VERTEX
 8
0
 10
0.0
 20
0.0
 30
0.0
 70
128
 71
61
 72
51
 73
53
 0
VERTEX
 8
0
 10
0.0
 20
0.0
 30
0.0
 70
128
 71
54
 72
52
 73
62
 0
VERTEX
 8
0
 10
0.0
 20
0.0
 30
0.0
 70
128
 71
61
 72
49
 73
51
 0
VERTEX
 8
0
 10
0.0
 20
0.0
 30
0.0
 70
128
 71
52
 72
50
 73
62
 0
VERTEX
 8
0
 10
0.0
 20
0.0
 30
0.0
 70
128
 71
89
 72
174
 73
176
 0
VERTEX
 8
0
 10
0.0
 20
0.0
 30
0.0
 70
128
 71
89
 72
176
 73
91
 0
VERTEX
 8
0
 10
0.0
 20
0.0
 30
0.0
 70
128
 71
176
 72
175
 73
90
 0
VERTEX
 8
0
 10
0.0
 20
0.0
 30
0.0
 70
128
 71
176
 72
90
 73
91
 0
VERTEX
 8
0
 10
0.0
 20
0.0
 30
0.0
 70
128
 71
87
 72
172
 73
174
 0
VERTEX
 8
0
 10
0.0
 20
0.0
 30
0.0
 70
128
 71
87
 72
174
 73
89
 0
VERTEX
 8
0
 10
0.0
 20
0.0
 30
0.0
 70
128
 71
175
 72
173
 73
88
 0
VERTEX
 8
0
 10
0.0
 20
0.0
 30
0.0
 70
128
 71
175
 72
88
 73
90
 0
VERTEX
 8
0
 10
0.0
 20
0.0
 30
0.0
 70
128
 71
85
 72
170
 73
172
 0
VERTEX
 8
0
 10
0.0
 20
0.0
 30
0.0
 70
128
 71
85
 72
172
 73
87
 0
VERTEX
 8
0
 10
0.0
 20
0.0
 30
0.0
 70
128
 71
173
 72
171
 73
86
 0
VERTEX
 8
0
 10
0.0
 20
0.0
 30
0.0
 70
128
 71
173
 72
86
 73
88
 0
VERTEX
 8
0
 10
0.0
 20
0.0
 30
0.0
 70
128
 71
83
 72
168
 73
170
 0
VERTEX
 8
0
 10
0.0
 20
0.0
 30
0.0
 70
128
 71
83
 72
170
 73
85
 0
VERTEX
 8
0
 10
0.0
 20
0.0
 30
0.0
 70
128
 71
171
 72
169
 73
84
 0
VERTEX
 8
0
 10
0.0
 20
0.0
 30
0.0
 70
128
 71
171
 72
84
 73
86
 0
VERTEX
 8
0
 10
0.0
 20
0.0
 30
0.0
 70
128
 71
81
 72
166
 73
168
 0
VERTEX
 8
0
 10
0.0
 20
0.0
 30
0.0
 70
128
 71
81
 72
168
 73
83
 0
VERTEX
 8
0
 10
0.0
 20
0.0
 30
0.0
 70
128
 71
169
 72
167
 73
82
 0
VERTEX
 8
0
 10
0.0
 20
0.0
 30
0.0
 70
128
 71
169
 72
82
 73
84
 0
VERTEX
 8
0
 10
0.0
 20
0.0
 30
0.0
 70
128
 71
79
 72
92
 73
146
 0
VERTEX
 8
0
 10
0.0
 20
0.0
 30
0.0
 70
128
 71
79
 72
146
 73
164
 0
VERTEX
 8
0
 10
0.0
 20
0.0
 30
0.0
 70
128
 71
147
 72
93
 73
80
 0
VERTEX
 8
0
 10
0.0
 20
0.0
 30
0.0
 70
128
 71
147
 72
80
 73
165
 0
VERTEX
 8
0
 10
0.0
 20
0.0
 30
0.0
 70
128
 71
92
 72
94
 73
148
 0
VERTEX
 8
0
 10
0.0
 20
0.0
 30
0.0
 70
128
 71
92
 72
148
 73
146
 0
VERTEX
 8
0
 10
0.0
 20
0.0
 30
0.0
 70
128
 71
149
 72
95
 73
93
 0
VERTEX
 8
0
 10
0.0
 20
0.0
 30
0.0
 70
128
 71
149
 72
93
 73
147
 0
VERTEX
 8
0
 10
0.0
 20
0.0
 30
0.0
 70
128
 71
94
 72
96
 73
150
 0
VERTEX
 8
0
 10
0.0
 20
0.0
 30
0.0
 70
128
 71
94
 72
150
 73
148
 0
VERTEX
 8
0
 10
0.0
 20
0.0
 30
0.0
 70
128
 71
151
 72
97
 73
95
 0
VERTEX
 8
0
 10
0.0
 20
0.0
 30
0.0
 70
128
 71
151
 72
95
 73
149
 0
VERTEX
 8
0
 10
0.0
 20
0.0
 30
0.0
 70
128
 71
96
 72
98
 73
152
 0
VERTEX
 8
0
 10
0.0
 20
0.0
 30
0.0
 70
128
 71
96
 72
152
 73
150
 0
VERTEX
 8
0
 10
0.0
 20
0.0
 30
0.0
 70
128
 71
153
 72
99
 73
97
 0
VERTEX
 8
0
 10
0.0
 20
0.0
 30
0.0
 70
128
 71
153
 72
97
 73
151
 0
VERTEX
 8
0
 10
0.0
 20
0.0
 30
0.0
 70
128
 71
98
 72
100
 73
154
 0
VERTEX
 8
0
 10
0.0
 20
0.0
 30
0.0
 70
128
 71
98
 72
154
 73
152
 0
VERTEX
 8
0
 10
0.0
 20
0.0
 30
0.0
 70
128
 71
155
 72
101
 73
99
 0
VERTEX
 8
0
 10
0.0
 20
0.0
 30
0.0
 70
128
 71
155
 72
99
 73
153
 0
VERTEX
 8
0
 10
0.0
 20
0.0
 30
0.0
 70
128
 71
100
 72
102
 73
156
 0
VERTEX
 8
0
 10
0.0
 20
0.0
 30
0.0
 70
128
 71
100
 72
156
 73
154
 0
VERTEX
 8
0
 10
0.0
 20
0.0
 30
0.0
 70
128
 71
157
 72
103
 73
101
 0
VERTEX
 8
0
 10
0.0
 20
0.0
 30
0.0
 70
128
 71
157
 72
101
 73
155
 0
VERTEX
 8
0
 10
0.0
 20
0.0
 30
0.0
 70
128
 71
102
 72
104
 73
158
 0
VERTEX
 8
0
 10
0.0
 20
0.0
 30
0.0
 70
128
 71
102
 72
158
 73
156
 0
VERTEX
 8
0
 10
0.0
 20
0.0
 30
0.0
 70
128
 71
159
 72
105
 73
103
 0
VERTEX
 8
0
 10
0.0
 20
0.0
 30
0.0
 70
128
 71
159
 72
103
 73
157
 0
VERTEX
 8
0
 10
0.0
 20
0.0
 30
0.0
 70
128
 71
104
 72
106
 73
160
 0
VERTEX
 8
0
 10
0.0
 20
0.0
 30
0.0
 70
128
 71
104
 72
160
 73
158
 0
VERTEX
 8
0
 10
0.0
 20
0.0
 30
0.0
 70
128
 71
161
 72
107
 73
105
 0
VERTEX
 8
0
 10
0.0
 20
0.0
 30
0.0
 70
128
 71
161
 72
105
 73
159
 0
VERTEX
 8
0
 10
0.0
 20
0.0
 30
0.0
 70
128
 71
106
 72
108
 73
162
 0
VERTEX
 8
0
 10
0.0
 20
0.0
 30
0.0
 70
128
 71
106
 72
162
 73
160
 0
VERTEX
 8
0
 10
0.0
 20
0.0
 30
0.0
 70
128
 71
163
 72
109
 73
107
 0
VERTEX
 8
0
 10
0.0
 20
0.0
 30
0.0
 70
128
 71
163
 72
107
 73
161
 0
VERTEX
 8
0
 10
0.0
 20
0.0
 30
0.0
 70
128
 71
108
 72
67
 73
68
 0
VERTEX
 8
0
 10
0.0
 20
0.0
 30
0.0
 70
128
 71
108
 72
68
 73
162
 0
VERTEX
 8
0
 10
0.0
 20
0.0
 30
0.0
 70
128
 71
68
 72
67
 73
109
 0
VERTEX
 8
0
 10
0.0
 20
0.0
 30
0.0
 70
128
 71
68
 72
109
 73
163
 0
VERTEX
 8
0
 10
0.0
 20
0.0
 30
0.0
 70
128
 71
110
 72
128
 73
160
 0
VERTEX
 8
0
 10
0.0
 20
0.0
 30
0.0
 70
128
 71
110
 72
160
 73
162
 0
VERTEX
 8
0
 10
0.0
 20
0.0
 30
0.0
 70
128
 71
161
 72
129
 73
111
 0
VERTEX
 8
0
 10
0.0
 20
0.0
 30
0.0
 70
128
 71
161
 72
111
 73
163
 0
VERTEX
 8
0
 10
0.0
 20
0.0
 30
0.0
 70
128
 71
128
 72
179
 73
158
 0
VERTEX
 8
0
 10
0.0
 20
0.0
 30
0.0
 70
128
 71
128
 72
158
 73
160
 0
VERTEX
 8
0
 10
0.0
 20
0.0
 30
0.0
 70
128
 71
159
 72
180
 73
129
 0
VERTEX
 8
0
 10
0.0
 20
0.0
 30
0.0
 70
128
 71
159
 72
129
 73
161
 0
VERTEX
 8
0
 10
0.0
 20
0.0
 30
0.0
 70
128
 71
126
 72
156
 73
158
 0
VERTEX
 8
0
 10
0.0
 20
0.0
 30
0.0
 70
128
 71
126
 72
158
 73
179
 0
VERTEX
 8
0
 10
0.0
 20
0.0
 30
0.0
 70
128
 71
159
 72
157
 73
127
 0
VERTEX
 8
0
 10
0.0
 20
0.0
 30
0.0
 70
128
 71
159
 72
127
 73
180
 0
VERTEX
 8
0
 10
0.0
 20
0.0
 30
0.0
 70
128
 71
124
 72
154
 73
156
 0
VERTEX
 8
0
 10
0.0
 20
0.0
 30
0.0
 70
128
 71
124
 72
156
 73
126
 0
VERTEX
 8
0
 10
0.0
 20
0.0
 30
0.0
 70
128
 71
157
 72
155
 73
125
 0
VERTEX
 8
0
 10
0.0
 20
0.0
 30
0.0
 70
128
 71
157
 72
125
 73
127
 0
VERTEX
 8
0
 10
0.0
 20
0.0
 30
0.0
 70
128
 71
122
 72
152
 73
154
 0
VERTEX
 8
0
 10
0.0
 20
0.0
 30
0.0
 70
128
 71
122
 72
154
 73
124
 0
VERTEX
 8
0
 10
0.0
 20
0.0
 30
0.0
 70
128
 71
155
 72
153
 73
123
 0
VERTEX
 8
0
 10
0.0
 20
0.0
 30
0.0
 70
128
 71
155
 72
123
 73
125
 0
VERTEX
 8
0
 10
0.0
 20
0.0
 30
0.0
 70
128
 71
120
 72
150
 73
152
 0
VERTEX
 8
0
 10
0.0
 20
0.0
 30
0.0
 70
128
 71
120
 72
152
 73
122
 0
VERTEX
 8
0
 10
0.0
 20
0.0
 30
0.0
 70
128
 71
153
 72
151
 73
121
 0
VERTEX
 8
0
 10
0.0
 20
0.0
 30
0.0
 70
128
 71
153
 72
121
 73
123
 0
VERTEX
 8
0
 10
0.0
 20
0.0
 30
0.0
 70
128
 71
118
 72
148
 73
150
 0
VERTEX
 8
0
 10
0.0
 20
0.0
 30
0.0
 70
128
 71
118
 72
150
 73
120
 0
VERTEX
 8
0
 10
0.0
 20
0.0
 30
0.0
 70
128
 71
151
 72
149
 73
119
 0
VERTEX
 8
0
 10
0.0
 20
0.0
 30
0.0
 70
128
 71
151
 72
119
 73
121
 0
VERTEX
 8
0
 10
0.0
 20
0.0
 30
0.0
 70
128
 71
116
 72
146
 73
148
 0
VERTEX
 8
0
 10
0.0
 20
0.0
 30
0.0
 70
128
 71
116
 72
148
 73
118
 0
VERTEX
 8
0
 10
0.0
 20
0.0
 30
0.0
 70
128
 71
149
 72
147
 73
117
 0
VERTEX
 8
0
 10
0.0
 20
0.0
 30
0.0
 70
128
 71
149
 72
117
 73
119
 0
VERTEX
 8
0
 10
0.0
 20
0.0
 30
0.0
 70
128
 71
114
 72
164
 73
146
 0
VERTEX
 8
0
 10
0.0
 20
0.0
 30
0.0
 70
128
 71
114
 72
146
 73
116
 0
VERTEX
 8
0
 10
0.0
 20
0.0
 30
0.0
 70
128
 71
147
 72
165
 73
115
 0
VERTEX
 8
0
 10
0.0
 20
0.0
 30
0.0
 70
128
 71
147
 72
115
 73
117
 0
VERTEX
 8
0
 10
0.0
 20
0.0
 30
0.0
 70
128
 71
114
 72
181
 73
177
 0
VERTEX
 8
0
 10
0.0
 20
0.0
 30
0.0
 70
128
 71
114
 72
177
 73
164
 0
VERTEX
 8
0
 10
0.0
 20
0.0
 30
0.0
 70
128
 71
177
 72
182
 73
115
 0
VERTEX
 8
0
 10
0.0
 20
0.0
 30
0.0
 70
128
 71
177
 72
115
 73
165
 0
VERTEX
 8
0
 10
0.0
 20
0.0
 30
0.0
 70
128
 71
110
 72
162
 73
68
 0
VERTEX
 8
0
 10
0.0
 20
0.0
 30
0.0
 70
128
 71
110
 72
68
 73
112
 0
VERTEX
 8
0
 10
0.0
 20
0.0
 30
0.0
 70
128
 71
68
 72
163
 73
111
 0
VERTEX
 8
0
 10
0.0
 20
0.0
 30
0.0
 70
128
 71
68
 72
111
 73
113
 0
VERTEX
 8
0
 10
0.0
 20
0.0
 30
0.0
 70
128
 71
112
 72
68
 73
178
 0
VERTEX
 8
0
 10
0.0
 20
0.0
 30
0.0
 70
128
 71
112
 72
178
 73
183
 0
VERTEX
 8
0
 10
0.0
 20
0.0
 30
0.0
 70
128
 71
178
 72
68
 73
113
 0
VERTEX
 8
0
 10
0.0
 20
0.0
 30
0.0
 70
128
 71
178
 72
113
 73
184
 0
VERTEX
 8
0
 10
0.0
 20
0.0
 30
0.0
 70
128
 71
177
 72
181
 73
183
 0
VERTEX
 8
0
 10
0.0
 20
0.0
 30
0.0
 70
128
 71
177
 72
183
 73
178
 0
VERTEX
 8
0
 10
0.0
 20
0.0
 30
0.0
 70
128
 71
184
 72
182
 73
177
 0
VERTEX
 8
0
 10
0.0
 20
0.0
 30
0.0
 70
128
 71
184
 72
177
 73
178
 0
VERTEX
 8
0
 10
0.0
 20
0.0
 30
0.0
 70
128
 71
135
 72
137
 73
176
 0
VERTEX
 8
0
 10
0.0
 20
0.0
 30
0.0
 70
128
 71
135
 72
176
 73
174
 0
VERTEX
 8
0
 10
0.0
 20
0.0
 30
0.0
 70
128
 71
176
 72
137
 73
136
 0
VERTEX
 8
0
 10
0.0
 20
0.0
 30
0.0
 70
128
 71
176
 72
136
 73
175
 0
VERTEX
 8
0
 10
0.0
 20
0.0
 30
0.0
 70
128
 71
133
 72
135
 73
174
 0
VERTEX
 8
0
 10
0.0
 20
0.0
 30
0.0
 70
128
 71
133
 72
174
 73
172
 0
VERTEX
 8
0
 10
0.0
 20
0.0
 30
0.0
 70
128
 71
175
 72
136
 73
134
 0
VERTEX
 8
0
 10
0.0
 20
0.0
 30
0.0
 70
128
 71
175
 72
134
 73
173
 0
VERTEX
 8
0
 10
0.0
 20
0.0
 30
0.0
 70
128
 71
131
 72
133
 73
172
 0
VERTEX
 8
0
 10
0.0
 20
0.0
 30
0.0
 70
128
 71
131
 72
172
 73
170
 0
VERTEX
 8
0
 10
0.0
 20
0.0
 30
0.0
 70
128
 71
173
 72
134
 73
132
 0
VERTEX
 8
0
 10
0.0
 20
0.0
 30
0.0
 70
128
 71
173
 72
132
 73
171
 0
VERTEX
 8
0
 10
0.0
 20
0.0
 30
0.0
 70
128
 71
166
 72
187
 73
185
 0
VERTEX
 8
0
 10
0.0
 20
0.0
 30
0.0
 70
128
 71
166
 72
185
 73
168
 0
VERTEX
 8
0
 10
0.0
 20
0.0
 30
0.0
 70
128
 71
186
 72
188
 73
167
 0
VERTEX
 8
0
 10
0.0
 20
0.0
 30
0.0
 70
128
 71
186
 72
167
 73
169
 0
VERTEX
 8
0
 10
0.0
 20
0.0
 30
0.0
 70
128
 71
131
 72
170
 73
168
 0
VERTEX
 8
0
 10
0.0
 20
0.0
 30
0.0
 70
128
 71
131
 72
168
 73
185
 0
VERTEX
 8
0
 10
0.0
 20
0.0
 30
0.0
 70
128
 71
169
 72
171
 73
132
 0
VERTEX
 8
0
 10
0.0
 20
0.0
 30
0.0
 70
128
 71
169
 72
132
 73
186
 0
VERTEX
 8
0
 10
0.0
 20
0.0
 30
0.0
 70
128
 71
144
 72
190
 73
189
 0
VERTEX
 8
0
 10
0.0
 20
0.0
 30
0.0
 70
128
 71
144
 72
189
 73
187
 0
VERTEX
 8
0
 10
0.0
 20
0.0
 30
0.0
 70
128
 71
189
 72
190
 73
145
 0
VERTEX
 8
0
 10
0.0
 20
0.0
 30
0.0
 70
128
 71
189
 72
145
 73
188
 0
VERTEX
 8
0
 10
0.0
 20
0.0
 30
0.0
 70
128
 71
185
 72
187
 73
189
 0
VERTEX
 8
0
 10
0.0
 20
0.0
 30
0.0
 70
128
 71
185
 72
189
 73
69
 0
VERTEX
 8
0
 10
0.0
 20
0.0
 30
0.0
 70
128
 71
189
 72
188
 73
186
 0
VERTEX
 8
0
 10
0.0
 20
0.0
 30
0.0
 70
128
 71
189
 72
186
 73
69
 0
VERTEX
 8
0
 10
0.0
 20
0.0
 30
0.0
 70
128
 71
130
 72
131
 73
185
 0
VERTEX
 8
0
 10
0.0
 20
0.0
 30
0.0
 70
128
 71
130
 72
185
 73
69
 0
VERTEX
 8
0
 10
0.0
 20
0.0
 30
0.0
 70
128
 71
186
 72
132
 73
130
 0
VERTEX
 8
0
 10
0.0
 20
0.0
 30
0.0
 70
128
 71
186
 72
130
 73
69
 0
VERTEX
 8
0
 10
0.0
 20
0.0
 30
0.0
 70
128
 71
142
 72
193
 73
191
 0
VERTEX
 8
0
 10
0.0
 20
0.0
 30
0.0
 70
128
 71
142
 72
191
 73
144
 0
VERTEX
 8
0
 10
0.0
 20
0.0
 30
0.0
 70
128
 71
192
 72
194
 73
143
 0
VERTEX
 8
0
 10
0.0
 20
0.0
 30
0.0
 70
128
 71
192
 72
143
 73
145
 0
VERTEX
 8
0
 10
0.0
 20
0.0
 30
0.0
 70
128
 71
140
 72
195
 73
193
 0
VERTEX
 8
0
 10
0.0
 20
0.0
 30
0.0
 70
128
 71
140
 72
193
 73
142
 0
VERTEX
 8
0
 10
0.0
 20
0.0
 30
0.0
 70
128
 71
194
 72
196
 73
141
 0
VERTEX
 8
0
 10
0.0
 20
0.0
 30
0.0
 70
128
 71
194
 72
141
 73
143
 0
VERTEX
 8
0
 10
0.0
 20
0.0
 30
0.0
 70
128
 71
139
 72
197
 73
195
 0
VERTEX
 8
0
 10
0.0
 20
0.0
 30
0.0
 70
128
 71
139
 72
195
 73
140
 0
VERTEX
 8
0
 10
0.0
 20
0.0
 30
0.0
 70
128
 71
196
 72
198
 73
139
 0
VERTEX
 8
0
 10
0.0
 20
0.0
 30
0.0
 70
128
 71
196
 72
139
 73
141
 0
VERTEX
 8
0
 10
0.0
 20
0.0
 30
0.0
 70
128
 71
138
 72
71
 73
197
 0
VERTEX
 8
0
 10
0.0
 20
0.0
 30
0.0
 70
128
 71
138
 72
197
 73
139
 0
VERTEX
 8
0
 10
0.0
 20
0.0
 30
0.0
 70
128
 71
198
 72
71
 73
138
 0
VERTEX
 8
0
 10
0.0
 20
0.0
 30
0.0
 70
128
 71
198
 72
138
 73
139
 0
VERTEX
 8
0
 10
0.0
 20
0.0
 30
0.0
 70
128
 71
190
 72
144
 73
191
 0
VERTEX
 8
0
 10
0.0
 20
0.0
 30
0.0
 70
128
 71
190
 72
191
 73
70
 0
VERTEX
 8
0
 10
0.0
 20
0.0
 30
0.0
 70
128
 71
192
 72
145
 73
190
 0
VERTEX
 8
0
 10
0.0
 20
0.0
 30
0.0
 70
128
 71
192
 72
190
 73
70
 0
VERTEX
 8
0
 10
0.0
 20
0.0
 30
0.0
 70
128
 71
70
 72
191
 73
206
 0
VERTEX
 8
0
 10
0.0
 20
0.0
 30
0.0
 70
128
 71
70
 72
206
 73
208
 0
VERTEX
 8
0
 10
0.0
 20
0.0
 30
0.0
 70
128
 71
207
 72
192
 73
70
 0
VERTEX
 8
0
 10
0.0
 20
0.0
 30
0.0
 70
128
 71
207
 72
70
 73
208
 0
VERTEX
 8
0
 10
0.0
 20
0.0
 30
0.0
 70
128
 71
71
 72
199
 73
200
 0
VERTEX
 8
0
 10
0.0
 20
0.0
 30
0.0
 70
128
 71
71
 72
200
 73
197
 0
VERTEX
 8
0
 10
0.0
 20
0.0
 30
0.0
 70
128
 71
201
 72
199
 73
71
 0
VERTEX
 8
0
 10
0.0
 20
0.0
 30
0.0
 70
128
 71
201
 72
71
 73
198
 0
VERTEX
 8
0
 10
0.0
 20
0.0
 30
0.0
 70
128
 71
197
 72
200
 73
202
 0
VERTEX
 8
0
 10
0.0
 20
0.0
 30
0.0
 70
128
 71
197
 72
202
 73
195
 0
VERTEX
 8
0
 10
0.0
 20
0.0
 30
0.0
 70
128
 71
203
 72
201
 73
198
 0
VERTEX
 8
0
 10
0.0
 20
0.0
 30
0.0
 70
128
 71
203
 72
198
 73
196
 0
VERTEX
 8
0
 10
0.0
 20
0.0
 30
0.0
 70
128
 71
195
 72
202
 73
204
 0
VERTEX
 8
0
 10
0.0
 20
0.0
 30
0.0
 70
128
 71
195
 72
204
 73
193
 0
VERTEX
 8
0
 10
0.0
 20
0.0
 30
0.0
 70
128
 71
205
 72
203
 73
196
 0
VERTEX
 8
0
 10
0.0
 20
0.0
 30
0.0
 70
128
 71
205
 72
196
 73
194
 0
VERTEX
 8
0
 10
0.0
 20
0.0
 30
0.0
 70
128
 71
193
 72
204
 73
206
 0
VERTEX
 8
0
 10
0.0
 20
0.0
 30
0.0
 70
128
 71
193
 72
206
 73
191
 0
VERTEX
 8
0
 10
0.0
 20
0.0
 30
0.0
 70
128
 71
207
 72
205
 73
194
 0
VERTEX
 8
0
 10
0.0
 20
0.0
 30
0.0
 70
128
 71
207
 72
194
 73
192
 0
VERTEX
 8
0
 10
0.0
 20
0.0
 30
0.0
 70
128
 71
199
 72
204
 73
202
 0
VERTEX
 8
0
 10
0.0
 20
0.0
 30
0.0
 70
128
 71
199
 72
202
 73
200
 0
VERTEX
 8
0
 10
0.0
 20
0.0
 30
0.0
 70
128
 71
203
 72
205
 73
199
 0
VERTEX
 8
0
 10
0.0
 20
0.0
 30
0.0
 70
128
 71
203
 72
199
 73
201
 0
VERTEX
 8
0
 10
0.0
 20
0.0
 30
0.0
 70
128
 71
199
 72
208
 73
206
 0
VERTEX
 8
0
 10
0.0
 20
0.0
 30
0.0
 70
128
 71
199
 72
206
 73
204
 0
VERTEX
 8
0
 10
0.0
 20
0.0
 30
0.0
 70
128
 71
207
 72
208
 73
199
 0
VERTEX
 8
0
 10
0.0
 20
0.0
 30
0.0
 70
128
 71
207
 72
199
 73
205
 0
VERTEX
 8
0
 10
0.0
 20
0.0
 30
0.0
 70
128
 71
139
 72
140
 73
164
 0
VERTEX
 8
0
 10
0.0
 20
0.0
 30
0.0
 70
128
 71
139
 72
164
 73
177
 0
VERTEX
 8
0
 10
0.0
 20
0.0
 30
0.0
 70
128
 71
165
 72
141
 73
139
 0
VERTEX
 8
0
 10
0.0
 20
0.0
 30
0.0
 70
128
 71
165
 72
139
 73
177
 0
VERTEX
 8
0
 10
0.0
 20
0.0
 30
0.0
 70
128
 71
140
 72
142
 73
164
 0
VERTEX
 8
0
 10
0.0
 20
0.0
 30
0.0
 70
128
 71
142
 72
211
 73
164
 0
VERTEX
 8
0
 10
0.0
 20
0.0
 30
0.0
 70
128
 71
212
 72
143
 73
165
 0
VERTEX
 8
0
 10
0.0
 20
0.0
 30
0.0
 70
128
 71
143
 72
141
 73
165
 0
VERTEX
 8
0
 10
0.0
 20
0.0
 30
0.0
 70
128
 71
142
 72
144
 73
213
 0
VERTEX
 8
0
 10
0.0
 20
0.0
 30
0.0
 70
128
 71
142
 72
213
 73
211
 0
VERTEX
 8
0
 10
0.0
 20
0.0
 30
0.0
 70
128
 71
214
 72
145
 73
143
 0
VERTEX
 8
0
 10
0.0
 20
0.0
 30
0.0
 70
128
 71
214
 72
143
 73
212
 0
VERTEX
 8
0
 10
0.0
 20
0.0
 30
0.0
 70
128
 71
144
 72
187
 73
166
 0
VERTEX
 8
0
 10
0.0
 20
0.0
 30
0.0
 70
128
 71
144
 72
166
 73
213
 0
VERTEX
 8
0
 10
0.0
 20
0.0
 30
0.0
 70
128
 71
167
 72
188
 73
145
 0
VERTEX
 8
0
 10
0.0
 20
0.0
 30
0.0
 70
128
 71
167
 72
145
 73
214
 0
VERTEX
 8
0
 10
0.0
 20
0.0
 30
0.0
 70
128
 71
81
 72
209
 73
213
 0
VERTEX
 8
0
 10
0.0
 20
0.0
 30
0.0
 70
128
 71
81
 72
213
 73
166
 0
VERTEX
 8
0
 10
0.0
 20
0.0
 30
0.0
 70
128
 71
214
 72
210
 73
82
 0
VERTEX
 8
0
 10
0.0
 20
0.0
 30
0.0
 70
128
 71
214
 72
82
 73
167
 0
VERTEX
 8
0
 10
0.0
 20
0.0
 30
0.0
 70
128
 71
209
 72
215
 73
211
 0
VERTEX
 8
0
 10
0.0
 20
0.0
 30
0.0
 70
128
 71
209
 72
211
 73
213
 0
VERTEX
 8
0
 10
0.0
 20
0.0
 30
0.0
 70
128
 71
212
 72
216
 73
210
 0
VERTEX
 8
0
 10
0.0
 20
0.0
 30
0.0
 70
128
 71
212
 72
210
 73
214
 0
VERTEX
 8
0
 10
0.0
 20
0.0
 30
0.0
 70
128
 71
79
 72
164
 73
211
 0
VERTEX
 8
0
 10
0.0
 20
0.0
 30
0.0
 70
128
 71
79
 72
211
 73
215
 0
VERTEX
 8
0
 10
0.0
 20
0.0
 30
0.0
 70
128
 71
212
 72
165
 73
80
 0
VERTEX
 8
0
 10
0.0
 20
0.0
 30
0.0
 70
128
 71
212
 72
80
 73
216
 0
VERTEX
 8
0
 10
0.0
 20
0.0
 30
0.0
 70
128
 71
131
 72
130
 73
72
 0
VERTEX
 8
0
 10
0.0
 20
0.0
 30
0.0
 70
128
 71
131
 72
72
 73
222
 0
VERTEX
 8
0
 10
0.0
 20
0.0
 30
0.0
 70
128
 71
72
 72
130
 73
132
 0
VERTEX
 8
0
 10
0.0
 20
0.0
 30
0.0
 70
128
 71
72
 72
132
 73
223
 0
VERTEX
 8
0
 10
0.0
 20
0.0
 30
0.0
 70
128
 71
133
 72
131
 73
222
 0
VERTEX
 8
0
 10
0.0
 20
0.0
 30
0.0
 70
128
 71
133
 72
222
 73
220
 0
VERTEX
 8
0
 10
0.0
 20
0.0
 30
0.0
 70
128
 71
223
 72
132
 73
134
 0
VERTEX
 8
0
 10
0.0
 20
0.0
 30
0.0
 70
128
 71
223
 72
134
 73
221
 0
VERTEX
 8
0
 10
0.0
 20
0.0
 30
0.0
 70
128
 71
135
 72
133
 73
220
 0
VERTEX
 8
0
 10
0.0
 20
0.0
 30
0.0
 70
128
 71
135
 72
220
 73
218
 0
VERTEX
 8
0
 10
0.0
 20
0.0
 30
0.0
 70
128
 71
221
 72
134
 73
136
 0
VERTEX
 8
0
 10
0.0
 20
0.0
 30
0.0
 70
128
 71
221
 72
136
 73
219
 0
VERTEX
 8
0
 10
0.0
 20
0.0
 30
0.0
 70
128
 71
137
 72
135
 73
218
 0
VERTEX
 8
0
 10
0.0
 20
0.0
 30
0.0
 70
128
 71
137
 72
218
 73
217
 0
VERTEX
 8
0
 10
0.0
 20
0.0
 30
0.0
 70
128
 71
219
 72
136
 73
137
 0
VERTEX
 8
0
 10
0.0
 20
0.0
 30
0.0
 70
128
 71
219
 72
137
 73
217
 0
VERTEX
 8
0
 10
0.0
 20
0.0
 30
0.0
 70
128
 71
217
 72
218
 73
229
 0
VERTEX
 8
0
 10
0.0
 20
0.0
 30
0.0
 70
128
 71
217
 72
229
 73
231
 0
VERTEX
 8
0
 10
0.0
 20
0.0
 30
0.0
 70
128
 71
230
 72
219
 73
217
 0
VERTEX
 8
0
 10
0.0
 20
0.0
 30
0.0
 70
128
 71
230
 72
217
 73
231
 0
VERTEX
 8
0
 10
0.0
 20
0.0
 30
0.0
 70
128
 71
218
 72
220
 73
227
 0
VERTEX
 8
0
 10
0.0
 20
0.0
 30
0.0
 70
128
 71
218
 72
227
 73
229
 0
VERTEX
 8
0
 10
0.0
 20
0.0
 30
0.0
 70
128
 71
228
 72
221
 73
219
 0
VERTEX
 8
0
 10
0.0
 20
0.0
 30
0.0
 70
128
 71
228
 72
219
 73
230
 0
VERTEX
 8
0
 10
0.0
 20
0.0
 30
0.0
 70
128
 71
220
 72
222
 73
225
 0
VERTEX
 8
0
 10
0.0
 20
0.0
 30
0.0
 70
128
 71
220
 72
225
 73
227
 0
VERTEX
 8
0
 10
0.0
 20
0.0
 30
0.0
 70
128
 71
226
 72
223
 73
221
 0
VERTEX
 8
0
 10
0.0
 20
0.0
 30
0.0
 70
128
 71
226
 72
221
 73
228
 0
VERTEX
 8
0
 10
0.0
 20
0.0
 30
0.0
 70
128
 71
222
 72
72
 73
224
 0
VERTEX
 8
0
 10
0.0
 20
0.0
 30
0.0
 70
128
 71
222
 72
224
 73
225
 0
VERTEX
 8
0
 10
0.0
 20
0.0
 30
0.0
 70
128
 71
224
 72
72
 73
223
 0
VERTEX
 8
0
 10
0.0
 20
0.0
 30
0.0
 70
128
 71
224
 72
223
 73
226
 0
VERTEX
 8
0
 10
0.0
 20
0.0
 30
0.0
 70
128
 71
224
 72
231
 73
229
 0
VERTEX
 8
0
 10
0.0
 20
0.0
 30
0.0
 70
128
 71
224
 72
229
 73
225
 0
VERTEX
 8
0
 10
0.0
 20
0.0
 30
0.0
 70
128
 71
230
 72
231
 73
224
 0
VERTEX
 8
0
 10
0.0
 20
0.0
 30
0.0
 70
128
 71
230
 72
224
 73
226
 0
VERTEX
 8
0
 10
0.0
 20
0.0
 30
0.0
 70
128
 71
225
 72
229
 73
227
 0
VERTEX
 8
0
 10
0.0
 20
0.0
 30
0.0
 70
128
 71
228
 72
230
 73
226
 0
VERTEX
 8
0
 10
0.0
 20
0.0
 30
0.0
 70
128
 71
183
 72
181
 73
234
 0
VERTEX
 8
0
 10
0.0
 20
0.0
 30
0.0
 70
128
 71
183
 72
234
 73
232
 0
VERTEX
 8
0
 10
0.0
 20
0.0
 30
0.0
 70
128
 71
235
 72
182
 73
184
 0
VERTEX
 8
0
 10
0.0
 20
0.0
 30
0.0
 70
128
 71
235
 72
184
 73
233
 0
VERTEX
 8
0
 10
0.0
 20
0.0
 30
0.0
 70
128
 71
112
 72
183
 73
232
 0
VERTEX
 8
0
 10
0.0
 20
0.0
 30
0.0
 70
128
 71
112
 72
232
 73
254
 0
VERTEX
 8
0
 10
0.0
 20
0.0
 30
0.0
 70
128
 71
233
 72
184
 73
113
 0
VERTEX
 8
0
 10
0.0
 20
0.0
 30
0.0
 70
128
 71
233
 72
113
 73
255
 0
VERTEX
 8
0
 10
0.0
 20
0.0
 30
0.0
 70
128
 71
110
 72
112
 73
254
 0
VERTEX
 8
0
 10
0.0
 20
0.0
 30
0.0
 70
128
 71
110
 72
254
 73
256
 0
VERTEX
 8
0
 10
0.0
 20
0.0
 30
0.0
 70
128
 71
255
 72
113
 73
111
 0
VERTEX
 8
0
 10
0.0
 20
0.0
 30
0.0
 70
128
 71
255
 72
111
 73
257
 0
VERTEX
 8
0
 10
0.0
 20
0.0
 30
0.0
 70
128
 71
181
 72
114
 73
252
 0
VERTEX
 8
0
 10
0.0
 20
0.0
 30
0.0
 70
128
 71
181
 72
252
 73
234
 0
VERTEX
 8
0
 10
0.0
 20
0.0
 30
0.0
 70
128
 71
253
 72
115
 73
182
 0
VERTEX
 8
0
 10
0.0
 20
0.0
 30
0.0
 70
128
 71
253
 72
182
 73
235
 0
VERTEX
 8
0
 10
0.0
 20
0.0
 30
0.0
 70
128
 71
114
 72
116
 73
250
 0
VERTEX
 8
0
 10
0.0
 20
0.0
 30
0.0
 70
128
 71
114
 72
250
 73
252
 0
VERTEX
 8
0
 10
0.0
 20
0.0
 30
0.0
 70
128
 71
251
 72
117
 73
115
 0
VERTEX
 8
0
 10
0.0
 20
0.0
 30
0.0
 70
128
 71
251
 72
115
 73
253
 0
VERTEX
 8
0
 10
0.0
 20
0.0
 30
0.0
 70
128
 71
116
 72
118
 73
248
 0
VERTEX
 8
0
 10
0.0
 20
0.0
 30
0.0
 70
128
 71
116
 72
248
 73
250
 0
VERTEX
 8
0
 10
0.0
 20
0.0
 30
0.0
 70
128
 71
249
 72
119
 73
117
 0
VERTEX
 8
0
 10
0.0
 20
0.0
 30
0.0
 70
128
 71
249
 72
117
 73
251
 0
VERTEX
 8
0
 10
0.0
 20
0.0
 30
0.0
 70
128
 71
118
 72
120
 73
246
 0
VERTEX
 8
0
 10
0.0
 20
0.0
 30
0.0
 70
128
 71
118
 72
246
 73
248
 0
VERTEX
 8
0
 10
0.0
 20
0.0
 30
0.0
 70
128
 71
247
 72
121
 73
119
 0
VERTEX
 8
0
 10
0.0
 20
0.0
 30
0.0
 70
128
 71
247
 72
119
 73
249
 0
VERTEX
 8
0
 10
0.0
 20
0.0
 30
0.0
 70
128
 71
120
 72
122
 73
244
 0
VERTEX
 8
0
 10
0.0
 20
0.0
 30
0.0
 70
128
 71
120
 72
244
 73
246
 0
VERTEX
 8
0
 10
0.0
 20
0.0
 30
0.0
 70
128
 71
245
 72
123
 73
121
 0
VERTEX
 8
0
 10
0.0
 20
0.0
 30
0.0
 70
128
 71
245
 72
121
 73
247
 0
VERTEX
 8
0
 10
0.0
 20
0.0
 30
0.0
 70
128
 71
122
 72
124
 73
242
 0
VERTEX
 8
0
 10
0.0
 20
0.0
 30
0.0
 70
128
 71
122
 72
242
 73
244
 0
VERTEX
 8
0
 10
0.0
 20
0.0
 30
0.0
 70
128
 71
243
 72
125
 73
123
 0
VERTEX
 8
0
 10
0.0
 20
0.0
 30
0.0
 70
128
 71
243
 72
123
 73
245
 0
VERTEX
 8
0
 10
0.0
 20
0.0
 30
0.0
 70
128
 71
124
 72
126
 73
240
 0
VERTEX
 8
0
 10
0.0
 20
0.0
 30
0.0
 70
128
 71
124
 72
240
 73
242
 0
VERTEX
 8
0
 10
0.0
 20
0.0
 30
0.0
 70
128
 71
241
 72
127
 73
125
 0
VERTEX
 8
0
 10
0.0
 20
0.0
 30
0.0
 70
128
 71
241
 72
125
 73
243
 0
VERTEX
 8
0
 10
0.0
 20
0.0
 30
0.0
 70
128
 71
126
 72
179
 73
236
 0
VERTEX
 8
0
 10
0.0
 20
0.0
 30
0.0
 70
128
 71
126
 72
236
 73
240
 0
VERTEX
 8
0
 10
0.0
 20
0.0
 30
0.0
 70
128
 71
237
 72
180
 73
127
 0
VERTEX
 8
0
 10
0.0
 20
0.0
 30
0.0
 70
128
 71
237
 72
127
 73
241
 0
VERTEX
 8
0
 10
0.0
 20
0.0
 30
0.0
 70
128
 71
179
 72
128
 73
238
 0
VERTEX
 8
0
 10
0.0
 20
0.0
 30
0.0
 70
128
 71
179
 72
238
 73
236
 0
VERTEX
 8
0
 10
0.0
 20
0.0
 30
0.0
 70
128
 71
239
 72
129
 73
180
 0
VERTEX
 8
0
 10
0.0
 20
0.0
 30
0.0
 70
128
 71
239
 72
180
 73
237
 0
VERTEX
 8
0
 10
0.0
 20
0.0
 30
0.0
 70
128
 71
128
 72
110
 73
256
 0
VERTEX
 8
0
 10
0.0
 20
0.0
 30
0.0
 70
128
 71
128
 72
256
 73
238
 0
VERTEX
 8
0
 10
0.0
 20
0.0
 30
0.0
 70
128
 71
257
 72
111
 73
129
 0
VERTEX
 8
0
 10
0.0
 20
0.0
 30
0.0
 70
128
 71
257
 72
129
 73
239
 0
VERTEX
 8
0
 10
0.0
 20
0.0
 30
0.0
 70
128
 71
238
 72
256
 73
258
 0
VERTEX
 8
0
 10
0.0
 20
0.0
 30
0.0
 70
128
 71
238
 72
258
 73
276
 0
VERTEX
 8
0
 10
0.0
 20
0.0
 30
0.0
 70
128
 71
259
 72
257
 73
239
 0
VERTEX
 8
0
 10
0.0
 20
0.0
 30
0.0
 70
128
 71
259
 72
239
 73
277
 0
VERTEX
 8
0
 10
0.0
 20
0.0
 30
0.0
 70
128
 71
236
 72
238
 73
276
 0
VERTEX
 8
0
 10
0.0
 20
0.0
 30
0.0
 70
128
 71
236
 72
276
 73
278
 0
VERTEX
 8
0
 10
0.0
 20
0.0
 30
0.0
 70
128
 71
277
 72
239
 73
237
 0
VERTEX
 8
0
 10
0.0
 20
0.0
 30
0.0
 70
128
 71
277
 72
237
 73
279
 0
VERTEX
 8
0
 10
0.0
 20
0.0
 30
0.0
 70
128
 71
240
 72
236
 73
278
 0
VERTEX
 8
0
 10
0.0
 20
0.0
 30
0.0
 70
128
 71
240
 72
278
 73
274
 0
VERTEX
 8
0
 10
0.0
 20
0.0
 30
0.0
 70
128
 71
279
 72
237
 73
241
 0
VERTEX
 8
0
 10
0.0
 20
0.0
 30
0.0
 70
128
 71
279
 72
241
 73
275
 0
VERTEX
 8
0
 10
0.0
 20
0.0
 30
0.0
 70
128
 71
242
 72
240
 73
274
 0
VERTEX
 8
0
 10
0.0
 20
0.0
 30
0.0
 70
128
 71
242
 72
274
 73
272
 0
VERTEX
 8
0
 10
0.0
 20
0.0
 30
0.0
 70
128
 71
275
 72
241
 73
243
 0
VERTEX
 8
0
 10
0.0
 20
0.0
 30
0.0
 70
128
 71
275
 72
243
 73
273
 0
VERTEX
 8
0
 10
0.0
 20
0.0
 30
0.0
 70
128
 71
244
 72
242
 73
272
 0
VERTEX
 8
0
 10
0.0
 20
0.0
 30
0.0
 70
128
 71
244
 72
272
 73
270
 0
VERTEX
 8
0
 10
0.0
 20
0.0
 30
0.0
 70
128
 71
273
 72
243
 73
245
 0
VERTEX
 8
0
 10
0.0
 20
0.0
 30
0.0
 70
128
 71
273
 72
245
 73
271
 0
VERTEX
 8
0
 10
0.0
 20
0.0
 30
0.0
 70
128
 71
246
 72
244
 73
270
 0
VERTEX
 8
0
 10
0.0
 20
0.0
 30
0.0
 70
128
 71
246
 72
270
 73
268
 0
VERTEX
 8
0
 10
0.0
 20
0.0
 30
0.0
 70
128
 71
271
 72
245
 73
247
 0
VERTEX
 8
0
 10
0.0
 20
0.0
 30
0.0
 70
128
 71
271
 72
247
 73
269
 0
VERTEX
 8
0
 10
0.0
 20
0.0
 30
0.0
 70
128
 71
248
 72
246
 73
268
 0
VERTEX
 8
0
 10
0.0
 20
0.0
 30
0.0
 70
128
 71
248
 72
268
 73
266
 0
VERTEX
 8
0
 10
0.0
 20
0.0
 30
0.0
 70
128
 71
269
 72
247
 73
249
 0
VERTEX
 8
0
 10
0.0
 20
0.0
 30
0.0
 70
128
 71
269
 72
249
 73
267
 0
VERTEX
 8
0
 10
0.0
 20
0.0
 30
0.0
 70
128
 71
250
 72
248
 73
266
 0
VERTEX
 8
0
 10
0.0
 20
0.0
 30
0.0
 70
128
 71
250
 72
266
 73
264
 0
VERTEX
 8
0
 10
0.0
 20
0.0
 30
0.0
 70
128
 71
267
 72
249
 73
251
 0
VERTEX
 8
0
 10
0.0
 20
0.0
 30
0.0
 70
128
 71
267
 72
251
 73
265
 0
VERTEX
 8
0
 10
0.0
 20
0.0
 30
0.0
 70
128
 71
252
 72
250
 73
264
 0
VERTEX
 8
0
 10
0.0
 20
0.0
 30
0.0
 70
128
 71
252
 72
264
 73
262
 0
VERTEX
 8
0
 10
0.0
 20
0.0
 30
0.0
 70
128
 71
265
 72
251
 73
253
 0
VERTEX
 8
0
 10
0.0
 20
0.0
 30
0.0
 70
128
 71
265
 72
253
 73
263
 0
VERTEX
 8
0
 10
0.0
 20
0.0
 30
0.0
 70
128
 71
234
 72
252
 73
262
 0
VERTEX
 8
0
 10
0.0
 20
0.0
 30
0.0
 70
128
 71
234
 72
262
 73
280
 0
VERTEX
 8
0
 10
0.0
 20
0.0
 30
0.0
 70
128
 71
263
 72
253
 73
235
 0
VERTEX
 8
0
 10
0.0
 20
0.0
 30
0.0
 70
128
 71
263
 72
235
 73
281
 0
VERTEX
 8
0
 10
0.0
 20
0.0
 30
0.0
 70
128
 71
256
 72
254
 73
260
 0
VERTEX
 8
0
 10
0.0
 20
0.0
 30
0.0
 70
128
 71
256
 72
260
 73
258
 0
VERTEX
 8
0
 10
0.0
 20
0.0
 30
0.0
 70
128
 71
261
 72
255
 73
257
 0
VERTEX
 8
0
 10
0.0
 20
0.0
 30
0.0
 70
128
 71
261
 72
257
 73
259
 0
VERTEX
 8
0
 10
0.0
 20
0.0
 30
0.0
 70
128
 71
254
 72
232
 73
282
 0
VERTEX
 8
0
 10
0.0
 20
0.0
 30
0.0
 70
128
 71
254
 72
282
 73
260
 0
VERTEX
 8
0
 10
0.0
 20
0.0
 30
0.0
 70
128
 71
283
 72
233
 73
255
 0
VERTEX
 8
0
 10
0.0
 20
0.0
 30
0.0
 70
128
 71
283
 72
255
 73
261
 0
VERTEX
 8
0
 10
0.0
 20
0.0
 30
0.0
 70
128
 71
232
 72
234
 73
280
 0
VERTEX
 8
0
 10
0.0
 20
0.0
 30
0.0
 70
128
 71
232
 72
280
 73
282
 0
VERTEX
 8
0
 10
0.0
 20
0.0
 30
0.0
 70
128
 71
281
 72
235
 73
233
 0
VERTEX
 8
0
 10
0.0
 20
0.0
 30
0.0
 70
128
 71
281
 72
233
 73
283
 0
VERTEX
 8
0
 10
0.0
 20
0.0
 30
0.0
 70
128
 71
67
 72
108
 73
284
 0
VERTEX
 8
0
 10
0.0
 20
0.0
 30
0.0
 70
128
 71
67
 72
284
 73
73
 0
VERTEX
 8
0
 10
0.0
 20
0.0
 30
0.0
 70
128
 71
285
 72
109
 73
67
 0
VERTEX
 8
0
 10
0.0
 20
0.0
 30
0.0
 70
128
 71
285
 72
67
 73
73
 0
VERTEX
 8
0
 10
0.0
 20
0.0
 30
0.0
 70
128
 71
108
 72
106
 73
286
 0
VERTEX
 8
0
 10
0.0
 20
0.0
 30
0.0
 70
128
 71
108
 72
286
 73
284
 0
VERTEX
 8
0
 10
0.0
 20
0.0
 30
0.0
 70
128
 71
287
 72
107
 73
109
 0
VERTEX
 8
0
 10
0.0
 20
0.0
 30
0.0
 70
128
 71
287
 72
109
 73
285
 0
VERTEX
 8
0
 10
0.0
 20
0.0
 30
0.0
 70
128
 71
106
 72
104
 73
288
 0
VERTEX
 8
0
 10
0.0
 20
0.0
 30
0.0
 70
128
 71
106
 72
288
 73
286
 0
VERTEX
 8
0
 10
0.0
 20
0.0
 30
0.0
 70
128
 71
289
 72
105
 73
107
 0
VERTEX
 8
0
 10
0.0
 20
0.0
 30
0.0
 70
128
 71
289
 72
107
 73
287
 0
VERTEX
 8
0
 10
0.0
 20
0.0
 30
0.0
 70
128
 71
104
 72
102
 73
290
 0
VERTEX
 8
0
 10
0.0
 20
0.0
 30
0.0
 70
128
 71
104
 72
290
 73
288
 0
VERTEX
 8
0
 10
0.0
 20
0.0
 30
0.0
 70
128
 71
291
 72
103
 73
105
 0
VERTEX
 8
0
 10
0.0
 20
0.0
 30
0.0
 70
128
 71
291
 72
105
 73
289
 0
VERTEX
 8
0
 10
0.0
 20
0.0
 30
0.0
 70
128
 71
102
 72
100
 73
292
 0
VERTEX
 8
0
 10
0.0
 20
0.0
 30
0.0
 70
128
 71
102
 72
292
 73
290
 0
VERTEX
 8
0
 10
0.0
 20
0.0
 30
0.0
 70
128
 71
293
 72
101
 73
103
 0
VERTEX
 8
0
 10
0.0
 20
0.0
 30
0.0
 70
128
 71
293
 72
103
 73
291
 0
VERTEX
 8
0
 10
0.0
 20
0.0
 30
0.0
 70
128
 71
100
 72
98
 73
294
 0
VERTEX
 8
0
 10
0.0
 20
0.0
 30
0.0
 70
128
 71
100
 72
294
 73
292
 0
VERTEX
 8
0
 10
0.0
 20
0.0
 30
0.0
 70
128
 71
295
 72
99
 73
101
 0
VERTEX
 8
0
 10
0.0
 20
0.0
 30
0.0
 70
128
 71
295
 72
101
 73
293
 0
VERTEX
 8
0
 10
0.0
 20
0.0
 30
0.0
 70
128
 71
98
 72
96
 73
296
 0
VERTEX
 8
0
 10
0.0
 20
0.0
 30
0.0
 70
128
 71
98
 72
296
 73
294
 0
VERTEX
 8
0
 10
0.0
 20
0.0
 30
0.0
 70
128
 71
297
 72
97
 73
99
 0
VERTEX
 8
0
 10
0.0
 20
0.0
 30
0.0
 70
128
 71
297
 72
99
 73
295
 0
VERTEX
 8
0
 10
0.0
 20
0.0
 30
0.0
 70
128
 71
96
 72
94
 73
298
 0
VERTEX
 8
0
 10
0.0
 20
0.0
 30
0.0
 70
128
 71
96
 72
298
 73
296
 0
VERTEX
 8
0
 10
0.0
 20
0.0
 30
0.0
 70
128
 71
299
 72
95
 73
97
 0
VERTEX
 8
0
 10
0.0
 20
0.0
 30
0.0
 70
128
 71
299
 72
97
 73
297
 0
VERTEX
 8
0
 10
0.0
 20
0.0
 30
0.0
 70
128
 71
94
 72
92
 73
300
 0
VERTEX
 8
0
 10
0.0
 20
0.0
 30
0.0
 70
128
 71
94
 72
300
 73
298
 0
VERTEX
 8
0
 10
0.0
 20
0.0
 30
0.0
 70
128
 71
301
 72
93
 73
95
 0
VERTEX
 8
0
 10
0.0
 20
0.0
 30
0.0
 70
128
 71
301
 72
95
 73
299
 0
VERTEX
 8
0
 10
0.0
 20
0.0
 30
0.0
 70
128
 71
308
 72
309
 73
328
 0
VERTEX
 8
0
 10
0.0
 20
0.0
 30
0.0
 70
128
 71
308
 72
328
 73
338
 0
VERTEX
 8
0
 10
0.0
 20
0.0
 30
0.0
 70
128
 71
329
 72
309
 73
308
 0
VERTEX
 8
0
 10
0.0
 20
0.0
 30
0.0
 70
128
 71
329
 72
308
 73
339
 0
VERTEX
 8
0
 10
0.0
 20
0.0
 30
0.0
 70
128
 71
307
 72
308
 73
338
 0
VERTEX
 8
0
 10
0.0
 20
0.0
 30
0.0
 70
128
 71
307
 72
338
 73
336
 0
VERTEX
 8
0
 10
0.0
 20
0.0
 30
0.0
 70
128
 71
339
 72
308
 73
307
 0
VERTEX
 8
0
 10
0.0
 20
0.0
 30
0.0
 70
128
 71
339
 72
307
 73
337
 0
VERTEX
 8
0
 10
0.0
 20
0.0
 30
0.0
 70
128
 71
306
 72
307
 73
336
 0
VERTEX
 8
0
 10
0.0
 20
0.0
 30
0.0
 70
128
 71
306
 72
336
 73
340
 0
VERTEX
 8
0
 10
0.0
 20
0.0
 30
0.0
 70
128
 71
337
 72
307
 73
306
 0
VERTEX
 8
0
 10
0.0
 20
0.0
 30
0.0
 70
128
 71
337
 72
306
 73
341
 0
VERTEX
 8
0
 10
0.0
 20
0.0
 30
0.0
 70
128
 71
89
 72
91
 73
306
 0
VERTEX
 8
0
 10
0.0
 20
0.0
 30
0.0
 70
128
 71
89
 72
306
 73
340
 0
VERTEX
 8
0
 10
0.0
 20
0.0
 30
0.0
 70
128
 71
306
 72
91
 73
90
 0
VERTEX
 8
0
 10
0.0
 20
0.0
 30
0.0
 70
128
 71
306
 72
90
 73
341
 0
VERTEX
 8
0
 10
0.0
 20
0.0
 30
0.0
 70
128
 71
87
 72
89
 73
340
 0
VERTEX
 8
0
 10
0.0
 20
0.0
 30
0.0
 70
128
 71
87
 72
340
 73
334
 0
VERTEX
 8
0
 10
0.0
 20
0.0
 30
0.0
 70
128
 71
341
 72
90
 73
88
 0
VERTEX
 8
0
 10
0.0
 20
0.0
 30
0.0
 70
128
 71
341
 72
88
 73
335
 0
VERTEX
 8
0
 10
0.0
 20
0.0
 30
0.0
 70
128
 71
85
 72
87
 73
334
 0
VERTEX
 8
0
 10
0.0
 20
0.0
 30
0.0
 70
128
 71
85
 72
334
 73
330
 0
VERTEX
 8
0
 10
0.0
 20
0.0
 30
0.0
 70
128
 71
335
 72
88
 73
86
 0
VERTEX
 8
0
 10
0.0
 20
0.0
 30
0.0
 70
128
 71
335
 72
86
 73
331
 0
VERTEX
 8
0
 10
0.0
 20
0.0
 30
0.0
 70
128
 71
83
 72
85
 73
330
 0
VERTEX
 8
0
 10
0.0
 20
0.0
 30
0.0
 70
128
 71
83
 72
330
 73
332
 0
VERTEX
 8
0
 10
0.0
 20
0.0
 30
0.0
 70
128
 71
331
 72
86
 73
84
 0
VERTEX
 8
0
 10
0.0
 20
0.0
 30
0.0
 70
128
 71
331
 72
84
 73
333
 0
VERTEX
 8
0
 10
0.0
 20
0.0
 30
0.0
 70
128
 71
330
 72
336
 73
338
 0
VERTEX
 8
0
 10
0.0
 20
0.0
 30
0.0
 70
128
 71
330
 72
338
 73
332
 0
VERTEX
 8
0
 10
0.0
 20
0.0
 30
0.0
 70
128
 71
339
 72
337
 73
331
 0
VERTEX
 8
0
 10
0.0
 20
0.0
 30
0.0
 70
128
 71
339
 72
331
 73
333
 0
VERTEX
 8
0
 10
0.0
 20
0.0
 30
0.0
 70
128
 71
330
 72
334
 73
340
 0
VERTEX
 8
0
 10
0.0
 20
0.0
 30
0.0
 70
128
 71
330
 72
340
 73
336
 0
VERTEX
 8
0
 10
0.0
 20
0.0
 30
0.0
 70
128
 71
341
 72
335
 73
331
 0
VERTEX
 8
0
 10
0.0
 20
0.0
 30
0.0
 70
128
 71
341
 72
331
 73
337
 0
VERTEX
 8
0
 10
0.0
 20
0.0
 30
0.0
 70
128
 71
326
 72
332
 73
338
 0
VERTEX
 8
0
 10
0.0
 20
0.0
 30
0.0
 70
128
 71
326
 72
338
 73
328
 0
VERTEX
 8
0
 10
0.0
 20
0.0
 30
0.0
 70
128
 71
339
 72
333
 73
327
 0
VERTEX
 8
0
 10
0.0
 20
0.0
 30
0.0
 70
128
 71
339
 72
327
 73
329
 0
VERTEX
 8
0
 10
0.0
 20
0.0
 30
0.0
 70
128
 71
81
 72
83
 73
332
 0
VERTEX
 8
0
 10
0.0
 20
0.0
 30
0.0
 70
128
 71
81
 72
332
 73
326
 0
VERTEX
 8
0
 10
0.0
 20
0.0
 30
0.0
 70
128
 71
333
 72
84
 73
82
 0
VERTEX
 8
0
 10
0.0
 20
0.0
 30
0.0
 70
128
 71
333
 72
82
 73
327
 0
VERTEX
 8
0
 10
0.0
 20
0.0
 30
0.0
 70
128
 71
209
 72
342
 73
344
 0
VERTEX
 8
0
 10
0.0
 20
0.0
 30
0.0
 70
128
 71
209
 72
344
 73
215
 0
VERTEX
 8
0
 10
0.0
 20
0.0
 30
0.0
 70
128
 71
345
 72
343
 73
210
 0
VERTEX
 8
0
 10
0.0
 20
0.0
 30
0.0
 70
128
 71
345
 72
210
 73
216
 0
VERTEX
 8
0
 10
0.0
 20
0.0
 30
0.0
 70
128
 71
81
 72
326
 73
342
 0
VERTEX
 8
0
 10
0.0
 20
0.0
 30
0.0
 70
128
 71
81
 72
342
 73
209
 0
VERTEX
 8
0
 10
0.0
 20
0.0
 30
0.0
 70
128
 71
343
 72
327
 73
82
 0
VERTEX
 8
0
 10
0.0
 20
0.0
 30
0.0
 70
128
 71
343
 72
82
 73
210
 0
VERTEX
 8
0
 10
0.0
 20
0.0
 30
0.0
 70
128
 71
79
 72
215
 73
344
 0
VERTEX
 8
0
 10
0.0
 20
0.0
 30
0.0
 70
128
 71
79
 72
344
 73
346
 0
VERTEX
 8
0
 10
0.0
 20
0.0
 30
0.0
 70
128
 71
345
 72
216
 73
80
 0
VERTEX
 8
0
 10
0.0
 20
0.0
 30
0.0
 70
128
 71
345
 72
80
 73
347
 0
VERTEX
 8
0
 10
0.0
 20
0.0
 30
0.0
 70
128
 71
79
 72
346
 73
300
 0
VERTEX
 8
0
 10
0.0
 20
0.0
 30
0.0
 70
128
 71
79
 72
300
 73
92
 0
VERTEX
 8
0
 10
0.0
 20
0.0
 30
0.0
 70
128
 71
301
 72
347
 73
80
 0
VERTEX
 8
0
 10
0.0
 20
0.0
 30
0.0
 70
128
 71
301
 72
80
 73
93
 0
VERTEX
 8
0
 10
0.0
 20
0.0
 30
0.0
 70
128
 71
77
 72
324
 73
352
 0
VERTEX
 8
0
 10
0.0
 20
0.0
 30
0.0
 70
128
 71
77
 72
352
 73
304
 0
VERTEX
 8
0
 10
0.0
 20
0.0
 30
0.0
 70
128
 71
353
 72
325
 73
77
 0
VERTEX
 8
0
 10
0.0
 20
0.0
 30
0.0
 70
128
 71
353
 72
77
 73
304
 0
VERTEX
 8
0
 10
0.0
 20
0.0
 30
0.0
 70
128
 71
304
 72
352
 73
350
 0
VERTEX
 8
0
 10
0.0
 20
0.0
 30
0.0
 70
128
 71
304
 72
350
 73
78
 0
VERTEX
 8
0
 10
0.0
 20
0.0
 30
0.0
 70
128
 71
351
 72
353
 73
304
 0
VERTEX
 8
0
 10
0.0
 20
0.0
 30
0.0
 70
128
 71
351
 72
304
 73
78
 0
VERTEX
 8
0
 10
0.0
 20
0.0
 30
0.0
 70
128
 71
78
 72
350
 73
348
 0
VERTEX
 8
0
 10
0.0
 20
0.0
 30
0.0
 70
128
 71
78
 72
348
 73
305
 0
VERTEX
 8
0
 10
0.0
 20
0.0
 30
0.0
 70
128
 71
349
 72
351
 73
78
 0
VERTEX
 8
0
 10
0.0
 20
0.0
 30
0.0
 70
128
 71
349
 72
78
 73
305
 0
VERTEX
 8
0
 10
0.0
 20
0.0
 30
0.0
 70
128
 71
305
 72
348
 73
328
 0
VERTEX
 8
0
 10
0.0
 20
0.0
 30
0.0
 70
128
 71
305
 72
328
 73
309
 0
VERTEX
 8
0
 10
0.0
 20
0.0
 30
0.0
 70
128
 71
329
 72
349
 73
305
 0
VERTEX
 8
0
 10
0.0
 20
0.0
 30
0.0
 70
128
 71
329
 72
305
 73
309
 0
VERTEX
 8
0
 10
0.0
 20
0.0
 30
0.0
 70
128
 71
326
 72
328
 73
348
 0
VERTEX
 8
0
 10
0.0
 20
0.0
 30
0.0
 70
128
 71
326
 72
348
 73
342
 0
VERTEX
 8
0
 10
0.0
 20
0.0
 30
0.0
 70
128
 71
349
 72
329
 73
327
 0
VERTEX
 8
0
 10
0.0
 20
0.0
 30
0.0
 70
128
 71
349
 72
327
 73
343
 0
VERTEX
 8
0
 10
0.0
 20
0.0
 30
0.0
 70
128
 71
296
 72
298
 73
318
 0
VERTEX
 8
0
 10
0.0
 20
0.0
 30
0.0
 70
128
 71
296
 72
318
 73
310
 0
VERTEX
 8
0
 10
0.0
 20
0.0
 30
0.0
 70
128
 71
319
 72
299
 73
297
 0
VERTEX
 8
0
 10
0.0
 20
0.0
 30
0.0
 70
128
 71
319
 72
297
 73
311
 0
VERTEX
 8
0
 10
0.0
 20
0.0
 30
0.0
 70
128
 71
76
 72
316
 73
324
 0
VERTEX
 8
0
 10
0.0
 20
0.0
 30
0.0
 70
128
 71
76
 72
324
 73
77
 0
VERTEX
 8
0
 10
0.0
 20
0.0
 30
0.0
 70
128
 71
325
 72
317
 73
76
 0
VERTEX
 8
0
 10
0.0
 20
0.0
 30
0.0
 70
128
 71
325
 72
76
 73
77
 0
VERTEX
 8
0
 10
0.0
 20
0.0
 30
0.0
 70
128
 71
302
 72
358
 73
356
 0
VERTEX
 8
0
 10
0.0
 20
0.0
 30
0.0
 70
128
 71
302
 72
356
 73
303
 0
VERTEX
 8
0
 10
0.0
 20
0.0
 30
0.0
 70
128
 71
357
 72
359
 73
302
 0
VERTEX
 8
0
 10
0.0
 20
0.0
 30
0.0
 70
128
 71
357
 72
302
 73
303
 0
VERTEX
 8
0
 10
0.0
 20
0.0
 30
0.0
 70
128
 71
303
 72
356
 73
354
 0
VERTEX
 8
0
 10
0.0
 20
0.0
 30
0.0
 70
128
 71
303
 72
354
 73
75
 0
VERTEX
 8
0
 10
0.0
 20
0.0
 30
0.0
 70
128
 71
355
 72
357
 73
303
 0
VERTEX
 8
0
 10
0.0
 20
0.0
 30
0.0
 70
128
 71
355
 72
303
 73
75
 0
VERTEX
 8
0
 10
0.0
 20
0.0
 30
0.0
 70
128
 71
75
 72
354
 73
316
 0
VERTEX
 8
0
 10
0.0
 20
0.0
 30
0.0
 70
128
 71
75
 72
316
 73
76
 0
VERTEX
 8
0
 10
0.0
 20
0.0
 30
0.0
 70
128
 71
317
 72
355
 73
75
 0
VERTEX
 8
0
 10
0.0
 20
0.0
 30
0.0
 70
128
 71
317
 72
75
 73
76
 0
VERTEX
 8
0
 10
0.0
 20
0.0
 30
0.0
 70
128
 71
292
 72
294
 73
362
 0
VERTEX
 8
0
 10
0.0
 20
0.0
 30
0.0
 70
128
 71
292
 72
362
 73
364
 0
VERTEX
 8
0
 10
0.0
 20
0.0
 30
0.0
 70
128
 71
363
 72
295
 73
293
 0
VERTEX
 8
0
 10
0.0
 20
0.0
 30
0.0
 70
128
 71
363
 72
293
 73
365
 0
VERTEX
 8
0
 10
0.0
 20
0.0
 30
0.0
 70
128
 71
364
 72
362
 73
368
 0
VERTEX
 8
0
 10
0.0
 20
0.0
 30
0.0
 70
128
 71
364
 72
368
 73
366
 0
VERTEX
 8
0
 10
0.0
 20
0.0
 30
0.0
 70
128
 71
369
 72
363
 73
365
 0
VERTEX
 8
0
 10
0.0
 20
0.0
 30
0.0
 70
128
 71
369
 72
365
 73
367
 0
VERTEX
 8
0
 10
0.0
 20
0.0
 30
0.0
 70
128
 71
366
 72
368
 73
370
 0
VERTEX
 8
0
 10
0.0
 20
0.0
 30
0.0
 70
128
 71
366
 72
370
 73
372
 0
VERTEX
 8
0
 10
0.0
 20
0.0
 30
0.0
 70
128
 71
371
 72
369
 73
367
 0
VERTEX
 8
0
 10
0.0
 20
0.0
 30
0.0
 70
128
 71
371
 72
367
 73
373
 0
VERTEX
 8
0
 10
0.0
 20
0.0
 30
0.0
 70
128
 71
372
 72
370
 73
376
 0
VERTEX
 8
0
 10
0.0
 20
0.0
 30
0.0
 70
128
 71
372
 72
376
 73
374
 0
VERTEX
 8
0
 10
0.0
 20
0.0
 30
0.0
 70
128
 71
377
 72
371
 73
373
 0
VERTEX
 8
0
 10
0.0
 20
0.0
 30
0.0
 70
128
 71
377
 72
373
 73
375
 0
VERTEX
 8
0
 10
0.0
 20
0.0
 30
0.0
 70
128
 71
314
 72
378
 73
374
 0
VERTEX
 8
0
 10
0.0
 20
0.0
 30
0.0
 70
128
 71
314
 72
374
 73
376
 0
VERTEX
 8
0
 10
0.0
 20
0.0
 30
0.0
 70
128
 71
375
 72
379
 73
315
 0
VERTEX
 8
0
 10
0.0
 20
0.0
 30
0.0
 70
128
 71
375
 72
315
 73
377
 0
VERTEX
 8
0
 10
0.0
 20
0.0
 30
0.0
 70
128
 71
316
 72
354
 73
374
 0
VERTEX
 8
0
 10
0.0
 20
0.0
 30
0.0
 70
128
 71
316
 72
374
 73
378
 0
VERTEX
 8
0
 10
0.0
 20
0.0
 30
0.0
 70
128
 71
375
 72
355
 73
317
 0
VERTEX
 8
0
 10
0.0
 20
0.0
 30
0.0
 70
128
 71
375
 72
317
 73
379
 0
VERTEX
 8
0
 10
0.0
 20
0.0
 30
0.0
 70
128
 71
354
 72
356
 73
372
 0
VERTEX
 8
0
 10
0.0
 20
0.0
 30
0.0
 70
128
 71
354
 72
372
 73
374
 0
VERTEX
 8
0
 10
0.0
 20
0.0
 30
0.0
 70
128
 71
373
 72
357
 73
355
 0
VERTEX
 8
0
 10
0.0
 20
0.0
 30
0.0
 70
128
 71
373
 72
355
 73
375
 0
VERTEX
 8
0
 10
0.0
 20
0.0
 30
0.0
 70
128
 71
356
 72
358
 73
366
 0
VERTEX
 8
0
 10
0.0
 20
0.0
 30
0.0
 70
128
 71
356
 72
366
 73
372
 0
VERTEX
 8
0
 10
0.0
 20
0.0
 30
0.0
 70
128
 71
367
 72
359
 73
357
 0
VERTEX
 8
0
 10
0.0
 20
0.0
 30
0.0
 70
128
 71
367
 72
357
 73
373
 0
VERTEX
 8
0
 10
0.0
 20
0.0
 30
0.0
 70
128
 71
358
 72
360
 73
364
 0
VERTEX
 8
0
 10
0.0
 20
0.0
 30
0.0
 70
128
 71
358
 72
364
 73
366
 0
VERTEX
 8
0
 10
0.0
 20
0.0
 30
0.0
 70
128
 71
365
 72
361
 73
359
 0
VERTEX
 8
0
 10
0.0
 20
0.0
 30
0.0
 70
128
 71
365
 72
359
 73
367
 0
VERTEX
 8
0
 10
0.0
 20
0.0
 30
0.0
 70
128
 71
290
 72
292
 73
364
 0
VERTEX
 8
0
 10
0.0
 20
0.0
 30
0.0
 70
128
 71
290
 72
364
 73
360
 0
VERTEX
 8
0
 10
0.0
 20
0.0
 30
0.0
 70
128
 71
365
 72
293
 73
291
 0
VERTEX
 8
0
 10
0.0
 20
0.0
 30
0.0
 70
128
 71
365
 72
291
 73
361
 0
VERTEX
 8
0
 10
0.0
 20
0.0
 30
0.0
 70
128
 71
74
 72
360
 73
358
 0
VERTEX
 8
0
 10
0.0
 20
0.0
 30
0.0
 70
128
 71
74
 72
358
 73
302
 0
VERTEX
 8
0
 10
0.0
 20
0.0
 30
0.0
 70
128
 71
359
 72
361
 73
74
 0
VERTEX
 8
0
 10
0.0
 20
0.0
 30
0.0
 70
128
 71
359
 72
74
 73
302
 0
VERTEX
 8
0
 10
0.0
 20
0.0
 30
0.0
 70
128
 71
284
 72
286
 73
288
 0
VERTEX
 8
0
 10
0.0
 20
0.0
 30
0.0
 70
128
 71
284
 72
288
 73
290
 0
VERTEX
 8
0
 10
0.0
 20
0.0
 30
0.0
 70
128
 71
289
 72
287
 73
285
 0
VERTEX
 8
0
 10
0.0
 20
0.0
 30
0.0
 70
128
 71
289
 72
285
 73
291
 0
VERTEX
 8
0
 10
0.0
 20
0.0
 30
0.0
 70
128
 71
284
 72
290
 73
360
 0
VERTEX
 8
0
 10
0.0
 20
0.0
 30
0.0
 70
128
 71
284
 72
360
 73
74
 0
VERTEX
 8
0
 10
0.0
 20
0.0
 30
0.0
 70
128
 71
361
 72
291
 73
285
 0
VERTEX
 8
0
 10
0.0
 20
0.0
 30
0.0
 70
128
 71
361
 72
285
 73
74
 0
VERTEX
 8
0
 10
0.0
 20
0.0
 30
0.0
 70
128
 71
73
 72
284
 73
74
 0
VERTEX
 8
0
 10
0.0
 20
0.0
 30
0.0
 70
128
 71
74
 72
285
 73
73
 0
VERTEX
 8
0
 10
0.0
 20
0.0
 30
0.0
 70
128
 71
294
 72
296
 73
310
 0
VERTEX
 8
0
 10
0.0
 20
0.0
 30
0.0
 70
128
 71
294
 72
310
 73
362
 0
VERTEX
 8
0
 10
0.0
 20
0.0
 30
0.0
 70
128
 71
311
 72
297
 73
295
 0
VERTEX
 8
0
 10
0.0
 20
0.0
 30
0.0
 70
128
 71
311
 72
295
 73
363
 0
VERTEX
 8
0
 10
0.0
 20
0.0
 30
0.0
 70
128
 71
310
 72
312
 73
368
 0
VERTEX
 8
0
 10
0.0
 20
0.0
 30
0.0
 70
128
 71
310
 72
368
 73
362
 0
VERTEX
 8
0
 10
0.0
 20
0.0
 30
0.0
 70
128
 71
369
 72
313
 73
311
 0
VERTEX
 8
0
 10
0.0
 20
0.0
 30
0.0
 70
128
 71
369
 72
311
 73
363
 0
VERTEX
 8
0
 10
0.0
 20
0.0
 30
0.0
 70
128
 71
312
 72
382
 73
370
 0
VERTEX
 8
0
 10
0.0
 20
0.0
 30
0.0
 70
128
 71
312
 72
370
 73
368
 0
VERTEX
 8
0
 10
0.0
 20
0.0
 30
0.0
 70
128
 71
371
 72
383
 73
313
 0
VERTEX
 8
0
 10
0.0
 20
0.0
 30
0.0
 70
128
 71
371
 72
313
 73
369
 0
VERTEX
 8
0
 10
0.0
 20
0.0
 30
0.0
 70
128
 71
314
 72
376
 73
370
 0
VERTEX
 8
0
 10
0.0
 20
0.0
 30
0.0
 70
128
 71
314
 72
370
 73
382
 0
VERTEX
 8
0
 10
0.0
 20
0.0
 30
0.0
 70
128
 71
371
 72
377
 73
315
 0
VERTEX
 8
0
 10
0.0
 20
0.0
 30
0.0
 70
128
 71
371
 72
315
 73
383
 0
VERTEX
 8
0
 10
0.0
 20
0.0
 30
0.0
 70
128
 71
348
 72
350
 73
386
 0
VERTEX
 8
0
 10
0.0
 20
0.0
 30
0.0
 70
128
 71
348
 72
386
 73
384
 0
VERTEX
 8
0
 10
0.0
 20
0.0
 30
0.0
 70
128
 71
387
 72
351
 73
349
 0
VERTEX
 8
0
 10
0.0
 20
0.0
 30
0.0
 70
128
 71
387
 72
349
 73
385
 0
VERTEX
 8
0
 10
0.0
 20
0.0
 30
0.0
 70
128
 71
318
 72
384
 73
386
 0
VERTEX
 8
0
 10
0.0
 20
0.0
 30
0.0
 70
128
 71
318
 72
386
 73
320
 0
VERTEX
 8
0
 10
0.0
 20
0.0
 30
0.0
 70
128
 71
387
 72
385
 73
319
 0
VERTEX
 8
0
 10
0.0
 20
0.0
 30
0.0
 70
128
 71
387
 72
319
 73
321
 0
VERTEX
 8
0
 10
0.0
 20
0.0
 30
0.0
 70
128
 71
298
 72
300
 73
384
 0
VERTEX
 8
0
 10
0.0
 20
0.0
 30
0.0
 70
128
 71
298
 72
384
 73
318
 0
VERTEX
 8
0
 10
0.0
 20
0.0
 30
0.0
 70
128
 71
385
 72
301
 73
299
 0
VERTEX
 8
0
 10
0.0
 20
0.0
 30
0.0
 70
128
 71
385
 72
299
 73
319
 0
VERTEX
 8
0
 10
0.0
 20
0.0
 30
0.0
 70
128
 71
300
 72
344
 73
342
 0
VERTEX
 8
0
 10
0.0
 20
0.0
 30
0.0
 70
128
 71
300
 72
342
 73
384
 0
VERTEX
 8
0
 10
0.0
 20
0.0
 30
0.0
 70
128
 71
343
 72
345
 73
301
 0
VERTEX
 8
0
 10
0.0
 20
0.0
 30
0.0
 70
128
 71
343
 72
301
 73
385
 0
VERTEX
 8
0
 10
0.0
 20
0.0
 30
0.0
 70
128
 71
342
 72
348
 73
384
 0
VERTEX
 8
0
 10
0.0
 20
0.0
 30
0.0
 70
128
 71
385
 72
349
 73
343
 0
VERTEX
 8
0
 10
0.0
 20
0.0
 30
0.0
 70
128
 71
300
 72
346
 73
344
 0
VERTEX
 8
0
 10
0.0
 20
0.0
 30
0.0
 70
128
 71
345
 72
347
 73
301
 0
VERTEX
 8
0
 10
0.0
 20
0.0
 30
0.0
 70
128
 71
314
 72
322
 73
380
 0
VERTEX
 8
0
 10
0.0
 20
0.0
 30
0.0
 70
128
 71
314
 72
380
 73
378
 0
VERTEX
 8
0
 10
0.0
 20
0.0
 30
0.0
 70
128
 71
381
 72
323
 73
315
 0
VERTEX
 8
0
 10
0.0
 20
0.0
 30
0.0
 70
128
 71
381
 72
315
 73
379
 0
VERTEX
 8
0
 10
0.0
 20
0.0
 30
0.0
 70
128
 71
316
 72
378
 73
380
 0
VERTEX
 8
0
 10
0.0
 20
0.0
 30
0.0
 70
128
 71
316
 72
380
 73
324
 0
VERTEX
 8
0
 10
0.0
 20
0.0
 30
0.0
 70
128
 71
381
 72
379
 73
317
 0
VERTEX
 8
0
 10
0.0
 20
0.0
 30
0.0
 70
128
 71
381
 72
317
 73
325
 0
VERTEX
 8
0
 10
0.0
 20
0.0
 30
0.0
 70
128
 71
320
 72
386
 73
380
 0
VERTEX
 8
0
 10
0.0
 20
0.0
 30
0.0
 70
128
 71
320
 72
380
 73
322
 0
VERTEX
 8
0
 10
0.0
 20
0.0
 30
0.0
 70
128
 71
381
 72
387
 73
321
 0
VERTEX
 8
0
 10
0.0
 20
0.0
 30
0.0
 70
128
 71
381
 72
321
 73
323
 0
VERTEX
 8
0
 10
0.0
 20
0.0
 30
0.0
 70
128
 71
350
 72
352
 73
380
 0
VERTEX
 8
0
 10
0.0
 20
0.0
 30
0.0
 70
128
 71
350
 72
380
 73
386
 0
VERTEX
 8
0
 10
0.0
 20
0.0
 30
0.0
 70
128
 71
381
 72
353
 73
351
 0
VERTEX
 8
0
 10
0.0
 20
0.0
 30
0.0
 70
128
 71
381
 72
351
 73
387
 0
VERTEX
 8
0
 10
0.0
 20
0.0
 30
0.0
 70
128
 71
324
 72
380
 73
352
 0
VERTEX
 8
0
 10
0.0
 20
0.0
 30
0.0
 70
128
 71
353
 72
381
 73
325
 0
VERTEX
 8
0
 10
0.0
 20
0.0
 30
0.0
 70
128
 71
400
 72
388
 73
414
 0
VERTEX
 8
0
 10
0.0
 20
0.0
 30
0.0
 70
128
 71
400
 72
414
 73
402
 0
VERTEX
 8
0
 10
0.0
 20
0.0
 30
0.0
 70
128
 71
415
 72
389
 73
401
 0
VERTEX
 8
0
 10
0.0
 20
0.0
 30
0.0
 70
128
 71
415
 72
401
 73
403
 0
VERTEX
 8
0
 10
0.0
 20
0.0
 30
0.0
 70
128
 71
400
 72
402
 73
404
 0
VERTEX
 8
0
 10
0.0
 20
0.0
 30
0.0
 70
128
 71
400
 72
404
 73
398
 0
VERTEX
 8
0
 10
0.0
 20
0.0
 30
0.0
 70
128
 71
405
 72
403
 73
401
 0
VERTEX
 8
0
 10
0.0
 20
0.0
 30
0.0
 70
128
 71
405
 72
401
 73
399
 0
VERTEX
 8
0
 10
0.0
 20
0.0
 30
0.0
 70
128
 71
398
 72
404
 73
406
 0
VERTEX
 8
0
 10
0.0
 20
0.0
 30
0.0
 70
128
 71
398
 72
406
 73
396
 0
VERTEX
 8
0
 10
0.0
 20
0.0
 30
0.0
 70
128
 71
407
 72
405
 73
399
 0
VERTEX
 8
0
 10
0.0
 20
0.0
 30
0.0
 70
128
 71
407
 72
399
 73
397
 0
VERTEX
 8
0
 10
0.0
 20
0.0
 30
0.0
 70
128
 71
396
 72
406
 73
408
 0
VERTEX
 8
0
 10
0.0
 20
0.0
 30
0.0
 70
128
 71
396
 72
408
 73
394
 0
VERTEX
 8
0
 10
0.0
 20
0.0
 30
0.0
 70
128
 71
409
 72
407
 73
397
 0
VERTEX
 8
0
 10
0.0
 20
0.0
 30
0.0
 70
128
 71
409
 72
397
 73
395
 0
VERTEX
 8
0
 10
0.0
 20
0.0
 30
0.0
 70
128
 71
394
 72
408
 73
410
 0
VERTEX
 8
0
 10
0.0
 20
0.0
 30
0.0
 70
128
 71
394
 72
410
 73
392
 0
VERTEX
 8
0
 10
0.0
 20
0.0
 30
0.0
 70
128
 71
411
 72
409
 73
395
 0
VERTEX
 8
0
 10
0.0
 20
0.0
 30
0.0
 70
128
 71
411
 72
395
 73
393
 0
VERTEX
 8
0
 10
0.0
 20
0.0
 30
0.0
 70
128
 71
392
 72
410
 73
412
 0
VERTEX
 8
0
 10
0.0
 20
0.0
 30
0.0
 70
128
 71
392
 72
412
 73
390
 0
VERTEX
 8
0
 10
0.0
 20
0.0
 30
0.0
 70
128
 71
413
 72
411
 73
393
 0
VERTEX
 8
0
 10
0.0
 20
0.0
 30
0.0
 70
128
 71
413
 72
393
 73
391
 0
VERTEX
 8
0
 10
0.0
 20
0.0
 30
0.0
 70
128
 71
410
 72
420
 73
418
 0
VERTEX
 8
0
 10
0.0
 20
0.0
 30
0.0
 70
128
 71
410
 72
418
 73
412
 0
VERTEX
 8
0
 10
0.0
 20
0.0
 30
0.0
 70
128
 71
419
 72
421
 73
411
 0
VERTEX
 8
0
 10
0.0
 20
0.0
 30
0.0
 70
128
 71
419
 72
411
 73
413
 0
VERTEX
 8
0
 10
0.0
 20
0.0
 30
0.0
 70
128
 71
408
 72
422
 73
420
 0
VERTEX
 8
0
 10
0.0
 20
0.0
 30
0.0
 70
128
 71
408
 72
420
 73
410
 0
VERTEX
 8
0
 10
0.0
 20
0.0
 30
0.0
 70
128
 71
421
 72
423
 73
409
 0
VERTEX
 8
0
 10
0.0
 20
0.0
 30
0.0
 70
128
 71
421
 72
409
 73
411
 0
VERTEX
 8
0
 10
0.0
 20
0.0
 30
0.0
 70
128
 71
406
 72
424
 73
422
 0
VERTEX
 8
0
 10
0.0
 20
0.0
 30
0.0
 70
128
 71
406
 72
422
 73
408
 0
VERTEX
 8
0
 10
0.0
 20
0.0
 30
0.0
 70
128
 71
423
 72
425
 73
407
 0
VERTEX
 8
0
 10
0.0
 20
0.0
 30
0.0
 70
128
 71
423
 72
407
 73
409
 0
VERTEX
 8
0
 10
0.0
 20
0.0
 30
0.0
 70
128
 71
404
 72
426
 73
424
 0
VERTEX
 8
0
 10
0.0
 20
0.0
 30
0.0
 70
128
 71
404
 72
424
 73
406
 0
VERTEX
 8
0
 10
0.0
 20
0.0
 30
0.0
 70
128
 71
425
 72
427
 73
405
 0
VERTEX
 8
0
 10
0.0
 20
0.0
 30
0.0
 70
128
 71
425
 72
405
 73
407
 0
VERTEX
 8
0
 10
0.0
 20
0.0
 30
0.0
 70
128
 71
402
 72
428
 73
426
 0
VERTEX
 8
0
 10
0.0
 20
0.0
 30
0.0
 70
128
 71
402
 72
426
 73
404
 0
VERTEX
 8
0
 10
0.0
 20
0.0
 30
0.0
 70
128
 71
427
 72
429
 73
403
 0
VERTEX
 8
0
 10
0.0
 20
0.0
 30
0.0
 70
128
 71
427
 72
403
 73
405
 0
VERTEX
 8
0
 10
0.0
 20
0.0
 30
0.0
 70
128
 71
402
 72
414
 73
416
 0
VERTEX
 8
0
 10
0.0
 20
0.0
 30
0.0
 70
128
 71
402
 72
416
 73
428
 0
VERTEX
 8
0
 10
0.0
 20
0.0
 30
0.0
 70
128
 71
417
 72
415
 73
403
 0
VERTEX
 8
0
 10
0.0
 20
0.0
 30
0.0
 70
128
 71
417
 72
403
 73
429
 0
VERTEX
 8
0
 10
0.0
 20
0.0
 30
0.0
 70
128
 71
318
 72
320
 73
444
 0
VERTEX
 8
0
 10
0.0
 20
0.0
 30
0.0
 70
128
 71
318
 72
444
 73
442
 0
VERTEX
 8
0
 10
0.0
 20
0.0
 30
0.0
 70
128
 71
445
 72
321
 73
319
 0
VERTEX
 8
0
 10
0.0
 20
0.0
 30
0.0
 70
128
 71
445
 72
319
 73
443
 0
VERTEX
 8
0
 10
0.0
 20
0.0
 30
0.0
 70
128
 71
320
 72
390
 73
412
 0
VERTEX
 8
0
 10
0.0
 20
0.0
 30
0.0
 70
128
 71
320
 72
412
 73
444
 0
VERTEX
 8
0
 10
0.0
 20
0.0
 30
0.0
 70
128
 71
413
 72
391
 73
321
 0
VERTEX
 8
0
 10
0.0
 20
0.0
 30
0.0
 70
128
 71
413
 72
321
 73
445
 0
VERTEX
 8
0
 10
0.0
 20
0.0
 30
0.0
 70
128
 71
310
 72
318
 73
442
 0
VERTEX
 8
0
 10
0.0
 20
0.0
 30
0.0
 70
128
 71
310
 72
442
 73
312
 0
VERTEX
 8
0
 10
0.0
 20
0.0
 30
0.0
 70
128
 71
443
 72
319
 73
311
 0
VERTEX
 8
0
 10
0.0
 20
0.0
 30
0.0
 70
128
 71
443
 72
311
 73
313
 0
VERTEX
 8
0
 10
0.0
 20
0.0
 30
0.0
 70
128
 71
382
 72
430
 73
414
 0
VERTEX
 8
0
 10
0.0
 20
0.0
 30
0.0
 70
128
 71
382
 72
414
 73
388
 0
VERTEX
 8
0
 10
0.0
 20
0.0
 30
0.0
 70
128
 71
415
 72
431
 73
383
 0
VERTEX
 8
0
 10
0.0
 20
0.0
 30
0.0
 70
128
 71
415
 72
383
 73
389
 0
VERTEX
 8
0
 10
0.0
 20
0.0
 30
0.0
 70
128
 71
412
 72
418
 73
440
 0
VERTEX
 8
0
 10
0.0
 20
0.0
 30
0.0
 70
128
 71
412
 72
440
 73
444
 0
VERTEX
 8
0
 10
0.0
 20
0.0
 30
0.0
 70
128
 71
441
 72
419
 73
413
 0
VERTEX
 8
0
 10
0.0
 20
0.0
 30
0.0
 70
128
 71
441
 72
413
 73
445
 0
VERTEX
 8
0
 10
0.0
 20
0.0
 30
0.0
 70
128
 71
438
 72
446
 73
444
 0
VERTEX
 8
0
 10
0.0
 20
0.0
 30
0.0
 70
128
 71
438
 72
444
 73
440
 0
VERTEX
 8
0
 10
0.0
 20
0.0
 30
0.0
 70
128
 71
445
 72
447
 73
439
 0
VERTEX
 8
0
 10
0.0
 20
0.0
 30
0.0
 70
128
 71
445
 72
439
 73
441
 0
VERTEX
 8
0
 10
0.0
 20
0.0
 30
0.0
 70
128
 71
434
 72
446
 73
438
 0
VERTEX
 8
0
 10
0.0
 20
0.0
 30
0.0
 70
128
 71
434
 72
438
 73
436
 0
VERTEX
 8
0
 10
0.0
 20
0.0
 30
0.0
 70
128
 71
439
 72
447
 73
435
 0
VERTEX
 8
0
 10
0.0
 20
0.0
 30
0.0
 70
128
 71
439
 72
435
 73
437
 0
VERTEX
 8
0
 10
0.0
 20
0.0
 30
0.0
 70
128
 71
432
 72
448
 73
446
 0
VERTEX
 8
0
 10
0.0
 20
0.0
 30
0.0
 70
128
 71
432
 72
446
 73
434
 0
VERTEX
 8
0
 10
0.0
 20
0.0
 30
0.0
 70
128
 71
447
 72
449
 73
433
 0
VERTEX
 8
0
 10
0.0
 20
0.0
 30
0.0
 70
128
 71
447
 72
433
 73
435
 0
VERTEX
 8
0
 10
0.0
 20
0.0
 30
0.0
 70
128
 71
430
 72
448
 73
432
 0
VERTEX
 8
0
 10
0.0
 20
0.0
 30
0.0
 70
128
 71
430
 72
432
 73
450
 0
VERTEX
 8
0
 10
0.0
 20
0.0
 30
0.0
 70
128
 71
433
 72
449
 73
431
 0
VERTEX
 8
0
 10
0.0
 20
0.0
 30
0.0
 70
128
 71
433
 72
431
 73
451
 0
VERTEX
 8
0
 10
0.0
 20
0.0
 30
0.0
 70
128
 71
414
 72
430
 73
450
 0
VERTEX
 8
0
 10
0.0
 20
0.0
 30
0.0
 70
128
 71
414
 72
450
 73
416
 0
VERTEX
 8
0
 10
0.0
 20
0.0
 30
0.0
 70
128
 71
451
 72
431
 73
415
 0
VERTEX
 8
0
 10
0.0
 20
0.0
 30
0.0
 70
128
 71
451
 72
415
 73
417
 0
VERTEX
 8
0
 10
0.0
 20
0.0
 30
0.0
 70
128
 71
312
 72
448
 73
430
 0
VERTEX
 8
0
 10
0.0
 20
0.0
 30
0.0
 70
128
 71
312
 72
430
 73
382
 0
VERTEX
 8
0
 10
0.0
 20
0.0
 30
0.0
 70
128
 71
431
 72
449
 73
313
 0
VERTEX
 8
0
 10
0.0
 20
0.0
 30
0.0
 70
128
 71
431
 72
313
 73
383
 0
VERTEX
 8
0
 10
0.0
 20
0.0
 30
0.0
 70
128
 71
312
 72
442
 73
446
 0
VERTEX
 8
0
 10
0.0
 20
0.0
 30
0.0
 70
128
 71
312
 72
446
 73
448
 0
VERTEX
 8
0
 10
0.0
 20
0.0
 30
0.0
 70
128
 71
447
 72
443
 73
313
 0
VERTEX
 8
0
 10
0.0
 20
0.0
 30
0.0
 70
128
 71
447
 72
313
 73
449
 0
VERTEX
 8
0
 10
0.0
 20
0.0
 30
0.0
 70
128
 71
442
 72
444
 73
446
 0
VERTEX
 8
0
 10
0.0
 20
0.0
 30
0.0
 70
128
 71
447
 72
445
 73
443
 0
VERTEX
 8
0
 10
0.0
 20
0.0
 30
0.0
 70
128
 71
416
 72
450
 73
452
 0
VERTEX
 8
0
 10
0.0
 20
0.0
 30
0.0
 70
128
 71
416
 72
452
 73
476
 0
VERTEX
 8
0
 10
0.0
 20
0.0
 30
0.0
 70
128
 71
453
 72
451
 73
417
 0
VERTEX
 8
0
 10
0.0
 20
0.0
 30
0.0
 70
128
 71
453
 72
417
 73
477
 0
VERTEX
 8
0
 10
0.0
 20
0.0
 30
0.0
 70
128
 71
450
 72
432
 73
462
 0
VERTEX
 8
0
 10
0.0
 20
0.0
 30
0.0
 70
128
 71
450
 72
462
 73
452
 0
VERTEX
 8
0
 10
0.0
 20
0.0
 30
0.0
 70
128
 71
463
 72
433
 73
451
 0
VERTEX
 8
0
 10
0.0
 20
0.0
 30
0.0
 70
128
 71
463
 72
451
 73
453
 0
VERTEX
 8
0
 10
0.0
 20
0.0
 30
0.0
 70
128
 71
432
 72
434
 73
460
 0
VERTEX
 8
0
 10
0.0
 20
0.0
 30
0.0
 70
128
 71
432
 72
460
 73
462
 0
VERTEX
 8
0
 10
0.0
 20
0.0
 30
0.0
 70
128
 71
461
 72
435
 73
433
 0
VERTEX
 8
0
 10
0.0
 20
0.0
 30
0.0
 70
128
 71
461
 72
433
 73
463
 0
VERTEX
 8
0
 10
0.0
 20
0.0
 30
0.0
 70
128
 71
434
 72
436
 73
458
 0
VERTEX
 8
0
 10
0.0
 20
0.0
 30
0.0
 70
128
 71
434
 72
458
 73
460
 0
VERTEX
 8
0
 10
0.0
 20
0.0
 30
0.0
 70
128
 71
459
 72
437
 73
435
 0
VERTEX
 8
0
 10
0.0
 20
0.0
 30
0.0
 70
128
 71
459
 72
435
 73
461
 0
VERTEX
 8
0
 10
0.0
 20
0.0
 30
0.0
 70
128
 71
436
 72
438
 73
456
 0
VERTEX
 8
0
 10
0.0
 20
0.0
 30
0.0
 70
128
 71
436
 72
456
 73
458
 0
VERTEX
 8
0
 10
0.0
 20
0.0
 30
0.0
 70
128
 71
457
 72
439
 73
437
 0
VERTEX
 8
0
 10
0.0
 20
0.0
 30
0.0
 70
128
 71
457
 72
437
 73
459
 0
VERTEX
 8
0
 10
0.0
 20
0.0
 30
0.0
 70
128
 71
438
 72
440
 73
454
 0
VERTEX
 8
0
 10
0.0
 20
0.0
 30
0.0
 70
128
 71
438
 72
454
 73
456
 0
VERTEX
 8
0
 10
0.0
 20
0.0
 30
0.0
 70
128
 71
455
 72
441
 73
439
 0
VERTEX
 8
0
 10
0.0
 20
0.0
 30
0.0
 70
128
 71
455
 72
439
 73
457
 0
VERTEX
 8
0
 10
0.0
 20
0.0
 30
0.0
 70
128
 71
440
 72
418
 73
474
 0
VERTEX
 8
0
 10
0.0
 20
0.0
 30
0.0
 70
128
 71
440
 72
474
 73
454
 0
VERTEX
 8
0
 10
0.0
 20
0.0
 30
0.0
 70
128
 71
475
 72
419
 73
441
 0
VERTEX
 8
0
 10
0.0
 20
0.0
 30
0.0
 70
128
 71
475
 72
441
 73
455
 0
VERTEX
 8
0
 10
0.0
 20
0.0
 30
0.0
 70
128
 71
428
 72
416
 73
476
 0
VERTEX
 8
0
 10
0.0
 20
0.0
 30
0.0
 70
128
 71
428
 72
476
 73
464
 0
VERTEX
 8
0
 10
0.0
 20
0.0
 30
0.0
 70
128
 71
477
 72
417
 73
429
 0
VERTEX
 8
0
 10
0.0
 20
0.0
 30
0.0
 70
128
 71
477
 72
429
 73
465
 0
VERTEX
 8
0
 10
0.0
 20
0.0
 30
0.0
 70
128
 71
426
 72
428
 73
464
 0
VERTEX
 8
0
 10
0.0
 20
0.0
 30
0.0
 70
128
 71
426
 72
464
 73
466
 0
VERTEX
 8
0
 10
0.0
 20
0.0
 30
0.0
 70
128
 71
465
 72
429
 73
427
 0
VERTEX
 8
0
 10
0.0
 20
0.0
 30
0.0
 70
128
 71
465
 72
427
 73
467
 0
VERTEX
 8
0
 10
0.0
 20
0.0
 30
0.0
 70
128
 71
424
 72
426
 73
466
 0
VERTEX
 8
0
 10
0.0
 20
0.0
 30
0.0
 70
128
 71
424
 72
466
 73
468
 0
VERTEX
 8
0
 10
0.0
 20
0.0
 30
0.0
 70
128
 71
467
 72
427
 73
425
 0
VERTEX
 8
0
 10
0.0
 20
0.0
 30
0.0
 70
128
 71
467
 72
425
 73
469
 0
VERTEX
 8
0
 10
0.0
 20
0.0
 30
0.0
 70
128
 71
422
 72
424
 73
468
 0
VERTEX
 8
0
 10
0.0
 20
0.0
 30
0.0
 70
128
 71
422
 72
468
 73
470
 0
VERTEX
 8
0
 10
0.0
 20
0.0
 30
0.0
 70
128
 71
469
 72
425
 73
423
 0
VERTEX
 8
0
 10
0.0
 20
0.0
 30
0.0
 70
128
 71
469
 72
423
 73
471
 0
VERTEX
 8
0
 10
0.0
 20
0.0
 30
0.0
 70
128
 71
420
 72
422
 73
470
 0
VERTEX
 8
0
 10
0.0
 20
0.0
 30
0.0
 70
128
 71
420
 72
470
 73
472
 0
VERTEX
 8
0
 10
0.0
 20
0.0
 30
0.0
 70
128
 71
471
 72
423
 73
421
 0
VERTEX
 8
0
 10
0.0
 20
0.0
 30
0.0
 70
128
 71
471
 72
421
 73
473
 0
VERTEX
 8
0
 10
0.0
 20
0.0
 30
0.0
 70
128
 71
418
 72
420
 73
472
 0
VERTEX
 8
0
 10
0.0
 20
0.0
 30
0.0
 70
128
 71
418
 72
472
 73
474
 0
VERTEX
 8
0
 10
0.0
 20
0.0
 30
0.0
 70
128
 71
473
 72
421
 73
419
 0
VERTEX
 8
0
 10
0.0
 20
0.0
 30
0.0
 70
128
 71
473
 72
419
 73
475
 0
VERTEX
 8
0
 10
0.0
 20
0.0
 30
0.0
 70
128
 71
458
 72
456
 73
480
 0
VERTEX
 8
0
 10
0.0
 20
0.0
 30
0.0
 70
128
 71
458
 72
480
 73
478
 0
VERTEX
 8
0
 10
0.0
 20
0.0
 30
0.0
 70
128
 71
481
 72
457
 73
459
 0
VERTEX
 8
0
 10
0.0
 20
0.0
 30
0.0
 70
128
 71
481
 72
459
 73
479
 0
VERTEX
 8
0
 10
0.0
 20
0.0
 30
0.0
 70
128
 71
478
 72
480
 73
482
 0
VERTEX
 8
0
 10
0.0
 20
0.0
 30
0.0
 70
128
 71
478
 72
482
 73
484
 0
VERTEX
 8
0
 10
0.0
 20
0.0
 30
0.0
 70
128
 71
483
 72
481
 73
479
 0
VERTEX
 8
0
 10
0.0
 20
0.0
 30
0.0
 70
128
 71
483
 72
479
 73
485
 0
VERTEX
 8
0
 10
0.0
 20
0.0
 30
0.0
 70
128
 71
484
 72
482
 73
488
 0
VERTEX
 8
0
 10
0.0
 20
0.0
 30
0.0
 70
128
 71
484
 72
488
 73
486
 0
VERTEX
 8
0
 10
0.0
 20
0.0
 30
0.0
 70
128
 71
489
 72
483
 73
485
 0
VERTEX
 8
0
 10
0.0
 20
0.0
 30
0.0
 70
128
 71
489
 72
485
 73
487
 0
VERTEX
 8
0
 10
0.0
 20
0.0
 30
0.0
 70
128
 71
486
 72
488
 73
490
 0
VERTEX
 8
0
 10
0.0
 20
0.0
 30
0.0
 70
128
 71
486
 72
490
 73
492
 0
VERTEX
 8
0
 10
0.0
 20
0.0
 30
0.0
 70
128
 71
491
 72
489
 73
487
 0
VERTEX
 8
0
 10
0.0
 20
0.0
 30
0.0
 70
128
 71
491
 72
487
 73
493
 0
VERTEX
 8
0
 10
0.0
 20
0.0
 30
0.0
 70
128
 71
464
 72
476
 73
486
 0
VERTEX
 8
0
 10
0.0
 20
0.0
 30
0.0
 70
128
 71
464
 72
486
 73
492
 0
VERTEX
 8
0
 10
0.0
 20
0.0
 30
0.0
 70
128
 71
487
 72
477
 73
465
 0
VERTEX
 8
0
 10
0.0
 20
0.0
 30
0.0
 70
128
 71
487
 72
465
 73
493
 0
VERTEX
 8
0
 10
0.0
 20
0.0
 30
0.0
 70
128
 71
452
 72
484
 73
486
 0
VERTEX
 8
0
 10
0.0
 20
0.0
 30
0.0
 70
128
 71
452
 72
486
 73
476
 0
VERTEX
 8
0
 10
0.0
 20
0.0
 30
0.0
 70
128
 71
487
 72
485
 73
453
 0
VERTEX
 8
0
 10
0.0
 20
0.0
 30
0.0
 70
128
 71
487
 72
453
 73
477
 0
VERTEX
 8
0
 10
0.0
 20
0.0
 30
0.0
 70
128
 71
452
 72
462
 73
478
 0
VERTEX
 8
0
 10
0.0
 20
0.0
 30
0.0
 70
128
 71
452
 72
478
 73
484
 0
VERTEX
 8
0
 10
0.0
 20
0.0
 30
0.0
 70
128
 71
479
 72
463
 73
453
 0
VERTEX
 8
0
 10
0.0
 20
0.0
 30
0.0
 70
128
 71
479
 72
453
 73
485
 0
VERTEX
 8
0
 10
0.0
 20
0.0
 30
0.0
 70
128
 71
458
 72
478
 73
462
 0
VERTEX
 8
0
 10
0.0
 20
0.0
 30
0.0
 70
128
 71
458
 72
462
 73
460
 0
VERTEX
 8
0
 10
0.0
 20
0.0
 30
0.0
 70
128
 71
463
 72
479
 73
459
 0
VERTEX
 8
0
 10
0.0
 20
0.0
 30
0.0
 70
128
 71
463
 72
459
 73
461
 0
VERTEX
 8
0
 10
0.0
 20
0.0
 30
0.0
 70
128
 71
454
 72
474
 73
456
 0
VERTEX
 8
0
 10
0.0
 20
0.0
 30
0.0
 70
128
 71
474
 72
480
 73
456
 0
VERTEX
 8
0
 10
0.0
 20
0.0
 30
0.0
 70
128
 71
481
 72
475
 73
457
 0
VERTEX
 8
0
 10
0.0
 20
0.0
 30
0.0
 70
128
 71
475
 72
455
 73
457
 0
VERTEX
 8
0
 10
0.0
 20
0.0
 30
0.0
 70
128
 71
472
 72
482
 73
480
 0
VERTEX
 8
0
 10
0.0
 20
0.0
 30
0.0
 70
128
 71
472
 72
480
 73
474
 0
VERTEX
 8
0
 10
0.0
 20
0.0
 30
0.0
 70
128
 71
481
 72
483
 73
473
 0
VERTEX
 8
0
 10
0.0
 20
0.0
 30
0.0
 70
128
 71
481
 72
473
 73
475
 0
VERTEX
 8
0
 10
0.0
 20
0.0
 30
0.0
 70
128
 71
470
 72
488
 73
482
 0
VERTEX
 8
0
 10
0.0
 20
0.0
 30
0.0
 70
128
 71
470
 72
482
 73
472
 0
VERTEX
 8
0
 10
0.0
 20
0.0
 30
0.0
 70
128
 71
483
 72
489
 73
471
 0
VERTEX
 8
0
 10
0.0
 20
0.0
 30
0.0
 70
128
 71
483
 72
471
 73
473
 0
VERTEX
 8
0
 10
0.0
 20
0.0
 30
0.0
 70
128
 71
468
 72
490
 73
488
 0
VERTEX
 8
0
 10
0.0
 20
0.0
 30
0.0
 70
128
 71
468
 72
488
 73
470
 0
VERTEX
 8
0
 10
0.0
 20
0.0
 30
0.0
 70
128
 71
489
 72
491
 73
469
 0
VERTEX
 8
0
 10
0.0
 20
0.0
 30
0.0
 70
128
 71
489
 72
469
 73
471
 0
VERTEX
 8
0
 10
0.0
 20
0.0
 30
0.0
 70
128
 71
466
 72
492
 73
490
 0
VERTEX
 8
0
 10
0.0
 20
0.0
 30
0.0
 70
128
 71
466
 72
490
 73
468
 0
VERTEX
 8
0
 10
0.0
 20
0.0
 30
0.0
 70
128
 71
491
 72
493
 73
467
 0
VERTEX
 8
0
 10
0.0
 20
0.0
 30
0.0
 70
128
 71
491
 72
467
 73
469
 0
VERTEX
 8
0
 10
0.0
 20
0.0
 30
0.0
 70
128
 71
464
 72
492
 73
466
 0
VERTEX
 8
0
 10
0.0
 20
0.0
 30
0.0
 70
128
 71
467
 72
493
 73
465
 0
VERTEX
 8
0
 10
0.0
 20
0.0
 30
0.0
 70
128
 71
392
 72
390
 73
504
 0
VERTEX
 8
0
 10
0.0
 20
0.0
 30
0.0
 70
128
 71
392
 72
504
 73
502
 0
VERTEX
 8
0
 10
0.0
 20
0.0
 30
0.0
 70
128
 71
505
 72
391
 73
393
 0
VERTEX
 8
0
 10
0.0
 20
0.0
 30
0.0
 70
128
 71
505
 72
393
 73
503
 0
VERTEX
 8
0
 10
0.0
 20
0.0
 30
0.0
 70
128
 71
394
 72
392
 73
502
 0
VERTEX
 8
0
 10
0.0
 20
0.0
 30
0.0
 70
128
 71
394
 72
502
 73
500
 0
VERTEX
 8
0
 10
0.0
 20
0.0
 30
0.0
 70
128
 71
503
 72
393
 73
395
 0
VERTEX
 8
0
 10
0.0
 20
0.0
 30
0.0
 70
128
 71
503
 72
395
 73
501
 0
VERTEX
 8
0
 10
0.0
 20
0.0
 30
0.0
 70
128
 71
396
 72
394
 73
500
 0
VERTEX
 8
0
 10
0.0
 20
0.0
 30
0.0
 70
128
 71
396
 72
500
 73
498
 0
VERTEX
 8
0
 10
0.0
 20
0.0
 30
0.0
 70
128
 71
501
 72
395
 73
397
 0
VERTEX
 8
0
 10
0.0
 20
0.0
 30
0.0
 70
128
 71
501
 72
397
 73
499
 0
VERTEX
 8
0
 10
0.0
 20
0.0
 30
0.0
 70
128
 71
398
 72
396
 73
498
 0
VERTEX
 8
0
 10
0.0
 20
0.0
 30
0.0
 70
128
 71
398
 72
498
 73
496
 0
VERTEX
 8
0
 10
0.0
 20
0.0
 30
0.0
 70
128
 71
499
 72
397
 73
399
 0
VERTEX
 8
0
 10
0.0
 20
0.0
 30
0.0
 70
128
 71
499
 72
399
 73
497
 0
VERTEX
 8
0
 10
0.0
 20
0.0
 30
0.0
 70
128
 71
400
 72
398
 73
496
 0
VERTEX
 8
0
 10
0.0
 20
0.0
 30
0.0
 70
128
 71
400
 72
496
 73
494
 0
VERTEX
 8
0
 10
0.0
 20
0.0
 30
0.0
 70
128
 71
497
 72
399
 73
401
 0
VERTEX
 8
0
 10
0.0
 20
0.0
 30
0.0
 70
128
 71
497
 72
401
 73
495
 0
VERTEX
 8
0
 10
0.0
 20
0.0
 30
0.0
 70
128
 71
388
 72
400
 73
494
 0
VERTEX
 8
0
 10
0.0
 20
0.0
 30
0.0
 70
128
 71
388
 72
494
 73
506
 0
VERTEX
 8
0
 10
0.0
 20
0.0
 30
0.0
 70
128
 71
495
 72
401
 73
389
 0
VERTEX
 8
0
 10
0.0
 20
0.0
 30
0.0
 70
128
 71
495
 72
389
 73
507
 0
VERTEX
 8
0
 10
0.0
 20
0.0
 30
0.0
 70
128
 71
494
 72
502
 73
504
 0
VERTEX
 8
0
 10
0.0
 20
0.0
 30
0.0
 70
128
 71
494
 72
504
 73
506
 0
VERTEX
 8
0
 10
0.0
 20
0.0
 30
0.0
 70
128
 71
505
 72
503
 73
495
 0
VERTEX
 8
0
 10
0.0
 20
0.0
 30
0.0
 70
128
 71
505
 72
495
 73
507
 0
VERTEX
 8
0
 10
0.0
 20
0.0
 30
0.0
 70
128
 71
494
 72
496
 73
500
 0
VERTEX
 8
0
 10
0.0
 20
0.0
 30
0.0
 70
128
 71
494
 72
500
 73
502
 0
VERTEX
 8
0
 10
0.0
 20
0.0
 30
0.0
 70
128
 71
501
 72
497
 73
495
 0
VERTEX
 8
0
 10
0.0
 20
0.0
 30
0.0
 70
128
 71
501
 72
495
 73
503
 0
VERTEX
 8
0
 10
0.0
 20
0.0
 30
0.0
 70
128
 71
496
 72
498
 73
500
 0
VERTEX
 8
0
 10
0.0
 20
0.0
 30
0.0
 70
128
 71
501
 72
499
 73
497
 0
VERTEX
 8
0
 10
0.0
 20
0.0
 30
0.0
 70
128
 71
314
 72
382
 73
388
 0
VERTEX
 8
0
 10
0.0
 20
0.0
 30
0.0
 70
128
 71
314
 72
388
 73
506
 0
VERTEX
 8
0
 10
0.0
 20
0.0
 30
0.0
 70
128
 71
389
 72
383
 73
315
 0
VERTEX
 8
0
 10
0.0
 20
0.0
 30
0.0
 70
128
 71
389
 72
315
 73
507
 0
VERTEX
 8
0
 10
0.0
 20
0.0
 30
0.0
 70
128
 71
314
 72
506
 73
504
 0
VERTEX
 8
0
 10
0.0
 20
0.0
 30
0.0
 70
128
 71
314
 72
504
 73
322
 0
VERTEX
 8
0
 10
0.0
 20
0.0
 30
0.0
 70
128
 71
505
 72
507
 73
315
 0
VERTEX
 8
0
 10
0.0
 20
0.0
 30
0.0
 70
128
 71
505
 72
315
 73
323
 0
VERTEX
 8
0
 10
0.0
 20
0.0
 30
0.0
 70
128
 71
320
 72
322
 73
504
 0
VERTEX
 8
0
 10
0.0
 20
0.0
 30
0.0
 70
128
 71
320
 72
504
 73
390
 0
VERTEX
 8
0
 10
0.0
 20
0.0
 30
0.0
 70
128
 71
505
 72
323
 73
321
 0
VERTEX
 8
0
 10
0.0
 20
0.0
 30
0.0
 70
128
 71
505
 72
321
 73
391
 0
SEQEND
 8
0
 0
ENDSEC
 0
EOF
