 0
SECTION
 2
HEADER
 9
$ACADVER
 1
AC1009
 9
$INSBASE
 10
0.0
 20
0.0
 30
0.0
 9
$EXTMIN
 10
0.0
 20
0.0
 30
0.0
 9
$EXTMAX
 10
0.0
 20
0.0
 30
0.0
 0
ENDSEC
 0
SECTION
 2
ENTITIES
 0
POLYLINE
 8
0
 70
64
 66
1
 10
0.0
 20
0.0
 30
0.0
 71
40
 72
38
 0
VERTEX
 8
0
 10
-0.014
 20
-0.014
 30
0.0
 70
192
 0
VERTEX
 8
0
 10
-0.02
 20
0.02
 30
0.006
 70
192
 0
VERTEX
 8
0
 10
-0.014
 20
0.014
 30
0.0
 70
192
 0
VERTEX
 8
0
 10
0.014
 20
0.014
 30
0.0
 70
192
 0
VERTEX
 8
0
 10
0.014
 20
-0.014
 30
0.0
 70
192
 0
VERTEX
 8
0
 10
-0.02
 20
-0.02
 30
0.014
 70
192
 0
VERTEX
 8
0
 10
0.02
 20
0.02
 30
0.014
 70
192
 0
VERTEX
 8
0
 10
0.02
 20
0.02
 30
0.006
 70
192
 0
VERTEX
 8
0
 10
0.02
 20
-0.02
 30
0.006
 70
192
 0
VERTEX
 8
0
 10
0.02
 20
-0.02
 30
0.014
 70
192
 0
VERTEX
 8
0
 10
-0.02
 20
-0.02
 30
0.006
 70
192
 0
VERTEX
 8
0
 10
0.014
 20
0.014
 30
0.02
 70
192
 0
VERTEX
 8
0
 10
-0.02
 20
0.02
 30
0.014
 70
192
 0
VERTEX
 8
0
 10
-0.014
 20
0.014
 30
0.02
 70
192
 0
VERTEX
 8
0
 10
-0.014
 20
-0.014
 30
0.02
 70
192
 0
VERTEX
 8
0
 10
0.014
 20
-0.014
 30
0.02
 70
192
 0
VERTEX
 8
0
 10
-0.01
 20
-0.01
 30
0.02
 70
192
 0
VERTEX
 8
0
 10
0.01
 20
0.01
 30
0.02
 70
192
 0
VERTEX
 8
0
 10
-0.01
 20
0.01
 30
0.02
 70
192
 0
VERTEX
 8
0
 10
0.01
 20
0.01
 30
0.88
 70
192
 0
VERTEX
 8
0
 10
0.01
 20
-0.01
 30
0.02
 70
192
 0
VERTEX
 8
0
 10
0.01
 20
-0.01
 30
0.88
 70
192
 0
VERTEX
 8
0
 10
-0.01
 20
-0.01
 30
0.88
 70
192
 0
VERTEX
 8
0
 10
-0.01
 20
0.01
 30
0.88
 70
192
 0
VERTEX
 8
0
 10
-0.014
 20
-0.014
 30
0.88
 70
192
 0
VERTEX
 8
0
 10
0.014
 20
0.014
 30
0.88
 70
192
 0
VERTEX
 8
0
 10
-0.014
 20
0.014
 30
0.88
 70
192
 0
VERTEX
 8
0
 10
0.014
 20
-0.014
 30
0.88
 70
192
 0
VERTEX
 8
0
 10
0.02
 20
-0.02
 30
0.886
 70
192
 0
VERTEX
 8
0
 10
-0.02
 20
-0.02
 30
0.886
 70
192
 0
VERTEX
 8
0
 10
-0.02
 20
0.02
 30
0.894
 70
192
 0
VERTEX
 8
0
 10
-0.02
 20
0.02
 30
0.886
 70
192
 0
VERTEX
 8
0
 10
0.02
 20
0.02
 30
0.886
 70
192
 0
VERTEX
 8
0
 10
0.02
 20
-0.02
 30
0.894
 70
192
 0
VERTEX
 8
0
 10
-0.02
 20
-0.02
 30
0.894
 70
192
 0
VERTEX
 8
0
 10
-0.014
 20
-0.014
 30
0.9
 70
192
 0
VERTEX
 8
0
 10
-0.014
 20
0.014
 30
0.9
 70
192
 0
VERTEX
 8
0
 10
0.02
 20
0.02
 30
0.894
 70
192
 0
VERTEX
 8
0
 10
0.014
 20
0.014
 30
0.9
 70
192
 0
VERTEX
 8
0
 10
0.014
 20
-0.014
 30
0.9
 70
192
 0
VERTEX
 8
0
 10
0.0
 20
0.0
 30
0.0
 70
128
 71
1
 72
3
 73
4
 74
5
 0
VERTEX
 8
0
 10
0.0
 20
0.0
 30
0.0
 70
128
 71
1
 72
11
 73
2
 74
3
 0
VERTEX
 8
0
 10
0.0
 20
0.0
 30
0.0
 70
128
 71
3
 72
2
 73
8
 74
4
 0
VERTEX
 8
0
 10
0.0
 20
0.0
 30
0.0
 70
128
 71
4
 72
8
 73
9
 74
5
 0
VERTEX
 8
0
 10
0.0
 20
0.0
 30
0.0
 70
128
 71
11
 72
1
 73
5
 74
9
 0
VERTEX
 8
0
 10
0.0
 20
0.0
 30
0.0
 70
128
 71
11
 72
6
 73
13
 74
2
 0
VERTEX
 8
0
 10
0.0
 20
0.0
 30
0.0
 70
128
 71
2
 72
13
 73
7
 74
8
 0
VERTEX
 8
0
 10
0.0
 20
0.0
 30
0.0
 70
128
 71
8
 72
7
 73
10
 74
9
 0
VERTEX
 8
0
 10
0.0
 20
0.0
 30
0.0
 70
128
 71
9
 72
10
 73
6
 74
11
 0
VERTEX
 8
0
 10
0.0
 20
0.0
 30
0.0
 70
128
 71
14
 72
13
 73
6
 74
15
 0
VERTEX
 8
0
 10
0.0
 20
0.0
 30
0.0
 70
128
 71
12
 72
7
 73
13
 74
14
 0
VERTEX
 8
0
 10
0.0
 20
0.0
 30
0.0
 70
128
 71
16
 72
10
 73
7
 74
12
 0
VERTEX
 8
0
 10
0.0
 20
0.0
 30
0.0
 70
128
 71
15
 72
6
 73
10
 74
16
 0
VERTEX
 8
0
 10
0.0
 20
0.0
 30
0.0
 70
128
 71
14
 72
15
 73
17
 74
19
 0
VERTEX
 8
0
 10
0.0
 20
0.0
 30
0.0
 70
128
 71
12
 72
14
 73
19
 74
18
 0
VERTEX
 8
0
 10
0.0
 20
0.0
 30
0.0
 70
128
 71
18
 72
21
 73
16
 74
12
 0
VERTEX
 8
0
 10
0.0
 20
0.0
 30
0.0
 70
128
 71
15
 72
16
 73
21
 74
17
 0
VERTEX
 8
0
 10
0.0
 20
0.0
 30
0.0
 70
128
 71
19
 72
17
 73
23
 74
24
 0
VERTEX
 8
0
 10
0.0
 20
0.0
 30
0.0
 70
128
 71
18
 72
19
 73
24
 74
20
 0
VERTEX
 8
0
 10
0.0
 20
0.0
 30
0.0
 70
128
 71
21
 72
18
 73
20
 74
22
 0
VERTEX
 8
0
 10
0.0
 20
0.0
 30
0.0
 70
128
 71
17
 72
21
 73
22
 74
23
 0
VERTEX
 8
0
 10
0.0
 20
0.0
 30
0.0
 70
128
 71
25
 72
27
 73
24
 74
23
 0
VERTEX
 8
0
 10
0.0
 20
0.0
 30
0.0
 70
128
 71
27
 72
26
 73
20
 74
24
 0
VERTEX
 8
0
 10
0.0
 20
0.0
 30
0.0
 70
128
 71
22
 72
20
 73
26
 74
28
 0
VERTEX
 8
0
 10
0.0
 20
0.0
 30
0.0
 70
128
 71
28
 72
25
 73
23
 74
22
 0
VERTEX
 8
0
 10
0.0
 20
0.0
 30
0.0
 70
128
 71
32
 72
27
 73
25
 74
30
 0
VERTEX
 8
0
 10
0.0
 20
0.0
 30
0.0
 70
128
 71
33
 72
26
 73
27
 74
32
 0
VERTEX
 8
0
 10
0.0
 20
0.0
 30
0.0
 70
128
 71
29
 72
28
 73
26
 74
33
 0
VERTEX
 8
0
 10
0.0
 20
0.0
 30
0.0
 70
128
 71
30
 72
25
 73
28
 74
29
 0
VERTEX
 8
0
 10
0.0
 20
0.0
 30
0.0
 70
128
 71
30
 72
35
 73
31
 74
32
 0
VERTEX
 8
0
 10
0.0
 20
0.0
 30
0.0
 70
128
 71
32
 72
31
 73
38
 74
33
 0
VERTEX
 8
0
 10
0.0
 20
0.0
 30
0.0
 70
128
 71
33
 72
38
 73
34
 74
29
 0
VERTEX
 8
0
 10
0.0
 20
0.0
 30
0.0
 70
128
 71
29
 72
34
 73
35
 74
30
 0
VERTEX
 8
0
 10
0.0
 20
0.0
 30
0.0
 70
128
 71
35
 72
36
 73
37
 74
31
 0
VERTEX
 8
0
 10
0.0
 20
0.0
 30
0.0
 70
128
 71
31
 72
37
 73
39
 74
38
 0
VERTEX
 8
0
 10
0.0
 20
0.0
 30
0.0
 70
128
 71
38
 72
39
 73
40
 74
34
 0
VERTEX
 8
0
 10
0.0
 20
0.0
 30
0.0
 70
128
 71
34
 72
40
 73
36
 74
35
 0
VERTEX
 8
0
 10
0.0
 20
0.0
 30
0.0
 70
128
 71
37
 72
36
 73
40
 74
39
 0
SEQEND
 8
0
 0
ENDSEC
 0
EOF
