 0
SECTION
 2
HEADER
 9
$ACADVER
 1
AC1009
 9
$INSBASE
 10
0.0
 20
0.0
 30
0.0
 9
$EXTMIN
 10
0.0
 20
0.0
 30
0.0
 9
$EXTMAX
 10
0.0
 20
0.0
 30
0.0
 0
ENDSEC
 0
SECTION
 2
ENTITIES
 0
POLYLINE
 8
0
 70
64
 66
1
 10
0.0
 20
0.0
 30
0.0
 71
48
 72
44
 0
VERTEX
 8
0
 10
-0.025
 20
0.025
 30
0.0
 70
192
 0
VERTEX
 8
0
 10
-0.025
 20
-0.025
 30
0.0
 70
192
 0
VERTEX
 8
0
 10
-0.025
 20
0.025
 30
0.17
 70
192
 0
VERTEX
 8
0
 10
0.025
 20
0.025
 30
0.17
 70
192
 0
VERTEX
 8
0
 10
0.025
 20
0.025
 30
0.0
 70
192
 0
VERTEX
 8
0
 10
0.025
 20
-0.025
 30
0.17
 70
192
 0
VERTEX
 8
0
 10
0.025
 20
-0.025
 30
0.0
 70
192
 0
VERTEX
 8
0
 10
-0.025
 20
-0.025
 30
0.17
 70
192
 0
VERTEX
 8
0
 10
-0.019
 20
0.019
 30
0.17
 70
192
 0
VERTEX
 8
0
 10
-0.019
 20
-0.019
 30
0.17
 70
192
 0
VERTEX
 8
0
 10
0.019
 20
0.019
 30
0.19
 70
192
 0
VERTEX
 8
0
 10
-0.019
 20
0.019
 30
0.19
 70
192
 0
VERTEX
 8
0
 10
-0.025
 20
0.025
 30
0.184
 70
192
 0
VERTEX
 8
0
 10
-0.025
 20
-0.025
 30
0.184
 70
192
 0
VERTEX
 8
0
 10
0.025
 20
-0.025
 30
0.184
 70
192
 0
VERTEX
 8
0
 10
0.019
 20
-0.019
 30
0.19
 70
192
 0
VERTEX
 8
0
 10
0.025
 20
0.025
 30
0.184
 70
192
 0
VERTEX
 8
0
 10
0.019
 20
0.019
 30
0.17
 70
192
 0
VERTEX
 8
0
 10
-0.019
 20
-0.019
 30
0.19
 70
192
 0
VERTEX
 8
0
 10
0.015
 20
0.015
 30
0.19
 70
192
 0
VERTEX
 8
0
 10
-0.015
 20
0.015
 30
1.0
 70
192
 0
VERTEX
 8
0
 10
-0.025
 20
-0.025
 30
0.176
 70
192
 0
VERTEX
 8
0
 10
0.025
 20
0.025
 30
0.176
 70
192
 0
VERTEX
 8
0
 10
0.025
 20
-0.025
 30
0.176
 70
192
 0
VERTEX
 8
0
 10
-0.025
 20
0.025
 30
0.176
 70
192
 0
VERTEX
 8
0
 10
0.019
 20
-0.019
 30
0.17
 70
192
 0
VERTEX
 8
0
 10
-0.015
 20
0.015
 30
0.19
 70
192
 0
VERTEX
 8
0
 10
-0.015
 20
-0.015
 30
0.19
 70
192
 0
VERTEX
 8
0
 10
0.015
 20
0.015
 30
1.0
 70
192
 0
VERTEX
 8
0
 10
-0.015
 20
-0.015
 30
1.0
 70
192
 0
VERTEX
 8
0
 10
0.019
 20
0.019
 30
1.0
 70
192
 0
VERTEX
 8
0
 10
0.015
 20
-0.015
 30
0.19
 70
192
 0
VERTEX
 8
0
 10
0.015
 20
-0.015
 30
1.0
 70
192
 0
VERTEX
 8
0
 10
-0.019
 20
-0.019
 30
1.0
 70
192
 0
VERTEX
 8
0
 10
0.025
 20
-0.025
 30
1.006
 70
192
 0
VERTEX
 8
0
 10
0.019
 20
-0.019
 30
1.0
 70
192
 0
VERTEX
 8
0
 10
-0.019
 20
0.019
 30
1.0
 70
192
 0
VERTEX
 8
0
 10
-0.025
 20
-0.025
 30
1.006
 70
192
 0
VERTEX
 8
0
 10
0.025
 20
0.025
 30
1.006
 70
192
 0
VERTEX
 8
0
 10
0.025
 20
0.025
 30
1.014
 70
192
 0
VERTEX
 8
0
 10
-0.025
 20
0.025
 30
1.014
 70
192
 0
VERTEX
 8
0
 10
-0.025
 20
0.025
 30
1.006
 70
192
 0
VERTEX
 8
0
 10
0.025
 20
-0.025
 30
1.014
 70
192
 0
VERTEX
 8
0
 10
-0.025
 20
-0.025
 30
1.014
 70
192
 0
VERTEX
 8
0
 10
-0.019
 20
0.019
 30
1.02
 70
192
 0
VERTEX
 8
0
 10
-0.019
 20
-0.019
 30
1.02
 70
192
 0
VERTEX
 8
0
 10
0.019
 20
-0.019
 30
1.02
 70
192
 0
VERTEX
 8
0
 10
0.019
 20
0.019
 30
1.02
 70
192
 0
VERTEX
 8
0
 10
0.0
 20
0.0
 30
0.0
 70
128
 71
2
 72
1
 73
5
 74
7
 0
VERTEX
 8
0
 10
0.0
 20
0.0
 30
0.0
 70
128
 71
1
 72
2
 73
8
 74
3
 0
VERTEX
 8
0
 10
0.0
 20
0.0
 30
0.0
 70
128
 71
5
 72
1
 73
3
 74
4
 0
VERTEX
 8
0
 10
0.0
 20
0.0
 30
0.0
 70
128
 71
7
 72
5
 73
4
 74
6
 0
VERTEX
 8
0
 10
0.0
 20
0.0
 30
0.0
 70
128
 71
2
 72
7
 73
6
 74
8
 0
VERTEX
 8
0
 10
0.0
 20
0.0
 30
0.0
 70
128
 71
3
 72
8
 73
6
 74
4
 0
VERTEX
 8
0
 10
0.0
 20
0.0
 30
0.0
 70
128
 71
11
 72
17
 73
13
 74
12
 0
VERTEX
 8
0
 10
0.0
 20
0.0
 30
0.0
 70
128
 71
16
 72
15
 73
17
 74
11
 0
VERTEX
 8
0
 10
0.0
 20
0.0
 30
0.0
 70
128
 71
25
 72
13
 73
17
 74
23
 0
VERTEX
 8
0
 10
0.0
 20
0.0
 30
0.0
 70
128
 71
12
 72
13
 73
14
 74
19
 0
VERTEX
 8
0
 10
0.0
 20
0.0
 30
0.0
 70
128
 71
11
 72
12
 73
27
 74
20
 0
VERTEX
 8
0
 10
0.0
 20
0.0
 30
0.0
 70
128
 71
19
 72
14
 73
15
 74
16
 0
VERTEX
 8
0
 10
0.0
 20
0.0
 30
0.0
 70
128
 71
23
 72
17
 73
15
 74
24
 0
VERTEX
 8
0
 10
0.0
 20
0.0
 30
0.0
 70
128
 71
20
 72
32
 73
16
 74
11
 0
VERTEX
 8
0
 10
0.0
 20
0.0
 30
0.0
 70
128
 71
22
 72
14
 73
13
 74
25
 0
VERTEX
 8
0
 10
0.0
 20
0.0
 30
0.0
 70
128
 71
9
 72
25
 73
23
 74
18
 0
VERTEX
 8
0
 10
0.0
 20
0.0
 30
0.0
 70
128
 71
12
 72
19
 73
28
 74
27
 0
VERTEX
 8
0
 10
0.0
 20
0.0
 30
0.0
 70
128
 71
20
 72
27
 73
21
 74
29
 0
VERTEX
 8
0
 10
0.0
 20
0.0
 30
0.0
 70
128
 71
24
 72
15
 73
14
 74
22
 0
VERTEX
 8
0
 10
0.0
 20
0.0
 30
0.0
 70
128
 71
19
 72
16
 73
32
 74
28
 0
VERTEX
 8
0
 10
0.0
 20
0.0
 30
0.0
 70
128
 71
18
 72
23
 73
24
 74
26
 0
VERTEX
 8
0
 10
0.0
 20
0.0
 30
0.0
 70
128
 71
32
 72
20
 73
29
 74
33
 0
VERTEX
 8
0
 10
0.0
 20
0.0
 30
0.0
 70
128
 71
10
 72
22
 73
25
 74
9
 0
VERTEX
 8
0
 10
0.0
 20
0.0
 30
0.0
 70
128
 71
10
 72
9
 73
18
 74
26
 0
VERTEX
 8
0
 10
0.0
 20
0.0
 30
0.0
 70
128
 71
27
 72
28
 73
30
 74
21
 0
VERTEX
 8
0
 10
0.0
 20
0.0
 30
0.0
 70
128
 71
37
 72
31
 73
29
 74
21
 0
VERTEX
 8
0
 10
0.0
 20
0.0
 30
0.0
 70
128
 71
26
 72
24
 73
22
 74
10
 0
VERTEX
 8
0
 10
0.0
 20
0.0
 30
0.0
 70
128
 71
28
 72
32
 73
33
 74
30
 0
VERTEX
 8
0
 10
0.0
 20
0.0
 30
0.0
 70
128
 71
33
 72
29
 73
31
 74
36
 0
VERTEX
 8
0
 10
0.0
 20
0.0
 30
0.0
 70
128
 71
34
 72
37
 73
21
 74
30
 0
VERTEX
 8
0
 10
0.0
 20
0.0
 30
0.0
 70
128
 71
36
 72
34
 73
30
 74
33
 0
VERTEX
 8
0
 10
0.0
 20
0.0
 30
0.0
 70
128
 71
39
 72
31
 73
37
 74
42
 0
VERTEX
 8
0
 10
0.0
 20
0.0
 30
0.0
 70
128
 71
35
 72
36
 73
31
 74
39
 0
VERTEX
 8
0
 10
0.0
 20
0.0
 30
0.0
 70
128
 71
42
 72
37
 73
34
 74
38
 0
VERTEX
 8
0
 10
0.0
 20
0.0
 30
0.0
 70
128
 71
38
 72
34
 73
36
 74
35
 0
VERTEX
 8
0
 10
0.0
 20
0.0
 30
0.0
 70
128
 71
42
 72
41
 73
40
 74
39
 0
VERTEX
 8
0
 10
0.0
 20
0.0
 30
0.0
 70
128
 71
39
 72
40
 73
43
 74
35
 0
VERTEX
 8
0
 10
0.0
 20
0.0
 30
0.0
 70
128
 71
38
 72
44
 73
41
 74
42
 0
VERTEX
 8
0
 10
0.0
 20
0.0
 30
0.0
 70
128
 71
35
 72
43
 73
44
 74
38
 0
VERTEX
 8
0
 10
0.0
 20
0.0
 30
0.0
 70
128
 71
41
 72
45
 73
48
 74
40
 0
VERTEX
 8
0
 10
0.0
 20
0.0
 30
0.0
 70
128
 71
40
 72
48
 73
47
 74
43
 0
VERTEX
 8
0
 10
0.0
 20
0.0
 30
0.0
 70
128
 71
44
 72
46
 73
45
 74
41
 0
VERTEX
 8
0
 10
0.0
 20
0.0
 30
0.0
 70
128
 71
43
 72
47
 73
46
 74
44
 0
VERTEX
 8
0
 10
0.0
 20
0.0
 30
0.0
 70
128
 71
45
 72
46
 73
47
 74
48
 0
SEQEND
 8
0
 0
ENDSEC
 0
EOF
