 0
SECTION
 2
HEADER
 9
$ACADVER
 1
AC1009
 9
$INSBASE
 10
0.0
 20
0.0
 30
0.0
 9
$EXTMIN
 10
0.0
 20
0.0
 30
0.0
 9
$EXTMAX
 10
0.0
 20
0.0
 30
0.0
 0
ENDSEC
 0
SECTION
 2
TABLES
 0
TABLE
 2
VPORT
 70
1
 0
VPORT
 2
*ACTIVE
 70
0
 10
0.0
 20
0.0
 11
1.0
 21
1.0
 12
-5.0
 22
1.0
 13
0.0
 23
0.0
 14
0.1
 24
0.1
 15
0.1
 25
0.1
 16
0.0
 26
0.0
 36
1.0
 17
0.0
 27
0.0
 37
0.0
 40
10.0
 41
1.0
 42
50.0
 43
0.0
 44
0.0
 50
0.0
 51
0.0
 71
0
 72
100
 73
1
 74
1
 75
0
 76
0
 77
0
 78
0
 0
ENDTAB
 0
TABLE
 2
LTYPE
 70
8
 0
LTYPE
 2
CONTINUOUS
 70
0
 3
Solid line
 72
65
 73
0
 40
0.0
 0
LTYPE
 2
DOT
 70
0
 3
. . . . . . .
 72
65
 73
2
 40
0.25
 49
0.0
 49
-0.25
 0
LTYPE
 2
DASHED
 70
0
 3
__ __ __ __ __
 72
65
 73
2
 40
0.8
 49
0.5
 49
-0.3
 0
LTYPE
 2
DASHDOT
 70
0
 3
__ . __ . __ .
 72
65
 73
4
 40
1.0
 49
0.5
 49
-0.25
 49
0.0
 49
-0.25
 0
LTYPE
 2
DIVIDE
 70
0
 3
____ . . ____ . .
 72
65
 73
6
 40
1.25
 49
0.5
 49
-0.25
 49
0.0
 49
-0.25
 49
0.0
 49
-0.25
 0
LTYPE
 2
BORDER
 70
0
 3
__ __ . __ __ .
 72
65
 73
6
 40
1.75
 49
0.5
 49
-0.25
 49
0.5
 49
-0.25
 49
0.0
 49
-0.25
 0
LTYPE
 2
HIDDEN
 70
0
 3
__ __ __ __ __
 72
65
 73
2
 40
0.4
 49
0.25
 49
-0.25
 0
LTYPE
 2
CENTER
 70
0
 3
____ _ ____ _ __
 72
65
 73
4
 40
2.0
 49
1.25
 49
-0.25
 49
0.25
 49
-0.25
 0
ENDTAB
 0
TABLE
 2
LAYER
 70
1
 0
LAYER
 2
PYDXF
 70
64
 62
7
 6
continuous
 0
ENDTAB
 0
TABLE
 2
STYLE
 70
1
 0
STYLE
 2
STANDARD
 70
0
 40
0
 41
1.0
 50
0.0
 71
0
 42
1
 3
ARIAL.TTF
 4

 0
ENDTAB
 0
TABLE
 2
VIEW
 70
1
 0
VIEW
 2
BF_TOPVIEW
 70
0
 40
120.0
 10
0.0
 20
0.0
 41
200.0
 11
0.0
 21
0.0
 31
1.0
 12
0.0
 22
0.0
 32
0.0
 42
50.0
 43
0.0
 44
0.0
 50
0.0
 71
0
 0
ENDTAB
 0
ENDSEC
 0
SECTION
 2
BLOCKS
 0
ENDSEC
 0
SECTION
 2
ENTITIES
 0
POLYLINE
 8
0
 70
64
 66
1
 10
0.0
 20
0.0
 30
0.0
 71
80
 72
82
 0
VERTEX
 8
0
 10
0.1
 20
-0.04
 30
2.94
 70
192
 0
VERTEX
 8
0
 10
0.04
 20
-0.1
 30
0.96
 70
192
 0
VERTEX
 8
0
 10
0.1
 20
0.1
 30
2.999999523162842
 70
192
 0
VERTEX
 8
0
 10
0.1
 20
-0.1
 30
2.999999523162842
 70
192
 0
VERTEX
 8
0
 10
0.04
 20
-0.1
 30
2.94
 70
192
 0
VERTEX
 8
0
 10
0.1
 20
0.04
 30
0.96
 70
192
 0
VERTEX
 8
0
 10
0.1
 20
-0.04
 30
0.96
 70
192
 0
VERTEX
 8
0
 10
-0.04
 20
-0.1
 30
2.94
 70
192
 0
VERTEX
 8
0
 10
-0.04
 20
-0.1
 30
0.96
 70
192
 0
VERTEX
 8
0
 10
-0.1
 20
-0.1
 30
0.9
 70
192
 0
VERTEX
 8
0
 10
0.1
 20
-0.1
 30
0.9
 70
192
 0
VERTEX
 8
0
 10
0.04
 20
0.1
 30
0.96
 70
192
 0
VERTEX
 8
0
 10
0.1
 20
0.04
 30
2.94
 70
192
 0
VERTEX
 8
0
 10
0.04
 20
0.1
 30
2.94
 70
192
 0
VERTEX
 8
0
 10
0.1
 20
-0.1
 30
3.16
 70
192
 0
VERTEX
 8
0
 10
0.1
 20
0.1
 30
3.16
 70
192
 0
VERTEX
 8
0
 10
0.07
 20
0.07
 30
3.16
 70
192
 0
VERTEX
 8
0
 10
-0.1
 20
-0.1
 30
2.999999523162842
 70
192
 0
VERTEX
 8
0
 10
-0.1
 20
-0.1
 30
3.16
 70
192
 0
VERTEX
 8
0
 10
-0.1
 20
-0.04
 30
2.94
 70
192
 0
VERTEX
 8
0
 10
-0.1
 20
-0.04
 30
0.96
 70
192
 0
VERTEX
 8
0
 10
0.1
 20
-0.1
 30
0.74
 70
192
 0
VERTEX
 8
0
 10
-0.1
 20
-0.1
 30
0.74
 70
192
 0
VERTEX
 8
0
 10
0.1
 20
0.1
 30
0.9
 70
192
 0
VERTEX
 8
0
 10
-0.04
 20
0.1
 30
0.96
 70
192
 0
VERTEX
 8
0
 10
-0.04
 20
0.1
 30
2.94
 70
192
 0
VERTEX
 8
0
 10
-0.1
 20
0.1
 30
2.999999523162842
 70
192
 0
VERTEX
 8
0
 10
-0.1
 20
0.1
 30
3.16
 70
192
 0
VERTEX
 8
0
 10
0.07
 20
-0.07
 30
3.16
 70
192
 0
VERTEX
 8
0
 10
0.07
 20
-0.07
 30
3.19
 70
192
 0
VERTEX
 8
0
 10
-0.1
 20
0.04
 30
0.96
 70
192
 0
VERTEX
 8
0
 10
-0.1
 20
0.04
 30
2.94
 70
192
 0
VERTEX
 8
0
 10
-0.1
 20
0.1
 30
0.9
 70
192
 0
VERTEX
 8
0
 10
-0.1
 20
0.1
 30
0.74
 70
192
 0
VERTEX
 8
0
 10
-0.07
 20
-0.07
 30
0.74
 70
192
 0
VERTEX
 8
0
 10
0.07
 20
-0.07
 30
0.74
 70
192
 0
VERTEX
 8
0
 10
0.1
 20
0.1
 30
0.74
 70
192
 0
VERTEX
 8
0
 10
0.13
 20
0.13
 30
3.19
 70
192
 0
VERTEX
 8
0
 10
0.07
 20
0.07
 30
3.19
 70
192
 0
VERTEX
 8
0
 10
-0.07
 20
0.07
 30
3.19
 70
192
 0
VERTEX
 8
0
 10
-0.07
 20
0.07
 30
3.16
 70
192
 0
VERTEX
 8
0
 10
-0.07
 20
-0.07
 30
3.16
 70
192
 0
VERTEX
 8
0
 10
-0.07
 20
-0.07
 30
3.19
 70
192
 0
VERTEX
 8
0
 10
-0.07
 20
0.07
 30
0.74
 70
192
 0
VERTEX
 8
0
 10
-0.07
 20
-0.07
 30
0.71
 70
192
 0
VERTEX
 8
0
 10
0.07
 20
0.07
 30
0.74
 70
192
 0
VERTEX
 8
0
 10
-0.13
 20
0.13
 30
3.19
 70
192
 0
VERTEX
 8
0
 10
0.13
 20
-0.13
 30
3.27
 70
192
 0
VERTEX
 8
0
 10
0.13
 20
-0.13
 30
3.19
 70
192
 0
VERTEX
 8
0
 10
0.13
 20
-0.13
 30
0.67
 70
192
 0
VERTEX
 8
0
 10
-0.13
 20
-0.13
 30
0.67
 70
192
 0
VERTEX
 8
0
 10
0.07
 20
-0.07
 30
0.71
 70
192
 0
VERTEX
 8
0
 10
0.16
 20
0.16
 30
3.27
 70
192
 0
VERTEX
 8
0
 10
0.13
 20
0.13
 30
3.27
 70
192
 0
VERTEX
 8
0
 10
-0.13
 20
-0.13
 30
3.19
 70
192
 0
VERTEX
 8
0
 10
-0.13
 20
-0.13
 30
3.27
 70
192
 0
VERTEX
 8
0
 10
-0.16
 20
-0.16
 30
3.27
 70
192
 0
VERTEX
 8
0
 10
-0.07
 20
0.07
 30
0.71
 70
192
 0
VERTEX
 8
0
 10
0.13
 20
-0.13
 30
0.06
 70
192
 0
VERTEX
 8
0
 10
0.07
 20
0.07
 30
0.71
 70
192
 0
VERTEX
 8
0
 10
0.13
 20
0.13
 30
0.67
 70
192
 0
VERTEX
 8
0
 10
-0.13
 20
0.13
 30
3.27
 70
192
 0
VERTEX
 8
0
 10
-0.16
 20
0.16
 30
3.27
 70
192
 0
VERTEX
 8
0
 10
0.16
 20
0.16
 30
3.3
 70
192
 0
VERTEX
 8
0
 10
0.16
 20
-0.16
 30
3.3
 70
192
 0
VERTEX
 8
0
 10
0.16
 20
-0.16
 30
3.27
 70
192
 0
VERTEX
 8
0
 10
-0.16
 20
-0.16
 30
3.3
 70
192
 0
VERTEX
 8
0
 10
-0.13
 20
-0.13
 30
0.06
 70
192
 0
VERTEX
 8
0
 10
-0.16
 20
-0.16
 30
0.06
 70
192
 0
VERTEX
 8
0
 10
-0.13
 20
0.13
 30
0.06
 70
192
 0
VERTEX
 8
0
 10
-0.13
 20
0.13
 30
0.67
 70
192
 0
VERTEX
 8
0
 10
0.13
 20
0.13
 30
0.06
 70
192
 0
VERTEX
 8
0
 10
-0.16
 20
0.16
 30
3.3
 70
192
 0
VERTEX
 8
0
 10
-0.16
 20
0.16
 30
0.06
 70
192
 0
VERTEX
 8
0
 10
0.16
 20
-0.16
 30
0.0
 70
192
 0
VERTEX
 8
0
 10
0.16
 20
-0.16
 30
0.06
 70
192
 0
VERTEX
 8
0
 10
0.16
 20
0.16
 30
0.0
 70
192
 0
VERTEX
 8
0
 10
0.16
 20
0.16
 30
0.06
 70
192
 0
VERTEX
 8
0
 10
-0.16
 20
-0.16
 30
0.0
 70
192
 0
VERTEX
 8
0
 10
-0.16
 20
0.16
 30
0.0
 70
192
 0
VERTEX
 8
0
 10
0.0
 20
0.0
 30
0.0
 70
128
 71
5
 72
1
 73
4
 0
VERTEX
 8
0
 10
0.0
 20
0.0
 30
0.0
 70
128
 71
7
 72
1
 73
5
 74
2
 0
VERTEX
 8
0
 10
0.0
 20
0.0
 30
0.0
 70
128
 71
1
 72
13
 73
3
 74
4
 0
VERTEX
 8
0
 10
0.0
 20
0.0
 30
0.0
 70
128
 71
8
 72
5
 73
4
 74
18
 0
VERTEX
 8
0
 10
0.0
 20
0.0
 30
0.0
 70
128
 71
2
 72
5
 73
8
 74
9
 0
VERTEX
 8
0
 10
0.0
 20
0.0
 30
0.0
 70
128
 71
7
 72
2
 73
11
 0
VERTEX
 8
0
 10
0.0
 20
0.0
 30
0.0
 70
128
 71
1
 72
7
 73
6
 74
13
 0
VERTEX
 8
0
 10
0.0
 20
0.0
 30
0.0
 70
128
 71
13
 72
14
 73
3
 0
VERTEX
 8
0
 10
0.0
 20
0.0
 30
0.0
 70
128
 71
16
 72
15
 73
4
 74
3
 0
VERTEX
 8
0
 10
0.0
 20
0.0
 30
0.0
 70
128
 71
19
 72
18
 73
4
 74
15
 0
VERTEX
 8
0
 10
0.0
 20
0.0
 30
0.0
 70
128
 71
18
 72
20
 73
8
 0
VERTEX
 8
0
 10
0.0
 20
0.0
 30
0.0
 70
128
 71
9
 72
8
 73
20
 74
21
 0
VERTEX
 8
0
 10
0.0
 20
0.0
 30
0.0
 70
128
 71
9
 72
10
 73
11
 74
2
 0
VERTEX
 8
0
 10
0.0
 20
0.0
 30
0.0
 70
128
 71
7
 72
11
 73
24
 74
6
 0
VERTEX
 8
0
 10
0.0
 20
0.0
 30
0.0
 70
128
 71
12
 72
14
 73
13
 74
6
 0
VERTEX
 8
0
 10
0.0
 20
0.0
 30
0.0
 70
128
 71
26
 72
27
 73
3
 74
14
 0
VERTEX
 8
0
 10
0.0
 20
0.0
 30
0.0
 70
128
 71
15
 72
16
 73
17
 74
29
 0
VERTEX
 8
0
 10
0.0
 20
0.0
 30
0.0
 70
128
 71
16
 72
3
 73
27
 74
28
 0
VERTEX
 8
0
 10
0.0
 20
0.0
 30
0.0
 70
128
 71
28
 72
27
 73
18
 74
19
 0
VERTEX
 8
0
 10
0.0
 20
0.0
 30
0.0
 70
128
 71
42
 72
19
 73
15
 74
29
 0
VERTEX
 8
0
 10
0.0
 20
0.0
 30
0.0
 70
128
 71
20
 72
18
 73
27
 74
32
 0
VERTEX
 8
0
 10
0.0
 20
0.0
 30
0.0
 70
128
 71
32
 72
31
 73
21
 74
20
 0
VERTEX
 8
0
 10
0.0
 20
0.0
 30
0.0
 70
128
 71
21
 72
10
 73
9
 0
VERTEX
 8
0
 10
0.0
 20
0.0
 30
0.0
 70
128
 71
22
 72
11
 73
10
 74
23
 0
VERTEX
 8
0
 10
0.0
 20
0.0
 30
0.0
 70
128
 71
37
 72
24
 73
11
 74
22
 0
VERTEX
 8
0
 10
0.0
 20
0.0
 30
0.0
 70
128
 71
12
 72
6
 73
24
 0
VERTEX
 8
0
 10
0.0
 20
0.0
 30
0.0
 70
128
 71
14
 72
12
 73
25
 74
26
 0
VERTEX
 8
0
 10
0.0
 20
0.0
 30
0.0
 70
128
 71
26
 72
32
 73
27
 0
VERTEX
 8
0
 10
0.0
 20
0.0
 30
0.0
 70
128
 71
41
 72
17
 73
16
 74
28
 0
VERTEX
 8
0
 10
0.0
 20
0.0
 30
0.0
 70
128
 71
17
 72
39
 73
30
 74
29
 0
VERTEX
 8
0
 10
0.0
 20
0.0
 30
0.0
 70
128
 71
42
 72
41
 73
28
 74
19
 0
VERTEX
 8
0
 10
0.0
 20
0.0
 30
0.0
 70
128
 71
43
 72
42
 73
29
 74
30
 0
VERTEX
 8
0
 10
0.0
 20
0.0
 30
0.0
 70
128
 71
31
 72
32
 73
26
 74
25
 0
VERTEX
 8
0
 10
0.0
 20
0.0
 30
0.0
 70
128
 71
21
 72
31
 73
33
 74
10
 0
VERTEX
 8
0
 10
0.0
 20
0.0
 30
0.0
 70
128
 71
34
 72
23
 73
10
 74
33
 0
VERTEX
 8
0
 10
0.0
 20
0.0
 30
0.0
 70
128
 71
22
 72
23
 73
35
 74
36
 0
VERTEX
 8
0
 10
0.0
 20
0.0
 30
0.0
 70
128
 71
37
 72
34
 73
33
 74
24
 0
VERTEX
 8
0
 10
0.0
 20
0.0
 30
0.0
 70
128
 71
36
 72
46
 73
37
 74
22
 0
VERTEX
 8
0
 10
0.0
 20
0.0
 30
0.0
 70
128
 71
25
 72
12
 73
24
 74
33
 0
VERTEX
 8
0
 10
0.0
 20
0.0
 30
0.0
 70
128
 71
41
 72
40
 73
39
 74
17
 0
VERTEX
 8
0
 10
0.0
 20
0.0
 30
0.0
 70
128
 71
38
 72
49
 73
30
 74
39
 0
VERTEX
 8
0
 10
0.0
 20
0.0
 30
0.0
 70
128
 71
40
 72
41
 73
42
 74
43
 0
VERTEX
 8
0
 10
0.0
 20
0.0
 30
0.0
 70
128
 71
43
 72
30
 73
49
 74
55
 0
VERTEX
 8
0
 10
0.0
 20
0.0
 30
0.0
 70
128
 71
31
 72
25
 73
33
 0
VERTEX
 8
0
 10
0.0
 20
0.0
 30
0.0
 70
128
 71
44
 72
35
 73
23
 74
34
 0
VERTEX
 8
0
 10
0.0
 20
0.0
 30
0.0
 70
128
 71
35
 72
45
 73
52
 74
36
 0
VERTEX
 8
0
 10
0.0
 20
0.0
 30
0.0
 70
128
 71
44
 72
34
 73
37
 74
46
 0
VERTEX
 8
0
 10
0.0
 20
0.0
 30
0.0
 70
128
 71
60
 72
46
 73
36
 74
52
 0
VERTEX
 8
0
 10
0.0
 20
0.0
 30
0.0
 70
128
 71
38
 72
39
 73
40
 74
47
 0
VERTEX
 8
0
 10
0.0
 20
0.0
 30
0.0
 70
128
 71
38
 72
54
 73
48
 74
49
 0
VERTEX
 8
0
 10
0.0
 20
0.0
 30
0.0
 70
128
 71
55
 72
47
 73
40
 74
43
 0
VERTEX
 8
0
 10
0.0
 20
0.0
 30
0.0
 70
128
 71
56
 72
55
 73
49
 74
48
 0
VERTEX
 8
0
 10
0.0
 20
0.0
 30
0.0
 70
128
 71
44
 72
58
 73
45
 74
35
 0
VERTEX
 8
0
 10
0.0
 20
0.0
 30
0.0
 70
128
 71
50
 72
52
 73
45
 74
51
 0
VERTEX
 8
0
 10
0.0
 20
0.0
 30
0.0
 70
128
 71
58
 72
44
 73
46
 74
60
 0
VERTEX
 8
0
 10
0.0
 20
0.0
 30
0.0
 70
128
 71
50
 72
61
 73
60
 74
52
 0
VERTEX
 8
0
 10
0.0
 20
0.0
 30
0.0
 70
128
 71
47
 72
62
 73
54
 74
38
 0
VERTEX
 8
0
 10
0.0
 20
0.0
 30
0.0
 70
128
 71
53
 72
66
 73
48
 74
54
 0
VERTEX
 8
0
 10
0.0
 20
0.0
 30
0.0
 70
128
 71
62
 72
47
 73
55
 74
56
 0
VERTEX
 8
0
 10
0.0
 20
0.0
 30
0.0
 70
128
 71
56
 72
48
 73
66
 74
57
 0
VERTEX
 8
0
 10
0.0
 20
0.0
 30
0.0
 70
128
 71
71
 72
51
 73
45
 74
58
 0
VERTEX
 8
0
 10
0.0
 20
0.0
 30
0.0
 70
128
 71
51
 72
68
 73
59
 74
50
 0
VERTEX
 8
0
 10
0.0
 20
0.0
 30
0.0
 70
128
 71
58
 72
60
 73
61
 74
71
 0
VERTEX
 8
0
 10
0.0
 20
0.0
 30
0.0
 70
128
 71
72
 72
61
 73
50
 74
59
 0
VERTEX
 8
0
 10
0.0
 20
0.0
 30
0.0
 70
128
 71
53
 72
54
 73
62
 74
63
 0
VERTEX
 8
0
 10
0.0
 20
0.0
 30
0.0
 70
128
 71
53
 72
64
 73
65
 74
66
 0
VERTEX
 8
0
 10
0.0
 20
0.0
 30
0.0
 70
128
 71
57
 72
63
 73
62
 74
56
 0
VERTEX
 8
0
 10
0.0
 20
0.0
 30
0.0
 70
128
 71
67
 72
57
 73
66
 74
65
 0
VERTEX
 8
0
 10
0.0
 20
0.0
 30
0.0
 70
128
 71
71
 72
70
 73
68
 74
51
 0
VERTEX
 8
0
 10
0.0
 20
0.0
 30
0.0
 70
128
 71
76
 72
59
 73
68
 74
69
 0
VERTEX
 8
0
 10
0.0
 20
0.0
 30
0.0
 70
128
 71
70
 72
71
 73
61
 74
72
 0
VERTEX
 8
0
 10
0.0
 20
0.0
 30
0.0
 70
128
 71
76
 72
78
 73
72
 74
59
 0
VERTEX
 8
0
 10
0.0
 20
0.0
 30
0.0
 70
128
 71
63
 72
73
 73
64
 74
53
 0
VERTEX
 8
0
 10
0.0
 20
0.0
 30
0.0
 70
128
 71
73
 72
67
 73
65
 74
64
 0
VERTEX
 8
0
 10
0.0
 20
0.0
 30
0.0
 70
128
 71
57
 72
67
 73
73
 74
63
 0
VERTEX
 8
0
 10
0.0
 20
0.0
 30
0.0
 70
128
 71
74
 72
69
 73
68
 74
70
 0
VERTEX
 8
0
 10
0.0
 20
0.0
 30
0.0
 70
128
 71
69
 72
79
 73
75
 74
76
 0
VERTEX
 8
0
 10
0.0
 20
0.0
 30
0.0
 70
128
 71
70
 72
72
 73
78
 74
74
 0
VERTEX
 8
0
 10
0.0
 20
0.0
 30
0.0
 70
128
 71
76
 72
75
 73
77
 74
78
 0
VERTEX
 8
0
 10
0.0
 20
0.0
 30
0.0
 70
128
 71
74
 72
80
 73
79
 74
69
 0
VERTEX
 8
0
 10
0.0
 20
0.0
 30
0.0
 70
128
 71
79
 72
80
 73
77
 74
75
 0
VERTEX
 8
0
 10
0.0
 20
0.0
 30
0.0
 70
128
 71
80
 72
74
 73
78
 74
77
 0
SEQEND
 8
0
 0
ENDSEC
 0
EOF
