 0
SECTION
 2
HEADER
 9
$ACADVER
 1
AC1009
 0
ENDSEC
 0
SECTION
 2
BLOCKS
 0
BLOCK
 8
0
 2
$MODEL_SPACE
 70
0
 10
0
 20
0
 30
0
 3
$MODEL_SPACE
 0
ENDBLK
 8
0
 0
BLOCK
 8
0
 2
$PAPER_SPACE
 70
0
 10
0
 20
0
 30
0
 3
$PAPER_SPACE
 0
ENDBLK
 8
0
 0
ENDSEC
 0
SECTION
 2
ENTITIES
 0
POLYLINE
 8
0
 62
0
 66
1
 10
0
 20
0
 30
0
 70
64
 71
0
 72
0
 0
SEQEND
 0
POLYLINE
 8
0
 66
1
 10
0.0
 20
0.0
 30
0.0
 70
64
 71
80
 72
82
 0
VERTEX
 8
0
 10
0.0615
 20
-0.0246
 30
1.82
 70
192
 0
VERTEX
 8
0
 10
0.0246
 20
-0.0615
 30
0.7466666666666671
 70
192
 0
VERTEX
 8
0
 10
0.0615
 20
0.0615
 30
1.8666666666666689
 70
192
 0
VERTEX
 8
0
 10
0.0615
 20
-0.0615
 30
1.8666666666666689
 70
192
 0
VERTEX
 8
0
 10
0.0246
 20
-0.0615
 30
1.82
 70
192
 0
VERTEX
 8
0
 10
0.0615
 20
0.0246
 30
0.7466666666666671
 70
192
 0
VERTEX
 8
0
 10
0.0615
 20
-0.0246
 30
0.7466666666666671
 70
192
 0
VERTEX
 8
0
 10
-0.0246
 20
-0.0615
 30
1.82
 70
192
 0
VERTEX
 8
0
 10
-0.0246
 20
-0.0615
 30
0.7466666666666671
 70
192
 0
VERTEX
 8
0
 10
-0.0615
 20
-0.0615
 30
0.7
 70
192
 0
VERTEX
 8
0
 10
0.0615
 20
-0.0615
 30
0.7
 70
192
 0
VERTEX
 8
0
 10
0.0246
 20
0.0615
 30
0.7466666666666671
 70
192
 0
VERTEX
 8
0
 10
0.0615
 20
0.0246
 30
1.82
 70
192
 0
VERTEX
 8
0
 10
0.0246
 20
0.0615
 30
1.82
 70
192
 0
VERTEX
 8
0
 10
0.0615
 20
-0.0615
 30
1.9911111111111099
 70
192
 0
VERTEX
 8
0
 10
0.0615
 20
0.0615
 30
1.9911111111111099
 70
192
 0
VERTEX
 8
0
 10
0.04305
 20
0.04305
 30
1.9911111111111099
 70
192
 0
VERTEX
 8
0
 10
-0.0615
 20
-0.0615
 30
1.8666666666666689
 70
192
 0
VERTEX
 8
0
 10
-0.0615
 20
-0.0615
 30
1.9911111111111099
 70
192
 0
VERTEX
 8
0
 10
-0.0615
 20
-0.0246
 30
1.82
 70
192
 0
VERTEX
 8
0
 10
-0.0615
 20
-0.0246
 30
0.7466666666666671
 70
192
 0
VERTEX
 8
0
 10
0.0615
 20
-0.0615
 30
0.575555555555556
 70
192
 0
VERTEX
 8
0
 10
-0.0615
 20
-0.0615
 30
0.575555555555556
 70
192
 0
VERTEX
 8
0
 10
0.0615
 20
0.0615
 30
0.7
 70
192
 0
VERTEX
 8
0
 10
-0.0246
 20
0.0615
 30
0.7466666666666671
 70
192
 0
VERTEX
 8
0
 10
-0.0246
 20
0.0615
 30
1.82
 70
192
 0
VERTEX
 8
0
 10
-0.0615
 20
0.0615
 30
1.8666666666666689
 70
192
 0
VERTEX
 8
0
 10
-0.0615
 20
0.0615
 30
1.9911111111111099
 70
192
 0
VERTEX
 8
0
 10
0.04305
 20
-0.04305
 30
1.9911111111111099
 70
192
 0
VERTEX
 8
0
 10
0.04305
 20
-0.04305
 30
2.01444444444444
 70
192
 0
VERTEX
 8
0
 10
-0.0615
 20
0.0246
 30
0.7466666666666671
 70
192
 0
VERTEX
 8
0
 10
-0.0615
 20
0.0246
 30
1.82
 70
192
 0
VERTEX
 8
0
 10
-0.0615
 20
0.0615
 30
0.7
 70
192
 0
VERTEX
 8
0
 10
-0.0615
 20
0.0615
 30
0.575555555555556
 70
192
 0
VERTEX
 8
0
 10
-0.04305
 20
-0.04305
 30
0.575555555555556
 70
192
 0
VERTEX
 8
0
 10
0.04305
 20
-0.04305
 30
0.575555555555556
 70
192
 0
VERTEX
 8
0
 10
0.0615
 20
0.0615
 30
0.575555555555556
 70
192
 0
VERTEX
 8
0
 10
0.07995
 20
0.07995
 30
2.01444444444444
 70
192
 0
VERTEX
 8
0
 10
0.04305
 20
0.04305
 30
2.01444444444444
 70
192
 0
VERTEX
 8
0
 10
-0.04305
 20
0.04305
 30
2.01444444444444
 70
192
 0
VERTEX
 8
0
 10
-0.04305
 20
0.04305
 30
1.9911111111111099
 70
192
 0
VERTEX
 8
0
 10
-0.04305
 20
-0.04305
 30
1.9911111111111099
 70
192
 0
VERTEX
 8
0
 10
-0.04305
 20
-0.04305
 30
2.01444444444444
 70
192
 0
VERTEX
 8
0
 10
-0.04305
 20
0.04305
 30
0.575555555555556
 70
192
 0
VERTEX
 8
0
 10
-0.04305
 20
-0.04305
 30
0.5522222222222221
 70
192
 0
VERTEX
 8
0
 10
0.04305
 20
0.04305
 30
0.575555555555556
 70
192
 0
VERTEX
 8
0
 10
-0.07995
 20
0.07995
 30
2.01444444444444
 70
192
 0
VERTEX
 8
0
 10
0.07995
 20
-0.07995
 30
2.0766666666666689
 70
192
 0
VERTEX
 8
0
 10
0.07995
 20
-0.07995
 30
2.01444444444444
 70
192
 0
VERTEX
 8
0
 10
0.07995
 20
-0.07995
 30
0.5211111111111111
 70
192
 0
VERTEX
 8
0
 10
-0.07995
 20
-0.07995
 30
0.5211111111111111
 70
192
 0
VERTEX
 8
0
 10
0.04305
 20
-0.04305
 30
0.5522222222222221
 70
192
 0
VERTEX
 8
0
 10
0.0984
 20
0.0984
 30
2.0766666666666689
 70
192
 0
VERTEX
 8
0
 10
0.07995
 20
0.07995
 30
2.0766666666666689
 70
192
 0
VERTEX
 8
0
 10
-0.07995
 20
-0.07995
 30
2.01444444444444
 70
192
 0
VERTEX
 8
0
 10
-0.07995
 20
-0.07995
 30
2.0766666666666689
 70
192
 0
VERTEX
 8
0
 10
-0.0984
 20
-0.0984
 30
2.0766666666666689
 70
192
 0
VERTEX
 8
0
 10
-0.04305
 20
0.04305
 30
0.5522222222222221
 70
192
 0
VERTEX
 8
0
 10
0.07995
 20
-0.07995
 30
0.0466666666666667
 70
192
 0
VERTEX
 8
0
 10
0.04305
 20
0.04305
 30
0.5522222222222221
 70
192
 0
VERTEX
 8
0
 10
0.07995
 20
0.07995
 30
0.5211111111111111
 70
192
 0
VERTEX
 8
0
 10
-0.07995
 20
0.07995
 30
2.0766666666666689
 70
192
 0
VERTEX
 8
0
 10
-0.0984
 20
0.0984
 30
2.0766666666666689
 70
192
 0
VERTEX
 8
0
 10
0.0984
 20
0.0984
 30
2.1
 70
192
 0
VERTEX
 8
0
 10
0.0984
 20
-0.0984
 30
2.1
 70
192
 0
VERTEX
 8
0
 10
0.0984
 20
-0.0984
 30
2.0766666666666689
 70
192
 0
VERTEX
 8
0
 10
-0.0984
 20
-0.0984
 30
2.1
 70
192
 0
VERTEX
 8
0
 10
-0.07995
 20
-0.07995
 30
0.0466666666666667
 70
192
 0
VERTEX
 8
0
 10
-0.0984
 20
-0.0984
 30
0.0466666666666667
 70
192
 0
VERTEX
 8
0
 10
-0.07995
 20
0.07995
 30
0.0466666666666667
 70
192
 0
VERTEX
 8
0
 10
-0.07995
 20
0.07995
 30
0.5211111111111111
 70
192
 0
VERTEX
 8
0
 10
0.07995
 20
0.07995
 30
0.0466666666666667
 70
192
 0
VERTEX
 8
0
 10
-0.0984
 20
0.0984
 30
2.1
 70
192
 0
VERTEX
 8
0
 10
-0.0984
 20
0.0984
 30
0.0466666666666667
 70
192
 0
VERTEX
 8
0
 10
0.0984
 20
-0.0984
 30
0.0
 70
192
 0
VERTEX
 8
0
 10
0.0984
 20
-0.0984
 30
0.0466666666666667
 70
192
 0
VERTEX
 8
0
 10
0.0984
 20
0.0984
 30
0.0
 70
192
 0
VERTEX
 8
0
 10
0.0984
 20
0.0984
 30
0.0466666666666667
 70
192
 0
VERTEX
 8
0
 10
-0.0984
 20
-0.0984
 30
0.0
 70
192
 0
VERTEX
 8
0
 10
-0.0984
 20
0.0984
 30
0.0
 70
192
 0
VERTEX
 8
0
 10
0.0
 20
0.0
 30
0.0
 70
128
 71
5
 72
1
 73
4
 0
VERTEX
 8
0
 10
0.0
 20
0.0
 30
0.0
 70
128
 71
7
 72
1
 73
5
 74
2
 0
VERTEX
 8
0
 10
0.0
 20
0.0
 30
0.0
 70
128
 71
1
 72
13
 73
3
 74
4
 0
VERTEX
 8
0
 10
0.0
 20
0.0
 30
0.0
 70
128
 71
8
 72
5
 73
4
 74
18
 0
VERTEX
 8
0
 10
0.0
 20
0.0
 30
0.0
 70
128
 71
2
 72
5
 73
8
 74
9
 0
VERTEX
 8
0
 10
0.0
 20
0.0
 30
0.0
 70
128
 71
7
 72
2
 73
11
 0
VERTEX
 8
0
 10
0.0
 20
0.0
 30
0.0
 70
128
 71
1
 72
7
 73
6
 74
13
 0
VERTEX
 8
0
 10
0.0
 20
0.0
 30
0.0
 70
128
 71
13
 72
14
 73
3
 0
VERTEX
 8
0
 10
0.0
 20
0.0
 30
0.0
 70
128
 71
16
 72
15
 73
4
 74
3
 0
VERTEX
 8
0
 10
0.0
 20
0.0
 30
0.0
 70
128
 71
19
 72
18
 73
4
 74
15
 0
VERTEX
 8
0
 10
0.0
 20
0.0
 30
0.0
 70
128
 71
18
 72
20
 73
8
 0
VERTEX
 8
0
 10
0.0
 20
0.0
 30
0.0
 70
128
 71
9
 72
8
 73
20
 74
21
 0
VERTEX
 8
0
 10
0.0
 20
0.0
 30
0.0
 70
128
 71
9
 72
10
 73
11
 74
2
 0
VERTEX
 8
0
 10
0.0
 20
0.0
 30
0.0
 70
128
 71
7
 72
11
 73
24
 74
6
 0
VERTEX
 8
0
 10
0.0
 20
0.0
 30
0.0
 70
128
 71
12
 72
14
 73
13
 74
6
 0
VERTEX
 8
0
 10
0.0
 20
0.0
 30
0.0
 70
128
 71
26
 72
27
 73
3
 74
14
 0
VERTEX
 8
0
 10
0.0
 20
0.0
 30
0.0
 70
128
 71
15
 72
16
 73
17
 74
29
 0
VERTEX
 8
0
 10
0.0
 20
0.0
 30
0.0
 70
128
 71
16
 72
3
 73
27
 74
28
 0
VERTEX
 8
0
 10
0.0
 20
0.0
 30
0.0
 70
128
 71
28
 72
27
 73
18
 74
19
 0
VERTEX
 8
0
 10
0.0
 20
0.0
 30
0.0
 70
128
 71
42
 72
19
 73
15
 74
29
 0
VERTEX
 8
0
 10
0.0
 20
0.0
 30
0.0
 70
128
 71
20
 72
18
 73
27
 74
32
 0
VERTEX
 8
0
 10
0.0
 20
0.0
 30
0.0
 70
128
 71
32
 72
31
 73
21
 74
20
 0
VERTEX
 8
0
 10
0.0
 20
0.0
 30
0.0
 70
128
 71
21
 72
10
 73
9
 0
VERTEX
 8
0
 10
0.0
 20
0.0
 30
0.0
 70
128
 71
22
 72
11
 73
10
 74
23
 0
VERTEX
 8
0
 10
0.0
 20
0.0
 30
0.0
 70
128
 71
37
 72
24
 73
11
 74
22
 0
VERTEX
 8
0
 10
0.0
 20
0.0
 30
0.0
 70
128
 71
12
 72
6
 73
24
 0
VERTEX
 8
0
 10
0.0
 20
0.0
 30
0.0
 70
128
 71
14
 72
12
 73
25
 74
26
 0
VERTEX
 8
0
 10
0.0
 20
0.0
 30
0.0
 70
128
 71
26
 72
32
 73
27
 0
VERTEX
 8
0
 10
0.0
 20
0.0
 30
0.0
 70
128
 71
41
 72
17
 73
16
 74
28
 0
VERTEX
 8
0
 10
0.0
 20
0.0
 30
0.0
 70
128
 71
17
 72
39
 73
30
 74
29
 0
VERTEX
 8
0
 10
0.0
 20
0.0
 30
0.0
 70
128
 71
42
 72
41
 73
28
 74
19
 0
VERTEX
 8
0
 10
0.0
 20
0.0
 30
0.0
 70
128
 71
43
 72
42
 73
29
 74
30
 0
VERTEX
 8
0
 10
0.0
 20
0.0
 30
0.0
 70
128
 71
31
 72
32
 73
26
 74
25
 0
VERTEX
 8
0
 10
0.0
 20
0.0
 30
0.0
 70
128
 71
21
 72
31
 73
33
 74
10
 0
VERTEX
 8
0
 10
0.0
 20
0.0
 30
0.0
 70
128
 71
34
 72
23
 73
10
 74
33
 0
VERTEX
 8
0
 10
0.0
 20
0.0
 30
0.0
 70
128
 71
22
 72
23
 73
35
 74
36
 0
VERTEX
 8
0
 10
0.0
 20
0.0
 30
0.0
 70
128
 71
37
 72
34
 73
33
 74
24
 0
VERTEX
 8
0
 10
0.0
 20
0.0
 30
0.0
 70
128
 71
36
 72
46
 73
37
 74
22
 0
VERTEX
 8
0
 10
0.0
 20
0.0
 30
0.0
 70
128
 71
25
 72
12
 73
24
 74
33
 0
VERTEX
 8
0
 10
0.0
 20
0.0
 30
0.0
 70
128
 71
41
 72
40
 73
39
 74
17
 0
VERTEX
 8
0
 10
0.0
 20
0.0
 30
0.0
 70
128
 71
38
 72
49
 73
30
 74
39
 0
VERTEX
 8
0
 10
0.0
 20
0.0
 30
0.0
 70
128
 71
40
 72
41
 73
42
 74
43
 0
VERTEX
 8
0
 10
0.0
 20
0.0
 30
0.0
 70
128
 71
43
 72
30
 73
49
 74
55
 0
VERTEX
 8
0
 10
0.0
 20
0.0
 30
0.0
 70
128
 71
31
 72
25
 73
33
 0
VERTEX
 8
0
 10
0.0
 20
0.0
 30
0.0
 70
128
 71
44
 72
35
 73
23
 74
34
 0
VERTEX
 8
0
 10
0.0
 20
0.0
 30
0.0
 70
128
 71
35
 72
45
 73
52
 74
36
 0
VERTEX
 8
0
 10
0.0
 20
0.0
 30
0.0
 70
128
 71
44
 72
34
 73
37
 74
46
 0
VERTEX
 8
0
 10
0.0
 20
0.0
 30
0.0
 70
128
 71
60
 72
46
 73
36
 74
52
 0
VERTEX
 8
0
 10
0.0
 20
0.0
 30
0.0
 70
128
 71
38
 72
39
 73
40
 74
47
 0
VERTEX
 8
0
 10
0.0
 20
0.0
 30
0.0
 70
128
 71
38
 72
54
 73
48
 74
49
 0
VERTEX
 8
0
 10
0.0
 20
0.0
 30
0.0
 70
128
 71
55
 72
47
 73
40
 74
43
 0
VERTEX
 8
0
 10
0.0
 20
0.0
 30
0.0
 70
128
 71
56
 72
55
 73
49
 74
48
 0
VERTEX
 8
0
 10
0.0
 20
0.0
 30
0.0
 70
128
 71
44
 72
58
 73
45
 74
35
 0
VERTEX
 8
0
 10
0.0
 20
0.0
 30
0.0
 70
128
 71
50
 72
52
 73
45
 74
51
 0
VERTEX
 8
0
 10
0.0
 20
0.0
 30
0.0
 70
128
 71
58
 72
44
 73
46
 74
60
 0
VERTEX
 8
0
 10
0.0
 20
0.0
 30
0.0
 70
128
 71
50
 72
61
 73
60
 74
52
 0
VERTEX
 8
0
 10
0.0
 20
0.0
 30
0.0
 70
128
 71
47
 72
62
 73
54
 74
38
 0
VERTEX
 8
0
 10
0.0
 20
0.0
 30
0.0
 70
128
 71
53
 72
66
 73
48
 74
54
 0
VERTEX
 8
0
 10
0.0
 20
0.0
 30
0.0
 70
128
 71
62
 72
47
 73
55
 74
56
 0
VERTEX
 8
0
 10
0.0
 20
0.0
 30
0.0
 70
128
 71
56
 72
48
 73
66
 74
57
 0
VERTEX
 8
0
 10
0.0
 20
0.0
 30
0.0
 70
128
 71
71
 72
51
 73
45
 74
58
 0
VERTEX
 8
0
 10
0.0
 20
0.0
 30
0.0
 70
128
 71
51
 72
68
 73
59
 74
50
 0
VERTEX
 8
0
 10
0.0
 20
0.0
 30
0.0
 70
128
 71
58
 72
60
 73
61
 74
71
 0
VERTEX
 8
0
 10
0.0
 20
0.0
 30
0.0
 70
128
 71
72
 72
61
 73
50
 74
59
 0
VERTEX
 8
0
 10
0.0
 20
0.0
 30
0.0
 70
128
 71
53
 72
54
 73
62
 74
63
 0
VERTEX
 8
0
 10
0.0
 20
0.0
 30
0.0
 70
128
 71
53
 72
64
 73
65
 74
66
 0
VERTEX
 8
0
 10
0.0
 20
0.0
 30
0.0
 70
128
 71
57
 72
63
 73
62
 74
56
 0
VERTEX
 8
0
 10
0.0
 20
0.0
 30
0.0
 70
128
 71
67
 72
57
 73
66
 74
65
 0
VERTEX
 8
0
 10
0.0
 20
0.0
 30
0.0
 70
128
 71
71
 72
70
 73
68
 74
51
 0
VERTEX
 8
0
 10
0.0
 20
0.0
 30
0.0
 70
128
 71
76
 72
59
 73
68
 74
69
 0
VERTEX
 8
0
 10
0.0
 20
0.0
 30
0.0
 70
128
 71
70
 72
71
 73
61
 74
72
 0
VERTEX
 8
0
 10
0.0
 20
0.0
 30
0.0
 70
128
 71
76
 72
78
 73
72
 74
59
 0
VERTEX
 8
0
 10
0.0
 20
0.0
 30
0.0
 70
128
 71
63
 72
73
 73
64
 74
53
 0
VERTEX
 8
0
 10
0.0
 20
0.0
 30
0.0
 70
128
 71
73
 72
67
 73
65
 74
64
 0
VERTEX
 8
0
 10
0.0
 20
0.0
 30
0.0
 70
128
 71
57
 72
67
 73
73
 74
63
 0
VERTEX
 8
0
 10
0.0
 20
0.0
 30
0.0
 70
128
 71
74
 72
69
 73
68
 74
70
 0
VERTEX
 8
0
 10
0.0
 20
0.0
 30
0.0
 70
128
 71
69
 72
79
 73
75
 74
76
 0
VERTEX
 8
0
 10
0.0
 20
0.0
 30
0.0
 70
128
 71
70
 72
72
 73
78
 74
74
 0
VERTEX
 8
0
 10
0.0
 20
0.0
 30
0.0
 70
128
 71
76
 72
75
 73
77
 74
78
 0
VERTEX
 8
0
 10
0.0
 20
0.0
 30
0.0
 70
128
 71
74
 72
80
 73
79
 74
69
 0
VERTEX
 8
0
 10
0.0
 20
0.0
 30
0.0
 70
128
 71
79
 72
80
 73
77
 74
75
 0
VERTEX
 8
0
 10
0.0
 20
0.0
 30
0.0
 70
128
 71
80
 72
74
 73
78
 74
77
 0
SEQEND
 8
0
 0
ENDSEC
 0
EOF
