 0
SECTION
 2
HEADER
 9
$ACADVER
 1
AC1009
 9
$INSBASE
 10
0.0
 20
0.0
 30
0.0
 9
$EXTMIN
 10
0.0
 20
0.0
 30
0.0
 9
$EXTMAX
 10
0.0
 20
0.0
 30
0.0
 0
ENDSEC
 0
SECTION
 2
TABLES
 0
TABLE
 2
VPORT
 70
1
 0
VPORT
 2
*ACTIVE
 70
0
 10
0.0
 20
0.0
 11
1.0
 21
1.0
 12
-5.0
 22
1.0
 13
0.0
 23
0.0
 14
0.1
 24
0.1
 15
0.1
 25
0.1
 16
0.0
 26
0.0
 36
1.0
 17
0.0
 27
0.0
 37
0.0
 40
10.0
 41
1.0
 42
50.0
 43
0.0
 44
0.0
 50
0.0
 51
0.0
 71
0
 72
100
 73
1
 74
1
 75
0
 76
0
 77
0
 78
0
 0
ENDTAB
 0
TABLE
 2
LTYPE
 70
8
 0
LTYPE
 2
CONTINUOUS
 70
0
 3
Solid line
 72
65
 73
0
 40
0.0
 0
LTYPE
 2
DOT
 70
0
 3
. . . . . . .
 72
65
 73
2
 40
0.25
 49
0.0
 49
-0.25
 0
LTYPE
 2
DASHED
 70
0
 3
__ __ __ __ __
 72
65
 73
2
 40
0.8
 49
0.5
 49
-0.3
 0
LTYPE
 2
DASHDOT
 70
0
 3
__ . __ . __ .
 72
65
 73
4
 40
1.0
 49
0.5
 49
-0.25
 49
0.0
 49
-0.25
 0
LTYPE
 2
DIVIDE
 70
0
 3
____ . . ____ . . 
 72
65
 73
6
 40
1.25
 49
0.5
 49
-0.25
 49
0.0
 49
-0.25
 49
0.0
 49
-0.25
 0
LTYPE
 2
BORDER
 70
0
 3
__ __ . __ __ . 
 72
65
 73
6
 40
1.75
 49
0.5
 49
-0.25
 49
0.5
 49
-0.25
 49
0.0
 49
-0.25
 0
LTYPE
 2
HIDDEN
 70
0
 3
__ __ __ __ __
 72
65
 73
2
 40
0.4
 49
0.25
 49
-0.25
 0
LTYPE
 2
CENTER
 70
0
 3
____ _ ____ _ __
 72
65
 73
4
 40
2.0
 49
1.25
 49
-0.25
 49
0.25
 49
-0.25
 0
ENDTAB
 0
TABLE
 2
LAYER
 70
1
 0
LAYER
 2
PYDXF
 70
64
 62
7
 6
continuous
 0
ENDTAB
 0
TABLE
 2
STYLE
 70
1
 0
STYLE
 2
STANDARD
 70
0
 40
0
 41
1.0
 50
0.0
 71
0
 42
1
 3
ARIAL.TTF
 4

 0
ENDTAB
 0
TABLE
 2
VIEW
 70
1
 0
VIEW
 2
BF_TOPVIEW
 70
0
 40
120.0
 10
0.0
 20
0.0
 41
200.0
 11
0.0
 21
0.0
 31
1.0
 12
0.0
 22
0.0
 32
0.0
 42
50.0
 43
0.0
 44
0.0
 50
0.0
 71
0
 0
ENDTAB
 0
ENDSEC
 0
SECTION
 2
BLOCKS
 0
ENDSEC
 0
SECTION
 2
ENTITIES
 0
POLYLINE
 8
0
 70
64
 66
1
 10
0
 20
0.25
 30
0
 71
557
 72
625
 0
VERTEX
 8
0
 10
-0.335
 20
0
 30
2.45
 70
192
 0
VERTEX
 8
0
 10
-0.335
 20
0
 30
2.46
 70
192
 0
VERTEX
 8
0
 10
-0.315
 20
-0.12
 30
2.43
 70
192
 0
VERTEX
 8
0
 10
-0.305
 20
0
 30
2.43
 70
192
 0
VERTEX
 8
0
 10
-0.315
 20
0
 30
2.43
 70
192
 0
VERTEX
 8
0
 10
-0.335
 20
-0.14
 30
2.46
 70
192
 0
VERTEX
 8
0
 10
-0.395
 20
0
 30
2.52
 70
192
 0
VERTEX
 8
0
 10
1.245
 20
-0.14
 30
2.45
 70
192
 0
VERTEX
 8
0
 10
1.225
 20
0
 30
2.43
 70
192
 0
VERTEX
 8
0
 10
1.225
 20
-0.12
 30
2.43
 70
192
 0
VERTEX
 8
0
 10
1.215
 20
0
 30
2.43
 70
192
 0
VERTEX
 8
0
 10
1.245
 20
0
 30
2.45
 70
192
 0
VERTEX
 8
0
 10
1.195
 20
0
 30
2.41
 70
192
 0
VERTEX
 8
0
 10
-0.305
 20
-0.11
 30
2.43
 70
192
 0
VERTEX
 8
0
 10
-0.335
 20
-0.14
 30
2.45
 70
192
 0
VERTEX
 8
0
 10
-0.395
 20
0
 30
2.46
 70
192
 0
VERTEX
 8
0
 10
1.305
 20
0
 30
2.46
 70
192
 0
VERTEX
 8
0
 10
1.245
 20
-0.14
 30
2.46
 70
192
 0
VERTEX
 8
0
 10
1.245
 20
0
 30
2.46
 70
192
 0
VERTEX
 8
0
 10
1.215
 20
-0.11
 30
2.43
 70
192
 0
VERTEX
 8
0
 10
1.215
 20
-0.11
 30
2.42
 70
192
 0
VERTEX
 8
0
 10
1.215
 20
0
 30
2.42
 70
192
 0
VERTEX
 8
0
 10
-0.305
 20
0
 30
2.42
 70
192
 0
VERTEX
 8
0
 10
-0.295
 20
-0.1
 30
2.42
 70
192
 0
VERTEX
 8
0
 10
-0.295
 20
0
 30
2.42
 70
192
 0
VERTEX
 8
0
 10
-0.285
 20
-0.09
 30
2.41
 70
192
 0
VERTEX
 8
0
 10
1.205
 20
0
 30
2.42
 70
192
 0
VERTEX
 8
0
 10
1.185
 20
0
 30
2.4
 70
192
 0
VERTEX
 8
0
 10
-0.305
 20
-0.11
 30
2.42
 70
192
 0
VERTEX
 8
0
 10
-0.395
 20
-0.2
 30
2.52
 70
192
 0
VERTEX
 8
0
 10
1.305
 20
0
 30
2.52
 70
192
 0
VERTEX
 8
0
 10
-0.285
 20
0
 30
2.41
 70
192
 0
VERTEX
 8
0
 10
1.205
 20
-0.1
 30
2.42
 70
192
 0
VERTEX
 8
0
 10
1.195
 20
-0.09
 30
2.41
 70
192
 0
VERTEX
 8
0
 10
1.195
 20
-0.09
 30
2.4
 70
192
 0
VERTEX
 8
0
 10
1.195
 20
0
 30
2.4
 70
192
 0
VERTEX
 8
0
 10
-0.275
 20
0
 30
2.21
 70
192
 0
VERTEX
 8
0
 10
-0.395
 20
-0.2
 30
2.46
 70
192
 0
VERTEX
 8
0
 10
1.305
 20
-0.2
 30
2.46
 70
192
 0
VERTEX
 8
0
 10
1.305
 20
-0.2
 30
2.52
 70
192
 0
VERTEX
 8
0
 10
-0.405
 20
-0.21
 30
2.53
 70
192
 0
VERTEX
 8
0
 10
-0.405
 20
0
 30
2.53
 70
192
 0
VERTEX
 8
0
 10
-0.405
 20
0
 30
2.52
 70
192
 0
VERTEX
 8
0
 10
-0.425
 20
0
 30
2.55
 70
192
 0
VERTEX
 8
0
 10
1.315
 20
-0.21
 30
2.52
 70
192
 0
VERTEX
 8
0
 10
1.315
 20
0
 30
2.53
 70
192
 0
VERTEX
 8
0
 10
1.315
 20
0
 30
2.52
 70
192
 0
VERTEX
 8
0
 10
-0.285
 20
-0.09
 30
2.4
 70
192
 0
VERTEX
 8
0
 10
-0.285
 20
0
 30
2.4
 70
192
 0
VERTEX
 8
0
 10
-0.275
 20
-0.08
 30
2.21
 70
192
 0
VERTEX
 8
0
 10
-0.275
 20
0
 30
2.4
 70
192
 0
VERTEX
 8
0
 10
1.185
 20
-0.08
 30
2.4
 70
192
 0
VERTEX
 8
0
 10
1.185
 20
-0.08
 30
2.21
 70
192
 0
VERTEX
 8
0
 10
1.185
 20
0
 30
2.21
 70
192
 0
VERTEX
 8
0
 10
1.185
 20
0
 30
2.2
 70
192
 0
VERTEX
 8
0
 10
-0.405
 20
-0.21
 30
2.52
 70
192
 0
VERTEX
 8
0
 10
-0.415
 20
0
 30
2.54
 70
192
 0
VERTEX
 8
0
 10
-0.415
 20
-0.22
 30
2.54
 70
192
 0
VERTEX
 8
0
 10
1.315
 20
-0.21
 30
2.53
 70
192
 0
VERTEX
 8
0
 10
-0.425
 20
0
 30
2.54
 70
192
 0
VERTEX
 8
0
 10
1.355
 20
0
 30
2.581
 70
192
 0
VERTEX
 8
0
 10
1.335
 20
0
 30
2.54
 70
192
 0
VERTEX
 8
0
 10
1.325
 20
-0.22
 30
2.54
 70
192
 0
VERTEX
 8
0
 10
1.325
 20
0
 30
2.54
 70
192
 0
VERTEX
 8
0
 10
-0.275
 20
-0.08
 30
2.4
 70
192
 0
VERTEX
 8
0
 10
-0.285
 20
-0.09
 30
2.21
 70
192
 0
VERTEX
 8
0
 10
-0.285
 20
0
 30
2.21
 70
192
 0
VERTEX
 8
0
 10
1.195
 20
0
 30
2.21
 70
192
 0
VERTEX
 8
0
 10
1.195
 20
0
 30
2.2
 70
192
 0
VERTEX
 8
0
 10
-0.473
 20
0
 30
2.591
 70
192
 0
VERTEX
 8
0
 10
1.195
 20
-0.09
 30
2.2
 70
192
 0
VERTEX
 8
0
 10
-0.285
 20
0
 30
2.2
 70
192
 0
VERTEX
 8
0
 10
-0.275
 20
0
 30
2.11
 70
192
 0
VERTEX
 8
0
 10
-0.015
 20
-0.08
 30
2.11
 70
192
 0
VERTEX
 8
0
 10
-0.015
 20
0
 30
2.11
 70
192
 0
VERTEX
 8
0
 10
0.925
 20
-0.08
 30
2.11
 70
192
 0
VERTEX
 8
0
 10
-0.435
 20
0
 30
2.556
 70
192
 0
VERTEX
 8
0
 10
-0.425
 20
-0.23
 30
2.55
 70
192
 0
VERTEX
 8
0
 10
-0.425
 20
-0.23
 30
2.54
 70
192
 0
VERTEX
 8
0
 10
1.335
 20
-0.23
 30
2.54
 70
192
 0
VERTEX
 8
0
 10
1.31085801124573
 20
-0.23
 30
2.55
 70
192
 0
VERTEX
 8
0
 10
-0.445
 20
0
 30
2.581
 70
192
 0
VERTEX
 8
0
 10
-0.435
 20
-0.24
 30
2.556
 70
192
 0
VERTEX
 8
0
 10
-0.445
 20
-0.25
 30
2.581
 70
192
 0
VERTEX
 8
0
 10
1.383
 20
0
 30
2.591
 70
192
 0
VERTEX
 8
0
 10
1.345
 20
0
 30
2.556
 70
192
 0
VERTEX
 8
0
 10
1.335
 20
0
 30
2.55
 70
192
 0
VERTEX
 8
0
 10
1.345
 20
-0.24
 30
2.556
 70
192
 0
VERTEX
 8
0
 10
1.335
 20
-0.23
 30
2.55
 70
192
 0
VERTEX
 8
0
 10
-0.285
 20
-0.09
 30
2.2
 70
192
 0
VERTEX
 8
0
 10
1.195
 20
-0.09
 30
2.21
 70
192
 0
VERTEX
 8
0
 10
-0.275
 20
-0.08
 30
2.11
 70
192
 0
VERTEX
 8
0
 10
-0.275
 20
-0.08
 30
2.2
 70
192
 0
VERTEX
 8
0
 10
-0.275
 20
0
 30
2.2
 70
192
 0
VERTEX
 8
0
 10
1.185
 20
-0.08
 30
2.11
 70
192
 0
VERTEX
 8
0
 10
-0.025
 20
0
 30
2.1
 70
192
 0
VERTEX
 8
0
 10
-0.315
 20
0
 30
2.1
 70
192
 0
VERTEX
 8
0
 10
1.225
 20
0
 30
2.1
 70
192
 0
VERTEX
 8
0
 10
0.935
 20
0
 30
2.1
 70
192
 0
VERTEX
 8
0
 10
0.925
 20
0
 30
2.11
 70
192
 0
VERTEX
 8
0
 10
1.185
 20
-0.08
 30
2.2
 70
192
 0
VERTEX
 8
0
 10
-0.473
 20
-0.278
 30
2.601
 70
192
 0
VERTEX
 8
0
 10
-0.473
 20
0
 30
2.601
 70
192
 0
VERTEX
 8
0
 10
0.455
 20
-0.25
 30
2.95379209518433
 70
192
 0
VERTEX
 8
0
 10
1.383
 20
-0.278
 30
2.591
 70
192
 0
VERTEX
 8
0
 10
0.455
 20
-0.23
 30
2.91450810432434
 70
192
 0
VERTEX
 8
0
 10
1.355
 20
-0.25
 30
2.581
 70
192
 0
VERTEX
 8
0
 10
0.455
 20
-0.24
 30
2.92465019226074
 70
192
 0
VERTEX
 8
0
 10
-0.325
 20
0
 30
2.11
 70
192
 0
VERTEX
 8
0
 10
-0.325
 20
-0.13
 30
2.11
 70
192
 0
VERTEX
 8
0
 10
1.185
 20
0
 30
2.11
 70
192
 0
VERTEX
 8
0
 10
1.235
 20
-0.13
 30
2.11
 70
192
 0
VERTEX
 8
0
 10
1.235
 20
0
 30
2.1
 70
192
 0
VERTEX
 8
0
 10
-0.015
 20
-0.13
 30
2.11
 70
192
 0
VERTEX
 8
0
 10
0.455
 20
-0.23
 30
2.90450811386108
 70
192
 0
VERTEX
 8
0
 10
-0.400857985019684
 20
-0.23
 30
2.55
 70
192
 0
VERTEX
 8
0
 10
1.2365380525589
 20
-0.21
 30
2.55249905586243
 70
192
 0
VERTEX
 8
0
 10
-0.156733006238937
 20
-0.2
 30
2.55374908447266
 70
192
 0
VERTEX
 8
0
 10
-0.38784
 20
-0.22
 30
2.55124998092651
 70
192
 0
VERTEX
 8
0
 10
0.455
 20
-0.278
 30
2.97538900375366
 70
192
 0
VERTEX
 8
0
 10
0.455
 20
-0.278
 30
2.98538899421692
 70
192
 0
VERTEX
 8
0
 10
-0.473
 20
-0.278
 30
2.591
 70
192
 0
VERTEX
 8
0
 10
0.455
 20
0
 30
2.98538899421692
 70
192
 0
VERTEX
 8
0
 10
1.383
 20
0
 30
2.601
 70
192
 0
VERTEX
 8
0
 10
1.383
 20
-0.278
 30
2.601
 70
192
 0
VERTEX
 8
0
 10
0.455
 20
-0.22
 30
2.90036511421204
 70
192
 0
VERTEX
 8
0
 10
1.29784
 20
-0.22
 30
2.55124998092651
 70
192
 0
VERTEX
 8
0
 10
-0.325
 20
0
 30
2.1
 70
192
 0
VERTEX
 8
0
 10
1.235
 20
0
 30
2.11
 70
192
 0
VERTEX
 8
0
 10
-0.015
 20
0
 30
2.1
 70
192
 0
VERTEX
 8
0
 10
-0.315
 20
0
 30
2.07
 70
192
 0
VERTEX
 8
0
 10
1.225
 20
0
 30
2.07
 70
192
 0
VERTEX
 8
0
 10
0.925
 20
0
 30
2.1
 70
192
 0
VERTEX
 8
0
 10
0.925
 20
-0.13
 30
2.1
 70
192
 0
VERTEX
 8
0
 10
-0.015
 20
-0.13
 30
2.1
 70
192
 0
VERTEX
 8
0
 10
-0.325
 20
-0.13
 30
2.1
 70
192
 0
VERTEX
 8
0
 10
-0.35068
 20
-0.21
 30
2.55249905586243
 70
192
 0
VERTEX
 8
0
 10
0.455
 20
-0.21
 30
2.88622307777405
 70
192
 0
VERTEX
 8
0
 10
1.26067996025085
 20
-0.21
 30
2.55249905586243
 70
192
 0
VERTEX
 8
0
 10
1.06673300266266
 20
-0.2
 30
2.55374908447266
 70
192
 0
VERTEX
 8
0
 10
-0.326537996530533
 20
-0.21
 30
2.55249905586243
 70
192
 0
VERTEX
 8
0
 10
0.925
 20
-0.13
 30
2.11
 70
192
 0
VERTEX
 8
0
 10
1.235
 20
-0.13
 30
2.1
 70
192
 0
VERTEX
 8
0
 10
-0.025
 20
0
 30
2.07
 70
192
 0
VERTEX
 8
0
 10
-0.025
 20
-0.12
 30
2.07
 70
192
 0
VERTEX
 8
0
 10
-0.035
 20
0
 30
2.07
 70
192
 0
VERTEX
 8
0
 10
-0.305
 20
0
 30
2.06
 70
192
 0
VERTEX
 8
0
 10
-0.035
 20
-0.11
 30
2.07
 70
192
 0
VERTEX
 8
0
 10
-0.305
 20
0
 30
2.07
 70
192
 0
VERTEX
 8
0
 10
-0.315
 20
-0.12
 30
2.07
 70
192
 0
VERTEX
 8
0
 10
1.225
 20
-0.12
 30
2.07
 70
192
 0
VERTEX
 8
0
 10
0.945
 20
0
 30
2.07
 70
192
 0
VERTEX
 8
0
 10
0.935
 20
0
 30
2.07
 70
192
 0
VERTEX
 8
0
 10
1.215
 20
0
 30
2.07
 70
192
 0
VERTEX
 8
0
 10
1.215
 20
-0.11
 30
2.07
 70
192
 0
VERTEX
 8
0
 10
0.945
 20
0
 30
2.06
 70
192
 0
VERTEX
 8
0
 10
0.945
 20
-0.11
 30
2.07
 70
192
 0
VERTEX
 8
0
 10
1.22352004051208
 20
-0.2
 30
2.55374908447266
 70
192
 0
VERTEX
 8
0
 10
0.455
 20
-0.21
 30
2.87622213363647
 70
192
 0
VERTEX
 8
0
 10
1.04862594604492
 20
-0.14
 30
2.56124997138977
 70
192
 0
VERTEX
 8
0
 10
1.02249503135681
 20
-0.14
 30
2.56124997138977
 70
192
 0
VERTEX
 8
0
 10
0.455
 20
-0.2
 30
2.87208199501038
 70
192
 0
VERTEX
 8
0
 10
-0.313519984483719
 20
-0.2
 30
2.55374908447266
 70
192
 0
VERTEX
 8
0
 10
-0.025
 20
-0.12
 30
2.1
 70
192
 0
VERTEX
 8
0
 10
-0.315
 20
-0.12
 30
2.1
 70
192
 0
VERTEX
 8
0
 10
-0.285
 20
-0.09
 30
2.04
 70
192
 0
VERTEX
 8
0
 10
-0.035
 20
-0.11
 30
2.06
 70
192
 0
VERTEX
 8
0
 10
-0.305
 20
-0.11
 30
2.07
 70
192
 0
VERTEX
 8
0
 10
-0.055
 20
0
 30
2.04
 70
192
 0
VERTEX
 8
0
 10
-0.035
 20
0
 30
2.06
 70
192
 0
VERTEX
 8
0
 10
0.935
 20
-0.12
 30
2.1
 70
192
 0
VERTEX
 8
0
 10
0.935
 20
-0.12
 30
2.07
 70
192
 0
VERTEX
 8
0
 10
1.225
 20
-0.12
 30
2.1
 70
192
 0
VERTEX
 8
0
 10
1.195
 20
0
 30
2.04
 70
192
 0
VERTEX
 8
0
 10
1.215
 20
0
 30
2.06
 70
192
 0
VERTEX
 8
0
 10
1.215
 20
-0.11
 30
2.06
 70
192
 0
VERTEX
 8
0
 10
0.965
 20
0
 30
2.04
 70
192
 0
VERTEX
 8
0
 10
0.455
 20
-0.14
 30
2.79631400108337
 70
192
 0
VERTEX
 8
0
 10
0.455
 20
-0.2
 30
2.80713701248169
 70
192
 0
VERTEX
 8
0
 10
0.455
 20
-0.12
 30
2.77466607093811
 70
192
 0
VERTEX
 8
0
 10
-0.0541969984769821
 20
-0.12
 30
2.56374907493591
 70
192
 0
VERTEX
 8
0
 10
-0.138625994324684
 20
-0.14
 30
2.56124997138977
 70
192
 0
VERTEX
 8
0
 10
0.455
 20
-0.14
 30
2.80713701248169
 70
192
 0
VERTEX
 8
0
 10
-0.112494997680187
 20
-0.14
 30
2.56124997138977
 70
192
 0
VERTEX
 8
0
 10
-0.285
 20
0
 30
2.04
 70
192
 0
VERTEX
 8
0
 10
-0.285
 20
0
 30
2.03
 70
192
 0
VERTEX
 8
0
 10
-0.305
 20
-0.11
 30
2.06
 70
192
 0
VERTEX
 8
0
 10
-0.055
 20
-0.09
 30
2.04
 70
192
 0
VERTEX
 8
0
 10
-0.275
 20
0
 30
1.94
 70
192
 0
VERTEX
 8
0
 10
-0.055
 20
0
 30
2.03
 70
192
 0
VERTEX
 8
0
 10
0.945
 20
-0.11
 30
2.06
 70
192
 0
VERTEX
 8
0
 10
1.195
 20
-0.09
 30
2.04
 70
192
 0
VERTEX
 8
0
 10
1.195
 20
-0.09
 30
2.03
 70
192
 0
VERTEX
 8
0
 10
0.455
 20
-0.11
 30
2.77466607093811
 70
192
 0
VERTEX
 8
0
 10
0.93504798412323
 20
-0.11
 30
2.565
 70
192
 0
VERTEX
 8
0
 10
0.96419698
 20
-0.12
 30
2.56374907493591
 70
192
 0
VERTEX
 8
0
 10
0.03325
 20
-0.09
 30
2.56750106811523
 70
192
 0
VERTEX
 8
0
 10
-0.025048
 20
-0.11
 30
2.565
 70
192
 0
VERTEX
 8
0
 10
-0.051179
 20
-0.11
 30
2.565
 70
192
 0
VERTEX
 8
0
 10
-0.285
 20
-0.09
 30
2.03
 70
192
 0
VERTEX
 8
0
 10
-0.055
 20
-0.09
 30
2.03
 70
192
 0
VERTEX
 8
0
 10
-0.275
 20
0
 30
2.03
 70
192
 0
VERTEX
 8
0
 10
-0.275
 20
-0.08
 30
1.94
 70
192
 0
VERTEX
 8
0
 10
-0.065
 20
0
 30
2.03
 70
192
 0
VERTEX
 8
0
 10
0.965
 20
-0.09
 30
2.04
 70
192
 0
VERTEX
 8
0
 10
1.185
 20
-0.08
 30
2.03
 70
192
 0
VERTEX
 8
0
 10
1.195
 20
0
 30
2.03
 70
192
 0
VERTEX
 8
0
 10
1.185
 20
0
 30
1.94
 70
192
 0
VERTEX
 8
0
 10
1.185
 20
0
 30
2.03
 70
192
 0
VERTEX
 8
0
 10
0.965
 20
-0.09
 30
2.03
 70
192
 0
VERTEX
 8
0
 10
0.965
 20
0
 30
2.03
 70
192
 0
VERTEX
 8
0
 10
0.975
 20
0
 30
2.03
 70
192
 0
VERTEX
 8
0
 10
0.96117901802063
 20
-0.11
 30
2.565
 70
192
 0
VERTEX
 8
0
 10
0.932030022144318
 20
-0.1
 30
2.566251039505
 70
192
 0
VERTEX
 8
0
 10
-0.275
 20
-0.08
 30
2.03
 70
192
 0
VERTEX
 8
0
 10
-0.065
 20
-0.08
 30
1.94
 70
192
 0
VERTEX
 8
0
 10
-0.065
 20
-0.08
 30
2.03
 70
192
 0
VERTEX
 8
0
 10
-0.065
 20
0
 30
1.94
 70
192
 0
VERTEX
 8
0
 10
-0.285
 20
0
 30
1.94
 70
192
 0
VERTEX
 8
0
 10
-0.055
 20
0
 30
1.94
 70
192
 0
VERTEX
 8
0
 10
-0.045
 20
0
 30
0.13
 70
192
 0
VERTEX
 8
0
 10
1.185
 20
-0.08
 30
1.94
 70
192
 0
VERTEX
 8
0
 10
0.975
 20
-0.08
 30
2.03
 70
192
 0
VERTEX
 8
0
 10
1.195
 20
0
 30
1.94
 70
192
 0
VERTEX
 8
0
 10
0.965
 20
-0.09
 30
1.94
 70
192
 0
VERTEX
 8
0
 10
0.975
 20
-0.08
 30
1.94
 70
192
 0
VERTEX
 8
0
 10
0.975
 20
0
 30
1.94
 70
192
 0
VERTEX
 8
0
 10
0.965
 20
0
 30
1.94
 70
192
 0
VERTEX
 8
0
 10
0.455
 20
-0.11
 30
2.76384305953979
 70
192
 0
VERTEX
 8
0
 10
0.455
 20
-0.09
 30
2.74219417572021
 70
192
 0
VERTEX
 8
0
 10
0.87675
 20
-0.09
 30
2.56750106811523
 70
192
 0
VERTEX
 8
0
 10
0.902881026268005
 20
-0.09
 30
2.56750106811523
 70
192
 0
VERTEX
 8
0
 10
0.036268
 20
-0.08
 30
2.56875109672546
 70
192
 0
VERTEX
 8
0
 10
0.455
 20
-0.08
 30
2.74219417572021
 70
192
 0
VERTEX
 8
0
 10
0.873731970787048
 20
-0.08
 30
2.56875109672546
 70
192
 0
VERTEX
 8
0
 10
0.455
 20
-0.1
 30
2.76384305953979
 70
192
 0
VERTEX
 8
0
 10
-0.02203
 20
-0.1
 30
2.566251039505
 70
192
 0
VERTEX
 8
0
 10
0.007119
 20
-0.09
 30
2.56750106811523
 70
192
 0
VERTEX
 8
0
 10
0.455
 20
-0.09
 30
2.75301718711853
 70
192
 0
VERTEX
 8
0
 10
-0.285
 20
-0.09
 30
1.94
 70
192
 0
VERTEX
 8
0
 10
-0.055
 20
0
 30
1.93
 70
192
 0
VERTEX
 8
0
 10
-0.055
 20
-0.09
 30
1.94
 70
192
 0
VERTEX
 8
0
 10
-0.055
 20
-0.09
 30
1.93
 70
192
 0
VERTEX
 8
0
 10
-0.285
 20
0
 30
1.93
 70
192
 0
VERTEX
 8
0
 10
-0.275
 20
0
 30
1.93
 70
192
 0
VERTEX
 8
0
 10
-0.065
 20
-0.08
 30
1.93
 70
192
 0
VERTEX
 8
0
 10
-0.275
 20
-0.08
 30
1.93
 70
192
 0
VERTEX
 8
0
 10
-0.065
 20
0
 30
1.93
 70
192
 0
VERTEX
 8
0
 10
-0.035
 20
0
 30
0.12
 70
192
 0
VERTEX
 8
0
 10
1.195
 20
0
 30
1.93
 70
192
 0
VERTEX
 8
0
 10
1.195
 20
-0.09
 30
1.94
 70
192
 0
VERTEX
 8
0
 10
1.195
 20
-0.09
 30
1.93
 70
192
 0
VERTEX
 8
0
 10
1.185
 20
-0.08
 30
1.93
 70
192
 0
VERTEX
 8
0
 10
1.205
 20
0
 30
0.13
 70
192
 0
VERTEX
 8
0
 10
1.185
 20
0
 30
1.93
 70
192
 0
VERTEX
 8
0
 10
1.215
 20
0
 30
0.12
 70
192
 0
VERTEX
 8
0
 10
0.975
 20
0
 30
1.93
 70
192
 0
VERTEX
 8
0
 10
0.975
 20
-0.08
 30
1.93
 70
192
 0
VERTEX
 8
0
 10
0.965
 20
0
 30
1.93
 70
192
 0
VERTEX
 8
0
 10
0.965
 20
-0.09
 30
1.93
 70
192
 0
VERTEX
 8
0
 10
-0.285
 20
-0.09
 30
1.93
 70
192
 0
VERTEX
 8
0
 10
-0.295
 20
0
 30
0.13
 70
192
 0
VERTEX
 8
0
 10
-0.305
 20
0
 30
0.13
 70
192
 0
VERTEX
 8
0
 10
-0.295
 20
-0.1
 30
0.13
 70
192
 0
VERTEX
 8
0
 10
-0.035
 20
0
 30
0.13
 70
192
 0
VERTEX
 8
0
 10
-0.045
 20
-0.1
 30
0.13
 70
192
 0
VERTEX
 8
0
 10
-0.035
 20
-0.11
 30
0.13
 70
192
 0
VERTEX
 8
0
 10
1.205
 20
-0.1
 30
0.13
 70
192
 0
VERTEX
 8
0
 10
0.955
 20
-0.1
 30
0.13
 70
192
 0
VERTEX
 8
0
 10
1.215
 20
0
 30
0.13
 70
192
 0
VERTEX
 8
0
 10
0.925
 20
0
 30
0.1
 70
192
 0
VERTEX
 8
0
 10
0.945
 20
0
 30
0.13
 70
192
 0
VERTEX
 8
0
 10
0.955
 20
0
 30
0.13
 70
192
 0
VERTEX
 8
0
 10
-0.305
 20
-0.11
 30
0.13
 70
192
 0
VERTEX
 8
0
 10
-0.305
 20
0
 30
0.12
 70
192
 0
VERTEX
 8
0
 10
-0.325
 20
0
 30
0.1
 70
192
 0
VERTEX
 8
0
 10
-0.325
 20
-0.13
 30
0.1
 70
192
 0
VERTEX
 8
0
 10
-0.015
 20
-0.13
 30
0.1
 70
192
 0
VERTEX
 8
0
 10
1.215
 20
-0.11
 30
0.12
 70
192
 0
VERTEX
 8
0
 10
0.925
 20
0
 30
0.08
 70
192
 0
VERTEX
 8
0
 10
0.945
 20
0
 30
0.12
 70
192
 0
VERTEX
 8
0
 10
0.945
 20
-0.11
 30
0.13
 70
192
 0
VERTEX
 8
0
 10
-0.305
 20
-0.11
 30
0.12
 70
192
 0
VERTEX
 8
0
 10
-0.035
 20
-0.11
 30
0.12
 70
192
 0
VERTEX
 8
0
 10
-0.015
 20
0
 30
0.1
 70
192
 0
VERTEX
 8
0
 10
-0.025
 20
0
 30
0.07
 70
192
 0
VERTEX
 8
0
 10
0.945
 20
-0.11
 30
0.12
 70
192
 0
VERTEX
 8
0
 10
1.215
 20
-0.11
 30
0.13
 70
192
 0
VERTEX
 8
0
 10
1.235
 20
0
 30
0.1
 70
192
 0
VERTEX
 8
0
 10
0.935
 20
0
 30
0.07
 70
192
 0
VERTEX
 8
0
 10
0.925
 20
-0.13
 30
0.1
 70
192
 0
VERTEX
 8
0
 10
-0.325
 20
0
 30
0.08
 70
192
 0
VERTEX
 8
0
 10
-0.315
 20
-0.12
 30
0.07
 70
192
 0
VERTEX
 8
0
 10
-0.325
 20
-0.13
 30
0.08
 70
192
 0
VERTEX
 8
0
 10
-0.015
 20
0
 30
0.08
 70
192
 0
VERTEX
 8
0
 10
0.925
 20
-0.13
 30
0.08
 70
192
 0
VERTEX
 8
0
 10
1.235
 20
-0.13
 30
0.1
 70
192
 0
VERTEX
 8
0
 10
1.235
 20
0
 30
0.08
 70
192
 0
VERTEX
 8
0
 10
1.235
 20
-0.13
 30
0.08
 70
192
 0
VERTEX
 8
0
 10
1.235
 20
0
 30
0
 70
192
 0
VERTEX
 8
0
 10
0.935
 20
-0.12
 30
0.07
 70
192
 0
VERTEX
 8
0
 10
-0.315
 20
0
 30
0.07
 70
192
 0
VERTEX
 8
0
 10
-0.015
 20
-0.13
 30
0.08
 70
192
 0
VERTEX
 8
0
 10
-0.025
 20
-0.12
 30
0.07
 70
192
 0
VERTEX
 8
0
 10
-0.015
 20
-0.13
 30
0.07
 70
192
 0
VERTEX
 8
0
 10
-0.015
 20
0
 30
0.07
 70
192
 0
VERTEX
 8
0
 10
-0.325
 20
0
 30
0
 70
192
 0
VERTEX
 8
0
 10
-0.015
 20
0
 30
0
 70
192
 0
VERTEX
 8
0
 10
1.225
 20
-0.12
 30
0.07
 70
192
 0
VERTEX
 8
0
 10
1.235
 20
0
 30
0.07
 70
192
 0
VERTEX
 8
0
 10
1.225
 20
0
 30
0.07
 70
192
 0
VERTEX
 8
0
 10
0.925
 20
-0.13
 30
0
 70
192
 0
VERTEX
 8
0
 10
0.925
 20
0
 30
0
 70
192
 0
VERTEX
 8
0
 10
0.925
 20
0
 30
0.07
 70
192
 0
VERTEX
 8
0
 10
-0.325
 20
0
 30
0.07
 70
192
 0
VERTEX
 8
0
 10
-0.325
 20
-0.13
 30
0
 70
192
 0
VERTEX
 8
0
 10
-0.015
 20
-0.13
 30
0
 70
192
 0
VERTEX
 8
0
 10
-0.325
 20
-0.13
 30
0.07
 70
192
 0
VERTEX
 8
0
 10
1.235
 20
-0.13
 30
0.07
 70
192
 0
VERTEX
 8
0
 10
1.235
 20
-0.13
 30
0
 70
192
 0
VERTEX
 8
0
 10
0.925
 20
-0.13
 30
0.07
 70
192
 0
VERTEX
 8
0
 10
0.9
 20
0.23
 30
0.025
 70
192
 0
VERTEX
 8
0
 10
0
 20
0.23
 30
0
 70
192
 0
VERTEX
 8
0
 10
0.01
 20
0.23
 30
0.025
 70
192
 0
VERTEX
 8
0
 10
0.01
 20
0.178
 30
0.025
 70
192
 0
VERTEX
 8
0
 10
0.9
 20
0.178
 30
0.025
 70
192
 0
VERTEX
 8
0
 10
0.885
 20
0.178
 30
0.025
 70
192
 0
VERTEX
 8
0
 10
0.91
 20
0.23
 30
0
 70
192
 0
VERTEX
 8
0
 10
0.025
 20
0.178
 30
2.055
 70
192
 0
VERTEX
 8
0
 10
0.01
 20
0.178
 30
2.07
 70
192
 0
VERTEX
 8
0
 10
0.9
 20
0.178
 30
2.07
 70
192
 0
VERTEX
 8
0
 10
0.9
 20
0.23
 30
2.07
 70
192
 0
VERTEX
 8
0
 10
0
 20
0.23
 30
2.08
 70
192
 0
VERTEX
 8
0
 10
0.01
 20
0.23
 30
2.07
 70
192
 0
VERTEX
 8
0
 10
0
 20
0.1
 30
2.08
 70
192
 0
VERTEX
 8
0
 10
0
 20
0.1
 30
0
 70
192
 0
VERTEX
 8
0
 10
0.91
 20
0.1
 30
0
 70
192
 0
VERTEX
 8
0
 10
0.91
 20
0.23
 30
2.08
 70
192
 0
VERTEX
 8
0
 10
0.01
 20
0.1
 30
2.07
 70
192
 0
VERTEX
 8
0
 10
0.01
 20
0.1
 30
0.025
 70
192
 0
VERTEX
 8
0
 10
0.9
 20
0.1
 30
0.025
 70
192
 0
VERTEX
 8
0
 10
0.885
 20
0.15
 30
0.025
 70
192
 0
VERTEX
 8
0
 10
0.025
 20
0.15
 30
0.025
 70
192
 0
VERTEX
 8
0
 10
0.025
 20
0.15
 30
2.055
 70
192
 0
VERTEX
 8
0
 10
0.01
 20
0.15
 30
2.065
 70
192
 0
VERTEX
 8
0
 10
0.01
 20
0.15
 30
0.025
 70
192
 0
VERTEX
 8
0
 10
0.9
 20
0.15
 30
2.065
 70
192
 0
VERTEX
 8
0
 10
0.9
 20
0.1
 30
2.07
 70
192
 0
VERTEX
 8
0
 10
0.91
 20
0.1
 30
2.08
 70
192
 0
VERTEX
 8
0
 10
0.9
 20
0.15
 30
0.025
 70
192
 0
VERTEX
 8
0
 10
0.025
 20
0.178
 30
0.025
 70
192
 0
VERTEX
 8
0
 10
0.885
 20
0.15
 30
2.055
 70
192
 0
VERTEX
 8
0
 10
0.885
 20
0.178
 30
2.055
 70
192
 0
VERTEX
 8
0
 10
0.012
 20
0.23
 30
2.068
 70
192
 0
VERTEX
 8
0
 10
0.898
 20
0.18
 30
0.075
 70
192
 0
VERTEX
 8
0
 10
0.898
 20
0.18
 30
2.068
 70
192
 0
VERTEX
 8
0
 10
0.012
 20
0.18
 30
2.068
 70
192
 0
VERTEX
 8
0
 10
0.898
 20
0.18
 30
0.027
 70
192
 0
VERTEX
 8
0
 10
0.012
 20
0.18
 30
0.027
 70
192
 0
VERTEX
 8
0
 10
0.012
 20
0.18
 30
0.075
 70
192
 0
VERTEX
 8
0
 10
0.898
 20
0.23
 30
0.027
 70
192
 0
VERTEX
 8
0
 10
0.883
 20
0.18
 30
0.027
 70
192
 0
VERTEX
 8
0
 10
0.027
 20
0.17
 30
0.075
 70
192
 0
VERTEX
 8
0
 10
0.027
 20
0.18
 30
0.027
 70
192
 0
VERTEX
 8
0
 10
0.883
 20
0.14
 30
0.027
 70
192
 0
VERTEX
 8
0
 10
0.027
 20
0.14
 30
0.027
 70
192
 0
VERTEX
 8
0
 10
0.545
 20
0.2
 30
0.58
 70
192
 0
VERTEX
 8
0
 10
0.545
 20
0.2
 30
0.265
 70
192
 0
VERTEX
 8
0
 10
0.545
 20
0.195
 30
0.58
 70
192
 0
VERTEX
 8
0
 10
0.545
 20
0.195
 30
0.265
 70
192
 0
VERTEX
 8
0
 10
0.515
 20
0.19
 30
0.235
 70
192
 0
VERTEX
 8
0
 10
0.775
 20
0.19
 30
0.235
 70
192
 0
VERTEX
 8
0
 10
0.745
 20
0.2
 30
0.58
 70
192
 0
VERTEX
 8
0
 10
0.745
 20
0.2
 30
0.265
 70
192
 0
VERTEX
 8
0
 10
0.745
 20
0.195
 30
0.265
 70
192
 0
VERTEX
 8
0
 10
0.745
 20
0.195
 30
0.58
 70
192
 0
VERTEX
 8
0
 10
0.515
 20
0.185
 30
0.235
 70
192
 0
VERTEX
 8
0
 10
0.515
 20
0.185
 30
0.61
 70
192
 0
VERTEX
 8
0
 10
0.775
 20
0.185
 30
0.235
 70
192
 0
VERTEX
 8
0
 10
0.775
 20
0.185
 30
0.61
 70
192
 0
VERTEX
 8
0
 10
0.515
 20
0.19
 30
0.61
 70
192
 0
VERTEX
 8
0
 10
0.775
 20
0.19
 30
0.61
 70
192
 0
VERTEX
 8
0
 10
0.505
 20
0.185
 30
0.62
 70
192
 0
VERTEX
 8
0
 10
0.505
 20
0.185
 30
0.225
 70
192
 0
VERTEX
 8
0
 10
0.785
 20
0.18
 30
0.225
 70
192
 0
VERTEX
 8
0
 10
0.785
 20
0.185
 30
0.225
 70
192
 0
VERTEX
 8
0
 10
0.505
 20
0.18
 30
0.225
 70
192
 0
VERTEX
 8
0
 10
0.505
 20
0.18
 30
0.62
 70
192
 0
VERTEX
 8
0
 10
0.785
 20
0.185
 30
0.62
 70
192
 0
VERTEX
 8
0
 10
0.405
 20
0.18
 30
0.225
 70
192
 0
VERTEX
 8
0
 10
0.785
 20
0.18
 30
0.62
 70
192
 0
VERTEX
 8
0
 10
0.027
 20
0.18
 30
0.075
 70
192
 0
VERTEX
 8
0
 10
0.883
 20
0.18
 30
0.075
 70
192
 0
VERTEX
 8
0
 10
0.125
 20
0.18
 30
0.82
 70
192
 0
VERTEX
 8
0
 10
0.785
 20
0.18
 30
0.82
 70
192
 0
VERTEX
 8
0
 10
0.405
 20
0.18
 30
0.62
 70
192
 0
VERTEX
 8
0
 10
0.405
 20
0.185
 30
0.62
 70
192
 0
VERTEX
 8
0
 10
0.405
 20
0.185
 30
0.225
 70
192
 0
VERTEX
 8
0
 10
0.883
 20
0.14
 30
0.045
 70
192
 0
VERTEX
 8
0
 10
0.883
 20
0.17
 30
0.075
 70
192
 0
VERTEX
 8
0
 10
0.125
 20
0.19
 30
0.82
 70
192
 0
VERTEX
 8
0
 10
0.785
 20
0.19
 30
0.82
 70
192
 0
VERTEX
 8
0
 10
0.125
 20
0.18
 30
1.895
 70
192
 0
VERTEX
 8
0
 10
0.125
 20
0.185
 30
0.225
 70
192
 0
VERTEX
 8
0
 10
0.125
 20
0.185
 30
0.62
 70
192
 0
VERTEX
 8
0
 10
0.125
 20
0.18
 30
0.62
 70
192
 0
VERTEX
 8
0
 10
0.125
 20
0.18
 30
0.225
 70
192
 0
VERTEX
 8
0
 10
0.027
 20
0.14
 30
0.045
 70
192
 0
VERTEX
 8
0
 10
0.351666986942291
 20
0.19
 30
0.83
 70
192
 0
VERTEX
 8
0
 10
0.558332979679108
 20
0.22
 30
0.83
 70
192
 0
VERTEX
 8
0
 10
0.351666986942291
 20
0.22
 30
0.83
 70
192
 0
VERTEX
 8
0
 10
0.135
 20
0.19
 30
1.185
 70
192
 0
VERTEX
 8
0
 10
0.135
 20
0.19
 30
1.53
 70
192
 0
VERTEX
 8
0
 10
0.785
 20
0.18
 30
1.895
 70
192
 0
VERTEX
 8
0
 10
0.125
 20
0.19
 30
1.895
 70
192
 0
VERTEX
 8
0
 10
0.785
 20
0.19
 30
1.895
 70
192
 0
VERTEX
 8
0
 10
0.395
 20
0.185
 30
0.61
 70
192
 0
VERTEX
 8
0
 10
0.135
 20
0.185
 30
0.61
 70
192
 0
VERTEX
 8
0
 10
0.135
 20
0.19
 30
0.61
 70
192
 0
VERTEX
 8
0
 10
0.395
 20
0.19
 30
0.235
 70
192
 0
VERTEX
 8
0
 10
0.395
 20
0.185
 30
0.235
 70
192
 0
VERTEX
 8
0
 10
0.558332979679108
 20
0.19
 30
1.175
 70
192
 0
VERTEX
 8
0
 10
0.558332979679108
 20
0.19
 30
0.83
 70
192
 0
VERTEX
 8
0
 10
0.125
 20
0.22
 30
0.82
 70
192
 0
VERTEX
 8
0
 10
0.351666986942291
 20
0.22
 30
1.175
 70
192
 0
VERTEX
 8
0
 10
0.351666986942291
 20
0.19
 30
1.175
 70
192
 0
VERTEX
 8
0
 10
0.135
 20
0.19
 30
0.83
 70
192
 0
VERTEX
 8
0
 10
0.135
 20
0.22
 30
1.185
 70
192
 0
VERTEX
 8
0
 10
0.135
 20
0.19
 30
1.54
 70
192
 0
VERTEX
 8
0
 10
0.351666986942291
 20
0.19
 30
1.885
 70
192
 0
VERTEX
 8
0
 10
0.558332979679108
 20
0.19
 30
1.885
 70
192
 0
VERTEX
 8
0
 10
0.775
 20
0.22
 30
1.53
 70
192
 0
VERTEX
 8
0
 10
0.775
 20
0.22
 30
1.185
 70
192
 0
VERTEX
 8
0
 10
0.775
 20
0.19
 30
1.175
 70
192
 0
VERTEX
 8
0
 10
0.135
 20
0.19
 30
0.235
 70
192
 0
VERTEX
 8
0
 10
0.135
 20
0.185
 30
0.235
 70
192
 0
VERTEX
 8
0
 10
0.395
 20
0.19
 30
0.61
 70
192
 0
VERTEX
 8
0
 10
0.365
 20
0.195
 30
0.58
 70
192
 0
VERTEX
 8
0
 10
0.365
 20
0.2
 30
0.58
 70
192
 0
VERTEX
 8
0
 10
0.365
 20
0.2
 30
0.265
 70
192
 0
VERTEX
 8
0
 10
0.568332970142365
 20
0.19
 30
1.175
 70
192
 0
VERTEX
 8
0
 10
0.568332970142365
 20
0.19
 30
0.83
 70
192
 0
VERTEX
 8
0
 10
0.775
 20
0.22
 30
0.83
 70
192
 0
VERTEX
 8
0
 10
0.775
 20
0.19
 30
0.83
 70
192
 0
VERTEX
 8
0
 10
0.558332979679108
 20
0.22
 30
1.175
 70
192
 0
VERTEX
 8
0
 10
0.568332970142365
 20
0.22
 30
0.83
 70
192
 0
VERTEX
 8
0
 10
0.785
 20
0.23
 30
0.82
 70
192
 0
VERTEX
 8
0
 10
0.125
 20
0.23
 30
0.82
 70
192
 0
VERTEX
 8
0
 10
0.341666996479034
 20
0.22
 30
0.83
 70
192
 0
VERTEX
 8
0
 10
0.351666986942291
 20
0.19
 30
1.185
 70
192
 0
VERTEX
 8
0
 10
0.341666996479034
 20
0.19
 30
0.83
 70
192
 0
VERTEX
 8
0
 10
0.341666996479034
 20
0.19
 30
1.175
 70
192
 0
VERTEX
 8
0
 10
0.341666996479034
 20
0.22
 30
1.175
 70
192
 0
VERTEX
 8
0
 10
0.135
 20
0.22
 30
0.83
 70
192
 0
VERTEX
 8
0
 10
0.341666996479034
 20
0.22
 30
1.185
 70
192
 0
VERTEX
 8
0
 10
0.135
 20
0.22
 30
1.53
 70
192
 0
VERTEX
 8
0
 10
0.341666996479034
 20
0.19
 30
1.53
 70
192
 0
VERTEX
 8
0
 10
0.341666996479034
 20
0.19
 30
1.885
 70
192
 0
VERTEX
 8
0
 10
0.558332979679108
 20
0.22
 30
1.885
 70
192
 0
VERTEX
 8
0
 10
0.775
 20
0.19
 30
1.185
 70
192
 0
VERTEX
 8
0
 10
0.775
 20
0.19
 30
1.53
 70
192
 0
VERTEX
 8
0
 10
0.775
 20
0.19
 30
1.885
 70
192
 0
VERTEX
 8
0
 10
0.165
 20
0.195
 30
0.58
 70
192
 0
VERTEX
 8
0
 10
0.365
 20
0.195
 30
0.265
 70
192
 0
VERTEX
 8
0
 10
0.568332970142365
 20
0.22
 30
1.175
 70
192
 0
VERTEX
 8
0
 10
0.775
 20
0.22
 30
1.175
 70
192
 0
VERTEX
 8
0
 10
0.351666986942291
 20
0.22
 30
1.185
 70
192
 0
VERTEX
 8
0
 10
0.558332979679108
 20
0.22
 30
1.185
 70
192
 0
VERTEX
 8
0
 10
0.125
 20
0.23
 30
1.895
 70
192
 0
VERTEX
 8
0
 10
0.785
 20
0.23
 30
1.895
 70
192
 0
VERTEX
 8
0
 10
0.785
 20
0.22
 30
0.82
 70
192
 0
VERTEX
 8
0
 10
0.351666986942291
 20
0.19
 30
1.53
 70
192
 0
VERTEX
 8
0
 10
0.135
 20
0.19
 30
1.175
 70
192
 0
VERTEX
 8
0
 10
0.341666996479034
 20
0.19
 30
1.185
 70
192
 0
VERTEX
 8
0
 10
0.135
 20
0.22
 30
1.175
 70
192
 0
VERTEX
 8
0
 10
0.341666996479034
 20
0.22
 30
1.53
 70
192
 0
VERTEX
 8
0
 10
0.135
 20
0.19
 30
1.885
 70
192
 0
VERTEX
 8
0
 10
0.341666996479034
 20
0.22
 30
1.54
 70
192
 0
VERTEX
 8
0
 10
0.135
 20
0.22
 30
1.54
 70
192
 0
VERTEX
 8
0
 10
0.351666986942291
 20
0.22
 30
1.54
 70
192
 0
VERTEX
 8
0
 10
0.351666986942291
 20
0.22
 30
1.885
 70
192
 0
VERTEX
 8
0
 10
0.568332970142365
 20
0.19
 30
1.53
 70
192
 0
VERTEX
 8
0
 10
0.568332970142365
 20
0.19
 30
1.185
 70
192
 0
VERTEX
 8
0
 10
0.568332970142365
 20
0.22
 30
1.185
 70
192
 0
VERTEX
 8
0
 10
0.568332970142365
 20
0.22
 30
1.53
 70
192
 0
VERTEX
 8
0
 10
0.568332970142365
 20
0.22
 30
1.54
 70
192
 0
VERTEX
 8
0
 10
0.775
 20
0.19
 30
1.54
 70
192
 0
VERTEX
 8
0
 10
0.775
 20
0.22
 30
1.54
 70
192
 0
VERTEX
 8
0
 10
0.165
 20
0.2
 30
0.58
 70
192
 0
VERTEX
 8
0
 10
0.165
 20
0.195
 30
0.265
 70
192
 0
VERTEX
 8
0
 10
0.165
 20
0.2
 30
0.265
 70
192
 0
VERTEX
 8
0
 10
0.558332979679108
 20
0.19
 30
1.185
 70
192
 0
VERTEX
 8
0
 10
0.558332979679108
 20
0.19
 30
1.53
 70
192
 0
VERTEX
 8
0
 10
0.405
 20
0.23
 30
0.225
 70
192
 0
VERTEX
 8
0
 10
0.505
 20
0.23
 30
0.225
 70
192
 0
VERTEX
 8
0
 10
0.125
 20
0.23
 30
0.62
 70
192
 0
VERTEX
 8
0
 10
0.785
 20
0.22
 30
1.895
 70
192
 0
VERTEX
 8
0
 10
0.125
 20
0.22
 30
1.895
 70
192
 0
VERTEX
 8
0
 10
0.898
 20
0.23
 30
2.068
 70
192
 0
VERTEX
 8
0
 10
0.135
 20
0.22
 30
1.885
 70
192
 0
VERTEX
 8
0
 10
0.341666996479034
 20
0.19
 30
1.54
 70
192
 0
VERTEX
 8
0
 10
0.341666996479034
 20
0.22
 30
1.885
 70
192
 0
VERTEX
 8
0
 10
0.558332979679108
 20
0.19
 30
1.54
 70
192
 0
VERTEX
 8
0
 10
0.351666986942291
 20
0.19
 30
1.54
 70
192
 0
VERTEX
 8
0
 10
0.558332979679108
 20
0.22
 30
1.54
 70
192
 0
VERTEX
 8
0
 10
0.568332970142365
 20
0.22
 30
1.885
 70
192
 0
VERTEX
 8
0
 10
0.568332970142365
 20
0.19
 30
1.54
 70
192
 0
VERTEX
 8
0
 10
0.568332970142365
 20
0.19
 30
1.885
 70
192
 0
VERTEX
 8
0
 10
0.775
 20
0.22
 30
1.885
 70
192
 0
VERTEX
 8
0
 10
0.558332979679108
 20
0.22
 30
1.53
 70
192
 0
VERTEX
 8
0
 10
0.351666986942291
 20
0.22
 30
1.53
 70
192
 0
VERTEX
 8
0
 10
0.405
 20
0.225
 30
0.62
 70
192
 0
VERTEX
 8
0
 10
0.405
 20
0.23
 30
0.62
 70
192
 0
VERTEX
 8
0
 10
0.012
 20
0.23
 30
0.027
 70
192
 0
VERTEX
 8
0
 10
0.125
 20
0.225
 30
0.62
 70
192
 0
VERTEX
 8
0
 10
0.785
 20
0.23
 30
0.62
 70
192
 0
VERTEX
 8
0
 10
0.785
 20
0.225
 30
0.62
 70
192
 0
VERTEX
 8
0
 10
0.505
 20
0.225
 30
0.62
 70
192
 0
VERTEX
 8
0
 10
0.505
 20
0.23
 30
0.62
 70
192
 0
VERTEX
 8
0
 10
0.405
 20
0.225
 30
0.225
 70
192
 0
VERTEX
 8
0
 10
0.515
 20
0.225
 30
0.235
 70
192
 0
VERTEX
 8
0
 10
0.505
 20
0.225
 30
0.225
 70
192
 0
VERTEX
 8
0
 10
0.125
 20
0.23
 30
0.225
 70
192
 0
VERTEX
 8
0
 10
0.785
 20
0.23
 30
0.225
 70
192
 0
VERTEX
 8
0
 10
0.135
 20
0.225
 30
0.235
 70
192
 0
VERTEX
 8
0
 10
0.125
 20
0.225
 30
0.225
 70
192
 0
VERTEX
 8
0
 10
0.395
 20
0.22
 30
0.61
 70
192
 0
VERTEX
 8
0
 10
0.395
 20
0.225
 30
0.61
 70
192
 0
VERTEX
 8
0
 10
0.515
 20
0.225
 30
0.61
 70
192
 0
VERTEX
 8
0
 10
0.785
 20
0.225
 30
0.225
 70
192
 0
VERTEX
 8
0
 10
0.775
 20
0.225
 30
0.235
 70
192
 0
VERTEX
 8
0
 10
0.775
 20
0.22
 30
0.61
 70
192
 0
VERTEX
 8
0
 10
0.775
 20
0.225
 30
0.61
 70
192
 0
VERTEX
 8
0
 10
0.395
 20
0.225
 30
0.235
 70
192
 0
VERTEX
 8
0
 10
0.395
 20
0.22
 30
0.235
 70
192
 0
VERTEX
 8
0
 10
0.365
 20
0.215
 30
0.265
 70
192
 0
VERTEX
 8
0
 10
0.515
 20
0.22
 30
0.235
 70
192
 0
VERTEX
 8
0
 10
0.135
 20
0.225
 30
0.61
 70
192
 0
VERTEX
 8
0
 10
0.135
 20
0.22
 30
0.61
 70
192
 0
VERTEX
 8
0
 10
0.135
 20
0.22
 30
0.235
 70
192
 0
VERTEX
 8
0
 10
0.365
 20
0.215
 30
0.58
 70
192
 0
VERTEX
 8
0
 10
0.165
 20
0.215
 30
0.58
 70
192
 0
VERTEX
 8
0
 10
0.775
 20
0.22
 30
0.235
 70
192
 0
VERTEX
 8
0
 10
0.515
 20
0.22
 30
0.61
 70
192
 0
VERTEX
 8
0
 10
0.365
 20
0.21
 30
0.58
 70
192
 0
VERTEX
 8
0
 10
0.545
 20
0.21
 30
0.58
 70
192
 0
VERTEX
 8
0
 10
0.545
 20
0.21
 30
0.265
 70
192
 0
VERTEX
 8
0
 10
0.545
 20
0.215
 30
0.58
 70
192
 0
VERTEX
 8
0
 10
0.745
 20
0.215
 30
0.58
 70
192
 0
VERTEX
 8
0
 10
0.165
 20
0.215
 30
0.265
 70
192
 0
VERTEX
 8
0
 10
0.165
 20
0.21
 30
0.265
 70
192
 0
VERTEX
 8
0
 10
0.365
 20
0.21
 30
0.265
 70
192
 0
VERTEX
 8
0
 10
0.165
 20
0.21
 30
0.58
 70
192
 0
VERTEX
 8
0
 10
0.745
 20
0.21
 30
0.58
 70
192
 0
VERTEX
 8
0
 10
0.745
 20
0.21
 30
0.265
 70
192
 0
VERTEX
 8
0
 10
0.745
 20
0.215
 30
0.265
 70
192
 0
VERTEX
 8
0
 10
0.545
 20
0.215
 30
0.265
 70
192
 0
VERTEX
 8
0
 10
0
 20
0.25
 30
0
 70
128
 71
4
 72
1
 73
12
 74
11
 0
VERTEX
 8
0
 10
0
 20
0.25
 30
0
 70
128
 71
4
 72
5
 73
1
 0
VERTEX
 8
0
 10
0
 20
0.25
 30
0
 70
128
 71
1
 72
2
 73
19
 74
12
 0
VERTEX
 8
0
 10
0
 20
0.25
 30
0
 70
128
 71
9
 72
11
 73
12
 0
VERTEX
 8
0
 10
0
 20
0.25
 30
0
 70
128
 71
25
 72
4
 73
11
 74
27
 0
VERTEX
 8
0
 10
0
 20
0.25
 30
0
 70
128
 71
3
 72
5
 73
4
 74
14
 0
VERTEX
 8
0
 10
0
 20
0.25
 30
0
 70
128
 71
15
 72
1
 73
5
 74
3
 0
VERTEX
 8
0
 10
0
 20
0.25
 30
0
 70
128
 71
1
 72
15
 73
6
 74
2
 0
VERTEX
 8
0
 10
0
 20
0.25
 30
0
 70
128
 71
2
 72
7
 73
31
 74
19
 0
VERTEX
 8
0
 10
0
 20
0.25
 30
0
 70
128
 71
19
 72
18
 73
8
 74
12
 0
VERTEX
 8
0
 10
0
 20
0.25
 30
0
 70
128
 71
9
 72
10
 73
20
 74
11
 0
VERTEX
 8
0
 10
0
 20
0.25
 30
0
 70
128
 71
12
 72
8
 73
10
 74
9
 0
VERTEX
 8
0
 10
0
 20
0.25
 30
0
 70
128
 71
25
 72
23
 73
4
 0
VERTEX
 8
0
 10
0
 20
0.25
 30
0
 70
128
 71
22
 72
27
 73
11
 0
VERTEX
 8
0
 10
0
 20
0.25
 30
0
 70
128
 71
32
 72
25
 73
27
 74
13
 0
VERTEX
 8
0
 10
0
 20
0.25
 30
0
 70
128
 71
14
 72
4
 73
23
 74
29
 0
VERTEX
 8
0
 10
0
 20
0.25
 30
0
 70
128
 71
3
 72
14
 73
20
 74
10
 0
VERTEX
 8
0
 10
0
 20
0.25
 30
0
 70
128
 71
15
 72
3
 73
10
 74
8
 0
VERTEX
 8
0
 10
0
 20
0.25
 30
0
 70
128
 71
38
 72
16
 73
2
 74
6
 0
VERTEX
 8
0
 10
0
 20
0.25
 30
0
 70
128
 71
6
 72
15
 73
8
 74
18
 0
VERTEX
 8
0
 10
0
 20
0.25
 30
0
 70
128
 71
2
 72
16
 73
7
 0
VERTEX
 8
0
 10
0
 20
0.25
 30
0
 70
128
 71
7
 72
42
 73
46
 74
31
 0
VERTEX
 8
0
 10
0
 20
0.25
 30
0
 70
128
 71
17
 72
19
 73
31
 0
VERTEX
 8
0
 10
0
 20
0.25
 30
0
 70
128
 71
17
 72
39
 73
18
 74
19
 0
VERTEX
 8
0
 10
0
 20
0.25
 30
0
 70
128
 71
11
 72
20
 73
21
 74
22
 0
VERTEX
 8
0
 10
0
 20
0.25
 30
0
 70
128
 71
29
 72
23
 73
25
 74
24
 0
VERTEX
 8
0
 10
0
 20
0.25
 30
0
 70
128
 71
22
 72
21
 73
33
 74
27
 0
VERTEX
 8
0
 10
0
 20
0.25
 30
0
 70
128
 71
24
 72
25
 73
32
 74
26
 0
VERTEX
 8
0
 10
0
 20
0.25
 30
0
 70
128
 71
27
 72
33
 73
34
 74
13
 0
VERTEX
 8
0
 10
0
 20
0.25
 30
0
 70
128
 71
51
 72
32
 73
13
 74
28
 0
VERTEX
 8
0
 10
0
 20
0.25
 30
0
 70
128
 71
14
 72
29
 73
21
 74
20
 0
VERTEX
 8
0
 10
0
 20
0.25
 30
0
 70
128
 71
30
 72
7
 73
16
 74
38
 0
VERTEX
 8
0
 10
0
 20
0.25
 30
0
 70
128
 71
38
 72
6
 73
18
 74
39
 0
VERTEX
 8
0
 10
0
 20
0.25
 30
0
 70
128
 71
7
 72
43
 73
42
 0
VERTEX
 8
0
 10
0
 20
0.25
 30
0
 70
128
 71
42
 72
57
 73
64
 74
46
 0
VERTEX
 8
0
 10
0
 20
0.25
 30
0
 70
128
 71
47
 72
31
 73
46
 0
VERTEX
 8
0
 10
0
 20
0.25
 30
0
 70
128
 71
31
 72
40
 73
39
 74
17
 0
VERTEX
 8
0
 10
0
 20
0.25
 30
0
 70
128
 71
29
 72
24
 73
33
 74
21
 0
VERTEX
 8
0
 10
0
 20
0.25
 30
0
 70
128
 71
26
 72
32
 73
49
 74
48
 0
VERTEX
 8
0
 10
0
 20
0.25
 30
0
 70
128
 71
24
 72
26
 73
34
 74
33
 0
VERTEX
 8
0
 10
0
 20
0.25
 30
0
 70
128
 71
13
 72
34
 73
35
 74
36
 0
VERTEX
 8
0
 10
0
 20
0.25
 30
0
 70
128
 71
51
 72
49
 73
32
 0
VERTEX
 8
0
 10
0
 20
0.25
 30
0
 70
128
 71
36
 72
28
 73
13
 0
VERTEX
 8
0
 10
0
 20
0.25
 30
0
 70
128
 71
37
 72
51
 73
28
 74
54
 0
VERTEX
 8
0
 10
0
 20
0.25
 30
0
 70
128
 71
56
 72
43
 73
7
 74
30
 0
VERTEX
 8
0
 10
0
 20
0.25
 30
0
 70
128
 71
30
 72
38
 73
39
 74
40
 0
VERTEX
 8
0
 10
0
 20
0.25
 30
0
 70
128
 71
41
 72
42
 73
43
 74
56
 0
VERTEX
 8
0
 10
0
 20
0.25
 30
0
 70
128
 71
58
 72
57
 73
42
 74
41
 0
VERTEX
 8
0
 10
0
 20
0.25
 30
0
 70
128
 71
57
 72
44
 73
87
 74
64
 0
VERTEX
 8
0
 10
0
 20
0.25
 30
0
 70
128
 71
64
 72
63
 73
59
 74
46
 0
VERTEX
 8
0
 10
0
 20
0.25
 30
0
 70
128
 71
47
 72
45
 73
40
 74
31
 0
VERTEX
 8
0
 10
0
 20
0.25
 30
0
 70
128
 71
46
 72
59
 73
45
 74
47
 0
VERTEX
 8
0
 10
0
 20
0.25
 30
0
 70
128
 71
48
 72
49
 73
51
 74
65
 0
VERTEX
 8
0
 10
0
 20
0.25
 30
0
 70
128
 71
26
 72
48
 73
35
 74
34
 0
VERTEX
 8
0
 10
0
 20
0.25
 30
0
 70
128
 71
36
 72
35
 73
52
 74
28
 0
VERTEX
 8
0
 10
0
 20
0.25
 30
0
 70
128
 71
50
 72
65
 73
51
 74
37
 0
VERTEX
 8
0
 10
0
 20
0.25
 30
0
 70
128
 71
52
 72
53
 73
54
 74
28
 0
VERTEX
 8
0
 10
0
 20
0.25
 30
0
 70
128
 71
94
 72
37
 73
54
 74
55
 0
VERTEX
 8
0
 10
0
 20
0.25
 30
0
 70
128
 71
56
 72
30
 73
40
 74
45
 0
VERTEX
 8
0
 10
0
 20
0.25
 30
0
 70
128
 71
41
 72
56
 73
45
 74
59
 0
VERTEX
 8
0
 10
0
 20
0.25
 30
0
 70
128
 71
79
 72
60
 73
57
 74
58
 0
VERTEX
 8
0
 10
0
 20
0.25
 30
0
 70
128
 71
58
 72
41
 73
59
 74
63
 0
VERTEX
 8
0
 10
0
 20
0.25
 30
0
 70
128
 71
57
 72
60
 73
44
 0
VERTEX
 8
0
 10
0
 20
0.25
 30
0
 70
128
 71
44
 72
82
 73
61
 74
87
 0
VERTEX
 8
0
 10
0
 20
0.25
 30
0
 70
128
 71
62
 72
64
 73
87
 0
VERTEX
 8
0
 10
0
 20
0.25
 30
0
 70
128
 71
62
 72
80
 73
63
 74
64
 0
VERTEX
 8
0
 10
0
 20
0.25
 30
0
 70
128
 71
48
 72
65
 73
52
 74
35
 0
VERTEX
 8
0
 10
0
 20
0.25
 30
0
 70
128
 71
65
 72
50
 73
53
 74
52
 0
VERTEX
 8
0
 10
0
 20
0.25
 30
0
 70
128
 71
66
 72
50
 73
37
 74
67
 0
VERTEX
 8
0
 10
0
 20
0.25
 30
0
 70
128
 71
53
 72
91
 73
68
 74
54
 0
VERTEX
 8
0
 10
0
 20
0.25
 30
0
 70
128
 71
67
 72
37
 73
94
 74
72
 0
VERTEX
 8
0
 10
0
 20
0.25
 30
0
 70
128
 71
54
 72
68
 73
69
 74
55
 0
VERTEX
 8
0
 10
0
 20
0.25
 30
0
 70
128
 71
75
 72
94
 73
55
 74
100
 0
VERTEX
 8
0
 10
0
 20
0.25
 30
0
 70
128
 71
78
 72
44
 73
60
 74
79
 0
VERTEX
 8
0
 10
0
 20
0.25
 30
0
 70
128
 71
79
 72
58
 73
63
 74
80
 0
VERTEX
 8
0
 10
0
 20
0.25
 30
0
 70
128
 71
44
 72
77
 73
82
 0
VERTEX
 8
0
 10
0
 20
0.25
 30
0
 70
128
 71
82
 72
70
 73
85
 74
61
 0
VERTEX
 8
0
 10
0
 20
0.25
 30
0
 70
128
 71
86
 72
87
 73
61
 0
VERTEX
 8
0
 10
0
 20
0.25
 30
0
 70
128
 71
87
 72
89
 73
80
 74
62
 0
VERTEX
 8
0
 10
0
 20
0.25
 30
0
 70
128
 71
50
 72
66
 73
91
 74
53
 0
VERTEX
 8
0
 10
0
 20
0.25
 30
0
 70
128
 71
90
 72
66
 73
67
 74
72
 0
VERTEX
 8
0
 10
0
 20
0.25
 30
0
 70
128
 71
91
 72
71
 73
69
 74
68
 0
VERTEX
 8
0
 10
0
 20
0.25
 30
0
 70
128
 71
93
 72
90
 73
72
 74
94
 0
VERTEX
 8
0
 10
0
 20
0.25
 30
0
 70
128
 71
71
 72
101
 73
55
 74
69
 0
VERTEX
 8
0
 10
0
 20
0.25
 30
0
 70
128
 71
75
 72
73
 73
94
 0
VERTEX
 8
0
 10
0
 20
0.25
 30
0
 70
128
 71
111
 72
100
 73
55
 0
VERTEX
 8
0
 10
0
 20
0.25
 30
0
 70
128
 71
74
 72
75
 73
100
 74
76
 0
VERTEX
 8
0
 10
0
 20
0.25
 30
0
 70
128
 71
83
 72
77
 73
44
 74
78
 0
VERTEX
 8
0
 10
0
 20
0.25
 30
0
 70
128
 71
78
 72
79
 73
116
 0
VERTEX
 8
0
 10
0
 20
0.25
 30
0
 70
128
 71
79
 72
80
 73
81
 74
116
 0
VERTEX
 8
0
 10
0
 20
0.25
 30
0
 70
128
 71
84
 72
82
 73
77
 74
83
 0
VERTEX
 8
0
 10
0
 20
0.25
 30
0
 70
128
 71
70
 72
82
 73
84
 74
122
 0
VERTEX
 8
0
 10
0
 20
0.25
 30
0
 70
128
 71
70
 72
103
 73
124
 74
85
 0
VERTEX
 8
0
 10
0
 20
0.25
 30
0
 70
128
 71
105
 72
107
 73
61
 74
85
 0
VERTEX
 8
0
 10
0
 20
0.25
 30
0
 70
128
 71
86
 72
88
 73
89
 74
87
 0
VERTEX
 8
0
 10
0
 20
0.25
 30
0
 70
128
 71
61
 72
107
 73
88
 74
86
 0
VERTEX
 8
0
 10
0
 20
0.25
 30
0
 70
128
 71
89
 72
81
 73
80
 0
VERTEX
 8
0
 10
0
 20
0.25
 30
0
 70
128
 71
66
 72
90
 73
71
 74
91
 0
VERTEX
 8
0
 10
0
 20
0.25
 30
0
 70
128
 71
90
 72
93
 73
101
 74
71
 0
VERTEX
 8
0
 10
0
 20
0.25
 30
0
 70
128
 71
92
 72
93
 73
94
 74
73
 0
VERTEX
 8
0
 10
0
 20
0.25
 30
0
 70
128
 71
101
 72
95
 73
111
 74
55
 0
VERTEX
 8
0
 10
0
 20
0.25
 30
0
 70
128
 71
73
 72
75
 73
96
 74
97
 0
VERTEX
 8
0
 10
0
 20
0.25
 30
0
 70
128
 71
100
 72
111
 73
98
 74
99
 0
VERTEX
 8
0
 10
0
 20
0.25
 30
0
 70
128
 71
75
 72
74
 73
135
 0
VERTEX
 8
0
 10
0
 20
0.25
 30
0
 70
128
 71
76
 72
100
 73
133
 0
VERTEX
 8
0
 10
0
 20
0.25
 30
0
 70
128
 71
93
 72
74
 73
76
 74
101
 0
VERTEX
 8
0
 10
0
 20
0.25
 30
0
 70
128
 71
78
 72
106
 73
108
 74
83
 0
VERTEX
 8
0
 10
0
 20
0.25
 30
0
 70
128
 71
106
 72
78
 73
116
 74
115
 0
VERTEX
 8
0
 10
0
 20
0.25
 30
0
 70
128
 71
116
 72
81
 73
117
 74
141
 0
VERTEX
 8
0
 10
0
 20
0.25
 30
0
 70
128
 71
83
 72
108
 73
104
 74
84
 0
VERTEX
 8
0
 10
0
 20
0.25
 30
0
 70
128
 71
84
 72
104
 73
120
 74
122
 0
VERTEX
 8
0
 10
0
 20
0.25
 30
0
 70
128
 71
102
 72
103
 73
70
 74
122
 0
VERTEX
 8
0
 10
0
 20
0.25
 30
0
 70
128
 71
123
 72
124
 73
103
 0
VERTEX
 8
0
 10
0
 20
0.25
 30
0
 70
128
 71
124
 72
125
 73
105
 74
85
 0
VERTEX
 8
0
 10
0
 20
0.25
 30
0
 70
128
 71
120
 72
104
 73
107
 74
105
 0
VERTEX
 8
0
 10
0
 20
0.25
 30
0
 70
128
 71
88
 72
108
 73
106
 74
89
 0
VERTEX
 8
0
 10
0
 20
0.25
 30
0
 70
128
 71
107
 72
104
 73
108
 74
88
 0
VERTEX
 8
0
 10
0
 20
0.25
 30
0
 70
128
 71
115
 72
81
 73
89
 74
106
 0
VERTEX
 8
0
 10
0
 20
0.25
 30
0
 70
128
 71
93
 72
92
 73
74
 0
VERTEX
 8
0
 10
0
 20
0.25
 30
0
 70
128
 71
92
 72
73
 73
109
 74
110
 0
VERTEX
 8
0
 10
0
 20
0.25
 30
0
 70
128
 71
95
 72
101
 73
76
 0
VERTEX
 8
0
 10
0
 20
0.25
 30
0
 70
128
 71
111
 72
95
 73
112
 74
129
 0
VERTEX
 8
0
 10
0
 20
0.25
 30
0
 70
128
 71
75
 72
130
 73
96
 0
VERTEX
 8
0
 10
0
 20
0.25
 30
0
 70
128
 71
96
 72
146
 73
149
 74
97
 0
VERTEX
 8
0
 10
0
 20
0.25
 30
0
 70
128
 71
109
 72
73
 73
97
 74
128
 0
VERTEX
 8
0
 10
0
 20
0.25
 30
0
 70
128
 71
111
 72
129
 73
113
 74
98
 0
VERTEX
 8
0
 10
0
 20
0.25
 30
0
 70
128
 71
152
 72
99
 73
98
 74
154
 0
VERTEX
 8
0
 10
0
 20
0.25
 30
0
 70
128
 71
133
 72
100
 73
99
 0
VERTEX
 8
0
 10
0
 20
0.25
 30
0
 70
128
 71
74
 72
114
 73
135
 0
VERTEX
 8
0
 10
0
 20
0.25
 30
0
 70
128
 71
135
 72
130
 73
75
 0
VERTEX
 8
0
 10
0
 20
0.25
 30
0
 70
128
 71
133
 72
142
 73
76
 0
VERTEX
 8
0
 10
0
 20
0.25
 30
0
 70
128
 71
115
 72
116
 73
119
 74
126
 0
VERTEX
 8
0
 10
0
 20
0.25
 30
0
 70
128
 71
139
 72
117
 73
81
 74
127
 0
VERTEX
 8
0
 10
0
 20
0.25
 30
0
 70
128
 71
140
 72
118
 73
141
 74
117
 0
VERTEX
 8
0
 10
0
 20
0.25
 30
0
 70
128
 71
119
 72
116
 73
141
 74
137
 0
VERTEX
 8
0
 10
0
 20
0.25
 30
0
 70
128
 71
120
 72
121
 73
102
 74
122
 0
VERTEX
 8
0
 10
0
 20
0.25
 30
0
 70
128
 71
123
 72
103
 73
102
 74
121
 0
VERTEX
 8
0
 10
0
 20
0.25
 30
0
 70
128
 71
124
 72
123
 73
121
 74
125
 0
VERTEX
 8
0
 10
0
 20
0.25
 30
0
 70
128
 71
121
 72
120
 73
105
 74
125
 0
VERTEX
 8
0
 10
0
 20
0.25
 30
0
 70
128
 71
126
 72
127
 73
81
 74
115
 0
VERTEX
 8
0
 10
0
 20
0.25
 30
0
 70
128
 71
110
 72
114
 73
74
 74
92
 0
VERTEX
 8
0
 10
0
 20
0.25
 30
0
 70
128
 71
109
 72
128
 73
136
 74
110
 0
VERTEX
 8
0
 10
0
 20
0.25
 30
0
 70
128
 71
142
 72
112
 73
95
 74
76
 0
VERTEX
 8
0
 10
0
 20
0.25
 30
0
 70
128
 71
113
 72
129
 73
112
 74
143
 0
VERTEX
 8
0
 10
0
 20
0.25
 30
0
 70
128
 71
96
 72
130
 73
135
 74
164
 0
VERTEX
 8
0
 10
0
 20
0.25
 30
0
 70
128
 71
96
 72
144
 73
146
 0
VERTEX
 8
0
 10
0
 20
0.25
 30
0
 70
128
 71
147
 72
149
 73
146
 74
170
 0
VERTEX
 8
0
 10
0
 20
0.25
 30
0
 70
128
 71
97
 72
149
 73
131
 0
VERTEX
 8
0
 10
0
 20
0.25
 30
0
 70
128
 71
128
 72
97
 73
165
 74
136
 0
VERTEX
 8
0
 10
0
 20
0.25
 30
0
 70
128
 71
98
 72
113
 73
143
 74
173
 0
VERTEX
 8
0
 10
0
 20
0.25
 30
0
 70
128
 71
152
 72
153
 73
99
 0
VERTEX
 8
0
 10
0
 20
0.25
 30
0
 70
128
 71
98
 72
132
 73
154
 0
VERTEX
 8
0
 10
0
 20
0.25
 30
0
 70
128
 71
154
 72
175
 73
156
 74
152
 0
VERTEX
 8
0
 10
0
 20
0.25
 30
0
 70
128
 71
133
 72
99
 73
171
 74
134
 0
VERTEX
 8
0
 10
0
 20
0.25
 30
0
 70
128
 71
135
 72
114
 73
110
 74
136
 0
VERTEX
 8
0
 10
0
 20
0.25
 30
0
 70
128
 71
133
 72
134
 73
142
 0
VERTEX
 8
0
 10
0
 20
0.25
 30
0
 70
128
 71
126
 72
119
 73
137
 74
138
 0
VERTEX
 8
0
 10
0
 20
0.25
 30
0
 70
128
 71
159
 72
117
 73
139
 74
138
 0
VERTEX
 8
0
 10
0
 20
0.25
 30
0
 70
128
 71
138
 72
139
 73
127
 74
126
 0
VERTEX
 8
0
 10
0
 20
0.25
 30
0
 70
128
 71
140
 72
161
 73
184
 74
118
 0
VERTEX
 8
0
 10
0
 20
0.25
 30
0
 70
128
 71
163
 72
141
 73
118
 0
VERTEX
 8
0
 10
0
 20
0.25
 30
0
 70
128
 71
158
 72
140
 73
117
 0
VERTEX
 8
0
 10
0
 20
0.25
 30
0
 70
128
 71
138
 72
137
 73
141
 74
159
 0
VERTEX
 8
0
 10
0
 20
0.25
 30
0
 70
128
 71
142
 72
134
 73
143
 74
112
 0
VERTEX
 8
0
 10
0
 20
0.25
 30
0
 70
128
 71
165
 72
164
 73
135
 74
136
 0
VERTEX
 8
0
 10
0
 20
0.25
 30
0
 70
128
 71
144
 72
96
 73
164
 74
145
 0
VERTEX
 8
0
 10
0
 20
0.25
 30
0
 70
128
 71
146
 72
144
 73
145
 74
148
 0
VERTEX
 8
0
 10
0
 20
0.25
 30
0
 70
128
 71
149
 72
147
 73
187
 74
168
 0
VERTEX
 8
0
 10
0
 20
0.25
 30
0
 70
128
 71
170
 72
146
 73
148
 74
167
 0
VERTEX
 8
0
 10
0
 20
0.25
 30
0
 70
128
 71
185
 72
147
 73
170
 74
169
 0
VERTEX
 8
0
 10
0
 20
0.25
 30
0
 70
128
 71
131
 72
149
 73
168
 74
150
 0
VERTEX
 8
0
 10
0
 20
0.25
 30
0
 70
128
 71
97
 72
131
 73
150
 74
165
 0
VERTEX
 8
0
 10
0
 20
0.25
 30
0
 70
128
 71
171
 72
173
 73
143
 74
134
 0
VERTEX
 8
0
 10
0
 20
0.25
 30
0
 70
128
 71
132
 72
98
 73
173
 74
151
 0
VERTEX
 8
0
 10
0
 20
0.25
 30
0
 70
128
 71
153
 72
152
 73
157
 74
172
 0
VERTEX
 8
0
 10
0
 20
0.25
 30
0
 70
128
 71
99
 72
153
 73
172
 74
171
 0
VERTEX
 8
0
 10
0
 20
0.25
 30
0
 70
128
 71
154
 72
132
 73
151
 74
155
 0
VERTEX
 8
0
 10
0
 20
0.25
 30
0
 70
128
 71
175
 72
154
 73
155
 74
176
 0
VERTEX
 8
0
 10
0
 20
0.25
 30
0
 70
128
 71
175
 72
174
 73
177
 74
156
 0
VERTEX
 8
0
 10
0
 20
0.25
 30
0
 70
128
 71
152
 72
156
 73
191
 74
157
 0
VERTEX
 8
0
 10
0
 20
0.25
 30
0
 70
128
 71
162
 72
158
 73
117
 74
159
 0
VERTEX
 8
0
 10
0
 20
0.25
 30
0
 70
128
 71
160
 72
161
 73
140
 0
VERTEX
 8
0
 10
0
 20
0.25
 30
0
 70
128
 71
161
 72
196
 73
181
 74
184
 0
VERTEX
 8
0
 10
0
 20
0.25
 30
0
 70
128
 71
182
 72
118
 73
184
 0
VERTEX
 8
0
 10
0
 20
0.25
 30
0
 70
128
 71
159
 72
141
 73
163
 74
162
 0
VERTEX
 8
0
 10
0
 20
0.25
 30
0
 70
128
 71
162
 72
163
 73
118
 74
179
 0
VERTEX
 8
0
 10
0
 20
0.25
 30
0
 70
128
 71
179
 72
140
 73
158
 74
162
 0
VERTEX
 8
0
 10
0
 20
0.25
 30
0
 70
128
 71
145
 72
164
 73
165
 74
150
 0
VERTEX
 8
0
 10
0
 20
0.25
 30
0
 70
128
 71
168
 72
148
 73
145
 74
150
 0
VERTEX
 8
0
 10
0
 20
0.25
 30
0
 70
128
 71
147
 72
185
 73
166
 74
187
 0
VERTEX
 8
0
 10
0
 20
0.25
 30
0
 70
128
 71
167
 72
148
 73
168
 74
187
 0
VERTEX
 8
0
 10
0
 20
0.25
 30
0
 70
128
 71
169
 72
170
 73
167
 74
188
 0
VERTEX
 8
0
 10
0
 20
0.25
 30
0
 70
128
 71
204
 72
202
 73
185
 74
169
 0
VERTEX
 8
0
 10
0
 20
0.25
 30
0
 70
128
 71
171
 72
172
 73
151
 74
173
 0
VERTEX
 8
0
 10
0
 20
0.25
 30
0
 70
128
 71
157
 72
155
 73
151
 74
172
 0
VERTEX
 8
0
 10
0
 20
0.25
 30
0
 70
128
 71
157
 72
191
 73
176
 74
155
 0
VERTEX
 8
0
 10
0
 20
0.25
 30
0
 70
128
 71
174
 72
175
 73
176
 74
192
 0
VERTEX
 8
0
 10
0
 20
0.25
 30
0
 70
128
 71
209
 72
212
 73
177
 74
174
 0
VERTEX
 8
0
 10
0
 20
0.25
 30
0
 70
128
 71
156
 72
177
 73
205
 74
191
 0
VERTEX
 8
0
 10
0
 20
0.25
 30
0
 70
128
 71
178
 72
161
 73
160
 74
183
 0
VERTEX
 8
0
 10
0
 20
0.25
 30
0
 70
128
 71
183
 72
160
 73
140
 74
179
 0
VERTEX
 8
0
 10
0
 20
0.25
 30
0
 70
128
 71
180
 72
196
 73
161
 74
178
 0
VERTEX
 8
0
 10
0
 20
0.25
 30
0
 70
128
 71
196
 72
195
 73
198
 74
181
 0
VERTEX
 8
0
 10
0
 20
0.25
 30
0
 70
128
 71
178
 72
184
 73
181
 74
180
 0
VERTEX
 8
0
 10
0
 20
0.25
 30
0
 70
128
 71
179
 72
118
 73
182
 74
183
 0
VERTEX
 8
0
 10
0
 20
0.25
 30
0
 70
128
 71
183
 72
182
 73
184
 74
178
 0
VERTEX
 8
0
 10
0
 20
0.25
 30
0
 70
128
 71
185
 72
186
 73
200
 74
166
 0
VERTEX
 8
0
 10
0
 20
0.25
 30
0
 70
128
 71
187
 72
166
 73
188
 74
167
 0
VERTEX
 8
0
 10
0
 20
0.25
 30
0
 70
128
 71
190
 72
169
 73
188
 74
201
 0
VERTEX
 8
0
 10
0
 20
0.25
 30
0
 70
128
 71
189
 72
202
 73
204
 74
218
 0
VERTEX
 8
0
 10
0
 20
0.25
 30
0
 70
128
 71
202
 72
186
 73
185
 0
VERTEX
 8
0
 10
0
 20
0.25
 30
0
 70
128
 71
169
 72
190
 73
204
 0
VERTEX
 8
0
 10
0
 20
0.25
 30
0
 70
128
 71
192
 72
176
 73
191
 74
205
 0
VERTEX
 8
0
 10
0
 20
0.25
 30
0
 70
128
 71
207
 72
174
 73
192
 74
193
 0
VERTEX
 8
0
 10
0
 20
0.25
 30
0
 70
128
 71
209
 72
208
 73
227
 74
212
 0
VERTEX
 8
0
 10
0
 20
0.25
 30
0
 70
128
 71
211
 72
177
 73
212
 0
VERTEX
 8
0
 10
0
 20
0.25
 30
0
 70
128
 71
207
 72
209
 73
174
 0
VERTEX
 8
0
 10
0
 20
0.25
 30
0
 70
128
 71
177
 72
211
 73
210
 74
205
 0
VERTEX
 8
0
 10
0
 20
0.25
 30
0
 70
128
 71
194
 72
213
 73
196
 74
180
 0
VERTEX
 8
0
 10
0
 20
0.25
 30
0
 70
128
 71
213
 72
195
 73
196
 0
VERTEX
 8
0
 10
0
 20
0.25
 30
0
 70
128
 71
195
 72
231
 73
197
 74
198
 0
VERTEX
 8
0
 10
0
 20
0.25
 30
0
 70
128
 71
199
 72
181
 73
198
 0
VERTEX
 8
0
 10
0
 20
0.25
 30
0
 70
128
 71
180
 72
181
 73
199
 74
194
 0
VERTEX
 8
0
 10
0
 20
0.25
 30
0
 70
128
 71
215
 72
200
 73
186
 74
202
 0
VERTEX
 8
0
 10
0
 20
0.25
 30
0
 70
128
 71
188
 72
166
 73
200
 74
201
 0
VERTEX
 8
0
 10
0
 20
0.25
 30
0
 70
128
 71
190
 72
201
 73
217
 74
204
 0
VERTEX
 8
0
 10
0
 20
0.25
 30
0
 70
128
 71
202
 72
189
 73
203
 74
215
 0
VERTEX
 8
0
 10
0
 20
0.25
 30
0
 70
128
 71
218
 72
204
 73
217
 74
216
 0
VERTEX
 8
0
 10
0
 20
0.25
 30
0
 70
128
 71
245
 72
189
 73
218
 74
248
 0
VERTEX
 8
0
 10
0
 20
0.25
 30
0
 70
128
 71
192
 72
205
 73
210
 74
193
 0
VERTEX
 8
0
 10
0
 20
0.25
 30
0
 70
128
 71
193
 72
206
 73
209
 74
207
 0
VERTEX
 8
0
 10
0
 20
0.25
 30
0
 70
128
 71
208
 72
209
 73
206
 74
222
 0
VERTEX
 8
0
 10
0
 20
0.25
 30
0
 70
128
 71
208
 72
255
 73
257
 74
227
 0
VERTEX
 8
0
 10
0
 20
0.25
 30
0
 70
128
 71
212
 72
227
 73
226
 74
223
 0
VERTEX
 8
0
 10
0
 20
0.25
 30
0
 70
128
 71
210
 72
211
 73
212
 74
223
 0
VERTEX
 8
0
 10
0
 20
0.25
 30
0
 70
128
 71
229
 72
195
 73
213
 74
194
 0
VERTEX
 8
0
 10
0
 20
0.25
 30
0
 70
128
 71
232
 72
231
 73
195
 74
214
 0
VERTEX
 8
0
 10
0
 20
0.25
 30
0
 70
128
 71
233
 72
197
 73
231
 74
235
 0
VERTEX
 8
0
 10
0
 20
0.25
 30
0
 70
128
 71
237
 72
198
 73
197
 74
238
 0
VERTEX
 8
0
 10
0
 20
0.25
 30
0
 70
128
 71
194
 72
199
 73
198
 74
229
 0
VERTEX
 8
0
 10
0
 20
0.25
 30
0
 70
128
 71
215
 72
217
 73
201
 74
200
 0
VERTEX
 8
0
 10
0
 20
0.25
 30
0
 70
128
 71
219
 72
240
 73
203
 74
189
 0
VERTEX
 8
0
 10
0
 20
0.25
 30
0
 70
128
 71
215
 72
203
 73
216
 74
217
 0
VERTEX
 8
0
 10
0
 20
0.25
 30
0
 70
128
 71
216
 72
242
 73
220
 74
218
 0
VERTEX
 8
0
 10
0
 20
0.25
 30
0
 70
128
 71
245
 72
244
 73
219
 74
189
 0
VERTEX
 8
0
 10
0
 20
0.25
 30
0
 70
128
 71
218
 72
220
 73
241
 74
248
 0
VERTEX
 8
0
 10
0
 20
0.25
 30
0
 70
128
 71
262
 72
245
 73
248
 74
221
 0
VERTEX
 8
0
 10
0
 20
0.25
 30
0
 70
128
 71
223
 72
206
 73
193
 74
210
 0
VERTEX
 8
0
 10
0
 20
0.25
 30
0
 70
128
 71
222
 72
206
 73
223
 74
226
 0
VERTEX
 8
0
 10
0
 20
0.25
 30
0
 70
128
 71
251
 72
224
 73
208
 74
222
 0
VERTEX
 8
0
 10
0
 20
0.25
 30
0
 70
128
 71
250
 72
255
 73
208
 74
224
 0
VERTEX
 8
0
 10
0
 20
0.25
 30
0
 70
128
 71
255
 72
254
 73
273
 74
257
 0
VERTEX
 8
0
 10
0
 20
0.25
 30
0
 70
128
 71
228
 72
227
 73
257
 74
259
 0
VERTEX
 8
0
 10
0
 20
0.25
 30
0
 70
128
 71
225
 72
226
 73
227
 74
228
 0
VERTEX
 8
0
 10
0
 20
0.25
 30
0
 70
128
 71
236
 72
214
 73
195
 74
229
 0
VERTEX
 8
0
 10
0
 20
0.25
 30
0
 70
128
 71
230
 72
231
 73
232
 74
239
 0
VERTEX
 8
0
 10
0
 20
0.25
 30
0
 70
128
 71
239
 72
232
 73
214
 74
236
 0
VERTEX
 8
0
 10
0
 20
0.25
 30
0
 70
128
 71
230
 72
197
 73
233
 74
234
 0
VERTEX
 8
0
 10
0
 20
0.25
 30
0
 70
128
 71
234
 72
235
 73
231
 74
230
 0
VERTEX
 8
0
 10
0
 20
0.25
 30
0
 70
128
 71
234
 72
233
 73
235
 0
VERTEX
 8
0
 10
0
 20
0.25
 30
0
 70
128
 71
229
 72
198
 73
237
 74
236
 0
VERTEX
 8
0
 10
0
 20
0.25
 30
0
 70
128
 71
239
 72
238
 73
197
 74
230
 0
VERTEX
 8
0
 10
0
 20
0.25
 30
0
 70
128
 71
236
 72
237
 73
238
 74
239
 0
VERTEX
 8
0
 10
0
 20
0.25
 30
0
 70
128
 71
244
 72
261
 73
240
 74
219
 0
VERTEX
 8
0
 10
0
 20
0.25
 30
0
 70
128
 71
216
 72
203
 73
240
 74
242
 0
VERTEX
 8
0
 10
0
 20
0.25
 30
0
 70
128
 71
241
 72
220
 73
242
 74
243
 0
VERTEX
 8
0
 10
0
 20
0.25
 30
0
 70
128
 71
247
 72
261
 73
244
 74
245
 0
VERTEX
 8
0
 10
0
 20
0.25
 30
0
 70
128
 71
241
 72
243
 73
246
 74
248
 0
VERTEX
 8
0
 10
0
 20
0.25
 30
0
 70
128
 71
245
 72
262
 73
264
 74
247
 0
VERTEX
 8
0
 10
0
 20
0.25
 30
0
 70
128
 71
221
 72
248
 73
246
 74
266
 0
VERTEX
 8
0
 10
0
 20
0.25
 30
0
 70
128
 71
275
 72
262
 73
221
 74
249
 0
VERTEX
 8
0
 10
0
 20
0.25
 30
0
 70
128
 71
222
 72
226
 73
225
 74
251
 0
VERTEX
 8
0
 10
0
 20
0.25
 30
0
 70
128
 71
252
 72
250
 73
224
 74
251
 0
VERTEX
 8
0
 10
0
 20
0.25
 30
0
 70
128
 71
252
 72
253
 73
255
 74
250
 0
VERTEX
 8
0
 10
0
 20
0.25
 30
0
 70
128
 71
253
 72
268
 73
254
 74
255
 0
VERTEX
 8
0
 10
0
 20
0.25
 30
0
 70
128
 71
254
 72
256
 73
281
 74
273
 0
VERTEX
 8
0
 10
0
 20
0.25
 30
0
 70
128
 71
257
 72
273
 73
269
 74
258
 0
VERTEX
 8
0
 10
0
 20
0.25
 30
0
 70
128
 71
260
 72
259
 73
257
 74
258
 0
VERTEX
 8
0
 10
0
 20
0.25
 30
0
 70
128
 71
228
 72
259
 73
260
 74
225
 0
VERTEX
 8
0
 10
0
 20
0.25
 30
0
 70
128
 71
261
 72
243
 73
242
 74
240
 0
VERTEX
 8
0
 10
0
 20
0.25
 30
0
 70
128
 71
247
 72
246
 73
243
 74
261
 0
VERTEX
 8
0
 10
0
 20
0.25
 30
0
 70
128
 71
262
 72
263
 73
274
 74
264
 0
VERTEX
 8
0
 10
0
 20
0.25
 30
0
 70
128
 71
247
 72
264
 73
266
 74
246
 0
VERTEX
 8
0
 10
0
 20
0.25
 30
0
 70
128
 71
265
 72
221
 73
266
 74
267
 0
VERTEX
 8
0
 10
0
 20
0.25
 30
0
 70
128
 71
275
 72
263
 73
262
 0
VERTEX
 8
0
 10
0
 20
0.25
 30
0
 70
128
 71
221
 72
265
 73
249
 0
VERTEX
 8
0
 10
0
 20
0.25
 30
0
 70
128
 71
276
 72
275
 73
249
 74
285
 0
VERTEX
 8
0
 10
0
 20
0.25
 30
0
 70
128
 71
260
 72
252
 73
251
 74
225
 0
VERTEX
 8
0
 10
0
 20
0.25
 30
0
 70
128
 71
258
 72
253
 73
252
 74
260
 0
VERTEX
 8
0
 10
0
 20
0.25
 30
0
 70
128
 71
268
 72
253
 73
258
 74
269
 0
VERTEX
 8
0
 10
0
 20
0.25
 30
0
 70
128
 71
268
 72
288
 73
270
 74
254
 0
VERTEX
 8
0
 10
0
 20
0.25
 30
0
 70
128
 71
270
 72
256
 73
254
 0
VERTEX
 8
0
 10
0
 20
0.25
 30
0
 70
128
 71
256
 72
289
 73
271
 74
281
 0
VERTEX
 8
0
 10
0
 20
0.25
 30
0
 70
128
 71
272
 72
273
 73
281
 0
VERTEX
 8
0
 10
0
 20
0.25
 30
0
 70
128
 71
273
 72
272
 73
282
 74
269
 0
VERTEX
 8
0
 10
0
 20
0.25
 30
0
 70
128
 71
263
 72
275
 73
283
 74
274
 0
VERTEX
 8
0
 10
0
 20
0.25
 30
0
 70
128
 71
267
 72
266
 73
264
 74
274
 0
VERTEX
 8
0
 10
0
 20
0.25
 30
0
 70
128
 71
249
 72
265
 73
267
 74
284
 0
VERTEX
 8
0
 10
0
 20
0.25
 30
0
 70
128
 71
275
 72
276
 73
277
 74
283
 0
VERTEX
 8
0
 10
0
 20
0.25
 30
0
 70
128
 71
285
 72
249
 73
284
 74
278
 0
VERTEX
 8
0
 10
0
 20
0.25
 30
0
 70
128
 71
292
 72
276
 73
285
 74
295
 0
VERTEX
 8
0
 10
0
 20
0.25
 30
0
 70
128
 71
288
 72
268
 73
269
 74
282
 0
VERTEX
 8
0
 10
0
 20
0.25
 30
0
 70
128
 71
256
 72
270
 73
288
 74
279
 0
VERTEX
 8
0
 10
0
 20
0.25
 30
0
 70
128
 71
289
 72
256
 73
279
 74
297
 0
VERTEX
 8
0
 10
0
 20
0.25
 30
0
 70
128
 71
289
 72
298
 73
280
 74
271
 0
VERTEX
 8
0
 10
0
 20
0.25
 30
0
 70
128
 71
281
 72
271
 73
291
 74
287
 0
VERTEX
 8
0
 10
0
 20
0.25
 30
0
 70
128
 71
272
 72
281
 73
287
 74
282
 0
VERTEX
 8
0
 10
0
 20
0.25
 30
0
 70
128
 71
284
 72
267
 73
274
 74
283
 0
VERTEX
 8
0
 10
0
 20
0.25
 30
0
 70
128
 71
292
 72
294
 73
277
 74
276
 0
VERTEX
 8
0
 10
0
 20
0.25
 30
0
 70
128
 71
278
 72
284
 73
283
 74
277
 0
VERTEX
 8
0
 10
0
 20
0.25
 30
0
 70
128
 71
295
 72
285
 73
278
 74
303
 0
VERTEX
 8
0
 10
0
 20
0.25
 30
0
 70
128
 71
302
 72
292
 73
295
 74
286
 0
VERTEX
 8
0
 10
0
 20
0.25
 30
0
 70
128
 71
282
 72
287
 73
279
 74
288
 0
VERTEX
 8
0
 10
0
 20
0.25
 30
0
 70
128
 71
287
 72
291
 73
297
 74
279
 0
VERTEX
 8
0
 10
0
 20
0.25
 30
0
 70
128
 71
299
 72
298
 73
289
 74
297
 0
VERTEX
 8
0
 10
0
 20
0.25
 30
0
 70
128
 71
298
 72
311
 73
290
 74
280
 0
VERTEX
 8
0
 10
0
 20
0.25
 30
0
 70
128
 71
271
 72
280
 73
296
 74
291
 0
VERTEX
 8
0
 10
0
 20
0.25
 30
0
 70
128
 71
292
 72
302
 73
293
 74
294
 0
VERTEX
 8
0
 10
0
 20
0.25
 30
0
 70
128
 71
303
 72
278
 73
277
 74
294
 0
VERTEX
 8
0
 10
0
 20
0.25
 30
0
 70
128
 71
286
 72
295
 73
303
 74
304
 0
VERTEX
 8
0
 10
0
 20
0.25
 30
0
 70
128
 71
308
 72
307
 73
302
 74
286
 0
VERTEX
 8
0
 10
0
 20
0.25
 30
0
 70
128
 71
291
 72
296
 73
299
 74
297
 0
VERTEX
 8
0
 10
0
 20
0.25
 30
0
 70
128
 71
311
 72
298
 73
299
 74
309
 0
VERTEX
 8
0
 10
0
 20
0.25
 30
0
 70
128
 71
300
 72
313
 73
290
 74
311
 0
VERTEX
 8
0
 10
0
 20
0.25
 30
0
 70
128
 71
280
 72
290
 73
301
 74
296
 0
VERTEX
 8
0
 10
0
 20
0.25
 30
0
 70
128
 71
315
 72
318
 73
293
 74
302
 0
VERTEX
 8
0
 10
0
 20
0.25
 30
0
 70
128
 71
294
 72
293
 73
304
 74
303
 0
VERTEX
 8
0
 10
0
 20
0.25
 30
0
 70
128
 71
304
 72
305
 73
306
 74
286
 0
VERTEX
 8
0
 10
0
 20
0.25
 30
0
 70
128
 71
317
 72
316
 73
307
 74
308
 0
VERTEX
 8
0
 10
0
 20
0.25
 30
0
 70
128
 71
307
 72
315
 73
302
 0
VERTEX
 8
0
 10
0
 20
0.25
 30
0
 70
128
 71
286
 72
306
 73
308
 0
VERTEX
 8
0
 10
0
 20
0.25
 30
0
 70
128
 71
309
 72
299
 73
296
 74
301
 0
VERTEX
 8
0
 10
0
 20
0.25
 30
0
 70
128
 71
319
 72
310
 73
311
 74
309
 0
VERTEX
 8
0
 10
0
 20
0.25
 30
0
 70
128
 71
320
 72
312
 73
313
 74
300
 0
VERTEX
 8
0
 10
0
 20
0.25
 30
0
 70
128
 71
314
 72
290
 73
313
 0
VERTEX
 8
0
 10
0
 20
0.25
 30
0
 70
128
 71
310
 72
300
 73
311
 0
VERTEX
 8
0
 10
0
 20
0.25
 30
0
 70
128
 71
321
 72
301
 73
290
 74
314
 0
VERTEX
 8
0
 10
0
 20
0.25
 30
0
 70
128
 71
315
 72
307
 73
316
 74
318
 0
VERTEX
 8
0
 10
0
 20
0.25
 30
0
 70
128
 71
304
 72
293
 73
318
 74
305
 0
VERTEX
 8
0
 10
0
 20
0.25
 30
0
 70
128
 71
308
 72
306
 73
305
 74
317
 0
VERTEX
 8
0
 10
0
 20
0.25
 30
0
 70
128
 71
318
 72
316
 73
317
 74
305
 0
VERTEX
 8
0
 10
0
 20
0.25
 30
0
 70
128
 71
309
 72
301
 73
321
 74
319
 0
VERTEX
 8
0
 10
0
 20
0.25
 30
0
 70
128
 71
300
 72
310
 73
319
 74
320
 0
VERTEX
 8
0
 10
0
 20
0.25
 30
0
 70
128
 71
320
 72
319
 73
321
 74
312
 0
VERTEX
 8
0
 10
0
 20
0.25
 30
0
 70
128
 71
314
 72
313
 73
312
 74
321
 0
VERTEX
 8
0
 10
0
 20
0.25
 30
0
 70
128
 71
327
 72
351
 73
343
 74
342
 0
VERTEX
 8
0
 10
0
 20
0.25
 30
0
 70
128
 71
351
 72
327
 73
322
 74
324
 0
VERTEX
 8
0
 10
0
 20
0.25
 30
0
 70
128
 71
326
 72
322
 73
327
 0
VERTEX
 8
0
 10
0
 20
0.25
 30
0
 70
128
 71
322
 72
328
 73
323
 74
324
 0
VERTEX
 8
0
 10
0
 20
0.25
 30
0
 70
128
 71
325
 72
351
 73
324
 0
VERTEX
 8
0
 10
0
 20
0.25
 30
0
 70
128
 71
331
 72
332
 73
322
 74
326
 0
VERTEX
 8
0
 10
0
 20
0.25
 30
0
 70
128
 71
326
 72
327
 73
353
 74
331
 0
VERTEX
 8
0
 10
0
 20
0.25
 30
0
 70
128
 71
332
 72
338
 73
328
 74
322
 0
VERTEX
 8
0
 10
0
 20
0.25
 30
0
 70
128
 71
334
 72
324
 73
323
 74
333
 0
VERTEX
 8
0
 10
0
 20
0.25
 30
0
 70
128
 71
330
 72
329
 73
351
 74
325
 0
VERTEX
 8
0
 10
0
 20
0.25
 30
0
 70
128
 71
324
 72
334
 73
330
 74
325
 0
VERTEX
 8
0
 10
0
 20
0.25
 30
0
 70
128
 71
332
 72
334
 73
333
 74
338
 0
VERTEX
 8
0
 10
0
 20
0.25
 30
0
 70
128
 71
331
 72
330
 73
334
 74
332
 0
VERTEX
 8
0
 10
0
 20
0.25
 30
0
 70
128
 71
333
 72
323
 73
336
 74
335
 0
VERTEX
 8
0
 10
0
 20
0.25
 30
0
 70
128
 71
337
 72
336
 73
323
 74
328
 0
VERTEX
 8
0
 10
0
 20
0.25
 30
0
 70
128
 71
336
 72
340
 73
339
 74
335
 0
VERTEX
 8
0
 10
0
 20
0.25
 30
0
 70
128
 71
336
 72
337
 73
341
 74
340
 0
VERTEX
 8
0
 10
0
 20
0.25
 30
0
 70
128
 71
349
 72
337
 73
328
 74
338
 0
VERTEX
 8
0
 10
0
 20
0.25
 30
0
 70
128
 71
346
 72
345
 73
339
 74
340
 0
VERTEX
 8
0
 10
0
 20
0.25
 30
0
 70
128
 71
348
 72
341
 73
337
 74
349
 0
VERTEX
 8
0
 10
0
 20
0.25
 30
0
 70
128
 71
340
 72
341
 73
342
 74
343
 0
VERTEX
 8
0
 10
0
 20
0.25
 30
0
 70
128
 71
343
 72
344
 73
345
 74
346
 0
VERTEX
 8
0
 10
0
 20
0.25
 30
0
 70
128
 71
346
 72
340
 73
343
 0
VERTEX
 8
0
 10
0
 20
0.25
 30
0
 70
128
 71
341
 72
348
 73
347
 74
350
 0
VERTEX
 8
0
 10
0
 20
0.25
 30
0
 70
128
 71
350
 72
342
 73
341
 0
VERTEX
 8
0
 10
0
 20
0.25
 30
0
 70
128
 71
329
 72
344
 73
343
 74
351
 0
VERTEX
 8
0
 10
0
 20
0.25
 30
0
 70
128
 71
350
 72
347
 73
352
 74
342
 0
VERTEX
 8
0
 10
0
 20
0.25
 30
0
 70
128
 71
353
 72
329
 73
330
 74
331
 0
VERTEX
 8
0
 10
0
 20
0.25
 30
0
 70
128
 71
353
 72
327
 73
342
 74
352
 0
VERTEX
 8
0
 10
0
 20
0.25
 30
0
 70
128
 71
335
 72
349
 73
338
 74
333
 0
VERTEX
 8
0
 10
0
 20
0.25
 30
0
 70
128
 71
329
 72
353
 73
352
 74
344
 0
VERTEX
 8
0
 10
0
 20
0.25
 30
0
 70
128
 71
356
 72
499
 73
354
 74
357
 0
VERTEX
 8
0
 10
0
 20
0.25
 30
0
 70
128
 71
355
 72
361
 73
499
 74
356
 0
VERTEX
 8
0
 10
0
 20
0.25
 30
0
 70
128
 71
514
 72
360
 73
357
 74
354
 0
VERTEX
 8
0
 10
0
 20
0.25
 30
0
 70
128
 71
358
 72
361
 73
355
 0
VERTEX
 8
0
 10
0
 20
0.25
 30
0
 70
128
 71
514
 72
359
 73
360
 0
VERTEX
 8
0
 10
0
 20
0.25
 30
0
 70
128
 71
361
 72
358
 73
362
 0
VERTEX
 8
0
 10
0
 20
0.25
 30
0
 70
128
 71
393
 72
362
 73
358
 74
355
 0
VERTEX
 8
0
 10
0
 20
0.25
 30
0
 70
128
 71
359
 72
514
 73
364
 0
VERTEX
 8
0
 10
0
 20
0.25
 30
0
 70
128
 71
360
 72
359
 73
364
 74
392
 0
VERTEX
 8
0
 10
0
 20
0.25
 30
0
 70
128
 71
514
 72
361
 73
362
 74
364
 0
VERTEX
 8
0
 10
0
 20
0.25
 30
0
 70
128
 71
400
 72
399
 73
362
 74
393
 0
VERTEX
 8
0
 10
0
 20
0.25
 30
0
 70
128
 71
392
 72
364
 73
408
 74
363
 0
VERTEX
 8
0
 10
0
 20
0.25
 30
0
 70
128
 71
366
 72
364
 73
362
 74
365
 0
VERTEX
 8
0
 10
0
 20
0.25
 30
0
 70
128
 71
365
 72
362
 73
399
 0
VERTEX
 8
0
 10
0
 20
0.25
 30
0
 70
128
 71
366
 72
408
 73
364
 0
VERTEX
 8
0
 10
0
 20
0.25
 30
0
 70
128
 71
374
 72
368
 73
370
 74
375
 0
VERTEX
 8
0
 10
0
 20
0.25
 30
0
 70
128
 71
374
 72
373
 73
367
 74
368
 0
VERTEX
 8
0
 10
0
 20
0.25
 30
0
 70
128
 71
367
 72
369
 73
370
 74
368
 0
VERTEX
 8
0
 10
0
 20
0.25
 30
0
 70
128
 71
375
 72
370
 73
371
 74
372
 0
VERTEX
 8
0
 10
0
 20
0.25
 30
0
 70
128
 71
376
 72
373
 73
374
 74
375
 0
VERTEX
 8
0
 10
0
 20
0.25
 30
0
 70
128
 71
376
 72
369
 73
367
 74
373
 0
VERTEX
 8
0
 10
0
 20
0.25
 30
0
 70
128
 71
370
 72
369
 73
381
 74
371
 0
VERTEX
 8
0
 10
0
 20
0.25
 30
0
 70
128
 71
372
 72
371
 73
377
 74
379
 0
VERTEX
 8
0
 10
0
 20
0.25
 30
0
 70
128
 71
372
 72
382
 73
376
 74
375
 0
VERTEX
 8
0
 10
0
 20
0.25
 30
0
 70
128
 71
382
 72
381
 73
369
 74
376
 0
VERTEX
 8
0
 10
0
 20
0.25
 30
0
 70
128
 71
371
 72
381
 73
378
 74
377
 0
VERTEX
 8
0
 10
0
 20
0.25
 30
0
 70
128
 71
386
 72
379
 73
377
 74
384
 0
VERTEX
 8
0
 10
0
 20
0.25
 30
0
 70
128
 71
379
 72
380
 73
382
 74
372
 0
VERTEX
 8
0
 10
0
 20
0.25
 30
0
 70
128
 71
380
 72
378
 73
381
 74
382
 0
VERTEX
 8
0
 10
0
 20
0.25
 30
0
 70
128
 71
383
 72
384
 73
377
 74
378
 0
VERTEX
 8
0
 10
0
 20
0.25
 30
0
 70
128
 71
386
 72
389
 73
380
 74
379
 0
VERTEX
 8
0
 10
0
 20
0.25
 30
0
 70
128
 71
386
 72
384
 73
387
 74
385
 0
VERTEX
 8
0
 10
0
 20
0.25
 30
0
 70
128
 71
378
 72
380
 73
389
 74
383
 0
VERTEX
 8
0
 10
0
 20
0.25
 30
0
 70
128
 71
384
 72
383
 73
388
 74
387
 0
VERTEX
 8
0
 10
0
 20
0.25
 30
0
 70
128
 71
385
 72
391
 73
389
 74
386
 0
VERTEX
 8
0
 10
0
 20
0.25
 30
0
 70
128
 71
393
 72
355
 73
385
 74
387
 0
VERTEX
 8
0
 10
0
 20
0.25
 30
0
 70
128
 71
391
 72
388
 73
383
 74
389
 0
VERTEX
 8
0
 10
0
 20
0.25
 30
0
 70
128
 71
387
 72
388
 73
396
 74
390
 0
VERTEX
 8
0
 10
0
 20
0.25
 30
0
 70
128
 71
391
 72
385
 73
355
 0
VERTEX
 8
0
 10
0
 20
0.25
 30
0
 70
128
 71
392
 72
393
 73
387
 74
390
 0
VERTEX
 8
0
 10
0
 20
0.25
 30
0
 70
128
 71
388
 72
391
 73
395
 0
VERTEX
 8
0
 10
0
 20
0.25
 30
0
 70
128
 71
395
 72
394
 73
396
 74
388
 0
VERTEX
 8
0
 10
0
 20
0.25
 30
0
 70
128
 71
390
 72
396
 73
397
 74
398
 0
VERTEX
 8
0
 10
0
 20
0.25
 30
0
 70
128
 71
391
 72
355
 73
356
 74
395
 0
VERTEX
 8
0
 10
0
 20
0.25
 30
0
 70
128
 71
363
 72
400
 73
393
 74
392
 0
VERTEX
 8
0
 10
0
 20
0.25
 30
0
 70
128
 71
392
 72
390
 73
407
 74
360
 0
VERTEX
 8
0
 10
0
 20
0.25
 30
0
 70
128
 71
402
 72
401
 73
394
 74
395
 0
VERTEX
 8
0
 10
0
 20
0.25
 30
0
 70
128
 71
396
 72
394
 73
406
 0
VERTEX
 8
0
 10
0
 20
0.25
 30
0
 70
128
 71
396
 72
406
 73
405
 74
397
 0
VERTEX
 8
0
 10
0
 20
0.25
 30
0
 70
128
 71
417
 72
421
 73
398
 74
397
 0
VERTEX
 8
0
 10
0
 20
0.25
 30
0
 70
128
 71
398
 72
404
 73
407
 74
390
 0
VERTEX
 8
0
 10
0
 20
0.25
 30
0
 70
128
 71
356
 72
414
 73
395
 0
VERTEX
 8
0
 10
0
 20
0.25
 30
0
 70
128
 71
408
 72
399
 73
400
 74
363
 0
VERTEX
 8
0
 10
0
 20
0.25
 30
0
 70
128
 71
407
 72
406
 73
360
 0
VERTEX
 8
0
 10
0
 20
0.25
 30
0
 70
128
 71
401
 72
402
 73
423
 74
409
 0
VERTEX
 8
0
 10
0
 20
0.25
 30
0
 70
128
 71
403
 72
394
 73
401
 74
415
 0
VERTEX
 8
0
 10
0
 20
0.25
 30
0
 70
128
 71
395
 72
414
 73
416
 74
402
 0
VERTEX
 8
0
 10
0
 20
0.25
 30
0
 70
128
 71
357
 72
360
 73
406
 74
394
 0
VERTEX
 8
0
 10
0
 20
0.25
 30
0
 70
128
 71
404
 72
405
 73
406
 74
407
 0
VERTEX
 8
0
 10
0
 20
0.25
 30
0
 70
128
 71
397
 72
405
 73
418
 74
417
 0
VERTEX
 8
0
 10
0
 20
0.25
 30
0
 70
128
 71
421
 72
417
 73
437
 74
420
 0
VERTEX
 8
0
 10
0
 20
0.25
 30
0
 70
128
 71
436
 72
404
 73
398
 74
421
 0
VERTEX
 8
0
 10
0
 20
0.25
 30
0
 70
128
 71
403
 72
414
 73
356
 74
357
 0
VERTEX
 8
0
 10
0
 20
0.25
 30
0
 70
128
 71
399
 72
408
 73
366
 74
365
 0
VERTEX
 8
0
 10
0
 20
0.25
 30
0
 70
128
 71
442
 72
423
 73
402
 0
VERTEX
 8
0
 10
0
 20
0.25
 30
0
 70
128
 71
409
 72
423
 73
410
 74
411
 0
VERTEX
 8
0
 10
0
 20
0.25
 30
0
 70
128
 71
409
 72
451
 73
401
 0
VERTEX
 8
0
 10
0
 20
0.25
 30
0
 70
128
 71
403
 72
357
 73
394
 0
VERTEX
 8
0
 10
0
 20
0.25
 30
0
 70
128
 71
415
 72
401
 73
412
 74
413
 0
VERTEX
 8
0
 10
0
 20
0.25
 30
0
 70
128
 71
414
 72
403
 73
415
 74
416
 0
VERTEX
 8
0
 10
0
 20
0.25
 30
0
 70
128
 71
461
 72
460
 73
402
 74
416
 0
VERTEX
 8
0
 10
0
 20
0.25
 30
0
 70
128
 71
436
 72
418
 73
405
 74
404
 0
VERTEX
 8
0
 10
0
 20
0.25
 30
0
 70
128
 71
417
 72
418
 73
419
 74
437
 0
VERTEX
 8
0
 10
0
 20
0.25
 30
0
 70
128
 71
420
 72
437
 73
438
 74
464
 0
VERTEX
 8
0
 10
0
 20
0.25
 30
0
 70
128
 71
420
 72
435
 73
436
 74
421
 0
VERTEX
 8
0
 10
0
 20
0.25
 30
0
 70
128
 71
442
 72
441
 73
422
 74
423
 0
VERTEX
 8
0
 10
0
 20
0.25
 30
0
 70
128
 71
442
 72
402
 73
444
 0
VERTEX
 8
0
 10
0
 20
0.25
 30
0
 70
128
 71
423
 72
422
 73
445
 74
410
 0
VERTEX
 8
0
 10
0
 20
0.25
 30
0
 70
128
 71
471
 72
424
 73
411
 74
410
 0
VERTEX
 8
0
 10
0
 20
0.25
 30
0
 70
128
 71
411
 72
425
 73
426
 74
409
 0
VERTEX
 8
0
 10
0
 20
0.25
 30
0
 70
128
 71
409
 72
426
 73
452
 74
451
 0
VERTEX
 8
0
 10
0
 20
0.25
 30
0
 70
128
 71
451
 72
427
 73
401
 0
VERTEX
 8
0
 10
0
 20
0.25
 30
0
 70
128
 71
473
 72
412
 73
401
 0
VERTEX
 8
0
 10
0
 20
0.25
 30
0
 70
128
 71
413
 72
412
 73
428
 74
456
 0
VERTEX
 8
0
 10
0
 20
0.25
 30
0
 70
128
 71
429
 72
415
 73
413
 0
VERTEX
 8
0
 10
0
 20
0.25
 30
0
 70
128
 71
416
 72
415
 73
430
 74
431
 0
VERTEX
 8
0
 10
0
 20
0.25
 30
0
 70
128
 71
432
 72
433
 73
460
 74
461
 0
VERTEX
 8
0
 10
0
 20
0.25
 30
0
 70
128
 71
434
 72
402
 73
460
 0
VERTEX
 8
0
 10
0
 20
0.25
 30
0
 70
128
 71
487
 72
461
 73
416
 0
VERTEX
 8
0
 10
0
 20
0.25
 30
0
 70
128
 71
435
 72
419
 73
418
 74
436
 0
VERTEX
 8
0
 10
0
 20
0.25
 30
0
 70
128
 71
437
 72
419
 73
463
 74
438
 0
VERTEX
 8
0
 10
0
 20
0.25
 30
0
 70
128
 71
438
 72
439
 73
440
 74
464
 0
VERTEX
 8
0
 10
0
 20
0.25
 30
0
 70
128
 71
464
 72
490
 73
435
 74
420
 0
VERTEX
 8
0
 10
0
 20
0.25
 30
0
 70
128
 71
446
 72
465
 73
441
 74
442
 0
VERTEX
 8
0
 10
0
 20
0.25
 30
0
 70
128
 71
422
 72
441
 73
483
 74
492
 0
VERTEX
 8
0
 10
0
 20
0.25
 30
0
 70
128
 71
444
 72
402
 73
434
 0
VERTEX
 8
0
 10
0
 20
0.25
 30
0
 70
128
 71
443
 72
446
 73
442
 74
444
 0
VERTEX
 8
0
 10
0
 20
0.25
 30
0
 70
128
 71
445
 72
422
 73
426
 74
425
 0
VERTEX
 8
0
 10
0
 20
0.25
 30
0
 70
128
 71
410
 72
445
 73
465
 74
446
 0
VERTEX
 8
0
 10
0
 20
0.25
 30
0
 70
128
 71
447
 72
448
 73
424
 74
471
 0
VERTEX
 8
0
 10
0
 20
0.25
 30
0
 70
128
 71
424
 72
449
 73
411
 0
VERTEX
 8
0
 10
0
 20
0.25
 30
0
 70
128
 71
446
 72
471
 73
410
 0
VERTEX
 8
0
 10
0
 20
0.25
 30
0
 70
128
 71
449
 72
453
 73
425
 74
411
 0
VERTEX
 8
0
 10
0
 20
0.25
 30
0
 70
128
 71
452
 72
426
 73
450
 74
474
 0
VERTEX
 8
0
 10
0
 20
0.25
 30
0
 70
128
 71
451
 72
452
 73
453
 74
449
 0
VERTEX
 8
0
 10
0
 20
0.25
 30
0
 70
128
 71
427
 72
451
 73
449
 74
454
 0
VERTEX
 8
0
 10
0
 20
0.25
 30
0
 70
128
 71
427
 72
473
 73
401
 0
VERTEX
 8
0
 10
0
 20
0.25
 30
0
 70
128
 71
474
 72
412
 73
473
 74
452
 0
VERTEX
 8
0
 10
0
 20
0.25
 30
0
 70
128
 71
474
 72
455
 73
428
 74
412
 0
VERTEX
 8
0
 10
0
 20
0.25
 30
0
 70
128
 71
456
 72
428
 73
424
 74
498
 0
VERTEX
 8
0
 10
0
 20
0.25
 30
0
 70
128
 71
476
 72
457
 73
413
 74
456
 0
VERTEX
 8
0
 10
0
 20
0.25
 30
0
 70
128
 71
477
 72
415
 73
429
 0
VERTEX
 8
0
 10
0
 20
0.25
 30
0
 70
128
 71
501
 72
429
 73
413
 74
457
 0
VERTEX
 8
0
 10
0
 20
0.25
 30
0
 70
128
 71
458
 72
430
 73
415
 0
VERTEX
 8
0
 10
0
 20
0.25
 30
0
 70
128
 71
459
 72
431
 73
430
 74
481
 0
VERTEX
 8
0
 10
0
 20
0.25
 30
0
 70
128
 71
508
 72
416
 73
431
 0
VERTEX
 8
0
 10
0
 20
0.25
 30
0
 70
128
 71
497
 72
471
 73
433
 74
432
 0
VERTEX
 8
0
 10
0
 20
0.25
 30
0
 70
128
 71
484
 72
483
 73
460
 74
433
 0
VERTEX
 8
0
 10
0
 20
0.25
 30
0
 70
128
 71
482
 72
485
 73
432
 74
461
 0
VERTEX
 8
0
 10
0
 20
0.25
 30
0
 70
128
 71
460
 72
483
 73
441
 74
434
 0
VERTEX
 8
0
 10
0
 20
0.25
 30
0
 70
128
 71
487
 72
507
 73
482
 74
461
 0
VERTEX
 8
0
 10
0
 20
0.25
 30
0
 70
128
 71
487
 72
416
 73
462
 0
VERTEX
 8
0
 10
0
 20
0.25
 30
0
 70
128
 71
490
 72
463
 73
419
 74
435
 0
VERTEX
 8
0
 10
0
 20
0.25
 30
0
 70
128
 71
438
 72
463
 73
489
 74
439
 0
VERTEX
 8
0
 10
0
 20
0.25
 30
0
 70
128
 71
440
 72
439
 73
489
 74
491
 0
VERTEX
 8
0
 10
0
 20
0.25
 30
0
 70
128
 71
440
 72
491
 73
490
 74
464
 0
VERTEX
 8
0
 10
0
 20
0.25
 30
0
 70
128
 71
441
 72
465
 73
466
 74
434
 0
VERTEX
 8
0
 10
0
 20
0.25
 30
0
 70
128
 71
493
 72
492
 73
483
 74
482
 0
VERTEX
 8
0
 10
0
 20
0.25
 30
0
 70
128
 71
492
 72
450
 73
426
 74
422
 0
VERTEX
 8
0
 10
0
 20
0.25
 30
0
 70
128
 71
444
 72
434
 73
466
 74
443
 0
VERTEX
 8
0
 10
0
 20
0.25
 30
0
 70
128
 71
446
 72
443
 73
471
 0
VERTEX
 8
0
 10
0
 20
0.25
 30
0
 70
128
 71
467
 72
468
 73
445
 74
425
 0
VERTEX
 8
0
 10
0
 20
0.25
 30
0
 70
128
 71
465
 72
445
 73
468
 74
484
 0
VERTEX
 8
0
 10
0
 20
0.25
 30
0
 70
128
 71
519
 72
513
 73
448
 74
447
 0
VERTEX
 8
0
 10
0
 20
0.25
 30
0
 70
128
 71
498
 72
424
 73
448
 74
469
 0
VERTEX
 8
0
 10
0
 20
0.25
 30
0
 70
128
 71
470
 72
447
 73
471
 74
497
 0
VERTEX
 8
0
 10
0
 20
0.25
 30
0
 70
128
 71
424
 72
454
 73
449
 0
VERTEX
 8
0
 10
0
 20
0.25
 30
0
 70
128
 71
425
 72
453
 73
455
 74
467
 0
VERTEX
 8
0
 10
0
 20
0.25
 30
0
 70
128
 71
457
 72
474
 73
450
 74
472
 0
VERTEX
 8
0
 10
0
 20
0.25
 30
0
 70
128
 71
453
 72
452
 73
473
 74
475
 0
VERTEX
 8
0
 10
0
 20
0.25
 30
0
 70
128
 71
454
 72
475
 73
473
 74
427
 0
VERTEX
 8
0
 10
0
 20
0.25
 30
0
 70
128
 71
476
 72
455
 73
474
 74
457
 0
VERTEX
 8
0
 10
0
 20
0.25
 30
0
 70
128
 71
453
 72
475
 73
428
 74
455
 0
VERTEX
 8
0
 10
0
 20
0.25
 30
0
 70
128
 71
428
 72
475
 73
424
 0
VERTEX
 8
0
 10
0
 20
0.25
 30
0
 70
128
 71
479
 72
456
 73
498
 0
VERTEX
 8
0
 10
0
 20
0.25
 30
0
 70
128
 71
476
 72
456
 73
479
 74
478
 0
VERTEX
 8
0
 10
0
 20
0.25
 30
0
 70
128
 71
458
 72
415
 73
477
 0
VERTEX
 8
0
 10
0
 20
0.25
 30
0
 70
128
 71
429
 72
479
 73
500
 74
477
 0
VERTEX
 8
0
 10
0
 20
0.25
 30
0
 70
128
 71
501
 72
478
 73
479
 74
429
 0
VERTEX
 8
0
 10
0
 20
0.25
 30
0
 70
128
 71
457
 72
472
 73
504
 74
501
 0
VERTEX
 8
0
 10
0
 20
0.25
 30
0
 70
128
 71
430
 72
458
 73
501
 74
504
 0
VERTEX
 8
0
 10
0
 20
0.25
 30
0
 70
128
 71
505
 72
503
 73
431
 74
459
 0
VERTEX
 8
0
 10
0
 20
0.25
 30
0
 70
128
 71
504
 72
480
 73
481
 74
430
 0
VERTEX
 8
0
 10
0
 20
0.25
 30
0
 70
128
 71
498
 72
497
 73
459
 74
481
 0
VERTEX
 8
0
 10
0
 20
0.25
 30
0
 70
128
 71
508
 72
462
 73
416
 0
VERTEX
 8
0
 10
0
 20
0.25
 30
0
 70
128
 71
508
 72
431
 73
503
 74
507
 0
VERTEX
 8
0
 10
0
 20
0.25
 30
0
 70
128
 71
466
 72
433
 73
471
 0
VERTEX
 8
0
 10
0
 20
0.25
 30
0
 70
128
 71
488
 72
497
 73
432
 0
VERTEX
 8
0
 10
0
 20
0.25
 30
0
 70
128
 71
482
 72
483
 73
484
 74
485
 0
VERTEX
 8
0
 10
0
 20
0.25
 30
0
 70
128
 71
484
 72
433
 73
466
 74
465
 0
VERTEX
 8
0
 10
0
 20
0.25
 30
0
 70
128
 71
486
 72
488
 73
432
 74
485
 0
VERTEX
 8
0
 10
0
 20
0.25
 30
0
 70
128
 71
486
 72
507
 73
487
 74
488
 0
VERTEX
 8
0
 10
0
 20
0.25
 30
0
 70
128
 71
493
 72
482
 73
507
 74
503
 0
VERTEX
 8
0
 10
0
 20
0.25
 30
0
 70
128
 71
488
 72
487
 73
462
 74
509
 0
VERTEX
 8
0
 10
0
 20
0.25
 30
0
 70
128
 71
489
 72
463
 73
490
 74
491
 0
VERTEX
 8
0
 10
0
 20
0.25
 30
0
 70
128
 71
510
 72
468
 73
492
 74
493
 0
VERTEX
 8
0
 10
0
 20
0.25
 30
0
 70
128
 71
492
 72
468
 73
467
 74
450
 0
VERTEX
 8
0
 10
0
 20
0.25
 30
0
 70
128
 71
443
 72
466
 73
471
 0
VERTEX
 8
0
 10
0
 20
0.25
 30
0
 70
128
 71
485
 72
484
 73
468
 74
510
 0
VERTEX
 8
0
 10
0
 20
0.25
 30
0
 70
128
 71
494
 72
513
 73
519
 74
495
 0
VERTEX
 8
0
 10
0
 20
0.25
 30
0
 70
128
 71
513
 72
496
 73
448
 0
VERTEX
 8
0
 10
0
 20
0.25
 30
0
 70
128
 71
519
 72
447
 73
516
 0
VERTEX
 8
0
 10
0
 20
0.25
 30
0
 70
128
 71
448
 72
354
 73
469
 0
VERTEX
 8
0
 10
0
 20
0.25
 30
0
 70
128
 71
497
 72
498
 73
469
 74
470
 0
VERTEX
 8
0
 10
0
 20
0.25
 30
0
 70
128
 71
447
 72
470
 73
499
 0
VERTEX
 8
0
 10
0
 20
0.25
 30
0
 70
128
 71
454
 72
424
 73
475
 0
VERTEX
 8
0
 10
0
 20
0.25
 30
0
 70
128
 71
511
 72
467
 73
455
 74
476
 0
VERTEX
 8
0
 10
0
 20
0.25
 30
0
 70
128
 71
472
 72
450
 73
467
 74
511
 0
VERTEX
 8
0
 10
0
 20
0.25
 30
0
 70
128
 71
498
 72
500
 73
479
 0
VERTEX
 8
0
 10
0
 20
0.25
 30
0
 70
128
 71
511
 72
476
 73
478
 74
480
 0
VERTEX
 8
0
 10
0
 20
0.25
 30
0
 70
128
 71
502
 72
458
 73
477
 74
500
 0
VERTEX
 8
0
 10
0
 20
0.25
 30
0
 70
128
 71
478
 72
501
 73
458
 74
502
 0
VERTEX
 8
0
 10
0
 20
0.25
 30
0
 70
128
 71
503
 72
504
 73
472
 74
493
 0
VERTEX
 8
0
 10
0
 20
0.25
 30
0
 70
128
 71
503
 72
505
 73
480
 74
504
 0
VERTEX
 8
0
 10
0
 20
0.25
 30
0
 70
128
 71
486
 72
505
 73
459
 74
506
 0
VERTEX
 8
0
 10
0
 20
0.25
 30
0
 70
128
 71
480
 72
478
 73
502
 74
481
 0
VERTEX
 8
0
 10
0
 20
0.25
 30
0
 70
128
 71
506
 72
459
 73
497
 0
VERTEX
 8
0
 10
0
 20
0.25
 30
0
 70
128
 71
481
 72
502
 73
498
 0
VERTEX
 8
0
 10
0
 20
0.25
 30
0
 70
128
 71
508
 72
506
 73
509
 74
462
 0
VERTEX
 8
0
 10
0
 20
0.25
 30
0
 70
128
 71
507
 72
486
 73
506
 74
508
 0
VERTEX
 8
0
 10
0
 20
0.25
 30
0
 70
128
 71
488
 72
509
 73
497
 0
VERTEX
 8
0
 10
0
 20
0.25
 30
0
 70
128
 71
485
 72
510
 73
505
 74
486
 0
VERTEX
 8
0
 10
0
 20
0.25
 30
0
 70
128
 71
510
 72
493
 73
472
 74
511
 0
VERTEX
 8
0
 10
0
 20
0.25
 30
0
 70
128
 71
520
 72
512
 73
513
 74
494
 0
VERTEX
 8
0
 10
0
 20
0.25
 30
0
 70
128
 71
495
 72
519
 73
518
 74
522
 0
VERTEX
 8
0
 10
0
 20
0.25
 30
0
 70
128
 71
495
 72
361
 73
514
 74
494
 0
VERTEX
 8
0
 10
0
 20
0.25
 30
0
 70
128
 71
512
 72
515
 73
496
 74
513
 0
VERTEX
 8
0
 10
0
 20
0.25
 30
0
 70
128
 71
514
 72
354
 73
448
 74
496
 0
VERTEX
 8
0
 10
0
 20
0.25
 30
0
 70
128
 71
447
 72
499
 73
361
 74
516
 0
VERTEX
 8
0
 10
0
 20
0.25
 30
0
 70
128
 71
517
 72
518
 73
519
 74
516
 0
VERTEX
 8
0
 10
0
 20
0.25
 30
0
 70
128
 71
354
 72
499
 73
470
 74
469
 0
VERTEX
 8
0
 10
0
 20
0.25
 30
0
 70
128
 71
502
 72
500
 73
498
 0
VERTEX
 8
0
 10
0
 20
0.25
 30
0
 70
128
 71
480
 72
505
 73
510
 74
511
 0
VERTEX
 8
0
 10
0
 20
0.25
 30
0
 70
128
 71
509
 72
506
 73
497
 0
VERTEX
 8
0
 10
0
 20
0.25
 30
0
 70
128
 71
512
 72
520
 73
534
 74
528
 0
VERTEX
 8
0
 10
0
 20
0.25
 30
0
 70
128
 71
494
 72
523
 73
526
 74
520
 0
VERTEX
 8
0
 10
0
 20
0.25
 30
0
 70
128
 71
529
 72
521
 73
522
 74
518
 0
VERTEX
 8
0
 10
0
 20
0.25
 30
0
 70
128
 71
524
 72
495
 73
522
 74
530
 0
VERTEX
 8
0
 10
0
 20
0.25
 30
0
 70
128
 71
495
 72
524
 73
361
 0
VERTEX
 8
0
 10
0
 20
0.25
 30
0
 70
128
 71
523
 72
494
 73
514
 0
VERTEX
 8
0
 10
0
 20
0.25
 30
0
 70
128
 71
538
 72
515
 73
512
 74
528
 0
VERTEX
 8
0
 10
0
 20
0.25
 30
0
 70
128
 71
523
 72
496
 73
515
 74
526
 0
VERTEX
 8
0
 10
0
 20
0.25
 30
0
 70
128
 71
523
 72
514
 73
496
 0
VERTEX
 8
0
 10
0
 20
0.25
 30
0
 70
128
 71
516
 72
361
 73
524
 0
VERTEX
 8
0
 10
0
 20
0.25
 30
0
 70
128
 71
517
 72
533
 73
529
 74
518
 0
VERTEX
 8
0
 10
0
 20
0.25
 30
0
 70
128
 71
530
 72
517
 73
516
 74
524
 0
VERTEX
 8
0
 10
0
 20
0.25
 30
0
 70
128
 71
525
 72
534
 73
520
 74
526
 0
VERTEX
 8
0
 10
0
 20
0.25
 30
0
 70
128
 71
535
 72
527
 73
528
 74
534
 0
VERTEX
 8
0
 10
0
 20
0.25
 30
0
 70
128
 71
521
 72
529
 73
544
 74
537
 0
VERTEX
 8
0
 10
0
 20
0.25
 30
0
 70
128
 71
530
 72
522
 73
521
 74
531
 0
VERTEX
 8
0
 10
0
 20
0.25
 30
0
 70
128
 71
526
 72
515
 73
538
 74
525
 0
VERTEX
 8
0
 10
0
 20
0.25
 30
0
 70
128
 71
527
 72
539
 73
538
 74
528
 0
VERTEX
 8
0
 10
0
 20
0.25
 30
0
 70
128
 71
531
 72
533
 73
517
 74
530
 0
VERTEX
 8
0
 10
0
 20
0.25
 30
0
 70
128
 71
532
 72
544
 73
529
 74
533
 0
VERTEX
 8
0
 10
0
 20
0.25
 30
0
 70
128
 71
534
 72
525
 73
540
 74
535
 0
VERTEX
 8
0
 10
0
 20
0.25
 30
0
 70
128
 71
536
 72
541
 73
527
 74
535
 0
VERTEX
 8
0
 10
0
 20
0.25
 30
0
 70
128
 71
537
 72
544
 73
548
 74
557
 0
VERTEX
 8
0
 10
0
 20
0.25
 30
0
 70
128
 71
531
 72
521
 73
537
 74
543
 0
VERTEX
 8
0
 10
0
 20
0.25
 30
0
 70
128
 71
525
 72
538
 73
539
 74
540
 0
VERTEX
 8
0
 10
0
 20
0.25
 30
0
 70
128
 71
541
 72
542
 73
539
 74
527
 0
VERTEX
 8
0
 10
0
 20
0.25
 30
0
 70
128
 71
543
 72
532
 73
533
 74
531
 0
VERTEX
 8
0
 10
0
 20
0.25
 30
0
 70
128
 71
549
 72
548
 73
544
 74
532
 0
VERTEX
 8
0
 10
0
 20
0.25
 30
0
 70
128
 71
535
 72
540
 73
550
 74
536
 0
VERTEX
 8
0
 10
0
 20
0.25
 30
0
 70
128
 71
545
 72
541
 73
536
 74
552
 0
VERTEX
 8
0
 10
0
 20
0.25
 30
0
 70
128
 71
548
 72
546
 73
547
 74
557
 0
VERTEX
 8
0
 10
0
 20
0.25
 30
0
 70
128
 71
543
 72
537
 73
557
 74
556
 0
VERTEX
 8
0
 10
0
 20
0.25
 30
0
 70
128
 71
540
 72
539
 73
542
 74
550
 0
VERTEX
 8
0
 10
0
 20
0.25
 30
0
 70
128
 71
545
 72
553
 73
542
 74
541
 0
VERTEX
 8
0
 10
0
 20
0.25
 30
0
 70
128
 71
556
 72
549
 73
532
 74
543
 0
VERTEX
 8
0
 10
0
 20
0.25
 30
0
 70
128
 71
554
 72
546
 73
548
 74
549
 0
VERTEX
 8
0
 10
0
 20
0.25
 30
0
 70
128
 71
536
 72
550
 73
551
 74
552
 0
VERTEX
 8
0
 10
0
 20
0.25
 30
0
 70
128
 71
551
 72
553
 73
545
 74
552
 0
VERTEX
 8
0
 10
0
 20
0.25
 30
0
 70
128
 71
547
 72
546
 73
554
 74
555
 0
VERTEX
 8
0
 10
0
 20
0.25
 30
0
 70
128
 71
556
 72
557
 73
547
 74
555
 0
VERTEX
 8
0
 10
0
 20
0.25
 30
0
 70
128
 71
542
 72
553
 73
551
 74
550
 0
VERTEX
 8
0
 10
0
 20
0.25
 30
0
 70
128
 71
554
 72
549
 73
556
 74
555
 0
VERTEX
 8
0
 10
0
 20
0.25
 30
0
 70
128
 71
335
 72
339
 73
348
 74
349
 0
VERTEX
 8
0
 10
0
 20
0.25
 30
0
 70
128
 71
339
 72
345
 73
347
 74
348
 0
VERTEX
 8
0
 10
0
 20
0.25
 30
0
 70
128
 71
344
 72
352
 73
347
 74
345
 0
SEQEND
 8
0
 0
ENDSEC
 0
EOF
