 0
SECTION
 2
HEADER
 9
$ACADVER
 1
AC1009
 9
$INSBASE
 10
0.0
 20
0.0
 30
0.0
 9
$EXTMIN
 10
0.0
 20
0.0
 30
0.0
 9
$EXTMAX
 10
0.0
 20
0.0
 30
0.0
 0
ENDSEC
 0
SECTION
 2
TABLES
 0
TABLE
 2
VPORT
 70
1
 0
VPORT
 2
*ACTIVE
 70
0
 10
0.0
 20
0.0
 11
1.0
 21
1.0
 12
-5.0
 22
1.0
 13
0.0
 23
0.0
 14
0.1
 24
0.1
 15
0.1
 25
0.1
 16
0.0
 26
0.0
 36
1.0
 17
0.0
 27
0.0
 37
0.0
 40
10.0
 41
1.0
 42
50.0
 43
0.0
 44
0.0
 50
0.0
 51
0.0
 71
0
 72
100
 73
1
 74
1
 75
0
 76
0
 77
0
 78
0
 0
ENDTAB
 0
TABLE
 2
LTYPE
 70
8
 0
LTYPE
 2
CONTINUOUS
 70
0
 3
Solid line
 72
65
 73
0
 40
0.0
 0
LTYPE
 2
DOT
 70
0
 3
. . . . . . .
 72
65
 73
2
 40
0.25
 49
0.0
 49
-0.25
 0
LTYPE
 2
DASHED
 70
0
 3
__ __ __ __ __
 72
65
 73
2
 40
0.8
 49
0.5
 49
-0.3
 0
LTYPE
 2
DASHDOT
 70
0
 3
__ . __ . __ .
 72
65
 73
4
 40
1.0
 49
0.5
 49
-0.25
 49
0.0
 49
-0.25
 0
LTYPE
 2
DIVIDE
 70
0
 3
____ . . ____ . .
 72
65
 73
6
 40
1.25
 49
0.5
 49
-0.25
 49
0.0
 49
-0.25
 49
0.0
 49
-0.25
 0
LTYPE
 2
BORDER
 70
0
 3
__ __ . __ __ .
 72
65
 73
6
 40
1.75
 49
0.5
 49
-0.25
 49
0.5
 49
-0.25
 49
0.0
 49
-0.25
 0
LTYPE
 2
HIDDEN
 70
0
 3
__ __ __ __ __
 72
65
 73
2
 40
0.4
 49
0.25
 49
-0.25
 0
LTYPE
 2
CENTER
 70
0
 3
____ _ ____ _ __
 72
65
 73
4
 40
2.0
 49
1.25
 49
-0.25
 49
0.25
 49
-0.25
 0
ENDTAB
 0
TABLE
 2
LAYER
 70
1
 0
LAYER
 2
PYDXF
 70
64
 62
7
 6
continuous
 0
ENDTAB
 0
TABLE
 2
STYLE
 70
1
 0
STYLE
 2
STANDARD
 70
0
 40
0
 41
1.0
 50
0.0
 71
0
 42
1
 3
ARIAL.TTF
 4

 0
ENDTAB
 0
TABLE
 2
VIEW
 70
1
 0
VIEW
 2
BF_TOPVIEW
 70
0
 40
120.0
 10
0.0
 20
0.0
 41
200.0
 11
0.0
 21
0.0
 31
1.0
 12
0.0
 22
0.0
 32
0.0
 42
50.0
 43
0.0
 44
0.0
 50
0.0
 71
0
 0
ENDTAB
 0
ENDSEC
 0
SECTION
 2
BLOCKS
 0
ENDSEC
 0
SECTION
 2
ENTITIES
 0
POLYLINE
 8
0
 70
64
 66
1
 10
0
 20
0.25
 30
0
 71
590
 72
714
 0
VERTEX
 8
0
 10
1.77499997615814
 20
0.178000003099442
 30
2.0550000667572
 70
192
 0
VERTEX
 8
0
 10
1.34499990940094
 20
0.178000003099442
 30
2.0550000667572
 70
192
 0
VERTEX
 8
0
 10
1.34499990940094
 20
0.178000003099442
 30
2.0699999332428
 70
192
 0
VERTEX
 8
0
 10
1.34499990940094
 20
0.230000000447035
 30
2.07999992370605
 70
192
 0
VERTEX
 8
0
 10
1.34499990940094
 20
0.230000000447035
 30
2.0699999332428
 70
192
 0
VERTEX
 8
0
 10
1.34499990940094
 20
0.230000000447035
 30
2.10500001907349
 70
192
 0
VERTEX
 8
0
 10
1.34499990940094
 20
0.21000000089407
 30
2.10500001907349
 70
192
 0
VERTEX
 8
0
 10
0.914999961853027
 20
0.21000000089407
 30
2.10500001907349
 70
192
 0
VERTEX
 8
0
 10
1.77499997615814
 20
0.21000000089407
 30
2.10500001907349
 70
192
 0
VERTEX
 8
0
 10
1.77499997615814
 20
0.230000000447035
 30
2.10500001907349
 70
192
 0
VERTEX
 8
0
 10
1.79999995231628
 20
0.230000000447035
 30
2.07999992370605
 70
192
 0
VERTEX
 8
0
 10
1.79999995231628
 20
0.230000000447035
 30
2.54500126838684
 70
192
 0
VERTEX
 8
0
 10
0.914999961853027
 20
0.230000000447035
 30
2.10500001907349
 70
192
 0
VERTEX
 8
0
 10
1.34499990940094
 20
0.230000000447035
 30
2.51999998092651
 70
192
 0
VERTEX
 8
0
 10
1.77499997615814
 20
0.21000000089407
 30
2.51999998092651
 70
192
 0
VERTEX
 8
0
 10
1.77499997615814
 20
0.230000000447035
 30
2.51999998092651
 70
192
 0
VERTEX
 8
0
 10
0.914999961853027
 20
0.21000000089407
 30
2.51999998092651
 70
192
 0
VERTEX
 8
0
 10
0.914999961853027
 20
0.230000000447035
 30
2.51999998092651
 70
192
 0
VERTEX
 8
0
 10
1.79999995231628
 20
0.0999999940395355
 30
2.07999992370605
 70
192
 0
VERTEX
 8
0
 10
1.79999995231628
 20
0.0999999940395355
 30
2.54500126838684
 70
192
 0
VERTEX
 8
0
 10
0.899999976158142
 20
0.230000000447035
 30
2.07999992370605
 70
192
 0
VERTEX
 8
0
 10
1.78999996185303
 20
0.0999999940395355
 30
2.07999992370605
 70
192
 0
VERTEX
 8
0
 10
1.34499990940094
 20
0.0999999940395355
 30
2.54500126838684
 70
192
 0
VERTEX
 8
0
 10
1.34499990940094
 20
0.230000000447035
 30
2.54500126838684
 70
192
 0
VERTEX
 8
0
 10
0.899999976158142
 20
0.230000000447035
 30
2.54500126838684
 70
192
 0
VERTEX
 8
0
 10
1.77499997615814
 20
0.149999998509884
 30
2.0550000667572
 70
192
 0
VERTEX
 8
0
 10
1.78999996185303
 20
0.149999998509884
 30
2.0550000667572
 70
192
 0
VERTEX
 8
0
 10
1.78999996185303
 20
0.149999998509884
 30
2.10500001907349
 70
192
 0
VERTEX
 8
0
 10
0.899999976158142
 20
0.0999999940395355
 30
2.54500126838684
 70
192
 0
VERTEX
 8
0
 10
1.78999996185303
 20
0.149999998509884
 30
2.53500008583069
 70
192
 0
VERTEX
 8
0
 10
1.34499990940094
 20
0.149999998509884
 30
2.53500008583069
 70
192
 0
VERTEX
 8
0
 10
1.34499990940094
 20
0.0999999940395355
 30
2.53500008583069
 70
192
 0
VERTEX
 8
0
 10
1.78999996185303
 20
0.0999999940395355
 30
2.53500008583069
 70
192
 0
VERTEX
 8
0
 10
0.899999976158142
 20
0.149999991059303
 30
2.0550000667572
 70
192
 0
VERTEX
 8
0
 10
1.34499990940094
 20
0.149999998509884
 30
2.0550000667572
 70
192
 0
VERTEX
 8
0
 10
1.77499997615814
 20
0.149999998509884
 30
2.10500001907349
 70
192
 0
VERTEX
 8
0
 10
0.899999976158142
 20
0.178000003099442
 30
2.0550000667572
 70
192
 0
VERTEX
 8
0
 10
1.34499990940094
 20
0.149999998509884
 30
2.10500001907349
 70
192
 0
VERTEX
 8
0
 10
1.34499990940094
 20
0.179999999701977
 30
2.10500001907349
 70
192
 0
VERTEX
 8
0
 10
1.77499997615814
 20
0.179999999701977
 30
2.10500001907349
 70
192
 0
VERTEX
 8
0
 10
1.76499998569489
 20
0.179999999701977
 30
2.11500000953674
 70
192
 0
VERTEX
 8
0
 10
1.77499997615814
 20
0.179999999701977
 30
2.51999998092651
 70
192
 0
VERTEX
 8
0
 10
1.34499990940094
 20
0.179999999701977
 30
2.51999998092651
 70
192
 0
VERTEX
 8
0
 10
1.34499990940094
 20
0.149999998509884
 30
2.51999998092651
 70
192
 0
VERTEX
 8
0
 10
1.77499997615814
 20
0.149999998509884
 30
2.51999998092651
 70
192
 0
VERTEX
 8
0
 10
0.914999961853027
 20
0.149999998509884
 30
2.10500001907349
 70
192
 0
VERTEX
 8
0
 10
0.914999961853027
 20
0.179999999701977
 30
2.51999998092651
 70
192
 0
VERTEX
 8
0
 10
0.914999961853027
 20
0.179999999701977
 30
2.10500001907349
 70
192
 0
VERTEX
 8
0
 10
1.76499998569489
 20
0.21000000089407
 30
2.50999999046326
 70
192
 0
VERTEX
 8
0
 10
1.76499998569489
 20
0.179999999701977
 30
2.50999999046326
 70
192
 0
VERTEX
 8
0
 10
1.76499998569489
 20
0.21000000089407
 30
2.11500000953674
 70
192
 0
VERTEX
 8
0
 10
1.55250000953674
 20
0.179999999701977
 30
2.50999999046326
 70
192
 0
VERTEX
 8
0
 10
0.914999961853027
 20
0.149999998509884
 30
2.51999998092651
 70
192
 0
VERTEX
 8
0
 10
0.924999952316284
 20
0.179999999701977
 30
2.50999999046326
 70
192
 0
VERTEX
 8
0
 10
1.13749992847443
 20
0.179999999701977
 30
2.11500000953674
 70
192
 0
VERTEX
 8
0
 10
0.924999952316284
 20
0.179999999701977
 30
2.11500000953674
 70
192
 0
VERTEX
 8
0
 10
1.33999991416931
 20
0.179999999701977
 30
2.11500000953674
 70
192
 0
VERTEX
 8
0
 10
1.34999990463257
 20
0.179999999701977
 30
2.11500000953674
 70
192
 0
VERTEX
 8
0
 10
1.34999990463257
 20
0.21000000089407
 30
2.11500000953674
 70
192
 0
VERTEX
 8
0
 10
1.5625
 20
0.179999999701977
 30
2.11500000953674
 70
192
 0
VERTEX
 8
0
 10
1.5625
 20
0.179999999701977
 30
2.50999999046326
 70
192
 0
VERTEX
 8
0
 10
1.55250000953674
 20
0.21000000089407
 30
2.11500000953674
 70
192
 0
VERTEX
 8
0
 10
1.55250000953674
 20
0.21000000089407
 30
2.50999999046326
 70
192
 0
VERTEX
 8
0
 10
1.55250000953674
 20
0.179999999701977
 30
2.11500000953674
 70
192
 0
VERTEX
 8
0
 10
1.5625
 20
0.21000000089407
 30
2.50999999046326
 70
192
 0
VERTEX
 8
0
 10
1.5625
 20
0.21000000089407
 30
2.11500000953674
 70
192
 0
VERTEX
 8
0
 10
0.924999952316284
 20
0.21000000089407
 30
2.50999999046326
 70
192
 0
VERTEX
 8
0
 10
1.12749993801117
 20
0.179999999701977
 30
2.11500000953674
 70
192
 0
VERTEX
 8
0
 10
0.924999952316284
 20
0.21000000089407
 30
2.11500000953674
 70
192
 0
VERTEX
 8
0
 10
1.13749992847443
 20
0.21000000089407
 30
2.50999999046326
 70
192
 0
VERTEX
 8
0
 10
1.13749992847443
 20
0.21000000089407
 30
2.11500000953674
 70
192
 0
VERTEX
 8
0
 10
1.13749992847443
 20
0.179999999701977
 30
2.50999999046326
 70
192
 0
VERTEX
 8
0
 10
1.12749993801117
 20
0.179999999701977
 30
2.50999999046326
 70
192
 0
VERTEX
 8
0
 10
1.33999991416931
 20
0.21000000089407
 30
2.11500000953674
 70
192
 0
VERTEX
 8
0
 10
1.34999990463257
 20
0.179999999701977
 30
2.50999999046326
 70
192
 0
VERTEX
 8
0
 10
1.34499990940094
 20
0.21000000089407
 30
2.51999998092651
 70
192
 0
VERTEX
 8
0
 10
1.34999990463257
 20
0.21000000089407
 30
2.50999999046326
 70
192
 0
VERTEX
 8
0
 10
1.12749993801117
 20
0.21000000089407
 30
2.50999999046326
 70
192
 0
VERTEX
 8
0
 10
1.12749993801117
 20
0.21000000089407
 30
2.11500000953674
 70
192
 0
VERTEX
 8
0
 10
1.33999991416931
 20
0.179999999701977
 30
2.50999999046326
 70
192
 0
VERTEX
 8
0
 10
1.33999991416931
 20
0.21000000089407
 30
2.50999999046326
 70
192
 0
VERTEX
 8
0
 10
0.00999999046325684
 20
0.178000003099442
 30
2.0699999332428
 70
192
 0
VERTEX
 8
0
 10
0.899999976158142
 20
0.178000003099442
 30
2.0699999332428
 70
192
 0
VERTEX
 8
0
 10
0.899999976158142
 20
0.230000000447035
 30
2.0699999332428
 70
192
 0
VERTEX
 8
0
 10
0.455000042915344
 20
0.178000003099442
 30
2.0550000667572
 70
192
 0
VERTEX
 8
0
 10
0.455000042915344
 20
0.178000003099442
 30
2.0699999332428
 70
192
 0
VERTEX
 8
0
 10
0.455000042915344
 20
0.230000000447035
 30
2.07999992370605
 70
192
 0
VERTEX
 8
0
 10
0.455000042915344
 20
0.230000000447035
 30
2.0699999332428
 70
192
 0
VERTEX
 8
0
 10
0.455000042915344
 20
0.230000000447035
 30
2.10500001907349
 70
192
 0
VERTEX
 8
0
 10
0.455000042915344
 20
0.21000000089407
 30
2.10500001907349
 70
192
 0
VERTEX
 8
0
 10
0.884999990463257
 20
0.21000000089407
 30
2.10500001907349
 70
192
 0
VERTEX
 8
0
 10
0.0249999761581421
 20
0.21000000089407
 30
2.10500001907349
 70
192
 0
VERTEX
 8
0
 10
0.0249999761581421
 20
0.230000000447035
 30
2.10500001907349
 70
192
 0
VERTEX
 8
0
 10
0
 20
0.230000000447035
 30
2.07999992370605
 70
192
 0
VERTEX
 8
0
 10
0
 20
0.230000000447035
 30
2.54500126838684
 70
192
 0
VERTEX
 8
0
 10
0.884999990463257
 20
0.230000000447035
 30
2.10500001907349
 70
192
 0
VERTEX
 8
0
 10
0.455000042915344
 20
0.230000000447035
 30
2.51999998092651
 70
192
 0
VERTEX
 8
0
 10
0.0249999761581421
 20
0.21000000089407
 30
2.51999998092651
 70
192
 0
VERTEX
 8
0
 10
0.0249999761581421
 20
0.230000000447035
 30
2.51999998092651
 70
192
 0
VERTEX
 8
0
 10
0.884999990463257
 20
0.21000000089407
 30
2.51999998092651
 70
192
 0
VERTEX
 8
0
 10
0.884999990463257
 20
0.230000000447035
 30
2.51999998092651
 70
192
 0
VERTEX
 8
0
 10
0
 20
0.0999999940395355
 30
2.07999992370605
 70
192
 0
VERTEX
 8
0
 10
0
 20
0.0999999940395355
 30
2.54500126838684
 70
192
 0
VERTEX
 8
0
 10
0.00999999046325684
 20
0.0999999940395355
 30
2.07999992370605
 70
192
 0
VERTEX
 8
0
 10
0.455000042915344
 20
0.0999999940395355
 30
2.54500126838684
 70
192
 0
VERTEX
 8
0
 10
0.455000042915344
 20
0.230000000447035
 30
2.54500126838684
 70
192
 0
VERTEX
 8
0
 10
0.00999999046325684
 20
0.149999998509884
 30
2.0550000667572
 70
192
 0
VERTEX
 8
0
 10
0.00999999046325684
 20
0.149999998509884
 30
2.10500001907349
 70
192
 0
VERTEX
 8
0
 10
0.899999976158142
 20
0.0999999940395355
 30
2.53500008583069
 70
192
 0
VERTEX
 8
0
 10
0.00999999046325684
 20
0.149999998509884
 30
2.53500008583069
 70
192
 0
VERTEX
 8
0
 10
0.455000042915344
 20
0.149999998509884
 30
2.53500008583069
 70
192
 0
VERTEX
 8
0
 10
0.455000042915344
 20
0.0999999940395355
 30
2.53500008583069
 70
192
 0
VERTEX
 8
0
 10
0.00999999046325684
 20
0.0999999940395355
 30
2.53500008583069
 70
192
 0
VERTEX
 8
0
 10
0.899999976158142
 20
0.149999998509884
 30
2.10500001907349
 70
192
 0
VERTEX
 8
0
 10
0.455000042915344
 20
0.149999998509884
 30
2.0550000667572
 70
192
 0
VERTEX
 8
0
 10
0.0249999761581421
 20
0.149999998509884
 30
2.10500001907349
 70
192
 0
VERTEX
 8
0
 10
0.899999976158142
 20
0.149999998509884
 30
2.53500008583069
 70
192
 0
VERTEX
 8
0
 10
0.455000042915344
 20
0.149999998509884
 30
2.10500001907349
 70
192
 0
VERTEX
 8
0
 10
0.455000042915344
 20
0.179999999701977
 30
2.10500001907349
 70
192
 0
VERTEX
 8
0
 10
0.0249999761581421
 20
0.179999999701977
 30
2.10500001907349
 70
192
 0
VERTEX
 8
0
 10
0.0349999666213989
 20
0.179999999701977
 30
2.11500000953674
 70
192
 0
VERTEX
 8
0
 10
0.0249999761581421
 20
0.179999999701977
 30
2.51999998092651
 70
192
 0
VERTEX
 8
0
 10
0.455000042915344
 20
0.179999999701977
 30
2.51999998092651
 70
192
 0
VERTEX
 8
0
 10
0.455000042915344
 20
0.149999998509884
 30
2.51999998092651
 70
192
 0
VERTEX
 8
0
 10
0.0249999761581421
 20
0.149999998509884
 30
2.51999998092651
 70
192
 0
VERTEX
 8
0
 10
0.884999990463257
 20
0.149999998509884
 30
2.10500001907349
 70
192
 0
VERTEX
 8
0
 10
0.884999990463257
 20
0.179999999701977
 30
2.51999998092651
 70
192
 0
VERTEX
 8
0
 10
0.884999990463257
 20
0.179999999701977
 30
2.10500001907349
 70
192
 0
VERTEX
 8
0
 10
0.0349999666213989
 20
0.21000000089407
 30
2.50999999046326
 70
192
 0
VERTEX
 8
0
 10
0.0349999666213989
 20
0.179999999701977
 30
2.50999999046326
 70
192
 0
VERTEX
 8
0
 10
0.0349999666213989
 20
0.21000000089407
 30
2.11500000953674
 70
192
 0
VERTEX
 8
0
 10
0.247499942779541
 20
0.179999999701977
 30
2.50999999046326
 70
192
 0
VERTEX
 8
0
 10
0.884999990463257
 20
0.149999998509884
 30
2.51999998092651
 70
192
 0
VERTEX
 8
0
 10
0.875
 20
0.179999999701977
 30
2.50999999046326
 70
192
 0
VERTEX
 8
0
 10
0.662500023841858
 20
0.179999999701977
 30
2.11500000953674
 70
192
 0
VERTEX
 8
0
 10
0.875
 20
0.179999999701977
 30
2.11500000953674
 70
192
 0
VERTEX
 8
0
 10
0.460000038146973
 20
0.179999999701977
 30
2.11500000953674
 70
192
 0
VERTEX
 8
0
 10
0.450000047683716
 20
0.179999999701977
 30
2.11500000953674
 70
192
 0
VERTEX
 8
0
 10
0.450000047683716
 20
0.21000000089407
 30
2.11500000953674
 70
192
 0
VERTEX
 8
0
 10
0.237499952316284
 20
0.179999999701977
 30
2.11500000953674
 70
192
 0
VERTEX
 8
0
 10
0.237499952316284
 20
0.179999999701977
 30
2.50999999046326
 70
192
 0
VERTEX
 8
0
 10
0.247499942779541
 20
0.21000000089407
 30
2.11500000953674
 70
192
 0
VERTEX
 8
0
 10
0.247499942779541
 20
0.21000000089407
 30
2.50999999046326
 70
192
 0
VERTEX
 8
0
 10
0.247499942779541
 20
0.179999999701977
 30
2.11500000953674
 70
192
 0
VERTEX
 8
0
 10
0.237499952316284
 20
0.21000000089407
 30
2.50999999046326
 70
192
 0
VERTEX
 8
0
 10
0.237499952316284
 20
0.21000000089407
 30
2.11500000953674
 70
192
 0
VERTEX
 8
0
 10
0.875
 20
0.21000000089407
 30
2.50999999046326
 70
192
 0
VERTEX
 8
0
 10
0.672500014305115
 20
0.179999999701977
 30
2.11500000953674
 70
192
 0
VERTEX
 8
0
 10
0.875
 20
0.21000000089407
 30
2.11500000953674
 70
192
 0
VERTEX
 8
0
 10
0.662500023841858
 20
0.21000000089407
 30
2.50999999046326
 70
192
 0
VERTEX
 8
0
 10
0.662500023841858
 20
0.21000000089407
 30
2.11500000953674
 70
192
 0
VERTEX
 8
0
 10
0.662500023841858
 20
0.179999999701977
 30
2.50999999046326
 70
192
 0
VERTEX
 8
0
 10
0.672500014305115
 20
0.179999999701977
 30
2.50999999046326
 70
192
 0
VERTEX
 8
0
 10
0.460000038146973
 20
0.21000000089407
 30
2.11500000953674
 70
192
 0
VERTEX
 8
0
 10
0.450000047683716
 20
0.179999999701977
 30
2.50999999046326
 70
192
 0
VERTEX
 8
0
 10
0.455000042915344
 20
0.21000000089407
 30
2.51999998092651
 70
192
 0
VERTEX
 8
0
 10
0.450000047683716
 20
0.21000000089407
 30
2.50999999046326
 70
192
 0
VERTEX
 8
0
 10
0.672500014305115
 20
0.21000000089407
 30
2.50999999046326
 70
192
 0
VERTEX
 8
0
 10
0.672500014305115
 20
0.21000000089407
 30
2.11500000953674
 70
192
 0
VERTEX
 8
0
 10
0.460000038146973
 20
0.179999999701977
 30
2.50999999046326
 70
192
 0
VERTEX
 8
0
 10
0.460000038146973
 20
0.21000000089407
 30
2.50999999046326
 70
192
 0
VERTEX
 8
0
 10
0.545000076293945
 20
0.195000000298023
 30
0.264999985694885
 70
192
 0
VERTEX
 8
0
 10
0.745000004768372
 20
0.195000000298023
 30
0.264999985694885
 70
192
 0
VERTEX
 8
0
 10
0.745000004768372
 20
0.199999999254942
 30
0.264999985694885
 70
192
 0
VERTEX
 8
0
 10
0.545000076293945
 20
0.199999999254942
 30
0.264999985694885
 70
192
 0
VERTEX
 8
0
 10
0.545000076293945
 20
0.195000000298023
 30
0.579999983310699
 70
192
 0
VERTEX
 8
0
 10
0.774999976158142
 20
0.190000001341105
 30
0.234999999403954
 70
192
 0
VERTEX
 8
0
 10
0.745000004768372
 20
0.199999999254942
 30
0.579999983310699
 70
192
 0
VERTEX
 8
0
 10
0.545000076293945
 20
0.199999999254942
 30
0.579999983310699
 70
192
 0
VERTEX
 8
0
 10
0.514999985694885
 20
0.190000001341105
 30
0.234999999403954
 70
192
 0
VERTEX
 8
0
 10
0.774999976158142
 20
0.190000001341105
 30
0.610000014305115
 70
192
 0
VERTEX
 8
0
 10
0.745000004768372
 20
0.195000000298023
 30
0.579999983310699
 70
192
 0
VERTEX
 8
0
 10
0.514999985694885
 20
0.185000002384186
 30
0.234999999403954
 70
192
 0
VERTEX
 8
0
 10
0.774999976158142
 20
0.185000002384186
 30
0.234999999403954
 70
192
 0
VERTEX
 8
0
 10
0.774999976158142
 20
0.185000002384186
 30
0.610000014305115
 70
192
 0
VERTEX
 8
0
 10
0.514999985694885
 20
0.190000001341105
 30
0.610000014305115
 70
192
 0
VERTEX
 8
0
 10
0.514999985694885
 20
0.185000002384186
 30
0.610000014305115
 70
192
 0
VERTEX
 8
0
 10
0.785000085830688
 20
0.185000002384186
 30
0.620000004768372
 70
192
 0
VERTEX
 8
0
 10
0.785000085830688
 20
0.185000002384186
 30
0.224999994039536
 70
192
 0
VERTEX
 8
0
 10
0.504999995231628
 20
0.185000002384186
 30
0.224999994039536
 70
192
 0
VERTEX
 8
0
 10
0.785000085830688
 20
0.179999999701977
 30
0.224999994039536
 70
192
 0
VERTEX
 8
0
 10
0.504999995231628
 20
0.179999999701977
 30
0.224999994039536
 70
192
 0
VERTEX
 8
0
 10
0.785000085830688
 20
0.179999999701977
 30
0.620000004768372
 70
192
 0
VERTEX
 8
0
 10
0.504999995231628
 20
0.185000002384186
 30
0.620000004768372
 70
192
 0
VERTEX
 8
0
 10
0.504999995231628
 20
0.179999999701977
 30
0.620000004768372
 70
192
 0
VERTEX
 8
0
 10
0.0269999504089355
 20
0.179999999701977
 30
0.0750000029802322
 70
192
 0
VERTEX
 8
0
 10
0.785000085830688
 20
0.179999999701977
 30
0.819999992847443
 70
192
 0
VERTEX
 8
0
 10
0.404999971389771
 20
0.179999999701977
 30
0.224999994039536
 70
192
 0
VERTEX
 8
0
 10
0.404999971389771
 20
0.179999999701977
 30
0.620000004768372
 70
192
 0
VERTEX
 8
0
 10
0.883000016212463
 20
0.179999999701977
 30
0.0750000029802322
 70
192
 0
VERTEX
 8
0
 10
0.0119999647140503
 20
0.179999999701977
 30
0.0750000029802322
 70
192
 0
VERTEX
 8
0
 10
0.125
 20
0.190000001341105
 30
0.819999992847443
 70
192
 0
VERTEX
 8
0
 10
0.125
 20
0.179999999701977
 30
0.620000004768372
 70
192
 0
VERTEX
 8
0
 10
0.394999980926514
 20
0.185000002384186
 30
0.610000014305115
 70
192
 0
VERTEX
 8
0
 10
0.404999971389771
 20
0.185000002384186
 30
0.224999994039536
 70
192
 0
VERTEX
 8
0
 10
0.404999971389771
 20
0.185000002384186
 30
0.620000004768372
 70
192
 0
VERTEX
 8
0
 10
0.125
 20
0.185000002384186
 30
0.224999994039536
 70
192
 0
VERTEX
 8
0
 10
0.883000016212463
 20
0.140000000596046
 30
0.0450000017881393
 70
192
 0
VERTEX
 8
0
 10
0.883000016212463
 20
0.170000001788139
 30
0.0750000029802322
 70
192
 0
VERTEX
 8
0
 10
0.785000085830688
 20
0.190000001341105
 30
0.819999992847443
 70
192
 0
VERTEX
 8
0
 10
0.125
 20
0.179999999701977
 30
0.819999992847443
 70
192
 0
VERTEX
 8
0
 10
0.125
 20
0.190000001341105
 30
1.89499998092651
 70
192
 0
VERTEX
 8
0
 10
0.785000085830688
 20
0.179999999701977
 30
1.89499998092651
 70
192
 0
VERTEX
 8
0
 10
0.125
 20
0.185000002384186
 30
0.620000004768372
 70
192
 0
VERTEX
 8
0
 10
0.125
 20
0.179999999701977
 30
0.224999994039536
 70
192
 0
VERTEX
 8
0
 10
0.394999980926514
 20
0.185000002384186
 30
0.234999999403954
 70
192
 0
VERTEX
 8
0
 10
0.394999980926514
 20
0.190000001341105
 30
0.610000014305115
 70
192
 0
VERTEX
 8
0
 10
0.125
 20
0.179999999701977
 30
1.89499998092651
 70
192
 0
VERTEX
 8
0
 10
0.351666927337646
 20
0.190000001341105
 30
0.829999983310699
 70
192
 0
VERTEX
 8
0
 10
0.351666927337646
 20
0.220000000670552
 30
0.829999983310699
 70
192
 0
VERTEX
 8
0
 10
0.34166693687439
 20
0.190000001341105
 30
0.829999983310699
 70
192
 0
VERTEX
 8
0
 10
0.785000085830688
 20
0.190000001341105
 30
1.89499998092651
 70
192
 0
VERTEX
 8
0
 10
0.134999990463257
 20
0.190000001341105
 30
0.610000014305115
 70
192
 0
VERTEX
 8
0
 10
0.394999980926514
 20
0.190000001341105
 30
0.234999999403954
 70
192
 0
VERTEX
 8
0
 10
0.365000009536743
 20
0.195000000298023
 30
0.579999983310699
 70
192
 0
VERTEX
 8
0
 10
0.774999976158142
 20
0.190000001341105
 30
0.829999983310699
 70
192
 0
VERTEX
 8
0
 10
0.558332920074463
 20
0.190000001341105
 30
0.829999983310699
 70
192
 0
VERTEX
 8
0
 10
0.558332920074463
 20
0.220000000670552
 30
0.829999983310699
 70
192
 0
VERTEX
 8
0
 10
0.351666927337646
 20
0.190000001341105
 30
1.17499995231628
 70
192
 0
VERTEX
 8
0
 10
0.34166693687439
 20
0.190000001341105
 30
1.17499995231628
 70
192
 0
VERTEX
 8
0
 10
0.134999990463257
 20
0.190000001341105
 30
1.17499995231628
 70
192
 0
VERTEX
 8
0
 10
0.134999990463257
 20
0.190000001341105
 30
1.52999997138977
 70
192
 0
VERTEX
 8
0
 10
0.134999990463257
 20
0.190000001341105
 30
1.18499994277954
 70
192
 0
VERTEX
 8
0
 10
0.134999990463257
 20
0.190000001341105
 30
1.53999996185303
 70
192
 0
VERTEX
 8
0
 10
0.351666927337646
 20
0.190000001341105
 30
1.88499999046326
 70
192
 0
VERTEX
 8
0
 10
0.558332920074463
 20
0.190000001341105
 30
1.88499999046326
 70
192
 0
VERTEX
 8
0
 10
0.774999976158142
 20
0.220000000670552
 30
1.52999997138977
 70
192
 0
VERTEX
 8
0
 10
0.774999976158142
 20
0.190000001341105
 30
1.52999997138977
 70
192
 0
VERTEX
 8
0
 10
0.774999976158142
 20
0.190000001341105
 30
1.17499995231628
 70
192
 0
VERTEX
 8
0
 10
0.774999976158142
 20
0.190000001341105
 30
1.53999996185303
 70
192
 0
VERTEX
 8
0
 10
0.134999990463257
 20
0.185000002384186
 30
0.610000014305115
 70
192
 0
VERTEX
 8
0
 10
0.134999990463257
 20
0.185000002384186
 30
0.234999999403954
 70
192
 0
VERTEX
 8
0
 10
0.365000009536743
 20
0.195000000298023
 30
0.264999985694885
 70
192
 0
VERTEX
 8
0
 10
0.56833291053772
 20
0.220000000670552
 30
0.829999983310699
 70
192
 0
VERTEX
 8
0
 10
0.56833291053772
 20
0.190000001341105
 30
0.829999983310699
 70
192
 0
VERTEX
 8
0
 10
0.558332920074463
 20
0.190000001341105
 30
1.18499994277954
 70
192
 0
VERTEX
 8
0
 10
0.558332920074463
 20
0.190000001341105
 30
1.17499995231628
 70
192
 0
VERTEX
 8
0
 10
0.558332920074463
 20
0.220000000670552
 30
1.17499995231628
 70
192
 0
VERTEX
 8
0
 10
0.785000085830688
 20
0.230000000447035
 30
0.819999992847443
 70
192
 0
VERTEX
 8
0
 10
0.125
 20
0.220000000670552
 30
0.819999992847443
 70
192
 0
VERTEX
 8
0
 10
0.34166693687439
 20
0.220000000670552
 30
0.829999983310699
 70
192
 0
VERTEX
 8
0
 10
0.34166693687439
 20
0.220000000670552
 30
1.17499995231628
 70
192
 0
VERTEX
 8
0
 10
0.351666927337646
 20
0.220000000670552
 30
1.17499995231628
 70
192
 0
VERTEX
 8
0
 10
0.134999990463257
 20
0.190000001341105
 30
0.829999983310699
 70
192
 0
VERTEX
 8
0
 10
0.34166693687439
 20
0.190000001341105
 30
1.18499994277954
 70
192
 0
VERTEX
 8
0
 10
0.34166693687439
 20
0.220000000670552
 30
1.18499994277954
 70
192
 0
VERTEX
 8
0
 10
0.134999990463257
 20
0.220000000670552
 30
1.18499994277954
 70
192
 0
VERTEX
 8
0
 10
0.125
 20
0.220000000670552
 30
1.89499998092651
 70
192
 0
VERTEX
 8
0
 10
0.134999990463257
 20
0.220000000670552
 30
1.52999997138977
 70
192
 0
VERTEX
 8
0
 10
0.34166693687439
 20
0.190000001341105
 30
1.53999996185303
 70
192
 0
VERTEX
 8
0
 10
0.34166693687439
 20
0.190000001341105
 30
1.52999997138977
 70
192
 0
VERTEX
 8
0
 10
0.34166693687439
 20
0.190000001341105
 30
1.88499999046326
 70
192
 0
VERTEX
 8
0
 10
0.558332920074463
 20
0.220000000670552
 30
1.88499999046326
 70
192
 0
VERTEX
 8
0
 10
0.56833291053772
 20
0.190000001341105
 30
1.88499999046326
 70
192
 0
VERTEX
 8
0
 10
0.774999976158142
 20
0.190000001341105
 30
1.18499994277954
 70
192
 0
VERTEX
 8
0
 10
0.774999976158142
 20
0.220000000670552
 30
1.18499994277954
 70
192
 0
VERTEX
 8
0
 10
0.56833291053772
 20
0.190000001341105
 30
1.53999996185303
 70
192
 0
VERTEX
 8
0
 10
0.56833291053772
 20
0.190000001341105
 30
1.52999997138977
 70
192
 0
VERTEX
 8
0
 10
0.164999961853027
 20
0.195000000298023
 30
0.579999983310699
 70
192
 0
VERTEX
 8
0
 10
0.134999990463257
 20
0.190000001341105
 30
0.234999999403954
 70
192
 0
VERTEX
 8
0
 10
0.164999961853027
 20
0.199999999254942
 30
0.579999983310699
 70
192
 0
VERTEX
 8
0
 10
0.365000009536743
 20
0.199999999254942
 30
0.264999985694885
 70
192
 0
VERTEX
 8
0
 10
0.365000009536743
 20
0.199999999254942
 30
0.579999983310699
 70
192
 0
VERTEX
 8
0
 10
0.164999961853027
 20
0.199999999254942
 30
0.264999985694885
 70
192
 0
VERTEX
 8
0
 10
0.164999961853027
 20
0.195000000298023
 30
0.264999985694885
 70
192
 0
VERTEX
 8
0
 10
0.56833291053772
 20
0.190000001341105
 30
1.17499995231628
 70
192
 0
VERTEX
 8
0
 10
0.56833291053772
 20
0.220000000670552
 30
1.17499995231628
 70
192
 0
VERTEX
 8
0
 10
0.774999976158142
 20
0.220000000670552
 30
1.17499995231628
 70
192
 0
VERTEX
 8
0
 10
0.774999976158142
 20
0.220000000670552
 30
0.829999983310699
 70
192
 0
VERTEX
 8
0
 10
0.558332920074463
 20
0.220000000670552
 30
1.18499994277954
 70
192
 0
VERTEX
 8
0
 10
0.125
 20
0.230000000447035
 30
0.819999992847443
 70
192
 0
VERTEX
 8
0
 10
0.785000085830688
 20
0.220000000670552
 30
0.819999992847443
 70
192
 0
VERTEX
 8
0
 10
0.134999990463257
 20
0.220000000670552
 30
0.829999983310699
 70
192
 0
VERTEX
 8
0
 10
0.134999990463257
 20
0.220000000670552
 30
1.17499995231628
 70
192
 0
VERTEX
 8
0
 10
0.134999990463257
 20
0.220000000670552
 30
1.53999996185303
 70
192
 0
VERTEX
 8
0
 10
0.34166693687439
 20
0.220000000670552
 30
1.52999997138977
 70
192
 0
VERTEX
 8
0
 10
0.34166693687439
 20
0.220000000670552
 30
1.53999996185303
 70
192
 0
VERTEX
 8
0
 10
0.351666927337646
 20
0.220000000670552
 30
1.88499999046326
 70
192
 0
VERTEX
 8
0
 10
0.56833291053772
 20
0.190000001341105
 30
1.18499994277954
 70
192
 0
VERTEX
 8
0
 10
0.56833291053772
 20
0.220000000670552
 30
1.18499994277954
 70
192
 0
VERTEX
 8
0
 10
0.56833291053772
 20
0.220000000670552
 30
1.53999996185303
 70
192
 0
VERTEX
 8
0
 10
0.56833291053772
 20
0.220000000670552
 30
1.52999997138977
 70
192
 0
VERTEX
 8
0
 10
0.774999976158142
 20
0.220000000670552
 30
1.53999996185303
 70
192
 0
VERTEX
 8
0
 10
0.558332920074463
 20
0.190000001341105
 30
1.52999997138977
 70
192
 0
VERTEX
 8
0
 10
0.351666927337646
 20
0.190000001341105
 30
1.18499994277954
 70
192
 0
VERTEX
 8
0
 10
0.785000085830688
 20
0.230000000447035
 30
0.620000004768372
 70
192
 0
VERTEX
 8
0
 10
0.785000085830688
 20
0.220000000670552
 30
1.89499998092651
 70
192
 0
VERTEX
 8
0
 10
0.125
 20
0.230000000447035
 30
1.89499998092651
 70
192
 0
VERTEX
 8
0
 10
0.785000085830688
 20
0.230000000447035
 30
1.89499998092651
 70
192
 0
VERTEX
 8
0
 10
0.351666927337646
 20
0.190000001341105
 30
1.52999997138977
 70
192
 0
VERTEX
 8
0
 10
0.351666927337646
 20
0.220000000670552
 30
1.18499994277954
 70
192
 0
VERTEX
 8
0
 10
0.351666927337646
 20
0.220000000670552
 30
1.52999997138977
 70
192
 0
VERTEX
 8
0
 10
0.134999990463257
 20
0.190000001341105
 30
1.88499999046326
 70
192
 0
VERTEX
 8
0
 10
0.134999990463257
 20
0.220000000670552
 30
1.88499999046326
 70
192
 0
VERTEX
 8
0
 10
0.34166693687439
 20
0.220000000670552
 30
1.88499999046326
 70
192
 0
VERTEX
 8
0
 10
0.558332920074463
 20
0.190000001341105
 30
1.53999996185303
 70
192
 0
VERTEX
 8
0
 10
0.558332920074463
 20
0.220000000670552
 30
1.53999996185303
 70
192
 0
VERTEX
 8
0
 10
0.351666927337646
 20
0.220000000670552
 30
1.53999996185303
 70
192
 0
VERTEX
 8
0
 10
0.351666927337646
 20
0.190000001341105
 30
1.53999996185303
 70
192
 0
VERTEX
 8
0
 10
0.774999976158142
 20
0.220000000670552
 30
1.88499999046326
 70
192
 0
VERTEX
 8
0
 10
0.774999976158142
 20
0.190000001341105
 30
1.88499999046326
 70
192
 0
VERTEX
 8
0
 10
0.56833291053772
 20
0.220000000670552
 30
1.88499999046326
 70
192
 0
VERTEX
 8
0
 10
0.558332920074463
 20
0.220000000670552
 30
1.52999997138977
 70
192
 0
VERTEX
 8
0
 10
0.404999971389771
 20
0.224999999627471
 30
0.224999994039536
 70
192
 0
VERTEX
 8
0
 10
0.404999971389771
 20
0.224999999627471
 30
0.620000004768372
 70
192
 0
VERTEX
 8
0
 10
0.504999995231628
 20
0.230000000447035
 30
0.620000004768372
 70
192
 0
VERTEX
 8
0
 10
0.404999971389771
 20
0.230000000447035
 30
0.224999994039536
 70
192
 0
VERTEX
 8
0
 10
0.404999971389771
 20
0.230000000447035
 30
0.620000004768372
 70
192
 0
VERTEX
 8
0
 10
0.125
 20
0.230000000447035
 30
0.620000004768372
 70
192
 0
VERTEX
 8
0
 10
0.504999995231628
 20
0.224999999627471
 30
0.224999994039536
 70
192
 0
VERTEX
 8
0
 10
0.504999995231628
 20
0.224999999627471
 30
0.620000004768372
 70
192
 0
VERTEX
 8
0
 10
0.785000085830688
 20
0.230000000447035
 30
0.224999994039536
 70
192
 0
VERTEX
 8
0
 10
0.504999995231628
 20
0.230000000447035
 30
0.224999994039536
 70
192
 0
VERTEX
 8
0
 10
0.134999990463257
 20
0.224999999627471
 30
0.610000014305115
 70
192
 0
VERTEX
 8
0
 10
0.125
 20
0.224999999627471
 30
0.620000004768372
 70
192
 0
VERTEX
 8
0
 10
0.125
 20
0.230000000447035
 30
0.224999994039536
 70
192
 0
VERTEX
 8
0
 10
0.125
 20
0.224999999627471
 30
0.224999994039536
 70
192
 0
VERTEX
 8
0
 10
0.774999976158142
 20
0.224999999627471
 30
0.610000014305115
 70
192
 0
VERTEX
 8
0
 10
0.785000085830688
 20
0.224999999627471
 30
0.620000004768372
 70
192
 0
VERTEX
 8
0
 10
0.514999985694885
 20
0.224999999627471
 30
0.234999999403954
 70
192
 0
VERTEX
 8
0
 10
0.514999985694885
 20
0.224999999627471
 30
0.610000014305115
 70
192
 0
VERTEX
 8
0
 10
0.514999985694885
 20
0.220000000670552
 30
0.610000014305115
 70
192
 0
VERTEX
 8
0
 10
0.785000085830688
 20
0.224999999627471
 30
0.224999994039536
 70
192
 0
VERTEX
 8
0
 10
0.394999980926514
 20
0.224999999627471
 30
0.610000014305115
 70
192
 0
VERTEX
 8
0
 10
0.774999976158142
 20
0.220000000670552
 30
0.610000014305115
 70
192
 0
VERTEX
 8
0
 10
0.394999980926514
 20
0.224999999627471
 30
0.234999999403954
 70
192
 0
VERTEX
 8
0
 10
0.394999980926514
 20
0.220000000670552
 30
0.610000014305115
 70
192
 0
VERTEX
 8
0
 10
0.394999980926514
 20
0.220000000670552
 30
0.234999999403954
 70
192
 0
VERTEX
 8
0
 10
0.514999985694885
 20
0.220000000670552
 30
0.234999999403954
 70
192
 0
VERTEX
 8
0
 10
0.134999990463257
 20
0.224999999627471
 30
0.234999999403954
 70
192
 0
VERTEX
 8
0
 10
0.365000009536743
 20
0.214999999850988
 30
0.579999983310699
 70
192
 0
VERTEX
 8
0
 10
0.134999990463257
 20
0.220000000670552
 30
0.610000014305115
 70
192
 0
VERTEX
 8
0
 10
0.774999976158142
 20
0.220000000670552
 30
0.234999999403954
 70
192
 0
VERTEX
 8
0
 10
0.774999976158142
 20
0.224999999627471
 30
0.234999999403954
 70
192
 0
VERTEX
 8
0
 10
0.745000004768372
 20
0.214999999850988
 30
0.579999983310699
 70
192
 0
VERTEX
 8
0
 10
0.134999990463257
 20
0.220000000670552
 30
0.234999999403954
 70
192
 0
VERTEX
 8
0
 10
0.365000009536743
 20
0.214999999850988
 30
0.264999985694885
 70
192
 0
VERTEX
 8
0
 10
0.365000009536743
 20
0.21000000089407
 30
0.579999983310699
 70
192
 0
VERTEX
 8
0
 10
0.545000076293945
 20
0.214999999850988
 30
0.579999983310699
 70
192
 0
VERTEX
 8
0
 10
0.545000076293945
 20
0.214999999850988
 30
0.264999985694885
 70
192
 0
VERTEX
 8
0
 10
0.164999961853027
 20
0.214999999850988
 30
0.579999983310699
 70
192
 0
VERTEX
 8
0
 10
0.745000004768372
 20
0.21000000089407
 30
0.579999983310699
 70
192
 0
VERTEX
 8
0
 10
0.545000076293945
 20
0.21000000089407
 30
0.579999983310699
 70
192
 0
VERTEX
 8
0
 10
0.164999961853027
 20
0.214999999850988
 30
0.264999985694885
 70
192
 0
VERTEX
 8
0
 10
0.164999961853027
 20
0.21000000089407
 30
0.579999983310699
 70
192
 0
VERTEX
 8
0
 10
0.365000009536743
 20
0.21000000089407
 30
0.264999985694885
 70
192
 0
VERTEX
 8
0
 10
0.745000004768372
 20
0.21000000089407
 30
0.264999985694885
 70
192
 0
VERTEX
 8
0
 10
0.545000076293945
 20
0.21000000089407
 30
0.264999985694885
 70
192
 0
VERTEX
 8
0
 10
0.164999961853027
 20
0.21000000089407
 30
0.264999985694885
 70
192
 0
VERTEX
 8
0
 10
0.745000004768372
 20
0.214999999850988
 30
0.264999985694885
 70
192
 0
VERTEX
 8
0
 10
0.0249999761581421
 20
0.178000003099442
 30
0.025000000372529
 70
192
 0
VERTEX
 8
0
 10
0.00999999046325684
 20
0.230000000447035
 30
0.025000000372529
 70
192
 0
VERTEX
 8
0
 10
1.78999996185303
 20
0.178000003099442
 30
0.025000000372529
 70
192
 0
VERTEX
 8
0
 10
1.78999996185303
 20
0.230000000447035
 30
0.025000000372529
 70
192
 0
VERTEX
 8
0
 10
0.0249999761581421
 20
0.178000003099442
 30
2.0550000667572
 70
192
 0
VERTEX
 8
0
 10
0.00999999046325684
 20
0.230000000447035
 30
2.0699999332428
 70
192
 0
VERTEX
 8
0
 10
0.00999999046325684
 20
0.178000003099442
 30
0.025000000372529
 70
192
 0
VERTEX
 8
0
 10
1.78999996185303
 20
0.230000000447035
 30
2.0699999332428
 70
192
 0
VERTEX
 8
0
 10
1.78999996185303
 20
0.178000003099442
 30
2.0699999332428
 70
192
 0
VERTEX
 8
0
 10
0
 20
0.230000000447035
 30
0
 70
192
 0
VERTEX
 8
0
 10
0
 20
0.0999999940395355
 30
0
 70
192
 0
VERTEX
 8
0
 10
1.79999995231628
 20
0.230000000447035
 30
0
 70
192
 0
VERTEX
 8
0
 10
1.79999995231628
 20
0.0999999940395355
 30
0
 70
192
 0
VERTEX
 8
0
 10
0.00999999046325684
 20
0.0999999940395355
 30
0.025000000372529
 70
192
 0
VERTEX
 8
0
 10
1.78999996185303
 20
0.0999999940395355
 30
0.025000000372529
 70
192
 0
VERTEX
 8
0
 10
0.0249999761581421
 20
0.149999998509884
 30
0.025000000372529
 70
192
 0
VERTEX
 8
0
 10
0.0249999761581421
 20
0.149999998509884
 30
2.0550000667572
 70
192
 0
VERTEX
 8
0
 10
0.00999999046325684
 20
0.149999998509884
 30
0.025000000372529
 70
192
 0
VERTEX
 8
0
 10
1.78999996185303
 20
0.149999998509884
 30
0.025000000372529
 70
192
 0
VERTEX
 8
0
 10
1.77499997615814
 20
0.149999998509884
 30
0.025000000372529
 70
192
 0
VERTEX
 8
0
 10
1.77499997615814
 20
0.178000003099442
 30
0.025000000372529
 70
192
 0
VERTEX
 8
0
 10
0.898000001907349
 20
0.179999999701977
 30
2.06800007820129
 70
192
 0
VERTEX
 8
0
 10
0.0119999647140503
 20
0.230000000447035
 30
2.06800007820129
 70
192
 0
VERTEX
 8
0
 10
0.898000001907349
 20
0.230000000447035
 30
0.0270000007003546
 70
192
 0
VERTEX
 8
0
 10
0.898000001907349
 20
0.230000000447035
 30
2.06800007820129
 70
192
 0
VERTEX
 8
0
 10
0.0119999647140503
 20
0.179999999701977
 30
2.06800007820129
 70
192
 0
VERTEX
 8
0
 10
0.0119999647140503
 20
0.179999999701977
 30
0.0270000007003546
 70
192
 0
VERTEX
 8
0
 10
0.898000001907349
 20
0.179999999701977
 30
0.0270000007003546
 70
192
 0
VERTEX
 8
0
 10
0.898000001907349
 20
0.179999999701977
 30
0.0750000029802322
 70
192
 0
VERTEX
 8
0
 10
0.0119999647140503
 20
0.230000000447035
 30
0.0270000007003546
 70
192
 0
VERTEX
 8
0
 10
0.0269999504089355
 20
0.170000001788139
 30
0.0750000029802322
 70
192
 0
VERTEX
 8
0
 10
0.0269999504089355
 20
0.140000000596046
 30
0.0270000007003546
 70
192
 0
VERTEX
 8
0
 10
0.0269999504089355
 20
0.179999999701977
 30
0.0270000007003546
 70
192
 0
VERTEX
 8
0
 10
0.883000016212463
 20
0.179999999701977
 30
0.0270000007003546
 70
192
 0
VERTEX
 8
0
 10
0.883000016212463
 20
0.140000000596046
 30
0.0270000007003546
 70
192
 0
VERTEX
 8
0
 10
0.0269999504089355
 20
0.140000000596046
 30
0.0450000017881393
 70
192
 0
VERTEX
 8
0
 10
1.43499994277954
 20
0.195000000298023
 30
0.264999985694885
 70
192
 0
VERTEX
 8
0
 10
1.63499999046326
 20
0.195000000298023
 30
0.264999985694885
 70
192
 0
VERTEX
 8
0
 10
1.63499999046326
 20
0.199999999254942
 30
0.264999985694885
 70
192
 0
VERTEX
 8
0
 10
1.43499994277954
 20
0.199999999254942
 30
0.264999985694885
 70
192
 0
VERTEX
 8
0
 10
1.43499994277954
 20
0.195000000298023
 30
0.579999983310699
 70
192
 0
VERTEX
 8
0
 10
1.66499996185303
 20
0.190000001341105
 30
0.234999999403954
 70
192
 0
VERTEX
 8
0
 10
1.63499999046326
 20
0.199999999254942
 30
0.579999983310699
 70
192
 0
VERTEX
 8
0
 10
1.43499994277954
 20
0.199999999254942
 30
0.579999983310699
 70
192
 0
VERTEX
 8
0
 10
1.40499997138977
 20
0.190000001341105
 30
0.234999999403954
 70
192
 0
VERTEX
 8
0
 10
1.66499996185303
 20
0.190000001341105
 30
0.610000014305115
 70
192
 0
VERTEX
 8
0
 10
1.63499999046326
 20
0.195000000298023
 30
0.579999983310699
 70
192
 0
VERTEX
 8
0
 10
1.40499997138977
 20
0.185000002384186
 30
0.234999999403954
 70
192
 0
VERTEX
 8
0
 10
1.66499996185303
 20
0.185000002384186
 30
0.234999999403954
 70
192
 0
VERTEX
 8
0
 10
1.66499996185303
 20
0.185000002384186
 30
0.610000014305115
 70
192
 0
VERTEX
 8
0
 10
1.40499997138977
 20
0.190000001341105
 30
0.610000014305115
 70
192
 0
VERTEX
 8
0
 10
1.40499997138977
 20
0.185000002384186
 30
0.610000014305115
 70
192
 0
VERTEX
 8
0
 10
1.67499995231628
 20
0.185000002384186
 30
0.620000004768372
 70
192
 0
VERTEX
 8
0
 10
1.67499995231628
 20
0.185000002384186
 30
0.224999994039536
 70
192
 0
VERTEX
 8
0
 10
1.39499998092651
 20
0.185000002384186
 30
0.224999994039536
 70
192
 0
VERTEX
 8
0
 10
1.67499995231628
 20
0.179999999701977
 30
0.224999994039536
 70
192
 0
VERTEX
 8
0
 10
1.39499998092651
 20
0.179999999701977
 30
0.224999994039536
 70
192
 0
VERTEX
 8
0
 10
1.67499995231628
 20
0.179999999701977
 30
0.620000004768372
 70
192
 0
VERTEX
 8
0
 10
1.39499998092651
 20
0.185000002384186
 30
0.620000004768372
 70
192
 0
VERTEX
 8
0
 10
1.39499998092651
 20
0.179999999701977
 30
0.620000004768372
 70
192
 0
VERTEX
 8
0
 10
0.916999995708466
 20
0.179999999701977
 30
0.0750000029802322
 70
192
 0
VERTEX
 8
0
 10
1.67499995231628
 20
0.179999999701977
 30
0.819999992847443
 70
192
 0
VERTEX
 8
0
 10
1.29499995708466
 20
0.179999999701977
 30
0.224999994039536
 70
192
 0
VERTEX
 8
0
 10
1.29499995708466
 20
0.179999999701977
 30
0.620000004768372
 70
192
 0
VERTEX
 8
0
 10
1.77300000190735
 20
0.179999999701977
 30
0.0750000029802322
 70
192
 0
VERTEX
 8
0
 10
0.90200001001358
 20
0.179999999701977
 30
0.0750000029802322
 70
192
 0
VERTEX
 8
0
 10
1.01499998569489
 20
0.190000001341105
 30
0.819999992847443
 70
192
 0
VERTEX
 8
0
 10
1.01499998569489
 20
0.179999999701977
 30
0.620000004768372
 70
192
 0
VERTEX
 8
0
 10
1.2849999666214
 20
0.185000002384186
 30
0.610000014305115
 70
192
 0
VERTEX
 8
0
 10
1.29499995708466
 20
0.185000002384186
 30
0.224999994039536
 70
192
 0
VERTEX
 8
0
 10
1.29499995708466
 20
0.185000002384186
 30
0.620000004768372
 70
192
 0
VERTEX
 8
0
 10
1.01499998569489
 20
0.185000002384186
 30
0.224999994039536
 70
192
 0
VERTEX
 8
0
 10
1.77300000190735
 20
0.140000000596046
 30
0.0450000017881393
 70
192
 0
VERTEX
 8
0
 10
1.77300000190735
 20
0.170000001788139
 30
0.0750000029802322
 70
192
 0
VERTEX
 8
0
 10
1.67499995231628
 20
0.190000001341105
 30
0.819999992847443
 70
192
 0
VERTEX
 8
0
 10
1.01499998569489
 20
0.179999999701977
 30
0.819999992847443
 70
192
 0
VERTEX
 8
0
 10
1.01499998569489
 20
0.190000001341105
 30
1.89499998092651
 70
192
 0
VERTEX
 8
0
 10
1.67499995231628
 20
0.179999999701977
 30
1.89499998092651
 70
192
 0
VERTEX
 8
0
 10
1.01499998569489
 20
0.185000002384186
 30
0.620000004768372
 70
192
 0
VERTEX
 8
0
 10
1.01499998569489
 20
0.179999999701977
 30
0.224999994039536
 70
192
 0
VERTEX
 8
0
 10
1.2849999666214
 20
0.185000002384186
 30
0.234999999403954
 70
192
 0
VERTEX
 8
0
 10
1.2849999666214
 20
0.190000001341105
 30
0.610000014305115
 70
192
 0
VERTEX
 8
0
 10
1.01499998569489
 20
0.179999999701977
 30
1.89499998092651
 70
192
 0
VERTEX
 8
0
 10
1.24166703224182
 20
0.190000001341105
 30
0.829999983310699
 70
192
 0
VERTEX
 8
0
 10
1.24166703224182
 20
0.220000000670552
 30
0.829999983310699
 70
192
 0
VERTEX
 8
0
 10
1.23166704177856
 20
0.190000001341105
 30
0.829999983310699
 70
192
 0
VERTEX
 8
0
 10
1.67499995231628
 20
0.190000001341105
 30
1.89499998092651
 70
192
 0
VERTEX
 8
0
 10
1.02499997615814
 20
0.190000001341105
 30
0.610000014305115
 70
192
 0
VERTEX
 8
0
 10
1.2849999666214
 20
0.190000001341105
 30
0.234999999403954
 70
192
 0
VERTEX
 8
0
 10
1.25499999523163
 20
0.195000000298023
 30
0.579999983310699
 70
192
 0
VERTEX
 8
0
 10
1.66499996185303
 20
0.190000001341105
 30
0.829999983310699
 70
192
 0
VERTEX
 8
0
 10
1.44833302497864
 20
0.190000001341105
 30
0.829999983310699
 70
192
 0
VERTEX
 8
0
 10
1.44833302497864
 20
0.220000000670552
 30
0.829999983310699
 70
192
 0
VERTEX
 8
0
 10
1.24166703224182
 20
0.190000001341105
 30
1.17499995231628
 70
192
 0
VERTEX
 8
0
 10
1.23166704177856
 20
0.190000001341105
 30
1.17499995231628
 70
192
 0
VERTEX
 8
0
 10
1.02499997615814
 20
0.190000001341105
 30
1.17499995231628
 70
192
 0
VERTEX
 8
0
 10
1.02499997615814
 20
0.190000001341105
 30
1.52999997138977
 70
192
 0
VERTEX
 8
0
 10
1.02499997615814
 20
0.190000001341105
 30
1.18499994277954
 70
192
 0
VERTEX
 8
0
 10
1.02499997615814
 20
0.190000001341105
 30
1.53999996185303
 70
192
 0
VERTEX
 8
0
 10
1.24166703224182
 20
0.190000001341105
 30
1.88499999046326
 70
192
 0
VERTEX
 8
0
 10
1.44833302497864
 20
0.190000001341105
 30
1.88499999046326
 70
192
 0
VERTEX
 8
0
 10
1.66499996185303
 20
0.220000000670552
 30
1.52999997138977
 70
192
 0
VERTEX
 8
0
 10
1.66499996185303
 20
0.190000001341105
 30
1.52999997138977
 70
192
 0
VERTEX
 8
0
 10
1.66499996185303
 20
0.190000001341105
 30
1.17499995231628
 70
192
 0
VERTEX
 8
0
 10
1.66499996185303
 20
0.190000001341105
 30
1.53999996185303
 70
192
 0
VERTEX
 8
0
 10
1.02499997615814
 20
0.185000002384186
 30
0.610000014305115
 70
192
 0
VERTEX
 8
0
 10
1.02499997615814
 20
0.185000002384186
 30
0.234999999403954
 70
192
 0
VERTEX
 8
0
 10
1.25499999523163
 20
0.195000000298023
 30
0.264999985694885
 70
192
 0
VERTEX
 8
0
 10
1.45833301544189
 20
0.220000000670552
 30
0.829999983310699
 70
192
 0
VERTEX
 8
0
 10
1.45833301544189
 20
0.190000001341105
 30
0.829999983310699
 70
192
 0
VERTEX
 8
0
 10
1.44833302497864
 20
0.190000001341105
 30
1.18499994277954
 70
192
 0
VERTEX
 8
0
 10
1.44833302497864
 20
0.190000001341105
 30
1.17499995231628
 70
192
 0
VERTEX
 8
0
 10
1.44833302497864
 20
0.220000000670552
 30
1.17499995231628
 70
192
 0
VERTEX
 8
0
 10
1.67499995231628
 20
0.230000000447035
 30
0.819999992847443
 70
192
 0
VERTEX
 8
0
 10
1.01499998569489
 20
0.220000000670552
 30
0.819999992847443
 70
192
 0
VERTEX
 8
0
 10
1.23166704177856
 20
0.220000000670552
 30
0.829999983310699
 70
192
 0
VERTEX
 8
0
 10
1.23166704177856
 20
0.220000000670552
 30
1.17499995231628
 70
192
 0
VERTEX
 8
0
 10
1.24166703224182
 20
0.220000000670552
 30
1.17499995231628
 70
192
 0
VERTEX
 8
0
 10
1.02499997615814
 20
0.190000001341105
 30
0.829999983310699
 70
192
 0
VERTEX
 8
0
 10
1.23166704177856
 20
0.190000001341105
 30
1.18499994277954
 70
192
 0
VERTEX
 8
0
 10
1.23166704177856
 20
0.220000000670552
 30
1.18499994277954
 70
192
 0
VERTEX
 8
0
 10
1.02499997615814
 20
0.220000000670552
 30
1.18499994277954
 70
192
 0
VERTEX
 8
0
 10
1.01499998569489
 20
0.220000000670552
 30
1.89499998092651
 70
192
 0
VERTEX
 8
0
 10
1.02499997615814
 20
0.220000000670552
 30
1.52999997138977
 70
192
 0
VERTEX
 8
0
 10
1.23166704177856
 20
0.190000001341105
 30
1.53999996185303
 70
192
 0
VERTEX
 8
0
 10
1.23166704177856
 20
0.190000001341105
 30
1.52999997138977
 70
192
 0
VERTEX
 8
0
 10
1.23166704177856
 20
0.190000001341105
 30
1.88499999046326
 70
192
 0
VERTEX
 8
0
 10
1.44833302497864
 20
0.220000000670552
 30
1.88499999046326
 70
192
 0
VERTEX
 8
0
 10
1.45833301544189
 20
0.190000001341105
 30
1.88499999046326
 70
192
 0
VERTEX
 8
0
 10
1.66499996185303
 20
0.190000001341105
 30
1.18499994277954
 70
192
 0
VERTEX
 8
0
 10
1.66499996185303
 20
0.220000000670552
 30
1.18499994277954
 70
192
 0
VERTEX
 8
0
 10
1.45833301544189
 20
0.190000001341105
 30
1.53999996185303
 70
192
 0
VERTEX
 8
0
 10
1.45833301544189
 20
0.190000001341105
 30
1.52999997138977
 70
192
 0
VERTEX
 8
0
 10
1.05499994754791
 20
0.195000000298023
 30
0.579999983310699
 70
192
 0
VERTEX
 8
0
 10
1.02499997615814
 20
0.190000001341105
 30
0.234999999403954
 70
192
 0
VERTEX
 8
0
 10
1.05499994754791
 20
0.199999999254942
 30
0.579999983310699
 70
192
 0
VERTEX
 8
0
 10
1.25499999523163
 20
0.199999999254942
 30
0.264999985694885
 70
192
 0
VERTEX
 8
0
 10
1.25499999523163
 20
0.199999999254942
 30
0.579999983310699
 70
192
 0
VERTEX
 8
0
 10
1.05499994754791
 20
0.199999999254942
 30
0.264999985694885
 70
192
 0
VERTEX
 8
0
 10
1.05499994754791
 20
0.195000000298023
 30
0.264999985694885
 70
192
 0
VERTEX
 8
0
 10
1.45833301544189
 20
0.190000001341105
 30
1.17499995231628
 70
192
 0
VERTEX
 8
0
 10
1.45833301544189
 20
0.220000000670552
 30
1.17499995231628
 70
192
 0
VERTEX
 8
0
 10
1.66499996185303
 20
0.220000000670552
 30
1.17499995231628
 70
192
 0
VERTEX
 8
0
 10
1.66499996185303
 20
0.220000000670552
 30
0.829999983310699
 70
192
 0
VERTEX
 8
0
 10
1.44833302497864
 20
0.220000000670552
 30
1.18499994277954
 70
192
 0
VERTEX
 8
0
 10
1.01499998569489
 20
0.230000000447035
 30
0.819999992847443
 70
192
 0
VERTEX
 8
0
 10
1.67499995231628
 20
0.220000000670552
 30
0.819999992847443
 70
192
 0
VERTEX
 8
0
 10
1.02499997615814
 20
0.220000000670552
 30
0.829999983310699
 70
192
 0
VERTEX
 8
0
 10
1.02499997615814
 20
0.220000000670552
 30
1.17499995231628
 70
192
 0
VERTEX
 8
0
 10
1.02499997615814
 20
0.220000000670552
 30
1.53999996185303
 70
192
 0
VERTEX
 8
0
 10
1.23166704177856
 20
0.220000000670552
 30
1.52999997138977
 70
192
 0
VERTEX
 8
0
 10
1.23166704177856
 20
0.220000000670552
 30
1.53999996185303
 70
192
 0
VERTEX
 8
0
 10
1.24166703224182
 20
0.220000000670552
 30
1.88499999046326
 70
192
 0
VERTEX
 8
0
 10
1.45833301544189
 20
0.190000001341105
 30
1.18499994277954
 70
192
 0
VERTEX
 8
0
 10
1.45833301544189
 20
0.220000000670552
 30
1.18499994277954
 70
192
 0
VERTEX
 8
0
 10
1.45833301544189
 20
0.220000000670552
 30
1.53999996185303
 70
192
 0
VERTEX
 8
0
 10
1.45833301544189
 20
0.220000000670552
 30
1.52999997138977
 70
192
 0
VERTEX
 8
0
 10
1.66499996185303
 20
0.220000000670552
 30
1.53999996185303
 70
192
 0
VERTEX
 8
0
 10
1.44833302497864
 20
0.190000001341105
 30
1.52999997138977
 70
192
 0
VERTEX
 8
0
 10
1.24166703224182
 20
0.190000001341105
 30
1.18499994277954
 70
192
 0
VERTEX
 8
0
 10
1.67499995231628
 20
0.230000000447035
 30
0.620000004768372
 70
192
 0
VERTEX
 8
0
 10
1.67499995231628
 20
0.220000000670552
 30
1.89499998092651
 70
192
 0
VERTEX
 8
0
 10
1.01499998569489
 20
0.230000000447035
 30
1.89499998092651
 70
192
 0
VERTEX
 8
0
 10
1.67499995231628
 20
0.230000000447035
 30
1.89499998092651
 70
192
 0
VERTEX
 8
0
 10
1.24166703224182
 20
0.190000001341105
 30
1.52999997138977
 70
192
 0
VERTEX
 8
0
 10
1.24166703224182
 20
0.220000000670552
 30
1.18499994277954
 70
192
 0
VERTEX
 8
0
 10
1.24166703224182
 20
0.220000000670552
 30
1.52999997138977
 70
192
 0
VERTEX
 8
0
 10
1.02499997615814
 20
0.190000001341105
 30
1.88499999046326
 70
192
 0
VERTEX
 8
0
 10
1.02499997615814
 20
0.220000000670552
 30
1.88499999046326
 70
192
 0
VERTEX
 8
0
 10
1.23166704177856
 20
0.220000000670552
 30
1.88499999046326
 70
192
 0
VERTEX
 8
0
 10
1.44833302497864
 20
0.190000001341105
 30
1.53999996185303
 70
192
 0
VERTEX
 8
0
 10
1.44833302497864
 20
0.220000000670552
 30
1.53999996185303
 70
192
 0
VERTEX
 8
0
 10
1.24166703224182
 20
0.220000000670552
 30
1.53999996185303
 70
192
 0
VERTEX
 8
0
 10
1.24166703224182
 20
0.190000001341105
 30
1.53999996185303
 70
192
 0
VERTEX
 8
0
 10
1.66499996185303
 20
0.220000000670552
 30
1.88499999046326
 70
192
 0
VERTEX
 8
0
 10
1.66499996185303
 20
0.190000001341105
 30
1.88499999046326
 70
192
 0
VERTEX
 8
0
 10
1.45833301544189
 20
0.220000000670552
 30
1.88499999046326
 70
192
 0
VERTEX
 8
0
 10
1.44833302497864
 20
0.220000000670552
 30
1.52999997138977
 70
192
 0
VERTEX
 8
0
 10
1.29499995708466
 20
0.224999999627471
 30
0.224999994039536
 70
192
 0
VERTEX
 8
0
 10
1.29499995708466
 20
0.224999999627471
 30
0.620000004768372
 70
192
 0
VERTEX
 8
0
 10
1.39499998092651
 20
0.230000000447035
 30
0.620000004768372
 70
192
 0
VERTEX
 8
0
 10
1.29499995708466
 20
0.230000000447035
 30
0.224999994039536
 70
192
 0
VERTEX
 8
0
 10
1.29499995708466
 20
0.230000000447035
 30
0.620000004768372
 70
192
 0
VERTEX
 8
0
 10
1.01499998569489
 20
0.230000000447035
 30
0.620000004768372
 70
192
 0
VERTEX
 8
0
 10
1.39499998092651
 20
0.224999999627471
 30
0.224999994039536
 70
192
 0
VERTEX
 8
0
 10
1.39499998092651
 20
0.224999999627471
 30
0.620000004768372
 70
192
 0
VERTEX
 8
0
 10
1.67499995231628
 20
0.230000000447035
 30
0.224999994039536
 70
192
 0
VERTEX
 8
0
 10
1.39499998092651
 20
0.230000000447035
 30
0.224999994039536
 70
192
 0
VERTEX
 8
0
 10
1.02499997615814
 20
0.224999999627471
 30
0.610000014305115
 70
192
 0
VERTEX
 8
0
 10
1.01499998569489
 20
0.224999999627471
 30
0.620000004768372
 70
192
 0
VERTEX
 8
0
 10
1.01499998569489
 20
0.230000000447035
 30
0.224999994039536
 70
192
 0
VERTEX
 8
0
 10
1.01499998569489
 20
0.224999999627471
 30
0.224999994039536
 70
192
 0
VERTEX
 8
0
 10
1.66499996185303
 20
0.224999999627471
 30
0.610000014305115
 70
192
 0
VERTEX
 8
0
 10
1.67499995231628
 20
0.224999999627471
 30
0.620000004768372
 70
192
 0
VERTEX
 8
0
 10
1.40499997138977
 20
0.224999999627471
 30
0.234999999403954
 70
192
 0
VERTEX
 8
0
 10
1.40499997138977
 20
0.224999999627471
 30
0.610000014305115
 70
192
 0
VERTEX
 8
0
 10
1.40499997138977
 20
0.220000000670552
 30
0.610000014305115
 70
192
 0
VERTEX
 8
0
 10
1.67499995231628
 20
0.224999999627471
 30
0.224999994039536
 70
192
 0
VERTEX
 8
0
 10
1.2849999666214
 20
0.224999999627471
 30
0.610000014305115
 70
192
 0
VERTEX
 8
0
 10
1.66499996185303
 20
0.220000000670552
 30
0.610000014305115
 70
192
 0
VERTEX
 8
0
 10
1.2849999666214
 20
0.224999999627471
 30
0.234999999403954
 70
192
 0
VERTEX
 8
0
 10
1.2849999666214
 20
0.220000000670552
 30
0.610000014305115
 70
192
 0
VERTEX
 8
0
 10
1.2849999666214
 20
0.220000000670552
 30
0.234999999403954
 70
192
 0
VERTEX
 8
0
 10
1.40499997138977
 20
0.220000000670552
 30
0.234999999403954
 70
192
 0
VERTEX
 8
0
 10
1.02499997615814
 20
0.224999999627471
 30
0.234999999403954
 70
192
 0
VERTEX
 8
0
 10
1.25499999523163
 20
0.214999999850988
 30
0.579999983310699
 70
192
 0
VERTEX
 8
0
 10
1.02499997615814
 20
0.220000000670552
 30
0.610000014305115
 70
192
 0
VERTEX
 8
0
 10
1.66499996185303
 20
0.220000000670552
 30
0.234999999403954
 70
192
 0
VERTEX
 8
0
 10
1.66499996185303
 20
0.224999999627471
 30
0.234999999403954
 70
192
 0
VERTEX
 8
0
 10
1.63499999046326
 20
0.214999999850988
 30
0.579999983310699
 70
192
 0
VERTEX
 8
0
 10
1.02499997615814
 20
0.220000000670552
 30
0.234999999403954
 70
192
 0
VERTEX
 8
0
 10
1.25499999523163
 20
0.214999999850988
 30
0.264999985694885
 70
192
 0
VERTEX
 8
0
 10
1.25499999523163
 20
0.21000000089407
 30
0.579999983310699
 70
192
 0
VERTEX
 8
0
 10
1.43499994277954
 20
0.214999999850988
 30
0.579999983310699
 70
192
 0
VERTEX
 8
0
 10
1.43499994277954
 20
0.214999999850988
 30
0.264999985694885
 70
192
 0
VERTEX
 8
0
 10
1.05499994754791
 20
0.214999999850988
 30
0.579999983310699
 70
192
 0
VERTEX
 8
0
 10
1.63499999046326
 20
0.21000000089407
 30
0.579999983310699
 70
192
 0
VERTEX
 8
0
 10
1.43499994277954
 20
0.21000000089407
 30
0.579999983310699
 70
192
 0
VERTEX
 8
0
 10
1.05499994754791
 20
0.214999999850988
 30
0.264999985694885
 70
192
 0
VERTEX
 8
0
 10
1.05499994754791
 20
0.21000000089407
 30
0.579999983310699
 70
192
 0
VERTEX
 8
0
 10
1.25499999523163
 20
0.21000000089407
 30
0.264999985694885
 70
192
 0
VERTEX
 8
0
 10
1.63499999046326
 20
0.21000000089407
 30
0.264999985694885
 70
192
 0
VERTEX
 8
0
 10
1.43499994277954
 20
0.21000000089407
 30
0.264999985694885
 70
192
 0
VERTEX
 8
0
 10
1.05499994754791
 20
0.21000000089407
 30
0.264999985694885
 70
192
 0
VERTEX
 8
0
 10
1.63499999046326
 20
0.214999999850988
 30
0.264999985694885
 70
192
 0
VERTEX
 8
0
 10
1.78799998760223
 20
0.179999999701977
 30
2.06800007820129
 70
192
 0
VERTEX
 8
0
 10
0.90200001001358
 20
0.230000000447035
 30
2.06800007820129
 70
192
 0
VERTEX
 8
0
 10
1.78799998760223
 20
0.230000000447035
 30
0.0270000007003546
 70
192
 0
VERTEX
 8
0
 10
1.78799998760223
 20
0.230000000447035
 30
2.06800007820129
 70
192
 0
VERTEX
 8
0
 10
0.90200001001358
 20
0.179999999701977
 30
2.06800007820129
 70
192
 0
VERTEX
 8
0
 10
0.90200001001358
 20
0.179999999701977
 30
0.0270000007003546
 70
192
 0
VERTEX
 8
0
 10
1.78799998760223
 20
0.179999999701977
 30
0.0270000007003546
 70
192
 0
VERTEX
 8
0
 10
1.78799998760223
 20
0.179999999701977
 30
0.0750000029802322
 70
192
 0
VERTEX
 8
0
 10
0.90200001001358
 20
0.230000000447035
 30
0.0270000007003546
 70
192
 0
VERTEX
 8
0
 10
0.916999995708466
 20
0.170000001788139
 30
0.0750000029802322
 70
192
 0
VERTEX
 8
0
 10
0.916999995708466
 20
0.140000000596046
 30
0.0270000007003546
 70
192
 0
VERTEX
 8
0
 10
0.916999995708466
 20
0.179999999701977
 30
0.0270000007003546
 70
192
 0
VERTEX
 8
0
 10
1.77300000190735
 20
0.179999999701977
 30
0.0270000007003546
 70
192
 0
VERTEX
 8
0
 10
1.77300000190735
 20
0.140000000596046
 30
0.0270000007003546
 70
192
 0
VERTEX
 8
0
 10
0.916999995708466
 20
0.140000000596046
 30
0.0450000017881393
 70
192
 0
VERTEX
 8
0
 10
0
 20
0.25
 30
0
 70
128
 71
83
 72
3
 73
5
 74
84
 0
VERTEX
 8
0
 10
0
 20
0.25
 30
0
 70
128
 71
37
 72
2
 73
3
 74
83
 0
VERTEX
 8
0
 10
0
 20
0.25
 30
0
 70
128
 71
84
 72
5
 73
4
 74
21
 0
VERTEX
 8
0
 10
0
 20
0.25
 30
0
 70
128
 71
11
 72
4
 73
5
 74
358
 0
VERTEX
 8
0
 10
0
 20
0.25
 30
0
 70
128
 71
2
 72
1
 73
359
 74
3
 0
VERTEX
 8
0
 10
0
 20
0.25
 30
0
 70
128
 71
358
 72
5
 73
3
 74
359
 0
VERTEX
 8
0
 10
0
 20
0.25
 30
0
 70
128
 71
21
 72
4
 73
6
 74
13
 0
VERTEX
 8
0
 10
0
 20
0.25
 30
0
 70
128
 71
10
 72
6
 73
4
 74
11
 0
VERTEX
 8
0
 10
0
 20
0.25
 30
0
 70
128
 71
13
 72
6
 73
7
 74
8
 0
VERTEX
 8
0
 10
0
 20
0.25
 30
0
 70
128
 71
21
 72
13
 73
18
 74
25
 0
VERTEX
 8
0
 10
0
 20
0.25
 30
0
 70
128
 71
9
 72
7
 73
6
 74
10
 0
VERTEX
 8
0
 10
0
 20
0.25
 30
0
 70
128
 71
10
 72
11
 73
12
 74
16
 0
VERTEX
 8
0
 10
0
 20
0.25
 30
0
 70
128
 71
8
 72
17
 73
18
 74
13
 0
VERTEX
 8
0
 10
0
 20
0.25
 30
0
 70
128
 71
18
 72
14
 73
24
 74
25
 0
VERTEX
 8
0
 10
0
 20
0.25
 30
0
 70
128
 71
15
 72
9
 73
10
 74
16
 0
VERTEX
 8
0
 10
0
 20
0.25
 30
0
 70
128
 71
12
 72
24
 73
14
 74
16
 0
VERTEX
 8
0
 10
0
 20
0.25
 30
0
 70
128
 71
17
 72
76
 73
14
 74
18
 0
VERTEX
 8
0
 10
0
 20
0.25
 30
0
 70
128
 71
16
 72
14
 73
76
 74
15
 0
VERTEX
 8
0
 10
0
 20
0.25
 30
0
 70
128
 71
11
 72
19
 73
20
 74
12
 0
VERTEX
 8
0
 10
0
 20
0.25
 30
0
 70
128
 71
20
 72
19
 73
22
 74
33
 0
VERTEX
 8
0
 10
0
 20
0.25
 30
0
 70
128
 71
20
 72
23
 73
24
 74
12
 0
VERTEX
 8
0
 10
0
 20
0.25
 30
0
 70
128
 71
28
 72
22
 73
27
 0
VERTEX
 8
0
 10
0
 20
0.25
 30
0
 70
128
 71
33
 72
22
 73
28
 74
30
 0
VERTEX
 8
0
 10
0
 20
0.25
 30
0
 70
128
 71
33
 72
32
 73
23
 74
20
 0
VERTEX
 8
0
 10
0
 20
0.25
 30
0
 70
128
 71
25
 72
24
 73
23
 74
29
 0
VERTEX
 8
0
 10
0
 20
0.25
 30
0
 70
128
 71
28
 72
27
 73
26
 74
36
 0
VERTEX
 8
0
 10
0
 20
0.25
 30
0
 70
128
 71
30
 72
28
 73
36
 74
45
 0
VERTEX
 8
0
 10
0
 20
0.25
 30
0
 70
128
 71
30
 72
31
 73
32
 74
33
 0
VERTEX
 8
0
 10
0
 20
0.25
 30
0
 70
128
 71
29
 72
23
 73
32
 74
109
 0
VERTEX
 8
0
 10
0
 20
0.25
 30
0
 70
128
 71
1
 72
2
 73
35
 74
26
 0
VERTEX
 8
0
 10
0
 20
0.25
 30
0
 70
128
 71
26
 72
35
 73
38
 74
36
 0
VERTEX
 8
0
 10
0
 20
0.25
 30
0
 70
128
 71
40
 72
42
 73
45
 74
36
 0
VERTEX
 8
0
 10
0
 20
0.25
 30
0
 70
128
 71
45
 72
44
 73
31
 74
30
 0
VERTEX
 8
0
 10
0
 20
0.25
 30
0
 70
128
 71
109
 72
32
 73
31
 74
117
 0
VERTEX
 8
0
 10
0
 20
0.25
 30
0
 70
128
 71
46
 72
34
 73
114
 0
VERTEX
 8
0
 10
0
 20
0.25
 30
0
 70
128
 71
53
 72
46
 73
114
 74
117
 0
VERTEX
 8
0
 10
0
 20
0.25
 30
0
 70
128
 71
34
 72
35
 73
2
 74
37
 0
VERTEX
 8
0
 10
0
 20
0.25
 30
0
 70
128
 71
46
 72
38
 73
35
 74
34
 0
VERTEX
 8
0
 10
0
 20
0.25
 30
0
 70
128
 71
36
 72
38
 73
39
 74
40
 0
VERTEX
 8
0
 10
0
 20
0.25
 30
0
 70
128
 71
50
 72
42
 73
40
 74
41
 0
VERTEX
 8
0
 10
0
 20
0.25
 30
0
 70
128
 71
42
 72
43
 73
44
 74
45
 0
VERTEX
 8
0
 10
0
 20
0.25
 30
0
 70
128
 71
117
 72
31
 73
44
 74
53
 0
VERTEX
 8
0
 10
0
 20
0.25
 30
0
 70
128
 71
46
 72
53
 73
47
 74
48
 0
VERTEX
 8
0
 10
0
 20
0.25
 30
0
 70
128
 71
48
 72
39
 73
38
 74
46
 0
VERTEX
 8
0
 10
0
 20
0.25
 30
0
 70
128
 71
39
 72
64
 73
60
 74
40
 0
VERTEX
 8
0
 10
0
 20
0.25
 30
0
 70
128
 71
50
 72
61
 73
42
 0
VERTEX
 8
0
 10
0
 20
0.25
 30
0
 70
128
 71
41
 72
40
 73
60
 0
VERTEX
 8
0
 10
0
 20
0.25
 30
0
 70
128
 71
49
 72
50
 73
41
 74
51
 0
VERTEX
 8
0
 10
0
 20
0.25
 30
0
 70
128
 71
61
 72
52
 73
43
 74
42
 0
VERTEX
 8
0
 10
0
 20
0.25
 30
0
 70
128
 71
53
 72
44
 73
43
 74
47
 0
VERTEX
 8
0
 10
0
 20
0.25
 30
0
 70
128
 71
48
 72
47
 73
54
 74
56
 0
VERTEX
 8
0
 10
0
 20
0.25
 30
0
 70
128
 71
68
 72
55
 73
39
 74
48
 0
VERTEX
 8
0
 10
0
 20
0.25
 30
0
 70
128
 71
58
 72
64
 73
39
 0
VERTEX
 8
0
 10
0
 20
0.25
 30
0
 70
128
 71
52
 72
61
 73
60
 74
64
 0
VERTEX
 8
0
 10
0
 20
0.25
 30
0
 70
128
 71
61
 72
50
 73
49
 74
65
 0
VERTEX
 8
0
 10
0
 20
0.25
 30
0
 70
128
 71
41
 72
60
 73
66
 74
51
 0
VERTEX
 8
0
 10
0
 20
0.25
 30
0
 70
128
 71
15
 72
49
 73
51
 74
9
 0
VERTEX
 8
0
 10
0
 20
0.25
 30
0
 70
128
 71
75
 72
43
 73
52
 0
VERTEX
 8
0
 10
0
 20
0.25
 30
0
 70
128
 71
47
 72
43
 73
72
 74
73
 0
VERTEX
 8
0
 10
0
 20
0.25
 30
0
 70
128
 71
54
 72
47
 73
73
 0
VERTEX
 8
0
 10
0
 20
0.25
 30
0
 70
128
 71
54
 72
67
 73
69
 74
56
 0
VERTEX
 8
0
 10
0
 20
0.25
 30
0
 70
128
 71
56
 72
68
 73
48
 0
VERTEX
 8
0
 10
0
 20
0.25
 30
0
 70
128
 71
73
 72
72
 73
55
 74
68
 0
VERTEX
 8
0
 10
0
 20
0.25
 30
0
 70
128
 71
57
 72
39
 73
55
 0
VERTEX
 8
0
 10
0
 20
0.25
 30
0
 70
128
 71
64
 72
58
 73
59
 74
62
 0
VERTEX
 8
0
 10
0
 20
0.25
 30
0
 70
128
 71
57
 72
58
 73
39
 0
VERTEX
 8
0
 10
0
 20
0.25
 30
0
 70
128
 71
65
 72
66
 73
60
 74
61
 0
VERTEX
 8
0
 10
0
 20
0.25
 30
0
 70
128
 71
62
 72
63
 73
52
 74
64
 0
VERTEX
 8
0
 10
0
 20
0.25
 30
0
 70
128
 71
49
 72
15
 73
65
 0
VERTEX
 8
0
 10
0
 20
0.25
 30
0
 70
128
 71
51
 72
66
 73
9
 0
VERTEX
 8
0
 10
0
 20
0.25
 30
0
 70
128
 71
75
 72
80
 73
43
 0
VERTEX
 8
0
 10
0
 20
0.25
 30
0
 70
128
 71
75
 72
52
 73
63
 74
77
 0
VERTEX
 8
0
 10
0
 20
0.25
 30
0
 70
128
 71
80
 72
72
 73
43
 0
VERTEX
 8
0
 10
0
 20
0.25
 30
0
 70
128
 71
73
 72
78
 73
67
 74
54
 0
VERTEX
 8
0
 10
0
 20
0.25
 30
0
 70
128
 71
17
 72
8
 73
69
 74
67
 0
VERTEX
 8
0
 10
0
 20
0.25
 30
0
 70
128
 71
79
 72
68
 73
56
 74
69
 0
VERTEX
 8
0
 10
0
 20
0.25
 30
0
 70
128
 71
70
 72
71
 73
55
 74
72
 0
VERTEX
 8
0
 10
0
 20
0.25
 30
0
 70
128
 71
79
 72
78
 73
73
 74
68
 0
VERTEX
 8
0
 10
0
 20
0.25
 30
0
 70
128
 71
57
 72
55
 73
71
 74
74
 0
VERTEX
 8
0
 10
0
 20
0.25
 30
0
 70
128
 71
77
 72
59
 73
58
 74
75
 0
VERTEX
 8
0
 10
0
 20
0.25
 30
0
 70
128
 71
59
 72
7
 73
62
 0
VERTEX
 8
0
 10
0
 20
0.25
 30
0
 70
128
 71
80
 72
75
 73
58
 74
57
 0
VERTEX
 8
0
 10
0
 20
0.25
 30
0
 70
128
 71
65
 72
63
 73
62
 74
66
 0
VERTEX
 8
0
 10
0
 20
0.25
 30
0
 70
128
 71
15
 72
76
 73
63
 74
65
 0
VERTEX
 8
0
 10
0
 20
0.25
 30
0
 70
128
 71
66
 72
62
 73
7
 74
9
 0
VERTEX
 8
0
 10
0
 20
0.25
 30
0
 70
128
 71
63
 72
76
 73
77
 0
VERTEX
 8
0
 10
0
 20
0.25
 30
0
 70
128
 71
72
 72
80
 73
81
 74
70
 0
VERTEX
 8
0
 10
0
 20
0.25
 30
0
 70
128
 71
67
 72
78
 73
17
 0
VERTEX
 8
0
 10
0
 20
0.25
 30
0
 70
128
 71
69
 72
8
 73
79
 0
VERTEX
 8
0
 10
0
 20
0.25
 30
0
 70
128
 71
70
 72
78
 73
79
 74
71
 0
VERTEX
 8
0
 10
0
 20
0.25
 30
0
 70
128
 71
71
 72
7
 73
74
 0
VERTEX
 8
0
 10
0
 20
0.25
 30
0
 70
128
 71
74
 72
81
 73
80
 74
57
 0
VERTEX
 8
0
 10
0
 20
0.25
 30
0
 70
128
 71
77
 72
81
 73
74
 74
59
 0
VERTEX
 8
0
 10
0
 20
0.25
 30
0
 70
128
 71
74
 72
7
 73
59
 0
VERTEX
 8
0
 10
0
 20
0.25
 30
0
 70
128
 71
77
 72
76
 73
81
 0
VERTEX
 8
0
 10
0
 20
0.25
 30
0
 70
128
 71
81
 72
76
 73
70
 0
VERTEX
 8
0
 10
0
 20
0.25
 30
0
 70
128
 71
78
 72
70
 73
76
 74
17
 0
VERTEX
 8
0
 10
0
 20
0.25
 30
0
 70
128
 71
8
 72
7
 73
71
 74
79
 0
VERTEX
 8
0
 10
0
 20
0.25
 30
0
 70
128
 71
83
 72
84
 73
88
 74
86
 0
VERTEX
 8
0
 10
0
 20
0.25
 30
0
 70
128
 71
37
 72
83
 73
86
 74
85
 0
VERTEX
 8
0
 10
0
 20
0.25
 30
0
 70
128
 71
84
 72
21
 73
87
 74
88
 0
VERTEX
 8
0
 10
0
 20
0.25
 30
0
 70
128
 71
94
 72
356
 73
88
 74
87
 0
VERTEX
 8
0
 10
0
 20
0.25
 30
0
 70
128
 71
82
 72
355
 73
85
 74
86
 0
VERTEX
 8
0
 10
0
 20
0.25
 30
0
 70
128
 71
356
 72
82
 73
86
 74
88
 0
VERTEX
 8
0
 10
0
 20
0.25
 30
0
 70
128
 71
21
 72
96
 73
89
 74
87
 0
VERTEX
 8
0
 10
0
 20
0.25
 30
0
 70
128
 71
93
 72
94
 73
87
 74
89
 0
VERTEX
 8
0
 10
0
 20
0.25
 30
0
 70
128
 71
96
 72
91
 73
90
 74
89
 0
VERTEX
 8
0
 10
0
 20
0.25
 30
0
 70
128
 71
21
 72
25
 73
101
 74
96
 0
VERTEX
 8
0
 10
0
 20
0.25
 30
0
 70
128
 71
92
 72
93
 73
89
 74
90
 0
VERTEX
 8
0
 10
0
 20
0.25
 30
0
 70
128
 71
93
 72
99
 73
95
 74
94
 0
VERTEX
 8
0
 10
0
 20
0.25
 30
0
 70
128
 71
91
 72
96
 73
101
 74
100
 0
VERTEX
 8
0
 10
0
 20
0.25
 30
0
 70
128
 71
101
 72
25
 73
106
 74
97
 0
VERTEX
 8
0
 10
0
 20
0.25
 30
0
 70
128
 71
98
 72
99
 73
93
 74
92
 0
VERTEX
 8
0
 10
0
 20
0.25
 30
0
 70
128
 71
95
 72
99
 73
97
 74
106
 0
VERTEX
 8
0
 10
0
 20
0.25
 30
0
 70
128
 71
100
 72
101
 73
97
 74
156
 0
VERTEX
 8
0
 10
0
 20
0.25
 30
0
 70
128
 71
99
 72
98
 73
156
 74
97
 0
VERTEX
 8
0
 10
0
 20
0.25
 30
0
 70
128
 71
94
 72
95
 73
103
 74
102
 0
VERTEX
 8
0
 10
0
 20
0.25
 30
0
 70
128
 71
103
 72
113
 73
104
 74
102
 0
VERTEX
 8
0
 10
0
 20
0.25
 30
0
 70
128
 71
103
 72
95
 73
106
 74
105
 0
VERTEX
 8
0
 10
0
 20
0.25
 30
0
 70
128
 71
108
 72
107
 73
104
 0
VERTEX
 8
0
 10
0
 20
0.25
 30
0
 70
128
 71
113
 72
110
 73
108
 74
104
 0
VERTEX
 8
0
 10
0
 20
0.25
 30
0
 70
128
 71
113
 72
103
 73
105
 74
112
 0
VERTEX
 8
0
 10
0
 20
0.25
 30
0
 70
128
 71
25
 72
29
 73
105
 74
106
 0
VERTEX
 8
0
 10
0
 20
0.25
 30
0
 70
128
 71
108
 72
116
 73
367
 74
107
 0
VERTEX
 8
0
 10
0
 20
0.25
 30
0
 70
128
 71
110
 72
125
 73
116
 74
108
 0
VERTEX
 8
0
 10
0
 20
0.25
 30
0
 70
128
 71
110
 72
113
 73
112
 74
111
 0
VERTEX
 8
0
 10
0
 20
0.25
 30
0
 70
128
 71
29
 72
109
 73
112
 74
105
 0
VERTEX
 8
0
 10
0
 20
0.25
 30
0
 70
128
 71
355
 72
367
 73
115
 74
85
 0
VERTEX
 8
0
 10
0
 20
0.25
 30
0
 70
128
 71
367
 72
116
 73
118
 74
115
 0
VERTEX
 8
0
 10
0
 20
0.25
 30
0
 70
128
 71
120
 72
116
 73
125
 74
122
 0
VERTEX
 8
0
 10
0
 20
0.25
 30
0
 70
128
 71
125
 72
110
 73
111
 74
124
 0
VERTEX
 8
0
 10
0
 20
0.25
 30
0
 70
128
 71
109
 72
117
 73
111
 74
112
 0
VERTEX
 8
0
 10
0
 20
0.25
 30
0
 70
128
 71
126
 72
114
 73
34
 0
VERTEX
 8
0
 10
0
 20
0.25
 30
0
 70
128
 71
133
 72
117
 73
114
 74
126
 0
VERTEX
 8
0
 10
0
 20
0.25
 30
0
 70
128
 71
34
 72
37
 73
85
 74
115
 0
VERTEX
 8
0
 10
0
 20
0.25
 30
0
 70
128
 71
126
 72
34
 73
115
 74
118
 0
VERTEX
 8
0
 10
0
 20
0.25
 30
0
 70
128
 71
116
 72
120
 73
119
 74
118
 0
VERTEX
 8
0
 10
0
 20
0.25
 30
0
 70
128
 71
130
 72
121
 73
120
 74
122
 0
VERTEX
 8
0
 10
0
 20
0.25
 30
0
 70
128
 71
122
 72
125
 73
124
 74
123
 0
VERTEX
 8
0
 10
0
 20
0.25
 30
0
 70
128
 71
117
 72
133
 73
124
 74
111
 0
VERTEX
 8
0
 10
0
 20
0.25
 30
0
 70
128
 71
126
 72
128
 73
127
 74
133
 0
VERTEX
 8
0
 10
0
 20
0.25
 30
0
 70
128
 71
128
 72
126
 73
118
 74
119
 0
VERTEX
 8
0
 10
0
 20
0.25
 30
0
 70
128
 71
119
 72
120
 73
140
 74
144
 0
VERTEX
 8
0
 10
0
 20
0.25
 30
0
 70
128
 71
130
 72
122
 73
141
 0
VERTEX
 8
0
 10
0
 20
0.25
 30
0
 70
128
 71
121
 72
140
 73
120
 0
VERTEX
 8
0
 10
0
 20
0.25
 30
0
 70
128
 71
129
 72
131
 73
121
 74
130
 0
VERTEX
 8
0
 10
0
 20
0.25
 30
0
 70
128
 71
141
 72
122
 73
123
 74
132
 0
VERTEX
 8
0
 10
0
 20
0.25
 30
0
 70
128
 71
133
 72
127
 73
123
 74
124
 0
VERTEX
 8
0
 10
0
 20
0.25
 30
0
 70
128
 71
128
 72
136
 73
134
 74
127
 0
VERTEX
 8
0
 10
0
 20
0.25
 30
0
 70
128
 71
148
 72
128
 73
119
 74
135
 0
VERTEX
 8
0
 10
0
 20
0.25
 30
0
 70
128
 71
138
 72
119
 73
144
 0
VERTEX
 8
0
 10
0
 20
0.25
 30
0
 70
128
 71
132
 72
144
 73
140
 74
141
 0
VERTEX
 8
0
 10
0
 20
0.25
 30
0
 70
128
 71
141
 72
145
 73
129
 74
130
 0
VERTEX
 8
0
 10
0
 20
0.25
 30
0
 70
128
 71
121
 72
131
 73
146
 74
140
 0
VERTEX
 8
0
 10
0
 20
0.25
 30
0
 70
128
 71
98
 72
92
 73
131
 74
129
 0
VERTEX
 8
0
 10
0
 20
0.25
 30
0
 70
128
 71
155
 72
132
 73
123
 0
VERTEX
 8
0
 10
0
 20
0.25
 30
0
 70
128
 71
127
 72
153
 73
152
 74
123
 0
VERTEX
 8
0
 10
0
 20
0.25
 30
0
 70
128
 71
134
 72
153
 73
127
 0
VERTEX
 8
0
 10
0
 20
0.25
 30
0
 70
128
 71
134
 72
136
 73
149
 74
147
 0
VERTEX
 8
0
 10
0
 20
0.25
 30
0
 70
128
 71
136
 72
128
 73
148
 0
VERTEX
 8
0
 10
0
 20
0.25
 30
0
 70
128
 71
153
 72
148
 73
135
 74
152
 0
VERTEX
 8
0
 10
0
 20
0.25
 30
0
 70
128
 71
137
 72
135
 73
119
 0
VERTEX
 8
0
 10
0
 20
0.25
 30
0
 70
128
 71
144
 72
142
 73
139
 74
138
 0
VERTEX
 8
0
 10
0
 20
0.25
 30
0
 70
128
 71
137
 72
119
 73
138
 0
VERTEX
 8
0
 10
0
 20
0.25
 30
0
 70
128
 71
145
 72
141
 73
140
 74
146
 0
VERTEX
 8
0
 10
0
 20
0.25
 30
0
 70
128
 71
142
 72
144
 73
132
 74
143
 0
VERTEX
 8
0
 10
0
 20
0.25
 30
0
 70
128
 71
129
 72
145
 73
98
 0
VERTEX
 8
0
 10
0
 20
0.25
 30
0
 70
128
 71
131
 72
92
 73
146
 0
VERTEX
 8
0
 10
0
 20
0.25
 30
0
 70
128
 71
155
 72
123
 73
160
 0
VERTEX
 8
0
 10
0
 20
0.25
 30
0
 70
128
 71
155
 72
157
 73
143
 74
132
 0
VERTEX
 8
0
 10
0
 20
0.25
 30
0
 70
128
 71
160
 72
123
 73
152
 0
VERTEX
 8
0
 10
0
 20
0.25
 30
0
 70
128
 71
153
 72
134
 73
147
 74
158
 0
VERTEX
 8
0
 10
0
 20
0.25
 30
0
 70
128
 71
100
 72
147
 73
149
 74
91
 0
VERTEX
 8
0
 10
0
 20
0.25
 30
0
 70
128
 71
159
 72
149
 73
136
 74
148
 0
VERTEX
 8
0
 10
0
 20
0.25
 30
0
 70
128
 71
150
 72
152
 73
135
 74
151
 0
VERTEX
 8
0
 10
0
 20
0.25
 30
0
 70
128
 71
159
 72
148
 73
153
 74
158
 0
VERTEX
 8
0
 10
0
 20
0.25
 30
0
 70
128
 71
137
 72
154
 73
151
 74
135
 0
VERTEX
 8
0
 10
0
 20
0.25
 30
0
 70
128
 71
157
 72
155
 73
138
 74
139
 0
VERTEX
 8
0
 10
0
 20
0.25
 30
0
 70
128
 71
139
 72
142
 73
90
 0
VERTEX
 8
0
 10
0
 20
0.25
 30
0
 70
128
 71
160
 72
137
 73
138
 74
155
 0
VERTEX
 8
0
 10
0
 20
0.25
 30
0
 70
128
 71
145
 72
146
 73
142
 74
143
 0
VERTEX
 8
0
 10
0
 20
0.25
 30
0
 70
128
 71
98
 72
145
 73
143
 74
156
 0
VERTEX
 8
0
 10
0
 20
0.25
 30
0
 70
128
 71
146
 72
92
 73
90
 74
142
 0
VERTEX
 8
0
 10
0
 20
0.25
 30
0
 70
128
 71
143
 72
157
 73
156
 0
VERTEX
 8
0
 10
0
 20
0.25
 30
0
 70
128
 71
152
 72
150
 73
161
 74
160
 0
VERTEX
 8
0
 10
0
 20
0.25
 30
0
 70
128
 71
147
 72
100
 73
158
 0
VERTEX
 8
0
 10
0
 20
0.25
 30
0
 70
128
 71
149
 72
159
 73
91
 0
VERTEX
 8
0
 10
0
 20
0.25
 30
0
 70
128
 71
150
 72
151
 73
159
 74
158
 0
VERTEX
 8
0
 10
0
 20
0.25
 30
0
 70
128
 71
151
 72
154
 73
90
 0
VERTEX
 8
0
 10
0
 20
0.25
 30
0
 70
128
 71
154
 72
137
 73
160
 74
161
 0
VERTEX
 8
0
 10
0
 20
0.25
 30
0
 70
128
 71
157
 72
139
 73
154
 74
161
 0
VERTEX
 8
0
 10
0
 20
0.25
 30
0
 70
128
 71
154
 72
139
 73
90
 0
VERTEX
 8
0
 10
0
 20
0.25
 30
0
 70
128
 71
157
 72
161
 73
156
 0
VERTEX
 8
0
 10
0
 20
0.25
 30
0
 70
128
 71
161
 72
150
 73
156
 0
VERTEX
 8
0
 10
0
 20
0.25
 30
0
 70
128
 71
158
 72
100
 73
156
 74
150
 0
VERTEX
 8
0
 10
0
 20
0.25
 30
0
 70
128
 71
91
 72
159
 73
151
 74
90
 0
VERTEX
 8
0
 10
0
 20
0.25
 30
0
 70
128
 71
162
 72
165
 73
164
 74
163
 0
VERTEX
 8
0
 10
0
 20
0.25
 30
0
 70
128
 71
164
 72
165
 73
169
 74
168
 0
VERTEX
 8
0
 10
0
 20
0.25
 30
0
 70
128
 71
162
 72
166
 73
169
 74
165
 0
VERTEX
 8
0
 10
0
 20
0.25
 30
0
 70
128
 71
163
 72
167
 73
170
 74
162
 0
VERTEX
 8
0
 10
0
 20
0.25
 30
0
 70
128
 71
172
 72
163
 73
164
 74
168
 0
VERTEX
 8
0
 10
0
 20
0.25
 30
0
 70
128
 71
172
 72
168
 73
169
 74
166
 0
VERTEX
 8
0
 10
0
 20
0.25
 30
0
 70
128
 71
162
 72
170
 73
176
 74
166
 0
VERTEX
 8
0
 10
0
 20
0.25
 30
0
 70
128
 71
167
 72
174
 73
173
 74
170
 0
VERTEX
 8
0
 10
0
 20
0.25
 30
0
 70
128
 71
167
 72
163
 73
172
 74
171
 0
VERTEX
 8
0
 10
0
 20
0.25
 30
0
 70
128
 71
171
 72
172
 73
166
 74
176
 0
VERTEX
 8
0
 10
0
 20
0.25
 30
0
 70
128
 71
170
 72
173
 73
177
 74
176
 0
VERTEX
 8
0
 10
0
 20
0.25
 30
0
 70
128
 71
179
 72
180
 73
173
 74
174
 0
VERTEX
 8
0
 10
0
 20
0.25
 30
0
 70
128
 71
174
 72
167
 73
171
 74
175
 0
VERTEX
 8
0
 10
0
 20
0.25
 30
0
 70
128
 71
175
 72
171
 73
176
 74
177
 0
VERTEX
 8
0
 10
0
 20
0.25
 30
0
 70
128
 71
184
 72
177
 73
173
 74
180
 0
VERTEX
 8
0
 10
0
 20
0.25
 30
0
 70
128
 71
179
 72
174
 73
175
 74
178
 0
VERTEX
 8
0
 10
0
 20
0.25
 30
0
 70
128
 71
179
 72
181
 73
182
 74
180
 0
VERTEX
 8
0
 10
0
 20
0.25
 30
0
 70
128
 71
177
 72
184
 73
178
 74
175
 0
VERTEX
 8
0
 10
0
 20
0.25
 30
0
 70
128
 71
180
 72
182
 73
185
 74
184
 0
VERTEX
 8
0
 10
0
 20
0.25
 30
0
 70
128
 71
181
 72
179
 73
178
 74
183
 0
VERTEX
 8
0
 10
0
 20
0.25
 30
0
 70
128
 71
190
 72
182
 73
181
 74
379
 0
VERTEX
 8
0
 10
0
 20
0.25
 30
0
 70
128
 71
183
 72
178
 73
184
 74
185
 0
VERTEX
 8
0
 10
0
 20
0.25
 30
0
 70
128
 71
182
 72
188
 73
189
 74
185
 0
VERTEX
 8
0
 10
0
 20
0.25
 30
0
 70
128
 71
183
 72
379
 73
181
 0
VERTEX
 8
0
 10
0
 20
0.25
 30
0
 70
128
 71
186
 72
188
 73
182
 74
190
 0
VERTEX
 8
0
 10
0
 20
0.25
 30
0
 70
128
 71
185
 72
187
 73
183
 0
VERTEX
 8
0
 10
0
 20
0.25
 30
0
 70
128
 71
187
 72
185
 73
189
 74
201
 0
VERTEX
 8
0
 10
0
 20
0.25
 30
0
 70
128
 71
188
 72
195
 73
196
 74
189
 0
VERTEX
 8
0
 10
0
 20
0.25
 30
0
 70
128
 71
183
 72
187
 73
372
 74
379
 0
VERTEX
 8
0
 10
0
 20
0.25
 30
0
 70
128
 71
381
 72
186
 73
190
 74
199
 0
VERTEX
 8
0
 10
0
 20
0.25
 30
0
 70
128
 71
186
 72
191
 73
205
 74
188
 0
VERTEX
 8
0
 10
0
 20
0.25
 30
0
 70
128
 71
200
 72
187
 73
201
 74
192
 0
VERTEX
 8
0
 10
0
 20
0.25
 30
0
 70
128
 71
189
 72
193
 73
201
 0
VERTEX
 8
0
 10
0
 20
0.25
 30
0
 70
128
 71
189
 72
196
 73
204
 74
193
 0
VERTEX
 8
0
 10
0
 20
0.25
 30
0
 70
128
 71
194
 72
196
 73
195
 74
206
 0
VERTEX
 8
0
 10
0
 20
0.25
 30
0
 70
128
 71
195
 72
188
 73
205
 74
197
 0
VERTEX
 8
0
 10
0
 20
0.25
 30
0
 70
128
 71
372
 72
187
 73
203
 0
VERTEX
 8
0
 10
0
 20
0.25
 30
0
 70
128
 71
386
 72
381
 73
199
 74
198
 0
VERTEX
 8
0
 10
0
 20
0.25
 30
0
 70
128
 71
205
 72
191
 73
193
 0
VERTEX
 8
0
 10
0
 20
0.25
 30
0
 70
128
 71
192
 72
209
 73
217
 74
200
 0
VERTEX
 8
0
 10
0
 20
0.25
 30
0
 70
128
 71
208
 72
202
 73
192
 74
201
 0
VERTEX
 8
0
 10
0
 20
0.25
 30
0
 70
128
 71
187
 72
200
 73
212
 74
203
 0
VERTEX
 8
0
 10
0
 20
0.25
 30
0
 70
128
 71
376
 72
201
 73
193
 74
191
 0
VERTEX
 8
0
 10
0
 20
0.25
 30
0
 70
128
 71
197
 72
205
 73
193
 74
204
 0
VERTEX
 8
0
 10
0
 20
0.25
 30
0
 70
128
 71
196
 72
194
 73
231
 74
204
 0
VERTEX
 8
0
 10
0
 20
0.25
 30
0
 70
128
 71
206
 72
214
 73
207
 74
194
 0
VERTEX
 8
0
 10
0
 20
0.25
 30
0
 70
128
 71
232
 72
206
 73
195
 74
197
 0
VERTEX
 8
0
 10
0
 20
0.25
 30
0
 70
128
 71
208
 72
376
 73
372
 74
203
 0
VERTEX
 8
0
 10
0
 20
0.25
 30
0
 70
128
 71
198
 72
385
 73
382
 74
386
 0
VERTEX
 8
0
 10
0
 20
0.25
 30
0
 70
128
 71
235
 72
200
 73
217
 0
VERTEX
 8
0
 10
0
 20
0.25
 30
0
 70
128
 71
209
 72
210
 73
218
 74
217
 0
VERTEX
 8
0
 10
0
 20
0.25
 30
0
 70
128
 71
209
 72
192
 73
211
 0
VERTEX
 8
0
 10
0
 20
0.25
 30
0
 70
128
 71
208
 72
201
 73
376
 0
VERTEX
 8
0
 10
0
 20
0.25
 30
0
 70
128
 71
202
 72
222
 73
223
 74
192
 0
VERTEX
 8
0
 10
0
 20
0.25
 30
0
 70
128
 71
203
 72
212
 73
202
 74
208
 0
VERTEX
 8
0
 10
0
 20
0.25
 30
0
 70
128
 71
228
 72
212
 73
200
 74
255
 0
VERTEX
 8
0
 10
0
 20
0.25
 30
0
 70
128
 71
232
 72
197
 73
204
 74
231
 0
VERTEX
 8
0
 10
0
 20
0.25
 30
0
 70
128
 71
194
 72
207
 73
213
 74
231
 0
VERTEX
 8
0
 10
0
 20
0.25
 30
0
 70
128
 71
214
 72
233
 73
215
 74
207
 0
VERTEX
 8
0
 10
0
 20
0.25
 30
0
 70
128
 71
214
 72
206
 73
232
 74
260
 0
VERTEX
 8
0
 10
0
 20
0.25
 30
0
 70
128
 71
235
 72
217
 73
237
 74
266
 0
VERTEX
 8
0
 10
0
 20
0.25
 30
0
 70
128
 71
235
 72
216
 73
200
 0
VERTEX
 8
0
 10
0
 20
0.25
 30
0
 70
128
 71
217
 72
218
 73
238
 74
237
 0
VERTEX
 8
0
 10
0
 20
0.25
 30
0
 70
128
 71
272
 72
218
 73
210
 74
240
 0
VERTEX
 8
0
 10
0
 20
0.25
 30
0
 70
128
 71
210
 72
209
 73
219
 74
243
 0
VERTEX
 8
0
 10
0
 20
0.25
 30
0
 70
128
 71
209
 72
211
 73
220
 74
219
 0
VERTEX
 8
0
 10
0
 20
0.25
 30
0
 70
128
 71
211
 72
192
 73
244
 0
VERTEX
 8
0
 10
0
 20
0.25
 30
0
 70
128
 71
221
 72
192
 73
223
 0
VERTEX
 8
0
 10
0
 20
0.25
 30
0
 70
128
 71
222
 72
249
 73
247
 74
223
 0
VERTEX
 8
0
 10
0
 20
0.25
 30
0
 70
128
 71
224
 72
222
 73
202
 0
VERTEX
 8
0
 10
0
 20
0.25
 30
0
 70
128
 71
212
 72
226
 73
225
 74
202
 0
VERTEX
 8
0
 10
0
 20
0.25
 30
0
 70
128
 71
227
 72
228
 73
255
 74
256
 0
VERTEX
 8
0
 10
0
 20
0.25
 30
0
 70
128
 71
229
 72
255
 73
200
 0
VERTEX
 8
0
 10
0
 20
0.25
 30
0
 70
128
 71
230
 72
212
 73
228
 0
VERTEX
 8
0
 10
0
 20
0.25
 30
0
 70
128
 71
260
 72
232
 73
231
 74
213
 0
VERTEX
 8
0
 10
0
 20
0.25
 30
0
 70
128
 71
207
 72
215
 73
259
 74
213
 0
VERTEX
 8
0
 10
0
 20
0.25
 30
0
 70
128
 71
215
 72
233
 73
262
 74
263
 0
VERTEX
 8
0
 10
0
 20
0.25
 30
0
 70
128
 71
233
 72
214
 73
260
 74
265
 0
VERTEX
 8
0
 10
0
 20
0.25
 30
0
 70
128
 71
234
 72
235
 73
266
 74
267
 0
VERTEX
 8
0
 10
0
 20
0.25
 30
0
 70
128
 71
237
 72
236
 73
279
 74
266
 0
VERTEX
 8
0
 10
0
 20
0.25
 30
0
 70
128
 71
216
 72
229
 73
200
 0
VERTEX
 8
0
 10
0
 20
0.25
 30
0
 70
128
 71
269
 72
216
 73
235
 74
234
 0
VERTEX
 8
0
 10
0
 20
0.25
 30
0
 70
128
 71
238
 72
243
 73
219
 74
237
 0
VERTEX
 8
0
 10
0
 20
0.25
 30
0
 70
128
 71
218
 72
234
 73
267
 74
238
 0
VERTEX
 8
0
 10
0
 20
0.25
 30
0
 70
128
 71
239
 72
272
 73
240
 74
271
 0
VERTEX
 8
0
 10
0
 20
0.25
 30
0
 70
128
 71
240
 72
210
 73
241
 0
VERTEX
 8
0
 10
0
 20
0.25
 30
0
 70
128
 71
234
 72
218
 73
272
 0
VERTEX
 8
0
 10
0
 20
0.25
 30
0
 70
128
 71
241
 72
210
 73
243
 74
242
 0
VERTEX
 8
0
 10
0
 20
0.25
 30
0
 70
128
 71
220
 72
245
 73
285
 74
219
 0
VERTEX
 8
0
 10
0
 20
0.25
 30
0
 70
128
 71
211
 72
241
 73
242
 74
220
 0
VERTEX
 8
0
 10
0
 20
0.25
 30
0
 70
128
 71
244
 72
273
 73
241
 74
211
 0
VERTEX
 8
0
 10
0
 20
0.25
 30
0
 70
128
 71
244
 72
192
 73
221
 0
VERTEX
 8
0
 10
0
 20
0.25
 30
0
 70
128
 71
245
 72
220
 73
221
 74
223
 0
VERTEX
 8
0
 10
0
 20
0.25
 30
0
 70
128
 71
245
 72
223
 73
247
 74
246
 0
VERTEX
 8
0
 10
0
 20
0.25
 30
0
 70
128
 71
249
 72
248
 73
240
 74
247
 0
VERTEX
 8
0
 10
0
 20
0.25
 30
0
 70
128
 71
276
 72
249
 73
222
 74
251
 0
VERTEX
 8
0
 10
0
 20
0.25
 30
0
 70
128
 71
293
 72
224
 73
202
 0
VERTEX
 8
0
 10
0
 20
0.25
 30
0
 70
128
 71
250
 72
251
 73
222
 74
224
 0
VERTEX
 8
0
 10
0
 20
0.25
 30
0
 70
128
 71
252
 72
202
 73
225
 0
VERTEX
 8
0
 10
0
 20
0.25
 30
0
 70
128
 71
253
 72
278
 73
225
 74
226
 0
VERTEX
 8
0
 10
0
 20
0.25
 30
0
 70
128
 71
254
 72
226
 73
212
 0
VERTEX
 8
0
 10
0
 20
0.25
 30
0
 70
128
 71
287
 72
227
 73
256
 74
272
 0
VERTEX
 8
0
 10
0
 20
0.25
 30
0
 70
128
 71
280
 72
256
 73
255
 74
279
 0
VERTEX
 8
0
 10
0
 20
0.25
 30
0
 70
128
 71
258
 72
228
 73
227
 74
282
 0
VERTEX
 8
0
 10
0
 20
0.25
 30
0
 70
128
 71
255
 72
229
 73
266
 74
279
 0
VERTEX
 8
0
 10
0
 20
0.25
 30
0
 70
128
 71
230
 72
228
 73
258
 74
257
 0
VERTEX
 8
0
 10
0
 20
0.25
 30
0
 70
128
 71
230
 72
301
 73
212
 0
VERTEX
 8
0
 10
0
 20
0.25
 30
0
 70
128
 71
265
 72
260
 73
213
 74
259
 0
VERTEX
 8
0
 10
0
 20
0.25
 30
0
 70
128
 71
215
 72
263
 73
261
 74
259
 0
VERTEX
 8
0
 10
0
 20
0.25
 30
0
 70
128
 71
262
 72
264
 73
261
 74
263
 0
VERTEX
 8
0
 10
0
 20
0.25
 30
0
 70
128
 71
262
 72
233
 73
265
 74
264
 0
VERTEX
 8
0
 10
0
 20
0.25
 30
0
 70
128
 71
266
 72
229
 73
268
 74
267
 0
VERTEX
 8
0
 10
0
 20
0.25
 30
0
 70
128
 71
284
 72
258
 73
279
 74
236
 0
VERTEX
 8
0
 10
0
 20
0.25
 30
0
 70
128
 71
236
 72
237
 73
219
 74
285
 0
VERTEX
 8
0
 10
0
 20
0.25
 30
0
 70
128
 71
216
 72
269
 73
268
 74
229
 0
VERTEX
 8
0
 10
0
 20
0.25
 30
0
 70
128
 71
234
 72
272
 73
269
 0
VERTEX
 8
0
 10
0
 20
0.25
 30
0
 70
128
 71
291
 72
243
 73
238
 74
270
 0
VERTEX
 8
0
 10
0
 20
0.25
 30
0
 70
128
 71
267
 72
280
 73
270
 74
238
 0
VERTEX
 8
0
 10
0
 20
0.25
 30
0
 70
128
 71
306
 72
239
 73
271
 74
308
 0
VERTEX
 8
0
 10
0
 20
0.25
 30
0
 70
128
 71
248
 72
288
 73
271
 74
240
 0
VERTEX
 8
0
 10
0
 20
0.25
 30
0
 70
128
 71
289
 72
287
 73
272
 74
239
 0
VERTEX
 8
0
 10
0
 20
0.25
 30
0
 70
128
 71
240
 72
241
 73
273
 0
VERTEX
 8
0
 10
0
 20
0.25
 30
0
 70
128
 71
243
 72
291
 73
246
 74
242
 0
VERTEX
 8
0
 10
0
 20
0.25
 30
0
 70
128
 71
251
 72
290
 73
285
 74
245
 0
VERTEX
 8
0
 10
0
 20
0.25
 30
0
 70
128
 71
242
 72
274
 73
221
 74
220
 0
VERTEX
 8
0
 10
0
 20
0.25
 30
0
 70
128
 71
273
 72
244
 73
221
 74
274
 0
VERTEX
 8
0
 10
0
 20
0.25
 30
0
 70
128
 71
276
 72
251
 73
245
 74
246
 0
VERTEX
 8
0
 10
0
 20
0.25
 30
0
 70
128
 71
242
 72
246
 73
247
 74
274
 0
VERTEX
 8
0
 10
0
 20
0.25
 30
0
 70
128
 71
247
 72
240
 73
274
 0
VERTEX
 8
0
 10
0
 20
0.25
 30
0
 70
128
 71
275
 72
248
 73
249
 0
VERTEX
 8
0
 10
0
 20
0.25
 30
0
 70
128
 71
276
 72
277
 73
275
 74
249
 0
VERTEX
 8
0
 10
0
 20
0.25
 30
0
 70
128
 71
252
 72
293
 73
202
 0
VERTEX
 8
0
 10
0
 20
0.25
 30
0
 70
128
 71
224
 72
293
 73
294
 74
275
 0
VERTEX
 8
0
 10
0
 20
0.25
 30
0
 70
128
 71
250
 72
224
 73
275
 74
277
 0
VERTEX
 8
0
 10
0
 20
0.25
 30
0
 70
128
 71
251
 72
250
 73
299
 74
290
 0
VERTEX
 8
0
 10
0
 20
0.25
 30
0
 70
128
 71
225
 72
299
 73
250
 74
252
 0
VERTEX
 8
0
 10
0
 20
0.25
 30
0
 70
128
 71
297
 72
253
 73
226
 74
296
 0
VERTEX
 8
0
 10
0
 20
0.25
 30
0
 70
128
 71
299
 72
225
 73
278
 74
298
 0
VERTEX
 8
0
 10
0
 20
0.25
 30
0
 70
128
 71
248
 72
278
 73
253
 74
287
 0
VERTEX
 8
0
 10
0
 20
0.25
 30
0
 70
128
 71
254
 72
212
 73
301
 0
VERTEX
 8
0
 10
0
 20
0.25
 30
0
 70
128
 71
254
 72
257
 73
296
 74
226
 0
VERTEX
 8
0
 10
0
 20
0.25
 30
0
 70
128
 71
268
 72
272
 73
256
 0
VERTEX
 8
0
 10
0
 20
0.25
 30
0
 70
128
 71
283
 72
227
 73
287
 0
VERTEX
 8
0
 10
0
 20
0.25
 30
0
 70
128
 71
258
 72
282
 73
280
 74
279
 0
VERTEX
 8
0
 10
0
 20
0.25
 30
0
 70
128
 71
280
 72
267
 73
268
 74
256
 0
VERTEX
 8
0
 10
0
 20
0.25
 30
0
 70
128
 71
281
 72
282
 73
227
 74
283
 0
VERTEX
 8
0
 10
0
 20
0.25
 30
0
 70
128
 71
281
 72
283
 73
230
 74
257
 0
VERTEX
 8
0
 10
0
 20
0.25
 30
0
 70
128
 71
284
 72
296
 73
257
 74
258
 0
VERTEX
 8
0
 10
0
 20
0.25
 30
0
 70
128
 71
283
 72
300
 73
301
 74
230
 0
VERTEX
 8
0
 10
0
 20
0.25
 30
0
 70
128
 71
261
 72
264
 73
265
 74
259
 0
VERTEX
 8
0
 10
0
 20
0.25
 30
0
 70
128
 71
303
 72
284
 73
236
 74
270
 0
VERTEX
 8
0
 10
0
 20
0.25
 30
0
 70
128
 71
236
 72
285
 73
291
 74
270
 0
VERTEX
 8
0
 10
0
 20
0.25
 30
0
 70
128
 71
269
 72
272
 73
268
 0
VERTEX
 8
0
 10
0
 20
0.25
 30
0
 70
128
 71
282
 72
303
 73
270
 74
280
 0
VERTEX
 8
0
 10
0
 20
0.25
 30
0
 70
128
 71
307
 72
313
 73
306
 74
308
 0
VERTEX
 8
0
 10
0
 20
0.25
 30
0
 70
128
 71
308
 72
271
 73
309
 0
VERTEX
 8
0
 10
0
 20
0.25
 30
0
 70
128
 71
306
 72
286
 73
239
 0
VERTEX
 8
0
 10
0
 20
0.25
 30
0
 70
128
 71
271
 72
288
 73
373
 0
VERTEX
 8
0
 10
0
 20
0.25
 30
0
 70
128
 71
287
 72
289
 73
288
 74
248
 0
VERTEX
 8
0
 10
0
 20
0.25
 30
0
 70
128
 71
239
 72
375
 73
289
 0
VERTEX
 8
0
 10
0
 20
0.25
 30
0
 70
128
 71
273
 72
274
 73
240
 0
VERTEX
 8
0
 10
0
 20
0.25
 30
0
 70
128
 71
292
 72
276
 73
246
 74
291
 0
VERTEX
 8
0
 10
0
 20
0.25
 30
0
 70
128
 71
290
 72
292
 73
291
 74
285
 0
VERTEX
 8
0
 10
0
 20
0.25
 30
0
 70
128
 71
248
 72
275
 73
294
 0
VERTEX
 8
0
 10
0
 20
0.25
 30
0
 70
128
 71
292
 72
298
 73
277
 74
276
 0
VERTEX
 8
0
 10
0
 20
0.25
 30
0
 70
128
 71
295
 72
294
 73
293
 74
252
 0
VERTEX
 8
0
 10
0
 20
0.25
 30
0
 70
128
 71
277
 72
295
 73
252
 74
250
 0
VERTEX
 8
0
 10
0
 20
0.25
 30
0
 70
128
 71
296
 72
284
 73
290
 74
299
 0
VERTEX
 8
0
 10
0
 20
0.25
 30
0
 70
128
 71
296
 72
299
 73
298
 74
297
 0
VERTEX
 8
0
 10
0
 20
0.25
 30
0
 70
128
 71
281
 72
302
 73
253
 74
297
 0
VERTEX
 8
0
 10
0
 20
0.25
 30
0
 70
128
 71
298
 72
278
 73
295
 74
277
 0
VERTEX
 8
0
 10
0
 20
0.25
 30
0
 70
128
 71
302
 72
287
 73
253
 0
VERTEX
 8
0
 10
0
 20
0.25
 30
0
 70
128
 71
278
 72
248
 73
295
 0
VERTEX
 8
0
 10
0
 20
0.25
 30
0
 70
128
 71
254
 72
301
 73
300
 74
302
 0
VERTEX
 8
0
 10
0
 20
0.25
 30
0
 70
128
 71
257
 72
254
 73
302
 74
281
 0
VERTEX
 8
0
 10
0
 20
0.25
 30
0
 70
128
 71
283
 72
287
 73
300
 0
VERTEX
 8
0
 10
0
 20
0.25
 30
0
 70
128
 71
282
 72
281
 73
297
 74
303
 0
VERTEX
 8
0
 10
0
 20
0.25
 30
0
 70
128
 71
303
 72
292
 73
290
 74
284
 0
VERTEX
 8
0
 10
0
 20
0.25
 30
0
 70
128
 71
304
 72
307
 73
308
 74
305
 0
VERTEX
 8
0
 10
0
 20
0.25
 30
0
 70
128
 71
313
 72
310
 73
311
 74
306
 0
VERTEX
 8
0
 10
0
 20
0.25
 30
0
 70
128
 71
313
 72
307
 73
380
 74
374
 0
VERTEX
 8
0
 10
0
 20
0.25
 30
0
 70
128
 71
305
 72
308
 73
309
 74
315
 0
VERTEX
 8
0
 10
0
 20
0.25
 30
0
 70
128
 71
380
 72
309
 73
271
 74
373
 0
VERTEX
 8
0
 10
0
 20
0.25
 30
0
 70
128
 71
239
 72
286
 73
374
 74
375
 0
VERTEX
 8
0
 10
0
 20
0.25
 30
0
 70
128
 71
319
 72
286
 73
306
 74
311
 0
VERTEX
 8
0
 10
0
 20
0.25
 30
0
 70
128
 71
373
 72
288
 73
289
 74
375
 0
VERTEX
 8
0
 10
0
 20
0.25
 30
0
 70
128
 71
295
 72
248
 73
294
 0
VERTEX
 8
0
 10
0
 20
0.25
 30
0
 70
128
 71
298
 72
292
 73
303
 74
297
 0
VERTEX
 8
0
 10
0
 20
0.25
 30
0
 70
128
 71
300
 72
287
 73
302
 0
VERTEX
 8
0
 10
0
 20
0.25
 30
0
 70
128
 71
305
 72
324
 73
326
 74
304
 0
VERTEX
 8
0
 10
0
 20
0.25
 30
0
 70
128
 71
307
 72
304
 73
317
 74
316
 0
VERTEX
 8
0
 10
0
 20
0.25
 30
0
 70
128
 71
321
 72
311
 73
310
 74
320
 0
VERTEX
 8
0
 10
0
 20
0.25
 30
0
 70
128
 71
312
 72
323
 73
310
 74
313
 0
VERTEX
 8
0
 10
0
 20
0.25
 30
0
 70
128
 71
313
 72
374
 73
312
 0
VERTEX
 8
0
 10
0
 20
0.25
 30
0
 70
128
 71
316
 72
380
 73
307
 0
VERTEX
 8
0
 10
0
 20
0.25
 30
0
 70
128
 71
314
 72
324
 73
305
 74
315
 0
VERTEX
 8
0
 10
0
 20
0.25
 30
0
 70
128
 71
316
 72
317
 73
315
 74
309
 0
VERTEX
 8
0
 10
0
 20
0.25
 30
0
 70
128
 71
316
 72
309
 73
380
 0
VERTEX
 8
0
 10
0
 20
0.25
 30
0
 70
128
 71
286
 72
312
 73
374
 0
VERTEX
 8
0
 10
0
 20
0.25
 30
0
 70
128
 71
319
 72
311
 73
321
 74
318
 0
VERTEX
 8
0
 10
0
 20
0.25
 30
0
 70
128
 71
323
 72
312
 73
286
 74
319
 0
VERTEX
 8
0
 10
0
 20
0.25
 30
0
 70
128
 71
330
 72
317
 73
304
 74
326
 0
VERTEX
 8
0
 10
0
 20
0.25
 30
0
 70
128
 71
328
 72
326
 73
324
 74
327
 0
VERTEX
 8
0
 10
0
 20
0.25
 30
0
 70
128
 71
320
 72
329
 73
322
 74
321
 0
VERTEX
 8
0
 10
0
 20
0.25
 30
0
 70
128
 71
323
 72
334
 73
320
 74
310
 0
VERTEX
 8
0
 10
0
 20
0.25
 30
0
 70
128
 71
317
 72
330
 73
314
 74
315
 0
VERTEX
 8
0
 10
0
 20
0.25
 30
0
 70
128
 71
327
 72
324
 73
314
 74
332
 0
VERTEX
 8
0
 10
0
 20
0.25
 30
0
 70
128
 71
334
 72
323
 73
319
 74
318
 0
VERTEX
 8
0
 10
0
 20
0.25
 30
0
 70
128
 71
325
 72
318
 73
321
 74
322
 0
VERTEX
 8
0
 10
0
 20
0.25
 30
0
 70
128
 71
326
 72
328
 73
336
 74
330
 0
VERTEX
 8
0
 10
0
 20
0.25
 30
0
 70
128
 71
337
 72
328
 73
327
 74
331
 0
VERTEX
 8
0
 10
0
 20
0.25
 30
0
 70
128
 71
329
 72
340
 73
339
 74
322
 0
VERTEX
 8
0
 10
0
 20
0.25
 30
0
 70
128
 71
334
 72
333
 73
329
 74
320
 0
VERTEX
 8
0
 10
0
 20
0.25
 30
0
 70
128
 71
330
 72
336
 73
332
 74
314
 0
VERTEX
 8
0
 10
0
 20
0.25
 30
0
 70
128
 71
331
 72
327
 73
332
 74
341
 0
VERTEX
 8
0
 10
0
 20
0.25
 30
0
 70
128
 71
333
 72
334
 73
318
 74
325
 0
VERTEX
 8
0
 10
0
 20
0.25
 30
0
 70
128
 71
335
 72
325
 73
322
 74
339
 0
VERTEX
 8
0
 10
0
 20
0.25
 30
0
 70
128
 71
328
 72
337
 73
344
 74
336
 0
VERTEX
 8
0
 10
0
 20
0.25
 30
0
 70
128
 71
338
 72
346
 73
337
 74
331
 0
VERTEX
 8
0
 10
0
 20
0.25
 30
0
 70
128
 71
339
 72
340
 73
348
 74
343
 0
VERTEX
 8
0
 10
0
 20
0.25
 30
0
 70
128
 71
333
 72
350
 73
340
 74
329
 0
VERTEX
 8
0
 10
0
 20
0.25
 30
0
 70
128
 71
336
 72
344
 73
341
 74
332
 0
VERTEX
 8
0
 10
0
 20
0.25
 30
0
 70
128
 71
338
 72
331
 73
341
 74
345
 0
VERTEX
 8
0
 10
0
 20
0.25
 30
0
 70
128
 71
350
 72
333
 73
325
 74
335
 0
VERTEX
 8
0
 10
0
 20
0.25
 30
0
 70
128
 71
342
 72
335
 73
339
 74
343
 0
VERTEX
 8
0
 10
0
 20
0.25
 30
0
 70
128
 71
337
 72
346
 73
349
 74
344
 0
VERTEX
 8
0
 10
0
 20
0.25
 30
0
 70
128
 71
349
 72
346
 73
338
 74
345
 0
VERTEX
 8
0
 10
0
 20
0.25
 30
0
 70
128
 71
348
 72
347
 73
342
 74
343
 0
VERTEX
 8
0
 10
0
 20
0.25
 30
0
 70
128
 71
350
 72
347
 73
348
 74
340
 0
VERTEX
 8
0
 10
0
 20
0.25
 30
0
 70
128
 71
341
 72
344
 73
349
 74
345
 0
VERTEX
 8
0
 10
0
 20
0.25
 30
0
 70
128
 71
342
 72
347
 73
350
 74
335
 0
VERTEX
 8
0
 10
0
 20
0.25
 30
0
 70
128
 71
371
 72
370
 73
366
 74
351
 0
VERTEX
 8
0
 10
0
 20
0.25
 30
0
 70
128
 71
351
 72
352
 73
354
 74
371
 0
VERTEX
 8
0
 10
0
 20
0.25
 30
0
 70
128
 71
353
 72
371
 73
354
 0
VERTEX
 8
0
 10
0
 20
0.25
 30
0
 70
128
 71
354
 72
352
 73
360
 74
362
 0
VERTEX
 8
0
 10
0
 20
0.25
 30
0
 70
128
 71
357
 72
352
 73
351
 0
VERTEX
 8
0
 10
0
 20
0.25
 30
0
 70
128
 71
356
 72
94
 73
360
 74
352
 0
VERTEX
 8
0
 10
0
 20
0.25
 30
0
 70
128
 71
82
 72
357
 73
351
 74
355
 0
VERTEX
 8
0
 10
0
 20
0.25
 30
0
 70
128
 71
352
 72
357
 73
82
 74
356
 0
VERTEX
 8
0
 10
0
 20
0.25
 30
0
 70
128
 71
94
 72
102
 73
361
 74
360
 0
VERTEX
 8
0
 10
0
 20
0.25
 30
0
 70
128
 71
363
 72
362
 73
360
 74
361
 0
VERTEX
 8
0
 10
0
 20
0.25
 30
0
 70
128
 71
361
 72
364
 73
365
 74
363
 0
VERTEX
 8
0
 10
0
 20
0.25
 30
0
 70
128
 71
19
 72
11
 73
362
 74
363
 0
VERTEX
 8
0
 10
0
 20
0.25
 30
0
 70
128
 71
368
 72
364
 73
104
 74
107
 0
VERTEX
 8
0
 10
0
 20
0.25
 30
0
 70
128
 71
364
 72
366
 73
370
 74
365
 0
VERTEX
 8
0
 10
0
 20
0.25
 30
0
 70
128
 71
366
 72
368
 73
107
 74
367
 0
VERTEX
 8
0
 10
0
 20
0.25
 30
0
 70
128
 71
368
 72
366
 73
364
 0
VERTEX
 8
0
 10
0
 20
0.25
 30
0
 70
128
 71
369
 72
365
 73
370
 0
VERTEX
 8
0
 10
0
 20
0.25
 30
0
 70
128
 71
355
 72
351
 73
366
 74
367
 0
VERTEX
 8
0
 10
0
 20
0.25
 30
0
 70
128
 71
372
 72
376
 73
373
 74
375
 0
VERTEX
 8
0
 10
0
 20
0.25
 30
0
 70
128
 71
379
 72
372
 73
375
 74
374
 0
VERTEX
 8
0
 10
0
 20
0.25
 30
0
 70
128
 71
380
 72
373
 73
376
 74
191
 0
VERTEX
 8
0
 10
0
 20
0.25
 30
0
 70
128
 71
378
 72
379
 73
374
 0
VERTEX
 8
0
 10
0
 20
0.25
 30
0
 70
128
 71
380
 72
191
 73
377
 0
VERTEX
 8
0
 10
0
 20
0.25
 30
0
 70
128
 71
374
 72
384
 73
378
 0
VERTEX
 8
0
 10
0
 20
0.25
 30
0
 70
128
 71
190
 72
379
 73
378
 74
384
 0
VERTEX
 8
0
 10
0
 20
0.25
 30
0
 70
128
 71
377
 72
383
 73
380
 0
VERTEX
 8
0
 10
0
 20
0.25
 30
0
 70
128
 71
191
 72
186
 73
383
 74
377
 0
VERTEX
 8
0
 10
0
 20
0.25
 30
0
 70
128
 71
380
 72
383
 73
384
 74
374
 0
VERTEX
 8
0
 10
0
 20
0.25
 30
0
 70
128
 71
199
 72
190
 73
384
 74
198
 0
VERTEX
 8
0
 10
0
 20
0.25
 30
0
 70
128
 71
186
 72
381
 73
386
 74
383
 0
VERTEX
 8
0
 10
0
 20
0.25
 30
0
 70
128
 71
382
 72
385
 73
384
 74
383
 0
VERTEX
 8
0
 10
0
 20
0.25
 30
0
 70
128
 71
385
 72
198
 73
384
 0
VERTEX
 8
0
 10
0
 20
0.25
 30
0
 70
128
 71
382
 72
383
 73
386
 0
VERTEX
 8
0
 10
0
 20
0.25
 30
0
 70
128
 71
387
 72
390
 73
389
 74
388
 0
VERTEX
 8
0
 10
0
 20
0.25
 30
0
 70
128
 71
389
 72
390
 73
394
 74
393
 0
VERTEX
 8
0
 10
0
 20
0.25
 30
0
 70
128
 71
387
 72
391
 73
394
 74
390
 0
VERTEX
 8
0
 10
0
 20
0.25
 30
0
 70
128
 71
388
 72
392
 73
395
 74
387
 0
VERTEX
 8
0
 10
0
 20
0.25
 30
0
 70
128
 71
397
 72
388
 73
389
 74
393
 0
VERTEX
 8
0
 10
0
 20
0.25
 30
0
 70
128
 71
397
 72
393
 73
394
 74
391
 0
VERTEX
 8
0
 10
0
 20
0.25
 30
0
 70
128
 71
387
 72
395
 73
401
 74
391
 0
VERTEX
 8
0
 10
0
 20
0.25
 30
0
 70
128
 71
392
 72
399
 73
398
 74
395
 0
VERTEX
 8
0
 10
0
 20
0.25
 30
0
 70
128
 71
392
 72
388
 73
397
 74
396
 0
VERTEX
 8
0
 10
0
 20
0.25
 30
0
 70
128
 71
396
 72
397
 73
391
 74
401
 0
VERTEX
 8
0
 10
0
 20
0.25
 30
0
 70
128
 71
395
 72
398
 73
402
 74
401
 0
VERTEX
 8
0
 10
0
 20
0.25
 30
0
 70
128
 71
404
 72
405
 73
398
 74
399
 0
VERTEX
 8
0
 10
0
 20
0.25
 30
0
 70
128
 71
399
 72
392
 73
396
 74
400
 0
VERTEX
 8
0
 10
0
 20
0.25
 30
0
 70
128
 71
400
 72
396
 73
401
 74
402
 0
VERTEX
 8
0
 10
0
 20
0.25
 30
0
 70
128
 71
409
 72
402
 73
398
 74
405
 0
VERTEX
 8
0
 10
0
 20
0.25
 30
0
 70
128
 71
404
 72
399
 73
400
 74
403
 0
VERTEX
 8
0
 10
0
 20
0.25
 30
0
 70
128
 71
404
 72
406
 73
407
 74
405
 0
VERTEX
 8
0
 10
0
 20
0.25
 30
0
 70
128
 71
402
 72
409
 73
403
 74
400
 0
VERTEX
 8
0
 10
0
 20
0.25
 30
0
 70
128
 71
405
 72
407
 73
410
 74
409
 0
VERTEX
 8
0
 10
0
 20
0.25
 30
0
 70
128
 71
406
 72
404
 73
403
 74
408
 0
VERTEX
 8
0
 10
0
 20
0.25
 30
0
 70
128
 71
415
 72
407
 73
406
 74
583
 0
VERTEX
 8
0
 10
0
 20
0.25
 30
0
 70
128
 71
408
 72
403
 73
409
 74
410
 0
VERTEX
 8
0
 10
0
 20
0.25
 30
0
 70
128
 71
407
 72
413
 73
414
 74
410
 0
VERTEX
 8
0
 10
0
 20
0.25
 30
0
 70
128
 71
408
 72
583
 73
406
 0
VERTEX
 8
0
 10
0
 20
0.25
 30
0
 70
128
 71
411
 72
413
 73
407
 74
415
 0
VERTEX
 8
0
 10
0
 20
0.25
 30
0
 70
128
 71
410
 72
412
 73
408
 0
VERTEX
 8
0
 10
0
 20
0.25
 30
0
 70
128
 71
412
 72
410
 73
414
 74
426
 0
VERTEX
 8
0
 10
0
 20
0.25
 30
0
 70
128
 71
413
 72
420
 73
421
 74
414
 0
VERTEX
 8
0
 10
0
 20
0.25
 30
0
 70
128
 71
408
 72
412
 73
576
 74
583
 0
VERTEX
 8
0
 10
0
 20
0.25
 30
0
 70
128
 71
585
 72
411
 73
415
 74
424
 0
VERTEX
 8
0
 10
0
 20
0.25
 30
0
 70
128
 71
411
 72
416
 73
430
 74
413
 0
VERTEX
 8
0
 10
0
 20
0.25
 30
0
 70
128
 71
425
 72
412
 73
426
 74
417
 0
VERTEX
 8
0
 10
0
 20
0.25
 30
0
 70
128
 71
414
 72
418
 73
426
 0
VERTEX
 8
0
 10
0
 20
0.25
 30
0
 70
128
 71
414
 72
421
 73
429
 74
418
 0
VERTEX
 8
0
 10
0
 20
0.25
 30
0
 70
128
 71
419
 72
421
 73
420
 74
431
 0
VERTEX
 8
0
 10
0
 20
0.25
 30
0
 70
128
 71
420
 72
413
 73
430
 74
422
 0
VERTEX
 8
0
 10
0
 20
0.25
 30
0
 70
128
 71
576
 72
412
 73
428
 0
VERTEX
 8
0
 10
0
 20
0.25
 30
0
 70
128
 71
590
 72
585
 73
424
 74
423
 0
VERTEX
 8
0
 10
0
 20
0.25
 30
0
 70
128
 71
430
 72
416
 73
418
 0
VERTEX
 8
0
 10
0
 20
0.25
 30
0
 70
128
 71
417
 72
434
 73
442
 74
425
 0
VERTEX
 8
0
 10
0
 20
0.25
 30
0
 70
128
 71
433
 72
427
 73
417
 74
426
 0
VERTEX
 8
0
 10
0
 20
0.25
 30
0
 70
128
 71
412
 72
425
 73
437
 74
428
 0
VERTEX
 8
0
 10
0
 20
0.25
 30
0
 70
128
 71
580
 72
426
 73
418
 74
416
 0
VERTEX
 8
0
 10
0
 20
0.25
 30
0
 70
128
 71
422
 72
430
 73
418
 74
429
 0
VERTEX
 8
0
 10
0
 20
0.25
 30
0
 70
128
 71
421
 72
419
 73
456
 74
429
 0
VERTEX
 8
0
 10
0
 20
0.25
 30
0
 70
128
 71
431
 72
439
 73
432
 74
419
 0
VERTEX
 8
0
 10
0
 20
0.25
 30
0
 70
128
 71
457
 72
431
 73
420
 74
422
 0
VERTEX
 8
0
 10
0
 20
0.25
 30
0
 70
128
 71
433
 72
580
 73
576
 74
428
 0
VERTEX
 8
0
 10
0
 20
0.25
 30
0
 70
128
 71
423
 72
589
 73
586
 74
590
 0
VERTEX
 8
0
 10
0
 20
0.25
 30
0
 70
128
 71
460
 72
425
 73
442
 0
VERTEX
 8
0
 10
0
 20
0.25
 30
0
 70
128
 71
434
 72
435
 73
443
 74
442
 0
VERTEX
 8
0
 10
0
 20
0.25
 30
0
 70
128
 71
434
 72
417
 73
436
 0
VERTEX
 8
0
 10
0
 20
0.25
 30
0
 70
128
 71
433
 72
426
 73
580
 0
VERTEX
 8
0
 10
0
 20
0.25
 30
0
 70
128
 71
427
 72
447
 73
448
 74
417
 0
VERTEX
 8
0
 10
0
 20
0.25
 30
0
 70
128
 71
428
 72
437
 73
427
 74
433
 0
VERTEX
 8
0
 10
0
 20
0.25
 30
0
 70
128
 71
453
 72
437
 73
425
 74
480
 0
VERTEX
 8
0
 10
0
 20
0.25
 30
0
 70
128
 71
457
 72
422
 73
429
 74
456
 0
VERTEX
 8
0
 10
0
 20
0.25
 30
0
 70
128
 71
419
 72
432
 73
438
 74
456
 0
VERTEX
 8
0
 10
0
 20
0.25
 30
0
 70
128
 71
439
 72
458
 73
440
 74
432
 0
VERTEX
 8
0
 10
0
 20
0.25
 30
0
 70
128
 71
439
 72
431
 73
457
 74
485
 0
VERTEX
 8
0
 10
0
 20
0.25
 30
0
 70
128
 71
460
 72
442
 73
462
 74
491
 0
VERTEX
 8
0
 10
0
 20
0.25
 30
0
 70
128
 71
460
 72
441
 73
425
 0
VERTEX
 8
0
 10
0
 20
0.25
 30
0
 70
128
 71
442
 72
443
 73
463
 74
462
 0
VERTEX
 8
0
 10
0
 20
0.25
 30
0
 70
128
 71
497
 72
443
 73
435
 74
465
 0
VERTEX
 8
0
 10
0
 20
0.25
 30
0
 70
128
 71
435
 72
434
 73
444
 74
468
 0
VERTEX
 8
0
 10
0
 20
0.25
 30
0
 70
128
 71
434
 72
436
 73
445
 74
444
 0
VERTEX
 8
0
 10
0
 20
0.25
 30
0
 70
128
 71
436
 72
417
 73
469
 0
VERTEX
 8
0
 10
0
 20
0.25
 30
0
 70
128
 71
446
 72
417
 73
448
 0
VERTEX
 8
0
 10
0
 20
0.25
 30
0
 70
128
 71
447
 72
474
 73
472
 74
448
 0
VERTEX
 8
0
 10
0
 20
0.25
 30
0
 70
128
 71
449
 72
447
 73
427
 0
VERTEX
 8
0
 10
0
 20
0.25
 30
0
 70
128
 71
437
 72
451
 73
450
 74
427
 0
VERTEX
 8
0
 10
0
 20
0.25
 30
0
 70
128
 71
452
 72
453
 73
480
 74
481
 0
VERTEX
 8
0
 10
0
 20
0.25
 30
0
 70
128
 71
454
 72
480
 73
425
 0
VERTEX
 8
0
 10
0
 20
0.25
 30
0
 70
128
 71
455
 72
437
 73
453
 0
VERTEX
 8
0
 10
0
 20
0.25
 30
0
 70
128
 71
485
 72
457
 73
456
 74
438
 0
VERTEX
 8
0
 10
0
 20
0.25
 30
0
 70
128
 71
432
 72
440
 73
484
 74
438
 0
VERTEX
 8
0
 10
0
 20
0.25
 30
0
 70
128
 71
440
 72
458
 73
487
 74
488
 0
VERTEX
 8
0
 10
0
 20
0.25
 30
0
 70
128
 71
458
 72
439
 73
485
 74
490
 0
VERTEX
 8
0
 10
0
 20
0.25
 30
0
 70
128
 71
459
 72
460
 73
491
 74
492
 0
VERTEX
 8
0
 10
0
 20
0.25
 30
0
 70
128
 71
462
 72
461
 73
504
 74
491
 0
VERTEX
 8
0
 10
0
 20
0.25
 30
0
 70
128
 71
441
 72
454
 73
425
 0
VERTEX
 8
0
 10
0
 20
0.25
 30
0
 70
128
 71
494
 72
441
 73
460
 74
459
 0
VERTEX
 8
0
 10
0
 20
0.25
 30
0
 70
128
 71
463
 72
468
 73
444
 74
462
 0
VERTEX
 8
0
 10
0
 20
0.25
 30
0
 70
128
 71
443
 72
459
 73
492
 74
463
 0
VERTEX
 8
0
 10
0
 20
0.25
 30
0
 70
128
 71
464
 72
497
 73
465
 74
496
 0
VERTEX
 8
0
 10
0
 20
0.25
 30
0
 70
128
 71
465
 72
435
 73
466
 0
VERTEX
 8
0
 10
0
 20
0.25
 30
0
 70
128
 71
459
 72
443
 73
497
 0
VERTEX
 8
0
 10
0
 20
0.25
 30
0
 70
128
 71
466
 72
435
 73
468
 74
467
 0
VERTEX
 8
0
 10
0
 20
0.25
 30
0
 70
128
 71
445
 72
470
 73
510
 74
444
 0
VERTEX
 8
0
 10
0
 20
0.25
 30
0
 70
128
 71
436
 72
466
 73
467
 74
445
 0
VERTEX
 8
0
 10
0
 20
0.25
 30
0
 70
128
 71
469
 72
498
 73
466
 74
436
 0
VERTEX
 8
0
 10
0
 20
0.25
 30
0
 70
128
 71
469
 72
417
 73
446
 0
VERTEX
 8
0
 10
0
 20
0.25
 30
0
 70
128
 71
470
 72
445
 73
446
 74
448
 0
VERTEX
 8
0
 10
0
 20
0.25
 30
0
 70
128
 71
470
 72
448
 73
472
 74
471
 0
VERTEX
 8
0
 10
0
 20
0.25
 30
0
 70
128
 71
474
 72
473
 73
465
 74
472
 0
VERTEX
 8
0
 10
0
 20
0.25
 30
0
 70
128
 71
501
 72
474
 73
447
 74
476
 0
VERTEX
 8
0
 10
0
 20
0.25
 30
0
 70
128
 71
518
 72
449
 73
427
 0
VERTEX
 8
0
 10
0
 20
0.25
 30
0
 70
128
 71
475
 72
476
 73
447
 74
449
 0
VERTEX
 8
0
 10
0
 20
0.25
 30
0
 70
128
 71
477
 72
427
 73
450
 0
VERTEX
 8
0
 10
0
 20
0.25
 30
0
 70
128
 71
478
 72
503
 73
450
 74
451
 0
VERTEX
 8
0
 10
0
 20
0.25
 30
0
 70
128
 71
479
 72
451
 73
437
 0
VERTEX
 8
0
 10
0
 20
0.25
 30
0
 70
128
 71
512
 72
452
 73
481
 74
497
 0
VERTEX
 8
0
 10
0
 20
0.25
 30
0
 70
128
 71
505
 72
481
 73
480
 74
504
 0
VERTEX
 8
0
 10
0
 20
0.25
 30
0
 70
128
 71
483
 72
453
 73
452
 74
507
 0
VERTEX
 8
0
 10
0
 20
0.25
 30
0
 70
128
 71
480
 72
454
 73
491
 74
504
 0
VERTEX
 8
0
 10
0
 20
0.25
 30
0
 70
128
 71
455
 72
453
 73
483
 74
482
 0
VERTEX
 8
0
 10
0
 20
0.25
 30
0
 70
128
 71
455
 72
526
 73
437
 0
VERTEX
 8
0
 10
0
 20
0.25
 30
0
 70
128
 71
490
 72
485
 73
438
 74
484
 0
VERTEX
 8
0
 10
0
 20
0.25
 30
0
 70
128
 71
440
 72
488
 73
486
 74
484
 0
VERTEX
 8
0
 10
0
 20
0.25
 30
0
 70
128
 71
487
 72
489
 73
486
 74
488
 0
VERTEX
 8
0
 10
0
 20
0.25
 30
0
 70
128
 71
487
 72
458
 73
490
 74
489
 0
VERTEX
 8
0
 10
0
 20
0.25
 30
0
 70
128
 71
491
 72
454
 73
493
 74
492
 0
VERTEX
 8
0
 10
0
 20
0.25
 30
0
 70
128
 71
509
 72
483
 73
504
 74
461
 0
VERTEX
 8
0
 10
0
 20
0.25
 30
0
 70
128
 71
461
 72
462
 73
444
 74
510
 0
VERTEX
 8
0
 10
0
 20
0.25
 30
0
 70
128
 71
441
 72
494
 73
493
 74
454
 0
VERTEX
 8
0
 10
0
 20
0.25
 30
0
 70
128
 71
459
 72
497
 73
494
 0
VERTEX
 8
0
 10
0
 20
0.25
 30
0
 70
128
 71
516
 72
468
 73
463
 74
495
 0
VERTEX
 8
0
 10
0
 20
0.25
 30
0
 70
128
 71
492
 72
505
 73
495
 74
463
 0
VERTEX
 8
0
 10
0
 20
0.25
 30
0
 70
128
 71
531
 72
464
 73
496
 74
533
 0
VERTEX
 8
0
 10
0
 20
0.25
 30
0
 70
128
 71
473
 72
513
 73
496
 74
465
 0
VERTEX
 8
0
 10
0
 20
0.25
 30
0
 70
128
 71
514
 72
512
 73
497
 74
464
 0
VERTEX
 8
0
 10
0
 20
0.25
 30
0
 70
128
 71
465
 72
466
 73
498
 0
VERTEX
 8
0
 10
0
 20
0.25
 30
0
 70
128
 71
468
 72
516
 73
471
 74
467
 0
VERTEX
 8
0
 10
0
 20
0.25
 30
0
 70
128
 71
476
 72
515
 73
510
 74
470
 0
VERTEX
 8
0
 10
0
 20
0.25
 30
0
 70
128
 71
467
 72
499
 73
446
 74
445
 0
VERTEX
 8
0
 10
0
 20
0.25
 30
0
 70
128
 71
498
 72
469
 73
446
 74
499
 0
VERTEX
 8
0
 10
0
 20
0.25
 30
0
 70
128
 71
501
 72
476
 73
470
 74
471
 0
VERTEX
 8
0
 10
0
 20
0.25
 30
0
 70
128
 71
467
 72
471
 73
472
 74
499
 0
VERTEX
 8
0
 10
0
 20
0.25
 30
0
 70
128
 71
472
 72
465
 73
499
 0
VERTEX
 8
0
 10
0
 20
0.25
 30
0
 70
128
 71
500
 72
473
 73
474
 0
VERTEX
 8
0
 10
0
 20
0.25
 30
0
 70
128
 71
501
 72
502
 73
500
 74
474
 0
VERTEX
 8
0
 10
0
 20
0.25
 30
0
 70
128
 71
477
 72
518
 73
427
 0
VERTEX
 8
0
 10
0
 20
0.25
 30
0
 70
128
 71
449
 72
518
 73
519
 74
500
 0
VERTEX
 8
0
 10
0
 20
0.25
 30
0
 70
128
 71
475
 72
449
 73
500
 74
502
 0
VERTEX
 8
0
 10
0
 20
0.25
 30
0
 70
128
 71
476
 72
475
 73
524
 74
515
 0
VERTEX
 8
0
 10
0
 20
0.25
 30
0
 70
128
 71
450
 72
524
 73
475
 74
477
 0
VERTEX
 8
0
 10
0
 20
0.25
 30
0
 70
128
 71
522
 72
478
 73
451
 74
521
 0
VERTEX
 8
0
 10
0
 20
0.25
 30
0
 70
128
 71
524
 72
450
 73
503
 74
523
 0
VERTEX
 8
0
 10
0
 20
0.25
 30
0
 70
128
 71
473
 72
503
 73
478
 74
512
 0
VERTEX
 8
0
 10
0
 20
0.25
 30
0
 70
128
 71
479
 72
437
 73
526
 0
VERTEX
 8
0
 10
0
 20
0.25
 30
0
 70
128
 71
479
 72
482
 73
521
 74
451
 0
VERTEX
 8
0
 10
0
 20
0.25
 30
0
 70
128
 71
493
 72
497
 73
481
 0
VERTEX
 8
0
 10
0
 20
0.25
 30
0
 70
128
 71
508
 72
452
 73
512
 0
VERTEX
 8
0
 10
0
 20
0.25
 30
0
 70
128
 71
483
 72
507
 73
505
 74
504
 0
VERTEX
 8
0
 10
0
 20
0.25
 30
0
 70
128
 71
505
 72
492
 73
493
 74
481
 0
VERTEX
 8
0
 10
0
 20
0.25
 30
0
 70
128
 71
506
 72
507
 73
452
 74
508
 0
VERTEX
 8
0
 10
0
 20
0.25
 30
0
 70
128
 71
506
 72
508
 73
455
 74
482
 0
VERTEX
 8
0
 10
0
 20
0.25
 30
0
 70
128
 71
509
 72
521
 73
482
 74
483
 0
VERTEX
 8
0
 10
0
 20
0.25
 30
0
 70
128
 71
508
 72
525
 73
526
 74
455
 0
VERTEX
 8
0
 10
0
 20
0.25
 30
0
 70
128
 71
486
 72
489
 73
490
 74
484
 0
VERTEX
 8
0
 10
0
 20
0.25
 30
0
 70
128
 71
528
 72
509
 73
461
 74
495
 0
VERTEX
 8
0
 10
0
 20
0.25
 30
0
 70
128
 71
461
 72
510
 73
516
 74
495
 0
VERTEX
 8
0
 10
0
 20
0.25
 30
0
 70
128
 71
494
 72
497
 73
493
 0
VERTEX
 8
0
 10
0
 20
0.25
 30
0
 70
128
 71
507
 72
528
 73
495
 74
505
 0
VERTEX
 8
0
 10
0
 20
0.25
 30
0
 70
128
 71
532
 72
538
 73
531
 74
533
 0
VERTEX
 8
0
 10
0
 20
0.25
 30
0
 70
128
 71
533
 72
496
 73
534
 0
VERTEX
 8
0
 10
0
 20
0.25
 30
0
 70
128
 71
531
 72
511
 73
464
 0
VERTEX
 8
0
 10
0
 20
0.25
 30
0
 70
128
 71
496
 72
513
 73
577
 0
VERTEX
 8
0
 10
0
 20
0.25
 30
0
 70
128
 71
512
 72
514
 73
513
 74
473
 0
VERTEX
 8
0
 10
0
 20
0.25
 30
0
 70
128
 71
464
 72
579
 73
514
 0
VERTEX
 8
0
 10
0
 20
0.25
 30
0
 70
128
 71
498
 72
499
 73
465
 0
VERTEX
 8
0
 10
0
 20
0.25
 30
0
 70
128
 71
517
 72
501
 73
471
 74
516
 0
VERTEX
 8
0
 10
0
 20
0.25
 30
0
 70
128
 71
515
 72
517
 73
516
 74
510
 0
VERTEX
 8
0
 10
0
 20
0.25
 30
0
 70
128
 71
473
 72
500
 73
519
 0
VERTEX
 8
0
 10
0
 20
0.25
 30
0
 70
128
 71
517
 72
523
 73
502
 74
501
 0
VERTEX
 8
0
 10
0
 20
0.25
 30
0
 70
128
 71
520
 72
519
 73
518
 74
477
 0
VERTEX
 8
0
 10
0
 20
0.25
 30
0
 70
128
 71
502
 72
520
 73
477
 74
475
 0
VERTEX
 8
0
 10
0
 20
0.25
 30
0
 70
128
 71
521
 72
509
 73
515
 74
524
 0
VERTEX
 8
0
 10
0
 20
0.25
 30
0
 70
128
 71
521
 72
524
 73
523
 74
522
 0
VERTEX
 8
0
 10
0
 20
0.25
 30
0
 70
128
 71
506
 72
527
 73
478
 74
522
 0
VERTEX
 8
0
 10
0
 20
0.25
 30
0
 70
128
 71
523
 72
503
 73
520
 74
502
 0
VERTEX
 8
0
 10
0
 20
0.25
 30
0
 70
128
 71
527
 72
512
 73
478
 0
VERTEX
 8
0
 10
0
 20
0.25
 30
0
 70
128
 71
503
 72
473
 73
520
 0
VERTEX
 8
0
 10
0
 20
0.25
 30
0
 70
128
 71
479
 72
526
 73
525
 74
527
 0
VERTEX
 8
0
 10
0
 20
0.25
 30
0
 70
128
 71
482
 72
479
 73
527
 74
506
 0
VERTEX
 8
0
 10
0
 20
0.25
 30
0
 70
128
 71
508
 72
512
 73
525
 0
VERTEX
 8
0
 10
0
 20
0.25
 30
0
 70
128
 71
507
 72
506
 73
522
 74
528
 0
VERTEX
 8
0
 10
0
 20
0.25
 30
0
 70
128
 71
528
 72
517
 73
515
 74
509
 0
VERTEX
 8
0
 10
0
 20
0.25
 30
0
 70
128
 71
529
 72
532
 73
533
 74
530
 0
VERTEX
 8
0
 10
0
 20
0.25
 30
0
 70
128
 71
538
 72
535
 73
536
 74
531
 0
VERTEX
 8
0
 10
0
 20
0.25
 30
0
 70
128
 71
538
 72
532
 73
584
 74
578
 0
VERTEX
 8
0
 10
0
 20
0.25
 30
0
 70
128
 71
530
 72
533
 73
534
 74
540
 0
VERTEX
 8
0
 10
0
 20
0.25
 30
0
 70
128
 71
584
 72
534
 73
496
 74
577
 0
VERTEX
 8
0
 10
0
 20
0.25
 30
0
 70
128
 71
464
 72
511
 73
578
 74
579
 0
VERTEX
 8
0
 10
0
 20
0.25
 30
0
 70
128
 71
544
 72
511
 73
531
 74
536
 0
VERTEX
 8
0
 10
0
 20
0.25
 30
0
 70
128
 71
577
 72
513
 73
514
 74
579
 0
VERTEX
 8
0
 10
0
 20
0.25
 30
0
 70
128
 71
520
 72
473
 73
519
 0
VERTEX
 8
0
 10
0
 20
0.25
 30
0
 70
128
 71
523
 72
517
 73
528
 74
522
 0
VERTEX
 8
0
 10
0
 20
0.25
 30
0
 70
128
 71
525
 72
512
 73
527
 0
VERTEX
 8
0
 10
0
 20
0.25
 30
0
 70
128
 71
530
 72
549
 73
551
 74
529
 0
VERTEX
 8
0
 10
0
 20
0.25
 30
0
 70
128
 71
532
 72
529
 73
542
 74
541
 0
VERTEX
 8
0
 10
0
 20
0.25
 30
0
 70
128
 71
546
 72
536
 73
535
 74
545
 0
VERTEX
 8
0
 10
0
 20
0.25
 30
0
 70
128
 71
537
 72
548
 73
535
 74
538
 0
VERTEX
 8
0
 10
0
 20
0.25
 30
0
 70
128
 71
538
 72
578
 73
537
 0
VERTEX
 8
0
 10
0
 20
0.25
 30
0
 70
128
 71
541
 72
584
 73
532
 0
VERTEX
 8
0
 10
0
 20
0.25
 30
0
 70
128
 71
539
 72
549
 73
530
 74
540
 0
VERTEX
 8
0
 10
0
 20
0.25
 30
0
 70
128
 71
541
 72
542
 73
540
 74
534
 0
VERTEX
 8
0
 10
0
 20
0.25
 30
0
 70
128
 71
541
 72
534
 73
584
 0
VERTEX
 8
0
 10
0
 20
0.25
 30
0
 70
128
 71
511
 72
537
 73
578
 0
VERTEX
 8
0
 10
0
 20
0.25
 30
0
 70
128
 71
544
 72
536
 73
546
 74
543
 0
VERTEX
 8
0
 10
0
 20
0.25
 30
0
 70
128
 71
548
 72
537
 73
511
 74
544
 0
VERTEX
 8
0
 10
0
 20
0.25
 30
0
 70
128
 71
555
 72
542
 73
529
 74
551
 0
VERTEX
 8
0
 10
0
 20
0.25
 30
0
 70
128
 71
553
 72
551
 73
549
 74
552
 0
VERTEX
 8
0
 10
0
 20
0.25
 30
0
 70
128
 71
545
 72
554
 73
547
 74
546
 0
VERTEX
 8
0
 10
0
 20
0.25
 30
0
 70
128
 71
548
 72
559
 73
545
 74
535
 0
VERTEX
 8
0
 10
0
 20
0.25
 30
0
 70
128
 71
542
 72
555
 73
539
 74
540
 0
VERTEX
 8
0
 10
0
 20
0.25
 30
0
 70
128
 71
552
 72
549
 73
539
 74
557
 0
VERTEX
 8
0
 10
0
 20
0.25
 30
0
 70
128
 71
559
 72
548
 73
544
 74
543
 0
VERTEX
 8
0
 10
0
 20
0.25
 30
0
 70
128
 71
550
 72
543
 73
546
 74
547
 0
VERTEX
 8
0
 10
0
 20
0.25
 30
0
 70
128
 71
551
 72
553
 73
561
 74
555
 0
VERTEX
 8
0
 10
0
 20
0.25
 30
0
 70
128
 71
562
 72
553
 73
552
 74
556
 0
VERTEX
 8
0
 10
0
 20
0.25
 30
0
 70
128
 71
554
 72
565
 73
564
 74
547
 0
VERTEX
 8
0
 10
0
 20
0.25
 30
0
 70
128
 71
559
 72
558
 73
554
 74
545
 0
VERTEX
 8
0
 10
0
 20
0.25
 30
0
 70
128
 71
555
 72
561
 73
557
 74
539
 0
VERTEX
 8
0
 10
0
 20
0.25
 30
0
 70
128
 71
556
 72
552
 73
557
 74
566
 0
VERTEX
 8
0
 10
0
 20
0.25
 30
0
 70
128
 71
558
 72
559
 73
543
 74
550
 0
VERTEX
 8
0
 10
0
 20
0.25
 30
0
 70
128
 71
560
 72
550
 73
547
 74
564
 0
VERTEX
 8
0
 10
0
 20
0.25
 30
0
 70
128
 71
553
 72
562
 73
569
 74
561
 0
VERTEX
 8
0
 10
0
 20
0.25
 30
0
 70
128
 71
563
 72
571
 73
562
 74
556
 0
VERTEX
 8
0
 10
0
 20
0.25
 30
0
 70
128
 71
564
 72
565
 73
573
 74
568
 0
VERTEX
 8
0
 10
0
 20
0.25
 30
0
 70
128
 71
558
 72
575
 73
565
 74
554
 0
VERTEX
 8
0
 10
0
 20
0.25
 30
0
 70
128
 71
561
 72
569
 73
566
 74
557
 0
VERTEX
 8
0
 10
0
 20
0.25
 30
0
 70
128
 71
563
 72
556
 73
566
 74
570
 0
VERTEX
 8
0
 10
0
 20
0.25
 30
0
 70
128
 71
575
 72
558
 73
550
 74
560
 0
VERTEX
 8
0
 10
0
 20
0.25
 30
0
 70
128
 71
567
 72
560
 73
564
 74
568
 0
VERTEX
 8
0
 10
0
 20
0.25
 30
0
 70
128
 71
562
 72
571
 73
574
 74
569
 0
VERTEX
 8
0
 10
0
 20
0.25
 30
0
 70
128
 71
574
 72
571
 73
563
 74
570
 0
VERTEX
 8
0
 10
0
 20
0.25
 30
0
 70
128
 71
573
 72
572
 73
567
 74
568
 0
VERTEX
 8
0
 10
0
 20
0.25
 30
0
 70
128
 71
575
 72
572
 73
573
 74
565
 0
VERTEX
 8
0
 10
0
 20
0.25
 30
0
 70
128
 71
566
 72
569
 73
574
 74
570
 0
VERTEX
 8
0
 10
0
 20
0.25
 30
0
 70
128
 71
567
 72
572
 73
575
 74
560
 0
VERTEX
 8
0
 10
0
 20
0.25
 30
0
 70
128
 71
576
 72
580
 73
577
 74
579
 0
VERTEX
 8
0
 10
0
 20
0.25
 30
0
 70
128
 71
583
 72
576
 73
579
 74
578
 0
VERTEX
 8
0
 10
0
 20
0.25
 30
0
 70
128
 71
584
 72
577
 73
580
 74
416
 0
VERTEX
 8
0
 10
0
 20
0.25
 30
0
 70
128
 71
582
 72
583
 73
578
 0
VERTEX
 8
0
 10
0
 20
0.25
 30
0
 70
128
 71
584
 72
416
 73
581
 0
VERTEX
 8
0
 10
0
 20
0.25
 30
0
 70
128
 71
578
 72
588
 73
582
 0
VERTEX
 8
0
 10
0
 20
0.25
 30
0
 70
128
 71
415
 72
583
 73
582
 74
588
 0
VERTEX
 8
0
 10
0
 20
0.25
 30
0
 70
128
 71
581
 72
587
 73
584
 0
VERTEX
 8
0
 10
0
 20
0.25
 30
0
 70
128
 71
416
 72
411
 73
587
 74
581
 0
VERTEX
 8
0
 10
0
 20
0.25
 30
0
 70
128
 71
584
 72
587
 73
588
 74
578
 0
VERTEX
 8
0
 10
0
 20
0.25
 30
0
 70
128
 71
424
 72
415
 73
588
 74
423
 0
VERTEX
 8
0
 10
0
 20
0.25
 30
0
 70
128
 71
411
 72
585
 73
590
 74
587
 0
VERTEX
 8
0
 10
0
 20
0.25
 30
0
 70
128
 71
586
 72
589
 73
588
 74
587
 0
VERTEX
 8
0
 10
0
 20
0.25
 30
0
 70
128
 71
589
 72
423
 73
588
 0
VERTEX
 8
0
 10
0
 20
0.25
 30
0
 70
128
 71
586
 72
587
 73
590
 0
VERTEX
 8
0
 10
0
 20
0.25
 30
0
 70
128
 71
102
 72
104
 73
364
 74
361
 0
VERTEX
 8
0
 10
0
 20
0.25
 30
0
 70
128
 71
22
 72
19
 73
363
 74
365
 0
VERTEX
 8
0
 10
0
 20
0.25
 30
0
 70
128
 71
358
 72
359
 73
353
 74
354
 0
VERTEX
 8
0
 10
0
 20
0.25
 30
0
 70
128
 71
1
 72
371
 73
353
 74
359
 0
VERTEX
 8
0
 10
0
 20
0.25
 30
0
 70
128
 71
371
 72
1
 73
26
 74
370
 0
VERTEX
 8
0
 10
0
 20
0.25
 30
0
 70
128
 71
369
 72
370
 73
26
 74
27
 0
VERTEX
 8
0
 10
0
 20
0.25
 30
0
 70
128
 71
22
 72
365
 73
369
 74
27
 0
VERTEX
 8
0
 10
0
 20
0.25
 30
0
 70
128
 71
354
 72
362
 73
11
 74
358
 0
SEQEND
 8
0
 0
ENDSEC
 0
EOF
