 0
SECTION
 2
HEADER
 9
$ACADVER
 1
AC1009
 9
$INSBASE
 10
0.0
 20
0.0
 30
0.0
 9
$EXTMIN
 10
0.0
 20
0.0
 30
0.0
 9
$EXTMAX
 10
0.0
 20
0.0
 30
0.0
 0
ENDSEC
 0
SECTION
 2
ENTITIES
 0
POLYLINE
 8
0
 70
64
 66
1
 10
0
 20
0.25
 30
0
 71
632
 72
719
 0
VERTEX
 8
0
 10
-0.335
 20
0
 30
2.915
 70
192
 0
VERTEX
 8
0
 10
-0.335
 20
0
 30
2.925
 70
192
 0
VERTEX
 8
0
 10
-0.315
 20
-0.12
 30
2.895
 70
192
 0
VERTEX
 8
0
 10
-0.305
 20
0
 30
2.895
 70
192
 0
VERTEX
 8
0
 10
-0.315
 20
0
 30
2.895
 70
192
 0
VERTEX
 8
0
 10
-0.335
 20
-0.14
 30
2.925
 70
192
 0
VERTEX
 8
0
 10
-0.395
 20
0
 30
2.985
 70
192
 0
VERTEX
 8
0
 10
1.245
 20
-0.14
 30
2.915
 70
192
 0
VERTEX
 8
0
 10
1.225
 20
0
 30
2.895
 70
192
 0
VERTEX
 8
0
 10
1.225
 20
-0.12
 30
2.895
 70
192
 0
VERTEX
 8
0
 10
1.215
 20
0
 30
2.895
 70
192
 0
VERTEX
 8
0
 10
1.245
 20
0
 30
2.915
 70
192
 0
VERTEX
 8
0
 10
1.195
 20
0
 30
2.875
 70
192
 0
VERTEX
 8
0
 10
-0.305
 20
-0.11
 30
2.895
 70
192
 0
VERTEX
 8
0
 10
-0.335
 20
-0.14
 30
2.915
 70
192
 0
VERTEX
 8
0
 10
-0.395
 20
0
 30
2.925
 70
192
 0
VERTEX
 8
0
 10
1.305
 20
0
 30
2.925
 70
192
 0
VERTEX
 8
0
 10
1.245
 20
-0.14
 30
2.925
 70
192
 0
VERTEX
 8
0
 10
1.245
 20
0
 30
2.925
 70
192
 0
VERTEX
 8
0
 10
1.215
 20
-0.11
 30
2.895
 70
192
 0
VERTEX
 8
0
 10
1.215
 20
-0.11
 30
2.885
 70
192
 0
VERTEX
 8
0
 10
1.215
 20
0
 30
2.885
 70
192
 0
VERTEX
 8
0
 10
-0.305
 20
0
 30
2.885
 70
192
 0
VERTEX
 8
0
 10
-0.295
 20
-0.1
 30
2.885
 70
192
 0
VERTEX
 8
0
 10
-0.295
 20
0
 30
2.885
 70
192
 0
VERTEX
 8
0
 10
-0.285
 20
-0.09
 30
2.875
 70
192
 0
VERTEX
 8
0
 10
1.205
 20
0
 30
2.885
 70
192
 0
VERTEX
 8
0
 10
1.185
 20
0
 30
2.865
 70
192
 0
VERTEX
 8
0
 10
-0.305
 20
-0.11
 30
2.885
 70
192
 0
VERTEX
 8
0
 10
-0.395
 20
-0.2
 30
2.985
 70
192
 0
VERTEX
 8
0
 10
1.305
 20
0
 30
2.985
 70
192
 0
VERTEX
 8
0
 10
-0.285
 20
0
 30
2.875
 70
192
 0
VERTEX
 8
0
 10
1.205
 20
-0.1
 30
2.885
 70
192
 0
VERTEX
 8
0
 10
1.195
 20
-0.09
 30
2.875
 70
192
 0
VERTEX
 8
0
 10
1.195
 20
-0.09
 30
2.865
 70
192
 0
VERTEX
 8
0
 10
1.195
 20
0
 30
2.865
 70
192
 0
VERTEX
 8
0
 10
-0.275
 20
0
 30
2.67500114440918
 70
192
 0
VERTEX
 8
0
 10
-0.395
 20
-0.2
 30
2.925
 70
192
 0
VERTEX
 8
0
 10
1.305
 20
-0.2
 30
2.925
 70
192
 0
VERTEX
 8
0
 10
1.305
 20
-0.2
 30
2.985
 70
192
 0
VERTEX
 8
0
 10
-0.405
 20
-0.21
 30
2.995
 70
192
 0
VERTEX
 8
0
 10
-0.405
 20
0
 30
2.995
 70
192
 0
VERTEX
 8
0
 10
-0.405
 20
0
 30
2.985
 70
192
 0
VERTEX
 8
0
 10
-0.425
 20
0
 30
3.015
 70
192
 0
VERTEX
 8
0
 10
1.315
 20
-0.21
 30
2.985
 70
192
 0
VERTEX
 8
0
 10
1.315
 20
0
 30
2.995
 70
192
 0
VERTEX
 8
0
 10
1.315
 20
0
 30
2.985
 70
192
 0
VERTEX
 8
0
 10
-0.285
 20
-0.09
 30
2.865
 70
192
 0
VERTEX
 8
0
 10
-0.285
 20
0
 30
2.865
 70
192
 0
VERTEX
 8
0
 10
-0.275
 20
-0.08
 30
2.67500114440918
 70
192
 0
VERTEX
 8
0
 10
-0.275
 20
0
 30
2.865
 70
192
 0
VERTEX
 8
0
 10
1.185
 20
-0.08
 30
2.865
 70
192
 0
VERTEX
 8
0
 10
1.185
 20
-0.08
 30
2.67500114440918
 70
192
 0
VERTEX
 8
0
 10
1.185
 20
0
 30
2.67500114440918
 70
192
 0
VERTEX
 8
0
 10
1.185
 20
0
 30
2.665
 70
192
 0
VERTEX
 8
0
 10
-0.405
 20
-0.21
 30
2.985
 70
192
 0
VERTEX
 8
0
 10
-0.415
 20
0
 30
3.005
 70
192
 0
VERTEX
 8
0
 10
-0.415
 20
-0.22
 30
3.005
 70
192
 0
VERTEX
 8
0
 10
1.315
 20
-0.21
 30
2.995
 70
192
 0
VERTEX
 8
0
 10
-0.425
 20
0
 30
3.005
 70
192
 0
VERTEX
 8
0
 10
1.355
 20
0
 30
3.046
 70
192
 0
VERTEX
 8
0
 10
1.335
 20
0
 30
3.005
 70
192
 0
VERTEX
 8
0
 10
1.325
 20
-0.22
 30
3.005
 70
192
 0
VERTEX
 8
0
 10
1.325
 20
0
 30
3.005
 70
192
 0
VERTEX
 8
0
 10
-0.275
 20
-0.08
 30
2.865
 70
192
 0
VERTEX
 8
0
 10
-0.285
 20
-0.09
 30
2.67500114440918
 70
192
 0
VERTEX
 8
0
 10
-0.285
 20
0
 30
2.67500114440918
 70
192
 0
VERTEX
 8
0
 10
1.195
 20
0
 30
2.67500114440918
 70
192
 0
VERTEX
 8
0
 10
1.195
 20
0
 30
2.665
 70
192
 0
VERTEX
 8
0
 10
-0.473
 20
0
 30
3.056
 70
192
 0
VERTEX
 8
0
 10
1.195
 20
-0.09
 30
2.665
 70
192
 0
VERTEX
 8
0
 10
-0.285
 20
0
 30
2.665
 70
192
 0
VERTEX
 8
0
 10
-0.275
 20
0
 30
2.57500123977661
 70
192
 0
VERTEX
 8
0
 10
-0.015
 20
-0.08
 30
2.57500123977661
 70
192
 0
VERTEX
 8
0
 10
-0.015
 20
0
 30
2.57500123977661
 70
192
 0
VERTEX
 8
0
 10
0.925
 20
-0.08
 30
2.57500123977661
 70
192
 0
VERTEX
 8
0
 10
-0.435
 20
0
 30
3.021
 70
192
 0
VERTEX
 8
0
 10
-0.425
 20
-0.23
 30
3.015
 70
192
 0
VERTEX
 8
0
 10
-0.425
 20
-0.23
 30
3.005
 70
192
 0
VERTEX
 8
0
 10
1.335
 20
-0.23
 30
3.005
 70
192
 0
VERTEX
 8
0
 10
1.31085789203644
 20
-0.23
 30
3.015
 70
192
 0
VERTEX
 8
0
 10
-0.445
 20
0
 30
3.046
 70
192
 0
VERTEX
 8
0
 10
-0.435
 20
-0.24
 30
3.021
 70
192
 0
VERTEX
 8
0
 10
-0.445
 20
-0.25
 30
3.046
 70
192
 0
VERTEX
 8
0
 10
1.383
 20
0
 30
3.056
 70
192
 0
VERTEX
 8
0
 10
1.345
 20
0
 30
3.021
 70
192
 0
VERTEX
 8
0
 10
1.335
 20
0
 30
3.015
 70
192
 0
VERTEX
 8
0
 10
1.345
 20
-0.24
 30
3.021
 70
192
 0
VERTEX
 8
0
 10
1.335
 20
-0.23
 30
3.015
 70
192
 0
VERTEX
 8
0
 10
-0.285
 20
-0.09
 30
2.665
 70
192
 0
VERTEX
 8
0
 10
1.195
 20
-0.09
 30
2.67500114440918
 70
192
 0
VERTEX
 8
0
 10
-0.275
 20
-0.08
 30
2.57500123977661
 70
192
 0
VERTEX
 8
0
 10
-0.275
 20
-0.08
 30
2.665
 70
192
 0
VERTEX
 8
0
 10
-0.275
 20
0
 30
2.665
 70
192
 0
VERTEX
 8
0
 10
1.185
 20
-0.08
 30
2.57500123977661
 70
192
 0
VERTEX
 8
0
 10
-0.025
 20
0
 30
2.56500124931335
 70
192
 0
VERTEX
 8
0
 10
-0.315
 20
0
 30
2.56500124931335
 70
192
 0
VERTEX
 8
0
 10
1.225
 20
0
 30
2.56500124931335
 70
192
 0
VERTEX
 8
0
 10
0.935
 20
0
 30
2.56500124931335
 70
192
 0
VERTEX
 8
0
 10
0.925
 20
0
 30
2.57500123977661
 70
192
 0
VERTEX
 8
0
 10
1.185
 20
-0.08
 30
2.665
 70
192
 0
VERTEX
 8
0
 10
-0.473
 20
-0.278
 30
3.066
 70
192
 0
VERTEX
 8
0
 10
-0.473
 20
0
 30
3.066
 70
192
 0
VERTEX
 8
0
 10
0.455
 20
-0.25
 30
3.41879177093506
 70
192
 0
VERTEX
 8
0
 10
1.383
 20
-0.278
 30
3.056
 70
192
 0
VERTEX
 8
0
 10
0.455
 20
-0.23
 30
3.37950801849365
 70
192
 0
VERTEX
 8
0
 10
1.355
 20
-0.25
 30
3.046
 70
192
 0
VERTEX
 8
0
 10
0.455
 20
-0.24
 30
3.38965010643005
 70
192
 0
VERTEX
 8
0
 10
-0.325
 20
0
 30
2.57500123977661
 70
192
 0
VERTEX
 8
0
 10
-0.325
 20
-0.13
 30
2.57500123977661
 70
192
 0
VERTEX
 8
0
 10
1.185
 20
0
 30
2.57500123977661
 70
192
 0
VERTEX
 8
0
 10
1.235
 20
-0.13
 30
2.57500123977661
 70
192
 0
VERTEX
 8
0
 10
1.235
 20
0
 30
2.56500124931335
 70
192
 0
VERTEX
 8
0
 10
-0.015
 20
-0.13
 30
2.57500123977661
 70
192
 0
VERTEX
 8
0
 10
0.455
 20
-0.23
 30
3.36950778961182
 70
192
 0
VERTEX
 8
0
 10
-0.400857955217361
 20
-0.23
 30
3.015
 70
192
 0
VERTEX
 8
0
 10
1.23653793334961
 20
-0.21
 30
3.0174994468689
 70
192
 0
VERTEX
 8
0
 10
-0.156733006238937
 20
-0.2
 30
3.01874923706055
 70
192
 0
VERTEX
 8
0
 10
-0.38783997297287
 20
-0.22
 30
3.01624989509583
 70
192
 0
VERTEX
 8
0
 10
0.455
 20
-0.278
 30
3.44038915634155
 70
192
 0
VERTEX
 8
0
 10
0.455
 20
-0.278
 30
3.45038938522339
 70
192
 0
VERTEX
 8
0
 10
-0.473
 20
-0.278
 30
3.056
 70
192
 0
VERTEX
 8
0
 10
0.455
 20
0
 30
3.45038938522339
 70
192
 0
VERTEX
 8
0
 10
1.383
 20
0
 30
3.066
 70
192
 0
VERTEX
 8
0
 10
1.383
 20
-0.278
 30
3.066
 70
192
 0
VERTEX
 8
0
 10
0.455
 20
-0.22
 30
3.36536502838135
 70
192
 0
VERTEX
 8
0
 10
1.29783987998962
 20
-0.22
 30
3.01624989509583
 70
192
 0
VERTEX
 8
0
 10
-0.325
 20
0
 30
2.56500124931335
 70
192
 0
VERTEX
 8
0
 10
1.235
 20
0
 30
2.57500123977661
 70
192
 0
VERTEX
 8
0
 10
-0.015
 20
0
 30
2.56500124931335
 70
192
 0
VERTEX
 8
0
 10
-0.315
 20
0
 30
2.535
 70
192
 0
VERTEX
 8
0
 10
1.225
 20
0
 30
2.535
 70
192
 0
VERTEX
 8
0
 10
0.925
 20
0
 30
2.56500124931335
 70
192
 0
VERTEX
 8
0
 10
0.925
 20
-0.13
 30
2.56500124931335
 70
192
 0
VERTEX
 8
0
 10
-0.015
 20
-0.13
 30
2.56500124931335
 70
192
 0
VERTEX
 8
0
 10
-0.325
 20
-0.13
 30
2.56500124931335
 70
192
 0
VERTEX
 8
0
 10
-0.35068
 20
-0.21
 30
3.0174994468689
 70
192
 0
VERTEX
 8
0
 10
0.455
 20
-0.21
 30
3.3512225151062
 70
192
 0
VERTEX
 8
0
 10
1.26067996025085
 20
-0.21
 30
3.0174994468689
 70
192
 0
VERTEX
 8
0
 10
1.06673288345337
 20
-0.2
 30
3.01874923706055
 70
192
 0
VERTEX
 8
0
 10
-0.326538056135178
 20
-0.21
 30
3.0174994468689
 70
192
 0
VERTEX
 8
0
 10
0.925
 20
-0.13
 30
2.57500123977661
 70
192
 0
VERTEX
 8
0
 10
1.235
 20
-0.13
 30
2.56500124931335
 70
192
 0
VERTEX
 8
0
 10
-0.025
 20
0
 30
2.535
 70
192
 0
VERTEX
 8
0
 10
-0.025
 20
-0.12
 30
2.535
 70
192
 0
VERTEX
 8
0
 10
-0.035
 20
0
 30
2.535
 70
192
 0
VERTEX
 8
0
 10
-0.305
 20
0
 30
2.525
 70
192
 0
VERTEX
 8
0
 10
-0.035
 20
-0.11
 30
2.535
 70
192
 0
VERTEX
 8
0
 10
-0.305
 20
0
 30
2.535
 70
192
 0
VERTEX
 8
0
 10
-0.315
 20
-0.12
 30
2.535
 70
192
 0
VERTEX
 8
0
 10
1.225
 20
-0.12
 30
2.535
 70
192
 0
VERTEX
 8
0
 10
0.945
 20
0
 30
2.535
 70
192
 0
VERTEX
 8
0
 10
0.935
 20
0
 30
2.535
 70
192
 0
VERTEX
 8
0
 10
1.215
 20
0
 30
2.535
 70
192
 0
VERTEX
 8
0
 10
1.215
 20
-0.11
 30
2.535
 70
192
 0
VERTEX
 8
0
 10
0.945
 20
0
 30
2.525
 70
192
 0
VERTEX
 8
0
 10
0.945
 20
-0.11
 30
2.535
 70
192
 0
VERTEX
 8
0
 10
1.2235199213028
 20
-0.2
 30
3.01874923706055
 70
192
 0
VERTEX
 8
0
 10
0.455
 20
-0.21
 30
3.34122228622437
 70
192
 0
VERTEX
 8
0
 10
1.04862594604492
 20
-0.14
 30
3.02624988555908
 70
192
 0
VERTEX
 8
0
 10
1.02249503135681
 20
-0.14
 30
3.02624988555908
 70
192
 0
VERTEX
 8
0
 10
0.455
 20
-0.2
 30
3.33708238601685
 70
192
 0
VERTEX
 8
0
 10
-0.313520044088364
 20
-0.2
 30
3.01874923706055
 70
192
 0
VERTEX
 8
0
 10
-0.025
 20
-0.12
 30
2.56500124931335
 70
192
 0
VERTEX
 8
0
 10
-0.315
 20
-0.12
 30
2.56500124931335
 70
192
 0
VERTEX
 8
0
 10
-0.285
 20
-0.09
 30
2.505
 70
192
 0
VERTEX
 8
0
 10
-0.035
 20
-0.11
 30
2.525
 70
192
 0
VERTEX
 8
0
 10
-0.305
 20
-0.11
 30
2.535
 70
192
 0
VERTEX
 8
0
 10
-0.055
 20
0
 30
2.505
 70
192
 0
VERTEX
 8
0
 10
-0.035
 20
0
 30
2.525
 70
192
 0
VERTEX
 8
0
 10
0.935
 20
-0.12
 30
2.56500124931335
 70
192
 0
VERTEX
 8
0
 10
0.935
 20
-0.12
 30
2.535
 70
192
 0
VERTEX
 8
0
 10
1.225
 20
-0.12
 30
2.56500124931335
 70
192
 0
VERTEX
 8
0
 10
1.195
 20
0
 30
2.505
 70
192
 0
VERTEX
 8
0
 10
1.215
 20
0
 30
2.525
 70
192
 0
VERTEX
 8
0
 10
1.215
 20
-0.11
 30
2.525
 70
192
 0
VERTEX
 8
0
 10
0.965
 20
0
 30
2.505
 70
192
 0
VERTEX
 8
0
 10
0.455
 20
-0.14
 30
3.26131415367126
 70
192
 0
VERTEX
 8
0
 10
0.455
 20
-0.2
 30
3.27213716506958
 70
192
 0
VERTEX
 8
0
 10
0.455
 20
-0.12
 30
3.23966574668884
 70
192
 0
VERTEX
 8
0
 10
-0.0541969947516918
 20
-0.12
 30
3.0287492275238
 70
192
 0
VERTEX
 8
0
 10
-0.138626009225845
 20
-0.14
 30
3.02624988555908
 70
192
 0
VERTEX
 8
0
 10
0.455
 20
-0.14
 30
3.27213716506958
 70
192
 0
VERTEX
 8
0
 10
-0.112494997680187
 20
-0.14
 30
3.02624988555908
 70
192
 0
VERTEX
 8
0
 10
-0.285
 20
0
 30
2.505
 70
192
 0
VERTEX
 8
0
 10
-0.285
 20
0
 30
2.495
 70
192
 0
VERTEX
 8
0
 10
-0.305
 20
-0.11
 30
2.525
 70
192
 0
VERTEX
 8
0
 10
-0.055
 20
-0.09
 30
2.505
 70
192
 0
VERTEX
 8
0
 10
-0.275
 20
0
 30
2.405
 70
192
 0
VERTEX
 8
0
 10
-0.055
 20
0
 30
2.495
 70
192
 0
VERTEX
 8
0
 10
0.945
 20
-0.11
 30
2.525
 70
192
 0
VERTEX
 8
0
 10
1.195
 20
-0.09
 30
2.505
 70
192
 0
VERTEX
 8
0
 10
1.195
 20
-0.09
 30
2.495
 70
192
 0
VERTEX
 8
0
 10
0.455
 20
-0.11
 30
3.23966574668884
 70
192
 0
VERTEX
 8
0
 10
0.93504786491394
 20
-0.11
 30
3.03
 70
192
 0
VERTEX
 8
0
 10
0.964196920394897
 20
-0.12
 30
3.0287492275238
 70
192
 0
VERTEX
 8
0
 10
0.03325
 20
-0.09
 30
3.03250074386597
 70
192
 0
VERTEX
 8
0
 10
-0.025048
 20
-0.11
 30
3.03
 70
192
 0
VERTEX
 8
0
 10
-0.0511789917945862
 20
-0.11
 30
3.03
 70
192
 0
VERTEX
 8
0
 10
-0.285
 20
-0.09
 30
2.495
 70
192
 0
VERTEX
 8
0
 10
-0.055
 20
-0.09
 30
2.495
 70
192
 0
VERTEX
 8
0
 10
-0.275
 20
0
 30
2.495
 70
192
 0
VERTEX
 8
0
 10
-0.275
 20
-0.08
 30
2.405
 70
192
 0
VERTEX
 8
0
 10
-0.065
 20
0
 30
2.495
 70
192
 0
VERTEX
 8
0
 10
0.965
 20
-0.09
 30
2.505
 70
192
 0
VERTEX
 8
0
 10
1.185
 20
-0.08
 30
2.495
 70
192
 0
VERTEX
 8
0
 10
1.195
 20
0
 30
2.495
 70
192
 0
VERTEX
 8
0
 10
1.185
 20
0
 30
2.405
 70
192
 0
VERTEX
 8
0
 10
1.185
 20
0
 30
2.495
 70
192
 0
VERTEX
 8
0
 10
0.965
 20
-0.09
 30
2.495
 70
192
 0
VERTEX
 8
0
 10
0.965
 20
0
 30
2.495
 70
192
 0
VERTEX
 8
0
 10
0.975
 20
0
 30
2.495
 70
192
 0
VERTEX
 8
0
 10
0.96117889881134
 20
-0.11
 30
3.03
 70
192
 0
VERTEX
 8
0
 10
0.932029843330383
 20
-0.1
 30
3.0312511920929
 70
192
 0
VERTEX
 8
0
 10
-0.275
 20
-0.08
 30
2.495
 70
192
 0
VERTEX
 8
0
 10
-0.065
 20
-0.08
 30
2.405
 70
192
 0
VERTEX
 8
0
 10
-0.065
 20
-0.08
 30
2.495
 70
192
 0
VERTEX
 8
0
 10
-0.065
 20
0
 30
2.405
 70
192
 0
VERTEX
 8
0
 10
-0.285
 20
0
 30
2.405
 70
192
 0
VERTEX
 8
0
 10
-0.055
 20
0
 30
2.405
 70
192
 0
VERTEX
 8
0
 10
-0.045
 20
0
 30
0.13
 70
192
 0
VERTEX
 8
0
 10
1.185
 20
-0.08
 30
2.405
 70
192
 0
VERTEX
 8
0
 10
0.975
 20
-0.08
 30
2.495
 70
192
 0
VERTEX
 8
0
 10
1.195
 20
0
 30
2.405
 70
192
 0
VERTEX
 8
0
 10
0.965
 20
-0.09
 30
2.405
 70
192
 0
VERTEX
 8
0
 10
0.975
 20
-0.08
 30
2.405
 70
192
 0
VERTEX
 8
0
 10
0.975
 20
0
 30
2.405
 70
192
 0
VERTEX
 8
0
 10
0.965
 20
0
 30
2.405
 70
192
 0
VERTEX
 8
0
 10
0.455
 20
-0.11
 30
3.22884273529053
 70
192
 0
VERTEX
 8
0
 10
0.455
 20
-0.09
 30
3.20719432830811
 70
192
 0
VERTEX
 8
0
 10
0.87675005197525
 20
-0.09
 30
3.03250074386597
 70
192
 0
VERTEX
 8
0
 10
0.902881026268005
 20
-0.09
 30
3.03250074386597
 70
192
 0
VERTEX
 8
0
 10
0.036268
 20
-0.08
 30
3.03375053405762
 70
192
 0
VERTEX
 8
0
 10
0.455
 20
-0.08
 30
3.20719432830811
 70
192
 0
VERTEX
 8
0
 10
0.873732030391693
 20
-0.08
 30
3.03375053405762
 70
192
 0
VERTEX
 8
0
 10
0.455
 20
-0.1
 30
3.22884273529053
 70
192
 0
VERTEX
 8
0
 10
-0.02203
 20
-0.1
 30
3.0312511920929
 70
192
 0
VERTEX
 8
0
 10
0.007119
 20
-0.09
 30
3.03250074386597
 70
192
 0
VERTEX
 8
0
 10
0.455
 20
-0.09
 30
3.21801733970642
 70
192
 0
VERTEX
 8
0
 10
-0.285
 20
-0.09
 30
2.405
 70
192
 0
VERTEX
 8
0
 10
-0.055
 20
0
 30
2.395
 70
192
 0
VERTEX
 8
0
 10
-0.055
 20
-0.09
 30
2.405
 70
192
 0
VERTEX
 8
0
 10
-0.055
 20
-0.09
 30
2.395
 70
192
 0
VERTEX
 8
0
 10
-0.285
 20
0
 30
2.395
 70
192
 0
VERTEX
 8
0
 10
-0.275
 20
0
 30
2.395
 70
192
 0
VERTEX
 8
0
 10
-0.065
 20
-0.08
 30
2.395
 70
192
 0
VERTEX
 8
0
 10
-0.275
 20
-0.08
 30
2.395
 70
192
 0
VERTEX
 8
0
 10
-0.065
 20
0
 30
2.395
 70
192
 0
VERTEX
 8
0
 10
-0.035
 20
0
 30
0.12
 70
192
 0
VERTEX
 8
0
 10
1.195
 20
0
 30
2.395
 70
192
 0
VERTEX
 8
0
 10
1.195
 20
-0.09
 30
2.405
 70
192
 0
VERTEX
 8
0
 10
1.195
 20
-0.09
 30
2.395
 70
192
 0
VERTEX
 8
0
 10
1.185
 20
-0.08
 30
2.395
 70
192
 0
VERTEX
 8
0
 10
1.205
 20
0
 30
0.13
 70
192
 0
VERTEX
 8
0
 10
1.185
 20
0
 30
2.395
 70
192
 0
VERTEX
 8
0
 10
1.215
 20
0
 30
0.12
 70
192
 0
VERTEX
 8
0
 10
0.975
 20
0
 30
2.395
 70
192
 0
VERTEX
 8
0
 10
0.975
 20
-0.08
 30
2.395
 70
192
 0
VERTEX
 8
0
 10
0.965
 20
0
 30
2.395
 70
192
 0
VERTEX
 8
0
 10
0.965
 20
-0.09
 30
2.395
 70
192
 0
VERTEX
 8
0
 10
-0.285
 20
-0.09
 30
2.395
 70
192
 0
VERTEX
 8
0
 10
-0.295
 20
0
 30
0.13
 70
192
 0
VERTEX
 8
0
 10
-0.305
 20
0
 30
0.13
 70
192
 0
VERTEX
 8
0
 10
-0.295
 20
-0.1
 30
0.13
 70
192
 0
VERTEX
 8
0
 10
-0.035
 20
0
 30
0.13
 70
192
 0
VERTEX
 8
0
 10
-0.045
 20
-0.1
 30
0.13
 70
192
 0
VERTEX
 8
0
 10
-0.035
 20
-0.11
 30
0.13
 70
192
 0
VERTEX
 8
0
 10
1.205
 20
-0.1
 30
0.13
 70
192
 0
VERTEX
 8
0
 10
0.955
 20
-0.1
 30
0.13
 70
192
 0
VERTEX
 8
0
 10
1.215
 20
0
 30
0.13
 70
192
 0
VERTEX
 8
0
 10
0.925
 20
0
 30
0.1
 70
192
 0
VERTEX
 8
0
 10
0.945
 20
0
 30
0.13
 70
192
 0
VERTEX
 8
0
 10
0.955
 20
0
 30
0.13
 70
192
 0
VERTEX
 8
0
 10
-0.305
 20
-0.11
 30
0.13
 70
192
 0
VERTEX
 8
0
 10
-0.305
 20
0
 30
0.12
 70
192
 0
VERTEX
 8
0
 10
-0.325
 20
0
 30
0.1
 70
192
 0
VERTEX
 8
0
 10
-0.325
 20
-0.13
 30
0.1
 70
192
 0
VERTEX
 8
0
 10
-0.015
 20
-0.13
 30
0.1
 70
192
 0
VERTEX
 8
0
 10
1.215
 20
-0.11
 30
0.12
 70
192
 0
VERTEX
 8
0
 10
0.925
 20
0
 30
0.08
 70
192
 0
VERTEX
 8
0
 10
0.945
 20
0
 30
0.12
 70
192
 0
VERTEX
 8
0
 10
0.945
 20
-0.11
 30
0.13
 70
192
 0
VERTEX
 8
0
 10
-0.305
 20
-0.11
 30
0.12
 70
192
 0
VERTEX
 8
0
 10
-0.035
 20
-0.11
 30
0.12
 70
192
 0
VERTEX
 8
0
 10
-0.015
 20
0
 30
0.1
 70
192
 0
VERTEX
 8
0
 10
-0.025
 20
0
 30
0.07
 70
192
 0
VERTEX
 8
0
 10
0.945
 20
-0.11
 30
0.12
 70
192
 0
VERTEX
 8
0
 10
1.215
 20
-0.11
 30
0.13
 70
192
 0
VERTEX
 8
0
 10
1.235
 20
0
 30
0.1
 70
192
 0
VERTEX
 8
0
 10
0.935
 20
0
 30
0.07
 70
192
 0
VERTEX
 8
0
 10
0.925
 20
-0.13
 30
0.1
 70
192
 0
VERTEX
 8
0
 10
-0.325
 20
0
 30
0.08
 70
192
 0
VERTEX
 8
0
 10
-0.315
 20
-0.12
 30
0.07
 70
192
 0
VERTEX
 8
0
 10
-0.325
 20
-0.13
 30
0.08
 70
192
 0
VERTEX
 8
0
 10
-0.015
 20
0
 30
0.08
 70
192
 0
VERTEX
 8
0
 10
0.925
 20
-0.13
 30
0.08
 70
192
 0
VERTEX
 8
0
 10
1.235
 20
-0.13
 30
0.1
 70
192
 0
VERTEX
 8
0
 10
1.235
 20
0
 30
0.08
 70
192
 0
VERTEX
 8
0
 10
1.235
 20
-0.13
 30
0.08
 70
192
 0
VERTEX
 8
0
 10
1.235
 20
0
 30
0
 70
192
 0
VERTEX
 8
0
 10
0.935
 20
-0.12
 30
0.07
 70
192
 0
VERTEX
 8
0
 10
-0.315
 20
0
 30
0.07
 70
192
 0
VERTEX
 8
0
 10
-0.015
 20
-0.13
 30
0.08
 70
192
 0
VERTEX
 8
0
 10
-0.025
 20
-0.12
 30
0.07
 70
192
 0
VERTEX
 8
0
 10
-0.015
 20
-0.13
 30
0.07
 70
192
 0
VERTEX
 8
0
 10
-0.015
 20
0
 30
0.07
 70
192
 0
VERTEX
 8
0
 10
-0.325
 20
0
 30
0
 70
192
 0
VERTEX
 8
0
 10
-0.015
 20
0
 30
0
 70
192
 0
VERTEX
 8
0
 10
1.225
 20
-0.12
 30
0.07
 70
192
 0
VERTEX
 8
0
 10
1.235
 20
0
 30
0.07
 70
192
 0
VERTEX
 8
0
 10
1.225
 20
0
 30
0.07
 70
192
 0
VERTEX
 8
0
 10
0.925
 20
-0.13
 30
0
 70
192
 0
VERTEX
 8
0
 10
0.925
 20
0
 30
0
 70
192
 0
VERTEX
 8
0
 10
0.925
 20
0
 30
0.07
 70
192
 0
VERTEX
 8
0
 10
-0.325
 20
0
 30
0.07
 70
192
 0
VERTEX
 8
0
 10
-0.325
 20
-0.13
 30
0
 70
192
 0
VERTEX
 8
0
 10
-0.015
 20
-0.13
 30
0
 70
192
 0
VERTEX
 8
0
 10
-0.325
 20
-0.13
 30
0.07
 70
192
 0
VERTEX
 8
0
 10
1.235
 20
-0.13
 30
0.07
 70
192
 0
VERTEX
 8
0
 10
1.235
 20
-0.13
 30
0
 70
192
 0
VERTEX
 8
0
 10
0.925
 20
-0.13
 30
0.07
 70
192
 0
VERTEX
 8
0
 10
0.9
 20
0.23
 30
0.025
 70
192
 0
VERTEX
 8
0
 10
0
 20
0.23
 30
0
 70
192
 0
VERTEX
 8
0
 10
0.01
 20
0.23
 30
0.025
 70
192
 0
VERTEX
 8
0
 10
0.01
 20
0.178
 30
0.025
 70
192
 0
VERTEX
 8
0
 10
0.9
 20
0.178
 30
0.025
 70
192
 0
VERTEX
 8
0
 10
0.885
 20
0.178
 30
0.025
 70
192
 0
VERTEX
 8
0
 10
0.91
 20
0.23
 30
0
 70
192
 0
VERTEX
 8
0
 10
0.025
 20
0.178
 30
2.055
 70
192
 0
VERTEX
 8
0
 10
0.01
 20
0.178
 30
2.07
 70
192
 0
VERTEX
 8
0
 10
0.9
 20
0.178
 30
2.07
 70
192
 0
VERTEX
 8
0
 10
0.9
 20
0.23
 30
2.07
 70
192
 0
VERTEX
 8
0
 10
0.455
 20
0.178
 30
2.055
 70
192
 0
VERTEX
 8
0
 10
0.455
 20
0.178
 30
2.07
 70
192
 0
VERTEX
 8
0
 10
0.455
 20
0.23
 30
2.08
 70
192
 0
VERTEX
 8
0
 10
0.455
 20
0.23
 30
2.07
 70
192
 0
VERTEX
 8
0
 10
0.01
 20
0.23
 30
2.07
 70
192
 0
VERTEX
 8
0
 10
0.455
 20
0.23
 30
2.105
 70
192
 0
VERTEX
 8
0
 10
0.455
 20
0.21
 30
2.105
 70
192
 0
VERTEX
 8
0
 10
0.885
 20
0.21
 30
2.105
 70
192
 0
VERTEX
 8
0
 10
0.025
 20
0.21
 30
2.105
 70
192
 0
VERTEX
 8
0
 10
0.025
 20
0.23
 30
2.105
 70
192
 0
VERTEX
 8
0
 10
0
 20
0.23
 30
2.08
 70
192
 0
VERTEX
 8
0
 10
0
 20
0.23
 30
2.54500126838684
 70
192
 0
VERTEX
 8
0
 10
0.885
 20
0.23
 30
2.105
 70
192
 0
VERTEX
 8
0
 10
0.455
 20
0.23
 30
2.52
 70
192
 0
VERTEX
 8
0
 10
0.025
 20
0.21
 30
2.52
 70
192
 0
VERTEX
 8
0
 10
0.025
 20
0.23
 30
2.52
 70
192
 0
VERTEX
 8
0
 10
0.885
 20
0.21
 30
2.52
 70
192
 0
VERTEX
 8
0
 10
0.885
 20
0.23
 30
2.52
 70
192
 0
VERTEX
 8
0
 10
0
 20
0.1
 30
2.08
 70
192
 0
VERTEX
 8
0
 10
0
 20
0.1
 30
2.54500126838684
 70
192
 0
VERTEX
 8
0
 10
0
 20
0.1
 30
0
 70
192
 0
VERTEX
 8
0
 10
0.91
 20
0.1
 30
0
 70
192
 0
VERTEX
 8
0
 10
0.91
 20
0.23
 30
2.08
 70
192
 0
VERTEX
 8
0
 10
0.01
 20
0.1
 30
2.08
 70
192
 0
VERTEX
 8
0
 10
0.455
 20
0.1
 30
2.54500126838684
 70
192
 0
VERTEX
 8
0
 10
0.455
 20
0.23
 30
2.54500126838684
 70
192
 0
VERTEX
 8
0
 10
0.01
 20
0.1
 30
0.025
 70
192
 0
VERTEX
 8
0
 10
0.9
 20
0.1
 30
0.025
 70
192
 0
VERTEX
 8
0
 10
0.885
 20
0.15
 30
0.025
 70
192
 0
VERTEX
 8
0
 10
0.91
 20
0.23
 30
2.54500126838684
 70
192
 0
VERTEX
 8
0
 10
0.025
 20
0.15
 30
0.025
 70
192
 0
VERTEX
 8
0
 10
0.025
 20
0.15
 30
2.055
 70
192
 0
VERTEX
 8
0
 10
0.01
 20
0.15
 30
2.055
 70
192
 0
VERTEX
 8
0
 10
0.01
 20
0.15
 30
0.025
 70
192
 0
VERTEX
 8
0
 10
0.01
 20
0.15
 30
2.105
 70
192
 0
VERTEX
 8
0
 10
0.9
 20
0.15
 30
2.055
 70
192
 0
VERTEX
 8
0
 10
0.9
 20
0.1
 30
2.535
 70
192
 0
VERTEX
 8
0
 10
0.9
 20
0.1
 30
2.08
 70
192
 0
VERTEX
 8
0
 10
0.91
 20
0.1
 30
2.08
 70
192
 0
VERTEX
 8
0
 10
0.91
 20
0.1
 30
2.54500126838684
 70
192
 0
VERTEX
 8
0
 10
0.9
 20
0.15
 30
0.025
 70
192
 0
VERTEX
 8
0
 10
0.025
 20
0.178
 30
0.025
 70
192
 0
VERTEX
 8
0
 10
0.01
 20
0.15
 30
2.535
 70
192
 0
VERTEX
 8
0
 10
0.455
 20
0.15
 30
2.535
 70
192
 0
VERTEX
 8
0
 10
0.455
 20
0.1
 30
2.535
 70
192
 0
VERTEX
 8
0
 10
0.01
 20
0.1
 30
2.535
 70
192
 0
VERTEX
 8
0
 10
0.9
 20
0.15
 30
2.105
 70
192
 0
VERTEX
 8
0
 10
0.885
 20
0.15
 30
2.055
 70
192
 0
VERTEX
 8
0
 10
0.455
 20
0.15
 30
2.055
 70
192
 0
VERTEX
 8
0
 10
0.025
 20
0.15
 30
2.105
 70
192
 0
VERTEX
 8
0
 10
0.885
 20
0.178
 30
2.055
 70
192
 0
VERTEX
 8
0
 10
0.9
 20
0.15
 30
2.535
 70
192
 0
VERTEX
 8
0
 10
0.455
 20
0.15
 30
2.105
 70
192
 0
VERTEX
 8
0
 10
0.455
 20
0.18
 30
2.105
 70
192
 0
VERTEX
 8
0
 10
0.025
 20
0.18
 30
2.105
 70
192
 0
VERTEX
 8
0
 10
0.035
 20
0.18
 30
2.115
 70
192
 0
VERTEX
 8
0
 10
0.025
 20
0.18
 30
2.52
 70
192
 0
VERTEX
 8
0
 10
0.455
 20
0.18
 30
2.52
 70
192
 0
VERTEX
 8
0
 10
0.455
 20
0.15
 30
2.52
 70
192
 0
VERTEX
 8
0
 10
0.025
 20
0.15
 30
2.52
 70
192
 0
VERTEX
 8
0
 10
0.885
 20
0.15
 30
2.105
 70
192
 0
VERTEX
 8
0
 10
0.885
 20
0.18
 30
2.52
 70
192
 0
VERTEX
 8
0
 10
0.885
 20
0.18
 30
2.105
 70
192
 0
VERTEX
 8
0
 10
0.035
 20
0.21
 30
2.51
 70
192
 0
VERTEX
 8
0
 10
0.035
 20
0.18
 30
2.51
 70
192
 0
VERTEX
 8
0
 10
0.035
 20
0.21
 30
2.115
 70
192
 0
VERTEX
 8
0
 10
0.2475
 20
0.18
 30
2.51
 70
192
 0
VERTEX
 8
0
 10
0.885
 20
0.15
 30
2.52
 70
192
 0
VERTEX
 8
0
 10
0.875
 20
0.18
 30
2.51
 70
192
 0
VERTEX
 8
0
 10
0.6625
 20
0.18
 30
2.115
 70
192
 0
VERTEX
 8
0
 10
0.875
 20
0.18
 30
2.115
 70
192
 0
VERTEX
 8
0
 10
0.46
 20
0.18
 30
2.115
 70
192
 0
VERTEX
 8
0
 10
0.45
 20
0.18
 30
2.115
 70
192
 0
VERTEX
 8
0
 10
0.45
 20
0.21
 30
2.115
 70
192
 0
VERTEX
 8
0
 10
0.2375
 20
0.18
 30
2.115
 70
192
 0
VERTEX
 8
0
 10
0.2375
 20
0.18
 30
2.51
 70
192
 0
VERTEX
 8
0
 10
0.2475
 20
0.21
 30
2.115
 70
192
 0
VERTEX
 8
0
 10
0.2475
 20
0.21
 30
2.51
 70
192
 0
VERTEX
 8
0
 10
0.2475
 20
0.18
 30
2.115
 70
192
 0
VERTEX
 8
0
 10
0.2375
 20
0.21
 30
2.51
 70
192
 0
VERTEX
 8
0
 10
0.2375
 20
0.21
 30
2.115
 70
192
 0
VERTEX
 8
0
 10
0.875
 20
0.21
 30
2.51
 70
192
 0
VERTEX
 8
0
 10
0.6725
 20
0.18
 30
2.115
 70
192
 0
VERTEX
 8
0
 10
0.875
 20
0.21
 30
2.115
 70
192
 0
VERTEX
 8
0
 10
0.6625
 20
0.21
 30
2.51
 70
192
 0
VERTEX
 8
0
 10
0.6625
 20
0.21
 30
2.115
 70
192
 0
VERTEX
 8
0
 10
0.6625
 20
0.18
 30
2.51
 70
192
 0
VERTEX
 8
0
 10
0.6725
 20
0.18
 30
2.51
 70
192
 0
VERTEX
 8
0
 10
0.46
 20
0.21
 30
2.115
 70
192
 0
VERTEX
 8
0
 10
0.45
 20
0.18
 30
2.51
 70
192
 0
VERTEX
 8
0
 10
0.455
 20
0.21
 30
2.52
 70
192
 0
VERTEX
 8
0
 10
0.45
 20
0.21
 30
2.51
 70
192
 0
VERTEX
 8
0
 10
0.6725
 20
0.21
 30
2.51
 70
192
 0
VERTEX
 8
0
 10
0.6725
 20
0.21
 30
2.115
 70
192
 0
VERTEX
 8
0
 10
0.46
 20
0.18
 30
2.51
 70
192
 0
VERTEX
 8
0
 10
0.46
 20
0.21
 30
2.51
 70
192
 0
VERTEX
 8
0
 10
0.012
 20
0.23
 30
2.068
 70
192
 0
VERTEX
 8
0
 10
0.898
 20
0.18
 30
0.075
 70
192
 0
VERTEX
 8
0
 10
0.898
 20
0.18
 30
2.068
 70
192
 0
VERTEX
 8
0
 10
0.012
 20
0.18
 30
2.068
 70
192
 0
VERTEX
 8
0
 10
0.898
 20
0.18
 30
0.027
 70
192
 0
VERTEX
 8
0
 10
0.012
 20
0.18
 30
0.027
 70
192
 0
VERTEX
 8
0
 10
0.012
 20
0.18
 30
0.075
 70
192
 0
VERTEX
 8
0
 10
0.898
 20
0.23
 30
0.027
 70
192
 0
VERTEX
 8
0
 10
0.883
 20
0.18
 30
0.027
 70
192
 0
VERTEX
 8
0
 10
0.027
 20
0.17
 30
0.075
 70
192
 0
VERTEX
 8
0
 10
0.027
 20
0.18
 30
0.027
 70
192
 0
VERTEX
 8
0
 10
0.883
 20
0.14
 30
0.027
 70
192
 0
VERTEX
 8
0
 10
0.027
 20
0.14
 30
0.027
 70
192
 0
VERTEX
 8
0
 10
0.545
 20
0.2
 30
0.58
 70
192
 0
VERTEX
 8
0
 10
0.545
 20
0.2
 30
0.265
 70
192
 0
VERTEX
 8
0
 10
0.545
 20
0.195
 30
0.58
 70
192
 0
VERTEX
 8
0
 10
0.545
 20
0.195
 30
0.265
 70
192
 0
VERTEX
 8
0
 10
0.515
 20
0.19
 30
0.235
 70
192
 0
VERTEX
 8
0
 10
0.775
 20
0.19
 30
0.235
 70
192
 0
VERTEX
 8
0
 10
0.745
 20
0.2
 30
0.58
 70
192
 0
VERTEX
 8
0
 10
0.745
 20
0.2
 30
0.265
 70
192
 0
VERTEX
 8
0
 10
0.745
 20
0.195
 30
0.265
 70
192
 0
VERTEX
 8
0
 10
0.745
 20
0.195
 30
0.58
 70
192
 0
VERTEX
 8
0
 10
0.515
 20
0.185
 30
0.235
 70
192
 0
VERTEX
 8
0
 10
0.515
 20
0.185
 30
0.61
 70
192
 0
VERTEX
 8
0
 10
0.775
 20
0.185
 30
0.235
 70
192
 0
VERTEX
 8
0
 10
0.775
 20
0.185
 30
0.61
 70
192
 0
VERTEX
 8
0
 10
0.515
 20
0.19
 30
0.61
 70
192
 0
VERTEX
 8
0
 10
0.775
 20
0.19
 30
0.61
 70
192
 0
VERTEX
 8
0
 10
0.505
 20
0.185
 30
0.62
 70
192
 0
VERTEX
 8
0
 10
0.505
 20
0.185
 30
0.225
 70
192
 0
VERTEX
 8
0
 10
0.785
 20
0.18
 30
0.225
 70
192
 0
VERTEX
 8
0
 10
0.785
 20
0.185
 30
0.225
 70
192
 0
VERTEX
 8
0
 10
0.505
 20
0.18
 30
0.225
 70
192
 0
VERTEX
 8
0
 10
0.505
 20
0.18
 30
0.62
 70
192
 0
VERTEX
 8
0
 10
0.785
 20
0.185
 30
0.62
 70
192
 0
VERTEX
 8
0
 10
0.405
 20
0.18
 30
0.225
 70
192
 0
VERTEX
 8
0
 10
0.785
 20
0.18
 30
0.62
 70
192
 0
VERTEX
 8
0
 10
0.027
 20
0.18
 30
0.075
 70
192
 0
VERTEX
 8
0
 10
0.883
 20
0.18
 30
0.075
 70
192
 0
VERTEX
 8
0
 10
0.125
 20
0.18
 30
0.82
 70
192
 0
VERTEX
 8
0
 10
0.785
 20
0.18
 30
0.82
 70
192
 0
VERTEX
 8
0
 10
0.405
 20
0.18
 30
0.62
 70
192
 0
VERTEX
 8
0
 10
0.405
 20
0.185
 30
0.62
 70
192
 0
VERTEX
 8
0
 10
0.405
 20
0.185
 30
0.225
 70
192
 0
VERTEX
 8
0
 10
0.883
 20
0.14
 30
0.045
 70
192
 0
VERTEX
 8
0
 10
0.883
 20
0.17
 30
0.075
 70
192
 0
VERTEX
 8
0
 10
0.125
 20
0.19
 30
0.82
 70
192
 0
VERTEX
 8
0
 10
0.785
 20
0.19
 30
0.82
 70
192
 0
VERTEX
 8
0
 10
0.125
 20
0.18
 30
1.895
 70
192
 0
VERTEX
 8
0
 10
0.125
 20
0.185
 30
0.225
 70
192
 0
VERTEX
 8
0
 10
0.125
 20
0.185
 30
0.62
 70
192
 0
VERTEX
 8
0
 10
0.125
 20
0.18
 30
0.62
 70
192
 0
VERTEX
 8
0
 10
0.125
 20
0.18
 30
0.225
 70
192
 0
VERTEX
 8
0
 10
0.027
 20
0.14
 30
0.045
 70
192
 0
VERTEX
 8
0
 10
0.351667046546936
 20
0.19
 30
0.83
 70
192
 0
VERTEX
 8
0
 10
0.558332860469818
 20
0.22
 30
0.83
 70
192
 0
VERTEX
 8
0
 10
0.351667046546936
 20
0.22
 30
0.83
 70
192
 0
VERTEX
 8
0
 10
0.135
 20
0.19
 30
1.185
 70
192
 0
VERTEX
 8
0
 10
0.135
 20
0.19
 30
1.53
 70
192
 0
VERTEX
 8
0
 10
0.785
 20
0.18
 30
1.895
 70
192
 0
VERTEX
 8
0
 10
0.125
 20
0.19
 30
1.895
 70
192
 0
VERTEX
 8
0
 10
0.785
 20
0.19
 30
1.895
 70
192
 0
VERTEX
 8
0
 10
0.395
 20
0.185
 30
0.61
 70
192
 0
VERTEX
 8
0
 10
0.135
 20
0.185
 30
0.61
 70
192
 0
VERTEX
 8
0
 10
0.135
 20
0.19
 30
0.61
 70
192
 0
VERTEX
 8
0
 10
0.395
 20
0.19
 30
0.235
 70
192
 0
VERTEX
 8
0
 10
0.395
 20
0.185
 30
0.235
 70
192
 0
VERTEX
 8
0
 10
0.558332860469818
 20
0.19
 30
1.175
 70
192
 0
VERTEX
 8
0
 10
0.558332860469818
 20
0.19
 30
0.83
 70
192
 0
VERTEX
 8
0
 10
0.125
 20
0.22
 30
0.82
 70
192
 0
VERTEX
 8
0
 10
0.351667046546936
 20
0.22
 30
1.175
 70
192
 0
VERTEX
 8
0
 10
0.351667046546936
 20
0.19
 30
1.175
 70
192
 0
VERTEX
 8
0
 10
0.135
 20
0.19
 30
0.83
 70
192
 0
VERTEX
 8
0
 10
0.135
 20
0.22
 30
1.185
 70
192
 0
VERTEX
 8
0
 10
0.135
 20
0.19
 30
1.54
 70
192
 0
VERTEX
 8
0
 10
0.351667046546936
 20
0.19
 30
1.885
 70
192
 0
VERTEX
 8
0
 10
0.558332860469818
 20
0.19
 30
1.885
 70
192
 0
VERTEX
 8
0
 10
0.775
 20
0.22
 30
1.53
 70
192
 0
VERTEX
 8
0
 10
0.775
 20
0.22
 30
1.185
 70
192
 0
VERTEX
 8
0
 10
0.775
 20
0.19
 30
1.175
 70
192
 0
VERTEX
 8
0
 10
0.135
 20
0.19
 30
0.235
 70
192
 0
VERTEX
 8
0
 10
0.135
 20
0.185
 30
0.235
 70
192
 0
VERTEX
 8
0
 10
0.395
 20
0.19
 30
0.61
 70
192
 0
VERTEX
 8
0
 10
0.365
 20
0.195
 30
0.58
 70
192
 0
VERTEX
 8
0
 10
0.365
 20
0.2
 30
0.58
 70
192
 0
VERTEX
 8
0
 10
0.365
 20
0.2
 30
0.265
 70
192
 0
VERTEX
 8
0
 10
0.568332850933075
 20
0.19
 30
1.175
 70
192
 0
VERTEX
 8
0
 10
0.568332850933075
 20
0.19
 30
0.83
 70
192
 0
VERTEX
 8
0
 10
0.775
 20
0.22
 30
0.83
 70
192
 0
VERTEX
 8
0
 10
0.775
 20
0.19
 30
0.83
 70
192
 0
VERTEX
 8
0
 10
0.558332860469818
 20
0.22
 30
1.175
 70
192
 0
VERTEX
 8
0
 10
0.568332850933075
 20
0.22
 30
0.83
 70
192
 0
VERTEX
 8
0
 10
0.785
 20
0.23
 30
0.82
 70
192
 0
VERTEX
 8
0
 10
0.125
 20
0.23
 30
0.82
 70
192
 0
VERTEX
 8
0
 10
0.341667085886002
 20
0.22
 30
0.83
 70
192
 0
VERTEX
 8
0
 10
0.351667046546936
 20
0.19
 30
1.185
 70
192
 0
VERTEX
 8
0
 10
0.341667085886002
 20
0.19
 30
0.83
 70
192
 0
VERTEX
 8
0
 10
0.341667085886002
 20
0.19
 30
1.175
 70
192
 0
VERTEX
 8
0
 10
0.341667085886002
 20
0.22
 30
1.175
 70
192
 0
VERTEX
 8
0
 10
0.135
 20
0.22
 30
0.83
 70
192
 0
VERTEX
 8
0
 10
0.341667085886002
 20
0.22
 30
1.185
 70
192
 0
VERTEX
 8
0
 10
0.135
 20
0.22
 30
1.53
 70
192
 0
VERTEX
 8
0
 10
0.341667085886002
 20
0.19
 30
1.53
 70
192
 0
VERTEX
 8
0
 10
0.341667085886002
 20
0.19
 30
1.885
 70
192
 0
VERTEX
 8
0
 10
0.558332860469818
 20
0.22
 30
1.885
 70
192
 0
VERTEX
 8
0
 10
0.775
 20
0.19
 30
1.185
 70
192
 0
VERTEX
 8
0
 10
0.775
 20
0.19
 30
1.53
 70
192
 0
VERTEX
 8
0
 10
0.775
 20
0.19
 30
1.885
 70
192
 0
VERTEX
 8
0
 10
0.165
 20
0.195
 30
0.58
 70
192
 0
VERTEX
 8
0
 10
0.365
 20
0.195
 30
0.265
 70
192
 0
VERTEX
 8
0
 10
0.568332850933075
 20
0.22
 30
1.175
 70
192
 0
VERTEX
 8
0
 10
0.775
 20
0.22
 30
1.175
 70
192
 0
VERTEX
 8
0
 10
0.351667046546936
 20
0.22
 30
1.185
 70
192
 0
VERTEX
 8
0
 10
0.558332860469818
 20
0.22
 30
1.185
 70
192
 0
VERTEX
 8
0
 10
0.125
 20
0.23
 30
1.895
 70
192
 0
VERTEX
 8
0
 10
0.785
 20
0.23
 30
1.895
 70
192
 0
VERTEX
 8
0
 10
0.785
 20
0.22
 30
0.82
 70
192
 0
VERTEX
 8
0
 10
0.351667046546936
 20
0.19
 30
1.53
 70
192
 0
VERTEX
 8
0
 10
0.135
 20
0.19
 30
1.175
 70
192
 0
VERTEX
 8
0
 10
0.341667085886002
 20
0.19
 30
1.185
 70
192
 0
VERTEX
 8
0
 10
0.135
 20
0.22
 30
1.175
 70
192
 0
VERTEX
 8
0
 10
0.341667085886002
 20
0.22
 30
1.53
 70
192
 0
VERTEX
 8
0
 10
0.135
 20
0.19
 30
1.885
 70
192
 0
VERTEX
 8
0
 10
0.341667085886002
 20
0.22
 30
1.54
 70
192
 0
VERTEX
 8
0
 10
0.135
 20
0.22
 30
1.54
 70
192
 0
VERTEX
 8
0
 10
0.351667046546936
 20
0.22
 30
1.54
 70
192
 0
VERTEX
 8
0
 10
0.351667046546936
 20
0.22
 30
1.885
 70
192
 0
VERTEX
 8
0
 10
0.568332850933075
 20
0.19
 30
1.53
 70
192
 0
VERTEX
 8
0
 10
0.568332850933075
 20
0.19
 30
1.185
 70
192
 0
VERTEX
 8
0
 10
0.568332850933075
 20
0.22
 30
1.185
 70
192
 0
VERTEX
 8
0
 10
0.568332850933075
 20
0.22
 30
1.53
 70
192
 0
VERTEX
 8
0
 10
0.568332850933075
 20
0.22
 30
1.54
 70
192
 0
VERTEX
 8
0
 10
0.775
 20
0.19
 30
1.54
 70
192
 0
VERTEX
 8
0
 10
0.775
 20
0.22
 30
1.54
 70
192
 0
VERTEX
 8
0
 10
0.165
 20
0.2
 30
0.58
 70
192
 0
VERTEX
 8
0
 10
0.165
 20
0.195
 30
0.265
 70
192
 0
VERTEX
 8
0
 10
0.165
 20
0.2
 30
0.265
 70
192
 0
VERTEX
 8
0
 10
0.558332860469818
 20
0.19
 30
1.185
 70
192
 0
VERTEX
 8
0
 10
0.558332860469818
 20
0.19
 30
1.53
 70
192
 0
VERTEX
 8
0
 10
0.405
 20
0.23
 30
0.225
 70
192
 0
VERTEX
 8
0
 10
0.505
 20
0.23
 30
0.225
 70
192
 0
VERTEX
 8
0
 10
0.125
 20
0.23
 30
0.62
 70
192
 0
VERTEX
 8
0
 10
0.785
 20
0.22
 30
1.895
 70
192
 0
VERTEX
 8
0
 10
0.125
 20
0.22
 30
1.895
 70
192
 0
VERTEX
 8
0
 10
0.898
 20
0.23
 30
2.068
 70
192
 0
VERTEX
 8
0
 10
0.135
 20
0.22
 30
1.885
 70
192
 0
VERTEX
 8
0
 10
0.341667085886002
 20
0.19
 30
1.54
 70
192
 0
VERTEX
 8
0
 10
0.341667085886002
 20
0.22
 30
1.885
 70
192
 0
VERTEX
 8
0
 10
0.558332860469818
 20
0.19
 30
1.54
 70
192
 0
VERTEX
 8
0
 10
0.351667046546936
 20
0.19
 30
1.54
 70
192
 0
VERTEX
 8
0
 10
0.558332860469818
 20
0.22
 30
1.54
 70
192
 0
VERTEX
 8
0
 10
0.568332850933075
 20
0.22
 30
1.885
 70
192
 0
VERTEX
 8
0
 10
0.568332850933075
 20
0.19
 30
1.54
 70
192
 0
VERTEX
 8
0
 10
0.568332850933075
 20
0.19
 30
1.885
 70
192
 0
VERTEX
 8
0
 10
0.775
 20
0.22
 30
1.885
 70
192
 0
VERTEX
 8
0
 10
0.558332860469818
 20
0.22
 30
1.53
 70
192
 0
VERTEX
 8
0
 10
0.351667046546936
 20
0.22
 30
1.53
 70
192
 0
VERTEX
 8
0
 10
0.405
 20
0.225
 30
0.62
 70
192
 0
VERTEX
 8
0
 10
0.405
 20
0.23
 30
0.62
 70
192
 0
VERTEX
 8
0
 10
0.012
 20
0.23
 30
0.027
 70
192
 0
VERTEX
 8
0
 10
0.125
 20
0.225
 30
0.62
 70
192
 0
VERTEX
 8
0
 10
0.785
 20
0.23
 30
0.62
 70
192
 0
VERTEX
 8
0
 10
0.785
 20
0.225
 30
0.62
 70
192
 0
VERTEX
 8
0
 10
0.505
 20
0.225
 30
0.62
 70
192
 0
VERTEX
 8
0
 10
0.505
 20
0.23
 30
0.62
 70
192
 0
VERTEX
 8
0
 10
0.405
 20
0.225
 30
0.225
 70
192
 0
VERTEX
 8
0
 10
0.515
 20
0.225
 30
0.235
 70
192
 0
VERTEX
 8
0
 10
0.505
 20
0.225
 30
0.225
 70
192
 0
VERTEX
 8
0
 10
0.125
 20
0.23
 30
0.225
 70
192
 0
VERTEX
 8
0
 10
0.785
 20
0.23
 30
0.225
 70
192
 0
VERTEX
 8
0
 10
0.135
 20
0.225
 30
0.235
 70
192
 0
VERTEX
 8
0
 10
0.125
 20
0.225
 30
0.225
 70
192
 0
VERTEX
 8
0
 10
0.395
 20
0.22
 30
0.61
 70
192
 0
VERTEX
 8
0
 10
0.395
 20
0.225
 30
0.61
 70
192
 0
VERTEX
 8
0
 10
0.515
 20
0.225
 30
0.61
 70
192
 0
VERTEX
 8
0
 10
0.785
 20
0.225
 30
0.225
 70
192
 0
VERTEX
 8
0
 10
0.775
 20
0.225
 30
0.235
 70
192
 0
VERTEX
 8
0
 10
0.775
 20
0.22
 30
0.61
 70
192
 0
VERTEX
 8
0
 10
0.775
 20
0.225
 30
0.61
 70
192
 0
VERTEX
 8
0
 10
0.395
 20
0.225
 30
0.235
 70
192
 0
VERTEX
 8
0
 10
0.395
 20
0.22
 30
0.235
 70
192
 0
VERTEX
 8
0
 10
0.365
 20
0.215
 30
0.265
 70
192
 0
VERTEX
 8
0
 10
0.515
 20
0.22
 30
0.235
 70
192
 0
VERTEX
 8
0
 10
0.135
 20
0.225
 30
0.61
 70
192
 0
VERTEX
 8
0
 10
0.135
 20
0.22
 30
0.61
 70
192
 0
VERTEX
 8
0
 10
0.135
 20
0.22
 30
0.235
 70
192
 0
VERTEX
 8
0
 10
0.365
 20
0.215
 30
0.58
 70
192
 0
VERTEX
 8
0
 10
0.165
 20
0.215
 30
0.58
 70
192
 0
VERTEX
 8
0
 10
0.775
 20
0.22
 30
0.235
 70
192
 0
VERTEX
 8
0
 10
0.515
 20
0.22
 30
0.61
 70
192
 0
VERTEX
 8
0
 10
0.365
 20
0.21
 30
0.58
 70
192
 0
VERTEX
 8
0
 10
0.545
 20
0.21
 30
0.58
 70
192
 0
VERTEX
 8
0
 10
0.545
 20
0.21
 30
0.265
 70
192
 0
VERTEX
 8
0
 10
0.545
 20
0.215
 30
0.58
 70
192
 0
VERTEX
 8
0
 10
0.745
 20
0.215
 30
0.58
 70
192
 0
VERTEX
 8
0
 10
0.165
 20
0.215
 30
0.265
 70
192
 0
VERTEX
 8
0
 10
0.165
 20
0.21
 30
0.265
 70
192
 0
VERTEX
 8
0
 10
0.365
 20
0.21
 30
0.265
 70
192
 0
VERTEX
 8
0
 10
0.165
 20
0.21
 30
0.58
 70
192
 0
VERTEX
 8
0
 10
0.745
 20
0.21
 30
0.58
 70
192
 0
VERTEX
 8
0
 10
0.745
 20
0.21
 30
0.265
 70
192
 0
VERTEX
 8
0
 10
0.745
 20
0.215
 30
0.265
 70
192
 0
VERTEX
 8
0
 10
0.545
 20
0.215
 30
0.265
 70
192
 0
VERTEX
 8
0
 10
0
 20
0.25
 30
0
 70
128
 71
4
 72
1
 73
12
 74
11
 0
VERTEX
 8
0
 10
0
 20
0.25
 30
0
 70
128
 71
4
 72
5
 73
1
 0
VERTEX
 8
0
 10
0
 20
0.25
 30
0
 70
128
 71
1
 72
2
 73
19
 74
12
 0
VERTEX
 8
0
 10
0
 20
0.25
 30
0
 70
128
 71
9
 72
11
 73
12
 0
VERTEX
 8
0
 10
0
 20
0.25
 30
0
 70
128
 71
25
 72
4
 73
11
 74
27
 0
VERTEX
 8
0
 10
0
 20
0.25
 30
0
 70
128
 71
3
 72
5
 73
4
 74
14
 0
VERTEX
 8
0
 10
0
 20
0.25
 30
0
 70
128
 71
15
 72
1
 73
5
 74
3
 0
VERTEX
 8
0
 10
0
 20
0.25
 30
0
 70
128
 71
1
 72
15
 73
6
 74
2
 0
VERTEX
 8
0
 10
0
 20
0.25
 30
0
 70
128
 71
2
 72
7
 73
31
 74
19
 0
VERTEX
 8
0
 10
0
 20
0.25
 30
0
 70
128
 71
19
 72
18
 73
8
 74
12
 0
VERTEX
 8
0
 10
0
 20
0.25
 30
0
 70
128
 71
9
 72
10
 73
20
 74
11
 0
VERTEX
 8
0
 10
0
 20
0.25
 30
0
 70
128
 71
12
 72
8
 73
10
 74
9
 0
VERTEX
 8
0
 10
0
 20
0.25
 30
0
 70
128
 71
25
 72
23
 73
4
 0
VERTEX
 8
0
 10
0
 20
0.25
 30
0
 70
128
 71
22
 72
27
 73
11
 0
VERTEX
 8
0
 10
0
 20
0.25
 30
0
 70
128
 71
32
 72
25
 73
27
 74
13
 0
VERTEX
 8
0
 10
0
 20
0.25
 30
0
 70
128
 71
14
 72
4
 73
23
 74
29
 0
VERTEX
 8
0
 10
0
 20
0.25
 30
0
 70
128
 71
3
 72
14
 73
20
 74
10
 0
VERTEX
 8
0
 10
0
 20
0.25
 30
0
 70
128
 71
15
 72
3
 73
10
 74
8
 0
VERTEX
 8
0
 10
0
 20
0.25
 30
0
 70
128
 71
38
 72
16
 73
2
 74
6
 0
VERTEX
 8
0
 10
0
 20
0.25
 30
0
 70
128
 71
6
 72
15
 73
8
 74
18
 0
VERTEX
 8
0
 10
0
 20
0.25
 30
0
 70
128
 71
2
 72
16
 73
7
 0
VERTEX
 8
0
 10
0
 20
0.25
 30
0
 70
128
 71
7
 72
42
 73
46
 74
31
 0
VERTEX
 8
0
 10
0
 20
0.25
 30
0
 70
128
 71
17
 72
19
 73
31
 0
VERTEX
 8
0
 10
0
 20
0.25
 30
0
 70
128
 71
17
 72
39
 73
18
 74
19
 0
VERTEX
 8
0
 10
0
 20
0.25
 30
0
 70
128
 71
11
 72
20
 73
21
 74
22
 0
VERTEX
 8
0
 10
0
 20
0.25
 30
0
 70
128
 71
29
 72
23
 73
25
 74
24
 0
VERTEX
 8
0
 10
0
 20
0.25
 30
0
 70
128
 71
22
 72
21
 73
33
 74
27
 0
VERTEX
 8
0
 10
0
 20
0.25
 30
0
 70
128
 71
24
 72
25
 73
32
 74
26
 0
VERTEX
 8
0
 10
0
 20
0.25
 30
0
 70
128
 71
27
 72
33
 73
34
 74
13
 0
VERTEX
 8
0
 10
0
 20
0.25
 30
0
 70
128
 71
51
 72
32
 73
13
 74
28
 0
VERTEX
 8
0
 10
0
 20
0.25
 30
0
 70
128
 71
14
 72
29
 73
21
 74
20
 0
VERTEX
 8
0
 10
0
 20
0.25
 30
0
 70
128
 71
30
 72
7
 73
16
 74
38
 0
VERTEX
 8
0
 10
0
 20
0.25
 30
0
 70
128
 71
38
 72
6
 73
18
 74
39
 0
VERTEX
 8
0
 10
0
 20
0.25
 30
0
 70
128
 71
7
 72
43
 73
42
 0
VERTEX
 8
0
 10
0
 20
0.25
 30
0
 70
128
 71
42
 72
57
 73
64
 74
46
 0
VERTEX
 8
0
 10
0
 20
0.25
 30
0
 70
128
 71
47
 72
31
 73
46
 0
VERTEX
 8
0
 10
0
 20
0.25
 30
0
 70
128
 71
31
 72
40
 73
39
 74
17
 0
VERTEX
 8
0
 10
0
 20
0.25
 30
0
 70
128
 71
29
 72
24
 73
33
 74
21
 0
VERTEX
 8
0
 10
0
 20
0.25
 30
0
 70
128
 71
26
 72
32
 73
49
 74
48
 0
VERTEX
 8
0
 10
0
 20
0.25
 30
0
 70
128
 71
24
 72
26
 73
34
 74
33
 0
VERTEX
 8
0
 10
0
 20
0.25
 30
0
 70
128
 71
13
 72
34
 73
35
 74
36
 0
VERTEX
 8
0
 10
0
 20
0.25
 30
0
 70
128
 71
51
 72
49
 73
32
 0
VERTEX
 8
0
 10
0
 20
0.25
 30
0
 70
128
 71
36
 72
28
 73
13
 0
VERTEX
 8
0
 10
0
 20
0.25
 30
0
 70
128
 71
37
 72
51
 73
28
 74
54
 0
VERTEX
 8
0
 10
0
 20
0.25
 30
0
 70
128
 71
56
 72
43
 73
7
 74
30
 0
VERTEX
 8
0
 10
0
 20
0.25
 30
0
 70
128
 71
30
 72
38
 73
39
 74
40
 0
VERTEX
 8
0
 10
0
 20
0.25
 30
0
 70
128
 71
41
 72
42
 73
43
 74
56
 0
VERTEX
 8
0
 10
0
 20
0.25
 30
0
 70
128
 71
58
 72
57
 73
42
 74
41
 0
VERTEX
 8
0
 10
0
 20
0.25
 30
0
 70
128
 71
57
 72
44
 73
87
 74
64
 0
VERTEX
 8
0
 10
0
 20
0.25
 30
0
 70
128
 71
64
 72
63
 73
59
 74
46
 0
VERTEX
 8
0
 10
0
 20
0.25
 30
0
 70
128
 71
47
 72
45
 73
40
 74
31
 0
VERTEX
 8
0
 10
0
 20
0.25
 30
0
 70
128
 71
46
 72
59
 73
45
 74
47
 0
VERTEX
 8
0
 10
0
 20
0.25
 30
0
 70
128
 71
48
 72
49
 73
51
 74
65
 0
VERTEX
 8
0
 10
0
 20
0.25
 30
0
 70
128
 71
26
 72
48
 73
35
 74
34
 0
VERTEX
 8
0
 10
0
 20
0.25
 30
0
 70
128
 71
36
 72
35
 73
52
 74
28
 0
VERTEX
 8
0
 10
0
 20
0.25
 30
0
 70
128
 71
50
 72
65
 73
51
 74
37
 0
VERTEX
 8
0
 10
0
 20
0.25
 30
0
 70
128
 71
52
 72
53
 73
54
 74
28
 0
VERTEX
 8
0
 10
0
 20
0.25
 30
0
 70
128
 71
94
 72
37
 73
54
 74
55
 0
VERTEX
 8
0
 10
0
 20
0.25
 30
0
 70
128
 71
56
 72
30
 73
40
 74
45
 0
VERTEX
 8
0
 10
0
 20
0.25
 30
0
 70
128
 71
41
 72
56
 73
45
 74
59
 0
VERTEX
 8
0
 10
0
 20
0.25
 30
0
 70
128
 71
79
 72
60
 73
57
 74
58
 0
VERTEX
 8
0
 10
0
 20
0.25
 30
0
 70
128
 71
58
 72
41
 73
59
 74
63
 0
VERTEX
 8
0
 10
0
 20
0.25
 30
0
 70
128
 71
57
 72
60
 73
44
 0
VERTEX
 8
0
 10
0
 20
0.25
 30
0
 70
128
 71
44
 72
82
 73
61
 74
87
 0
VERTEX
 8
0
 10
0
 20
0.25
 30
0
 70
128
 71
62
 72
64
 73
87
 0
VERTEX
 8
0
 10
0
 20
0.25
 30
0
 70
128
 71
62
 72
80
 73
63
 74
64
 0
VERTEX
 8
0
 10
0
 20
0.25
 30
0
 70
128
 71
48
 72
65
 73
52
 74
35
 0
VERTEX
 8
0
 10
0
 20
0.25
 30
0
 70
128
 71
65
 72
50
 73
53
 74
52
 0
VERTEX
 8
0
 10
0
 20
0.25
 30
0
 70
128
 71
66
 72
50
 73
37
 74
67
 0
VERTEX
 8
0
 10
0
 20
0.25
 30
0
 70
128
 71
53
 72
91
 73
68
 74
54
 0
VERTEX
 8
0
 10
0
 20
0.25
 30
0
 70
128
 71
67
 72
37
 73
94
 74
72
 0
VERTEX
 8
0
 10
0
 20
0.25
 30
0
 70
128
 71
54
 72
68
 73
69
 74
55
 0
VERTEX
 8
0
 10
0
 20
0.25
 30
0
 70
128
 71
75
 72
94
 73
55
 74
100
 0
VERTEX
 8
0
 10
0
 20
0.25
 30
0
 70
128
 71
78
 72
44
 73
60
 74
79
 0
VERTEX
 8
0
 10
0
 20
0.25
 30
0
 70
128
 71
79
 72
58
 73
63
 74
80
 0
VERTEX
 8
0
 10
0
 20
0.25
 30
0
 70
128
 71
44
 72
77
 73
82
 0
VERTEX
 8
0
 10
0
 20
0.25
 30
0
 70
128
 71
82
 72
70
 73
85
 74
61
 0
VERTEX
 8
0
 10
0
 20
0.25
 30
0
 70
128
 71
86
 72
87
 73
61
 0
VERTEX
 8
0
 10
0
 20
0.25
 30
0
 70
128
 71
87
 72
89
 73
80
 74
62
 0
VERTEX
 8
0
 10
0
 20
0.25
 30
0
 70
128
 71
50
 72
66
 73
91
 74
53
 0
VERTEX
 8
0
 10
0
 20
0.25
 30
0
 70
128
 71
90
 72
66
 73
67
 74
72
 0
VERTEX
 8
0
 10
0
 20
0.25
 30
0
 70
128
 71
91
 72
71
 73
69
 74
68
 0
VERTEX
 8
0
 10
0
 20
0.25
 30
0
 70
128
 71
93
 72
90
 73
72
 74
94
 0
VERTEX
 8
0
 10
0
 20
0.25
 30
0
 70
128
 71
71
 72
101
 73
55
 74
69
 0
VERTEX
 8
0
 10
0
 20
0.25
 30
0
 70
128
 71
75
 72
73
 73
94
 0
VERTEX
 8
0
 10
0
 20
0.25
 30
0
 70
128
 71
111
 72
100
 73
55
 0
VERTEX
 8
0
 10
0
 20
0.25
 30
0
 70
128
 71
74
 72
75
 73
100
 74
76
 0
VERTEX
 8
0
 10
0
 20
0.25
 30
0
 70
128
 71
83
 72
77
 73
44
 74
78
 0
VERTEX
 8
0
 10
0
 20
0.25
 30
0
 70
128
 71
78
 72
79
 73
116
 0
VERTEX
 8
0
 10
0
 20
0.25
 30
0
 70
128
 71
79
 72
80
 73
81
 74
116
 0
VERTEX
 8
0
 10
0
 20
0.25
 30
0
 70
128
 71
84
 72
82
 73
77
 74
83
 0
VERTEX
 8
0
 10
0
 20
0.25
 30
0
 70
128
 71
70
 72
82
 73
84
 74
122
 0
VERTEX
 8
0
 10
0
 20
0.25
 30
0
 70
128
 71
70
 72
103
 73
124
 74
85
 0
VERTEX
 8
0
 10
0
 20
0.25
 30
0
 70
128
 71
105
 72
107
 73
61
 74
85
 0
VERTEX
 8
0
 10
0
 20
0.25
 30
0
 70
128
 71
86
 72
88
 73
89
 74
87
 0
VERTEX
 8
0
 10
0
 20
0.25
 30
0
 70
128
 71
61
 72
107
 73
88
 74
86
 0
VERTEX
 8
0
 10
0
 20
0.25
 30
0
 70
128
 71
89
 72
81
 73
80
 0
VERTEX
 8
0
 10
0
 20
0.25
 30
0
 70
128
 71
66
 72
90
 73
71
 74
91
 0
VERTEX
 8
0
 10
0
 20
0.25
 30
0
 70
128
 71
90
 72
93
 73
101
 74
71
 0
VERTEX
 8
0
 10
0
 20
0.25
 30
0
 70
128
 71
92
 72
93
 73
94
 74
73
 0
VERTEX
 8
0
 10
0
 20
0.25
 30
0
 70
128
 71
101
 72
95
 73
111
 74
55
 0
VERTEX
 8
0
 10
0
 20
0.25
 30
0
 70
128
 71
73
 72
75
 73
96
 74
97
 0
VERTEX
 8
0
 10
0
 20
0.25
 30
0
 70
128
 71
100
 72
111
 73
98
 74
99
 0
VERTEX
 8
0
 10
0
 20
0.25
 30
0
 70
128
 71
75
 72
74
 73
135
 0
VERTEX
 8
0
 10
0
 20
0.25
 30
0
 70
128
 71
76
 72
100
 73
133
 0
VERTEX
 8
0
 10
0
 20
0.25
 30
0
 70
128
 71
93
 72
74
 73
76
 74
101
 0
VERTEX
 8
0
 10
0
 20
0.25
 30
0
 70
128
 71
78
 72
106
 73
108
 74
83
 0
VERTEX
 8
0
 10
0
 20
0.25
 30
0
 70
128
 71
106
 72
78
 73
116
 74
115
 0
VERTEX
 8
0
 10
0
 20
0.25
 30
0
 70
128
 71
116
 72
81
 73
117
 74
141
 0
VERTEX
 8
0
 10
0
 20
0.25
 30
0
 70
128
 71
83
 72
108
 73
104
 74
84
 0
VERTEX
 8
0
 10
0
 20
0.25
 30
0
 70
128
 71
84
 72
104
 73
120
 74
122
 0
VERTEX
 8
0
 10
0
 20
0.25
 30
0
 70
128
 71
102
 72
103
 73
70
 74
122
 0
VERTEX
 8
0
 10
0
 20
0.25
 30
0
 70
128
 71
123
 72
124
 73
103
 0
VERTEX
 8
0
 10
0
 20
0.25
 30
0
 70
128
 71
124
 72
125
 73
105
 74
85
 0
VERTEX
 8
0
 10
0
 20
0.25
 30
0
 70
128
 71
120
 72
104
 73
107
 74
105
 0
VERTEX
 8
0
 10
0
 20
0.25
 30
0
 70
128
 71
88
 72
108
 73
106
 74
89
 0
VERTEX
 8
0
 10
0
 20
0.25
 30
0
 70
128
 71
107
 72
104
 73
108
 74
88
 0
VERTEX
 8
0
 10
0
 20
0.25
 30
0
 70
128
 71
115
 72
81
 73
89
 74
106
 0
VERTEX
 8
0
 10
0
 20
0.25
 30
0
 70
128
 71
93
 72
92
 73
74
 0
VERTEX
 8
0
 10
0
 20
0.25
 30
0
 70
128
 71
92
 72
73
 73
109
 74
110
 0
VERTEX
 8
0
 10
0
 20
0.25
 30
0
 70
128
 71
95
 72
101
 73
76
 0
VERTEX
 8
0
 10
0
 20
0.25
 30
0
 70
128
 71
111
 72
95
 73
112
 74
129
 0
VERTEX
 8
0
 10
0
 20
0.25
 30
0
 70
128
 71
75
 72
130
 73
96
 0
VERTEX
 8
0
 10
0
 20
0.25
 30
0
 70
128
 71
96
 72
146
 73
149
 74
97
 0
VERTEX
 8
0
 10
0
 20
0.25
 30
0
 70
128
 71
109
 72
73
 73
97
 74
128
 0
VERTEX
 8
0
 10
0
 20
0.25
 30
0
 70
128
 71
111
 72
129
 73
113
 74
98
 0
VERTEX
 8
0
 10
0
 20
0.25
 30
0
 70
128
 71
152
 72
99
 73
98
 74
154
 0
VERTEX
 8
0
 10
0
 20
0.25
 30
0
 70
128
 71
133
 72
100
 73
99
 0
VERTEX
 8
0
 10
0
 20
0.25
 30
0
 70
128
 71
74
 72
114
 73
135
 0
VERTEX
 8
0
 10
0
 20
0.25
 30
0
 70
128
 71
135
 72
130
 73
75
 0
VERTEX
 8
0
 10
0
 20
0.25
 30
0
 70
128
 71
133
 72
142
 73
76
 0
VERTEX
 8
0
 10
0
 20
0.25
 30
0
 70
128
 71
115
 72
116
 73
119
 74
126
 0
VERTEX
 8
0
 10
0
 20
0.25
 30
0
 70
128
 71
139
 72
117
 73
81
 74
127
 0
VERTEX
 8
0
 10
0
 20
0.25
 30
0
 70
128
 71
140
 72
118
 73
141
 74
117
 0
VERTEX
 8
0
 10
0
 20
0.25
 30
0
 70
128
 71
119
 72
116
 73
141
 74
137
 0
VERTEX
 8
0
 10
0
 20
0.25
 30
0
 70
128
 71
120
 72
121
 73
102
 74
122
 0
VERTEX
 8
0
 10
0
 20
0.25
 30
0
 70
128
 71
123
 72
103
 73
102
 74
121
 0
VERTEX
 8
0
 10
0
 20
0.25
 30
0
 70
128
 71
124
 72
123
 73
121
 74
125
 0
VERTEX
 8
0
 10
0
 20
0.25
 30
0
 70
128
 71
121
 72
120
 73
105
 74
125
 0
VERTEX
 8
0
 10
0
 20
0.25
 30
0
 70
128
 71
126
 72
127
 73
81
 74
115
 0
VERTEX
 8
0
 10
0
 20
0.25
 30
0
 70
128
 71
110
 72
114
 73
74
 74
92
 0
VERTEX
 8
0
 10
0
 20
0.25
 30
0
 70
128
 71
109
 72
128
 73
136
 74
110
 0
VERTEX
 8
0
 10
0
 20
0.25
 30
0
 70
128
 71
142
 72
112
 73
95
 74
76
 0
VERTEX
 8
0
 10
0
 20
0.25
 30
0
 70
128
 71
113
 72
129
 73
112
 74
143
 0
VERTEX
 8
0
 10
0
 20
0.25
 30
0
 70
128
 71
96
 72
130
 73
135
 74
164
 0
VERTEX
 8
0
 10
0
 20
0.25
 30
0
 70
128
 71
96
 72
144
 73
146
 0
VERTEX
 8
0
 10
0
 20
0.25
 30
0
 70
128
 71
147
 72
149
 73
146
 74
170
 0
VERTEX
 8
0
 10
0
 20
0.25
 30
0
 70
128
 71
97
 72
149
 73
131
 0
VERTEX
 8
0
 10
0
 20
0.25
 30
0
 70
128
 71
128
 72
97
 73
165
 74
136
 0
VERTEX
 8
0
 10
0
 20
0.25
 30
0
 70
128
 71
98
 72
113
 73
143
 74
173
 0
VERTEX
 8
0
 10
0
 20
0.25
 30
0
 70
128
 71
152
 72
153
 73
99
 0
VERTEX
 8
0
 10
0
 20
0.25
 30
0
 70
128
 71
98
 72
132
 73
154
 0
VERTEX
 8
0
 10
0
 20
0.25
 30
0
 70
128
 71
154
 72
175
 73
156
 74
152
 0
VERTEX
 8
0
 10
0
 20
0.25
 30
0
 70
128
 71
133
 72
99
 73
171
 74
134
 0
VERTEX
 8
0
 10
0
 20
0.25
 30
0
 70
128
 71
135
 72
114
 73
110
 74
136
 0
VERTEX
 8
0
 10
0
 20
0.25
 30
0
 70
128
 71
133
 72
134
 73
142
 0
VERTEX
 8
0
 10
0
 20
0.25
 30
0
 70
128
 71
126
 72
119
 73
137
 74
138
 0
VERTEX
 8
0
 10
0
 20
0.25
 30
0
 70
128
 71
159
 72
117
 73
139
 74
138
 0
VERTEX
 8
0
 10
0
 20
0.25
 30
0
 70
128
 71
138
 72
139
 73
127
 74
126
 0
VERTEX
 8
0
 10
0
 20
0.25
 30
0
 70
128
 71
140
 72
161
 73
184
 74
118
 0
VERTEX
 8
0
 10
0
 20
0.25
 30
0
 70
128
 71
163
 72
141
 73
118
 0
VERTEX
 8
0
 10
0
 20
0.25
 30
0
 70
128
 71
158
 72
140
 73
117
 0
VERTEX
 8
0
 10
0
 20
0.25
 30
0
 70
128
 71
138
 72
137
 73
141
 74
159
 0
VERTEX
 8
0
 10
0
 20
0.25
 30
0
 70
128
 71
142
 72
134
 73
143
 74
112
 0
VERTEX
 8
0
 10
0
 20
0.25
 30
0
 70
128
 71
165
 72
164
 73
135
 74
136
 0
VERTEX
 8
0
 10
0
 20
0.25
 30
0
 70
128
 71
144
 72
96
 73
164
 74
145
 0
VERTEX
 8
0
 10
0
 20
0.25
 30
0
 70
128
 71
146
 72
144
 73
145
 74
148
 0
VERTEX
 8
0
 10
0
 20
0.25
 30
0
 70
128
 71
149
 72
147
 73
187
 74
168
 0
VERTEX
 8
0
 10
0
 20
0.25
 30
0
 70
128
 71
170
 72
146
 73
148
 74
167
 0
VERTEX
 8
0
 10
0
 20
0.25
 30
0
 70
128
 71
185
 72
147
 73
170
 74
169
 0
VERTEX
 8
0
 10
0
 20
0.25
 30
0
 70
128
 71
131
 72
149
 73
168
 74
150
 0
VERTEX
 8
0
 10
0
 20
0.25
 30
0
 70
128
 71
97
 72
131
 73
150
 74
165
 0
VERTEX
 8
0
 10
0
 20
0.25
 30
0
 70
128
 71
171
 72
173
 73
143
 74
134
 0
VERTEX
 8
0
 10
0
 20
0.25
 30
0
 70
128
 71
132
 72
98
 73
173
 74
151
 0
VERTEX
 8
0
 10
0
 20
0.25
 30
0
 70
128
 71
153
 72
152
 73
157
 74
172
 0
VERTEX
 8
0
 10
0
 20
0.25
 30
0
 70
128
 71
99
 72
153
 73
172
 74
171
 0
VERTEX
 8
0
 10
0
 20
0.25
 30
0
 70
128
 71
154
 72
132
 73
151
 74
155
 0
VERTEX
 8
0
 10
0
 20
0.25
 30
0
 70
128
 71
175
 72
154
 73
155
 74
176
 0
VERTEX
 8
0
 10
0
 20
0.25
 30
0
 70
128
 71
175
 72
174
 73
177
 74
156
 0
VERTEX
 8
0
 10
0
 20
0.25
 30
0
 70
128
 71
152
 72
156
 73
191
 74
157
 0
VERTEX
 8
0
 10
0
 20
0.25
 30
0
 70
128
 71
162
 72
158
 73
117
 74
159
 0
VERTEX
 8
0
 10
0
 20
0.25
 30
0
 70
128
 71
160
 72
161
 73
140
 0
VERTEX
 8
0
 10
0
 20
0.25
 30
0
 70
128
 71
161
 72
196
 73
181
 74
184
 0
VERTEX
 8
0
 10
0
 20
0.25
 30
0
 70
128
 71
182
 72
118
 73
184
 0
VERTEX
 8
0
 10
0
 20
0.25
 30
0
 70
128
 71
159
 72
141
 73
163
 74
162
 0
VERTEX
 8
0
 10
0
 20
0.25
 30
0
 70
128
 71
162
 72
163
 73
118
 74
179
 0
VERTEX
 8
0
 10
0
 20
0.25
 30
0
 70
128
 71
179
 72
140
 73
158
 74
162
 0
VERTEX
 8
0
 10
0
 20
0.25
 30
0
 70
128
 71
145
 72
164
 73
165
 74
150
 0
VERTEX
 8
0
 10
0
 20
0.25
 30
0
 70
128
 71
168
 72
148
 73
145
 74
150
 0
VERTEX
 8
0
 10
0
 20
0.25
 30
0
 70
128
 71
147
 72
185
 73
166
 74
187
 0
VERTEX
 8
0
 10
0
 20
0.25
 30
0
 70
128
 71
167
 72
148
 73
168
 74
187
 0
VERTEX
 8
0
 10
0
 20
0.25
 30
0
 70
128
 71
169
 72
170
 73
167
 74
188
 0
VERTEX
 8
0
 10
0
 20
0.25
 30
0
 70
128
 71
204
 72
202
 73
185
 74
169
 0
VERTEX
 8
0
 10
0
 20
0.25
 30
0
 70
128
 71
171
 72
172
 73
151
 74
173
 0
VERTEX
 8
0
 10
0
 20
0.25
 30
0
 70
128
 71
157
 72
155
 73
151
 74
172
 0
VERTEX
 8
0
 10
0
 20
0.25
 30
0
 70
128
 71
157
 72
191
 73
176
 74
155
 0
VERTEX
 8
0
 10
0
 20
0.25
 30
0
 70
128
 71
174
 72
175
 73
176
 74
192
 0
VERTEX
 8
0
 10
0
 20
0.25
 30
0
 70
128
 71
209
 72
212
 73
177
 74
174
 0
VERTEX
 8
0
 10
0
 20
0.25
 30
0
 70
128
 71
156
 72
177
 73
205
 74
191
 0
VERTEX
 8
0
 10
0
 20
0.25
 30
0
 70
128
 71
178
 72
161
 73
160
 74
183
 0
VERTEX
 8
0
 10
0
 20
0.25
 30
0
 70
128
 71
183
 72
160
 73
140
 74
179
 0
VERTEX
 8
0
 10
0
 20
0.25
 30
0
 70
128
 71
180
 72
196
 73
161
 74
178
 0
VERTEX
 8
0
 10
0
 20
0.25
 30
0
 70
128
 71
196
 72
195
 73
198
 74
181
 0
VERTEX
 8
0
 10
0
 20
0.25
 30
0
 70
128
 71
178
 72
184
 73
181
 74
180
 0
VERTEX
 8
0
 10
0
 20
0.25
 30
0
 70
128
 71
179
 72
118
 73
182
 74
183
 0
VERTEX
 8
0
 10
0
 20
0.25
 30
0
 70
128
 71
183
 72
182
 73
184
 74
178
 0
VERTEX
 8
0
 10
0
 20
0.25
 30
0
 70
128
 71
185
 72
186
 73
200
 74
166
 0
VERTEX
 8
0
 10
0
 20
0.25
 30
0
 70
128
 71
187
 72
166
 73
188
 74
167
 0
VERTEX
 8
0
 10
0
 20
0.25
 30
0
 70
128
 71
190
 72
169
 73
188
 74
201
 0
VERTEX
 8
0
 10
0
 20
0.25
 30
0
 70
128
 71
189
 72
202
 73
204
 74
218
 0
VERTEX
 8
0
 10
0
 20
0.25
 30
0
 70
128
 71
202
 72
186
 73
185
 0
VERTEX
 8
0
 10
0
 20
0.25
 30
0
 70
128
 71
169
 72
190
 73
204
 0
VERTEX
 8
0
 10
0
 20
0.25
 30
0
 70
128
 71
192
 72
176
 73
191
 74
205
 0
VERTEX
 8
0
 10
0
 20
0.25
 30
0
 70
128
 71
207
 72
174
 73
192
 74
193
 0
VERTEX
 8
0
 10
0
 20
0.25
 30
0
 70
128
 71
209
 72
208
 73
227
 74
212
 0
VERTEX
 8
0
 10
0
 20
0.25
 30
0
 70
128
 71
211
 72
177
 73
212
 0
VERTEX
 8
0
 10
0
 20
0.25
 30
0
 70
128
 71
207
 72
209
 73
174
 0
VERTEX
 8
0
 10
0
 20
0.25
 30
0
 70
128
 71
177
 72
211
 73
210
 74
205
 0
VERTEX
 8
0
 10
0
 20
0.25
 30
0
 70
128
 71
194
 72
213
 73
196
 74
180
 0
VERTEX
 8
0
 10
0
 20
0.25
 30
0
 70
128
 71
213
 72
195
 73
196
 0
VERTEX
 8
0
 10
0
 20
0.25
 30
0
 70
128
 71
195
 72
231
 73
197
 74
198
 0
VERTEX
 8
0
 10
0
 20
0.25
 30
0
 70
128
 71
199
 72
181
 73
198
 0
VERTEX
 8
0
 10
0
 20
0.25
 30
0
 70
128
 71
180
 72
181
 73
199
 74
194
 0
VERTEX
 8
0
 10
0
 20
0.25
 30
0
 70
128
 71
215
 72
200
 73
186
 74
202
 0
VERTEX
 8
0
 10
0
 20
0.25
 30
0
 70
128
 71
188
 72
166
 73
200
 74
201
 0
VERTEX
 8
0
 10
0
 20
0.25
 30
0
 70
128
 71
190
 72
201
 73
217
 74
204
 0
VERTEX
 8
0
 10
0
 20
0.25
 30
0
 70
128
 71
202
 72
189
 73
203
 74
215
 0
VERTEX
 8
0
 10
0
 20
0.25
 30
0
 70
128
 71
218
 72
204
 73
217
 74
216
 0
VERTEX
 8
0
 10
0
 20
0.25
 30
0
 70
128
 71
245
 72
189
 73
218
 74
248
 0
VERTEX
 8
0
 10
0
 20
0.25
 30
0
 70
128
 71
192
 72
205
 73
210
 74
193
 0
VERTEX
 8
0
 10
0
 20
0.25
 30
0
 70
128
 71
193
 72
206
 73
209
 74
207
 0
VERTEX
 8
0
 10
0
 20
0.25
 30
0
 70
128
 71
208
 72
209
 73
206
 74
222
 0
VERTEX
 8
0
 10
0
 20
0.25
 30
0
 70
128
 71
208
 72
255
 73
257
 74
227
 0
VERTEX
 8
0
 10
0
 20
0.25
 30
0
 70
128
 71
212
 72
227
 73
226
 74
223
 0
VERTEX
 8
0
 10
0
 20
0.25
 30
0
 70
128
 71
210
 72
211
 73
212
 74
223
 0
VERTEX
 8
0
 10
0
 20
0.25
 30
0
 70
128
 71
229
 72
195
 73
213
 74
194
 0
VERTEX
 8
0
 10
0
 20
0.25
 30
0
 70
128
 71
232
 72
231
 73
195
 74
214
 0
VERTEX
 8
0
 10
0
 20
0.25
 30
0
 70
128
 71
233
 72
197
 73
231
 74
235
 0
VERTEX
 8
0
 10
0
 20
0.25
 30
0
 70
128
 71
237
 72
198
 73
197
 74
238
 0
VERTEX
 8
0
 10
0
 20
0.25
 30
0
 70
128
 71
194
 72
199
 73
198
 74
229
 0
VERTEX
 8
0
 10
0
 20
0.25
 30
0
 70
128
 71
215
 72
217
 73
201
 74
200
 0
VERTEX
 8
0
 10
0
 20
0.25
 30
0
 70
128
 71
219
 72
240
 73
203
 74
189
 0
VERTEX
 8
0
 10
0
 20
0.25
 30
0
 70
128
 71
215
 72
203
 73
216
 74
217
 0
VERTEX
 8
0
 10
0
 20
0.25
 30
0
 70
128
 71
216
 72
242
 73
220
 74
218
 0
VERTEX
 8
0
 10
0
 20
0.25
 30
0
 70
128
 71
245
 72
244
 73
219
 74
189
 0
VERTEX
 8
0
 10
0
 20
0.25
 30
0
 70
128
 71
218
 72
220
 73
241
 74
248
 0
VERTEX
 8
0
 10
0
 20
0.25
 30
0
 70
128
 71
262
 72
245
 73
248
 74
221
 0
VERTEX
 8
0
 10
0
 20
0.25
 30
0
 70
128
 71
223
 72
206
 73
193
 74
210
 0
VERTEX
 8
0
 10
0
 20
0.25
 30
0
 70
128
 71
222
 72
206
 73
223
 74
226
 0
VERTEX
 8
0
 10
0
 20
0.25
 30
0
 70
128
 71
251
 72
224
 73
208
 74
222
 0
VERTEX
 8
0
 10
0
 20
0.25
 30
0
 70
128
 71
250
 72
255
 73
208
 74
224
 0
VERTEX
 8
0
 10
0
 20
0.25
 30
0
 70
128
 71
255
 72
254
 73
273
 74
257
 0
VERTEX
 8
0
 10
0
 20
0.25
 30
0
 70
128
 71
228
 72
227
 73
257
 74
259
 0
VERTEX
 8
0
 10
0
 20
0.25
 30
0
 70
128
 71
225
 72
226
 73
227
 74
228
 0
VERTEX
 8
0
 10
0
 20
0.25
 30
0
 70
128
 71
236
 72
214
 73
195
 74
229
 0
VERTEX
 8
0
 10
0
 20
0.25
 30
0
 70
128
 71
230
 72
231
 73
232
 74
239
 0
VERTEX
 8
0
 10
0
 20
0.25
 30
0
 70
128
 71
239
 72
232
 73
214
 74
236
 0
VERTEX
 8
0
 10
0
 20
0.25
 30
0
 70
128
 71
230
 72
197
 73
233
 74
234
 0
VERTEX
 8
0
 10
0
 20
0.25
 30
0
 70
128
 71
234
 72
235
 73
231
 74
230
 0
VERTEX
 8
0
 10
0
 20
0.25
 30
0
 70
128
 71
234
 72
233
 73
235
 0
VERTEX
 8
0
 10
0
 20
0.25
 30
0
 70
128
 71
229
 72
198
 73
237
 74
236
 0
VERTEX
 8
0
 10
0
 20
0.25
 30
0
 70
128
 71
239
 72
238
 73
197
 74
230
 0
VERTEX
 8
0
 10
0
 20
0.25
 30
0
 70
128
 71
236
 72
237
 73
238
 74
239
 0
VERTEX
 8
0
 10
0
 20
0.25
 30
0
 70
128
 71
244
 72
261
 73
240
 74
219
 0
VERTEX
 8
0
 10
0
 20
0.25
 30
0
 70
128
 71
216
 72
203
 73
240
 74
242
 0
VERTEX
 8
0
 10
0
 20
0.25
 30
0
 70
128
 71
241
 72
220
 73
242
 74
243
 0
VERTEX
 8
0
 10
0
 20
0.25
 30
0
 70
128
 71
247
 72
261
 73
244
 74
245
 0
VERTEX
 8
0
 10
0
 20
0.25
 30
0
 70
128
 71
241
 72
243
 73
246
 74
248
 0
VERTEX
 8
0
 10
0
 20
0.25
 30
0
 70
128
 71
245
 72
262
 73
264
 74
247
 0
VERTEX
 8
0
 10
0
 20
0.25
 30
0
 70
128
 71
221
 72
248
 73
246
 74
266
 0
VERTEX
 8
0
 10
0
 20
0.25
 30
0
 70
128
 71
275
 72
262
 73
221
 74
249
 0
VERTEX
 8
0
 10
0
 20
0.25
 30
0
 70
128
 71
222
 72
226
 73
225
 74
251
 0
VERTEX
 8
0
 10
0
 20
0.25
 30
0
 70
128
 71
252
 72
250
 73
224
 74
251
 0
VERTEX
 8
0
 10
0
 20
0.25
 30
0
 70
128
 71
252
 72
253
 73
255
 74
250
 0
VERTEX
 8
0
 10
0
 20
0.25
 30
0
 70
128
 71
253
 72
268
 73
254
 74
255
 0
VERTEX
 8
0
 10
0
 20
0.25
 30
0
 70
128
 71
254
 72
256
 73
281
 74
273
 0
VERTEX
 8
0
 10
0
 20
0.25
 30
0
 70
128
 71
257
 72
273
 73
269
 74
258
 0
VERTEX
 8
0
 10
0
 20
0.25
 30
0
 70
128
 71
260
 72
259
 73
257
 74
258
 0
VERTEX
 8
0
 10
0
 20
0.25
 30
0
 70
128
 71
228
 72
259
 73
260
 74
225
 0
VERTEX
 8
0
 10
0
 20
0.25
 30
0
 70
128
 71
261
 72
243
 73
242
 74
240
 0
VERTEX
 8
0
 10
0
 20
0.25
 30
0
 70
128
 71
247
 72
246
 73
243
 74
261
 0
VERTEX
 8
0
 10
0
 20
0.25
 30
0
 70
128
 71
262
 72
263
 73
274
 74
264
 0
VERTEX
 8
0
 10
0
 20
0.25
 30
0
 70
128
 71
247
 72
264
 73
266
 74
246
 0
VERTEX
 8
0
 10
0
 20
0.25
 30
0
 70
128
 71
265
 72
221
 73
266
 74
267
 0
VERTEX
 8
0
 10
0
 20
0.25
 30
0
 70
128
 71
275
 72
263
 73
262
 0
VERTEX
 8
0
 10
0
 20
0.25
 30
0
 70
128
 71
221
 72
265
 73
249
 0
VERTEX
 8
0
 10
0
 20
0.25
 30
0
 70
128
 71
276
 72
275
 73
249
 74
285
 0
VERTEX
 8
0
 10
0
 20
0.25
 30
0
 70
128
 71
260
 72
252
 73
251
 74
225
 0
VERTEX
 8
0
 10
0
 20
0.25
 30
0
 70
128
 71
258
 72
253
 73
252
 74
260
 0
VERTEX
 8
0
 10
0
 20
0.25
 30
0
 70
128
 71
268
 72
253
 73
258
 74
269
 0
VERTEX
 8
0
 10
0
 20
0.25
 30
0
 70
128
 71
268
 72
288
 73
270
 74
254
 0
VERTEX
 8
0
 10
0
 20
0.25
 30
0
 70
128
 71
270
 72
256
 73
254
 0
VERTEX
 8
0
 10
0
 20
0.25
 30
0
 70
128
 71
256
 72
289
 73
271
 74
281
 0
VERTEX
 8
0
 10
0
 20
0.25
 30
0
 70
128
 71
272
 72
273
 73
281
 0
VERTEX
 8
0
 10
0
 20
0.25
 30
0
 70
128
 71
273
 72
272
 73
282
 74
269
 0
VERTEX
 8
0
 10
0
 20
0.25
 30
0
 70
128
 71
263
 72
275
 73
283
 74
274
 0
VERTEX
 8
0
 10
0
 20
0.25
 30
0
 70
128
 71
267
 72
266
 73
264
 74
274
 0
VERTEX
 8
0
 10
0
 20
0.25
 30
0
 70
128
 71
249
 72
265
 73
267
 74
284
 0
VERTEX
 8
0
 10
0
 20
0.25
 30
0
 70
128
 71
275
 72
276
 73
277
 74
283
 0
VERTEX
 8
0
 10
0
 20
0.25
 30
0
 70
128
 71
285
 72
249
 73
284
 74
278
 0
VERTEX
 8
0
 10
0
 20
0.25
 30
0
 70
128
 71
292
 72
276
 73
285
 74
295
 0
VERTEX
 8
0
 10
0
 20
0.25
 30
0
 70
128
 71
288
 72
268
 73
269
 74
282
 0
VERTEX
 8
0
 10
0
 20
0.25
 30
0
 70
128
 71
256
 72
270
 73
288
 74
279
 0
VERTEX
 8
0
 10
0
 20
0.25
 30
0
 70
128
 71
289
 72
256
 73
279
 74
297
 0
VERTEX
 8
0
 10
0
 20
0.25
 30
0
 70
128
 71
289
 72
298
 73
280
 74
271
 0
VERTEX
 8
0
 10
0
 20
0.25
 30
0
 70
128
 71
281
 72
271
 73
291
 74
287
 0
VERTEX
 8
0
 10
0
 20
0.25
 30
0
 70
128
 71
272
 72
281
 73
287
 74
282
 0
VERTEX
 8
0
 10
0
 20
0.25
 30
0
 70
128
 71
284
 72
267
 73
274
 74
283
 0
VERTEX
 8
0
 10
0
 20
0.25
 30
0
 70
128
 71
292
 72
294
 73
277
 74
276
 0
VERTEX
 8
0
 10
0
 20
0.25
 30
0
 70
128
 71
278
 72
284
 73
283
 74
277
 0
VERTEX
 8
0
 10
0
 20
0.25
 30
0
 70
128
 71
295
 72
285
 73
278
 74
303
 0
VERTEX
 8
0
 10
0
 20
0.25
 30
0
 70
128
 71
302
 72
292
 73
295
 74
286
 0
VERTEX
 8
0
 10
0
 20
0.25
 30
0
 70
128
 71
282
 72
287
 73
279
 74
288
 0
VERTEX
 8
0
 10
0
 20
0.25
 30
0
 70
128
 71
287
 72
291
 73
297
 74
279
 0
VERTEX
 8
0
 10
0
 20
0.25
 30
0
 70
128
 71
299
 72
298
 73
289
 74
297
 0
VERTEX
 8
0
 10
0
 20
0.25
 30
0
 70
128
 71
298
 72
311
 73
290
 74
280
 0
VERTEX
 8
0
 10
0
 20
0.25
 30
0
 70
128
 71
271
 72
280
 73
296
 74
291
 0
VERTEX
 8
0
 10
0
 20
0.25
 30
0
 70
128
 71
292
 72
302
 73
293
 74
294
 0
VERTEX
 8
0
 10
0
 20
0.25
 30
0
 70
128
 71
303
 72
278
 73
277
 74
294
 0
VERTEX
 8
0
 10
0
 20
0.25
 30
0
 70
128
 71
286
 72
295
 73
303
 74
304
 0
VERTEX
 8
0
 10
0
 20
0.25
 30
0
 70
128
 71
308
 72
307
 73
302
 74
286
 0
VERTEX
 8
0
 10
0
 20
0.25
 30
0
 70
128
 71
291
 72
296
 73
299
 74
297
 0
VERTEX
 8
0
 10
0
 20
0.25
 30
0
 70
128
 71
311
 72
298
 73
299
 74
309
 0
VERTEX
 8
0
 10
0
 20
0.25
 30
0
 70
128
 71
300
 72
313
 73
290
 74
311
 0
VERTEX
 8
0
 10
0
 20
0.25
 30
0
 70
128
 71
280
 72
290
 73
301
 74
296
 0
VERTEX
 8
0
 10
0
 20
0.25
 30
0
 70
128
 71
315
 72
318
 73
293
 74
302
 0
VERTEX
 8
0
 10
0
 20
0.25
 30
0
 70
128
 71
294
 72
293
 73
304
 74
303
 0
VERTEX
 8
0
 10
0
 20
0.25
 30
0
 70
128
 71
304
 72
305
 73
306
 74
286
 0
VERTEX
 8
0
 10
0
 20
0.25
 30
0
 70
128
 71
317
 72
316
 73
307
 74
308
 0
VERTEX
 8
0
 10
0
 20
0.25
 30
0
 70
128
 71
307
 72
315
 73
302
 0
VERTEX
 8
0
 10
0
 20
0.25
 30
0
 70
128
 71
286
 72
306
 73
308
 0
VERTEX
 8
0
 10
0
 20
0.25
 30
0
 70
128
 71
309
 72
299
 73
296
 74
301
 0
VERTEX
 8
0
 10
0
 20
0.25
 30
0
 70
128
 71
319
 72
310
 73
311
 74
309
 0
VERTEX
 8
0
 10
0
 20
0.25
 30
0
 70
128
 71
320
 72
312
 73
313
 74
300
 0
VERTEX
 8
0
 10
0
 20
0.25
 30
0
 70
128
 71
314
 72
290
 73
313
 0
VERTEX
 8
0
 10
0
 20
0.25
 30
0
 70
128
 71
310
 72
300
 73
311
 0
VERTEX
 8
0
 10
0
 20
0.25
 30
0
 70
128
 71
321
 72
301
 73
290
 74
314
 0
VERTEX
 8
0
 10
0
 20
0.25
 30
0
 70
128
 71
315
 72
307
 73
316
 74
318
 0
VERTEX
 8
0
 10
0
 20
0.25
 30
0
 70
128
 71
304
 72
293
 73
318
 74
305
 0
VERTEX
 8
0
 10
0
 20
0.25
 30
0
 70
128
 71
308
 72
306
 73
305
 74
317
 0
VERTEX
 8
0
 10
0
 20
0.25
 30
0
 70
128
 71
318
 72
316
 73
317
 74
305
 0
VERTEX
 8
0
 10
0
 20
0.25
 30
0
 70
128
 71
309
 72
301
 73
321
 74
319
 0
VERTEX
 8
0
 10
0
 20
0.25
 30
0
 70
128
 71
300
 72
310
 73
319
 74
320
 0
VERTEX
 8
0
 10
0
 20
0.25
 30
0
 70
128
 71
320
 72
319
 73
321
 74
312
 0
VERTEX
 8
0
 10
0
 20
0.25
 30
0
 70
128
 71
314
 72
313
 73
312
 74
321
 0
VERTEX
 8
0
 10
0
 20
0.25
 30
0
 70
128
 71
327
 72
374
 73
363
 74
361
 0
VERTEX
 8
0
 10
0
 20
0.25
 30
0
 70
128
 71
374
 72
327
 73
322
 74
324
 0
VERTEX
 8
0
 10
0
 20
0.25
 30
0
 70
128
 71
326
 72
322
 73
327
 0
VERTEX
 8
0
 10
0
 20
0.25
 30
0
 70
128
 71
322
 72
328
 73
323
 74
324
 0
VERTEX
 8
0
 10
0
 20
0.25
 30
0
 70
128
 71
325
 72
374
 73
324
 0
VERTEX
 8
0
 10
0
 20
0.25
 30
0
 70
128
 71
331
 72
332
 73
322
 74
326
 0
VERTEX
 8
0
 10
0
 20
0.25
 30
0
 70
128
 71
326
 72
327
 73
383
 74
331
 0
VERTEX
 8
0
 10
0
 20
0.25
 30
0
 70
128
 71
332
 72
355
 73
328
 74
322
 0
VERTEX
 8
0
 10
0
 20
0.25
 30
0
 70
128
 71
337
 72
324
 73
323
 74
343
 0
VERTEX
 8
0
 10
0
 20
0.25
 30
0
 70
128
 71
330
 72
329
 73
374
 74
325
 0
VERTEX
 8
0
 10
0
 20
0.25
 30
0
 70
128
 71
324
 72
337
 73
330
 74
325
 0
VERTEX
 8
0
 10
0
 20
0.25
 30
0
 70
128
 71
331
 72
334
 73
336
 74
332
 0
VERTEX
 8
0
 10
0
 20
0.25
 30
0
 70
128
 71
383
 72
333
 73
334
 74
331
 0
VERTEX
 8
0
 10
0
 20
0.25
 30
0
 70
128
 71
332
 72
336
 73
335
 74
355
 0
VERTEX
 8
0
 10
0
 20
0.25
 30
0
 70
128
 71
343
 72
335
 73
336
 74
337
 0
VERTEX
 8
0
 10
0
 20
0.25
 30
0
 70
128
 71
330
 72
334
 73
333
 74
329
 0
VERTEX
 8
0
 10
0
 20
0.25
 30
0
 70
128
 71
337
 72
336
 73
334
 74
330
 0
VERTEX
 8
0
 10
0
 20
0.25
 30
0
 70
128
 71
355
 72
335
 73
338
 74
345
 0
VERTEX
 8
0
 10
0
 20
0.25
 30
0
 70
128
 71
342
 72
338
 73
335
 74
343
 0
VERTEX
 8
0
 10
0
 20
0.25
 30
0
 70
128
 71
345
 72
338
 73
339
 74
340
 0
VERTEX
 8
0
 10
0
 20
0.25
 30
0
 70
128
 71
355
 72
345
 73
350
 74
362
 0
VERTEX
 8
0
 10
0
 20
0.25
 30
0
 70
128
 71
341
 72
339
 73
338
 74
342
 0
VERTEX
 8
0
 10
0
 20
0.25
 30
0
 70
128
 71
342
 72
343
 73
344
 74
348
 0
VERTEX
 8
0
 10
0
 20
0.25
 30
0
 70
128
 71
340
 72
349
 73
350
 74
345
 0
VERTEX
 8
0
 10
0
 20
0.25
 30
0
 70
128
 71
350
 72
346
 73
358
 74
362
 0
VERTEX
 8
0
 10
0
 20
0.25
 30
0
 70
128
 71
347
 72
341
 73
342
 74
348
 0
VERTEX
 8
0
 10
0
 20
0.25
 30
0
 70
128
 71
344
 72
358
 73
346
 74
348
 0
VERTEX
 8
0
 10
0
 20
0.25
 30
0
 70
128
 71
349
 72
423
 73
346
 74
350
 0
VERTEX
 8
0
 10
0
 20
0.25
 30
0
 70
128
 71
348
 72
346
 73
423
 74
347
 0
VERTEX
 8
0
 10
0
 20
0.25
 30
0
 70
128
 71
343
 72
323
 73
353
 74
351
 0
VERTEX
 8
0
 10
0
 20
0.25
 30
0
 70
128
 71
354
 72
353
 73
323
 74
328
 0
VERTEX
 8
0
 10
0
 20
0.25
 30
0
 70
128
 71
353
 72
359
 73
356
 74
351
 0
VERTEX
 8
0
 10
0
 20
0.25
 30
0
 70
128
 71
343
 72
351
 73
352
 74
344
 0
VERTEX
 8
0
 10
0
 20
0.25
 30
0
 70
128
 71
353
 72
354
 73
360
 74
359
 0
VERTEX
 8
0
 10
0
 20
0.25
 30
0
 70
128
 71
371
 72
354
 73
328
 74
355
 0
VERTEX
 8
0
 10
0
 20
0.25
 30
0
 70
128
 71
366
 72
365
 73
356
 74
359
 0
VERTEX
 8
0
 10
0
 20
0.25
 30
0
 70
128
 71
352
 72
351
 73
356
 74
378
 0
VERTEX
 8
0
 10
0
 20
0.25
 30
0
 70
128
 71
352
 72
357
 73
358
 74
344
 0
VERTEX
 8
0
 10
0
 20
0.25
 30
0
 70
128
 71
370
 72
360
 73
354
 74
371
 0
VERTEX
 8
0
 10
0
 20
0.25
 30
0
 70
128
 71
359
 72
360
 73
361
 74
363
 0
VERTEX
 8
0
 10
0
 20
0.25
 30
0
 70
128
 71
372
 72
371
 73
355
 74
362
 0
VERTEX
 8
0
 10
0
 20
0.25
 30
0
 70
128
 71
363
 72
364
 73
365
 74
366
 0
VERTEX
 8
0
 10
0
 20
0.25
 30
0
 70
128
 71
367
 72
356
 73
365
 0
VERTEX
 8
0
 10
0
 20
0.25
 30
0
 70
128
 71
366
 72
359
 73
363
 0
VERTEX
 8
0
 10
0
 20
0.25
 30
0
 70
128
 71
378
 72
356
 73
367
 74
375
 0
VERTEX
 8
0
 10
0
 20
0.25
 30
0
 70
128
 71
378
 72
377
 73
357
 74
352
 0
VERTEX
 8
0
 10
0
 20
0.25
 30
0
 70
128
 71
362
 72
358
 73
357
 74
372
 0
VERTEX
 8
0
 10
0
 20
0.25
 30
0
 70
128
 71
360
 72
370
 73
368
 74
373
 0
VERTEX
 8
0
 10
0
 20
0.25
 30
0
 70
128
 71
369
 72
370
 73
371
 74
372
 0
VERTEX
 8
0
 10
0
 20
0.25
 30
0
 70
128
 71
373
 72
361
 73
360
 0
VERTEX
 8
0
 10
0
 20
0.25
 30
0
 70
128
 71
329
 72
364
 73
363
 74
374
 0
VERTEX
 8
0
 10
0
 20
0.25
 30
0
 70
128
 71
367
 72
365
 73
364
 74
382
 0
VERTEX
 8
0
 10
0
 20
0.25
 30
0
 70
128
 71
375
 72
367
 73
382
 74
392
 0
VERTEX
 8
0
 10
0
 20
0.25
 30
0
 70
128
 71
375
 72
376
 73
377
 74
378
 0
VERTEX
 8
0
 10
0
 20
0.25
 30
0
 70
128
 71
372
 72
357
 73
377
 74
369
 0
VERTEX
 8
0
 10
0
 20
0.25
 30
0
 70
128
 71
379
 72
368
 73
370
 0
VERTEX
 8
0
 10
0
 20
0.25
 30
0
 70
128
 71
373
 72
368
 73
380
 74
361
 0
VERTEX
 8
0
 10
0
 20
0.25
 30
0
 70
128
 71
384
 72
379
 73
370
 74
369
 0
VERTEX
 8
0
 10
0
 20
0.25
 30
0
 70
128
 71
329
 72
333
 73
381
 74
364
 0
VERTEX
 8
0
 10
0
 20
0.25
 30
0
 70
128
 71
364
 72
381
 73
385
 74
382
 0
VERTEX
 8
0
 10
0
 20
0.25
 30
0
 70
128
 71
387
 72
389
 73
392
 74
382
 0
VERTEX
 8
0
 10
0
 20
0.25
 30
0
 70
128
 71
392
 72
391
 73
376
 74
375
 0
VERTEX
 8
0
 10
0
 20
0.25
 30
0
 70
128
 71
369
 72
377
 73
376
 74
384
 0
VERTEX
 8
0
 10
0
 20
0.25
 30
0
 70
128
 71
393
 72
380
 73
368
 74
379
 0
VERTEX
 8
0
 10
0
 20
0.25
 30
0
 70
128
 71
383
 72
327
 73
361
 74
380
 0
VERTEX
 8
0
 10
0
 20
0.25
 30
0
 70
128
 71
400
 72
393
 73
379
 74
384
 0
VERTEX
 8
0
 10
0
 20
0.25
 30
0
 70
128
 71
380
 72
381
 73
333
 74
383
 0
VERTEX
 8
0
 10
0
 20
0.25
 30
0
 70
128
 71
393
 72
385
 73
381
 74
380
 0
VERTEX
 8
0
 10
0
 20
0.25
 30
0
 70
128
 71
382
 72
385
 73
386
 74
387
 0
VERTEX
 8
0
 10
0
 20
0.25
 30
0
 70
128
 71
397
 72
389
 73
387
 74
388
 0
VERTEX
 8
0
 10
0
 20
0.25
 30
0
 70
128
 71
389
 72
390
 73
391
 74
392
 0
VERTEX
 8
0
 10
0
 20
0.25
 30
0
 70
128
 71
384
 72
376
 73
391
 74
400
 0
VERTEX
 8
0
 10
0
 20
0.25
 30
0
 70
128
 71
393
 72
400
 73
394
 74
395
 0
VERTEX
 8
0
 10
0
 20
0.25
 30
0
 70
128
 71
395
 72
386
 73
385
 74
393
 0
VERTEX
 8
0
 10
0
 20
0.25
 30
0
 70
128
 71
386
 72
411
 73
407
 74
387
 0
VERTEX
 8
0
 10
0
 20
0.25
 30
0
 70
128
 71
397
 72
408
 73
389
 0
VERTEX
 8
0
 10
0
 20
0.25
 30
0
 70
128
 71
388
 72
387
 73
407
 0
VERTEX
 8
0
 10
0
 20
0.25
 30
0
 70
128
 71
396
 72
397
 73
388
 74
398
 0
VERTEX
 8
0
 10
0
 20
0.25
 30
0
 70
128
 71
408
 72
399
 73
390
 74
389
 0
VERTEX
 8
0
 10
0
 20
0.25
 30
0
 70
128
 71
400
 72
391
 73
390
 74
394
 0
VERTEX
 8
0
 10
0
 20
0.25
 30
0
 70
128
 71
395
 72
394
 73
401
 74
403
 0
VERTEX
 8
0
 10
0
 20
0.25
 30
0
 70
128
 71
415
 72
402
 73
386
 74
395
 0
VERTEX
 8
0
 10
0
 20
0.25
 30
0
 70
128
 71
405
 72
411
 73
386
 0
VERTEX
 8
0
 10
0
 20
0.25
 30
0
 70
128
 71
399
 72
408
 73
407
 74
411
 0
VERTEX
 8
0
 10
0
 20
0.25
 30
0
 70
128
 71
408
 72
397
 73
396
 74
412
 0
VERTEX
 8
0
 10
0
 20
0.25
 30
0
 70
128
 71
388
 72
407
 73
413
 74
398
 0
VERTEX
 8
0
 10
0
 20
0.25
 30
0
 70
128
 71
347
 72
396
 73
398
 74
341
 0
VERTEX
 8
0
 10
0
 20
0.25
 30
0
 70
128
 71
422
 72
390
 73
399
 0
VERTEX
 8
0
 10
0
 20
0.25
 30
0
 70
128
 71
394
 72
390
 73
419
 74
420
 0
VERTEX
 8
0
 10
0
 20
0.25
 30
0
 70
128
 71
401
 72
394
 73
420
 0
VERTEX
 8
0
 10
0
 20
0.25
 30
0
 70
128
 71
401
 72
414
 73
416
 74
403
 0
VERTEX
 8
0
 10
0
 20
0.25
 30
0
 70
128
 71
403
 72
415
 73
395
 0
VERTEX
 8
0
 10
0
 20
0.25
 30
0
 70
128
 71
420
 72
419
 73
402
 74
415
 0
VERTEX
 8
0
 10
0
 20
0.25
 30
0
 70
128
 71
404
 72
386
 73
402
 0
VERTEX
 8
0
 10
0
 20
0.25
 30
0
 70
128
 71
411
 72
405
 73
406
 74
409
 0
VERTEX
 8
0
 10
0
 20
0.25
 30
0
 70
128
 71
404
 72
405
 73
386
 0
VERTEX
 8
0
 10
0
 20
0.25
 30
0
 70
128
 71
412
 72
413
 73
407
 74
408
 0
VERTEX
 8
0
 10
0
 20
0.25
 30
0
 70
128
 71
409
 72
410
 73
399
 74
411
 0
VERTEX
 8
0
 10
0
 20
0.25
 30
0
 70
128
 71
396
 72
347
 73
412
 0
VERTEX
 8
0
 10
0
 20
0.25
 30
0
 70
128
 71
398
 72
413
 73
341
 0
VERTEX
 8
0
 10
0
 20
0.25
 30
0
 70
128
 71
422
 72
427
 73
390
 0
VERTEX
 8
0
 10
0
 20
0.25
 30
0
 70
128
 71
422
 72
399
 73
410
 74
424
 0
VERTEX
 8
0
 10
0
 20
0.25
 30
0
 70
128
 71
427
 72
419
 73
390
 0
VERTEX
 8
0
 10
0
 20
0.25
 30
0
 70
128
 71
420
 72
425
 73
414
 74
401
 0
VERTEX
 8
0
 10
0
 20
0.25
 30
0
 70
128
 71
349
 72
340
 73
416
 74
414
 0
VERTEX
 8
0
 10
0
 20
0.25
 30
0
 70
128
 71
426
 72
415
 73
403
 74
416
 0
VERTEX
 8
0
 10
0
 20
0.25
 30
0
 70
128
 71
417
 72
418
 73
402
 74
419
 0
VERTEX
 8
0
 10
0
 20
0.25
 30
0
 70
128
 71
426
 72
425
 73
420
 74
415
 0
VERTEX
 8
0
 10
0
 20
0.25
 30
0
 70
128
 71
404
 72
402
 73
418
 74
421
 0
VERTEX
 8
0
 10
0
 20
0.25
 30
0
 70
128
 71
424
 72
406
 73
405
 74
422
 0
VERTEX
 8
0
 10
0
 20
0.25
 30
0
 70
128
 71
406
 72
339
 73
409
 0
VERTEX
 8
0
 10
0
 20
0.25
 30
0
 70
128
 71
427
 72
422
 73
405
 74
404
 0
VERTEX
 8
0
 10
0
 20
0.25
 30
0
 70
128
 71
412
 72
410
 73
409
 74
413
 0
VERTEX
 8
0
 10
0
 20
0.25
 30
0
 70
128
 71
347
 72
423
 73
410
 74
412
 0
VERTEX
 8
0
 10
0
 20
0.25
 30
0
 70
128
 71
413
 72
409
 73
339
 74
341
 0
VERTEX
 8
0
 10
0
 20
0.25
 30
0
 70
128
 71
410
 72
423
 73
424
 0
VERTEX
 8
0
 10
0
 20
0.25
 30
0
 70
128
 71
419
 72
427
 73
428
 74
417
 0
VERTEX
 8
0
 10
0
 20
0.25
 30
0
 70
128
 71
414
 72
425
 73
349
 0
VERTEX
 8
0
 10
0
 20
0.25
 30
0
 70
128
 71
416
 72
340
 73
426
 0
VERTEX
 8
0
 10
0
 20
0.25
 30
0
 70
128
 71
417
 72
425
 73
426
 74
418
 0
VERTEX
 8
0
 10
0
 20
0.25
 30
0
 70
128
 71
418
 72
339
 73
421
 0
VERTEX
 8
0
 10
0
 20
0.25
 30
0
 70
128
 71
421
 72
428
 73
427
 74
404
 0
VERTEX
 8
0
 10
0
 20
0.25
 30
0
 70
128
 71
424
 72
428
 73
421
 74
406
 0
VERTEX
 8
0
 10
0
 20
0.25
 30
0
 70
128
 71
421
 72
339
 73
406
 0
VERTEX
 8
0
 10
0
 20
0.25
 30
0
 70
128
 71
424
 72
423
 73
428
 0
VERTEX
 8
0
 10
0
 20
0.25
 30
0
 70
128
 71
428
 72
423
 73
417
 0
VERTEX
 8
0
 10
0
 20
0.25
 30
0
 70
128
 71
425
 72
417
 73
423
 74
349
 0
VERTEX
 8
0
 10
0
 20
0.25
 30
0
 70
128
 71
340
 72
339
 73
418
 74
426
 0
VERTEX
 8
0
 10
0
 20
0.25
 30
0
 70
128
 71
431
 72
574
 73
429
 74
432
 0
VERTEX
 8
0
 10
0
 20
0.25
 30
0
 70
128
 71
430
 72
436
 73
574
 74
431
 0
VERTEX
 8
0
 10
0
 20
0.25
 30
0
 70
128
 71
589
 72
435
 73
432
 74
429
 0
VERTEX
 8
0
 10
0
 20
0.25
 30
0
 70
128
 71
433
 72
436
 73
430
 0
VERTEX
 8
0
 10
0
 20
0.25
 30
0
 70
128
 71
589
 72
434
 73
435
 0
VERTEX
 8
0
 10
0
 20
0.25
 30
0
 70
128
 71
436
 72
433
 73
437
 0
VERTEX
 8
0
 10
0
 20
0.25
 30
0
 70
128
 71
468
 72
437
 73
433
 74
430
 0
VERTEX
 8
0
 10
0
 20
0.25
 30
0
 70
128
 71
434
 72
589
 73
439
 0
VERTEX
 8
0
 10
0
 20
0.25
 30
0
 70
128
 71
435
 72
434
 73
439
 74
467
 0
VERTEX
 8
0
 10
0
 20
0.25
 30
0
 70
128
 71
589
 72
436
 73
437
 74
439
 0
VERTEX
 8
0
 10
0
 20
0.25
 30
0
 70
128
 71
475
 72
474
 73
437
 74
468
 0
VERTEX
 8
0
 10
0
 20
0.25
 30
0
 70
128
 71
467
 72
439
 73
483
 74
438
 0
VERTEX
 8
0
 10
0
 20
0.25
 30
0
 70
128
 71
441
 72
439
 73
437
 74
440
 0
VERTEX
 8
0
 10
0
 20
0.25
 30
0
 70
128
 71
440
 72
437
 73
474
 0
VERTEX
 8
0
 10
0
 20
0.25
 30
0
 70
128
 71
441
 72
483
 73
439
 0
VERTEX
 8
0
 10
0
 20
0.25
 30
0
 70
128
 71
449
 72
443
 73
445
 74
450
 0
VERTEX
 8
0
 10
0
 20
0.25
 30
0
 70
128
 71
449
 72
448
 73
442
 74
443
 0
VERTEX
 8
0
 10
0
 20
0.25
 30
0
 70
128
 71
442
 72
444
 73
445
 74
443
 0
VERTEX
 8
0
 10
0
 20
0.25
 30
0
 70
128
 71
450
 72
445
 73
446
 74
447
 0
VERTEX
 8
0
 10
0
 20
0.25
 30
0
 70
128
 71
451
 72
448
 73
449
 74
450
 0
VERTEX
 8
0
 10
0
 20
0.25
 30
0
 70
128
 71
451
 72
444
 73
442
 74
448
 0
VERTEX
 8
0
 10
0
 20
0.25
 30
0
 70
128
 71
445
 72
444
 73
456
 74
446
 0
VERTEX
 8
0
 10
0
 20
0.25
 30
0
 70
128
 71
447
 72
446
 73
452
 74
454
 0
VERTEX
 8
0
 10
0
 20
0.25
 30
0
 70
128
 71
447
 72
457
 73
451
 74
450
 0
VERTEX
 8
0
 10
0
 20
0.25
 30
0
 70
128
 71
457
 72
456
 73
444
 74
451
 0
VERTEX
 8
0
 10
0
 20
0.25
 30
0
 70
128
 71
446
 72
456
 73
453
 74
452
 0
VERTEX
 8
0
 10
0
 20
0.25
 30
0
 70
128
 71
461
 72
454
 73
452
 74
459
 0
VERTEX
 8
0
 10
0
 20
0.25
 30
0
 70
128
 71
454
 72
455
 73
457
 74
447
 0
VERTEX
 8
0
 10
0
 20
0.25
 30
0
 70
128
 71
455
 72
453
 73
456
 74
457
 0
VERTEX
 8
0
 10
0
 20
0.25
 30
0
 70
128
 71
458
 72
459
 73
452
 74
453
 0
VERTEX
 8
0
 10
0
 20
0.25
 30
0
 70
128
 71
461
 72
464
 73
455
 74
454
 0
VERTEX
 8
0
 10
0
 20
0.25
 30
0
 70
128
 71
461
 72
459
 73
462
 74
460
 0
VERTEX
 8
0
 10
0
 20
0.25
 30
0
 70
128
 71
453
 72
455
 73
464
 74
458
 0
VERTEX
 8
0
 10
0
 20
0.25
 30
0
 70
128
 71
459
 72
458
 73
463
 74
462
 0
VERTEX
 8
0
 10
0
 20
0.25
 30
0
 70
128
 71
460
 72
466
 73
464
 74
461
 0
VERTEX
 8
0
 10
0
 20
0.25
 30
0
 70
128
 71
468
 72
430
 73
460
 74
462
 0
VERTEX
 8
0
 10
0
 20
0.25
 30
0
 70
128
 71
466
 72
463
 73
458
 74
464
 0
VERTEX
 8
0
 10
0
 20
0.25
 30
0
 70
128
 71
462
 72
463
 73
471
 74
465
 0
VERTEX
 8
0
 10
0
 20
0.25
 30
0
 70
128
 71
466
 72
460
 73
430
 0
VERTEX
 8
0
 10
0
 20
0.25
 30
0
 70
128
 71
467
 72
468
 73
462
 74
465
 0
VERTEX
 8
0
 10
0
 20
0.25
 30
0
 70
128
 71
463
 72
466
 73
470
 0
VERTEX
 8
0
 10
0
 20
0.25
 30
0
 70
128
 71
470
 72
469
 73
471
 74
463
 0
VERTEX
 8
0
 10
0
 20
0.25
 30
0
 70
128
 71
465
 72
471
 73
472
 74
473
 0
VERTEX
 8
0
 10
0
 20
0.25
 30
0
 70
128
 71
466
 72
430
 73
431
 74
470
 0
VERTEX
 8
0
 10
0
 20
0.25
 30
0
 70
128
 71
438
 72
475
 73
468
 74
467
 0
VERTEX
 8
0
 10
0
 20
0.25
 30
0
 70
128
 71
467
 72
465
 73
482
 74
435
 0
VERTEX
 8
0
 10
0
 20
0.25
 30
0
 70
128
 71
477
 72
476
 73
469
 74
470
 0
VERTEX
 8
0
 10
0
 20
0.25
 30
0
 70
128
 71
471
 72
469
 73
481
 0
VERTEX
 8
0
 10
0
 20
0.25
 30
0
 70
128
 71
471
 72
481
 73
480
 74
472
 0
VERTEX
 8
0
 10
0
 20
0.25
 30
0
 70
128
 71
492
 72
496
 73
473
 74
472
 0
VERTEX
 8
0
 10
0
 20
0.25
 30
0
 70
128
 71
473
 72
479
 73
482
 74
465
 0
VERTEX
 8
0
 10
0
 20
0.25
 30
0
 70
128
 71
431
 72
489
 73
470
 0
VERTEX
 8
0
 10
0
 20
0.25
 30
0
 70
128
 71
483
 72
474
 73
475
 74
438
 0
VERTEX
 8
0
 10
0
 20
0.25
 30
0
 70
128
 71
482
 72
481
 73
435
 0
VERTEX
 8
0
 10
0
 20
0.25
 30
0
 70
128
 71
476
 72
477
 73
498
 74
484
 0
VERTEX
 8
0
 10
0
 20
0.25
 30
0
 70
128
 71
478
 72
469
 73
476
 74
490
 0
VERTEX
 8
0
 10
0
 20
0.25
 30
0
 70
128
 71
470
 72
489
 73
491
 74
477
 0
VERTEX
 8
0
 10
0
 20
0.25
 30
0
 70
128
 71
432
 72
435
 73
481
 74
469
 0
VERTEX
 8
0
 10
0
 20
0.25
 30
0
 70
128
 71
479
 72
480
 73
481
 74
482
 0
VERTEX
 8
0
 10
0
 20
0.25
 30
0
 70
128
 71
472
 72
480
 73
493
 74
492
 0
VERTEX
 8
0
 10
0
 20
0.25
 30
0
 70
128
 71
496
 72
492
 73
512
 74
495
 0
VERTEX
 8
0
 10
0
 20
0.25
 30
0
 70
128
 71
511
 72
479
 73
473
 74
496
 0
VERTEX
 8
0
 10
0
 20
0.25
 30
0
 70
128
 71
478
 72
489
 73
431
 74
432
 0
VERTEX
 8
0
 10
0
 20
0.25
 30
0
 70
128
 71
474
 72
483
 73
441
 74
440
 0
VERTEX
 8
0
 10
0
 20
0.25
 30
0
 70
128
 71
517
 72
498
 73
477
 0
VERTEX
 8
0
 10
0
 20
0.25
 30
0
 70
128
 71
484
 72
498
 73
485
 74
486
 0
VERTEX
 8
0
 10
0
 20
0.25
 30
0
 70
128
 71
484
 72
526
 73
476
 0
VERTEX
 8
0
 10
0
 20
0.25
 30
0
 70
128
 71
478
 72
432
 73
469
 0
VERTEX
 8
0
 10
0
 20
0.25
 30
0
 70
128
 71
490
 72
476
 73
487
 74
488
 0
VERTEX
 8
0
 10
0
 20
0.25
 30
0
 70
128
 71
489
 72
478
 73
490
 74
491
 0
VERTEX
 8
0
 10
0
 20
0.25
 30
0
 70
128
 71
536
 72
535
 73
477
 74
491
 0
VERTEX
 8
0
 10
0
 20
0.25
 30
0
 70
128
 71
511
 72
493
 73
480
 74
479
 0
VERTEX
 8
0
 10
0
 20
0.25
 30
0
 70
128
 71
492
 72
493
 73
494
 74
512
 0
VERTEX
 8
0
 10
0
 20
0.25
 30
0
 70
128
 71
495
 72
512
 73
513
 74
539
 0
VERTEX
 8
0
 10
0
 20
0.25
 30
0
 70
128
 71
495
 72
510
 73
511
 74
496
 0
VERTEX
 8
0
 10
0
 20
0.25
 30
0
 70
128
 71
517
 72
516
 73
497
 74
498
 0
VERTEX
 8
0
 10
0
 20
0.25
 30
0
 70
128
 71
517
 72
477
 73
519
 0
VERTEX
 8
0
 10
0
 20
0.25
 30
0
 70
128
 71
498
 72
497
 73
520
 74
485
 0
VERTEX
 8
0
 10
0
 20
0.25
 30
0
 70
128
 71
546
 72
499
 73
486
 74
485
 0
VERTEX
 8
0
 10
0
 20
0.25
 30
0
 70
128
 71
486
 72
500
 73
501
 74
484
 0
VERTEX
 8
0
 10
0
 20
0.25
 30
0
 70
128
 71
484
 72
501
 73
527
 74
526
 0
VERTEX
 8
0
 10
0
 20
0.25
 30
0
 70
128
 71
526
 72
502
 73
476
 0
VERTEX
 8
0
 10
0
 20
0.25
 30
0
 70
128
 71
548
 72
487
 73
476
 0
VERTEX
 8
0
 10
0
 20
0.25
 30
0
 70
128
 71
488
 72
487
 73
503
 74
531
 0
VERTEX
 8
0
 10
0
 20
0.25
 30
0
 70
128
 71
504
 72
490
 73
488
 0
VERTEX
 8
0
 10
0
 20
0.25
 30
0
 70
128
 71
491
 72
490
 73
505
 74
506
 0
VERTEX
 8
0
 10
0
 20
0.25
 30
0
 70
128
 71
507
 72
508
 73
535
 74
536
 0
VERTEX
 8
0
 10
0
 20
0.25
 30
0
 70
128
 71
509
 72
477
 73
535
 0
VERTEX
 8
0
 10
0
 20
0.25
 30
0
 70
128
 71
562
 72
536
 73
491
 0
VERTEX
 8
0
 10
0
 20
0.25
 30
0
 70
128
 71
510
 72
494
 73
493
 74
511
 0
VERTEX
 8
0
 10
0
 20
0.25
 30
0
 70
128
 71
512
 72
494
 73
538
 74
513
 0
VERTEX
 8
0
 10
0
 20
0.25
 30
0
 70
128
 71
513
 72
514
 73
515
 74
539
 0
VERTEX
 8
0
 10
0
 20
0.25
 30
0
 70
128
 71
539
 72
565
 73
510
 74
495
 0
VERTEX
 8
0
 10
0
 20
0.25
 30
0
 70
128
 71
521
 72
540
 73
516
 74
517
 0
VERTEX
 8
0
 10
0
 20
0.25
 30
0
 70
128
 71
497
 72
516
 73
558
 74
567
 0
VERTEX
 8
0
 10
0
 20
0.25
 30
0
 70
128
 71
519
 72
477
 73
509
 0
VERTEX
 8
0
 10
0
 20
0.25
 30
0
 70
128
 71
518
 72
521
 73
517
 74
519
 0
VERTEX
 8
0
 10
0
 20
0.25
 30
0
 70
128
 71
520
 72
497
 73
501
 74
500
 0
VERTEX
 8
0
 10
0
 20
0.25
 30
0
 70
128
 71
485
 72
520
 73
540
 74
521
 0
VERTEX
 8
0
 10
0
 20
0.25
 30
0
 70
128
 71
522
 72
523
 73
499
 74
546
 0
VERTEX
 8
0
 10
0
 20
0.25
 30
0
 70
128
 71
499
 72
524
 73
486
 0
VERTEX
 8
0
 10
0
 20
0.25
 30
0
 70
128
 71
521
 72
546
 73
485
 0
VERTEX
 8
0
 10
0
 20
0.25
 30
0
 70
128
 71
524
 72
528
 73
500
 74
486
 0
VERTEX
 8
0
 10
0
 20
0.25
 30
0
 70
128
 71
527
 72
501
 73
525
 74
549
 0
VERTEX
 8
0
 10
0
 20
0.25
 30
0
 70
128
 71
526
 72
527
 73
528
 74
524
 0
VERTEX
 8
0
 10
0
 20
0.25
 30
0
 70
128
 71
502
 72
526
 73
524
 74
529
 0
VERTEX
 8
0
 10
0
 20
0.25
 30
0
 70
128
 71
502
 72
548
 73
476
 0
VERTEX
 8
0
 10
0
 20
0.25
 30
0
 70
128
 71
549
 72
487
 73
548
 74
527
 0
VERTEX
 8
0
 10
0
 20
0.25
 30
0
 70
128
 71
549
 72
530
 73
503
 74
487
 0
VERTEX
 8
0
 10
0
 20
0.25
 30
0
 70
128
 71
531
 72
503
 73
499
 74
573
 0
VERTEX
 8
0
 10
0
 20
0.25
 30
0
 70
128
 71
551
 72
532
 73
488
 74
531
 0
VERTEX
 8
0
 10
0
 20
0.25
 30
0
 70
128
 71
552
 72
490
 73
504
 0
VERTEX
 8
0
 10
0
 20
0.25
 30
0
 70
128
 71
576
 72
504
 73
488
 74
532
 0
VERTEX
 8
0
 10
0
 20
0.25
 30
0
 70
128
 71
533
 72
505
 73
490
 0
VERTEX
 8
0
 10
0
 20
0.25
 30
0
 70
128
 71
534
 72
506
 73
505
 74
556
 0
VERTEX
 8
0
 10
0
 20
0.25
 30
0
 70
128
 71
583
 72
491
 73
506
 0
VERTEX
 8
0
 10
0
 20
0.25
 30
0
 70
128
 71
572
 72
546
 73
508
 74
507
 0
VERTEX
 8
0
 10
0
 20
0.25
 30
0
 70
128
 71
559
 72
558
 73
535
 74
508
 0
VERTEX
 8
0
 10
0
 20
0.25
 30
0
 70
128
 71
557
 72
560
 73
507
 74
536
 0
VERTEX
 8
0
 10
0
 20
0.25
 30
0
 70
128
 71
535
 72
558
 73
516
 74
509
 0
VERTEX
 8
0
 10
0
 20
0.25
 30
0
 70
128
 71
562
 72
582
 73
557
 74
536
 0
VERTEX
 8
0
 10
0
 20
0.25
 30
0
 70
128
 71
562
 72
491
 73
537
 0
VERTEX
 8
0
 10
0
 20
0.25
 30
0
 70
128
 71
565
 72
538
 73
494
 74
510
 0
VERTEX
 8
0
 10
0
 20
0.25
 30
0
 70
128
 71
513
 72
538
 73
564
 74
514
 0
VERTEX
 8
0
 10
0
 20
0.25
 30
0
 70
128
 71
515
 72
514
 73
564
 74
566
 0
VERTEX
 8
0
 10
0
 20
0.25
 30
0
 70
128
 71
515
 72
566
 73
565
 74
539
 0
VERTEX
 8
0
 10
0
 20
0.25
 30
0
 70
128
 71
516
 72
540
 73
541
 74
509
 0
VERTEX
 8
0
 10
0
 20
0.25
 30
0
 70
128
 71
568
 72
567
 73
558
 74
557
 0
VERTEX
 8
0
 10
0
 20
0.25
 30
0
 70
128
 71
567
 72
525
 73
501
 74
497
 0
VERTEX
 8
0
 10
0
 20
0.25
 30
0
 70
128
 71
519
 72
509
 73
541
 74
518
 0
VERTEX
 8
0
 10
0
 20
0.25
 30
0
 70
128
 71
521
 72
518
 73
546
 0
VERTEX
 8
0
 10
0
 20
0.25
 30
0
 70
128
 71
542
 72
543
 73
520
 74
500
 0
VERTEX
 8
0
 10
0
 20
0.25
 30
0
 70
128
 71
540
 72
520
 73
543
 74
559
 0
VERTEX
 8
0
 10
0
 20
0.25
 30
0
 70
128
 71
594
 72
588
 73
523
 74
522
 0
VERTEX
 8
0
 10
0
 20
0.25
 30
0
 70
128
 71
573
 72
499
 73
523
 74
544
 0
VERTEX
 8
0
 10
0
 20
0.25
 30
0
 70
128
 71
545
 72
522
 73
546
 74
572
 0
VERTEX
 8
0
 10
0
 20
0.25
 30
0
 70
128
 71
499
 72
529
 73
524
 0
VERTEX
 8
0
 10
0
 20
0.25
 30
0
 70
128
 71
500
 72
528
 73
530
 74
542
 0
VERTEX
 8
0
 10
0
 20
0.25
 30
0
 70
128
 71
532
 72
549
 73
525
 74
547
 0
VERTEX
 8
0
 10
0
 20
0.25
 30
0
 70
128
 71
528
 72
527
 73
548
 74
550
 0
VERTEX
 8
0
 10
0
 20
0.25
 30
0
 70
128
 71
529
 72
550
 73
548
 74
502
 0
VERTEX
 8
0
 10
0
 20
0.25
 30
0
 70
128
 71
551
 72
530
 73
549
 74
532
 0
VERTEX
 8
0
 10
0
 20
0.25
 30
0
 70
128
 71
528
 72
550
 73
503
 74
530
 0
VERTEX
 8
0
 10
0
 20
0.25
 30
0
 70
128
 71
503
 72
550
 73
499
 0
VERTEX
 8
0
 10
0
 20
0.25
 30
0
 70
128
 71
554
 72
531
 73
573
 0
VERTEX
 8
0
 10
0
 20
0.25
 30
0
 70
128
 71
551
 72
531
 73
554
 74
553
 0
VERTEX
 8
0
 10
0
 20
0.25
 30
0
 70
128
 71
533
 72
490
 73
552
 0
VERTEX
 8
0
 10
0
 20
0.25
 30
0
 70
128
 71
504
 72
554
 73
575
 74
552
 0
VERTEX
 8
0
 10
0
 20
0.25
 30
0
 70
128
 71
576
 72
553
 73
554
 74
504
 0
VERTEX
 8
0
 10
0
 20
0.25
 30
0
 70
128
 71
532
 72
547
 73
579
 74
576
 0
VERTEX
 8
0
 10
0
 20
0.25
 30
0
 70
128
 71
505
 72
533
 73
576
 74
579
 0
VERTEX
 8
0
 10
0
 20
0.25
 30
0
 70
128
 71
580
 72
578
 73
506
 74
534
 0
VERTEX
 8
0
 10
0
 20
0.25
 30
0
 70
128
 71
579
 72
555
 73
556
 74
505
 0
VERTEX
 8
0
 10
0
 20
0.25
 30
0
 70
128
 71
573
 72
572
 73
534
 74
556
 0
VERTEX
 8
0
 10
0
 20
0.25
 30
0
 70
128
 71
583
 72
537
 73
491
 0
VERTEX
 8
0
 10
0
 20
0.25
 30
0
 70
128
 71
583
 72
506
 73
578
 74
582
 0
VERTEX
 8
0
 10
0
 20
0.25
 30
0
 70
128
 71
541
 72
508
 73
546
 0
VERTEX
 8
0
 10
0
 20
0.25
 30
0
 70
128
 71
563
 72
572
 73
507
 0
VERTEX
 8
0
 10
0
 20
0.25
 30
0
 70
128
 71
557
 72
558
 73
559
 74
560
 0
VERTEX
 8
0
 10
0
 20
0.25
 30
0
 70
128
 71
559
 72
508
 73
541
 74
540
 0
VERTEX
 8
0
 10
0
 20
0.25
 30
0
 70
128
 71
561
 72
563
 73
507
 74
560
 0
VERTEX
 8
0
 10
0
 20
0.25
 30
0
 70
128
 71
561
 72
582
 73
562
 74
563
 0
VERTEX
 8
0
 10
0
 20
0.25
 30
0
 70
128
 71
568
 72
557
 73
582
 74
578
 0
VERTEX
 8
0
 10
0
 20
0.25
 30
0
 70
128
 71
563
 72
562
 73
537
 74
584
 0
VERTEX
 8
0
 10
0
 20
0.25
 30
0
 70
128
 71
564
 72
538
 73
565
 74
566
 0
VERTEX
 8
0
 10
0
 20
0.25
 30
0
 70
128
 71
585
 72
543
 73
567
 74
568
 0
VERTEX
 8
0
 10
0
 20
0.25
 30
0
 70
128
 71
567
 72
543
 73
542
 74
525
 0
VERTEX
 8
0
 10
0
 20
0.25
 30
0
 70
128
 71
518
 72
541
 73
546
 0
VERTEX
 8
0
 10
0
 20
0.25
 30
0
 70
128
 71
560
 72
559
 73
543
 74
585
 0
VERTEX
 8
0
 10
0
 20
0.25
 30
0
 70
128
 71
569
 72
588
 73
594
 74
570
 0
VERTEX
 8
0
 10
0
 20
0.25
 30
0
 70
128
 71
588
 72
571
 73
523
 0
VERTEX
 8
0
 10
0
 20
0.25
 30
0
 70
128
 71
594
 72
522
 73
591
 0
VERTEX
 8
0
 10
0
 20
0.25
 30
0
 70
128
 71
523
 72
429
 73
544
 0
VERTEX
 8
0
 10
0
 20
0.25
 30
0
 70
128
 71
572
 72
573
 73
544
 74
545
 0
VERTEX
 8
0
 10
0
 20
0.25
 30
0
 70
128
 71
522
 72
545
 73
574
 0
VERTEX
 8
0
 10
0
 20
0.25
 30
0
 70
128
 71
529
 72
499
 73
550
 0
VERTEX
 8
0
 10
0
 20
0.25
 30
0
 70
128
 71
586
 72
542
 73
530
 74
551
 0
VERTEX
 8
0
 10
0
 20
0.25
 30
0
 70
128
 71
547
 72
525
 73
542
 74
586
 0
VERTEX
 8
0
 10
0
 20
0.25
 30
0
 70
128
 71
573
 72
575
 73
554
 0
VERTEX
 8
0
 10
0
 20
0.25
 30
0
 70
128
 71
586
 72
551
 73
553
 74
555
 0
VERTEX
 8
0
 10
0
 20
0.25
 30
0
 70
128
 71
577
 72
533
 73
552
 74
575
 0
VERTEX
 8
0
 10
0
 20
0.25
 30
0
 70
128
 71
553
 72
576
 73
533
 74
577
 0
VERTEX
 8
0
 10
0
 20
0.25
 30
0
 70
128
 71
578
 72
579
 73
547
 74
568
 0
VERTEX
 8
0
 10
0
 20
0.25
 30
0
 70
128
 71
578
 72
580
 73
555
 74
579
 0
VERTEX
 8
0
 10
0
 20
0.25
 30
0
 70
128
 71
561
 72
580
 73
534
 74
581
 0
VERTEX
 8
0
 10
0
 20
0.25
 30
0
 70
128
 71
555
 72
553
 73
577
 74
556
 0
VERTEX
 8
0
 10
0
 20
0.25
 30
0
 70
128
 71
581
 72
534
 73
572
 0
VERTEX
 8
0
 10
0
 20
0.25
 30
0
 70
128
 71
556
 72
577
 73
573
 0
VERTEX
 8
0
 10
0
 20
0.25
 30
0
 70
128
 71
583
 72
581
 73
584
 74
537
 0
VERTEX
 8
0
 10
0
 20
0.25
 30
0
 70
128
 71
582
 72
561
 73
581
 74
583
 0
VERTEX
 8
0
 10
0
 20
0.25
 30
0
 70
128
 71
563
 72
584
 73
572
 0
VERTEX
 8
0
 10
0
 20
0.25
 30
0
 70
128
 71
560
 72
585
 73
580
 74
561
 0
VERTEX
 8
0
 10
0
 20
0.25
 30
0
 70
128
 71
585
 72
568
 73
547
 74
586
 0
VERTEX
 8
0
 10
0
 20
0.25
 30
0
 70
128
 71
595
 72
587
 73
588
 74
569
 0
VERTEX
 8
0
 10
0
 20
0.25
 30
0
 70
128
 71
570
 72
594
 73
593
 74
597
 0
VERTEX
 8
0
 10
0
 20
0.25
 30
0
 70
128
 71
570
 72
436
 73
589
 74
569
 0
VERTEX
 8
0
 10
0
 20
0.25
 30
0
 70
128
 71
587
 72
590
 73
571
 74
588
 0
VERTEX
 8
0
 10
0
 20
0.25
 30
0
 70
128
 71
589
 72
429
 73
523
 74
571
 0
VERTEX
 8
0
 10
0
 20
0.25
 30
0
 70
128
 71
522
 72
574
 73
436
 74
591
 0
VERTEX
 8
0
 10
0
 20
0.25
 30
0
 70
128
 71
592
 72
593
 73
594
 74
591
 0
VERTEX
 8
0
 10
0
 20
0.25
 30
0
 70
128
 71
429
 72
574
 73
545
 74
544
 0
VERTEX
 8
0
 10
0
 20
0.25
 30
0
 70
128
 71
577
 72
575
 73
573
 0
VERTEX
 8
0
 10
0
 20
0.25
 30
0
 70
128
 71
555
 72
580
 73
585
 74
586
 0
VERTEX
 8
0
 10
0
 20
0.25
 30
0
 70
128
 71
584
 72
581
 73
572
 0
VERTEX
 8
0
 10
0
 20
0.25
 30
0
 70
128
 71
587
 72
595
 73
609
 74
603
 0
VERTEX
 8
0
 10
0
 20
0.25
 30
0
 70
128
 71
569
 72
598
 73
601
 74
595
 0
VERTEX
 8
0
 10
0
 20
0.25
 30
0
 70
128
 71
604
 72
596
 73
597
 74
593
 0
VERTEX
 8
0
 10
0
 20
0.25
 30
0
 70
128
 71
599
 72
570
 73
597
 74
605
 0
VERTEX
 8
0
 10
0
 20
0.25
 30
0
 70
128
 71
570
 72
599
 73
436
 0
VERTEX
 8
0
 10
0
 20
0.25
 30
0
 70
128
 71
598
 72
569
 73
589
 0
VERTEX
 8
0
 10
0
 20
0.25
 30
0
 70
128
 71
613
 72
590
 73
587
 74
603
 0
VERTEX
 8
0
 10
0
 20
0.25
 30
0
 70
128
 71
598
 72
571
 73
590
 74
601
 0
VERTEX
 8
0
 10
0
 20
0.25
 30
0
 70
128
 71
598
 72
589
 73
571
 0
VERTEX
 8
0
 10
0
 20
0.25
 30
0
 70
128
 71
591
 72
436
 73
599
 0
VERTEX
 8
0
 10
0
 20
0.25
 30
0
 70
128
 71
592
 72
608
 73
604
 74
593
 0
VERTEX
 8
0
 10
0
 20
0.25
 30
0
 70
128
 71
605
 72
592
 73
591
 74
599
 0
VERTEX
 8
0
 10
0
 20
0.25
 30
0
 70
128
 71
600
 72
609
 73
595
 74
601
 0
VERTEX
 8
0
 10
0
 20
0.25
 30
0
 70
128
 71
610
 72
602
 73
603
 74
609
 0
VERTEX
 8
0
 10
0
 20
0.25
 30
0
 70
128
 71
596
 72
604
 73
619
 74
612
 0
VERTEX
 8
0
 10
0
 20
0.25
 30
0
 70
128
 71
605
 72
597
 73
596
 74
606
 0
VERTEX
 8
0
 10
0
 20
0.25
 30
0
 70
128
 71
601
 72
590
 73
613
 74
600
 0
VERTEX
 8
0
 10
0
 20
0.25
 30
0
 70
128
 71
602
 72
614
 73
613
 74
603
 0
VERTEX
 8
0
 10
0
 20
0.25
 30
0
 70
128
 71
606
 72
608
 73
592
 74
605
 0
VERTEX
 8
0
 10
0
 20
0.25
 30
0
 70
128
 71
607
 72
619
 73
604
 74
608
 0
VERTEX
 8
0
 10
0
 20
0.25
 30
0
 70
128
 71
609
 72
600
 73
615
 74
610
 0
VERTEX
 8
0
 10
0
 20
0.25
 30
0
 70
128
 71
611
 72
616
 73
602
 74
610
 0
VERTEX
 8
0
 10
0
 20
0.25
 30
0
 70
128
 71
612
 72
619
 73
623
 74
632
 0
VERTEX
 8
0
 10
0
 20
0.25
 30
0
 70
128
 71
606
 72
596
 73
612
 74
618
 0
VERTEX
 8
0
 10
0
 20
0.25
 30
0
 70
128
 71
600
 72
613
 73
614
 74
615
 0
VERTEX
 8
0
 10
0
 20
0.25
 30
0
 70
128
 71
616
 72
617
 73
614
 74
602
 0
VERTEX
 8
0
 10
0
 20
0.25
 30
0
 70
128
 71
618
 72
607
 73
608
 74
606
 0
VERTEX
 8
0
 10
0
 20
0.25
 30
0
 70
128
 71
624
 72
623
 73
619
 74
607
 0
VERTEX
 8
0
 10
0
 20
0.25
 30
0
 70
128
 71
610
 72
615
 73
625
 74
611
 0
VERTEX
 8
0
 10
0
 20
0.25
 30
0
 70
128
 71
620
 72
616
 73
611
 74
627
 0
VERTEX
 8
0
 10
0
 20
0.25
 30
0
 70
128
 71
623
 72
621
 73
622
 74
632
 0
VERTEX
 8
0
 10
0
 20
0.25
 30
0
 70
128
 71
618
 72
612
 73
632
 74
631
 0
VERTEX
 8
0
 10
0
 20
0.25
 30
0
 70
128
 71
615
 72
614
 73
617
 74
625
 0
VERTEX
 8
0
 10
0
 20
0.25
 30
0
 70
128
 71
620
 72
628
 73
617
 74
616
 0
VERTEX
 8
0
 10
0
 20
0.25
 30
0
 70
128
 71
631
 72
624
 73
607
 74
618
 0
VERTEX
 8
0
 10
0
 20
0.25
 30
0
 70
128
 71
629
 72
621
 73
623
 74
624
 0
VERTEX
 8
0
 10
0
 20
0.25
 30
0
 70
128
 71
611
 72
625
 73
626
 74
627
 0
VERTEX
 8
0
 10
0
 20
0.25
 30
0
 70
128
 71
626
 72
628
 73
620
 74
627
 0
VERTEX
 8
0
 10
0
 20
0.25
 30
0
 70
128
 71
622
 72
621
 73
629
 74
630
 0
VERTEX
 8
0
 10
0
 20
0.25
 30
0
 70
128
 71
631
 72
632
 73
622
 74
630
 0
VERTEX
 8
0
 10
0
 20
0.25
 30
0
 70
128
 71
617
 72
628
 73
626
 74
625
 0
VERTEX
 8
0
 10
0
 20
0.25
 30
0
 70
128
 71
629
 72
624
 73
631
 74
630
 0
SEQEND
 8
0
 0
ENDSEC
 0
EOF
