 0
SECTION
 2
HEADER
 9
$ACADVER
 1
AC1009
 9
$INSBASE
 10
0.0
 20
0.0
 30
0.0
 9
$EXTMIN
 10
0.0
 20
0.0
 30
0.0
 9
$EXTMAX
 10
0.0
 20
0.0
 30
0.0
 0
ENDSEC
 0
SECTION
 2
ENTITIES
 0
POLYLINE
 8
0
 70
64
 66
1
 10
0
 20
0.08
 30
0
 71
200
 72
208
 0
VERTEX
 8
0
 10
0.773
 20
0.16
 30
1.895
 70
192
 0
VERTEX
 8
0
 10
0.66
 20
0.16
 30
1.895
 70
192
 0
VERTEX
 8
0
 10
0.66
 20
0.16
 30
2.073
 70
192
 0
VERTEX
 8
0
 10
0.773
 20
0.16
 30
2.073
 70
192
 0
VERTEX
 8
0
 10
0.773
 20
0.16
 30
0.82
 70
192
 0
VERTEX
 8
0
 10
0.45
 20
0.16
 30
2.073
 70
192
 0
VERTEX
 8
0
 10
0.773
 20
0.16
 30
0.62
 70
192
 0
VERTEX
 8
0
 10
0.35
 20
0.16
 30
1.895
 70
192
 0
VERTEX
 8
0
 10
0.35
 20
0.16
 30
2.073
 70
192
 0
VERTEX
 8
0
 10
0.773
 20
0.16
 30
0.225
 70
192
 0
VERTEX
 8
0
 10
0.66
 20
0.16
 30
0.225
 70
192
 0
VERTEX
 8
0
 10
0.66
 20
0.16
 30
0.82
 70
192
 0
VERTEX
 8
0
 10
0.66
 20
0.145
 30
0.82
 70
192
 0
VERTEX
 8
0
 10
0.45
 20
0.145
 30
0.82
 70
192
 0
VERTEX
 8
0
 10
0.45
 20
0.145
 30
1.895
 70
192
 0
VERTEX
 8
0
 10
0.66
 20
0.145
 30
1.895
 70
192
 0
VERTEX
 8
0
 10
0.45
 20
0.16
 30
0.82
 70
192
 0
VERTEX
 8
0
 10
0.45
 20
0.16
 30
1.895
 70
192
 0
VERTEX
 8
0
 10
0.14
 20
0.16
 30
2.073
 70
192
 0
VERTEX
 8
0
 10
0.14
 20
0.16
 30
1.895
 70
192
 0
VERTEX
 8
0
 10
0.66
 20
0.16
 30
0
 70
192
 0
VERTEX
 8
0
 10
0.66
 20
0.16
 30
0.62
 70
192
 0
VERTEX
 8
0
 10
0.66
 20
0.145
 30
0.225
 70
192
 0
VERTEX
 8
0
 10
0.66
 20
0.145
 30
0.62
 70
192
 0
VERTEX
 8
0
 10
0.45
 20
0.16
 30
0.62
 70
192
 0
VERTEX
 8
0
 10
0.35
 20
0.145
 30
1.895
 70
192
 0
VERTEX
 8
0
 10
0.027
 20
0.16
 30
2.073
 70
192
 0
VERTEX
 8
0
 10
0.027
 20
0.16
 30
1.895
 70
192
 0
VERTEX
 8
0
 10
0.66
 20
0.122
 30
0
 70
192
 0
VERTEX
 8
0
 10
0.773
 20
0.16
 30
0
 70
192
 0
VERTEX
 8
0
 10
0.45
 20
0.16
 30
0
 70
192
 0
VERTEX
 8
0
 10
0.45
 20
0.16
 30
0.225
 70
192
 0
VERTEX
 8
0
 10
0.45
 20
0.145
 30
0.225
 70
192
 0
VERTEX
 8
0
 10
0.45
 20
0.145
 30
0.62
 70
192
 0
VERTEX
 8
0
 10
0.14
 20
0.16
 30
0.62
 70
192
 0
VERTEX
 8
0
 10
0.35
 20
0.16
 30
0.82
 70
192
 0
VERTEX
 8
0
 10
0.35
 20
0.145
 30
0.82
 70
192
 0
VERTEX
 8
0
 10
0.14
 20
0.16
 30
0.82
 70
192
 0
VERTEX
 8
0
 10
0.14
 20
0.145
 30
1.895
 70
192
 0
VERTEX
 8
0
 10
0.14
 20
0.145
 30
0.82
 70
192
 0
VERTEX
 8
0
 10
0.027
 20
0.16
 30
0.82
 70
192
 0
VERTEX
 8
0
 10
0.773
 20
0.122
 30
0
 70
192
 0
VERTEX
 8
0
 10
0.773
 20
0.122
 30
0.225
 70
192
 0
VERTEX
 8
0
 10
0.45
 20
0.122
 30
0
 70
192
 0
VERTEX
 8
0
 10
0.35
 20
0.145
 30
0.225
 70
192
 0
VERTEX
 8
0
 10
0.35
 20
0.16
 30
0.62
 70
192
 0
VERTEX
 8
0
 10
0.027
 20
0.16
 30
0.62
 70
192
 0
VERTEX
 8
0
 10
0.773
 20
0.122
 30
0.62
 70
192
 0
VERTEX
 8
0
 10
0.45
 20
0.122
 30
0.225
 70
192
 0
VERTEX
 8
0
 10
0.35
 20
0.16
 30
0
 70
192
 0
VERTEX
 8
0
 10
0.14
 20
0.16
 30
0.225
 70
192
 0
VERTEX
 8
0
 10
0.35
 20
0.16
 30
0.225
 70
192
 0
VERTEX
 8
0
 10
0.14
 20
0.145
 30
0.225
 70
192
 0
VERTEX
 8
0
 10
0.14
 20
0.145
 30
0.62
 70
192
 0
VERTEX
 8
0
 10
0.35
 20
0.145
 30
0.62
 70
192
 0
VERTEX
 8
0
 10
0.027
 20
0.16
 30
0.225
 70
192
 0
VERTEX
 8
0
 10
0.773
 20
0.122
 30
0.82
 70
192
 0
VERTEX
 8
0
 10
0.66
 20
0.122
 30
0.225
 70
192
 0
VERTEX
 8
0
 10
0.66
 20
0.137
 30
0.225
 70
192
 0
VERTEX
 8
0
 10
0.35
 20
0.122
 30
0
 70
192
 0
VERTEX
 8
0
 10
0.14
 20
0.122
 30
0
 70
192
 0
VERTEX
 8
0
 10
0.14
 20
0.16
 30
0
 70
192
 0
VERTEX
 8
0
 10
0.027
 20
0.16
 30
0
 70
192
 0
VERTEX
 8
0
 10
0.773
 20
0.122
 30
1.895
 70
192
 0
VERTEX
 8
0
 10
0.66
 20
0.122
 30
0.62
 70
192
 0
VERTEX
 8
0
 10
0.45
 20
0.137
 30
0.62
 70
192
 0
VERTEX
 8
0
 10
0.66
 20
0.137
 30
0.62
 70
192
 0
VERTEX
 8
0
 10
0.45
 20
0.122
 30
0.62
 70
192
 0
VERTEX
 8
0
 10
0.45
 20
0.137
 30
0.225
 70
192
 0
VERTEX
 8
0
 10
0.35
 20
0.122
 30
0.62
 70
192
 0
VERTEX
 8
0
 10
0.027
 20
0.122
 30
0
 70
192
 0
VERTEX
 8
0
 10
0.773
 20
0.122
 30
2.073
 70
192
 0
VERTEX
 8
0
 10
0.66
 20
0.122
 30
2.073
 70
192
 0
VERTEX
 8
0
 10
0.66
 20
0.122
 30
0.82
 70
192
 0
VERTEX
 8
0
 10
0.66
 20
0.122
 30
1.895
 70
192
 0
VERTEX
 8
0
 10
0.66
 20
0.137
 30
0.82
 70
192
 0
VERTEX
 8
0
 10
0.45
 20
0.122
 30
0.82
 70
192
 0
VERTEX
 8
0
 10
0.35
 20
0.122
 30
0.225
 70
192
 0
VERTEX
 8
0
 10
0.14
 20
0.122
 30
0.225
 70
192
 0
VERTEX
 8
0
 10
0.027
 20
0.122
 30
0.225
 70
192
 0
VERTEX
 8
0
 10
0.45
 20
0.122
 30
2.073
 70
192
 0
VERTEX
 8
0
 10
0.45
 20
0.122
 30
1.895
 70
192
 0
VERTEX
 8
0
 10
0.66
 20
0.137
 30
1.895
 70
192
 0
VERTEX
 8
0
 10
0.45
 20
0.137
 30
0.82
 70
192
 0
VERTEX
 8
0
 10
0.45
 20
0.137
 30
1.895
 70
192
 0
VERTEX
 8
0
 10
0.35
 20
0.122
 30
1.895
 70
192
 0
VERTEX
 8
0
 10
0.14
 20
0.122
 30
0.82
 70
192
 0
VERTEX
 8
0
 10
0.14
 20
0.122
 30
0.62
 70
192
 0
VERTEX
 8
0
 10
0.35
 20
0.137
 30
0.62
 70
192
 0
VERTEX
 8
0
 10
0.35
 20
0.137
 30
0.225
 70
192
 0
VERTEX
 8
0
 10
0.14
 20
0.137
 30
0.62
 70
192
 0
VERTEX
 8
0
 10
0.14
 20
0.137
 30
0.225
 70
192
 0
VERTEX
 8
0
 10
0.027
 20
0.122
 30
0.62
 70
192
 0
VERTEX
 8
0
 10
0.35
 20
0.122
 30
2.073
 70
192
 0
VERTEX
 8
0
 10
0.35
 20
0.122
 30
0.82
 70
192
 0
VERTEX
 8
0
 10
0.35
 20
0.137
 30
0.82
 70
192
 0
VERTEX
 8
0
 10
0.14
 20
0.137
 30
0.82
 70
192
 0
VERTEX
 8
0
 10
0.027
 20
0.122
 30
0.82
 70
192
 0
VERTEX
 8
0
 10
0.14
 20
0.122
 30
2.073
 70
192
 0
VERTEX
 8
0
 10
0.14
 20
0.122
 30
1.895
 70
192
 0
VERTEX
 8
0
 10
0.14
 20
0.137
 30
1.895
 70
192
 0
VERTEX
 8
0
 10
0.35
 20
0.137
 30
1.895
 70
192
 0
VERTEX
 8
0
 10
0.027
 20
0.122
 30
1.895
 70
192
 0
VERTEX
 8
0
 10
0.027
 20
0.122
 30
2.073
 70
192
 0
VERTEX
 8
0
 10
0.02
 20
0.165
 30
0
 70
192
 0
VERTEX
 8
0
 10
0.005
 20
0.17
 30
0
 70
192
 0
VERTEX
 8
0
 10
0
 20
0.165
 30
0
 70
192
 0
VERTEX
 8
0
 10
0.005
 20
0.17
 30
2.095
 70
192
 0
VERTEX
 8
0
 10
-0.032
 20
0.175
 30
2.132
 70
192
 0
VERTEX
 8
0
 10
0
 20
0.165
 30
2.1
 70
192
 0
VERTEX
 8
0
 10
0.8
 20
0.165
 30
2.1
 70
192
 0
VERTEX
 8
0
 10
0.78
 20
0.165
 30
2.08
 70
192
 0
VERTEX
 8
0
 10
0.78
 20
0.165
 30
0
 70
192
 0
VERTEX
 8
0
 10
0.02
 20
0.165
 30
2.08
 70
192
 0
VERTEX
 8
0
 10
0.78
 20
0.16
 30
2.08
 70
192
 0
VERTEX
 8
0
 10
0.78
 20
0.16
 30
0
 70
192
 0
VERTEX
 8
0
 10
-0.032
 20
0.175
 30
0
 70
192
 0
VERTEX
 8
0
 10
0.832
 20
0.175
 30
2.132
 70
192
 0
VERTEX
 8
0
 10
0.795
 20
0.17
 30
2.095
 70
192
 0
VERTEX
 8
0
 10
0.795
 20
0.17
 30
0
 70
192
 0
VERTEX
 8
0
 10
0.8
 20
0.16
 30
0
 70
192
 0
VERTEX
 8
0
 10
0.86
 20
0.16
 30
2.16
 70
192
 0
VERTEX
 8
0
 10
-0.06
 20
0.16
 30
0
 70
192
 0
VERTEX
 8
0
 10
-0.04
 20
0.17
 30
0
 70
192
 0
VERTEX
 8
0
 10
-0.04
 20
0.175
 30
2.14
 70
192
 0
VERTEX
 8
0
 10
0.8
 20
0.165
 30
0
 70
192
 0
VERTEX
 8
0
 10
0.86
 20
0.16
 30
0
 70
192
 0
VERTEX
 8
0
 10
0.86
 20
0.175
 30
2.16
 70
192
 0
VERTEX
 8
0
 10
-0.06
 20
0.16
 30
2.16
 70
192
 0
VERTEX
 8
0
 10
-0.06
 20
0.175
 30
0
 70
192
 0
VERTEX
 8
0
 10
-0.04
 20
0.175
 30
0
 70
192
 0
VERTEX
 8
0
 10
-0.06
 20
0.175
 30
2.16
 70
192
 0
VERTEX
 8
0
 10
-0.04
 20
0.17
 30
2.14
 70
192
 0
VERTEX
 8
0
 10
0.84
 20
0.175
 30
2.14
 70
192
 0
VERTEX
 8
0
 10
0.84
 20
0.17
 30
2.14
 70
192
 0
VERTEX
 8
0
 10
0.832
 20
0.175
 30
0
 70
192
 0
VERTEX
 8
0
 10
0.86
 20
0.175
 30
0
 70
192
 0
VERTEX
 8
0
 10
0.84
 20
0.175
 30
0
 70
192
 0
VERTEX
 8
0
 10
0.84
 20
0.17
 30
0
 70
192
 0
VERTEX
 8
0
 10
-0.025
 20
-0.015
 30
2.125
 70
192
 0
VERTEX
 8
0
 10
-0.025
 20
-0.01
 30
0
 70
192
 0
VERTEX
 8
0
 10
-0.017
 20
-0.015
 30
0
 70
192
 0
VERTEX
 8
0
 10
0.825
 20
-0.015
 30
2.125
 70
192
 0
VERTEX
 8
0
 10
-0.045
 20
-0.015
 30
2.145
 70
192
 0
VERTEX
 8
0
 10
-0.045
 20
-0.015
 30
0
 70
192
 0
VERTEX
 8
0
 10
-0.025
 20
-0.015
 30
0
 70
192
 0
VERTEX
 8
0
 10
-0.017
 20
-0.015
 30
2.117
 70
192
 0
VERTEX
 8
0
 10
-0.025
 20
-0.01
 30
2.125
 70
192
 0
VERTEX
 8
0
 10
0.825
 20
-0.01
 30
2.125
 70
192
 0
VERTEX
 8
0
 10
0.825
 20
-0.015
 30
0
 70
192
 0
VERTEX
 8
0
 10
0.825
 20
-0.01
 30
0
 70
192
 0
VERTEX
 8
0
 10
0.845
 20
0
 30
0
 70
192
 0
VERTEX
 8
0
 10
0.845
 20
-0.015
 30
0
 70
192
 0
VERTEX
 8
0
 10
0.845
 20
-0.015
 30
2.145
 70
192
 0
VERTEX
 8
0
 10
-0.045
 20
0
 30
2.145
 70
192
 0
VERTEX
 8
0
 10
0.02
 20
-0.01
 30
0
 70
192
 0
VERTEX
 8
0
 10
0.015
 20
-0.005
 30
2.085
 70
192
 0
VERTEX
 8
0
 10
0.845
 20
0
 30
2.145
 70
192
 0
VERTEX
 8
0
 10
0
 20
0
 30
2.1
 70
192
 0
VERTEX
 8
0
 10
0
 20
0
 30
0
 70
192
 0
VERTEX
 8
0
 10
-0.045
 20
0
 30
0
 70
192
 0
VERTEX
 8
0
 10
0.02
 20
-0.01
 30
2.08
 70
192
 0
VERTEX
 8
0
 10
0.817
 20
-0.015
 30
2.117
 70
192
 0
VERTEX
 8
0
 10
0.785
 20
-0.005
 30
2.085
 70
192
 0
VERTEX
 8
0
 10
0.817
 20
-0.015
 30
0
 70
192
 0
VERTEX
 8
0
 10
0.785
 20
-0.005
 30
0
 70
192
 0
VERTEX
 8
0
 10
0.035
 20
-0.005
 30
2.065
 70
192
 0
VERTEX
 8
0
 10
0.035
 20
-0.005
 30
0
 70
192
 0
VERTEX
 8
0
 10
0.765
 20
-0.005
 30
2.065
 70
192
 0
VERTEX
 8
0
 10
0.78
 20
-0.01
 30
2.08
 70
192
 0
VERTEX
 8
0
 10
0.78
 20
-0.01
 30
0
 70
192
 0
VERTEX
 8
0
 10
0.8
 20
0
 30
0
 70
192
 0
VERTEX
 8
0
 10
0.765
 20
-0.005
 30
0
 70
192
 0
VERTEX
 8
0
 10
0.04
 20
0
 30
2.06
 70
192
 0
VERTEX
 8
0
 10
0.035
 20
0
 30
2.065
 70
192
 0
VERTEX
 8
0
 10
0.765
 20
0
 30
2.065
 70
192
 0
VERTEX
 8
0
 10
0.035
 20
0
 30
0
 70
192
 0
VERTEX
 8
0
 10
0.025
 20
0.12
 30
0
 70
192
 0
VERTEX
 8
0
 10
0.04
 20
0
 30
0
 70
192
 0
VERTEX
 8
0
 10
0.04
 20
0.12
 30
0
 70
192
 0
VERTEX
 8
0
 10
0.76
 20
0.12
 30
2.06
 70
192
 0
VERTEX
 8
0
 10
0.04
 20
0.12
 30
2.06
 70
192
 0
VERTEX
 8
0
 10
0.765
 20
0
 30
0
 70
192
 0
VERTEX
 8
0
 10
0.76
 20
0
 30
2.06
 70
192
 0
VERTEX
 8
0
 10
0.76
 20
0.12
 30
0
 70
192
 0
VERTEX
 8
0
 10
0.76
 20
0
 30
0
 70
192
 0
VERTEX
 8
0
 10
0.015
 20
-0.005
 30
0
 70
192
 0
VERTEX
 8
0
 10
0
 20
0.16
 30
0
 70
192
 0
VERTEX
 8
0
 10
0.025
 20
0.16
 30
0
 70
192
 0
VERTEX
 8
0
 10
0.02
 20
0.16
 30
0
 70
192
 0
VERTEX
 8
0
 10
0.025
 20
0.16
 30
2.075
 70
192
 0
VERTEX
 8
0
 10
0.8
 20
0.16
 30
2.1
 70
192
 0
VERTEX
 8
0
 10
0
 20
0.16
 30
2.1
 70
192
 0
VERTEX
 8
0
 10
0.8
 20
0
 30
2.1
 70
192
 0
VERTEX
 8
0
 10
0.775
 20
0.12
 30
2.075
 70
192
 0
VERTEX
 8
0
 10
0.025
 20
0.12
 30
2.075
 70
192
 0
VERTEX
 8
0
 10
0.02
 20
0.16
 30
2.08
 70
192
 0
VERTEX
 8
0
 10
0.775
 20
0.16
 30
2.075
 70
192
 0
VERTEX
 8
0
 10
0.775
 20
0.16
 30
0
 70
192
 0
VERTEX
 8
0
 10
0.775
 20
0.12
 30
0
 70
192
 0
VERTEX
 8
0
 10
0
 20
0.08
 30
0
 70
128
 71
1
 72
2
 73
3
 74
4
 0
VERTEX
 8
0
 10
0
 20
0.08
 30
0
 70
128
 71
2
 72
1
 73
5
 74
12
 0
VERTEX
 8
0
 10
0
 20
0.08
 30
0
 70
128
 71
2
 72
18
 73
6
 74
3
 0
VERTEX
 8
0
 10
0
 20
0.08
 30
0
 70
128
 71
7
 72
22
 73
12
 74
5
 0
VERTEX
 8
0
 10
0
 20
0.08
 30
0
 70
128
 71
2
 72
12
 73
13
 74
16
 0
VERTEX
 8
0
 10
0
 20
0.08
 30
0
 70
128
 71
18
 72
2
 73
16
 74
15
 0
VERTEX
 8
0
 10
0
 20
0.08
 30
0
 70
128
 71
18
 72
8
 73
9
 74
6
 0
VERTEX
 8
0
 10
0
 20
0.08
 30
0
 70
128
 71
10
 72
11
 73
22
 74
7
 0
VERTEX
 8
0
 10
0
 20
0.08
 30
0
 70
128
 71
22
 72
25
 73
17
 74
12
 0
VERTEX
 8
0
 10
0
 20
0.08
 30
0
 70
128
 71
12
 72
17
 73
14
 74
13
 0
VERTEX
 8
0
 10
0
 20
0.08
 30
0
 70
128
 71
13
 72
14
 73
15
 74
16
 0
VERTEX
 8
0
 10
0
 20
0.08
 30
0
 70
128
 71
17
 72
18
 73
15
 74
14
 0
VERTEX
 8
0
 10
0
 20
0.08
 30
0
 70
128
 71
17
 72
36
 73
8
 74
18
 0
VERTEX
 8
0
 10
0
 20
0.08
 30
0
 70
128
 71
19
 72
9
 73
8
 74
20
 0
VERTEX
 8
0
 10
0
 20
0.08
 30
0
 70
128
 71
30
 72
21
 73
11
 74
10
 0
VERTEX
 8
0
 10
0
 20
0.08
 30
0
 70
128
 71
22
 72
11
 73
23
 74
24
 0
VERTEX
 8
0
 10
0
 20
0.08
 30
0
 70
128
 71
25
 72
22
 73
24
 74
34
 0
VERTEX
 8
0
 10
0
 20
0.08
 30
0
 70
128
 71
25
 72
46
 73
36
 74
17
 0
VERTEX
 8
0
 10
0
 20
0.08
 30
0
 70
128
 71
8
 72
36
 73
37
 74
26
 0
VERTEX
 8
0
 10
0
 20
0.08
 30
0
 70
128
 71
20
 72
8
 73
26
 74
39
 0
VERTEX
 8
0
 10
0
 20
0.08
 30
0
 70
128
 71
27
 72
19
 73
20
 74
28
 0
VERTEX
 8
0
 10
0
 20
0.08
 30
0
 70
128
 71
42
 72
29
 73
21
 74
30
 0
VERTEX
 8
0
 10
0
 20
0.08
 30
0
 70
128
 71
21
 72
31
 73
32
 74
11
 0
VERTEX
 8
0
 10
0
 20
0.08
 30
0
 70
128
 71
11
 72
32
 73
33
 74
23
 0
VERTEX
 8
0
 10
0
 20
0.08
 30
0
 70
128
 71
23
 72
33
 73
34
 74
24
 0
VERTEX
 8
0
 10
0
 20
0.08
 30
0
 70
128
 71
32
 72
25
 73
34
 74
33
 0
VERTEX
 8
0
 10
0
 20
0.08
 30
0
 70
128
 71
32
 72
52
 73
46
 74
25
 0
VERTEX
 8
0
 10
0
 20
0.08
 30
0
 70
128
 71
38
 72
36
 73
46
 74
35
 0
VERTEX
 8
0
 10
0
 20
0.08
 30
0
 70
128
 71
36
 72
38
 73
40
 74
37
 0
VERTEX
 8
0
 10
0
 20
0.08
 30
0
 70
128
 71
39
 72
26
 73
37
 74
40
 0
VERTEX
 8
0
 10
0
 20
0.08
 30
0
 70
128
 71
38
 72
20
 73
39
 74
40
 0
VERTEX
 8
0
 10
0
 20
0.08
 30
0
 70
128
 71
28
 72
20
 73
38
 74
41
 0
VERTEX
 8
0
 10
0
 20
0.08
 30
0
 70
128
 71
29
 72
42
 73
43
 74
58
 0
VERTEX
 8
0
 10
0
 20
0.08
 30
0
 70
128
 71
29
 72
44
 73
31
 74
21
 0
VERTEX
 8
0
 10
0
 20
0.08
 30
0
 70
128
 71
31
 72
50
 73
52
 74
32
 0
VERTEX
 8
0
 10
0
 20
0.08
 30
0
 70
128
 71
46
 72
52
 73
45
 74
55
 0
VERTEX
 8
0
 10
0
 20
0.08
 30
0
 70
128
 71
35
 72
46
 73
55
 74
54
 0
VERTEX
 8
0
 10
0
 20
0.08
 30
0
 70
128
 71
41
 72
38
 73
35
 74
47
 0
VERTEX
 8
0
 10
0
 20
0.08
 30
0
 70
128
 71
58
 72
43
 73
48
 74
65
 0
VERTEX
 8
0
 10
0
 20
0.08
 30
0
 70
128
 71
44
 72
29
 73
58
 74
49
 0
VERTEX
 8
0
 10
0
 20
0.08
 30
0
 70
128
 71
44
 72
60
 73
50
 74
31
 0
VERTEX
 8
0
 10
0
 20
0.08
 30
0
 70
128
 71
51
 72
52
 73
50
 74
62
 0
VERTEX
 8
0
 10
0
 20
0.08
 30
0
 70
128
 71
52
 72
51
 73
53
 74
45
 0
VERTEX
 8
0
 10
0
 20
0.08
 30
0
 70
128
 71
54
 72
55
 73
45
 74
53
 0
VERTEX
 8
0
 10
0
 20
0.08
 30
0
 70
128
 71
51
 72
35
 73
54
 74
53
 0
VERTEX
 8
0
 10
0
 20
0.08
 30
0
 70
128
 71
47
 72
35
 73
51
 74
56
 0
VERTEX
 8
0
 10
0
 20
0.08
 30
0
 70
128
 71
65
 72
48
 73
57
 74
74
 0
VERTEX
 8
0
 10
0
 20
0.08
 30
0
 70
128
 71
58
 72
65
 73
67
 74
59
 0
VERTEX
 8
0
 10
0
 20
0.08
 30
0
 70
128
 71
49
 72
58
 73
59
 74
69
 0
VERTEX
 8
0
 10
0
 20
0.08
 30
0
 70
128
 71
60
 72
44
 73
49
 74
78
 0
VERTEX
 8
0
 10
0
 20
0.08
 30
0
 70
128
 71
60
 72
61
 73
62
 74
50
 0
VERTEX
 8
0
 10
0
 20
0.08
 30
0
 70
128
 71
56
 72
51
 73
62
 74
63
 0
VERTEX
 8
0
 10
0
 20
0.08
 30
0
 70
128
 71
74
 72
57
 73
64
 74
75
 0
VERTEX
 8
0
 10
0
 20
0.08
 30
0
 70
128
 71
68
 72
65
 73
74
 74
77
 0
VERTEX
 8
0
 10
0
 20
0.08
 30
0
 70
128
 71
65
 72
68
 73
66
 74
67
 0
VERTEX
 8
0
 10
0
 20
0.08
 30
0
 70
128
 71
66
 72
69
 73
59
 74
67
 0
VERTEX
 8
0
 10
0
 20
0.08
 30
0
 70
128
 71
68
 72
49
 73
69
 74
66
 0
VERTEX
 8
0
 10
0
 20
0.08
 30
0
 70
128
 71
78
 72
49
 73
68
 74
70
 0
VERTEX
 8
0
 10
0
 20
0.08
 30
0
 70
128
 71
78
 72
79
 73
61
 74
60
 0
VERTEX
 8
0
 10
0
 20
0.08
 30
0
 70
128
 71
63
 72
62
 73
61
 74
71
 0
VERTEX
 8
0
 10
0
 20
0.08
 30
0
 70
128
 71
75
 72
64
 73
72
 74
73
 0
VERTEX
 8
0
 10
0
 20
0.08
 30
0
 70
128
 71
74
 72
75
 73
83
 74
76
 0
VERTEX
 8
0
 10
0
 20
0.08
 30
0
 70
128
 71
77
 72
74
 73
76
 74
84
 0
VERTEX
 8
0
 10
0
 20
0.08
 30
0
 70
128
 71
70
 72
68
 73
77
 74
95
 0
VERTEX
 8
0
 10
0
 20
0.08
 30
0
 70
128
 71
78
 72
70
 73
89
 74
90
 0
VERTEX
 8
0
 10
0
 20
0.08
 30
0
 70
128
 71
79
 72
78
 73
90
 74
92
 0
VERTEX
 8
0
 10
0
 20
0.08
 30
0
 70
128
 71
79
 72
80
 73
71
 74
61
 0
VERTEX
 8
0
 10
0
 20
0.08
 30
0
 70
128
 71
82
 72
75
 73
73
 74
81
 0
VERTEX
 8
0
 10
0
 20
0.08
 30
0
 70
128
 71
75
 72
82
 73
85
 74
83
 0
VERTEX
 8
0
 10
0
 20
0.08
 30
0
 70
128
 71
85
 72
84
 73
76
 74
83
 0
VERTEX
 8
0
 10
0
 20
0.08
 30
0
 70
128
 71
82
 72
77
 73
84
 74
85
 0
VERTEX
 8
0
 10
0
 20
0.08
 30
0
 70
128
 71
95
 72
77
 73
82
 74
86
 0
VERTEX
 8
0
 10
0
 20
0.08
 30
0
 70
128
 71
70
 72
95
 73
87
 74
88
 0
VERTEX
 8
0
 10
0
 20
0.08
 30
0
 70
128
 71
70
 72
88
 73
91
 74
89
 0
VERTEX
 8
0
 10
0
 20
0.08
 30
0
 70
128
 71
90
 72
89
 73
91
 74
92
 0
VERTEX
 8
0
 10
0
 20
0.08
 30
0
 70
128
 71
88
 72
79
 73
92
 74
91
 0
VERTEX
 8
0
 10
0
 20
0.08
 30
0
 70
128
 71
88
 72
93
 73
80
 74
79
 0
VERTEX
 8
0
 10
0
 20
0.08
 30
0
 70
128
 71
86
 72
82
 73
81
 74
94
 0
VERTEX
 8
0
 10
0
 20
0.08
 30
0
 70
128
 71
95
 72
86
 73
102
 74
96
 0
VERTEX
 8
0
 10
0
 20
0.08
 30
0
 70
128
 71
87
 72
95
 73
96
 74
97
 0
VERTEX
 8
0
 10
0
 20
0.08
 30
0
 70
128
 71
87
 72
98
 73
93
 74
88
 0
VERTEX
 8
0
 10
0
 20
0.08
 30
0
 70
128
 71
94
 72
99
 73
100
 74
86
 0
VERTEX
 8
0
 10
0
 20
0.08
 30
0
 70
128
 71
86
 72
100
 73
101
 74
102
 0
VERTEX
 8
0
 10
0
 20
0.08
 30
0
 70
128
 71
101
 72
97
 73
96
 74
102
 0
VERTEX
 8
0
 10
0
 20
0.08
 30
0
 70
128
 71
100
 72
87
 73
97
 74
101
 0
VERTEX
 8
0
 10
0
 20
0.08
 30
0
 70
128
 71
100
 72
103
 73
98
 74
87
 0
VERTEX
 8
0
 10
0
 20
0.08
 30
0
 70
128
 71
99
 72
104
 73
103
 74
100
 0
VERTEX
 8
0
 10
0
 20
0.08
 30
0
 70
128
 71
27
 72
104
 73
99
 74
19
 0
VERTEX
 8
0
 10
0
 20
0.08
 30
0
 70
128
 71
103
 72
104
 73
27
 74
28
 0
VERTEX
 8
0
 10
0
 20
0.08
 30
0
 70
128
 71
98
 72
103
 73
28
 74
41
 0
VERTEX
 8
0
 10
0
 20
0.08
 30
0
 70
128
 71
19
 72
99
 73
94
 74
9
 0
VERTEX
 8
0
 10
0
 20
0.08
 30
0
 70
128
 71
94
 72
81
 73
6
 74
9
 0
VERTEX
 8
0
 10
0
 20
0.08
 30
0
 70
128
 71
6
 72
81
 73
73
 74
3
 0
VERTEX
 8
0
 10
0
 20
0.08
 30
0
 70
128
 71
72
 72
4
 73
3
 74
73
 0
VERTEX
 8
0
 10
0
 20
0.08
 30
0
 70
128
 71
41
 72
47
 73
93
 74
98
 0
VERTEX
 8
0
 10
0
 20
0.08
 30
0
 70
128
 71
47
 72
56
 73
80
 74
93
 0
VERTEX
 8
0
 10
0
 20
0.08
 30
0
 70
128
 71
63
 72
71
 73
80
 74
56
 0
VERTEX
 8
0
 10
0
 20
0.08
 30
0
 70
128
 71
42
 72
30
 73
10
 74
43
 0
VERTEX
 8
0
 10
0
 20
0.08
 30
0
 70
128
 71
43
 72
10
 73
7
 74
48
 0
VERTEX
 8
0
 10
0
 20
0.08
 30
0
 70
128
 71
48
 72
7
 73
5
 74
57
 0
VERTEX
 8
0
 10
0
 20
0.08
 30
0
 70
128
 71
1
 72
64
 73
57
 74
5
 0
VERTEX
 8
0
 10
0
 20
0.08
 30
0
 70
128
 71
1
 72
4
 73
72
 74
64
 0
VERTEX
 8
0
 10
0
 20
0.08
 30
0
 70
128
 71
105
 72
106
 73
108
 74
114
 0
VERTEX
 8
0
 10
0
 20
0.08
 30
0
 70
128
 71
105
 72
190
 73
107
 74
106
 0
VERTEX
 8
0
 10
0
 20
0.08
 30
0
 70
128
 71
106
 72
107
 73
110
 74
108
 0
VERTEX
 8
0
 10
0
 20
0.08
 30
0
 70
128
 71
114
 72
108
 73
119
 74
112
 0
VERTEX
 8
0
 10
0
 20
0.08
 30
0
 70
128
 71
114
 72
197
 73
190
 74
105
 0
VERTEX
 8
0
 10
0
 20
0.08
 30
0
 70
128
 71
188
 72
107
 73
190
 0
VERTEX
 8
0
 10
0
 20
0.08
 30
0
 70
128
 71
107
 72
117
 73
109
 74
110
 0
VERTEX
 8
0
 10
0
 20
0.08
 30
0
 70
128
 71
108
 72
110
 73
111
 74
119
 0
VERTEX
 8
0
 10
0
 20
0.08
 30
0
 70
128
 71
112
 72
119
 73
120
 74
113
 0
VERTEX
 8
0
 10
0
 20
0.08
 30
0
 70
128
 71
197
 72
114
 73
112
 74
115
 0
VERTEX
 8
0
 10
0
 20
0.08
 30
0
 70
128
 71
180
 72
178
 73
196
 74
182
 0
VERTEX
 8
0
 10
0
 20
0.08
 30
0
 70
128
 71
117
 72
107
 73
188
 74
124
 0
VERTEX
 8
0
 10
0
 20
0.08
 30
0
 70
128
 71
117
 72
124
 73
133
 74
109
 0
VERTEX
 8
0
 10
0
 20
0.08
 30
0
 70
128
 71
110
 72
109
 73
118
 74
111
 0
VERTEX
 8
0
 10
0
 20
0.08
 30
0
 70
128
 71
119
 72
111
 73
126
 74
120
 0
VERTEX
 8
0
 10
0
 20
0.08
 30
0
 70
128
 71
120
 72
126
 73
116
 74
113
 0
VERTEX
 8
0
 10
0
 20
0.08
 30
0
 70
128
 71
115
 72
112
 73
113
 74
116
 0
VERTEX
 8
0
 10
0
 20
0.08
 30
0
 70
128
 71
121
 72
116
 73
126
 0
VERTEX
 8
0
 10
0
 20
0.08
 30
0
 70
128
 71
121
 72
127
 73
122
 74
192
 0
VERTEX
 8
0
 10
0
 20
0.08
 30
0
 70
128
 71
192
 72
122
 73
129
 74
193
 0
VERTEX
 8
0
 10
0
 20
0.08
 30
0
 70
128
 71
193
 72
129
 73
123
 74
188
 0
VERTEX
 8
0
 10
0
 20
0.08
 30
0
 70
128
 71
123
 72
124
 73
188
 0
VERTEX
 8
0
 10
0
 20
0.08
 30
0
 70
128
 71
124
 72
131
 73
125
 74
133
 0
VERTEX
 8
0
 10
0
 20
0.08
 30
0
 70
128
 71
109
 72
133
 73
135
 74
118
 0
VERTEX
 8
0
 10
0
 20
0.08
 30
0
 70
128
 71
111
 72
118
 73
136
 74
126
 0
VERTEX
 8
0
 10
0
 20
0.08
 30
0
 70
128
 71
139
 72
121
 73
126
 74
136
 0
VERTEX
 8
0
 10
0
 20
0.08
 30
0
 70
128
 71
127
 72
121
 73
139
 0
VERTEX
 8
0
 10
0
 20
0.08
 30
0
 70
128
 71
127
 72
137
 73
128
 74
122
 0
VERTEX
 8
0
 10
0
 20
0.08
 30
0
 70
128
 71
122
 72
128
 73
132
 74
129
 0
VERTEX
 8
0
 10
0
 20
0.08
 30
0
 70
128
 71
129
 72
132
 73
130
 74
123
 0
VERTEX
 8
0
 10
0
 20
0.08
 30
0
 70
128
 71
131
 72
124
 73
123
 74
130
 0
VERTEX
 8
0
 10
0
 20
0.08
 30
0
 70
128
 71
128
 72
137
 73
138
 0
VERTEX
 8
0
 10
0
 20
0.08
 30
0
 70
128
 71
128
 72
138
 73
134
 0
VERTEX
 8
0
 10
0
 20
0.08
 30
0
 70
128
 71
131
 72
130
 73
132
 0
VERTEX
 8
0
 10
0
 20
0.08
 30
0
 70
128
 71
128
 72
134
 73
125
 0
VERTEX
 8
0
 10
0
 20
0.08
 30
0
 70
128
 71
125
 72
131
 73
132
 0
VERTEX
 8
0
 10
0
 20
0.08
 30
0
 70
128
 71
128
 72
125
 73
132
 0
VERTEX
 8
0
 10
0
 20
0.08
 30
0
 70
128
 71
133
 72
125
 73
134
 74
135
 0
VERTEX
 8
0
 10
0
 20
0.08
 30
0
 70
128
 71
118
 72
135
 73
139
 74
136
 0
VERTEX
 8
0
 10
0
 20
0.08
 30
0
 70
128
 71
137
 72
127
 73
139
 74
138
 0
VERTEX
 8
0
 10
0
 20
0.08
 30
0
 70
128
 71
135
 72
134
 73
138
 74
139
 0
VERTEX
 8
0
 10
0
 20
0.08
 30
0
 70
128
 71
146
 72
141
 73
148
 74
140
 0
VERTEX
 8
0
 10
0
 20
0.08
 30
0
 70
128
 71
141
 72
142
 73
147
 74
148
 0
VERTEX
 8
0
 10
0
 20
0.08
 30
0
 70
128
 71
140
 72
148
 73
149
 74
143
 0
VERTEX
 8
0
 10
0
 20
0.08
 30
0
 70
128
 71
143
 72
150
 73
153
 0
VERTEX
 8
0
 10
0
 20
0.08
 30
0
 70
128
 71
144
 72
145
 73
146
 0
VERTEX
 8
0
 10
0
 20
0.08
 30
0
 70
128
 71
144
 72
146
 73
140
 0
VERTEX
 8
0
 10
0
 20
0.08
 30
0
 70
128
 71
143
 72
153
 73
154
 0
VERTEX
 8
0
 10
0
 20
0.08
 30
0
 70
128
 71
144
 72
140
 73
143
 0
VERTEX
 8
0
 10
0
 20
0.08
 30
0
 70
128
 71
143
 72
154
 73
144
 0
VERTEX
 8
0
 10
0
 20
0.08
 30
0
 70
128
 71
142
 72
187
 73
157
 74
147
 0
VERTEX
 8
0
 10
0
 20
0.08
 30
0
 70
128
 71
148
 72
147
 73
163
 74
149
 0
VERTEX
 8
0
 10
0
 20
0.08
 30
0
 70
128
 71
143
 72
149
 73
151
 74
150
 0
VERTEX
 8
0
 10
0
 20
0.08
 30
0
 70
128
 71
150
 72
151
 73
152
 74
153
 0
VERTEX
 8
0
 10
0
 20
0.08
 30
0
 70
128
 71
153
 72
152
 73
158
 74
154
 0
VERTEX
 8
0
 10
0
 20
0.08
 30
0
 70
128
 71
154
 72
158
 73
155
 74
144
 0
VERTEX
 8
0
 10
0
 20
0.08
 30
0
 70
128
 71
144
 72
155
 73
161
 74
145
 0
VERTEX
 8
0
 10
0
 20
0.08
 30
0
 70
128
 71
187
 72
156
 73
162
 74
157
 0
VERTEX
 8
0
 10
0
 20
0.08
 30
0
 70
128
 71
147
 72
157
 73
164
 74
163
 0
VERTEX
 8
0
 10
0
 20
0.08
 30
0
 70
128
 71
149
 72
163
 73
165
 74
151
 0
VERTEX
 8
0
 10
0
 20
0.08
 30
0
 70
128
 71
152
 72
151
 73
172
 0
VERTEX
 8
0
 10
0
 20
0.08
 30
0
 70
128
 71
152
 72
172
 73
194
 74
158
 0
VERTEX
 8
0
 10
0
 20
0.08
 30
0
 70
128
 71
158
 72
194
 73
159
 74
155
 0
VERTEX
 8
0
 10
0
 20
0.08
 30
0
 70
128
 71
155
 72
159
 73
160
 74
161
 0
VERTEX
 8
0
 10
0
 20
0.08
 30
0
 70
128
 71
156
 72
168
 73
167
 74
162
 0
VERTEX
 8
0
 10
0
 20
0.08
 30
0
 70
128
 71
157
 72
162
 73
170
 74
164
 0
VERTEX
 8
0
 10
0
 20
0.08
 30
0
 70
128
 71
163
 72
164
 73
166
 74
165
 0
VERTEX
 8
0
 10
0
 20
0.08
 30
0
 70
128
 71
165
 72
166
 73
172
 74
151
 0
VERTEX
 8
0
 10
0
 20
0.08
 30
0
 70
128
 71
182
 72
196
 73
195
 74
181
 0
VERTEX
 8
0
 10
0
 20
0.08
 30
0
 70
128
 71
175
 72
167
 73
168
 74
177
 0
VERTEX
 8
0
 10
0
 20
0.08
 30
0
 70
128
 71
162
 72
167
 73
169
 74
170
 0
VERTEX
 8
0
 10
0
 20
0.08
 30
0
 70
128
 71
164
 72
170
 73
171
 74
166
 0
VERTEX
 8
0
 10
0
 20
0.08
 30
0
 70
128
 71
183
 72
172
 73
166
 0
VERTEX
 8
0
 10
0
 20
0.08
 30
0
 70
128
 71
169
 72
176
 73
183
 74
173
 0
VERTEX
 8
0
 10
0
 20
0.08
 30
0
 70
128
 71
176
 72
169
 73
167
 74
175
 0
VERTEX
 8
0
 10
0
 20
0.08
 30
0
 70
128
 71
170
 72
169
 73
173
 74
171
 0
VERTEX
 8
0
 10
0
 20
0.08
 30
0
 70
128
 71
173
 72
183
 73
166
 74
171
 0
VERTEX
 8
0
 10
0
 20
0.08
 30
0
 70
128
 71
174
 72
175
 73
177
 74
179
 0
VERTEX
 8
0
 10
0
 20
0.08
 30
0
 70
128
 71
184
 72
176
 73
175
 74
174
 0
VERTEX
 8
0
 10
0
 20
0.08
 30
0
 70
128
 71
179
 72
177
 73
178
 74
180
 0
VERTEX
 8
0
 10
0
 20
0.08
 30
0
 70
128
 71
182
 72
174
 73
179
 74
180
 0
VERTEX
 8
0
 10
0
 20
0.08
 30
0
 70
128
 71
186
 72
183
 73
176
 74
184
 0
VERTEX
 8
0
 10
0
 20
0.08
 30
0
 70
128
 71
181
 72
184
 73
174
 74
182
 0
VERTEX
 8
0
 10
0
 20
0.08
 30
0
 70
128
 71
177
 72
160
 73
178
 0
VERTEX
 8
0
 10
0
 20
0.08
 30
0
 70
128
 71
185
 72
200
 73
183
 74
186
 0
VERTEX
 8
0
 10
0
 20
0.08
 30
0
 70
128
 71
184
 72
181
 73
185
 74
186
 0
VERTEX
 8
0
 10
0
 20
0.08
 30
0
 70
128
 71
187
 72
160
 73
177
 0
VERTEX
 8
0
 10
0
 20
0.08
 30
0
 70
128
 71
188
 72
190
 73
178
 74
160
 0
VERTEX
 8
0
 10
0
 20
0.08
 30
0
 70
128
 71
172
 72
183
 73
200
 0
VERTEX
 8
0
 10
0
 20
0.08
 30
0
 70
128
 71
142
 72
141
 73
160
 74
187
 0
VERTEX
 8
0
 10
0
 20
0.08
 30
0
 70
128
 71
156
 72
187
 73
177
 74
168
 0
VERTEX
 8
0
 10
0
 20
0.08
 30
0
 70
128
 71
189
 72
178
 73
190
 0
VERTEX
 8
0
 10
0
 20
0.08
 30
0
 70
128
 71
160
 72
159
 73
193
 74
188
 0
VERTEX
 8
0
 10
0
 20
0.08
 30
0
 70
128
 71
172
 72
200
 73
116
 74
121
 0
VERTEX
 8
0
 10
0
 20
0.08
 30
0
 70
128
 71
160
 72
141
 73
161
 0
VERTEX
 8
0
 10
0
 20
0.08
 30
0
 70
128
 71
196
 72
178
 73
189
 74
191
 0
VERTEX
 8
0
 10
0
 20
0.08
 30
0
 70
128
 71
189
 72
190
 73
197
 74
191
 0
VERTEX
 8
0
 10
0
 20
0.08
 30
0
 70
128
 71
159
 72
194
 73
192
 74
193
 0
VERTEX
 8
0
 10
0
 20
0.08
 30
0
 70
128
 71
199
 72
116
 73
200
 0
VERTEX
 8
0
 10
0
 20
0.08
 30
0
 70
128
 71
192
 72
194
 73
172
 74
121
 0
VERTEX
 8
0
 10
0
 20
0.08
 30
0
 70
128
 71
145
 72
161
 73
141
 74
146
 0
VERTEX
 8
0
 10
0
 20
0.08
 30
0
 70
128
 71
195
 72
196
 73
191
 74
198
 0
VERTEX
 8
0
 10
0
 20
0.08
 30
0
 70
128
 71
191
 72
197
 73
115
 74
198
 0
VERTEX
 8
0
 10
0
 20
0.08
 30
0
 70
128
 71
198
 72
115
 73
116
 74
199
 0
VERTEX
 8
0
 10
0
 20
0.08
 30
0
 70
128
 71
200
 72
195
 73
198
 74
199
 0
VERTEX
 8
0
 10
0
 20
0.08
 30
0
 70
128
 71
200
 72
185
 73
181
 74
195
 0
SEQEND
 8
0
 0
ENDSEC
 0
EOF
