 0
SECTION
 2
HEADER
 9
$ACADVER
 1
AC1009
 9
$INSBASE
 10
0.0
 20
0.0
 30
0.0
 9
$EXTMIN
 10
0.0
 20
0.0
 30
0.0
 9
$EXTMAX
 10
0.0
 20
0.0
 30
0.0
 0
ENDSEC
 0
SECTION
 2
TABLES
 0
TABLE
 2
VPORT
 70
1
 0
VPORT
 2
*ACTIVE
 70
0
 10
0.0
 20
0.0
 11
1.0
 21
1.0
 12
-5.0
 22
1.0
 13
0.0
 23
0.0
 14
0.1
 24
0.1
 15
0.1
 25
0.1
 16
0.0
 26
0.0
 36
1.0
 17
0.0
 27
0.0
 37
0.0
 40
10.0
 41
1.0
 42
50.0
 43
0.0
 44
0.0
 50
0.0
 51
0.0
 71
0
 72
100
 73
1
 74
1
 75
0
 76
0
 77
0
 78
0
 0
ENDTAB
 0
TABLE
 2
LTYPE
 70
8
 0
LTYPE
 2
CONTINUOUS
 70
0
 3
Solid line
 72
65
 73
0
 40
0.0
 0
LTYPE
 2
DOT
 70
0
 3
. . . . . . .
 72
65
 73
2
 40
0.25
 49
0.0
 49
-0.25
 0
LTYPE
 2
DASHED
 70
0
 3
__ __ __ __ __
 72
65
 73
2
 40
0.8
 49
0.5
 49
-0.3
 0
LTYPE
 2
DASHDOT
 70
0
 3
__ . __ . __ .
 72
65
 73
4
 40
1.0
 49
0.5
 49
-0.25
 49
0.0
 49
-0.25
 0
LTYPE
 2
DIVIDE
 70
0
 3
____ . . ____ . . 
 72
65
 73
6
 40
1.25
 49
0.5
 49
-0.25
 49
0.0
 49
-0.25
 49
0.0
 49
-0.25
 0
LTYPE
 2
BORDER
 70
0
 3
__ __ . __ __ . 
 72
65
 73
6
 40
1.75
 49
0.5
 49
-0.25
 49
0.5
 49
-0.25
 49
0.0
 49
-0.25
 0
LTYPE
 2
HIDDEN
 70
0
 3
__ __ __ __ __
 72
65
 73
2
 40
0.4
 49
0.25
 49
-0.25
 0
LTYPE
 2
CENTER
 70
0
 3
____ _ ____ _ __
 72
65
 73
4
 40
2.0
 49
1.25
 49
-0.25
 49
0.25
 49
-0.25
 0
ENDTAB
 0
TABLE
 2
LAYER
 70
1
 0
LAYER
 2
PYDXF
 70
64
 62
7
 6
continuous
 0
ENDTAB
 0
TABLE
 2
STYLE
 70
1
 0
STYLE
 2
STANDARD
 70
0
 40
0
 41
1.0
 50
0.0
 71
0
 42
1
 3
ARIAL.TTF
 4

 0
ENDTAB
 0
TABLE
 2
VIEW
 70
1
 0
VIEW
 2
BF_TOPVIEW
 70
0
 40
120.0
 10
0.0
 20
0.0
 41
200.0
 11
0.0
 21
0.0
 31
1.0
 12
0.0
 22
0.0
 32
0.0
 42
50.0
 43
0.0
 44
0.0
 50
0.0
 71
0
 0
ENDTAB
 0
ENDSEC
 0
SECTION
 2
BLOCKS
 0
ENDSEC
 0
SECTION
 2
ENTITIES
 0
POLYLINE
 8
0
 70
64
 66
1
 10
0.0
 20
0.0
 30
0.0
 71
506
 72
569
 0
VERTEX
 8
0
 10
-0.335
 20
-0.25
 30
2.45
 70
192
 0
VERTEX
 8
0
 10
-0.335
 20
-0.25
 30
2.46
 70
192
 0
VERTEX
 8
0
 10
-0.315
 20
-0.37
 30
2.43
 70
192
 0
VERTEX
 8
0
 10
-0.305
 20
-0.25
 30
2.43
 70
192
 0
VERTEX
 8
0
 10
-0.315
 20
-0.25
 30
2.43
 70
192
 0
VERTEX
 8
0
 10
-0.335
 20
-0.39
 30
2.46
 70
192
 0
VERTEX
 8
0
 10
-0.395
 20
-0.25
 30
2.52
 70
192
 0
VERTEX
 8
0
 10
1.245
 20
-0.39
 30
2.45
 70
192
 0
VERTEX
 8
0
 10
1.225
 20
-0.25
 30
2.43
 70
192
 0
VERTEX
 8
0
 10
1.225
 20
-0.37
 30
2.43
 70
192
 0
VERTEX
 8
0
 10
1.215
 20
-0.25
 30
2.43
 70
192
 0
VERTEX
 8
0
 10
1.245
 20
-0.25
 30
2.45
 70
192
 0
VERTEX
 8
0
 10
1.195
 20
-0.25
 30
2.41
 70
192
 0
VERTEX
 8
0
 10
-0.305
 20
-0.36
 30
2.43
 70
192
 0
VERTEX
 8
0
 10
-0.335
 20
-0.39
 30
2.45
 70
192
 0
VERTEX
 8
0
 10
-0.395
 20
-0.25
 30
2.46
 70
192
 0
VERTEX
 8
0
 10
1.305
 20
-0.25
 30
2.46
 70
192
 0
VERTEX
 8
0
 10
1.245
 20
-0.39
 30
2.46
 70
192
 0
VERTEX
 8
0
 10
1.245
 20
-0.25
 30
2.46
 70
192
 0
VERTEX
 8
0
 10
1.215
 20
-0.36
 30
2.43
 70
192
 0
VERTEX
 8
0
 10
1.215
 20
-0.36
 30
2.42
 70
192
 0
VERTEX
 8
0
 10
1.215
 20
-0.25
 30
2.42
 70
192
 0
VERTEX
 8
0
 10
-0.305
 20
-0.25
 30
2.42
 70
192
 0
VERTEX
 8
0
 10
-0.295
 20
-0.35
 30
2.42
 70
192
 0
VERTEX
 8
0
 10
-0.295
 20
-0.25
 30
2.42
 70
192
 0
VERTEX
 8
0
 10
-0.285
 20
-0.34
 30
2.41
 70
192
 0
VERTEX
 8
0
 10
1.205
 20
-0.25
 30
2.42
 70
192
 0
VERTEX
 8
0
 10
1.185
 20
-0.25
 30
2.4
 70
192
 0
VERTEX
 8
0
 10
-0.305
 20
-0.36
 30
2.42
 70
192
 0
VERTEX
 8
0
 10
-0.395
 20
-0.45
 30
2.52
 70
192
 0
VERTEX
 8
0
 10
1.305
 20
-0.25
 30
2.52
 70
192
 0
VERTEX
 8
0
 10
-0.285
 20
-0.25
 30
2.41
 70
192
 0
VERTEX
 8
0
 10
1.205
 20
-0.35
 30
2.42
 70
192
 0
VERTEX
 8
0
 10
1.195
 20
-0.34
 30
2.41
 70
192
 0
VERTEX
 8
0
 10
1.195
 20
-0.34
 30
2.4
 70
192
 0
VERTEX
 8
0
 10
1.195
 20
-0.25
 30
2.4
 70
192
 0
VERTEX
 8
0
 10
-0.275
 20
-0.25
 30
2.21
 70
192
 0
VERTEX
 8
0
 10
-0.395
 20
-0.45
 30
2.46
 70
192
 0
VERTEX
 8
0
 10
1.305
 20
-0.45
 30
2.46
 70
192
 0
VERTEX
 8
0
 10
1.305
 20
-0.45
 30
2.52
 70
192
 0
VERTEX
 8
0
 10
-0.405
 20
-0.46
 30
2.53
 70
192
 0
VERTEX
 8
0
 10
-0.405
 20
-0.25
 30
2.53
 70
192
 0
VERTEX
 8
0
 10
-0.405
 20
-0.25
 30
2.52
 70
192
 0
VERTEX
 8
0
 10
-0.425
 20
-0.25
 30
2.55
 70
192
 0
VERTEX
 8
0
 10
1.315
 20
-0.46
 30
2.52
 70
192
 0
VERTEX
 8
0
 10
1.315
 20
-0.25
 30
2.53
 70
192
 0
VERTEX
 8
0
 10
1.315
 20
-0.25
 30
2.52
 70
192
 0
VERTEX
 8
0
 10
-0.285
 20
-0.34
 30
2.4
 70
192
 0
VERTEX
 8
0
 10
-0.285
 20
-0.25
 30
2.4
 70
192
 0
VERTEX
 8
0
 10
-0.275
 20
-0.33
 30
2.21
 70
192
 0
VERTEX
 8
0
 10
-0.275
 20
-0.25
 30
2.4
 70
192
 0
VERTEX
 8
0
 10
1.185
 20
-0.33
 30
2.4
 70
192
 0
VERTEX
 8
0
 10
1.185
 20
-0.33
 30
2.21
 70
192
 0
VERTEX
 8
0
 10
1.185
 20
-0.25
 30
2.21
 70
192
 0
VERTEX
 8
0
 10
1.185
 20
-0.25
 30
2.2
 70
192
 0
VERTEX
 8
0
 10
-0.405
 20
-0.46
 30
2.52
 70
192
 0
VERTEX
 8
0
 10
-0.415
 20
-0.25
 30
2.54
 70
192
 0
VERTEX
 8
0
 10
-0.415
 20
-0.47
 30
2.54
 70
192
 0
VERTEX
 8
0
 10
1.315
 20
-0.46
 30
2.53
 70
192
 0
VERTEX
 8
0
 10
-0.425
 20
-0.25
 30
2.54
 70
192
 0
VERTEX
 8
0
 10
1.355
 20
-0.25
 30
2.581
 70
192
 0
VERTEX
 8
0
 10
1.335
 20
-0.25
 30
2.54
 70
192
 0
VERTEX
 8
0
 10
1.325
 20
-0.47
 30
2.54
 70
192
 0
VERTEX
 8
0
 10
1.325
 20
-0.25
 30
2.54
 70
192
 0
VERTEX
 8
0
 10
-0.275
 20
-0.33
 30
2.4
 70
192
 0
VERTEX
 8
0
 10
-0.285
 20
-0.34
 30
2.21
 70
192
 0
VERTEX
 8
0
 10
-0.285
 20
-0.25
 30
2.21
 70
192
 0
VERTEX
 8
0
 10
1.195
 20
-0.25
 30
2.21
 70
192
 0
VERTEX
 8
0
 10
1.195
 20
-0.25
 30
2.2
 70
192
 0
VERTEX
 8
0
 10
-0.473
 20
-0.25
 30
2.591
 70
192
 0
VERTEX
 8
0
 10
1.195
 20
-0.34
 30
2.2
 70
192
 0
VERTEX
 8
0
 10
-0.285
 20
-0.25
 30
2.2
 70
192
 0
VERTEX
 8
0
 10
-0.275
 20
-0.25
 30
2.11
 70
192
 0
VERTEX
 8
0
 10
-0.015
 20
-0.33
 30
2.11
 70
192
 0
VERTEX
 8
0
 10
-0.015
 20
-0.25
 30
2.11
 70
192
 0
VERTEX
 8
0
 10
0.925
 20
-0.33
 30
2.11
 70
192
 0
VERTEX
 8
0
 10
-0.435
 20
-0.25
 30
2.556
 70
192
 0
VERTEX
 8
0
 10
-0.425
 20
-0.48
 30
2.55
 70
192
 0
VERTEX
 8
0
 10
-0.425
 20
-0.48
 30
2.54
 70
192
 0
VERTEX
 8
0
 10
1.335
 20
-0.48
 30
2.54
 70
192
 0
VERTEX
 8
0
 10
-0.445
 20
-0.25
 30
2.581
 70
192
 0
VERTEX
 8
0
 10
-0.435
 20
-0.49
 30
2.556
 70
192
 0
VERTEX
 8
0
 10
-0.445
 20
-0.5
 30
2.581
 70
192
 0
VERTEX
 8
0
 10
1.383
 20
-0.25
 30
2.591
 70
192
 0
VERTEX
 8
0
 10
1.345
 20
-0.25
 30
2.556
 70
192
 0
VERTEX
 8
0
 10
1.335
 20
-0.25
 30
2.55
 70
192
 0
VERTEX
 8
0
 10
1.345
 20
-0.49
 30
2.556
 70
192
 0
VERTEX
 8
0
 10
1.335
 20
-0.48
 30
2.55
 70
192
 0
VERTEX
 8
0
 10
-0.285
 20
-0.34
 30
2.2
 70
192
 0
VERTEX
 8
0
 10
1.195
 20
-0.34
 30
2.21
 70
192
 0
VERTEX
 8
0
 10
-0.275
 20
-0.33
 30
2.11
 70
192
 0
VERTEX
 8
0
 10
-0.275
 20
-0.33
 30
2.2
 70
192
 0
VERTEX
 8
0
 10
-0.275
 20
-0.25
 30
2.2
 70
192
 0
VERTEX
 8
0
 10
1.185
 20
-0.33
 30
2.11
 70
192
 0
VERTEX
 8
0
 10
-0.025
 20
-0.25
 30
2.1
 70
192
 0
VERTEX
 8
0
 10
-0.315
 20
-0.25
 30
2.1
 70
192
 0
VERTEX
 8
0
 10
1.225
 20
-0.25
 30
2.1
 70
192
 0
VERTEX
 8
0
 10
0.935
 20
-0.25
 30
2.1
 70
192
 0
VERTEX
 8
0
 10
0.925
 20
-0.25
 30
2.11
 70
192
 0
VERTEX
 8
0
 10
1.185
 20
-0.33
 30
2.2
 70
192
 0
VERTEX
 8
0
 10
-0.473
 20
-0.528
 30
2.601
 70
192
 0
VERTEX
 8
0
 10
-0.473
 20
-0.25
 30
2.601
 70
192
 0
VERTEX
 8
0
 10
1.383
 20
-0.528
 30
2.591
 70
192
 0
VERTEX
 8
0
 10
1.355
 20
-0.5
 30
2.581
 70
192
 0
VERTEX
 8
0
 10
-0.325
 20
-0.25
 30
2.11
 70
192
 0
VERTEX
 8
0
 10
-0.325
 20
-0.38
 30
2.11
 70
192
 0
VERTEX
 8
0
 10
1.185
 20
-0.25
 30
2.11
 70
192
 0
VERTEX
 8
0
 10
1.235
 20
-0.38
 30
2.11
 70
192
 0
VERTEX
 8
0
 10
1.235
 20
-0.25
 30
2.1
 70
192
 0
VERTEX
 8
0
 10
-0.015
 20
-0.38
 30
2.11
 70
192
 0
VERTEX
 8
0
 10
-0.473
 20
-0.528
 30
2.591
 70
192
 0
VERTEX
 8
0
 10
1.383
 20
-0.25
 30
2.601
 70
192
 0
VERTEX
 8
0
 10
1.383
 20
-0.528
 30
2.601
 70
192
 0
VERTEX
 8
0
 10
-0.325
 20
-0.25
 30
2.1
 70
192
 0
VERTEX
 8
0
 10
1.235
 20
-0.25
 30
2.11
 70
192
 0
VERTEX
 8
0
 10
-0.015
 20
-0.25
 30
2.1
 70
192
 0
VERTEX
 8
0
 10
-0.315
 20
-0.25
 30
2.07
 70
192
 0
VERTEX
 8
0
 10
1.225
 20
-0.25
 30
2.07
 70
192
 0
VERTEX
 8
0
 10
0.925
 20
-0.25
 30
2.1
 70
192
 0
VERTEX
 8
0
 10
0.925
 20
-0.38
 30
2.1
 70
192
 0
VERTEX
 8
0
 10
-0.015
 20
-0.38
 30
2.1
 70
192
 0
VERTEX
 8
0
 10
-0.325
 20
-0.38
 30
2.1
 70
192
 0
VERTEX
 8
0
 10
0.925
 20
-0.38
 30
2.11
 70
192
 0
VERTEX
 8
0
 10
1.235
 20
-0.38
 30
2.1
 70
192
 0
VERTEX
 8
0
 10
-0.025
 20
-0.25
 30
2.07
 70
192
 0
VERTEX
 8
0
 10
-0.025
 20
-0.37
 30
2.07
 70
192
 0
VERTEX
 8
0
 10
-0.035
 20
-0.25
 30
2.07
 70
192
 0
VERTEX
 8
0
 10
-0.305
 20
-0.25
 30
2.06
 70
192
 0
VERTEX
 8
0
 10
-0.035
 20
-0.36
 30
2.07
 70
192
 0
VERTEX
 8
0
 10
-0.305
 20
-0.25
 30
2.07
 70
192
 0
VERTEX
 8
0
 10
-0.315
 20
-0.37
 30
2.07
 70
192
 0
VERTEX
 8
0
 10
1.225
 20
-0.37
 30
2.07
 70
192
 0
VERTEX
 8
0
 10
0.945
 20
-0.25
 30
2.07
 70
192
 0
VERTEX
 8
0
 10
0.935
 20
-0.25
 30
2.07
 70
192
 0
VERTEX
 8
0
 10
1.215
 20
-0.25
 30
2.07
 70
192
 0
VERTEX
 8
0
 10
1.215
 20
-0.36
 30
2.07
 70
192
 0
VERTEX
 8
0
 10
0.945
 20
-0.25
 30
2.06
 70
192
 0
VERTEX
 8
0
 10
0.945
 20
-0.36
 30
2.07
 70
192
 0
VERTEX
 8
0
 10
-0.025
 20
-0.37
 30
2.1
 70
192
 0
VERTEX
 8
0
 10
-0.315
 20
-0.37
 30
2.1
 70
192
 0
VERTEX
 8
0
 10
-0.285
 20
-0.34
 30
2.04
 70
192
 0
VERTEX
 8
0
 10
-0.035
 20
-0.36
 30
2.06
 70
192
 0
VERTEX
 8
0
 10
-0.305
 20
-0.36
 30
2.07
 70
192
 0
VERTEX
 8
0
 10
-0.055
 20
-0.25
 30
2.04
 70
192
 0
VERTEX
 8
0
 10
-0.035
 20
-0.25
 30
2.06
 70
192
 0
VERTEX
 8
0
 10
0.935
 20
-0.37
 30
2.1
 70
192
 0
VERTEX
 8
0
 10
0.935
 20
-0.37
 30
2.07
 70
192
 0
VERTEX
 8
0
 10
1.225
 20
-0.37
 30
2.1
 70
192
 0
VERTEX
 8
0
 10
1.195
 20
-0.25
 30
2.04
 70
192
 0
VERTEX
 8
0
 10
1.215
 20
-0.25
 30
2.06
 70
192
 0
VERTEX
 8
0
 10
1.215
 20
-0.36
 30
2.06
 70
192
 0
VERTEX
 8
0
 10
0.965
 20
-0.25
 30
2.04
 70
192
 0
VERTEX
 8
0
 10
-0.285
 20
-0.25
 30
2.04
 70
192
 0
VERTEX
 8
0
 10
-0.285
 20
-0.25
 30
2.03
 70
192
 0
VERTEX
 8
0
 10
-0.305
 20
-0.36
 30
2.06
 70
192
 0
VERTEX
 8
0
 10
-0.055
 20
-0.34
 30
2.04
 70
192
 0
VERTEX
 8
0
 10
-0.275
 20
-0.25
 30
1.94
 70
192
 0
VERTEX
 8
0
 10
-0.055
 20
-0.25
 30
2.03
 70
192
 0
VERTEX
 8
0
 10
0.945
 20
-0.36
 30
2.06
 70
192
 0
VERTEX
 8
0
 10
1.195
 20
-0.34
 30
2.04
 70
192
 0
VERTEX
 8
0
 10
1.195
 20
-0.34
 30
2.03
 70
192
 0
VERTEX
 8
0
 10
-0.285
 20
-0.34
 30
2.03
 70
192
 0
VERTEX
 8
0
 10
-0.055
 20
-0.34
 30
2.03
 70
192
 0
VERTEX
 8
0
 10
-0.275
 20
-0.25
 30
2.03
 70
192
 0
VERTEX
 8
0
 10
-0.275
 20
-0.33
 30
1.94
 70
192
 0
VERTEX
 8
0
 10
-0.065
 20
-0.25
 30
2.03
 70
192
 0
VERTEX
 8
0
 10
0.965
 20
-0.34
 30
2.04
 70
192
 0
VERTEX
 8
0
 10
1.185
 20
-0.33
 30
2.03
 70
192
 0
VERTEX
 8
0
 10
1.195
 20
-0.25
 30
2.03
 70
192
 0
VERTEX
 8
0
 10
1.185
 20
-0.25
 30
1.94
 70
192
 0
VERTEX
 8
0
 10
1.185
 20
-0.25
 30
2.03
 70
192
 0
VERTEX
 8
0
 10
0.965
 20
-0.34
 30
2.03
 70
192
 0
VERTEX
 8
0
 10
0.965
 20
-0.25
 30
2.03
 70
192
 0
VERTEX
 8
0
 10
0.975
 20
-0.25
 30
2.03
 70
192
 0
VERTEX
 8
0
 10
-0.275
 20
-0.33
 30
2.03
 70
192
 0
VERTEX
 8
0
 10
-0.065
 20
-0.33
 30
1.94
 70
192
 0
VERTEX
 8
0
 10
-0.065
 20
-0.33
 30
2.03
 70
192
 0
VERTEX
 8
0
 10
-0.065
 20
-0.25
 30
1.94
 70
192
 0
VERTEX
 8
0
 10
-0.285
 20
-0.25
 30
1.94
 70
192
 0
VERTEX
 8
0
 10
-0.055
 20
-0.25
 30
1.94
 70
192
 0
VERTEX
 8
0
 10
-0.045
 20
-0.25
 30
0.13
 70
192
 0
VERTEX
 8
0
 10
1.185
 20
-0.33
 30
1.94
 70
192
 0
VERTEX
 8
0
 10
0.975
 20
-0.33
 30
2.03
 70
192
 0
VERTEX
 8
0
 10
1.195
 20
-0.25
 30
1.94
 70
192
 0
VERTEX
 8
0
 10
0.965
 20
-0.34
 30
1.94
 70
192
 0
VERTEX
 8
0
 10
0.975
 20
-0.33
 30
1.94
 70
192
 0
VERTEX
 8
0
 10
0.975
 20
-0.25
 30
1.94
 70
192
 0
VERTEX
 8
0
 10
0.965
 20
-0.25
 30
1.94
 70
192
 0
VERTEX
 8
0
 10
-0.285
 20
-0.34
 30
1.94
 70
192
 0
VERTEX
 8
0
 10
-0.055
 20
-0.25
 30
1.93
 70
192
 0
VERTEX
 8
0
 10
-0.055
 20
-0.34
 30
1.94
 70
192
 0
VERTEX
 8
0
 10
-0.055
 20
-0.34
 30
1.93
 70
192
 0
VERTEX
 8
0
 10
-0.285
 20
-0.25
 30
1.93
 70
192
 0
VERTEX
 8
0
 10
-0.275
 20
-0.25
 30
1.93
 70
192
 0
VERTEX
 8
0
 10
-0.065
 20
-0.33
 30
1.93
 70
192
 0
VERTEX
 8
0
 10
-0.275
 20
-0.33
 30
1.93
 70
192
 0
VERTEX
 8
0
 10
-0.065
 20
-0.25
 30
1.93
 70
192
 0
VERTEX
 8
0
 10
-0.035
 20
-0.25
 30
0.12
 70
192
 0
VERTEX
 8
0
 10
1.195
 20
-0.25
 30
1.93
 70
192
 0
VERTEX
 8
0
 10
1.195
 20
-0.34
 30
1.94
 70
192
 0
VERTEX
 8
0
 10
1.195
 20
-0.34
 30
1.93
 70
192
 0
VERTEX
 8
0
 10
1.185
 20
-0.33
 30
1.93
 70
192
 0
VERTEX
 8
0
 10
1.205
 20
-0.25
 30
0.13
 70
192
 0
VERTEX
 8
0
 10
1.185
 20
-0.25
 30
1.93
 70
192
 0
VERTEX
 8
0
 10
1.215
 20
-0.25
 30
0.12
 70
192
 0
VERTEX
 8
0
 10
0.975
 20
-0.25
 30
1.93
 70
192
 0
VERTEX
 8
0
 10
0.975
 20
-0.33
 30
1.93
 70
192
 0
VERTEX
 8
0
 10
0.965
 20
-0.25
 30
1.93
 70
192
 0
VERTEX
 8
0
 10
0.965
 20
-0.34
 30
1.93
 70
192
 0
VERTEX
 8
0
 10
-0.285
 20
-0.34
 30
1.93
 70
192
 0
VERTEX
 8
0
 10
-0.295
 20
-0.25
 30
0.13
 70
192
 0
VERTEX
 8
0
 10
-0.305
 20
-0.25
 30
0.13
 70
192
 0
VERTEX
 8
0
 10
-0.295
 20
-0.35
 30
0.13
 70
192
 0
VERTEX
 8
0
 10
-0.035
 20
-0.25
 30
0.13
 70
192
 0
VERTEX
 8
0
 10
-0.045
 20
-0.35
 30
0.13
 70
192
 0
VERTEX
 8
0
 10
-0.035
 20
-0.36
 30
0.13
 70
192
 0
VERTEX
 8
0
 10
1.205
 20
-0.35
 30
0.13
 70
192
 0
VERTEX
 8
0
 10
0.955
 20
-0.35
 30
0.13
 70
192
 0
VERTEX
 8
0
 10
1.215
 20
-0.25
 30
0.13
 70
192
 0
VERTEX
 8
0
 10
0.925
 20
-0.25
 30
0.1
 70
192
 0
VERTEX
 8
0
 10
0.945
 20
-0.25
 30
0.13
 70
192
 0
VERTEX
 8
0
 10
0.955
 20
-0.25
 30
0.13
 70
192
 0
VERTEX
 8
0
 10
-0.305
 20
-0.36
 30
0.13
 70
192
 0
VERTEX
 8
0
 10
-0.305
 20
-0.25
 30
0.12
 70
192
 0
VERTEX
 8
0
 10
-0.325
 20
-0.25
 30
0.1
 70
192
 0
VERTEX
 8
0
 10
-0.325
 20
-0.38
 30
0.1
 70
192
 0
VERTEX
 8
0
 10
-0.015
 20
-0.38
 30
0.1
 70
192
 0
VERTEX
 8
0
 10
1.215
 20
-0.36
 30
0.12
 70
192
 0
VERTEX
 8
0
 10
0.925
 20
-0.25
 30
0.08
 70
192
 0
VERTEX
 8
0
 10
0.945
 20
-0.25
 30
0.12
 70
192
 0
VERTEX
 8
0
 10
0.945
 20
-0.36
 30
0.13
 70
192
 0
VERTEX
 8
0
 10
-0.305
 20
-0.36
 30
0.12
 70
192
 0
VERTEX
 8
0
 10
-0.035
 20
-0.36
 30
0.12
 70
192
 0
VERTEX
 8
0
 10
-0.015
 20
-0.25
 30
0.1
 70
192
 0
VERTEX
 8
0
 10
-0.025
 20
-0.25
 30
0.07
 70
192
 0
VERTEX
 8
0
 10
0.945
 20
-0.36
 30
0.12
 70
192
 0
VERTEX
 8
0
 10
1.215
 20
-0.36
 30
0.13
 70
192
 0
VERTEX
 8
0
 10
1.235
 20
-0.25
 30
0.1
 70
192
 0
VERTEX
 8
0
 10
0.935
 20
-0.25
 30
0.07
 70
192
 0
VERTEX
 8
0
 10
0.925
 20
-0.38
 30
0.1
 70
192
 0
VERTEX
 8
0
 10
-0.325
 20
-0.25
 30
0.08
 70
192
 0
VERTEX
 8
0
 10
-0.315
 20
-0.37
 30
0.07
 70
192
 0
VERTEX
 8
0
 10
-0.325
 20
-0.38
 30
0.08
 70
192
 0
VERTEX
 8
0
 10
-0.015
 20
-0.25
 30
0.08
 70
192
 0
VERTEX
 8
0
 10
0.925
 20
-0.38
 30
0.08
 70
192
 0
VERTEX
 8
0
 10
1.235
 20
-0.38
 30
0.1
 70
192
 0
VERTEX
 8
0
 10
1.235
 20
-0.25
 30
0.08
 70
192
 0
VERTEX
 8
0
 10
1.235
 20
-0.38
 30
0.08
 70
192
 0
VERTEX
 8
0
 10
1.235
 20
-0.25
 30
0.0
 70
192
 0
VERTEX
 8
0
 10
0.935
 20
-0.37
 30
0.07
 70
192
 0
VERTEX
 8
0
 10
-0.315
 20
-0.25
 30
0.07
 70
192
 0
VERTEX
 8
0
 10
-0.015
 20
-0.38
 30
0.08
 70
192
 0
VERTEX
 8
0
 10
-0.025
 20
-0.37
 30
0.07
 70
192
 0
VERTEX
 8
0
 10
-0.015
 20
-0.38
 30
0.07
 70
192
 0
VERTEX
 8
0
 10
-0.015
 20
-0.25
 30
0.07
 70
192
 0
VERTEX
 8
0
 10
-0.325
 20
-0.25
 30
0.0
 70
192
 0
VERTEX
 8
0
 10
-0.015
 20
-0.25
 30
0.0
 70
192
 0
VERTEX
 8
0
 10
1.225
 20
-0.37
 30
0.07
 70
192
 0
VERTEX
 8
0
 10
1.235
 20
-0.25
 30
0.07
 70
192
 0
VERTEX
 8
0
 10
1.225
 20
-0.25
 30
0.07
 70
192
 0
VERTEX
 8
0
 10
0.925
 20
-0.38
 30
0.0
 70
192
 0
VERTEX
 8
0
 10
0.925
 20
-0.25
 30
0.0
 70
192
 0
VERTEX
 8
0
 10
0.925
 20
-0.25
 30
0.07
 70
192
 0
VERTEX
 8
0
 10
-0.325
 20
-0.25
 30
0.07
 70
192
 0
VERTEX
 8
0
 10
-0.325
 20
-0.38
 30
0.0
 70
192
 0
VERTEX
 8
0
 10
-0.015
 20
-0.38
 30
0.0
 70
192
 0
VERTEX
 8
0
 10
-0.325
 20
-0.38
 30
0.07
 70
192
 0
VERTEX
 8
0
 10
1.235
 20
-0.38
 30
0.07
 70
192
 0
VERTEX
 8
0
 10
1.235
 20
-0.38
 30
0.0
 70
192
 0
VERTEX
 8
0
 10
0.925
 20
-0.38
 30
0.07
 70
192
 0
VERTEX
 8
0
 10
0.9
 20
-0.02
 30
0.025
 70
192
 0
VERTEX
 8
0
 10
0.0
 20
-0.02
 30
0.0
 70
192
 0
VERTEX
 8
0
 10
0.01
 20
-0.02
 30
0.025
 70
192
 0
VERTEX
 8
0
 10
0.01
 20
-0.072
 30
0.025
 70
192
 0
VERTEX
 8
0
 10
0.9
 20
-0.072
 30
0.025
 70
192
 0
VERTEX
 8
0
 10
0.885
 20
-0.072
 30
0.025
 70
192
 0
VERTEX
 8
0
 10
0.91
 20
-0.02
 30
0.0
 70
192
 0
VERTEX
 8
0
 10
0.025
 20
-0.072
 30
2.055
 70
192
 0
VERTEX
 8
0
 10
0.01
 20
-0.072
 30
2.07
 70
192
 0
VERTEX
 8
0
 10
0.9
 20
-0.072
 30
2.07
 70
192
 0
VERTEX
 8
0
 10
0.9
 20
-0.02
 30
2.07
 70
192
 0
VERTEX
 8
0
 10
0.0
 20
-0.02
 30
2.08
 70
192
 0
VERTEX
 8
0
 10
0.01
 20
-0.02
 30
2.07
 70
192
 0
VERTEX
 8
0
 10
0.0
 20
-0.15
 30
2.08
 70
192
 0
VERTEX
 8
0
 10
0.0
 20
-0.15
 30
0.0
 70
192
 0
VERTEX
 8
0
 10
0.91
 20
-0.15
 30
0.0
 70
192
 0
VERTEX
 8
0
 10
0.91
 20
-0.02
 30
2.08
 70
192
 0
VERTEX
 8
0
 10
0.01
 20
-0.15
 30
2.07
 70
192
 0
VERTEX
 8
0
 10
0.01
 20
-0.15
 30
0.025
 70
192
 0
VERTEX
 8
0
 10
0.9
 20
-0.15
 30
0.025
 70
192
 0
VERTEX
 8
0
 10
0.885
 20
-0.1
 30
0.025
 70
192
 0
VERTEX
 8
0
 10
0.025
 20
-0.1
 30
0.025
 70
192
 0
VERTEX
 8
0
 10
0.025
 20
-0.1
 30
2.055
 70
192
 0
VERTEX
 8
0
 10
0.01
 20
-0.1
 30
2.065
 70
192
 0
VERTEX
 8
0
 10
0.01
 20
-0.1
 30
0.025
 70
192
 0
VERTEX
 8
0
 10
0.9
 20
-0.1
 30
2.065
 70
192
 0
VERTEX
 8
0
 10
0.9
 20
-0.15
 30
2.07
 70
192
 0
VERTEX
 8
0
 10
0.91
 20
-0.15
 30
2.08
 70
192
 0
VERTEX
 8
0
 10
0.9
 20
-0.1
 30
0.025
 70
192
 0
VERTEX
 8
0
 10
0.025
 20
-0.072
 30
0.025
 70
192
 0
VERTEX
 8
0
 10
0.885
 20
-0.1
 30
2.055
 70
192
 0
VERTEX
 8
0
 10
0.885
 20
-0.072
 30
2.055
 70
192
 0
VERTEX
 8
0
 10
0.012
 20
-0.02
 30
2.068
 70
192
 0
VERTEX
 8
0
 10
0.898
 20
-0.07
 30
0.075
 70
192
 0
VERTEX
 8
0
 10
0.898
 20
-0.07
 30
2.068
 70
192
 0
VERTEX
 8
0
 10
0.012
 20
-0.07
 30
2.068
 70
192
 0
VERTEX
 8
0
 10
0.898
 20
-0.07
 30
0.027
 70
192
 0
VERTEX
 8
0
 10
0.012
 20
-0.07
 30
0.027
 70
192
 0
VERTEX
 8
0
 10
0.012
 20
-0.07
 30
0.075
 70
192
 0
VERTEX
 8
0
 10
0.898
 20
-0.02
 30
0.027
 70
192
 0
VERTEX
 8
0
 10
0.883
 20
-0.07
 30
0.027
 70
192
 0
VERTEX
 8
0
 10
0.027
 20
-0.08
 30
0.075
 70
192
 0
VERTEX
 8
0
 10
0.027
 20
-0.07
 30
0.027
 70
192
 0
VERTEX
 8
0
 10
0.883
 20
-0.11
 30
0.027
 70
192
 0
VERTEX
 8
0
 10
0.027
 20
-0.11
 30
0.027
 70
192
 0
VERTEX
 8
0
 10
0.545
 20
-0.05
 30
0.58
 70
192
 0
VERTEX
 8
0
 10
0.545
 20
-0.05
 30
0.265
 70
192
 0
VERTEX
 8
0
 10
0.545
 20
-0.055
 30
0.58
 70
192
 0
VERTEX
 8
0
 10
0.545
 20
-0.055
 30
0.265
 70
192
 0
VERTEX
 8
0
 10
0.515
 20
-0.06
 30
0.235
 70
192
 0
VERTEX
 8
0
 10
0.775
 20
-0.06
 30
0.235
 70
192
 0
VERTEX
 8
0
 10
0.745
 20
-0.05
 30
0.58
 70
192
 0
VERTEX
 8
0
 10
0.745
 20
-0.05
 30
0.265
 70
192
 0
VERTEX
 8
0
 10
0.745
 20
-0.055
 30
0.265
 70
192
 0
VERTEX
 8
0
 10
0.745
 20
-0.055
 30
0.58
 70
192
 0
VERTEX
 8
0
 10
0.515
 20
-0.065
 30
0.235
 70
192
 0
VERTEX
 8
0
 10
0.515
 20
-0.065
 30
0.61
 70
192
 0
VERTEX
 8
0
 10
0.775
 20
-0.065
 30
0.235
 70
192
 0
VERTEX
 8
0
 10
0.775
 20
-0.065
 30
0.61
 70
192
 0
VERTEX
 8
0
 10
0.515
 20
-0.06
 30
0.61
 70
192
 0
VERTEX
 8
0
 10
0.775
 20
-0.06
 30
0.61
 70
192
 0
VERTEX
 8
0
 10
0.505
 20
-0.065
 30
0.62
 70
192
 0
VERTEX
 8
0
 10
0.505
 20
-0.065
 30
0.225
 70
192
 0
VERTEX
 8
0
 10
0.785
 20
-0.07
 30
0.225
 70
192
 0
VERTEX
 8
0
 10
0.785
 20
-0.065
 30
0.225
 70
192
 0
VERTEX
 8
0
 10
0.505
 20
-0.07
 30
0.225
 70
192
 0
VERTEX
 8
0
 10
0.505
 20
-0.07
 30
0.62
 70
192
 0
VERTEX
 8
0
 10
0.785
 20
-0.065
 30
0.62
 70
192
 0
VERTEX
 8
0
 10
0.405
 20
-0.07
 30
0.225
 70
192
 0
VERTEX
 8
0
 10
0.785
 20
-0.07
 30
0.62
 70
192
 0
VERTEX
 8
0
 10
0.027
 20
-0.07
 30
0.075
 70
192
 0
VERTEX
 8
0
 10
0.883
 20
-0.07
 30
0.075
 70
192
 0
VERTEX
 8
0
 10
0.125
 20
-0.07
 30
0.82
 70
192
 0
VERTEX
 8
0
 10
0.785
 20
-0.07
 30
0.82
 70
192
 0
VERTEX
 8
0
 10
0.405
 20
-0.07
 30
0.62
 70
192
 0
VERTEX
 8
0
 10
0.405
 20
-0.065
 30
0.62
 70
192
 0
VERTEX
 8
0
 10
0.405
 20
-0.065
 30
0.225
 70
192
 0
VERTEX
 8
0
 10
0.883
 20
-0.11
 30
0.045
 70
192
 0
VERTEX
 8
0
 10
0.883
 20
-0.08
 30
0.075
 70
192
 0
VERTEX
 8
0
 10
0.125
 20
-0.06
 30
0.82
 70
192
 0
VERTEX
 8
0
 10
0.785
 20
-0.06
 30
0.82
 70
192
 0
VERTEX
 8
0
 10
0.125
 20
-0.07
 30
1.895
 70
192
 0
VERTEX
 8
0
 10
0.125
 20
-0.065
 30
0.225
 70
192
 0
VERTEX
 8
0
 10
0.125
 20
-0.065
 30
0.62
 70
192
 0
VERTEX
 8
0
 10
0.125
 20
-0.07
 30
0.62
 70
192
 0
VERTEX
 8
0
 10
0.125
 20
-0.07
 30
0.225
 70
192
 0
VERTEX
 8
0
 10
0.027
 20
-0.11
 30
0.045
 70
192
 0
VERTEX
 8
0
 10
0.35166698694229126
 20
-0.06
 30
0.83
 70
192
 0
VERTEX
 8
0
 10
0.5583329796791077
 20
-0.03
 30
0.83
 70
192
 0
VERTEX
 8
0
 10
0.35166698694229126
 20
-0.03
 30
0.83
 70
192
 0
VERTEX
 8
0
 10
0.135
 20
-0.06
 30
1.185
 70
192
 0
VERTEX
 8
0
 10
0.135
 20
-0.06
 30
1.53
 70
192
 0
VERTEX
 8
0
 10
0.785
 20
-0.07
 30
1.895
 70
192
 0
VERTEX
 8
0
 10
0.125
 20
-0.06
 30
1.895
 70
192
 0
VERTEX
 8
0
 10
0.785
 20
-0.06
 30
1.895
 70
192
 0
VERTEX
 8
0
 10
0.395
 20
-0.065
 30
0.61
 70
192
 0
VERTEX
 8
0
 10
0.135
 20
-0.065
 30
0.61
 70
192
 0
VERTEX
 8
0
 10
0.135
 20
-0.06
 30
0.61
 70
192
 0
VERTEX
 8
0
 10
0.395
 20
-0.06
 30
0.235
 70
192
 0
VERTEX
 8
0
 10
0.395
 20
-0.065
 30
0.235
 70
192
 0
VERTEX
 8
0
 10
0.5583329796791077
 20
-0.06
 30
1.175
 70
192
 0
VERTEX
 8
0
 10
0.5583329796791077
 20
-0.06
 30
0.83
 70
192
 0
VERTEX
 8
0
 10
0.125
 20
-0.03
 30
0.82
 70
192
 0
VERTEX
 8
0
 10
0.35166698694229126
 20
-0.03
 30
1.175
 70
192
 0
VERTEX
 8
0
 10
0.35166698694229126
 20
-0.06
 30
1.175
 70
192
 0
VERTEX
 8
0
 10
0.135
 20
-0.06
 30
0.83
 70
192
 0
VERTEX
 8
0
 10
0.135
 20
-0.03
 30
1.185
 70
192
 0
VERTEX
 8
0
 10
0.135
 20
-0.06
 30
1.54
 70
192
 0
VERTEX
 8
0
 10
0.35166698694229126
 20
-0.06
 30
1.885
 70
192
 0
VERTEX
 8
0
 10
0.5583329796791077
 20
-0.06
 30
1.885
 70
192
 0
VERTEX
 8
0
 10
0.775
 20
-0.03
 30
1.53
 70
192
 0
VERTEX
 8
0
 10
0.775
 20
-0.03
 30
1.185
 70
192
 0
VERTEX
 8
0
 10
0.775
 20
-0.06
 30
1.175
 70
192
 0
VERTEX
 8
0
 10
0.135
 20
-0.06
 30
0.235
 70
192
 0
VERTEX
 8
0
 10
0.135
 20
-0.065
 30
0.235
 70
192
 0
VERTEX
 8
0
 10
0.395
 20
-0.06
 30
0.61
 70
192
 0
VERTEX
 8
0
 10
0.365
 20
-0.055
 30
0.58
 70
192
 0
VERTEX
 8
0
 10
0.365
 20
-0.05
 30
0.58
 70
192
 0
VERTEX
 8
0
 10
0.365
 20
-0.05
 30
0.265
 70
192
 0
VERTEX
 8
0
 10
0.5683329701423645
 20
-0.06
 30
1.175
 70
192
 0
VERTEX
 8
0
 10
0.5683329701423645
 20
-0.06
 30
0.83
 70
192
 0
VERTEX
 8
0
 10
0.775
 20
-0.03
 30
0.83
 70
192
 0
VERTEX
 8
0
 10
0.775
 20
-0.06
 30
0.83
 70
192
 0
VERTEX
 8
0
 10
0.5583329796791077
 20
-0.03
 30
1.175
 70
192
 0
VERTEX
 8
0
 10
0.5683329701423645
 20
-0.03
 30
0.83
 70
192
 0
VERTEX
 8
0
 10
0.785
 20
-0.02
 30
0.82
 70
192
 0
VERTEX
 8
0
 10
0.125
 20
-0.02
 30
0.82
 70
192
 0
VERTEX
 8
0
 10
0.3416669964790344
 20
-0.03
 30
0.83
 70
192
 0
VERTEX
 8
0
 10
0.35166698694229126
 20
-0.06
 30
1.185
 70
192
 0
VERTEX
 8
0
 10
0.3416669964790344
 20
-0.06
 30
0.83
 70
192
 0
VERTEX
 8
0
 10
0.3416669964790344
 20
-0.06
 30
1.175
 70
192
 0
VERTEX
 8
0
 10
0.3416669964790344
 20
-0.03
 30
1.175
 70
192
 0
VERTEX
 8
0
 10
0.135
 20
-0.03
 30
0.83
 70
192
 0
VERTEX
 8
0
 10
0.3416669964790344
 20
-0.03
 30
1.185
 70
192
 0
VERTEX
 8
0
 10
0.135
 20
-0.03
 30
1.53
 70
192
 0
VERTEX
 8
0
 10
0.3416669964790344
 20
-0.06
 30
1.53
 70
192
 0
VERTEX
 8
0
 10
0.3416669964790344
 20
-0.06
 30
1.885
 70
192
 0
VERTEX
 8
0
 10
0.5583329796791077
 20
-0.03
 30
1.885
 70
192
 0
VERTEX
 8
0
 10
0.775
 20
-0.06
 30
1.185
 70
192
 0
VERTEX
 8
0
 10
0.775
 20
-0.06
 30
1.53
 70
192
 0
VERTEX
 8
0
 10
0.775
 20
-0.06
 30
1.885
 70
192
 0
VERTEX
 8
0
 10
0.165
 20
-0.055
 30
0.58
 70
192
 0
VERTEX
 8
0
 10
0.365
 20
-0.055
 30
0.265
 70
192
 0
VERTEX
 8
0
 10
0.5683329701423645
 20
-0.03
 30
1.175
 70
192
 0
VERTEX
 8
0
 10
0.775
 20
-0.03
 30
1.175
 70
192
 0
VERTEX
 8
0
 10
0.35166698694229126
 20
-0.03
 30
1.185
 70
192
 0
VERTEX
 8
0
 10
0.5583329796791077
 20
-0.03
 30
1.185
 70
192
 0
VERTEX
 8
0
 10
0.125
 20
-0.02
 30
1.895
 70
192
 0
VERTEX
 8
0
 10
0.785
 20
-0.02
 30
1.895
 70
192
 0
VERTEX
 8
0
 10
0.785
 20
-0.03
 30
0.82
 70
192
 0
VERTEX
 8
0
 10
0.35166698694229126
 20
-0.06
 30
1.53
 70
192
 0
VERTEX
 8
0
 10
0.135
 20
-0.06
 30
1.175
 70
192
 0
VERTEX
 8
0
 10
0.3416669964790344
 20
-0.06
 30
1.185
 70
192
 0
VERTEX
 8
0
 10
0.135
 20
-0.03
 30
1.175
 70
192
 0
VERTEX
 8
0
 10
0.3416669964790344
 20
-0.03
 30
1.53
 70
192
 0
VERTEX
 8
0
 10
0.135
 20
-0.06
 30
1.885
 70
192
 0
VERTEX
 8
0
 10
0.3416669964790344
 20
-0.03
 30
1.54
 70
192
 0
VERTEX
 8
0
 10
0.135
 20
-0.03
 30
1.54
 70
192
 0
VERTEX
 8
0
 10
0.35166698694229126
 20
-0.03
 30
1.54
 70
192
 0
VERTEX
 8
0
 10
0.35166698694229126
 20
-0.03
 30
1.885
 70
192
 0
VERTEX
 8
0
 10
0.5683329701423645
 20
-0.06
 30
1.53
 70
192
 0
VERTEX
 8
0
 10
0.5683329701423645
 20
-0.06
 30
1.185
 70
192
 0
VERTEX
 8
0
 10
0.5683329701423645
 20
-0.03
 30
1.185
 70
192
 0
VERTEX
 8
0
 10
0.5683329701423645
 20
-0.03
 30
1.53
 70
192
 0
VERTEX
 8
0
 10
0.5683329701423645
 20
-0.03
 30
1.54
 70
192
 0
VERTEX
 8
0
 10
0.775
 20
-0.06
 30
1.54
 70
192
 0
VERTEX
 8
0
 10
0.775
 20
-0.03
 30
1.54
 70
192
 0
VERTEX
 8
0
 10
0.165
 20
-0.05
 30
0.58
 70
192
 0
VERTEX
 8
0
 10
0.165
 20
-0.055
 30
0.265
 70
192
 0
VERTEX
 8
0
 10
0.165
 20
-0.05
 30
0.265
 70
192
 0
VERTEX
 8
0
 10
0.5583329796791077
 20
-0.06
 30
1.185
 70
192
 0
VERTEX
 8
0
 10
0.5583329796791077
 20
-0.06
 30
1.53
 70
192
 0
VERTEX
 8
0
 10
0.405
 20
-0.02
 30
0.225
 70
192
 0
VERTEX
 8
0
 10
0.505
 20
-0.02
 30
0.225
 70
192
 0
VERTEX
 8
0
 10
0.125
 20
-0.02
 30
0.62
 70
192
 0
VERTEX
 8
0
 10
0.785
 20
-0.03
 30
1.895
 70
192
 0
VERTEX
 8
0
 10
0.125
 20
-0.03
 30
1.895
 70
192
 0
VERTEX
 8
0
 10
0.898
 20
-0.02
 30
2.068
 70
192
 0
VERTEX
 8
0
 10
0.135
 20
-0.03
 30
1.885
 70
192
 0
VERTEX
 8
0
 10
0.3416669964790344
 20
-0.06
 30
1.54
 70
192
 0
VERTEX
 8
0
 10
0.3416669964790344
 20
-0.03
 30
1.885
 70
192
 0
VERTEX
 8
0
 10
0.5583329796791077
 20
-0.06
 30
1.54
 70
192
 0
VERTEX
 8
0
 10
0.35166698694229126
 20
-0.06
 30
1.54
 70
192
 0
VERTEX
 8
0
 10
0.5583329796791077
 20
-0.03
 30
1.54
 70
192
 0
VERTEX
 8
0
 10
0.5683329701423645
 20
-0.03
 30
1.885
 70
192
 0
VERTEX
 8
0
 10
0.5683329701423645
 20
-0.06
 30
1.54
 70
192
 0
VERTEX
 8
0
 10
0.5683329701423645
 20
-0.06
 30
1.885
 70
192
 0
VERTEX
 8
0
 10
0.775
 20
-0.03
 30
1.885
 70
192
 0
VERTEX
 8
0
 10
0.5583329796791077
 20
-0.03
 30
1.53
 70
192
 0
VERTEX
 8
0
 10
0.35166698694229126
 20
-0.03
 30
1.53
 70
192
 0
VERTEX
 8
0
 10
0.405
 20
-0.025
 30
0.62
 70
192
 0
VERTEX
 8
0
 10
0.405
 20
-0.02
 30
0.62
 70
192
 0
VERTEX
 8
0
 10
0.012
 20
-0.02
 30
0.027
 70
192
 0
VERTEX
 8
0
 10
0.125
 20
-0.025
 30
0.62
 70
192
 0
VERTEX
 8
0
 10
0.785
 20
-0.02
 30
0.62
 70
192
 0
VERTEX
 8
0
 10
0.785
 20
-0.025
 30
0.62
 70
192
 0
VERTEX
 8
0
 10
0.505
 20
-0.025
 30
0.62
 70
192
 0
VERTEX
 8
0
 10
0.505
 20
-0.02
 30
0.62
 70
192
 0
VERTEX
 8
0
 10
0.405
 20
-0.025
 30
0.225
 70
192
 0
VERTEX
 8
0
 10
0.515
 20
-0.025
 30
0.235
 70
192
 0
VERTEX
 8
0
 10
0.505
 20
-0.025
 30
0.225
 70
192
 0
VERTEX
 8
0
 10
0.125
 20
-0.02
 30
0.225
 70
192
 0
VERTEX
 8
0
 10
0.785
 20
-0.02
 30
0.225
 70
192
 0
VERTEX
 8
0
 10
0.135
 20
-0.025
 30
0.235
 70
192
 0
VERTEX
 8
0
 10
0.125
 20
-0.025
 30
0.225
 70
192
 0
VERTEX
 8
0
 10
0.395
 20
-0.03
 30
0.61
 70
192
 0
VERTEX
 8
0
 10
0.395
 20
-0.025
 30
0.61
 70
192
 0
VERTEX
 8
0
 10
0.515
 20
-0.025
 30
0.61
 70
192
 0
VERTEX
 8
0
 10
0.785
 20
-0.025
 30
0.225
 70
192
 0
VERTEX
 8
0
 10
0.775
 20
-0.025
 30
0.235
 70
192
 0
VERTEX
 8
0
 10
0.775
 20
-0.03
 30
0.61
 70
192
 0
VERTEX
 8
0
 10
0.775
 20
-0.025
 30
0.61
 70
192
 0
VERTEX
 8
0
 10
0.395
 20
-0.025
 30
0.235
 70
192
 0
VERTEX
 8
0
 10
0.395
 20
-0.03
 30
0.235
 70
192
 0
VERTEX
 8
0
 10
0.365
 20
-0.035
 30
0.265
 70
192
 0
VERTEX
 8
0
 10
0.515
 20
-0.03
 30
0.235
 70
192
 0
VERTEX
 8
0
 10
0.135
 20
-0.025
 30
0.61
 70
192
 0
VERTEX
 8
0
 10
0.135
 20
-0.03
 30
0.61
 70
192
 0
VERTEX
 8
0
 10
0.135
 20
-0.03
 30
0.235
 70
192
 0
VERTEX
 8
0
 10
0.365
 20
-0.035
 30
0.58
 70
192
 0
VERTEX
 8
0
 10
0.165
 20
-0.035
 30
0.58
 70
192
 0
VERTEX
 8
0
 10
0.775
 20
-0.03
 30
0.235
 70
192
 0
VERTEX
 8
0
 10
0.515
 20
-0.03
 30
0.61
 70
192
 0
VERTEX
 8
0
 10
0.365
 20
-0.04
 30
0.58
 70
192
 0
VERTEX
 8
0
 10
0.545
 20
-0.04
 30
0.58
 70
192
 0
VERTEX
 8
0
 10
0.545
 20
-0.04
 30
0.265
 70
192
 0
VERTEX
 8
0
 10
0.545
 20
-0.035
 30
0.58
 70
192
 0
VERTEX
 8
0
 10
0.745
 20
-0.035
 30
0.58
 70
192
 0
VERTEX
 8
0
 10
0.165
 20
-0.035
 30
0.265
 70
192
 0
VERTEX
 8
0
 10
0.165
 20
-0.04
 30
0.265
 70
192
 0
VERTEX
 8
0
 10
0.365
 20
-0.04
 30
0.265
 70
192
 0
VERTEX
 8
0
 10
0.165
 20
-0.04
 30
0.58
 70
192
 0
VERTEX
 8
0
 10
0.745
 20
-0.04
 30
0.58
 70
192
 0
VERTEX
 8
0
 10
0.745
 20
-0.04
 30
0.265
 70
192
 0
VERTEX
 8
0
 10
0.745
 20
-0.035
 30
0.265
 70
192
 0
VERTEX
 8
0
 10
0.545
 20
-0.035
 30
0.265
 70
192
 0
VERTEX
 8
0
 10
0.0
 20
0.0
 30
0.0
 70
128
 71
4
 72
1
 73
12
 74
11
 0
VERTEX
 8
0
 10
0.0
 20
0.0
 30
0.0
 70
128
 71
4
 72
5
 73
1
 0
VERTEX
 8
0
 10
0.0
 20
0.0
 30
0.0
 70
128
 71
1
 72
2
 73
19
 74
12
 0
VERTEX
 8
0
 10
0.0
 20
0.0
 30
0.0
 70
128
 71
9
 72
11
 73
12
 0
VERTEX
 8
0
 10
0.0
 20
0.0
 30
0.0
 70
128
 71
25
 72
4
 73
11
 74
27
 0
VERTEX
 8
0
 10
0.0
 20
0.0
 30
0.0
 70
128
 71
3
 72
5
 73
4
 74
14
 0
VERTEX
 8
0
 10
0.0
 20
0.0
 30
0.0
 70
128
 71
15
 72
1
 73
5
 74
3
 0
VERTEX
 8
0
 10
0.0
 20
0.0
 30
0.0
 70
128
 71
1
 72
15
 73
6
 74
2
 0
VERTEX
 8
0
 10
0.0
 20
0.0
 30
0.0
 70
128
 71
2
 72
7
 73
31
 74
19
 0
VERTEX
 8
0
 10
0.0
 20
0.0
 30
0.0
 70
128
 71
19
 72
18
 73
8
 74
12
 0
VERTEX
 8
0
 10
0.0
 20
0.0
 30
0.0
 70
128
 71
9
 72
10
 73
20
 74
11
 0
VERTEX
 8
0
 10
0.0
 20
0.0
 30
0.0
 70
128
 71
12
 72
8
 73
10
 74
9
 0
VERTEX
 8
0
 10
0.0
 20
0.0
 30
0.0
 70
128
 71
25
 72
23
 73
4
 0
VERTEX
 8
0
 10
0.0
 20
0.0
 30
0.0
 70
128
 71
22
 72
27
 73
11
 0
VERTEX
 8
0
 10
0.0
 20
0.0
 30
0.0
 70
128
 71
32
 72
25
 73
27
 74
13
 0
VERTEX
 8
0
 10
0.0
 20
0.0
 30
0.0
 70
128
 71
14
 72
4
 73
23
 74
29
 0
VERTEX
 8
0
 10
0.0
 20
0.0
 30
0.0
 70
128
 71
3
 72
14
 73
20
 74
10
 0
VERTEX
 8
0
 10
0.0
 20
0.0
 30
0.0
 70
128
 71
15
 72
3
 73
10
 74
8
 0
VERTEX
 8
0
 10
0.0
 20
0.0
 30
0.0
 70
128
 71
38
 72
16
 73
2
 74
6
 0
VERTEX
 8
0
 10
0.0
 20
0.0
 30
0.0
 70
128
 71
6
 72
15
 73
8
 74
18
 0
VERTEX
 8
0
 10
0.0
 20
0.0
 30
0.0
 70
128
 71
2
 72
16
 73
7
 0
VERTEX
 8
0
 10
0.0
 20
0.0
 30
0.0
 70
128
 71
7
 72
42
 73
46
 74
31
 0
VERTEX
 8
0
 10
0.0
 20
0.0
 30
0.0
 70
128
 71
17
 72
19
 73
31
 0
VERTEX
 8
0
 10
0.0
 20
0.0
 30
0.0
 70
128
 71
17
 72
39
 73
18
 74
19
 0
VERTEX
 8
0
 10
0.0
 20
0.0
 30
0.0
 70
128
 71
11
 72
20
 73
21
 74
22
 0
VERTEX
 8
0
 10
0.0
 20
0.0
 30
0.0
 70
128
 71
29
 72
23
 73
25
 74
24
 0
VERTEX
 8
0
 10
0.0
 20
0.0
 30
0.0
 70
128
 71
22
 72
21
 73
33
 74
27
 0
VERTEX
 8
0
 10
0.0
 20
0.0
 30
0.0
 70
128
 71
24
 72
25
 73
32
 74
26
 0
VERTEX
 8
0
 10
0.0
 20
0.0
 30
0.0
 70
128
 71
27
 72
33
 73
34
 74
13
 0
VERTEX
 8
0
 10
0.0
 20
0.0
 30
0.0
 70
128
 71
51
 72
32
 73
13
 74
28
 0
VERTEX
 8
0
 10
0.0
 20
0.0
 30
0.0
 70
128
 71
14
 72
29
 73
21
 74
20
 0
VERTEX
 8
0
 10
0.0
 20
0.0
 30
0.0
 70
128
 71
30
 72
7
 73
16
 74
38
 0
VERTEX
 8
0
 10
0.0
 20
0.0
 30
0.0
 70
128
 71
38
 72
6
 73
18
 74
39
 0
VERTEX
 8
0
 10
0.0
 20
0.0
 30
0.0
 70
128
 71
7
 72
43
 73
42
 0
VERTEX
 8
0
 10
0.0
 20
0.0
 30
0.0
 70
128
 71
42
 72
57
 73
64
 74
46
 0
VERTEX
 8
0
 10
0.0
 20
0.0
 30
0.0
 70
128
 71
47
 72
31
 73
46
 0
VERTEX
 8
0
 10
0.0
 20
0.0
 30
0.0
 70
128
 71
31
 72
40
 73
39
 74
17
 0
VERTEX
 8
0
 10
0.0
 20
0.0
 30
0.0
 70
128
 71
29
 72
24
 73
33
 74
21
 0
VERTEX
 8
0
 10
0.0
 20
0.0
 30
0.0
 70
128
 71
26
 72
32
 73
49
 74
48
 0
VERTEX
 8
0
 10
0.0
 20
0.0
 30
0.0
 70
128
 71
24
 72
26
 73
34
 74
33
 0
VERTEX
 8
0
 10
0.0
 20
0.0
 30
0.0
 70
128
 71
13
 72
34
 73
35
 74
36
 0
VERTEX
 8
0
 10
0.0
 20
0.0
 30
0.0
 70
128
 71
51
 72
49
 73
32
 0
VERTEX
 8
0
 10
0.0
 20
0.0
 30
0.0
 70
128
 71
36
 72
28
 73
13
 0
VERTEX
 8
0
 10
0.0
 20
0.0
 30
0.0
 70
128
 71
37
 72
51
 73
28
 74
54
 0
VERTEX
 8
0
 10
0.0
 20
0.0
 30
0.0
 70
128
 71
56
 72
43
 73
7
 74
30
 0
VERTEX
 8
0
 10
0.0
 20
0.0
 30
0.0
 70
128
 71
30
 72
38
 73
39
 74
40
 0
VERTEX
 8
0
 10
0.0
 20
0.0
 30
0.0
 70
128
 71
41
 72
42
 73
43
 74
56
 0
VERTEX
 8
0
 10
0.0
 20
0.0
 30
0.0
 70
128
 71
58
 72
57
 73
42
 74
41
 0
VERTEX
 8
0
 10
0.0
 20
0.0
 30
0.0
 70
128
 71
57
 72
44
 73
86
 74
64
 0
VERTEX
 8
0
 10
0.0
 20
0.0
 30
0.0
 70
128
 71
64
 72
63
 73
59
 74
46
 0
VERTEX
 8
0
 10
0.0
 20
0.0
 30
0.0
 70
128
 71
47
 72
45
 73
40
 74
31
 0
VERTEX
 8
0
 10
0.0
 20
0.0
 30
0.0
 70
128
 71
46
 72
59
 73
45
 74
47
 0
VERTEX
 8
0
 10
0.0
 20
0.0
 30
0.0
 70
128
 71
48
 72
49
 73
51
 74
65
 0
VERTEX
 8
0
 10
0.0
 20
0.0
 30
0.0
 70
128
 71
26
 72
48
 73
35
 74
34
 0
VERTEX
 8
0
 10
0.0
 20
0.0
 30
0.0
 70
128
 71
36
 72
35
 73
52
 74
28
 0
VERTEX
 8
0
 10
0.0
 20
0.0
 30
0.0
 70
128
 71
50
 72
65
 73
51
 74
37
 0
VERTEX
 8
0
 10
0.0
 20
0.0
 30
0.0
 70
128
 71
52
 72
53
 73
54
 74
28
 0
VERTEX
 8
0
 10
0.0
 20
0.0
 30
0.0
 70
128
 71
93
 72
37
 73
54
 74
55
 0
VERTEX
 8
0
 10
0.0
 20
0.0
 30
0.0
 70
128
 71
56
 72
30
 73
40
 74
45
 0
VERTEX
 8
0
 10
0.0
 20
0.0
 30
0.0
 70
128
 71
41
 72
56
 73
45
 74
59
 0
VERTEX
 8
0
 10
0.0
 20
0.0
 30
0.0
 70
128
 71
79
 72
60
 73
57
 74
58
 0
VERTEX
 8
0
 10
0.0
 20
0.0
 30
0.0
 70
128
 71
58
 72
41
 73
59
 74
63
 0
VERTEX
 8
0
 10
0.0
 20
0.0
 30
0.0
 70
128
 71
57
 72
60
 73
44
 0
VERTEX
 8
0
 10
0.0
 20
0.0
 30
0.0
 70
128
 71
44
 72
81
 73
61
 74
86
 0
VERTEX
 8
0
 10
0.0
 20
0.0
 30
0.0
 70
128
 71
62
 72
64
 73
86
 0
VERTEX
 8
0
 10
0.0
 20
0.0
 30
0.0
 70
128
 71
62
 72
80
 73
63
 74
64
 0
VERTEX
 8
0
 10
0.0
 20
0.0
 30
0.0
 70
128
 71
48
 72
65
 73
52
 74
35
 0
VERTEX
 8
0
 10
0.0
 20
0.0
 30
0.0
 70
128
 71
65
 72
50
 73
53
 74
52
 0
VERTEX
 8
0
 10
0.0
 20
0.0
 30
0.0
 70
128
 71
66
 72
50
 73
37
 74
67
 0
VERTEX
 8
0
 10
0.0
 20
0.0
 30
0.0
 70
128
 71
53
 72
90
 73
68
 74
54
 0
VERTEX
 8
0
 10
0.0
 20
0.0
 30
0.0
 70
128
 71
67
 72
37
 73
93
 74
72
 0
VERTEX
 8
0
 10
0.0
 20
0.0
 30
0.0
 70
128
 71
54
 72
68
 73
69
 74
55
 0
VERTEX
 8
0
 10
0.0
 20
0.0
 30
0.0
 70
128
 71
75
 72
93
 73
55
 74
99
 0
VERTEX
 8
0
 10
0.0
 20
0.0
 30
0.0
 70
128
 71
78
 72
44
 73
60
 74
79
 0
VERTEX
 8
0
 10
0.0
 20
0.0
 30
0.0
 70
128
 71
79
 72
58
 73
63
 74
80
 0
VERTEX
 8
0
 10
0.0
 20
0.0
 30
0.0
 70
128
 71
44
 72
77
 73
81
 0
VERTEX
 8
0
 10
0.0
 20
0.0
 30
0.0
 70
128
 71
81
 72
70
 73
84
 74
61
 0
VERTEX
 8
0
 10
0.0
 20
0.0
 30
0.0
 70
128
 71
85
 72
86
 73
61
 0
VERTEX
 8
0
 10
0.0
 20
0.0
 30
0.0
 70
128
 71
86
 72
88
 73
80
 74
62
 0
VERTEX
 8
0
 10
0.0
 20
0.0
 30
0.0
 70
128
 71
50
 72
66
 73
90
 74
53
 0
VERTEX
 8
0
 10
0.0
 20
0.0
 30
0.0
 70
128
 71
89
 72
66
 73
67
 74
72
 0
VERTEX
 8
0
 10
0.0
 20
0.0
 30
0.0
 70
128
 71
90
 72
71
 73
69
 74
68
 0
VERTEX
 8
0
 10
0.0
 20
0.0
 30
0.0
 70
128
 71
92
 72
89
 73
72
 74
93
 0
VERTEX
 8
0
 10
0.0
 20
0.0
 30
0.0
 70
128
 71
71
 72
100
 73
55
 74
69
 0
VERTEX
 8
0
 10
0.0
 20
0.0
 30
0.0
 70
128
 71
75
 72
73
 73
93
 0
VERTEX
 8
0
 10
0.0
 20
0.0
 30
0.0
 70
128
 71
107
 72
99
 73
55
 0
VERTEX
 8
0
 10
0.0
 20
0.0
 30
0.0
 70
128
 71
74
 72
75
 73
99
 74
76
 0
VERTEX
 8
0
 10
0.0
 20
0.0
 30
0.0
 70
128
 71
82
 72
77
 73
44
 74
78
 0
VERTEX
 8
0
 10
0.0
 20
0.0
 30
0.0
 70
128
 71
83
 72
81
 73
77
 74
82
 0
VERTEX
 8
0
 10
0.0
 20
0.0
 30
0.0
 70
128
 71
70
 72
81
 73
83
 74
111
 0
VERTEX
 8
0
 10
0.0
 20
0.0
 30
0.0
 70
128
 71
70
 72
102
 73
112
 74
84
 0
VERTEX
 8
0
 10
0.0
 20
0.0
 30
0.0
 70
128
 71
103
 72
104
 73
61
 74
84
 0
VERTEX
 8
0
 10
0.0
 20
0.0
 30
0.0
 70
128
 71
85
 72
87
 73
88
 74
86
 0
VERTEX
 8
0
 10
0.0
 20
0.0
 30
0.0
 70
128
 71
61
 72
104
 73
87
 74
85
 0
VERTEX
 8
0
 10
0.0
 20
0.0
 30
0.0
 70
128
 71
66
 72
89
 73
71
 74
90
 0
VERTEX
 8
0
 10
0.0
 20
0.0
 30
0.0
 70
128
 71
89
 72
92
 73
100
 74
71
 0
VERTEX
 8
0
 10
0.0
 20
0.0
 30
0.0
 70
128
 71
91
 72
92
 73
93
 74
73
 0
VERTEX
 8
0
 10
0.0
 20
0.0
 30
0.0
 70
128
 71
100
 72
94
 73
107
 74
55
 0
VERTEX
 8
0
 10
0.0
 20
0.0
 30
0.0
 70
128
 71
73
 72
75
 73
95
 74
96
 0
VERTEX
 8
0
 10
0.0
 20
0.0
 30
0.0
 70
128
 71
99
 72
107
 73
97
 74
98
 0
VERTEX
 8
0
 10
0.0
 20
0.0
 30
0.0
 70
128
 71
75
 72
74
 73
121
 0
VERTEX
 8
0
 10
0.0
 20
0.0
 30
0.0
 70
128
 71
76
 72
99
 73
119
 0
VERTEX
 8
0
 10
0.0
 20
0.0
 30
0.0
 70
128
 71
92
 72
74
 73
76
 74
100
 0
VERTEX
 8
0
 10
0.0
 20
0.0
 30
0.0
 70
128
 71
101
 72
102
 73
70
 74
111
 0
VERTEX
 8
0
 10
0.0
 20
0.0
 30
0.0
 70
128
 71
112
 72
113
 73
103
 74
84
 0
VERTEX
 8
0
 10
0.0
 20
0.0
 30
0.0
 70
128
 71
92
 72
91
 73
74
 0
VERTEX
 8
0
 10
0.0
 20
0.0
 30
0.0
 70
128
 71
91
 72
73
 73
105
 74
106
 0
VERTEX
 8
0
 10
0.0
 20
0.0
 30
0.0
 70
128
 71
94
 72
100
 73
76
 0
VERTEX
 8
0
 10
0.0
 20
0.0
 30
0.0
 70
128
 71
107
 72
94
 73
108
 74
115
 0
VERTEX
 8
0
 10
0.0
 20
0.0
 30
0.0
 70
128
 71
75
 72
116
 73
95
 0
VERTEX
 8
0
 10
0.0
 20
0.0
 30
0.0
 70
128
 71
95
 72
127
 73
130
 74
96
 0
VERTEX
 8
0
 10
0.0
 20
0.0
 30
0.0
 70
128
 71
105
 72
73
 73
96
 74
114
 0
VERTEX
 8
0
 10
0.0
 20
0.0
 30
0.0
 70
128
 71
107
 72
115
 73
109
 74
97
 0
VERTEX
 8
0
 10
0.0
 20
0.0
 30
0.0
 70
128
 71
133
 72
98
 73
97
 74
135
 0
VERTEX
 8
0
 10
0.0
 20
0.0
 30
0.0
 70
128
 71
119
 72
99
 73
98
 0
VERTEX
 8
0
 10
0.0
 20
0.0
 30
0.0
 70
128
 71
74
 72
110
 73
121
 0
VERTEX
 8
0
 10
0.0
 20
0.0
 30
0.0
 70
128
 71
121
 72
116
 73
75
 0
VERTEX
 8
0
 10
0.0
 20
0.0
 30
0.0
 70
128
 71
119
 72
123
 73
76
 0
VERTEX
 8
0
 10
0.0
 20
0.0
 30
0.0
 70
128
 71
106
 72
110
 73
74
 74
91
 0
VERTEX
 8
0
 10
0.0
 20
0.0
 30
0.0
 70
128
 71
105
 72
114
 73
122
 74
106
 0
VERTEX
 8
0
 10
0.0
 20
0.0
 30
0.0
 70
128
 71
123
 72
108
 73
94
 74
76
 0
VERTEX
 8
0
 10
0.0
 20
0.0
 30
0.0
 70
128
 71
109
 72
115
 73
108
 74
124
 0
VERTEX
 8
0
 10
0.0
 20
0.0
 30
0.0
 70
128
 71
95
 72
116
 73
121
 74
139
 0
VERTEX
 8
0
 10
0.0
 20
0.0
 30
0.0
 70
128
 71
95
 72
125
 73
127
 0
VERTEX
 8
0
 10
0.0
 20
0.0
 30
0.0
 70
128
 71
128
 72
130
 73
127
 74
145
 0
VERTEX
 8
0
 10
0.0
 20
0.0
 30
0.0
 70
128
 71
96
 72
130
 73
117
 0
VERTEX
 8
0
 10
0.0
 20
0.0
 30
0.0
 70
128
 71
114
 72
96
 73
140
 74
122
 0
VERTEX
 8
0
 10
0.0
 20
0.0
 30
0.0
 70
128
 71
97
 72
109
 73
124
 74
148
 0
VERTEX
 8
0
 10
0.0
 20
0.0
 30
0.0
 70
128
 71
133
 72
134
 73
98
 0
VERTEX
 8
0
 10
0.0
 20
0.0
 30
0.0
 70
128
 71
97
 72
118
 73
135
 0
VERTEX
 8
0
 10
0.0
 20
0.0
 30
0.0
 70
128
 71
135
 72
150
 73
137
 74
133
 0
VERTEX
 8
0
 10
0.0
 20
0.0
 30
0.0
 70
128
 71
119
 72
98
 73
146
 74
120
 0
VERTEX
 8
0
 10
0.0
 20
0.0
 30
0.0
 70
128
 71
121
 72
110
 73
106
 74
122
 0
VERTEX
 8
0
 10
0.0
 20
0.0
 30
0.0
 70
128
 71
119
 72
120
 73
123
 0
VERTEX
 8
0
 10
0.0
 20
0.0
 30
0.0
 70
128
 71
123
 72
120
 73
124
 74
108
 0
VERTEX
 8
0
 10
0.0
 20
0.0
 30
0.0
 70
128
 71
140
 72
139
 73
121
 74
122
 0
VERTEX
 8
0
 10
0.0
 20
0.0
 30
0.0
 70
128
 71
125
 72
95
 73
139
 74
126
 0
VERTEX
 8
0
 10
0.0
 20
0.0
 30
0.0
 70
128
 71
127
 72
125
 73
126
 74
129
 0
VERTEX
 8
0
 10
0.0
 20
0.0
 30
0.0
 70
128
 71
130
 72
128
 73
155
 74
143
 0
VERTEX
 8
0
 10
0.0
 20
0.0
 30
0.0
 70
128
 71
145
 72
127
 73
129
 74
142
 0
VERTEX
 8
0
 10
0.0
 20
0.0
 30
0.0
 70
128
 71
153
 72
128
 73
145
 74
144
 0
VERTEX
 8
0
 10
0.0
 20
0.0
 30
0.0
 70
128
 71
117
 72
130
 73
143
 74
131
 0
VERTEX
 8
0
 10
0.0
 20
0.0
 30
0.0
 70
128
 71
96
 72
117
 73
131
 74
140
 0
VERTEX
 8
0
 10
0.0
 20
0.0
 30
0.0
 70
128
 71
146
 72
148
 73
124
 74
120
 0
VERTEX
 8
0
 10
0.0
 20
0.0
 30
0.0
 70
128
 71
118
 72
97
 73
148
 74
132
 0
VERTEX
 8
0
 10
0.0
 20
0.0
 30
0.0
 70
128
 71
134
 72
133
 73
138
 74
147
 0
VERTEX
 8
0
 10
0.0
 20
0.0
 30
0.0
 70
128
 71
98
 72
134
 73
147
 74
146
 0
VERTEX
 8
0
 10
0.0
 20
0.0
 30
0.0
 70
128
 71
135
 72
118
 73
132
 74
136
 0
VERTEX
 8
0
 10
0.0
 20
0.0
 30
0.0
 70
128
 71
150
 72
135
 73
136
 74
151
 0
VERTEX
 8
0
 10
0.0
 20
0.0
 30
0.0
 70
128
 71
150
 72
149
 73
152
 74
137
 0
VERTEX
 8
0
 10
0.0
 20
0.0
 30
0.0
 70
128
 71
133
 72
137
 73
159
 74
138
 0
VERTEX
 8
0
 10
0.0
 20
0.0
 30
0.0
 70
128
 71
126
 72
139
 73
140
 74
131
 0
VERTEX
 8
0
 10
0.0
 20
0.0
 30
0.0
 70
128
 71
143
 72
129
 73
126
 74
131
 0
VERTEX
 8
0
 10
0.0
 20
0.0
 30
0.0
 70
128
 71
128
 72
153
 73
141
 74
155
 0
VERTEX
 8
0
 10
0.0
 20
0.0
 30
0.0
 70
128
 71
142
 72
129
 73
143
 74
155
 0
VERTEX
 8
0
 10
0.0
 20
0.0
 30
0.0
 70
128
 71
144
 72
145
 73
142
 74
156
 0
VERTEX
 8
0
 10
0.0
 20
0.0
 30
0.0
 70
128
 71
166
 72
164
 73
153
 74
144
 0
VERTEX
 8
0
 10
0.0
 20
0.0
 30
0.0
 70
128
 71
146
 72
147
 73
132
 74
148
 0
VERTEX
 8
0
 10
0.0
 20
0.0
 30
0.0
 70
128
 71
138
 72
136
 73
132
 74
147
 0
VERTEX
 8
0
 10
0.0
 20
0.0
 30
0.0
 70
128
 71
138
 72
159
 73
151
 74
136
 0
VERTEX
 8
0
 10
0.0
 20
0.0
 30
0.0
 70
128
 71
149
 72
150
 73
151
 74
160
 0
VERTEX
 8
0
 10
0.0
 20
0.0
 30
0.0
 70
128
 71
171
 72
174
 73
152
 74
149
 0
VERTEX
 8
0
 10
0.0
 20
0.0
 30
0.0
 70
128
 71
137
 72
152
 73
167
 74
159
 0
VERTEX
 8
0
 10
0.0
 20
0.0
 30
0.0
 70
128
 71
153
 72
154
 73
162
 74
141
 0
VERTEX
 8
0
 10
0.0
 20
0.0
 30
0.0
 70
128
 71
155
 72
141
 73
156
 74
142
 0
VERTEX
 8
0
 10
0.0
 20
0.0
 30
0.0
 70
128
 71
158
 72
144
 73
156
 74
163
 0
VERTEX
 8
0
 10
0.0
 20
0.0
 30
0.0
 70
128
 71
157
 72
164
 73
166
 74
178
 0
VERTEX
 8
0
 10
0.0
 20
0.0
 30
0.0
 70
128
 71
164
 72
154
 73
153
 0
VERTEX
 8
0
 10
0.0
 20
0.0
 30
0.0
 70
128
 71
144
 72
158
 73
166
 0
VERTEX
 8
0
 10
0.0
 20
0.0
 30
0.0
 70
128
 71
160
 72
151
 73
159
 74
167
 0
VERTEX
 8
0
 10
0.0
 20
0.0
 30
0.0
 70
128
 71
169
 72
149
 73
160
 74
161
 0
VERTEX
 8
0
 10
0.0
 20
0.0
 30
0.0
 70
128
 71
171
 72
170
 73
187
 74
174
 0
VERTEX
 8
0
 10
0.0
 20
0.0
 30
0.0
 70
128
 71
173
 72
152
 73
174
 0
VERTEX
 8
0
 10
0.0
 20
0.0
 30
0.0
 70
128
 71
169
 72
171
 73
149
 0
VERTEX
 8
0
 10
0.0
 20
0.0
 30
0.0
 70
128
 71
152
 72
173
 73
172
 74
167
 0
VERTEX
 8
0
 10
0.0
 20
0.0
 30
0.0
 70
128
 71
112
 72
102
 73
101
 74
113
 0
VERTEX
 8
0
 10
0.0
 20
0.0
 30
0.0
 70
128
 71
101
 72
111
 73
103
 74
113
 0
VERTEX
 8
0
 10
0.0
 20
0.0
 30
0.0
 70
128
 71
103
 72
111
 73
83
 74
104
 0
VERTEX
 8
0
 10
0.0
 20
0.0
 30
0.0
 70
128
 71
175
 72
162
 73
154
 74
164
 0
VERTEX
 8
0
 10
0.0
 20
0.0
 30
0.0
 70
128
 71
156
 72
141
 73
162
 74
163
 0
VERTEX
 8
0
 10
0.0
 20
0.0
 30
0.0
 70
128
 71
158
 72
163
 73
177
 74
166
 0
VERTEX
 8
0
 10
0.0
 20
0.0
 30
0.0
 70
128
 71
164
 72
157
 73
165
 74
175
 0
VERTEX
 8
0
 10
0.0
 20
0.0
 30
0.0
 70
128
 71
178
 72
166
 73
177
 74
176
 0
VERTEX
 8
0
 10
0.0
 20
0.0
 30
0.0
 70
128
 71
194
 72
157
 73
178
 74
197
 0
VERTEX
 8
0
 10
0.0
 20
0.0
 30
0.0
 70
128
 71
160
 72
167
 73
172
 74
161
 0
VERTEX
 8
0
 10
0.0
 20
0.0
 30
0.0
 70
128
 71
161
 72
168
 73
171
 74
169
 0
VERTEX
 8
0
 10
0.0
 20
0.0
 30
0.0
 70
128
 71
170
 72
171
 73
168
 74
182
 0
VERTEX
 8
0
 10
0.0
 20
0.0
 30
0.0
 70
128
 71
170
 72
204
 73
206
 74
187
 0
VERTEX
 8
0
 10
0.0
 20
0.0
 30
0.0
 70
128
 71
174
 72
187
 73
186
 74
183
 0
VERTEX
 8
0
 10
0.0
 20
0.0
 30
0.0
 70
128
 71
172
 72
173
 73
174
 74
183
 0
VERTEX
 8
0
 10
0.0
 20
0.0
 30
0.0
 70
128
 71
104
 72
83
 73
82
 74
87
 0
VERTEX
 8
0
 10
0.0
 20
0.0
 30
0.0
 70
128
 71
87
 72
82
 73
78
 74
88
 0
VERTEX
 8
0
 10
0.0
 20
0.0
 30
0.0
 70
128
 71
80
 72
88
 73
78
 74
79
 0
VERTEX
 8
0
 10
0.0
 20
0.0
 30
0.0
 70
128
 71
175
 72
177
 73
163
 74
162
 0
VERTEX
 8
0
 10
0.0
 20
0.0
 30
0.0
 70
128
 71
179
 72
189
 73
165
 74
157
 0
VERTEX
 8
0
 10
0.0
 20
0.0
 30
0.0
 70
128
 71
175
 72
165
 73
176
 74
177
 0
VERTEX
 8
0
 10
0.0
 20
0.0
 30
0.0
 70
128
 71
176
 72
191
 73
180
 74
178
 0
VERTEX
 8
0
 10
0.0
 20
0.0
 30
0.0
 70
128
 71
194
 72
193
 73
179
 74
157
 0
VERTEX
 8
0
 10
0.0
 20
0.0
 30
0.0
 70
128
 71
178
 72
180
 73
190
 74
197
 0
VERTEX
 8
0
 10
0.0
 20
0.0
 30
0.0
 70
128
 71
211
 72
194
 73
197
 74
181
 0
VERTEX
 8
0
 10
0.0
 20
0.0
 30
0.0
 70
128
 71
183
 72
168
 73
161
 74
172
 0
VERTEX
 8
0
 10
0.0
 20
0.0
 30
0.0
 70
128
 71
182
 72
168
 73
183
 74
186
 0
VERTEX
 8
0
 10
0.0
 20
0.0
 30
0.0
 70
128
 71
200
 72
184
 73
170
 74
182
 0
VERTEX
 8
0
 10
0.0
 20
0.0
 30
0.0
 70
128
 71
199
 72
204
 73
170
 74
184
 0
VERTEX
 8
0
 10
0.0
 20
0.0
 30
0.0
 70
128
 71
204
 72
203
 73
222
 74
206
 0
VERTEX
 8
0
 10
0.0
 20
0.0
 30
0.0
 70
128
 71
188
 72
187
 73
206
 74
208
 0
VERTEX
 8
0
 10
0.0
 20
0.0
 30
0.0
 70
128
 71
185
 72
186
 73
187
 74
188
 0
VERTEX
 8
0
 10
0.0
 20
0.0
 30
0.0
 70
128
 71
193
 72
210
 73
189
 74
179
 0
VERTEX
 8
0
 10
0.0
 20
0.0
 30
0.0
 70
128
 71
176
 72
165
 73
189
 74
191
 0
VERTEX
 8
0
 10
0.0
 20
0.0
 30
0.0
 70
128
 71
190
 72
180
 73
191
 74
192
 0
VERTEX
 8
0
 10
0.0
 20
0.0
 30
0.0
 70
128
 71
196
 72
210
 73
193
 74
194
 0
VERTEX
 8
0
 10
0.0
 20
0.0
 30
0.0
 70
128
 71
190
 72
192
 73
195
 74
197
 0
VERTEX
 8
0
 10
0.0
 20
0.0
 30
0.0
 70
128
 71
194
 72
211
 73
213
 74
196
 0
VERTEX
 8
0
 10
0.0
 20
0.0
 30
0.0
 70
128
 71
181
 72
197
 73
195
 74
215
 0
VERTEX
 8
0
 10
0.0
 20
0.0
 30
0.0
 70
128
 71
224
 72
211
 73
181
 74
198
 0
VERTEX
 8
0
 10
0.0
 20
0.0
 30
0.0
 70
128
 71
182
 72
186
 73
185
 74
200
 0
VERTEX
 8
0
 10
0.0
 20
0.0
 30
0.0
 70
128
 71
201
 72
199
 73
184
 74
200
 0
VERTEX
 8
0
 10
0.0
 20
0.0
 30
0.0
 70
128
 71
201
 72
202
 73
204
 74
199
 0
VERTEX
 8
0
 10
0.0
 20
0.0
 30
0.0
 70
128
 71
202
 72
217
 73
203
 74
204
 0
VERTEX
 8
0
 10
0.0
 20
0.0
 30
0.0
 70
128
 71
203
 72
205
 73
230
 74
222
 0
VERTEX
 8
0
 10
0.0
 20
0.0
 30
0.0
 70
128
 71
206
 72
222
 73
218
 74
207
 0
VERTEX
 8
0
 10
0.0
 20
0.0
 30
0.0
 70
128
 71
209
 72
208
 73
206
 74
207
 0
VERTEX
 8
0
 10
0.0
 20
0.0
 30
0.0
 70
128
 71
188
 72
208
 73
209
 74
185
 0
VERTEX
 8
0
 10
0.0
 20
0.0
 30
0.0
 70
128
 71
210
 72
192
 73
191
 74
189
 0
VERTEX
 8
0
 10
0.0
 20
0.0
 30
0.0
 70
128
 71
196
 72
195
 73
192
 74
210
 0
VERTEX
 8
0
 10
0.0
 20
0.0
 30
0.0
 70
128
 71
211
 72
212
 73
223
 74
213
 0
VERTEX
 8
0
 10
0.0
 20
0.0
 30
0.0
 70
128
 71
196
 72
213
 73
215
 74
195
 0
VERTEX
 8
0
 10
0.0
 20
0.0
 30
0.0
 70
128
 71
214
 72
181
 73
215
 74
216
 0
VERTEX
 8
0
 10
0.0
 20
0.0
 30
0.0
 70
128
 71
224
 72
212
 73
211
 0
VERTEX
 8
0
 10
0.0
 20
0.0
 30
0.0
 70
128
 71
181
 72
214
 73
198
 0
VERTEX
 8
0
 10
0.0
 20
0.0
 30
0.0
 70
128
 71
225
 72
224
 73
198
 74
234
 0
VERTEX
 8
0
 10
0.0
 20
0.0
 30
0.0
 70
128
 71
209
 72
201
 73
200
 74
185
 0
VERTEX
 8
0
 10
0.0
 20
0.0
 30
0.0
 70
128
 71
207
 72
202
 73
201
 74
209
 0
VERTEX
 8
0
 10
0.0
 20
0.0
 30
0.0
 70
128
 71
217
 72
202
 73
207
 74
218
 0
VERTEX
 8
0
 10
0.0
 20
0.0
 30
0.0
 70
128
 71
217
 72
237
 73
219
 74
203
 0
VERTEX
 8
0
 10
0.0
 20
0.0
 30
0.0
 70
128
 71
219
 72
205
 73
203
 0
VERTEX
 8
0
 10
0.0
 20
0.0
 30
0.0
 70
128
 71
205
 72
238
 73
220
 74
230
 0
VERTEX
 8
0
 10
0.0
 20
0.0
 30
0.0
 70
128
 71
221
 72
222
 73
230
 0
VERTEX
 8
0
 10
0.0
 20
0.0
 30
0.0
 70
128
 71
222
 72
221
 73
231
 74
218
 0
VERTEX
 8
0
 10
0.0
 20
0.0
 30
0.0
 70
128
 71
212
 72
224
 73
232
 74
223
 0
VERTEX
 8
0
 10
0.0
 20
0.0
 30
0.0
 70
128
 71
216
 72
215
 73
213
 74
223
 0
VERTEX
 8
0
 10
0.0
 20
0.0
 30
0.0
 70
128
 71
198
 72
214
 73
216
 74
233
 0
VERTEX
 8
0
 10
0.0
 20
0.0
 30
0.0
 70
128
 71
224
 72
225
 73
226
 74
232
 0
VERTEX
 8
0
 10
0.0
 20
0.0
 30
0.0
 70
128
 71
234
 72
198
 73
233
 74
227
 0
VERTEX
 8
0
 10
0.0
 20
0.0
 30
0.0
 70
128
 71
241
 72
225
 73
234
 74
244
 0
VERTEX
 8
0
 10
0.0
 20
0.0
 30
0.0
 70
128
 71
237
 72
217
 73
218
 74
231
 0
VERTEX
 8
0
 10
0.0
 20
0.0
 30
0.0
 70
128
 71
205
 72
219
 73
237
 74
228
 0
VERTEX
 8
0
 10
0.0
 20
0.0
 30
0.0
 70
128
 71
238
 72
205
 73
228
 74
246
 0
VERTEX
 8
0
 10
0.0
 20
0.0
 30
0.0
 70
128
 71
238
 72
247
 73
229
 74
220
 0
VERTEX
 8
0
 10
0.0
 20
0.0
 30
0.0
 70
128
 71
230
 72
220
 73
240
 74
236
 0
VERTEX
 8
0
 10
0.0
 20
0.0
 30
0.0
 70
128
 71
221
 72
230
 73
236
 74
231
 0
VERTEX
 8
0
 10
0.0
 20
0.0
 30
0.0
 70
128
 71
233
 72
216
 73
223
 74
232
 0
VERTEX
 8
0
 10
0.0
 20
0.0
 30
0.0
 70
128
 71
241
 72
243
 73
226
 74
225
 0
VERTEX
 8
0
 10
0.0
 20
0.0
 30
0.0
 70
128
 71
227
 72
233
 73
232
 74
226
 0
VERTEX
 8
0
 10
0.0
 20
0.0
 30
0.0
 70
128
 71
244
 72
234
 73
227
 74
252
 0
VERTEX
 8
0
 10
0.0
 20
0.0
 30
0.0
 70
128
 71
251
 72
241
 73
244
 74
235
 0
VERTEX
 8
0
 10
0.0
 20
0.0
 30
0.0
 70
128
 71
231
 72
236
 73
228
 74
237
 0
VERTEX
 8
0
 10
0.0
 20
0.0
 30
0.0
 70
128
 71
236
 72
240
 73
246
 74
228
 0
VERTEX
 8
0
 10
0.0
 20
0.0
 30
0.0
 70
128
 71
248
 72
247
 73
238
 74
246
 0
VERTEX
 8
0
 10
0.0
 20
0.0
 30
0.0
 70
128
 71
247
 72
260
 73
239
 74
229
 0
VERTEX
 8
0
 10
0.0
 20
0.0
 30
0.0
 70
128
 71
220
 72
229
 73
245
 74
240
 0
VERTEX
 8
0
 10
0.0
 20
0.0
 30
0.0
 70
128
 71
241
 72
251
 73
242
 74
243
 0
VERTEX
 8
0
 10
0.0
 20
0.0
 30
0.0
 70
128
 71
252
 72
227
 73
226
 74
243
 0
VERTEX
 8
0
 10
0.0
 20
0.0
 30
0.0
 70
128
 71
235
 72
244
 73
252
 74
253
 0
VERTEX
 8
0
 10
0.0
 20
0.0
 30
0.0
 70
128
 71
257
 72
256
 73
251
 74
235
 0
VERTEX
 8
0
 10
0.0
 20
0.0
 30
0.0
 70
128
 71
240
 72
245
 73
248
 74
246
 0
VERTEX
 8
0
 10
0.0
 20
0.0
 30
0.0
 70
128
 71
260
 72
247
 73
248
 74
258
 0
VERTEX
 8
0
 10
0.0
 20
0.0
 30
0.0
 70
128
 71
249
 72
262
 73
239
 74
260
 0
VERTEX
 8
0
 10
0.0
 20
0.0
 30
0.0
 70
128
 71
229
 72
239
 73
250
 74
245
 0
VERTEX
 8
0
 10
0.0
 20
0.0
 30
0.0
 70
128
 71
264
 72
267
 73
242
 74
251
 0
VERTEX
 8
0
 10
0.0
 20
0.0
 30
0.0
 70
128
 71
243
 72
242
 73
253
 74
252
 0
VERTEX
 8
0
 10
0.0
 20
0.0
 30
0.0
 70
128
 71
253
 72
254
 73
255
 74
235
 0
VERTEX
 8
0
 10
0.0
 20
0.0
 30
0.0
 70
128
 71
266
 72
265
 73
256
 74
257
 0
VERTEX
 8
0
 10
0.0
 20
0.0
 30
0.0
 70
128
 71
256
 72
264
 73
251
 0
VERTEX
 8
0
 10
0.0
 20
0.0
 30
0.0
 70
128
 71
235
 72
255
 73
257
 0
VERTEX
 8
0
 10
0.0
 20
0.0
 30
0.0
 70
128
 71
258
 72
248
 73
245
 74
250
 0
VERTEX
 8
0
 10
0.0
 20
0.0
 30
0.0
 70
128
 71
268
 72
259
 73
260
 74
258
 0
VERTEX
 8
0
 10
0.0
 20
0.0
 30
0.0
 70
128
 71
269
 72
261
 73
262
 74
249
 0
VERTEX
 8
0
 10
0.0
 20
0.0
 30
0.0
 70
128
 71
263
 72
239
 73
262
 0
VERTEX
 8
0
 10
0.0
 20
0.0
 30
0.0
 70
128
 71
259
 72
249
 73
260
 0
VERTEX
 8
0
 10
0.0
 20
0.0
 30
0.0
 70
128
 71
270
 72
250
 73
239
 74
263
 0
VERTEX
 8
0
 10
0.0
 20
0.0
 30
0.0
 70
128
 71
264
 72
256
 73
265
 74
267
 0
VERTEX
 8
0
 10
0.0
 20
0.0
 30
0.0
 70
128
 71
253
 72
242
 73
267
 74
254
 0
VERTEX
 8
0
 10
0.0
 20
0.0
 30
0.0
 70
128
 71
257
 72
255
 73
254
 74
266
 0
VERTEX
 8
0
 10
0.0
 20
0.0
 30
0.0
 70
128
 71
267
 72
265
 73
266
 74
254
 0
VERTEX
 8
0
 10
0.0
 20
0.0
 30
0.0
 70
128
 71
258
 72
250
 73
270
 74
268
 0
VERTEX
 8
0
 10
0.0
 20
0.0
 30
0.0
 70
128
 71
249
 72
259
 73
268
 74
269
 0
VERTEX
 8
0
 10
0.0
 20
0.0
 30
0.0
 70
128
 71
269
 72
268
 73
270
 74
261
 0
VERTEX
 8
0
 10
0.0
 20
0.0
 30
0.0
 70
128
 71
263
 72
262
 73
261
 74
270
 0
VERTEX
 8
0
 10
0.0
 20
0.0
 30
0.0
 70
128
 71
276
 72
300
 73
292
 74
291
 0
VERTEX
 8
0
 10
0.0
 20
0.0
 30
0.0
 70
128
 71
300
 72
276
 73
271
 74
273
 0
VERTEX
 8
0
 10
0.0
 20
0.0
 30
0.0
 70
128
 71
275
 72
271
 73
276
 0
VERTEX
 8
0
 10
0.0
 20
0.0
 30
0.0
 70
128
 71
271
 72
277
 73
272
 74
273
 0
VERTEX
 8
0
 10
0.0
 20
0.0
 30
0.0
 70
128
 71
274
 72
300
 73
273
 0
VERTEX
 8
0
 10
0.0
 20
0.0
 30
0.0
 70
128
 71
280
 72
281
 73
271
 74
275
 0
VERTEX
 8
0
 10
0.0
 20
0.0
 30
0.0
 70
128
 71
275
 72
276
 73
302
 74
280
 0
VERTEX
 8
0
 10
0.0
 20
0.0
 30
0.0
 70
128
 71
281
 72
287
 73
277
 74
271
 0
VERTEX
 8
0
 10
0.0
 20
0.0
 30
0.0
 70
128
 71
283
 72
273
 73
272
 74
282
 0
VERTEX
 8
0
 10
0.0
 20
0.0
 30
0.0
 70
128
 71
279
 72
278
 73
300
 74
274
 0
VERTEX
 8
0
 10
0.0
 20
0.0
 30
0.0
 70
128
 71
273
 72
283
 73
279
 74
274
 0
VERTEX
 8
0
 10
0.0
 20
0.0
 30
0.0
 70
128
 71
281
 72
283
 73
282
 74
287
 0
VERTEX
 8
0
 10
0.0
 20
0.0
 30
0.0
 70
128
 71
280
 72
279
 73
283
 74
281
 0
VERTEX
 8
0
 10
0.0
 20
0.0
 30
0.0
 70
128
 71
282
 72
272
 73
285
 74
284
 0
VERTEX
 8
0
 10
0.0
 20
0.0
 30
0.0
 70
128
 71
286
 72
285
 73
272
 74
277
 0
VERTEX
 8
0
 10
0.0
 20
0.0
 30
0.0
 70
128
 71
285
 72
289
 73
288
 74
284
 0
VERTEX
 8
0
 10
0.0
 20
0.0
 30
0.0
 70
128
 71
285
 72
286
 73
290
 74
289
 0
VERTEX
 8
0
 10
0.0
 20
0.0
 30
0.0
 70
128
 71
298
 72
286
 73
277
 74
287
 0
VERTEX
 8
0
 10
0.0
 20
0.0
 30
0.0
 70
128
 71
295
 72
294
 73
288
 74
289
 0
VERTEX
 8
0
 10
0.0
 20
0.0
 30
0.0
 70
128
 71
297
 72
290
 73
286
 74
298
 0
VERTEX
 8
0
 10
0.0
 20
0.0
 30
0.0
 70
128
 71
289
 72
290
 73
291
 74
292
 0
VERTEX
 8
0
 10
0.0
 20
0.0
 30
0.0
 70
128
 71
292
 72
293
 73
294
 74
295
 0
VERTEX
 8
0
 10
0.0
 20
0.0
 30
0.0
 70
128
 71
295
 72
289
 73
292
 0
VERTEX
 8
0
 10
0.0
 20
0.0
 30
0.0
 70
128
 71
290
 72
297
 73
296
 74
299
 0
VERTEX
 8
0
 10
0.0
 20
0.0
 30
0.0
 70
128
 71
299
 72
291
 73
290
 0
VERTEX
 8
0
 10
0.0
 20
0.0
 30
0.0
 70
128
 71
278
 72
293
 73
292
 74
300
 0
VERTEX
 8
0
 10
0.0
 20
0.0
 30
0.0
 70
128
 71
299
 72
296
 73
301
 74
291
 0
VERTEX
 8
0
 10
0.0
 20
0.0
 30
0.0
 70
128
 71
302
 72
278
 73
279
 74
280
 0
VERTEX
 8
0
 10
0.0
 20
0.0
 30
0.0
 70
128
 71
302
 72
276
 73
291
 74
301
 0
VERTEX
 8
0
 10
0.0
 20
0.0
 30
0.0
 70
128
 71
284
 72
298
 73
287
 74
282
 0
VERTEX
 8
0
 10
0.0
 20
0.0
 30
0.0
 70
128
 71
278
 72
302
 73
301
 74
293
 0
VERTEX
 8
0
 10
0.0
 20
0.0
 30
0.0
 70
128
 71
305
 72
448
 73
303
 74
306
 0
VERTEX
 8
0
 10
0.0
 20
0.0
 30
0.0
 70
128
 71
304
 72
310
 73
448
 74
305
 0
VERTEX
 8
0
 10
0.0
 20
0.0
 30
0.0
 70
128
 71
463
 72
309
 73
306
 74
303
 0
VERTEX
 8
0
 10
0.0
 20
0.0
 30
0.0
 70
128
 71
307
 72
310
 73
304
 0
VERTEX
 8
0
 10
0.0
 20
0.0
 30
0.0
 70
128
 71
463
 72
308
 73
309
 0
VERTEX
 8
0
 10
0.0
 20
0.0
 30
0.0
 70
128
 71
310
 72
307
 73
311
 0
VERTEX
 8
0
 10
0.0
 20
0.0
 30
0.0
 70
128
 71
342
 72
311
 73
307
 74
304
 0
VERTEX
 8
0
 10
0.0
 20
0.0
 30
0.0
 70
128
 71
308
 72
463
 73
313
 0
VERTEX
 8
0
 10
0.0
 20
0.0
 30
0.0
 70
128
 71
309
 72
308
 73
313
 74
341
 0
VERTEX
 8
0
 10
0.0
 20
0.0
 30
0.0
 70
128
 71
463
 72
310
 73
311
 74
313
 0
VERTEX
 8
0
 10
0.0
 20
0.0
 30
0.0
 70
128
 71
349
 72
348
 73
311
 74
342
 0
VERTEX
 8
0
 10
0.0
 20
0.0
 30
0.0
 70
128
 71
341
 72
313
 73
357
 74
312
 0
VERTEX
 8
0
 10
0.0
 20
0.0
 30
0.0
 70
128
 71
315
 72
313
 73
311
 74
314
 0
VERTEX
 8
0
 10
0.0
 20
0.0
 30
0.0
 70
128
 71
314
 72
311
 73
348
 0
VERTEX
 8
0
 10
0.0
 20
0.0
 30
0.0
 70
128
 71
315
 72
357
 73
313
 0
VERTEX
 8
0
 10
0.0
 20
0.0
 30
0.0
 70
128
 71
323
 72
317
 73
319
 74
324
 0
VERTEX
 8
0
 10
0.0
 20
0.0
 30
0.0
 70
128
 71
323
 72
322
 73
316
 74
317
 0
VERTEX
 8
0
 10
0.0
 20
0.0
 30
0.0
 70
128
 71
316
 72
318
 73
319
 74
317
 0
VERTEX
 8
0
 10
0.0
 20
0.0
 30
0.0
 70
128
 71
324
 72
319
 73
320
 74
321
 0
VERTEX
 8
0
 10
0.0
 20
0.0
 30
0.0
 70
128
 71
325
 72
322
 73
323
 74
324
 0
VERTEX
 8
0
 10
0.0
 20
0.0
 30
0.0
 70
128
 71
325
 72
318
 73
316
 74
322
 0
VERTEX
 8
0
 10
0.0
 20
0.0
 30
0.0
 70
128
 71
319
 72
318
 73
330
 74
320
 0
VERTEX
 8
0
 10
0.0
 20
0.0
 30
0.0
 70
128
 71
321
 72
320
 73
326
 74
328
 0
VERTEX
 8
0
 10
0.0
 20
0.0
 30
0.0
 70
128
 71
321
 72
331
 73
325
 74
324
 0
VERTEX
 8
0
 10
0.0
 20
0.0
 30
0.0
 70
128
 71
331
 72
330
 73
318
 74
325
 0
VERTEX
 8
0
 10
0.0
 20
0.0
 30
0.0
 70
128
 71
320
 72
330
 73
327
 74
326
 0
VERTEX
 8
0
 10
0.0
 20
0.0
 30
0.0
 70
128
 71
335
 72
328
 73
326
 74
333
 0
VERTEX
 8
0
 10
0.0
 20
0.0
 30
0.0
 70
128
 71
328
 72
329
 73
331
 74
321
 0
VERTEX
 8
0
 10
0.0
 20
0.0
 30
0.0
 70
128
 71
329
 72
327
 73
330
 74
331
 0
VERTEX
 8
0
 10
0.0
 20
0.0
 30
0.0
 70
128
 71
332
 72
333
 73
326
 74
327
 0
VERTEX
 8
0
 10
0.0
 20
0.0
 30
0.0
 70
128
 71
335
 72
338
 73
329
 74
328
 0
VERTEX
 8
0
 10
0.0
 20
0.0
 30
0.0
 70
128
 71
335
 72
333
 73
336
 74
334
 0
VERTEX
 8
0
 10
0.0
 20
0.0
 30
0.0
 70
128
 71
327
 72
329
 73
338
 74
332
 0
VERTEX
 8
0
 10
0.0
 20
0.0
 30
0.0
 70
128
 71
333
 72
332
 73
337
 74
336
 0
VERTEX
 8
0
 10
0.0
 20
0.0
 30
0.0
 70
128
 71
334
 72
340
 73
338
 74
335
 0
VERTEX
 8
0
 10
0.0
 20
0.0
 30
0.0
 70
128
 71
342
 72
304
 73
334
 74
336
 0
VERTEX
 8
0
 10
0.0
 20
0.0
 30
0.0
 70
128
 71
340
 72
337
 73
332
 74
338
 0
VERTEX
 8
0
 10
0.0
 20
0.0
 30
0.0
 70
128
 71
336
 72
337
 73
345
 74
339
 0
VERTEX
 8
0
 10
0.0
 20
0.0
 30
0.0
 70
128
 71
340
 72
334
 73
304
 0
VERTEX
 8
0
 10
0.0
 20
0.0
 30
0.0
 70
128
 71
341
 72
342
 73
336
 74
339
 0
VERTEX
 8
0
 10
0.0
 20
0.0
 30
0.0
 70
128
 71
337
 72
340
 73
344
 0
VERTEX
 8
0
 10
0.0
 20
0.0
 30
0.0
 70
128
 71
344
 72
343
 73
345
 74
337
 0
VERTEX
 8
0
 10
0.0
 20
0.0
 30
0.0
 70
128
 71
339
 72
345
 73
346
 74
347
 0
VERTEX
 8
0
 10
0.0
 20
0.0
 30
0.0
 70
128
 71
340
 72
304
 73
305
 74
344
 0
VERTEX
 8
0
 10
0.0
 20
0.0
 30
0.0
 70
128
 71
312
 72
349
 73
342
 74
341
 0
VERTEX
 8
0
 10
0.0
 20
0.0
 30
0.0
 70
128
 71
341
 72
339
 73
356
 74
309
 0
VERTEX
 8
0
 10
0.0
 20
0.0
 30
0.0
 70
128
 71
351
 72
350
 73
343
 74
344
 0
VERTEX
 8
0
 10
0.0
 20
0.0
 30
0.0
 70
128
 71
345
 72
343
 73
355
 0
VERTEX
 8
0
 10
0.0
 20
0.0
 30
0.0
 70
128
 71
345
 72
355
 73
354
 74
346
 0
VERTEX
 8
0
 10
0.0
 20
0.0
 30
0.0
 70
128
 71
366
 72
370
 73
347
 74
346
 0
VERTEX
 8
0
 10
0.0
 20
0.0
 30
0.0
 70
128
 71
347
 72
353
 73
356
 74
339
 0
VERTEX
 8
0
 10
0.0
 20
0.0
 30
0.0
 70
128
 71
305
 72
363
 73
344
 0
VERTEX
 8
0
 10
0.0
 20
0.0
 30
0.0
 70
128
 71
357
 72
348
 73
349
 74
312
 0
VERTEX
 8
0
 10
0.0
 20
0.0
 30
0.0
 70
128
 71
356
 72
355
 73
309
 0
VERTEX
 8
0
 10
0.0
 20
0.0
 30
0.0
 70
128
 71
350
 72
351
 73
372
 74
358
 0
VERTEX
 8
0
 10
0.0
 20
0.0
 30
0.0
 70
128
 71
352
 72
343
 73
350
 74
364
 0
VERTEX
 8
0
 10
0.0
 20
0.0
 30
0.0
 70
128
 71
344
 72
363
 73
365
 74
351
 0
VERTEX
 8
0
 10
0.0
 20
0.0
 30
0.0
 70
128
 71
306
 72
309
 73
355
 74
343
 0
VERTEX
 8
0
 10
0.0
 20
0.0
 30
0.0
 70
128
 71
353
 72
354
 73
355
 74
356
 0
VERTEX
 8
0
 10
0.0
 20
0.0
 30
0.0
 70
128
 71
346
 72
354
 73
367
 74
366
 0
VERTEX
 8
0
 10
0.0
 20
0.0
 30
0.0
 70
128
 71
370
 72
366
 73
386
 74
369
 0
VERTEX
 8
0
 10
0.0
 20
0.0
 30
0.0
 70
128
 71
385
 72
353
 73
347
 74
370
 0
VERTEX
 8
0
 10
0.0
 20
0.0
 30
0.0
 70
128
 71
352
 72
363
 73
305
 74
306
 0
VERTEX
 8
0
 10
0.0
 20
0.0
 30
0.0
 70
128
 71
348
 72
357
 73
315
 74
314
 0
VERTEX
 8
0
 10
0.0
 20
0.0
 30
0.0
 70
128
 71
391
 72
372
 73
351
 0
VERTEX
 8
0
 10
0.0
 20
0.0
 30
0.0
 70
128
 71
358
 72
372
 73
359
 74
360
 0
VERTEX
 8
0
 10
0.0
 20
0.0
 30
0.0
 70
128
 71
358
 72
400
 73
350
 0
VERTEX
 8
0
 10
0.0
 20
0.0
 30
0.0
 70
128
 71
352
 72
306
 73
343
 0
VERTEX
 8
0
 10
0.0
 20
0.0
 30
0.0
 70
128
 71
364
 72
350
 73
361
 74
362
 0
VERTEX
 8
0
 10
0.0
 20
0.0
 30
0.0
 70
128
 71
363
 72
352
 73
364
 74
365
 0
VERTEX
 8
0
 10
0.0
 20
0.0
 30
0.0
 70
128
 71
410
 72
409
 73
351
 74
365
 0
VERTEX
 8
0
 10
0.0
 20
0.0
 30
0.0
 70
128
 71
385
 72
367
 73
354
 74
353
 0
VERTEX
 8
0
 10
0.0
 20
0.0
 30
0.0
 70
128
 71
366
 72
367
 73
368
 74
386
 0
VERTEX
 8
0
 10
0.0
 20
0.0
 30
0.0
 70
128
 71
369
 72
386
 73
387
 74
413
 0
VERTEX
 8
0
 10
0.0
 20
0.0
 30
0.0
 70
128
 71
369
 72
384
 73
385
 74
370
 0
VERTEX
 8
0
 10
0.0
 20
0.0
 30
0.0
 70
128
 71
391
 72
390
 73
371
 74
372
 0
VERTEX
 8
0
 10
0.0
 20
0.0
 30
0.0
 70
128
 71
391
 72
351
 73
393
 0
VERTEX
 8
0
 10
0.0
 20
0.0
 30
0.0
 70
128
 71
372
 72
371
 73
394
 74
359
 0
VERTEX
 8
0
 10
0.0
 20
0.0
 30
0.0
 70
128
 71
420
 72
373
 73
360
 74
359
 0
VERTEX
 8
0
 10
0.0
 20
0.0
 30
0.0
 70
128
 71
360
 72
374
 73
375
 74
358
 0
VERTEX
 8
0
 10
0.0
 20
0.0
 30
0.0
 70
128
 71
358
 72
375
 73
401
 74
400
 0
VERTEX
 8
0
 10
0.0
 20
0.0
 30
0.0
 70
128
 71
400
 72
376
 73
350
 0
VERTEX
 8
0
 10
0.0
 20
0.0
 30
0.0
 70
128
 71
422
 72
361
 73
350
 0
VERTEX
 8
0
 10
0.0
 20
0.0
 30
0.0
 70
128
 71
362
 72
361
 73
377
 74
405
 0
VERTEX
 8
0
 10
0.0
 20
0.0
 30
0.0
 70
128
 71
378
 72
364
 73
362
 0
VERTEX
 8
0
 10
0.0
 20
0.0
 30
0.0
 70
128
 71
365
 72
364
 73
379
 74
380
 0
VERTEX
 8
0
 10
0.0
 20
0.0
 30
0.0
 70
128
 71
381
 72
382
 73
409
 74
410
 0
VERTEX
 8
0
 10
0.0
 20
0.0
 30
0.0
 70
128
 71
383
 72
351
 73
409
 0
VERTEX
 8
0
 10
0.0
 20
0.0
 30
0.0
 70
128
 71
436
 72
410
 73
365
 0
VERTEX
 8
0
 10
0.0
 20
0.0
 30
0.0
 70
128
 71
384
 72
368
 73
367
 74
385
 0
VERTEX
 8
0
 10
0.0
 20
0.0
 30
0.0
 70
128
 71
386
 72
368
 73
412
 74
387
 0
VERTEX
 8
0
 10
0.0
 20
0.0
 30
0.0
 70
128
 71
387
 72
388
 73
389
 74
413
 0
VERTEX
 8
0
 10
0.0
 20
0.0
 30
0.0
 70
128
 71
413
 72
439
 73
384
 74
369
 0
VERTEX
 8
0
 10
0.0
 20
0.0
 30
0.0
 70
128
 71
395
 72
414
 73
390
 74
391
 0
VERTEX
 8
0
 10
0.0
 20
0.0
 30
0.0
 70
128
 71
371
 72
390
 73
432
 74
441
 0
VERTEX
 8
0
 10
0.0
 20
0.0
 30
0.0
 70
128
 71
393
 72
351
 73
383
 0
VERTEX
 8
0
 10
0.0
 20
0.0
 30
0.0
 70
128
 71
392
 72
395
 73
391
 74
393
 0
VERTEX
 8
0
 10
0.0
 20
0.0
 30
0.0
 70
128
 71
394
 72
371
 73
375
 74
374
 0
VERTEX
 8
0
 10
0.0
 20
0.0
 30
0.0
 70
128
 71
359
 72
394
 73
414
 74
395
 0
VERTEX
 8
0
 10
0.0
 20
0.0
 30
0.0
 70
128
 71
396
 72
397
 73
373
 74
420
 0
VERTEX
 8
0
 10
0.0
 20
0.0
 30
0.0
 70
128
 71
373
 72
398
 73
360
 0
VERTEX
 8
0
 10
0.0
 20
0.0
 30
0.0
 70
128
 71
395
 72
420
 73
359
 0
VERTEX
 8
0
 10
0.0
 20
0.0
 30
0.0
 70
128
 71
398
 72
402
 73
374
 74
360
 0
VERTEX
 8
0
 10
0.0
 20
0.0
 30
0.0
 70
128
 71
401
 72
375
 73
399
 74
423
 0
VERTEX
 8
0
 10
0.0
 20
0.0
 30
0.0
 70
128
 71
400
 72
401
 73
402
 74
398
 0
VERTEX
 8
0
 10
0.0
 20
0.0
 30
0.0
 70
128
 71
376
 72
400
 73
398
 74
403
 0
VERTEX
 8
0
 10
0.0
 20
0.0
 30
0.0
 70
128
 71
376
 72
422
 73
350
 0
VERTEX
 8
0
 10
0.0
 20
0.0
 30
0.0
 70
128
 71
423
 72
361
 73
422
 74
401
 0
VERTEX
 8
0
 10
0.0
 20
0.0
 30
0.0
 70
128
 71
423
 72
404
 73
377
 74
361
 0
VERTEX
 8
0
 10
0.0
 20
0.0
 30
0.0
 70
128
 71
405
 72
377
 73
373
 74
447
 0
VERTEX
 8
0
 10
0.0
 20
0.0
 30
0.0
 70
128
 71
425
 72
406
 73
362
 74
405
 0
VERTEX
 8
0
 10
0.0
 20
0.0
 30
0.0
 70
128
 71
426
 72
364
 73
378
 0
VERTEX
 8
0
 10
0.0
 20
0.0
 30
0.0
 70
128
 71
450
 72
378
 73
362
 74
406
 0
VERTEX
 8
0
 10
0.0
 20
0.0
 30
0.0
 70
128
 71
407
 72
379
 73
364
 0
VERTEX
 8
0
 10
0.0
 20
0.0
 30
0.0
 70
128
 71
408
 72
380
 73
379
 74
430
 0
VERTEX
 8
0
 10
0.0
 20
0.0
 30
0.0
 70
128
 71
457
 72
365
 73
380
 0
VERTEX
 8
0
 10
0.0
 20
0.0
 30
0.0
 70
128
 71
446
 72
420
 73
382
 74
381
 0
VERTEX
 8
0
 10
0.0
 20
0.0
 30
0.0
 70
128
 71
433
 72
432
 73
409
 74
382
 0
VERTEX
 8
0
 10
0.0
 20
0.0
 30
0.0
 70
128
 71
431
 72
434
 73
381
 74
410
 0
VERTEX
 8
0
 10
0.0
 20
0.0
 30
0.0
 70
128
 71
409
 72
432
 73
390
 74
383
 0
VERTEX
 8
0
 10
0.0
 20
0.0
 30
0.0
 70
128
 71
436
 72
456
 73
431
 74
410
 0
VERTEX
 8
0
 10
0.0
 20
0.0
 30
0.0
 70
128
 71
436
 72
365
 73
411
 0
VERTEX
 8
0
 10
0.0
 20
0.0
 30
0.0
 70
128
 71
439
 72
412
 73
368
 74
384
 0
VERTEX
 8
0
 10
0.0
 20
0.0
 30
0.0
 70
128
 71
387
 72
412
 73
438
 74
388
 0
VERTEX
 8
0
 10
0.0
 20
0.0
 30
0.0
 70
128
 71
389
 72
388
 73
438
 74
440
 0
VERTEX
 8
0
 10
0.0
 20
0.0
 30
0.0
 70
128
 71
389
 72
440
 73
439
 74
413
 0
VERTEX
 8
0
 10
0.0
 20
0.0
 30
0.0
 70
128
 71
390
 72
414
 73
415
 74
383
 0
VERTEX
 8
0
 10
0.0
 20
0.0
 30
0.0
 70
128
 71
442
 72
441
 73
432
 74
431
 0
VERTEX
 8
0
 10
0.0
 20
0.0
 30
0.0
 70
128
 71
441
 72
399
 73
375
 74
371
 0
VERTEX
 8
0
 10
0.0
 20
0.0
 30
0.0
 70
128
 71
393
 72
383
 73
415
 74
392
 0
VERTEX
 8
0
 10
0.0
 20
0.0
 30
0.0
 70
128
 71
395
 72
392
 73
420
 0
VERTEX
 8
0
 10
0.0
 20
0.0
 30
0.0
 70
128
 71
416
 72
417
 73
394
 74
374
 0
VERTEX
 8
0
 10
0.0
 20
0.0
 30
0.0
 70
128
 71
414
 72
394
 73
417
 74
433
 0
VERTEX
 8
0
 10
0.0
 20
0.0
 30
0.0
 70
128
 71
468
 72
462
 73
397
 74
396
 0
VERTEX
 8
0
 10
0.0
 20
0.0
 30
0.0
 70
128
 71
447
 72
373
 73
397
 74
418
 0
VERTEX
 8
0
 10
0.0
 20
0.0
 30
0.0
 70
128
 71
419
 72
396
 73
420
 74
446
 0
VERTEX
 8
0
 10
0.0
 20
0.0
 30
0.0
 70
128
 71
373
 72
403
 73
398
 0
VERTEX
 8
0
 10
0.0
 20
0.0
 30
0.0
 70
128
 71
374
 72
402
 73
404
 74
416
 0
VERTEX
 8
0
 10
0.0
 20
0.0
 30
0.0
 70
128
 71
406
 72
423
 73
399
 74
421
 0
VERTEX
 8
0
 10
0.0
 20
0.0
 30
0.0
 70
128
 71
402
 72
401
 73
422
 74
424
 0
VERTEX
 8
0
 10
0.0
 20
0.0
 30
0.0
 70
128
 71
403
 72
424
 73
422
 74
376
 0
VERTEX
 8
0
 10
0.0
 20
0.0
 30
0.0
 70
128
 71
425
 72
404
 73
423
 74
406
 0
VERTEX
 8
0
 10
0.0
 20
0.0
 30
0.0
 70
128
 71
402
 72
424
 73
377
 74
404
 0
VERTEX
 8
0
 10
0.0
 20
0.0
 30
0.0
 70
128
 71
377
 72
424
 73
373
 0
VERTEX
 8
0
 10
0.0
 20
0.0
 30
0.0
 70
128
 71
428
 72
405
 73
447
 0
VERTEX
 8
0
 10
0.0
 20
0.0
 30
0.0
 70
128
 71
425
 72
405
 73
428
 74
427
 0
VERTEX
 8
0
 10
0.0
 20
0.0
 30
0.0
 70
128
 71
407
 72
364
 73
426
 0
VERTEX
 8
0
 10
0.0
 20
0.0
 30
0.0
 70
128
 71
378
 72
428
 73
449
 74
426
 0
VERTEX
 8
0
 10
0.0
 20
0.0
 30
0.0
 70
128
 71
450
 72
427
 73
428
 74
378
 0
VERTEX
 8
0
 10
0.0
 20
0.0
 30
0.0
 70
128
 71
406
 72
421
 73
453
 74
450
 0
VERTEX
 8
0
 10
0.0
 20
0.0
 30
0.0
 70
128
 71
379
 72
407
 73
450
 74
453
 0
VERTEX
 8
0
 10
0.0
 20
0.0
 30
0.0
 70
128
 71
454
 72
452
 73
380
 74
408
 0
VERTEX
 8
0
 10
0.0
 20
0.0
 30
0.0
 70
128
 71
453
 72
429
 73
430
 74
379
 0
VERTEX
 8
0
 10
0.0
 20
0.0
 30
0.0
 70
128
 71
447
 72
446
 73
408
 74
430
 0
VERTEX
 8
0
 10
0.0
 20
0.0
 30
0.0
 70
128
 71
457
 72
411
 73
365
 0
VERTEX
 8
0
 10
0.0
 20
0.0
 30
0.0
 70
128
 71
457
 72
380
 73
452
 74
456
 0
VERTEX
 8
0
 10
0.0
 20
0.0
 30
0.0
 70
128
 71
415
 72
382
 73
420
 0
VERTEX
 8
0
 10
0.0
 20
0.0
 30
0.0
 70
128
 71
437
 72
446
 73
381
 0
VERTEX
 8
0
 10
0.0
 20
0.0
 30
0.0
 70
128
 71
431
 72
432
 73
433
 74
434
 0
VERTEX
 8
0
 10
0.0
 20
0.0
 30
0.0
 70
128
 71
433
 72
382
 73
415
 74
414
 0
VERTEX
 8
0
 10
0.0
 20
0.0
 30
0.0
 70
128
 71
435
 72
437
 73
381
 74
434
 0
VERTEX
 8
0
 10
0.0
 20
0.0
 30
0.0
 70
128
 71
435
 72
456
 73
436
 74
437
 0
VERTEX
 8
0
 10
0.0
 20
0.0
 30
0.0
 70
128
 71
442
 72
431
 73
456
 74
452
 0
VERTEX
 8
0
 10
0.0
 20
0.0
 30
0.0
 70
128
 71
437
 72
436
 73
411
 74
458
 0
VERTEX
 8
0
 10
0.0
 20
0.0
 30
0.0
 70
128
 71
438
 72
412
 73
439
 74
440
 0
VERTEX
 8
0
 10
0.0
 20
0.0
 30
0.0
 70
128
 71
459
 72
417
 73
441
 74
442
 0
VERTEX
 8
0
 10
0.0
 20
0.0
 30
0.0
 70
128
 71
441
 72
417
 73
416
 74
399
 0
VERTEX
 8
0
 10
0.0
 20
0.0
 30
0.0
 70
128
 71
392
 72
415
 73
420
 0
VERTEX
 8
0
 10
0.0
 20
0.0
 30
0.0
 70
128
 71
434
 72
433
 73
417
 74
459
 0
VERTEX
 8
0
 10
0.0
 20
0.0
 30
0.0
 70
128
 71
443
 72
462
 73
468
 74
444
 0
VERTEX
 8
0
 10
0.0
 20
0.0
 30
0.0
 70
128
 71
462
 72
445
 73
397
 0
VERTEX
 8
0
 10
0.0
 20
0.0
 30
0.0
 70
128
 71
468
 72
396
 73
465
 0
VERTEX
 8
0
 10
0.0
 20
0.0
 30
0.0
 70
128
 71
397
 72
303
 73
418
 0
VERTEX
 8
0
 10
0.0
 20
0.0
 30
0.0
 70
128
 71
446
 72
447
 73
418
 74
419
 0
VERTEX
 8
0
 10
0.0
 20
0.0
 30
0.0
 70
128
 71
396
 72
419
 73
448
 0
VERTEX
 8
0
 10
0.0
 20
0.0
 30
0.0
 70
128
 71
403
 72
373
 73
424
 0
VERTEX
 8
0
 10
0.0
 20
0.0
 30
0.0
 70
128
 71
460
 72
416
 73
404
 74
425
 0
VERTEX
 8
0
 10
0.0
 20
0.0
 30
0.0
 70
128
 71
421
 72
399
 73
416
 74
460
 0
VERTEX
 8
0
 10
0.0
 20
0.0
 30
0.0
 70
128
 71
447
 72
449
 73
428
 0
VERTEX
 8
0
 10
0.0
 20
0.0
 30
0.0
 70
128
 71
460
 72
425
 73
427
 74
429
 0
VERTEX
 8
0
 10
0.0
 20
0.0
 30
0.0
 70
128
 71
451
 72
407
 73
426
 74
449
 0
VERTEX
 8
0
 10
0.0
 20
0.0
 30
0.0
 70
128
 71
427
 72
450
 73
407
 74
451
 0
VERTEX
 8
0
 10
0.0
 20
0.0
 30
0.0
 70
128
 71
452
 72
453
 73
421
 74
442
 0
VERTEX
 8
0
 10
0.0
 20
0.0
 30
0.0
 70
128
 71
452
 72
454
 73
429
 74
453
 0
VERTEX
 8
0
 10
0.0
 20
0.0
 30
0.0
 70
128
 71
435
 72
454
 73
408
 74
455
 0
VERTEX
 8
0
 10
0.0
 20
0.0
 30
0.0
 70
128
 71
429
 72
427
 73
451
 74
430
 0
VERTEX
 8
0
 10
0.0
 20
0.0
 30
0.0
 70
128
 71
455
 72
408
 73
446
 0
VERTEX
 8
0
 10
0.0
 20
0.0
 30
0.0
 70
128
 71
430
 72
451
 73
447
 0
VERTEX
 8
0
 10
0.0
 20
0.0
 30
0.0
 70
128
 71
457
 72
455
 73
458
 74
411
 0
VERTEX
 8
0
 10
0.0
 20
0.0
 30
0.0
 70
128
 71
456
 72
435
 73
455
 74
457
 0
VERTEX
 8
0
 10
0.0
 20
0.0
 30
0.0
 70
128
 71
437
 72
458
 73
446
 0
VERTEX
 8
0
 10
0.0
 20
0.0
 30
0.0
 70
128
 71
434
 72
459
 73
454
 74
435
 0
VERTEX
 8
0
 10
0.0
 20
0.0
 30
0.0
 70
128
 71
459
 72
442
 73
421
 74
460
 0
VERTEX
 8
0
 10
0.0
 20
0.0
 30
0.0
 70
128
 71
469
 72
461
 73
462
 74
443
 0
VERTEX
 8
0
 10
0.0
 20
0.0
 30
0.0
 70
128
 71
444
 72
468
 73
467
 74
471
 0
VERTEX
 8
0
 10
0.0
 20
0.0
 30
0.0
 70
128
 71
444
 72
310
 73
463
 74
443
 0
VERTEX
 8
0
 10
0.0
 20
0.0
 30
0.0
 70
128
 71
461
 72
464
 73
445
 74
462
 0
VERTEX
 8
0
 10
0.0
 20
0.0
 30
0.0
 70
128
 71
463
 72
303
 73
397
 74
445
 0
VERTEX
 8
0
 10
0.0
 20
0.0
 30
0.0
 70
128
 71
396
 72
448
 73
310
 74
465
 0
VERTEX
 8
0
 10
0.0
 20
0.0
 30
0.0
 70
128
 71
466
 72
467
 73
468
 74
465
 0
VERTEX
 8
0
 10
0.0
 20
0.0
 30
0.0
 70
128
 71
303
 72
448
 73
419
 74
418
 0
VERTEX
 8
0
 10
0.0
 20
0.0
 30
0.0
 70
128
 71
451
 72
449
 73
447
 0
VERTEX
 8
0
 10
0.0
 20
0.0
 30
0.0
 70
128
 71
429
 72
454
 73
459
 74
460
 0
VERTEX
 8
0
 10
0.0
 20
0.0
 30
0.0
 70
128
 71
458
 72
455
 73
446
 0
VERTEX
 8
0
 10
0.0
 20
0.0
 30
0.0
 70
128
 71
461
 72
469
 73
483
 74
477
 0
VERTEX
 8
0
 10
0.0
 20
0.0
 30
0.0
 70
128
 71
443
 72
472
 73
475
 74
469
 0
VERTEX
 8
0
 10
0.0
 20
0.0
 30
0.0
 70
128
 71
478
 72
470
 73
471
 74
467
 0
VERTEX
 8
0
 10
0.0
 20
0.0
 30
0.0
 70
128
 71
473
 72
444
 73
471
 74
479
 0
VERTEX
 8
0
 10
0.0
 20
0.0
 30
0.0
 70
128
 71
444
 72
473
 73
310
 0
VERTEX
 8
0
 10
0.0
 20
0.0
 30
0.0
 70
128
 71
472
 72
443
 73
463
 0
VERTEX
 8
0
 10
0.0
 20
0.0
 30
0.0
 70
128
 71
487
 72
464
 73
461
 74
477
 0
VERTEX
 8
0
 10
0.0
 20
0.0
 30
0.0
 70
128
 71
472
 72
445
 73
464
 74
475
 0
VERTEX
 8
0
 10
0.0
 20
0.0
 30
0.0
 70
128
 71
472
 72
463
 73
445
 0
VERTEX
 8
0
 10
0.0
 20
0.0
 30
0.0
 70
128
 71
465
 72
310
 73
473
 0
VERTEX
 8
0
 10
0.0
 20
0.0
 30
0.0
 70
128
 71
466
 72
482
 73
478
 74
467
 0
VERTEX
 8
0
 10
0.0
 20
0.0
 30
0.0
 70
128
 71
479
 72
466
 73
465
 74
473
 0
VERTEX
 8
0
 10
0.0
 20
0.0
 30
0.0
 70
128
 71
474
 72
483
 73
469
 74
475
 0
VERTEX
 8
0
 10
0.0
 20
0.0
 30
0.0
 70
128
 71
484
 72
476
 73
477
 74
483
 0
VERTEX
 8
0
 10
0.0
 20
0.0
 30
0.0
 70
128
 71
470
 72
478
 73
493
 74
486
 0
VERTEX
 8
0
 10
0.0
 20
0.0
 30
0.0
 70
128
 71
479
 72
471
 73
470
 74
480
 0
VERTEX
 8
0
 10
0.0
 20
0.0
 30
0.0
 70
128
 71
475
 72
464
 73
487
 74
474
 0
VERTEX
 8
0
 10
0.0
 20
0.0
 30
0.0
 70
128
 71
476
 72
488
 73
487
 74
477
 0
VERTEX
 8
0
 10
0.0
 20
0.0
 30
0.0
 70
128
 71
480
 72
482
 73
466
 74
479
 0
VERTEX
 8
0
 10
0.0
 20
0.0
 30
0.0
 70
128
 71
481
 72
493
 73
478
 74
482
 0
VERTEX
 8
0
 10
0.0
 20
0.0
 30
0.0
 70
128
 71
483
 72
474
 73
489
 74
484
 0
VERTEX
 8
0
 10
0.0
 20
0.0
 30
0.0
 70
128
 71
485
 72
490
 73
476
 74
484
 0
VERTEX
 8
0
 10
0.0
 20
0.0
 30
0.0
 70
128
 71
486
 72
493
 73
497
 74
506
 0
VERTEX
 8
0
 10
0.0
 20
0.0
 30
0.0
 70
128
 71
480
 72
470
 73
486
 74
492
 0
VERTEX
 8
0
 10
0.0
 20
0.0
 30
0.0
 70
128
 71
474
 72
487
 73
488
 74
489
 0
VERTEX
 8
0
 10
0.0
 20
0.0
 30
0.0
 70
128
 71
490
 72
491
 73
488
 74
476
 0
VERTEX
 8
0
 10
0.0
 20
0.0
 30
0.0
 70
128
 71
492
 72
481
 73
482
 74
480
 0
VERTEX
 8
0
 10
0.0
 20
0.0
 30
0.0
 70
128
 71
498
 72
497
 73
493
 74
481
 0
VERTEX
 8
0
 10
0.0
 20
0.0
 30
0.0
 70
128
 71
484
 72
489
 73
499
 74
485
 0
VERTEX
 8
0
 10
0.0
 20
0.0
 30
0.0
 70
128
 71
494
 72
490
 73
485
 74
501
 0
VERTEX
 8
0
 10
0.0
 20
0.0
 30
0.0
 70
128
 71
497
 72
495
 73
496
 74
506
 0
VERTEX
 8
0
 10
0.0
 20
0.0
 30
0.0
 70
128
 71
492
 72
486
 73
506
 74
505
 0
VERTEX
 8
0
 10
0.0
 20
0.0
 30
0.0
 70
128
 71
489
 72
488
 73
491
 74
499
 0
VERTEX
 8
0
 10
0.0
 20
0.0
 30
0.0
 70
128
 71
494
 72
502
 73
491
 74
490
 0
VERTEX
 8
0
 10
0.0
 20
0.0
 30
0.0
 70
128
 71
505
 72
498
 73
481
 74
492
 0
VERTEX
 8
0
 10
0.0
 20
0.0
 30
0.0
 70
128
 71
503
 72
495
 73
497
 74
498
 0
VERTEX
 8
0
 10
0.0
 20
0.0
 30
0.0
 70
128
 71
485
 72
499
 73
500
 74
501
 0
VERTEX
 8
0
 10
0.0
 20
0.0
 30
0.0
 70
128
 71
500
 72
502
 73
494
 74
501
 0
VERTEX
 8
0
 10
0.0
 20
0.0
 30
0.0
 70
128
 71
496
 72
495
 73
503
 74
504
 0
VERTEX
 8
0
 10
0.0
 20
0.0
 30
0.0
 70
128
 71
505
 72
506
 73
496
 74
504
 0
VERTEX
 8
0
 10
0.0
 20
0.0
 30
0.0
 70
128
 71
491
 72
502
 73
500
 74
499
 0
VERTEX
 8
0
 10
0.0
 20
0.0
 30
0.0
 70
128
 71
503
 72
498
 73
505
 74
504
 0
VERTEX
 8
0
 10
0.0
 20
0.0
 30
0.0
 70
128
 71
284
 72
288
 73
297
 74
298
 0
VERTEX
 8
0
 10
0.0
 20
0.0
 30
0.0
 70
128
 71
288
 72
294
 73
296
 74
297
 0
VERTEX
 8
0
 10
0.0
 20
0.0
 30
0.0
 70
128
 71
293
 72
301
 73
296
 74
294
 0
SEQEND
 8
0
 0
ENDSEC
 0
EOF
