 0
SECTION
 2
HEADER
 9
$ACADVER
 1
AC1009
 9
$INSBASE
 10
0.0
 20
0.0
 30
0.0
 9
$EXTMIN
 10
0.25
 20
-0.33
 30
0.0
 9
$EXTMAX
 10
0.55
 20
0.0
 30
0.0
 9
$LIMMIN
 10
0.0
 20
0.0
 9
$LIMMAX
 10
12.0
 20
9.0
 9
$ORTHOMODE
 70
1
 9
$REGENMODE
 70
1
 9
$FILLMODE
 70
1
 9
$QTEXTMODE
 70
0
 9
$MIRRTEXT
 70
0
 9
$DRAGMODE
 70
2
 9
$LTSCALE
 40
1.0
 9
$OSMODE
 70
43
 9
$ATTMODE
 70
1
 9
$TEXTSIZE
 40
0.2
 9
$TRACEWID
 40
0.05
 9
$TEXTSTYLE
 7
STANDARD
 9
$CLAYER
 8
0
 9
$CELTYPE
 6
BYLAYER
 9
$CECOLOR
 62
256
 9
$DIMSCALE
 40
1.0
 9
$DIMASZ
 40
0.18
 9
$DIMEXO
 40
0.0625
 9
$DIMDLI
 40
0.38
 9
$DIMRND
 40
0.0
 9
$DIMDLE
 40
0.0
 9
$DIMEXE
 40
0.18
 9
$DIMTP
 40
0.0
 9
$DIMTM
 40
0.0
 9
$DIMTXT
 40
0.18
 9
$DIMCEN
 40
0.09
 9
$DIMTSZ
 40
0.0
 9
$DIMTOL
 70
0
 9
$DIMLIM
 70
0
 9
$DIMTIH
 70
1
 9
$DIMTOH
 70
1
 9
$DIMSE1
 70
0
 9
$DIMSE2
 70
0
 9
$DIMTAD
 70
0
 9
$DIMZIN
 70
0
 9
$DIMBLK
 1

 9
$DIMASO
 70
1
 9
$DIMSHO
 70
1
 9
$DIMPOST
 1

 9
$DIMAPOST
 1

 9
$DIMALT
 70
0
 9
$DIMALTD
 70
2
 9
$DIMALTF
 40
25.3999999999999986
 9
$DIMLFAC
 40
1.0
 9
$DIMTOFL
 70
0
 9
$DIMTVP
 40
0.0
 9
$DIMTIX
 70
0
 9
$DIMSOXD
 70
0
 9
$DIMSAH
 70
0
 9
$DIMBLK1
 1

 9
$DIMBLK2
 1

 9
$DIMSTYLE
 2
STANDARD
 9
$DIMCLRD
 70
0
 9
$DIMCLRE
 70
0
 9
$DIMCLRT
 70
0
 9
$DIMTFAC
 40
1.0
 9
$DIMGAP
 40
0.09
 9
$LUNITS
 70
2
 9
$LUPREC
 70
4
 9
$SKETCHINC
 40
0.1
 9
$FILLETRAD
 40
0.0
 9
$AUNITS
 70
0
 9
$AUPREC
 70
0
 9
$MENU
 1
.
 9
$ELEVATION
 40
0.0
 9
$PELEVATION
 40
0.0
 9
$THICKNESS
 40
0.0
 9
$LIMCHECK
 70
0
 9
$BLIPMODE
 70
0
 9
$CHAMFERA
 40
0.0
 9
$CHAMFERB
 40
0.0
 9
$SKPOLY
 70
0
 9
$TDCREATE
 40
2458893.5274768518283963
 9
$TDUPDATE
 40
2458893.5949537041597068
 9
$TDINDWG
 40
0.0660416667
 9
$TDUSRTIMER
 40
0.0660416667
 9
$USRTIMER
 70
1
 9
$ANGBASE
 50
0.0
 9
$ANGDIR
 70
0
 9
$PDMODE
 70
0
 9
$PDSIZE
 40
0.0
 9
$PLINEWID
 40
0.0
 9
$COORDS
 70
1
 9
$SPLFRAME
 70
0
 9
$SPLINETYPE
 70
6
 9
$SPLINESEGS
 70
8
 9
$ATTDIA
 70
0
 9
$ATTREQ
 70
1
 9
$HANDLING
 70
1
 9
$HANDSEED
 5
30D
 9
$SURFTAB1
 70
6
 9
$SURFTAB2
 70
6
 9
$SURFTYPE
 70
6
 9
$SURFU
 70
6
 9
$SURFV
 70
6
 9
$UCSNAME
 2

 9
$UCSORG
 10
0.0
 20
0.0
 30
0.0
 9
$UCSXDIR
 10
1.0
 20
0.0
 30
0.0
 9
$UCSYDIR
 10
0.0
 20
1.0
 30
0.0
 9
$PUCSNAME
 2

 9
$PUCSORG
 10
0.0
 20
0.0
 30
0.0
 9
$PUCSXDIR
 10
1.0
 20
0.0
 30
0.0
 9
$PUCSYDIR
 10
0.0
 20
1.0
 30
0.0
 9
$USERI1
 70
0
 9
$USERI2
 70
0
 9
$USERI3
 70
0
 9
$USERI4
 70
0
 9
$USERI5
 70
0
 9
$USERR1
 40
0.0
 9
$USERR2
 40
0.0
 9
$USERR3
 40
0.0
 9
$USERR4
 40
0.0
 9
$USERR5
 40
0.0
 9
$WORLDVIEW
 70
1
 9
$SHADEDGE
 70
3
 9
$SHADEDIF
 70
70
 9
$TILEMODE
 70
1
 9
$MAXACTVP
 70
64
 9
$PLIMCHECK
 70
0
 9
$PEXTMIN
 10
1.0000000000000000E+20
 20
1.0000000000000000E+20
 30
1.0000000000000000E+20
 9
$PEXTMAX
 10
-1.0000000000000000E+20
 20
-1.0000000000000000E+20
 30
-1.0000000000000000E+20
 9
$PLIMMIN
 10
0.0
 20
0.0
 9
$PLIMMAX
 10
12.0
 20
9.0
 9
$UNITMODE
 70
0
 9
$VISRETAIN
 70
1
 9
$PLINEGEN
 70
0
 9
$PSLTSCALE
 70
1
 0
ENDSEC
 0
SECTION
 2
ENTITIES
 0
POLYLINE
 5
141
 8
0
 62
255
 66
1
 10
0.0
 20
0.0
 30
0.0
 0
VERTEX
 5
2B1
 8
0
 62
255
 10
0.25
 20
-0.11
 30
0.0
 0
VERTEX
 5
2B2
 8
0
 62
255
 10
0.25
 20
-0.33
 30
0.0
 0
VERTEX
 5
2B3
 8
0
 62
255
 10
0.265
 20
-0.33
 30
0.0
 0
VERTEX
 5
2B4
 8
0
 62
255
 10
0.268
 20
-0.318
 30
0.0
 0
VERTEX
 5
2B5
 8
0
 62
255
 10
0.274
 20
-0.309
 30
0.0
 0
VERTEX
 5
2B6
 8
0
 62
255
 10
0.283
 20
-0.303
 30
0.0
 0
VERTEX
 5
2B7
 8
0
 62
255
 10
0.295
 20
-0.3
 30
0.0
 0
VERTEX
 5
2B8
 8
0
 62
255
 10
0.295
 20
-0.285
 30
0.0
 0
VERTEX
 5
2B9
 8
0
 62
255
 10
0.455
 20
-0.285
 30
0.0
 0
VERTEX
 5
2BA
 8
0
 62
255
 10
0.455
 20
-0.205
 30
0.0
 0
VERTEX
 5
2BB
 8
0
 62
255
 10
0.47
 20
-0.205
 30
0.0
 0
VERTEX
 5
2BC
 8
0
 62
255
 10
0.47
 20
-0.19
 30
0.0
 0
VERTEX
 5
2BD
 8
0
 62
255
 10
0.483
 20
-0.189
 30
0.0
 0
VERTEX
 5
2BE
 8
0
 62
255
 10
0.494
 20
-0.186
 30
0.0
 0
VERTEX
 5
2BF
 8
0
 62
255
 10
0.506
 20
-0.179
 30
0.0
 0
VERTEX
 5
2C0
 8
0
 62
255
 10
0.514
 20
-0.17
 30
0.0
 0
VERTEX
 5
2C1
 8
0
 62
255
 10
0.52
 20
-0.16
 30
0.0
 0
VERTEX
 5
2C2
 8
0
 62
255
 10
0.529
 20
-0.149
 30
0.0
 0
VERTEX
 5
2C3
 8
0
 62
255
 10
0.539
 20
-0.143
 30
0.0
 0
VERTEX
 5
2C4
 8
0
 62
255
 10
0.55
 20
-0.14
 30
0.0
 0
VERTEX
 5
2C5
 8
0
 62
255
 10
0.55
 20
-0.12
 30
0.0
 0
VERTEX
 5
2C6
 8
0
 62
255
 10
0.48
 20
-0.11
 30
0.0
 0
SEQEND
 5
2C7
 8
0
 62
255
 0
POLYLINE
 5
15B
 8
0
 62
250
 66
1
 10
0.0
 20
0.0
 30
0.0
 0
VERTEX
 5
2C8
 8
0
 62
250
 10
0.25
 20
-0.11
 30
0.0
 0
VERTEX
 5
2C9
 8
0
 62
250
 10
0.48
 20
-0.11
 30
0.0
 0
VERTEX
 5
2CA
 8
0
 62
250
 10
0.49
 20
-0.08
 30
0.0
 0
VERTEX
 5
2CB
 8
0
 62
250
 10
0.25
 20
0.0
 30
0.0
 0
SEQEND
 5
2CC
 8
0
 62
250
 0
POLYLINE
 5
15C
 8
0
 62
250
 66
1
 10
0.0
 20
0.0
 30
0.0
 0
VERTEX
 5
2CD
 8
0
 62
250
 10
0.25
 20
0.0
 30
0.0
 0
VERTEX
 5
2CE
 8
0
 62
250
 10
0.0
 20
0.0
 30
0.0
 0
VERTEX
 5
2CF
 8
0
 62
250
 10
0.0
 20
0.104
 30
0.0
 0
SEQEND
 5
2D0
 8
0
 62
250
 0
ENDSEC
 0
EOF
