 0
SECTION
 2
HEADER
 9
$ACADVER
 1
AC1009
 9
$INSBASE
 10
0.0
 20
0.0
 30
0.0
 9
$EXTMIN
 10
0.0
 20
-0.1000000014901161
 30
0.0
 9
$EXTMAX
 10
1.0
 20
0.0
 30
1.0
 9
$LIMMIN
 10
0.0
 20
0.0
 9
$LIMMAX
 10
12.0
 20
9.0
 9
$ORTHOMODE
 70
0
 9
$REGENMODE
 70
1
 9
$FILLMODE
 70
1
 9
$QTEXTMODE
 70
0
 9
$MIRRTEXT
 70
0
 9
$DRAGMODE
 70
2
 9
$LTSCALE
 40
1.0
 9
$OSMODE
 70
43
 9
$ATTMODE
 70
1
 9
$TEXTSIZE
 40
1.0
 9
$TRACEWID
 40
0.05
 9
$TEXTSTYLE
 7
STANDARD
 9
$CLAYER
 8
0
 9
$CELTYPE
 6
CONTINUOUS
 9
$CECOLOR
 62
256
 9
$DIMSCALE
 40
1.0
 9
$DIMASZ
 40
0.18
 9
$DIMEXO
 40
0.0625
 9
$DIMDLI
 40
0.38
 9
$DIMRND
 40
0.0
 9
$DIMDLE
 40
0.0
 9
$DIMEXE
 40
0.18
 9
$DIMTP
 40
0.0
 9
$DIMTM
 40
0.0
 9
$DIMTXT
 40
0.18
 9
$DIMCEN
 40
0.09
 9
$DIMTSZ
 40
0.0
 9
$DIMTOL
 70
0
 9
$DIMLIM
 70
0
 9
$DIMTIH
 70
1
 9
$DIMTOH
 70
1
 9
$DIMSE1
 70
0
 9
$DIMSE2
 70
0
 9
$DIMTAD
 70
0
 9
$DIMZIN
 70
0
 9
$DIMBLK
 1

 9
$DIMASO
 70
1
 9
$DIMSHO
 70
1
 9
$DIMPOST
 1

 9
$DIMAPOST
 1

 9
$DIMALT
 70
0
 9
$DIMALTD
 70
2
 9
$DIMALTF
 40
25.3999999999999986
 9
$DIMLFAC
 40
1.0
 9
$DIMTOFL
 70
0
 9
$DIMTVP
 40
0.0
 9
$DIMTIX
 70
0
 9
$DIMSOXD
 70
0
 9
$DIMSAH
 70
0
 9
$DIMBLK1
 1

 9
$DIMBLK2
 1

 9
$DIMSTYLE
 2
STANDARD
 9
$DIMCLRD
 70
0
 9
$DIMCLRE
 70
0
 9
$DIMCLRT
 70
0
 9
$DIMTFAC
 40
1.0
 9
$DIMGAP
 40
0.09
 9
$LUNITS
 70
2
 9
$LUPREC
 70
4
 9
$SKETCHINC
 40
0.1
 9
$FILLETRAD
 40
0.0
 9
$AUNITS
 70
0
 9
$AUPREC
 70
0
 9
$MENU
 1
.
 9
$ELEVATION
 40
0.0
 9
$PELEVATION
 40
0.0
 9
$THICKNESS
 40
0.0
 9
$LIMCHECK
 70
0
 9
$BLIPMODE
 70
0
 9
$CHAMFERA
 40
0.0
 9
$CHAMFERB
 40
0.0
 9
$SKPOLY
 70
0
 9
$TDCREATE
 40
2458917.4940509260632098
 9
$TDUPDATE
 40
2458917.4944560178555548
 9
$TDINDWG
 40
0.0004050926
 9
$TDUSRTIMER
 40
0.0004050926
 9
$USRTIMER
 70
1
 9
$ANGBASE
 50
0.0
 9
$ANGDIR
 70
0
 9
$PDMODE
 70
0
 9
$PDSIZE
 40
0.0
 9
$PLINEWID
 40
0.0
 9
$COORDS
 70
1
 9
$SPLFRAME
 70
0
 9
$SPLINETYPE
 70
6
 9
$SPLINESEGS
 70
8
 9
$ATTDIA
 70
0
 9
$ATTREQ
 70
1
 9
$HANDLING
 70
1
 9
$HANDSEED
 5
124
 9
$SURFTAB1
 70
6
 9
$SURFTAB2
 70
6
 9
$SURFTYPE
 70
6
 9
$SURFU
 70
6
 9
$SURFV
 70
6
 9
$UCSNAME
 2

 9
$UCSORG
 10
0.0
 20
0.0
 30
0.0
 9
$UCSXDIR
 10
1.0
 20
0.0
 30
0.0
 9
$UCSYDIR
 10
0.0
 20
1.0
 30
0.0
 9
$PUCSNAME
 2

 9
$PUCSORG
 10
0.0
 20
0.0
 30
0.0
 9
$PUCSXDIR
 10
1.0
 20
0.0
 30
0.0
 9
$PUCSYDIR
 10
0.0
 20
1.0
 30
0.0
 9
$USERI1
 70
0
 9
$USERI2
 70
0
 9
$USERI3
 70
0
 9
$USERI4
 70
0
 9
$USERI5
 70
0
 9
$USERR1
 40
0.0
 9
$USERR2
 40
0.0
 9
$USERR3
 40
0.0
 9
$USERR4
 40
0.0
 9
$USERR5
 40
0.0
 9
$WORLDVIEW
 70
1
 9
$SHADEDGE
 70
3
 9
$SHADEDIF
 70
70
 9
$TILEMODE
 70
1
 9
$MAXACTVP
 70
64
 9
$PLIMCHECK
 70
0
 9
$PEXTMIN
 10
1.0000000000000000E+20
 20
1.0000000000000000E+20
 30
1.0000000000000000E+20
 9
$PEXTMAX
 10
-1.0000000000000000E+20
 20
-1.0000000000000000E+20
 30
-1.0000000000000000E+20
 9
$PLIMMIN
 10
0.0
 20
0.0
 9
$PLIMMAX
 10
12.0
 20
9.0
 9
$UNITMODE
 70
0
 9
$VISRETAIN
 70
1
 9
$PLINEGEN
 70
0
 9
$PSLTSCALE
 70
1
 0
ENDSEC
 0
SECTION
 2
ENTITIES
 0
POLYLINE
 5
7F
 8
0
 62
10
 66
1
 10
0.0
 20
0.0
 30
0.0
 70
64
 71
32
 72
42
 0
VERTEX
 5
80
 8
0
 62
10
 10
0.0
 20
-0.1
 30
0.0
 70
192
 0
VERTEX
 5
81
 8
0
 62
10
 10
0.0
 20
-0.1
 30
1.0
 70
192
 0
VERTEX
 5
82
 8
0
 62
10
 10
0.0
 20
0.0
 30
0.0
 70
192
 0
VERTEX
 5
83
 8
0
 62
10
 10
1.0
 20
0.0
 30
0.0
 70
192
 0
VERTEX
 5
84
 8
0
 62
10
 10
0.1
 20
-0.1
 30
0.1707106828689575
 70
192
 0
VERTEX
 5
85
 8
0
 62
10
 10
1.0
 20
0.0
 30
1.0
 70
192
 0
VERTEX
 5
86
 8
0
 62
10
 10
0.0
 20
0.0
 30
1.0
 70
192
 0
VERTEX
 5
87
 8
0
 62
10
 10
0.1707106828689575
 20
0.0
 30
0.9
 70
192
 0
VERTEX
 5
88
 8
0
 62
10
 10
0.1
 20
-0.1
 30
0.8292893767356871
 70
192
 0
VERTEX
 5
89
 8
0
 62
10
 10
0.1
 20
0.0
 30
0.8292893767356871
 70
192
 0
VERTEX
 5
8A
 8
0
 62
10
 10
0.1707106828689575
 20
0.0
 30
0.1
 70
192
 0
VERTEX
 5
8B
 8
0
 62
10
 10
0.8292893767356871
 20
0.0
 30
0.1
 70
192
 0
VERTEX
 5
8C
 8
0
 62
10
 10
1.0
 20
-0.1
 30
1.0
 70
192
 0
VERTEX
 5
8D
 8
0
 62
10
 10
0.8292893767356871
 20
-0.1
 30
0.1
 70
192
 0
VERTEX
 5
8E
 8
0
 62
10
 10
1.0
 20
-0.1
 30
0.0
 70
192
 0
VERTEX
 5
8F
 8
0
 62
10
 10
0.4292891919612886
 20
-0.1
 30
0.5
 70
192
 0
VERTEX
 5
90
 8
0
 62
10
 10
0.1
 20
0.0
 30
0.1707106828689575
 70
192
 0
VERTEX
 5
91
 8
0
 62
10
 10
0.4292891919612886
 20
0.0
 30
0.5
 70
192
 0
VERTEX
 5
92
 8
0
 62
10
 10
0.9
 20
-0.1
 30
0.8292893767356871
 70
192
 0
VERTEX
 5
93
 8
0
 62
10
 10
0.5
 20
-0.1
 30
0.4292891919612886
 70
192
 0
VERTEX
 5
94
 8
0
 62
10
 10
0.1707106828689575
 20
-0.1
 30
0.9
 70
192
 0
VERTEX
 5
95
 8
0
 62
10
 10
0.8292893767356871
 20
0.0
 30
0.9
 70
192
 0
VERTEX
 5
96
 8
0
 62
10
 10
0.5
 20
-0.1
 30
0.5707105398178101
 70
192
 0
VERTEX
 5
97
 8
0
 62
10
 10
0.5
 20
0.0
 30
0.5707105398178101
 70
192
 0
VERTEX
 5
98
 8
0
 62
10
 10
0.1707106828689575
 20
-0.1
 30
0.1
 70
192
 0
VERTEX
 5
99
 8
0
 62
10
 10
0.5
 20
0.0
 30
0.4292891919612886
 70
192
 0
VERTEX
 5
9A
 8
0
 62
10
 10
0.9
 20
0.0
 30
0.8292893767356871
 70
192
 0
VERTEX
 5
9B
 8
0
 62
10
 10
0.9
 20
0.0
 30
0.1707106828689575
 70
192
 0
VERTEX
 5
9C
 8
0
 62
10
 10
0.8292893767356871
 20
-0.1
 30
0.9
 70
192
 0
VERTEX
 5
9D
 8
0
 62
10
 10
0.5707105398178101
 20
-0.1
 30
0.5
 70
192
 0
VERTEX
 5
9E
 8
0
 62
10
 10
0.9
 20
-0.1
 30
0.1707106828689575
 70
192
 0
VERTEX
 5
9F
 8
0
 62
10
 10
0.5707105398178101
 20
0.0
 30
0.5
 70
192
 0
VERTEX
 5
A0
 8
0
 62
10
 10
0.0
 20
0.0
 30
0.0
 70
128
 71
1
 72
2
 73
7
 74
3
 0
VERTEX
 5
A1
 8
0
 62
10
 10
0.0
 20
0.0
 30
0.0
 70
128
 71
3
 72
7
 73
10
 74
17
 0
VERTEX
 5
A2
 8
0
 62
10
 10
0.0
 20
0.0
 30
0.0
 70
128
 71
15
 72
1
 73
3
 74
4
 0
VERTEX
 5
A3
 8
0
 62
10
 10
0.0
 20
0.0
 30
0.0
 70
128
 71
2
 72
1
 73
5
 74
9
 0
VERTEX
 5
A4
 8
0
 62
10
 10
0.0
 20
0.0
 30
0.0
 70
128
 71
6
 72
7
 73
2
 74
13
 0
VERTEX
 5
A5
 8
0
 62
10
 10
0.0
 20
0.0
 30
0.0
 70
128
 71
8
 72
10
 73
7
 0
VERTEX
 5
A6
 8
0
 62
10
 10
0.0
 20
0.0
 30
0.0
 70
128
 71
9
 72
5
 73
17
 74
10
 0
VERTEX
 5
A7
 8
0
 62
10
 10
0.0
 20
0.0
 30
0.0
 70
128
 71
17
 72
11
 73
3
 0
VERTEX
 5
A8
 8
0
 62
10
 10
0.0
 20
0.0
 30
0.0
 70
128
 71
11
 72
12
 73
4
 74
3
 0
VERTEX
 5
A9
 8
0
 62
10
 10
0.0
 20
0.0
 30
0.0
 70
128
 71
4
 72
6
 73
13
 74
15
 0
VERTEX
 5
AA
 8
0
 62
10
 10
0.0
 20
0.0
 30
0.0
 70
128
 71
1
 72
15
 73
14
 74
25
 0
VERTEX
 5
AB
 8
0
 62
10
 10
0.0
 20
0.0
 30
0.0
 70
128
 71
25
 72
5
 73
1
 0
VERTEX
 5
AC
 8
0
 62
10
 10
0.0
 20
0.0
 30
0.0
 70
128
 71
9
 72
21
 73
2
 0
VERTEX
 5
AD
 8
0
 62
10
 10
0.0
 20
0.0
 30
0.0
 70
128
 71
22
 72
8
 73
7
 74
6
 0
VERTEX
 5
AE
 8
0
 62
10
 10
0.0
 20
0.0
 30
0.0
 70
128
 71
21
 72
29
 73
13
 74
2
 0
VERTEX
 5
AF
 8
0
 62
10
 10
0.0
 20
0.0
 30
0.0
 70
128
 71
10
 72
8
 73
24
 74
18
 0
VERTEX
 5
B0
 8
0
 62
10
 10
0.0
 20
0.0
 30
0.0
 70
128
 71
5
 72
16
 73
18
 74
17
 0
VERTEX
 5
B1
 8
0
 62
10
 10
0.0
 20
0.0
 30
0.0
 70
128
 71
16
 72
9
 73
10
 74
18
 0
VERTEX
 5
B2
 8
0
 62
10
 10
0.0
 20
0.0
 30
0.0
 70
128
 71
18
 72
26
 73
11
 74
17
 0
VERTEX
 5
B3
 8
0
 62
10
 10
0.0
 20
0.0
 30
0.0
 70
128
 71
25
 72
14
 73
12
 74
11
 0
VERTEX
 5
B4
 8
0
 62
10
 10
0.0
 20
0.0
 30
0.0
 70
128
 71
28
 72
4
 73
12
 0
VERTEX
 5
B5
 8
0
 62
10
 10
0.0
 20
0.0
 30
0.0
 70
128
 71
27
 72
6
 73
4
 74
28
 0
VERTEX
 5
B6
 8
0
 62
10
 10
0.0
 20
0.0
 30
0.0
 70
128
 71
13
 72
19
 73
31
 74
15
 0
VERTEX
 5
B7
 8
0
 62
10
 10
0.0
 20
0.0
 30
0.0
 70
128
 71
15
 72
31
 73
14
 0
VERTEX
 5
B8
 8
0
 62
10
 10
0.0
 20
0.0
 30
0.0
 70
128
 71
20
 72
16
 73
5
 74
25
 0
VERTEX
 5
B9
 8
0
 62
10
 10
0.0
 20
0.0
 30
0.0
 70
128
 71
21
 72
9
 73
16
 74
23
 0
VERTEX
 5
BA
 8
0
 62
10
 10
0.0
 20
0.0
 30
0.0
 70
128
 71
29
 72
21
 73
8
 74
22
 0
VERTEX
 5
BB
 8
0
 62
10
 10
0.0
 20
0.0
 30
0.0
 70
128
 71
22
 72
6
 73
27
 0
VERTEX
 5
BC
 8
0
 62
10
 10
0.0
 20
0.0
 30
0.0
 70
128
 71
13
 72
29
 73
19
 0
VERTEX
 5
BD
 8
0
 62
10
 10
0.0
 20
0.0
 30
0.0
 70
128
 71
21
 72
23
 73
24
 74
8
 0
VERTEX
 5
BE
 8
0
 62
10
 10
0.0
 20
0.0
 30
0.0
 70
128
 71
26
 72
18
 73
24
 74
32
 0
VERTEX
 5
BF
 8
0
 62
10
 10
0.0
 20
0.0
 30
0.0
 70
128
 71
20
 72
25
 73
11
 74
26
 0
VERTEX
 5
C0
 8
0
 62
10
 10
0.0
 20
0.0
 30
0.0
 70
128
 71
14
 72
20
 73
26
 74
12
 0
VERTEX
 5
C1
 8
0
 62
10
 10
0.0
 20
0.0
 30
0.0
 70
128
 71
32
 72
28
 73
12
 74
26
 0
VERTEX
 5
C2
 8
0
 62
10
 10
0.0
 20
0.0
 30
0.0
 70
128
 71
31
 72
19
 73
27
 74
28
 0
VERTEX
 5
C3
 8
0
 62
10
 10
0.0
 20
0.0
 30
0.0
 70
128
 71
31
 72
30
 73
20
 74
14
 0
VERTEX
 5
C4
 8
0
 62
10
 10
0.0
 20
0.0
 30
0.0
 70
128
 71
16
 72
20
 73
30
 74
23
 0
VERTEX
 5
C5
 8
0
 62
10
 10
0.0
 20
0.0
 30
0.0
 70
128
 71
23
 72
29
 73
22
 74
24
 0
VERTEX
 5
C6
 8
0
 62
10
 10
0.0
 20
0.0
 30
0.0
 70
128
 71
22
 72
27
 73
32
 74
24
 0
VERTEX
 5
C7
 8
0
 62
10
 10
0.0
 20
0.0
 30
0.0
 70
128
 71
19
 72
29
 73
23
 74
30
 0
VERTEX
 5
C8
 8
0
 62
10
 10
0.0
 20
0.0
 30
0.0
 70
128
 71
30
 72
31
 73
28
 74
32
 0
VERTEX
 5
C9
 8
0
 62
10
 10
0.0
 20
0.0
 30
0.0
 70
128
 71
19
 72
30
 73
32
 74
27
 0
SEQEND
 5
CA
 8
0
 62
10
 0
ENDSEC
 0
EOF
