 0
SECTION
 2
HEADER
 9
$ACADVER
 1
AC1009
 9
$INSBASE
 10
0.0
 20
0.0
 30
0.0
 9
$EXTMIN
 10
0.0
 20
0.0
 30
0.0
 9
$EXTMAX
 10
0.0
 20
0.0
 30
0.0
 0
ENDSEC
 0
SECTION
 2
TABLES
 0
TABLE
 2
VPORT
 70
1
 0
VPORT
 2
*ACTIVE
 70
0
 10
0.0
 20
0.0
 11
1.0
 21
1.0
 12
-5.0
 22
1.0
 13
0.0
 23
0.0
 14
0.1
 24
0.1
 15
0.1
 25
0.1
 16
0.0
 26
0.0
 36
1.0
 17
0.0
 27
0.0
 37
0.0
 40
10.0
 41
1.0
 42
50.0
 43
0.0
 44
0.0
 50
0.0
 51
0.0
 71
0
 72
100
 73
1
 74
1
 75
0
 76
0
 77
0
 78
0
 0
ENDTAB
 0
TABLE
 2
LTYPE
 70
8
 0
LTYPE
 2
CONTINUOUS
 70
0
 3
Solid line
 72
65
 73
0
 40
0.0
 0
LTYPE
 2
DOT
 70
0
 3
. . . . . . .
 72
65
 73
2
 40
0.25
 49
0.0
 49
-0.25
 0
LTYPE
 2
DASHED
 70
0
 3
__ __ __ __ __
 72
65
 73
2
 40
0.8
 49
0.5
 49
-0.3
 0
LTYPE
 2
DASHDOT
 70
0
 3
__ . __ . __ .
 72
65
 73
4
 40
1.0
 49
0.5
 49
-0.25
 49
0.0
 49
-0.25
 0
LTYPE
 2
DIVIDE
 70
0
 3
____ . . ____ . . 
 72
65
 73
6
 40
1.25
 49
0.5
 49
-0.25
 49
0.0
 49
-0.25
 49
0.0
 49
-0.25
 0
LTYPE
 2
BORDER
 70
0
 3
__ __ . __ __ . 
 72
65
 73
6
 40
1.75
 49
0.5
 49
-0.25
 49
0.5
 49
-0.25
 49
0.0
 49
-0.25
 0
LTYPE
 2
HIDDEN
 70
0
 3
__ __ __ __ __
 72
65
 73
2
 40
0.4
 49
0.25
 49
-0.25
 0
LTYPE
 2
CENTER
 70
0
 3
____ _ ____ _ __
 72
65
 73
4
 40
2.0
 49
1.25
 49
-0.25
 49
0.25
 49
-0.25
 0
ENDTAB
 0
TABLE
 2
LAYER
 70
1
 0
LAYER
 2
PYDXF
 70
64
 62
7
 6
continuous
 0
ENDTAB
 0
TABLE
 2
STYLE
 70
1
 0
STYLE
 2
STANDARD
 70
0
 40
0
 41
1.0
 50
0.0
 71
0
 42
1
 3
ARIAL.TTF
 4

 0
ENDTAB
 0
TABLE
 2
VIEW
 70
1
 0
VIEW
 2
BF_TOPVIEW
 70
0
 40
120.0
 10
0.0
 20
0.0
 41
200.0
 11
0.0
 21
0.0
 31
1.0
 12
0.0
 22
0.0
 32
0.0
 42
50.0
 43
0.0
 44
0.0
 50
0.0
 71
0
 0
ENDTAB
 0
ENDSEC
 0
SECTION
 2
BLOCKS
 0
ENDSEC
 0
SECTION
 2
ENTITIES
 0
POLYLINE
 8
0
 70
64
 66
1
 10
0.25
 20
0.25
 30
0
 71
507
 72
518
 0
VERTEX
 8
0
 10
0.257118999026716
 20
0.34
 30
2.53750109672546
 70
192
 0
VERTEX
 8
0
 10
0.257118999026716
 20
-0.09
 30
2.53750109672546
 70
192
 0
VERTEX
 8
0
 10
0.283249970525503
 20
0.34
 30
2.53750109672546
 70
192
 0
VERTEX
 8
0
 10
0.283249970525503
 20
-0.09
 30
2.53750109672546
 70
192
 0
VERTEX
 8
0
 10
0.28626798838377
 20
0.33
 30
2.53875088691711
 70
192
 0
VERTEX
 8
0
 10
0.28626798838377
 20
-0.08
 30
2.53875088691711
 70
192
 0
VERTEX
 8
0
 10
0.705
 20
0.25
 30
2.95538902282715
 70
192
 0
VERTEX
 8
0
 10
0.705
 20
0.33
 30
2.71219396591187
 70
192
 0
VERTEX
 8
0
 10
0.705
 20
0.34
 30
2.71219396591187
 70
192
 0
VERTEX
 8
0
 10
0.705
 20
0.34
 30
2.72301697731018
 70
192
 0
VERTEX
 8
0
 10
0.705
 20
0.35
 30
2.73384308815002
 70
192
 0
VERTEX
 8
0
 10
0.705
 20
0.36
 30
2.73384308815002
 70
192
 0
VERTEX
 8
0
 10
0.705
 20
0.36
 30
2.74466609954834
 70
192
 0
VERTEX
 8
0
 10
0.705
 20
0.37
 30
2.74466609954834
 70
192
 0
VERTEX
 8
0
 10
0.705
 20
0.39
 30
2.7663140296936
 70
192
 0
VERTEX
 8
0
 10
0.705
 20
0.39
 30
2.77713704109192
 70
192
 0
VERTEX
 8
0
 10
0.705
 20
0.45
 30
2.77713704109192
 70
192
 0
VERTEX
 8
0
 10
0.705
 20
0.45
 30
2.84208202362061
 70
192
 0
VERTEX
 8
0
 10
0.705
 20
0.46
 30
2.84622192382812
 70
192
 0
VERTEX
 8
0
 10
0.705
 20
0.46
 30
2.85622310638428
 70
192
 0
VERTEX
 8
0
 10
0.705
 20
0.47
 30
2.87036490440369
 70
192
 0
VERTEX
 8
0
 10
0.705
 20
0.48
 30
2.87450790405273
 70
192
 0
VERTEX
 8
0
 10
0.705
 20
0.48
 30
2.88450789451599
 70
192
 0
VERTEX
 8
0
 10
0.705
 20
0.49
 30
2.89464998245239
 70
192
 0
VERTEX
 8
0
 10
0.705
 20
0.5
 30
2.92379188537598
 70
192
 0
VERTEX
 8
0
 10
0.705
 20
0.528
 30
2.94538903236389
 70
192
 0
VERTEX
 8
0
 10
0.705
 20
0.528
 30
2.95538902282715
 70
192
 0
VERTEX
 8
0
 10
0.705
 20
-0.08
 30
2.71219396591187
 70
192
 0
VERTEX
 8
0
 10
0.705
 20
-0.09
 30
2.71219396591187
 70
192
 0
VERTEX
 8
0
 10
0.705
 20
-0.09
 30
2.72301697731018
 70
192
 0
VERTEX
 8
0
 10
0.705
 20
-0.1
 30
2.73384308815002
 70
192
 0
VERTEX
 8
0
 10
0.705
 20
-0.11
 30
2.73384308815002
 70
192
 0
VERTEX
 8
0
 10
0.705
 20
-0.11
 30
2.74466609954834
 70
192
 0
VERTEX
 8
0
 10
0.705
 20
-0.12
 30
2.74466609954834
 70
192
 0
VERTEX
 8
0
 10
0.705
 20
-0.14
 30
2.7663140296936
 70
192
 0
VERTEX
 8
0
 10
0.705
 20
-0.14
 30
2.77713704109192
 70
192
 0
VERTEX
 8
0
 10
0.705
 20
-0.2
 30
2.77713704109192
 70
192
 0
VERTEX
 8
0
 10
0.705
 20
-0.2
 30
2.84208202362061
 70
192
 0
VERTEX
 8
0
 10
0.705
 20
-0.21
 30
2.84622192382812
 70
192
 0
VERTEX
 8
0
 10
0.705
 20
-0.21
 30
2.85622310638428
 70
192
 0
VERTEX
 8
0
 10
0.705
 20
-0.22
 30
2.87036490440369
 70
192
 0
VERTEX
 8
0
 10
0.705
 20
-0.23
 30
2.87450790405273
 70
192
 0
VERTEX
 8
0
 10
0.705
 20
-0.23
 30
2.88450789451599
 70
192
 0
VERTEX
 8
0
 10
0.705
 20
-0.24
 30
2.89464998245239
 70
192
 0
VERTEX
 8
0
 10
0.705
 20
-0.25
 30
2.92379188537598
 70
192
 0
VERTEX
 8
0
 10
0.705
 20
-0.278
 30
2.94538903236389
 70
192
 0
VERTEX
 8
0
 10
0.705
 20
-0.278
 30
2.95538902282715
 70
192
 0
VERTEX
 8
0
 10
1.12373197078705
 20
0.33
 30
2.53875088691711
 70
192
 0
VERTEX
 8
0
 10
1.12373197078705
 20
-0.08
 30
2.53875088691711
 70
192
 0
VERTEX
 8
0
 10
1.12674999237061
 20
0.34
 30
2.53750109672546
 70
192
 0
VERTEX
 8
0
 10
1.12674999237061
 20
-0.09
 30
2.53750109672546
 70
192
 0
VERTEX
 8
0
 10
1.15288102626801
 20
0.34
 30
2.53750109672546
 70
192
 0
VERTEX
 8
0
 10
1.15288102626801
 20
-0.09
 30
2.53750109672546
 70
192
 0
VERTEX
 8
0
 10
1.175
 20
0.33
 30
2.08
 70
192
 0
VERTEX
 8
0
 10
1.175
 20
0.38
 30
0
 70
192
 0
VERTEX
 8
0
 10
1.175
 20
0.38
 30
0.07
 70
192
 0
VERTEX
 8
0
 10
1.175
 20
0.38
 30
0.08
 70
192
 0
VERTEX
 8
0
 10
1.175
 20
0.38
 30
0.1
 70
192
 0
VERTEX
 8
0
 10
1.175
 20
0.38
 30
2.07
 70
192
 0
VERTEX
 8
0
 10
1.175
 20
0.38
 30
2.08
 70
192
 0
VERTEX
 8
0
 10
1.175
 20
0.25
 30
0
 70
192
 0
VERTEX
 8
0
 10
1.175
 20
0.25
 30
0.07
 70
192
 0
VERTEX
 8
0
 10
1.175
 20
0.25
 30
0.08
 70
192
 0
VERTEX
 8
0
 10
1.175
 20
0.25
 30
0.1
 70
192
 0
VERTEX
 8
0
 10
1.175
 20
0.25
 30
2.07
 70
192
 0
VERTEX
 8
0
 10
1.175
 20
0.25
 30
2.08
 70
192
 0
VERTEX
 8
0
 10
1.175
 20
-0.08
 30
2.08
 70
192
 0
VERTEX
 8
0
 10
1.175
 20
-0.13
 30
0
 70
192
 0
VERTEX
 8
0
 10
1.175
 20
-0.13
 30
0.07
 70
192
 0
VERTEX
 8
0
 10
1.175
 20
-0.13
 30
0.08
 70
192
 0
VERTEX
 8
0
 10
1.175
 20
-0.13
 30
0.1
 70
192
 0
VERTEX
 8
0
 10
1.175
 20
-0.13
 30
2.07
 70
192
 0
VERTEX
 8
0
 10
1.175
 20
-0.13
 30
2.08
 70
192
 0
VERTEX
 8
0
 10
1.18202996253967
 20
0.35
 30
2.53625106811523
 70
192
 0
VERTEX
 8
0
 10
1.18202996253967
 20
-0.1
 30
2.53625106811523
 70
192
 0
VERTEX
 8
0
 10
1.185
 20
0.25
 30
2.04
 70
192
 0
VERTEX
 8
0
 10
1.185
 20
0.37
 30
0.07
 70
192
 0
VERTEX
 8
0
 10
1.185
 20
0.37
 30
2.04
 70
192
 0
VERTEX
 8
0
 10
1.185
 20
0.37
 30
2.07
 70
192
 0
VERTEX
 8
0
 10
1.185
 20
0.25
 30
0.07
 70
192
 0
VERTEX
 8
0
 10
1.185
 20
0.25
 30
2.07
 70
192
 0
VERTEX
 8
0
 10
1.185
 20
-0.12
 30
0.07
 70
192
 0
VERTEX
 8
0
 10
1.185
 20
-0.12
 30
2.04
 70
192
 0
VERTEX
 8
0
 10
1.185
 20
-0.12
 30
2.07
 70
192
 0
VERTEX
 8
0
 10
1.18504798412323
 20
0.36
 30
2.535
 70
192
 0
VERTEX
 8
0
 10
1.18504798412323
 20
-0.11
 30
2.535
 70
192
 0
VERTEX
 8
0
 10
1.195
 20
0.25
 30
2.03
 70
192
 0
VERTEX
 8
0
 10
1.195
 20
0.36
 30
0.12
 70
192
 0
VERTEX
 8
0
 10
1.195
 20
0.36
 30
0.13
 70
192
 0
VERTEX
 8
0
 10
1.195
 20
0.36
 30
2.03
 70
192
 0
VERTEX
 8
0
 10
1.195
 20
0.36
 30
2.04
 70
192
 0
VERTEX
 8
0
 10
1.195
 20
0.25
 30
0.12
 70
192
 0
VERTEX
 8
0
 10
1.195
 20
0.25
 30
0.13
 70
192
 0
VERTEX
 8
0
 10
1.195
 20
0.25
 30
2.04
 70
192
 0
VERTEX
 8
0
 10
1.195
 20
-0.11
 30
0.12
 70
192
 0
VERTEX
 8
0
 10
1.195
 20
-0.11
 30
0.13
 70
192
 0
VERTEX
 8
0
 10
1.195
 20
-0.11
 30
2.03
 70
192
 0
VERTEX
 8
0
 10
1.195
 20
-0.11
 30
2.04
 70
192
 0
VERTEX
 8
0
 10
1.205
 20
0.25
 30
0.13
 70
192
 0
VERTEX
 8
0
 10
1.205
 20
0.35
 30
0.13
 70
192
 0
VERTEX
 8
0
 10
1.205
 20
-0.1
 30
0.13
 70
192
 0
VERTEX
 8
0
 10
1.21117901802063
 20
0.36
 30
2.535
 70
192
 0
VERTEX
 8
0
 10
1.21117901802063
 20
-0.11
 30
2.535
 70
192
 0
VERTEX
 8
0
 10
1.21419698
 20
0.37
 30
2.53374910354614
 70
192
 0
VERTEX
 8
0
 10
1.21419698
 20
-0.12
 30
2.53374910354614
 70
192
 0
VERTEX
 8
0
 10
1.215
 20
0.25
 30
1.9
 70
192
 0
VERTEX
 8
0
 10
1.215
 20
0.25
 30
1.91
 70
192
 0
VERTEX
 8
0
 10
1.215
 20
0.25
 30
2
 70
192
 0
VERTEX
 8
0
 10
1.215
 20
0.34
 30
1.9
 70
192
 0
VERTEX
 8
0
 10
1.215
 20
0.34
 30
1.91
 70
192
 0
VERTEX
 8
0
 10
1.215
 20
0.34
 30
2
 70
192
 0
VERTEX
 8
0
 10
1.215
 20
0.34
 30
2.01
 70
192
 0
VERTEX
 8
0
 10
1.215
 20
0.25
 30
2.01
 70
192
 0
VERTEX
 8
0
 10
1.215
 20
-0.09
 30
1.9
 70
192
 0
VERTEX
 8
0
 10
1.215
 20
-0.09
 30
1.91
 70
192
 0
VERTEX
 8
0
 10
1.215
 20
-0.09
 30
2
 70
192
 0
VERTEX
 8
0
 10
1.215
 20
-0.09
 30
2.01
 70
192
 0
VERTEX
 8
0
 10
1.225
 20
0.25
 30
1.9
 70
192
 0
VERTEX
 8
0
 10
1.225
 20
0.25
 30
2
 70
192
 0
VERTEX
 8
0
 10
1.225
 20
0.33
 30
1.9
 70
192
 0
VERTEX
 8
0
 10
1.225
 20
0.33
 30
1.91
 70
192
 0
VERTEX
 8
0
 10
1.225
 20
0.33
 30
2
 70
192
 0
VERTEX
 8
0
 10
1.225
 20
0.25
 30
1.91
 70
192
 0
VERTEX
 8
0
 10
1.225
 20
-0.08
 30
1.9
 70
192
 0
VERTEX
 8
0
 10
1.225
 20
-0.08
 30
1.91
 70
192
 0
VERTEX
 8
0
 10
1.225
 20
-0.08
 30
2
 70
192
 0
VERTEX
 8
0
 10
1.27249503135681
 20
0.39
 30
2.53125
 70
192
 0
VERTEX
 8
0
 10
1.27249503135681
 20
-0.14
 30
2.53125
 70
192
 0
VERTEX
 8
0
 10
1.29862594604492
 20
0.39
 30
2.53125
 70
192
 0
VERTEX
 8
0
 10
1.29862594604492
 20
-0.14
 30
2.53125
 70
192
 0
VERTEX
 8
0
 10
1.31673300266266
 20
0.45
 30
2.52374887466431
 70
192
 0
VERTEX
 8
0
 10
1.31673300266266
 20
-0.2
 30
2.52374887466431
 70
192
 0
VERTEX
 8
0
 10
1.435
 20
0.25
 30
1.9
 70
192
 0
VERTEX
 8
0
 10
1.435
 20
0.25
 30
1.91
 70
192
 0
VERTEX
 8
0
 10
1.435
 20
0.25
 30
2.08
 70
192
 0
VERTEX
 8
0
 10
1.435
 20
0.25
 30
2.17000102996826
 70
192
 0
VERTEX
 8
0
 10
1.435
 20
0.25
 30
2.18000102043152
 70
192
 0
VERTEX
 8
0
 10
1.435
 20
0.33
 30
1.9
 70
192
 0
VERTEX
 8
0
 10
1.435
 20
0.33
 30
1.91
 70
192
 0
VERTEX
 8
0
 10
1.435
 20
0.33
 30
2
 70
192
 0
VERTEX
 8
0
 10
1.435
 20
0.33
 30
2.08
 70
192
 0
VERTEX
 8
0
 10
1.435
 20
0.33
 30
2.17000102996826
 70
192
 0
VERTEX
 8
0
 10
1.435
 20
0.33
 30
2.18000102043152
 70
192
 0
VERTEX
 8
0
 10
1.435
 20
0.33
 30
2.37
 70
192
 0
VERTEX
 8
0
 10
1.435
 20
0.25
 30
2
 70
192
 0
VERTEX
 8
0
 10
1.435
 20
0.25
 30
2.37
 70
192
 0
VERTEX
 8
0
 10
1.435
 20
-0.08
 30
1.9
 70
192
 0
VERTEX
 8
0
 10
1.435
 20
-0.08
 30
1.91
 70
192
 0
VERTEX
 8
0
 10
1.435
 20
-0.08
 30
2
 70
192
 0
VERTEX
 8
0
 10
1.435
 20
-0.08
 30
2.08
 70
192
 0
VERTEX
 8
0
 10
1.435
 20
-0.08
 30
2.17000102996826
 70
192
 0
VERTEX
 8
0
 10
1.435
 20
-0.08
 30
2.18000102043152
 70
192
 0
VERTEX
 8
0
 10
1.435
 20
-0.08
 30
2.37
 70
192
 0
VERTEX
 8
0
 10
1.445
 20
0.25
 30
1.91
 70
192
 0
VERTEX
 8
0
 10
1.445
 20
0.25
 30
2.01
 70
192
 0
VERTEX
 8
0
 10
1.445
 20
0.25
 30
2.17000102996826
 70
192
 0
VERTEX
 8
0
 10
1.445
 20
0.25
 30
2.18000102043152
 70
192
 0
VERTEX
 8
0
 10
1.445
 20
0.34
 30
1.9
 70
192
 0
VERTEX
 8
0
 10
1.445
 20
0.34
 30
1.91
 70
192
 0
VERTEX
 8
0
 10
1.445
 20
0.34
 30
2
 70
192
 0
VERTEX
 8
0
 10
1.445
 20
0.34
 30
2.01
 70
192
 0
VERTEX
 8
0
 10
1.445
 20
0.34
 30
2.17000102996826
 70
192
 0
VERTEX
 8
0
 10
1.445
 20
0.34
 30
2.18000102043152
 70
192
 0
VERTEX
 8
0
 10
1.445
 20
0.34
 30
2.37
 70
192
 0
VERTEX
 8
0
 10
1.445
 20
0.34
 30
2.38000106811523
 70
192
 0
VERTEX
 8
0
 10
1.445
 20
0.25
 30
1.9
 70
192
 0
VERTEX
 8
0
 10
1.445
 20
0.25
 30
2
 70
192
 0
VERTEX
 8
0
 10
1.445
 20
0.25
 30
2.37
 70
192
 0
VERTEX
 8
0
 10
1.445
 20
0.25
 30
2.38000106811523
 70
192
 0
VERTEX
 8
0
 10
1.445
 20
-0.09
 30
1.9
 70
192
 0
VERTEX
 8
0
 10
1.445
 20
-0.09
 30
1.91
 70
192
 0
VERTEX
 8
0
 10
1.445
 20
-0.09
 30
2
 70
192
 0
VERTEX
 8
0
 10
1.445
 20
-0.09
 30
2.01
 70
192
 0
VERTEX
 8
0
 10
1.445
 20
-0.09
 30
2.17000102996826
 70
192
 0
VERTEX
 8
0
 10
1.445
 20
-0.09
 30
2.18000102043152
 70
192
 0
VERTEX
 8
0
 10
1.445
 20
-0.09
 30
2.37
 70
192
 0
VERTEX
 8
0
 10
1.445
 20
-0.09
 30
2.38000106811523
 70
192
 0
VERTEX
 8
0
 10
1.455
 20
0.25
 30
0.13
 70
192
 0
VERTEX
 8
0
 10
1.455
 20
0.35
 30
0.13
 70
192
 0
VERTEX
 8
0
 10
1.455
 20
0.35
 30
2.39
 70
192
 0
VERTEX
 8
0
 10
1.455
 20
0.25
 30
2.39
 70
192
 0
VERTEX
 8
0
 10
1.455
 20
-0.1
 30
0.13
 70
192
 0
VERTEX
 8
0
 10
1.455
 20
-0.1
 30
2.39
 70
192
 0
VERTEX
 8
0
 10
1.465
 20
0.25
 30
0.13
 70
192
 0
VERTEX
 8
0
 10
1.465
 20
0.25
 30
2.03
 70
192
 0
VERTEX
 8
0
 10
1.465
 20
0.36
 30
0.12
 70
192
 0
VERTEX
 8
0
 10
1.465
 20
0.36
 30
0.13
 70
192
 0
VERTEX
 8
0
 10
1.465
 20
0.36
 30
2.03
 70
192
 0
VERTEX
 8
0
 10
1.465
 20
0.36
 30
2.04
 70
192
 0
VERTEX
 8
0
 10
1.465
 20
0.36
 30
2.39
 70
192
 0
VERTEX
 8
0
 10
1.465
 20
0.36
 30
2.4
 70
192
 0
VERTEX
 8
0
 10
1.465
 20
0.25
 30
0.12
 70
192
 0
VERTEX
 8
0
 10
1.465
 20
0.25
 30
2.04
 70
192
 0
VERTEX
 8
0
 10
1.465
 20
0.25
 30
2.39
 70
192
 0
VERTEX
 8
0
 10
1.465
 20
0.25
 30
2.4
 70
192
 0
VERTEX
 8
0
 10
1.465
 20
-0.11
 30
0.12
 70
192
 0
VERTEX
 8
0
 10
1.465
 20
-0.11
 30
0.13
 70
192
 0
VERTEX
 8
0
 10
1.465
 20
-0.11
 30
2.03
 70
192
 0
VERTEX
 8
0
 10
1.465
 20
-0.11
 30
2.04
 70
192
 0
VERTEX
 8
0
 10
1.465
 20
-0.11
 30
2.39
 70
192
 0
VERTEX
 8
0
 10
1.465
 20
-0.11
 30
2.4
 70
192
 0
VERTEX
 8
0
 10
1.4735199213028
 20
0.45
 30
2.52374887466431
 70
192
 0
VERTEX
 8
0
 10
1.4735199213028
 20
-0.2
 30
2.52374887466431
 70
192
 0
VERTEX
 8
0
 10
1.475
 20
0.25
 30
2.04
 70
192
 0
VERTEX
 8
0
 10
1.475
 20
0.37
 30
0.07
 70
192
 0
VERTEX
 8
0
 10
1.475
 20
0.37
 30
2.04
 70
192
 0
VERTEX
 8
0
 10
1.475
 20
0.37
 30
2.07
 70
192
 0
VERTEX
 8
0
 10
1.475
 20
0.37
 30
2.4
 70
192
 0
VERTEX
 8
0
 10
1.475
 20
0.25
 30
0.07
 70
192
 0
VERTEX
 8
0
 10
1.475
 20
0.25
 30
2.07
 70
192
 0
VERTEX
 8
0
 10
1.475
 20
0.25
 30
2.4
 70
192
 0
VERTEX
 8
0
 10
1.475
 20
-0.12
 30
0.07
 70
192
 0
VERTEX
 8
0
 10
1.475
 20
-0.12
 30
2.04
 70
192
 0
VERTEX
 8
0
 10
1.475
 20
-0.12
 30
2.07
 70
192
 0
VERTEX
 8
0
 10
1.475
 20
-0.12
 30
2.4
 70
192
 0
VERTEX
 8
0
 10
1.485
 20
0.25
 30
0
 70
192
 0
VERTEX
 8
0
 10
1.485
 20
0.25
 30
2.07
 70
192
 0
VERTEX
 8
0
 10
1.485
 20
0.38
 30
0
 70
192
 0
VERTEX
 8
0
 10
1.485
 20
0.38
 30
0.07
 70
192
 0
VERTEX
 8
0
 10
1.485
 20
0.38
 30
0.08
 70
192
 0
VERTEX
 8
0
 10
1.485
 20
0.38
 30
0.1
 70
192
 0
VERTEX
 8
0
 10
1.485
 20
0.38
 30
2.07
 70
192
 0
VERTEX
 8
0
 10
1.485
 20
0.38
 30
2.08
 70
192
 0
VERTEX
 8
0
 10
1.485
 20
0.25
 30
0.07
 70
192
 0
VERTEX
 8
0
 10
1.485
 20
0.25
 30
0.08
 70
192
 0
VERTEX
 8
0
 10
1.485
 20
0.25
 30
0.1
 70
192
 0
VERTEX
 8
0
 10
1.485
 20
0.25
 30
2.08
 70
192
 0
VERTEX
 8
0
 10
1.485
 20
-0.13
 30
0
 70
192
 0
VERTEX
 8
0
 10
1.485
 20
-0.13
 30
0.07
 70
192
 0
VERTEX
 8
0
 10
1.485
 20
-0.13
 30
0.08
 70
192
 0
VERTEX
 8
0
 10
1.485
 20
-0.13
 30
0.1
 70
192
 0
VERTEX
 8
0
 10
1.485
 20
-0.13
 30
2.07
 70
192
 0
VERTEX
 8
0
 10
1.485
 20
-0.13
 30
2.08
 70
192
 0
VERTEX
 8
0
 10
1.4865380525589
 20
0.46
 30
2.52249908447266
 70
192
 0
VERTEX
 8
0
 10
1.4865380525589
 20
-0.21
 30
2.52249908447266
 70
192
 0
VERTEX
 8
0
 10
1.495
 20
0.25
 30
2.42
 70
192
 0
VERTEX
 8
0
 10
1.495
 20
0.25
 30
2.43
 70
192
 0
VERTEX
 8
0
 10
1.495
 20
0.39
 30
2.42
 70
192
 0
VERTEX
 8
0
 10
1.495
 20
0.39
 30
2.43
 70
192
 0
VERTEX
 8
0
 10
1.495
 20
-0.14
 30
2.42
 70
192
 0
VERTEX
 8
0
 10
1.495
 20
-0.14
 30
2.43
 70
192
 0
VERTEX
 8
0
 10
1.51067996025085
 20
0.46
 30
2.52249908447266
 70
192
 0
VERTEX
 8
0
 10
1.51067996025085
 20
-0.21
 30
2.52249908447266
 70
192
 0
VERTEX
 8
0
 10
1.54784
 20
0.47
 30
2.52125000953674
 70
192
 0
VERTEX
 8
0
 10
1.54784
 20
-0.22
 30
2.52125000953674
 70
192
 0
VERTEX
 8
0
 10
1.555
 20
0.25
 30
2.49
 70
192
 0
VERTEX
 8
0
 10
1.555
 20
0.45
 30
2.43
 70
192
 0
VERTEX
 8
0
 10
1.555
 20
0.45
 30
2.49
 70
192
 0
VERTEX
 8
0
 10
1.555
 20
0.25
 30
2.43
 70
192
 0
VERTEX
 8
0
 10
1.555
 20
-0.2
 30
2.43
 70
192
 0
VERTEX
 8
0
 10
1.555
 20
-0.2
 30
2.49
 70
192
 0
VERTEX
 8
0
 10
1.56085801124573
 20
0.48
 30
2.52
 70
192
 0
VERTEX
 8
0
 10
1.56085801124573
 20
-0.23
 30
2.52
 70
192
 0
VERTEX
 8
0
 10
1.565
 20
0.25
 30
2.5
 70
192
 0
VERTEX
 8
0
 10
1.565
 20
0.46
 30
2.49
 70
192
 0
VERTEX
 8
0
 10
1.565
 20
0.46
 30
2.5
 70
192
 0
VERTEX
 8
0
 10
1.565
 20
0.25
 30
2.49
 70
192
 0
VERTEX
 8
0
 10
1.565
 20
-0.21
 30
2.49
 70
192
 0
VERTEX
 8
0
 10
1.565
 20
-0.21
 30
2.5
 70
192
 0
VERTEX
 8
0
 10
1.575
 20
0.47
 30
2.51
 70
192
 0
VERTEX
 8
0
 10
1.575
 20
0.25
 30
2.51
 70
192
 0
VERTEX
 8
0
 10
1.575
 20
-0.22
 30
2.51
 70
192
 0
VERTEX
 8
0
 10
1.585
 20
0.48
 30
2.51
 70
192
 0
VERTEX
 8
0
 10
1.585
 20
0.48
 30
2.52
 70
192
 0
VERTEX
 8
0
 10
1.585
 20
0.25
 30
2.51
 70
192
 0
VERTEX
 8
0
 10
1.585
 20
0.25
 30
2.52
 70
192
 0
VERTEX
 8
0
 10
1.585
 20
-0.23
 30
2.51
 70
192
 0
VERTEX
 8
0
 10
1.585
 20
-0.23
 30
2.52
 70
192
 0
VERTEX
 8
0
 10
1.595
 20
0.25
 30
2.526
 70
192
 0
VERTEX
 8
0
 10
1.595
 20
0.49
 30
2.526
 70
192
 0
VERTEX
 8
0
 10
1.595
 20
-0.24
 30
2.526
 70
192
 0
VERTEX
 8
0
 10
1.605
 20
0.25
 30
2.55100107192993
 70
192
 0
VERTEX
 8
0
 10
1.605
 20
0.5
 30
2.55100107192993
 70
192
 0
VERTEX
 8
0
 10
1.605
 20
-0.25
 30
2.55100107192993
 70
192
 0
VERTEX
 8
0
 10
1.633
 20
0.528
 30
2.56100106239319
 70
192
 0
VERTEX
 8
0
 10
1.633
 20
0.528
 30
2.57100105285645
 70
192
 0
VERTEX
 8
0
 10
1.633
 20
0.25
 30
2.56100106239319
 70
192
 0
VERTEX
 8
0
 10
1.633
 20
0.25
 30
2.57100105285645
 70
192
 0
VERTEX
 8
0
 10
1.633
 20
-0.278
 30
2.56100106239319
 70
192
 0
VERTEX
 8
0
 10
1.633
 20
-0.278
 30
2.57100105285645
 70
192
 0
VERTEX
 8
0
 10
0.235
 20
0.25
 30
0
 70
192
 0
VERTEX
 8
0
 10
0.235
 20
0.25
 30
0.07
 70
192
 0
VERTEX
 8
0
 10
0.235
 20
0.25
 30
0.08
 70
192
 0
VERTEX
 8
0
 10
0.235
 20
0.25
 30
0.1
 70
192
 0
VERTEX
 8
0
 10
0.235
 20
0.25
 30
2.07
 70
192
 0
VERTEX
 8
0
 10
0.235
 20
0.25
 30
2.08
 70
192
 0
VERTEX
 8
0
 10
0.235
 20
0.33
 30
2.08
 70
192
 0
VERTEX
 8
0
 10
0.235
 20
0.38
 30
0
 70
192
 0
VERTEX
 8
0
 10
0.235
 20
0.38
 30
0.07
 70
192
 0
VERTEX
 8
0
 10
0.235
 20
0.38
 30
0.08
 70
192
 0
VERTEX
 8
0
 10
0.235
 20
0.38
 30
0.1
 70
192
 0
VERTEX
 8
0
 10
0.235
 20
0.38
 30
2.07
 70
192
 0
VERTEX
 8
0
 10
0.235
 20
0.38
 30
2.08
 70
192
 0
VERTEX
 8
0
 10
0.235
 20
-0.08
 30
2.08
 70
192
 0
VERTEX
 8
0
 10
0.235
 20
-0.13
 30
0
 70
192
 0
VERTEX
 8
0
 10
0.235
 20
-0.13
 30
0.07
 70
192
 0
VERTEX
 8
0
 10
0.235
 20
-0.13
 30
0.08
 70
192
 0
VERTEX
 8
0
 10
0.235
 20
-0.13
 30
0.1
 70
192
 0
VERTEX
 8
0
 10
0.235
 20
-0.13
 30
2.07
 70
192
 0
VERTEX
 8
0
 10
0.235
 20
-0.13
 30
2.08
 70
192
 0
VERTEX
 8
0
 10
0.227970009669662
 20
0.35
 30
2.53625106811523
 70
192
 0
VERTEX
 8
0
 10
0.227970009669662
 20
-0.1
 30
2.53625106811523
 70
192
 0
VERTEX
 8
0
 10
0.225
 20
0.25
 30
0.07
 70
192
 0
VERTEX
 8
0
 10
0.225
 20
0.25
 30
2.04
 70
192
 0
VERTEX
 8
0
 10
0.225
 20
0.25
 30
2.07
 70
192
 0
VERTEX
 8
0
 10
0.225
 20
0.37
 30
0.07
 70
192
 0
VERTEX
 8
0
 10
0.225
 20
0.37
 30
2.04
 70
192
 0
VERTEX
 8
0
 10
0.225
 20
0.37
 30
2.07
 70
192
 0
VERTEX
 8
0
 10
0.225
 20
-0.12
 30
0.07
 70
192
 0
VERTEX
 8
0
 10
0.225
 20
-0.12
 30
2.04
 70
192
 0
VERTEX
 8
0
 10
0.225
 20
-0.12
 30
2.07
 70
192
 0
VERTEX
 8
0
 10
0.224952049553394
 20
0.36
 30
2.535
 70
192
 0
VERTEX
 8
0
 10
0.224952049553394
 20
-0.11
 30
2.535
 70
192
 0
VERTEX
 8
0
 10
0.215
 20
0.25
 30
0.12
 70
192
 0
VERTEX
 8
0
 10
0.215
 20
0.25
 30
0.13
 70
192
 0
VERTEX
 8
0
 10
0.215
 20
0.25
 30
2.03
 70
192
 0
VERTEX
 8
0
 10
0.215
 20
0.25
 30
2.04
 70
192
 0
VERTEX
 8
0
 10
0.215
 20
0.36
 30
0.12
 70
192
 0
VERTEX
 8
0
 10
0.215
 20
0.36
 30
0.13
 70
192
 0
VERTEX
 8
0
 10
0.215
 20
0.36
 30
2.03
 70
192
 0
VERTEX
 8
0
 10
0.215
 20
0.36
 30
2.04
 70
192
 0
VERTEX
 8
0
 10
0.215
 20
-0.11
 30
0.12
 70
192
 0
VERTEX
 8
0
 10
0.215
 20
-0.11
 30
0.13
 70
192
 0
VERTEX
 8
0
 10
0.215
 20
-0.11
 30
2.03
 70
192
 0
VERTEX
 8
0
 10
0.215
 20
-0.11
 30
2.04
 70
192
 0
VERTEX
 8
0
 10
0.205
 20
0.25
 30
0.13
 70
192
 0
VERTEX
 8
0
 10
0.205
 20
0.35
 30
0.13
 70
192
 0
VERTEX
 8
0
 10
0.205
 20
-0.1
 30
0.13
 70
192
 0
VERTEX
 8
0
 10
0.198821011930704
 20
0.36
 30
2.535
 70
192
 0
VERTEX
 8
0
 10
0.198821011930704
 20
-0.11
 30
2.535
 70
192
 0
VERTEX
 8
0
 10
0.195803049951792
 20
0.37
 30
2.53374910354614
 70
192
 0
VERTEX
 8
0
 10
0.195803049951792
 20
-0.12
 30
2.53374910354614
 70
192
 0
VERTEX
 8
0
 10
0.195
 20
0.25
 30
1.9
 70
192
 0
VERTEX
 8
0
 10
0.195
 20
0.25
 30
1.91
 70
192
 0
VERTEX
 8
0
 10
0.195
 20
0.25
 30
2
 70
192
 0
VERTEX
 8
0
 10
0.195
 20
0.25
 30
2.01
 70
192
 0
VERTEX
 8
0
 10
0.195
 20
0.34
 30
1.9
 70
192
 0
VERTEX
 8
0
 10
0.195
 20
0.34
 30
1.91
 70
192
 0
VERTEX
 8
0
 10
0.195
 20
0.34
 30
2
 70
192
 0
VERTEX
 8
0
 10
0.195
 20
0.34
 30
2.01
 70
192
 0
VERTEX
 8
0
 10
0.195
 20
-0.09
 30
1.9
 70
192
 0
VERTEX
 8
0
 10
0.195
 20
-0.09
 30
1.91
 70
192
 0
VERTEX
 8
0
 10
0.195
 20
-0.09
 30
2
 70
192
 0
VERTEX
 8
0
 10
0.195
 20
-0.09
 30
2.01
 70
192
 0
VERTEX
 8
0
 10
0.185
 20
0.25
 30
1.9
 70
192
 0
VERTEX
 8
0
 10
0.185
 20
0.25
 30
1.91
 70
192
 0
VERTEX
 8
0
 10
0.185
 20
0.25
 30
2
 70
192
 0
VERTEX
 8
0
 10
0.185
 20
0.33
 30
1.9
 70
192
 0
VERTEX
 8
0
 10
0.185
 20
0.33
 30
1.91
 70
192
 0
VERTEX
 8
0
 10
0.185
 20
0.33
 30
2
 70
192
 0
VERTEX
 8
0
 10
0.185
 20
-0.08
 30
1.9
 70
192
 0
VERTEX
 8
0
 10
0.185
 20
-0.08
 30
1.91
 70
192
 0
VERTEX
 8
0
 10
0.185
 20
-0.08
 30
2
 70
192
 0
VERTEX
 8
0
 10
0.137505002319813
 20
0.39
 30
2.53125
 70
192
 0
VERTEX
 8
0
 10
0.137505002319813
 20
-0.14
 30
2.53125
 70
192
 0
VERTEX
 8
0
 10
0.111374005675316
 20
0.39
 30
2.53125
 70
192
 0
VERTEX
 8
0
 10
0.111374005675316
 20
-0.14
 30
2.53125
 70
192
 0
VERTEX
 8
0
 10
0.0932669937610626
 20
0.45
 30
2.52374887466431
 70
192
 0
VERTEX
 8
0
 10
0.0932669937610626
 20
-0.2
 30
2.52374887466431
 70
192
 0
VERTEX
 8
0
 10
-0.025
 20
0.25
 30
1.9
 70
192
 0
VERTEX
 8
0
 10
-0.025
 20
0.25
 30
1.91
 70
192
 0
VERTEX
 8
0
 10
-0.025
 20
0.25
 30
2
 70
192
 0
VERTEX
 8
0
 10
-0.025
 20
0.25
 30
2.08
 70
192
 0
VERTEX
 8
0
 10
-0.025
 20
0.25
 30
2.17000102996826
 70
192
 0
VERTEX
 8
0
 10
-0.025
 20
0.25
 30
2.18000102043152
 70
192
 0
VERTEX
 8
0
 10
-0.025
 20
0.25
 30
2.37
 70
192
 0
VERTEX
 8
0
 10
-0.025
 20
0.33
 30
1.9
 70
192
 0
VERTEX
 8
0
 10
-0.025
 20
0.33
 30
1.91
 70
192
 0
VERTEX
 8
0
 10
-0.025
 20
0.33
 30
2
 70
192
 0
VERTEX
 8
0
 10
-0.025
 20
0.33
 30
2.08
 70
192
 0
VERTEX
 8
0
 10
-0.025
 20
0.33
 30
2.17000102996826
 70
192
 0
VERTEX
 8
0
 10
-0.025
 20
0.33
 30
2.18000102043152
 70
192
 0
VERTEX
 8
0
 10
-0.025
 20
0.33
 30
2.37
 70
192
 0
VERTEX
 8
0
 10
-0.025
 20
-0.08
 30
1.9
 70
192
 0
VERTEX
 8
0
 10
-0.025
 20
-0.08
 30
1.91
 70
192
 0
VERTEX
 8
0
 10
-0.025
 20
-0.08
 30
2
 70
192
 0
VERTEX
 8
0
 10
-0.025
 20
-0.08
 30
2.08
 70
192
 0
VERTEX
 8
0
 10
-0.025
 20
-0.08
 30
2.17000102996826
 70
192
 0
VERTEX
 8
0
 10
-0.025
 20
-0.08
 30
2.18000102043152
 70
192
 0
VERTEX
 8
0
 10
-0.025
 20
-0.08
 30
2.37
 70
192
 0
VERTEX
 8
0
 10
-0.035
 20
0.25
 30
1.9
 70
192
 0
VERTEX
 8
0
 10
-0.035
 20
0.25
 30
1.91
 70
192
 0
VERTEX
 8
0
 10
-0.035
 20
0.25
 30
2
 70
192
 0
VERTEX
 8
0
 10
-0.035
 20
0.25
 30
2.01
 70
192
 0
VERTEX
 8
0
 10
-0.035
 20
0.25
 30
2.17000102996826
 70
192
 0
VERTEX
 8
0
 10
-0.035
 20
0.25
 30
2.18000102043152
 70
192
 0
VERTEX
 8
0
 10
-0.035
 20
0.25
 30
2.37
 70
192
 0
VERTEX
 8
0
 10
-0.035
 20
0.25
 30
2.38000106811523
 70
192
 0
VERTEX
 8
0
 10
-0.035
 20
0.34
 30
1.9
 70
192
 0
VERTEX
 8
0
 10
-0.035
 20
0.34
 30
1.91
 70
192
 0
VERTEX
 8
0
 10
-0.035
 20
0.34
 30
2
 70
192
 0
VERTEX
 8
0
 10
-0.035
 20
0.34
 30
2.01
 70
192
 0
VERTEX
 8
0
 10
-0.035
 20
0.34
 30
2.17000102996826
 70
192
 0
VERTEX
 8
0
 10
-0.035
 20
0.34
 30
2.18000102043152
 70
192
 0
VERTEX
 8
0
 10
-0.035
 20
0.34
 30
2.37
 70
192
 0
VERTEX
 8
0
 10
-0.035
 20
0.34
 30
2.38000106811523
 70
192
 0
VERTEX
 8
0
 10
-0.035
 20
-0.09
 30
1.9
 70
192
 0
VERTEX
 8
0
 10
-0.035
 20
-0.09
 30
1.91
 70
192
 0
VERTEX
 8
0
 10
-0.035
 20
-0.09
 30
2
 70
192
 0
VERTEX
 8
0
 10
-0.035
 20
-0.09
 30
2.01
 70
192
 0
VERTEX
 8
0
 10
-0.035
 20
-0.09
 30
2.17000102996826
 70
192
 0
VERTEX
 8
0
 10
-0.035
 20
-0.09
 30
2.18000102043152
 70
192
 0
VERTEX
 8
0
 10
-0.035
 20
-0.09
 30
2.37
 70
192
 0
VERTEX
 8
0
 10
-0.035
 20
-0.09
 30
2.38000106811523
 70
192
 0
VERTEX
 8
0
 10
-0.045
 20
0.25
 30
0.13
 70
192
 0
VERTEX
 8
0
 10
-0.045
 20
0.25
 30
2.39
 70
192
 0
VERTEX
 8
0
 10
-0.045
 20
0.35
 30
0.13
 70
192
 0
VERTEX
 8
0
 10
-0.045
 20
0.35
 30
2.39
 70
192
 0
VERTEX
 8
0
 10
-0.045
 20
-0.1
 30
0.13
 70
192
 0
VERTEX
 8
0
 10
-0.045
 20
-0.1
 30
2.39
 70
192
 0
VERTEX
 8
0
 10
-0.055
 20
0.25
 30
0.12
 70
192
 0
VERTEX
 8
0
 10
-0.055
 20
0.25
 30
0.13
 70
192
 0
VERTEX
 8
0
 10
-0.055
 20
0.25
 30
2.03
 70
192
 0
VERTEX
 8
0
 10
-0.055
 20
0.25
 30
2.04
 70
192
 0
VERTEX
 8
0
 10
-0.055
 20
0.25
 30
2.39
 70
192
 0
VERTEX
 8
0
 10
-0.055
 20
0.25
 30
2.4
 70
192
 0
VERTEX
 8
0
 10
-0.055
 20
0.36
 30
0.12
 70
192
 0
VERTEX
 8
0
 10
-0.055
 20
0.36
 30
0.13
 70
192
 0
VERTEX
 8
0
 10
-0.055
 20
0.36
 30
2.03
 70
192
 0
VERTEX
 8
0
 10
-0.055
 20
0.36
 30
2.04
 70
192
 0
VERTEX
 8
0
 10
-0.055
 20
0.36
 30
2.39
 70
192
 0
VERTEX
 8
0
 10
-0.055
 20
0.36
 30
2.4
 70
192
 0
VERTEX
 8
0
 10
-0.055
 20
-0.11
 30
0.12
 70
192
 0
VERTEX
 8
0
 10
-0.055
 20
-0.11
 30
0.13
 70
192
 0
VERTEX
 8
0
 10
-0.055
 20
-0.11
 30
2.03
 70
192
 0
VERTEX
 8
0
 10
-0.055
 20
-0.11
 30
2.04
 70
192
 0
VERTEX
 8
0
 10
-0.055
 20
-0.11
 30
2.39
 70
192
 0
VERTEX
 8
0
 10
-0.055
 20
-0.11
 30
2.4
 70
192
 0
VERTEX
 8
0
 10
-0.0635199844837189
 20
0.45
 30
2.52374887466431
 70
192
 0
VERTEX
 8
0
 10
-0.0635199844837189
 20
-0.2
 30
2.52374887466431
 70
192
 0
VERTEX
 8
0
 10
-0.065
 20
0.25
 30
0.07
 70
192
 0
VERTEX
 8
0
 10
-0.065
 20
0.25
 30
2.04
 70
192
 0
VERTEX
 8
0
 10
-0.065
 20
0.25
 30
2.07
 70
192
 0
VERTEX
 8
0
 10
-0.065
 20
0.25
 30
2.4
 70
192
 0
VERTEX
 8
0
 10
-0.065
 20
0.37
 30
0.07
 70
192
 0
VERTEX
 8
0
 10
-0.065
 20
0.37
 30
2.04
 70
192
 0
VERTEX
 8
0
 10
-0.065
 20
0.37
 30
2.07
 70
192
 0
VERTEX
 8
0
 10
-0.065
 20
0.37
 30
2.4
 70
192
 0
VERTEX
 8
0
 10
-0.065
 20
-0.12
 30
0.07
 70
192
 0
VERTEX
 8
0
 10
-0.065
 20
-0.12
 30
2.04
 70
192
 0
VERTEX
 8
0
 10
-0.065
 20
-0.12
 30
2.07
 70
192
 0
VERTEX
 8
0
 10
-0.065
 20
-0.12
 30
2.4
 70
192
 0
VERTEX
 8
0
 10
-0.075
 20
0.25
 30
0
 70
192
 0
VERTEX
 8
0
 10
-0.075
 20
0.25
 30
0.07
 70
192
 0
VERTEX
 8
0
 10
-0.075
 20
0.25
 30
0.08
 70
192
 0
VERTEX
 8
0
 10
-0.075
 20
0.25
 30
0.1
 70
192
 0
VERTEX
 8
0
 10
-0.075
 20
0.25
 30
2.07
 70
192
 0
VERTEX
 8
0
 10
-0.075
 20
0.25
 30
2.08
 70
192
 0
VERTEX
 8
0
 10
-0.075
 20
0.38
 30
0
 70
192
 0
VERTEX
 8
0
 10
-0.075
 20
0.38
 30
0.07
 70
192
 0
VERTEX
 8
0
 10
-0.075
 20
0.38
 30
0.08
 70
192
 0
VERTEX
 8
0
 10
-0.075
 20
0.38
 30
0.1
 70
192
 0
VERTEX
 8
0
 10
-0.075
 20
0.38
 30
2.07
 70
192
 0
VERTEX
 8
0
 10
-0.075
 20
0.38
 30
2.08
 70
192
 0
VERTEX
 8
0
 10
-0.075
 20
-0.13
 30
0
 70
192
 0
VERTEX
 8
0
 10
-0.075
 20
-0.13
 30
0.07
 70
192
 0
VERTEX
 8
0
 10
-0.075
 20
-0.13
 30
0.08
 70
192
 0
VERTEX
 8
0
 10
-0.075
 20
-0.13
 30
0.1
 70
192
 0
VERTEX
 8
0
 10
-0.075
 20
-0.13
 30
2.07
 70
192
 0
VERTEX
 8
0
 10
-0.075
 20
-0.13
 30
2.08
 70
192
 0
VERTEX
 8
0
 10
-0.0765379965305328
 20
0.46
 30
2.52249908447266
 70
192
 0
VERTEX
 8
0
 10
-0.0765379965305328
 20
-0.21
 30
2.52249908447266
 70
192
 0
VERTEX
 8
0
 10
-0.085
 20
0.25
 30
2.42
 70
192
 0
VERTEX
 8
0
 10
-0.085
 20
0.25
 30
2.43
 70
192
 0
VERTEX
 8
0
 10
-0.085
 20
0.39
 30
2.42
 70
192
 0
VERTEX
 8
0
 10
-0.085
 20
0.39
 30
2.43
 70
192
 0
VERTEX
 8
0
 10
-0.085
 20
-0.14
 30
2.42
 70
192
 0
VERTEX
 8
0
 10
-0.085
 20
-0.14
 30
2.43
 70
192
 0
VERTEX
 8
0
 10
-0.100679993629456
 20
0.46
 30
2.52249908447266
 70
192
 0
VERTEX
 8
0
 10
-0.100679993629456
 20
-0.21
 30
2.52249908447266
 70
192
 0
VERTEX
 8
0
 10
-0.137840002775192
 20
0.47
 30
2.52125000953674
 70
192
 0
VERTEX
 8
0
 10
-0.137840002775192
 20
-0.22
 30
2.52125000953674
 70
192
 0
VERTEX
 8
0
 10
-0.145
 20
0.25
 30
2.43
 70
192
 0
VERTEX
 8
0
 10
-0.145
 20
0.25
 30
2.49
 70
192
 0
VERTEX
 8
0
 10
-0.145
 20
0.45
 30
2.43
 70
192
 0
VERTEX
 8
0
 10
-0.145
 20
0.45
 30
2.49
 70
192
 0
VERTEX
 8
0
 10
-0.145
 20
-0.2
 30
2.43
 70
192
 0
VERTEX
 8
0
 10
-0.145
 20
-0.2
 30
2.49
 70
192
 0
VERTEX
 8
0
 10
-0.150857985019684
 20
0.48
 30
2.52
 70
192
 0
VERTEX
 8
0
 10
-0.150857985019684
 20
-0.23
 30
2.52
 70
192
 0
VERTEX
 8
0
 10
-0.155
 20
0.25
 30
2.49
 70
192
 0
VERTEX
 8
0
 10
-0.155
 20
0.25
 30
2.5
 70
192
 0
VERTEX
 8
0
 10
-0.155
 20
0.46
 30
2.49
 70
192
 0
VERTEX
 8
0
 10
-0.155
 20
0.46
 30
2.5
 70
192
 0
VERTEX
 8
0
 10
-0.155
 20
-0.21
 30
2.49
 70
192
 0
VERTEX
 8
0
 10
-0.155
 20
-0.21
 30
2.5
 70
192
 0
VERTEX
 8
0
 10
-0.165
 20
0.25
 30
2.51
 70
192
 0
VERTEX
 8
0
 10
-0.165
 20
0.47
 30
2.51
 70
192
 0
VERTEX
 8
0
 10
-0.165
 20
-0.22
 30
2.51
 70
192
 0
VERTEX
 8
0
 10
-0.175
 20
0.25
 30
2.51
 70
192
 0
VERTEX
 8
0
 10
-0.175
 20
0.25
 30
2.52
 70
192
 0
VERTEX
 8
0
 10
-0.175
 20
0.48
 30
2.51
 70
192
 0
VERTEX
 8
0
 10
-0.175
 20
0.48
 30
2.52
 70
192
 0
VERTEX
 8
0
 10
-0.175
 20
-0.23
 30
2.51
 70
192
 0
VERTEX
 8
0
 10
-0.175
 20
-0.23
 30
2.52
 70
192
 0
VERTEX
 8
0
 10
-0.185
 20
0.25
 30
2.526
 70
192
 0
VERTEX
 8
0
 10
-0.185
 20
0.49
 30
2.526
 70
192
 0
VERTEX
 8
0
 10
-0.185
 20
-0.24
 30
2.526
 70
192
 0
VERTEX
 8
0
 10
-0.195
 20
0.25
 30
2.55100107192993
 70
192
 0
VERTEX
 8
0
 10
-0.195
 20
0.5
 30
2.55100107192993
 70
192
 0
VERTEX
 8
0
 10
-0.195
 20
-0.25
 30
2.55100107192993
 70
192
 0
VERTEX
 8
0
 10
-0.223
 20
0.25
 30
2.56100106239319
 70
192
 0
VERTEX
 8
0
 10
-0.223
 20
0.25
 30
2.57100105285645
 70
192
 0
VERTEX
 8
0
 10
-0.223
 20
0.528
 30
2.56100106239319
 70
192
 0
VERTEX
 8
0
 10
-0.223
 20
0.528
 30
2.57100105285645
 70
192
 0
VERTEX
 8
0
 10
-0.223
 20
-0.278
 30
2.56100106239319
 70
192
 0
VERTEX
 8
0
 10
-0.223
 20
-0.278
 30
2.57100105285645
 70
192
 0
VERTEX
 8
0
 10
0.25
 20
0.25
 30
0
 70
128
 71
254
 72
259
 73
258
 74
257
 0
VERTEX
 8
0
 10
0.25
 20
0.25
 30
0
 70
128
 71
173
 72
117
 73
116
 74
172
 0
VERTEX
 8
0
 10
0.25
 20
0.25
 30
0
 70
128
 71
402
 72
379
 73
365
 74
386
 0
VERTEX
 8
0
 10
0.25
 20
0.25
 30
0
 70
128
 71
378
 72
401
 73
385
 74
364
 0
VERTEX
 8
0
 10
0.25
 20
0.25
 30
0
 70
128
 71
401
 72
402
 73
386
 74
385
 0
VERTEX
 8
0
 10
0.25
 20
0.25
 30
0
 70
128
 71
379
 72
402
 73
175
 74
152
 0
VERTEX
 8
0
 10
0.25
 20
0.25
 30
0
 70
128
 71
379
 72
380
 73
366
 74
365
 0
VERTEX
 8
0
 10
0.25
 20
0.25
 30
0
 70
128
 71
401
 72
378
 73
151
 74
174
 0
VERTEX
 8
0
 10
0.25
 20
0.25
 30
0
 70
128
 71
377
 72
378
 73
364
 74
363
 0
VERTEX
 8
0
 10
0.25
 20
0.25
 30
0
 70
128
 71
402
 72
401
 73
174
 74
175
 0
VERTEX
 8
0
 10
0.25
 20
0.25
 30
0
 70
128
 71
152
 72
175
 73
157
 74
137
 0
VERTEX
 8
0
 10
0.25
 20
0.25
 30
0
 70
128
 71
380
 72
379
 73
152
 74
153
 0
VERTEX
 8
0
 10
0.25
 20
0.25
 30
0
 70
128
 71
403
 72
387
 73
366
 74
380
 0
VERTEX
 8
0
 10
0.25
 20
0.25
 30
0
 70
128
 71
153
 72
152
 73
137
 74
146
 0
VERTEX
 8
0
 10
0.25
 20
0.25
 30
0
 70
128
 71
175
 72
174
 73
156
 74
157
 0
VERTEX
 8
0
 10
0.25
 20
0.25
 30
0
 70
128
 71
174
 72
151
 73
136
 74
156
 0
VERTEX
 8
0
 10
0.25
 20
0.25
 30
0
 70
128
 71
294
 72
286
 73
66
 74
67
 0
VERTEX
 8
0
 10
0.25
 20
0.25
 30
0
 70
128
 71
378
 72
294
 73
67
 74
151
 0
VERTEX
 8
0
 10
0.25
 20
0.25
 30
0
 70
128
 71
378
 72
377
 73
294
 0
VERTEX
 8
0
 10
0.25
 20
0.25
 30
0
 70
128
 71
377
 72
363
 73
448
 74
460
 0
VERTEX
 8
0
 10
0.25
 20
0.25
 30
0
 70
128
 71
403
 72
380
 73
153
 74
176
 0
VERTEX
 8
0
 10
0.25
 20
0.25
 30
0
 70
128
 71
404
 72
388
 73
387
 74
403
 0
VERTEX
 8
0
 10
0.25
 20
0.25
 30
0
 70
128
 71
168
 72
176
 73
153
 74
146
 0
VERTEX
 8
0
 10
0.25
 20
0.25
 30
0
 70
128
 71
151
 72
150
 73
135
 74
136
 0
VERTEX
 8
0
 10
0.25
 20
0.25
 30
0
 70
128
 71
292
 72
293
 73
287
 0
VERTEX
 8
0
 10
0.25
 20
0.25
 30
0
 70
128
 71
150
 72
151
 73
67
 0
VERTEX
 8
0
 10
0.25
 20
0.25
 30
0
 70
128
 71
460
 72
300
 73
294
 74
377
 0
VERTEX
 8
0
 10
0.25
 20
0.25
 30
0
 70
128
 71
448
 72
447
 73
459
 74
460
 0
VERTEX
 8
0
 10
0.25
 20
0.25
 30
0
 70
128
 71
404
 72
403
 73
176
 74
177
 0
VERTEX
 8
0
 10
0.25
 20
0.25
 30
0
 70
128
 71
410
 72
406
 73
388
 74
404
 0
VERTEX
 8
0
 10
0.25
 20
0.25
 30
0
 70
128
 71
181
 72
183
 73
177
 74
169
 0
VERTEX
 8
0
 10
0.25
 20
0.25
 30
0
 70
128
 71
169
 72
177
 73
176
 74
168
 0
VERTEX
 8
0
 10
0.25
 20
0.25
 30
0
 70
128
 71
135
 72
150
 73
233
 74
227
 0
VERTEX
 8
0
 10
0.25
 20
0.25
 30
0
 70
128
 71
294
 72
300
 73
299
 0
VERTEX
 8
0
 10
0.25
 20
0.25
 30
0
 70
128
 71
73
 72
233
 73
150
 74
67
 0
VERTEX
 8
0
 10
0.25
 20
0.25
 30
0
 70
128
 71
299
 72
300
 73
460
 74
459
 0
VERTEX
 8
0
 10
0.25
 20
0.25
 30
0
 70
128
 71
447
 72
433
 73
441
 74
459
 0
VERTEX
 8
0
 10
0.25
 20
0.25
 30
0
 70
128
 71
410
 72
404
 73
177
 74
183
 0
VERTEX
 8
0
 10
0.25
 20
0.25
 30
0
 70
128
 71
427
 72
415
 73
406
 74
410
 0
VERTEX
 8
0
 10
0.25
 20
0.25
 30
0
 70
128
 71
194
 72
200
 73
183
 74
181
 0
VERTEX
 8
0
 10
0.25
 20
0.25
 30
0
 70
128
 71
217
 72
227
 73
233
 74
232
 0
VERTEX
 8
0
 10
0.25
 20
0.25
 30
0
 70
128
 71
305
 72
285
 73
299
 74
311
 0
VERTEX
 8
0
 10
0.25
 20
0.25
 30
0
 70
128
 71
433
 72
432
 73
440
 74
441
 0
VERTEX
 8
0
 10
0.25
 20
0.25
 30
0
 70
128
 71
210
 72
217
 73
232
 74
214
 0
VERTEX
 8
0
 10
0.25
 20
0.25
 30
0
 70
128
 71
65
 72
81
 73
84
 74
72
 0
VERTEX
 8
0
 10
0.25
 20
0.25
 30
0
 70
128
 71
66
 72
54
 73
59
 74
65
 0
VERTEX
 8
0
 10
0.25
 20
0.25
 30
0
 70
128
 71
73
 72
72
 73
232
 74
233
 0
VERTEX
 8
0
 10
0.25
 20
0.25
 30
0
 70
128
 71
441
 72
311
 73
299
 74
459
 0
VERTEX
 8
0
 10
0.25
 20
0.25
 30
0
 70
128
 71
427
 72
410
 73
183
 74
200
 0
VERTEX
 8
0
 10
0.25
 20
0.25
 30
0
 70
128
 71
428
 72
416
 73
415
 74
427
 0
VERTEX
 8
0
 10
0.25
 20
0.25
 30
0
 70
128
 71
195
 72
201
 73
200
 74
194
 0
VERTEX
 8
0
 10
0.25
 20
0.25
 30
0
 70
128
 71
304
 72
305
 73
311
 74
310
 0
VERTEX
 8
0
 10
0.25
 20
0.25
 30
0
 70
128
 71
432
 72
414
 73
426
 74
440
 0
VERTEX
 8
0
 10
0.25
 20
0.25
 30
0
 70
128
 71
310
 72
311
 73
441
 74
440
 0
VERTEX
 8
0
 10
0.25
 20
0.25
 30
0
 70
128
 71
84
 72
214
 73
232
 74
72
 0
VERTEX
 8
0
 10
0.25
 20
0.25
 30
0
 70
128
 71
204
 72
210
 73
214
 74
213
 0
VERTEX
 8
0
 10
0.25
 20
0.25
 30
0
 70
128
 71
76
 72
94
 73
98
 74
83
 0
VERTEX
 8
0
 10
0.25
 20
0.25
 30
0
 70
128
 71
81
 72
76
 73
83
 74
84
 0
VERTEX
 8
0
 10
0.25
 20
0.25
 30
0
 70
128
 71
428
 72
427
 73
200
 74
201
 0
VERTEX
 8
0
 10
0.25
 20
0.25
 30
0
 70
128
 71
442
 72
434
 73
416
 74
428
 0
VERTEX
 8
0
 10
0.25
 20
0.25
 30
0
 70
128
 71
467
 72
463
 73
434
 74
442
 0
VERTEX
 8
0
 10
0.25
 20
0.25
 30
0
 70
128
 71
468
 72
464
 73
463
 74
467
 0
VERTEX
 8
0
 10
0.25
 20
0.25
 30
0
 70
128
 71
237
 72
241
 73
240
 74
236
 0
VERTEX
 8
0
 10
0.25
 20
0.25
 30
0
 70
128
 71
211
 72
215
 73
201
 74
195
 0
VERTEX
 8
0
 10
0.25
 20
0.25
 30
0
 70
128
 71
236
 72
240
 73
215
 74
211
 0
VERTEX
 8
0
 10
0.25
 20
0.25
 30
0
 70
128
 71
317
 72
304
 73
310
 74
325
 0
VERTEX
 8
0
 10
0.25
 20
0.25
 30
0
 70
128
 71
414
 72
413
 73
425
 74
426
 0
VERTEX
 8
0
 10
0.25
 20
0.25
 30
0
 70
128
 71
426
 72
325
 73
310
 74
440
 0
VERTEX
 8
0
 10
0.25
 20
0.25
 30
0
 70
128
 71
316
 72
317
 73
325
 74
324
 0
VERTEX
 8
0
 10
0.25
 20
0.25
 30
0
 70
128
 71
84
 72
83
 73
213
 74
214
 0
VERTEX
 8
0
 10
0.25
 20
0.25
 30
0
 70
128
 71
193
 72
204
 73
213
 74
199
 0
VERTEX
 8
0
 10
0.25
 20
0.25
 30
0
 70
128
 71
94
 72
87
 73
97
 74
98
 0
VERTEX
 8
0
 10
0.25
 20
0.25
 30
0
 70
128
 71
98
 72
199
 73
213
 74
83
 0
VERTEX
 8
0
 10
0.25
 20
0.25
 30
0
 70
128
 71
185
 72
193
 73
199
 74
198
 0
VERTEX
 8
0
 10
0.25
 20
0.25
 30
0
 70
128
 71
442
 72
428
 73
201
 74
215
 0
VERTEX
 8
0
 10
0.25
 20
0.25
 30
0
 70
128
 71
467
 72
442
 73
215
 74
240
 0
VERTEX
 8
0
 10
0.25
 20
0.25
 30
0
 70
128
 71
477
 72
473
 73
464
 74
468
 0
VERTEX
 8
0
 10
0.25
 20
0.25
 30
0
 70
128
 71
468
 72
467
 73
240
 74
241
 0
VERTEX
 8
0
 10
0.25
 20
0.25
 30
0
 70
128
 71
249
 72
250
 73
241
 74
237
 0
VERTEX
 8
0
 10
0.25
 20
0.25
 30
0
 70
128
 71
413
 72
384
 73
400
 74
425
 0
VERTEX
 8
0
 10
0.25
 20
0.25
 30
0
 70
128
 71
324
 72
325
 73
426
 74
425
 0
VERTEX
 8
0
 10
0.25
 20
0.25
 30
0
 70
128
 71
336
 72
316
 73
324
 74
344
 0
VERTEX
 8
0
 10
0.25
 20
0.25
 30
0
 70
128
 71
87
 72
113
 73
117
 74
97
 0
VERTEX
 8
0
 10
0.25
 20
0.25
 30
0
 70
128
 71
98
 72
97
 73
198
 74
199
 0
VERTEX
 8
0
 10
0.25
 20
0.25
 30
0
 70
128
 71
155
 72
185
 73
198
 74
173
 0
VERTEX
 8
0
 10
0.25
 20
0.25
 30
0
 70
128
 71
478
 72
474
 73
473
 74
477
 0
VERTEX
 8
0
 10
0.25
 20
0.25
 30
0
 70
128
 71
477
 72
468
 73
241
 74
250
 0
VERTEX
 8
0
 10
0.25
 20
0.25
 30
0
 70
128
 71
246
 72
251
 73
250
 74
249
 0
VERTEX
 8
0
 10
0.25
 20
0.25
 30
0
 70
128
 71
384
 72
383
 73
399
 74
400
 0
VERTEX
 8
0
 10
0.25
 20
0.25
 30
0
 70
128
 71
425
 72
400
 73
344
 74
324
 0
VERTEX
 8
0
 10
0.25
 20
0.25
 30
0
 70
128
 71
335
 72
336
 73
344
 74
343
 0
VERTEX
 8
0
 10
0.25
 20
0.25
 30
0
 70
128
 71
113
 72
108
 73
116
 74
117
 0
VERTEX
 8
0
 10
0.25
 20
0.25
 30
0
 70
128
 71
173
 72
198
 73
97
 74
117
 0
VERTEX
 8
0
 10
0.25
 20
0.25
 30
0
 70
128
 71
167
 72
155
 73
173
 74
172
 0
VERTEX
 8
0
 10
0.25
 20
0.25
 30
0
 70
128
 71
485
 72
481
 73
474
 74
478
 0
VERTEX
 8
0
 10
0.25
 20
0.25
 30
0
 70
128
 71
478
 72
477
 73
250
 74
251
 0
VERTEX
 8
0
 10
0.25
 20
0.25
 30
0
 70
128
 71
486
 72
482
 73
481
 74
485
 0
VERTEX
 8
0
 10
0.25
 20
0.25
 30
0
 70
128
 71
489
 72
487
 73
482
 74
486
 0
VERTEX
 8
0
 10
0.25
 20
0.25
 30
0
 70
128
 71
261
 72
262
 73
259
 74
254
 0
VERTEX
 8
0
 10
0.25
 20
0.25
 30
0
 70
128
 71
257
 72
258
 73
251
 74
246
 0
VERTEX
 8
0
 10
0.25
 20
0.25
 30
0
 70
128
 71
376
 72
399
 73
383
 74
362
 0
VERTEX
 8
0
 10
0.25
 20
0.25
 30
0
 70
128
 71
344
 72
400
 73
399
 74
343
 0
VERTEX
 8
0
 10
0.25
 20
0.25
 30
0
 70
128
 71
335
 72
343
 73
353
 74
347
 0
VERTEX
 8
0
 10
0.25
 20
0.25
 30
0
 70
128
 71
362
 72
361
 73
375
 74
376
 0
VERTEX
 8
0
 10
0.25
 20
0.25
 30
0
 70
128
 71
346
 72
347
 73
353
 74
352
 0
VERTEX
 8
0
 10
0.25
 20
0.25
 30
0
 70
128
 71
116
 72
108
 73
119
 74
126
 0
VERTEX
 8
0
 10
0.25
 20
0.25
 30
0
 70
128
 71
172
 72
149
 73
145
 74
167
 0
VERTEX
 8
0
 10
0.25
 20
0.25
 30
0
 70
128
 71
134
 72
145
 73
149
 74
148
 0
VERTEX
 8
0
 10
0.25
 20
0.25
 30
0
 70
128
 71
119
 72
123
 73
125
 74
126
 0
VERTEX
 8
0
 10
0.25
 20
0.25
 30
0
 70
128
 71
485
 72
478
 73
251
 74
258
 0
VERTEX
 8
0
 10
0.25
 20
0.25
 30
0
 70
128
 71
486
 72
485
 73
258
 74
259
 0
VERTEX
 8
0
 10
0.25
 20
0.25
 30
0
 70
128
 71
494
 72
490
 73
487
 74
489
 0
VERTEX
 8
0
 10
0.25
 20
0.25
 30
0
 70
128
 71
489
 72
486
 73
259
 74
262
 0
VERTEX
 8
0
 10
0.25
 20
0.25
 30
0
 70
128
 71
265
 72
267
 73
262
 74
261
 0
VERTEX
 8
0
 10
0.25
 20
0.25
 30
0
 70
128
 71
376
 72
353
 73
343
 74
399
 0
VERTEX
 8
0
 10
0.25
 20
0.25
 30
0
 70
128
 71
382
 72
398
 73
375
 74
361
 0
VERTEX
 8
0
 10
0.25
 20
0.25
 30
0
 70
128
 71
376
 72
375
 73
352
 74
353
 0
VERTEX
 8
0
 10
0.25
 20
0.25
 30
0
 70
128
 71
352
 72
342
 73
334
 74
346
 0
VERTEX
 8
0
 10
0.25
 20
0.25
 30
0
 70
128
 71
126
 72
149
 73
172
 74
116
 0
VERTEX
 8
0
 10
0.25
 20
0.25
 30
0
 70
128
 71
148
 72
149
 73
126
 74
125
 0
VERTEX
 8
0
 10
0.25
 20
0.25
 30
0
 70
128
 71
171
 72
154
 73
134
 74
148
 0
VERTEX
 8
0
 10
0.25
 20
0.25
 30
0
 70
128
 71
115
 72
125
 73
123
 74
107
 0
VERTEX
 8
0
 10
0.25
 20
0.25
 30
0
 70
128
 71
495
 72
491
 73
490
 74
494
 0
VERTEX
 8
0
 10
0.25
 20
0.25
 30
0
 70
128
 71
494
 72
489
 73
262
 74
267
 0
VERTEX
 8
0
 10
0.25
 20
0.25
 30
0
 70
128
 71
266
 72
268
 73
267
 74
265
 0
VERTEX
 8
0
 10
0.25
 20
0.25
 30
0
 70
128
 71
381
 72
397
 73
398
 74
382
 0
VERTEX
 8
0
 10
0.25
 20
0.25
 30
0
 70
128
 71
352
 72
375
 73
398
 74
342
 0
VERTEX
 8
0
 10
0.25
 20
0.25
 30
0
 70
128
 71
333
 72
334
 73
342
 74
341
 0
VERTEX
 8
0
 10
0.25
 20
0.25
 30
0
 70
128
 71
374
 72
397
 73
381
 74
360
 0
VERTEX
 8
0
 10
0.25
 20
0.25
 30
0
 70
128
 71
333
 72
341
 73
351
 74
345
 0
VERTEX
 8
0
 10
0.25
 20
0.25
 30
0
 70
128
 71
360
 72
405
 73
409
 74
374
 0
VERTEX
 8
0
 10
0.25
 20
0.25
 30
0
 70
128
 71
326
 72
345
 73
351
 74
328
 0
VERTEX
 8
0
 10
0.25
 20
0.25
 30
0
 70
128
 71
148
 72
125
 73
115
 74
171
 0
VERTEX
 8
0
 10
0.25
 20
0.25
 30
0
 70
128
 71
170
 72
166
 73
154
 74
171
 0
VERTEX
 8
0
 10
0.25
 20
0.25
 30
0
 70
128
 71
170
 72
147
 73
133
 74
166
 0
VERTEX
 8
0
 10
0.25
 20
0.25
 30
0
 70
128
 71
147
 72
182
 73
178
 74
133
 0
VERTEX
 8
0
 10
0.25
 20
0.25
 30
0
 70
128
 71
118
 72
99
 73
101
 74
124
 0
VERTEX
 8
0
 10
0.25
 20
0.25
 30
0
 70
128
 71
114
 72
106
 73
118
 74
124
 0
VERTEX
 8
0
 10
0.25
 20
0.25
 30
0
 70
128
 71
107
 72
106
 73
114
 74
115
 0
VERTEX
 8
0
 10
0.25
 20
0.25
 30
0
 70
128
 71
498
 72
496
 73
491
 74
495
 0
VERTEX
 8
0
 10
0.25
 20
0.25
 30
0
 70
128
 71
495
 72
494
 73
480
 0
VERTEX
 8
0
 10
0.25
 20
0.25
 30
0
 70
128
 71
494
 72
267
 73
253
 74
480
 0
VERTEX
 8
0
 10
0.25
 20
0.25
 30
0
 70
128
 71
501
 72
499
 73
496
 74
498
 0
VERTEX
 8
0
 10
0.25
 20
0.25
 30
0
 70
128
 71
502
 72
499
 73
501
 74
506
 0
VERTEX
 8
0
 10
0.25
 20
0.25
 30
0
 70
128
 71
279
 72
274
 73
272
 74
277
 0
VERTEX
 8
0
 10
0.25
 20
0.25
 30
0
 70
128
 71
269
 72
271
 73
268
 74
266
 0
VERTEX
 8
0
 10
0.25
 20
0.25
 30
0
 70
128
 71
272
 72
274
 73
271
 74
269
 0
VERTEX
 8
0
 10
0.25
 20
0.25
 30
0
 70
128
 71
268
 72
253
 73
267
 0
VERTEX
 8
0
 10
0.25
 20
0.25
 30
0
 70
128
 71
397
 72
341
 73
342
 74
398
 0
VERTEX
 8
0
 10
0.25
 20
0.25
 30
0
 70
128
 71
374
 72
351
 73
341
 74
397
 0
VERTEX
 8
0
 10
0.25
 20
0.25
 30
0
 70
128
 71
405
 72
412
 73
424
 74
409
 0
VERTEX
 8
0
 10
0.25
 20
0.25
 30
0
 70
128
 71
374
 72
409
 73
328
 74
351
 0
VERTEX
 8
0
 10
0.25
 20
0.25
 30
0
 70
128
 71
315
 72
326
 73
328
 74
323
 0
VERTEX
 8
0
 10
0.25
 20
0.25
 30
0
 70
128
 71
114
 72
170
 73
171
 74
115
 0
VERTEX
 8
0
 10
0.25
 20
0.25
 30
0
 70
128
 71
124
 72
147
 73
170
 74
114
 0
VERTEX
 8
0
 10
0.25
 20
0.25
 30
0
 70
128
 71
182
 72
147
 73
124
 74
101
 0
VERTEX
 8
0
 10
0.25
 20
0.25
 30
0
 70
128
 71
182
 72
197
 73
184
 74
178
 0
VERTEX
 8
0
 10
0.25
 20
0.25
 30
0
 70
128
 71
99
 72
93
 73
96
 74
101
 0
VERTEX
 8
0
 10
0.25
 20
0.25
 30
0
 70
128
 71
495
 72
43
 73
44
 74
498
 0
VERTEX
 8
0
 10
0.25
 20
0.25
 30
0
 70
128
 71
43
 72
495
 73
480
 74
42
 0
VERTEX
 8
0
 10
0.25
 20
0.25
 30
0
 70
128
 71
480
 72
253
 73
235
 74
462
 0
VERTEX
 8
0
 10
0.25
 20
0.25
 30
0
 70
128
 71
498
 72
44
 73
45
 74
501
 0
VERTEX
 8
0
 10
0.25
 20
0.25
 30
0
 70
128
 71
501
 72
45
 73
46
 74
506
 0
VERTEX
 8
0
 10
0.25
 20
0.25
 30
0
 70
128
 71
507
 72
503
 73
502
 74
506
 0
VERTEX
 8
0
 10
0.25
 20
0.25
 30
0
 70
128
 71
278
 72
280
 73
279
 74
277
 0
VERTEX
 8
0
 10
0.25
 20
0.25
 30
0
 70
128
 71
46
 72
45
 73
274
 74
279
 0
VERTEX
 8
0
 10
0.25
 20
0.25
 30
0
 70
128
 71
271
 72
44
 73
43
 74
268
 0
VERTEX
 8
0
 10
0.25
 20
0.25
 30
0
 70
128
 71
274
 72
45
 73
44
 74
271
 0
VERTEX
 8
0
 10
0.25
 20
0.25
 30
0
 70
128
 71
42
 72
253
 73
268
 74
43
 0
VERTEX
 8
0
 10
0.25
 20
0.25
 30
0
 70
128
 71
412
 72
411
 73
423
 74
424
 0
VERTEX
 8
0
 10
0.25
 20
0.25
 30
0
 70
128
 71
323
 72
328
 73
409
 74
424
 0
VERTEX
 8
0
 10
0.25
 20
0.25
 30
0
 70
128
 71
314
 72
315
 73
323
 74
322
 0
VERTEX
 8
0
 10
0.25
 20
0.25
 30
0
 70
128
 71
411
 72
446
 73
458
 74
423
 0
VERTEX
 8
0
 10
0.25
 20
0.25
 30
0
 70
128
 71
284
 72
314
 73
322
 74
298
 0
VERTEX
 8
0
 10
0.25
 20
0.25
 30
0
 70
128
 71
197
 72
182
 73
101
 74
96
 0
VERTEX
 8
0
 10
0.25
 20
0.25
 30
0
 70
128
 71
192
 72
184
 73
197
 74
196
 0
VERTEX
 8
0
 10
0.25
 20
0.25
 30
0
 70
128
 71
226
 72
192
 73
196
 74
231
 0
VERTEX
 8
0
 10
0.25
 20
0.25
 30
0
 70
128
 71
92
 72
64
 73
71
 74
95
 0
VERTEX
 8
0
 10
0.25
 20
0.25
 30
0
 70
128
 71
93
 72
92
 73
95
 74
96
 0
VERTEX
 8
0
 10
0.25
 20
0.25
 30
0
 70
128
 71
42
 72
480
 73
472
 74
41
 0
VERTEX
 8
0
 10
0.25
 20
0.25
 30
0
 70
128
 71
243
 72
235
 73
253
 74
245
 0
VERTEX
 8
0
 10
0.25
 20
0.25
 30
0
 70
128
 71
132
 72
359
 73
462
 74
235
 0
VERTEX
 8
0
 10
0.25
 20
0.25
 30
0
 70
128
 71
472
 72
480
 73
462
 74
470
 0
VERTEX
 8
0
 10
0.25
 20
0.25
 30
0
 70
128
 71
46
 72
47
 73
507
 74
506
 0
VERTEX
 8
0
 10
0.25
 20
0.25
 30
0
 70
128
 71
7
 72
503
 73
507
 74
47
 0
VERTEX
 8
0
 10
0.25
 20
0.25
 30
0
 70
128
 71
278
 72
7
 73
47
 74
280
 0
VERTEX
 8
0
 10
0.25
 20
0.25
 30
0
 70
128
 71
47
 72
46
 73
279
 74
280
 0
VERTEX
 8
0
 10
0.25
 20
0.25
 30
0
 70
128
 71
41
 72
245
 73
253
 74
42
 0
VERTEX
 8
0
 10
0.25
 20
0.25
 30
0
 70
128
 71
322
 72
323
 73
424
 74
423
 0
VERTEX
 8
0
 10
0.25
 20
0.25
 30
0
 70
128
 71
445
 72
457
 73
458
 74
446
 0
VERTEX
 8
0
 10
0.25
 20
0.25
 30
0
 70
128
 71
298
 72
322
 73
423
 74
458
 0
VERTEX
 8
0
 10
0.25
 20
0.25
 30
0
 70
128
 71
283
 72
284
 73
298
 74
297
 0
VERTEX
 8
0
 10
0.25
 20
0.25
 30
0
 70
128
 71
96
 72
95
 73
196
 74
197
 0
VERTEX
 8
0
 10
0.25
 20
0.25
 30
0
 70
128
 71
95
 72
71
 73
231
 74
196
 0
VERTEX
 8
0
 10
0.25
 20
0.25
 30
0
 70
128
 71
230
 72
225
 73
226
 74
231
 0
VERTEX
 8
0
 10
0.25
 20
0.25
 30
0
 70
128
 71
64
 72
63
 73
70
 74
71
 0
VERTEX
 8
0
 10
0.25
 20
0.25
 30
0
 70
128
 71
41
 72
472
 73
470
 74
40
 0
VERTEX
 8
0
 10
0.25
 20
0.25
 30
0
 70
128
 71
39
 72
235
 73
243
 74
40
 0
VERTEX
 8
0
 10
0.25
 20
0.25
 30
0
 70
128
 71
40
 72
243
 73
245
 74
41
 0
VERTEX
 8
0
 10
0.25
 20
0.25
 30
0
 70
128
 71
132
 72
128
 73
355
 74
359
 0
VERTEX
 8
0
 10
0.25
 20
0.25
 30
0
 70
128
 71
430
 72
462
 73
359
 0
VERTEX
 8
0
 10
0.25
 20
0.25
 30
0
 70
128
 71
203
 72
132
 73
235
 0
VERTEX
 8
0
 10
0.25
 20
0.25
 30
0
 70
128
 71
40
 72
470
 73
462
 74
39
 0
VERTEX
 8
0
 10
0.25
 20
0.25
 30
0
 70
128
 71
445
 72
431
 73
439
 74
457
 0
VERTEX
 8
0
 10
0.25
 20
0.25
 30
0
 70
128
 71
297
 72
298
 73
458
 74
457
 0
VERTEX
 8
0
 10
0.25
 20
0.25
 30
0
 70
128
 71
303
 72
283
 73
297
 74
309
 0
VERTEX
 8
0
 10
0.25
 20
0.25
 30
0
 70
128
 71
71
 72
70
 73
230
 74
231
 0
VERTEX
 8
0
 10
0.25
 20
0.25
 30
0
 70
128
 71
209
 72
225
 73
230
 74
212
 0
VERTEX
 8
0
 10
0.25
 20
0.25
 30
0
 70
128
 71
63
 72
80
 73
82
 74
70
 0
VERTEX
 8
0
 10
0.25
 20
0.25
 30
0
 70
128
 71
38
 72
203
 73
235
 74
39
 0
VERTEX
 8
0
 10
0.25
 20
0.25
 30
0
 70
128
 71
130
 72
128
 73
132
 0
VERTEX
 8
0
 10
0.25
 20
0.25
 30
0
 70
128
 71
128
 72
105
 73
332
 74
355
 0
VERTEX
 8
0
 10
0.25
 20
0.25
 30
0
 70
128
 71
357
 72
359
 73
355
 0
VERTEX
 8
0
 10
0.25
 20
0.25
 30
0
 70
128
 71
39
 72
462
 73
430
 74
38
 0
VERTEX
 8
0
 10
0.25
 20
0.25
 30
0
 70
128
 71
38
 72
430
 73
359
 74
37
 0
VERTEX
 8
0
 10
0.25
 20
0.25
 30
0
 70
128
 71
37
 72
132
 73
203
 74
38
 0
VERTEX
 8
0
 10
0.25
 20
0.25
 30
0
 70
128
 71
444
 72
456
 73
439
 74
431
 0
VERTEX
 8
0
 10
0.25
 20
0.25
 30
0
 70
128
 71
457
 72
439
 73
309
 74
297
 0
VERTEX
 8
0
 10
0.25
 20
0.25
 30
0
 70
128
 71
309
 72
296
 73
282
 74
303
 0
VERTEX
 8
0
 10
0.25
 20
0.25
 30
0
 70
128
 71
295
 72
455
 73
443
 74
281
 0
VERTEX
 8
0
 10
0.25
 20
0.25
 30
0
 70
128
 71
212
 72
230
 73
70
 74
82
 0
VERTEX
 8
0
 10
0.25
 20
0.25
 30
0
 70
128
 71
229
 72
224
 73
209
 74
212
 0
VERTEX
 8
0
 10
0.25
 20
0.25
 30
0
 70
128
 71
228
 72
68
 73
61
 74
216
 0
VERTEX
 8
0
 10
0.25
 20
0.25
 30
0
 70
128
 71
69
 72
82
 73
80
 74
62
 0
VERTEX
 8
0
 10
0.25
 20
0.25
 30
0
 70
128
 71
35
 72
128
 73
130
 74
36
 0
VERTEX
 8
0
 10
0.25
 20
0.25
 30
0
 70
128
 71
36
 72
130
 73
132
 74
37
 0
VERTEX
 8
0
 10
0.25
 20
0.25
 30
0
 70
128
 71
34
 72
105
 73
128
 74
35
 0
VERTEX
 8
0
 10
0.25
 20
0.25
 30
0
 70
128
 71
105
 72
86
 73
313
 74
332
 0
VERTEX
 8
0
 10
0.25
 20
0.25
 30
0
 70
128
 71
35
 72
355
 73
332
 74
34
 0
VERTEX
 8
0
 10
0.25
 20
0.25
 30
0
 70
128
 71
37
 72
359
 73
357
 74
36
 0
VERTEX
 8
0
 10
0.25
 20
0.25
 30
0
 70
128
 71
36
 72
357
 73
355
 74
35
 0
VERTEX
 8
0
 10
0.25
 20
0.25
 30
0
 70
128
 71
444
 72
443
 73
455
 74
456
 0
VERTEX
 8
0
 10
0.25
 20
0.25
 30
0
 70
128
 71
309
 72
439
 73
456
 74
296
 0
VERTEX
 8
0
 10
0.25
 20
0.25
 30
0
 70
128
 71
281
 72
282
 73
296
 74
295
 0
VERTEX
 8
0
 10
0.25
 20
0.25
 30
0
 70
128
 71
456
 72
455
 73
295
 74
296
 0
VERTEX
 8
0
 10
0.25
 20
0.25
 30
0
 70
128
 71
212
 72
82
 73
69
 74
229
 0
VERTEX
 8
0
 10
0.25
 20
0.25
 30
0
 70
128
 71
216
 72
224
 73
229
 74
228
 0
VERTEX
 8
0
 10
0.25
 20
0.25
 30
0
 70
128
 71
228
 72
229
 73
69
 74
68
 0
VERTEX
 8
0
 10
0.25
 20
0.25
 30
0
 70
128
 71
62
 72
61
 73
68
 74
69
 0
VERTEX
 8
0
 10
0.25
 20
0.25
 30
0
 70
128
 71
33
 72
103
 73
105
 74
34
 0
VERTEX
 8
0
 10
0.25
 20
0.25
 30
0
 70
128
 71
103
 72
86
 73
105
 0
VERTEX
 8
0
 10
0.25
 20
0.25
 30
0
 70
128
 71
86
 72
51
 73
4
 74
313
 0
VERTEX
 8
0
 10
0.25
 20
0.25
 30
0
 70
128
 71
330
 72
332
 73
313
 0
VERTEX
 8
0
 10
0.25
 20
0.25
 30
0
 70
128
 71
34
 72
332
 73
330
 74
33
 0
VERTEX
 8
0
 10
0.25
 20
0.25
 30
0
 70
128
 71
32
 72
86
 73
103
 74
33
 0
VERTEX
 8
0
 10
0.25
 20
0.25
 30
0
 70
128
 71
53
 72
51
 73
86
 74
75
 0
VERTEX
 8
0
 10
0.25
 20
0.25
 30
0
 70
128
 71
6
 72
4
 73
51
 74
49
 0
VERTEX
 8
0
 10
0.25
 20
0.25
 30
0
 70
128
 71
302
 72
313
 73
4
 74
2
 0
VERTEX
 8
0
 10
0.25
 20
0.25
 30
0
 70
128
 71
33
 72
330
 73
313
 74
32
 0
VERTEX
 8
0
 10
0.25
 20
0.25
 30
0
 70
128
 71
31
 72
75
 73
86
 74
32
 0
VERTEX
 8
0
 10
0.25
 20
0.25
 30
0
 70
128
 71
29
 72
51
 73
53
 74
30
 0
VERTEX
 8
0
 10
0.25
 20
0.25
 30
0
 70
128
 71
30
 72
53
 73
75
 74
31
 0
VERTEX
 8
0
 10
0.25
 20
0.25
 30
0
 70
128
 71
29
 72
4
 73
6
 74
28
 0
VERTEX
 8
0
 10
0.25
 20
0.25
 30
0
 70
128
 71
28
 72
49
 73
51
 74
29
 0
VERTEX
 8
0
 10
0.25
 20
0.25
 30
0
 70
128
 71
28
 72
6
 73
49
 0
VERTEX
 8
0
 10
0.25
 20
0.25
 30
0
 70
128
 71
32
 72
313
 73
302
 74
31
 0
VERTEX
 8
0
 10
0.25
 20
0.25
 30
0
 70
128
 71
30
 72
2
 73
4
 74
29
 0
VERTEX
 8
0
 10
0.25
 20
0.25
 30
0
 70
128
 71
31
 72
302
 73
2
 74
30
 0
VERTEX
 8
0
 10
0.25
 20
0.25
 30
0
 70
128
 71
482
 72
484
 73
483
 74
481
 0
VERTEX
 8
0
 10
0.25
 20
0.25
 30
0
 70
128
 71
392
 72
340
 73
339
 74
391
 0
VERTEX
 8
0
 10
0.25
 20
0.25
 30
0
 70
128
 71
163
 72
143
 73
137
 74
157
 0
VERTEX
 8
0
 10
0.25
 20
0.25
 30
0
 70
128
 71
142
 72
162
 73
156
 74
136
 0
VERTEX
 8
0
 10
0.25
 20
0.25
 30
0
 70
128
 71
162
 72
163
 73
157
 74
156
 0
VERTEX
 8
0
 10
0.25
 20
0.25
 30
0
 70
128
 71
143
 72
163
 73
394
 74
372
 0
VERTEX
 8
0
 10
0.25
 20
0.25
 30
0
 70
128
 71
143
 72
144
 73
146
 74
137
 0
VERTEX
 8
0
 10
0.25
 20
0.25
 30
0
 70
128
 71
162
 72
142
 73
371
 74
393
 0
VERTEX
 8
0
 10
0.25
 20
0.25
 30
0
 70
128
 71
141
 72
142
 73
136
 74
135
 0
VERTEX
 8
0
 10
0.25
 20
0.25
 30
0
 70
128
 71
163
 72
162
 73
393
 74
394
 0
VERTEX
 8
0
 10
0.25
 20
0.25
 30
0
 70
128
 71
372
 72
394
 73
386
 74
365
 0
VERTEX
 8
0
 10
0.25
 20
0.25
 30
0
 70
128
 71
144
 72
143
 73
372
 74
373
 0
VERTEX
 8
0
 10
0.25
 20
0.25
 30
0
 70
128
 71
164
 72
168
 73
146
 74
144
 0
VERTEX
 8
0
 10
0.25
 20
0.25
 30
0
 70
128
 71
373
 72
372
 73
365
 74
366
 0
VERTEX
 8
0
 10
0.25
 20
0.25
 30
0
 70
128
 71
394
 72
393
 73
385
 74
386
 0
VERTEX
 8
0
 10
0.25
 20
0.25
 30
0
 70
128
 71
393
 72
371
 73
364
 74
385
 0
VERTEX
 8
0
 10
0.25
 20
0.25
 30
0
 70
128
 71
54
 72
66
 73
286
 74
287
 0
VERTEX
 8
0
 10
0.25
 20
0.25
 30
0
 70
128
 71
142
 72
54
 73
287
 74
371
 0
VERTEX
 8
0
 10
0.25
 20
0.25
 30
0
 70
128
 71
142
 72
141
 73
54
 0
VERTEX
 8
0
 10
0.25
 20
0.25
 30
0
 70
128
 71
141
 72
135
 73
227
 74
223
 0
VERTEX
 8
0
 10
0.25
 20
0.25
 30
0
 70
128
 71
164
 72
144
 73
373
 74
395
 0
VERTEX
 8
0
 10
0.25
 20
0.25
 30
0
 70
128
 71
165
 72
169
 73
168
 74
164
 0
VERTEX
 8
0
 10
0.25
 20
0.25
 30
0
 70
128
 71
387
 72
395
 73
373
 74
366
 0
VERTEX
 8
0
 10
0.25
 20
0.25
 30
0
 70
128
 71
371
 72
370
 73
363
 74
364
 0
VERTEX
 8
0
 10
0.25
 20
0.25
 30
0
 70
128
 71
67
 72
66
 73
65
 74
72
 0
VERTEX
 8
0
 10
0.25
 20
0.25
 30
0
 70
128
 71
286
 72
294
 73
299
 74
285
 0
VERTEX
 8
0
 10
0.25
 20
0.25
 30
0
 70
128
 71
370
 72
371
 73
287
 0
VERTEX
 8
0
 10
0.25
 20
0.25
 30
0
 70
128
 71
223
 72
60
 73
54
 74
141
 0
VERTEX
 8
0
 10
0.25
 20
0.25
 30
0
 70
128
 71
227
 72
217
 73
222
 74
223
 0
VERTEX
 8
0
 10
0.25
 20
0.25
 30
0
 70
128
 71
165
 72
164
 73
395
 74
396
 0
VERTEX
 8
0
 10
0.25
 20
0.25
 30
0
 70
128
 71
180
 72
181
 73
169
 74
165
 0
VERTEX
 8
0
 10
0.25
 20
0.25
 30
0
 70
128
 71
406
 72
408
 73
396
 74
388
 0
VERTEX
 8
0
 10
0.25
 20
0.25
 30
0
 70
128
 71
388
 72
396
 73
395
 74
387
 0
VERTEX
 8
0
 10
0.25
 20
0.25
 30
0
 70
128
 71
363
 72
370
 73
454
 74
448
 0
VERTEX
 8
0
 10
0.25
 20
0.25
 30
0
 70
128
 71
54
 72
60
 73
59
 0
VERTEX
 8
0
 10
0.25
 20
0.25
 30
0
 70
128
 71
293
 72
454
 73
370
 74
287
 0
VERTEX
 8
0
 10
0.25
 20
0.25
 30
0
 70
128
 71
59
 72
60
 73
223
 74
222
 0
VERTEX
 8
0
 10
0.25
 20
0.25
 30
0
 70
128
 71
217
 72
210
 73
207
 74
222
 0
VERTEX
 8
0
 10
0.25
 20
0.25
 30
0
 70
128
 71
180
 72
165
 73
396
 74
408
 0
VERTEX
 8
0
 10
0.25
 20
0.25
 30
0
 70
128
 71
190
 72
194
 73
181
 74
180
 0
VERTEX
 8
0
 10
0.25
 20
0.25
 30
0
 70
128
 71
415
 72
421
 73
408
 74
406
 0
VERTEX
 8
0
 10
0.25
 20
0.25
 30
0
 70
128
 71
447
 72
448
 73
454
 74
453
 0
VERTEX
 8
0
 10
0.25
 20
0.25
 30
0
 70
128
 71
81
 72
65
 73
59
 74
79
 0
VERTEX
 8
0
 10
0.25
 20
0.25
 30
0
 70
128
 71
210
 72
204
 73
206
 74
207
 0
VERTEX
 8
0
 10
0.25
 20
0.25
 30
0
 70
128
 71
433
 72
447
 73
453
 74
437
 0
VERTEX
 8
0
 10
0.25
 20
0.25
 30
0
 70
128
 71
285
 72
305
 73
308
 74
292
 0
VERTEX
 8
0
 10
0.25
 20
0.25
 30
0
 70
128
 71
287
 72
286
 73
285
 74
292
 0
VERTEX
 8
0
 10
0.25
 20
0.25
 30
0
 70
128
 71
293
 72
292
 73
453
 74
454
 0
VERTEX
 8
0
 10
0.25
 20
0.25
 30
0
 70
128
 71
207
 72
79
 73
59
 74
222
 0
VERTEX
 8
0
 10
0.25
 20
0.25
 30
0
 70
128
 71
190
 72
180
 73
408
 74
421
 0
VERTEX
 8
0
 10
0.25
 20
0.25
 30
0
 70
128
 71
191
 72
195
 73
194
 74
190
 0
VERTEX
 8
0
 10
0.25
 20
0.25
 30
0
 70
128
 71
416
 72
422
 73
421
 74
415
 0
VERTEX
 8
0
 10
0.25
 20
0.25
 30
0
 70
128
 71
76
 72
81
 73
79
 74
78
 0
VERTEX
 8
0
 10
0.25
 20
0.25
 30
0
 70
128
 71
204
 72
193
 73
189
 74
206
 0
VERTEX
 8
0
 10
0.25
 20
0.25
 30
0
 70
128
 71
78
 72
79
 73
207
 74
206
 0
VERTEX
 8
0
 10
0.25
 20
0.25
 30
0
 70
128
 71
308
 72
437
 73
453
 74
292
 0
VERTEX
 8
0
 10
0.25
 20
0.25
 30
0
 70
128
 71
432
 72
433
 73
437
 74
436
 0
VERTEX
 8
0
 10
0.25
 20
0.25
 30
0
 70
128
 71
304
 72
317
 73
321
 74
307
 0
VERTEX
 8
0
 10
0.25
 20
0.25
 30
0
 70
128
 71
305
 72
304
 73
307
 74
308
 0
VERTEX
 8
0
 10
0.25
 20
0.25
 30
0
 70
128
 71
191
 72
190
 73
421
 74
422
 0
VERTEX
 8
0
 10
0.25
 20
0.25
 30
0
 70
128
 71
208
 72
211
 73
195
 74
191
 0
VERTEX
 8
0
 10
0.25
 20
0.25
 30
0
 70
128
 71
238
 72
236
 73
211
 74
208
 0
VERTEX
 8
0
 10
0.25
 20
0.25
 30
0
 70
128
 71
239
 72
237
 73
236
 74
238
 0
VERTEX
 8
0
 10
0.25
 20
0.25
 30
0
 70
128
 71
464
 72
466
 73
465
 74
463
 0
VERTEX
 8
0
 10
0.25
 20
0.25
 30
0
 70
128
 71
434
 72
438
 73
422
 74
416
 0
VERTEX
 8
0
 10
0.25
 20
0.25
 30
0
 70
128
 71
463
 72
465
 73
438
 74
434
 0
VERTEX
 8
0
 10
0.25
 20
0.25
 30
0
 70
128
 71
94
 72
76
 73
78
 74
91
 0
VERTEX
 8
0
 10
0.25
 20
0.25
 30
0
 70
128
 71
193
 72
185
 73
188
 74
189
 0
VERTEX
 8
0
 10
0.25
 20
0.25
 30
0
 70
128
 71
189
 72
91
 73
78
 74
206
 0
VERTEX
 8
0
 10
0.25
 20
0.25
 30
0
 70
128
 71
87
 72
94
 73
91
 74
90
 0
VERTEX
 8
0
 10
0.25
 20
0.25
 30
0
 70
128
 71
308
 72
307
 73
436
 74
437
 0
VERTEX
 8
0
 10
0.25
 20
0.25
 30
0
 70
128
 71
414
 72
432
 73
436
 74
420
 0
VERTEX
 8
0
 10
0.25
 20
0.25
 30
0
 70
128
 71
317
 72
316
 73
320
 74
321
 0
VERTEX
 8
0
 10
0.25
 20
0.25
 30
0
 70
128
 71
321
 72
420
 73
436
 74
307
 0
VERTEX
 8
0
 10
0.25
 20
0.25
 30
0
 70
128
 71
413
 72
414
 73
420
 74
419
 0
VERTEX
 8
0
 10
0.25
 20
0.25
 30
0
 70
128
 71
208
 72
191
 73
422
 74
438
 0
VERTEX
 8
0
 10
0.25
 20
0.25
 30
0
 70
128
 71
238
 72
208
 73
438
 74
465
 0
VERTEX
 8
0
 10
0.25
 20
0.25
 30
0
 70
128
 71
247
 72
249
 73
237
 74
239
 0
VERTEX
 8
0
 10
0.25
 20
0.25
 30
0
 70
128
 71
239
 72
238
 73
465
 74
466
 0
VERTEX
 8
0
 10
0.25
 20
0.25
 30
0
 70
128
 71
473
 72
475
 73
466
 74
464
 0
VERTEX
 8
0
 10
0.25
 20
0.25
 30
0
 70
128
 71
185
 72
155
 73
161
 74
188
 0
VERTEX
 8
0
 10
0.25
 20
0.25
 30
0
 70
128
 71
90
 72
91
 73
189
 74
188
 0
VERTEX
 8
0
 10
0.25
 20
0.25
 30
0
 70
128
 71
113
 72
87
 73
90
 74
112
 0
VERTEX
 8
0
 10
0.25
 20
0.25
 30
0
 70
128
 71
316
 72
336
 73
340
 74
320
 0
VERTEX
 8
0
 10
0.25
 20
0.25
 30
0
 70
128
 71
321
 72
320
 73
419
 74
420
 0
VERTEX
 8
0
 10
0.25
 20
0.25
 30
0
 70
128
 71
384
 72
413
 73
419
 74
392
 0
VERTEX
 8
0
 10
0.25
 20
0.25
 30
0
 70
128
 71
248
 72
246
 73
249
 74
247
 0
VERTEX
 8
0
 10
0.25
 20
0.25
 30
0
 70
128
 71
247
 72
239
 73
466
 74
475
 0
VERTEX
 8
0
 10
0.25
 20
0.25
 30
0
 70
128
 71
474
 72
476
 73
475
 74
473
 0
VERTEX
 8
0
 10
0.25
 20
0.25
 30
0
 70
128
 71
155
 72
167
 73
160
 74
161
 0
VERTEX
 8
0
 10
0.25
 20
0.25
 30
0
 70
128
 71
188
 72
161
 73
112
 74
90
 0
VERTEX
 8
0
 10
0.25
 20
0.25
 30
0
 70
128
 71
108
 72
113
 73
112
 74
111
 0
VERTEX
 8
0
 10
0.25
 20
0.25
 30
0
 70
128
 71
336
 72
335
 73
339
 74
340
 0
VERTEX
 8
0
 10
0.25
 20
0.25
 30
0
 70
128
 71
392
 72
419
 73
320
 74
340
 0
VERTEX
 8
0
 10
0.25
 20
0.25
 30
0
 70
128
 71
383
 72
384
 73
392
 74
391
 0
VERTEX
 8
0
 10
0.25
 20
0.25
 30
0
 70
128
 71
255
 72
257
 73
246
 74
248
 0
VERTEX
 8
0
 10
0.25
 20
0.25
 30
0
 70
128
 71
248
 72
247
 73
475
 74
476
 0
VERTEX
 8
0
 10
0.25
 20
0.25
 30
0
 70
128
 71
256
 72
254
 73
257
 74
255
 0
VERTEX
 8
0
 10
0.25
 20
0.25
 30
0
 70
128
 71
260
 72
261
 73
254
 74
256
 0
VERTEX
 8
0
 10
0.25
 20
0.25
 30
0
 70
128
 71
487
 72
488
 73
484
 74
482
 0
VERTEX
 8
0
 10
0.25
 20
0.25
 30
0
 70
128
 71
481
 72
483
 73
476
 74
474
 0
VERTEX
 8
0
 10
0.25
 20
0.25
 30
0
 70
128
 71
140
 72
160
 73
167
 74
145
 0
VERTEX
 8
0
 10
0.25
 20
0.25
 30
0
 70
128
 71
112
 72
161
 73
160
 74
111
 0
VERTEX
 8
0
 10
0.25
 20
0.25
 30
0
 70
128
 71
108
 72
111
 73
122
 74
119
 0
VERTEX
 8
0
 10
0.25
 20
0.25
 30
0
 70
128
 71
145
 72
134
 73
139
 74
140
 0
VERTEX
 8
0
 10
0.25
 20
0.25
 30
0
 70
128
 71
123
 72
119
 73
122
 74
121
 0
VERTEX
 8
0
 10
0.25
 20
0.25
 30
0
 70
128
 71
339
 72
335
 73
347
 74
350
 0
VERTEX
 8
0
 10
0.25
 20
0.25
 30
0
 70
128
 71
391
 72
369
 73
362
 74
383
 0
VERTEX
 8
0
 10
0.25
 20
0.25
 30
0
 70
128
 71
361
 72
362
 73
369
 74
368
 0
VERTEX
 8
0
 10
0.25
 20
0.25
 30
0
 70
128
 71
347
 72
346
 73
349
 74
350
 0
VERTEX
 8
0
 10
0.25
 20
0.25
 30
0
 70
128
 71
255
 72
248
 73
476
 74
483
 0
VERTEX
 8
0
 10
0.25
 20
0.25
 30
0
 70
128
 71
256
 72
255
 73
483
 74
484
 0
VERTEX
 8
0
 10
0.25
 20
0.25
 30
0
 70
128
 71
263
 72
265
 73
261
 74
260
 0
VERTEX
 8
0
 10
0.25
 20
0.25
 30
0
 70
128
 71
260
 72
256
 73
484
 74
488
 0
VERTEX
 8
0
 10
0.25
 20
0.25
 30
0
 70
128
 71
490
 72
492
 73
488
 74
487
 0
VERTEX
 8
0
 10
0.25
 20
0.25
 30
0
 70
128
 71
140
 72
122
 73
111
 74
160
 0
VERTEX
 8
0
 10
0.25
 20
0.25
 30
0
 70
128
 71
154
 72
159
 73
139
 74
134
 0
VERTEX
 8
0
 10
0.25
 20
0.25
 30
0
 70
128
 71
140
 72
139
 73
121
 74
122
 0
VERTEX
 8
0
 10
0.25
 20
0.25
 30
0
 70
128
 71
121
 72
110
 73
107
 74
123
 0
VERTEX
 8
0
 10
0.25
 20
0.25
 30
0
 70
128
 71
350
 72
369
 73
391
 74
339
 0
VERTEX
 8
0
 10
0.25
 20
0.25
 30
0
 70
128
 71
368
 72
369
 73
350
 74
349
 0
VERTEX
 8
0
 10
0.25
 20
0.25
 30
0
 70
128
 71
390
 72
382
 73
361
 74
368
 0
VERTEX
 8
0
 10
0.25
 20
0.25
 30
0
 70
128
 71
338
 72
349
 73
346
 74
334
 0
VERTEX
 8
0
 10
0.25
 20
0.25
 30
0
 70
128
 71
264
 72
266
 73
265
 74
263
 0
VERTEX
 8
0
 10
0.25
 20
0.25
 30
0
 70
128
 71
263
 72
260
 73
488
 74
492
 0
VERTEX
 8
0
 10
0.25
 20
0.25
 30
0
 70
128
 71
491
 72
493
 73
492
 74
490
 0
VERTEX
 8
0
 10
0.25
 20
0.25
 30
0
 70
128
 71
166
 72
158
 73
159
 74
154
 0
VERTEX
 8
0
 10
0.25
 20
0.25
 30
0
 70
128
 71
121
 72
139
 73
159
 74
110
 0
VERTEX
 8
0
 10
0.25
 20
0.25
 30
0
 70
128
 71
106
 72
107
 73
110
 74
109
 0
VERTEX
 8
0
 10
0.25
 20
0.25
 30
0
 70
128
 71
138
 72
158
 73
166
 74
133
 0
VERTEX
 8
0
 10
0.25
 20
0.25
 30
0
 70
128
 71
106
 72
109
 73
120
 74
118
 0
VERTEX
 8
0
 10
0.25
 20
0.25
 30
0
 70
128
 71
133
 72
178
 73
179
 74
138
 0
VERTEX
 8
0
 10
0.25
 20
0.25
 30
0
 70
128
 71
99
 72
118
 73
120
 74
100
 0
VERTEX
 8
0
 10
0.25
 20
0.25
 30
0
 70
128
 71
368
 72
349
 73
338
 74
390
 0
VERTEX
 8
0
 10
0.25
 20
0.25
 30
0
 70
128
 71
389
 72
381
 73
382
 74
390
 0
VERTEX
 8
0
 10
0.25
 20
0.25
 30
0
 70
128
 71
389
 72
367
 73
360
 74
381
 0
VERTEX
 8
0
 10
0.25
 20
0.25
 30
0
 70
128
 71
367
 72
407
 73
405
 74
360
 0
VERTEX
 8
0
 10
0.25
 20
0.25
 30
0
 70
128
 71
345
 72
326
 73
327
 74
348
 0
VERTEX
 8
0
 10
0.25
 20
0.25
 30
0
 70
128
 71
337
 72
333
 73
345
 74
348
 0
VERTEX
 8
0
 10
0.25
 20
0.25
 30
0
 70
128
 71
334
 72
333
 73
337
 74
338
 0
VERTEX
 8
0
 10
0.25
 20
0.25
 30
0
 70
128
 71
270
 72
269
 73
266
 74
264
 0
VERTEX
 8
0
 10
0.25
 20
0.25
 30
0
 70
128
 71
264
 72
263
 73
252
 0
VERTEX
 8
0
 10
0.25
 20
0.25
 30
0
 70
128
 71
263
 72
492
 73
479
 74
252
 0
VERTEX
 8
0
 10
0.25
 20
0.25
 30
0
 70
128
 71
273
 72
272
 73
269
 74
270
 0
VERTEX
 8
0
 10
0.25
 20
0.25
 30
0
 70
128
 71
277
 72
272
 73
273
 74
275
 0
VERTEX
 8
0
 10
0.25
 20
0.25
 30
0
 70
128
 71
504
 72
500
 73
499
 74
502
 0
VERTEX
 8
0
 10
0.25
 20
0.25
 30
0
 70
128
 71
496
 72
497
 73
493
 74
491
 0
VERTEX
 8
0
 10
0.25
 20
0.25
 30
0
 70
128
 71
499
 72
500
 73
497
 74
496
 0
VERTEX
 8
0
 10
0.25
 20
0.25
 30
0
 70
128
 71
493
 72
479
 73
492
 0
VERTEX
 8
0
 10
0.25
 20
0.25
 30
0
 70
128
 71
158
 72
109
 73
110
 74
159
 0
VERTEX
 8
0
 10
0.25
 20
0.25
 30
0
 70
128
 71
138
 72
120
 73
109
 74
158
 0
VERTEX
 8
0
 10
0.25
 20
0.25
 30
0
 70
128
 71
178
 72
184
 73
187
 74
179
 0
VERTEX
 8
0
 10
0.25
 20
0.25
 30
0
 70
128
 71
138
 72
179
 73
100
 74
120
 0
VERTEX
 8
0
 10
0.25
 20
0.25
 30
0
 70
128
 71
93
 72
99
 73
100
 74
89
 0
VERTEX
 8
0
 10
0.25
 20
0.25
 30
0
 70
128
 71
337
 72
389
 73
390
 74
338
 0
VERTEX
 8
0
 10
0.25
 20
0.25
 30
0
 70
128
 71
348
 72
367
 73
389
 74
337
 0
VERTEX
 8
0
 10
0.25
 20
0.25
 30
0
 70
128
 71
407
 72
367
 73
348
 74
327
 0
VERTEX
 8
0
 10
0.25
 20
0.25
 30
0
 70
128
 71
407
 72
418
 73
412
 74
405
 0
VERTEX
 8
0
 10
0.25
 20
0.25
 30
0
 70
128
 71
326
 72
315
 73
319
 74
327
 0
VERTEX
 8
0
 10
0.25
 20
0.25
 30
0
 70
128
 71
264
 72
23
 73
24
 74
270
 0
VERTEX
 8
0
 10
0.25
 20
0.25
 30
0
 70
128
 71
23
 72
264
 73
252
 74
22
 0
VERTEX
 8
0
 10
0.25
 20
0.25
 30
0
 70
128
 71
252
 72
479
 73
461
 74
234
 0
VERTEX
 8
0
 10
0.25
 20
0.25
 30
0
 70
128
 71
270
 72
24
 73
25
 74
273
 0
VERTEX
 8
0
 10
0.25
 20
0.25
 30
0
 70
128
 71
273
 72
25
 73
26
 74
275
 0
VERTEX
 8
0
 10
0.25
 20
0.25
 30
0
 70
128
 71
276
 72
278
 73
277
 74
275
 0
VERTEX
 8
0
 10
0.25
 20
0.25
 30
0
 70
128
 71
503
 72
505
 73
504
 74
502
 0
VERTEX
 8
0
 10
0.25
 20
0.25
 30
0
 70
128
 71
26
 72
25
 73
500
 74
504
 0
VERTEX
 8
0
 10
0.25
 20
0.25
 30
0
 70
128
 71
497
 72
24
 73
23
 74
493
 0
VERTEX
 8
0
 10
0.25
 20
0.25
 30
0
 70
128
 71
500
 72
25
 73
24
 74
497
 0
VERTEX
 8
0
 10
0.25
 20
0.25
 30
0
 70
128
 71
22
 72
479
 73
493
 74
23
 0
VERTEX
 8
0
 10
0.25
 20
0.25
 30
0
 70
128
 71
184
 72
192
 73
186
 74
187
 0
VERTEX
 8
0
 10
0.25
 20
0.25
 30
0
 70
128
 71
89
 72
100
 73
179
 74
187
 0
VERTEX
 8
0
 10
0.25
 20
0.25
 30
0
 70
128
 71
92
 72
93
 73
89
 74
88
 0
VERTEX
 8
0
 10
0.25
 20
0.25
 30
0
 70
128
 71
192
 72
226
 73
221
 74
186
 0
VERTEX
 8
0
 10
0.25
 20
0.25
 30
0
 70
128
 71
64
 72
92
 73
88
 74
58
 0
VERTEX
 8
0
 10
0.25
 20
0.25
 30
0
 70
128
 71
418
 72
407
 73
327
 74
319
 0
VERTEX
 8
0
 10
0.25
 20
0.25
 30
0
 70
128
 71
411
 72
412
 73
418
 74
417
 0
VERTEX
 8
0
 10
0.25
 20
0.25
 30
0
 70
128
 71
446
 72
411
 73
417
 74
452
 0
VERTEX
 8
0
 10
0.25
 20
0.25
 30
0
 70
128
 71
314
 72
284
 73
291
 74
318
 0
VERTEX
 8
0
 10
0.25
 20
0.25
 30
0
 70
128
 71
315
 72
314
 73
318
 74
319
 0
VERTEX
 8
0
 10
0.25
 20
0.25
 30
0
 70
128
 71
22
 72
252
 73
244
 74
21
 0
VERTEX
 8
0
 10
0.25
 20
0.25
 30
0
 70
128
 71
469
 72
461
 73
479
 74
471
 0
VERTEX
 8
0
 10
0.25
 20
0.25
 30
0
 70
128
 71
358
 72
131
 73
234
 74
461
 0
VERTEX
 8
0
 10
0.25
 20
0.25
 30
0
 70
128
 71
244
 72
252
 73
234
 74
242
 0
VERTEX
 8
0
 10
0.25
 20
0.25
 30
0
 70
128
 71
26
 72
27
 73
276
 74
275
 0
VERTEX
 8
0
 10
0.25
 20
0.25
 30
0
 70
128
 71
7
 72
278
 73
276
 74
27
 0
VERTEX
 8
0
 10
0.25
 20
0.25
 30
0
 70
128
 71
503
 72
7
 73
27
 74
505
 0
VERTEX
 8
0
 10
0.25
 20
0.25
 30
0
 70
128
 71
27
 72
26
 73
504
 74
505
 0
VERTEX
 8
0
 10
0.25
 20
0.25
 30
0
 70
128
 71
21
 72
471
 73
479
 74
22
 0
VERTEX
 8
0
 10
0.25
 20
0.25
 30
0
 70
128
 71
88
 72
89
 73
187
 74
186
 0
VERTEX
 8
0
 10
0.25
 20
0.25
 30
0
 70
128
 71
225
 72
220
 73
221
 74
226
 0
VERTEX
 8
0
 10
0.25
 20
0.25
 30
0
 70
128
 71
58
 72
88
 73
186
 74
221
 0
VERTEX
 8
0
 10
0.25
 20
0.25
 30
0
 70
128
 71
63
 72
64
 73
58
 74
57
 0
VERTEX
 8
0
 10
0.25
 20
0.25
 30
0
 70
128
 71
319
 72
318
 73
417
 74
418
 0
VERTEX
 8
0
 10
0.25
 20
0.25
 30
0
 70
128
 71
318
 72
291
 73
452
 74
417
 0
VERTEX
 8
0
 10
0.25
 20
0.25
 30
0
 70
128
 71
451
 72
445
 73
446
 74
452
 0
VERTEX
 8
0
 10
0.25
 20
0.25
 30
0
 70
128
 71
284
 72
283
 73
290
 74
291
 0
VERTEX
 8
0
 10
0.25
 20
0.25
 30
0
 70
128
 71
21
 72
244
 73
242
 74
20
 0
VERTEX
 8
0
 10
0.25
 20
0.25
 30
0
 70
128
 71
19
 72
461
 73
469
 74
20
 0
VERTEX
 8
0
 10
0.25
 20
0.25
 30
0
 70
128
 71
20
 72
469
 73
471
 74
21
 0
VERTEX
 8
0
 10
0.25
 20
0.25
 30
0
 70
128
 71
358
 72
354
 73
127
 74
131
 0
VERTEX
 8
0
 10
0.25
 20
0.25
 30
0
 70
128
 71
202
 72
234
 73
131
 0
VERTEX
 8
0
 10
0.25
 20
0.25
 30
0
 70
128
 71
429
 72
358
 73
461
 0
VERTEX
 8
0
 10
0.25
 20
0.25
 30
0
 70
128
 71
20
 72
242
 73
234
 74
19
 0
VERTEX
 8
0
 10
0.25
 20
0.25
 30
0
 70
128
 71
225
 72
209
 73
205
 74
220
 0
VERTEX
 8
0
 10
0.25
 20
0.25
 30
0
 70
128
 71
57
 72
58
 73
221
 74
220
 0
VERTEX
 8
0
 10
0.25
 20
0.25
 30
0
 70
128
 71
80
 72
63
 73
57
 74
77
 0
VERTEX
 8
0
 10
0.25
 20
0.25
 30
0
 70
128
 71
291
 72
290
 73
451
 74
452
 0
VERTEX
 8
0
 10
0.25
 20
0.25
 30
0
 70
128
 71
431
 72
445
 73
451
 74
435
 0
VERTEX
 8
0
 10
0.25
 20
0.25
 30
0
 70
128
 71
283
 72
303
 73
306
 74
290
 0
VERTEX
 8
0
 10
0.25
 20
0.25
 30
0
 70
128
 71
18
 72
429
 73
461
 74
19
 0
VERTEX
 8
0
 10
0.25
 20
0.25
 30
0
 70
128
 71
356
 72
354
 73
358
 0
VERTEX
 8
0
 10
0.25
 20
0.25
 30
0
 70
128
 71
354
 72
331
 73
104
 74
127
 0
VERTEX
 8
0
 10
0.25
 20
0.25
 30
0
 70
128
 71
129
 72
131
 73
127
 0
VERTEX
 8
0
 10
0.25
 20
0.25
 30
0
 70
128
 71
19
 72
234
 73
202
 74
18
 0
VERTEX
 8
0
 10
0.25
 20
0.25
 30
0
 70
128
 71
18
 72
202
 73
131
 74
17
 0
VERTEX
 8
0
 10
0.25
 20
0.25
 30
0
 70
128
 71
17
 72
358
 73
429
 74
18
 0
VERTEX
 8
0
 10
0.25
 20
0.25
 30
0
 70
128
 71
224
 72
219
 73
205
 74
209
 0
VERTEX
 8
0
 10
0.25
 20
0.25
 30
0
 70
128
 71
220
 72
205
 73
77
 74
57
 0
VERTEX
 8
0
 10
0.25
 20
0.25
 30
0
 70
128
 71
77
 72
56
 73
62
 74
80
 0
VERTEX
 8
0
 10
0.25
 20
0.25
 30
0
 70
128
 71
55
 72
218
 73
216
 74
61
 0
VERTEX
 8
0
 10
0.25
 20
0.25
 30
0
 70
128
 71
435
 72
451
 73
290
 74
306
 0
VERTEX
 8
0
 10
0.25
 20
0.25
 30
0
 70
128
 71
450
 72
444
 73
431
 74
435
 0
VERTEX
 8
0
 10
0.25
 20
0.25
 30
0
 70
128
 71
449
 72
288
 73
281
 74
443
 0
VERTEX
 8
0
 10
0.25
 20
0.25
 30
0
 70
128
 71
289
 72
306
 73
303
 74
282
 0
VERTEX
 8
0
 10
0.25
 20
0.25
 30
0
 70
128
 71
15
 72
354
 73
356
 74
16
 0
VERTEX
 8
0
 10
0.25
 20
0.25
 30
0
 70
128
 71
16
 72
356
 73
358
 74
17
 0
VERTEX
 8
0
 10
0.25
 20
0.25
 30
0
 70
128
 71
14
 72
331
 73
354
 74
15
 0
VERTEX
 8
0
 10
0.25
 20
0.25
 30
0
 70
128
 71
331
 72
312
 73
85
 74
104
 0
VERTEX
 8
0
 10
0.25
 20
0.25
 30
0
 70
128
 71
15
 72
127
 73
104
 74
14
 0
VERTEX
 8
0
 10
0.25
 20
0.25
 30
0
 70
128
 71
17
 72
131
 73
129
 74
16
 0
VERTEX
 8
0
 10
0.25
 20
0.25
 30
0
 70
128
 71
16
 72
129
 73
127
 74
15
 0
VERTEX
 8
0
 10
0.25
 20
0.25
 30
0
 70
128
 71
224
 72
216
 73
218
 74
219
 0
VERTEX
 8
0
 10
0.25
 20
0.25
 30
0
 70
128
 71
77
 72
205
 73
219
 74
56
 0
VERTEX
 8
0
 10
0.25
 20
0.25
 30
0
 70
128
 71
61
 72
62
 73
56
 74
55
 0
VERTEX
 8
0
 10
0.25
 20
0.25
 30
0
 70
128
 71
219
 72
218
 73
55
 74
56
 0
VERTEX
 8
0
 10
0.25
 20
0.25
 30
0
 70
128
 71
435
 72
306
 73
289
 74
450
 0
VERTEX
 8
0
 10
0.25
 20
0.25
 30
0
 70
128
 71
443
 72
444
 73
450
 74
449
 0
VERTEX
 8
0
 10
0.25
 20
0.25
 30
0
 70
128
 71
449
 72
450
 73
289
 74
288
 0
VERTEX
 8
0
 10
0.25
 20
0.25
 30
0
 70
128
 71
282
 72
281
 73
288
 74
289
 0
VERTEX
 8
0
 10
0.25
 20
0.25
 30
0
 70
128
 71
13
 72
329
 73
331
 74
14
 0
VERTEX
 8
0
 10
0.25
 20
0.25
 30
0
 70
128
 71
329
 72
312
 73
331
 0
VERTEX
 8
0
 10
0.25
 20
0.25
 30
0
 70
128
 71
312
 72
3
 73
50
 74
85
 0
VERTEX
 8
0
 10
0.25
 20
0.25
 30
0
 70
128
 71
102
 72
104
 73
85
 0
VERTEX
 8
0
 10
0.25
 20
0.25
 30
0
 70
128
 71
14
 72
104
 73
102
 74
13
 0
VERTEX
 8
0
 10
0.25
 20
0.25
 30
0
 70
128
 71
12
 72
312
 73
329
 74
13
 0
VERTEX
 8
0
 10
0.25
 20
0.25
 30
0
 70
128
 71
1
 72
3
 73
312
 74
301
 0
VERTEX
 8
0
 10
0.25
 20
0.25
 30
0
 70
128
 71
48
 72
50
 73
3
 74
5
 0
VERTEX
 8
0
 10
0.25
 20
0.25
 30
0
 70
128
 71
74
 72
85
 73
50
 74
52
 0
VERTEX
 8
0
 10
0.25
 20
0.25
 30
0
 70
128
 71
13
 72
102
 73
85
 74
12
 0
VERTEX
 8
0
 10
0.25
 20
0.25
 30
0
 70
128
 71
11
 72
301
 73
312
 74
12
 0
VERTEX
 8
0
 10
0.25
 20
0.25
 30
0
 70
128
 71
1
 72
10
 73
9
 74
3
 0
VERTEX
 8
0
 10
0.25
 20
0.25
 30
0
 70
128
 71
10
 72
1
 73
301
 74
11
 0
VERTEX
 8
0
 10
0.25
 20
0.25
 30
0
 70
128
 71
9
 72
50
 73
48
 74
8
 0
VERTEX
 8
0
 10
0.25
 20
0.25
 30
0
 70
128
 71
8
 72
5
 73
3
 74
9
 0
VERTEX
 8
0
 10
0.25
 20
0.25
 30
0
 70
128
 71
8
 72
48
 73
5
 0
VERTEX
 8
0
 10
0.25
 20
0.25
 30
0
 70
128
 71
12
 72
85
 73
74
 74
11
 0
VERTEX
 8
0
 10
0.25
 20
0.25
 30
0
 70
128
 71
10
 72
52
 73
50
 74
9
 0
VERTEX
 8
0
 10
0.25
 20
0.25
 30
0
 70
128
 71
11
 72
74
 73
52
 74
10
 0
VERTEX
 8
0
 10
0.25
 20
0.25
 30
0
 70
128
 71
72
 72
73
 73
67
 0
SEQEND
 8
0
 0
ENDSEC
 0
EOF
