 0
SECTION
 2
HEADER
 9
$ACADVER
 1
AC1009
 0
ENDSEC
 0
SECTION
 2
BLOCKS
 0
ENDSEC
 0
SECTION
 2
ENTITIES
 0
POLYLINE
 8
0
 62
0
 66
1
 10
0
 20
0
 30
0
 70
64
 71
141
 72
145
 0
VERTEX
 8
0
 10
0.005010930821299553
 20
0.01209745742380619
 30
0.10563287138938904
 70
192
 0
VERTEX
 8
0
 10
0.005010930821299553
 20
0.01209745742380619
 30
0.1102328673005104
 70
192
 0
VERTEX
 8
0
 10
0.005010930821299553
 20
-0.01209745742380619
 30
0.10563287138938904
 70
192
 0
VERTEX
 8
0
 10
0.005010930821299553
 20
-0.01209745742380619
 30
0.1102328673005104
 70
192
 0
VERTEX
 8
0
 10
0.00809102226048708
 20
0.01953345723450184
 30
0.046947065740823746
 70
192
 0
VERTEX
 8
0
 10
0.00809102226048708
 20
-0.01953345723450184
 30
0.046947065740823746
 70
192
 0
VERTEX
 8
0
 10
0.00875761453062296
 20
0.021142752841114998
 30
0.03956557810306549
 70
192
 0
VERTEX
 8
0
 10
0.00875761453062296
 20
-0.021142752841114998
 30
0.03956557810306549
 70
192
 0
VERTEX
 8
0
 10
0.009290563873946667
 20
0.02242940478026867
 30
0.056234922260046005
 70
192
 0
VERTEX
 8
0
 10
0.009290563873946667
 20
-0.02242940478026867
 30
0.056234922260046005
 70
192
 0
VERTEX
 8
0
 10
0.009908384643495083
 20
0.023920956999063492
 30
0.10352955758571625
 70
192
 0
VERTEX
 8
0
 10
0.009908384643495083
 20
-0.023920956999063492
 30
0.10352955758571625
 70
192
 0
VERTEX
 8
0
 10
0.0102018341422081
 20
0.02462940476834774
 30
0.05173492059111595
 70
192
 0
VERTEX
 8
0
 10
0.0102018341422081
 20
-0.02462940476834774
 30
0.05173492059111595
 70
192
 0
VERTEX
 8
0
 10
0.012012192979454994
 20
0.028999995440244675
 30
0.03199999779462814
 70
192
 0
VERTEX
 8
0
 10
0.012012192979454994
 20
0.028999995440244675
 30
0.037999995052814484
 70
192
 0
VERTEX
 8
0
 10
0.012012192979454994
 20
-0.028999995440244675
 30
0.03199999779462814
 70
192
 0
VERTEX
 8
0
 10
0.012012192979454994
 20
-0.028999995440244675
 30
0.037999995052814484
 70
192
 0
VERTEX
 8
0
 10
0.01209745742380619
 20
0.005010930821299553
 30
0.10563287138938904
 70
192
 0
VERTEX
 8
0
 10
0.01209745742380619
 20
0.005010930821299553
 30
0.1102328673005104
 70
192
 0
VERTEX
 8
0
 10
0.01209745742380619
 20
-0.005010930821299553
 30
0.10563287138938904
 70
192
 0
VERTEX
 8
0
 10
0.01209745742380619
 20
-0.005010930821299553
 30
0.1102328673005104
 70
192
 0
VERTEX
 8
0
 10
0.013428312726318836
 20
0.032418813556432724
 30
0.06290056556463242
 70
192
 0
VERTEX
 8
0
 10
0.013428312726318836
 20
-0.032418813556432724
 30
0.06290056556463242
 70
192
 0
VERTEX
 8
0
 10
0.013863934203982353
 20
0.03347049653530121
 30
0.09624770283699036
 70
192
 0
VERTEX
 8
0
 10
0.013863934203982353
 20
-0.03347049653530121
 30
0.09624770283699036
 70
192
 0
VERTEX
 8
0
 10
0.014982213266193867
 20
0.03617026284337044
 30
0.03049112670123577
 70
192
 0
VERTEX
 8
0
 10
0.014982213266193867
 20
-0.03617026284337044
 30
0.03049112670123577
 70
192
 0
VERTEX
 8
0
 10
0.015843426808714867
 20
0.038249410688877106
 30
0.07339929044246674
 70
192
 0
VERTEX
 8
0
 10
0.015843426808714867
 20
-0.038249410688877106
 30
0.07339929044246674
 70
192
 0
VERTEX
 8
0
 10
0.016000226140022278
 20
0.03862796351313591
 30
0.08540244400501251
 70
192
 0
VERTEX
 8
0
 10
0.016000226140022278
 20
-0.03862796351313591
 30
0.08540244400501251
 70
192
 0
VERTEX
 8
0
 10
0.0172418300062418
 20
0.041625455021858215
 30
0.025599274784326553
 70
192
 0
VERTEX
 8
0
 10
0.0172418300062418
 20
-0.041625455021858215
 30
0.025599274784326553
 70
192
 0
VERTEX
 8
0
 10
0.018185576424002647
 20
0.04390386492013931
 30
0.018635209649801254
 70
192
 0
VERTEX
 8
0
 10
0.018185576424002647
 20
-0.04390386492013931
 30
0.018635209649801254
 70
192
 0
VERTEX
 8
0
 10
0.01953345723450184
 20
0.00809102226048708
 30
0.046947065740823746
 70
192
 0
VERTEX
 8
0
 10
0.01953345723450184
 20
-0.00809102226048708
 30
0.046947065740823746
 70
192
 0
VERTEX
 8
0
 10
0.020710676908493042
 20
0.04999999701976776
 30
0.016999999061226845
 70
192
 0
VERTEX
 8
0
 10
0.020710676908493042
 20
-0.04999999701976776
 30
0.016999999061226845
 70
192
 0
VERTEX
 8
0
 10
0.021142752841114998
 20
0.00875761453062296
 30
0.03956557810306549
 70
192
 0
VERTEX
 8
0
 10
0.021142752841114998
 20
-0.008757615461945534
 30
0.03956557810306549
 70
192
 0
VERTEX
 8
0
 10
0.02242940478026867
 20
0.009290563873946667
 30
0.056234922260046005
 70
192
 0
VERTEX
 8
0
 10
0.02242940478026867
 20
-0.009290563873946667
 30
0.056234922260046005
 70
192
 0
VERTEX
 8
0
 10
0.023920956999063492
 20
0.009908384643495083
 30
0.10352955758571625
 70
192
 0
VERTEX
 8
0
 10
0.023920956999063492
 20
-0.009908384643495083
 30
0.10352955758571625
 70
192
 0
VERTEX
 8
0
 10
0.02462940476834774
 20
0.0102018341422081
 30
0.05173492059111595
 70
192
 0
VERTEX
 8
0
 10
0.02462940476834774
 20
-0.0102018341422081
 30
0.05173492059111595
 70
192
 0
VERTEX
 8
0
 10
0.028999995440244675
 20
0.012012192979454994
 30
0.03199999779462814
 70
192
 0
VERTEX
 8
0
 10
0.028999995440244675
 20
0.012012192979454994
 30
0.037999995052814484
 70
192
 0
VERTEX
 8
0
 10
0.028999995440244675
 20
-0.012012192979454994
 30
0.03199999779462814
 70
192
 0
VERTEX
 8
0
 10
0.028999995440244675
 20
-0.012012192979454994
 30
0.037999995052814484
 70
192
 0
VERTEX
 8
0
 10
0.032418813556432724
 20
0.013428312726318836
 30
0.06290056556463242
 70
192
 0
VERTEX
 8
0
 10
0.032418813556432724
 20
-0.013428312726318836
 30
0.06290056556463242
 70
192
 0
VERTEX
 8
0
 10
0.03347049653530121
 20
0.013863934203982353
 30
0.09624770283699036
 70
192
 0
VERTEX
 8
0
 10
0.03347049653530121
 20
-0.013863934203982353
 30
0.09624770283699036
 70
192
 0
VERTEX
 8
0
 10
0.03617026284337044
 20
0.014982213266193867
 30
0.03049112670123577
 70
192
 0
VERTEX
 8
0
 10
0.03617026284337044
 20
-0.014982213266193867
 30
0.03049112670123577
 70
192
 0
VERTEX
 8
0
 10
0.038249410688877106
 20
0.015843426808714867
 30
0.07339929044246674
 70
192
 0
VERTEX
 8
0
 10
0.038249410688877106
 20
-0.015843426808714867
 30
0.07339929044246674
 70
192
 0
VERTEX
 8
0
 10
0.03862796351313591
 20
0.016000226140022278
 30
0.08540244400501251
 70
192
 0
VERTEX
 8
0
 10
0.03862796351313591
 20
-0.016000226140022278
 30
0.08540244400501251
 70
192
 0
VERTEX
 8
0
 10
0.041625455021858215
 20
0.0172418300062418
 30
0.025599274784326553
 70
192
 0
VERTEX
 8
0
 10
0.041625455021858215
 20
-0.0172418300062418
 30
0.025599274784326553
 70
192
 0
VERTEX
 8
0
 10
0.04390386492013931
 20
0.018185576424002647
 30
0.018635209649801254
 70
192
 0
VERTEX
 8
0
 10
0.04390386492013931
 20
-0.018185576424002647
 30
0.018635209649801254
 70
192
 0
VERTEX
 8
0
 10
0.04999999701976776
 20
0.020710676908493042
 30
0.016999999061226845
 70
192
 0
VERTEX
 8
0
 10
0.04999999701976776
 20
0.04999999701976776
 30
0.0
 70
192
 0
VERTEX
 8
0
 10
0.04999999701976776
 20
-0.020710676908493042
 30
0.016999999061226845
 70
192
 0
VERTEX
 8
0
 10
0.04999999701976776
 20
-0.04999999701976776
 30
0.0
 70
192
 0
VERTEX
 8
0
 10
-5.301536335821711e-16
 20
-9.975912240375862e-14
 30
0.11699999123811722
 70
192
 0
VERTEX
 8
0
 10
-0.005010930821299553
 20
0.01209745742380619
 30
0.10563287138938904
 70
192
 0
VERTEX
 8
0
 10
-0.005010930821299553
 20
0.01209745742380619
 30
0.1102328673005104
 70
192
 0
VERTEX
 8
0
 10
-0.005010930821299553
 20
-0.01209745742380619
 30
0.10563287138938904
 70
192
 0
VERTEX
 8
0
 10
-0.005010930821299553
 20
-0.01209745742380619
 30
0.1102328673005104
 70
192
 0
VERTEX
 8
0
 10
-0.00809102226048708
 20
0.01953345723450184
 30
0.046947065740823746
 70
192
 0
VERTEX
 8
0
 10
-0.00809102226048708
 20
-0.01953345723450184
 30
0.046947065740823746
 70
192
 0
VERTEX
 8
0
 10
-0.00875761453062296
 20
0.021142752841114998
 30
0.03956557810306549
 70
192
 0
VERTEX
 8
0
 10
-0.00875761453062296
 20
-0.021142752841114998
 30
0.03956557810306549
 70
192
 0
VERTEX
 8
0
 10
-0.009290563873946667
 20
0.02242940664291382
 30
0.056234922260046005
 70
192
 0
VERTEX
 8
0
 10
-0.009290563873946667
 20
-0.02242940478026867
 30
0.056234922260046005
 70
192
 0
VERTEX
 8
0
 10
-0.009908384643495083
 20
0.023920956999063492
 30
0.10352955758571625
 70
192
 0
VERTEX
 8
0
 10
-0.009908384643495083
 20
-0.023920956999063492
 30
0.10352955758571625
 70
192
 0
VERTEX
 8
0
 10
-0.0102018341422081
 20
0.02462940476834774
 30
0.05173492059111595
 70
192
 0
VERTEX
 8
0
 10
-0.0102018341422081
 20
-0.02462940476834774
 30
0.05173492059111595
 70
192
 0
VERTEX
 8
0
 10
-0.01201219204813242
 20
0.028999995440244675
 30
0.03199999779462814
 70
192
 0
VERTEX
 8
0
 10
-0.012012192979454994
 20
0.028999995440244675
 30
0.037999995052814484
 70
192
 0
VERTEX
 8
0
 10
-0.01201219204813242
 20
-0.028999995440244675
 30
0.03199999779462814
 70
192
 0
VERTEX
 8
0
 10
-0.012012192979454994
 20
-0.028999995440244675
 30
0.037999995052814484
 70
192
 0
VERTEX
 8
0
 10
-0.01209745742380619
 20
0.005010930821299553
 30
0.10563287138938904
 70
192
 0
VERTEX
 8
0
 10
-0.01209745742380619
 20
0.005010930821299553
 30
0.11023285984992981
 70
192
 0
VERTEX
 8
0
 10
-0.01209745742380619
 20
-0.005010930821299553
 30
0.10563287138938904
 70
192
 0
VERTEX
 8
0
 10
-0.01209745742380619
 20
-0.005010930821299553
 30
0.1102328673005104
 70
192
 0
VERTEX
 8
0
 10
-0.013428312726318836
 20
0.032418813556432724
 30
0.06290056556463242
 70
192
 0
VERTEX
 8
0
 10
-0.013428312726318836
 20
-0.032418813556432724
 30
0.06290056556463242
 70
192
 0
VERTEX
 8
0
 10
-0.013863934203982353
 20
0.03347049653530121
 30
0.09624769538640976
 70
192
 0
VERTEX
 8
0
 10
-0.013863934203982353
 20
-0.03347049653530121
 30
0.09624770283699036
 70
192
 0
VERTEX
 8
0
 10
-0.014982213266193867
 20
0.03617026284337044
 30
0.03049112670123577
 70
192
 0
VERTEX
 8
0
 10
-0.014982213266193867
 20
-0.03617026284337044
 30
0.03049112670123577
 70
192
 0
VERTEX
 8
0
 10
-0.015843426808714867
 20
0.038249410688877106
 30
0.07339929044246674
 70
192
 0
VERTEX
 8
0
 10
-0.015843424946069717
 20
-0.038249410688877106
 30
0.07339929044246674
 70
192
 0
VERTEX
 8
0
 10
-0.016000226140022278
 20
0.03862796351313591
 30
0.08540244400501251
 70
192
 0
VERTEX
 8
0
 10
-0.016000226140022278
 20
-0.03862796351313591
 30
0.08540244400501251
 70
192
 0
VERTEX
 8
0
 10
-0.0172418300062418
 20
0.041625455021858215
 30
0.025599274784326553
 70
192
 0
VERTEX
 8
0
 10
-0.0172418300062418
 20
-0.041625455021858215
 30
0.025599274784326553
 70
192
 0
VERTEX
 8
0
 10
-0.018185576424002647
 20
0.04390386492013931
 30
0.018635209649801254
 70
192
 0
VERTEX
 8
0
 10
-0.018185576424002647
 20
-0.04390386492013931
 30
0.018635209649801254
 70
192
 0
VERTEX
 8
0
 10
-0.01953345723450184
 20
0.00809102226048708
 30
0.046947065740823746
 70
192
 0
VERTEX
 8
0
 10
-0.01953345723450184
 20
-0.00809102226048708
 30
0.046947065740823746
 70
192
 0
VERTEX
 8
0
 10
-0.020710676908493042
 20
0.04999999701976776
 30
0.016999999061226845
 70
192
 0
VERTEX
 8
0
 10
-0.020710676908493042
 20
-0.04999999701976776
 30
0.016999999061226845
 70
192
 0
VERTEX
 8
0
 10
-0.021142752841114998
 20
0.00875761453062296
 30
0.03956557810306549
 70
192
 0
VERTEX
 8
0
 10
-0.021142752841114998
 20
-0.00875761453062296
 30
0.03956557810306549
 70
192
 0
VERTEX
 8
0
 10
-0.02242940478026867
 20
0.009290563873946667
 30
0.056234922260046005
 70
192
 0
VERTEX
 8
0
 10
-0.02242940478026867
 20
-0.009290563873946667
 30
0.056234922260046005
 70
192
 0
VERTEX
 8
0
 10
-0.023920956999063492
 20
0.009908384643495083
 30
0.10352955758571625
 70
192
 0
VERTEX
 8
0
 10
-0.023920956999063492
 20
-0.009908384643495083
 30
0.10352955758571625
 70
192
 0
VERTEX
 8
0
 10
-0.02462940476834774
 20
0.0102018341422081
 30
0.05173492059111595
 70
192
 0
VERTEX
 8
0
 10
-0.02462940476834774
 20
-0.0102018341422081
 30
0.05173492059111595
 70
192
 0
VERTEX
 8
0
 10
-0.028999995440244675
 20
0.012012192979454994
 30
0.03199999779462814
 70
192
 0
VERTEX
 8
0
 10
-0.028999995440244675
 20
0.01201219204813242
 30
0.037999995052814484
 70
192
 0
VERTEX
 8
0
 10
-0.028999995440244675
 20
-0.012012192979454994
 30
0.03199999779462814
 70
192
 0
VERTEX
 8
0
 10
-0.028999995440244675
 20
-0.012012192979454994
 30
0.037999995052814484
 70
192
 0
VERTEX
 8
0
 10
-0.032418813556432724
 20
0.013428312726318836
 30
0.06290056556463242
 70
192
 0
VERTEX
 8
0
 10
-0.032418813556432724
 20
-0.013428312726318836
 30
0.06290056556463242
 70
192
 0
VERTEX
 8
0
 10
-0.03347049653530121
 20
0.013863934203982353
 30
0.09624770283699036
 70
192
 0
VERTEX
 8
0
 10
-0.03347049653530121
 20
-0.013863934203982353
 30
0.09624770283699036
 70
192
 0
VERTEX
 8
0
 10
-0.03617026284337044
 20
0.014982213266193867
 30
0.03049112670123577
 70
192
 0
VERTEX
 8
0
 10
-0.03617026284337044
 20
-0.014982213266193867
 30
0.03049112670123577
 70
192
 0
VERTEX
 8
0
 10
-0.038249410688877106
 20
0.015843424946069717
 30
0.07339928299188614
 70
192
 0
VERTEX
 8
0
 10
-0.038249410688877106
 20
-0.015843426808714867
 30
0.07339929044246674
 70
192
 0
VERTEX
 8
0
 10
-0.03862796351313591
 20
0.016000226140022278
 30
0.08540244400501251
 70
192
 0
VERTEX
 8
0
 10
-0.03862796351313591
 20
-0.016000226140022278
 30
0.08540244400501251
 70
192
 0
VERTEX
 8
0
 10
-0.041625455021858215
 20
0.0172418300062418
 30
0.025599274784326553
 70
192
 0
VERTEX
 8
0
 10
-0.041625455021858215
 20
-0.0172418300062418
 30
0.025599274784326553
 70
192
 0
VERTEX
 8
0
 10
-0.04390386492013931
 20
0.018185576424002647
 30
0.018635209649801254
 70
192
 0
VERTEX
 8
0
 10
-0.04390386492013931
 20
-0.018185576424002647
 30
0.018635209649801254
 70
192
 0
VERTEX
 8
0
 10
-0.04999999701976776
 20
0.020710676908493042
 30
0.016999999061226845
 70
192
 0
VERTEX
 8
0
 10
-0.04999999701976776
 20
0.04999999701976776
 30
0.0
 70
192
 0
VERTEX
 8
0
 10
-0.04999999701976776
 20
-0.020710676908493042
 30
0.016999999061226845
 70
192
 0
VERTEX
 8
0
 10
-0.04999999701976776
 20
-0.04999999701976776
 30
0.0
 70
192
 0
VERTEX
 8
0
 10
0
 20
0
 30
0
 62
0
 70
128
 71
41
 72
42
 73
52
 74
50
 0
VERTEX
 8
0
 10
0
 20
0
 30
0
 62
0
 70
128
 71
42
 72
41
 73
37
 74
38
 0
VERTEX
 8
0
 10
0
 20
0
 30
0
 62
0
 70
128
 71
42
 72
8
 73
18
 74
52
 0
VERTEX
 8
0
 10
0
 20
0
 30
0
 62
0
 70
128
 71
50
 72
52
 73
51
 74
49
 0
VERTEX
 8
0
 10
0
 20
0
 30
0
 62
0
 70
128
 71
50
 72
16
 73
7
 74
41
 0
VERTEX
 8
0
 10
0
 20
0
 30
0
 62
0
 70
128
 71
5
 72
37
 73
41
 74
7
 0
VERTEX
 8
0
 10
0
 20
0
 30
0
 62
0
 70
128
 71
38
 72
37
 73
47
 74
48
 0
VERTEX
 8
0
 10
0
 20
0
 30
0
 62
0
 70
128
 71
8
 72
42
 73
38
 74
6
 0
VERTEX
 8
0
 10
0
 20
0
 30
0
 62
0
 70
128
 71
8
 72
79
 73
89
 74
18
 0
VERTEX
 8
0
 10
0
 20
0
 30
0
 62
0
 70
128
 71
17
 72
51
 73
52
 74
18
 0
VERTEX
 8
0
 10
0
 20
0
 30
0
 62
0
 70
128
 71
49
 72
51
 73
58
 74
57
 0
VERTEX
 8
0
 10
0
 20
0
 30
0
 62
0
 70
128
 71
16
 72
50
 73
49
 74
15
 0
VERTEX
 8
0
 10
0
 20
0
 30
0
 62
0
 70
128
 71
16
 72
87
 73
78
 74
7
 0
VERTEX
 8
0
 10
0
 20
0
 30
0
 62
0
 70
128
 71
37
 72
5
 73
13
 74
47
 0
VERTEX
 8
0
 10
0
 20
0
 30
0
 62
0
 70
128
 71
7
 72
78
 73
76
 74
5
 0
VERTEX
 8
0
 10
0
 20
0
 30
0
 62
0
 70
128
 71
48
 72
47
 73
43
 74
44
 0
VERTEX
 8
0
 10
0
 20
0
 30
0
 62
0
 70
128
 71
6
 72
38
 73
48
 74
14
 0
VERTEX
 8
0
 10
0
 20
0
 30
0
 62
0
 70
128
 71
6
 72
77
 73
79
 74
8
 0
VERTEX
 8
0
 10
0
 20
0
 30
0
 62
0
 70
128
 71
123
 72
89
 73
79
 74
113
 0
VERTEX
 8
0
 10
0
 20
0
 30
0
 62
0
 70
128
 71
88
 72
17
 73
18
 74
89
 0
VERTEX
 8
0
 10
0
 20
0
 30
0
 62
0
 70
128
 71
28
 72
58
 73
51
 74
17
 0
VERTEX
 8
0
 10
0
 20
0
 30
0
 62
0
 70
128
 71
64
 72
63
 73
57
 74
58
 0
VERTEX
 8
0
 10
0
 20
0
 30
0
 62
0
 70
128
 71
15
 72
49
 73
57
 74
27
 0
VERTEX
 8
0
 10
0
 20
0
 30
0
 62
0
 70
128
 71
87
 72
16
 73
15
 74
86
 0
VERTEX
 8
0
 10
0
 20
0
 30
0
 62
0
 70
128
 71
87
 72
121
 73
112
 74
78
 0
VERTEX
 8
0
 10
0
 20
0
 30
0
 62
0
 70
128
 71
84
 72
13
 73
5
 74
76
 0
VERTEX
 8
0
 10
0
 20
0
 30
0
 62
0
 70
128
 71
47
 72
13
 73
9
 74
43
 0
VERTEX
 8
0
 10
0
 20
0
 30
0
 62
0
 70
128
 71
108
 72
76
 73
78
 74
112
 0
VERTEX
 8
0
 10
0
 20
0
 30
0
 62
0
 70
128
 71
53
 72
54
 73
44
 74
43
 0
VERTEX
 8
0
 10
0
 20
0
 30
0
 62
0
 70
128
 71
44
 72
10
 73
14
 74
48
 0
VERTEX
 8
0
 10
0
 20
0
 30
0
 62
0
 70
128
 71
77
 72
6
 73
14
 74
85
 0
VERTEX
 8
0
 10
0
 20
0
 30
0
 62
0
 70
128
 71
113
 72
79
 73
77
 74
109
 0
VERTEX
 8
0
 10
0
 20
0
 30
0
 62
0
 70
128
 71
122
 72
88
 73
89
 74
123
 0
VERTEX
 8
0
 10
0
 20
0
 30
0
 62
0
 70
128
 71
121
 72
123
 73
113
 74
112
 0
VERTEX
 8
0
 10
0
 20
0
 30
0
 62
0
 70
128
 71
17
 72
88
 73
99
 74
28
 0
VERTEX
 8
0
 10
0
 20
0
 30
0
 62
0
 70
128
 71
34
 72
64
 73
58
 74
28
 0
VERTEX
 8
0
 10
0
 20
0
 30
0
 62
0
 70
128
 71
66
 72
65
 73
63
 74
64
 0
VERTEX
 8
0
 10
0
 20
0
 30
0
 62
0
 70
128
 71
63
 72
33
 73
27
 74
57
 0
VERTEX
 8
0
 10
0
 20
0
 30
0
 62
0
 70
128
 71
86
 72
15
 73
27
 74
98
 0
VERTEX
 8
0
 10
0
 20
0
 30
0
 62
0
 70
128
 71
121
 72
87
 73
86
 74
120
 0
VERTEX
 8
0
 10
0
 20
0
 30
0
 62
0
 70
128
 71
13
 72
84
 73
80
 74
9
 0
VERTEX
 8
0
 10
0
 20
0
 30
0
 62
0
 70
128
 71
118
 72
84
 73
76
 74
108
 0
VERTEX
 8
0
 10
0
 20
0
 30
0
 62
0
 70
128
 71
43
 72
9
 73
23
 74
53
 0
VERTEX
 8
0
 10
0
 20
0
 30
0
 62
0
 70
128
 71
109
 72
108
 73
112
 74
113
 0
VERTEX
 8
0
 10
0
 20
0
 30
0
 62
0
 70
128
 71
54
 72
53
 73
59
 74
60
 0
VERTEX
 8
0
 10
0
 20
0
 30
0
 62
0
 70
128
 71
54
 72
24
 73
10
 74
44
 0
VERTEX
 8
0
 10
0
 20
0
 30
0
 62
0
 70
128
 71
10
 72
81
 73
85
 74
14
 0
VERTEX
 8
0
 10
0
 20
0
 30
0
 62
0
 70
128
 71
109
 72
77
 73
85
 74
119
 0
VERTEX
 8
0
 10
0
 20
0
 30
0
 62
0
 70
128
 71
129
 72
99
 73
88
 74
122
 0
VERTEX
 8
0
 10
0
 20
0
 30
0
 62
0
 70
128
 71
120
 72
122
 73
123
 74
121
 0
VERTEX
 8
0
 10
0
 20
0
 30
0
 62
0
 70
128
 71
105
 72
34
 73
28
 74
99
 0
VERTEX
 8
0
 10
0
 20
0
 30
0
 62
0
 70
128
 71
36
 72
66
 73
64
 74
34
 0
VERTEX
 8
0
 10
0
 20
0
 30
0
 62
0
 70
128
 71
66
 72
69
 73
67
 74
65
 0
VERTEX
 8
0
 10
0
 20
0
 30
0
 62
0
 70
128
 71
65
 72
35
 73
33
 74
63
 0
VERTEX
 8
0
 10
0
 20
0
 30
0
 62
0
 70
128
 71
98
 72
27
 73
33
 74
104
 0
VERTEX
 8
0
 10
0
 20
0
 30
0
 62
0
 70
128
 71
98
 72
128
 73
120
 74
86
 0
VERTEX
 8
0
 10
0
 20
0
 30
0
 62
0
 70
128
 71
114
 72
80
 73
84
 74
118
 0
VERTEX
 8
0
 10
0
 20
0
 30
0
 62
0
 70
128
 71
9
 72
80
 73
94
 74
23
 0
VERTEX
 8
0
 10
0
 20
0
 30
0
 62
0
 70
128
 71
108
 72
109
 73
119
 74
118
 0
VERTEX
 8
0
 10
0
 20
0
 30
0
 62
0
 70
128
 71
53
 72
23
 73
29
 74
59
 0
VERTEX
 8
0
 10
0
 20
0
 30
0
 62
0
 70
128
 71
60
 72
59
 73
61
 74
62
 0
VERTEX
 8
0
 10
0
 20
0
 30
0
 62
0
 70
128
 71
60
 72
30
 73
24
 74
54
 0
VERTEX
 8
0
 10
0
 20
0
 30
0
 62
0
 70
128
 71
24
 72
95
 73
81
 74
10
 0
VERTEX
 8
0
 10
0
 20
0
 30
0
 62
0
 70
128
 71
81
 72
115
 73
119
 74
85
 0
VERTEX
 8
0
 10
0
 20
0
 30
0
 62
0
 70
128
 71
99
 72
129
 73
135
 74
105
 0
VERTEX
 8
0
 10
0
 20
0
 30
0
 62
0
 70
128
 71
128
 72
129
 73
122
 74
120
 0
VERTEX
 8
0
 10
0
 20
0
 30
0
 62
0
 70
128
 71
107
 72
36
 73
34
 74
105
 0
VERTEX
 8
0
 10
0
 20
0
 30
0
 62
0
 70
128
 71
36
 72
40
 73
69
 74
66
 0
VERTEX
 8
0
 10
0
 20
0
 30
0
 62
0
 70
128
 71
70
 72
68
 73
67
 74
69
 0
VERTEX
 8
0
 10
0
 20
0
 30
0
 62
0
 70
128
 71
35
 72
65
 73
67
 74
39
 0
VERTEX
 8
0
 10
0
 20
0
 30
0
 62
0
 70
128
 71
35
 72
106
 73
104
 74
33
 0
VERTEX
 8
0
 10
0
 20
0
 30
0
 62
0
 70
128
 71
104
 72
134
 73
128
 74
98
 0
VERTEX
 8
0
 10
0
 20
0
 30
0
 62
0
 70
128
 71
80
 72
114
 73
124
 74
94
 0
VERTEX
 8
0
 10
0
 20
0
 30
0
 62
0
 70
128
 71
115
 72
114
 73
118
 74
119
 0
VERTEX
 8
0
 10
0
 20
0
 30
0
 62
0
 70
128
 71
100
 72
29
 73
23
 74
94
 0
VERTEX
 8
0
 10
0
 20
0
 30
0
 62
0
 70
128
 71
59
 72
29
 73
31
 74
61
 0
VERTEX
 8
0
 10
0
 20
0
 30
0
 62
0
 70
128
 71
55
 72
56
 73
62
 74
61
 0
VERTEX
 8
0
 10
0
 20
0
 30
0
 62
0
 70
128
 71
62
 72
32
 73
30
 74
60
 0
VERTEX
 8
0
 10
0
 20
0
 30
0
 62
0
 70
128
 71
95
 72
24
 73
30
 74
101
 0
VERTEX
 8
0
 10
0
 20
0
 30
0
 62
0
 70
128
 71
95
 72
125
 73
115
 74
81
 0
VERTEX
 8
0
 10
0
 20
0
 30
0
 62
0
 70
128
 71
129
 72
128
 73
134
 74
135
 0
VERTEX
 8
0
 10
0
 20
0
 30
0
 62
0
 70
128
 71
105
 72
135
 73
137
 74
107
 0
VERTEX
 8
0
 10
0
 20
0
 30
0
 62
0
 70
128
 71
111
 72
40
 73
36
 74
107
 0
VERTEX
 8
0
 10
0
 20
0
 30
0
 62
0
 70
128
 71
40
 72
70
 73
69
 0
VERTEX
 8
0
 10
0
 20
0
 30
0
 62
0
 70
128
 71
70
 72
141
 73
139
 74
68
 0
VERTEX
 8
0
 10
0
 20
0
 30
0
 62
0
 70
128
 71
67
 72
68
 73
39
 0
VERTEX
 8
0
 10
0
 20
0
 30
0
 62
0
 70
128
 71
110
 72
106
 73
35
 74
39
 0
VERTEX
 8
0
 10
0
 20
0
 30
0
 62
0
 70
128
 71
106
 72
136
 73
134
 74
104
 0
VERTEX
 8
0
 10
0
 20
0
 30
0
 62
0
 70
128
 71
125
 72
124
 73
114
 74
115
 0
VERTEX
 8
0
 10
0
 20
0
 30
0
 62
0
 70
128
 71
130
 72
100
 73
94
 74
124
 0
VERTEX
 8
0
 10
0
 20
0
 30
0
 62
0
 70
128
 71
102
 72
31
 73
29
 74
100
 0
VERTEX
 8
0
 10
0
 20
0
 30
0
 62
0
 70
128
 71
61
 72
31
 73
25
 74
55
 0
VERTEX
 8
0
 10
0
 20
0
 30
0
 62
0
 70
128
 71
45
 72
46
 73
56
 74
55
 0
VERTEX
 8
0
 10
0
 20
0
 30
0
 62
0
 70
128
 71
32
 72
62
 73
56
 74
26
 0
VERTEX
 8
0
 10
0
 20
0
 30
0
 62
0
 70
128
 71
101
 72
30
 73
32
 74
103
 0
VERTEX
 8
0
 10
0
 20
0
 30
0
 62
0
 70
128
 71
101
 72
131
 73
125
 74
95
 0
VERTEX
 8
0
 10
0
 20
0
 30
0
 62
0
 70
128
 71
136
 72
137
 73
135
 74
134
 0
VERTEX
 8
0
 10
0
 20
0
 30
0
 62
0
 70
128
 71
140
 72
111
 73
107
 74
137
 0
VERTEX
 8
0
 10
0
 20
0
 30
0
 62
0
 70
128
 71
141
 72
70
 73
40
 74
111
 0
VERTEX
 8
0
 10
0
 20
0
 30
0
 62
0
 70
128
 71
139
 72
141
 73
140
 74
138
 0
VERTEX
 8
0
 10
0
 20
0
 30
0
 62
0
 70
128
 71
68
 72
139
 73
110
 74
39
 0
VERTEX
 8
0
 10
0
 20
0
 30
0
 62
0
 70
128
 71
138
 72
136
 73
106
 74
110
 0
VERTEX
 8
0
 10
0
 20
0
 30
0
 62
0
 70
128
 71
131
 72
130
 73
124
 74
125
 0
VERTEX
 8
0
 10
0
 20
0
 30
0
 62
0
 70
128
 71
132
 72
102
 73
100
 74
130
 0
VERTEX
 8
0
 10
0
 20
0
 30
0
 62
0
 70
128
 71
96
 72
25
 73
31
 74
102
 0
VERTEX
 8
0
 10
0
 20
0
 30
0
 62
0
 70
128
 71
55
 72
25
 73
11
 74
45
 0
VERTEX
 8
0
 10
0
 20
0
 30
0
 62
0
 70
128
 71
19
 72
21
 73
46
 74
45
 0
VERTEX
 8
0
 10
0
 20
0
 30
0
 62
0
 70
128
 71
26
 72
56
 73
46
 74
12
 0
VERTEX
 8
0
 10
0
 20
0
 30
0
 62
0
 70
128
 71
26
 72
97
 73
103
 74
32
 0
VERTEX
 8
0
 10
0
 20
0
 30
0
 62
0
 70
128
 71
131
 72
101
 73
103
 74
133
 0
VERTEX
 8
0
 10
0
 20
0
 30
0
 62
0
 70
128
 71
138
 72
140
 73
137
 74
136
 0
VERTEX
 8
0
 10
0
 20
0
 30
0
 62
0
 70
128
 71
140
 72
141
 73
111
 0
VERTEX
 8
0
 10
0
 20
0
 30
0
 62
0
 70
128
 71
110
 72
139
 73
138
 0
VERTEX
 8
0
 10
0
 20
0
 30
0
 62
0
 70
128
 71
130
 72
131
 73
133
 74
132
 0
VERTEX
 8
0
 10
0
 20
0
 30
0
 62
0
 70
128
 71
126
 72
96
 73
102
 74
132
 0
VERTEX
 8
0
 10
0
 20
0
 30
0
 62
0
 70
128
 71
25
 72
96
 73
82
 74
11
 0
VERTEX
 8
0
 10
0
 20
0
 30
0
 62
0
 70
128
 71
45
 72
11
 73
1
 74
19
 0
VERTEX
 8
0
 10
0
 20
0
 30
0
 62
0
 70
128
 71
20
 72
22
 73
21
 74
19
 0
VERTEX
 8
0
 10
0
 20
0
 30
0
 62
0
 70
128
 71
21
 72
3
 73
12
 74
46
 0
VERTEX
 8
0
 10
0
 20
0
 30
0
 62
0
 70
128
 71
12
 72
83
 73
97
 74
26
 0
VERTEX
 8
0
 10
0
 20
0
 30
0
 62
0
 70
128
 71
133
 72
103
 73
97
 74
127
 0
VERTEX
 8
0
 10
0
 20
0
 30
0
 62
0
 70
128
 71
127
 72
126
 73
132
 74
133
 0
VERTEX
 8
0
 10
0
 20
0
 30
0
 62
0
 70
128
 71
116
 72
82
 73
96
 74
126
 0
VERTEX
 8
0
 10
0
 20
0
 30
0
 62
0
 70
128
 71
72
 72
1
 73
11
 74
82
 0
VERTEX
 8
0
 10
0
 20
0
 30
0
 62
0
 70
128
 71
2
 72
20
 73
19
 74
1
 0
VERTEX
 8
0
 10
0
 20
0
 30
0
 62
0
 70
128
 71
22
 72
20
 73
71
 0
VERTEX
 8
0
 10
0
 20
0
 30
0
 62
0
 70
128
 71
3
 72
21
 73
22
 74
4
 0
VERTEX
 8
0
 10
0
 20
0
 30
0
 62
0
 70
128
 71
83
 72
12
 73
3
 74
74
 0
VERTEX
 8
0
 10
0
 20
0
 30
0
 62
0
 70
128
 71
83
 72
117
 73
127
 74
97
 0
VERTEX
 8
0
 10
0
 20
0
 30
0
 62
0
 70
128
 71
117
 72
116
 73
126
 74
127
 0
VERTEX
 8
0
 10
0
 20
0
 30
0
 62
0
 70
128
 71
82
 72
116
 73
90
 74
72
 0
VERTEX
 8
0
 10
0
 20
0
 30
0
 62
0
 70
128
 71
1
 72
72
 73
73
 74
2
 0
VERTEX
 8
0
 10
0
 20
0
 30
0
 62
0
 70
128
 71
20
 72
2
 73
71
 0
VERTEX
 8
0
 10
0
 20
0
 30
0
 62
0
 70
128
 71
4
 72
22
 73
71
 0
VERTEX
 8
0
 10
0
 20
0
 30
0
 62
0
 70
128
 71
74
 72
3
 73
4
 74
75
 0
VERTEX
 8
0
 10
0
 20
0
 30
0
 62
0
 70
128
 71
74
 72
92
 73
117
 74
83
 0
VERTEX
 8
0
 10
0
 20
0
 30
0
 62
0
 70
128
 71
92
 72
90
 73
116
 74
117
 0
VERTEX
 8
0
 10
0
 20
0
 30
0
 62
0
 70
128
 71
91
 72
73
 73
72
 74
90
 0
VERTEX
 8
0
 10
0
 20
0
 30
0
 62
0
 70
128
 71
2
 72
73
 73
71
 0
VERTEX
 8
0
 10
0
 20
0
 30
0
 62
0
 70
128
 71
4
 72
71
 73
75
 0
VERTEX
 8
0
 10
0
 20
0
 30
0
 62
0
 70
128
 71
92
 72
74
 73
75
 74
93
 0
VERTEX
 8
0
 10
0
 20
0
 30
0
 62
0
 70
128
 71
90
 72
92
 73
93
 74
91
 0
VERTEX
 8
0
 10
0
 20
0
 30
0
 62
0
 70
128
 71
73
 72
91
 73
71
 0
VERTEX
 8
0
 10
0
 20
0
 30
0
 62
0
 70
128
 71
75
 72
71
 73
93
 0
VERTEX
 8
0
 10
0
 20
0
 30
0
 62
0
 70
128
 71
93
 72
71
 73
91
 0
SEQEND
 0
ENDSEC
 0
EOF
