  0
SECTION
  2
HEADER
  9
$ACADVER
  1
AC1009
  9
$INSBASE
 10
0.0
 20
0.0
 30
0.0
  9
$EXTMIN
 10
0.0
 20
0.0
 30
0.0
  9
$EXTMAX
 10
0.0
 20
0.0
 30
0.0
  0
ENDSEC
  0
SECTION
  2
TABLES
  0
TABLE
  2
VPORT
 70
1
  0
VPORT
  2
*ACTIVE
 70
0
 10
0.0
 20
0.0
 11
1.0
 21
1.0
 12
-5.0
 22
1.0
 13
0.0
 23
0.0
 14
0.1
 24
0.1
 15
0.1
 25
0.1
 16
0.0
 26
0.0
 36
1.0
 17
0.0
 27
0.0
 37
0.0
 40
10.0
 41
1.0
 42
50.0
 43
0.0
 44
0.0
 50
0.0
 51
0.0
 71
0
 72
100
 73
1
 74
1
 75
0
 76
0
 77
0
 78
0
  0
ENDTAB
  0
TABLE
  2
LTYPE
 70
8
  0
LTYPE
  2
CONTINUOUS
 70
0
  3
Solid line
 72
65
 73
0
 40
0.0
  0
LTYPE
  2
DOT
 70
0
  3
. . . . . . .
 72
65
 73
2
 40
0.25
 49
0.0
 49
-0.25
  0
LTYPE
  2
DASHED
 70
0
  3
__ __ __ __ __
 72
65
 73
2
 40
0.8
 49
0.5
 49
-0.3
  0
LTYPE
  2
DASHDOT
 70
0
  3
__ . __ . __ .
 72
65
 73
4
 40
1.0
 49
0.5
 49
-0.25
 49
0.0
 49
-0.25
  0
LTYPE
  2
DIVIDE
 70
0
  3
____ . . ____ . . 
 72
65
 73
6
 40
1.25
 49
0.5
 49
-0.25
 49
0.0
 49
-0.25
 49
0.0
 49
-0.25
  0
LTYPE
  2
BORDER
 70
0
  3
__ __ . __ __ . 
 72
65
 73
6
 40
1.75
 49
0.5
 49
-0.25
 49
0.5
 49
-0.25
 49
0.0
 49
-0.25
  0
LTYPE
  2
HIDDEN
 70
0
  3
__ __ __ __ __
 72
65
 73
2
 40
0.4
 49
0.25
 49
-0.25
  0
LTYPE
  2
CENTER
 70
0
  3
____ _ ____ _ __
 72
65
 73
4
 40
2.0
 49
1.25
 49
-0.25
 49
0.25
 49
-0.25
  0
ENDTAB
  0
TABLE
  2
LAYER
 70
1
  0
LAYER
  2
PYDXF
 70
64
 62
7
  6
continuous
  0
ENDTAB
  0
TABLE
  2
STYLE
 70
1
  0
STYLE
  2
STANDARD
 70
0
 40
0
 41
1.0
 50
0.0
 71
0
 42
1
 3
ARIAL.TTF
 4

  0
ENDTAB
  0
TABLE
  2
VIEW
 70
1
  0
VIEW
  2
BF_TOPVIEW
 70
0
 40
120.0
 10
0.0
 20
0.0
 41
200.0
 11
0.0
 21
0.0
 31
1.0
 12
0.0
 22
0.0
 32
0.0
 42
50.0
 43
0.0
 44
0.0
 50
0.0
 71
0
  0
ENDTAB
  0
ENDSEC
  0
SECTION
  2
BLOCKS
  0
ENDSEC
  0
SECTION
  2
ENTITIES
  0
POLYLINE
  8
0
 70
64
 66
1
 10
0.0
 20
0.0
 30
0.0
 71
64
 72
66
  0
VERTEX
  8
0
 10
0.02459999918937683
 20
0.061500001698732376
 30
1.0444444417953491
 70
192
  0
VERTEX
  8
0
 10
0.02459999918937683
 20
0.061500001698732376
 30
2.7699999809265137
 70
192
  0
VERTEX
  8
0
 10
0.02459999918937683
 20
-0.061500001698732376
 30
1.0444444417953491
 70
192
  0
VERTEX
  8
0
 10
0.02459999918937683
 20
-0.061500001698732376
 30
2.7699999809265137
 70
192
  0
VERTEX
  8
0
 10
0.043049998581409454
 20
0.043049998581409454
 30
0.0
 70
192
  0
VERTEX
  8
0
 10
0.043049998581409454
 20
0.043049998581409454
 30
0.0533333346247673
 70
192
  0
VERTEX
  8
0
 10
0.043049998581409454
 20
0.043049998581409454
 30
2.9411110877990723
 70
192
  0
VERTEX
  8
0
 10
0.043049998581409454
 20
0.043049998581409454
 30
2.964444637298584
 70
192
  0
VERTEX
  8
0
 10
0.043049998581409454
 20
-0.043049998581409454
 30
0.0
 70
192
  0
VERTEX
  8
0
 10
0.043049998581409454
 20
-0.043049998581409454
 30
0.0533333346247673
 70
192
  0
VERTEX
  8
0
 10
0.043049998581409454
 20
-0.043049998581409454
 30
2.9411110877990723
 70
192
  0
VERTEX
  8
0
 10
0.043049998581409454
 20
-0.043049998581409454
 30
2.964444637298584
 70
192
  0
VERTEX
  8
0
 10
0.061500001698732376
 20
0.02459999918937683
 30
1.0444444417953491
 70
192
  0
VERTEX
  8
0
 10
0.061500001698732376
 20
0.02459999918937683
 30
2.7699999809265137
 70
192
  0
VERTEX
  8
0
 10
0.061500001698732376
 20
0.061500001698732376
 30
0.0533333346247673
 70
192
  0
VERTEX
  8
0
 10
0.061500001698732376
 20
0.061500001698732376
 30
0.9977777600288391
 70
192
  0
VERTEX
  8
0
 10
0.061500001698732376
 20
0.061500001698732376
 30
2.816666841506958
 70
192
  0
VERTEX
  8
0
 10
0.061500001698732376
 20
0.061500001698732376
 30
2.9411110877990723
 70
192
  0
VERTEX
  8
0
 10
0.061500001698732376
 20
-0.02459999918937683
 30
1.0444444417953491
 70
192
  0
VERTEX
  8
0
 10
0.061500001698732376
 20
-0.02459999918937683
 30
2.7699999809265137
 70
192
  0
VERTEX
  8
0
 10
0.061500001698732376
 20
-0.061500001698732376
 30
0.0533333346247673
 70
192
  0
VERTEX
  8
0
 10
0.061500001698732376
 20
-0.061500001698732376
 30
0.9977777600288391
 70
192
  0
VERTEX
  8
0
 10
0.061500001698732376
 20
-0.061500001698732376
 30
2.816666841506958
 70
192
  0
VERTEX
  8
0
 10
0.061500001698732376
 20
-0.061500001698732376
 30
2.9411110877990723
 70
192
  0
VERTEX
  8
0
 10
0.0799499973654747
 20
0.0799499973654747
 30
2.964444637298584
 70
192
  0
VERTEX
  8
0
 10
0.0799499973654747
 20
0.0799499973654747
 30
3.0266668796539307
 70
192
  0
VERTEX
  8
0
 10
0.0799499973654747
 20
-0.0799499973654747
 30
2.964444637298584
 70
192
  0
VERTEX
  8
0
 10
0.0799499973654747
 20
-0.0799499973654747
 30
3.0266668796539307
 70
192
  0
VERTEX
  8
0
 10
0.09839999675750732
 20
0.09839999675750732
 30
3.0266668796539307
 70
192
  0
VERTEX
  8
0
 10
0.09839999675750732
 20
0.09839999675750732
 30
3.0500001907348633
 70
192
  0
VERTEX
  8
0
 10
0.09839999675750732
 20
-0.09839999675750732
 30
3.0266668796539307
 70
192
  0
VERTEX
  8
0
 10
0.09839999675750732
 20
-0.09839999675750732
 30
3.0500001907348633
 70
192
  0
VERTEX
  8
0
 10
-0.02459999918937683
 20
0.061500001698732376
 30
1.0444444417953491
 70
192
  0
VERTEX
  8
0
 10
-0.02459999918937683
 20
0.061500001698732376
 30
2.7699999809265137
 70
192
  0
VERTEX
  8
0
 10
-0.02459999918937683
 20
-0.061500001698732376
 30
1.0444444417953491
 70
192
  0
VERTEX
  8
0
 10
-0.02459999918937683
 20
-0.061500001698732376
 30
2.7699999809265137
 70
192
  0
VERTEX
  8
0
 10
-0.043049998581409454
 20
0.043049998581409454
 30
0.0
 70
192
  0
VERTEX
  8
0
 10
-0.043049998581409454
 20
0.043049998581409454
 30
0.0533333346247673
 70
192
  0
VERTEX
  8
0
 10
-0.043049998581409454
 20
0.043049998581409454
 30
2.9411110877990723
 70
192
  0
VERTEX
  8
0
 10
-0.043049998581409454
 20
0.043049998581409454
 30
2.964444637298584
 70
192
  0
VERTEX
  8
0
 10
-0.043049998581409454
 20
-0.043049998581409454
 30
0.0
 70
192
  0
VERTEX
  8
0
 10
-0.043049998581409454
 20
-0.043049998581409454
 30
0.0533333346247673
 70
192
  0
VERTEX
  8
0
 10
-0.043049998581409454
 20
-0.043049998581409454
 30
2.9411110877990723
 70
192
  0
VERTEX
  8
0
 10
-0.043049998581409454
 20
-0.043049998581409454
 30
2.964444637298584
 70
192
  0
VERTEX
  8
0
 10
-0.061500001698732376
 20
0.02459999918937683
 30
1.0444444417953491
 70
192
  0
VERTEX
  8
0
 10
-0.061500001698732376
 20
0.02459999918937683
 30
2.7699999809265137
 70
192
  0
VERTEX
  8
0
 10
-0.061500001698732376
 20
0.061500001698732376
 30
0.0533333346247673
 70
192
  0
VERTEX
  8
0
 10
-0.061500001698732376
 20
0.061500001698732376
 30
0.9977777600288391
 70
192
  0
VERTEX
  8
0
 10
-0.061500001698732376
 20
0.061500001698732376
 30
2.816666841506958
 70
192
  0
VERTEX
  8
0
 10
-0.061500001698732376
 20
0.061500001698732376
 30
2.9411110877990723
 70
192
  0
VERTEX
  8
0
 10
-0.061500001698732376
 20
-0.02459999918937683
 30
1.0444444417953491
 70
192
  0
VERTEX
  8
0
 10
-0.061500001698732376
 20
-0.02459999918937683
 30
2.7699999809265137
 70
192
  0
VERTEX
  8
0
 10
-0.061500001698732376
 20
-0.061500001698732376
 30
0.0533333346247673
 70
192
  0
VERTEX
  8
0
 10
-0.061500001698732376
 20
-0.061500001698732376
 30
0.9977777600288391
 70
192
  0
VERTEX
  8
0
 10
-0.061500001698732376
 20
-0.061500001698732376
 30
2.816666841506958
 70
192
  0
VERTEX
  8
0
 10
-0.061500001698732376
 20
-0.061500001698732376
 30
2.9411110877990723
 70
192
  0
VERTEX
  8
0
 10
-0.0799499973654747
 20
0.0799499973654747
 30
2.964444637298584
 70
192
  0
VERTEX
  8
0
 10
-0.0799499973654747
 20
0.0799499973654747
 30
3.0266668796539307
 70
192
  0
VERTEX
  8
0
 10
-0.0799499973654747
 20
-0.0799499973654747
 30
2.964444637298584
 70
192
  0
VERTEX
  8
0
 10
-0.0799499973654747
 20
-0.0799499973654747
 30
3.0266668796539307
 70
192
  0
VERTEX
  8
0
 10
-0.09839999675750732
 20
0.09839999675750732
 30
3.0266668796539307
 70
192
  0
VERTEX
  8
0
 10
-0.09839999675750732
 20
0.09839999675750732
 30
3.0500001907348633
 70
192
  0
VERTEX
  8
0
 10
-0.09839999675750732
 20
-0.09839999675750732
 30
3.0266668796539307
 70
192
  0
VERTEX
  8
0
 10
-0.09839999675750732
 20
-0.09839999675750732
 30
3.0500001907348633
 70
192
  0
VERTEX
  8
0
 10
0.0
 20
0.0
 30
0.0
 70
128
 71
4
 72
20
 73
23
  0
VERTEX
  8
0
 10
0.0
 20
0.0
 30
0.0
 70
128
 71
19
 72
20
 73
4
 74
3
  0
VERTEX
  8
0
 10
0.0
 20
0.0
 30
0.0
 70
128
 71
20
 72
14
 73
17
 74
23
  0
VERTEX
  8
0
 10
0.0
 20
0.0
 30
0.0
 70
128
 71
36
 72
4
 73
23
 74
55
  0
VERTEX
  8
0
 10
0.0
 20
0.0
 30
0.0
 70
128
 71
3
 72
4
 73
36
 74
35
  0
VERTEX
  8
0
 10
0.0
 20
0.0
 30
0.0
 70
128
 71
19
 72
3
 73
22
  0
VERTEX
  8
0
 10
0.0
 20
0.0
 30
0.0
 70
128
 71
20
 72
19
 73
13
 74
14
  0
VERTEX
  8
0
 10
0.0
 20
0.0
 30
0.0
 70
128
 71
14
 72
2
 73
17
  0
VERTEX
  8
0
 10
0.0
 20
0.0
 30
0.0
 70
128
 71
18
 72
24
 73
23
 74
17
  0
VERTEX
  8
0
 10
0.0
 20
0.0
 30
0.0
 70
128
 71
56
 72
55
 73
23
 74
24
  0
VERTEX
  8
0
 10
0.0
 20
0.0
 30
0.0
 70
128
 71
55
 72
52
 73
36
  0
VERTEX
  8
0
 10
0.0
 20
0.0
 30
0.0
 70
128
 71
35
 72
36
 73
52
 74
51
  0
VERTEX
  8
0
 10
0.0
 20
0.0
 30
0.0
 70
128
 71
35
 72
54
 73
22
 74
3
  0
VERTEX
  8
0
 10
0.0
 20
0.0
 30
0.0
 70
128
 71
19
 72
22
 73
16
 74
13
  0
VERTEX
  8
0
 10
0.0
 20
0.0
 30
0.0
 70
128
 71
1
 72
2
 73
14
 74
13
  0
VERTEX
  8
0
 10
0.0
 20
0.0
 30
0.0
 70
128
 71
34
 72
49
 73
17
 74
2
  0
VERTEX
  8
0
 10
0.0
 20
0.0
 30
0.0
 70
128
 71
24
 72
18
 73
7
 74
11
  0
VERTEX
  8
0
 10
0.0
 20
0.0
 30
0.0
 70
128
 71
18
 72
17
 73
49
 74
50
  0
VERTEX
  8
0
 10
0.0
 20
0.0
 30
0.0
 70
128
 71
50
 72
49
 73
55
 74
56
  0
VERTEX
  8
0
 10
0.0
 20
0.0
 30
0.0
 70
128
 71
43
 72
56
 73
24
 74
11
  0
VERTEX
  8
0
 10
0.0
 20
0.0
 30
0.0
 70
128
 71
52
 72
55
 73
49
 74
46
  0
VERTEX
  8
0
 10
0.0
 20
0.0
 30
0.0
 70
128
 71
46
 72
45
 73
51
 74
52
  0
VERTEX
  8
0
 10
0.0
 20
0.0
 30
0.0
 70
128
 71
51
 72
54
 73
35
  0
VERTEX
  8
0
 10
0.0
 20
0.0
 30
0.0
 70
128
 71
21
 72
22
 73
54
 74
53
  0
VERTEX
  8
0
 10
0.0
 20
0.0
 30
0.0
 70
128
 71
15
 72
16
 73
22
 74
21
  0
VERTEX
  8
0
 10
0.0
 20
0.0
 30
0.0
 70
128
 71
1
 72
13
 73
16
  0
VERTEX
  8
0
 10
0.0
 20
0.0
 30
0.0
 70
128
 71
2
 72
1
 73
33
 74
34
  0
VERTEX
  8
0
 10
0.0
 20
0.0
 30
0.0
 70
128
 71
34
 72
46
 73
49
  0
VERTEX
  8
0
 10
0.0
 20
0.0
 30
0.0
 70
128
 71
39
 72
7
 73
18
 74
50
  0
VERTEX
  8
0
 10
0.0
 20
0.0
 30
0.0
 70
128
 71
7
 72
8
 73
12
 74
11
  0
VERTEX
  8
0
 10
0.0
 20
0.0
 30
0.0
 70
128
 71
43
 72
39
 73
50
 74
56
  0
VERTEX
  8
0
 10
0.0
 20
0.0
 30
0.0
 70
128
 71
44
 72
43
 73
11
 74
12
  0
VERTEX
  8
0
 10
0.0
 20
0.0
 30
0.0
 70
128
 71
45
 72
46
 73
34
 74
33
  0
VERTEX
  8
0
 10
0.0
 20
0.0
 30
0.0
 70
128
 71
51
 72
45
 73
48
 74
54
  0
VERTEX
  8
0
 10
0.0
 20
0.0
 30
0.0
 70
128
 71
47
 72
53
 73
54
 74
48
  0
VERTEX
  8
0
 10
0.0
 20
0.0
 30
0.0
 70
128
 71
21
 72
53
 73
42
 74
10
  0
VERTEX
  8
0
 10
0.0
 20
0.0
 30
0.0
 70
128
 71
15
 72
47
 73
48
 74
16
  0
VERTEX
  8
0
 10
0.0
 20
0.0
 30
0.0
 70
128
 71
10
 72
6
 73
15
 74
21
  0
VERTEX
  8
0
 10
0.0
 20
0.0
 30
0.0
 70
128
 71
33
 72
1
 73
16
 74
48
  0
VERTEX
  8
0
 10
0.0
 20
0.0
 30
0.0
 70
128
 71
39
 72
40
 73
8
 74
7
  0
VERTEX
  8
0
 10
0.0
 20
0.0
 30
0.0
 70
128
 71
25
 72
27
 73
12
 74
8
  0
VERTEX
  8
0
 10
0.0
 20
0.0
 30
0.0
 70
128
 71
40
 72
39
 73
43
 74
44
  0
VERTEX
  8
0
 10
0.0
 20
0.0
 30
0.0
 70
128
 71
44
 72
12
 73
27
 74
59
  0
VERTEX
  8
0
 10
0.0
 20
0.0
 30
0.0
 70
128
 71
45
 72
33
 73
48
  0
VERTEX
  8
0
 10
0.0
 20
0.0
 30
0.0
 70
128
 71
38
 72
42
 73
53
 74
47
  0
VERTEX
  8
0
 10
0.0
 20
0.0
 30
0.0
 70
128
 71
42
 72
41
 73
9
 74
10
  0
VERTEX
  8
0
 10
0.0
 20
0.0
 30
0.0
 70
128
 71
38
 72
47
 73
15
 74
6
  0
VERTEX
  8
0
 10
0.0
 20
0.0
 30
0.0
 70
128
 71
5
 72
6
 73
10
 74
9
  0
VERTEX
  8
0
 10
0.0
 20
0.0
 30
0.0
 70
128
 71
25
 72
8
 73
40
 74
57
  0
VERTEX
  8
0
 10
0.0
 20
0.0
 30
0.0
 70
128
 71
25
 72
26
 73
28
 74
27
  0
VERTEX
  8
0
 10
0.0
 20
0.0
 30
0.0
 70
128
 71
59
 72
57
 73
40
 74
44
  0
VERTEX
  8
0
 10
0.0
 20
0.0
 30
0.0
 70
128
 71
60
 72
59
 73
27
 74
28
  0
VERTEX
  8
0
 10
0.0
 20
0.0
 30
0.0
 70
128
 71
38
 72
37
 73
41
 74
42
  0
VERTEX
  8
0
 10
0.0
 20
0.0
 30
0.0
 70
128
 71
37
 72
38
 73
6
 74
5
  0
VERTEX
  8
0
 10
0.0
 20
0.0
 30
0.0
 70
128
 71
57
 72
58
 73
26
 74
25
  0
VERTEX
  8
0
 10
0.0
 20
0.0
 30
0.0
 70
128
 71
29
 72
31
 73
28
 74
26
  0
VERTEX
  8
0
 10
0.0
 20
0.0
 30
0.0
 70
128
 71
58
 72
57
 73
59
 74
60
  0
VERTEX
  8
0
 10
0.0
 20
0.0
 30
0.0
 70
128
 71
60
 72
28
 73
31
 74
63
  0
VERTEX
  8
0
 10
0.0
 20
0.0
 30
0.0
 70
128
 71
29
 72
26
 73
58
 74
61
  0
VERTEX
  8
0
 10
0.0
 20
0.0
 30
0.0
 70
128
 71
29
 72
30
 73
32
 74
31
  0
VERTEX
  8
0
 10
0.0
 20
0.0
 30
0.0
 70
128
 71
63
 72
61
 73
58
 74
60
  0
VERTEX
  8
0
 10
0.0
 20
0.0
 30
0.0
 70
128
 71
64
 72
63
 73
31
 74
32
  0
VERTEX
  8
0
 10
0.0
 20
0.0
 30
0.0
 70
128
 71
61
 72
62
 73
30
 74
29
  0
VERTEX
  8
0
 10
0.0
 20
0.0
 30
0.0
 70
128
 71
62
 72
64
 73
32
 74
30
  0
VERTEX
  8
0
 10
0.0
 20
0.0
 30
0.0
 70
128
 71
63
 72
64
 73
62
 74
61
  0
VERTEX
  8
0
 10
0.0
 20
0.0
 30
0.0
 70
128
 71
41
 72
37
 73
5
 74
9
  0
SEQEND
  8
0
  0
ENDSEC
  0
EOF
