 0
SECTION
 2
HEADER
 9
$ACADVER
 1
AC1009
 0
ENDSEC
 0
SECTION
 2
BLOCKS
 0
BLOCK
 8
0
 2
*Model_Space
 70
0
 10
0
 20
0
 30
0
 3
*Model_Space
 0
ENDBLK
 8
0
 0
BLOCK
 8
0
 2
*Paper_Space
 70
0
 10
0
 20
0
 30
0
 3
*Paper_Space
 0
ENDBLK
 8
0
 0
ENDSEC
 0
SECTION
 2
ENTITIES
 0
POLYLINE
 8
0
 62
255
 66
1
 10
0
 20
0
 30
0
 70
64
 71
178
 72
241
 0
VERTEX
 8
0
 10
0.0
 20
0.08
 30
0.0
 70
192
 0
VERTEX
 8
0
 10
0.0
 20
0.08
 30
0.052167
 70
192
 0
VERTEX
 8
0
 10
0.0
 20
0.08
 30
0.077167
 70
192
 0
VERTEX
 8
0
 10
0.0
 20
-0.06
 30
0.077167
 70
192
 0
VERTEX
 8
0
 10
0.0
 20
-0.06
 30
2.229999999999999
 70
192
 0
VERTEX
 8
0
 10
0.0
 20
-0.15
 30
0.026667
 70
192
 0
VERTEX
 8
0
 10
0.0
 20
-0.15
 30
2.229999999999999
 70
192
 0
VERTEX
 8
0
 10
0.0
 20
-0.25
 30
0.0
 70
192
 0
VERTEX
 8
0
 10
0.0
 20
-0.25
 30
0.01
 70
192
 0
VERTEX
 8
0
 10
0.01
 20
-0.06
 30
0.0771669999999999
 70
192
 0
VERTEX
 8
0
 10
0.01
 20
-0.06
 30
2.22
 70
192
 0
VERTEX
 8
0
 10
0.01
 20
-0.075
 30
0.077167
 70
192
 0
VERTEX
 8
0
 10
0.01
 20
-0.075
 30
1.385208499999999
 70
192
 0
VERTEX
 8
0
 10
0.01
 20
-0.105
 30
0.077167
 70
192
 0
VERTEX
 8
0
 10
0.01
 20
-0.105
 30
1.347083499999999
 70
192
 0
VERTEX
 8
0
 10
0.01
 20
-0.105
 30
1.385208499999999
 70
192
 0
VERTEX
 8
0
 10
0.01
 20
-0.105
 30
2.22
 70
192
 0
VERTEX
 8
0
 10
0.01
 20
-0.135
 30
1.347083499999999
 70
192
 0
VERTEX
 8
0
 10
0.01
 20
-0.135
 30
2.22
 70
192
 0
VERTEX
 8
0
 10
0.01
 20
-0.15
 30
0.0771669999999999
 70
192
 0
VERTEX
 8
0
 10
0.01
 20
-0.15
 30
2.22
 70
192
 0
VERTEX
 8
0
 10
0.033125
 20
-0.075
 30
0.125417
 70
192
 0
VERTEX
 8
0
 10
0.033125
 20
-0.075
 30
0.52625025
 70
192
 0
VERTEX
 8
0
 10
0.033125
 20
-0.075
 30
0.5362502500000001
 70
192
 0
VERTEX
 8
0
 10
0.033125
 20
-0.075
 30
0.9362502500000001
 70
192
 0
VERTEX
 8
0
 10
0.033125
 20
-0.075
 30
0.9462502499999999
 70
192
 0
VERTEX
 8
0
 10
0.033125
 20
-0.075
 30
1.347083499999999
 70
192
 0
VERTEX
 8
0
 10
0.033125
 20
-0.105
 30
0.125417
 70
192
 0
VERTEX
 8
0
 10
0.033125
 20
-0.105
 30
0.52625025
 70
192
 0
VERTEX
 8
0
 10
0.033125
 20
-0.105
 30
0.5362502500000001
 70
192
 0
VERTEX
 8
0
 10
0.033125
 20
-0.105
 30
0.9362502499999999
 70
192
 0
VERTEX
 8
0
 10
0.033125
 20
-0.105
 30
0.9462502499999999
 70
192
 0
VERTEX
 8
0
 10
0.033125
 20
-0.105
 30
1.347083499999999
 70
192
 0
VERTEX
 8
0
 10
0.033125
 20
-0.105
 30
1.385208499999999
 70
192
 0
VERTEX
 8
0
 10
0.033125
 20
-0.105
 30
1.786041749999999
 70
192
 0
VERTEX
 8
0
 10
0.033125
 20
-0.105
 30
1.796041749999999
 70
192
 0
VERTEX
 8
0
 10
0.033125
 20
-0.105
 30
2.196874999999999
 70
192
 0
VERTEX
 8
0
 10
0.033125
 20
-0.135
 30
1.385208499999999
 70
192
 0
VERTEX
 8
0
 10
0.033125
 20
-0.135
 30
1.786041749999999
 70
192
 0
VERTEX
 8
0
 10
0.033125
 20
-0.135
 30
1.796041749999999
 70
192
 0
VERTEX
 8
0
 10
0.033125
 20
-0.135
 30
2.196874999999999
 70
192
 0
VERTEX
 8
0
 10
0.3077083333333333
 20
-0.075
 30
0.125417
 70
192
 0
VERTEX
 8
0
 10
0.3077083333333333
 20
-0.075
 30
0.52625025
 70
192
 0
VERTEX
 8
0
 10
0.3077083333333333
 20
-0.075
 30
0.5362502500000001
 70
192
 0
VERTEX
 8
0
 10
0.3077083333333333
 20
-0.075
 30
0.9362502499999999
 70
192
 0
VERTEX
 8
0
 10
0.3077083333333333
 20
-0.075
 30
0.9462502499999999
 70
192
 0
VERTEX
 8
0
 10
0.3077083333333333
 20
-0.075
 30
1.347083499999999
 70
192
 0
VERTEX
 8
0
 10
0.3077083333333333
 20
-0.105
 30
0.125417
 70
192
 0
VERTEX
 8
0
 10
0.3077083333333333
 20
-0.105
 30
0.52625025
 70
192
 0
VERTEX
 8
0
 10
0.3077083333333333
 20
-0.105
 30
0.5362502500000001
 70
192
 0
VERTEX
 8
0
 10
0.3077083333333333
 20
-0.105
 30
0.9362502499999999
 70
192
 0
VERTEX
 8
0
 10
0.3077083333333333
 20
-0.105
 30
0.9462502499999999
 70
192
 0
VERTEX
 8
0
 10
0.3077083333333333
 20
-0.105
 30
1.347083499999999
 70
192
 0
VERTEX
 8
0
 10
0.3077083333333333
 20
-0.105
 30
1.385208499999999
 70
192
 0
VERTEX
 8
0
 10
0.3077083333333333
 20
-0.105
 30
1.786041749999999
 70
192
 0
VERTEX
 8
0
 10
0.3077083333333333
 20
-0.105
 30
1.796041749999999
 70
192
 0
VERTEX
 8
0
 10
0.3077083333333333
 20
-0.105
 30
2.196874999999999
 70
192
 0
VERTEX
 8
0
 10
0.3077083333333333
 20
-0.135
 30
1.385208499999999
 70
192
 0
VERTEX
 8
0
 10
0.3077083333333333
 20
-0.135
 30
1.786041749999999
 70
192
 0
VERTEX
 8
0
 10
0.3077083333333333
 20
-0.135
 30
1.796041749999999
 70
192
 0
VERTEX
 8
0
 10
0.3077083333333333
 20
-0.135
 30
2.196874999999999
 70
192
 0
VERTEX
 8
0
 10
0.3177083333333334
 20
-0.075
 30
0.125417
 70
192
 0
VERTEX
 8
0
 10
0.3177083333333334
 20
-0.075
 30
0.52625025
 70
192
 0
VERTEX
 8
0
 10
0.3177083333333334
 20
-0.075
 30
0.5362502500000001
 70
192
 0
VERTEX
 8
0
 10
0.3177083333333334
 20
-0.075
 30
0.9362502499999999
 70
192
 0
VERTEX
 8
0
 10
0.3177083333333334
 20
-0.075
 30
0.9462502499999999
 70
192
 0
VERTEX
 8
0
 10
0.3177083333333334
 20
-0.075
 30
1.347083499999999
 70
192
 0
VERTEX
 8
0
 10
0.3177083333333334
 20
-0.105
 30
0.125417
 70
192
 0
VERTEX
 8
0
 10
0.3177083333333334
 20
-0.105
 30
0.52625025
 70
192
 0
VERTEX
 8
0
 10
0.3177083333333334
 20
-0.105
 30
0.5362502500000001
 70
192
 0
VERTEX
 8
0
 10
0.3177083333333334
 20
-0.105
 30
0.9362502499999999
 70
192
 0
VERTEX
 8
0
 10
0.3177083333333334
 20
-0.105
 30
0.9462502499999999
 70
192
 0
VERTEX
 8
0
 10
0.3177083333333334
 20
-0.105
 30
1.347083499999999
 70
192
 0
VERTEX
 8
0
 10
0.3177083333333334
 20
-0.105
 30
1.385208499999999
 70
192
 0
VERTEX
 8
0
 10
0.3177083333333334
 20
-0.105
 30
1.786041749999999
 70
192
 0
VERTEX
 8
0
 10
0.3177083333333334
 20
-0.105
 30
1.796041749999999
 70
192
 0
VERTEX
 8
0
 10
0.3177083333333334
 20
-0.105
 30
2.196874999999999
 70
192
 0
VERTEX
 8
0
 10
0.3177083333333334
 20
-0.135
 30
1.385208499999999
 70
192
 0
VERTEX
 8
0
 10
0.3177083333333334
 20
-0.135
 30
1.786041749999999
 70
192
 0
VERTEX
 8
0
 10
0.3177083333333334
 20
-0.135
 30
1.796041749999999
 70
192
 0
VERTEX
 8
0
 10
0.3177083333333334
 20
-0.135
 30
2.196874999999999
 70
192
 0
VERTEX
 8
0
 10
0.5922916666666668
 20
-0.075
 30
0.125417
 70
192
 0
VERTEX
 8
0
 10
0.5922916666666668
 20
-0.075
 30
0.52625025
 70
192
 0
VERTEX
 8
0
 10
0.5922916666666668
 20
-0.075
 30
0.5362502500000001
 70
192
 0
VERTEX
 8
0
 10
0.5922916666666668
 20
-0.075
 30
0.9362502499999999
 70
192
 0
VERTEX
 8
0
 10
0.5922916666666668
 20
-0.075
 30
0.9462502499999999
 70
192
 0
VERTEX
 8
0
 10
0.5922916666666668
 20
-0.075
 30
1.347083499999999
 70
192
 0
VERTEX
 8
0
 10
0.5922916666666668
 20
-0.105
 30
0.125417
 70
192
 0
VERTEX
 8
0
 10
0.5922916666666668
 20
-0.105
 30
0.52625025
 70
192
 0
VERTEX
 8
0
 10
0.5922916666666668
 20
-0.105
 30
0.5362502500000001
 70
192
 0
VERTEX
 8
0
 10
0.5922916666666668
 20
-0.105
 30
0.9362502499999999
 70
192
 0
VERTEX
 8
0
 10
0.5922916666666668
 20
-0.105
 30
0.9462502499999999
 70
192
 0
VERTEX
 8
0
 10
0.5922916666666668
 20
-0.105
 30
1.347083499999999
 70
192
 0
VERTEX
 8
0
 10
0.5922916666666668
 20
-0.105
 30
1.385208499999999
 70
192
 0
VERTEX
 8
0
 10
0.5922916666666668
 20
-0.105
 30
1.786041749999999
 70
192
 0
VERTEX
 8
0
 10
0.5922916666666668
 20
-0.105
 30
1.796041749999999
 70
192
 0
VERTEX
 8
0
 10
0.5922916666666668
 20
-0.105
 30
2.196874999999999
 70
192
 0
VERTEX
 8
0
 10
0.5922916666666668
 20
-0.135
 30
1.385208499999999
 70
192
 0
VERTEX
 8
0
 10
0.5922916666666668
 20
-0.135
 30
1.786041749999999
 70
192
 0
VERTEX
 8
0
 10
0.5922916666666668
 20
-0.135
 30
1.796041749999999
 70
192
 0
VERTEX
 8
0
 10
0.5922916666666668
 20
-0.135
 30
2.196874999999999
 70
192
 0
VERTEX
 8
0
 10
0.6022916666666668
 20
-0.075
 30
0.125417
 70
192
 0
VERTEX
 8
0
 10
0.6022916666666668
 20
-0.075
 30
0.52625025
 70
192
 0
VERTEX
 8
0
 10
0.6022916666666668
 20
-0.075
 30
0.5362502500000001
 70
192
 0
VERTEX
 8
0
 10
0.6022916666666668
 20
-0.075
 30
0.9362502499999999
 70
192
 0
VERTEX
 8
0
 10
0.6022916666666668
 20
-0.075
 30
0.9462502499999999
 70
192
 0
VERTEX
 8
0
 10
0.6022916666666668
 20
-0.075
 30
1.347083499999999
 70
192
 0
VERTEX
 8
0
 10
0.6022916666666668
 20
-0.105
 30
0.125417
 70
192
 0
VERTEX
 8
0
 10
0.6022916666666668
 20
-0.105
 30
0.52625025
 70
192
 0
VERTEX
 8
0
 10
0.6022916666666668
 20
-0.105
 30
0.5362502500000001
 70
192
 0
VERTEX
 8
0
 10
0.6022916666666668
 20
-0.105
 30
0.9362502499999999
 70
192
 0
VERTEX
 8
0
 10
0.6022916666666668
 20
-0.105
 30
0.9462502499999999
 70
192
 0
VERTEX
 8
0
 10
0.6022916666666668
 20
-0.105
 30
1.347083499999999
 70
192
 0
VERTEX
 8
0
 10
0.6022916666666668
 20
-0.105
 30
1.385208499999999
 70
192
 0
VERTEX
 8
0
 10
0.6022916666666668
 20
-0.105
 30
1.786041749999999
 70
192
 0
VERTEX
 8
0
 10
0.6022916666666668
 20
-0.105
 30
1.796041749999999
 70
192
 0
VERTEX
 8
0
 10
0.6022916666666668
 20
-0.105
 30
2.196874999999999
 70
192
 0
VERTEX
 8
0
 10
0.6022916666666668
 20
-0.135
 30
1.385208499999999
 70
192
 0
VERTEX
 8
0
 10
0.6022916666666668
 20
-0.135
 30
1.786041749999999
 70
192
 0
VERTEX
 8
0
 10
0.6022916666666668
 20
-0.135
 30
1.796041749999999
 70
192
 0
VERTEX
 8
0
 10
0.6022916666666668
 20
-0.135
 30
2.196874999999999
 70
192
 0
VERTEX
 8
0
 10
0.8768749999999998
 20
-0.075
 30
0.125417
 70
192
 0
VERTEX
 8
0
 10
0.8768749999999998
 20
-0.075
 30
0.52625025
 70
192
 0
VERTEX
 8
0
 10
0.8768749999999998
 20
-0.075
 30
0.5362502500000001
 70
192
 0
VERTEX
 8
0
 10
0.8768749999999998
 20
-0.075
 30
0.9362502499999997
 70
192
 0
VERTEX
 8
0
 10
0.8768749999999998
 20
-0.075
 30
0.9462502499999999
 70
192
 0
VERTEX
 8
0
 10
0.8768749999999998
 20
-0.075
 30
1.347083499999999
 70
192
 0
VERTEX
 8
0
 10
0.8768749999999998
 20
-0.105
 30
0.125417
 70
192
 0
VERTEX
 8
0
 10
0.8768749999999998
 20
-0.105
 30
0.52625025
 70
192
 0
VERTEX
 8
0
 10
0.8768749999999998
 20
-0.105
 30
0.5362502500000001
 70
192
 0
VERTEX
 8
0
 10
0.8768749999999998
 20
-0.105
 30
0.9362502500000001
 70
192
 0
VERTEX
 8
0
 10
0.8768749999999998
 20
-0.105
 30
0.9462502499999999
 70
192
 0
VERTEX
 8
0
 10
0.8768749999999998
 20
-0.105
 30
1.347083499999999
 70
192
 0
VERTEX
 8
0
 10
0.8768749999999998
 20
-0.105
 30
1.385208499999999
 70
192
 0
VERTEX
 8
0
 10
0.8768749999999998
 20
-0.105
 30
1.786041749999999
 70
192
 0
VERTEX
 8
0
 10
0.8768749999999998
 20
-0.105
 30
1.796041749999999
 70
192
 0
VERTEX
 8
0
 10
0.8768749999999998
 20
-0.105
 30
2.196874999999999
 70
192
 0
VERTEX
 8
0
 10
0.8768749999999998
 20
-0.135
 30
1.385208499999999
 70
192
 0
VERTEX
 8
0
 10
0.8768749999999998
 20
-0.135
 30
1.786041749999999
 70
192
 0
VERTEX
 8
0
 10
0.8768749999999998
 20
-0.135
 30
1.796041749999999
 70
192
 0
VERTEX
 8
0
 10
0.8768749999999998
 20
-0.135
 30
2.196874999999999
 70
192
 0
VERTEX
 8
0
 10
0.9
 20
-0.06
 30
0.0771670000000001
 70
192
 0
VERTEX
 8
0
 10
0.9
 20
-0.06
 30
2.22
 70
192
 0
VERTEX
 8
0
 10
0.9
 20
-0.075
 30
0.077167
 70
192
 0
VERTEX
 8
0
 10
0.9
 20
-0.075
 30
1.385208499999999
 70
192
 0
VERTEX
 8
0
 10
0.9
 20
-0.105
 30
0.077167
 70
192
 0
VERTEX
 8
0
 10
0.9
 20
-0.105
 30
1.347083499999999
 70
192
 0
VERTEX
 8
0
 10
0.9
 20
-0.105
 30
1.385208499999999
 70
192
 0
VERTEX
 8
0
 10
0.9
 20
-0.105
 30
2.22
 70
192
 0
VERTEX
 8
0
 10
0.9
 20
-0.135
 30
1.347083499999999
 70
192
 0
VERTEX
 8
0
 10
0.9
 20
-0.135
 30
2.22
 70
192
 0
VERTEX
 8
0
 10
0.9
 20
-0.15
 30
0.0771670000000001
 70
192
 0
VERTEX
 8
0
 10
0.9
 20
-0.15
 30
2.22
 70
192
 0
VERTEX
 8
0
 10
0.9099999999999999
 20
0.08
 30
0.0
 70
192
 0
VERTEX
 8
0
 10
0.9099999999999999
 20
0.08
 30
0.052167
 70
192
 0
VERTEX
 8
0
 10
0.9099999999999999
 20
0.08
 30
0.077167
 70
192
 0
VERTEX
 8
0
 10
0.9099999999999999
 20
-0.06
 30
0.077167
 70
192
 0
VERTEX
 8
0
 10
0.9099999999999999
 20
-0.06
 30
2.229999999999999
 70
192
 0
VERTEX
 8
0
 10
0.9099999999999999
 20
-0.15
 30
0.026667
 70
192
 0
VERTEX
 8
0
 10
0.9099999999999999
 20
-0.15
 30
2.229999999999999
 70
192
 0
VERTEX
 8
0
 10
0.9099999999999999
 20
-0.25
 30
0.0
 70
192
 0
VERTEX
 8
0
 10
0.9099999999999999
 20
-0.25
 30
0.01
 70
192
 0
VERTEX
 8
0
 10
0.93
 20
0.08
 30
0.052167
 70
192
 0
VERTEX
 8
0
 10
0.93
 20
0.08
 30
0.077167
 70
192
 0
VERTEX
 8
0
 10
0.93
 20
0.11
 30
0.052167
 70
192
 0
VERTEX
 8
0
 10
0.93
 20
0.11
 30
0.077167
 70
192
 0
VERTEX
 8
0
 10
0.9525
 20
-0.25
 30
0.01
 70
192
 0
VERTEX
 8
0
 10
0.9525
 20
-0.25
 30
-0.123333
 70
192
 0
VERTEX
 8
0
 10
0.9525
 20
-0.3
 30
0.001667
 70
192
 0
VERTEX
 8
0
 10
0.9525
 20
-0.3
 30
-0.123333
 70
192
 0
VERTEX
 8
0
 10
-0.02
 20
0.08
 30
0.052167
 70
192
 0
VERTEX
 8
0
 10
-0.02
 20
0.08
 30
0.077167
 70
192
 0
VERTEX
 8
0
 10
-0.02
 20
0.11
 30
0.052167
 70
192
 0
VERTEX
 8
0
 10
-0.02
 20
0.11
 30
0.077167
 70
192
 0
VERTEX
 8
0
 10
-0.0425
 20
-0.25
 30
0.01
 70
192
 0
VERTEX
 8
0
 10
-0.0425
 20
-0.25
 30
-0.123333
 70
192
 0
VERTEX
 8
0
 10
-0.0425
 20
-0.3
 30
0.001667
 70
192
 0
VERTEX
 8
0
 10
-0.0425
 20
-0.3
 30
-0.123333
 70
192
 0
VERTEX
 8
0
 10
0
 20
0
 30
0
 62
255
 70
128
 71
34
 72
16
 73
35
 0
VERTEX
 8
0
 10
0
 20
0
 30
0
 62
255
 70
128
 71
134
 72
135
 73
148
 0
VERTEX
 8
0
 10
0
 20
0
 30
0
 62
255
 70
128
 71
136
 72
137
 73
149
 0
VERTEX
 8
0
 10
0
 20
0
 30
0
 62
255
 70
128
 71
37
 72
36
 73
17
 0
VERTEX
 8
0
 10
0
 20
0
 30
0
 62
255
 70
128
 71
139
 72
138
 73
150
 0
VERTEX
 8
0
 10
0
 20
0
 30
0
 62
255
 70
128
 71
41
 72
19
 73
40
 0
VERTEX
 8
0
 10
0
 20
0
 30
0
 62
255
 70
128
 71
18
 72
38
 73
39
 0
VERTEX
 8
0
 10
0
 20
0
 30
0
 62
255
 70
128
 71
141
 72
140
 73
151
 0
VERTEX
 8
0
 10
0
 20
0
 30
0
 62
255
 70
128
 71
33
 72
15
 73
32
 0
VERTEX
 8
0
 10
0
 20
0
 30
0
 62
255
 70
128
 71
133
 72
132
 73
147
 0
VERTEX
 8
0
 10
0
 20
0
 30
0
 62
255
 70
128
 71
129
 72
128
 73
146
 0
VERTEX
 8
0
 10
0
 20
0
 30
0
 62
255
 70
128
 71
28
 72
29
 73
14
 0
VERTEX
 8
0
 10
0
 20
0
 30
0
 62
255
 70
128
 71
150
 72
133
 73
147
 0
VERTEX
 8
0
 10
0
 20
0
 30
0
 62
255
 70
128
 71
15
 72
33
 73
18
 0
VERTEX
 8
0
 10
0
 20
0
 30
0
 62
255
 70
128
 71
175
 72
177
 73
9
 0
VERTEX
 8
0
 10
0
 20
0
 30
0
 62
255
 70
128
 71
167
 72
162
 73
169
 0
VERTEX
 8
0
 10
0
 20
0
 30
0
 62
255
 70
128
 71
172
 72
3
 73
174
 0
VERTEX
 8
0
 10
0
 20
0
 30
0
 62
255
 70
128
 71
4
 72
10
 73
3
 0
VERTEX
 8
0
 10
0
 20
0
 30
0
 62
255
 70
128
 71
157
 72
156
 73
142
 0
VERTEX
 8
0
 10
0
 20
0
 30
0
 62
255
 70
128
 71
164
 72
166
 73
156
 0
VERTEX
 8
0
 10
0
 20
0
 30
0
 62
255
 70
128
 71
16
 72
34
 73
13
 0
VERTEX
 8
0
 10
0
 20
0
 30
0
 62
255
 70
128
 71
148
 72
145
 73
134
 0
VERTEX
 8
0
 10
0
 20
0
 30
0
 62
255
 70
128
 71
122
 72
123
 73
144
 0
VERTEX
 8
0
 10
0
 20
0
 30
0
 62
255
 70
128
 71
126
 72
127
 73
145
 0
VERTEX
 8
0
 10
0
 20
0
 30
0
 62
255
 70
128
 71
22
 72
12
 73
23
 0
VERTEX
 8
0
 10
0
 20
0
 30
0
 62
255
 70
128
 71
27
 72
26
 73
13
 0
VERTEX
 8
0
 10
0
 20
0
 30
0
 62
255
 70
128
 71
156
 72
3
 73
10
 74
142
 0
VERTEX
 8
0
 10
0
 20
0
 30
0
 62
255
 70
128
 71
166
 72
174
 73
3
 74
156
 0
VERTEX
 8
0
 10
0
 20
0
 30
0
 62
255
 70
128
 71
171
 72
172
 73
174
 74
173
 0
VERTEX
 8
0
 10
0
 20
0
 30
0
 62
255
 70
128
 71
173
 72
174
 73
166
 74
165
 0
VERTEX
 8
0
 10
0
 20
0
 30
0
 62
255
 70
128
 71
165
 72
166
 73
164
 74
163
 0
VERTEX
 8
0
 10
0
 20
0
 30
0
 62
255
 70
128
 71
173
 72
165
 73
155
 74
2
 0
VERTEX
 8
0
 10
0
 20
0
 30
0
 62
255
 70
128
 71
12
 72
144
 73
142
 74
10
 0
VERTEX
 8
0
 10
0
 20
0
 30
0
 62
255
 70
128
 71
159
 72
6
 73
9
 74
162
 0
VERTEX
 8
0
 10
0
 20
0
 30
0
 62
255
 70
128
 71
177
 72
169
 73
162
 74
9
 0
VERTEX
 8
0
 10
0
 20
0
 30
0
 62
255
 70
128
 71
177
 72
178
 73
170
 74
169
 0
VERTEX
 8
0
 10
0
 20
0
 30
0
 62
255
 70
128
 71
176
 72
168
 73
170
 74
178
 0
VERTEX
 8
0
 10
0
 20
0
 30
0
 62
255
 70
128
 71
149
 72
17
 73
11
 74
143
 0
VERTEX
 8
0
 10
0
 20
0
 30
0
 62
255
 70
128
 71
11
 72
5
 73
158
 74
143
 0
VERTEX
 8
0
 10
0
 20
0
 30
0
 62
255
 70
128
 71
146
 72
14
 73
20
 74
152
 0
VERTEX
 8
0
 10
0
 20
0
 30
0
 62
255
 70
128
 71
152
 72
20
 73
6
 74
159
 0
VERTEX
 8
0
 10
0
 20
0
 30
0
 62
255
 70
128
 71
88
 72
82
 73
62
 74
68
 0
VERTEX
 8
0
 10
0
 20
0
 30
0
 62
255
 70
128
 71
90
 72
70
 73
69
 74
89
 0
VERTEX
 8
0
 10
0
 20
0
 30
0
 62
255
 70
128
 71
90
 72
84
 73
64
 74
70
 0
VERTEX
 8
0
 10
0
 20
0
 30
0
 62
255
 70
128
 71
100
 72
96
 73
76
 74
80
 0
VERTEX
 8
0
 10
0
 20
0
 30
0
 62
255
 70
128
 71
100
 72
80
 73
79
 74
99
 0
VERTEX
 8
0
 10
0
 20
0
 30
0
 62
255
 70
128
 71
79
 72
75
 73
95
 74
99
 0
VERTEX
 8
0
 10
0
 20
0
 30
0
 62
255
 70
128
 71
119
 72
99
 73
98
 74
118
 0
VERTEX
 8
0
 10
0
 20
0
 30
0
 62
255
 70
128
 71
114
 72
94
 73
95
 74
115
 0
VERTEX
 8
0
 10
0
 20
0
 30
0
 62
255
 70
128
 71
99
 72
95
 73
94
 74
98
 0
VERTEX
 8
0
 10
0
 20
0
 30
0
 62
255
 70
128
 71
118
 72
114
 73
115
 74
119
 0
VERTEX
 8
0
 10
0
 20
0
 30
0
 62
255
 70
128
 71
130
 72
124
 73
104
 74
110
 0
VERTEX
 8
0
 10
0
 20
0
 30
0
 62
255
 70
128
 71
63
 72
62
 73
42
 74
43
 0
VERTEX
 8
0
 10
0
 20
0
 30
0
 62
255
 70
128
 71
103
 72
102
 73
82
 74
83
 0
VERTEX
 8
0
 10
0
 20
0
 30
0
 62
255
 70
128
 71
44
 72
43
 73
23
 74
24
 0
VERTEX
 8
0
 10
0
 20
0
 30
0
 62
255
 70
128
 71
84
 72
83
 73
63
 74
64
 0
VERTEX
 8
0
 10
0
 20
0
 30
0
 62
255
 70
128
 71
67
 72
66
 73
46
 74
47
 0
VERTEX
 8
0
 10
0
 20
0
 30
0
 62
255
 70
128
 71
107
 72
106
 73
86
 74
87
 0
VERTEX
 8
0
 10
0
 20
0
 30
0
 62
255
 70
128
 71
103
 72
104
 73
124
 74
123
 0
VERTEX
 8
0
 10
0
 20
0
 30
0
 62
255
 70
128
 71
49
 72
43
 73
42
 74
48
 0
VERTEX
 8
0
 10
0
 20
0
 30
0
 62
255
 70
128
 71
29
 72
23
 73
43
 74
49
 0
VERTEX
 8
0
 10
0
 20
0
 30
0
 62
255
 70
128
 71
89
 72
83
 73
82
 74
88
 0
VERTEX
 8
0
 10
0
 20
0
 30
0
 62
255
 70
128
 71
69
 72
63
 73
83
 74
89
 0
VERTEX
 8
0
 10
0
 20
0
 30
0
 62
255
 70
128
 71
68
 72
62
 73
63
 74
69
 0
VERTEX
 8
0
 10
0
 20
0
 30
0
 62
255
 70
128
 71
50
 72
44
 73
24
 74
30
 0
VERTEX
 8
0
 10
0
 20
0
 30
0
 62
255
 70
128
 71
53
 72
47
 73
46
 74
52
 0
VERTEX
 8
0
 10
0
 20
0
 30
0
 62
255
 70
128
 71
93
 72
87
 73
86
 74
92
 0
VERTEX
 8
0
 10
0
 20
0
 30
0
 62
255
 70
128
 71
72
 72
66
 73
67
 74
73
 0
VERTEX
 8
0
 10
0
 20
0
 30
0
 62
255
 70
128
 71
112
 72
106
 73
107
 74
113
 0
VERTEX
 8
0
 10
0
 20
0
 30
0
 62
255
 70
128
 71
109
 72
103
 73
123
 74
129
 0
VERTEX
 8
0
 10
0
 20
0
 30
0
 62
255
 70
128
 71
108
 72
102
 73
103
 74
109
 0
VERTEX
 8
0
 10
0
 20
0
 30
0
 62
255
 70
128
 71
109
 72
129
 73
130
 74
110
 0
VERTEX
 8
0
 10
0
 20
0
 30
0
 62
255
 70
128
 71
69
 72
49
 73
48
 74
68
 0
VERTEX
 8
0
 10
0
 20
0
 30
0
 62
255
 70
128
 71
109
 72
89
 73
88
 74
108
 0
VERTEX
 8
0
 10
0
 20
0
 30
0
 62
255
 70
128
 71
113
 72
93
 73
92
 74
112
 0
VERTEX
 8
0
 10
0
 20
0
 30
0
 62
255
 70
128
 71
50
 72
30
 73
29
 74
49
 0
VERTEX
 8
0
 10
0
 20
0
 30
0
 62
255
 70
128
 71
73
 72
53
 73
52
 74
72
 0
VERTEX
 8
0
 10
0
 20
0
 30
0
 62
255
 70
128
 71
60
 72
40
 73
39
 74
59
 0
VERTEX
 8
0
 10
0
 20
0
 30
0
 62
255
 70
128
 71
79
 72
59
 73
58
 74
78
 0
VERTEX
 8
0
 10
0
 20
0
 30
0
 62
255
 70
128
 71
81
 72
61
 73
60
 74
80
 0
VERTEX
 8
0
 10
0
 20
0
 30
0
 62
255
 70
128
 71
121
 72
101
 73
100
 74
120
 0
VERTEX
 8
0
 10
0
 20
0
 30
0
 62
255
 70
128
 71
119
 72
139
 73
140
 74
120
 0
VERTEX
 8
0
 10
0
 20
0
 30
0
 62
255
 70
128
 71
116
 72
136
 73
135
 74
115
 0
VERTEX
 8
0
 10
0
 20
0
 30
0
 62
255
 70
128
 71
76
 72
56
 73
57
 74
77
 0
VERTEX
 8
0
 10
0
 20
0
 30
0
 62
255
 70
128
 71
116
 72
96
 73
97
 74
117
 0
VERTEX
 8
0
 10
0
 20
0
 30
0
 62
255
 70
128
 71
95
 72
75
 73
76
 74
96
 0
VERTEX
 8
0
 10
0
 20
0
 30
0
 62
255
 70
128
 71
55
 72
35
 73
36
 74
56
 0
VERTEX
 8
0
 10
0
 20
0
 30
0
 62
255
 70
128
 71
74
 72
54
 73
55
 74
75
 0
VERTEX
 8
0
 10
0
 20
0
 30
0
 62
255
 70
128
 71
59
 72
55
 73
54
 74
58
 0
VERTEX
 8
0
 10
0
 20
0
 30
0
 62
255
 70
128
 71
39
 72
35
 73
55
 74
59
 0
VERTEX
 8
0
 10
0
 20
0
 30
0
 62
255
 70
128
 71
78
 72
74
 73
75
 74
79
 0
VERTEX
 8
0
 10
0
 20
0
 30
0
 62
255
 70
128
 71
60
 72
56
 73
36
 74
40
 0
VERTEX
 8
0
 10
0
 20
0
 30
0
 62
255
 70
128
 71
61
 72
57
 73
56
 74
60
 0
VERTEX
 8
0
 10
0
 20
0
 30
0
 62
255
 70
128
 71
101
 72
97
 73
96
 74
100
 0
VERTEX
 8
0
 10
0
 20
0
 30
0
 62
255
 70
128
 71
80
 72
76
 73
77
 74
81
 0
VERTEX
 8
0
 10
0
 20
0
 30
0
 62
255
 70
128
 71
140
 72
136
 73
116
 74
120
 0
VERTEX
 8
0
 10
0
 20
0
 30
0
 62
255
 70
128
 71
120
 72
116
 73
117
 74
121
 0
VERTEX
 8
0
 10
0
 20
0
 30
0
 62
255
 70
128
 71
119
 72
115
 73
135
 74
139
 0
VERTEX
 8
0
 10
0
 20
0
 30
0
 62
255
 70
128
 71
110
 72
90
 73
89
 74
109
 0
VERTEX
 8
0
 10
0
 20
0
 30
0
 62
255
 70
128
 71
104
 72
103
 73
83
 74
84
 0
VERTEX
 8
0
 10
0
 20
0
 30
0
 62
255
 70
128
 71
64
 72
63
 73
43
 74
44
 0
VERTEX
 8
0
 10
0
 20
0
 30
0
 62
255
 70
128
 71
70
 72
50
 73
49
 74
69
 0
VERTEX
 8
0
 10
0
 20
0
 30
0
 62
255
 70
128
 71
99
 72
119
 73
120
 74
100
 0
VERTEX
 8
0
 10
0
 20
0
 30
0
 62
255
 70
128
 71
59
 72
79
 73
80
 74
60
 0
VERTEX
 8
0
 10
0
 20
0
 30
0
 62
255
 70
128
 71
75
 72
55
 73
56
 74
76
 0
VERTEX
 8
0
 10
0
 20
0
 30
0
 62
255
 70
128
 71
115
 72
95
 73
96
 74
116
 0
VERTEX
 8
0
 10
0
 20
0
 30
0
 62
255
 70
128
 71
78
 72
98
 73
94
 74
74
 0
VERTEX
 8
0
 10
0
 20
0
 30
0
 62
255
 70
128
 71
73
 72
67
 73
87
 74
93
 0
VERTEX
 8
0
 10
0
 20
0
 30
0
 62
255
 70
128
 71
81
 72
77
 73
97
 74
101
 0
VERTEX
 8
0
 10
0
 20
0
 30
0
 62
255
 70
128
 71
48
 72
42
 73
22
 74
28
 0
VERTEX
 8
0
 10
0
 20
0
 30
0
 62
255
 70
128
 71
41
 72
37
 73
57
 74
61
 0
VERTEX
 8
0
 10
0
 20
0
 30
0
 62
255
 70
128
 71
121
 72
117
 73
137
 74
141
 0
VERTEX
 8
0
 10
0
 20
0
 30
0
 62
255
 70
128
 71
128
 72
122
 73
102
 74
108
 0
VERTEX
 8
0
 10
0
 20
0
 30
0
 62
255
 70
128
 71
175
 72
176
 73
178
 74
177
 0
VERTEX
 8
0
 10
0
 20
0
 30
0
 62
255
 70
128
 71
167
 72
169
 73
170
 74
168
 0
VERTEX
 8
0
 10
0
 20
0
 30
0
 62
255
 70
128
 71
18
 72
150
 73
98
 74
78
 0
VERTEX
 8
0
 10
0
 20
0
 30
0
 62
255
 70
128
 71
151
 72
19
 73
81
 74
101
 0
VERTEX
 8
0
 10
0
 20
0
 30
0
 62
255
 70
128
 71
82
 72
144
 73
12
 74
62
 0
VERTEX
 8
0
 10
0
 20
0
 30
0
 62
255
 70
128
 71
13
 72
145
 73
87
 74
67
 0
VERTEX
 8
0
 10
0
 20
0
 30
0
 62
255
 70
128
 71
145
 72
13
 73
74
 74
94
 0
VERTEX
 8
0
 10
0
 20
0
 30
0
 62
255
 70
128
 71
17
 72
149
 73
97
 74
77
 0
VERTEX
 8
0
 10
0
 20
0
 30
0
 62
255
 70
128
 71
150
 72
18
 73
73
 74
93
 0
VERTEX
 8
0
 10
0
 20
0
 30
0
 62
255
 70
128
 71
35
 72
16
 73
17
 74
36
 0
VERTEX
 8
0
 10
0
 20
0
 30
0
 62
255
 70
128
 71
149
 72
148
 73
135
 74
136
 0
VERTEX
 8
0
 10
0
 20
0
 30
0
 62
255
 70
128
 71
126
 72
145
 73
144
 74
125
 0
VERTEX
 8
0
 10
0
 20
0
 30
0
 62
255
 70
128
 71
12
 72
13
 73
26
 74
25
 0
VERTEX
 8
0
 10
0
 20
0
 30
0
 62
255
 70
128
 71
32
 72
15
 73
14
 74
31
 0
VERTEX
 8
0
 10
0
 20
0
 30
0
 62
255
 70
128
 71
146
 72
147
 73
132
 74
131
 0
VERTEX
 8
0
 10
0
 20
0
 30
0
 62
255
 70
128
 71
150
 72
151
 73
140
 74
139
 0
VERTEX
 8
0
 10
0
 20
0
 30
0
 62
255
 70
128
 71
18
 72
39
 73
40
 74
19
 0
VERTEX
 8
0
 10
0
 20
0
 30
0
 62
255
 70
128
 71
38
 72
34
 73
35
 74
39
 0
VERTEX
 8
0
 10
0
 20
0
 30
0
 62
255
 70
128
 71
40
 72
36
 73
37
 74
41
 0
VERTEX
 8
0
 10
0
 20
0
 30
0
 62
255
 70
128
 71
139
 72
135
 73
134
 74
138
 0
VERTEX
 8
0
 10
0
 20
0
 30
0
 62
255
 70
128
 71
141
 72
137
 73
136
 74
140
 0
VERTEX
 8
0
 10
0
 20
0
 30
0
 62
255
 70
128
 71
133
 72
127
 73
126
 74
132
 0
VERTEX
 8
0
 10
0
 20
0
 30
0
 62
255
 70
128
 71
129
 72
123
 73
122
 74
128
 0
VERTEX
 8
0
 10
0
 20
0
 30
0
 62
255
 70
128
 71
28
 72
22
 73
23
 74
29
 0
VERTEX
 8
0
 10
0
 20
0
 30
0
 62
255
 70
128
 71
32
 72
26
 73
27
 74
33
 0
VERTEX
 8
0
 10
0
 20
0
 30
0
 62
255
 70
128
 71
148
 72
149
 73
143
 74
145
 0
VERTEX
 8
0
 10
0
 20
0
 30
0
 62
255
 70
128
 71
11
 72
17
 73
16
 74
13
 0
VERTEX
 8
0
 10
0
 20
0
 30
0
 62
255
 70
128
 71
10
 72
4
 73
5
 74
11
 0
VERTEX
 8
0
 10
0
 20
0
 30
0
 62
255
 70
128
 71
142
 72
143
 73
158
 74
157
 0
VERTEX
 8
0
 10
0
 20
0
 30
0
 62
255
 70
128
 71
159
 72
160
 73
153
 74
152
 0
VERTEX
 8
0
 10
0
 20
0
 30
0
 62
255
 70
128
 71
6
 72
20
 73
21
 74
7
 0
VERTEX
 8
0
 10
0
 20
0
 30
0
 62
255
 70
128
 71
38
 72
58
 73
54
 74
34
 0
VERTEX
 8
0
 10
0
 20
0
 30
0
 62
255
 70
128
 71
118
 72
138
 73
134
 74
114
 0
VERTEX
 8
0
 10
0
 20
0
 30
0
 62
255
 70
128
 71
47
 72
53
 73
33
 74
27
 0
VERTEX
 8
0
 10
0
 20
0
 30
0
 62
255
 70
128
 71
147
 72
146
 73
152
 74
150
 0
VERTEX
 8
0
 10
0
 20
0
 30
0
 62
255
 70
128
 71
20
 72
14
 73
15
 74
18
 0
VERTEX
 8
0
 10
0
 20
0
 30
0
 62
255
 70
128
 71
12
 72
10
 73
11
 74
13
 0
VERTEX
 8
0
 10
0
 20
0
 30
0
 62
255
 70
128
 71
143
 72
142
 73
144
 74
145
 0
VERTEX
 8
0
 10
0
 20
0
 30
0
 62
255
 70
128
 71
151
 72
150
 73
152
 74
153
 0
VERTEX
 8
0
 10
0
 20
0
 30
0
 62
255
 70
128
 71
19
 72
21
 73
20
 74
18
 0
VERTEX
 8
0
 10
0
 20
0
 30
0
 62
255
 70
128
 71
14
 72
68
 73
48
 0
VERTEX
 8
0
 10
0
 20
0
 30
0
 62
255
 70
128
 71
48
 72
28
 73
14
 0
VERTEX
 8
0
 10
0
 20
0
 30
0
 62
255
 70
128
 71
108
 72
88
 73
146
 0
VERTEX
 8
0
 10
0
 20
0
 30
0
 62
255
 70
128
 71
146
 72
128
 73
108
 0
VERTEX
 8
0
 10
0
 20
0
 30
0
 62
255
 70
128
 71
146
 72
88
 73
68
 74
14
 0
VERTEX
 8
0
 10
0
 20
0
 30
0
 62
255
 70
128
 71
118
 72
98
 73
150
 0
VERTEX
 8
0
 10
0
 20
0
 30
0
 62
255
 70
128
 71
150
 72
138
 73
118
 0
VERTEX
 8
0
 10
0
 20
0
 30
0
 62
255
 70
128
 71
18
 72
78
 73
58
 0
VERTEX
 8
0
 10
0
 20
0
 30
0
 62
255
 70
128
 71
58
 72
38
 73
18
 0
VERTEX
 8
0
 10
0
 20
0
 30
0
 62
255
 70
128
 71
121
 72
141
 73
151
 0
VERTEX
 8
0
 10
0
 20
0
 30
0
 62
255
 70
128
 71
151
 72
101
 73
121
 0
VERTEX
 8
0
 10
0
 20
0
 30
0
 62
255
 70
128
 71
19
 72
41
 73
61
 0
VERTEX
 8
0
 10
0
 20
0
 30
0
 62
255
 70
128
 71
61
 72
81
 73
19
 0
VERTEX
 8
0
 10
0
 20
0
 30
0
 62
255
 70
128
 71
17
 72
77
 73
57
 0
VERTEX
 8
0
 10
0
 20
0
 30
0
 62
255
 70
128
 71
57
 72
37
 73
17
 0
VERTEX
 8
0
 10
0
 20
0
 30
0
 62
255
 70
128
 71
117
 72
97
 73
149
 0
VERTEX
 8
0
 10
0
 20
0
 30
0
 62
255
 70
128
 71
149
 72
137
 73
117
 0
VERTEX
 8
0
 10
0
 20
0
 30
0
 62
255
 70
128
 71
151
 72
153
 73
21
 74
19
 0
VERTEX
 8
0
 10
0
 20
0
 30
0
 62
255
 70
128
 71
160
 72
7
 73
21
 74
153
 0
VERTEX
 8
0
 10
0
 20
0
 30
0
 62
255
 70
128
 71
13
 72
67
 73
47
 0
VERTEX
 8
0
 10
0
 20
0
 30
0
 62
255
 70
128
 71
47
 72
27
 73
13
 0
VERTEX
 8
0
 10
0
 20
0
 30
0
 62
255
 70
128
 71
87
 72
145
 73
107
 0
VERTEX
 8
0
 10
0
 20
0
 30
0
 62
255
 70
128
 71
127
 72
107
 73
145
 0
VERTEX
 8
0
 10
0
 20
0
 30
0
 62
255
 70
128
 71
133
 72
113
 73
107
 74
127
 0
VERTEX
 8
0
 10
0
 20
0
 30
0
 62
255
 70
128
 71
144
 72
82
 73
102
 0
VERTEX
 8
0
 10
0
 20
0
 30
0
 62
255
 70
128
 71
102
 72
122
 73
144
 0
VERTEX
 8
0
 10
0
 20
0
 30
0
 62
255
 70
128
 71
42
 72
62
 73
12
 0
VERTEX
 8
0
 10
0
 20
0
 30
0
 62
255
 70
128
 71
12
 72
22
 73
42
 0
VERTEX
 8
0
 10
0
 20
0
 30
0
 62
255
 70
128
 71
113
 72
133
 73
150
 0
VERTEX
 8
0
 10
0
 20
0
 30
0
 62
255
 70
128
 71
150
 72
93
 73
113
 0
VERTEX
 8
0
 10
0
 20
0
 30
0
 62
255
 70
128
 71
53
 72
73
 73
18
 0
VERTEX
 8
0
 10
0
 20
0
 30
0
 62
255
 70
128
 71
18
 72
33
 73
53
 0
VERTEX
 8
0
 10
0
 20
0
 30
0
 62
255
 70
128
 71
54
 72
74
 73
13
 0
VERTEX
 8
0
 10
0
 20
0
 30
0
 62
255
 70
128
 71
13
 72
34
 73
54
 0
VERTEX
 8
0
 10
0
 20
0
 30
0
 62
255
 70
128
 71
114
 72
134
 73
145
 0
VERTEX
 8
0
 10
0
 20
0
 30
0
 62
255
 70
128
 71
145
 72
94
 73
114
 0
VERTEX
 8
0
 10
0
 20
0
 30
0
 62
255
 70
128
 71
158
 72
5
 73
7
 74
160
 0
VERTEX
 8
0
 10
0
 20
0
 30
0
 62
255
 70
128
 71
5
 72
4
 73
6
 74
7
 0
VERTEX
 8
0
 10
0
 20
0
 30
0
 62
255
 70
128
 71
160
 72
159
 73
157
 74
158
 0
VERTEX
 8
0
 10
0
 20
0
 30
0
 62
255
 70
128
 71
161
 72
168
 73
176
 74
8
 0
VERTEX
 8
0
 10
0
 20
0
 30
0
 62
255
 70
128
 71
155
 72
165
 73
163
 0
VERTEX
 8
0
 10
0
 20
0
 30
0
 62
255
 70
128
 71
156
 72
155
 73
163
 74
164
 0
VERTEX
 8
0
 10
0
 20
0
 30
0
 62
255
 70
128
 71
2
 72
171
 73
173
 0
VERTEX
 8
0
 10
0
 20
0
 30
0
 62
255
 70
128
 71
172
 72
171
 73
2
 74
3
 0
VERTEX
 8
0
 10
0
 20
0
 30
0
 62
255
 70
128
 71
2
 72
155
 73
154
 74
1
 0
VERTEX
 8
0
 10
0
 20
0
 30
0
 62
255
 70
128
 71
159
 72
155
 73
156
 74
157
 0
VERTEX
 8
0
 10
0
 20
0
 30
0
 62
255
 70
128
 71
161
 72
154
 73
155
 74
159
 0
VERTEX
 8
0
 10
0
 20
0
 30
0
 62
255
 70
128
 71
3
 72
2
 73
6
 74
4
 0
VERTEX
 8
0
 10
0
 20
0
 30
0
 62
255
 70
128
 71
2
 72
1
 73
8
 74
6
 0
VERTEX
 8
0
 10
0
 20
0
 30
0
 62
255
 70
128
 71
154
 72
161
 73
8
 74
1
 0
VERTEX
 8
0
 10
0
 20
0
 30
0
 62
255
 70
128
 71
9
 72
8
 73
176
 74
175
 0
VERTEX
 8
0
 10
0
 20
0
 30
0
 62
255
 70
128
 71
6
 72
8
 73
9
 0
VERTEX
 8
0
 10
0
 20
0
 30
0
 62
255
 70
128
 71
167
 72
168
 73
161
 74
162
 0
VERTEX
 8
0
 10
0
 20
0
 30
0
 62
255
 70
128
 71
162
 72
161
 73
159
 0
VERTEX
 8
0
 10
0
 20
0
 30
0
 62
255
 70
128
 71
92
 72
72
 73
71
 74
91
 0
VERTEX
 8
0
 10
0
 20
0
 30
0
 62
255
 70
128
 71
92
 72
86
 73
66
 74
72
 0
VERTEX
 8
0
 10
0
 20
0
 30
0
 62
255
 70
128
 71
132
 72
126
 73
106
 74
112
 0
VERTEX
 8
0
 10
0
 20
0
 30
0
 62
255
 70
128
 71
65
 72
64
 73
44
 74
45
 0
VERTEX
 8
0
 10
0
 20
0
 30
0
 62
255
 70
128
 71
105
 72
104
 73
84
 74
85
 0
VERTEX
 8
0
 10
0
 20
0
 30
0
 62
255
 70
128
 71
46
 72
45
 73
25
 74
26
 0
VERTEX
 8
0
 10
0
 20
0
 30
0
 62
255
 70
128
 71
86
 72
85
 73
65
 74
66
 0
VERTEX
 8
0
 10
0
 20
0
 30
0
 62
255
 70
128
 71
105
 72
106
 73
126
 74
125
 0
VERTEX
 8
0
 10
0
 20
0
 30
0
 62
255
 70
128
 71
51
 72
45
 73
44
 74
50
 0
VERTEX
 8
0
 10
0
 20
0
 30
0
 62
255
 70
128
 71
31
 72
25
 73
45
 74
51
 0
VERTEX
 8
0
 10
0
 20
0
 30
0
 62
255
 70
128
 71
91
 72
85
 73
84
 74
90
 0
VERTEX
 8
0
 10
0
 20
0
 30
0
 62
255
 70
128
 71
71
 72
65
 73
85
 74
91
 0
VERTEX
 8
0
 10
0
 20
0
 30
0
 62
255
 70
128
 71
70
 72
64
 73
65
 74
71
 0
VERTEX
 8
0
 10
0
 20
0
 30
0
 62
255
 70
128
 71
52
 72
46
 73
26
 74
32
 0
VERTEX
 8
0
 10
0
 20
0
 30
0
 62
255
 70
128
 71
111
 72
105
 73
125
 74
131
 0
VERTEX
 8
0
 10
0
 20
0
 30
0
 62
255
 70
128
 71
110
 72
104
 73
105
 74
111
 0
VERTEX
 8
0
 10
0
 20
0
 30
0
 62
255
 70
128
 71
111
 72
131
 73
132
 74
112
 0
VERTEX
 8
0
 10
0
 20
0
 30
0
 62
255
 70
128
 71
71
 72
51
 73
50
 74
70
 0
VERTEX
 8
0
 10
0
 20
0
 30
0
 62
255
 70
128
 71
111
 72
91
 73
90
 74
110
 0
VERTEX
 8
0
 10
0
 20
0
 30
0
 62
255
 70
128
 71
52
 72
32
 73
31
 74
51
 0
VERTEX
 8
0
 10
0
 20
0
 30
0
 62
255
 70
128
 71
112
 72
92
 73
91
 74
111
 0
VERTEX
 8
0
 10
0
 20
0
 30
0
 62
255
 70
128
 71
106
 72
105
 73
85
 74
86
 0
VERTEX
 8
0
 10
0
 20
0
 30
0
 62
255
 70
128
 71
66
 72
65
 73
45
 74
46
 0
VERTEX
 8
0
 10
0
 20
0
 30
0
 62
255
 70
128
 71
72
 72
52
 73
51
 74
71
 0
VERTEX
 8
0
 10
0
 20
0
 30
0
 62
255
 70
128
 71
30
 72
24
 73
25
 74
31
 0
VERTEX
 8
0
 10
0
 20
0
 30
0
 62
255
 70
128
 71
131
 72
125
 73
124
 74
130
 0
VERTEX
 8
0
 10
0
 20
0
 30
0
 62
0
 70
128
 71
14
 72
29
 73
30
 0
VERTEX
 8
0
 10
0
 20
0
 30
0
 62
0
 70
128
 71
14
 72
30
 73
31
 0
VERTEX
 8
0
 10
0
 20
0
 30
0
 62
0
 70
128
 71
146
 72
130
 73
129
 0
VERTEX
 8
0
 10
0
 20
0
 30
0
 62
0
 70
128
 71
146
 72
131
 73
130
 0
VERTEX
 8
0
 10
0
 20
0
 30
0
 62
0
 70
128
 71
144
 72
123
 73
124
 0
VERTEX
 8
0
 10
0
 20
0
 30
0
 62
0
 70
128
 71
144
 72
124
 73
125
 0
VERTEX
 8
0
 10
0
 20
0
 30
0
 62
0
 70
128
 71
12
 72
24
 73
23
 0
VERTEX
 8
0
 10
0
 20
0
 30
0
 62
0
 70
128
 71
12
 72
25
 73
24
 0
SEQEND
 0
ENDSEC
 0
EOF
