 0
SECTION
 2
HEADER
 9
$ACADVER
 1
AC1009
 0
ENDSEC
 0
SECTION
 2
BLOCKS
 0
BLOCK
 8
0
 2
*Model_Space
 70
0
 10
0
 20
0
 30
0
 3
*Model_Space
 0
ENDBLK
 8
0
 0
BLOCK
 8
0
 2
*Paper_Space
 70
0
 10
0
 20
0
 30
0
 3
*Paper_Space
 0
ENDBLK
 8
0
 0
ENDSEC
 0
SECTION
 2
ENTITIES
 0
POLYLINE
 8
0
 62
255
 66
1
 10
0
 20
0
 30
0
 70
64
 71
130
 72
177
 0
VERTEX
 8
0
 10
0.0
 20
0.08
 30
0.0
 70
192
 0
VERTEX
 8
0
 10
0.0
 20
0.08
 30
0.052167
 70
192
 0
VERTEX
 8
0
 10
0.0
 20
0.08
 30
0.077167
 70
192
 0
VERTEX
 8
0
 10
0.0
 20
-0.06
 30
0.077167
 70
192
 0
VERTEX
 8
0
 10
0.0
 20
-0.06
 30
1.445
 70
192
 0
VERTEX
 8
0
 10
0.0
 20
-0.15
 30
0.026667
 70
192
 0
VERTEX
 8
0
 10
0.0
 20
-0.15
 30
1.445
 70
192
 0
VERTEX
 8
0
 10
0.0
 20
-0.25
 30
0.0
 70
192
 0
VERTEX
 8
0
 10
0.0
 20
-0.25
 30
0.01
 70
192
 0
VERTEX
 8
0
 10
0.01
 20
-0.06
 30
0.077167
 70
192
 0
VERTEX
 8
0
 10
0.01
 20
-0.06
 30
1.435
 70
192
 0
VERTEX
 8
0
 10
0.01
 20
-0.075
 30
0.077167
 70
192
 0
VERTEX
 8
0
 10
0.01
 20
-0.075
 30
0.9990973333333332
 70
192
 0
VERTEX
 8
0
 10
0.01
 20
-0.105
 30
0.077167
 70
192
 0
VERTEX
 8
0
 10
0.01
 20
-0.105
 30
0.9609723333333333
 70
192
 0
VERTEX
 8
0
 10
0.01
 20
-0.105
 30
0.9990973333333332
 70
192
 0
VERTEX
 8
0
 10
0.01
 20
-0.105
 30
1.435
 70
192
 0
VERTEX
 8
0
 10
0.01
 20
-0.135
 30
0.9609723333333333
 70
192
 0
VERTEX
 8
0
 10
0.01
 20
-0.135
 30
1.435
 70
192
 0
VERTEX
 8
0
 10
0.01
 20
-0.15
 30
0.077167
 70
192
 0
VERTEX
 8
0
 10
0.01
 20
-0.15
 30
1.435
 70
192
 0
VERTEX
 8
0
 10
0.033125
 20
-0.075
 30
0.125417
 70
192
 0
VERTEX
 8
0
 10
0.033125
 20
-0.075
 30
0.5381946666666667
 70
192
 0
VERTEX
 8
0
 10
0.033125
 20
-0.075
 30
0.5481946666666668
 70
192
 0
VERTEX
 8
0
 10
0.033125
 20
-0.075
 30
0.9609723333333333
 70
192
 0
VERTEX
 8
0
 10
0.033125
 20
-0.105
 30
0.125417
 70
192
 0
VERTEX
 8
0
 10
0.033125
 20
-0.105
 30
0.5381946666666667
 70
192
 0
VERTEX
 8
0
 10
0.033125
 20
-0.105
 30
0.5481946666666668
 70
192
 0
VERTEX
 8
0
 10
0.033125
 20
-0.105
 30
0.9609723333333333
 70
192
 0
VERTEX
 8
0
 10
0.033125
 20
-0.105
 30
0.9990973333333332
 70
192
 0
VERTEX
 8
0
 10
0.033125
 20
-0.105
 30
1.411875
 70
192
 0
VERTEX
 8
0
 10
0.033125
 20
-0.135
 30
0.9990973333333332
 70
192
 0
VERTEX
 8
0
 10
0.033125
 20
-0.135
 30
1.411875
 70
192
 0
VERTEX
 8
0
 10
0.3077083333333333
 20
-0.075
 30
0.125417
 70
192
 0
VERTEX
 8
0
 10
0.3077083333333333
 20
-0.075
 30
0.5381946666666667
 70
192
 0
VERTEX
 8
0
 10
0.3077083333333333
 20
-0.075
 30
0.5481946666666668
 70
192
 0
VERTEX
 8
0
 10
0.3077083333333333
 20
-0.075
 30
0.9609723333333333
 70
192
 0
VERTEX
 8
0
 10
0.3077083333333333
 20
-0.105
 30
0.125417
 70
192
 0
VERTEX
 8
0
 10
0.3077083333333333
 20
-0.105
 30
0.5381946666666667
 70
192
 0
VERTEX
 8
0
 10
0.3077083333333333
 20
-0.105
 30
0.5481946666666668
 70
192
 0
VERTEX
 8
0
 10
0.3077083333333333
 20
-0.105
 30
0.9609723333333333
 70
192
 0
VERTEX
 8
0
 10
0.3077083333333333
 20
-0.105
 30
0.9990973333333332
 70
192
 0
VERTEX
 8
0
 10
0.3077083333333333
 20
-0.105
 30
1.411875
 70
192
 0
VERTEX
 8
0
 10
0.3077083333333333
 20
-0.135
 30
0.9990973333333332
 70
192
 0
VERTEX
 8
0
 10
0.3077083333333333
 20
-0.135
 30
1.411875
 70
192
 0
VERTEX
 8
0
 10
0.3177083333333334
 20
-0.075
 30
0.125417
 70
192
 0
VERTEX
 8
0
 10
0.3177083333333334
 20
-0.075
 30
0.5381946666666667
 70
192
 0
VERTEX
 8
0
 10
0.3177083333333334
 20
-0.075
 30
0.5481946666666668
 70
192
 0
VERTEX
 8
0
 10
0.3177083333333334
 20
-0.075
 30
0.9609723333333333
 70
192
 0
VERTEX
 8
0
 10
0.3177083333333334
 20
-0.105
 30
0.125417
 70
192
 0
VERTEX
 8
0
 10
0.3177083333333334
 20
-0.105
 30
0.5381946666666667
 70
192
 0
VERTEX
 8
0
 10
0.3177083333333334
 20
-0.105
 30
0.5481946666666668
 70
192
 0
VERTEX
 8
0
 10
0.3177083333333334
 20
-0.105
 30
0.9609723333333333
 70
192
 0
VERTEX
 8
0
 10
0.3177083333333334
 20
-0.105
 30
0.9990973333333332
 70
192
 0
VERTEX
 8
0
 10
0.3177083333333334
 20
-0.105
 30
1.411875
 70
192
 0
VERTEX
 8
0
 10
0.3177083333333334
 20
-0.135
 30
0.9990973333333332
 70
192
 0
VERTEX
 8
0
 10
0.3177083333333334
 20
-0.135
 30
1.411875
 70
192
 0
VERTEX
 8
0
 10
0.5922916666666668
 20
-0.075
 30
0.125417
 70
192
 0
VERTEX
 8
0
 10
0.5922916666666668
 20
-0.075
 30
0.5381946666666667
 70
192
 0
VERTEX
 8
0
 10
0.5922916666666668
 20
-0.075
 30
0.5481946666666668
 70
192
 0
VERTEX
 8
0
 10
0.5922916666666668
 20
-0.075
 30
0.9609723333333333
 70
192
 0
VERTEX
 8
0
 10
0.5922916666666668
 20
-0.105
 30
0.125417
 70
192
 0
VERTEX
 8
0
 10
0.5922916666666668
 20
-0.105
 30
0.5381946666666667
 70
192
 0
VERTEX
 8
0
 10
0.5922916666666668
 20
-0.105
 30
0.5481946666666668
 70
192
 0
VERTEX
 8
0
 10
0.5922916666666668
 20
-0.105
 30
0.9609723333333333
 70
192
 0
VERTEX
 8
0
 10
0.5922916666666668
 20
-0.105
 30
0.9990973333333332
 70
192
 0
VERTEX
 8
0
 10
0.5922916666666668
 20
-0.105
 30
1.411875
 70
192
 0
VERTEX
 8
0
 10
0.5922916666666668
 20
-0.135
 30
0.9990973333333332
 70
192
 0
VERTEX
 8
0
 10
0.5922916666666668
 20
-0.135
 30
1.411875
 70
192
 0
VERTEX
 8
0
 10
0.6022916666666668
 20
-0.075
 30
0.125417
 70
192
 0
VERTEX
 8
0
 10
0.6022916666666668
 20
-0.075
 30
0.5381946666666667
 70
192
 0
VERTEX
 8
0
 10
0.6022916666666668
 20
-0.075
 30
0.5481946666666668
 70
192
 0
VERTEX
 8
0
 10
0.6022916666666668
 20
-0.075
 30
0.9609723333333333
 70
192
 0
VERTEX
 8
0
 10
0.6022916666666668
 20
-0.105
 30
0.125417
 70
192
 0
VERTEX
 8
0
 10
0.6022916666666668
 20
-0.105
 30
0.5381946666666667
 70
192
 0
VERTEX
 8
0
 10
0.6022916666666668
 20
-0.105
 30
0.5481946666666668
 70
192
 0
VERTEX
 8
0
 10
0.6022916666666668
 20
-0.105
 30
0.9609723333333333
 70
192
 0
VERTEX
 8
0
 10
0.6022916666666668
 20
-0.105
 30
0.9990973333333332
 70
192
 0
VERTEX
 8
0
 10
0.6022916666666668
 20
-0.105
 30
1.411875
 70
192
 0
VERTEX
 8
0
 10
0.6022916666666668
 20
-0.135
 30
0.9990973333333332
 70
192
 0
VERTEX
 8
0
 10
0.6022916666666668
 20
-0.135
 30
1.411875
 70
192
 0
VERTEX
 8
0
 10
0.876875
 20
-0.075
 30
0.125417
 70
192
 0
VERTEX
 8
0
 10
0.876875
 20
-0.075
 30
0.5381946666666667
 70
192
 0
VERTEX
 8
0
 10
0.876875
 20
-0.075
 30
0.5481946666666668
 70
192
 0
VERTEX
 8
0
 10
0.876875
 20
-0.075
 30
0.9609723333333333
 70
192
 0
VERTEX
 8
0
 10
0.876875
 20
-0.105
 30
0.125417
 70
192
 0
VERTEX
 8
0
 10
0.876875
 20
-0.105
 30
0.5381946666666667
 70
192
 0
VERTEX
 8
0
 10
0.876875
 20
-0.105
 30
0.5481946666666668
 70
192
 0
VERTEX
 8
0
 10
0.876875
 20
-0.105
 30
0.9609723333333333
 70
192
 0
VERTEX
 8
0
 10
0.876875
 20
-0.105
 30
0.9990973333333332
 70
192
 0
VERTEX
 8
0
 10
0.876875
 20
-0.105
 30
1.411875
 70
192
 0
VERTEX
 8
0
 10
0.876875
 20
-0.135
 30
0.9990973333333332
 70
192
 0
VERTEX
 8
0
 10
0.876875
 20
-0.135
 30
1.411875
 70
192
 0
VERTEX
 8
0
 10
0.9
 20
-0.06
 30
0.077167
 70
192
 0
VERTEX
 8
0
 10
0.9
 20
-0.06
 30
1.435
 70
192
 0
VERTEX
 8
0
 10
0.9
 20
-0.075
 30
0.077167
 70
192
 0
VERTEX
 8
0
 10
0.9
 20
-0.075
 30
0.9990973333333332
 70
192
 0
VERTEX
 8
0
 10
0.9
 20
-0.105
 30
0.077167
 70
192
 0
VERTEX
 8
0
 10
0.9
 20
-0.105
 30
0.9609723333333333
 70
192
 0
VERTEX
 8
0
 10
0.9
 20
-0.105
 30
0.9990973333333332
 70
192
 0
VERTEX
 8
0
 10
0.9
 20
-0.105
 30
1.435
 70
192
 0
VERTEX
 8
0
 10
0.9
 20
-0.135
 30
0.9609723333333333
 70
192
 0
VERTEX
 8
0
 10
0.9
 20
-0.135
 30
1.435
 70
192
 0
VERTEX
 8
0
 10
0.9
 20
-0.15
 30
0.077167
 70
192
 0
VERTEX
 8
0
 10
0.9
 20
-0.15
 30
1.435
 70
192
 0
VERTEX
 8
0
 10
0.91
 20
0.08
 30
0.0
 70
192
 0
VERTEX
 8
0
 10
0.91
 20
0.08
 30
0.052167
 70
192
 0
VERTEX
 8
0
 10
0.91
 20
0.08
 30
0.077167
 70
192
 0
VERTEX
 8
0
 10
0.91
 20
-0.06
 30
0.077167
 70
192
 0
VERTEX
 8
0
 10
0.91
 20
-0.06
 30
1.445
 70
192
 0
VERTEX
 8
0
 10
0.91
 20
-0.15
 30
0.026667
 70
192
 0
VERTEX
 8
0
 10
0.91
 20
-0.15
 30
1.445
 70
192
 0
VERTEX
 8
0
 10
0.91
 20
-0.25
 30
0.0
 70
192
 0
VERTEX
 8
0
 10
0.91
 20
-0.25
 30
0.01
 70
192
 0
VERTEX
 8
0
 10
0.93
 20
0.08
 30
0.052167
 70
192
 0
VERTEX
 8
0
 10
0.93
 20
0.08
 30
0.077167
 70
192
 0
VERTEX
 8
0
 10
0.93
 20
0.11
 30
0.052167
 70
192
 0
VERTEX
 8
0
 10
0.93
 20
0.11
 30
0.077167
 70
192
 0
VERTEX
 8
0
 10
0.9525
 20
-0.25
 30
0.01
 70
192
 0
VERTEX
 8
0
 10
0.9525
 20
-0.25
 30
-0.123333
 70
192
 0
VERTEX
 8
0
 10
0.9525
 20
-0.3
 30
0.001667
 70
192
 0
VERTEX
 8
0
 10
0.9525
 20
-0.3
 30
-0.123333
 70
192
 0
VERTEX
 8
0
 10
-0.02
 20
0.08
 30
0.052167
 70
192
 0
VERTEX
 8
0
 10
-0.02
 20
0.08
 30
0.077167
 70
192
 0
VERTEX
 8
0
 10
-0.02
 20
0.11
 30
0.052167
 70
192
 0
VERTEX
 8
0
 10
-0.02
 20
0.11
 30
0.077167
 70
192
 0
VERTEX
 8
0
 10
-0.0425
 20
-0.25
 30
0.01
 70
192
 0
VERTEX
 8
0
 10
-0.0425
 20
-0.25
 30
-0.123333
 70
192
 0
VERTEX
 8
0
 10
-0.0425
 20
-0.3
 30
0.001667
 70
192
 0
VERTEX
 8
0
 10
-0.0425
 20
-0.3
 30
-0.123333
 70
192
 0
VERTEX
 8
0
 10
0
 20
0
 30
0
 62
255
 70
128
 71
90
 72
91
 73
101
 0
VERTEX
 8
0
 10
0
 20
0
 30
0
 62
255
 70
128
 71
31
 72
30
 73
17
 0
VERTEX
 8
0
 10
0
 20
0
 30
0
 62
255
 70
128
 71
33
 72
19
 73
32
 0
VERTEX
 8
0
 10
0
 20
0
 30
0
 62
255
 70
128
 71
93
 72
92
 73
103
 0
VERTEX
 8
0
 10
0
 20
0
 30
0
 62
255
 70
128
 71
29
 72
15
 73
28
 0
VERTEX
 8
0
 10
0
 20
0
 30
0
 62
255
 70
128
 71
89
 72
88
 73
99
 0
VERTEX
 8
0
 10
0
 20
0
 30
0
 62
255
 70
128
 71
87
 72
86
 73
98
 0
VERTEX
 8
0
 10
0
 20
0
 30
0
 62
255
 70
128
 71
26
 72
27
 73
14
 0
VERTEX
 8
0
 10
0
 20
0
 30
0
 62
255
 70
128
 71
102
 72
89
 73
99
 0
VERTEX
 8
0
 10
0
 20
0
 30
0
 62
255
 70
128
 71
15
 72
29
 73
18
 0
VERTEX
 8
0
 10
0
 20
0
 30
0
 62
255
 70
128
 71
127
 72
129
 73
9
 0
VERTEX
 8
0
 10
0
 20
0
 30
0
 62
255
 70
128
 71
119
 72
114
 73
121
 0
VERTEX
 8
0
 10
0
 20
0
 30
0
 62
255
 70
128
 71
124
 72
3
 73
126
 0
VERTEX
 8
0
 10
0
 20
0
 30
0
 62
255
 70
128
 71
4
 72
10
 73
3
 0
VERTEX
 8
0
 10
0
 20
0
 30
0
 62
255
 70
128
 71
109
 72
108
 73
94
 0
VERTEX
 8
0
 10
0
 20
0
 30
0
 62
255
 70
128
 71
116
 72
118
 73
108
 0
VERTEX
 8
0
 10
0
 20
0
 30
0
 62
255
 70
128
 71
16
 72
30
 73
13
 0
VERTEX
 8
0
 10
0
 20
0
 30
0
 62
255
 70
128
 71
100
 72
97
 73
90
 0
VERTEX
 8
0
 10
0
 20
0
 30
0
 62
255
 70
128
 71
82
 72
83
 73
96
 0
VERTEX
 8
0
 10
0
 20
0
 30
0
 62
255
 70
128
 71
84
 72
85
 73
97
 0
VERTEX
 8
0
 10
0
 20
0
 30
0
 62
255
 70
128
 71
22
 72
12
 73
23
 0
VERTEX
 8
0
 10
0
 20
0
 30
0
 62
255
 70
128
 71
25
 72
24
 73
13
 0
VERTEX
 8
0
 10
0
 20
0
 30
0
 62
255
 70
128
 71
108
 72
3
 73
10
 74
94
 0
VERTEX
 8
0
 10
0
 20
0
 30
0
 62
255
 70
128
 71
118
 72
126
 73
3
 74
108
 0
VERTEX
 8
0
 10
0
 20
0
 30
0
 62
255
 70
128
 71
123
 72
124
 73
126
 74
125
 0
VERTEX
 8
0
 10
0
 20
0
 30
0
 62
255
 70
128
 71
125
 72
126
 73
118
 74
117
 0
VERTEX
 8
0
 10
0
 20
0
 30
0
 62
255
 70
128
 71
117
 72
118
 73
116
 74
115
 0
VERTEX
 8
0
 10
0
 20
0
 30
0
 62
255
 70
128
 71
125
 72
117
 73
107
 74
2
 0
VERTEX
 8
0
 10
0
 20
0
 30
0
 62
255
 70
128
 71
12
 72
96
 73
94
 74
10
 0
VERTEX
 8
0
 10
0
 20
0
 30
0
 62
255
 70
128
 71
111
 72
6
 73
9
 74
114
 0
VERTEX
 8
0
 10
0
 20
0
 30
0
 62
255
 70
128
 71
129
 72
121
 73
114
 74
9
 0
VERTEX
 8
0
 10
0
 20
0
 30
0
 62
255
 70
128
 71
129
 72
130
 73
122
 74
121
 0
VERTEX
 8
0
 10
0
 20
0
 30
0
 62
255
 70
128
 71
128
 72
120
 73
122
 74
130
 0
VERTEX
 8
0
 10
0
 20
0
 30
0
 62
255
 70
128
 71
101
 72
17
 73
11
 74
95
 0
VERTEX
 8
0
 10
0
 20
0
 30
0
 62
255
 70
128
 71
11
 72
5
 73
110
 74
95
 0
VERTEX
 8
0
 10
0
 20
0
 30
0
 62
255
 70
128
 71
98
 72
14
 73
20
 74
104
 0
VERTEX
 8
0
 10
0
 20
0
 30
0
 62
255
 70
128
 71
104
 72
20
 73
6
 74
111
 0
VERTEX
 8
0
 10
0
 20
0
 30
0
 62
255
 70
128
 71
62
 72
58
 73
46
 74
50
 0
VERTEX
 8
0
 10
0
 20
0
 30
0
 62
255
 70
128
 71
64
 72
52
 73
51
 74
63
 0
VERTEX
 8
0
 10
0
 20
0
 30
0
 62
255
 70
128
 71
64
 72
60
 73
48
 74
52
 0
VERTEX
 8
0
 10
0
 20
0
 30
0
 62
255
 70
128
 71
88
 72
84
 73
72
 74
76
 0
VERTEX
 8
0
 10
0
 20
0
 30
0
 62
255
 70
128
 71
47
 72
46
 73
34
 74
35
 0
VERTEX
 8
0
 10
0
 20
0
 30
0
 62
255
 70
128
 71
71
 72
70
 73
58
 74
59
 0
VERTEX
 8
0
 10
0
 20
0
 30
0
 62
255
 70
128
 71
36
 72
35
 73
23
 74
24
 0
VERTEX
 8
0
 10
0
 20
0
 30
0
 62
255
 70
128
 71
60
 72
59
 73
47
 74
48
 0
VERTEX
 8
0
 10
0
 20
0
 30
0
 62
255
 70
128
 71
49
 72
48
 73
36
 74
37
 0
VERTEX
 8
0
 10
0
 20
0
 30
0
 62
255
 70
128
 71
73
 72
72
 73
60
 74
61
 0
VERTEX
 8
0
 10
0
 20
0
 30
0
 62
255
 70
128
 71
71
 72
72
 73
84
 74
83
 0
VERTEX
 8
0
 10
0
 20
0
 30
0
 62
255
 70
128
 71
39
 72
35
 73
34
 74
38
 0
VERTEX
 8
0
 10
0
 20
0
 30
0
 62
255
 70
128
 71
27
 72
23
 73
35
 74
39
 0
VERTEX
 8
0
 10
0
 20
0
 30
0
 62
255
 70
128
 71
63
 72
59
 73
58
 74
62
 0
VERTEX
 8
0
 10
0
 20
0
 30
0
 62
255
 70
128
 71
51
 72
47
 73
59
 74
63
 0
VERTEX
 8
0
 10
0
 20
0
 30
0
 62
255
 70
128
 71
50
 72
46
 73
47
 74
51
 0
VERTEX
 8
0
 10
0
 20
0
 30
0
 62
255
 70
128
 71
40
 72
36
 73
24
 74
28
 0
VERTEX
 8
0
 10
0
 20
0
 30
0
 62
255
 70
128
 71
41
 72
37
 73
36
 74
40
 0
VERTEX
 8
0
 10
0
 20
0
 30
0
 62
255
 70
128
 71
65
 72
61
 73
60
 74
64
 0
VERTEX
 8
0
 10
0
 20
0
 30
0
 62
255
 70
128
 71
52
 72
48
 73
49
 74
53
 0
VERTEX
 8
0
 10
0
 20
0
 30
0
 62
255
 70
128
 71
76
 72
72
 73
73
 74
77
 0
VERTEX
 8
0
 10
0
 20
0
 30
0
 62
255
 70
128
 71
75
 72
71
 73
83
 74
87
 0
VERTEX
 8
0
 10
0
 20
0
 30
0
 62
255
 70
128
 71
74
 72
70
 73
71
 74
75
 0
VERTEX
 8
0
 10
0
 20
0
 30
0
 62
255
 70
128
 71
75
 72
87
 73
88
 74
76
 0
VERTEX
 8
0
 10
0
 20
0
 30
0
 62
255
 70
128
 71
51
 72
39
 73
38
 74
50
 0
VERTEX
 8
0
 10
0
 20
0
 30
0
 62
255
 70
128
 71
75
 72
63
 73
62
 74
74
 0
VERTEX
 8
0
 10
0
 20
0
 30
0
 62
255
 70
128
 71
77
 72
65
 73
64
 74
76
 0
VERTEX
 8
0
 10
0
 20
0
 30
0
 62
255
 70
128
 71
40
 72
28
 73
27
 74
39
 0
VERTEX
 8
0
 10
0
 20
0
 30
0
 62
255
 70
128
 71
53
 72
41
 73
40
 74
52
 0
VERTEX
 8
0
 10
0
 20
0
 30
0
 62
255
 70
128
 71
57
 72
45
 73
44
 74
56
 0
VERTEX
 8
0
 10
0
 20
0
 30
0
 62
255
 70
128
 71
81
 72
69
 73
68
 74
80
 0
VERTEX
 8
0
 10
0
 20
0
 30
0
 62
255
 70
128
 71
54
 72
42
 73
43
 74
55
 0
VERTEX
 8
0
 10
0
 20
0
 30
0
 62
255
 70
128
 71
78
 72
66
 73
67
 74
79
 0
VERTEX
 8
0
 10
0
 20
0
 30
0
 62
255
 70
128
 71
45
 72
43
 73
42
 74
44
 0
VERTEX
 8
0
 10
0
 20
0
 30
0
 62
255
 70
128
 71
69
 72
67
 73
66
 74
68
 0
VERTEX
 8
0
 10
0
 20
0
 30
0
 62
255
 70
128
 71
56
 72
54
 73
55
 74
57
 0
VERTEX
 8
0
 10
0
 20
0
 30
0
 62
255
 70
128
 71
80
 72
78
 73
79
 74
81
 0
VERTEX
 8
0
 10
0
 20
0
 30
0
 62
255
 70
128
 71
76
 72
64
 73
63
 74
75
 0
VERTEX
 8
0
 10
0
 20
0
 30
0
 62
255
 70
128
 71
72
 72
71
 73
59
 74
60
 0
VERTEX
 8
0
 10
0
 20
0
 30
0
 62
255
 70
128
 71
48
 72
47
 73
35
 74
36
 0
VERTEX
 8
0
 10
0
 20
0
 30
0
 62
255
 70
128
 71
52
 72
40
 73
39
 74
51
 0
VERTEX
 8
0
 10
0
 20
0
 30
0
 62
255
 70
128
 71
56
 72
68
 73
66
 74
54
 0
VERTEX
 8
0
 10
0
 20
0
 30
0
 62
255
 70
128
 71
53
 72
49
 73
61
 74
65
 0
VERTEX
 8
0
 10
0
 20
0
 30
0
 62
255
 70
128
 71
57
 72
55
 73
67
 74
69
 0
VERTEX
 8
0
 10
0
 20
0
 30
0
 62
255
 70
128
 71
38
 72
34
 73
22
 74
26
 0
VERTEX
 8
0
 10
0
 20
0
 30
0
 62
255
 70
128
 71
33
 72
31
 73
43
 74
45
 0
VERTEX
 8
0
 10
0
 20
0
 30
0
 62
255
 70
128
 71
81
 72
79
 73
91
 74
93
 0
VERTEX
 8
0
 10
0
 20
0
 30
0
 62
255
 70
128
 71
86
 72
82
 73
70
 74
74
 0
VERTEX
 8
0
 10
0
 20
0
 30
0
 62
255
 70
128
 71
127
 72
128
 73
130
 74
129
 0
VERTEX
 8
0
 10
0
 20
0
 30
0
 62
255
 70
128
 71
119
 72
121
 73
122
 74
120
 0
VERTEX
 8
0
 10
0
 20
0
 30
0
 62
255
 70
128
 71
18
 72
102
 73
68
 74
56
 0
VERTEX
 8
0
 10
0
 20
0
 30
0
 62
255
 70
128
 71
103
 72
19
 73
57
 74
69
 0
VERTEX
 8
0
 10
0
 20
0
 30
0
 62
255
 70
128
 71
58
 72
96
 73
12
 74
46
 0
VERTEX
 8
0
 10
0
 20
0
 30
0
 62
255
 70
128
 71
13
 72
97
 73
61
 74
49
 0
VERTEX
 8
0
 10
0
 20
0
 30
0
 62
255
 70
128
 71
97
 72
13
 73
54
 74
66
 0
VERTEX
 8
0
 10
0
 20
0
 30
0
 62
255
 70
128
 71
17
 72
101
 73
67
 74
55
 0
VERTEX
 8
0
 10
0
 20
0
 30
0
 62
255
 70
128
 71
102
 72
18
 73
53
 74
65
 0
VERTEX
 8
0
 10
0
 20
0
 30
0
 62
255
 70
128
 71
16
 72
17
 73
30
 0
VERTEX
 8
0
 10
0
 20
0
 30
0
 62
255
 70
128
 71
101
 72
100
 73
90
 0
VERTEX
 8
0
 10
0
 20
0
 30
0
 62
255
 70
128
 71
84
 72
97
 73
96
 74
83
 0
VERTEX
 8
0
 10
0
 20
0
 30
0
 62
255
 70
128
 71
12
 72
13
 73
24
 74
23
 0
VERTEX
 8
0
 10
0
 20
0
 30
0
 62
255
 70
128
 71
28
 72
15
 73
14
 74
27
 0
VERTEX
 8
0
 10
0
 20
0
 30
0
 62
255
 70
128
 71
98
 72
99
 73
88
 74
87
 0
VERTEX
 8
0
 10
0
 20
0
 30
0
 62
255
 70
128
 71
102
 72
103
 73
92
 0
VERTEX
 8
0
 10
0
 20
0
 30
0
 62
255
 70
128
 71
18
 72
32
 73
19
 0
VERTEX
 8
0
 10
0
 20
0
 30
0
 62
255
 70
128
 71
32
 72
30
 73
31
 74
33
 0
VERTEX
 8
0
 10
0
 20
0
 30
0
 62
255
 70
128
 71
93
 72
91
 73
90
 74
92
 0
VERTEX
 8
0
 10
0
 20
0
 30
0
 62
255
 70
128
 71
89
 72
85
 73
84
 74
88
 0
VERTEX
 8
0
 10
0
 20
0
 30
0
 62
255
 70
128
 71
87
 72
83
 73
82
 74
86
 0
VERTEX
 8
0
 10
0
 20
0
 30
0
 62
255
 70
128
 71
26
 72
22
 73
23
 74
27
 0
VERTEX
 8
0
 10
0
 20
0
 30
0
 62
255
 70
128
 71
28
 72
24
 73
25
 74
29
 0
VERTEX
 8
0
 10
0
 20
0
 30
0
 62
255
 70
128
 71
100
 72
101
 73
95
 74
97
 0
VERTEX
 8
0
 10
0
 20
0
 30
0
 62
255
 70
128
 71
11
 72
17
 73
16
 74
13
 0
VERTEX
 8
0
 10
0
 20
0
 30
0
 62
255
 70
128
 71
10
 72
4
 73
5
 74
11
 0
VERTEX
 8
0
 10
0
 20
0
 30
0
 62
255
 70
128
 71
94
 72
95
 73
110
 74
109
 0
VERTEX
 8
0
 10
0
 20
0
 30
0
 62
255
 70
128
 71
111
 72
112
 73
105
 74
104
 0
VERTEX
 8
0
 10
0
 20
0
 30
0
 62
255
 70
128
 71
6
 72
20
 73
21
 74
7
 0
VERTEX
 8
0
 10
0
 20
0
 30
0
 62
255
 70
128
 71
32
 72
44
 73
42
 74
30
 0
VERTEX
 8
0
 10
0
 20
0
 30
0
 62
255
 70
128
 71
80
 72
92
 73
90
 74
78
 0
VERTEX
 8
0
 10
0
 20
0
 30
0
 62
255
 70
128
 71
37
 72
41
 73
29
 74
25
 0
VERTEX
 8
0
 10
0
 20
0
 30
0
 62
255
 70
128
 71
99
 72
98
 73
104
 74
102
 0
VERTEX
 8
0
 10
0
 20
0
 30
0
 62
255
 70
128
 71
20
 72
14
 73
15
 74
18
 0
VERTEX
 8
0
 10
0
 20
0
 30
0
 62
255
 70
128
 71
12
 72
10
 73
11
 74
13
 0
VERTEX
 8
0
 10
0
 20
0
 30
0
 62
255
 70
128
 71
95
 72
94
 73
96
 74
97
 0
VERTEX
 8
0
 10
0
 20
0
 30
0
 62
255
 70
128
 71
103
 72
102
 73
104
 74
105
 0
VERTEX
 8
0
 10
0
 20
0
 30
0
 62
255
 70
128
 71
19
 72
21
 73
20
 74
18
 0
VERTEX
 8
0
 10
0
 20
0
 30
0
 62
255
 70
128
 71
14
 72
50
 73
38
 0
VERTEX
 8
0
 10
0
 20
0
 30
0
 62
255
 70
128
 71
38
 72
26
 73
14
 0
VERTEX
 8
0
 10
0
 20
0
 30
0
 62
255
 70
128
 71
74
 72
62
 73
98
 0
VERTEX
 8
0
 10
0
 20
0
 30
0
 62
255
 70
128
 71
98
 72
86
 73
74
 0
VERTEX
 8
0
 10
0
 20
0
 30
0
 62
255
 70
128
 71
98
 72
62
 73
50
 74
14
 0
VERTEX
 8
0
 10
0
 20
0
 30
0
 62
255
 70
128
 71
80
 72
68
 73
102
 0
VERTEX
 8
0
 10
0
 20
0
 30
0
 62
255
 70
128
 71
102
 72
92
 73
80
 0
VERTEX
 8
0
 10
0
 20
0
 30
0
 62
255
 70
128
 71
18
 72
56
 73
44
 0
VERTEX
 8
0
 10
0
 20
0
 30
0
 62
255
 70
128
 71
44
 72
32
 73
18
 0
VERTEX
 8
0
 10
0
 20
0
 30
0
 62
255
 70
128
 71
81
 72
93
 73
103
 0
VERTEX
 8
0
 10
0
 20
0
 30
0
 62
255
 70
128
 71
103
 72
69
 73
81
 0
VERTEX
 8
0
 10
0
 20
0
 30
0
 62
255
 70
128
 71
19
 72
33
 73
45
 0
VERTEX
 8
0
 10
0
 20
0
 30
0
 62
255
 70
128
 71
45
 72
57
 73
19
 0
VERTEX
 8
0
 10
0
 20
0
 30
0
 62
255
 70
128
 71
17
 72
55
 73
43
 0
VERTEX
 8
0
 10
0
 20
0
 30
0
 62
255
 70
128
 71
43
 72
31
 73
17
 0
VERTEX
 8
0
 10
0
 20
0
 30
0
 62
255
 70
128
 71
79
 72
67
 73
101
 0
VERTEX
 8
0
 10
0
 20
0
 30
0
 62
255
 70
128
 71
101
 72
91
 73
79
 0
VERTEX
 8
0
 10
0
 20
0
 30
0
 62
255
 70
128
 71
103
 72
105
 73
21
 74
19
 0
VERTEX
 8
0
 10
0
 20
0
 30
0
 62
255
 70
128
 71
112
 72
7
 73
21
 74
105
 0
VERTEX
 8
0
 10
0
 20
0
 30
0
 62
255
 70
128
 71
13
 72
49
 73
37
 0
VERTEX
 8
0
 10
0
 20
0
 30
0
 62
255
 70
128
 71
37
 72
25
 73
13
 0
VERTEX
 8
0
 10
0
 20
0
 30
0
 62
255
 70
128
 71
61
 72
97
 73
73
 0
VERTEX
 8
0
 10
0
 20
0
 30
0
 62
255
 70
128
 71
85
 72
73
 73
97
 0
VERTEX
 8
0
 10
0
 20
0
 30
0
 62
255
 70
128
 71
89
 72
77
 73
73
 74
85
 0
VERTEX
 8
0
 10
0
 20
0
 30
0
 62
255
 70
128
 71
96
 72
58
 73
70
 0
VERTEX
 8
0
 10
0
 20
0
 30
0
 62
255
 70
128
 71
70
 72
82
 73
96
 0
VERTEX
 8
0
 10
0
 20
0
 30
0
 62
255
 70
128
 71
34
 72
46
 73
12
 0
VERTEX
 8
0
 10
0
 20
0
 30
0
 62
255
 70
128
 71
12
 72
22
 73
34
 0
VERTEX
 8
0
 10
0
 20
0
 30
0
 62
255
 70
128
 71
77
 72
89
 73
102
 0
VERTEX
 8
0
 10
0
 20
0
 30
0
 62
255
 70
128
 71
102
 72
65
 73
77
 0
VERTEX
 8
0
 10
0
 20
0
 30
0
 62
255
 70
128
 71
41
 72
53
 73
18
 0
VERTEX
 8
0
 10
0
 20
0
 30
0
 62
255
 70
128
 71
18
 72
29
 73
41
 0
VERTEX
 8
0
 10
0
 20
0
 30
0
 62
255
 70
128
 71
42
 72
54
 73
13
 0
VERTEX
 8
0
 10
0
 20
0
 30
0
 62
255
 70
128
 71
13
 72
30
 73
42
 0
VERTEX
 8
0
 10
0
 20
0
 30
0
 62
255
 70
128
 71
78
 72
90
 73
97
 0
VERTEX
 8
0
 10
0
 20
0
 30
0
 62
255
 70
128
 71
97
 72
66
 73
78
 0
VERTEX
 8
0
 10
0
 20
0
 30
0
 62
255
 70
128
 71
110
 72
5
 73
7
 74
112
 0
VERTEX
 8
0
 10
0
 20
0
 30
0
 62
255
 70
128
 71
5
 72
4
 73
6
 74
7
 0
VERTEX
 8
0
 10
0
 20
0
 30
0
 62
255
 70
128
 71
112
 72
111
 73
109
 74
110
 0
VERTEX
 8
0
 10
0
 20
0
 30
0
 62
255
 70
128
 71
113
 72
120
 73
128
 74
8
 0
VERTEX
 8
0
 10
0
 20
0
 30
0
 62
255
 70
128
 71
107
 72
117
 73
115
 0
VERTEX
 8
0
 10
0
 20
0
 30
0
 62
255
 70
128
 71
108
 72
107
 73
115
 74
116
 0
VERTEX
 8
0
 10
0
 20
0
 30
0
 62
255
 70
128
 71
2
 72
123
 73
125
 0
VERTEX
 8
0
 10
0
 20
0
 30
0
 62
255
 70
128
 71
124
 72
123
 73
2
 74
3
 0
VERTEX
 8
0
 10
0
 20
0
 30
0
 62
255
 70
128
 71
2
 72
107
 73
106
 74
1
 0
VERTEX
 8
0
 10
0
 20
0
 30
0
 62
255
 70
128
 71
111
 72
107
 73
108
 74
109
 0
VERTEX
 8
0
 10
0
 20
0
 30
0
 62
255
 70
128
 71
113
 72
106
 73
107
 74
111
 0
VERTEX
 8
0
 10
0
 20
0
 30
0
 62
255
 70
128
 71
3
 72
2
 73
6
 74
4
 0
VERTEX
 8
0
 10
0
 20
0
 30
0
 62
255
 70
128
 71
2
 72
1
 73
8
 74
6
 0
VERTEX
 8
0
 10
0
 20
0
 30
0
 62
255
 70
128
 71
106
 72
113
 73
8
 74
1
 0
VERTEX
 8
0
 10
0
 20
0
 30
0
 62
255
 70
128
 71
9
 72
8
 73
128
 74
127
 0
VERTEX
 8
0
 10
0
 20
0
 30
0
 62
255
 70
128
 71
6
 72
8
 73
9
 0
VERTEX
 8
0
 10
0
 20
0
 30
0
 62
255
 70
128
 71
119
 72
120
 73
113
 74
114
 0
VERTEX
 8
0
 10
0
 20
0
 30
0
 62
255
 70
128
 71
114
 72
113
 73
111
 0
SEQEND
 0
ENDSEC
 0
EOF
