 0
SECTION
 2
HEADER
 9
$ACADVER
 1
AC1009
 9
$INSBASE
 10
0.0
 20
0.0
 30
0.0
 9
$EXTMIN
 10
0.0
 20
0.0
 30
0.0
 9
$EXTMAX
 10
0.0
 20
0.0
 30
0.0
 0
ENDSEC
 0
SECTION
 2
ENTITIES
 0
POLYLINE
 8
0
 70
64
 66
1
 10
0
 20
0.25
 30
0
 71
361
 72
433
 0
VERTEX
 8
0
 10
0.952499985694885
 20
0
 30
-0.163332983851433
 70
192
 0
VERTEX
 8
0
 10
0
 20
0
 30
0
 70
192
 0
VERTEX
 8
0
 10
0.033125001937151
 20
0.175
 30
0.526249885559082
 70
192
 0
VERTEX
 8
0
 10
0.01
 20
0.175
 30
0.0771669968962669
 70
192
 0
VERTEX
 8
0
 10
0.01
 20
0.175
 30
0.975209057331085
 70
192
 0
VERTEX
 8
0
 10
0.307708024978638
 20
0.175
 30
0.536249876022339
 70
192
 0
VERTEX
 8
0
 10
0.033125001937151
 20
0.175
 30
0.536249876022339
 70
192
 0
VERTEX
 8
0
 10
0.307708024978638
 20
0.175
 30
0.125416994094849
 70
192
 0
VERTEX
 8
0
 10
0.033125001937151
 20
0.145
 30
0.526249885559082
 70
192
 0
VERTEX
 8
0
 10
0.307708024978638
 20
0.145
 30
0.526249885559082
 70
192
 0
VERTEX
 8
0
 10
0.307708024978638
 20
0.175
 30
0.526249885559082
 70
192
 0
VERTEX
 8
0
 10
0.307708024978638
 20
0.145
 30
0.125416994094849
 70
192
 0
VERTEX
 8
0
 10
0.033125001937151
 20
0.175
 30
0.937082886695862
 70
192
 0
VERTEX
 8
0
 10
0.307708024978638
 20
0.145
 30
0.937082886695862
 70
192
 0
VERTEX
 8
0
 10
0.307708024978638
 20
0.145
 30
0.536249876022339
 70
192
 0
VERTEX
 8
0
 10
0.033125001937151
 20
0.145
 30
0.536249876022339
 70
192
 0
VERTEX
 8
0
 10
0.033125001937151
 20
0.145
 30
0.937082886695862
 70
192
 0
VERTEX
 8
0
 10
0.317708015441895
 20
0.175
 30
0.526249885559082
 70
192
 0
VERTEX
 8
0
 10
0.59229189157486
 20
0.175
 30
0.526249885559082
 70
192
 0
VERTEX
 8
0
 10
0.59229189157486
 20
0.145
 30
0.526249885559082
 70
192
 0
VERTEX
 8
0
 10
0.317708015441895
 20
0.175
 30
0.536249876022339
 70
192
 0
VERTEX
 8
0
 10
0.317708015441895
 20
0.145
 30
0.536249876022339
 70
192
 0
VERTEX
 8
0
 10
0.317708015441895
 20
0.175
 30
0.125416994094849
 70
192
 0
VERTEX
 8
0
 10
0.317708015441895
 20
0.175
 30
0.937082886695862
 70
192
 0
VERTEX
 8
0
 10
0.317708015441895
 20
0.145
 30
0.937082886695862
 70
192
 0
VERTEX
 8
0
 10
0.033125001937151
 20
0.175
 30
0.125416994094849
 70
192
 0
VERTEX
 8
0
 10
0.033125001937151
 20
0.145
 30
0.125416994094849
 70
192
 0
VERTEX
 8
0
 10
0.317708015441895
 20
0.145
 30
0.526249885559082
 70
192
 0
VERTEX
 8
0
 10
0.9
 20
0.175
 30
0.0771669968962669
 70
192
 0
VERTEX
 8
0
 10
0.9
 20
0.19
 30
0.0771669968962669
 70
192
 0
VERTEX
 8
0
 10
0.01
 20
0.19
 30
0.0771669968962669
 70
192
 0
VERTEX
 8
0
 10
0.01
 20
0.145
 30
1.81
 70
192
 0
VERTEX
 8
0
 10
0.01
 20
0.145
 30
0.975209057331085
 70
192
 0
VERTEX
 8
0
 10
0.307708024978638
 20
0.175
 30
0.937082886695862
 70
192
 0
VERTEX
 8
0
 10
0.602291882038116
 20
0.175
 30
0.937082886695862
 70
192
 0
VERTEX
 8
0
 10
0.59229189157486
 20
0.175
 30
0.125416994094849
 70
192
 0
VERTEX
 8
0
 10
0.59229189157486
 20
0.145
 30
0.125416994094849
 70
192
 0
VERTEX
 8
0
 10
0.59229189157486
 20
0.145
 30
0.536249876022339
 70
192
 0
VERTEX
 8
0
 10
0.59229189157486
 20
0.145
 30
0.937082886695862
 70
192
 0
VERTEX
 8
0
 10
0.59229189157486
 20
0.175
 30
0.937082886695862
 70
192
 0
VERTEX
 8
0
 10
0.59229189157486
 20
0.175
 30
0.536249876022339
 70
192
 0
VERTEX
 8
0
 10
0.317708015441895
 20
0.145
 30
0.125416994094849
 70
192
 0
VERTEX
 8
0
 10
0.9
 20
0.175
 30
0.975209057331085
 70
192
 0
VERTEX
 8
0
 10
0
 20
0.33
 30
0.0771669968962669
 70
192
 0
VERTEX
 8
0
 10
0
 20
0.19
 30
1.82
 70
192
 0
VERTEX
 8
0
 10
0
 20
0.19
 30
0.0771669968962669
 70
192
 0
VERTEX
 8
0
 10
0
 20
0.1
 30
0.0266670044511557
 70
192
 0
VERTEX
 8
0
 10
0.91
 20
0.19
 30
1.82
 70
192
 0
VERTEX
 8
0
 10
0.9
 20
0.145
 30
1.81
 70
192
 0
VERTEX
 8
0
 10
0.01
 20
0.19
 30
1.81
 70
192
 0
VERTEX
 8
0
 10
0.9
 20
0.19
 30
1.81
 70
192
 0
VERTEX
 8
0
 10
0.033125001937151
 20
0.145
 30
1.38604187965393
 70
192
 0
VERTEX
 8
0
 10
0.033125001937151
 20
0.145
 30
0.975209057331085
 70
192
 0
VERTEX
 8
0
 10
0.01
 20
0.145
 30
0.937082886695862
 70
192
 0
VERTEX
 8
0
 10
0.602291882038116
 20
0.175
 30
0.536249876022339
 70
192
 0
VERTEX
 8
0
 10
0.876875042915344
 20
0.175
 30
0.526249885559082
 70
192
 0
VERTEX
 8
0
 10
0.602291882038116
 20
0.145
 30
0.125416994094849
 70
192
 0
VERTEX
 8
0
 10
0.602291882038116
 20
0.175
 30
0.526249885559082
 70
192
 0
VERTEX
 8
0
 10
0.602291882038116
 20
0.145
 30
0.526249885559082
 70
192
 0
VERTEX
 8
0
 10
0.602291882038116
 20
0.145
 30
0.536249876022339
 70
192
 0
VERTEX
 8
0
 10
0.9
 20
0.145
 30
0.0771669968962669
 70
192
 0
VERTEX
 8
0
 10
0.01
 20
0.145
 30
0.0771669968962669
 70
192
 0
VERTEX
 8
0
 10
0.9
 20
0.1
 30
0.0771669968962669
 70
192
 0
VERTEX
 8
0
 10
0.01
 20
0.115
 30
1.81
 70
192
 0
VERTEX
 8
0
 10
0.91
 20
0.19
 30
0.0771669968962669
 70
192
 0
VERTEX
 8
0
 10
0
 20
0.33
 30
0.0521670021116734
 70
192
 0
VERTEX
 8
0
 10
0.01
 20
0.1
 30
0.0771669968962669
 70
192
 0
VERTEX
 8
0
 10
0.01
 20
0.1
 30
1.81
 70
192
 0
VERTEX
 8
0
 10
0
 20
0.1
 30
1.82
 70
192
 0
VERTEX
 8
0
 10
0.91
 20
0.1
 30
1.82
 70
192
 0
VERTEX
 8
0
 10
0.59229189157486
 20
0.145
 30
1.78687500953674
 70
192
 0
VERTEX
 8
0
 10
0.033125001937151
 20
0.145
 30
1.78687500953674
 70
192
 0
VERTEX
 8
0
 10
0.307708024978638
 20
0.145
 30
1.37604188919067
 70
192
 0
VERTEX
 8
0
 10
0.876875042915344
 20
0.175
 30
0.536249876022339
 70
192
 0
VERTEX
 8
0
 10
0.876875042915344
 20
0.145
 30
0.536249876022339
 70
192
 0
VERTEX
 8
0
 10
0.876875042915344
 20
0.145
 30
0.526249885559082
 70
192
 0
VERTEX
 8
0
 10
0.876875042915344
 20
0.175
 30
0.125416994094849
 70
192
 0
VERTEX
 8
0
 10
0.876875042915344
 20
0.145
 30
0.125416994094849
 70
192
 0
VERTEX
 8
0
 10
0.602291882038116
 20
0.175
 30
0.125416994094849
 70
192
 0
VERTEX
 8
0
 10
0.602291882038116
 20
0.145
 30
0.937082886695862
 70
192
 0
VERTEX
 8
0
 10
0.876875042915344
 20
0.175
 30
0.937082886695862
 70
192
 0
VERTEX
 8
0
 10
0.01
 20
0.115
 30
0.937082886695862
 70
192
 0
VERTEX
 8
0
 10
0.9
 20
0.115
 30
0.937082886695862
 70
192
 0
VERTEX
 8
0
 10
0.59229189157486
 20
0.115
 30
0.975209057331085
 70
192
 0
VERTEX
 8
0
 10
0.91
 20
0.1
 30
0.0266670044511557
 70
192
 0
VERTEX
 8
0
 10
0.033125001937151
 20
0.115
 30
1.37604188919067
 70
192
 0
VERTEX
 8
0
 10
0.9
 20
0.145
 30
0.975209057331085
 70
192
 0
VERTEX
 8
0
 10
-0.02
 20
0.36
 30
0.0521670021116734
 70
192
 0
VERTEX
 8
0
 10
-0.02
 20
0.36
 30
0.0771669968962669
 70
192
 0
VERTEX
 8
0
 10
0.93
 20
0.36
 30
0.0521670021116734
 70
192
 0
VERTEX
 8
0
 10
-0.02
 20
0.33
 30
0.0771669968962669
 70
192
 0
VERTEX
 8
0
 10
0.91
 20
0.33
 30
0.0771669968962669
 70
192
 0
VERTEX
 8
0
 10
-0.02
 20
0.33
 30
0.0521670021116734
 70
192
 0
VERTEX
 8
0
 10
0.9
 20
0.1
 30
1.81
 70
192
 0
VERTEX
 8
0
 10
0.602291882038116
 20
0.145
 30
1.78687500953674
 70
192
 0
VERTEX
 8
0
 10
0.317708015441895
 20
0.145
 30
1.78687500953674
 70
192
 0
VERTEX
 8
0
 10
0.307708024978638
 20
0.145
 30
1.78687500953674
 70
192
 0
VERTEX
 8
0
 10
0.033125001937151
 20
0.115
 30
0.975209057331085
 70
192
 0
VERTEX
 8
0
 10
0.033125001937151
 20
0.115
 30
1.38604187965393
 70
192
 0
VERTEX
 8
0
 10
0.033125001937151
 20
0.145
 30
1.37604188919067
 70
192
 0
VERTEX
 8
0
 10
0.317708015441895
 20
0.145
 30
1.37604188919067
 70
192
 0
VERTEX
 8
0
 10
0.307708024978638
 20
0.115
 30
0.975209057331085
 70
192
 0
VERTEX
 8
0
 10
0.876875042915344
 20
0.145
 30
0.937082886695862
 70
192
 0
VERTEX
 8
0
 10
0.602291882038116
 20
0.115
 30
0.975209057331085
 70
192
 0
VERTEX
 8
0
 10
0.59229189157486
 20
0.145
 30
1.37604188919067
 70
192
 0
VERTEX
 8
0
 10
0.317708015441895
 20
0.115
 30
0.975209057331085
 70
192
 0
VERTEX
 8
0
 10
0.317708015441895
 20
0.145
 30
0.975209057331085
 70
192
 0
VERTEX
 8
0
 10
0.602291882038116
 20
0.145
 30
0.975209057331085
 70
192
 0
VERTEX
 8
0
 10
0.59229189157486
 20
0.145
 30
0.975209057331085
 70
192
 0
VERTEX
 8
0
 10
0.9
 20
0.145
 30
0.937082886695862
 70
192
 0
VERTEX
 8
0
 10
0.9
 20
0.115
 30
1.81
 70
192
 0
VERTEX
 8
0
 10
0.317708015441895
 20
0.115
 30
1.78687500953674
 70
192
 0
VERTEX
 8
0
 10
0.876875042915344
 20
0.145
 30
1.78687500953674
 70
192
 0
VERTEX
 8
0
 10
0.93
 20
0.36
 30
0.0771669968962669
 70
192
 0
VERTEX
 8
0
 10
0.93
 20
0.33
 30
0.0521670021116734
 70
192
 0
VERTEX
 8
0
 10
0.93
 20
0.33
 30
0.0771669968962669
 70
192
 0
VERTEX
 8
0
 10
0.91
 20
0.33
 30
0.0521670021116734
 70
192
 0
VERTEX
 8
0
 10
0.91
 20
0.33
 30
0
 70
192
 0
VERTEX
 8
0
 10
0.91
 20
0
 30
0
 70
192
 0
VERTEX
 8
0
 10
0
 20
0.33
 30
0
 70
192
 0
VERTEX
 8
0
 10
0.59229189157486
 20
0.145
 30
1.38604187965393
 70
192
 0
VERTEX
 8
0
 10
0.59229189157486
 20
0.115
 30
1.78687500953674
 70
192
 0
VERTEX
 8
0
 10
0.59229189157486
 20
0.115
 30
1.38604187965393
 70
192
 0
VERTEX
 8
0
 10
0.033125001937151
 20
0.115
 30
1.78687500953674
 70
192
 0
VERTEX
 8
0
 10
0.307708024978638
 20
0.115
 30
1.78687500953674
 70
192
 0
VERTEX
 8
0
 10
0.307708024978638
 20
0.115
 30
1.37604188919067
 70
192
 0
VERTEX
 8
0
 10
0.307708024978638
 20
0.145
 30
0.975209057331085
 70
192
 0
VERTEX
 8
0
 10
0.307708024978638
 20
0.145
 30
1.38604187965393
 70
192
 0
VERTEX
 8
0
 10
0.307708024978638
 20
0.115
 30
1.38604187965393
 70
192
 0
VERTEX
 8
0
 10
0.59229189157486
 20
0.115
 30
1.37604188919067
 70
192
 0
VERTEX
 8
0
 10
0.317708015441895
 20
0.115
 30
1.37604188919067
 70
192
 0
VERTEX
 8
0
 10
0.602291882038116
 20
0.115
 30
1.37604188919067
 70
192
 0
VERTEX
 8
0
 10
0.92
 20
-0.01
 30
0.00833339989185333
 70
192
 0
VERTEX
 8
0
 10
0.876875042915344
 20
0.115
 30
1.37604188919067
 70
192
 0
VERTEX
 8
0
 10
0.602291882038116
 20
0.115
 30
1.78687500953674
 70
192
 0
VERTEX
 8
0
 10
0.876875042915344
 20
0.145
 30
1.37604188919067
 70
192
 0
VERTEX
 8
0
 10
0.876875042915344
 20
0.145
 30
0.975209057331085
 70
192
 0
VERTEX
 8
0
 10
0.876875042915344
 20
0.115
 30
0.975209057331085
 70
192
 0
VERTEX
 8
0
 10
0.602291882038116
 20
0.145
 30
1.38604187965393
 70
192
 0
VERTEX
 8
0
 10
0.602291882038116
 20
0.115
 30
1.38604187965393
 70
192
 0
VERTEX
 8
0
 10
0.602291882038116
 20
0.145
 30
1.37604188919067
 70
192
 0
VERTEX
 8
0
 10
0.876875042915344
 20
0.145
 30
1.38604187965393
 70
192
 0
VERTEX
 8
0
 10
0.876875042915344
 20
0.115
 30
1.38604187965393
 70
192
 0
VERTEX
 8
0
 10
-0.0425
 20
0
 30
-0.163332983851433
 70
192
 0
VERTEX
 8
0
 10
0
 20
0
 30
0.01
 70
192
 0
VERTEX
 8
0
 10
0.876875042915344
 20
0.115
 30
1.78687500953674
 70
192
 0
VERTEX
 8
0
 10
0.317708015441895
 20
0.145
 30
1.38604187965393
 70
192
 0
VERTEX
 8
0
 10
0.317708015441895
 20
0.115
 30
1.38604187965393
 70
192
 0
VERTEX
 8
0
 10
0.91
 20
0
 30
0.01
 70
192
 0
VERTEX
 8
0
 10
0.92
 20
0
 30
0.01
 70
192
 0
VERTEX
 8
0
 10
-0.113749980926514
 20
0
 30
-0.163332983851433
 70
192
 0
VERTEX
 8
0
 10
-0.175
 20
0
 30
0.01
 70
192
 0
VERTEX
 8
0
 10
0.952499985694885
 20
-0.01
 30
0.00833339989185333
 70
192
 0
VERTEX
 8
0
 10
-0.01
 20
-0.01
 30
0.00833339989185333
 70
192
 0
VERTEX
 8
0
 10
0.9425
 20
-0.05
 30
-0.163332983851433
 70
192
 0
VERTEX
 8
0
 10
0.9425
 20
-0.05
 30
0.001667
 70
192
 0
VERTEX
 8
0
 10
-0.0325
 20
-0.05
 30
-0.163332983851433
 70
192
 0
VERTEX
 8
0
 10
-0.195
 20
0
 30
0.01
 70
192
 0
VERTEX
 8
0
 10
-0.195
 20
0
 30
-0.163332983851433
 70
192
 0
VERTEX
 8
0
 10
-0.113749980926514
 20
-0.05
 30
-0.163332983851433
 70
192
 0
VERTEX
 8
0
 10
1.105
 20
0
 30
0.01
 70
192
 0
VERTEX
 8
0
 10
1.02874994277954
 20
0
 30
-0.163332983851433
 70
192
 0
VERTEX
 8
0
 10
1.02374994754791
 20
-0.05
 30
-0.163332983851433
 70
192
 0
VERTEX
 8
0
 10
1.008
 20
-0.035
 30
0.0041669006459415
 70
192
 0
VERTEX
 8
0
 10
-0.113749980926514
 20
-0.05
 30
0.001667
 70
192
 0
VERTEX
 8
0
 10
-0.0325
 20
-0.05
 30
0.001667
 70
192
 0
VERTEX
 8
0
 10
-0.195
 20
-0.05
 30
-0.163332983851433
 70
192
 0
VERTEX
 8
0
 10
1.105
 20
-0.05
 30
-0.163332983851433
 70
192
 0
VERTEX
 8
0
 10
1.105
 20
0
 30
-0.163332983851433
 70
192
 0
VERTEX
 8
0
 10
-0.175
 20
-0.04
 30
0.00333360023796558
 70
192
 0
VERTEX
 8
0
 10
-0.195
 20
-0.05
 30
0.001667
 70
192
 0
VERTEX
 8
0
 10
-0.15
 20
-0.04
 30
0.00333360023796558
 70
192
 0
VERTEX
 8
0
 10
-0.125
 20
-0.04
 30
0.00333360023796558
 70
192
 0
VERTEX
 8
0
 10
1.02374994754791
 20
-0.05
 30
0.001667
 70
192
 0
VERTEX
 8
0
 10
1.105
 20
-0.05
 30
0.001667
 70
192
 0
VERTEX
 8
0
 10
1.03499984741211
 20
-0.04
 30
0.00333360023796558
 70
192
 0
VERTEX
 8
0
 10
1.025
 20
-0.03
 30
0.00500020058825612
 70
192
 0
VERTEX
 8
0
 10
-0.15
 20
-0.03
 30
0.00500020058825612
 70
192
 0
VERTEX
 8
0
 10
0.995
 20
-0.02
 30
1.905
 70
192
 0
VERTEX
 8
0
 10
0.995
 20
-0.02
 30
0.00666679861024022
 70
192
 0
VERTEX
 8
0
 10
0.995
 20
-0.028
 30
1.905
 70
192
 0
VERTEX
 8
0
 10
-0.098
 20
-0.035
 30
1.918
 70
192
 0
VERTEX
 8
0
 10
-0.085
 20
-0.028
 30
1.905
 70
192
 0
VERTEX
 8
0
 10
-0.085
 20
-0.02
 30
1.905
 70
192
 0
VERTEX
 8
0
 10
-0.085
 20
-0.028
 30
0.00533352000638843
 70
192
 0
VERTEX
 8
0
 10
-0.0425
 20
-0.02
 30
1.86249983310699
 70
192
 0
VERTEX
 8
0
 10
0.952499985694885
 20
-0.02
 30
1.86249983310699
 70
192
 0
VERTEX
 8
0
 10
0.952499985694885
 20
-0.02
 30
0.00666679861024022
 70
192
 0
VERTEX
 8
0
 10
0.995
 20
-0.028
 30
0.00533352000638843
 70
192
 0
VERTEX
 8
0
 10
-0.098
 20
-0.035
 30
0.0041669006459415
 70
192
 0
VERTEX
 8
0
 10
-0.0425
 20
-0.02
 30
0.00666679861024022
 70
192
 0
VERTEX
 8
0
 10
-0.085
 20
-0.02
 30
0.00666679861024022
 70
192
 0
VERTEX
 8
0
 10
-0.0425
 20
-0.01
 30
1.86249983310699
 70
192
 0
VERTEX
 8
0
 10
0.952499985694885
 20
-0.01
 30
1.86249983310699
 70
192
 0
VERTEX
 8
0
 10
1.015
 20
-0.03
 30
1.925
 70
192
 0
VERTEX
 8
0
 10
1.008
 20
-0.035
 30
1.918
 70
192
 0
VERTEX
 8
0
 10
-0.105
 20
-0.03
 30
1.925
 70
192
 0
VERTEX
 8
0
 10
-0.0425
 20
-0.01
 30
0.00833339989185333
 70
192
 0
VERTEX
 8
0
 10
0.92
 20
-0.01
 30
1.83
 70
192
 0
VERTEX
 8
0
 10
1.015
 20
-0.03
 30
0.00500020058825612
 70
192
 0
VERTEX
 8
0
 10
1.03499984741211
 20
-0.04
 30
1.94499981403351
 70
192
 0
VERTEX
 8
0
 10
-0.125
 20
-0.04
 30
1.94499981403351
 70
192
 0
VERTEX
 8
0
 10
-0.105
 20
-0.03
 30
0.00500020058825612
 70
192
 0
VERTEX
 8
0
 10
-0.01
 20
-0.01
 30
1.83
 70
192
 0
VERTEX
 8
0
 10
1.025
 20
-0.03
 30
1.935
 70
192
 0
VERTEX
 8
0
 10
1.05
 20
-0.04
 30
1.96
 70
192
 0
VERTEX
 8
0
 10
-0.115
 20
-0.03
 30
0.00500020058825612
 70
192
 0
VERTEX
 8
0
 10
-0.115
 20
-0.03
 30
1.935
 70
192
 0
VERTEX
 8
0
 10
-0.01
 20
0
 30
0.01
 70
192
 0
VERTEX
 8
0
 10
0.92
 20
0
 30
1.83
 70
192
 0
VERTEX
 8
0
 10
-0.01
 20
0
 30
1.83
 70
192
 0
VERTEX
 8
0
 10
-0.165
 20
0
 30
1.99499988555908
 70
192
 0
VERTEX
 8
0
 10
1.075
 20
0
 30
1.99499988555908
 70
192
 0
VERTEX
 8
0
 10
1.085
 20
0
 30
1.99499988555908
 70
192
 0
VERTEX
 8
0
 10
1.05
 20
-0.04
 30
0.00333360023796558
 70
192
 0
VERTEX
 8
0
 10
1.06
 20
-0.03
 30
1.97
 70
192
 0
VERTEX
 8
0
 10
-0.14
 20
-0.04
 30
1.96
 70
192
 0
VERTEX
 8
0
 10
-0.175
 20
0
 30
1.99499988555908
 70
192
 0
VERTEX
 8
0
 10
1.085
 20
0
 30
0.01
 70
192
 0
VERTEX
 8
0
 10
-0.14
 20
-0.04
 30
0.00333360023796558
 70
192
 0
VERTEX
 8
0
 10
-0.175
 20
-0.04
 30
1.99499988555908
 70
192
 0
VERTEX
 8
0
 10
-0.165
 20
-0.03
 30
1.99499988555908
 70
192
 0
VERTEX
 8
0
 10
1.075
 20
-0.03
 30
1.99499988555908
 70
192
 0
VERTEX
 8
0
 10
1.075
 20
0
 30
2.18499946594238
 70
192
 0
VERTEX
 8
0
 10
1.085
 20
-0.04
 30
0.00333360023796558
 70
192
 0
VERTEX
 8
0
 10
1.085
 20
-0.04
 30
1.99499988555908
 70
192
 0
VERTEX
 8
0
 10
1.06
 20
-0.04
 30
1.97
 70
192
 0
VERTEX
 8
0
 10
1.06
 20
-0.04
 30
0.00333360023796558
 70
192
 0
VERTEX
 8
0
 10
1.06
 20
-0.03
 30
0.00500020058825612
 70
192
 0
VERTEX
 8
0
 10
-0.15
 20
-0.04
 30
1.97
 70
192
 0
VERTEX
 8
0
 10
-0.15
 20
-0.03
 30
1.97
 70
192
 0
VERTEX
 8
0
 10
-0.175
 20
0
 30
2.18499946594238
 70
192
 0
VERTEX
 8
0
 10
-0.165
 20
0
 30
2.18499946594238
 70
192
 0
VERTEX
 8
0
 10
-0.165
 20
-0.03
 30
2.18499946594238
 70
192
 0
VERTEX
 8
0
 10
-0.185
 20
0
 30
2.2049994468689
 70
192
 0
VERTEX
 8
0
 10
1.085
 20
0
 30
2.18499946594238
 70
192
 0
VERTEX
 8
0
 10
1.075
 20
-0.03
 30
2.18499946594238
 70
192
 0
VERTEX
 8
0
 10
-0.175
 20
-0.04
 30
2.18499946594238
 70
192
 0
VERTEX
 8
0
 10
-0.185
 20
-0.05
 30
2.2049994468689
 70
192
 0
VERTEX
 8
0
 10
-0.175
 20
0
 30
2.19499945640564
 70
192
 0
VERTEX
 8
0
 10
-0.175
 20
-0.04
 30
2.19499945640564
 70
192
 0
VERTEX
 8
0
 10
-0.195
 20
0
 30
2.21499919891357
 70
192
 0
VERTEX
 8
0
 10
1.095
 20
-0.05
 30
2.2049994468689
 70
192
 0
VERTEX
 8
0
 10
1.085
 20
0
 30
2.19499945640564
 70
192
 0
VERTEX
 8
0
 10
1.085
 20
-0.04
 30
2.18499946594238
 70
192
 0
VERTEX
 8
0
 10
-0.195
 20
-0.06
 30
2.2049994468689
 70
192
 0
VERTEX
 8
0
 10
-0.195
 20
0
 30
2.2049994468689
 70
192
 0
VERTEX
 8
0
 10
1.085
 20
-0.04
 30
2.19499945640564
 70
192
 0
VERTEX
 8
0
 10
1.105
 20
0
 30
2.2049994468689
 70
192
 0
VERTEX
 8
0
 10
1.095
 20
0
 30
2.2049994468689
 70
192
 0
VERTEX
 8
0
 10
-0.205
 20
0
 30
2.21499919891357
 70
192
 0
VERTEX
 8
0
 10
-0.225
 20
0
 30
2.24499893188477
 70
192
 0
VERTEX
 8
0
 10
1.115
 20
0
 30
2.21499919891357
 70
192
 0
VERTEX
 8
0
 10
1.105
 20
-0.06
 30
2.21499919891357
 70
192
 0
VERTEX
 8
0
 10
1.105
 20
-0.06
 30
2.2049994468689
 70
192
 0
VERTEX
 8
0
 10
-0.205
 20
-0.07
 30
2.21499919891357
 70
192
 0
VERTEX
 8
0
 10
-0.195
 20
-0.06
 30
2.21499919891357
 70
192
 0
VERTEX
 8
0
 10
-0.225
 20
0
 30
2.23499917984009
 70
192
 0
VERTEX
 8
0
 10
-0.225
 20
-0.09
 30
2.23499917984009
 70
192
 0
VERTEX
 8
0
 10
1.135
 20
0
 30
2.24499893188477
 70
192
 0
VERTEX
 8
0
 10
1.135
 20
-0.09
 30
2.24499893188477
 70
192
 0
VERTEX
 8
0
 10
1.105
 20
0
 30
2.21499919891357
 70
192
 0
VERTEX
 8
0
 10
1.135
 20
0
 30
2.23499917984009
 70
192
 0
VERTEX
 8
0
 10
1.115
 20
-0.07
 30
2.21499919891357
 70
192
 0
VERTEX
 8
0
 10
1.135
 20
-0.09
 30
2.23499917984009
 70
192
 0
VERTEX
 8
0
 10
-0.285
 20
-0.15
 30
2.24499893188477
 70
192
 0
VERTEX
 8
0
 10
-0.285
 20
0
 30
2.24499893188477
 70
192
 0
VERTEX
 8
0
 10
-0.225
 20
-0.09
 30
2.24499893188477
 70
192
 0
VERTEX
 8
0
 10
-0.295
 20
0
 30
2.31499910354614
 70
192
 0
VERTEX
 8
0
 10
1.20499980449677
 20
0
 30
2.31499910354614
 70
192
 0
VERTEX
 8
0
 10
-0.295
 20
0
 30
2.30499911308289
 70
192
 0
VERTEX
 8
0
 10
1.215
 20
0
 30
2.3249990940094
 70
192
 0
VERTEX
 8
0
 10
1.20499980449677
 20
0
 30
2.30499911308289
 70
192
 0
VERTEX
 8
0
 10
1.19499981403351
 20
-0.15
 30
2.30499911308289
 70
192
 0
VERTEX
 8
0
 10
1.19499981403351
 20
-0.15
 30
2.24499893188477
 70
192
 0
VERTEX
 8
0
 10
1.19499981403351
 20
0
 30
2.24499893188477
 70
192
 0
VERTEX
 8
0
 10
-0.285
 20
0
 30
2.30499911308289
 70
192
 0
VERTEX
 8
0
 10
-0.285
 20
-0.15
 30
2.30499911308289
 70
192
 0
VERTEX
 8
0
 10
-0.295
 20
-0.16
 30
2.31499910354614
 70
192
 0
VERTEX
 8
0
 10
1.20499980449677
 20
-0.16
 30
2.30499911308289
 70
192
 0
VERTEX
 8
0
 10
1.19499981403351
 20
0
 30
2.30499911308289
 70
192
 0
VERTEX
 8
0
 10
-0.295
 20
-0.16
 30
2.30499911308289
 70
192
 0
VERTEX
 8
0
 10
1.20499980449677
 20
-0.16
 30
2.31499910354614
 70
192
 0
VERTEX
 8
0
 10
-0.304999887943268
 20
0
 30
2.3249990940094
 70
192
 0
VERTEX
 8
0
 10
-0.304999887943268
 20
-0.17
 30
2.3249990940094
 70
192
 0
VERTEX
 8
0
 10
-0.335
 20
0
 30
2.36599969863892
 70
192
 0
VERTEX
 8
0
 10
1.215
 20
-0.17
 30
2.3249990940094
 70
192
 0
VERTEX
 8
0
 10
-0.314999848604202
 20
0
 30
2.3249990940094
 70
192
 0
VERTEX
 8
0
 10
1.235
 20
0
 30
2.34099864959717
 70
192
 0
VERTEX
 8
0
 10
1.225
 20
0
 30
2.33499908447266
 70
192
 0
VERTEX
 8
0
 10
1.225
 20
-0.18
 30
2.3249990940094
 70
192
 0
VERTEX
 8
0
 10
1.225
 20
0
 30
2.3249990940094
 70
192
 0
VERTEX
 8
0
 10
-0.325000107288361
 20
-0.19
 30
2.34099864959717
 70
192
 0
VERTEX
 8
0
 10
-0.314999848604202
 20
0
 30
2.33499908447266
 70
192
 0
VERTEX
 8
0
 10
-0.314999848604202
 20
-0.18
 30
2.33499908447266
 70
192
 0
VERTEX
 8
0
 10
-0.314999848604202
 20
-0.18
 30
2.3249990940094
 70
192
 0
VERTEX
 8
0
 10
-0.335
 20
-0.2
 30
2.36599969863892
 70
192
 0
VERTEX
 8
0
 10
-0.325000107288361
 20
0
 30
2.34099864959717
 70
192
 0
VERTEX
 8
0
 10
1.245
 20
0
 30
2.36599969863892
 70
192
 0
VERTEX
 8
0
 10
0.455
 20
-0.18
 30
2.65394449234009
 70
192
 0
VERTEX
 8
0
 10
-0.216538041830063
 20
-0.16
 30
2.3374981880188
 70
192
 0
VERTEX
 8
0
 10
-0.363
 20
-0.228
 30
2.37599968910217
 70
192
 0
VERTEX
 8
0
 10
-0.363
 20
0
 30
2.38599944114685
 70
192
 0
VERTEX
 8
0
 10
-0.363
 20
0
 30
2.37599968910217
 70
192
 0
VERTEX
 8
0
 10
1.27299988269806
 20
0
 30
2.37599968910217
 70
192
 0
VERTEX
 8
0
 10
1.245
 20
-0.2
 30
2.36599969863892
 70
192
 0
VERTEX
 8
0
 10
1.225
 20
-0.18
 30
2.33499908447266
 70
192
 0
VERTEX
 8
0
 10
0.455
 20
-0.2
 30
2.69322800636292
 70
192
 0
VERTEX
 8
0
 10
0.455
 20
-0.19
 30
2.66408658027649
 70
192
 0
VERTEX
 8
0
 10
1.235
 20
-0.19
 30
2.34099864959717
 70
192
 0
VERTEX
 8
0
 10
0.455
 20
-0.17
 30
2.63980174064636
 70
192
 0
VERTEX
 8
0
 10
0.455
 20
-0.18
 30
2.64394450187683
 70
192
 0
VERTEX
 8
0
 10
-0.290857911109924
 20
-0.18
 30
2.33499908447266
 70
192
 0
VERTEX
 8
0
 10
1.1506804227829
 20
-0.16
 30
2.3374981880188
 70
192
 0
VERTEX
 8
0
 10
-0.0467326454818249
 20
-0.15
 30
2.33874821662903
 70
192
 0
VERTEX
 8
0
 10
0.455
 20
-0.228
 30
2.71482563018799
 70
192
 0
VERTEX
 8
0
 10
-0.363
 20
-0.228
 30
2.38599944114685
 70
192
 0
VERTEX
 8
0
 10
0.455
 20
-0.228
 30
2.72482562065125
 70
192
 0
VERTEX
 8
0
 10
0.455
 20
0
 30
2.72482562065125
 70
192
 0
VERTEX
 8
0
 10
1.27299988269806
 20
-0.228
 30
2.38599944114685
 70
192
 0
VERTEX
 8
0
 10
1.27299988269806
 20
0
 30
2.38599944114685
 70
192
 0
VERTEX
 8
0
 10
1.27299988269806
 20
-0.228
 30
2.37599968910217
 70
192
 0
VERTEX
 8
0
 10
1.20085763931274
 20
-0.18
 30
2.33499908447266
 70
192
 0
VERTEX
 8
0
 10
-0.277840197086334
 20
-0.17
 30
2.33624863624573
 70
192
 0
VERTEX
 8
0
 10
0.455
 20
-0.16
 30
2.62565898895264
 70
192
 0
VERTEX
 8
0
 10
1.18783986568451
 20
-0.17
 30
2.33624863624573
 70
192
 0
VERTEX
 8
0
 10
0.956732869148254
 20
-0.15
 30
2.33874821662903
 70
192
 0
VERTEX
 8
0
 10
1.12653803825378
 20
-0.16
 30
2.3374981880188
 70
192
 0
VERTEX
 8
0
 10
-0.240680187940598
 20
-0.16
 30
2.3374981880188
 70
192
 0
VERTEX
 8
0
 10
0.455
 20
-0.16
 30
2.61565899848938
 70
192
 0
VERTEX
 8
0
 10
1.11352014541626
 20
-0.15
 30
2.33874821662903
 70
192
 0
VERTEX
 8
0
 10
-0.00249500153586268
 20
-0.09
 30
2.34624886512756
 70
192
 0
VERTEX
 8
0
 10
0.455
 20
-0.15
 30
2.6115186214447
 70
192
 0
VERTEX
 8
0
 10
0.455
 20
-0.15
 30
2.54657340049744
 70
192
 0
VERTEX
 8
0
 10
-0.203520283102989
 20
-0.15
 30
2.33874821662903
 70
192
 0
VERTEX
 8
0
 10
0.455
 20
-0.09
 30
2.54657340049744
 70
192
 0
VERTEX
 8
0
 10
0.912494659423828
 20
-0.09
 30
2.34624886512756
 70
192
 0
VERTEX
 8
0
 10
0.938625931739807
 20
-0.09
 30
2.34624886512756
 70
192
 0
VERTEX
 8
0
 10
0.454999834299088
 20
-0.07
 30
2.51410102844238
 70
192
 0
VERTEX
 8
0
 10
0.455
 20
-0.09
 30
2.5357494354248
 70
192
 0
VERTEX
 8
0
 10
-0.0286262836307287
 20
-0.09
 30
2.34624886512756
 70
192
 0
VERTEX
 8
0
 10
0.454999834299088
 20
-0.06
 30
2.51410102844238
 70
192
 0
VERTEX
 8
0
 10
0.851178824901581
 20
-0.06
 30
2.34999871253967
 70
192
 0
VERTEX
 8
0
 10
0.854196608066559
 20
-0.07
 30
2.34874796867371
 70
192
 0
VERTEX
 8
0
 10
0.825047612190247
 20
-0.06
 30
2.34999871253967
 70
192
 0
VERTEX
 8
0
 10
0.143250212073326
 20
-0.04
 30
2.35249948501587
 70
192
 0
VERTEX
 8
0
 10
0.0558030866086483
 20
-0.07
 30
2.34874796867371
 70
192
 0
VERTEX
 8
0
 10
0.454999834299088
 20
-0.06
 30
2.50327777862549
 70
192
 0
VERTEX
 8
0
 10
0.084952101111412
 20
-0.06
 30
2.34999871253967
 70
192
 0
VERTEX
 8
0
 10
0.0588208623230457
 20
-0.06
 30
2.34999871253967
 70
192
 0
VERTEX
 8
0
 10
0.454999834299088
 20
-0.04
 30
2.48162984848022
 70
192
 0
VERTEX
 8
0
 10
0.792881071567535
 20
-0.04
 30
2.35249948501587
 70
192
 0
VERTEX
 8
0
 10
0.822029829025269
 20
-0.05
 30
2.35125017166138
 70
192
 0
VERTEX
 8
0
 10
0.454999834299088
 20
-0.05
 30
2.50327825546265
 70
192
 0
VERTEX
 8
0
 10
0.455
 20
-0.04
 30
2.49245309829712
 70
192
 0
VERTEX
 8
0
 10
0.146267965435982
 20
-0.03
 30
2.35374927520752
 70
192
 0
VERTEX
 8
0
 10
0.766749501228333
 20
-0.04
 30
2.35249948501587
 70
192
 0
VERTEX
 8
0
 10
0.455
 20
-0.03
 30
2.48162961006165
 70
192
 0
VERTEX
 8
0
 10
0.763731777667999
 20
-0.03
 30
2.35374927520752
 70
192
 0
VERTEX
 8
0
 10
0.0879699289798737
 20
-0.05
 30
2.35125017166138
 70
192
 0
VERTEX
 8
0
 10
0.117118939757347
 20
-0.04
 30
2.35249948501587
 70
192
 0
VERTEX
 8
0
 10
0
 20
0.25
 30
0
 70
128
 71
104
 72
84
 73
83
 0
VERTEX
 8
0
 10
0
 20
0.25
 30
0
 70
128
 71
158
 72
152
 73
151
 74
159
 0
VERTEX
 8
0
 10
0
 20
0.25
 30
0
 70
128
 71
168
 72
163
 73
162
 74
169
 0
VERTEX
 8
0
 10
0
 20
0.25
 30
0
 70
128
 71
170
 72
171
 73
172
 0
VERTEX
 8
0
 10
0
 20
0.25
 30
0
 70
128
 71
210
 72
211
 73
212
 74
213
 0
VERTEX
 8
0
 10
0
 20
0.25
 30
0
 70
128
 71
225
 72
226
 73
227
 74
228
 0
VERTEX
 8
0
 10
0
 20
0.25
 30
0
 70
128
 71
1
 72
144
 73
2
 74
119
 0
VERTEX
 8
0
 10
0
 20
0.25
 30
0
 70
128
 71
6
 72
11
 73
3
 74
7
 0
VERTEX
 8
0
 10
0
 20
0.25
 30
0
 70
128
 71
21
 72
18
 73
11
 74
6
 0
VERTEX
 8
0
 10
0
 20
0.25
 30
0
 70
128
 71
9
 72
3
 73
11
 74
10
 0
VERTEX
 8
0
 10
0
 20
0.25
 30
0
 70
128
 71
4
 72
5
 73
7
 74
3
 0
VERTEX
 8
0
 10
0
 20
0.25
 30
0
 70
128
 71
15
 72
6
 73
7
 74
16
 0
VERTEX
 8
0
 10
0
 20
0.25
 30
0
 70
128
 71
41
 72
19
 73
18
 74
21
 0
VERTEX
 8
0
 10
0
 20
0.25
 30
0
 70
128
 71
18
 72
23
 73
8
 74
11
 0
VERTEX
 8
0
 10
0
 20
0.25
 30
0
 70
128
 71
24
 72
21
 73
6
 74
34
 0
VERTEX
 8
0
 10
0
 20
0.25
 30
0
 70
128
 71
27
 72
26
 73
3
 74
9
 0
VERTEX
 8
0
 10
0
 20
0.25
 30
0
 70
128
 71
10
 72
11
 73
8
 74
12
 0
VERTEX
 8
0
 10
0
 20
0.25
 30
0
 70
128
 71
15
 72
16
 73
9
 74
10
 0
VERTEX
 8
0
 10
0
 20
0.25
 30
0
 70
128
 71
4
 72
31
 73
50
 74
5
 0
VERTEX
 8
0
 10
0
 20
0.25
 30
0
 70
128
 71
13
 72
7
 73
5
 0
VERTEX
 8
0
 10
0
 20
0.25
 30
0
 70
128
 71
26
 72
4
 73
3
 0
VERTEX
 8
0
 10
0
 20
0.25
 30
0
 70
128
 71
14
 72
34
 73
6
 74
15
 0
VERTEX
 8
0
 10
0
 20
0.25
 30
0
 70
128
 71
16
 72
7
 73
13
 74
17
 0
VERTEX
 8
0
 10
0
 20
0.25
 30
0
 70
128
 71
55
 72
58
 73
19
 74
41
 0
VERTEX
 8
0
 10
0
 20
0.25
 30
0
 70
128
 71
28
 72
18
 73
19
 74
20
 0
VERTEX
 8
0
 10
0
 20
0.25
 30
0
 70
128
 71
38
 72
41
 73
21
 74
22
 0
VERTEX
 8
0
 10
0
 20
0.25
 30
0
 70
128
 71
42
 72
23
 73
18
 74
28
 0
VERTEX
 8
0
 10
0
 20
0.25
 30
0
 70
128
 71
8
 72
23
 73
4
 0
VERTEX
 8
0
 10
0
 20
0.25
 30
0
 70
128
 71
22
 72
21
 73
24
 74
25
 0
VERTEX
 8
0
 10
0
 20
0.25
 30
0
 70
128
 71
5
 72
24
 73
34
 0
VERTEX
 8
0
 10
0
 20
0.25
 30
0
 70
128
 71
12
 72
8
 73
26
 74
27
 0
VERTEX
 8
0
 10
0
 20
0.25
 30
0
 70
128
 71
27
 72
9
 73
62
 0
VERTEX
 8
0
 10
0
 20
0.25
 30
0
 70
128
 71
28
 72
10
 73
12
 74
42
 0
VERTEX
 8
0
 10
0
 20
0.25
 30
0
 70
128
 71
16
 72
54
 73
62
 74
9
 0
VERTEX
 8
0
 10
0
 20
0.25
 30
0
 70
128
 71
22
 72
15
 73
10
 74
28
 0
VERTEX
 8
0
 10
0
 20
0.25
 30
0
 70
128
 71
4
 72
29
 73
30
 74
31
 0
VERTEX
 8
0
 10
0
 20
0.25
 30
0
 70
128
 71
31
 72
46
 73
45
 74
50
 0
VERTEX
 8
0
 10
0
 20
0.25
 30
0
 70
128
 71
50
 72
32
 73
33
 74
5
 0
VERTEX
 8
0
 10
0
 20
0.25
 30
0
 70
128
 71
34
 72
13
 73
5
 0
VERTEX
 8
0
 10
0
 20
0.25
 30
0
 70
128
 71
4
 72
26
 73
8
 0
VERTEX
 8
0
 10
0
 20
0.25
 30
0
 70
128
 71
34
 72
14
 73
17
 74
13
 0
VERTEX
 8
0
 10
0
 20
0.25
 30
0
 70
128
 71
25
 72
14
 73
15
 74
22
 0
VERTEX
 8
0
 10
0
 20
0.25
 30
0
 70
128
 71
17
 72
54
 73
16
 0
VERTEX
 8
0
 10
0
 20
0.25
 30
0
 70
128
 71
58
 72
55
 73
74
 74
56
 0
VERTEX
 8
0
 10
0
 20
0.25
 30
0
 70
128
 71
58
 72
79
 73
36
 74
19
 0
VERTEX
 8
0
 10
0
 20
0.25
 30
0
 70
128
 71
35
 72
55
 73
41
 74
40
 0
VERTEX
 8
0
 10
0
 20
0.25
 30
0
 70
128
 71
20
 72
19
 73
36
 74
37
 0
VERTEX
 8
0
 10
0
 20
0.25
 30
0
 70
128
 71
38
 72
22
 73
28
 74
20
 0
VERTEX
 8
0
 10
0
 20
0.25
 30
0
 70
128
 71
39
 72
40
 73
41
 74
38
 0
VERTEX
 8
0
 10
0
 20
0.25
 30
0
 70
128
 71
37
 72
36
 73
23
 74
42
 0
VERTEX
 8
0
 10
0
 20
0.25
 30
0
 70
128
 71
36
 72
29
 73
4
 74
23
 0
VERTEX
 8
0
 10
0
 20
0.25
 30
0
 70
128
 71
25
 72
24
 73
40
 74
39
 0
VERTEX
 8
0
 10
0
 20
0.25
 30
0
 70
128
 71
5
 72
43
 73
40
 74
24
 0
VERTEX
 8
0
 10
0
 20
0.25
 30
0
 70
128
 71
12
 72
27
 73
62
 0
VERTEX
 8
0
 10
0
 20
0.25
 30
0
 70
128
 71
62
 72
42
 73
12
 0
VERTEX
 8
0
 10
0
 20
0.25
 30
0
 70
128
 71
67
 72
62
 73
54
 74
82
 0
VERTEX
 8
0
 10
0
 20
0.25
 30
0
 70
128
 71
51
 72
30
 73
29
 74
43
 0
VERTEX
 8
0
 10
0
 20
0.25
 30
0
 70
128
 71
92
 72
44
 73
31
 74
30
 0
VERTEX
 8
0
 10
0
 20
0.25
 30
0
 70
128
 71
46
 72
31
 73
44
 0
VERTEX
 8
0
 10
0
 20
0.25
 30
0
 70
128
 71
45
 72
46
 73
47
 74
69
 0
VERTEX
 8
0
 10
0
 20
0.25
 30
0
 70
128
 71
50
 72
45
 73
48
 74
51
 0
VERTEX
 8
0
 10
0
 20
0.25
 30
0
 70
128
 71
49
 72
32
 73
50
 74
51
 0
VERTEX
 8
0
 10
0
 20
0.25
 30
0
 70
128
 71
100
 72
33
 73
32
 74
52
 0
VERTEX
 8
0
 10
0
 20
0.25
 30
0
 70
128
 71
33
 72
53
 73
5
 0
VERTEX
 8
0
 10
0
 20
0.25
 30
0
 70
128
 71
82
 72
17
 73
14
 0
VERTEX
 8
0
 10
0
 20
0.25
 30
0
 70
128
 71
14
 72
25
 73
82
 0
VERTEX
 8
0
 10
0
 20
0.25
 30
0
 70
128
 71
54
 72
17
 73
82
 0
VERTEX
 8
0
 10
0
 20
0.25
 30
0
 70
128
 71
75
 72
74
 73
55
 74
60
 0
VERTEX
 8
0
 10
0
 20
0.25
 30
0
 70
128
 71
74
 72
43
 73
29
 74
56
 0
VERTEX
 8
0
 10
0
 20
0.25
 30
0
 70
128
 71
59
 72
58
 73
56
 74
76
 0
VERTEX
 8
0
 10
0
 20
0.25
 30
0
 70
128
 71
57
 72
79
 73
58
 74
59
 0
VERTEX
 8
0
 10
0
 20
0.25
 30
0
 70
128
 71
29
 72
36
 73
79
 0
VERTEX
 8
0
 10
0
 20
0.25
 30
0
 70
128
 71
60
 72
55
 73
35
 74
80
 0
VERTEX
 8
0
 10
0
 20
0.25
 30
0
 70
128
 71
40
 72
43
 73
35
 0
VERTEX
 8
0
 10
0
 20
0.25
 30
0
 70
128
 71
59
 72
20
 73
37
 74
57
 0
VERTEX
 8
0
 10
0
 20
0.25
 30
0
 70
128
 71
60
 72
38
 73
20
 74
59
 0
VERTEX
 8
0
 10
0
 20
0.25
 30
0
 70
128
 71
80
 72
39
 73
38
 74
60
 0
VERTEX
 8
0
 10
0
 20
0.25
 30
0
 70
128
 71
61
 72
37
 73
42
 74
62
 0
VERTEX
 8
0
 10
0
 20
0.25
 30
0
 70
128
 71
83
 72
82
 73
25
 74
39
 0
VERTEX
 8
0
 10
0
 20
0.25
 30
0
 70
128
 71
43
 72
5
 73
107
 74
109
 0
VERTEX
 8
0
 10
0
 20
0.25
 30
0
 70
128
 71
61
 72
62
 73
67
 74
63
 0
VERTEX
 8
0
 10
0
 20
0.25
 30
0
 70
128
 71
64
 72
68
 73
67
 74
82
 0
VERTEX
 8
0
 10
0
 20
0.25
 30
0
 70
128
 71
30
 72
51
 73
48
 74
65
 0
VERTEX
 8
0
 10
0
 20
0.25
 30
0
 70
128
 71
87
 72
49
 73
51
 74
43
 0
VERTEX
 8
0
 10
0
 20
0.25
 30
0
 70
128
 71
114
 72
89
 73
44
 74
92
 0
VERTEX
 8
0
 10
0
 20
0.25
 30
0
 70
128
 71
65
 72
92
 73
30
 0
VERTEX
 8
0
 10
0
 20
0.25
 30
0
 70
128
 71
44
 72
66
 73
47
 74
46
 0
VERTEX
 8
0
 10
0
 20
0.25
 30
0
 70
128
 71
47
 72
67
 73
68
 74
69
 0
VERTEX
 8
0
 10
0
 20
0.25
 30
0
 70
128
 71
48
 72
45
 73
69
 74
70
 0
VERTEX
 8
0
 10
0
 20
0.25
 30
0
 70
128
 71
32
 72
49
 73
71
 74
96
 0
VERTEX
 8
0
 10
0
 20
0.25
 30
0
 70
128
 71
53
 72
33
 73
100
 0
VERTEX
 8
0
 10
0
 20
0.25
 30
0
 70
128
 71
72
 72
52
 73
32
 0
VERTEX
 8
0
 10
0
 20
0.25
 30
0
 70
128
 71
73
 72
100
 73
52
 74
128
 0
VERTEX
 8
0
 10
0
 20
0.25
 30
0
 70
128
 71
5
 72
53
 73
127
 0
VERTEX
 8
0
 10
0
 20
0.25
 30
0
 70
128
 71
103
 72
81
 73
74
 74
75
 0
VERTEX
 8
0
 10
0
 20
0.25
 30
0
 70
128
 71
59
 72
76
 73
75
 74
60
 0
VERTEX
 8
0
 10
0
 20
0.25
 30
0
 70
128
 71
74
 72
81
 73
43
 0
VERTEX
 8
0
 10
0
 20
0.25
 30
0
 70
128
 71
77
 72
56
 73
29
 0
VERTEX
 8
0
 10
0
 20
0.25
 30
0
 70
128
 71
76
 72
56
 73
77
 74
78
 0
VERTEX
 8
0
 10
0
 20
0.25
 30
0
 70
128
 71
78
 72
77
 73
79
 74
57
 0
VERTEX
 8
0
 10
0
 20
0.25
 30
0
 70
128
 71
79
 72
77
 73
29
 0
VERTEX
 8
0
 10
0
 20
0.25
 30
0
 70
128
 71
103
 72
80
 73
35
 74
81
 0
VERTEX
 8
0
 10
0
 20
0.25
 30
0
 70
128
 71
81
 72
35
 73
43
 0
VERTEX
 8
0
 10
0
 20
0.25
 30
0
 70
128
 71
57
 72
37
 73
61
 0
VERTEX
 8
0
 10
0
 20
0.25
 30
0
 70
128
 71
83
 72
39
 73
80
 0
VERTEX
 8
0
 10
0
 20
0.25
 30
0
 70
128
 71
82
 72
83
 73
84
 74
106
 0
VERTEX
 8
0
 10
0
 20
0.25
 30
0
 70
128
 71
127
 72
107
 73
5
 0
VERTEX
 8
0
 10
0
 20
0.25
 30
0
 70
128
 71
106
 72
84
 73
109
 74
107
 0
VERTEX
 8
0
 10
0
 20
0.25
 30
0
 70
128
 71
43
 72
109
 73
108
 0
VERTEX
 8
0
 10
0
 20
0.25
 30
0
 70
128
 71
63
 72
67
 73
47
 74
85
 0
VERTEX
 8
0
 10
0
 20
0.25
 30
0
 70
128
 71
110
 72
61
 73
63
 74
83
 0
VERTEX
 8
0
 10
0
 20
0.25
 30
0
 70
128
 71
111
 72
94
 73
68
 74
64
 0
VERTEX
 8
0
 10
0
 20
0.25
 30
0
 70
128
 71
82
 72
86
 73
99
 74
64
 0
VERTEX
 8
0
 10
0
 20
0.25
 30
0
 70
128
 71
70
 72
85
 73
65
 74
48
 0
VERTEX
 8
0
 10
0
 20
0.25
 30
0
 70
128
 71
49
 72
87
 73
136
 74
142
 0
VERTEX
 8
0
 10
0
 20
0.25
 30
0
 70
128
 71
87
 72
43
 73
137
 0
VERTEX
 8
0
 10
0
 20
0.25
 30
0
 70
128
 71
88
 72
89
 73
114
 74
90
 0
VERTEX
 8
0
 10
0
 20
0.25
 30
0
 70
128
 71
91
 72
44
 73
89
 0
VERTEX
 8
0
 10
0
 20
0.25
 30
0
 70
128
 71
116
 72
114
 73
92
 0
VERTEX
 8
0
 10
0
 20
0.25
 30
0
 70
128
 71
85
 72
117
 73
92
 74
65
 0
VERTEX
 8
0
 10
0
 20
0.25
 30
0
 70
128
 71
91
 72
93
 73
66
 74
44
 0
VERTEX
 8
0
 10
0
 20
0.25
 30
0
 70
128
 71
66
 72
120
 73
2
 74
47
 0
VERTEX
 8
0
 10
0
 20
0.25
 30
0
 70
128
 71
70
 72
69
 73
68
 74
94
 0
VERTEX
 8
0
 10
0
 20
0.25
 30
0
 70
128
 71
95
 72
71
 73
49
 0
VERTEX
 8
0
 10
0
 20
0.25
 30
0
 70
128
 71
112
 72
96
 73
71
 74
122
 0
VERTEX
 8
0
 10
0
 20
0.25
 30
0
 70
128
 71
32
 72
96
 73
97
 0
VERTEX
 8
0
 10
0
 20
0.25
 30
0
 70
128
 71
98
 72
53
 73
100
 74
86
 0
VERTEX
 8
0
 10
0
 20
0.25
 30
0
 70
128
 71
99
 72
52
 73
72
 74
124
 0
VERTEX
 8
0
 10
0
 20
0.25
 30
0
 70
128
 71
97
 72
72
 73
32
 0
VERTEX
 8
0
 10
0
 20
0.25
 30
0
 70
128
 71
86
 72
100
 73
73
 74
126
 0
VERTEX
 8
0
 10
0
 20
0.25
 30
0
 70
128
 71
129
 72
128
 73
52
 74
99
 0
VERTEX
 8
0
 10
0
 20
0.25
 30
0
 70
128
 71
101
 72
73
 73
128
 74
147
 0
VERTEX
 8
0
 10
0
 20
0.25
 30
0
 70
128
 71
98
 72
102
 73
127
 74
53
 0
VERTEX
 8
0
 10
0
 20
0.25
 30
0
 70
128
 71
103
 72
75
 73
110
 0
VERTEX
 8
0
 10
0
 20
0.25
 30
0
 70
128
 71
61
 72
110
 73
75
 74
76
 0
VERTEX
 8
0
 10
0
 20
0.25
 30
0
 70
128
 71
76
 72
78
 73
61
 0
VERTEX
 8
0
 10
0
 20
0.25
 30
0
 70
128
 71
61
 72
78
 73
57
 0
VERTEX
 8
0
 10
0
 20
0.25
 30
0
 70
128
 71
80
 72
103
 73
83
 0
VERTEX
 8
0
 10
0
 20
0.25
 30
0
 70
128
 71
82
 72
106
 73
102
 0
VERTEX
 8
0
 10
0
 20
0.25
 30
0
 70
128
 71
107
 72
127
 73
73
 74
101
 0
VERTEX
 8
0
 10
0
 20
0.25
 30
0
 70
128
 71
130
 72
105
 73
109
 74
84
 0
VERTEX
 8
0
 10
0
 20
0.25
 30
0
 70
128
 71
106
 72
107
 73
101
 74
131
 0
VERTEX
 8
0
 10
0
 20
0.25
 30
0
 70
128
 71
108
 72
109
 73
105
 74
141
 0
VERTEX
 8
0
 10
0
 20
0.25
 30
0
 70
128
 71
108
 72
137
 73
43
 0
VERTEX
 8
0
 10
0
 20
0.25
 30
0
 70
128
 71
85
 72
47
 73
145
 74
149
 0
VERTEX
 8
0
 10
0
 20
0.25
 30
0
 70
128
 71
85
 72
70
 73
94
 74
63
 0
VERTEX
 8
0
 10
0
 20
0.25
 30
0
 70
128
 71
111
 72
83
 73
63
 74
94
 0
VERTEX
 8
0
 10
0
 20
0.25
 30
0
 70
128
 71
83
 72
103
 73
110
 0
VERTEX
 8
0
 10
0
 20
0.25
 30
0
 70
128
 71
111
 72
64
 73
112
 74
122
 0
VERTEX
 8
0
 10
0
 20
0.25
 30
0
 70
128
 71
82
 72
98
 73
86
 0
VERTEX
 8
0
 10
0
 20
0.25
 30
0
 70
128
 71
129
 72
99
 73
86
 74
126
 0
VERTEX
 8
0
 10
0
 20
0.25
 30
0
 70
128
 71
124
 72
64
 73
99
 0
VERTEX
 8
0
 10
0
 20
0.25
 30
0
 70
128
 71
137
 72
136
 73
87
 0
VERTEX
 8
0
 10
0
 20
0.25
 30
0
 70
128
 71
139
 72
142
 73
136
 74
141
 0
VERTEX
 8
0
 10
0
 20
0.25
 30
0
 70
128
 71
142
 72
113
 73
49
 0
VERTEX
 8
0
 10
0
 20
0.25
 30
0
 70
128
 71
93
 72
91
 73
89
 74
88
 0
VERTEX
 8
0
 10
0
 20
0.25
 30
0
 70
128
 71
90
 72
114
 73
116
 74
115
 0
VERTEX
 8
0
 10
0
 20
0.25
 30
0
 70
128
 71
88
 72
90
 73
117
 74
66
 0
VERTEX
 8
0
 10
0
 20
0.25
 30
0
 70
128
 71
92
 72
117
 73
115
 74
116
 0
VERTEX
 8
0
 10
0
 20
0.25
 30
0
 70
128
 71
119
 72
118
 73
117
 74
85
 0
VERTEX
 8
0
 10
0
 20
0.25
 30
0
 70
128
 71
66
 72
93
 73
88
 0
VERTEX
 8
0
 10
0
 20
0.25
 30
0
 70
128
 71
66
 72
117
 73
118
 74
120
 0
VERTEX
 8
0
 10
0
 20
0.25
 30
0
 70
128
 71
118
 72
119
 73
2
 74
120
 0
VERTEX
 8
0
 10
0
 20
0.25
 30
0
 70
128
 71
47
 72
2
 73
145
 0
VERTEX
 8
0
 10
0
 20
0.25
 30
0
 70
128
 71
139
 72
121
 73
71
 74
95
 0
VERTEX
 8
0
 10
0
 20
0.25
 30
0
 70
128
 71
49
 72
113
 73
95
 0
VERTEX
 8
0
 10
0
 20
0.25
 30
0
 70
128
 71
148
 72
147
 73
96
 74
112
 0
VERTEX
 8
0
 10
0
 20
0.25
 30
0
 70
128
 71
122
 72
71
 73
121
 74
123
 0
VERTEX
 8
0
 10
0
 20
0.25
 30
0
 70
128
 71
147
 72
128
 73
97
 74
96
 0
VERTEX
 8
0
 10
0
 20
0.25
 30
0
 70
128
 71
124
 72
72
 73
97
 74
125
 0
VERTEX
 8
0
 10
0
 20
0.25
 30
0
 70
128
 71
126
 72
73
 73
127
 74
102
 0
VERTEX
 8
0
 10
0
 20
0.25
 30
0
 70
128
 71
125
 72
97
 73
128
 74
129
 0
VERTEX
 8
0
 10
0
 20
0.25
 30
0
 70
128
 71
105
 72
101
 73
147
 74
121
 0
VERTEX
 8
0
 10
0
 20
0.25
 30
0
 70
128
 71
102
 72
98
 73
82
 0
VERTEX
 8
0
 10
0
 20
0.25
 30
0
 70
128
 71
132
 72
130
 73
84
 74
104
 0
VERTEX
 8
0
 10
0
 20
0.25
 30
0
 70
128
 71
83
 72
138
 73
104
 0
VERTEX
 8
0
 10
0
 20
0.25
 30
0
 70
128
 71
131
 72
126
 73
102
 74
106
 0
VERTEX
 8
0
 10
0
 20
0.25
 30
0
 70
128
 71
131
 72
101
 73
105
 74
130
 0
VERTEX
 8
0
 10
0
 20
0.25
 30
0
 70
128
 71
141
 72
105
 73
121
 74
139
 0
VERTEX
 8
0
 10
0
 20
0.25
 30
0
 70
128
 71
104
 72
108
 73
141
 74
132
 0
VERTEX
 8
0
 10
0
 20
0.25
 30
0
 70
128
 71
104
 72
138
 73
137
 74
108
 0
VERTEX
 8
0
 10
0
 20
0.25
 30
0
 70
128
 71
145
 72
154
 73
133
 74
149
 0
VERTEX
 8
0
 10
0
 20
0.25
 30
0
 70
128
 71
149
 72
119
 73
85
 0
VERTEX
 8
0
 10
0
 20
0.25
 30
0
 70
128
 71
83
 72
111
 73
143
 74
134
 0
VERTEX
 8
0
 10
0
 20
0.25
 30
0
 70
128
 71
125
 72
112
 73
64
 0
VERTEX
 8
0
 10
0
 20
0.25
 30
0
 70
128
 71
111
 72
122
 73
135
 0
VERTEX
 8
0
 10
0
 20
0.25
 30
0
 70
128
 71
126
 72
131
 73
148
 74
129
 0
VERTEX
 8
0
 10
0
 20
0.25
 30
0
 70
128
 71
64
 72
124
 73
125
 0
VERTEX
 8
0
 10
0
 20
0.25
 30
0
 70
128
 71
134
 72
136
 73
137
 74
138
 0
VERTEX
 8
0
 10
0
 20
0.25
 30
0
 70
128
 71
143
 72
142
 73
139
 74
140
 0
VERTEX
 8
0
 10
0
 20
0.25
 30
0
 70
128
 71
132
 72
141
 73
136
 74
134
 0
VERTEX
 8
0
 10
0
 20
0.25
 30
0
 70
128
 71
146
 72
113
 73
142
 74
143
 0
VERTEX
 8
0
 10
0
 20
0.25
 30
0
 70
128
 71
117
 72
90
 73
115
 0
VERTEX
 8
0
 10
0
 20
0.25
 30
0
 70
128
 71
2
 72
144
 73
209
 74
145
 0
VERTEX
 8
0
 10
0
 20
0.25
 30
0
 70
128
 71
140
 72
139
 73
95
 74
135
 0
VERTEX
 8
0
 10
0
 20
0.25
 30
0
 70
128
 71
135
 72
95
 73
113
 74
146
 0
VERTEX
 8
0
 10
0
 20
0.25
 30
0
 70
128
 71
123
 72
121
 73
147
 74
148
 0
VERTEX
 8
0
 10
0
 20
0.25
 30
0
 70
128
 71
112
 72
125
 73
129
 74
148
 0
VERTEX
 8
0
 10
0
 20
0.25
 30
0
 70
128
 71
135
 72
122
 73
123
 74
140
 0
VERTEX
 8
0
 10
0
 20
0.25
 30
0
 70
128
 71
130
 72
132
 73
140
 74
123
 0
VERTEX
 8
0
 10
0
 20
0.25
 30
0
 70
128
 71
134
 72
138
 73
83
 0
VERTEX
 8
0
 10
0
 20
0.25
 30
0
 70
128
 71
123
 72
148
 73
131
 74
130
 0
VERTEX
 8
0
 10
0
 20
0.25
 30
0
 70
128
 71
209
 72
154
 73
145
 0
VERTEX
 8
0
 10
0
 20
0.25
 30
0
 70
128
 71
156
 72
133
 73
154
 74
166
 0
VERTEX
 8
0
 10
0
 20
0.25
 30
0
 70
128
 71
150
 72
149
 73
133
 0
VERTEX
 8
0
 10
0
 20
0.25
 30
0
 70
128
 71
1
 72
119
 73
149
 74
150
 0
VERTEX
 8
0
 10
0
 20
0.25
 30
0
 70
128
 71
146
 72
143
 73
111
 0
VERTEX
 8
0
 10
0
 20
0.25
 30
0
 70
128
 71
132
 72
134
 73
143
 74
140
 0
VERTEX
 8
0
 10
0
 20
0.25
 30
0
 70
128
 71
135
 72
146
 73
111
 0
VERTEX
 8
0
 10
0
 20
0.25
 30
0
 70
128
 71
209
 72
144
 73
151
 74
152
 0
VERTEX
 8
0
 10
0
 20
0.25
 30
0
 70
128
 71
133
 72
156
 73
188
 74
153
 0
VERTEX
 8
0
 10
0
 20
0.25
 30
0
 70
128
 71
198
 72
191
 73
166
 74
154
 0
VERTEX
 8
0
 10
0
 20
0.25
 30
0
 70
128
 71
157
 72
155
 73
156
 74
166
 0
VERTEX
 8
0
 10
0
 20
0.25
 30
0
 70
128
 71
162
 72
1
 73
150
 74
219
 0
VERTEX
 8
0
 10
0
 20
0.25
 30
0
 70
128
 71
157
 72
160
 73
151
 74
144
 0
VERTEX
 8
0
 10
0
 20
0.25
 30
0
 70
128
 71
188
 72
156
 73
189
 74
180
 0
VERTEX
 8
0
 10
0
 20
0.25
 30
0
 70
128
 71
192
 72
185
 73
166
 74
191
 0
VERTEX
 8
0
 10
0
 20
0.25
 30
0
 70
128
 71
144
 72
1
 73
155
 74
157
 0
VERTEX
 8
0
 10
0
 20
0.25
 30
0
 70
128
 71
155
 72
163
 73
174
 74
156
 0
VERTEX
 8
0
 10
0
 20
0.25
 30
0
 70
128
 71
166
 72
165
 73
160
 74
157
 0
VERTEX
 8
0
 10
0
 20
0.25
 30
0
 70
128
 71
169
 72
162
 73
219
 74
161
 0
VERTEX
 8
0
 10
0
 20
0.25
 30
0
 70
128
 71
1
 72
162
 73
163
 74
155
 0
VERTEX
 8
0
 10
0
 20
0.25
 30
0
 70
128
 71
159
 72
151
 73
160
 74
167
 0
VERTEX
 8
0
 10
0
 20
0.25
 30
0
 70
128
 71
158
 72
171
 73
170
 74
152
 0
VERTEX
 8
0
 10
0
 20
0.25
 30
0
 70
128
 71
158
 72
159
 73
167
 74
171
 0
VERTEX
 8
0
 10
0
 20
0.25
 30
0
 70
128
 71
156
 72
174
 73
164
 74
189
 0
VERTEX
 8
0
 10
0
 20
0.25
 30
0
 70
128
 71
185
 72
190
 73
165
 74
166
 0
VERTEX
 8
0
 10
0
 20
0.25
 30
0
 70
128
 71
175
 72
174
 73
163
 74
168
 0
VERTEX
 8
0
 10
0
 20
0.25
 30
0
 70
128
 71
167
 72
160
 73
165
 74
171
 0
VERTEX
 8
0
 10
0
 20
0.25
 30
0
 70
128
 71
219
 72
225
 73
175
 74
161
 0
VERTEX
 8
0
 10
0
 20
0.25
 30
0
 70
128
 71
161
 72
175
 73
168
 74
169
 0
VERTEX
 8
0
 10
0
 20
0.25
 30
0
 70
128
 71
164
 72
174
 73
176
 0
VERTEX
 8
0
 10
0
 20
0.25
 30
0
 70
128
 71
190
 72
173
 73
165
 0
VERTEX
 8
0
 10
0
 20
0.25
 30
0
 70
128
 71
174
 72
175
 73
228
 74
215
 0
VERTEX
 8
0
 10
0
 20
0.25
 30
0
 70
128
 71
220
 72
172
 73
171
 74
165
 0
VERTEX
 8
0
 10
0
 20
0.25
 30
0
 70
128
 71
225
 72
228
 73
175
 0
VERTEX
 8
0
 10
0
 20
0.25
 30
0
 70
128
 71
176
 72
174
 73
215
 0
VERTEX
 8
0
 10
0
 20
0.25
 30
0
 70
128
 71
200
 72
164
 73
176
 74
177
 0
VERTEX
 8
0
 10
0
 20
0.25
 30
0
 70
128
 71
207
 72
173
 73
190
 74
203
 0
VERTEX
 8
0
 10
0
 20
0.25
 30
0
 70
128
 71
173
 72
220
 73
165
 0
VERTEX
 8
0
 10
0
 20
0.25
 30
0
 70
128
 71
229
 72
215
 73
228
 0
VERTEX
 8
0
 10
0
 20
0.25
 30
0
 70
128
 71
178
 72
172
 73
220
 0
VERTEX
 8
0
 10
0
 20
0.25
 30
0
 70
128
 71
179
 72
181
 73
183
 74
184
 0
VERTEX
 8
0
 10
0
 20
0.25
 30
0
 70
128
 71
181
 72
179
 73
180
 74
189
 0
VERTEX
 8
0
 10
0
 20
0.25
 30
0
 70
128
 71
181
 72
196
 73
182
 74
183
 0
VERTEX
 8
0
 10
0
 20
0.25
 30
0
 70
128
 71
184
 72
183
 73
185
 74
192
 0
VERTEX
 8
0
 10
0
 20
0.25
 30
0
 70
128
 71
186
 72
187
 73
179
 74
184
 0
VERTEX
 8
0
 10
0
 20
0.25
 30
0
 70
128
 71
180
 72
179
 73
187
 74
188
 0
VERTEX
 8
0
 10
0
 20
0.25
 30
0
 70
128
 71
164
 72
196
 73
181
 74
189
 0
VERTEX
 8
0
 10
0
 20
0.25
 30
0
 70
128
 71
196
 72
195
 73
197
 74
182
 0
VERTEX
 8
0
 10
0
 20
0.25
 30
0
 70
128
 71
183
 72
182
 73
190
 74
185
 0
VERTEX
 8
0
 10
0
 20
0.25
 30
0
 70
128
 71
191
 72
186
 73
184
 74
192
 0
VERTEX
 8
0
 10
0
 20
0.25
 30
0
 70
128
 71
194
 72
187
 73
186
 74
193
 0
VERTEX
 8
0
 10
0
 20
0.25
 30
0
 70
128
 71
187
 72
194
 73
153
 74
188
 0
VERTEX
 8
0
 10
0
 20
0.25
 30
0
 70
128
 71
164
 72
200
 73
195
 74
196
 0
VERTEX
 8
0
 10
0
 20
0.25
 30
0
 70
128
 71
197
 72
195
 73
205
 74
208
 0
VERTEX
 8
0
 10
0
 20
0.25
 30
0
 70
128
 71
190
 72
182
 73
197
 74
203
 0
VERTEX
 8
0
 10
0
 20
0.25
 30
0
 70
128
 71
193
 72
186
 73
191
 74
198
 0
VERTEX
 8
0
 10
0
 20
0.25
 30
0
 70
128
 71
204
 72
199
 73
194
 74
193
 0
VERTEX
 8
0
 10
0
 20
0.25
 30
0
 70
128
 71
153
 72
194
 73
199
 74
133
 0
VERTEX
 8
0
 10
0
 20
0.25
 30
0
 70
128
 71
177
 72
205
 73
195
 74
200
 0
VERTEX
 8
0
 10
0
 20
0.25
 30
0
 70
128
 71
205
 72
201
 73
202
 74
208
 0
VERTEX
 8
0
 10
0
 20
0.25
 30
0
 70
128
 71
203
 72
197
 73
208
 74
207
 0
VERTEX
 8
0
 10
0
 20
0.25
 30
0
 70
128
 71
154
 72
204
 73
193
 74
198
 0
VERTEX
 8
0
 10
0
 20
0.25
 30
0
 70
128
 71
210
 72
199
 73
204
 74
211
 0
VERTEX
 8
0
 10
0
 20
0.25
 30
0
 70
128
 71
199
 72
210
 73
150
 74
133
 0
VERTEX
 8
0
 10
0
 20
0.25
 30
0
 70
128
 71
177
 72
176
 73
201
 74
205
 0
VERTEX
 8
0
 10
0
 20
0.25
 30
0
 70
128
 71
202
 72
201
 73
206
 74
217
 0
VERTEX
 8
0
 10
0
 20
0.25
 30
0
 70
128
 71
173
 72
207
 73
208
 74
202
 0
VERTEX
 8
0
 10
0
 20
0.25
 30
0
 70
128
 71
211
 72
204
 73
154
 74
209
 0
VERTEX
 8
0
 10
0
 20
0.25
 30
0
 70
128
 71
150
 72
210
 73
214
 74
219
 0
VERTEX
 8
0
 10
0
 20
0.25
 30
0
 70
128
 71
215
 72
206
 73
201
 74
176
 0
VERTEX
 8
0
 10
0
 20
0.25
 30
0
 70
128
 71
206
 72
216
 73
231
 74
217
 0
VERTEX
 8
0
 10
0
 20
0.25
 30
0
 70
128
 71
173
 72
202
 73
217
 74
220
 0
VERTEX
 8
0
 10
0
 20
0.25
 30
0
 70
128
 71
152
 72
218
 73
211
 74
209
 0
VERTEX
 8
0
 10
0
 20
0.25
 30
0
 70
128
 71
218
 72
212
 73
211
 0
VERTEX
 8
0
 10
0
 20
0.25
 30
0
 70
128
 71
212
 72
233
 73
224
 74
213
 0
VERTEX
 8
0
 10
0
 20
0.25
 30
0
 70
128
 71
214
 72
210
 73
213
 0
VERTEX
 8
0
 10
0
 20
0.25
 30
0
 70
128
 71
225
 72
219
 73
214
 74
226
 0
VERTEX
 8
0
 10
0
 20
0.25
 30
0
 70
128
 71
229
 72
216
 73
206
 74
215
 0
VERTEX
 8
0
 10
0
 20
0.25
 30
0
 70
128
 71
216
 72
227
 73
230
 74
231
 0
VERTEX
 8
0
 10
0
 20
0.25
 30
0
 70
128
 71
220
 72
217
 73
231
 74
178
 0
VERTEX
 8
0
 10
0
 20
0.25
 30
0
 70
128
 71
221
 72
218
 73
152
 74
170
 0
VERTEX
 8
0
 10
0
 20
0.25
 30
0
 70
128
 71
218
 72
221
 73
222
 74
212
 0
VERTEX
 8
0
 10
0
 20
0.25
 30
0
 70
128
 71
222
 72
234
 73
233
 74
212
 0
VERTEX
 8
0
 10
0
 20
0.25
 30
0
 70
128
 71
233
 72
240
 73
244
 74
224
 0
VERTEX
 8
0
 10
0
 20
0.25
 30
0
 70
128
 71
237
 72
223
 73
213
 74
224
 0
VERTEX
 8
0
 10
0
 20
0.25
 30
0
 70
128
 71
213
 72
223
 73
226
 74
214
 0
VERTEX
 8
0
 10
0
 20
0.25
 30
0
 70
128
 71
227
 72
216
 73
229
 74
228
 0
VERTEX
 8
0
 10
0
 20
0.25
 30
0
 70
128
 71
230
 72
227
 73
226
 74
221
 0
VERTEX
 8
0
 10
0
 20
0.25
 30
0
 70
128
 71
231
 72
230
 73
172
 74
178
 0
VERTEX
 8
0
 10
0
 20
0.25
 30
0
 70
128
 71
172
 72
230
 73
221
 74
170
 0
VERTEX
 8
0
 10
0
 20
0.25
 30
0
 70
128
 71
221
 72
226
 73
223
 74
222
 0
VERTEX
 8
0
 10
0
 20
0.25
 30
0
 70
128
 71
234
 72
222
 73
223
 74
237
 0
VERTEX
 8
0
 10
0
 20
0.25
 30
0
 70
128
 71
238
 72
232
 73
233
 74
234
 0
VERTEX
 8
0
 10
0
 20
0.25
 30
0
 70
128
 71
233
 72
232
 73
240
 0
VERTEX
 8
0
 10
0
 20
0.25
 30
0
 70
128
 71
240
 72
235
 73
250
 74
244
 0
VERTEX
 8
0
 10
0
 20
0.25
 30
0
 70
128
 71
236
 72
224
 73
244
 0
VERTEX
 8
0
 10
0
 20
0.25
 30
0
 70
128
 71
236
 72
245
 73
237
 74
224
 0
VERTEX
 8
0
 10
0
 20
0.25
 30
0
 70
128
 71
238
 72
234
 73
237
 74
245
 0
VERTEX
 8
0
 10
0
 20
0.25
 30
0
 70
128
 71
241
 72
240
 73
232
 74
238
 0
VERTEX
 8
0
 10
0
 20
0.25
 30
0
 70
128
 71
239
 72
235
 73
240
 74
241
 0
VERTEX
 8
0
 10
0
 20
0.25
 30
0
 70
128
 71
235
 72
242
 73
262
 74
250
 0
VERTEX
 8
0
 10
0
 20
0.25
 30
0
 70
128
 71
250
 72
243
 73
248
 74
244
 0
VERTEX
 8
0
 10
0
 20
0.25
 30
0
 70
128
 71
244
 72
248
 73
245
 74
236
 0
VERTEX
 8
0
 10
0
 20
0.25
 30
0
 70
128
 71
241
 72
238
 73
245
 74
248
 0
VERTEX
 8
0
 10
0
 20
0.25
 30
0
 70
128
 71
246
 72
247
 73
235
 74
239
 0
VERTEX
 8
0
 10
0
 20
0.25
 30
0
 70
128
 71
239
 72
241
 73
248
 74
243
 0
VERTEX
 8
0
 10
0
 20
0.25
 30
0
 70
128
 71
235
 72
247
 73
242
 0
VERTEX
 8
0
 10
0
 20
0.25
 30
0
 70
128
 71
242
 72
258
 73
263
 74
262
 0
VERTEX
 8
0
 10
0
 20
0.25
 30
0
 70
128
 71
249
 72
250
 73
262
 0
VERTEX
 8
0
 10
0
 20
0.25
 30
0
 70
128
 71
249
 72
255
 73
243
 74
250
 0
VERTEX
 8
0
 10
0
 20
0.25
 30
0
 70
128
 71
257
 72
242
 73
247
 74
246
 0
VERTEX
 8
0
 10
0
 20
0.25
 30
0
 70
128
 71
246
 72
239
 73
243
 74
255
 0
VERTEX
 8
0
 10
0
 20
0.25
 30
0
 70
128
 71
242
 72
251
 73
258
 0
VERTEX
 8
0
 10
0
 20
0.25
 30
0
 70
128
 71
258
 72
252
 73
260
 74
263
 0
VERTEX
 8
0
 10
0
 20
0.25
 30
0
 70
128
 71
253
 72
262
 73
263
 0
VERTEX
 8
0
 10
0
 20
0.25
 30
0
 70
128
 71
262
 72
254
 73
255
 74
249
 0
VERTEX
 8
0
 10
0
 20
0.25
 30
0
 70
128
 71
256
 72
251
 73
242
 74
257
 0
VERTEX
 8
0
 10
0
 20
0.25
 30
0
 70
128
 71
257
 72
246
 73
255
 74
254
 0
VERTEX
 8
0
 10
0
 20
0.25
 30
0
 70
128
 71
259
 72
258
 73
251
 74
256
 0
VERTEX
 8
0
 10
0
 20
0.25
 30
0
 70
128
 71
268
 72
252
 73
258
 74
259
 0
VERTEX
 8
0
 10
0
 20
0.25
 30
0
 70
128
 71
252
 72
277
 73
281
 74
260
 0
VERTEX
 8
0
 10
0
 20
0.25
 30
0
 70
128
 71
260
 72
261
 73
265
 74
263
 0
VERTEX
 8
0
 10
0
 20
0.25
 30
0
 70
128
 71
253
 72
264
 73
254
 74
262
 0
VERTEX
 8
0
 10
0
 20
0.25
 30
0
 70
128
 71
263
 72
265
 73
264
 74
253
 0
VERTEX
 8
0
 10
0
 20
0.25
 30
0
 70
128
 71
256
 72
257
 73
254
 74
264
 0
VERTEX
 8
0
 10
0
 20
0.25
 30
0
 70
128
 71
259
 72
256
 73
264
 74
265
 0
VERTEX
 8
0
 10
0
 20
0.25
 30
0
 70
128
 71
266
 72
267
 73
252
 74
268
 0
VERTEX
 8
0
 10
0
 20
0.25
 30
0
 70
128
 71
268
 72
259
 73
265
 74
261
 0
VERTEX
 8
0
 10
0
 20
0.25
 30
0
 70
128
 71
252
 72
267
 73
277
 0
VERTEX
 8
0
 10
0
 20
0.25
 30
0
 70
128
 71
277
 72
269
 73
270
 74
281
 0
VERTEX
 8
0
 10
0
 20
0.25
 30
0
 70
128
 71
276
 72
260
 73
281
 0
VERTEX
 8
0
 10
0
 20
0.25
 30
0
 70
128
 71
276
 72
275
 73
261
 74
260
 0
VERTEX
 8
0
 10
0
 20
0.25
 30
0
 70
128
 71
278
 72
277
 73
267
 74
266
 0
VERTEX
 8
0
 10
0
 20
0.25
 30
0
 70
128
 71
266
 72
268
 73
261
 74
275
 0
VERTEX
 8
0
 10
0
 20
0.25
 30
0
 70
128
 71
277
 72
271
 73
269
 0
VERTEX
 8
0
 10
0
 20
0.25
 30
0
 70
128
 71
269
 72
284
 73
272
 74
270
 0
VERTEX
 8
0
 10
0
 20
0.25
 30
0
 70
128
 71
273
 72
281
 73
270
 0
VERTEX
 8
0
 10
0
 20
0.25
 30
0
 70
128
 71
281
 72
274
 73
275
 74
276
 0
VERTEX
 8
0
 10
0
 20
0.25
 30
0
 70
128
 71
282
 72
271
 73
277
 74
278
 0
VERTEX
 8
0
 10
0
 20
0.25
 30
0
 70
128
 71
278
 72
266
 73
275
 74
274
 0
VERTEX
 8
0
 10
0
 20
0.25
 30
0
 70
128
 71
279
 72
269
 73
271
 74
282
 0
VERTEX
 8
0
 10
0
 20
0.25
 30
0
 70
128
 71
285
 72
284
 73
269
 74
279
 0
VERTEX
 8
0
 10
0
 20
0.25
 30
0
 70
128
 71
284
 72
294
 73
290
 74
272
 0
VERTEX
 8
0
 10
0
 20
0.25
 30
0
 70
128
 71
272
 72
287
 73
283
 74
270
 0
VERTEX
 8
0
 10
0
 20
0.25
 30
0
 70
128
 71
273
 72
280
 73
274
 74
281
 0
VERTEX
 8
0
 10
0
 20
0.25
 30
0
 70
128
 71
270
 72
283
 73
280
 74
273
 0
VERTEX
 8
0
 10
0
 20
0.25
 30
0
 70
128
 71
282
 72
278
 73
274
 74
280
 0
VERTEX
 8
0
 10
0
 20
0.25
 30
0
 70
128
 71
279
 72
282
 73
280
 74
283
 0
VERTEX
 8
0
 10
0
 20
0.25
 30
0
 70
128
 71
296
 72
288
 73
284
 74
285
 0
VERTEX
 8
0
 10
0
 20
0.25
 30
0
 70
128
 71
285
 72
279
 73
283
 74
287
 0
VERTEX
 8
0
 10
0
 20
0.25
 30
0
 70
128
 71
284
 72
288
 73
294
 0
VERTEX
 8
0
 10
0
 20
0.25
 30
0
 70
128
 71
294
 72
286
 73
299
 74
290
 0
VERTEX
 8
0
 10
0
 20
0.25
 30
0
 70
128
 71
292
 72
272
 73
290
 0
VERTEX
 8
0
 10
0
 20
0.25
 30
0
 70
128
 71
292
 72
291
 73
287
 74
272
 0
VERTEX
 8
0
 10
0
 20
0.25
 30
0
 70
128
 71
295
 72
294
 73
288
 74
296
 0
VERTEX
 8
0
 10
0
 20
0.25
 30
0
 70
128
 71
296
 72
285
 73
287
 74
291
 0
VERTEX
 8
0
 10
0
 20
0.25
 30
0
 70
128
 71
294
 72
298
 73
286
 0
VERTEX
 8
0
 10
0
 20
0.25
 30
0
 70
128
 71
286
 72
304
 73
305
 74
299
 0
VERTEX
 8
0
 10
0
 20
0.25
 30
0
 70
128
 71
289
 72
290
 73
299
 0
VERTEX
 8
0
 10
0
 20
0.25
 30
0
 70
128
 71
290
 72
307
 73
291
 74
292
 0
VERTEX
 8
0
 10
0
 20
0.25
 30
0
 70
128
 71
293
 72
298
 73
294
 74
295
 0
VERTEX
 8
0
 10
0
 20
0.25
 30
0
 70
128
 71
295
 72
296
 73
313
 0
VERTEX
 8
0
 10
0
 20
0.25
 30
0
 70
128
 71
296
 72
291
 73
323
 74
313
 0
VERTEX
 8
0
 10
0
 20
0.25
 30
0
 70
128
 71
297
 72
286
 73
298
 74
293
 0
VERTEX
 8
0
 10
0
 20
0.25
 30
0
 70
128
 71
304
 72
286
 73
297
 74
302
 0
VERTEX
 8
0
 10
0
 20
0.25
 30
0
 70
128
 71
304
 72
303
 73
321
 74
305
 0
VERTEX
 8
0
 10
0
 20
0.25
 30
0
 70
128
 71
322
 72
306
 73
299
 74
305
 0
VERTEX
 8
0
 10
0
 20
0.25
 30
0
 70
128
 71
289
 72
310
 73
307
 74
290
 0
VERTEX
 8
0
 10
0
 20
0.25
 30
0
 70
128
 71
299
 72
306
 73
310
 74
289
 0
VERTEX
 8
0
 10
0
 20
0.25
 30
0
 70
128
 71
307
 72
323
 73
291
 0
VERTEX
 8
0
 10
0
 20
0.25
 30
0
 70
128
 71
295
 72
300
 73
309
 74
293
 0
VERTEX
 8
0
 10
0
 20
0.25
 30
0
 70
128
 71
312
 72
300
 73
295
 74
313
 0
VERTEX
 8
0
 10
0
 20
0.25
 30
0
 70
128
 71
313
 72
323
 73
328
 74
301
 0
VERTEX
 8
0
 10
0
 20
0.25
 30
0
 70
128
 71
293
 72
309
 73
308
 74
297
 0
VERTEX
 8
0
 10
0
 20
0.25
 30
0
 70
128
 71
297
 72
308
 73
316
 74
302
 0
VERTEX
 8
0
 10
0
 20
0.25
 30
0
 70
128
 71
317
 72
303
 73
304
 74
302
 0
VERTEX
 8
0
 10
0
 20
0.25
 30
0
 70
128
 71
303
 72
319
 73
321
 0
VERTEX
 8
0
 10
0
 20
0.25
 30
0
 70
128
 71
321
 72
320
 73
322
 74
305
 0
VERTEX
 8
0
 10
0
 20
0.25
 30
0
 70
128
 71
322
 72
316
 73
308
 74
306
 0
VERTEX
 8
0
 10
0
 20
0.25
 30
0
 70
128
 71
310
 72
309
 73
300
 74
307
 0
VERTEX
 8
0
 10
0
 20
0.25
 30
0
 70
128
 71
306
 72
308
 73
309
 74
310
 0
VERTEX
 8
0
 10
0
 20
0.25
 30
0
 70
128
 71
300
 72
312
 73
323
 74
307
 0
VERTEX
 8
0
 10
0
 20
0.25
 30
0
 70
128
 71
324
 72
311
 73
312
 74
313
 0
VERTEX
 8
0
 10
0
 20
0.25
 30
0
 70
128
 71
314
 72
328
 73
323
 74
326
 0
VERTEX
 8
0
 10
0
 20
0.25
 30
0
 70
128
 71
327
 72
315
 73
301
 74
328
 0
VERTEX
 8
0
 10
0
 20
0.25
 30
0
 70
128
 71
324
 72
313
 73
301
 74
329
 0
VERTEX
 8
0
 10
0
 20
0.25
 30
0
 70
128
 71
302
 72
316
 73
318
 74
317
 0
VERTEX
 8
0
 10
0
 20
0.25
 30
0
 70
128
 71
318
 72
319
 73
303
 74
317
 0
VERTEX
 8
0
 10
0
 20
0.25
 30
0
 70
128
 71
319
 72
318
 73
320
 74
321
 0
VERTEX
 8
0
 10
0
 20
0.25
 30
0
 70
128
 71
318
 72
316
 73
322
 74
320
 0
VERTEX
 8
0
 10
0
 20
0.25
 30
0
 70
128
 71
323
 72
312
 73
311
 74
326
 0
VERTEX
 8
0
 10
0
 20
0.25
 30
0
 70
128
 71
329
 72
325
 73
311
 74
324
 0
VERTEX
 8
0
 10
0
 20
0.25
 30
0
 70
128
 71
325
 72
330
 73
328
 74
314
 0
VERTEX
 8
0
 10
0
 20
0.25
 30
0
 70
128
 71
326
 72
311
 73
325
 74
314
 0
VERTEX
 8
0
 10
0
 20
0.25
 30
0
 70
128
 71
327
 72
337
 73
332
 74
315
 0
VERTEX
 8
0
 10
0
 20
0.25
 30
0
 70
128
 71
335
 72
301
 73
315
 0
VERTEX
 8
0
 10
0
 20
0.25
 30
0
 70
128
 71
331
 72
327
 73
328
 0
VERTEX
 8
0
 10
0
 20
0.25
 30
0
 70
128
 71
330
 72
325
 73
329
 74
301
 0
VERTEX
 8
0
 10
0
 20
0.25
 30
0
 70
128
 71
328
 72
330
 73
333
 74
331
 0
VERTEX
 8
0
 10
0
 20
0.25
 30
0
 70
128
 71
338
 72
337
 73
327
 0
VERTEX
 8
0
 10
0
 20
0.25
 30
0
 70
128
 71
337
 72
344
 73
347
 74
332
 0
VERTEX
 8
0
 10
0
 20
0.25
 30
0
 70
128
 71
341
 72
315
 73
332
 0
VERTEX
 8
0
 10
0
 20
0.25
 30
0
 70
128
 71
335
 72
333
 73
330
 74
301
 0
VERTEX
 8
0
 10
0
 20
0.25
 30
0
 70
128
 71
334
 72
333
 73
335
 74
315
 0
VERTEX
 8
0
 10
0
 20
0.25
 30
0
 70
128
 71
333
 72
334
 73
327
 74
331
 0
VERTEX
 8
0
 10
0
 20
0.25
 30
0
 70
128
 71
336
 72
340
 73
337
 74
338
 0
VERTEX
 8
0
 10
0
 20
0.25
 30
0
 70
128
 71
327
 72
334
 73
336
 74
338
 0
VERTEX
 8
0
 10
0
 20
0.25
 30
0
 70
128
 71
337
 72
340
 73
339
 74
344
 0
VERTEX
 8
0
 10
0
 20
0.25
 30
0
 70
128
 71
344
 72
345
 73
349
 74
347
 0
VERTEX
 8
0
 10
0
 20
0.25
 30
0
 70
128
 71
347
 72
339
 73
340
 74
332
 0
VERTEX
 8
0
 10
0
 20
0.25
 30
0
 70
128
 71
341
 72
336
 73
334
 74
315
 0
VERTEX
 8
0
 10
0
 20
0.25
 30
0
 70
128
 71
340
 72
336
 73
341
 74
332
 0
VERTEX
 8
0
 10
0
 20
0.25
 30
0
 70
128
 71
344
 72
339
 73
342
 74
343
 0
VERTEX
 8
0
 10
0
 20
0.25
 30
0
 70
128
 71
343
 72
345
 73
344
 0
VERTEX
 8
0
 10
0
 20
0.25
 30
0
 70
128
 71
345
 72
357
 73
346
 74
349
 0
VERTEX
 8
0
 10
0
 20
0.25
 30
0
 70
128
 71
350
 72
347
 73
349
 0
VERTEX
 8
0
 10
0
 20
0.25
 30
0
 70
128
 71
350
 72
342
 73
339
 74
347
 0
VERTEX
 8
0
 10
0
 20
0.25
 30
0
 70
128
 71
342
 72
348
 73
345
 74
343
 0
VERTEX
 8
0
 10
0
 20
0.25
 30
0
 70
128
 71
352
 72
357
 73
345
 74
353
 0
VERTEX
 8
0
 10
0
 20
0.25
 30
0
 70
128
 71
356
 72
346
 73
357
 74
359
 0
VERTEX
 8
0
 10
0
 20
0.25
 30
0
 70
128
 71
360
 72
349
 73
346
 74
361
 0
VERTEX
 8
0
 10
0
 20
0.25
 30
0
 70
128
 71
348
 72
342
 73
350
 74
349
 0
VERTEX
 8
0
 10
0
 20
0.25
 30
0
 70
128
 71
345
 72
348
 73
354
 74
353
 0
VERTEX
 8
0
 10
0
 20
0.25
 30
0
 70
128
 71
355
 72
351
 73
357
 74
352
 0
VERTEX
 8
0
 10
0
 20
0.25
 30
0
 70
128
 71
353
 72
354
 73
355
 74
352
 0
VERTEX
 8
0
 10
0
 20
0.25
 30
0
 70
128
 71
356
 72
358
 73
351
 74
346
 0
VERTEX
 8
0
 10
0
 20
0.25
 30
0
 70
128
 71
357
 72
351
 73
358
 74
359
 0
VERTEX
 8
0
 10
0
 20
0.25
 30
0
 70
128
 71
356
 72
359
 73
358
 0
VERTEX
 8
0
 10
0
 20
0.25
 30
0
 70
128
 71
360
 72
354
 73
348
 74
349
 0
VERTEX
 8
0
 10
0
 20
0.25
 30
0
 70
128
 71
351
 72
355
 73
361
 74
346
 0
VERTEX
 8
0
 10
0
 20
0.25
 30
0
 70
128
 71
361
 72
355
 73
354
 74
360
 0
SEQEND
 8
0
 0
ENDSEC
 0
EOF
