 0
SECTION
 2
HEADER
 9
$ACADVER
 1
AC1009
 0
ENDSEC
 0
SECTION
 2
BLOCKS
 0
BLOCK
 8
0
 2
*Model_Space
 70
0
 10
0
 20
0
 30
0
 3
*Model_Space
 0
ENDBLK
 8
0
 0
BLOCK
 8
0
 2
*Paper_Space
 70
0
 10
0
 20
0
 30
0
 3
*Paper_Space
 0
ENDBLK
 8
0
 0
ENDSEC
 0
SECTION
 2
ENTITIES
 0
POLYLINE
 8
0
 62
255
 66
1
 10
0
 20
0.25
 30
0
 70
64
 71
90
 72
119
 0
VERTEX
 8
0
 10
0
 20
0.33
 30
0
 70
192
 0
VERTEX
 8
0
 10
0
 20
0.33
 30
0.052167
 70
192
 0
VERTEX
 8
0
 10
0
 20
0.33
 30
0.077167
 70
192
 0
VERTEX
 8
0
 10
0
 20
0.19
 30
0.077167
 70
192
 0
VERTEX
 8
0
 10
0
 20
0.19
 30
0.995
 70
192
 0
VERTEX
 8
0
 10
0
 20
0.1
 30
0.026667
 70
192
 0
VERTEX
 8
0
 10
0
 20
0.1
 30
0.995
 70
192
 0
VERTEX
 8
0
 10
0
 20
0
 30
0
 70
192
 0
VERTEX
 8
0
 10
0
 20
0
 30
0.01
 70
192
 0
VERTEX
 8
0
 10
0.01
 20
0.19
 30
0.077167
 70
192
 0
VERTEX
 8
0
 10
0.01
 20
0.19
 30
0.985
 70
192
 0
VERTEX
 8
0
 10
0.01
 20
0.175
 30
0.077167
 70
192
 0
VERTEX
 8
0
 10
0.01
 20
0.175
 30
0.5627085
 70
192
 0
VERTEX
 8
0
 10
0.01
 20
0.145
 30
0.077167
 70
192
 0
VERTEX
 8
0
 10
0.01
 20
0.145
 30
0.5245835
 70
192
 0
VERTEX
 8
0
 10
0.01
 20
0.145
 30
0.5627085
 70
192
 0
VERTEX
 8
0
 10
0.01
 20
0.145
 30
0.985
 70
192
 0
VERTEX
 8
0
 10
0.01
 20
0.115
 30
0.5245835
 70
192
 0
VERTEX
 8
0
 10
0.01
 20
0.115
 30
0.985
 70
192
 0
VERTEX
 8
0
 10
0.01
 20
0.1
 30
0.077167
 70
192
 0
VERTEX
 8
0
 10
0.01
 20
0.1
 30
0.985
 70
192
 0
VERTEX
 8
0
 10
0.033125
 20
0.175
 30
0.125417
 70
192
 0
VERTEX
 8
0
 10
0.033125
 20
0.175
 30
0.5245835
 70
192
 0
VERTEX
 8
0
 10
0.033125
 20
0.145
 30
0.125417
 70
192
 0
VERTEX
 8
0
 10
0.033125
 20
0.145
 30
0.5245835
 70
192
 0
VERTEX
 8
0
 10
0.033125
 20
0.145
 30
0.5627085
 70
192
 0
VERTEX
 8
0
 10
0.033125
 20
0.145
 30
0.961875
 70
192
 0
VERTEX
 8
0
 10
0.033125
 20
0.115
 30
0.5627085
 70
192
 0
VERTEX
 8
0
 10
0.033125
 20
0.115
 30
0.961875
 70
192
 0
VERTEX
 8
0
 10
0.3075
 20
0.175
 30
0.125417
 70
192
 0
VERTEX
 8
0
 10
0.3075
 20
0.175
 30
0.5245835
 70
192
 0
VERTEX
 8
0
 10
0.3075
 20
0.145
 30
0.125417
 70
192
 0
VERTEX
 8
0
 10
0.3075
 20
0.145
 30
0.5245835
 70
192
 0
VERTEX
 8
0
 10
0.3075
 20
0.145
 30
0.5627085
 70
192
 0
VERTEX
 8
0
 10
0.3075
 20
0.145
 30
0.961875
 70
192
 0
VERTEX
 8
0
 10
0.3075
 20
0.115
 30
0.5627085
 70
192
 0
VERTEX
 8
0
 10
0.3075
 20
0.115
 30
0.961875
 70
192
 0
VERTEX
 8
0
 10
0.3175
 20
0.175
 30
0.125417
 70
192
 0
VERTEX
 8
0
 10
0.3175
 20
0.175
 30
0.5245835
 70
192
 0
VERTEX
 8
0
 10
0.3175
 20
0.145
 30
0.125417
 70
192
 0
VERTEX
 8
0
 10
0.3175
 20
0.145
 30
0.5245835
 70
192
 0
VERTEX
 8
0
 10
0.3175
 20
0.145
 30
0.5627085
 70
192
 0
VERTEX
 8
0
 10
0.3175
 20
0.145
 30
0.961875
 70
192
 0
VERTEX
 8
0
 10
0.3175
 20
0.115
 30
0.5627085
 70
192
 0
VERTEX
 8
0
 10
0.3175
 20
0.115
 30
0.961875
 70
192
 0
VERTEX
 8
0
 10
0.591875
 20
0.175
 30
0.125417
 70
192
 0
VERTEX
 8
0
 10
0.591875
 20
0.175
 30
0.5245835
 70
192
 0
VERTEX
 8
0
 10
0.591875
 20
0.145
 30
0.125417
 70
192
 0
VERTEX
 8
0
 10
0.591875
 20
0.145
 30
0.5245835
 70
192
 0
VERTEX
 8
0
 10
0.591875
 20
0.145
 30
0.5627085
 70
192
 0
VERTEX
 8
0
 10
0.591875
 20
0.145
 30
0.961875
 70
192
 0
VERTEX
 8
0
 10
0.591875
 20
0.115
 30
0.5627085
 70
192
 0
VERTEX
 8
0
 10
0.591875
 20
0.115
 30
0.961875
 70
192
 0
VERTEX
 8
0
 10
0.615
 20
0.19
 30
0.077167
 70
192
 0
VERTEX
 8
0
 10
0.615
 20
0.19
 30
0.985
 70
192
 0
VERTEX
 8
0
 10
0.615
 20
0.175
 30
0.077167
 70
192
 0
VERTEX
 8
0
 10
0.615
 20
0.175
 30
0.5627085
 70
192
 0
VERTEX
 8
0
 10
0.615
 20
0.145
 30
0.077167
 70
192
 0
VERTEX
 8
0
 10
0.615
 20
0.145
 30
0.5245835
 70
192
 0
VERTEX
 8
0
 10
0.615
 20
0.145
 30
0.5627085
 70
192
 0
VERTEX
 8
0
 10
0.615
 20
0.145
 30
0.985
 70
192
 0
VERTEX
 8
0
 10
0.615
 20
0.115
 30
0.5245835
 70
192
 0
VERTEX
 8
0
 10
0.615
 20
0.115
 30
0.985
 70
192
 0
VERTEX
 8
0
 10
0.615
 20
0.1
 30
0.077167
 70
192
 0
VERTEX
 8
0
 10
0.615
 20
0.1
 30
0.985
 70
192
 0
VERTEX
 8
0
 10
0.625
 20
0.33
 30
0
 70
192
 0
VERTEX
 8
0
 10
0.625
 20
0.33
 30
0.052167
 70
192
 0
VERTEX
 8
0
 10
0.625
 20
0.33
 30
0.077167
 70
192
 0
VERTEX
 8
0
 10
0.625
 20
0.19
 30
0.077167
 70
192
 0
VERTEX
 8
0
 10
0.625
 20
0.19
 30
0.995
 70
192
 0
VERTEX
 8
0
 10
0.625
 20
0.1
 30
0.026667
 70
192
 0
VERTEX
 8
0
 10
0.625
 20
0.1
 30
0.995
 70
192
 0
VERTEX
 8
0
 10
0.625
 20
0
 30
0
 70
192
 0
VERTEX
 8
0
 10
0.625
 20
0
 30
0.01
 70
192
 0
VERTEX
 8
0
 10
0.645
 20
0.33
 30
0.052167
 70
192
 0
VERTEX
 8
0
 10
0.645
 20
0.33
 30
0.077167
 70
192
 0
VERTEX
 8
0
 10
0.645
 20
0.36
 30
0.052167
 70
192
 0
VERTEX
 8
0
 10
0.645
 20
0.36
 30
0.077167
 70
192
 0
VERTEX
 8
0
 10
0.6675
 20
0
 30
0.01
 70
192
 0
VERTEX
 8
0
 10
0.6675
 20
0
 30
-0.123333
 70
192
 0
VERTEX
 8
0
 10
0.6675
 20
-0.05
 30
0.001667
 70
192
 0
VERTEX
 8
0
 10
0.6675
 20
-0.05
 30
-0.123333
 70
192
 0
VERTEX
 8
0
 10
-0.02
 20
0.33
 30
0.052167
 70
192
 0
VERTEX
 8
0
 10
-0.02
 20
0.33
 30
0.077167
 70
192
 0
VERTEX
 8
0
 10
-0.02
 20
0.36
 30
0.052167
 70
192
 0
VERTEX
 8
0
 10
-0.02
 20
0.36
 30
0.077167
 70
192
 0
VERTEX
 8
0
 10
-0.0425
 20
0
 30
0.01
 70
192
 0
VERTEX
 8
0
 10
-0.0425
 20
0
 30
-0.123333
 70
192
 0
VERTEX
 8
0
 10
-0.0425
 20
-0.05
 30
0.001667
 70
192
 0
VERTEX
 8
0
 10
-0.0425
 20
-0.05
 30
-0.123333
 70
192
 0
VERTEX
 8
0
 10
0
 20
0.25
 30
0
 62
255
 70
128
 71
50
 72
51
 73
61
 0
VERTEX
 8
0
 10
0
 20
0.25
 30
0
 62
255
 70
128
 71
27
 72
26
 73
17
 0
VERTEX
 8
0
 10
0
 20
0.25
 30
0
 62
255
 70
128
 71
29
 72
19
 73
28
 0
VERTEX
 8
0
 10
0
 20
0.25
 30
0
 62
255
 70
128
 71
53
 72
52
 73
63
 0
VERTEX
 8
0
 10
0
 20
0.25
 30
0
 62
255
 70
128
 71
49
 72
48
 73
58
 0
VERTEX
 8
0
 10
0
 20
0.25
 30
0
 62
255
 70
128
 71
24
 72
25
 73
14
 0
VERTEX
 8
0
 10
0
 20
0.25
 30
0
 62
255
 70
128
 71
62
 72
49
 73
59
 0
VERTEX
 8
0
 10
0
 20
0.25
 30
0
 62
255
 70
128
 71
15
 72
25
 73
18
 0
VERTEX
 8
0
 10
0
 20
0.25
 30
0
 62
255
 70
128
 71
87
 72
89
 73
9
 0
VERTEX
 8
0
 10
0
 20
0.25
 30
0
 62
255
 70
128
 71
79
 72
74
 73
81
 0
VERTEX
 8
0
 10
0
 20
0.25
 30
0
 62
255
 70
128
 71
84
 72
3
 73
86
 0
VERTEX
 8
0
 10
0
 20
0.25
 30
0
 62
255
 70
128
 71
4
 72
10
 73
3
 0
VERTEX
 8
0
 10
0
 20
0.25
 30
0
 62
255
 70
128
 71
69
 72
68
 73
54
 0
VERTEX
 8
0
 10
0
 20
0.25
 30
0
 62
255
 70
128
 71
76
 72
78
 73
68
 0
VERTEX
 8
0
 10
0
 20
0.25
 30
0
 62
255
 70
128
 71
16
 72
26
 73
13
 0
VERTEX
 8
0
 10
0
 20
0.25
 30
0
 62
255
 70
128
 71
60
 72
57
 73
50
 0
VERTEX
 8
0
 10
0
 20
0.25
 30
0
 62
255
 70
128
 71
46
 72
47
 73
56
 0
VERTEX
 8
0
 10
0
 20
0.25
 30
0
 62
255
 70
128
 71
22
 72
12
 73
23
 0
VERTEX
 8
0
 10
0
 20
0.25
 30
0
 62
255
 70
128
 71
68
 72
3
 73
10
 74
54
 0
VERTEX
 8
0
 10
0
 20
0.25
 30
0
 62
255
 70
128
 71
78
 72
86
 73
3
 74
68
 0
VERTEX
 8
0
 10
0
 20
0.25
 30
0
 62
255
 70
128
 71
83
 72
84
 73
86
 74
85
 0
VERTEX
 8
0
 10
0
 20
0.25
 30
0
 62
255
 70
128
 71
85
 72
86
 73
78
 74
77
 0
VERTEX
 8
0
 10
0
 20
0.25
 30
0
 62
255
 70
128
 71
77
 72
78
 73
76
 74
75
 0
VERTEX
 8
0
 10
0
 20
0.25
 30
0
 62
255
 70
128
 71
85
 72
77
 73
67
 74
2
 0
VERTEX
 8
0
 10
0
 20
0.25
 30
0
 62
255
 70
128
 71
12
 72
56
 73
54
 74
10
 0
VERTEX
 8
0
 10
0
 20
0.25
 30
0
 62
255
 70
128
 71
71
 72
6
 73
9
 74
74
 0
VERTEX
 8
0
 10
0
 20
0.25
 30
0
 62
255
 70
128
 71
89
 72
81
 73
74
 74
9
 0
VERTEX
 8
0
 10
0
 20
0.25
 30
0
 62
255
 70
128
 71
89
 72
90
 73
82
 74
81
 0
VERTEX
 8
0
 10
0
 20
0.25
 30
0
 62
255
 70
128
 71
88
 72
80
 73
82
 74
90
 0
VERTEX
 8
0
 10
0
 20
0.25
 30
0
 62
255
 70
128
 71
61
 72
17
 73
11
 74
55
 0
VERTEX
 8
0
 10
0
 20
0.25
 30
0
 62
255
 70
128
 71
11
 72
5
 73
70
 74
55
 0
VERTEX
 8
0
 10
0
 20
0.25
 30
0
 62
255
 70
128
 71
58
 72
14
 73
20
 74
64
 0
VERTEX
 8
0
 10
0
 20
0.25
 30
0
 62
255
 70
128
 71
64
 72
20
 73
6
 74
71
 0
VERTEX
 8
0
 10
0
 20
0.25
 30
0
 62
255
 70
128
 71
39
 72
38
 73
30
 74
31
 0
VERTEX
 8
0
 10
0
 20
0.25
 30
0
 62
255
 70
128
 71
33
 72
31
 73
30
 74
32
 0
VERTEX
 8
0
 10
0
 20
0.25
 30
0
 62
255
 70
128
 71
40
 72
38
 73
39
 74
41
 0
VERTEX
 8
0
 10
0
 20
0.25
 30
0
 62
255
 70
128
 71
41
 72
33
 73
32
 74
40
 0
VERTEX
 8
0
 10
0
 20
0.25
 30
0
 62
255
 70
128
 71
45
 72
37
 73
36
 74
44
 0
VERTEX
 8
0
 10
0
 20
0.25
 30
0
 62
255
 70
128
 71
42
 72
34
 73
35
 74
43
 0
VERTEX
 8
0
 10
0
 20
0.25
 30
0
 62
255
 70
128
 71
37
 72
35
 73
34
 74
36
 0
VERTEX
 8
0
 10
0
 20
0.25
 30
0
 62
255
 70
128
 71
44
 72
42
 73
43
 74
45
 0
VERTEX
 8
0
 10
0
 20
0.25
 30
0
 62
255
 70
128
 71
32
 72
30
 73
22
 74
24
 0
VERTEX
 8
0
 10
0
 20
0.25
 30
0
 62
255
 70
128
 71
29
 72
27
 73
35
 74
37
 0
VERTEX
 8
0
 10
0
 20
0.25
 30
0
 62
255
 70
128
 71
45
 72
43
 73
51
 74
53
 0
VERTEX
 8
0
 10
0
 20
0.25
 30
0
 62
255
 70
128
 71
48
 72
46
 73
38
 74
40
 0
VERTEX
 8
0
 10
0
 20
0.25
 30
0
 62
255
 70
128
 71
87
 72
88
 73
90
 74
89
 0
VERTEX
 8
0
 10
0
 20
0.25
 30
0
 62
255
 70
128
 71
79
 72
81
 73
82
 74
80
 0
VERTEX
 8
0
 10
0
 20
0.25
 30
0
 62
255
 70
128
 71
18
 72
62
 73
44
 74
36
 0
VERTEX
 8
0
 10
0
 20
0.25
 30
0
 62
255
 70
128
 71
63
 72
19
 73
37
 74
45
 0
VERTEX
 8
0
 10
0
 20
0.25
 30
0
 62
255
 70
128
 71
38
 72
56
 73
12
 74
30
 0
VERTEX
 8
0
 10
0
 20
0.25
 30
0
 62
255
 70
128
 71
13
 72
57
 73
39
 74
31
 0
VERTEX
 8
0
 10
0
 20
0.25
 30
0
 62
255
 70
128
 71
57
 72
13
 73
34
 74
42
 0
VERTEX
 8
0
 10
0
 20
0.25
 30
0
 62
255
 70
128
 71
17
 72
61
 73
43
 74
35
 0
VERTEX
 8
0
 10
0
 20
0.25
 30
0
 62
255
 70
128
 71
62
 72
18
 73
33
 74
41
 0
VERTEX
 8
0
 10
0
 20
0.25
 30
0
 62
255
 70
128
 71
16
 72
17
 73
26
 0
VERTEX
 8
0
 10
0
 20
0.25
 30
0
 62
255
 70
128
 71
61
 72
60
 73
50
 0
VERTEX
 8
0
 10
0
 20
0.25
 30
0
 62
255
 70
128
 71
57
 72
56
 73
47
 0
VERTEX
 8
0
 10
0
 20
0.25
 30
0
 62
255
 70
128
 71
12
 72
13
 73
23
 0
VERTEX
 8
0
 10
0
 20
0.25
 30
0
 62
255
 70
128
 71
15
 72
14
 73
25
 0
VERTEX
 8
0
 10
0
 20
0.25
 30
0
 62
255
 70
128
 71
58
 72
59
 73
49
 0
VERTEX
 8
0
 10
0
 20
0.25
 30
0
 62
255
 70
128
 71
62
 72
63
 73
52
 0
VERTEX
 8
0
 10
0
 20
0.25
 30
0
 62
255
 70
128
 71
18
 72
28
 73
19
 0
VERTEX
 8
0
 10
0
 20
0.25
 30
0
 62
255
 70
128
 71
28
 72
26
 73
27
 74
29
 0
VERTEX
 8
0
 10
0
 20
0.25
 30
0
 62
255
 70
128
 71
53
 72
51
 73
50
 74
52
 0
VERTEX
 8
0
 10
0
 20
0.25
 30
0
 62
255
 70
128
 71
49
 72
47
 73
46
 74
48
 0
VERTEX
 8
0
 10
0
 20
0.25
 30
0
 62
255
 70
128
 71
24
 72
22
 73
23
 74
25
 0
VERTEX
 8
0
 10
0
 20
0.25
 30
0
 62
255
 70
128
 71
60
 72
61
 73
55
 74
57
 0
VERTEX
 8
0
 10
0
 20
0.25
 30
0
 62
255
 70
128
 71
11
 72
17
 73
16
 74
13
 0
VERTEX
 8
0
 10
0
 20
0.25
 30
0
 62
255
 70
128
 71
10
 72
4
 73
5
 74
11
 0
VERTEX
 8
0
 10
0
 20
0.25
 30
0
 62
255
 70
128
 71
54
 72
55
 73
70
 74
69
 0
VERTEX
 8
0
 10
0
 20
0.25
 30
0
 62
255
 70
128
 71
71
 72
72
 73
65
 74
64
 0
VERTEX
 8
0
 10
0
 20
0.25
 30
0
 62
255
 70
128
 71
6
 72
20
 73
21
 74
7
 0
VERTEX
 8
0
 10
0
 20
0.25
 30
0
 62
255
 70
128
 71
28
 72
36
 73
34
 74
26
 0
VERTEX
 8
0
 10
0
 20
0.25
 30
0
 62
255
 70
128
 71
44
 72
52
 73
50
 74
42
 0
VERTEX
 8
0
 10
0
 20
0.25
 30
0
 62
255
 70
128
 71
31
 72
33
 73
25
 74
23
 0
VERTEX
 8
0
 10
0
 20
0.25
 30
0
 62
255
 70
128
 71
59
 72
58
 73
64
 74
62
 0
VERTEX
 8
0
 10
0
 20
0.25
 30
0
 62
255
 70
128
 71
20
 72
14
 73
15
 74
18
 0
VERTEX
 8
0
 10
0
 20
0.25
 30
0
 62
255
 70
128
 71
12
 72
10
 73
11
 74
13
 0
VERTEX
 8
0
 10
0
 20
0.25
 30
0
 62
255
 70
128
 71
55
 72
54
 73
56
 74
57
 0
VERTEX
 8
0
 10
0
 20
0.25
 30
0
 62
255
 70
128
 71
63
 72
62
 73
64
 74
65
 0
VERTEX
 8
0
 10
0
 20
0.25
 30
0
 62
255
 70
128
 71
19
 72
21
 73
20
 74
18
 0
VERTEX
 8
0
 10
0
 20
0.25
 30
0
 62
255
 70
128
 71
32
 72
24
 73
14
 0
VERTEX
 8
0
 10
0
 20
0.25
 30
0
 62
255
 70
128
 71
58
 72
48
 73
40
 0
VERTEX
 8
0
 10
0
 20
0.25
 30
0
 62
255
 70
128
 71
58
 72
40
 73
32
 74
14
 0
VERTEX
 8
0
 10
0
 20
0.25
 30
0
 62
255
 70
128
 71
62
 72
52
 73
44
 0
VERTEX
 8
0
 10
0
 20
0.25
 30
0
 62
255
 70
128
 71
36
 72
28
 73
18
 0
VERTEX
 8
0
 10
0
 20
0.25
 30
0
 62
255
 70
128
 71
45
 72
53
 73
63
 0
VERTEX
 8
0
 10
0
 20
0.25
 30
0
 62
255
 70
128
 71
19
 72
29
 73
37
 0
VERTEX
 8
0
 10
0
 20
0.25
 30
0
 62
255
 70
128
 71
35
 72
27
 73
17
 0
VERTEX
 8
0
 10
0
 20
0.25
 30
0
 62
255
 70
128
 71
61
 72
51
 73
43
 0
VERTEX
 8
0
 10
0
 20
0.25
 30
0
 62
255
 70
128
 71
63
 72
65
 73
21
 74
19
 0
VERTEX
 8
0
 10
0
 20
0.25
 30
0
 62
255
 70
128
 71
72
 72
7
 73
21
 74
65
 0
VERTEX
 8
0
 10
0
 20
0.25
 30
0
 62
255
 70
128
 71
31
 72
23
 73
13
 0
VERTEX
 8
0
 10
0
 20
0.25
 30
0
 62
255
 70
128
 71
47
 72
39
 73
57
 0
VERTEX
 8
0
 10
0
 20
0.25
 30
0
 62
255
 70
128
 71
49
 72
41
 73
39
 74
47
 0
VERTEX
 8
0
 10
0
 20
0.25
 30
0
 62
255
 70
128
 71
38
 72
46
 73
56
 0
VERTEX
 8
0
 10
0
 20
0.25
 30
0
 62
255
 70
128
 71
12
 72
22
 73
30
 0
VERTEX
 8
0
 10
0
 20
0.25
 30
0
 62
255
 70
128
 71
41
 72
49
 73
62
 0
VERTEX
 8
0
 10
0
 20
0.25
 30
0
 62
255
 70
128
 71
18
 72
25
 73
33
 0
VERTEX
 8
0
 10
0
 20
0.25
 30
0
 62
255
 70
128
 71
13
 72
26
 73
34
 0
VERTEX
 8
0
 10
0
 20
0.25
 30
0
 62
255
 70
128
 71
42
 72
50
 73
57
 0
VERTEX
 8
0
 10
0
 20
0.25
 30
0
 62
255
 70
128
 71
70
 72
5
 73
7
 74
72
 0
VERTEX
 8
0
 10
0
 20
0.25
 30
0
 62
255
 70
128
 71
5
 72
4
 73
6
 74
7
 0
VERTEX
 8
0
 10
0
 20
0.25
 30
0
 62
255
 70
128
 71
72
 72
71
 73
69
 74
70
 0
VERTEX
 8
0
 10
0
 20
0.25
 30
0
 62
255
 70
128
 71
73
 72
80
 73
88
 74
8
 0
VERTEX
 8
0
 10
0
 20
0.25
 30
0
 62
255
 70
128
 71
67
 72
77
 73
75
 0
VERTEX
 8
0
 10
0
 20
0.25
 30
0
 62
255
 70
128
 71
68
 72
67
 73
75
 74
76
 0
VERTEX
 8
0
 10
0
 20
0.25
 30
0
 62
255
 70
128
 71
2
 72
83
 73
85
 0
VERTEX
 8
0
 10
0
 20
0.25
 30
0
 62
255
 70
128
 71
84
 72
83
 73
2
 74
3
 0
VERTEX
 8
0
 10
0
 20
0.25
 30
0
 62
255
 70
128
 71
2
 72
67
 73
66
 74
1
 0
VERTEX
 8
0
 10
0
 20
0.25
 30
0
 62
255
 70
128
 71
71
 72
67
 73
68
 74
69
 0
VERTEX
 8
0
 10
0
 20
0.25
 30
0
 62
255
 70
128
 71
73
 72
66
 73
67
 74
71
 0
VERTEX
 8
0
 10
0
 20
0.25
 30
0
 62
255
 70
128
 71
3
 72
2
 73
6
 74
4
 0
VERTEX
 8
0
 10
0
 20
0.25
 30
0
 62
255
 70
128
 71
2
 72
1
 73
8
 74
6
 0
VERTEX
 8
0
 10
0
 20
0.25
 30
0
 62
255
 70
128
 71
66
 72
73
 73
8
 74
1
 0
VERTEX
 8
0
 10
0
 20
0.25
 30
0
 62
255
 70
128
 71
9
 72
8
 73
88
 74
87
 0
VERTEX
 8
0
 10
0
 20
0.25
 30
0
 62
255
 70
128
 71
6
 72
8
 73
9
 0
VERTEX
 8
0
 10
0
 20
0.25
 30
0
 62
255
 70
128
 71
79
 72
80
 73
73
 74
74
 0
VERTEX
 8
0
 10
0
 20
0.25
 30
0
 62
255
 70
128
 71
74
 72
73
 73
71
 0
SEQEND
 0
ENDSEC
 0
EOF
