 0
SECTION
 2
HEADER
 9
$ACADVER
 1
AC1009
 9
$INSBASE
 10
0.0
 20
0.0
 30
0.0
 9
$EXTMIN
 10
0.0
 20
0.0
 30
0.0
 9
$EXTMAX
 10
0.0
 20
0.0
 30
0.0
 0
ENDSEC
 0
SECTION
 2
TABLES
 0
TABLE
 2
VPORT
 70
1
 0
VPORT
 2
*ACTIVE
 70
0
 10
0.0
 20
0.0
 11
1.0
 21
1.0
 12
-5.0
 22
1.0
 13
0.0
 23
0.0
 14
0.1
 24
0.1
 15
0.1
 25
0.1
 16
0.0
 26
0.0
 36
1.0
 17
0.0
 27
0.0
 37
0.0
 40
10.0
 41
1.0
 42
50.0
 43
0.0
 44
0.0
 50
0.0
 51
0.0
 71
0
 72
100
 73
1
 74
1
 75
0
 76
0
 77
0
 78
0
 0
ENDTAB
 0
TABLE
 2
LTYPE
 70
8
 0
LTYPE
 2
CONTINUOUS
 70
0
 3
Solid line
 72
65
 73
0
 40
0.0
 0
LTYPE
 2
DOT
 70
0
 3
. . . . . . .
 72
65
 73
2
 40
0.25
 49
0.0
 49
-0.25
 0
LTYPE
 2
DASHED
 70
0
 3
__ __ __ __ __
 72
65
 73
2
 40
0.8
 49
0.5
 49
-0.3
 0
LTYPE
 2
DASHDOT
 70
0
 3
__ . __ . __ .
 72
65
 73
4
 40
1.0
 49
0.5
 49
-0.25
 49
0.0
 49
-0.25
 0
LTYPE
 2
DIVIDE
 70
0
 3
____ . . ____ . . 
 72
65
 73
6
 40
1.25
 49
0.5
 49
-0.25
 49
0.0
 49
-0.25
 49
0.0
 49
-0.25
 0
LTYPE
 2
BORDER
 70
0
 3
__ __ . __ __ . 
 72
65
 73
6
 40
1.75
 49
0.5
 49
-0.25
 49
0.5
 49
-0.25
 49
0.0
 49
-0.25
 0
LTYPE
 2
HIDDEN
 70
0
 3
__ __ __ __ __
 72
65
 73
2
 40
0.4
 49
0.25
 49
-0.25
 0
LTYPE
 2
CENTER
 70
0
 3
____ _ ____ _ __
 72
65
 73
4
 40
2.0
 49
1.25
 49
-0.25
 49
0.25
 49
-0.25
 0
ENDTAB
 0
TABLE
 2
LAYER
 70
1
 0
LAYER
 2
PYDXF
 70
64
 62
7
 6
continuous
 0
ENDTAB
 0
TABLE
 2
STYLE
 70
1
 0
STYLE
 2
STANDARD
 70
0
 40
0
 41
1.0
 50
0.0
 71
0
 42
1
 3
ARIAL.TTF
 4

 0
ENDTAB
 0
TABLE
 2
VIEW
 70
1
 0
VIEW
 2
BF_TOPVIEW
 70
0
 40
120.0
 10
0.0
 20
0.0
 41
200.0
 11
0.0
 21
0.0
 31
1.0
 12
0.0
 22
0.0
 32
0.0
 42
50.0
 43
0.0
 44
0.0
 50
0.0
 71
0
 0
ENDTAB
 0
ENDSEC
 0
SECTION
 2
BLOCKS
 0
ENDSEC
 0
SECTION
 2
ENTITIES
 0
POLYLINE
 8
0
 70
64
 66
1
 10
0.0
 20
0.0
 30
0.0
 71
196
 72
194
 0
VERTEX
 8
0
 10
0.254
 20
0.254
 30
1.8923006057739258
 70
192
 0
VERTEX
 8
0
 10
-0.254
 20
0.254
 30
1.6002006530761719
 70
192
 0
VERTEX
 8
0
 10
-0.254
 20
0.254
 30
1.8923006057739258
 70
192
 0
VERTEX
 8
0
 10
-0.2413
 20
-0.2413
 30
1.8923006057739258
 70
192
 0
VERTEX
 8
0
 10
0.2032
 20
0.2032
 30
1.9304008483886719
 70
192
 0
VERTEX
 8
0
 10
0.2413
 20
0.2413
 30
1.8923006057739258
 70
192
 0
VERTEX
 8
0
 10
0.254
 20
-0.254
 30
1.8923006057739258
 70
192
 0
VERTEX
 8
0
 10
0.254
 20
0.254
 30
1.6002006530761719
 70
192
 0
VERTEX
 8
0
 10
0.254
 20
-0.254
 30
1.6002006530761719
 70
192
 0
VERTEX
 8
0
 10
-0.254
 20
-0.254
 30
1.8923006057739258
 70
192
 0
VERTEX
 8
0
 10
-0.2413
 20
0.2413
 30
1.8923006057739258
 70
192
 0
VERTEX
 8
0
 10
-0.2032
 20
-0.2032
 30
1.9304008483886719
 70
192
 0
VERTEX
 8
0
 10
-0.2032
 20
0.2032
 30
1.9304008483886719
 70
192
 0
VERTEX
 8
0
 10
0.2413
 20
-0.2413
 30
1.8923006057739258
 70
192
 0
VERTEX
 8
0
 10
0.2413
 20
-0.2413
 30
1.6002006530761719
 70
192
 0
VERTEX
 8
0
 10
0.2413
 20
0.2413
 30
1.6002006530761719
 70
192
 0
VERTEX
 8
0
 10
-0.2413
 20
-0.2413
 30
1.6002006530761719
 70
192
 0
VERTEX
 8
0
 10
-0.254
 20
-0.254
 30
1.6002006530761719
 70
192
 0
VERTEX
 8
0
 10
-0.2032
 20
-0.2032
 30
1.943100929260254
 70
192
 0
VERTEX
 8
0
 10
-0.2032
 20
0.2032
 30
1.943100929260254
 70
192
 0
VERTEX
 8
0
 10
-0.2413
 20
0.2413
 30
1.9812006950378418
 70
192
 0
VERTEX
 8
0
 10
0.2413
 20
0.2413
 30
1.9812006950378418
 70
192
 0
VERTEX
 8
0
 10
0.2032
 20
-0.2032
 30
1.9304008483886719
 70
192
 0
VERTEX
 8
0
 10
0.2032
 20
0.2032
 30
1.562100887298584
 70
192
 0
VERTEX
 8
0
 10
-0.2413
 20
0.2413
 30
1.6002006530761719
 70
192
 0
VERTEX
 8
0
 10
-0.2032
 20
0.2032
 30
1.562100887298584
 70
192
 0
VERTEX
 8
0
 10
0.254
 20
0.254
 30
1.9812006950378418
 70
192
 0
VERTEX
 8
0
 10
0.2032
 20
0.2032
 30
1.943100929260254
 70
192
 0
VERTEX
 8
0
 10
-0.2032
 20
-0.2032
 30
1.562100887298584
 70
192
 0
VERTEX
 8
0
 10
0.2032
 20
-0.2032
 30
1.549400806427002
 70
192
 0
VERTEX
 8
0
 10
0.2032
 20
0.2032
 30
1.549400806427002
 70
192
 0
VERTEX
 8
0
 10
0.2032
 20
-0.2032
 30
1.562100887298584
 70
192
 0
VERTEX
 8
0
 10
-0.2032
 20
0.2032
 30
1.549400806427002
 70
192
 0
VERTEX
 8
0
 10
0.2032
 20
-0.2032
 30
1.943100929260254
 70
192
 0
VERTEX
 8
0
 10
-0.2413
 20
-0.2413
 30
1.9812006950378418
 70
192
 0
VERTEX
 8
0
 10
-0.254
 20
0.254
 30
1.9812006950378418
 70
192
 0
VERTEX
 8
0
 10
-0.254
 20
0.254
 30
2.2733006477355957
 70
192
 0
VERTEX
 8
0
 10
0.2413
 20
-0.2413
 30
1.9812006950378418
 70
192
 0
VERTEX
 8
0
 10
-0.2032
 20
-0.2032
 30
1.549400806427002
 70
192
 0
VERTEX
 8
0
 10
0.2413
 20
-0.2413
 30
1.511301040649414
 70
192
 0
VERTEX
 8
0
 10
0.2413
 20
0.2413
 30
1.511301040649414
 70
192
 0
VERTEX
 8
0
 10
-0.2413
 20
0.2413
 30
1.511301040649414
 70
192
 0
VERTEX
 8
0
 10
-0.2413
 20
-0.2413
 30
1.511301040649414
 70
192
 0
VERTEX
 8
0
 10
-0.254
 20
-0.254
 30
1.9812006950378418
 70
192
 0
VERTEX
 8
0
 10
-0.254
 20
-0.254
 30
2.2733006477355957
 70
192
 0
VERTEX
 8
0
 10
0.254
 20
0.254
 30
2.2733006477355957
 70
192
 0
VERTEX
 8
0
 10
-0.2413
 20
0.2413
 30
2.2733006477355957
 70
192
 0
VERTEX
 8
0
 10
-0.254
 20
0.254
 30
1.511301040649414
 70
192
 0
VERTEX
 8
0
 10
-0.254
 20
-0.254
 30
1.511301040649414
 70
192
 0
VERTEX
 8
0
 10
0.254
 20
-0.254
 30
1.9812006950378418
 70
192
 0
VERTEX
 8
0
 10
0.254
 20
-0.254
 30
2.2733006477355957
 70
192
 0
VERTEX
 8
0
 10
0.2413
 20
-0.2413
 30
2.2733006477355957
 70
192
 0
VERTEX
 8
0
 10
0.2413
 20
0.2413
 30
2.2733006477355957
 70
192
 0
VERTEX
 8
0
 10
0.254
 20
0.254
 30
1.219200611114502
 70
192
 0
VERTEX
 8
0
 10
0.254
 20
0.254
 30
1.511301040649414
 70
192
 0
VERTEX
 8
0
 10
0.254
 20
-0.254
 30
1.511301040649414
 70
192
 0
VERTEX
 8
0
 10
-0.2413
 20
0.2413
 30
1.219200611114502
 70
192
 0
VERTEX
 8
0
 10
-0.254
 20
0.254
 30
1.219200611114502
 70
192
 0
VERTEX
 8
0
 10
-0.2413
 20
-0.2413
 30
2.2733006477355957
 70
192
 0
VERTEX
 8
0
 10
0.2032
 20
0.2032
 30
2.311400890350342
 70
192
 0
VERTEX
 8
0
 10
-0.2032
 20
0.2032
 30
2.311400890350342
 70
192
 0
VERTEX
 8
0
 10
-0.254
 20
-0.254
 30
1.219200611114502
 70
192
 0
VERTEX
 8
0
 10
0.254
 20
-0.254
 30
1.219200611114502
 70
192
 0
VERTEX
 8
0
 10
0.2413
 20
0.2413
 30
1.219200611114502
 70
192
 0
VERTEX
 8
0
 10
-0.2413
 20
-0.2413
 30
1.219200611114502
 70
192
 0
VERTEX
 8
0
 10
0.2032
 20
-0.2032
 30
2.311400890350342
 70
192
 0
VERTEX
 8
0
 10
0.2032
 20
0.2032
 30
2.324100971221924
 70
192
 0
VERTEX
 8
0
 10
0.2032
 20
0.2032
 30
1.181100845336914
 70
192
 0
VERTEX
 8
0
 10
0.2413
 20
-0.2413
 30
1.219200611114502
 70
192
 0
VERTEX
 8
0
 10
-0.2032
 20
-0.2032
 30
2.311400890350342
 70
192
 0
VERTEX
 8
0
 10
-0.2032
 20
0.2032
 30
2.324100971221924
 70
192
 0
VERTEX
 8
0
 10
0.2032
 20
-0.2032
 30
2.324100971221924
 70
192
 0
VERTEX
 8
0
 10
0.2413
 20
0.2413
 30
2.362200737
 70
192
 0
VERTEX
 8
0
 10
0.2413
 20
-0.2413
 30
2.362200737
 70
192
 0
VERTEX
 8
0
 10
-0.254
 20
0.254
 30
2.362200737
 70
192
 0
VERTEX
 8
0
 10
0.254
 20
0.254
 30
2.362200737
 70
192
 0
VERTEX
 8
0
 10
-0.2413
 20
0.2413
 30
2.362200737
 70
192
 0
VERTEX
 8
0
 10
0.2032
 20
0.2032
 30
1.168400764465332
 70
192
 0
VERTEX
 8
0
 10
0.2032
 20
-0.2032
 30
1.181100845336914
 70
192
 0
VERTEX
 8
0
 10
-0.2032
 20
0.2032
 30
1.168400764465332
 70
192
 0
VERTEX
 8
0
 10
-0.2032
 20
-0.2032
 30
1.181100845336914
 70
192
 0
VERTEX
 8
0
 10
-0.2032
 20
0.2032
 30
1.181100845336914
 70
192
 0
VERTEX
 8
0
 10
-0.2032
 20
-0.2032
 30
2.324100971221924
 70
192
 0
VERTEX
 8
0
 10
-0.2413
 20
-0.2413
 30
2.362200737
 70
192
 0
VERTEX
 8
0
 10
0.254
 20
-0.254
 30
2.362200737
 70
192
 0
VERTEX
 8
0
 10
0.2032
 20
-0.2032
 30
1.168400764465332
 70
192
 0
VERTEX
 8
0
 10
0.2413
 20
-0.2413
 30
1.1303009986877441
 70
192
 0
VERTEX
 8
0
 10
-0.2413
 20
0.2413
 30
1.1303009986877441
 70
192
 0
VERTEX
 8
0
 10
0.2413
 20
0.2413
 30
1.1303009986877441
 70
192
 0
VERTEX
 8
0
 10
-0.2413
 20
-0.2413
 30
1.1303009986877441
 70
192
 0
VERTEX
 8
0
 10
-0.2032
 20
-0.2032
 30
1.168400764465332
 70
192
 0
VERTEX
 8
0
 10
-0.254
 20
-0.254
 30
2.362200737
 70
192
 0
VERTEX
 8
0
 10
0.254
 20
-0.254
 30
2.6543006896972656
 70
192
 0
VERTEX
 8
0
 10
0.254
 20
0.254
 30
2.6543006896972656
 70
192
 0
VERTEX
 8
0
 10
-0.254
 20
0.254
 30
2.6543006896972656
 70
192
 0
VERTEX
 8
0
 10
-0.2413
 20
0.2413
 30
2.6543006896972656
 70
192
 0
VERTEX
 8
0
 10
0.254
 20
0.254
 30
1.1303009986877441
 70
192
 0
VERTEX
 8
0
 10
0.254
 20
0.254
 30
0.83820104599
 70
192
 0
VERTEX
 8
0
 10
-0.254
 20
-0.254
 30
2.6543006896972656
 70
192
 0
VERTEX
 8
0
 10
-0.254
 20
0.254
 30
0.83820104599
 70
192
 0
VERTEX
 8
0
 10
-0.254
 20
0.254
 30
1.1303009986877441
 70
192
 0
VERTEX
 8
0
 10
-0.254
 20
-0.254
 30
0.83820104599
 70
192
 0
VERTEX
 8
0
 10
-0.2413
 20
-0.2413
 30
2.6543006896972656
 70
192
 0
VERTEX
 8
0
 10
0.2032
 20
0.2032
 30
2.6924009323120117
 70
192
 0
VERTEX
 8
0
 10
0.2413
 20
-0.2413
 30
2.6543006896972656
 70
192
 0
VERTEX
 8
0
 10
0.2413
 20
0.2413
 30
2.6543006896972656
 70
192
 0
VERTEX
 8
0
 10
-0.2032
 20
0.2032
 30
2.6924009323120117
 70
192
 0
VERTEX
 8
0
 10
-0.2032
 20
0.2032
 30
2.7051010131835938
 70
192
 0
VERTEX
 8
0
 10
0.2032
 20
0.2032
 30
2.7051010131835938
 70
192
 0
VERTEX
 8
0
 10
0.254
 20
-0.254
 30
1.1303009986877441
 70
192
 0
VERTEX
 8
0
 10
-0.254
 20
-0.254
 30
1.1303009986877441
 70
192
 0
VERTEX
 8
0
 10
0.254
 20
-0.254
 30
0.83820104599
 70
192
 0
VERTEX
 8
0
 10
-0.2413
 20
0.2413
 30
0.83820104599
 70
192
 0
VERTEX
 8
0
 10
0.2413
 20
0.2413
 30
0.83820104599
 70
192
 0
VERTEX
 8
0
 10
-0.2413
 20
-0.2413
 30
0.83820104599
 70
192
 0
VERTEX
 8
0
 10
0.2032
 20
-0.2032
 30
2.6924009323120117
 70
192
 0
VERTEX
 8
0
 10
-0.2032
 20
-0.2032
 30
2.6924009323120117
 70
192
 0
VERTEX
 8
0
 10
-0.2032
 20
-0.2032
 30
2.7051010131835938
 70
192
 0
VERTEX
 8
0
 10
0.2032
 20
-0.2032
 30
2.7051010131835938
 70
192
 0
VERTEX
 8
0
 10
0.2032
 20
-0.2032
 30
0.8001008033752441
 70
192
 0
VERTEX
 8
0
 10
0.2032
 20
0.2032
 30
0.8001008033752441
 70
192
 0
VERTEX
 8
0
 10
-0.2032
 20
0.2032
 30
0.8001008033752441
 70
192
 0
VERTEX
 8
0
 10
0.2413
 20
-0.2413
 30
0.83820104599
 70
192
 0
VERTEX
 8
0
 10
-0.2032
 20
0.2032
 30
0.7874007225036621
 70
192
 0
VERTEX
 8
0
 10
0.2032
 20
0.2032
 30
0.7874007225036621
 70
192
 0
VERTEX
 8
0
 10
0.2413
 20
0.2413
 30
0.7493009567260742
 70
192
 0
VERTEX
 8
0
 10
-0.2504722476005554
 20
-0.2504722476005554
 30
2.7368507385253906
 70
192
 0
VERTEX
 8
0
 10
-0.2286
 20
0.2286
 30
2.7051010131835938
 70
192
 0
VERTEX
 8
0
 10
0.2286
 20
0.2286
 30
2.7051010131835938
 70
192
 0
VERTEX
 8
0
 10
0.25047212839126587
 20
-0.2504722476005554
 30
2.7368507385253906
 70
192
 0
VERTEX
 8
0
 10
0.2032
 20
-0.2032
 30
0.7874007225036621
 70
192
 0
VERTEX
 8
0
 10
-0.2032
 20
-0.2032
 30
0.8001008033752441
 70
192
 0
VERTEX
 8
0
 10
-0.254
 20
0.254
 30
0.7493009567260742
 70
192
 0
VERTEX
 8
0
 10
-0.2413
 20
0.2413
 30
0.7493009567260742
 70
192
 0
VERTEX
 8
0
 10
0.2286
 20
-0.2286
 30
2.7051010131835938
 70
192
 0
VERTEX
 8
0
 10
-0.2286
 20
-0.2286
 30
2.7051010131835938
 70
192
 0
VERTEX
 8
0
 10
-0.2504722476005554
 20
0.25047212839126587
 30
2.7368507385253906
 70
192
 0
VERTEX
 8
0
 10
0.25047212839126587
 20
0.25047212839126587
 30
2.7368507385253906
 70
192
 0
VERTEX
 8
0
 10
0.2794
 20
0.2794
 30
2.7622509002685547
 70
192
 0
VERTEX
 8
0
 10
0.2921
 20
0.2921
 30
2.7686009407043457
 70
192
 0
VERTEX
 8
0
 10
-0.2794
 20
0.2794
 30
2.7622509002685547
 70
192
 0
VERTEX
 8
0
 10
-0.2794
 20
-0.2794
 30
2.7622509002685547
 70
192
 0
VERTEX
 8
0
 10
-0.2032
 20
-0.2032
 30
0.7874007225036621
 70
192
 0
VERTEX
 8
0
 10
-0.2413
 20
-0.2413
 30
0.7493009567260742
 70
192
 0
VERTEX
 8
0
 10
0.254
 20
-0.254
 30
0.7493009567260742
 70
192
 0
VERTEX
 8
0
 10
0.2413
 20
-0.2413
 30
0.7493009567260742
 70
192
 0
VERTEX
 8
0
 10
0.254
 20
0.254
 30
0.7493009567260742
 70
192
 0
VERTEX
 8
0
 10
-0.254
 20
0.254
 30
0.4572010040283203
 70
192
 0
VERTEX
 8
0
 10
-0.254
 20
-0.254
 30
0.7493009567260742
 70
192
 0
VERTEX
 8
0
 10
-0.2921
 20
-0.2921
 30
2.7686009407043457
 70
192
 0
VERTEX
 8
0
 10
-0.2921
 20
0.2921
 30
2.7686009407043457
 70
192
 0
VERTEX
 8
0
 10
0.2921
 20
-0.2921
 30
2.7686009407043457
 70
192
 0
VERTEX
 8
0
 10
0.2794
 20
-0.2794
 30
2.7622509002685547
 70
192
 0
VERTEX
 8
0
 10
-0.2921
 20
0.2921
 30
2.794
 70
192
 0
VERTEX
 8
0
 10
0.254
 20
0.254
 30
0.4572010040283203
 70
192
 0
VERTEX
 8
0
 10
0.2413
 20
0.2413
 30
0.4572010040283203
 70
192
 0
VERTEX
 8
0
 10
-0.2413
 20
0.2413
 30
0.4572010040283203
 70
192
 0
VERTEX
 8
0
 10
-0.254
 20
-0.254
 30
0.4572010040283203
 70
192
 0
VERTEX
 8
0
 10
0.2921
 20
0.2921
 30
2.794
 70
192
 0
VERTEX
 8
0
 10
0.2921
 20
-0.2921
 30
2.794
 70
192
 0
VERTEX
 8
0
 10
0.3429
 20
0.3429
 30
2.794
 70
192
 0
VERTEX
 8
0
 10
0.254
 20
-0.254
 30
0.4572010040283203
 70
192
 0
VERTEX
 8
0
 10
-0.2921
 20
-0.2921
 30
2.794
 70
192
 0
VERTEX
 8
0
 10
0.2413
 20
-0.2413
 30
0.4572010040283203
 70
192
 0
VERTEX
 8
0
 10
0.2032
 20
0.2032
 30
0.4191007614135742
 70
192
 0
VERTEX
 8
0
 10
-0.3429
 20
-0.3429
 30
2.856901168823242
 70
192
 0
VERTEX
 8
0
 10
-0.3429
 20
0.3429
 30
2.794
 70
192
 0
VERTEX
 8
0
 10
0.3429
 20
-0.3429
 30
2.794
 70
192
 0
VERTEX
 8
0
 10
-0.3429
 20
-0.3429
 30
2.794
 70
192
 0
VERTEX
 8
0
 10
0.3429
 20
0.3429
 30
2.856901168823242
 70
192
 0
VERTEX
 8
0
 10
0.2032
 20
-0.2032
 30
0.4191007614135742
 70
192
 0
VERTEX
 8
0
 10
-0.2413
 20
-0.2413
 30
0.4572010040283203
 70
192
 0
VERTEX
 8
0
 10
0.2032
 20
0.2032
 30
0.4064006805419922
 70
192
 0
VERTEX
 8
0
 10
0.305
 20
0.305
 30
0.4064006805419922
 70
192
 0
VERTEX
 8
0
 10
-0.2032
 20
0.2032
 30
0.4064006805419922
 70
192
 0
VERTEX
 8
0
 10
-0.2032
 20
0.2032
 30
0.4191007614135742
 70
192
 0
VERTEX
 8
0
 10
-0.3429
 20
0.3429
 30
2.856901168823242
 70
192
 0
VERTEX
 8
0
 10
-0.3683
 20
-0.3683
 30
2.869601249694824
 70
192
 0
VERTEX
 8
0
 10
0.3683
 20
0.3683
 30
2.869601249694824
 70
192
 0
VERTEX
 8
0
 10
0.3683
 20
-0.3683
 30
2.869601249694824
 70
192
 0
VERTEX
 8
0
 10
0.3429
 20
-0.3429
 30
2.856901168823242
 70
192
 0
VERTEX
 8
0
 10
-0.3683
 20
0.3683
 30
2.869601249694824
 70
192
 0
VERTEX
 8
0
 10
-0.3683
 20
0.3683
 30
2.8950014114379883
 70
192
 0
VERTEX
 8
0
 10
-0.2032
 20
-0.2032
 30
0.4191007614135742
 70
192
 0
VERTEX
 8
0
 10
0.2032
 20
-0.2032
 30
0.4064006805419922
 70
192
 0
VERTEX
 8
0
 10
-0.305
 20
0.305
 30
0.4064006805419922
 70
192
 0
VERTEX
 8
0
 10
-0.305
 20
0.305
 30
0.0
 70
192
 0
VERTEX
 8
0
 10
-0.2032
 20
-0.2032
 30
0.4064006805419922
 70
192
 0
VERTEX
 8
0
 10
0.3683
 20
-0.3683
 30
2.8950014114379883
 70
192
 0
VERTEX
 8
0
 10
0.3683
 20
0.3683
 30
2.8950014114379883
 70
192
 0
VERTEX
 8
0
 10
-0.3683
 20
-0.3683
 30
2.8950014114379883
 70
192
 0
VERTEX
 8
0
 10
0.305
 20
0.305
 30
0.0
 70
192
 0
VERTEX
 8
0
 10
0.305
 20
-0.305
 30
0.4064006805419922
 70
192
 0
VERTEX
 8
0
 10
-0.305
 20
-0.305
 30
0.0
 70
192
 0
VERTEX
 8
0
 10
-0.305
 20
-0.305
 30
0.4064006805419922
 70
192
 0
VERTEX
 8
0
 10
0.305
 20
-0.305
 30
0.0
 70
192
 0
VERTEX
 8
0
 10
0.0
 20
0.0
 30
0.0
 70
128
 71
1
 72
3
 73
11
 74
6
 0
VERTEX
 8
0
 10
0.0
 20
0.0
 30
0.0
 70
128
 71
1
 72
8
 73
2
 74
3
 0
VERTEX
 8
0
 10
0.0
 20
0.0
 30
0.0
 70
128
 71
4
 72
11
 73
3
 74
10
 0
VERTEX
 8
0
 10
0.0
 20
0.0
 30
0.0
 70
128
 71
13
 72
5
 73
6
 74
11
 0
VERTEX
 8
0
 10
0.0
 20
0.0
 30
0.0
 70
128
 71
7
 72
1
 73
6
 74
14
 0
VERTEX
 8
0
 10
0.0
 20
0.0
 30
0.0
 70
128
 71
8
 72
1
 73
7
 74
9
 0
VERTEX
 8
0
 10
0.0
 20
0.0
 30
0.0
 70
128
 71
2
 72
8
 73
16
 74
25
 0
VERTEX
 8
0
 10
0.0
 20
0.0
 30
0.0
 70
128
 71
3
 72
2
 73
18
 74
10
 0
VERTEX
 8
0
 10
0.0
 20
0.0
 30
0.0
 70
128
 71
11
 72
4
 73
12
 74
13
 0
VERTEX
 8
0
 10
0.0
 20
0.0
 30
0.0
 70
128
 71
10
 72
7
 73
14
 74
4
 0
VERTEX
 8
0
 10
0.0
 20
0.0
 30
0.0
 70
128
 71
5
 72
13
 73
20
 74
28
 0
VERTEX
 8
0
 10
0.0
 20
0.0
 30
0.0
 70
128
 71
5
 72
23
 73
14
 74
6
 0
VERTEX
 8
0
 10
0.0
 20
0.0
 30
0.0
 70
128
 71
9
 72
7
 73
10
 74
18
 0
VERTEX
 8
0
 10
0.0
 20
0.0
 30
0.0
 70
128
 71
16
 72
8
 73
9
 74
15
 0
VERTEX
 8
0
 10
0.0
 20
0.0
 30
0.0
 70
128
 71
24
 72
26
 73
25
 74
16
 0
VERTEX
 8
0
 10
0.0
 20
0.0
 30
0.0
 70
128
 71
2
 72
25
 73
17
 74
18
 0
VERTEX
 8
0
 10
0.0
 20
0.0
 30
0.0
 70
128
 71
23
 72
12
 73
4
 74
14
 0
VERTEX
 8
0
 10
0.0
 20
0.0
 30
0.0
 70
128
 71
13
 72
12
 73
19
 74
20
 0
VERTEX
 8
0
 10
0.0
 20
0.0
 30
0.0
 70
128
 71
28
 72
20
 73
21
 74
22
 0
VERTEX
 8
0
 10
0.0
 20
0.0
 30
0.0
 70
128
 71
23
 72
5
 73
28
 74
34
 0
VERTEX
 8
0
 10
0.0
 20
0.0
 30
0.0
 70
128
 71
18
 72
17
 73
15
 74
9
 0
VERTEX
 8
0
 10
0.0
 20
0.0
 30
0.0
 70
128
 71
32
 72
24
 73
16
 74
15
 0
VERTEX
 8
0
 10
0.0
 20
0.0
 30
0.0
 70
128
 71
31
 72
33
 73
26
 74
24
 0
VERTEX
 8
0
 10
0.0
 20
0.0
 30
0.0
 70
128
 71
17
 72
25
 73
26
 74
29
 0
VERTEX
 8
0
 10
0.0
 20
0.0
 30
0.0
 70
128
 71
12
 72
23
 73
34
 74
19
 0
VERTEX
 8
0
 10
0.0
 20
0.0
 30
0.0
 70
128
 71
35
 72
21
 73
20
 74
19
 0
VERTEX
 8
0
 10
0.0
 20
0.0
 30
0.0
 70
128
 71
36
 72
27
 73
22
 74
21
 0
VERTEX
 8
0
 10
0.0
 20
0.0
 30
0.0
 70
128
 71
34
 72
28
 73
22
 74
38
 0
VERTEX
 8
0
 10
0.0
 20
0.0
 30
0.0
 70
128
 71
29
 72
32
 73
15
 74
17
 0
VERTEX
 8
0
 10
0.0
 20
0.0
 30
0.0
 70
128
 71
30
 72
31
 73
24
 74
32
 0
VERTEX
 8
0
 10
0.0
 20
0.0
 30
0.0
 70
128
 71
33
 72
31
 73
41
 74
42
 0
VERTEX
 8
0
 10
0.0
 20
0.0
 30
0.0
 70
128
 71
33
 72
39
 73
29
 74
26
 0
VERTEX
 8
0
 10
0.0
 20
0.0
 30
0.0
 70
128
 71
19
 72
34
 73
38
 74
35
 0
VERTEX
 8
0
 10
0.0
 20
0.0
 30
0.0
 70
128
 71
36
 72
21
 73
35
 74
44
 0
VERTEX
 8
0
 10
0.0
 20
0.0
 30
0.0
 70
128
 71
46
 72
27
 73
36
 74
37
 0
VERTEX
 8
0
 10
0.0
 20
0.0
 30
0.0
 70
128
 71
22
 72
27
 73
50
 74
38
 0
VERTEX
 8
0
 10
0.0
 20
0.0
 30
0.0
 70
128
 71
39
 72
30
 73
32
 74
29
 0
VERTEX
 8
0
 10
0.0
 20
0.0
 30
0.0
 70
128
 71
31
 72
30
 73
40
 74
41
 0
VERTEX
 8
0
 10
0.0
 20
0.0
 30
0.0
 70
128
 71
55
 72
48
 73
42
 74
41
 0
VERTEX
 8
0
 10
0.0
 20
0.0
 30
0.0
 70
128
 71
42
 72
43
 73
39
 74
33
 0
VERTEX
 8
0
 10
0.0
 20
0.0
 30
0.0
 70
128
 71
44
 72
35
 73
38
 74
50
 0
VERTEX
 8
0
 10
0.0
 20
0.0
 30
0.0
 70
128
 71
37
 72
36
 73
44
 74
45
 0
VERTEX
 8
0
 10
0.0
 20
0.0
 30
0.0
 70
128
 71
27
 72
46
 73
51
 74
50
 0
VERTEX
 8
0
 10
0.0
 20
0.0
 30
0.0
 70
128
 71
46
 72
37
 73
47
 74
53
 0
VERTEX
 8
0
 10
0.0
 20
0.0
 30
0.0
 70
128
 71
30
 72
39
 73
43
 74
40
 0
VERTEX
 8
0
 10
0.0
 20
0.0
 30
0.0
 70
128
 71
56
 72
55
 73
41
 74
40
 0
VERTEX
 8
0
 10
0.0
 20
0.0
 30
0.0
 70
128
 71
55
 72
54
 73
58
 74
48
 0
VERTEX
 8
0
 10
0.0
 20
0.0
 30
0.0
 70
128
 71
43
 72
42
 73
48
 74
49
 0
VERTEX
 8
0
 10
0.0
 20
0.0
 30
0.0
 70
128
 71
50
 72
51
 73
45
 74
44
 0
VERTEX
 8
0
 10
0.0
 20
0.0
 30
0.0
 70
128
 71
59
 72
47
 73
37
 74
45
 0
VERTEX
 8
0
 10
0.0
 20
0.0
 30
0.0
 70
128
 71
51
 72
46
 73
53
 74
52
 0
VERTEX
 8
0
 10
0.0
 20
0.0
 30
0.0
 70
128
 71
61
 72
60
 73
53
 74
47
 0
VERTEX
 8
0
 10
0.0
 20
0.0
 30
0.0
 70
128
 71
49
 72
56
 73
40
 74
43
 0
VERTEX
 8
0
 10
0.0
 20
0.0
 30
0.0
 70
128
 71
54
 72
55
 73
56
 74
63
 0
VERTEX
 8
0
 10
0.0
 20
0.0
 30
0.0
 70
128
 71
58
 72
54
 73
64
 74
57
 0
VERTEX
 8
0
 10
0.0
 20
0.0
 30
0.0
 70
128
 71
48
 72
58
 73
62
 74
49
 0
VERTEX
 8
0
 10
0.0
 20
0.0
 30
0.0
 70
128
 71
45
 72
51
 73
52
 74
59
 0
VERTEX
 8
0
 10
0.0
 20
0.0
 30
0.0
 70
128
 71
47
 72
59
 73
70
 74
61
 0
VERTEX
 8
0
 10
0.0
 20
0.0
 30
0.0
 70
128
 71
60
 72
66
 73
52
 74
53
 0
VERTEX
 8
0
 10
0.0
 20
0.0
 30
0.0
 70
128
 71
60
 72
61
 73
71
 74
67
 0
VERTEX
 8
0
 10
0.0
 20
0.0
 30
0.0
 70
128
 71
63
 72
56
 73
49
 74
62
 0
VERTEX
 8
0
 10
0.0
 20
0.0
 30
0.0
 70
128
 71
64
 72
54
 73
63
 74
69
 0
VERTEX
 8
0
 10
0.0
 20
0.0
 30
0.0
 70
128
 71
68
 72
82
 73
57
 74
64
 0
VERTEX
 8
0
 10
0.0
 20
0.0
 30
0.0
 70
128
 71
58
 72
57
 73
65
 74
62
 0
VERTEX
 8
0
 10
0.0
 20
0.0
 30
0.0
 70
128
 71
66
 72
70
 73
59
 74
52
 0
VERTEX
 8
0
 10
0.0
 20
0.0
 30
0.0
 70
128
 71
61
 72
70
 73
83
 74
71
 0
VERTEX
 8
0
 10
0.0
 20
0.0
 30
0.0
 70
128
 71
66
 72
60
 73
67
 74
72
 0
VERTEX
 8
0
 10
0.0
 20
0.0
 30
0.0
 70
128
 71
67
 72
71
 73
77
 74
73
 0
VERTEX
 8
0
 10
0.0
 20
0.0
 30
0.0
 70
128
 71
62
 72
65
 73
69
 74
63
 0
VERTEX
 8
0
 10
0.0
 20
0.0
 30
0.0
 70
128
 71
79
 72
68
 73
64
 74
69
 0
VERTEX
 8
0
 10
0.0
 20
0.0
 30
0.0
 70
128
 71
78
 72
80
 73
82
 74
68
 0
VERTEX
 8
0
 10
0.0
 20
0.0
 30
0.0
 70
128
 71
65
 72
57
 73
82
 74
81
 0
VERTEX
 8
0
 10
0.0
 20
0.0
 30
0.0
 70
128
 71
70
 72
66
 73
72
 74
83
 0
VERTEX
 8
0
 10
0.0
 20
0.0
 30
0.0
 70
128
 71
84
 72
77
 73
71
 74
83
 0
VERTEX
 8
0
 10
0.0
 20
0.0
 30
0.0
 70
128
 71
72
 72
67
 73
73
 74
74
 0
VERTEX
 8
0
 10
0.0
 20
0.0
 30
0.0
 70
128
 71
75
 72
76
 73
73
 74
77
 0
VERTEX
 8
0
 10
0.0
 20
0.0
 30
0.0
 70
128
 71
81
 72
79
 73
69
 74
65
 0
VERTEX
 8
0
 10
0.0
 20
0.0
 30
0.0
 70
128
 71
86
 72
78
 73
68
 74
79
 0
VERTEX
 8
0
 10
0.0
 20
0.0
 30
0.0
 70
128
 71
80
 72
78
 73
89
 74
88
 0
VERTEX
 8
0
 10
0.0
 20
0.0
 30
0.0
 70
128
 71
80
 72
91
 73
81
 74
82
 0
VERTEX
 8
0
 10
0.0
 20
0.0
 30
0.0
 70
128
 71
83
 72
72
 73
74
 74
84
 0
VERTEX
 8
0
 10
0.0
 20
0.0
 30
0.0
 70
128
 71
75
 72
77
 73
84
 74
92
 0
VERTEX
 8
0
 10
0.0
 20
0.0
 30
0.0
 70
128
 71
73
 72
76
 73
85
 74
74
 0
VERTEX
 8
0
 10
0.0
 20
0.0
 30
0.0
 70
128
 71
94
 72
76
 73
75
 74
95
 0
VERTEX
 8
0
 10
0.0
 20
0.0
 30
0.0
 70
128
 71
91
 72
86
 73
79
 74
81
 0
VERTEX
 8
0
 10
0.0
 20
0.0
 30
0.0
 70
128
 71
78
 72
86
 73
87
 74
89
 0
VERTEX
 8
0
 10
0.0
 20
0.0
 30
0.0
 70
128
 71
97
 72
101
 73
88
 74
89
 0
VERTEX
 8
0
 10
0.0
 20
0.0
 30
0.0
 70
128
 71
88
 72
90
 73
91
 74
80
 0
VERTEX
 8
0
 10
0.0
 20
0.0
 30
0.0
 70
128
 71
92
 72
84
 73
74
 74
85
 0
VERTEX
 8
0
 10
0.0
 20
0.0
 30
0.0
 70
128
 71
95
 72
75
 73
92
 74
99
 0
VERTEX
 8
0
 10
0.0
 20
0.0
 30
0.0
 70
128
 71
76
 72
94
 73
93
 74
85
 0
VERTEX
 8
0
 10
0.0
 20
0.0
 30
0.0
 70
128
 71
94
 72
95
 73
96
 74
106
 0
VERTEX
 8
0
 10
0.0
 20
0.0
 30
0.0
 70
128
 71
86
 72
91
 73
90
 74
87
 0
VERTEX
 8
0
 10
0.0
 20
0.0
 30
0.0
 70
128
 71
110
 72
97
 73
89
 74
87
 0
VERTEX
 8
0
 10
0.0
 20
0.0
 30
0.0
 70
128
 71
97
 72
98
 73
100
 74
101
 0
VERTEX
 8
0
 10
0.0
 20
0.0
 30
0.0
 70
128
 71
90
 72
88
 73
101
 74
111
 0
VERTEX
 8
0
 10
0.0
 20
0.0
 30
0.0
 70
128
 71
85
 72
93
 73
99
 74
92
 0
VERTEX
 8
0
 10
0.0
 20
0.0
 30
0.0
 70
128
 71
103
 72
96
 73
95
 74
99
 0
VERTEX
 8
0
 10
0.0
 20
0.0
 30
0.0
 70
128
 71
93
 72
94
 73
106
 74
105
 0
VERTEX
 8
0
 10
0.0
 20
0.0
 30
0.0
 70
128
 71
107
 72
104
 73
106
 74
96
 0
VERTEX
 8
0
 10
0.0
 20
0.0
 30
0.0
 70
128
 71
111
 72
110
 73
87
 74
90
 0
VERTEX
 8
0
 10
0.0
 20
0.0
 30
0.0
 70
128
 71
98
 72
97
 73
110
 74
112
 0
VERTEX
 8
0
 10
0.0
 20
0.0
 30
0.0
 70
128
 71
100
 72
98
 73
114
 74
113
 0
VERTEX
 8
0
 10
0.0
 20
0.0
 30
0.0
 70
128
 71
101
 72
100
 73
102
 74
111
 0
VERTEX
 8
0
 10
0.0
 20
0.0
 30
0.0
 70
128
 71
99
 72
93
 73
105
 74
103
 0
VERTEX
 8
0
 10
0.0
 20
0.0
 30
0.0
 70
128
 71
96
 72
103
 73
117
 74
107
 0
VERTEX
 8
0
 10
0.0
 20
0.0
 30
0.0
 70
128
 71
104
 72
116
 73
105
 74
106
 0
VERTEX
 8
0
 10
0.0
 20
0.0
 30
0.0
 70
128
 71
104
 72
107
 73
108
 74
109
 0
VERTEX
 8
0
 10
0.0
 20
0.0
 30
0.0
 70
128
 71
112
 72
110
 73
111
 74
102
 0
VERTEX
 8
0
 10
0.0
 20
0.0
 30
0.0
 70
128
 71
114
 72
98
 73
112
 74
123
 0
VERTEX
 8
0
 10
0.0
 20
0.0
 30
0.0
 70
128
 71
121
 72
122
 73
113
 74
114
 0
VERTEX
 8
0
 10
0.0
 20
0.0
 30
0.0
 70
128
 71
100
 72
113
 73
115
 74
102
 0
VERTEX
 8
0
 10
0.0
 20
0.0
 30
0.0
 70
128
 71
116
 72
117
 73
103
 74
105
 0
VERTEX
 8
0
 10
0.0
 20
0.0
 30
0.0
 70
128
 71
107
 72
117
 73
118
 74
108
 0
VERTEX
 8
0
 10
0.0
 20
0.0
 30
0.0
 70
128
 71
116
 72
104
 73
109
 74
119
 0
VERTEX
 8
0
 10
0.0
 20
0.0
 30
0.0
 70
128
 71
128
 72
129
 73
109
 74
108
 0
VERTEX
 8
0
 10
0.0
 20
0.0
 30
0.0
 70
128
 71
102
 72
115
 73
123
 74
112
 0
VERTEX
 8
0
 10
0.0
 20
0.0
 30
0.0
 70
128
 71
120
 72
121
 73
114
 74
123
 0
VERTEX
 8
0
 10
0.0
 20
0.0
 30
0.0
 70
128
 71
125
 72
124
 73
122
 74
121
 0
VERTEX
 8
0
 10
0.0
 20
0.0
 30
0.0
 70
128
 71
115
 72
113
 73
122
 74
132
 0
VERTEX
 8
0
 10
0.0
 20
0.0
 30
0.0
 70
128
 71
117
 72
116
 73
119
 74
118
 0
VERTEX
 8
0
 10
0.0
 20
0.0
 30
0.0
 70
128
 71
136
 72
128
 73
108
 74
118
 0
VERTEX
 8
0
 10
0.0
 20
0.0
 30
0.0
 70
128
 71
119
 72
109
 73
129
 74
135
 0
VERTEX
 8
0
 10
0.0
 20
0.0
 30
0.0
 70
128
 71
128
 72
137
 73
138
 74
129
 0
VERTEX
 8
0
 10
0.0
 20
0.0
 30
0.0
 70
128
 71
132
 72
120
 73
123
 74
115
 0
VERTEX
 8
0
 10
0.0
 20
0.0
 30
0.0
 70
128
 71
131
 72
125
 73
121
 74
120
 0
VERTEX
 8
0
 10
0.0
 20
0.0
 30
0.0
 70
128
 71
124
 72
125
 73
126
 74
134
 0
VERTEX
 8
0
 10
0.0
 20
0.0
 30
0.0
 70
128
 71
124
 72
143
 73
132
 74
122
 0
VERTEX
 8
0
 10
0.0
 20
0.0
 30
0.0
 70
128
 71
118
 72
119
 73
135
 74
136
 0
VERTEX
 8
0
 10
0.0
 20
0.0
 30
0.0
 70
128
 71
127
 72
137
 73
128
 74
136
 0
VERTEX
 8
0
 10
0.0
 20
0.0
 30
0.0
 70
128
 71
129
 72
138
 73
130
 74
135
 0
VERTEX
 8
0
 10
0.0
 20
0.0
 30
0.0
 70
128
 71
139
 72
138
 73
137
 74
141
 0
VERTEX
 8
0
 10
0.0
 20
0.0
 30
0.0
 70
128
 71
143
 72
131
 73
120
 74
132
 0
VERTEX
 8
0
 10
0.0
 20
0.0
 30
0.0
 70
128
 71
125
 72
131
 73
146
 74
126
 0
VERTEX
 8
0
 10
0.0
 20
0.0
 30
0.0
 70
128
 71
147
 72
133
 73
134
 74
126
 0
VERTEX
 8
0
 10
0.0
 20
0.0
 30
0.0
 70
128
 71
134
 72
144
 73
143
 74
124
 0
VERTEX
 8
0
 10
0.0
 20
0.0
 30
0.0
 70
128
 71
135
 72
130
 73
127
 74
136
 0
VERTEX
 8
0
 10
0.0
 20
0.0
 30
0.0
 70
128
 71
127
 72
142
 73
141
 74
137
 0
VERTEX
 8
0
 10
0.0
 20
0.0
 30
0.0
 70
128
 71
153
 72
130
 73
138
 74
139
 0
VERTEX
 8
0
 10
0.0
 20
0.0
 30
0.0
 70
128
 71
151
 72
140
 73
139
 74
141
 0
VERTEX
 8
0
 10
0.0
 20
0.0
 30
0.0
 70
128
 71
142
 72
127
 73
130
 74
153
 0
VERTEX
 8
0
 10
0.0
 20
0.0
 30
0.0
 70
128
 71
131
 72
143
 73
144
 74
146
 0
VERTEX
 8
0
 10
0.0
 20
0.0
 30
0.0
 70
128
 71
145
 72
147
 73
126
 74
146
 0
VERTEX
 8
0
 10
0.0
 20
0.0
 30
0.0
 70
128
 71
147
 72
155
 73
148
 74
133
 0
VERTEX
 8
0
 10
0.0
 20
0.0
 30
0.0
 70
128
 71
144
 72
134
 73
133
 74
149
 0
VERTEX
 8
0
 10
0.0
 20
0.0
 30
0.0
 70
128
 71
150
 72
151
 73
141
 74
142
 0
VERTEX
 8
0
 10
0.0
 20
0.0
 30
0.0
 70
128
 71
153
 72
139
 73
140
 74
152
 0
VERTEX
 8
0
 10
0.0
 20
0.0
 30
0.0
 70
128
 71
142
 72
153
 73
152
 74
150
 0
VERTEX
 8
0
 10
0.0
 20
0.0
 30
0.0
 70
128
 71
140
 72
151
 73
154
 74
159
 0
VERTEX
 8
0
 10
0.0
 20
0.0
 30
0.0
 70
128
 71
149
 72
145
 73
146
 74
144
 0
VERTEX
 8
0
 10
0.0
 20
0.0
 30
0.0
 70
128
 71
155
 72
147
 73
145
 74
162
 0
VERTEX
 8
0
 10
0.0
 20
0.0
 30
0.0
 70
128
 71
148
 72
155
 73
156
 74
157
 0
VERTEX
 8
0
 10
0.0
 20
0.0
 30
0.0
 70
128
 71
133
 72
148
 73
158
 74
149
 0
VERTEX
 8
0
 10
0.0
 20
0.0
 30
0.0
 70
128
 71
151
 72
150
 73
163
 74
154
 0
VERTEX
 8
0
 10
0.0
 20
0.0
 30
0.0
 70
128
 71
152
 72
140
 73
159
 74
160
 0
VERTEX
 8
0
 10
0.0
 20
0.0
 30
0.0
 70
128
 71
150
 72
152
 73
160
 74
163
 0
VERTEX
 8
0
 10
0.0
 20
0.0
 30
0.0
 70
128
 71
167
 72
161
 73
159
 74
154
 0
VERTEX
 8
0
 10
0.0
 20
0.0
 30
0.0
 70
128
 71
162
 72
145
 73
149
 74
158
 0
VERTEX
 8
0
 10
0.0
 20
0.0
 30
0.0
 70
128
 71
156
 72
155
 73
162
 74
164
 0
VERTEX
 8
0
 10
0.0
 20
0.0
 30
0.0
 70
128
 71
165
 72
176
 73
157
 74
156
 0
VERTEX
 8
0
 10
0.0
 20
0.0
 30
0.0
 70
128
 71
148
 72
157
 73
172
 74
158
 0
VERTEX
 8
0
 10
0.0
 20
0.0
 30
0.0
 70
128
 71
169
 72
167
 73
154
 74
163
 0
VERTEX
 8
0
 10
0.0
 20
0.0
 30
0.0
 70
128
 71
160
 72
159
 73
161
 74
168
 0
VERTEX
 8
0
 10
0.0
 20
0.0
 30
0.0
 70
128
 71
163
 72
160
 73
168
 74
169
 0
VERTEX
 8
0
 10
0.0
 20
0.0
 30
0.0
 70
128
 71
167
 72
177
 73
170
 74
161
 0
VERTEX
 8
0
 10
0.0
 20
0.0
 30
0.0
 70
128
 71
158
 72
172
 73
164
 74
162
 0
VERTEX
 8
0
 10
0.0
 20
0.0
 30
0.0
 70
128
 71
171
 72
165
 73
156
 74
164
 0
VERTEX
 8
0
 10
0.0
 20
0.0
 30
0.0
 70
128
 71
173
 72
175
 73
176
 74
165
 0
VERTEX
 8
0
 10
0.0
 20
0.0
 30
0.0
 70
128
 71
172
 72
157
 73
176
 74
184
 0
VERTEX
 8
0
 10
0.0
 20
0.0
 30
0.0
 70
128
 71
169
 72
166
 73
177
 74
167
 0
VERTEX
 8
0
 10
0.0
 20
0.0
 30
0.0
 70
128
 71
161
 72
170
 73
181
 74
168
 0
VERTEX
 8
0
 10
0.0
 20
0.0
 30
0.0
 70
128
 71
168
 72
181
 73
166
 74
169
 0
VERTEX
 8
0
 10
0.0
 20
0.0
 30
0.0
 70
128
 71
179
 72
170
 73
177
 74
182
 0
VERTEX
 8
0
 10
0.0
 20
0.0
 30
0.0
 70
128
 71
184
 72
171
 73
164
 74
172
 0
VERTEX
 8
0
 10
0.0
 20
0.0
 30
0.0
 70
128
 71
185
 72
173
 73
165
 74
171
 0
VERTEX
 8
0
 10
0.0
 20
0.0
 30
0.0
 70
128
 71
175
 72
173
 73
174
 74
186
 0
VERTEX
 8
0
 10
0.0
 20
0.0
 30
0.0
 70
128
 71
175
 72
188
 73
184
 74
176
 0
VERTEX
 8
0
 10
0.0
 20
0.0
 30
0.0
 70
128
 71
182
 72
177
 73
166
 74
178
 0
VERTEX
 8
0
 10
0.0
 20
0.0
 30
0.0
 70
128
 71
170
 72
179
 73
180
 74
181
 0
VERTEX
 8
0
 10
0.0
 20
0.0
 30
0.0
 70
128
 71
181
 72
180
 73
178
 74
166
 0
VERTEX
 8
0
 10
0.0
 20
0.0
 30
0.0
 70
128
 71
179
 72
182
 73
183
 74
190
 0
VERTEX
 8
0
 10
0.0
 20
0.0
 30
0.0
 70
128
 71
188
 72
185
 73
171
 74
184
 0
VERTEX
 8
0
 10
0.0
 20
0.0
 30
0.0
 70
128
 71
193
 72
174
 73
173
 74
185
 0
VERTEX
 8
0
 10
0.0
 20
0.0
 30
0.0
 70
128
 71
186
 72
174
 73
192
 74
187
 0
VERTEX
 8
0
 10
0.0
 20
0.0
 30
0.0
 70
128
 71
195
 72
188
 73
175
 74
186
 0
VERTEX
 8
0
 10
0.0
 20
0.0
 30
0.0
 70
128
 71
182
 72
178
 73
191
 74
183
 0
VERTEX
 8
0
 10
0.0
 20
0.0
 30
0.0
 70
128
 71
180
 72
179
 73
190
 74
189
 0
VERTEX
 8
0
 10
0.0
 20
0.0
 30
0.0
 70
128
 71
178
 72
180
 73
189
 74
191
 0
VERTEX
 8
0
 10
0.0
 20
0.0
 30
0.0
 70
128
 71
189
 72
190
 73
183
 74
191
 0
VERTEX
 8
0
 10
0.0
 20
0.0
 30
0.0
 70
128
 71
195
 72
193
 73
185
 74
188
 0
VERTEX
 8
0
 10
0.0
 20
0.0
 30
0.0
 70
128
 71
192
 72
174
 73
193
 74
196
 0
VERTEX
 8
0
 10
0.0
 20
0.0
 30
0.0
 70
128
 71
187
 72
192
 73
196
 74
194
 0
VERTEX
 8
0
 10
0.0
 20
0.0
 30
0.0
 70
128
 71
186
 72
187
 73
194
 74
195
 0
VERTEX
 8
0
 10
0.0
 20
0.0
 30
0.0
 70
128
 71
193
 72
195
 73
194
 74
196
 0
SEQEND
 8
0
 0
ENDSEC
 0
EOF
