 0
SECTION
 2
HEADER
 9
$ACADVER
 1
AC1009
 9
$INSBASE
 10
0.0
 20
0.0
 30
0.0
 9
$EXTMIN
 10
0.0
 20
0.0
 30
0.0
 9
$EXTMAX
 10
0.0
 20
0.0
 30
0.0
 0
ENDSEC
 0
SECTION
 2
ENTITIES
 0
POLYLINE
 8
0
 70
64
 66
1
 10
0.0
 20
0.0
 30
0.0
 71
236
 72
280
 0
VERTEX
 8
0
 10
0.545
 20
-0.055
 30
0.265
 70
192
 0
VERTEX
 8
0
 10
0.745
 20
-0.055
 30
0.265
 70
192
 0
VERTEX
 8
0
 10
0.745
 20
-0.05
 30
0.265
 70
192
 0
VERTEX
 8
0
 10
0.545
 20
-0.05
 30
0.265
 70
192
 0
VERTEX
 8
0
 10
0.545
 20
-0.055
 30
0.58
 70
192
 0
VERTEX
 8
0
 10
0.775
 20
-0.06
 30
0.235
 70
192
 0
VERTEX
 8
0
 10
0.745
 20
-0.05
 30
0.58
 70
192
 0
VERTEX
 8
0
 10
0.545
 20
-0.05
 30
0.58
 70
192
 0
VERTEX
 8
0
 10
0.515
 20
-0.06
 30
0.235
 70
192
 0
VERTEX
 8
0
 10
0.775
 20
-0.06
 30
0.61
 70
192
 0
VERTEX
 8
0
 10
0.745
 20
-0.055
 30
0.58
 70
192
 0
VERTEX
 8
0
 10
0.515
 20
-0.065
 30
0.235
 70
192
 0
VERTEX
 8
0
 10
0.775
 20
-0.065
 30
0.235
 70
192
 0
VERTEX
 8
0
 10
0.775
 20
-0.065
 30
0.61
 70
192
 0
VERTEX
 8
0
 10
0.515
 20
-0.06
 30
0.61
 70
192
 0
VERTEX
 8
0
 10
0.515
 20
-0.065
 30
0.61
 70
192
 0
VERTEX
 8
0
 10
0.785
 20
-0.065
 30
0.62
 70
192
 0
VERTEX
 8
0
 10
0.785
 20
-0.065
 30
0.225
 70
192
 0
VERTEX
 8
0
 10
0.505
 20
-0.065
 30
0.225
 70
192
 0
VERTEX
 8
0
 10
0.785
 20
-0.07
 30
0.225
 70
192
 0
VERTEX
 8
0
 10
0.505
 20
-0.07
 30
0.225
 70
192
 0
VERTEX
 8
0
 10
0.785
 20
-0.07
 30
0.62
 70
192
 0
VERTEX
 8
0
 10
0.505
 20
-0.065
 30
0.62
 70
192
 0
VERTEX
 8
0
 10
0.505
 20
-0.07
 30
0.62
 70
192
 0
VERTEX
 8
0
 10
0.027
 20
-0.07
 30
0.075
 70
192
 0
VERTEX
 8
0
 10
0.785
 20
-0.07
 30
0.82
 70
192
 0
VERTEX
 8
0
 10
0.405
 20
-0.07
 30
0.225
 70
192
 0
VERTEX
 8
0
 10
0.405
 20
-0.07
 30
0.62
 70
192
 0
VERTEX
 8
0
 10
0.883
 20
-0.07
 30
0.075
 70
192
 0
VERTEX
 8
0
 10
0.012
 20
-0.07
 30
0.075
 70
192
 0
VERTEX
 8
0
 10
0.125
 20
-0.06
 30
0.82
 70
192
 0
VERTEX
 8
0
 10
0.125
 20
-0.07
 30
0.62
 70
192
 0
VERTEX
 8
0
 10
0.395
 20
-0.065
 30
0.61
 70
192
 0
VERTEX
 8
0
 10
0.405
 20
-0.065
 30
0.225
 70
192
 0
VERTEX
 8
0
 10
0.405
 20
-0.065
 30
0.62
 70
192
 0
VERTEX
 8
0
 10
0.125
 20
-0.065
 30
0.225
 70
192
 0
VERTEX
 8
0
 10
0.883
 20
-0.11
 30
0.045
 70
192
 0
VERTEX
 8
0
 10
0.883
 20
-0.08
 30
0.075
 70
192
 0
VERTEX
 8
0
 10
0.785
 20
-0.06
 30
0.82
 70
192
 0
VERTEX
 8
0
 10
0.125
 20
-0.07
 30
0.82
 70
192
 0
VERTEX
 8
0
 10
0.125
 20
-0.06
 30
1.895
 70
192
 0
VERTEX
 8
0
 10
0.785
 20
-0.07
 30
1.895
 70
192
 0
VERTEX
 8
0
 10
0.125
 20
-0.065
 30
0.62
 70
192
 0
VERTEX
 8
0
 10
0.125
 20
-0.07
 30
0.225
 70
192
 0
VERTEX
 8
0
 10
0.395
 20
-0.065
 30
0.235
 70
192
 0
VERTEX
 8
0
 10
0.395
 20
-0.06
 30
0.61
 70
192
 0
VERTEX
 8
0
 10
0.125
 20
-0.07
 30
1.895
 70
192
 0
VERTEX
 8
0
 10
0.35166704654693604
 20
-0.06
 30
0.83
 70
192
 0
VERTEX
 8
0
 10
0.35166704654693604
 20
-0.03
 30
0.83
 70
192
 0
VERTEX
 8
0
 10
0.3416670858860016
 20
-0.06
 30
0.83
 70
192
 0
VERTEX
 8
0
 10
0.785
 20
-0.06
 30
1.895
 70
192
 0
VERTEX
 8
0
 10
0.135
 20
-0.06
 30
0.61
 70
192
 0
VERTEX
 8
0
 10
0.395
 20
-0.06
 30
0.235
 70
192
 0
VERTEX
 8
0
 10
0.365
 20
-0.055
 30
0.58
 70
192
 0
VERTEX
 8
0
 10
0.775
 20
-0.06
 30
0.83
 70
192
 0
VERTEX
 8
0
 10
0.5583328604698181
 20
-0.06
 30
0.83
 70
192
 0
VERTEX
 8
0
 10
0.5583328604698181
 20
-0.03
 30
0.83
 70
192
 0
VERTEX
 8
0
 10
0.35166704654693604
 20
-0.06
 30
1.175
 70
192
 0
VERTEX
 8
0
 10
0.3416670858860016
 20
-0.06
 30
1.175
 70
192
 0
VERTEX
 8
0
 10
0.135
 20
-0.06
 30
1.175
 70
192
 0
VERTEX
 8
0
 10
0.135
 20
-0.06
 30
1.53
 70
192
 0
VERTEX
 8
0
 10
0.135
 20
-0.06
 30
1.185
 70
192
 0
VERTEX
 8
0
 10
0.135
 20
-0.06
 30
1.54
 70
192
 0
VERTEX
 8
0
 10
0.35166704654693604
 20
-0.06
 30
1.885
 70
192
 0
VERTEX
 8
0
 10
0.5583328604698181
 20
-0.06
 30
1.885
 70
192
 0
VERTEX
 8
0
 10
0.775
 20
-0.03
 30
1.53
 70
192
 0
VERTEX
 8
0
 10
0.775
 20
-0.06
 30
1.53
 70
192
 0
VERTEX
 8
0
 10
0.775
 20
-0.06
 30
1.175
 70
192
 0
VERTEX
 8
0
 10
0.775
 20
-0.06
 30
1.54
 70
192
 0
VERTEX
 8
0
 10
0.135
 20
-0.065
 30
0.61
 70
192
 0
VERTEX
 8
0
 10
0.135
 20
-0.065
 30
0.235
 70
192
 0
VERTEX
 8
0
 10
0.365
 20
-0.055
 30
0.265
 70
192
 0
VERTEX
 8
0
 10
0.568332850933075
 20
-0.03
 30
0.83
 70
192
 0
VERTEX
 8
0
 10
0.568332850933075
 20
-0.06
 30
0.83
 70
192
 0
VERTEX
 8
0
 10
0.5583328604698181
 20
-0.06
 30
1.185
 70
192
 0
VERTEX
 8
0
 10
0.5583328604698181
 20
-0.06
 30
1.175
 70
192
 0
VERTEX
 8
0
 10
0.5583328604698181
 20
-0.03
 30
1.175
 70
192
 0
VERTEX
 8
0
 10
0.785
 20
-0.02
 30
0.82
 70
192
 0
VERTEX
 8
0
 10
0.125
 20
-0.03
 30
0.82
 70
192
 0
VERTEX
 8
0
 10
0.3416670858860016
 20
-0.03
 30
0.83
 70
192
 0
VERTEX
 8
0
 10
0.3416670858860016
 20
-0.03
 30
1.175
 70
192
 0
VERTEX
 8
0
 10
0.35166704654693604
 20
-0.03
 30
1.175
 70
192
 0
VERTEX
 8
0
 10
0.135
 20
-0.06
 30
0.83
 70
192
 0
VERTEX
 8
0
 10
0.3416670858860016
 20
-0.06
 30
1.185
 70
192
 0
VERTEX
 8
0
 10
0.3416670858860016
 20
-0.03
 30
1.185
 70
192
 0
VERTEX
 8
0
 10
0.135
 20
-0.03
 30
1.185
 70
192
 0
VERTEX
 8
0
 10
0.125
 20
-0.03
 30
1.895
 70
192
 0
VERTEX
 8
0
 10
0.135
 20
-0.03
 30
1.53
 70
192
 0
VERTEX
 8
0
 10
0.3416670858860016
 20
-0.06
 30
1.54
 70
192
 0
VERTEX
 8
0
 10
0.3416670858860016
 20
-0.06
 30
1.53
 70
192
 0
VERTEX
 8
0
 10
0.3416670858860016
 20
-0.06
 30
1.885
 70
192
 0
VERTEX
 8
0
 10
0.5583328604698181
 20
-0.03
 30
1.885
 70
192
 0
VERTEX
 8
0
 10
0.568332850933075
 20
-0.06
 30
1.885
 70
192
 0
VERTEX
 8
0
 10
0.775
 20
-0.06
 30
1.185
 70
192
 0
VERTEX
 8
0
 10
0.775
 20
-0.03
 30
1.185
 70
192
 0
VERTEX
 8
0
 10
0.568332850933075
 20
-0.06
 30
1.54
 70
192
 0
VERTEX
 8
0
 10
0.568332850933075
 20
-0.06
 30
1.53
 70
192
 0
VERTEX
 8
0
 10
0.165
 20
-0.055
 30
0.58
 70
192
 0
VERTEX
 8
0
 10
0.135
 20
-0.06
 30
0.235
 70
192
 0
VERTEX
 8
0
 10
0.165
 20
-0.05
 30
0.58
 70
192
 0
VERTEX
 8
0
 10
0.365
 20
-0.05
 30
0.265
 70
192
 0
VERTEX
 8
0
 10
0.365
 20
-0.05
 30
0.58
 70
192
 0
VERTEX
 8
0
 10
0.165
 20
-0.05
 30
0.265
 70
192
 0
VERTEX
 8
0
 10
0.165
 20
-0.055
 30
0.265
 70
192
 0
VERTEX
 8
0
 10
0.568332850933075
 20
-0.06
 30
1.175
 70
192
 0
VERTEX
 8
0
 10
0.568332850933075
 20
-0.03
 30
1.175
 70
192
 0
VERTEX
 8
0
 10
0.775
 20
-0.03
 30
1.175
 70
192
 0
VERTEX
 8
0
 10
0.775
 20
-0.03
 30
0.83
 70
192
 0
VERTEX
 8
0
 10
0.5583328604698181
 20
-0.03
 30
1.185
 70
192
 0
VERTEX
 8
0
 10
0.125
 20
-0.02
 30
0.82
 70
192
 0
VERTEX
 8
0
 10
0.785
 20
-0.03
 30
0.82
 70
192
 0
VERTEX
 8
0
 10
0.135
 20
-0.03
 30
0.83
 70
192
 0
VERTEX
 8
0
 10
0.135
 20
-0.03
 30
1.175
 70
192
 0
VERTEX
 8
0
 10
0.135
 20
-0.03
 30
1.54
 70
192
 0
VERTEX
 8
0
 10
0.3416670858860016
 20
-0.03
 30
1.53
 70
192
 0
VERTEX
 8
0
 10
0.3416670858860016
 20
-0.03
 30
1.54
 70
192
 0
VERTEX
 8
0
 10
0.35166704654693604
 20
-0.03
 30
1.885
 70
192
 0
VERTEX
 8
0
 10
0.568332850933075
 20
-0.06
 30
1.185
 70
192
 0
VERTEX
 8
0
 10
0.568332850933075
 20
-0.03
 30
1.185
 70
192
 0
VERTEX
 8
0
 10
0.568332850933075
 20
-0.03
 30
1.54
 70
192
 0
VERTEX
 8
0
 10
0.568332850933075
 20
-0.03
 30
1.53
 70
192
 0
VERTEX
 8
0
 10
0.775
 20
-0.03
 30
1.54
 70
192
 0
VERTEX
 8
0
 10
0.5583328604698181
 20
-0.06
 30
1.53
 70
192
 0
VERTEX
 8
0
 10
0.35166704654693604
 20
-0.06
 30
1.185
 70
192
 0
VERTEX
 8
0
 10
0.785
 20
-0.02
 30
0.62
 70
192
 0
VERTEX
 8
0
 10
0.785
 20
-0.03
 30
1.895
 70
192
 0
VERTEX
 8
0
 10
0.125
 20
-0.02
 30
1.895
 70
192
 0
VERTEX
 8
0
 10
0.785
 20
-0.02
 30
1.895
 70
192
 0
VERTEX
 8
0
 10
0.35166704654693604
 20
-0.06
 30
1.53
 70
192
 0
VERTEX
 8
0
 10
0.35166704654693604
 20
-0.03
 30
1.185
 70
192
 0
VERTEX
 8
0
 10
0.35166704654693604
 20
-0.03
 30
1.53
 70
192
 0
VERTEX
 8
0
 10
0.135
 20
-0.06
 30
1.885
 70
192
 0
VERTEX
 8
0
 10
0.135
 20
-0.03
 30
1.885
 70
192
 0
VERTEX
 8
0
 10
0.3416670858860016
 20
-0.03
 30
1.885
 70
192
 0
VERTEX
 8
0
 10
0.5583328604698181
 20
-0.06
 30
1.54
 70
192
 0
VERTEX
 8
0
 10
0.5583328604698181
 20
-0.03
 30
1.54
 70
192
 0
VERTEX
 8
0
 10
0.35166704654693604
 20
-0.03
 30
1.54
 70
192
 0
VERTEX
 8
0
 10
0.35166704654693604
 20
-0.06
 30
1.54
 70
192
 0
VERTEX
 8
0
 10
0.775
 20
-0.03
 30
1.885
 70
192
 0
VERTEX
 8
0
 10
0.775
 20
-0.06
 30
1.885
 70
192
 0
VERTEX
 8
0
 10
0.568332850933075
 20
-0.03
 30
1.885
 70
192
 0
VERTEX
 8
0
 10
0.5583328604698181
 20
-0.03
 30
1.53
 70
192
 0
VERTEX
 8
0
 10
0.405
 20
-0.025
 30
0.225
 70
192
 0
VERTEX
 8
0
 10
0.405
 20
-0.025
 30
0.62
 70
192
 0
VERTEX
 8
0
 10
0.505
 20
-0.02
 30
0.62
 70
192
 0
VERTEX
 8
0
 10
0.405
 20
-0.02
 30
0.225
 70
192
 0
VERTEX
 8
0
 10
0.405
 20
-0.02
 30
0.62
 70
192
 0
VERTEX
 8
0
 10
0.125
 20
-0.02
 30
0.62
 70
192
 0
VERTEX
 8
0
 10
0.505
 20
-0.025
 30
0.225
 70
192
 0
VERTEX
 8
0
 10
0.505
 20
-0.025
 30
0.62
 70
192
 0
VERTEX
 8
0
 10
0.785
 20
-0.02
 30
0.225
 70
192
 0
VERTEX
 8
0
 10
0.505
 20
-0.02
 30
0.225
 70
192
 0
VERTEX
 8
0
 10
0.135
 20
-0.025
 30
0.61
 70
192
 0
VERTEX
 8
0
 10
0.125
 20
-0.025
 30
0.62
 70
192
 0
VERTEX
 8
0
 10
0.125
 20
-0.02
 30
0.225
 70
192
 0
VERTEX
 8
0
 10
0.125
 20
-0.025
 30
0.225
 70
192
 0
VERTEX
 8
0
 10
0.775
 20
-0.025
 30
0.61
 70
192
 0
VERTEX
 8
0
 10
0.785
 20
-0.025
 30
0.62
 70
192
 0
VERTEX
 8
0
 10
0.515
 20
-0.025
 30
0.235
 70
192
 0
VERTEX
 8
0
 10
0.515
 20
-0.025
 30
0.61
 70
192
 0
VERTEX
 8
0
 10
0.515
 20
-0.03
 30
0.61
 70
192
 0
VERTEX
 8
0
 10
0.785
 20
-0.025
 30
0.225
 70
192
 0
VERTEX
 8
0
 10
0.395
 20
-0.025
 30
0.61
 70
192
 0
VERTEX
 8
0
 10
0.775
 20
-0.03
 30
0.61
 70
192
 0
VERTEX
 8
0
 10
0.395
 20
-0.025
 30
0.235
 70
192
 0
VERTEX
 8
0
 10
0.395
 20
-0.03
 30
0.61
 70
192
 0
VERTEX
 8
0
 10
0.395
 20
-0.03
 30
0.235
 70
192
 0
VERTEX
 8
0
 10
0.515
 20
-0.03
 30
0.235
 70
192
 0
VERTEX
 8
0
 10
0.135
 20
-0.025
 30
0.235
 70
192
 0
VERTEX
 8
0
 10
0.365
 20
-0.035
 30
0.58
 70
192
 0
VERTEX
 8
0
 10
0.135
 20
-0.03
 30
0.61
 70
192
 0
VERTEX
 8
0
 10
0.775
 20
-0.03
 30
0.235
 70
192
 0
VERTEX
 8
0
 10
0.775
 20
-0.025
 30
0.235
 70
192
 0
VERTEX
 8
0
 10
0.745
 20
-0.035
 30
0.58
 70
192
 0
VERTEX
 8
0
 10
0.135
 20
-0.03
 30
0.235
 70
192
 0
VERTEX
 8
0
 10
0.365
 20
-0.035
 30
0.265
 70
192
 0
VERTEX
 8
0
 10
0.365
 20
-0.04
 30
0.58
 70
192
 0
VERTEX
 8
0
 10
0.545
 20
-0.035
 30
0.58
 70
192
 0
VERTEX
 8
0
 10
0.545
 20
-0.035
 30
0.265
 70
192
 0
VERTEX
 8
0
 10
0.165
 20
-0.035
 30
0.58
 70
192
 0
VERTEX
 8
0
 10
0.745
 20
-0.04
 30
0.58
 70
192
 0
VERTEX
 8
0
 10
0.545
 20
-0.04
 30
0.58
 70
192
 0
VERTEX
 8
0
 10
0.165
 20
-0.035
 30
0.265
 70
192
 0
VERTEX
 8
0
 10
0.165
 20
-0.04
 30
0.58
 70
192
 0
VERTEX
 8
0
 10
0.365
 20
-0.04
 30
0.265
 70
192
 0
VERTEX
 8
0
 10
0.745
 20
-0.04
 30
0.265
 70
192
 0
VERTEX
 8
0
 10
0.545
 20
-0.04
 30
0.265
 70
192
 0
VERTEX
 8
0
 10
0.165
 20
-0.04
 30
0.265
 70
192
 0
VERTEX
 8
0
 10
0.745
 20
-0.035
 30
0.265
 70
192
 0
VERTEX
 8
0
 10
0.025
 20
-0.072
 30
0.025
 70
192
 0
VERTEX
 8
0
 10
0.01
 20
-0.02
 30
0.025
 70
192
 0
VERTEX
 8
0
 10
0.9
 20
-0.072
 30
0.025
 70
192
 0
VERTEX
 8
0
 10
0.9
 20
-0.02
 30
0.025
 70
192
 0
VERTEX
 8
0
 10
0.025
 20
-0.072
 30
2.055
 70
192
 0
VERTEX
 8
0
 10
0.01
 20
-0.02
 30
2.07
 70
192
 0
VERTEX
 8
0
 10
0.01
 20
-0.072
 30
0.025
 70
192
 0
VERTEX
 8
0
 10
0.01
 20
-0.072
 30
2.07
 70
192
 0
VERTEX
 8
0
 10
0.9
 20
-0.02
 30
2.07
 70
192
 0
VERTEX
 8
0
 10
0.9
 20
-0.072
 30
2.07
 70
192
 0
VERTEX
 8
0
 10
0.91
 20
-0.02
 30
2.08
 70
192
 0
VERTEX
 8
0
 10
0.0
 20
-0.02
 30
2.08
 70
192
 0
VERTEX
 8
0
 10
0.0
 20
-0.15
 30
2.08
 70
192
 0
VERTEX
 8
0
 10
0.01
 20
-0.15
 30
2.07
 70
192
 0
VERTEX
 8
0
 10
0.01
 20
-0.1
 30
2.07
 70
192
 0
VERTEX
 8
0
 10
0.9
 20
-0.1
 30
2.07
 70
192
 0
VERTEX
 8
0
 10
0.0
 20
-0.02
 30
0.0
 70
192
 0
VERTEX
 8
0
 10
0.0
 20
-0.15
 30
0.0
 70
192
 0
VERTEX
 8
0
 10
0.91
 20
-0.02
 30
0.0
 70
192
 0
VERTEX
 8
0
 10
0.91
 20
-0.15
 30
0.0
 70
192
 0
VERTEX
 8
0
 10
0.91
 20
-0.15
 30
2.08
 70
192
 0
VERTEX
 8
0
 10
0.01
 20
-0.15
 30
0.025
 70
192
 0
VERTEX
 8
0
 10
0.9
 20
-0.15
 30
2.07
 70
192
 0
VERTEX
 8
0
 10
0.9
 20
-0.15
 30
0.025
 70
192
 0
VERTEX
 8
0
 10
0.025
 20
-0.1
 30
0.025
 70
192
 0
VERTEX
 8
0
 10
0.025
 20
-0.1
 30
2.055
 70
192
 0
VERTEX
 8
0
 10
0.01
 20
-0.1
 30
0.025
 70
192
 0
VERTEX
 8
0
 10
0.9
 20
-0.1
 30
0.025
 70
192
 0
VERTEX
 8
0
 10
0.885
 20
-0.1
 30
0.025
 70
192
 0
VERTEX
 8
0
 10
0.885
 20
-0.072
 30
2.055
 70
192
 0
VERTEX
 8
0
 10
0.885
 20
-0.072
 30
0.025
 70
192
 0
VERTEX
 8
0
 10
0.885
 20
-0.1
 30
2.055
 70
192
 0
VERTEX
 8
0
 10
0.898
 20
-0.07
 30
2.068
 70
192
 0
VERTEX
 8
0
 10
0.012
 20
-0.02
 30
2.068
 70
192
 0
VERTEX
 8
0
 10
0.898
 20
-0.02
 30
0.027
 70
192
 0
VERTEX
 8
0
 10
0.898
 20
-0.02
 30
2.068
 70
192
 0
VERTEX
 8
0
 10
0.012
 20
-0.07
 30
2.068
 70
192
 0
VERTEX
 8
0
 10
0.012
 20
-0.07
 30
0.027
 70
192
 0
VERTEX
 8
0
 10
0.898
 20
-0.07
 30
0.027
 70
192
 0
VERTEX
 8
0
 10
0.898
 20
-0.07
 30
0.075
 70
192
 0
VERTEX
 8
0
 10
0.012
 20
-0.02
 30
0.027
 70
192
 0
VERTEX
 8
0
 10
0.027
 20
-0.08
 30
0.075
 70
192
 0
VERTEX
 8
0
 10
0.027
 20
-0.11
 30
0.027
 70
192
 0
VERTEX
 8
0
 10
0.027
 20
-0.07
 30
0.027
 70
192
 0
VERTEX
 8
0
 10
0.883
 20
-0.07
 30
0.027
 70
192
 0
VERTEX
 8
0
 10
0.883
 20
-0.11
 30
0.027
 70
192
 0
VERTEX
 8
0
 10
0.027
 20
-0.11
 30
0.045
 70
192
 0
VERTEX
 8
0
 10
0.0
 20
0.0
 30
0.0
 70
128
 71
1
 72
2
 73
3
 74
4
 0
VERTEX
 8
0
 10
0.0
 20
0.0
 30
0.0
 70
128
 71
3
 72
7
 73
8
 74
4
 0
VERTEX
 8
0
 10
0.0
 20
0.0
 30
0.0
 70
128
 71
1
 72
4
 73
8
 74
5
 0
VERTEX
 8
0
 10
0.0
 20
0.0
 30
0.0
 70
128
 71
2
 72
1
 73
9
 74
6
 0
VERTEX
 8
0
 10
0.0
 20
0.0
 30
0.0
 70
128
 71
11
 72
7
 73
3
 74
2
 0
VERTEX
 8
0
 10
0.0
 20
0.0
 30
0.0
 70
128
 71
11
 72
5
 73
8
 74
7
 0
VERTEX
 8
0
 10
0.0
 20
0.0
 30
0.0
 70
128
 71
1
 72
5
 73
15
 74
9
 0
VERTEX
 8
0
 10
0.0
 20
0.0
 30
0.0
 70
128
 71
6
 72
9
 73
12
 74
13
 0
VERTEX
 8
0
 10
0.0
 20
0.0
 30
0.0
 70
128
 71
6
 72
10
 73
11
 74
2
 0
VERTEX
 8
0
 10
0.0
 20
0.0
 30
0.0
 70
128
 71
10
 72
15
 73
5
 74
11
 0
VERTEX
 8
0
 10
0.0
 20
0.0
 30
0.0
 70
128
 71
9
 72
15
 73
16
 74
12
 0
VERTEX
 8
0
 10
0.0
 20
0.0
 30
0.0
 70
128
 71
18
 72
13
 73
12
 74
19
 0
VERTEX
 8
0
 10
0.0
 20
0.0
 30
0.0
 70
128
 71
13
 72
14
 73
10
 74
6
 0
VERTEX
 8
0
 10
0.0
 20
0.0
 30
0.0
 70
128
 71
14
 72
16
 73
15
 74
10
 0
VERTEX
 8
0
 10
0.0
 20
0.0
 30
0.0
 70
128
 71
23
 72
19
 73
12
 74
16
 0
VERTEX
 8
0
 10
0.0
 20
0.0
 30
0.0
 70
128
 71
18
 72
17
 73
14
 74
13
 0
VERTEX
 8
0
 10
0.0
 20
0.0
 30
0.0
 70
128
 71
18
 72
19
 73
21
 74
20
 0
VERTEX
 8
0
 10
0.0
 20
0.0
 30
0.0
 70
128
 71
16
 72
14
 73
17
 74
23
 0
VERTEX
 8
0
 10
0.0
 20
0.0
 30
0.0
 70
128
 71
19
 72
23
 73
24
 74
21
 0
VERTEX
 8
0
 10
0.0
 20
0.0
 30
0.0
 70
128
 71
20
 72
22
 73
17
 74
18
 0
VERTEX
 8
0
 10
0.0
 20
0.0
 30
0.0
 70
128
 71
29
 72
229
 73
20
 74
21
 0
VERTEX
 8
0
 10
0.0
 20
0.0
 30
0.0
 70
128
 71
22
 72
24
 73
23
 74
17
 0
VERTEX
 8
0
 10
0.0
 20
0.0
 30
0.0
 70
128
 71
21
 72
24
 73
28
 74
27
 0
VERTEX
 8
0
 10
0.0
 20
0.0
 30
0.0
 70
128
 71
22
 72
20
 73
229
 0
VERTEX
 8
0
 10
0.0
 20
0.0
 30
0.0
 70
128
 71
25
 72
29
 73
21
 74
27
 0
VERTEX
 8
0
 10
0.0
 20
0.0
 30
0.0
 70
128
 71
24
 72
22
 73
26
 0
VERTEX
 8
0
 10
0.0
 20
0.0
 30
0.0
 70
128
 71
26
 72
40
 73
28
 74
24
 0
VERTEX
 8
0
 10
0.0
 20
0.0
 30
0.0
 70
128
 71
27
 72
28
 73
35
 74
34
 0
VERTEX
 8
0
 10
0.0
 20
0.0
 30
0.0
 70
128
 71
22
 72
229
 73
222
 74
26
 0
VERTEX
 8
0
 10
0.0
 20
0.0
 30
0.0
 70
128
 71
231
 72
38
 73
29
 74
25
 0
VERTEX
 8
0
 10
0.0
 20
0.0
 30
0.0
 70
128
 71
25
 72
27
 73
44
 74
30
 0
VERTEX
 8
0
 10
0.0
 20
0.0
 30
0.0
 70
128
 71
39
 72
31
 73
40
 74
26
 0
VERTEX
 8
0
 10
0.0
 20
0.0
 30
0.0
 70
128
 71
28
 72
40
 73
32
 0
VERTEX
 8
0
 10
0.0
 20
0.0
 30
0.0
 70
128
 71
28
 72
32
 73
43
 74
35
 0
VERTEX
 8
0
 10
0.0
 20
0.0
 30
0.0
 70
128
 71
33
 72
45
 73
34
 74
35
 0
VERTEX
 8
0
 10
0.0
 20
0.0
 30
0.0
 70
128
 71
34
 72
36
 73
44
 74
27
 0
VERTEX
 8
0
 10
0.0
 20
0.0
 30
0.0
 70
128
 71
222
 72
42
 73
26
 0
VERTEX
 8
0
 10
0.0
 20
0.0
 30
0.0
 70
128
 71
236
 72
37
 73
38
 74
231
 0
VERTEX
 8
0
 10
0.0
 20
0.0
 30
0.0
 70
128
 71
44
 72
32
 73
30
 0
VERTEX
 8
0
 10
0.0
 20
0.0
 30
0.0
 70
128
 71
31
 72
39
 73
56
 74
48
 0
VERTEX
 8
0
 10
0.0
 20
0.0
 30
0.0
 70
128
 71
47
 72
40
 73
31
 74
41
 0
VERTEX
 8
0
 10
0.0
 20
0.0
 30
0.0
 70
128
 71
26
 72
42
 73
51
 74
39
 0
VERTEX
 8
0
 10
0.0
 20
0.0
 30
0.0
 70
128
 71
226
 72
30
 73
32
 74
40
 0
VERTEX
 8
0
 10
0.0
 20
0.0
 30
0.0
 70
128
 71
36
 72
43
 73
32
 74
44
 0
VERTEX
 8
0
 10
0.0
 20
0.0
 30
0.0
 70
128
 71
35
 72
43
 73
70
 74
33
 0
VERTEX
 8
0
 10
0.0
 20
0.0
 30
0.0
 70
128
 71
45
 72
33
 73
46
 74
53
 0
VERTEX
 8
0
 10
0.0
 20
0.0
 30
0.0
 70
128
 71
71
 72
36
 73
34
 74
45
 0
VERTEX
 8
0
 10
0.0
 20
0.0
 30
0.0
 70
128
 71
47
 72
42
 73
222
 74
226
 0
VERTEX
 8
0
 10
0.0
 20
0.0
 30
0.0
 70
128
 71
37
 72
236
 73
232
 74
235
 0
VERTEX
 8
0
 10
0.0
 20
0.0
 30
0.0
 70
128
 71
74
 72
56
 73
39
 0
VERTEX
 8
0
 10
0.0
 20
0.0
 30
0.0
 70
128
 71
48
 72
56
 73
57
 74
49
 0
VERTEX
 8
0
 10
0.0
 20
0.0
 30
0.0
 70
128
 71
48
 72
50
 73
31
 0
VERTEX
 8
0
 10
0.0
 20
0.0
 30
0.0
 70
128
 71
47
 72
226
 73
40
 0
VERTEX
 8
0
 10
0.0
 20
0.0
 30
0.0
 70
128
 71
41
 72
31
 73
62
 74
61
 0
VERTEX
 8
0
 10
0.0
 20
0.0
 30
0.0
 70
128
 71
42
 72
47
 73
41
 74
51
 0
VERTEX
 8
0
 10
0.0
 20
0.0
 30
0.0
 70
128
 71
67
 72
94
 73
39
 74
51
 0
VERTEX
 8
0
 10
0.0
 20
0.0
 30
0.0
 70
128
 71
71
 72
70
 73
43
 74
36
 0
VERTEX
 8
0
 10
0.0
 20
0.0
 30
0.0
 70
128
 71
33
 72
70
 73
52
 74
46
 0
VERTEX
 8
0
 10
0.0
 20
0.0
 30
0.0
 70
128
 71
53
 72
46
 73
54
 74
72
 0
VERTEX
 8
0
 10
0.0
 20
0.0
 30
0.0
 70
128
 71
53
 72
99
 73
71
 74
45
 0
VERTEX
 8
0
 10
0.0
 20
0.0
 30
0.0
 70
128
 71
74
 72
105
 73
76
 74
56
 0
VERTEX
 8
0
 10
0.0
 20
0.0
 30
0.0
 70
128
 71
74
 72
39
 73
55
 0
VERTEX
 8
0
 10
0.0
 20
0.0
 30
0.0
 70
128
 71
56
 72
76
 73
77
 74
57
 0
VERTEX
 8
0
 10
0.0
 20
0.0
 30
0.0
 70
128
 71
111
 72
79
 73
49
 74
57
 0
VERTEX
 8
0
 10
0.0
 20
0.0
 30
0.0
 70
128
 71
49
 72
82
 73
58
 74
48
 0
VERTEX
 8
0
 10
0.0
 20
0.0
 30
0.0
 70
128
 71
48
 72
58
 73
59
 74
50
 0
VERTEX
 8
0
 10
0.0
 20
0.0
 30
0.0
 70
128
 71
50
 72
83
 73
31
 0
VERTEX
 8
0
 10
0.0
 20
0.0
 30
0.0
 70
128
 71
60
 72
62
 73
31
 0
VERTEX
 8
0
 10
0.0
 20
0.0
 30
0.0
 70
128
 71
61
 72
62
 73
86
 74
88
 0
VERTEX
 8
0
 10
0.0
 20
0.0
 30
0.0
 70
128
 71
63
 72
41
 73
61
 0
VERTEX
 8
0
 10
0.0
 20
0.0
 30
0.0
 70
128
 71
51
 72
41
 73
64
 74
65
 0
VERTEX
 8
0
 10
0.0
 20
0.0
 30
0.0
 70
128
 71
66
 72
95
 73
94
 74
67
 0
VERTEX
 8
0
 10
0.0
 20
0.0
 30
0.0
 70
128
 71
68
 72
39
 73
94
 0
VERTEX
 8
0
 10
0.0
 20
0.0
 30
0.0
 70
128
 71
69
 72
67
 73
51
 0
VERTEX
 8
0
 10
0.0
 20
0.0
 30
0.0
 70
128
 71
99
 72
52
 73
70
 74
71
 0
VERTEX
 8
0
 10
0.0
 20
0.0
 30
0.0
 70
128
 71
46
 72
52
 73
98
 74
54
 0
VERTEX
 8
0
 10
0.0
 20
0.0
 30
0.0
 70
128
 71
54
 72
102
 73
101
 74
72
 0
VERTEX
 8
0
 10
0.0
 20
0.0
 30
0.0
 70
128
 71
72
 72
104
 73
99
 74
53
 0
VERTEX
 8
0
 10
0.0
 20
0.0
 30
0.0
 70
128
 71
73
 72
106
 73
105
 74
74
 0
VERTEX
 8
0
 10
0.0
 20
0.0
 30
0.0
 70
128
 71
76
 72
105
 73
118
 74
75
 0
VERTEX
 8
0
 10
0.0
 20
0.0
 30
0.0
 70
128
 71
55
 72
39
 73
68
 0
VERTEX
 8
0
 10
0.0
 20
0.0
 30
0.0
 70
128
 71
108
 72
73
 73
74
 74
55
 0
VERTEX
 8
0
 10
0.0
 20
0.0
 30
0.0
 70
128
 71
77
 72
76
 73
58
 74
82
 0
VERTEX
 8
0
 10
0.0
 20
0.0
 30
0.0
 70
128
 71
57
 72
77
 73
106
 74
73
 0
VERTEX
 8
0
 10
0.0
 20
0.0
 30
0.0
 70
128
 71
78
 72
110
 73
79
 74
111
 0
VERTEX
 8
0
 10
0.0
 20
0.0
 30
0.0
 70
128
 71
79
 72
80
 73
49
 0
VERTEX
 8
0
 10
0.0
 20
0.0
 30
0.0
 70
128
 71
73
 72
111
 73
57
 0
VERTEX
 8
0
 10
0.0
 20
0.0
 30
0.0
 70
128
 71
80
 72
81
 73
82
 74
49
 0
VERTEX
 8
0
 10
0.0
 20
0.0
 30
0.0
 70
128
 71
59
 72
58
 73
124
 74
84
 0
VERTEX
 8
0
 10
0.0
 20
0.0
 30
0.0
 70
128
 71
50
 72
59
 73
81
 74
80
 0
VERTEX
 8
0
 10
0.0
 20
0.0
 30
0.0
 70
128
 71
83
 72
50
 73
80
 74
112
 0
VERTEX
 8
0
 10
0.0
 20
0.0
 30
0.0
 70
128
 71
83
 72
60
 73
31
 0
VERTEX
 8
0
 10
0.0
 20
0.0
 30
0.0
 70
128
 71
84
 72
62
 73
60
 74
59
 0
VERTEX
 8
0
 10
0.0
 20
0.0
 30
0.0
 70
128
 71
84
 72
85
 73
86
 74
62
 0
VERTEX
 8
0
 10
0.0
 20
0.0
 30
0.0
 70
128
 71
88
 72
86
 73
79
 74
87
 0
VERTEX
 8
0
 10
0.0
 20
0.0
 30
0.0
 70
128
 71
115
 72
90
 73
61
 74
88
 0
VERTEX
 8
0
 10
0.0
 20
0.0
 30
0.0
 70
128
 71
132
 72
41
 73
63
 0
VERTEX
 8
0
 10
0.0
 20
0.0
 30
0.0
 70
128
 71
89
 72
63
 73
61
 74
90
 0
VERTEX
 8
0
 10
0.0
 20
0.0
 30
0.0
 70
128
 71
91
 72
64
 73
41
 0
VERTEX
 8
0
 10
0.0
 20
0.0
 30
0.0
 70
128
 71
92
 72
65
 73
64
 74
117
 0
VERTEX
 8
0
 10
0.0
 20
0.0
 30
0.0
 70
128
 71
93
 72
51
 73
65
 0
VERTEX
 8
0
 10
0.0
 20
0.0
 30
0.0
 70
128
 71
126
 72
111
 73
95
 74
66
 0
VERTEX
 8
0
 10
0.0
 20
0.0
 30
0.0
 70
128
 71
119
 72
118
 73
94
 74
95
 0
VERTEX
 8
0
 10
0.0
 20
0.0
 30
0.0
 70
128
 71
97
 72
121
 73
66
 74
67
 0
VERTEX
 8
0
 10
0.0
 20
0.0
 30
0.0
 70
128
 71
94
 72
118
 73
105
 74
68
 0
VERTEX
 8
0
 10
0.0
 20
0.0
 30
0.0
 70
128
 71
69
 72
96
 73
97
 74
67
 0
VERTEX
 8
0
 10
0.0
 20
0.0
 30
0.0
 70
128
 71
69
 72
51
 73
140
 0
VERTEX
 8
0
 10
0.0
 20
0.0
 30
0.0
 70
128
 71
104
 72
98
 73
52
 74
99
 0
VERTEX
 8
0
 10
0.0
 20
0.0
 30
0.0
 70
128
 71
54
 72
98
 73
100
 74
102
 0
VERTEX
 8
0
 10
0.0
 20
0.0
 30
0.0
 70
128
 71
101
 72
102
 73
100
 74
103
 0
VERTEX
 8
0
 10
0.0
 20
0.0
 30
0.0
 70
128
 71
101
 72
103
 73
104
 74
72
 0
VERTEX
 8
0
 10
0.0
 20
0.0
 30
0.0
 70
128
 71
105
 72
106
 73
107
 74
68
 0
VERTEX
 8
0
 10
0.0
 20
0.0
 30
0.0
 70
128
 71
123
 72
75
 73
118
 74
97
 0
VERTEX
 8
0
 10
0.0
 20
0.0
 30
0.0
 70
128
 71
75
 72
124
 73
58
 74
76
 0
VERTEX
 8
0
 10
0.0
 20
0.0
 30
0.0
 70
128
 71
55
 72
68
 73
107
 74
108
 0
VERTEX
 8
0
 10
0.0
 20
0.0
 30
0.0
 70
128
 71
73
 72
108
 73
111
 0
VERTEX
 8
0
 10
0.0
 20
0.0
 30
0.0
 70
128
 71
130
 72
109
 73
77
 74
82
 0
VERTEX
 8
0
 10
0.0
 20
0.0
 30
0.0
 70
128
 71
106
 72
77
 73
109
 74
119
 0
VERTEX
 8
0
 10
0.0
 20
0.0
 30
0.0
 70
128
 71
145
 72
147
 73
110
 74
78
 0
VERTEX
 8
0
 10
0.0
 20
0.0
 30
0.0
 70
128
 71
87
 72
79
 73
110
 74
127
 0
VERTEX
 8
0
 10
0.0
 20
0.0
 30
0.0
 70
128
 71
128
 72
78
 73
111
 74
126
 0
VERTEX
 8
0
 10
0.0
 20
0.0
 30
0.0
 70
128
 71
79
 72
112
 73
80
 0
VERTEX
 8
0
 10
0.0
 20
0.0
 30
0.0
 70
128
 71
82
 72
81
 73
85
 74
130
 0
VERTEX
 8
0
 10
0.0
 20
0.0
 30
0.0
 70
128
 71
90
 72
84
 73
124
 74
129
 0
VERTEX
 8
0
 10
0.0
 20
0.0
 30
0.0
 70
128
 71
81
 72
59
 73
60
 74
113
 0
VERTEX
 8
0
 10
0.0
 20
0.0
 30
0.0
 70
128
 71
112
 72
113
 73
60
 74
83
 0
VERTEX
 8
0
 10
0.0
 20
0.0
 30
0.0
 70
128
 71
115
 72
85
 73
84
 74
90
 0
VERTEX
 8
0
 10
0.0
 20
0.0
 30
0.0
 70
128
 71
81
 72
113
 73
86
 74
85
 0
VERTEX
 8
0
 10
0.0
 20
0.0
 30
0.0
 70
128
 71
86
 72
113
 73
79
 0
VERTEX
 8
0
 10
0.0
 20
0.0
 30
0.0
 70
128
 71
114
 72
88
 73
87
 0
VERTEX
 8
0
 10
0.0
 20
0.0
 30
0.0
 70
128
 71
115
 72
88
 73
114
 74
116
 0
VERTEX
 8
0
 10
0.0
 20
0.0
 30
0.0
 70
128
 71
91
 72
41
 73
132
 0
VERTEX
 8
0
 10
0.0
 20
0.0
 30
0.0
 70
128
 71
63
 72
114
 73
133
 74
132
 0
VERTEX
 8
0
 10
0.0
 20
0.0
 30
0.0
 70
128
 71
89
 72
116
 73
114
 74
63
 0
VERTEX
 8
0
 10
0.0
 20
0.0
 30
0.0
 70
128
 71
90
 72
129
 73
138
 74
89
 0
VERTEX
 8
0
 10
0.0
 20
0.0
 30
0.0
 70
128
 71
64
 72
91
 73
89
 74
138
 0
VERTEX
 8
0
 10
0.0
 20
0.0
 30
0.0
 70
128
 71
136
 72
135
 73
65
 74
92
 0
VERTEX
 8
0
 10
0.0
 20
0.0
 30
0.0
 70
128
 71
138
 72
137
 73
117
 74
64
 0
VERTEX
 8
0
 10
0.0
 20
0.0
 30
0.0
 70
128
 71
87
 72
126
 73
92
 74
117
 0
VERTEX
 8
0
 10
0.0
 20
0.0
 30
0.0
 70
128
 71
93
 72
140
 73
51
 0
VERTEX
 8
0
 10
0.0
 20
0.0
 30
0.0
 70
128
 71
93
 72
65
 73
135
 74
96
 0
VERTEX
 8
0
 10
0.0
 20
0.0
 30
0.0
 70
128
 71
107
 72
95
 73
111
 0
VERTEX
 8
0
 10
0.0
 20
0.0
 30
0.0
 70
128
 71
122
 72
126
 73
66
 0
VERTEX
 8
0
 10
0.0
 20
0.0
 30
0.0
 70
128
 71
97
 72
118
 73
119
 74
121
 0
VERTEX
 8
0
 10
0.0
 20
0.0
 30
0.0
 70
128
 71
119
 72
95
 73
107
 74
106
 0
VERTEX
 8
0
 10
0.0
 20
0.0
 30
0.0
 70
128
 71
120
 72
122
 73
66
 74
121
 0
VERTEX
 8
0
 10
0.0
 20
0.0
 30
0.0
 70
128
 71
120
 72
96
 73
69
 74
122
 0
VERTEX
 8
0
 10
0.0
 20
0.0
 30
0.0
 70
128
 71
123
 72
97
 73
96
 74
135
 0
VERTEX
 8
0
 10
0.0
 20
0.0
 30
0.0
 70
128
 71
122
 72
69
 73
140
 74
139
 0
VERTEX
 8
0
 10
0.0
 20
0.0
 30
0.0
 70
128
 71
100
 72
98
 73
104
 74
103
 0
VERTEX
 8
0
 10
0.0
 20
0.0
 30
0.0
 70
128
 71
142
 72
109
 73
75
 74
123
 0
VERTEX
 8
0
 10
0.0
 20
0.0
 30
0.0
 70
128
 71
75
 72
109
 73
130
 74
124
 0
VERTEX
 8
0
 10
0.0
 20
0.0
 30
0.0
 70
128
 71
108
 72
107
 73
111
 0
VERTEX
 8
0
 10
0.0
 20
0.0
 30
0.0
 70
128
 71
121
 72
119
 73
109
 74
142
 0
VERTEX
 8
0
 10
0.0
 20
0.0
 30
0.0
 70
128
 71
146
 72
147
 73
145
 74
152
 0
VERTEX
 8
0
 10
0.0
 20
0.0
 30
0.0
 70
128
 71
147
 72
148
 73
110
 0
VERTEX
 8
0
 10
0.0
 20
0.0
 30
0.0
 70
128
 71
145
 72
78
 73
125
 0
VERTEX
 8
0
 10
0.0
 20
0.0
 30
0.0
 70
128
 71
110
 72
223
 73
127
 0
VERTEX
 8
0
 10
0.0
 20
0.0
 30
0.0
 70
128
 71
126
 72
87
 73
127
 74
128
 0
VERTEX
 8
0
 10
0.0
 20
0.0
 30
0.0
 70
128
 71
78
 72
128
 73
225
 0
VERTEX
 8
0
 10
0.0
 20
0.0
 30
0.0
 70
128
 71
112
 72
79
 73
113
 0
VERTEX
 8
0
 10
0.0
 20
0.0
 30
0.0
 70
128
 71
131
 72
130
 73
85
 74
115
 0
VERTEX
 8
0
 10
0.0
 20
0.0
 30
0.0
 70
128
 71
129
 72
124
 73
130
 74
131
 0
VERTEX
 8
0
 10
0.0
 20
0.0
 30
0.0
 70
128
 71
87
 72
133
 73
114
 0
VERTEX
 8
0
 10
0.0
 20
0.0
 30
0.0
 70
128
 71
131
 72
115
 73
116
 74
137
 0
VERTEX
 8
0
 10
0.0
 20
0.0
 30
0.0
 70
128
 71
134
 72
91
 73
132
 74
133
 0
VERTEX
 8
0
 10
0.0
 20
0.0
 30
0.0
 70
128
 71
116
 72
89
 73
91
 74
134
 0
VERTEX
 8
0
 10
0.0
 20
0.0
 30
0.0
 70
128
 71
135
 72
138
 73
129
 74
123
 0
VERTEX
 8
0
 10
0.0
 20
0.0
 30
0.0
 70
128
 71
135
 72
136
 73
137
 74
138
 0
VERTEX
 8
0
 10
0.0
 20
0.0
 30
0.0
 70
128
 71
120
 72
136
 73
92
 74
141
 0
VERTEX
 8
0
 10
0.0
 20
0.0
 30
0.0
 70
128
 71
137
 72
116
 73
134
 74
117
 0
VERTEX
 8
0
 10
0.0
 20
0.0
 30
0.0
 70
128
 71
141
 72
92
 73
126
 0
VERTEX
 8
0
 10
0.0
 20
0.0
 30
0.0
 70
128
 71
117
 72
134
 73
87
 0
VERTEX
 8
0
 10
0.0
 20
0.0
 30
0.0
 70
128
 71
93
 72
141
 73
139
 74
140
 0
VERTEX
 8
0
 10
0.0
 20
0.0
 30
0.0
 70
128
 71
96
 72
120
 73
141
 74
93
 0
VERTEX
 8
0
 10
0.0
 20
0.0
 30
0.0
 70
128
 71
122
 72
139
 73
126
 0
VERTEX
 8
0
 10
0.0
 20
0.0
 30
0.0
 70
128
 71
121
 72
142
 73
136
 74
120
 0
VERTEX
 8
0
 10
0.0
 20
0.0
 30
0.0
 70
128
 71
142
 72
123
 73
129
 74
131
 0
VERTEX
 8
0
 10
0.0
 20
0.0
 30
0.0
 70
128
 71
143
 72
144
 73
147
 74
146
 0
VERTEX
 8
0
 10
0.0
 20
0.0
 30
0.0
 70
128
 71
152
 72
145
 73
150
 74
149
 0
VERTEX
 8
0
 10
0.0
 20
0.0
 30
0.0
 70
128
 71
152
 72
224
 73
230
 74
146
 0
VERTEX
 8
0
 10
0.0
 20
0.0
 30
0.0
 70
128
 71
144
 72
154
 73
148
 74
147
 0
VERTEX
 8
0
 10
0.0
 20
0.0
 30
0.0
 70
128
 71
230
 72
223
 73
110
 74
148
 0
VERTEX
 8
0
 10
0.0
 20
0.0
 30
0.0
 70
128
 71
78
 72
225
 73
224
 74
125
 0
VERTEX
 8
0
 10
0.0
 20
0.0
 30
0.0
 70
128
 71
158
 72
150
 73
145
 74
125
 0
VERTEX
 8
0
 10
0.0
 20
0.0
 30
0.0
 70
128
 71
223
 72
225
 73
128
 74
127
 0
VERTEX
 8
0
 10
0.0
 20
0.0
 30
0.0
 70
128
 71
134
 72
133
 73
87
 0
VERTEX
 8
0
 10
0.0
 20
0.0
 30
0.0
 70
128
 71
137
 72
136
 73
142
 74
131
 0
VERTEX
 8
0
 10
0.0
 20
0.0
 30
0.0
 70
128
 71
139
 72
141
 73
126
 0
VERTEX
 8
0
 10
0.0
 20
0.0
 30
0.0
 70
128
 71
144
 72
143
 73
165
 74
163
 0
VERTEX
 8
0
 10
0.0
 20
0.0
 30
0.0
 70
128
 71
146
 72
155
 73
156
 74
143
 0
VERTEX
 8
0
 10
0.0
 20
0.0
 30
0.0
 70
128
 71
160
 72
159
 73
149
 74
150
 0
VERTEX
 8
0
 10
0.0
 20
0.0
 30
0.0
 70
128
 71
151
 72
152
 73
149
 74
162
 0
VERTEX
 8
0
 10
0.0
 20
0.0
 30
0.0
 70
128
 71
152
 72
151
 73
224
 0
VERTEX
 8
0
 10
0.0
 20
0.0
 30
0.0
 70
128
 71
155
 72
146
 73
230
 0
VERTEX
 8
0
 10
0.0
 20
0.0
 30
0.0
 70
128
 71
153
 72
154
 73
144
 74
163
 0
VERTEX
 8
0
 10
0.0
 20
0.0
 30
0.0
 70
128
 71
155
 72
148
 73
154
 74
156
 0
VERTEX
 8
0
 10
0.0
 20
0.0
 30
0.0
 70
128
 71
155
 72
230
 73
148
 0
VERTEX
 8
0
 10
0.0
 20
0.0
 30
0.0
 70
128
 71
125
 72
224
 73
151
 0
VERTEX
 8
0
 10
0.0
 20
0.0
 30
0.0
 70
128
 71
158
 72
157
 73
160
 74
150
 0
VERTEX
 8
0
 10
0.0
 20
0.0
 30
0.0
 70
128
 71
162
 72
158
 73
125
 74
151
 0
VERTEX
 8
0
 10
0.0
 20
0.0
 30
0.0
 70
128
 71
169
 72
165
 73
143
 74
156
 0
VERTEX
 8
0
 10
0.0
 20
0.0
 30
0.0
 70
128
 71
167
 72
166
 73
163
 74
165
 0
VERTEX
 8
0
 10
0.0
 20
0.0
 30
0.0
 70
128
 71
159
 72
160
 73
161
 74
168
 0
VERTEX
 8
0
 10
0.0
 20
0.0
 30
0.0
 70
128
 71
162
 72
149
 73
159
 74
173
 0
VERTEX
 8
0
 10
0.0
 20
0.0
 30
0.0
 70
128
 71
156
 72
154
 73
153
 74
169
 0
VERTEX
 8
0
 10
0.0
 20
0.0
 30
0.0
 70
128
 71
166
 72
171
 73
153
 74
163
 0
VERTEX
 8
0
 10
0.0
 20
0.0
 30
0.0
 70
128
 71
173
 72
157
 73
158
 74
162
 0
VERTEX
 8
0
 10
0.0
 20
0.0
 30
0.0
 70
128
 71
164
 72
161
 73
160
 74
157
 0
VERTEX
 8
0
 10
0.0
 20
0.0
 30
0.0
 70
128
 71
165
 72
169
 73
175
 74
167
 0
VERTEX
 8
0
 10
0.0
 20
0.0
 30
0.0
 70
128
 71
176
 72
170
 73
166
 74
167
 0
VERTEX
 8
0
 10
0.0
 20
0.0
 30
0.0
 70
128
 71
168
 72
161
 73
178
 74
179
 0
VERTEX
 8
0
 10
0.0
 20
0.0
 30
0.0
 70
128
 71
173
 72
159
 73
168
 74
172
 0
VERTEX
 8
0
 10
0.0
 20
0.0
 30
0.0
 70
128
 71
169
 72
153
 73
171
 74
175
 0
VERTEX
 8
0
 10
0.0
 20
0.0
 30
0.0
 70
128
 71
170
 72
180
 73
171
 74
166
 0
VERTEX
 8
0
 10
0.0
 20
0.0
 30
0.0
 70
128
 71
172
 72
164
 73
157
 74
173
 0
VERTEX
 8
0
 10
0.0
 20
0.0
 30
0.0
 70
128
 71
174
 72
178
 73
161
 74
164
 0
VERTEX
 8
0
 10
0.0
 20
0.0
 30
0.0
 70
128
 71
167
 72
175
 73
183
 74
176
 0
VERTEX
 8
0
 10
0.0
 20
0.0
 30
0.0
 70
128
 71
177
 72
170
 73
176
 74
185
 0
VERTEX
 8
0
 10
0.0
 20
0.0
 30
0.0
 70
128
 71
178
 72
182
 73
187
 74
179
 0
VERTEX
 8
0
 10
0.0
 20
0.0
 30
0.0
 70
128
 71
172
 72
168
 73
179
 74
189
 0
VERTEX
 8
0
 10
0.0
 20
0.0
 30
0.0
 70
128
 71
175
 72
171
 73
180
 74
183
 0
VERTEX
 8
0
 10
0.0
 20
0.0
 30
0.0
 70
128
 71
177
 72
184
 73
180
 74
170
 0
VERTEX
 8
0
 10
0.0
 20
0.0
 30
0.0
 70
128
 71
189
 72
174
 73
164
 74
172
 0
VERTEX
 8
0
 10
0.0
 20
0.0
 30
0.0
 70
128
 71
181
 72
182
 73
178
 74
174
 0
VERTEX
 8
0
 10
0.0
 20
0.0
 30
0.0
 70
128
 71
176
 72
183
 73
188
 74
185
 0
VERTEX
 8
0
 10
0.0
 20
0.0
 30
0.0
 70
128
 71
188
 72
184
 73
177
 74
185
 0
VERTEX
 8
0
 10
0.0
 20
0.0
 30
0.0
 70
128
 71
187
 72
182
 73
181
 74
186
 0
VERTEX
 8
0
 10
0.0
 20
0.0
 30
0.0
 70
128
 71
189
 72
179
 73
187
 74
186
 0
VERTEX
 8
0
 10
0.0
 20
0.0
 30
0.0
 70
128
 71
180
 72
184
 73
188
 74
183
 0
VERTEX
 8
0
 10
0.0
 20
0.0
 30
0.0
 70
128
 71
181
 72
174
 73
189
 74
186
 0
VERTEX
 8
0
 10
0.0
 20
0.0
 30
0.0
 70
128
 71
220
 72
190
 73
214
 74
218
 0
VERTEX
 8
0
 10
0.0
 20
0.0
 30
0.0
 70
128
 71
190
 72
220
 73
193
 74
191
 0
VERTEX
 8
0
 10
0.0
 20
0.0
 30
0.0
 70
128
 71
192
 72
193
 73
220
 0
VERTEX
 8
0
 10
0.0
 20
0.0
 30
0.0
 70
128
 71
193
 72
208
 73
206
 74
191
 0
VERTEX
 8
0
 10
0.0
 20
0.0
 30
0.0
 70
128
 71
196
 72
190
 73
191
 0
VERTEX
 8
0
 10
0.0
 20
0.0
 30
0.0
 70
128
 71
199
 72
198
 73
193
 74
192
 0
VERTEX
 8
0
 10
0.0
 20
0.0
 30
0.0
 70
128
 71
192
 72
220
 73
219
 74
199
 0
VERTEX
 8
0
 10
0.0
 20
0.0
 30
0.0
 70
128
 71
198
 72
200
 73
208
 74
193
 0
VERTEX
 8
0
 10
0.0
 20
0.0
 30
0.0
 70
128
 71
195
 72
191
 73
206
 74
201
 0
VERTEX
 8
0
 10
0.0
 20
0.0
 30
0.0
 70
128
 71
197
 72
194
 73
190
 74
196
 0
VERTEX
 8
0
 10
0.0
 20
0.0
 30
0.0
 70
128
 71
191
 72
195
 73
197
 74
196
 0
VERTEX
 8
0
 10
0.0
 20
0.0
 30
0.0
 70
128
 71
197
 72
195
 73
198
 74
199
 0
VERTEX
 8
0
 10
0.0
 20
0.0
 30
0.0
 70
128
 71
199
 72
219
 73
194
 74
197
 0
VERTEX
 8
0
 10
0.0
 20
0.0
 30
0.0
 70
128
 71
195
 72
201
 73
200
 74
198
 0
VERTEX
 8
0
 10
0.0
 20
0.0
 30
0.0
 70
128
 71
202
 72
210
 73
200
 74
201
 0
VERTEX
 8
0
 10
0.0
 20
0.0
 30
0.0
 70
128
 71
210
 72
202
 73
203
 74
212
 0
VERTEX
 8
0
 10
0.0
 20
0.0
 30
0.0
 70
128
 71
212
 72
203
 73
204
 74
205
 0
VERTEX
 8
0
 10
0.0
 20
0.0
 30
0.0
 70
128
 71
201
 72
206
 73
207
 74
202
 0
VERTEX
 8
0
 10
0.0
 20
0.0
 30
0.0
 70
128
 71
209
 72
207
 73
206
 74
208
 0
VERTEX
 8
0
 10
0.0
 20
0.0
 30
0.0
 70
128
 71
207
 72
211
 73
203
 74
202
 0
VERTEX
 8
0
 10
0.0
 20
0.0
 30
0.0
 70
128
 71
207
 72
209
 73
213
 74
211
 0
VERTEX
 8
0
 10
0.0
 20
0.0
 30
0.0
 70
128
 71
210
 72
209
 73
208
 74
200
 0
VERTEX
 8
0
 10
0.0
 20
0.0
 30
0.0
 70
128
 71
216
 72
204
 73
203
 74
211
 0
VERTEX
 8
0
 10
0.0
 20
0.0
 30
0.0
 70
128
 71
210
 72
212
 73
213
 74
209
 0
VERTEX
 8
0
 10
0.0
 20
0.0
 30
0.0
 70
128
 71
211
 72
213
 73
218
 74
214
 0
VERTEX
 8
0
 10
0.0
 20
0.0
 30
0.0
 70
128
 71
214
 72
215
 73
204
 74
216
 0
VERTEX
 8
0
 10
0.0
 20
0.0
 30
0.0
 70
128
 71
216
 72
211
 73
214
 0
VERTEX
 8
0
 10
0.0
 20
0.0
 30
0.0
 70
128
 71
213
 72
212
 73
205
 74
217
 0
VERTEX
 8
0
 10
0.0
 20
0.0
 30
0.0
 70
128
 71
217
 72
218
 73
213
 0
VERTEX
 8
0
 10
0.0
 20
0.0
 30
0.0
 70
128
 71
194
 72
215
 73
214
 74
190
 0
VERTEX
 8
0
 10
0.0
 20
0.0
 30
0.0
 70
128
 71
221
 72
205
 73
204
 74
215
 0
VERTEX
 8
0
 10
0.0
 20
0.0
 30
0.0
 70
128
 71
217
 72
205
 73
221
 74
218
 0
VERTEX
 8
0
 10
0.0
 20
0.0
 30
0.0
 70
128
 71
221
 72
215
 73
194
 74
219
 0
VERTEX
 8
0
 10
0.0
 20
0.0
 30
0.0
 70
128
 71
219
 72
220
 73
218
 74
221
 0
VERTEX
 8
0
 10
0.0
 20
0.0
 30
0.0
 70
128
 71
222
 72
225
 73
223
 74
226
 0
VERTEX
 8
0
 10
0.0
 20
0.0
 30
0.0
 70
128
 71
229
 72
224
 73
225
 74
222
 0
VERTEX
 8
0
 10
0.0
 20
0.0
 30
0.0
 70
128
 71
230
 72
30
 73
226
 74
223
 0
VERTEX
 8
0
 10
0.0
 20
0.0
 30
0.0
 70
128
 71
228
 72
224
 73
229
 0
VERTEX
 8
0
 10
0.0
 20
0.0
 30
0.0
 70
128
 71
230
 72
227
 73
30
 0
VERTEX
 8
0
 10
0.0
 20
0.0
 30
0.0
 70
128
 71
224
 72
228
 73
234
 0
VERTEX
 8
0
 10
0.0
 20
0.0
 30
0.0
 70
128
 71
29
 72
234
 73
228
 74
229
 0
VERTEX
 8
0
 10
0.0
 20
0.0
 30
0.0
 70
128
 71
227
 72
230
 73
233
 0
VERTEX
 8
0
 10
0.0
 20
0.0
 30
0.0
 70
128
 71
30
 72
227
 73
233
 74
25
 0
VERTEX
 8
0
 10
0.0
 20
0.0
 30
0.0
 70
128
 71
230
 72
224
 73
234
 74
233
 0
VERTEX
 8
0
 10
0.0
 20
0.0
 30
0.0
 70
128
 71
38
 72
37
 73
234
 74
29
 0
VERTEX
 8
0
 10
0.0
 20
0.0
 30
0.0
 70
128
 71
25
 72
233
 73
236
 74
231
 0
VERTEX
 8
0
 10
0.0
 20
0.0
 30
0.0
 70
128
 71
232
 72
233
 73
234
 74
235
 0
VERTEX
 8
0
 10
0.0
 20
0.0
 30
0.0
 70
128
 71
235
 72
234
 73
37
 0
VERTEX
 8
0
 10
0.0
 20
0.0
 30
0.0
 70
128
 71
232
 72
236
 73
233
 0
SEQEND
 8
0
 0
ENDSEC
 0
EOF
