 0
SECTION
 2
HEADER
 9
$ACADVER
 1
AC1009
 9
$INSBASE
 10
0.0
 20
0.0
 30
0.0
 9
$EXTMIN
 10
0.0
 20
0.0
 30
0.0
 9
$EXTMAX
 10
0.0
 20
0.0
 30
0.0
 0
ENDSEC
 0
SECTION
 2
TABLES
 0
TABLE
 2
VPORT
 70
1
 0
VPORT
 2
*ACTIVE
 70
0
 10
0.0
 20
0.0
 11
1.0
 21
1.0
 12
-5.0
 22
1.0
 13
0.0
 23
0.0
 14
0.1
 24
0.1
 15
0.1
 25
0.1
 16
0.0
 26
0.0
 36
1.0
 17
0.0
 27
0.0
 37
0.0
 40
10.0
 41
1.0
 42
50.0
 43
0.0
 44
0.0
 50
0.0
 51
0.0
 71
0
 72
100
 73
1
 74
1
 75
0
 76
0
 77
0
 78
0
 0
ENDTAB
 0
TABLE
 2
LTYPE
 70
8
 0
LTYPE
 2
CONTINUOUS
 70
0
 3
Solid line
 72
65
 73
0
 40
0.0
 0
LTYPE
 2
DOT
 70
0
 3
. . . . . . .
 72
65
 73
2
 40
0.25
 49
0.0
 49
-0.25
 0
LTYPE
 2
DASHED
 70
0
 3
__ __ __ __ __
 72
65
 73
2
 40
0.8
 49
0.5
 49
-0.3
 0
LTYPE
 2
DASHDOT
 70
0
 3
__ . __ . __ .
 72
65
 73
4
 40
1.0
 49
0.5
 49
-0.25
 49
0.0
 49
-0.25
 0
LTYPE
 2
DIVIDE
 70
0
 3
____ . . ____ . . 
 72
65
 73
6
 40
1.25
 49
0.5
 49
-0.25
 49
0.0
 49
-0.25
 49
0.0
 49
-0.25
 0
LTYPE
 2
BORDER
 70
0
 3
__ __ . __ __ . 
 72
65
 73
6
 40
1.75
 49
0.5
 49
-0.25
 49
0.5
 49
-0.25
 49
0.0
 49
-0.25
 0
LTYPE
 2
HIDDEN
 70
0
 3
__ __ __ __ __
 72
65
 73
2
 40
0.4
 49
0.25
 49
-0.25
 0
LTYPE
 2
CENTER
 70
0
 3
____ _ ____ _ __
 72
65
 73
4
 40
2.0
 49
1.25
 49
-0.25
 49
0.25
 49
-0.25
 0
ENDTAB
 0
TABLE
 2
LAYER
 70
1
 0
LAYER
 2
PYDXF
 70
64
 62
7
 6
continuous
 0
ENDTAB
 0
TABLE
 2
STYLE
 70
1
 0
STYLE
 2
STANDARD
 70
0
 40
0
 41
1.0
 50
0.0
 71
0
 42
1
 3
ARIAL.TTF
 4

 0
ENDTAB
 0
TABLE
 2
VIEW
 70
1
 0
VIEW
 2
BF_TOPVIEW
 70
0
 40
120.0
 10
0.0
 20
0.0
 41
200.0
 11
0.0
 21
0.0
 31
1.0
 12
0.0
 22
0.0
 32
0.0
 42
50.0
 43
0.0
 44
0.0
 50
0.0
 71
0
 0
ENDTAB
 0
ENDSEC
 0
SECTION
 2
BLOCKS
 0
ENDSEC
 0
SECTION
 2
ENTITIES
 0
POLYLINE
 8
0
 70
64
 66
1
 10
0.0
 20
0.0
 30
0.0
 71
581
 72
663
 0
VERTEX
 8
0
 10
-0.335
 20
-0.25
 30
2.915
 70
192
 0
VERTEX
 8
0
 10
-0.335
 20
-0.25
 30
2.925
 70
192
 0
VERTEX
 8
0
 10
-0.315
 20
-0.37
 30
2.895
 70
192
 0
VERTEX
 8
0
 10
-0.305
 20
-0.25
 30
2.895
 70
192
 0
VERTEX
 8
0
 10
-0.315
 20
-0.25
 30
2.895
 70
192
 0
VERTEX
 8
0
 10
-0.335
 20
-0.39
 30
2.925
 70
192
 0
VERTEX
 8
0
 10
-0.395
 20
-0.25
 30
2.985
 70
192
 0
VERTEX
 8
0
 10
1.245
 20
-0.39
 30
2.915
 70
192
 0
VERTEX
 8
0
 10
1.225
 20
-0.25
 30
2.895
 70
192
 0
VERTEX
 8
0
 10
1.225
 20
-0.37
 30
2.895
 70
192
 0
VERTEX
 8
0
 10
1.215
 20
-0.25
 30
2.895
 70
192
 0
VERTEX
 8
0
 10
1.245
 20
-0.25
 30
2.915
 70
192
 0
VERTEX
 8
0
 10
1.195
 20
-0.25
 30
2.875
 70
192
 0
VERTEX
 8
0
 10
-0.305
 20
-0.36
 30
2.895
 70
192
 0
VERTEX
 8
0
 10
-0.335
 20
-0.39
 30
2.915
 70
192
 0
VERTEX
 8
0
 10
-0.395
 20
-0.25
 30
2.925
 70
192
 0
VERTEX
 8
0
 10
1.305
 20
-0.25
 30
2.925
 70
192
 0
VERTEX
 8
0
 10
1.245
 20
-0.39
 30
2.925
 70
192
 0
VERTEX
 8
0
 10
1.245
 20
-0.25
 30
2.925
 70
192
 0
VERTEX
 8
0
 10
1.215
 20
-0.36
 30
2.895
 70
192
 0
VERTEX
 8
0
 10
1.215
 20
-0.36
 30
2.885
 70
192
 0
VERTEX
 8
0
 10
1.215
 20
-0.25
 30
2.885
 70
192
 0
VERTEX
 8
0
 10
-0.305
 20
-0.25
 30
2.885
 70
192
 0
VERTEX
 8
0
 10
-0.295
 20
-0.35
 30
2.885
 70
192
 0
VERTEX
 8
0
 10
-0.295
 20
-0.25
 30
2.885
 70
192
 0
VERTEX
 8
0
 10
-0.285
 20
-0.34
 30
2.875
 70
192
 0
VERTEX
 8
0
 10
1.205
 20
-0.25
 30
2.885
 70
192
 0
VERTEX
 8
0
 10
1.185
 20
-0.25
 30
2.865
 70
192
 0
VERTEX
 8
0
 10
-0.305
 20
-0.36
 30
2.885
 70
192
 0
VERTEX
 8
0
 10
-0.395
 20
-0.45
 30
2.985
 70
192
 0
VERTEX
 8
0
 10
1.305
 20
-0.25
 30
2.985
 70
192
 0
VERTEX
 8
0
 10
-0.285
 20
-0.25
 30
2.875
 70
192
 0
VERTEX
 8
0
 10
1.205
 20
-0.35
 30
2.885
 70
192
 0
VERTEX
 8
0
 10
1.195
 20
-0.34
 30
2.875
 70
192
 0
VERTEX
 8
0
 10
1.195
 20
-0.34
 30
2.865
 70
192
 0
VERTEX
 8
0
 10
1.195
 20
-0.25
 30
2.865
 70
192
 0
VERTEX
 8
0
 10
-0.275
 20
-0.25
 30
2.675
 70
192
 0
VERTEX
 8
0
 10
-0.395
 20
-0.45
 30
2.925
 70
192
 0
VERTEX
 8
0
 10
1.305
 20
-0.45
 30
2.925
 70
192
 0
VERTEX
 8
0
 10
1.305
 20
-0.45
 30
2.985
 70
192
 0
VERTEX
 8
0
 10
-0.405
 20
-0.46
 30
2.995
 70
192
 0
VERTEX
 8
0
 10
-0.405
 20
-0.25
 30
2.995
 70
192
 0
VERTEX
 8
0
 10
-0.405
 20
-0.25
 30
2.985
 70
192
 0
VERTEX
 8
0
 10
-0.425
 20
-0.25
 30
3.015
 70
192
 0
VERTEX
 8
0
 10
1.315
 20
-0.46
 30
2.985
 70
192
 0
VERTEX
 8
0
 10
1.315
 20
-0.25
 30
2.995
 70
192
 0
VERTEX
 8
0
 10
1.315
 20
-0.25
 30
2.985
 70
192
 0
VERTEX
 8
0
 10
-0.285
 20
-0.34
 30
2.865
 70
192
 0
VERTEX
 8
0
 10
-0.285
 20
-0.25
 30
2.865
 70
192
 0
VERTEX
 8
0
 10
-0.275
 20
-0.33
 30
2.675
 70
192
 0
VERTEX
 8
0
 10
-0.275
 20
-0.25
 30
2.865
 70
192
 0
VERTEX
 8
0
 10
1.185
 20
-0.33
 30
2.865
 70
192
 0
VERTEX
 8
0
 10
1.185
 20
-0.33
 30
2.675
 70
192
 0
VERTEX
 8
0
 10
1.185
 20
-0.25
 30
2.675
 70
192
 0
VERTEX
 8
0
 10
1.185
 20
-0.25
 30
2.665
 70
192
 0
VERTEX
 8
0
 10
-0.405
 20
-0.46
 30
2.985
 70
192
 0
VERTEX
 8
0
 10
-0.415
 20
-0.25
 30
3.005
 70
192
 0
VERTEX
 8
0
 10
-0.415
 20
-0.47
 30
3.005
 70
192
 0
VERTEX
 8
0
 10
1.315
 20
-0.46
 30
2.995
 70
192
 0
VERTEX
 8
0
 10
-0.425
 20
-0.25
 30
3.005
 70
192
 0
VERTEX
 8
0
 10
1.355
 20
-0.25
 30
3.046
 70
192
 0
VERTEX
 8
0
 10
1.335
 20
-0.25
 30
3.005
 70
192
 0
VERTEX
 8
0
 10
1.325
 20
-0.47
 30
3.005
 70
192
 0
VERTEX
 8
0
 10
1.325
 20
-0.25
 30
3.005
 70
192
 0
VERTEX
 8
0
 10
-0.275
 20
-0.33
 30
2.865
 70
192
 0
VERTEX
 8
0
 10
-0.285
 20
-0.34
 30
2.675
 70
192
 0
VERTEX
 8
0
 10
-0.285
 20
-0.25
 30
2.675
 70
192
 0
VERTEX
 8
0
 10
1.195
 20
-0.25
 30
2.675
 70
192
 0
VERTEX
 8
0
 10
1.195
 20
-0.25
 30
2.665
 70
192
 0
VERTEX
 8
0
 10
-0.473
 20
-0.25
 30
3.056
 70
192
 0
VERTEX
 8
0
 10
1.195
 20
-0.34
 30
2.665
 70
192
 0
VERTEX
 8
0
 10
-0.285
 20
-0.25
 30
2.665
 70
192
 0
VERTEX
 8
0
 10
-0.275
 20
-0.25
 30
2.5750010013580322
 70
192
 0
VERTEX
 8
0
 10
-0.015
 20
-0.33
 30
2.5750010013580322
 70
192
 0
VERTEX
 8
0
 10
-0.015
 20
-0.25
 30
2.5750010013580322
 70
192
 0
VERTEX
 8
0
 10
0.925
 20
-0.33
 30
2.5750010013580322
 70
192
 0
VERTEX
 8
0
 10
-0.435
 20
-0.25
 30
3.021
 70
192
 0
VERTEX
 8
0
 10
-0.425
 20
-0.48
 30
3.015
 70
192
 0
VERTEX
 8
0
 10
-0.425
 20
-0.48
 30
3.005
 70
192
 0
VERTEX
 8
0
 10
1.335
 20
-0.48
 30
3.005
 70
192
 0
VERTEX
 8
0
 10
1.335
 20
-0.48
 30
3.015
 70
192
 0
VERTEX
 8
0
 10
-0.445
 20
-0.25
 30
3.046
 70
192
 0
VERTEX
 8
0
 10
-0.435
 20
-0.49
 30
3.021
 70
192
 0
VERTEX
 8
0
 10
-0.445
 20
-0.5
 30
3.046
 70
192
 0
VERTEX
 8
0
 10
1.383
 20
-0.25
 30
3.056
 70
192
 0
VERTEX
 8
0
 10
1.345
 20
-0.25
 30
3.021
 70
192
 0
VERTEX
 8
0
 10
1.335
 20
-0.25
 30
3.015
 70
192
 0
VERTEX
 8
0
 10
1.345
 20
-0.49
 30
3.021
 70
192
 0
VERTEX
 8
0
 10
-0.285
 20
-0.34
 30
2.665
 70
192
 0
VERTEX
 8
0
 10
1.195
 20
-0.34
 30
2.675
 70
192
 0
VERTEX
 8
0
 10
-0.275
 20
-0.33
 30
2.5750010013580322
 70
192
 0
VERTEX
 8
0
 10
-0.275
 20
-0.33
 30
2.665
 70
192
 0
VERTEX
 8
0
 10
-0.275
 20
-0.25
 30
2.665
 70
192
 0
VERTEX
 8
0
 10
1.185
 20
-0.33
 30
2.5750010013580322
 70
192
 0
VERTEX
 8
0
 10
-0.025
 20
-0.25
 30
2.5650010108947754
 70
192
 0
VERTEX
 8
0
 10
-0.315
 20
-0.25
 30
2.5650010108947754
 70
192
 0
VERTEX
 8
0
 10
1.225
 20
-0.25
 30
2.5650010108947754
 70
192
 0
VERTEX
 8
0
 10
0.935
 20
-0.25
 30
2.5650010108947754
 70
192
 0
VERTEX
 8
0
 10
0.925
 20
-0.25
 30
2.5750010013580322
 70
192
 0
VERTEX
 8
0
 10
1.185
 20
-0.33
 30
2.665
 70
192
 0
VERTEX
 8
0
 10
-0.473
 20
-0.528
 30
3.066
 70
192
 0
VERTEX
 8
0
 10
-0.473
 20
-0.25
 30
3.066
 70
192
 0
VERTEX
 8
0
 10
1.383
 20
-0.528
 30
3.056
 70
192
 0
VERTEX
 8
0
 10
1.355
 20
-0.5
 30
3.046
 70
192
 0
VERTEX
 8
0
 10
-0.325
 20
-0.25
 30
2.5750010013580322
 70
192
 0
VERTEX
 8
0
 10
-0.325
 20
-0.38
 30
2.5750010013580322
 70
192
 0
VERTEX
 8
0
 10
1.185
 20
-0.25
 30
2.5750010013580322
 70
192
 0
VERTEX
 8
0
 10
1.235
 20
-0.38
 30
2.5750010013580322
 70
192
 0
VERTEX
 8
0
 10
1.235
 20
-0.25
 30
2.5650010108947754
 70
192
 0
VERTEX
 8
0
 10
-0.015
 20
-0.38
 30
2.5750010013580322
 70
192
 0
VERTEX
 8
0
 10
-0.473
 20
-0.528
 30
3.056
 70
192
 0
VERTEX
 8
0
 10
1.383
 20
-0.25
 30
3.066
 70
192
 0
VERTEX
 8
0
 10
1.383
 20
-0.528
 30
3.066
 70
192
 0
VERTEX
 8
0
 10
-0.325
 20
-0.25
 30
2.5650010108947754
 70
192
 0
VERTEX
 8
0
 10
1.235
 20
-0.25
 30
2.5750010013580322
 70
192
 0
VERTEX
 8
0
 10
-0.015
 20
-0.25
 30
2.5650010108947754
 70
192
 0
VERTEX
 8
0
 10
-0.315
 20
-0.25
 30
2.535
 70
192
 0
VERTEX
 8
0
 10
1.225
 20
-0.25
 30
2.535
 70
192
 0
VERTEX
 8
0
 10
0.925
 20
-0.25
 30
2.5650010108947754
 70
192
 0
VERTEX
 8
0
 10
0.925
 20
-0.38
 30
2.5650010108947754
 70
192
 0
VERTEX
 8
0
 10
-0.015
 20
-0.38
 30
2.5650010108947754
 70
192
 0
VERTEX
 8
0
 10
-0.325
 20
-0.38
 30
2.5650010108947754
 70
192
 0
VERTEX
 8
0
 10
0.925
 20
-0.38
 30
2.5750010013580322
 70
192
 0
VERTEX
 8
0
 10
1.235
 20
-0.38
 30
2.5650010108947754
 70
192
 0
VERTEX
 8
0
 10
-0.025
 20
-0.25
 30
2.535
 70
192
 0
VERTEX
 8
0
 10
-0.025
 20
-0.37
 30
2.535
 70
192
 0
VERTEX
 8
0
 10
-0.035
 20
-0.25
 30
2.535
 70
192
 0
VERTEX
 8
0
 10
-0.305
 20
-0.25
 30
2.525
 70
192
 0
VERTEX
 8
0
 10
-0.035
 20
-0.36
 30
2.535
 70
192
 0
VERTEX
 8
0
 10
-0.305
 20
-0.25
 30
2.535
 70
192
 0
VERTEX
 8
0
 10
-0.315
 20
-0.37
 30
2.535
 70
192
 0
VERTEX
 8
0
 10
1.225
 20
-0.37
 30
2.535
 70
192
 0
VERTEX
 8
0
 10
0.945
 20
-0.25
 30
2.535
 70
192
 0
VERTEX
 8
0
 10
0.935
 20
-0.25
 30
2.535
 70
192
 0
VERTEX
 8
0
 10
1.215
 20
-0.25
 30
2.535
 70
192
 0
VERTEX
 8
0
 10
1.215
 20
-0.36
 30
2.535
 70
192
 0
VERTEX
 8
0
 10
0.945
 20
-0.25
 30
2.525
 70
192
 0
VERTEX
 8
0
 10
0.945
 20
-0.36
 30
2.535
 70
192
 0
VERTEX
 8
0
 10
-0.025
 20
-0.37
 30
2.5650010108947754
 70
192
 0
VERTEX
 8
0
 10
-0.315
 20
-0.37
 30
2.5650010108947754
 70
192
 0
VERTEX
 8
0
 10
-0.285
 20
-0.34
 30
2.505
 70
192
 0
VERTEX
 8
0
 10
-0.035
 20
-0.36
 30
2.525
 70
192
 0
VERTEX
 8
0
 10
-0.305
 20
-0.36
 30
2.535
 70
192
 0
VERTEX
 8
0
 10
-0.055
 20
-0.25
 30
2.505
 70
192
 0
VERTEX
 8
0
 10
-0.035
 20
-0.25
 30
2.525
 70
192
 0
VERTEX
 8
0
 10
0.935
 20
-0.37
 30
2.5650010108947754
 70
192
 0
VERTEX
 8
0
 10
0.935
 20
-0.37
 30
2.535
 70
192
 0
VERTEX
 8
0
 10
1.225
 20
-0.37
 30
2.5650010108947754
 70
192
 0
VERTEX
 8
0
 10
1.195
 20
-0.25
 30
2.505
 70
192
 0
VERTEX
 8
0
 10
1.215
 20
-0.25
 30
2.525
 70
192
 0
VERTEX
 8
0
 10
1.215
 20
-0.36
 30
2.525
 70
192
 0
VERTEX
 8
0
 10
0.965
 20
-0.25
 30
2.505
 70
192
 0
VERTEX
 8
0
 10
-0.285
 20
-0.25
 30
2.505
 70
192
 0
VERTEX
 8
0
 10
-0.285
 20
-0.25
 30
2.495
 70
192
 0
VERTEX
 8
0
 10
-0.305
 20
-0.36
 30
2.525
 70
192
 0
VERTEX
 8
0
 10
-0.055
 20
-0.34
 30
2.505
 70
192
 0
VERTEX
 8
0
 10
-0.275
 20
-0.25
 30
2.405
 70
192
 0
VERTEX
 8
0
 10
-0.055
 20
-0.25
 30
2.495
 70
192
 0
VERTEX
 8
0
 10
0.945
 20
-0.36
 30
2.525
 70
192
 0
VERTEX
 8
0
 10
1.195
 20
-0.34
 30
2.505
 70
192
 0
VERTEX
 8
0
 10
1.195
 20
-0.34
 30
2.495
 70
192
 0
VERTEX
 8
0
 10
-0.285
 20
-0.34
 30
2.495
 70
192
 0
VERTEX
 8
0
 10
-0.055
 20
-0.34
 30
2.495
 70
192
 0
VERTEX
 8
0
 10
-0.275
 20
-0.25
 30
2.495
 70
192
 0
VERTEX
 8
0
 10
-0.275
 20
-0.33
 30
2.405
 70
192
 0
VERTEX
 8
0
 10
-0.065
 20
-0.25
 30
2.495
 70
192
 0
VERTEX
 8
0
 10
0.965
 20
-0.34
 30
2.505
 70
192
 0
VERTEX
 8
0
 10
1.185
 20
-0.33
 30
2.495
 70
192
 0
VERTEX
 8
0
 10
1.195
 20
-0.25
 30
2.495
 70
192
 0
VERTEX
 8
0
 10
1.185
 20
-0.25
 30
2.405
 70
192
 0
VERTEX
 8
0
 10
1.185
 20
-0.25
 30
2.495
 70
192
 0
VERTEX
 8
0
 10
0.965
 20
-0.34
 30
2.495
 70
192
 0
VERTEX
 8
0
 10
0.965
 20
-0.25
 30
2.495
 70
192
 0
VERTEX
 8
0
 10
0.975
 20
-0.25
 30
2.495
 70
192
 0
VERTEX
 8
0
 10
-0.275
 20
-0.33
 30
2.495
 70
192
 0
VERTEX
 8
0
 10
-0.065
 20
-0.33
 30
2.405
 70
192
 0
VERTEX
 8
0
 10
-0.065
 20
-0.33
 30
2.495
 70
192
 0
VERTEX
 8
0
 10
-0.065
 20
-0.25
 30
2.405
 70
192
 0
VERTEX
 8
0
 10
-0.285
 20
-0.25
 30
2.405
 70
192
 0
VERTEX
 8
0
 10
-0.055
 20
-0.25
 30
2.405
 70
192
 0
VERTEX
 8
0
 10
-0.045
 20
-0.25
 30
0.13
 70
192
 0
VERTEX
 8
0
 10
1.185
 20
-0.33
 30
2.405
 70
192
 0
VERTEX
 8
0
 10
0.975
 20
-0.33
 30
2.495
 70
192
 0
VERTEX
 8
0
 10
1.195
 20
-0.25
 30
2.405
 70
192
 0
VERTEX
 8
0
 10
0.965
 20
-0.34
 30
2.405
 70
192
 0
VERTEX
 8
0
 10
0.975
 20
-0.33
 30
2.405
 70
192
 0
VERTEX
 8
0
 10
0.975
 20
-0.25
 30
2.405
 70
192
 0
VERTEX
 8
0
 10
0.965
 20
-0.25
 30
2.405
 70
192
 0
VERTEX
 8
0
 10
-0.285
 20
-0.34
 30
2.405
 70
192
 0
VERTEX
 8
0
 10
-0.055
 20
-0.25
 30
2.395
 70
192
 0
VERTEX
 8
0
 10
-0.055
 20
-0.34
 30
2.405
 70
192
 0
VERTEX
 8
0
 10
-0.055
 20
-0.34
 30
2.395
 70
192
 0
VERTEX
 8
0
 10
-0.285
 20
-0.25
 30
2.395
 70
192
 0
VERTEX
 8
0
 10
-0.275
 20
-0.25
 30
2.395
 70
192
 0
VERTEX
 8
0
 10
-0.065
 20
-0.33
 30
2.395
 70
192
 0
VERTEX
 8
0
 10
-0.275
 20
-0.33
 30
2.395
 70
192
 0
VERTEX
 8
0
 10
-0.065
 20
-0.25
 30
2.395
 70
192
 0
VERTEX
 8
0
 10
-0.035
 20
-0.25
 30
0.12
 70
192
 0
VERTEX
 8
0
 10
1.195
 20
-0.25
 30
2.395
 70
192
 0
VERTEX
 8
0
 10
1.195
 20
-0.34
 30
2.405
 70
192
 0
VERTEX
 8
0
 10
1.195
 20
-0.34
 30
2.395
 70
192
 0
VERTEX
 8
0
 10
1.185
 20
-0.33
 30
2.395
 70
192
 0
VERTEX
 8
0
 10
1.205
 20
-0.25
 30
0.13
 70
192
 0
VERTEX
 8
0
 10
1.185
 20
-0.25
 30
2.395
 70
192
 0
VERTEX
 8
0
 10
1.215
 20
-0.25
 30
0.12
 70
192
 0
VERTEX
 8
0
 10
0.975
 20
-0.25
 30
2.395
 70
192
 0
VERTEX
 8
0
 10
0.975
 20
-0.33
 30
2.395
 70
192
 0
VERTEX
 8
0
 10
0.965
 20
-0.25
 30
2.395
 70
192
 0
VERTEX
 8
0
 10
0.965
 20
-0.34
 30
2.395
 70
192
 0
VERTEX
 8
0
 10
-0.285
 20
-0.34
 30
2.395
 70
192
 0
VERTEX
 8
0
 10
-0.295
 20
-0.25
 30
0.13
 70
192
 0
VERTEX
 8
0
 10
-0.305
 20
-0.25
 30
0.13
 70
192
 0
VERTEX
 8
0
 10
-0.295
 20
-0.35
 30
0.13
 70
192
 0
VERTEX
 8
0
 10
-0.035
 20
-0.25
 30
0.13
 70
192
 0
VERTEX
 8
0
 10
-0.045
 20
-0.35
 30
0.13
 70
192
 0
VERTEX
 8
0
 10
-0.035
 20
-0.36
 30
0.13
 70
192
 0
VERTEX
 8
0
 10
1.205
 20
-0.35
 30
0.13
 70
192
 0
VERTEX
 8
0
 10
0.955
 20
-0.35
 30
0.13
 70
192
 0
VERTEX
 8
0
 10
1.215
 20
-0.25
 30
0.13
 70
192
 0
VERTEX
 8
0
 10
0.925
 20
-0.25
 30
0.1
 70
192
 0
VERTEX
 8
0
 10
0.945
 20
-0.25
 30
0.13
 70
192
 0
VERTEX
 8
0
 10
0.955
 20
-0.25
 30
0.13
 70
192
 0
VERTEX
 8
0
 10
-0.305
 20
-0.36
 30
0.13
 70
192
 0
VERTEX
 8
0
 10
-0.305
 20
-0.25
 30
0.12
 70
192
 0
VERTEX
 8
0
 10
-0.325
 20
-0.25
 30
0.1
 70
192
 0
VERTEX
 8
0
 10
-0.325
 20
-0.38
 30
0.1
 70
192
 0
VERTEX
 8
0
 10
-0.015
 20
-0.38
 30
0.1
 70
192
 0
VERTEX
 8
0
 10
1.215
 20
-0.36
 30
0.12
 70
192
 0
VERTEX
 8
0
 10
0.925
 20
-0.25
 30
0.08
 70
192
 0
VERTEX
 8
0
 10
0.945
 20
-0.25
 30
0.12
 70
192
 0
VERTEX
 8
0
 10
0.945
 20
-0.36
 30
0.13
 70
192
 0
VERTEX
 8
0
 10
-0.305
 20
-0.36
 30
0.12
 70
192
 0
VERTEX
 8
0
 10
-0.035
 20
-0.36
 30
0.12
 70
192
 0
VERTEX
 8
0
 10
-0.015
 20
-0.25
 30
0.1
 70
192
 0
VERTEX
 8
0
 10
-0.025
 20
-0.25
 30
0.07
 70
192
 0
VERTEX
 8
0
 10
0.945
 20
-0.36
 30
0.12
 70
192
 0
VERTEX
 8
0
 10
1.215
 20
-0.36
 30
0.13
 70
192
 0
VERTEX
 8
0
 10
1.235
 20
-0.25
 30
0.1
 70
192
 0
VERTEX
 8
0
 10
0.935
 20
-0.25
 30
0.07
 70
192
 0
VERTEX
 8
0
 10
0.925
 20
-0.38
 30
0.1
 70
192
 0
VERTEX
 8
0
 10
-0.325
 20
-0.25
 30
0.08
 70
192
 0
VERTEX
 8
0
 10
-0.315
 20
-0.37
 30
0.07
 70
192
 0
VERTEX
 8
0
 10
-0.325
 20
-0.38
 30
0.08
 70
192
 0
VERTEX
 8
0
 10
-0.015
 20
-0.25
 30
0.08
 70
192
 0
VERTEX
 8
0
 10
0.925
 20
-0.38
 30
0.08
 70
192
 0
VERTEX
 8
0
 10
1.235
 20
-0.38
 30
0.1
 70
192
 0
VERTEX
 8
0
 10
1.235
 20
-0.25
 30
0.08
 70
192
 0
VERTEX
 8
0
 10
1.235
 20
-0.38
 30
0.08
 70
192
 0
VERTEX
 8
0
 10
1.235
 20
-0.25
 30
0.0
 70
192
 0
VERTEX
 8
0
 10
0.935
 20
-0.37
 30
0.07
 70
192
 0
VERTEX
 8
0
 10
-0.315
 20
-0.25
 30
0.07
 70
192
 0
VERTEX
 8
0
 10
-0.015
 20
-0.38
 30
0.08
 70
192
 0
VERTEX
 8
0
 10
-0.025
 20
-0.37
 30
0.07
 70
192
 0
VERTEX
 8
0
 10
-0.015
 20
-0.38
 30
0.07
 70
192
 0
VERTEX
 8
0
 10
-0.015
 20
-0.25
 30
0.07
 70
192
 0
VERTEX
 8
0
 10
-0.325
 20
-0.25
 30
0.0
 70
192
 0
VERTEX
 8
0
 10
-0.015
 20
-0.25
 30
0.0
 70
192
 0
VERTEX
 8
0
 10
1.225
 20
-0.37
 30
0.07
 70
192
 0
VERTEX
 8
0
 10
1.235
 20
-0.25
 30
0.07
 70
192
 0
VERTEX
 8
0
 10
1.225
 20
-0.25
 30
0.07
 70
192
 0
VERTEX
 8
0
 10
0.925
 20
-0.38
 30
0.0
 70
192
 0
VERTEX
 8
0
 10
0.925
 20
-0.25
 30
0.0
 70
192
 0
VERTEX
 8
0
 10
0.925
 20
-0.25
 30
0.07
 70
192
 0
VERTEX
 8
0
 10
-0.325
 20
-0.25
 30
0.07
 70
192
 0
VERTEX
 8
0
 10
-0.325
 20
-0.38
 30
0.0
 70
192
 0
VERTEX
 8
0
 10
-0.015
 20
-0.38
 30
0.0
 70
192
 0
VERTEX
 8
0
 10
-0.325
 20
-0.38
 30
0.07
 70
192
 0
VERTEX
 8
0
 10
1.235
 20
-0.38
 30
0.07
 70
192
 0
VERTEX
 8
0
 10
1.235
 20
-0.38
 30
0.0
 70
192
 0
VERTEX
 8
0
 10
0.925
 20
-0.38
 30
0.07
 70
192
 0
VERTEX
 8
0
 10
0.9
 20
-0.02
 30
0.025
 70
192
 0
VERTEX
 8
0
 10
0.0
 20
-0.02
 30
0.0
 70
192
 0
VERTEX
 8
0
 10
0.01
 20
-0.02
 30
0.025
 70
192
 0
VERTEX
 8
0
 10
0.01
 20
-0.072
 30
0.025
 70
192
 0
VERTEX
 8
0
 10
0.9
 20
-0.072
 30
0.025
 70
192
 0
VERTEX
 8
0
 10
0.885
 20
-0.072
 30
0.025
 70
192
 0
VERTEX
 8
0
 10
0.91
 20
-0.02
 30
0.0
 70
192
 0
VERTEX
 8
0
 10
0.025
 20
-0.072
 30
2.055
 70
192
 0
VERTEX
 8
0
 10
0.01
 20
-0.072
 30
2.07
 70
192
 0
VERTEX
 8
0
 10
0.9
 20
-0.072
 30
2.07
 70
192
 0
VERTEX
 8
0
 10
0.9
 20
-0.02
 30
2.07
 70
192
 0
VERTEX
 8
0
 10
0.455
 20
-0.072
 30
2.055
 70
192
 0
VERTEX
 8
0
 10
0.455
 20
-0.072
 30
2.07
 70
192
 0
VERTEX
 8
0
 10
0.455
 20
-0.02
 30
2.08
 70
192
 0
VERTEX
 8
0
 10
0.455
 20
-0.02
 30
2.07
 70
192
 0
VERTEX
 8
0
 10
0.01
 20
-0.02
 30
2.07
 70
192
 0
VERTEX
 8
0
 10
0.455
 20
-0.02
 30
2.105
 70
192
 0
VERTEX
 8
0
 10
0.455
 20
-0.04
 30
2.105
 70
192
 0
VERTEX
 8
0
 10
0.885
 20
-0.04
 30
2.105
 70
192
 0
VERTEX
 8
0
 10
0.025
 20
-0.04
 30
2.105
 70
192
 0
VERTEX
 8
0
 10
0.025
 20
-0.02
 30
2.105
 70
192
 0
VERTEX
 8
0
 10
0.0
 20
-0.02
 30
2.08
 70
192
 0
VERTEX
 8
0
 10
0.0
 20
-0.02
 30
2.5450010299682617
 70
192
 0
VERTEX
 8
0
 10
0.885
 20
-0.02
 30
2.105
 70
192
 0
VERTEX
 8
0
 10
0.455
 20
-0.02
 30
2.52
 70
192
 0
VERTEX
 8
0
 10
0.025
 20
-0.04
 30
2.52
 70
192
 0
VERTEX
 8
0
 10
0.025
 20
-0.02
 30
2.52
 70
192
 0
VERTEX
 8
0
 10
0.885
 20
-0.04
 30
2.52
 70
192
 0
VERTEX
 8
0
 10
0.885
 20
-0.02
 30
2.52
 70
192
 0
VERTEX
 8
0
 10
0.0
 20
-0.15
 30
2.08
 70
192
 0
VERTEX
 8
0
 10
0.0
 20
-0.15
 30
2.5450010299682617
 70
192
 0
VERTEX
 8
0
 10
0.0
 20
-0.15
 30
0.0
 70
192
 0
VERTEX
 8
0
 10
0.91
 20
-0.15
 30
0.0
 70
192
 0
VERTEX
 8
0
 10
0.91
 20
-0.02
 30
2.08
 70
192
 0
VERTEX
 8
0
 10
0.01
 20
-0.15
 30
2.08
 70
192
 0
VERTEX
 8
0
 10
0.455
 20
-0.15
 30
2.5450010299682617
 70
192
 0
VERTEX
 8
0
 10
0.455
 20
-0.02
 30
2.5450010299682617
 70
192
 0
VERTEX
 8
0
 10
0.01
 20
-0.15
 30
0.025
 70
192
 0
VERTEX
 8
0
 10
0.9
 20
-0.15
 30
0.025
 70
192
 0
VERTEX
 8
0
 10
0.885
 20
-0.1
 30
0.025
 70
192
 0
VERTEX
 8
0
 10
0.91
 20
-0.02
 30
2.5450010299682617
 70
192
 0
VERTEX
 8
0
 10
0.025
 20
-0.1
 30
0.025
 70
192
 0
VERTEX
 8
0
 10
0.025
 20
-0.1
 30
2.055
 70
192
 0
VERTEX
 8
0
 10
0.01
 20
-0.1
 30
2.055
 70
192
 0
VERTEX
 8
0
 10
0.01
 20
-0.1
 30
0.025
 70
192
 0
VERTEX
 8
0
 10
0.01
 20
-0.1
 30
2.105
 70
192
 0
VERTEX
 8
0
 10
0.9
 20
-0.1
 30
2.055
 70
192
 0
VERTEX
 8
0
 10
0.9
 20
-0.15
 30
2.535
 70
192
 0
VERTEX
 8
0
 10
0.9
 20
-0.15
 30
2.08
 70
192
 0
VERTEX
 8
0
 10
0.91
 20
-0.15
 30
2.08
 70
192
 0
VERTEX
 8
0
 10
0.91
 20
-0.15
 30
2.5450010299682617
 70
192
 0
VERTEX
 8
0
 10
0.9
 20
-0.1
 30
0.025
 70
192
 0
VERTEX
 8
0
 10
0.025
 20
-0.072
 30
0.025
 70
192
 0
VERTEX
 8
0
 10
0.01
 20
-0.1
 30
2.535
 70
192
 0
VERTEX
 8
0
 10
0.455
 20
-0.1
 30
2.535
 70
192
 0
VERTEX
 8
0
 10
0.455
 20
-0.15
 30
2.535
 70
192
 0
VERTEX
 8
0
 10
0.01
 20
-0.15
 30
2.535
 70
192
 0
VERTEX
 8
0
 10
0.9
 20
-0.1
 30
2.105
 70
192
 0
VERTEX
 8
0
 10
0.885
 20
-0.1
 30
2.055
 70
192
 0
VERTEX
 8
0
 10
0.455
 20
-0.1
 30
2.055
 70
192
 0
VERTEX
 8
0
 10
0.025
 20
-0.1
 30
2.105
 70
192
 0
VERTEX
 8
0
 10
0.885
 20
-0.072
 30
2.055
 70
192
 0
VERTEX
 8
0
 10
0.9
 20
-0.1
 30
2.535
 70
192
 0
VERTEX
 8
0
 10
0.455
 20
-0.1
 30
2.105
 70
192
 0
VERTEX
 8
0
 10
0.455
 20
-0.07
 30
2.105
 70
192
 0
VERTEX
 8
0
 10
0.025
 20
-0.07
 30
2.105
 70
192
 0
VERTEX
 8
0
 10
0.035
 20
-0.07
 30
2.115
 70
192
 0
VERTEX
 8
0
 10
0.025
 20
-0.07
 30
2.52
 70
192
 0
VERTEX
 8
0
 10
0.455
 20
-0.07
 30
2.52
 70
192
 0
VERTEX
 8
0
 10
0.455
 20
-0.1
 30
2.52
 70
192
 0
VERTEX
 8
0
 10
0.025
 20
-0.1
 30
2.52
 70
192
 0
VERTEX
 8
0
 10
0.885
 20
-0.1
 30
2.105
 70
192
 0
VERTEX
 8
0
 10
0.885
 20
-0.07
 30
2.52
 70
192
 0
VERTEX
 8
0
 10
0.885
 20
-0.07
 30
2.105
 70
192
 0
VERTEX
 8
0
 10
0.035
 20
-0.04
 30
2.51
 70
192
 0
VERTEX
 8
0
 10
0.035
 20
-0.07
 30
2.51
 70
192
 0
VERTEX
 8
0
 10
0.035
 20
-0.04
 30
2.115
 70
192
 0
VERTEX
 8
0
 10
0.2475
 20
-0.07
 30
2.51
 70
192
 0
VERTEX
 8
0
 10
0.885
 20
-0.1
 30
2.52
 70
192
 0
VERTEX
 8
0
 10
0.875
 20
-0.07
 30
2.51
 70
192
 0
VERTEX
 8
0
 10
0.6625
 20
-0.07
 30
2.115
 70
192
 0
VERTEX
 8
0
 10
0.875
 20
-0.07
 30
2.115
 70
192
 0
VERTEX
 8
0
 10
0.46
 20
-0.07
 30
2.115
 70
192
 0
VERTEX
 8
0
 10
0.45
 20
-0.07
 30
2.115
 70
192
 0
VERTEX
 8
0
 10
0.45
 20
-0.04
 30
2.115
 70
192
 0
VERTEX
 8
0
 10
0.2375
 20
-0.07
 30
2.115
 70
192
 0
VERTEX
 8
0
 10
0.2375
 20
-0.07
 30
2.51
 70
192
 0
VERTEX
 8
0
 10
0.2475
 20
-0.04
 30
2.115
 70
192
 0
VERTEX
 8
0
 10
0.2475
 20
-0.04
 30
2.51
 70
192
 0
VERTEX
 8
0
 10
0.2475
 20
-0.07
 30
2.115
 70
192
 0
VERTEX
 8
0
 10
0.2375
 20
-0.04
 30
2.51
 70
192
 0
VERTEX
 8
0
 10
0.2375
 20
-0.04
 30
2.115
 70
192
 0
VERTEX
 8
0
 10
0.875
 20
-0.04
 30
2.51
 70
192
 0
VERTEX
 8
0
 10
0.6725
 20
-0.07
 30
2.115
 70
192
 0
VERTEX
 8
0
 10
0.875
 20
-0.04
 30
2.115
 70
192
 0
VERTEX
 8
0
 10
0.6625
 20
-0.04
 30
2.51
 70
192
 0
VERTEX
 8
0
 10
0.6625
 20
-0.04
 30
2.115
 70
192
 0
VERTEX
 8
0
 10
0.6625
 20
-0.07
 30
2.51
 70
192
 0
VERTEX
 8
0
 10
0.6725
 20
-0.07
 30
2.51
 70
192
 0
VERTEX
 8
0
 10
0.46
 20
-0.04
 30
2.115
 70
192
 0
VERTEX
 8
0
 10
0.45
 20
-0.07
 30
2.51
 70
192
 0
VERTEX
 8
0
 10
0.455
 20
-0.04
 30
2.52
 70
192
 0
VERTEX
 8
0
 10
0.45
 20
-0.04
 30
2.51
 70
192
 0
VERTEX
 8
0
 10
0.6725
 20
-0.04
 30
2.51
 70
192
 0
VERTEX
 8
0
 10
0.6725
 20
-0.04
 30
2.115
 70
192
 0
VERTEX
 8
0
 10
0.46
 20
-0.07
 30
2.51
 70
192
 0
VERTEX
 8
0
 10
0.46
 20
-0.04
 30
2.51
 70
192
 0
VERTEX
 8
0
 10
0.012
 20
-0.02
 30
2.068
 70
192
 0
VERTEX
 8
0
 10
0.898
 20
-0.07
 30
0.075
 70
192
 0
VERTEX
 8
0
 10
0.898
 20
-0.07
 30
2.068
 70
192
 0
VERTEX
 8
0
 10
0.012
 20
-0.07
 30
2.068
 70
192
 0
VERTEX
 8
0
 10
0.898
 20
-0.07
 30
0.027
 70
192
 0
VERTEX
 8
0
 10
0.012
 20
-0.07
 30
0.027
 70
192
 0
VERTEX
 8
0
 10
0.012
 20
-0.07
 30
0.075
 70
192
 0
VERTEX
 8
0
 10
0.898
 20
-0.02
 30
0.027
 70
192
 0
VERTEX
 8
0
 10
0.883
 20
-0.07
 30
0.027
 70
192
 0
VERTEX
 8
0
 10
0.027
 20
-0.08
 30
0.075
 70
192
 0
VERTEX
 8
0
 10
0.027
 20
-0.07
 30
0.027
 70
192
 0
VERTEX
 8
0
 10
0.883
 20
-0.11
 30
0.027
 70
192
 0
VERTEX
 8
0
 10
0.027
 20
-0.11
 30
0.027
 70
192
 0
VERTEX
 8
0
 10
0.545
 20
-0.05
 30
0.58
 70
192
 0
VERTEX
 8
0
 10
0.545
 20
-0.05
 30
0.265
 70
192
 0
VERTEX
 8
0
 10
0.545
 20
-0.055
 30
0.58
 70
192
 0
VERTEX
 8
0
 10
0.545
 20
-0.055
 30
0.265
 70
192
 0
VERTEX
 8
0
 10
0.515
 20
-0.06
 30
0.235
 70
192
 0
VERTEX
 8
0
 10
0.775
 20
-0.06
 30
0.235
 70
192
 0
VERTEX
 8
0
 10
0.745
 20
-0.05
 30
0.58
 70
192
 0
VERTEX
 8
0
 10
0.745
 20
-0.05
 30
0.265
 70
192
 0
VERTEX
 8
0
 10
0.745
 20
-0.055
 30
0.265
 70
192
 0
VERTEX
 8
0
 10
0.745
 20
-0.055
 30
0.58
 70
192
 0
VERTEX
 8
0
 10
0.515
 20
-0.065
 30
0.235
 70
192
 0
VERTEX
 8
0
 10
0.515
 20
-0.065
 30
0.61
 70
192
 0
VERTEX
 8
0
 10
0.775
 20
-0.065
 30
0.235
 70
192
 0
VERTEX
 8
0
 10
0.775
 20
-0.065
 30
0.61
 70
192
 0
VERTEX
 8
0
 10
0.515
 20
-0.06
 30
0.61
 70
192
 0
VERTEX
 8
0
 10
0.775
 20
-0.06
 30
0.61
 70
192
 0
VERTEX
 8
0
 10
0.505
 20
-0.065
 30
0.62
 70
192
 0
VERTEX
 8
0
 10
0.505
 20
-0.065
 30
0.225
 70
192
 0
VERTEX
 8
0
 10
0.785
 20
-0.07
 30
0.225
 70
192
 0
VERTEX
 8
0
 10
0.785
 20
-0.065
 30
0.225
 70
192
 0
VERTEX
 8
0
 10
0.505
 20
-0.07
 30
0.225
 70
192
 0
VERTEX
 8
0
 10
0.505
 20
-0.07
 30
0.62
 70
192
 0
VERTEX
 8
0
 10
0.785
 20
-0.065
 30
0.62
 70
192
 0
VERTEX
 8
0
 10
0.405
 20
-0.07
 30
0.225
 70
192
 0
VERTEX
 8
0
 10
0.785
 20
-0.07
 30
0.62
 70
192
 0
VERTEX
 8
0
 10
0.027
 20
-0.07
 30
0.075
 70
192
 0
VERTEX
 8
0
 10
0.883
 20
-0.07
 30
0.075
 70
192
 0
VERTEX
 8
0
 10
0.125
 20
-0.07
 30
0.82
 70
192
 0
VERTEX
 8
0
 10
0.785
 20
-0.07
 30
0.82
 70
192
 0
VERTEX
 8
0
 10
0.405
 20
-0.07
 30
0.62
 70
192
 0
VERTEX
 8
0
 10
0.405
 20
-0.065
 30
0.62
 70
192
 0
VERTEX
 8
0
 10
0.405
 20
-0.065
 30
0.225
 70
192
 0
VERTEX
 8
0
 10
0.883
 20
-0.11
 30
0.045
 70
192
 0
VERTEX
 8
0
 10
0.883
 20
-0.08
 30
0.075
 70
192
 0
VERTEX
 8
0
 10
0.125
 20
-0.06
 30
0.82
 70
192
 0
VERTEX
 8
0
 10
0.785
 20
-0.06
 30
0.82
 70
192
 0
VERTEX
 8
0
 10
0.125
 20
-0.07
 30
1.895
 70
192
 0
VERTEX
 8
0
 10
0.125
 20
-0.065
 30
0.225
 70
192
 0
VERTEX
 8
0
 10
0.125
 20
-0.065
 30
0.62
 70
192
 0
VERTEX
 8
0
 10
0.125
 20
-0.07
 30
0.62
 70
192
 0
VERTEX
 8
0
 10
0.125
 20
-0.07
 30
0.225
 70
192
 0
VERTEX
 8
0
 10
0.027
 20
-0.11
 30
0.045
 70
192
 0
VERTEX
 8
0
 10
0.35166698694229126
 20
-0.06
 30
0.83
 70
192
 0
VERTEX
 8
0
 10
0.5583329796791077
 20
-0.03
 30
0.83
 70
192
 0
VERTEX
 8
0
 10
0.35166698694229126
 20
-0.03
 30
0.83
 70
192
 0
VERTEX
 8
0
 10
0.135
 20
-0.06
 30
1.185
 70
192
 0
VERTEX
 8
0
 10
0.135
 20
-0.06
 30
1.53
 70
192
 0
VERTEX
 8
0
 10
0.785
 20
-0.07
 30
1.895
 70
192
 0
VERTEX
 8
0
 10
0.125
 20
-0.06
 30
1.895
 70
192
 0
VERTEX
 8
0
 10
0.785
 20
-0.06
 30
1.895
 70
192
 0
VERTEX
 8
0
 10
0.395
 20
-0.065
 30
0.61
 70
192
 0
VERTEX
 8
0
 10
0.135
 20
-0.065
 30
0.61
 70
192
 0
VERTEX
 8
0
 10
0.135
 20
-0.06
 30
0.61
 70
192
 0
VERTEX
 8
0
 10
0.395
 20
-0.06
 30
0.235
 70
192
 0
VERTEX
 8
0
 10
0.395
 20
-0.065
 30
0.235
 70
192
 0
VERTEX
 8
0
 10
0.5583329796791077
 20
-0.06
 30
1.175
 70
192
 0
VERTEX
 8
0
 10
0.5583329796791077
 20
-0.06
 30
0.83
 70
192
 0
VERTEX
 8
0
 10
0.125
 20
-0.03
 30
0.82
 70
192
 0
VERTEX
 8
0
 10
0.35166698694229126
 20
-0.03
 30
1.175
 70
192
 0
VERTEX
 8
0
 10
0.35166698694229126
 20
-0.06
 30
1.175
 70
192
 0
VERTEX
 8
0
 10
0.135
 20
-0.06
 30
0.83
 70
192
 0
VERTEX
 8
0
 10
0.135
 20
-0.03
 30
1.185
 70
192
 0
VERTEX
 8
0
 10
0.135
 20
-0.06
 30
1.54
 70
192
 0
VERTEX
 8
0
 10
0.35166698694229126
 20
-0.06
 30
1.885
 70
192
 0
VERTEX
 8
0
 10
0.5583329796791077
 20
-0.06
 30
1.885
 70
192
 0
VERTEX
 8
0
 10
0.775
 20
-0.03
 30
1.53
 70
192
 0
VERTEX
 8
0
 10
0.775
 20
-0.03
 30
1.185
 70
192
 0
VERTEX
 8
0
 10
0.775
 20
-0.06
 30
1.175
 70
192
 0
VERTEX
 8
0
 10
0.135
 20
-0.06
 30
0.235
 70
192
 0
VERTEX
 8
0
 10
0.135
 20
-0.065
 30
0.235
 70
192
 0
VERTEX
 8
0
 10
0.395
 20
-0.06
 30
0.61
 70
192
 0
VERTEX
 8
0
 10
0.365
 20
-0.055
 30
0.58
 70
192
 0
VERTEX
 8
0
 10
0.365
 20
-0.05
 30
0.58
 70
192
 0
VERTEX
 8
0
 10
0.365
 20
-0.05
 30
0.265
 70
192
 0
VERTEX
 8
0
 10
0.5683329701423645
 20
-0.06
 30
1.175
 70
192
 0
VERTEX
 8
0
 10
0.5683329701423645
 20
-0.06
 30
0.83
 70
192
 0
VERTEX
 8
0
 10
0.775
 20
-0.03
 30
0.83
 70
192
 0
VERTEX
 8
0
 10
0.775
 20
-0.06
 30
0.83
 70
192
 0
VERTEX
 8
0
 10
0.5583329796791077
 20
-0.03
 30
1.175
 70
192
 0
VERTEX
 8
0
 10
0.5683329701423645
 20
-0.03
 30
0.83
 70
192
 0
VERTEX
 8
0
 10
0.785
 20
-0.02
 30
0.82
 70
192
 0
VERTEX
 8
0
 10
0.125
 20
-0.02
 30
0.82
 70
192
 0
VERTEX
 8
0
 10
0.3416669964790344
 20
-0.03
 30
0.83
 70
192
 0
VERTEX
 8
0
 10
0.35166698694229126
 20
-0.06
 30
1.185
 70
192
 0
VERTEX
 8
0
 10
0.3416669964790344
 20
-0.06
 30
0.83
 70
192
 0
VERTEX
 8
0
 10
0.3416669964790344
 20
-0.06
 30
1.175
 70
192
 0
VERTEX
 8
0
 10
0.3416669964790344
 20
-0.03
 30
1.175
 70
192
 0
VERTEX
 8
0
 10
0.135
 20
-0.03
 30
0.83
 70
192
 0
VERTEX
 8
0
 10
0.3416669964790344
 20
-0.03
 30
1.185
 70
192
 0
VERTEX
 8
0
 10
0.135
 20
-0.03
 30
1.53
 70
192
 0
VERTEX
 8
0
 10
0.3416669964790344
 20
-0.06
 30
1.53
 70
192
 0
VERTEX
 8
0
 10
0.3416669964790344
 20
-0.06
 30
1.885
 70
192
 0
VERTEX
 8
0
 10
0.5583329796791077
 20
-0.03
 30
1.885
 70
192
 0
VERTEX
 8
0
 10
0.775
 20
-0.06
 30
1.185
 70
192
 0
VERTEX
 8
0
 10
0.775
 20
-0.06
 30
1.53
 70
192
 0
VERTEX
 8
0
 10
0.775
 20
-0.06
 30
1.885
 70
192
 0
VERTEX
 8
0
 10
0.165
 20
-0.055
 30
0.58
 70
192
 0
VERTEX
 8
0
 10
0.365
 20
-0.055
 30
0.265
 70
192
 0
VERTEX
 8
0
 10
0.5683329701423645
 20
-0.03
 30
1.175
 70
192
 0
VERTEX
 8
0
 10
0.775
 20
-0.03
 30
1.175
 70
192
 0
VERTEX
 8
0
 10
0.35166698694229126
 20
-0.03
 30
1.185
 70
192
 0
VERTEX
 8
0
 10
0.5583329796791077
 20
-0.03
 30
1.185
 70
192
 0
VERTEX
 8
0
 10
0.125
 20
-0.02
 30
1.895
 70
192
 0
VERTEX
 8
0
 10
0.785
 20
-0.02
 30
1.895
 70
192
 0
VERTEX
 8
0
 10
0.785
 20
-0.03
 30
0.82
 70
192
 0
VERTEX
 8
0
 10
0.35166698694229126
 20
-0.06
 30
1.53
 70
192
 0
VERTEX
 8
0
 10
0.135
 20
-0.06
 30
1.175
 70
192
 0
VERTEX
 8
0
 10
0.3416669964790344
 20
-0.06
 30
1.185
 70
192
 0
VERTEX
 8
0
 10
0.135
 20
-0.03
 30
1.175
 70
192
 0
VERTEX
 8
0
 10
0.3416669964790344
 20
-0.03
 30
1.53
 70
192
 0
VERTEX
 8
0
 10
0.135
 20
-0.06
 30
1.885
 70
192
 0
VERTEX
 8
0
 10
0.3416669964790344
 20
-0.03
 30
1.54
 70
192
 0
VERTEX
 8
0
 10
0.135
 20
-0.03
 30
1.54
 70
192
 0
VERTEX
 8
0
 10
0.35166698694229126
 20
-0.03
 30
1.54
 70
192
 0
VERTEX
 8
0
 10
0.35166698694229126
 20
-0.03
 30
1.885
 70
192
 0
VERTEX
 8
0
 10
0.5683329701423645
 20
-0.06
 30
1.53
 70
192
 0
VERTEX
 8
0
 10
0.5683329701423645
 20
-0.06
 30
1.185
 70
192
 0
VERTEX
 8
0
 10
0.5683329701423645
 20
-0.03
 30
1.185
 70
192
 0
VERTEX
 8
0
 10
0.5683329701423645
 20
-0.03
 30
1.53
 70
192
 0
VERTEX
 8
0
 10
0.5683329701423645
 20
-0.03
 30
1.54
 70
192
 0
VERTEX
 8
0
 10
0.775
 20
-0.06
 30
1.54
 70
192
 0
VERTEX
 8
0
 10
0.775
 20
-0.03
 30
1.54
 70
192
 0
VERTEX
 8
0
 10
0.165
 20
-0.05
 30
0.58
 70
192
 0
VERTEX
 8
0
 10
0.165
 20
-0.055
 30
0.265
 70
192
 0
VERTEX
 8
0
 10
0.165
 20
-0.05
 30
0.265
 70
192
 0
VERTEX
 8
0
 10
0.5583329796791077
 20
-0.06
 30
1.185
 70
192
 0
VERTEX
 8
0
 10
0.5583329796791077
 20
-0.06
 30
1.53
 70
192
 0
VERTEX
 8
0
 10
0.405
 20
-0.02
 30
0.225
 70
192
 0
VERTEX
 8
0
 10
0.505
 20
-0.02
 30
0.225
 70
192
 0
VERTEX
 8
0
 10
0.125
 20
-0.02
 30
0.62
 70
192
 0
VERTEX
 8
0
 10
0.785
 20
-0.03
 30
1.895
 70
192
 0
VERTEX
 8
0
 10
0.125
 20
-0.03
 30
1.895
 70
192
 0
VERTEX
 8
0
 10
0.898
 20
-0.02
 30
2.068
 70
192
 0
VERTEX
 8
0
 10
0.135
 20
-0.03
 30
1.885
 70
192
 0
VERTEX
 8
0
 10
0.3416669964790344
 20
-0.06
 30
1.54
 70
192
 0
VERTEX
 8
0
 10
0.3416669964790344
 20
-0.03
 30
1.885
 70
192
 0
VERTEX
 8
0
 10
0.5583329796791077
 20
-0.06
 30
1.54
 70
192
 0
VERTEX
 8
0
 10
0.35166698694229126
 20
-0.06
 30
1.54
 70
192
 0
VERTEX
 8
0
 10
0.5583329796791077
 20
-0.03
 30
1.54
 70
192
 0
VERTEX
 8
0
 10
0.5683329701423645
 20
-0.03
 30
1.885
 70
192
 0
VERTEX
 8
0
 10
0.5683329701423645
 20
-0.06
 30
1.54
 70
192
 0
VERTEX
 8
0
 10
0.5683329701423645
 20
-0.06
 30
1.885
 70
192
 0
VERTEX
 8
0
 10
0.775
 20
-0.03
 30
1.885
 70
192
 0
VERTEX
 8
0
 10
0.5583329796791077
 20
-0.03
 30
1.53
 70
192
 0
VERTEX
 8
0
 10
0.35166698694229126
 20
-0.03
 30
1.53
 70
192
 0
VERTEX
 8
0
 10
0.405
 20
-0.025
 30
0.62
 70
192
 0
VERTEX
 8
0
 10
0.405
 20
-0.02
 30
0.62
 70
192
 0
VERTEX
 8
0
 10
0.012
 20
-0.02
 30
0.027
 70
192
 0
VERTEX
 8
0
 10
0.125
 20
-0.025
 30
0.62
 70
192
 0
VERTEX
 8
0
 10
0.785
 20
-0.02
 30
0.62
 70
192
 0
VERTEX
 8
0
 10
0.785
 20
-0.025
 30
0.62
 70
192
 0
VERTEX
 8
0
 10
0.505
 20
-0.025
 30
0.62
 70
192
 0
VERTEX
 8
0
 10
0.505
 20
-0.02
 30
0.62
 70
192
 0
VERTEX
 8
0
 10
0.405
 20
-0.025
 30
0.225
 70
192
 0
VERTEX
 8
0
 10
0.515
 20
-0.025
 30
0.235
 70
192
 0
VERTEX
 8
0
 10
0.505
 20
-0.025
 30
0.225
 70
192
 0
VERTEX
 8
0
 10
0.125
 20
-0.02
 30
0.225
 70
192
 0
VERTEX
 8
0
 10
0.785
 20
-0.02
 30
0.225
 70
192
 0
VERTEX
 8
0
 10
0.135
 20
-0.025
 30
0.235
 70
192
 0
VERTEX
 8
0
 10
0.125
 20
-0.025
 30
0.225
 70
192
 0
VERTEX
 8
0
 10
0.395
 20
-0.03
 30
0.61
 70
192
 0
VERTEX
 8
0
 10
0.395
 20
-0.025
 30
0.61
 70
192
 0
VERTEX
 8
0
 10
0.515
 20
-0.025
 30
0.61
 70
192
 0
VERTEX
 8
0
 10
0.785
 20
-0.025
 30
0.225
 70
192
 0
VERTEX
 8
0
 10
0.775
 20
-0.025
 30
0.235
 70
192
 0
VERTEX
 8
0
 10
0.775
 20
-0.03
 30
0.61
 70
192
 0
VERTEX
 8
0
 10
0.775
 20
-0.025
 30
0.61
 70
192
 0
VERTEX
 8
0
 10
0.395
 20
-0.025
 30
0.235
 70
192
 0
VERTEX
 8
0
 10
0.395
 20
-0.03
 30
0.235
 70
192
 0
VERTEX
 8
0
 10
0.365
 20
-0.035
 30
0.265
 70
192
 0
VERTEX
 8
0
 10
0.515
 20
-0.03
 30
0.235
 70
192
 0
VERTEX
 8
0
 10
0.135
 20
-0.025
 30
0.61
 70
192
 0
VERTEX
 8
0
 10
0.135
 20
-0.03
 30
0.61
 70
192
 0
VERTEX
 8
0
 10
0.135
 20
-0.03
 30
0.235
 70
192
 0
VERTEX
 8
0
 10
0.365
 20
-0.035
 30
0.58
 70
192
 0
VERTEX
 8
0
 10
0.165
 20
-0.035
 30
0.58
 70
192
 0
VERTEX
 8
0
 10
0.775
 20
-0.03
 30
0.235
 70
192
 0
VERTEX
 8
0
 10
0.515
 20
-0.03
 30
0.61
 70
192
 0
VERTEX
 8
0
 10
0.365
 20
-0.04
 30
0.58
 70
192
 0
VERTEX
 8
0
 10
0.545
 20
-0.04
 30
0.58
 70
192
 0
VERTEX
 8
0
 10
0.545
 20
-0.04
 30
0.265
 70
192
 0
VERTEX
 8
0
 10
0.545
 20
-0.035
 30
0.58
 70
192
 0
VERTEX
 8
0
 10
0.745
 20
-0.035
 30
0.58
 70
192
 0
VERTEX
 8
0
 10
0.165
 20
-0.035
 30
0.265
 70
192
 0
VERTEX
 8
0
 10
0.165
 20
-0.04
 30
0.265
 70
192
 0
VERTEX
 8
0
 10
0.365
 20
-0.04
 30
0.265
 70
192
 0
VERTEX
 8
0
 10
0.165
 20
-0.04
 30
0.58
 70
192
 0
VERTEX
 8
0
 10
0.745
 20
-0.04
 30
0.58
 70
192
 0
VERTEX
 8
0
 10
0.745
 20
-0.04
 30
0.265
 70
192
 0
VERTEX
 8
0
 10
0.745
 20
-0.035
 30
0.265
 70
192
 0
VERTEX
 8
0
 10
0.545
 20
-0.035
 30
0.265
 70
192
 0
VERTEX
 8
0
 10
0.0
 20
0.0
 30
0.0
 70
128
 71
4
 72
1
 73
12
 74
11
 0
VERTEX
 8
0
 10
0.0
 20
0.0
 30
0.0
 70
128
 71
4
 72
5
 73
1
 0
VERTEX
 8
0
 10
0.0
 20
0.0
 30
0.0
 70
128
 71
1
 72
2
 73
19
 74
12
 0
VERTEX
 8
0
 10
0.0
 20
0.0
 30
0.0
 70
128
 71
9
 72
11
 73
12
 0
VERTEX
 8
0
 10
0.0
 20
0.0
 30
0.0
 70
128
 71
25
 72
4
 73
11
 74
27
 0
VERTEX
 8
0
 10
0.0
 20
0.0
 30
0.0
 70
128
 71
3
 72
5
 73
4
 74
14
 0
VERTEX
 8
0
 10
0.0
 20
0.0
 30
0.0
 70
128
 71
15
 72
1
 73
5
 74
3
 0
VERTEX
 8
0
 10
0.0
 20
0.0
 30
0.0
 70
128
 71
1
 72
15
 73
6
 74
2
 0
VERTEX
 8
0
 10
0.0
 20
0.0
 30
0.0
 70
128
 71
2
 72
7
 73
31
 74
19
 0
VERTEX
 8
0
 10
0.0
 20
0.0
 30
0.0
 70
128
 71
19
 72
18
 73
8
 74
12
 0
VERTEX
 8
0
 10
0.0
 20
0.0
 30
0.0
 70
128
 71
9
 72
10
 73
20
 74
11
 0
VERTEX
 8
0
 10
0.0
 20
0.0
 30
0.0
 70
128
 71
12
 72
8
 73
10
 74
9
 0
VERTEX
 8
0
 10
0.0
 20
0.0
 30
0.0
 70
128
 71
25
 72
23
 73
4
 0
VERTEX
 8
0
 10
0.0
 20
0.0
 30
0.0
 70
128
 71
22
 72
27
 73
11
 0
VERTEX
 8
0
 10
0.0
 20
0.0
 30
0.0
 70
128
 71
32
 72
25
 73
27
 74
13
 0
VERTEX
 8
0
 10
0.0
 20
0.0
 30
0.0
 70
128
 71
14
 72
4
 73
23
 74
29
 0
VERTEX
 8
0
 10
0.0
 20
0.0
 30
0.0
 70
128
 71
3
 72
14
 73
20
 74
10
 0
VERTEX
 8
0
 10
0.0
 20
0.0
 30
0.0
 70
128
 71
15
 72
3
 73
10
 74
8
 0
VERTEX
 8
0
 10
0.0
 20
0.0
 30
0.0
 70
128
 71
38
 72
16
 73
2
 74
6
 0
VERTEX
 8
0
 10
0.0
 20
0.0
 30
0.0
 70
128
 71
6
 72
15
 73
8
 74
18
 0
VERTEX
 8
0
 10
0.0
 20
0.0
 30
0.0
 70
128
 71
2
 72
16
 73
7
 0
VERTEX
 8
0
 10
0.0
 20
0.0
 30
0.0
 70
128
 71
7
 72
42
 73
46
 74
31
 0
VERTEX
 8
0
 10
0.0
 20
0.0
 30
0.0
 70
128
 71
17
 72
19
 73
31
 0
VERTEX
 8
0
 10
0.0
 20
0.0
 30
0.0
 70
128
 71
17
 72
39
 73
18
 74
19
 0
VERTEX
 8
0
 10
0.0
 20
0.0
 30
0.0
 70
128
 71
11
 72
20
 73
21
 74
22
 0
VERTEX
 8
0
 10
0.0
 20
0.0
 30
0.0
 70
128
 71
29
 72
23
 73
25
 74
24
 0
VERTEX
 8
0
 10
0.0
 20
0.0
 30
0.0
 70
128
 71
22
 72
21
 73
33
 74
27
 0
VERTEX
 8
0
 10
0.0
 20
0.0
 30
0.0
 70
128
 71
24
 72
25
 73
32
 74
26
 0
VERTEX
 8
0
 10
0.0
 20
0.0
 30
0.0
 70
128
 71
27
 72
33
 73
34
 74
13
 0
VERTEX
 8
0
 10
0.0
 20
0.0
 30
0.0
 70
128
 71
51
 72
32
 73
13
 74
28
 0
VERTEX
 8
0
 10
0.0
 20
0.0
 30
0.0
 70
128
 71
14
 72
29
 73
21
 74
20
 0
VERTEX
 8
0
 10
0.0
 20
0.0
 30
0.0
 70
128
 71
30
 72
7
 73
16
 74
38
 0
VERTEX
 8
0
 10
0.0
 20
0.0
 30
0.0
 70
128
 71
38
 72
6
 73
18
 74
39
 0
VERTEX
 8
0
 10
0.0
 20
0.0
 30
0.0
 70
128
 71
7
 72
43
 73
42
 0
VERTEX
 8
0
 10
0.0
 20
0.0
 30
0.0
 70
128
 71
42
 72
57
 73
64
 74
46
 0
VERTEX
 8
0
 10
0.0
 20
0.0
 30
0.0
 70
128
 71
47
 72
31
 73
46
 0
VERTEX
 8
0
 10
0.0
 20
0.0
 30
0.0
 70
128
 71
31
 72
40
 73
39
 74
17
 0
VERTEX
 8
0
 10
0.0
 20
0.0
 30
0.0
 70
128
 71
29
 72
24
 73
33
 74
21
 0
VERTEX
 8
0
 10
0.0
 20
0.0
 30
0.0
 70
128
 71
26
 72
32
 73
49
 74
48
 0
VERTEX
 8
0
 10
0.0
 20
0.0
 30
0.0
 70
128
 71
24
 72
26
 73
34
 74
33
 0
VERTEX
 8
0
 10
0.0
 20
0.0
 30
0.0
 70
128
 71
13
 72
34
 73
35
 74
36
 0
VERTEX
 8
0
 10
0.0
 20
0.0
 30
0.0
 70
128
 71
51
 72
49
 73
32
 0
VERTEX
 8
0
 10
0.0
 20
0.0
 30
0.0
 70
128
 71
36
 72
28
 73
13
 0
VERTEX
 8
0
 10
0.0
 20
0.0
 30
0.0
 70
128
 71
37
 72
51
 73
28
 74
54
 0
VERTEX
 8
0
 10
0.0
 20
0.0
 30
0.0
 70
128
 71
56
 72
43
 73
7
 74
30
 0
VERTEX
 8
0
 10
0.0
 20
0.0
 30
0.0
 70
128
 71
30
 72
38
 73
39
 74
40
 0
VERTEX
 8
0
 10
0.0
 20
0.0
 30
0.0
 70
128
 71
41
 72
42
 73
43
 74
56
 0
VERTEX
 8
0
 10
0.0
 20
0.0
 30
0.0
 70
128
 71
58
 72
57
 73
42
 74
41
 0
VERTEX
 8
0
 10
0.0
 20
0.0
 30
0.0
 70
128
 71
57
 72
44
 73
87
 74
64
 0
VERTEX
 8
0
 10
0.0
 20
0.0
 30
0.0
 70
128
 71
64
 72
63
 73
59
 74
46
 0
VERTEX
 8
0
 10
0.0
 20
0.0
 30
0.0
 70
128
 71
47
 72
45
 73
40
 74
31
 0
VERTEX
 8
0
 10
0.0
 20
0.0
 30
0.0
 70
128
 71
46
 72
59
 73
45
 74
47
 0
VERTEX
 8
0
 10
0.0
 20
0.0
 30
0.0
 70
128
 71
48
 72
49
 73
51
 74
65
 0
VERTEX
 8
0
 10
0.0
 20
0.0
 30
0.0
 70
128
 71
26
 72
48
 73
35
 74
34
 0
VERTEX
 8
0
 10
0.0
 20
0.0
 30
0.0
 70
128
 71
36
 72
35
 73
52
 74
28
 0
VERTEX
 8
0
 10
0.0
 20
0.0
 30
0.0
 70
128
 71
50
 72
65
 73
51
 74
37
 0
VERTEX
 8
0
 10
0.0
 20
0.0
 30
0.0
 70
128
 71
52
 72
53
 73
54
 74
28
 0
VERTEX
 8
0
 10
0.0
 20
0.0
 30
0.0
 70
128
 71
93
 72
37
 73
54
 74
55
 0
VERTEX
 8
0
 10
0.0
 20
0.0
 30
0.0
 70
128
 71
56
 72
30
 73
40
 74
45
 0
VERTEX
 8
0
 10
0.0
 20
0.0
 30
0.0
 70
128
 71
41
 72
56
 73
45
 74
59
 0
VERTEX
 8
0
 10
0.0
 20
0.0
 30
0.0
 70
128
 71
79
 72
60
 73
57
 74
58
 0
VERTEX
 8
0
 10
0.0
 20
0.0
 30
0.0
 70
128
 71
58
 72
41
 73
59
 74
63
 0
VERTEX
 8
0
 10
0.0
 20
0.0
 30
0.0
 70
128
 71
57
 72
60
 73
44
 0
VERTEX
 8
0
 10
0.0
 20
0.0
 30
0.0
 70
128
 71
44
 72
82
 73
61
 74
87
 0
VERTEX
 8
0
 10
0.0
 20
0.0
 30
0.0
 70
128
 71
62
 72
64
 73
87
 0
VERTEX
 8
0
 10
0.0
 20
0.0
 30
0.0
 70
128
 71
62
 72
80
 73
63
 74
64
 0
VERTEX
 8
0
 10
0.0
 20
0.0
 30
0.0
 70
128
 71
48
 72
65
 73
52
 74
35
 0
VERTEX
 8
0
 10
0.0
 20
0.0
 30
0.0
 70
128
 71
65
 72
50
 73
53
 74
52
 0
VERTEX
 8
0
 10
0.0
 20
0.0
 30
0.0
 70
128
 71
66
 72
50
 73
37
 74
67
 0
VERTEX
 8
0
 10
0.0
 20
0.0
 30
0.0
 70
128
 71
53
 72
90
 73
68
 74
54
 0
VERTEX
 8
0
 10
0.0
 20
0.0
 30
0.0
 70
128
 71
67
 72
37
 73
93
 74
72
 0
VERTEX
 8
0
 10
0.0
 20
0.0
 30
0.0
 70
128
 71
54
 72
68
 73
69
 74
55
 0
VERTEX
 8
0
 10
0.0
 20
0.0
 30
0.0
 70
128
 71
75
 72
93
 73
55
 74
99
 0
VERTEX
 8
0
 10
0.0
 20
0.0
 30
0.0
 70
128
 71
78
 72
44
 73
60
 74
79
 0
VERTEX
 8
0
 10
0.0
 20
0.0
 30
0.0
 70
128
 71
79
 72
58
 73
63
 74
80
 0
VERTEX
 8
0
 10
0.0
 20
0.0
 30
0.0
 70
128
 71
44
 72
77
 73
82
 0
VERTEX
 8
0
 10
0.0
 20
0.0
 30
0.0
 70
128
 71
82
 72
70
 73
85
 74
61
 0
VERTEX
 8
0
 10
0.0
 20
0.0
 30
0.0
 70
128
 71
86
 72
87
 73
61
 0
VERTEX
 8
0
 10
0.0
 20
0.0
 30
0.0
 70
128
 71
87
 72
81
 73
80
 74
62
 0
VERTEX
 8
0
 10
0.0
 20
0.0
 30
0.0
 70
128
 71
50
 72
66
 73
90
 74
53
 0
VERTEX
 8
0
 10
0.0
 20
0.0
 30
0.0
 70
128
 71
89
 72
66
 73
67
 74
72
 0
VERTEX
 8
0
 10
0.0
 20
0.0
 30
0.0
 70
128
 71
90
 72
71
 73
69
 74
68
 0
VERTEX
 8
0
 10
0.0
 20
0.0
 30
0.0
 70
128
 71
92
 72
89
 73
72
 74
93
 0
VERTEX
 8
0
 10
0.0
 20
0.0
 30
0.0
 70
128
 71
71
 72
100
 73
55
 74
69
 0
VERTEX
 8
0
 10
0.0
 20
0.0
 30
0.0
 70
128
 71
75
 72
73
 73
93
 0
VERTEX
 8
0
 10
0.0
 20
0.0
 30
0.0
 70
128
 71
107
 72
99
 73
55
 0
VERTEX
 8
0
 10
0.0
 20
0.0
 30
0.0
 70
128
 71
74
 72
75
 73
99
 74
76
 0
VERTEX
 8
0
 10
0.0
 20
0.0
 30
0.0
 70
128
 71
83
 72
77
 73
44
 74
78
 0
VERTEX
 8
0
 10
0.0
 20
0.0
 30
0.0
 70
128
 71
104
 72
84
 73
83
 74
88
 0
VERTEX
 8
0
 10
0.0
 20
0.0
 30
0.0
 70
128
 71
79
 72
80
 73
81
 74
78
 0
VERTEX
 8
0
 10
0.0
 20
0.0
 30
0.0
 70
128
 71
84
 72
82
 73
77
 74
83
 0
VERTEX
 8
0
 10
0.0
 20
0.0
 30
0.0
 70
128
 71
70
 72
82
 73
84
 74
111
 0
VERTEX
 8
0
 10
0.0
 20
0.0
 30
0.0
 70
128
 71
70
 72
102
 73
112
 74
85
 0
VERTEX
 8
0
 10
0.0
 20
0.0
 30
0.0
 70
128
 71
103
 72
104
 73
61
 74
85
 0
VERTEX
 8
0
 10
0.0
 20
0.0
 30
0.0
 70
128
 71
86
 72
88
 73
81
 74
87
 0
VERTEX
 8
0
 10
0.0
 20
0.0
 30
0.0
 70
128
 71
61
 72
104
 73
88
 74
86
 0
VERTEX
 8
0
 10
0.0
 20
0.0
 30
0.0
 70
128
 71
83
 72
78
 73
81
 74
88
 0
VERTEX
 8
0
 10
0.0
 20
0.0
 30
0.0
 70
128
 71
66
 72
89
 73
71
 74
90
 0
VERTEX
 8
0
 10
0.0
 20
0.0
 30
0.0
 70
128
 71
89
 72
92
 73
100
 74
71
 0
VERTEX
 8
0
 10
0.0
 20
0.0
 30
0.0
 70
128
 71
91
 72
92
 73
93
 74
73
 0
VERTEX
 8
0
 10
0.0
 20
0.0
 30
0.0
 70
128
 71
100
 72
94
 73
107
 74
55
 0
VERTEX
 8
0
 10
0.0
 20
0.0
 30
0.0
 70
128
 71
73
 72
75
 73
95
 74
96
 0
VERTEX
 8
0
 10
0.0
 20
0.0
 30
0.0
 70
128
 71
99
 72
107
 73
97
 74
98
 0
VERTEX
 8
0
 10
0.0
 20
0.0
 30
0.0
 70
128
 71
75
 72
74
 73
121
 0
VERTEX
 8
0
 10
0.0
 20
0.0
 30
0.0
 70
128
 71
76
 72
99
 73
119
 0
VERTEX
 8
0
 10
0.0
 20
0.0
 30
0.0
 70
128
 71
92
 72
74
 73
76
 74
100
 0
VERTEX
 8
0
 10
0.0
 20
0.0
 30
0.0
 70
128
 71
113
 72
112
 73
102
 74
101
 0
VERTEX
 8
0
 10
0.0
 20
0.0
 30
0.0
 70
128
 71
101
 72
102
 73
70
 74
111
 0
VERTEX
 8
0
 10
0.0
 20
0.0
 30
0.0
 70
128
 71
112
 72
113
 73
103
 74
85
 0
VERTEX
 8
0
 10
0.0
 20
0.0
 30
0.0
 70
128
 71
92
 72
91
 73
74
 0
VERTEX
 8
0
 10
0.0
 20
0.0
 30
0.0
 70
128
 71
91
 72
73
 73
105
 74
106
 0
VERTEX
 8
0
 10
0.0
 20
0.0
 30
0.0
 70
128
 71
94
 72
100
 73
76
 0
VERTEX
 8
0
 10
0.0
 20
0.0
 30
0.0
 70
128
 71
107
 72
94
 73
108
 74
115
 0
VERTEX
 8
0
 10
0.0
 20
0.0
 30
0.0
 70
128
 71
75
 72
116
 73
95
 0
VERTEX
 8
0
 10
0.0
 20
0.0
 30
0.0
 70
128
 71
95
 72
127
 73
130
 74
96
 0
VERTEX
 8
0
 10
0.0
 20
0.0
 30
0.0
 70
128
 71
105
 72
73
 73
96
 74
114
 0
VERTEX
 8
0
 10
0.0
 20
0.0
 30
0.0
 70
128
 71
107
 72
115
 73
109
 74
97
 0
VERTEX
 8
0
 10
0.0
 20
0.0
 30
0.0
 70
128
 71
133
 72
98
 73
97
 74
135
 0
VERTEX
 8
0
 10
0.0
 20
0.0
 30
0.0
 70
128
 71
119
 72
99
 73
98
 0
VERTEX
 8
0
 10
0.0
 20
0.0
 30
0.0
 70
128
 71
74
 72
110
 73
121
 0
VERTEX
 8
0
 10
0.0
 20
0.0
 30
0.0
 70
128
 71
121
 72
116
 73
75
 0
VERTEX
 8
0
 10
0.0
 20
0.0
 30
0.0
 70
128
 71
119
 72
123
 73
76
 0
VERTEX
 8
0
 10
0.0
 20
0.0
 30
0.0
 70
128
 71
101
 72
111
 73
103
 74
113
 0
VERTEX
 8
0
 10
0.0
 20
0.0
 30
0.0
 70
128
 71
111
 72
84
 73
104
 74
103
 0
VERTEX
 8
0
 10
0.0
 20
0.0
 30
0.0
 70
128
 71
106
 72
110
 73
74
 74
91
 0
VERTEX
 8
0
 10
0.0
 20
0.0
 30
0.0
 70
128
 71
105
 72
114
 73
122
 74
106
 0
VERTEX
 8
0
 10
0.0
 20
0.0
 30
0.0
 70
128
 71
123
 72
108
 73
94
 74
76
 0
VERTEX
 8
0
 10
0.0
 20
0.0
 30
0.0
 70
128
 71
109
 72
115
 73
108
 74
124
 0
VERTEX
 8
0
 10
0.0
 20
0.0
 30
0.0
 70
128
 71
95
 72
116
 73
121
 74
139
 0
VERTEX
 8
0
 10
0.0
 20
0.0
 30
0.0
 70
128
 71
95
 72
125
 73
127
 0
VERTEX
 8
0
 10
0.0
 20
0.0
 30
0.0
 70
128
 71
128
 72
130
 73
127
 74
145
 0
VERTEX
 8
0
 10
0.0
 20
0.0
 30
0.0
 70
128
 71
96
 72
130
 73
117
 0
VERTEX
 8
0
 10
0.0
 20
0.0
 30
0.0
 70
128
 71
114
 72
96
 73
140
 74
122
 0
VERTEX
 8
0
 10
0.0
 20
0.0
 30
0.0
 70
128
 71
97
 72
109
 73
124
 74
148
 0
VERTEX
 8
0
 10
0.0
 20
0.0
 30
0.0
 70
128
 71
133
 72
134
 73
98
 0
VERTEX
 8
0
 10
0.0
 20
0.0
 30
0.0
 70
128
 71
97
 72
118
 73
135
 0
VERTEX
 8
0
 10
0.0
 20
0.0
 30
0.0
 70
128
 71
135
 72
150
 73
137
 74
133
 0
VERTEX
 8
0
 10
0.0
 20
0.0
 30
0.0
 70
128
 71
119
 72
98
 73
146
 74
120
 0
VERTEX
 8
0
 10
0.0
 20
0.0
 30
0.0
 70
128
 71
121
 72
110
 73
106
 74
122
 0
VERTEX
 8
0
 10
0.0
 20
0.0
 30
0.0
 70
128
 71
119
 72
120
 73
123
 0
VERTEX
 8
0
 10
0.0
 20
0.0
 30
0.0
 70
128
 71
123
 72
120
 73
124
 74
108
 0
VERTEX
 8
0
 10
0.0
 20
0.0
 30
0.0
 70
128
 71
140
 72
139
 73
121
 74
122
 0
VERTEX
 8
0
 10
0.0
 20
0.0
 30
0.0
 70
128
 71
125
 72
95
 73
139
 74
126
 0
VERTEX
 8
0
 10
0.0
 20
0.0
 30
0.0
 70
128
 71
127
 72
125
 73
126
 74
129
 0
VERTEX
 8
0
 10
0.0
 20
0.0
 30
0.0
 70
128
 71
130
 72
128
 73
155
 74
143
 0
VERTEX
 8
0
 10
0.0
 20
0.0
 30
0.0
 70
128
 71
145
 72
127
 73
129
 74
142
 0
VERTEX
 8
0
 10
0.0
 20
0.0
 30
0.0
 70
128
 71
153
 72
128
 73
145
 74
144
 0
VERTEX
 8
0
 10
0.0
 20
0.0
 30
0.0
 70
128
 71
117
 72
130
 73
143
 74
131
 0
VERTEX
 8
0
 10
0.0
 20
0.0
 30
0.0
 70
128
 71
96
 72
117
 73
131
 74
140
 0
VERTEX
 8
0
 10
0.0
 20
0.0
 30
0.0
 70
128
 71
146
 72
148
 73
124
 74
120
 0
VERTEX
 8
0
 10
0.0
 20
0.0
 30
0.0
 70
128
 71
118
 72
97
 73
148
 74
132
 0
VERTEX
 8
0
 10
0.0
 20
0.0
 30
0.0
 70
128
 71
134
 72
133
 73
138
 74
147
 0
VERTEX
 8
0
 10
0.0
 20
0.0
 30
0.0
 70
128
 71
98
 72
134
 73
147
 74
146
 0
VERTEX
 8
0
 10
0.0
 20
0.0
 30
0.0
 70
128
 71
135
 72
118
 73
132
 74
136
 0
VERTEX
 8
0
 10
0.0
 20
0.0
 30
0.0
 70
128
 71
150
 72
135
 73
136
 74
151
 0
VERTEX
 8
0
 10
0.0
 20
0.0
 30
0.0
 70
128
 71
150
 72
149
 73
152
 74
137
 0
VERTEX
 8
0
 10
0.0
 20
0.0
 30
0.0
 70
128
 71
133
 72
137
 73
159
 74
138
 0
VERTEX
 8
0
 10
0.0
 20
0.0
 30
0.0
 70
128
 71
126
 72
139
 73
140
 74
131
 0
VERTEX
 8
0
 10
0.0
 20
0.0
 30
0.0
 70
128
 71
143
 72
129
 73
126
 74
131
 0
VERTEX
 8
0
 10
0.0
 20
0.0
 30
0.0
 70
128
 71
128
 72
153
 73
141
 74
155
 0
VERTEX
 8
0
 10
0.0
 20
0.0
 30
0.0
 70
128
 71
142
 72
129
 73
143
 74
155
 0
VERTEX
 8
0
 10
0.0
 20
0.0
 30
0.0
 70
128
 71
144
 72
145
 73
142
 74
156
 0
VERTEX
 8
0
 10
0.0
 20
0.0
 30
0.0
 70
128
 71
166
 72
164
 73
153
 74
144
 0
VERTEX
 8
0
 10
0.0
 20
0.0
 30
0.0
 70
128
 71
146
 72
147
 73
132
 74
148
 0
VERTEX
 8
0
 10
0.0
 20
0.0
 30
0.0
 70
128
 71
138
 72
136
 73
132
 74
147
 0
VERTEX
 8
0
 10
0.0
 20
0.0
 30
0.0
 70
128
 71
138
 72
159
 73
151
 74
136
 0
VERTEX
 8
0
 10
0.0
 20
0.0
 30
0.0
 70
128
 71
149
 72
150
 73
151
 74
160
 0
VERTEX
 8
0
 10
0.0
 20
0.0
 30
0.0
 70
128
 71
171
 72
174
 73
152
 74
149
 0
VERTEX
 8
0
 10
0.0
 20
0.0
 30
0.0
 70
128
 71
137
 72
152
 73
167
 74
159
 0
VERTEX
 8
0
 10
0.0
 20
0.0
 30
0.0
 70
128
 71
153
 72
154
 73
162
 74
141
 0
VERTEX
 8
0
 10
0.0
 20
0.0
 30
0.0
 70
128
 71
155
 72
141
 73
156
 74
142
 0
VERTEX
 8
0
 10
0.0
 20
0.0
 30
0.0
 70
128
 71
158
 72
144
 73
156
 74
163
 0
VERTEX
 8
0
 10
0.0
 20
0.0
 30
0.0
 70
128
 71
157
 72
164
 73
166
 74
178
 0
VERTEX
 8
0
 10
0.0
 20
0.0
 30
0.0
 70
128
 71
164
 72
154
 73
153
 0
VERTEX
 8
0
 10
0.0
 20
0.0
 30
0.0
 70
128
 71
144
 72
158
 73
166
 0
VERTEX
 8
0
 10
0.0
 20
0.0
 30
0.0
 70
128
 71
160
 72
151
 73
159
 74
167
 0
VERTEX
 8
0
 10
0.0
 20
0.0
 30
0.0
 70
128
 71
169
 72
149
 73
160
 74
161
 0
VERTEX
 8
0
 10
0.0
 20
0.0
 30
0.0
 70
128
 71
171
 72
170
 73
187
 74
174
 0
VERTEX
 8
0
 10
0.0
 20
0.0
 30
0.0
 70
128
 71
173
 72
152
 73
174
 0
VERTEX
 8
0
 10
0.0
 20
0.0
 30
0.0
 70
128
 71
169
 72
171
 73
149
 0
VERTEX
 8
0
 10
0.0
 20
0.0
 30
0.0
 70
128
 71
152
 72
173
 73
172
 74
167
 0
VERTEX
 8
0
 10
0.0
 20
0.0
 30
0.0
 70
128
 71
175
 72
162
 73
154
 74
164
 0
VERTEX
 8
0
 10
0.0
 20
0.0
 30
0.0
 70
128
 71
156
 72
141
 73
162
 74
163
 0
VERTEX
 8
0
 10
0.0
 20
0.0
 30
0.0
 70
128
 71
158
 72
163
 73
177
 74
166
 0
VERTEX
 8
0
 10
0.0
 20
0.0
 30
0.0
 70
128
 71
164
 72
157
 73
165
 74
175
 0
VERTEX
 8
0
 10
0.0
 20
0.0
 30
0.0
 70
128
 71
178
 72
166
 73
177
 74
176
 0
VERTEX
 8
0
 10
0.0
 20
0.0
 30
0.0
 70
128
 71
194
 72
157
 73
178
 74
197
 0
VERTEX
 8
0
 10
0.0
 20
0.0
 30
0.0
 70
128
 71
160
 72
167
 73
172
 74
161
 0
VERTEX
 8
0
 10
0.0
 20
0.0
 30
0.0
 70
128
 71
161
 72
168
 73
171
 74
169
 0
VERTEX
 8
0
 10
0.0
 20
0.0
 30
0.0
 70
128
 71
170
 72
171
 73
168
 74
182
 0
VERTEX
 8
0
 10
0.0
 20
0.0
 30
0.0
 70
128
 71
170
 72
204
 73
206
 74
187
 0
VERTEX
 8
0
 10
0.0
 20
0.0
 30
0.0
 70
128
 71
174
 72
187
 73
186
 74
183
 0
VERTEX
 8
0
 10
0.0
 20
0.0
 30
0.0
 70
128
 71
172
 72
173
 73
174
 74
183
 0
VERTEX
 8
0
 10
0.0
 20
0.0
 30
0.0
 70
128
 71
175
 72
177
 73
163
 74
162
 0
VERTEX
 8
0
 10
0.0
 20
0.0
 30
0.0
 70
128
 71
179
 72
189
 73
165
 74
157
 0
VERTEX
 8
0
 10
0.0
 20
0.0
 30
0.0
 70
128
 71
175
 72
165
 73
176
 74
177
 0
VERTEX
 8
0
 10
0.0
 20
0.0
 30
0.0
 70
128
 71
176
 72
191
 73
180
 74
178
 0
VERTEX
 8
0
 10
0.0
 20
0.0
 30
0.0
 70
128
 71
194
 72
193
 73
179
 74
157
 0
VERTEX
 8
0
 10
0.0
 20
0.0
 30
0.0
 70
128
 71
178
 72
180
 73
190
 74
197
 0
VERTEX
 8
0
 10
0.0
 20
0.0
 30
0.0
 70
128
 71
211
 72
194
 73
197
 74
181
 0
VERTEX
 8
0
 10
0.0
 20
0.0
 30
0.0
 70
128
 71
183
 72
168
 73
161
 74
172
 0
VERTEX
 8
0
 10
0.0
 20
0.0
 30
0.0
 70
128
 71
182
 72
168
 73
183
 74
186
 0
VERTEX
 8
0
 10
0.0
 20
0.0
 30
0.0
 70
128
 71
200
 72
184
 73
170
 74
182
 0
VERTEX
 8
0
 10
0.0
 20
0.0
 30
0.0
 70
128
 71
199
 72
204
 73
170
 74
184
 0
VERTEX
 8
0
 10
0.0
 20
0.0
 30
0.0
 70
128
 71
204
 72
203
 73
222
 74
206
 0
VERTEX
 8
0
 10
0.0
 20
0.0
 30
0.0
 70
128
 71
188
 72
187
 73
206
 74
208
 0
VERTEX
 8
0
 10
0.0
 20
0.0
 30
0.0
 70
128
 71
185
 72
186
 73
187
 74
188
 0
VERTEX
 8
0
 10
0.0
 20
0.0
 30
0.0
 70
128
 71
193
 72
210
 73
189
 74
179
 0
VERTEX
 8
0
 10
0.0
 20
0.0
 30
0.0
 70
128
 71
176
 72
165
 73
189
 74
191
 0
VERTEX
 8
0
 10
0.0
 20
0.0
 30
0.0
 70
128
 71
190
 72
180
 73
191
 74
192
 0
VERTEX
 8
0
 10
0.0
 20
0.0
 30
0.0
 70
128
 71
196
 72
210
 73
193
 74
194
 0
VERTEX
 8
0
 10
0.0
 20
0.0
 30
0.0
 70
128
 71
190
 72
192
 73
195
 74
197
 0
VERTEX
 8
0
 10
0.0
 20
0.0
 30
0.0
 70
128
 71
194
 72
211
 73
213
 74
196
 0
VERTEX
 8
0
 10
0.0
 20
0.0
 30
0.0
 70
128
 71
181
 72
197
 73
195
 74
215
 0
VERTEX
 8
0
 10
0.0
 20
0.0
 30
0.0
 70
128
 71
224
 72
211
 73
181
 74
198
 0
VERTEX
 8
0
 10
0.0
 20
0.0
 30
0.0
 70
128
 71
182
 72
186
 73
185
 74
200
 0
VERTEX
 8
0
 10
0.0
 20
0.0
 30
0.0
 70
128
 71
201
 72
199
 73
184
 74
200
 0
VERTEX
 8
0
 10
0.0
 20
0.0
 30
0.0
 70
128
 71
201
 72
202
 73
204
 74
199
 0
VERTEX
 8
0
 10
0.0
 20
0.0
 30
0.0
 70
128
 71
202
 72
217
 73
203
 74
204
 0
VERTEX
 8
0
 10
0.0
 20
0.0
 30
0.0
 70
128
 71
203
 72
205
 73
230
 74
222
 0
VERTEX
 8
0
 10
0.0
 20
0.0
 30
0.0
 70
128
 71
206
 72
222
 73
218
 74
207
 0
VERTEX
 8
0
 10
0.0
 20
0.0
 30
0.0
 70
128
 71
209
 72
208
 73
206
 74
207
 0
VERTEX
 8
0
 10
0.0
 20
0.0
 30
0.0
 70
128
 71
188
 72
208
 73
209
 74
185
 0
VERTEX
 8
0
 10
0.0
 20
0.0
 30
0.0
 70
128
 71
210
 72
192
 73
191
 74
189
 0
VERTEX
 8
0
 10
0.0
 20
0.0
 30
0.0
 70
128
 71
196
 72
195
 73
192
 74
210
 0
VERTEX
 8
0
 10
0.0
 20
0.0
 30
0.0
 70
128
 71
211
 72
212
 73
223
 74
213
 0
VERTEX
 8
0
 10
0.0
 20
0.0
 30
0.0
 70
128
 71
196
 72
213
 73
215
 74
195
 0
VERTEX
 8
0
 10
0.0
 20
0.0
 30
0.0
 70
128
 71
214
 72
181
 73
215
 74
216
 0
VERTEX
 8
0
 10
0.0
 20
0.0
 30
0.0
 70
128
 71
224
 72
212
 73
211
 0
VERTEX
 8
0
 10
0.0
 20
0.0
 30
0.0
 70
128
 71
181
 72
214
 73
198
 0
VERTEX
 8
0
 10
0.0
 20
0.0
 30
0.0
 70
128
 71
225
 72
224
 73
198
 74
234
 0
VERTEX
 8
0
 10
0.0
 20
0.0
 30
0.0
 70
128
 71
209
 72
201
 73
200
 74
185
 0
VERTEX
 8
0
 10
0.0
 20
0.0
 30
0.0
 70
128
 71
207
 72
202
 73
201
 74
209
 0
VERTEX
 8
0
 10
0.0
 20
0.0
 30
0.0
 70
128
 71
217
 72
202
 73
207
 74
218
 0
VERTEX
 8
0
 10
0.0
 20
0.0
 30
0.0
 70
128
 71
217
 72
237
 73
219
 74
203
 0
VERTEX
 8
0
 10
0.0
 20
0.0
 30
0.0
 70
128
 71
219
 72
205
 73
203
 0
VERTEX
 8
0
 10
0.0
 20
0.0
 30
0.0
 70
128
 71
205
 72
238
 73
220
 74
230
 0
VERTEX
 8
0
 10
0.0
 20
0.0
 30
0.0
 70
128
 71
221
 72
222
 73
230
 0
VERTEX
 8
0
 10
0.0
 20
0.0
 30
0.0
 70
128
 71
222
 72
221
 73
231
 74
218
 0
VERTEX
 8
0
 10
0.0
 20
0.0
 30
0.0
 70
128
 71
212
 72
224
 73
232
 74
223
 0
VERTEX
 8
0
 10
0.0
 20
0.0
 30
0.0
 70
128
 71
216
 72
215
 73
213
 74
223
 0
VERTEX
 8
0
 10
0.0
 20
0.0
 30
0.0
 70
128
 71
198
 72
214
 73
216
 74
233
 0
VERTEX
 8
0
 10
0.0
 20
0.0
 30
0.0
 70
128
 71
224
 72
225
 73
226
 74
232
 0
VERTEX
 8
0
 10
0.0
 20
0.0
 30
0.0
 70
128
 71
234
 72
198
 73
233
 74
227
 0
VERTEX
 8
0
 10
0.0
 20
0.0
 30
0.0
 70
128
 71
241
 72
225
 73
234
 74
244
 0
VERTEX
 8
0
 10
0.0
 20
0.0
 30
0.0
 70
128
 71
237
 72
217
 73
218
 74
231
 0
VERTEX
 8
0
 10
0.0
 20
0.0
 30
0.0
 70
128
 71
205
 72
219
 73
237
 74
228
 0
VERTEX
 8
0
 10
0.0
 20
0.0
 30
0.0
 70
128
 71
238
 72
205
 73
228
 74
246
 0
VERTEX
 8
0
 10
0.0
 20
0.0
 30
0.0
 70
128
 71
238
 72
247
 73
229
 74
220
 0
VERTEX
 8
0
 10
0.0
 20
0.0
 30
0.0
 70
128
 71
230
 72
220
 73
240
 74
236
 0
VERTEX
 8
0
 10
0.0
 20
0.0
 30
0.0
 70
128
 71
221
 72
230
 73
236
 74
231
 0
VERTEX
 8
0
 10
0.0
 20
0.0
 30
0.0
 70
128
 71
233
 72
216
 73
223
 74
232
 0
VERTEX
 8
0
 10
0.0
 20
0.0
 30
0.0
 70
128
 71
241
 72
243
 73
226
 74
225
 0
VERTEX
 8
0
 10
0.0
 20
0.0
 30
0.0
 70
128
 71
227
 72
233
 73
232
 74
226
 0
VERTEX
 8
0
 10
0.0
 20
0.0
 30
0.0
 70
128
 71
244
 72
234
 73
227
 74
252
 0
VERTEX
 8
0
 10
0.0
 20
0.0
 30
0.0
 70
128
 71
251
 72
241
 73
244
 74
235
 0
VERTEX
 8
0
 10
0.0
 20
0.0
 30
0.0
 70
128
 71
231
 72
236
 73
228
 74
237
 0
VERTEX
 8
0
 10
0.0
 20
0.0
 30
0.0
 70
128
 71
236
 72
240
 73
246
 74
228
 0
VERTEX
 8
0
 10
0.0
 20
0.0
 30
0.0
 70
128
 71
248
 72
247
 73
238
 74
246
 0
VERTEX
 8
0
 10
0.0
 20
0.0
 30
0.0
 70
128
 71
247
 72
260
 73
239
 74
229
 0
VERTEX
 8
0
 10
0.0
 20
0.0
 30
0.0
 70
128
 71
220
 72
229
 73
245
 74
240
 0
VERTEX
 8
0
 10
0.0
 20
0.0
 30
0.0
 70
128
 71
241
 72
251
 73
242
 74
243
 0
VERTEX
 8
0
 10
0.0
 20
0.0
 30
0.0
 70
128
 71
252
 72
227
 73
226
 74
243
 0
VERTEX
 8
0
 10
0.0
 20
0.0
 30
0.0
 70
128
 71
235
 72
244
 73
252
 74
253
 0
VERTEX
 8
0
 10
0.0
 20
0.0
 30
0.0
 70
128
 71
257
 72
256
 73
251
 74
235
 0
VERTEX
 8
0
 10
0.0
 20
0.0
 30
0.0
 70
128
 71
240
 72
245
 73
248
 74
246
 0
VERTEX
 8
0
 10
0.0
 20
0.0
 30
0.0
 70
128
 71
260
 72
247
 73
248
 74
258
 0
VERTEX
 8
0
 10
0.0
 20
0.0
 30
0.0
 70
128
 71
249
 72
262
 73
239
 74
260
 0
VERTEX
 8
0
 10
0.0
 20
0.0
 30
0.0
 70
128
 71
229
 72
239
 73
250
 74
245
 0
VERTEX
 8
0
 10
0.0
 20
0.0
 30
0.0
 70
128
 71
264
 72
267
 73
242
 74
251
 0
VERTEX
 8
0
 10
0.0
 20
0.0
 30
0.0
 70
128
 71
243
 72
242
 73
253
 74
252
 0
VERTEX
 8
0
 10
0.0
 20
0.0
 30
0.0
 70
128
 71
253
 72
254
 73
255
 74
235
 0
VERTEX
 8
0
 10
0.0
 20
0.0
 30
0.0
 70
128
 71
266
 72
265
 73
256
 74
257
 0
VERTEX
 8
0
 10
0.0
 20
0.0
 30
0.0
 70
128
 71
256
 72
264
 73
251
 0
VERTEX
 8
0
 10
0.0
 20
0.0
 30
0.0
 70
128
 71
235
 72
255
 73
257
 0
VERTEX
 8
0
 10
0.0
 20
0.0
 30
0.0
 70
128
 71
258
 72
248
 73
245
 74
250
 0
VERTEX
 8
0
 10
0.0
 20
0.0
 30
0.0
 70
128
 71
268
 72
259
 73
260
 74
258
 0
VERTEX
 8
0
 10
0.0
 20
0.0
 30
0.0
 70
128
 71
269
 72
261
 73
262
 74
249
 0
VERTEX
 8
0
 10
0.0
 20
0.0
 30
0.0
 70
128
 71
263
 72
239
 73
262
 0
VERTEX
 8
0
 10
0.0
 20
0.0
 30
0.0
 70
128
 71
259
 72
249
 73
260
 0
VERTEX
 8
0
 10
0.0
 20
0.0
 30
0.0
 70
128
 71
270
 72
250
 73
239
 74
263
 0
VERTEX
 8
0
 10
0.0
 20
0.0
 30
0.0
 70
128
 71
264
 72
256
 73
265
 74
267
 0
VERTEX
 8
0
 10
0.0
 20
0.0
 30
0.0
 70
128
 71
253
 72
242
 73
267
 74
254
 0
VERTEX
 8
0
 10
0.0
 20
0.0
 30
0.0
 70
128
 71
257
 72
255
 73
254
 74
266
 0
VERTEX
 8
0
 10
0.0
 20
0.0
 30
0.0
 70
128
 71
267
 72
265
 73
266
 74
254
 0
VERTEX
 8
0
 10
0.0
 20
0.0
 30
0.0
 70
128
 71
258
 72
250
 73
270
 74
268
 0
VERTEX
 8
0
 10
0.0
 20
0.0
 30
0.0
 70
128
 71
249
 72
259
 73
268
 74
269
 0
VERTEX
 8
0
 10
0.0
 20
0.0
 30
0.0
 70
128
 71
269
 72
268
 73
270
 74
261
 0
VERTEX
 8
0
 10
0.0
 20
0.0
 30
0.0
 70
128
 71
263
 72
262
 73
261
 74
270
 0
VERTEX
 8
0
 10
0.0
 20
0.0
 30
0.0
 70
128
 71
276
 72
323
 73
312
 74
310
 0
VERTEX
 8
0
 10
0.0
 20
0.0
 30
0.0
 70
128
 71
323
 72
276
 73
271
 74
273
 0
VERTEX
 8
0
 10
0.0
 20
0.0
 30
0.0
 70
128
 71
275
 72
271
 73
276
 0
VERTEX
 8
0
 10
0.0
 20
0.0
 30
0.0
 70
128
 71
271
 72
277
 73
272
 74
273
 0
VERTEX
 8
0
 10
0.0
 20
0.0
 30
0.0
 70
128
 71
274
 72
323
 73
273
 0
VERTEX
 8
0
 10
0.0
 20
0.0
 30
0.0
 70
128
 71
280
 72
281
 73
271
 74
275
 0
VERTEX
 8
0
 10
0.0
 20
0.0
 30
0.0
 70
128
 71
275
 72
276
 73
332
 74
280
 0
VERTEX
 8
0
 10
0.0
 20
0.0
 30
0.0
 70
128
 71
281
 72
304
 73
277
 74
271
 0
VERTEX
 8
0
 10
0.0
 20
0.0
 30
0.0
 70
128
 71
286
 72
273
 73
272
 74
292
 0
VERTEX
 8
0
 10
0.0
 20
0.0
 30
0.0
 70
128
 71
279
 72
278
 73
323
 74
274
 0
VERTEX
 8
0
 10
0.0
 20
0.0
 30
0.0
 70
128
 71
273
 72
286
 73
279
 74
274
 0
VERTEX
 8
0
 10
0.0
 20
0.0
 30
0.0
 70
128
 71
280
 72
283
 73
285
 74
281
 0
VERTEX
 8
0
 10
0.0
 20
0.0
 30
0.0
 70
128
 71
332
 72
282
 73
283
 74
280
 0
VERTEX
 8
0
 10
0.0
 20
0.0
 30
0.0
 70
128
 71
281
 72
285
 73
284
 74
304
 0
VERTEX
 8
0
 10
0.0
 20
0.0
 30
0.0
 70
128
 71
292
 72
284
 73
285
 74
286
 0
VERTEX
 8
0
 10
0.0
 20
0.0
 30
0.0
 70
128
 71
279
 72
283
 73
282
 74
278
 0
VERTEX
 8
0
 10
0.0
 20
0.0
 30
0.0
 70
128
 71
286
 72
285
 73
283
 74
279
 0
VERTEX
 8
0
 10
0.0
 20
0.0
 30
0.0
 70
128
 71
304
 72
284
 73
287
 74
294
 0
VERTEX
 8
0
 10
0.0
 20
0.0
 30
0.0
 70
128
 71
291
 72
287
 73
284
 74
292
 0
VERTEX
 8
0
 10
0.0
 20
0.0
 30
0.0
 70
128
 71
294
 72
287
 73
288
 74
289
 0
VERTEX
 8
0
 10
0.0
 20
0.0
 30
0.0
 70
128
 71
304
 72
294
 73
299
 74
311
 0
VERTEX
 8
0
 10
0.0
 20
0.0
 30
0.0
 70
128
 71
290
 72
288
 73
287
 74
291
 0
VERTEX
 8
0
 10
0.0
 20
0.0
 30
0.0
 70
128
 71
291
 72
292
 73
293
 74
297
 0
VERTEX
 8
0
 10
0.0
 20
0.0
 30
0.0
 70
128
 71
289
 72
298
 73
299
 74
294
 0
VERTEX
 8
0
 10
0.0
 20
0.0
 30
0.0
 70
128
 71
299
 72
295
 73
307
 74
311
 0
VERTEX
 8
0
 10
0.0
 20
0.0
 30
0.0
 70
128
 71
296
 72
290
 73
291
 74
297
 0
VERTEX
 8
0
 10
0.0
 20
0.0
 30
0.0
 70
128
 71
293
 72
307
 73
295
 74
297
 0
VERTEX
 8
0
 10
0.0
 20
0.0
 30
0.0
 70
128
 71
298
 72
372
 73
295
 74
299
 0
VERTEX
 8
0
 10
0.0
 20
0.0
 30
0.0
 70
128
 71
297
 72
295
 73
372
 74
296
 0
VERTEX
 8
0
 10
0.0
 20
0.0
 30
0.0
 70
128
 71
292
 72
272
 73
302
 74
300
 0
VERTEX
 8
0
 10
0.0
 20
0.0
 30
0.0
 70
128
 71
303
 72
302
 73
272
 74
277
 0
VERTEX
 8
0
 10
0.0
 20
0.0
 30
0.0
 70
128
 71
302
 72
308
 73
305
 74
300
 0
VERTEX
 8
0
 10
0.0
 20
0.0
 30
0.0
 70
128
 71
292
 72
300
 73
301
 74
293
 0
VERTEX
 8
0
 10
0.0
 20
0.0
 30
0.0
 70
128
 71
302
 72
303
 73
309
 74
308
 0
VERTEX
 8
0
 10
0.0
 20
0.0
 30
0.0
 70
128
 71
320
 72
303
 73
277
 74
304
 0
VERTEX
 8
0
 10
0.0
 20
0.0
 30
0.0
 70
128
 71
315
 72
314
 73
305
 74
308
 0
VERTEX
 8
0
 10
0.0
 20
0.0
 30
0.0
 70
128
 71
301
 72
300
 73
305
 74
327
 0
VERTEX
 8
0
 10
0.0
 20
0.0
 30
0.0
 70
128
 71
301
 72
306
 73
307
 74
293
 0
VERTEX
 8
0
 10
0.0
 20
0.0
 30
0.0
 70
128
 71
319
 72
309
 73
303
 74
320
 0
VERTEX
 8
0
 10
0.0
 20
0.0
 30
0.0
 70
128
 71
308
 72
309
 73
310
 74
312
 0
VERTEX
 8
0
 10
0.0
 20
0.0
 30
0.0
 70
128
 71
321
 72
320
 73
304
 74
311
 0
VERTEX
 8
0
 10
0.0
 20
0.0
 30
0.0
 70
128
 71
312
 72
313
 73
314
 74
315
 0
VERTEX
 8
0
 10
0.0
 20
0.0
 30
0.0
 70
128
 71
316
 72
305
 73
314
 0
VERTEX
 8
0
 10
0.0
 20
0.0
 30
0.0
 70
128
 71
315
 72
308
 73
312
 0
VERTEX
 8
0
 10
0.0
 20
0.0
 30
0.0
 70
128
 71
327
 72
305
 73
316
 74
324
 0
VERTEX
 8
0
 10
0.0
 20
0.0
 30
0.0
 70
128
 71
327
 72
326
 73
306
 74
301
 0
VERTEX
 8
0
 10
0.0
 20
0.0
 30
0.0
 70
128
 71
311
 72
307
 73
306
 74
321
 0
VERTEX
 8
0
 10
0.0
 20
0.0
 30
0.0
 70
128
 71
309
 72
319
 73
317
 74
322
 0
VERTEX
 8
0
 10
0.0
 20
0.0
 30
0.0
 70
128
 71
318
 72
319
 73
320
 74
321
 0
VERTEX
 8
0
 10
0.0
 20
0.0
 30
0.0
 70
128
 71
322
 72
310
 73
309
 0
VERTEX
 8
0
 10
0.0
 20
0.0
 30
0.0
 70
128
 71
278
 72
313
 73
312
 74
323
 0
VERTEX
 8
0
 10
0.0
 20
0.0
 30
0.0
 70
128
 71
316
 72
314
 73
313
 74
331
 0
VERTEX
 8
0
 10
0.0
 20
0.0
 30
0.0
 70
128
 71
324
 72
316
 73
331
 74
341
 0
VERTEX
 8
0
 10
0.0
 20
0.0
 30
0.0
 70
128
 71
324
 72
325
 73
326
 74
327
 0
VERTEX
 8
0
 10
0.0
 20
0.0
 30
0.0
 70
128
 71
321
 72
306
 73
326
 74
318
 0
VERTEX
 8
0
 10
0.0
 20
0.0
 30
0.0
 70
128
 71
328
 72
317
 73
319
 0
VERTEX
 8
0
 10
0.0
 20
0.0
 30
0.0
 70
128
 71
322
 72
317
 73
329
 74
310
 0
VERTEX
 8
0
 10
0.0
 20
0.0
 30
0.0
 70
128
 71
333
 72
328
 73
319
 74
318
 0
VERTEX
 8
0
 10
0.0
 20
0.0
 30
0.0
 70
128
 71
278
 72
282
 73
330
 74
313
 0
VERTEX
 8
0
 10
0.0
 20
0.0
 30
0.0
 70
128
 71
313
 72
330
 73
334
 74
331
 0
VERTEX
 8
0
 10
0.0
 20
0.0
 30
0.0
 70
128
 71
336
 72
338
 73
341
 74
331
 0
VERTEX
 8
0
 10
0.0
 20
0.0
 30
0.0
 70
128
 71
341
 72
340
 73
325
 74
324
 0
VERTEX
 8
0
 10
0.0
 20
0.0
 30
0.0
 70
128
 71
318
 72
326
 73
325
 74
333
 0
VERTEX
 8
0
 10
0.0
 20
0.0
 30
0.0
 70
128
 71
342
 72
329
 73
317
 74
328
 0
VERTEX
 8
0
 10
0.0
 20
0.0
 30
0.0
 70
128
 71
332
 72
276
 73
310
 74
329
 0
VERTEX
 8
0
 10
0.0
 20
0.0
 30
0.0
 70
128
 71
349
 72
342
 73
328
 74
333
 0
VERTEX
 8
0
 10
0.0
 20
0.0
 30
0.0
 70
128
 71
329
 72
330
 73
282
 74
332
 0
VERTEX
 8
0
 10
0.0
 20
0.0
 30
0.0
 70
128
 71
342
 72
334
 73
330
 74
329
 0
VERTEX
 8
0
 10
0.0
 20
0.0
 30
0.0
 70
128
 71
331
 72
334
 73
335
 74
336
 0
VERTEX
 8
0
 10
0.0
 20
0.0
 30
0.0
 70
128
 71
346
 72
338
 73
336
 74
337
 0
VERTEX
 8
0
 10
0.0
 20
0.0
 30
0.0
 70
128
 71
338
 72
339
 73
340
 74
341
 0
VERTEX
 8
0
 10
0.0
 20
0.0
 30
0.0
 70
128
 71
333
 72
325
 73
340
 74
349
 0
VERTEX
 8
0
 10
0.0
 20
0.0
 30
0.0
 70
128
 71
342
 72
349
 73
343
 74
344
 0
VERTEX
 8
0
 10
0.0
 20
0.0
 30
0.0
 70
128
 71
344
 72
335
 73
334
 74
342
 0
VERTEX
 8
0
 10
0.0
 20
0.0
 30
0.0
 70
128
 71
335
 72
360
 73
356
 74
336
 0
VERTEX
 8
0
 10
0.0
 20
0.0
 30
0.0
 70
128
 71
346
 72
357
 73
338
 0
VERTEX
 8
0
 10
0.0
 20
0.0
 30
0.0
 70
128
 71
337
 72
336
 73
356
 0
VERTEX
 8
0
 10
0.0
 20
0.0
 30
0.0
 70
128
 71
345
 72
346
 73
337
 74
347
 0
VERTEX
 8
0
 10
0.0
 20
0.0
 30
0.0
 70
128
 71
357
 72
348
 73
339
 74
338
 0
VERTEX
 8
0
 10
0.0
 20
0.0
 30
0.0
 70
128
 71
349
 72
340
 73
339
 74
343
 0
VERTEX
 8
0
 10
0.0
 20
0.0
 30
0.0
 70
128
 71
344
 72
343
 73
350
 74
352
 0
VERTEX
 8
0
 10
0.0
 20
0.0
 30
0.0
 70
128
 71
364
 72
351
 73
335
 74
344
 0
VERTEX
 8
0
 10
0.0
 20
0.0
 30
0.0
 70
128
 71
354
 72
360
 73
335
 0
VERTEX
 8
0
 10
0.0
 20
0.0
 30
0.0
 70
128
 71
348
 72
357
 73
356
 74
360
 0
VERTEX
 8
0
 10
0.0
 20
0.0
 30
0.0
 70
128
 71
357
 72
346
 73
345
 74
361
 0
VERTEX
 8
0
 10
0.0
 20
0.0
 30
0.0
 70
128
 71
337
 72
356
 73
362
 74
347
 0
VERTEX
 8
0
 10
0.0
 20
0.0
 30
0.0
 70
128
 71
296
 72
345
 73
347
 74
290
 0
VERTEX
 8
0
 10
0.0
 20
0.0
 30
0.0
 70
128
 71
371
 72
339
 73
348
 0
VERTEX
 8
0
 10
0.0
 20
0.0
 30
0.0
 70
128
 71
343
 72
339
 73
368
 74
369
 0
VERTEX
 8
0
 10
0.0
 20
0.0
 30
0.0
 70
128
 71
350
 72
343
 73
369
 0
VERTEX
 8
0
 10
0.0
 20
0.0
 30
0.0
 70
128
 71
350
 72
363
 73
365
 74
352
 0
VERTEX
 8
0
 10
0.0
 20
0.0
 30
0.0
 70
128
 71
352
 72
364
 73
344
 0
VERTEX
 8
0
 10
0.0
 20
0.0
 30
0.0
 70
128
 71
369
 72
368
 73
351
 74
364
 0
VERTEX
 8
0
 10
0.0
 20
0.0
 30
0.0
 70
128
 71
353
 72
335
 73
351
 0
VERTEX
 8
0
 10
0.0
 20
0.0
 30
0.0
 70
128
 71
360
 72
354
 73
355
 74
358
 0
VERTEX
 8
0
 10
0.0
 20
0.0
 30
0.0
 70
128
 71
353
 72
354
 73
335
 0
VERTEX
 8
0
 10
0.0
 20
0.0
 30
0.0
 70
128
 71
361
 72
362
 73
356
 74
357
 0
VERTEX
 8
0
 10
0.0
 20
0.0
 30
0.0
 70
128
 71
358
 72
359
 73
348
 74
360
 0
VERTEX
 8
0
 10
0.0
 20
0.0
 30
0.0
 70
128
 71
345
 72
296
 73
361
 0
VERTEX
 8
0
 10
0.0
 20
0.0
 30
0.0
 70
128
 71
347
 72
362
 73
290
 0
VERTEX
 8
0
 10
0.0
 20
0.0
 30
0.0
 70
128
 71
371
 72
376
 73
339
 0
VERTEX
 8
0
 10
0.0
 20
0.0
 30
0.0
 70
128
 71
371
 72
348
 73
359
 74
373
 0
VERTEX
 8
0
 10
0.0
 20
0.0
 30
0.0
 70
128
 71
376
 72
368
 73
339
 0
VERTEX
 8
0
 10
0.0
 20
0.0
 30
0.0
 70
128
 71
369
 72
374
 73
363
 74
350
 0
VERTEX
 8
0
 10
0.0
 20
0.0
 30
0.0
 70
128
 71
298
 72
289
 73
365
 74
363
 0
VERTEX
 8
0
 10
0.0
 20
0.0
 30
0.0
 70
128
 71
375
 72
364
 73
352
 74
365
 0
VERTEX
 8
0
 10
0.0
 20
0.0
 30
0.0
 70
128
 71
366
 72
367
 73
351
 74
368
 0
VERTEX
 8
0
 10
0.0
 20
0.0
 30
0.0
 70
128
 71
375
 72
374
 73
369
 74
364
 0
VERTEX
 8
0
 10
0.0
 20
0.0
 30
0.0
 70
128
 71
353
 72
351
 73
367
 74
370
 0
VERTEX
 8
0
 10
0.0
 20
0.0
 30
0.0
 70
128
 71
373
 72
355
 73
354
 74
371
 0
VERTEX
 8
0
 10
0.0
 20
0.0
 30
0.0
 70
128
 71
355
 72
288
 73
358
 0
VERTEX
 8
0
 10
0.0
 20
0.0
 30
0.0
 70
128
 71
376
 72
371
 73
354
 74
353
 0
VERTEX
 8
0
 10
0.0
 20
0.0
 30
0.0
 70
128
 71
361
 72
359
 73
358
 74
362
 0
VERTEX
 8
0
 10
0.0
 20
0.0
 30
0.0
 70
128
 71
296
 72
372
 73
359
 74
361
 0
VERTEX
 8
0
 10
0.0
 20
0.0
 30
0.0
 70
128
 71
362
 72
358
 73
288
 74
290
 0
VERTEX
 8
0
 10
0.0
 20
0.0
 30
0.0
 70
128
 71
359
 72
372
 73
373
 0
VERTEX
 8
0
 10
0.0
 20
0.0
 30
0.0
 70
128
 71
368
 72
376
 73
377
 74
366
 0
VERTEX
 8
0
 10
0.0
 20
0.0
 30
0.0
 70
128
 71
363
 72
374
 73
298
 0
VERTEX
 8
0
 10
0.0
 20
0.0
 30
0.0
 70
128
 71
365
 72
289
 73
375
 0
VERTEX
 8
0
 10
0.0
 20
0.0
 30
0.0
 70
128
 71
366
 72
374
 73
375
 74
367
 0
VERTEX
 8
0
 10
0.0
 20
0.0
 30
0.0
 70
128
 71
367
 72
288
 73
370
 0
VERTEX
 8
0
 10
0.0
 20
0.0
 30
0.0
 70
128
 71
370
 72
377
 73
376
 74
353
 0
VERTEX
 8
0
 10
0.0
 20
0.0
 30
0.0
 70
128
 71
373
 72
377
 73
370
 74
355
 0
VERTEX
 8
0
 10
0.0
 20
0.0
 30
0.0
 70
128
 71
370
 72
288
 73
355
 0
VERTEX
 8
0
 10
0.0
 20
0.0
 30
0.0
 70
128
 71
373
 72
372
 73
377
 0
VERTEX
 8
0
 10
0.0
 20
0.0
 30
0.0
 70
128
 71
377
 72
372
 73
366
 0
VERTEX
 8
0
 10
0.0
 20
0.0
 30
0.0
 70
128
 71
374
 72
366
 73
372
 74
298
 0
VERTEX
 8
0
 10
0.0
 20
0.0
 30
0.0
 70
128
 71
289
 72
288
 73
367
 74
375
 0
VERTEX
 8
0
 10
0.0
 20
0.0
 30
0.0
 70
128
 71
380
 72
523
 73
378
 74
381
 0
VERTEX
 8
0
 10
0.0
 20
0.0
 30
0.0
 70
128
 71
379
 72
385
 73
523
 74
380
 0
VERTEX
 8
0
 10
0.0
 20
0.0
 30
0.0
 70
128
 71
538
 72
384
 73
381
 74
378
 0
VERTEX
 8
0
 10
0.0
 20
0.0
 30
0.0
 70
128
 71
382
 72
385
 73
379
 0
VERTEX
 8
0
 10
0.0
 20
0.0
 30
0.0
 70
128
 71
538
 72
383
 73
384
 0
VERTEX
 8
0
 10
0.0
 20
0.0
 30
0.0
 70
128
 71
385
 72
382
 73
386
 0
VERTEX
 8
0
 10
0.0
 20
0.0
 30
0.0
 70
128
 71
417
 72
386
 73
382
 74
379
 0
VERTEX
 8
0
 10
0.0
 20
0.0
 30
0.0
 70
128
 71
383
 72
538
 73
388
 0
VERTEX
 8
0
 10
0.0
 20
0.0
 30
0.0
 70
128
 71
384
 72
383
 73
388
 74
416
 0
VERTEX
 8
0
 10
0.0
 20
0.0
 30
0.0
 70
128
 71
538
 72
385
 73
386
 74
388
 0
VERTEX
 8
0
 10
0.0
 20
0.0
 30
0.0
 70
128
 71
424
 72
423
 73
386
 74
417
 0
VERTEX
 8
0
 10
0.0
 20
0.0
 30
0.0
 70
128
 71
416
 72
388
 73
432
 74
387
 0
VERTEX
 8
0
 10
0.0
 20
0.0
 30
0.0
 70
128
 71
390
 72
388
 73
386
 74
389
 0
VERTEX
 8
0
 10
0.0
 20
0.0
 30
0.0
 70
128
 71
389
 72
386
 73
423
 0
VERTEX
 8
0
 10
0.0
 20
0.0
 30
0.0
 70
128
 71
390
 72
432
 73
388
 0
VERTEX
 8
0
 10
0.0
 20
0.0
 30
0.0
 70
128
 71
398
 72
392
 73
394
 74
399
 0
VERTEX
 8
0
 10
0.0
 20
0.0
 30
0.0
 70
128
 71
398
 72
397
 73
391
 74
392
 0
VERTEX
 8
0
 10
0.0
 20
0.0
 30
0.0
 70
128
 71
391
 72
393
 73
394
 74
392
 0
VERTEX
 8
0
 10
0.0
 20
0.0
 30
0.0
 70
128
 71
399
 72
394
 73
395
 74
396
 0
VERTEX
 8
0
 10
0.0
 20
0.0
 30
0.0
 70
128
 71
400
 72
397
 73
398
 74
399
 0
VERTEX
 8
0
 10
0.0
 20
0.0
 30
0.0
 70
128
 71
400
 72
393
 73
391
 74
397
 0
VERTEX
 8
0
 10
0.0
 20
0.0
 30
0.0
 70
128
 71
394
 72
393
 73
405
 74
395
 0
VERTEX
 8
0
 10
0.0
 20
0.0
 30
0.0
 70
128
 71
396
 72
395
 73
401
 74
403
 0
VERTEX
 8
0
 10
0.0
 20
0.0
 30
0.0
 70
128
 71
396
 72
406
 73
400
 74
399
 0
VERTEX
 8
0
 10
0.0
 20
0.0
 30
0.0
 70
128
 71
406
 72
405
 73
393
 74
400
 0
VERTEX
 8
0
 10
0.0
 20
0.0
 30
0.0
 70
128
 71
395
 72
405
 73
402
 74
401
 0
VERTEX
 8
0
 10
0.0
 20
0.0
 30
0.0
 70
128
 71
410
 72
403
 73
401
 74
408
 0
VERTEX
 8
0
 10
0.0
 20
0.0
 30
0.0
 70
128
 71
403
 72
404
 73
406
 74
396
 0
VERTEX
 8
0
 10
0.0
 20
0.0
 30
0.0
 70
128
 71
404
 72
402
 73
405
 74
406
 0
VERTEX
 8
0
 10
0.0
 20
0.0
 30
0.0
 70
128
 71
407
 72
408
 73
401
 74
402
 0
VERTEX
 8
0
 10
0.0
 20
0.0
 30
0.0
 70
128
 71
410
 72
413
 73
404
 74
403
 0
VERTEX
 8
0
 10
0.0
 20
0.0
 30
0.0
 70
128
 71
410
 72
408
 73
411
 74
409
 0
VERTEX
 8
0
 10
0.0
 20
0.0
 30
0.0
 70
128
 71
402
 72
404
 73
413
 74
407
 0
VERTEX
 8
0
 10
0.0
 20
0.0
 30
0.0
 70
128
 71
408
 72
407
 73
412
 74
411
 0
VERTEX
 8
0
 10
0.0
 20
0.0
 30
0.0
 70
128
 71
409
 72
415
 73
413
 74
410
 0
VERTEX
 8
0
 10
0.0
 20
0.0
 30
0.0
 70
128
 71
417
 72
379
 73
409
 74
411
 0
VERTEX
 8
0
 10
0.0
 20
0.0
 30
0.0
 70
128
 71
415
 72
412
 73
407
 74
413
 0
VERTEX
 8
0
 10
0.0
 20
0.0
 30
0.0
 70
128
 71
411
 72
412
 73
420
 74
414
 0
VERTEX
 8
0
 10
0.0
 20
0.0
 30
0.0
 70
128
 71
415
 72
409
 73
379
 0
VERTEX
 8
0
 10
0.0
 20
0.0
 30
0.0
 70
128
 71
416
 72
417
 73
411
 74
414
 0
VERTEX
 8
0
 10
0.0
 20
0.0
 30
0.0
 70
128
 71
412
 72
415
 73
419
 0
VERTEX
 8
0
 10
0.0
 20
0.0
 30
0.0
 70
128
 71
419
 72
418
 73
420
 74
412
 0
VERTEX
 8
0
 10
0.0
 20
0.0
 30
0.0
 70
128
 71
414
 72
420
 73
421
 74
422
 0
VERTEX
 8
0
 10
0.0
 20
0.0
 30
0.0
 70
128
 71
415
 72
379
 73
380
 74
419
 0
VERTEX
 8
0
 10
0.0
 20
0.0
 30
0.0
 70
128
 71
387
 72
424
 73
417
 74
416
 0
VERTEX
 8
0
 10
0.0
 20
0.0
 30
0.0
 70
128
 71
416
 72
414
 73
431
 74
384
 0
VERTEX
 8
0
 10
0.0
 20
0.0
 30
0.0
 70
128
 71
426
 72
425
 73
418
 74
419
 0
VERTEX
 8
0
 10
0.0
 20
0.0
 30
0.0
 70
128
 71
420
 72
418
 73
430
 0
VERTEX
 8
0
 10
0.0
 20
0.0
 30
0.0
 70
128
 71
420
 72
430
 73
429
 74
421
 0
VERTEX
 8
0
 10
0.0
 20
0.0
 30
0.0
 70
128
 71
441
 72
445
 73
422
 74
421
 0
VERTEX
 8
0
 10
0.0
 20
0.0
 30
0.0
 70
128
 71
422
 72
428
 73
431
 74
414
 0
VERTEX
 8
0
 10
0.0
 20
0.0
 30
0.0
 70
128
 71
380
 72
438
 73
419
 0
VERTEX
 8
0
 10
0.0
 20
0.0
 30
0.0
 70
128
 71
432
 72
423
 73
424
 74
387
 0
VERTEX
 8
0
 10
0.0
 20
0.0
 30
0.0
 70
128
 71
431
 72
430
 73
384
 0
VERTEX
 8
0
 10
0.0
 20
0.0
 30
0.0
 70
128
 71
425
 72
426
 73
447
 74
433
 0
VERTEX
 8
0
 10
0.0
 20
0.0
 30
0.0
 70
128
 71
427
 72
418
 73
425
 74
439
 0
VERTEX
 8
0
 10
0.0
 20
0.0
 30
0.0
 70
128
 71
419
 72
438
 73
440
 74
426
 0
VERTEX
 8
0
 10
0.0
 20
0.0
 30
0.0
 70
128
 71
381
 72
384
 73
430
 74
418
 0
VERTEX
 8
0
 10
0.0
 20
0.0
 30
0.0
 70
128
 71
428
 72
429
 73
430
 74
431
 0
VERTEX
 8
0
 10
0.0
 20
0.0
 30
0.0
 70
128
 71
421
 72
429
 73
442
 74
441
 0
VERTEX
 8
0
 10
0.0
 20
0.0
 30
0.0
 70
128
 71
445
 72
441
 73
461
 74
444
 0
VERTEX
 8
0
 10
0.0
 20
0.0
 30
0.0
 70
128
 71
460
 72
428
 73
422
 74
445
 0
VERTEX
 8
0
 10
0.0
 20
0.0
 30
0.0
 70
128
 71
427
 72
438
 73
380
 74
381
 0
VERTEX
 8
0
 10
0.0
 20
0.0
 30
0.0
 70
128
 71
423
 72
432
 73
390
 74
389
 0
VERTEX
 8
0
 10
0.0
 20
0.0
 30
0.0
 70
128
 71
466
 72
447
 73
426
 0
VERTEX
 8
0
 10
0.0
 20
0.0
 30
0.0
 70
128
 71
433
 72
447
 73
434
 74
435
 0
VERTEX
 8
0
 10
0.0
 20
0.0
 30
0.0
 70
128
 71
433
 72
475
 73
425
 0
VERTEX
 8
0
 10
0.0
 20
0.0
 30
0.0
 70
128
 71
427
 72
381
 73
418
 0
VERTEX
 8
0
 10
0.0
 20
0.0
 30
0.0
 70
128
 71
439
 72
425
 73
436
 74
437
 0
VERTEX
 8
0
 10
0.0
 20
0.0
 30
0.0
 70
128
 71
438
 72
427
 73
439
 74
440
 0
VERTEX
 8
0
 10
0.0
 20
0.0
 30
0.0
 70
128
 71
485
 72
484
 73
426
 74
440
 0
VERTEX
 8
0
 10
0.0
 20
0.0
 30
0.0
 70
128
 71
460
 72
442
 73
429
 74
428
 0
VERTEX
 8
0
 10
0.0
 20
0.0
 30
0.0
 70
128
 71
441
 72
442
 73
443
 74
461
 0
VERTEX
 8
0
 10
0.0
 20
0.0
 30
0.0
 70
128
 71
444
 72
461
 73
462
 74
488
 0
VERTEX
 8
0
 10
0.0
 20
0.0
 30
0.0
 70
128
 71
444
 72
459
 73
460
 74
445
 0
VERTEX
 8
0
 10
0.0
 20
0.0
 30
0.0
 70
128
 71
466
 72
465
 73
446
 74
447
 0
VERTEX
 8
0
 10
0.0
 20
0.0
 30
0.0
 70
128
 71
466
 72
426
 73
468
 0
VERTEX
 8
0
 10
0.0
 20
0.0
 30
0.0
 70
128
 71
447
 72
446
 73
469
 74
434
 0
VERTEX
 8
0
 10
0.0
 20
0.0
 30
0.0
 70
128
 71
495
 72
448
 73
435
 74
434
 0
VERTEX
 8
0
 10
0.0
 20
0.0
 30
0.0
 70
128
 71
435
 72
449
 73
450
 74
433
 0
VERTEX
 8
0
 10
0.0
 20
0.0
 30
0.0
 70
128
 71
433
 72
450
 73
476
 74
475
 0
VERTEX
 8
0
 10
0.0
 20
0.0
 30
0.0
 70
128
 71
475
 72
451
 73
425
 0
VERTEX
 8
0
 10
0.0
 20
0.0
 30
0.0
 70
128
 71
497
 72
436
 73
425
 0
VERTEX
 8
0
 10
0.0
 20
0.0
 30
0.0
 70
128
 71
437
 72
436
 73
452
 74
480
 0
VERTEX
 8
0
 10
0.0
 20
0.0
 30
0.0
 70
128
 71
453
 72
439
 73
437
 0
VERTEX
 8
0
 10
0.0
 20
0.0
 30
0.0
 70
128
 71
440
 72
439
 73
454
 74
455
 0
VERTEX
 8
0
 10
0.0
 20
0.0
 30
0.0
 70
128
 71
456
 72
457
 73
484
 74
485
 0
VERTEX
 8
0
 10
0.0
 20
0.0
 30
0.0
 70
128
 71
458
 72
426
 73
484
 0
VERTEX
 8
0
 10
0.0
 20
0.0
 30
0.0
 70
128
 71
511
 72
485
 73
440
 0
VERTEX
 8
0
 10
0.0
 20
0.0
 30
0.0
 70
128
 71
459
 72
443
 73
442
 74
460
 0
VERTEX
 8
0
 10
0.0
 20
0.0
 30
0.0
 70
128
 71
461
 72
443
 73
487
 74
462
 0
VERTEX
 8
0
 10
0.0
 20
0.0
 30
0.0
 70
128
 71
462
 72
463
 73
464
 74
488
 0
VERTEX
 8
0
 10
0.0
 20
0.0
 30
0.0
 70
128
 71
488
 72
514
 73
459
 74
444
 0
VERTEX
 8
0
 10
0.0
 20
0.0
 30
0.0
 70
128
 71
470
 72
489
 73
465
 74
466
 0
VERTEX
 8
0
 10
0.0
 20
0.0
 30
0.0
 70
128
 71
446
 72
465
 73
507
 74
516
 0
VERTEX
 8
0
 10
0.0
 20
0.0
 30
0.0
 70
128
 71
468
 72
426
 73
458
 0
VERTEX
 8
0
 10
0.0
 20
0.0
 30
0.0
 70
128
 71
467
 72
470
 73
466
 74
468
 0
VERTEX
 8
0
 10
0.0
 20
0.0
 30
0.0
 70
128
 71
469
 72
446
 73
450
 74
449
 0
VERTEX
 8
0
 10
0.0
 20
0.0
 30
0.0
 70
128
 71
434
 72
469
 73
489
 74
470
 0
VERTEX
 8
0
 10
0.0
 20
0.0
 30
0.0
 70
128
 71
471
 72
472
 73
448
 74
495
 0
VERTEX
 8
0
 10
0.0
 20
0.0
 30
0.0
 70
128
 71
448
 72
473
 73
435
 0
VERTEX
 8
0
 10
0.0
 20
0.0
 30
0.0
 70
128
 71
470
 72
495
 73
434
 0
VERTEX
 8
0
 10
0.0
 20
0.0
 30
0.0
 70
128
 71
473
 72
477
 73
449
 74
435
 0
VERTEX
 8
0
 10
0.0
 20
0.0
 30
0.0
 70
128
 71
476
 72
450
 73
474
 74
498
 0
VERTEX
 8
0
 10
0.0
 20
0.0
 30
0.0
 70
128
 71
475
 72
476
 73
477
 74
473
 0
VERTEX
 8
0
 10
0.0
 20
0.0
 30
0.0
 70
128
 71
451
 72
475
 73
473
 74
478
 0
VERTEX
 8
0
 10
0.0
 20
0.0
 30
0.0
 70
128
 71
451
 72
497
 73
425
 0
VERTEX
 8
0
 10
0.0
 20
0.0
 30
0.0
 70
128
 71
498
 72
436
 73
497
 74
476
 0
VERTEX
 8
0
 10
0.0
 20
0.0
 30
0.0
 70
128
 71
498
 72
479
 73
452
 74
436
 0
VERTEX
 8
0
 10
0.0
 20
0.0
 30
0.0
 70
128
 71
480
 72
452
 73
448
 74
522
 0
VERTEX
 8
0
 10
0.0
 20
0.0
 30
0.0
 70
128
 71
500
 72
481
 73
437
 74
480
 0
VERTEX
 8
0
 10
0.0
 20
0.0
 30
0.0
 70
128
 71
501
 72
439
 73
453
 0
VERTEX
 8
0
 10
0.0
 20
0.0
 30
0.0
 70
128
 71
525
 72
453
 73
437
 74
481
 0
VERTEX
 8
0
 10
0.0
 20
0.0
 30
0.0
 70
128
 71
482
 72
454
 73
439
 0
VERTEX
 8
0
 10
0.0
 20
0.0
 30
0.0
 70
128
 71
483
 72
455
 73
454
 74
505
 0
VERTEX
 8
0
 10
0.0
 20
0.0
 30
0.0
 70
128
 71
532
 72
440
 73
455
 0
VERTEX
 8
0
 10
0.0
 20
0.0
 30
0.0
 70
128
 71
521
 72
495
 73
457
 74
456
 0
VERTEX
 8
0
 10
0.0
 20
0.0
 30
0.0
 70
128
 71
508
 72
507
 73
484
 74
457
 0
VERTEX
 8
0
 10
0.0
 20
0.0
 30
0.0
 70
128
 71
506
 72
509
 73
456
 74
485
 0
VERTEX
 8
0
 10
0.0
 20
0.0
 30
0.0
 70
128
 71
484
 72
507
 73
465
 74
458
 0
VERTEX
 8
0
 10
0.0
 20
0.0
 30
0.0
 70
128
 71
511
 72
531
 73
506
 74
485
 0
VERTEX
 8
0
 10
0.0
 20
0.0
 30
0.0
 70
128
 71
511
 72
440
 73
486
 0
VERTEX
 8
0
 10
0.0
 20
0.0
 30
0.0
 70
128
 71
514
 72
487
 73
443
 74
459
 0
VERTEX
 8
0
 10
0.0
 20
0.0
 30
0.0
 70
128
 71
462
 72
487
 73
513
 74
463
 0
VERTEX
 8
0
 10
0.0
 20
0.0
 30
0.0
 70
128
 71
464
 72
463
 73
513
 74
515
 0
VERTEX
 8
0
 10
0.0
 20
0.0
 30
0.0
 70
128
 71
464
 72
515
 73
514
 74
488
 0
VERTEX
 8
0
 10
0.0
 20
0.0
 30
0.0
 70
128
 71
465
 72
489
 73
490
 74
458
 0
VERTEX
 8
0
 10
0.0
 20
0.0
 30
0.0
 70
128
 71
517
 72
516
 73
507
 74
506
 0
VERTEX
 8
0
 10
0.0
 20
0.0
 30
0.0
 70
128
 71
516
 72
474
 73
450
 74
446
 0
VERTEX
 8
0
 10
0.0
 20
0.0
 30
0.0
 70
128
 71
468
 72
458
 73
490
 74
467
 0
VERTEX
 8
0
 10
0.0
 20
0.0
 30
0.0
 70
128
 71
470
 72
467
 73
495
 0
VERTEX
 8
0
 10
0.0
 20
0.0
 30
0.0
 70
128
 71
491
 72
492
 73
469
 74
449
 0
VERTEX
 8
0
 10
0.0
 20
0.0
 30
0.0
 70
128
 71
489
 72
469
 73
492
 74
508
 0
VERTEX
 8
0
 10
0.0
 20
0.0
 30
0.0
 70
128
 71
543
 72
537
 73
472
 74
471
 0
VERTEX
 8
0
 10
0.0
 20
0.0
 30
0.0
 70
128
 71
522
 72
448
 73
472
 74
493
 0
VERTEX
 8
0
 10
0.0
 20
0.0
 30
0.0
 70
128
 71
494
 72
471
 73
495
 74
521
 0
VERTEX
 8
0
 10
0.0
 20
0.0
 30
0.0
 70
128
 71
448
 72
478
 73
473
 0
VERTEX
 8
0
 10
0.0
 20
0.0
 30
0.0
 70
128
 71
449
 72
477
 73
479
 74
491
 0
VERTEX
 8
0
 10
0.0
 20
0.0
 30
0.0
 70
128
 71
481
 72
498
 73
474
 74
496
 0
VERTEX
 8
0
 10
0.0
 20
0.0
 30
0.0
 70
128
 71
477
 72
476
 73
497
 74
499
 0
VERTEX
 8
0
 10
0.0
 20
0.0
 30
0.0
 70
128
 71
478
 72
499
 73
497
 74
451
 0
VERTEX
 8
0
 10
0.0
 20
0.0
 30
0.0
 70
128
 71
500
 72
479
 73
498
 74
481
 0
VERTEX
 8
0
 10
0.0
 20
0.0
 30
0.0
 70
128
 71
477
 72
499
 73
452
 74
479
 0
VERTEX
 8
0
 10
0.0
 20
0.0
 30
0.0
 70
128
 71
452
 72
499
 73
448
 0
VERTEX
 8
0
 10
0.0
 20
0.0
 30
0.0
 70
128
 71
503
 72
480
 73
522
 0
VERTEX
 8
0
 10
0.0
 20
0.0
 30
0.0
 70
128
 71
500
 72
480
 73
503
 74
502
 0
VERTEX
 8
0
 10
0.0
 20
0.0
 30
0.0
 70
128
 71
482
 72
439
 73
501
 0
VERTEX
 8
0
 10
0.0
 20
0.0
 30
0.0
 70
128
 71
453
 72
503
 73
524
 74
501
 0
VERTEX
 8
0
 10
0.0
 20
0.0
 30
0.0
 70
128
 71
525
 72
502
 73
503
 74
453
 0
VERTEX
 8
0
 10
0.0
 20
0.0
 30
0.0
 70
128
 71
481
 72
496
 73
528
 74
525
 0
VERTEX
 8
0
 10
0.0
 20
0.0
 30
0.0
 70
128
 71
454
 72
482
 73
525
 74
528
 0
VERTEX
 8
0
 10
0.0
 20
0.0
 30
0.0
 70
128
 71
529
 72
527
 73
455
 74
483
 0
VERTEX
 8
0
 10
0.0
 20
0.0
 30
0.0
 70
128
 71
528
 72
504
 73
505
 74
454
 0
VERTEX
 8
0
 10
0.0
 20
0.0
 30
0.0
 70
128
 71
522
 72
521
 73
483
 74
505
 0
VERTEX
 8
0
 10
0.0
 20
0.0
 30
0.0
 70
128
 71
532
 72
486
 73
440
 0
VERTEX
 8
0
 10
0.0
 20
0.0
 30
0.0
 70
128
 71
532
 72
455
 73
527
 74
531
 0
VERTEX
 8
0
 10
0.0
 20
0.0
 30
0.0
 70
128
 71
490
 72
457
 73
495
 0
VERTEX
 8
0
 10
0.0
 20
0.0
 30
0.0
 70
128
 71
512
 72
521
 73
456
 0
VERTEX
 8
0
 10
0.0
 20
0.0
 30
0.0
 70
128
 71
506
 72
507
 73
508
 74
509
 0
VERTEX
 8
0
 10
0.0
 20
0.0
 30
0.0
 70
128
 71
508
 72
457
 73
490
 74
489
 0
VERTEX
 8
0
 10
0.0
 20
0.0
 30
0.0
 70
128
 71
510
 72
512
 73
456
 74
509
 0
VERTEX
 8
0
 10
0.0
 20
0.0
 30
0.0
 70
128
 71
510
 72
531
 73
511
 74
512
 0
VERTEX
 8
0
 10
0.0
 20
0.0
 30
0.0
 70
128
 71
517
 72
506
 73
531
 74
527
 0
VERTEX
 8
0
 10
0.0
 20
0.0
 30
0.0
 70
128
 71
512
 72
511
 73
486
 74
533
 0
VERTEX
 8
0
 10
0.0
 20
0.0
 30
0.0
 70
128
 71
513
 72
487
 73
514
 74
515
 0
VERTEX
 8
0
 10
0.0
 20
0.0
 30
0.0
 70
128
 71
534
 72
492
 73
516
 74
517
 0
VERTEX
 8
0
 10
0.0
 20
0.0
 30
0.0
 70
128
 71
516
 72
492
 73
491
 74
474
 0
VERTEX
 8
0
 10
0.0
 20
0.0
 30
0.0
 70
128
 71
467
 72
490
 73
495
 0
VERTEX
 8
0
 10
0.0
 20
0.0
 30
0.0
 70
128
 71
509
 72
508
 73
492
 74
534
 0
VERTEX
 8
0
 10
0.0
 20
0.0
 30
0.0
 70
128
 71
518
 72
537
 73
543
 74
519
 0
VERTEX
 8
0
 10
0.0
 20
0.0
 30
0.0
 70
128
 71
537
 72
520
 73
472
 0
VERTEX
 8
0
 10
0.0
 20
0.0
 30
0.0
 70
128
 71
543
 72
471
 73
540
 0
VERTEX
 8
0
 10
0.0
 20
0.0
 30
0.0
 70
128
 71
472
 72
378
 73
493
 0
VERTEX
 8
0
 10
0.0
 20
0.0
 30
0.0
 70
128
 71
521
 72
522
 73
493
 74
494
 0
VERTEX
 8
0
 10
0.0
 20
0.0
 30
0.0
 70
128
 71
471
 72
494
 73
523
 0
VERTEX
 8
0
 10
0.0
 20
0.0
 30
0.0
 70
128
 71
478
 72
448
 73
499
 0
VERTEX
 8
0
 10
0.0
 20
0.0
 30
0.0
 70
128
 71
535
 72
491
 73
479
 74
500
 0
VERTEX
 8
0
 10
0.0
 20
0.0
 30
0.0
 70
128
 71
496
 72
474
 73
491
 74
535
 0
VERTEX
 8
0
 10
0.0
 20
0.0
 30
0.0
 70
128
 71
522
 72
524
 73
503
 0
VERTEX
 8
0
 10
0.0
 20
0.0
 30
0.0
 70
128
 71
535
 72
500
 73
502
 74
504
 0
VERTEX
 8
0
 10
0.0
 20
0.0
 30
0.0
 70
128
 71
526
 72
482
 73
501
 74
524
 0
VERTEX
 8
0
 10
0.0
 20
0.0
 30
0.0
 70
128
 71
502
 72
525
 73
482
 74
526
 0
VERTEX
 8
0
 10
0.0
 20
0.0
 30
0.0
 70
128
 71
527
 72
528
 73
496
 74
517
 0
VERTEX
 8
0
 10
0.0
 20
0.0
 30
0.0
 70
128
 71
527
 72
529
 73
504
 74
528
 0
VERTEX
 8
0
 10
0.0
 20
0.0
 30
0.0
 70
128
 71
510
 72
529
 73
483
 74
530
 0
VERTEX
 8
0
 10
0.0
 20
0.0
 30
0.0
 70
128
 71
504
 72
502
 73
526
 74
505
 0
VERTEX
 8
0
 10
0.0
 20
0.0
 30
0.0
 70
128
 71
530
 72
483
 73
521
 0
VERTEX
 8
0
 10
0.0
 20
0.0
 30
0.0
 70
128
 71
505
 72
526
 73
522
 0
VERTEX
 8
0
 10
0.0
 20
0.0
 30
0.0
 70
128
 71
532
 72
530
 73
533
 74
486
 0
VERTEX
 8
0
 10
0.0
 20
0.0
 30
0.0
 70
128
 71
531
 72
510
 73
530
 74
532
 0
VERTEX
 8
0
 10
0.0
 20
0.0
 30
0.0
 70
128
 71
512
 72
533
 73
521
 0
VERTEX
 8
0
 10
0.0
 20
0.0
 30
0.0
 70
128
 71
509
 72
534
 73
529
 74
510
 0
VERTEX
 8
0
 10
0.0
 20
0.0
 30
0.0
 70
128
 71
534
 72
517
 73
496
 74
535
 0
VERTEX
 8
0
 10
0.0
 20
0.0
 30
0.0
 70
128
 71
544
 72
536
 73
537
 74
518
 0
VERTEX
 8
0
 10
0.0
 20
0.0
 30
0.0
 70
128
 71
519
 72
543
 73
542
 74
546
 0
VERTEX
 8
0
 10
0.0
 20
0.0
 30
0.0
 70
128
 71
519
 72
385
 73
538
 74
518
 0
VERTEX
 8
0
 10
0.0
 20
0.0
 30
0.0
 70
128
 71
536
 72
539
 73
520
 74
537
 0
VERTEX
 8
0
 10
0.0
 20
0.0
 30
0.0
 70
128
 71
538
 72
378
 73
472
 74
520
 0
VERTEX
 8
0
 10
0.0
 20
0.0
 30
0.0
 70
128
 71
471
 72
523
 73
385
 74
540
 0
VERTEX
 8
0
 10
0.0
 20
0.0
 30
0.0
 70
128
 71
541
 72
542
 73
543
 74
540
 0
VERTEX
 8
0
 10
0.0
 20
0.0
 30
0.0
 70
128
 71
378
 72
523
 73
494
 74
493
 0
VERTEX
 8
0
 10
0.0
 20
0.0
 30
0.0
 70
128
 71
526
 72
524
 73
522
 0
VERTEX
 8
0
 10
0.0
 20
0.0
 30
0.0
 70
128
 71
504
 72
529
 73
534
 74
535
 0
VERTEX
 8
0
 10
0.0
 20
0.0
 30
0.0
 70
128
 71
533
 72
530
 73
521
 0
VERTEX
 8
0
 10
0.0
 20
0.0
 30
0.0
 70
128
 71
536
 72
544
 73
558
 74
552
 0
VERTEX
 8
0
 10
0.0
 20
0.0
 30
0.0
 70
128
 71
518
 72
547
 73
550
 74
544
 0
VERTEX
 8
0
 10
0.0
 20
0.0
 30
0.0
 70
128
 71
553
 72
545
 73
546
 74
542
 0
VERTEX
 8
0
 10
0.0
 20
0.0
 30
0.0
 70
128
 71
548
 72
519
 73
546
 74
554
 0
VERTEX
 8
0
 10
0.0
 20
0.0
 30
0.0
 70
128
 71
519
 72
548
 73
385
 0
VERTEX
 8
0
 10
0.0
 20
0.0
 30
0.0
 70
128
 71
547
 72
518
 73
538
 0
VERTEX
 8
0
 10
0.0
 20
0.0
 30
0.0
 70
128
 71
562
 72
539
 73
536
 74
552
 0
VERTEX
 8
0
 10
0.0
 20
0.0
 30
0.0
 70
128
 71
547
 72
520
 73
539
 74
550
 0
VERTEX
 8
0
 10
0.0
 20
0.0
 30
0.0
 70
128
 71
547
 72
538
 73
520
 0
VERTEX
 8
0
 10
0.0
 20
0.0
 30
0.0
 70
128
 71
540
 72
385
 73
548
 0
VERTEX
 8
0
 10
0.0
 20
0.0
 30
0.0
 70
128
 71
541
 72
557
 73
553
 74
542
 0
VERTEX
 8
0
 10
0.0
 20
0.0
 30
0.0
 70
128
 71
554
 72
541
 73
540
 74
548
 0
VERTEX
 8
0
 10
0.0
 20
0.0
 30
0.0
 70
128
 71
549
 72
558
 73
544
 74
550
 0
VERTEX
 8
0
 10
0.0
 20
0.0
 30
0.0
 70
128
 71
559
 72
551
 73
552
 74
558
 0
VERTEX
 8
0
 10
0.0
 20
0.0
 30
0.0
 70
128
 71
545
 72
553
 73
568
 74
561
 0
VERTEX
 8
0
 10
0.0
 20
0.0
 30
0.0
 70
128
 71
554
 72
546
 73
545
 74
555
 0
VERTEX
 8
0
 10
0.0
 20
0.0
 30
0.0
 70
128
 71
550
 72
539
 73
562
 74
549
 0
VERTEX
 8
0
 10
0.0
 20
0.0
 30
0.0
 70
128
 71
551
 72
563
 73
562
 74
552
 0
VERTEX
 8
0
 10
0.0
 20
0.0
 30
0.0
 70
128
 71
555
 72
557
 73
541
 74
554
 0
VERTEX
 8
0
 10
0.0
 20
0.0
 30
0.0
 70
128
 71
556
 72
568
 73
553
 74
557
 0
VERTEX
 8
0
 10
0.0
 20
0.0
 30
0.0
 70
128
 71
558
 72
549
 73
564
 74
559
 0
VERTEX
 8
0
 10
0.0
 20
0.0
 30
0.0
 70
128
 71
560
 72
565
 73
551
 74
559
 0
VERTEX
 8
0
 10
0.0
 20
0.0
 30
0.0
 70
128
 71
561
 72
568
 73
572
 74
581
 0
VERTEX
 8
0
 10
0.0
 20
0.0
 30
0.0
 70
128
 71
555
 72
545
 73
561
 74
567
 0
VERTEX
 8
0
 10
0.0
 20
0.0
 30
0.0
 70
128
 71
549
 72
562
 73
563
 74
564
 0
VERTEX
 8
0
 10
0.0
 20
0.0
 30
0.0
 70
128
 71
565
 72
566
 73
563
 74
551
 0
VERTEX
 8
0
 10
0.0
 20
0.0
 30
0.0
 70
128
 71
567
 72
556
 73
557
 74
555
 0
VERTEX
 8
0
 10
0.0
 20
0.0
 30
0.0
 70
128
 71
573
 72
572
 73
568
 74
556
 0
VERTEX
 8
0
 10
0.0
 20
0.0
 30
0.0
 70
128
 71
559
 72
564
 73
574
 74
560
 0
VERTEX
 8
0
 10
0.0
 20
0.0
 30
0.0
 70
128
 71
569
 72
565
 73
560
 74
576
 0
VERTEX
 8
0
 10
0.0
 20
0.0
 30
0.0
 70
128
 71
572
 72
570
 73
571
 74
581
 0
VERTEX
 8
0
 10
0.0
 20
0.0
 30
0.0
 70
128
 71
567
 72
561
 73
581
 74
580
 0
VERTEX
 8
0
 10
0.0
 20
0.0
 30
0.0
 70
128
 71
564
 72
563
 73
566
 74
574
 0
VERTEX
 8
0
 10
0.0
 20
0.0
 30
0.0
 70
128
 71
569
 72
577
 73
566
 74
565
 0
VERTEX
 8
0
 10
0.0
 20
0.0
 30
0.0
 70
128
 71
580
 72
573
 73
556
 74
567
 0
VERTEX
 8
0
 10
0.0
 20
0.0
 30
0.0
 70
128
 71
578
 72
570
 73
572
 74
573
 0
VERTEX
 8
0
 10
0.0
 20
0.0
 30
0.0
 70
128
 71
560
 72
574
 73
575
 74
576
 0
VERTEX
 8
0
 10
0.0
 20
0.0
 30
0.0
 70
128
 71
575
 72
577
 73
569
 74
576
 0
VERTEX
 8
0
 10
0.0
 20
0.0
 30
0.0
 70
128
 71
571
 72
570
 73
578
 74
579
 0
VERTEX
 8
0
 10
0.0
 20
0.0
 30
0.0
 70
128
 71
580
 72
581
 73
571
 74
579
 0
VERTEX
 8
0
 10
0.0
 20
0.0
 30
0.0
 70
128
 71
566
 72
577
 73
575
 74
574
 0
VERTEX
 8
0
 10
0.0
 20
0.0
 30
0.0
 70
128
 71
578
 72
573
 73
580
 74
579
 0
SEQEND
 8
0
 0
ENDSEC
 0
EOF
