 0
SECTION
 2
HEADER
 9
$ACADVER
 1
AC1009
 9
$INSBASE
 10
0.0
 20
0.0
 30
0.0
 9
$EXTMIN
 10
0.0
 20
0.0
 30
0.0
 9
$EXTMAX
 10
0.0
 20
0.0
 30
0.0
 0
ENDSEC
 0
SECTION
 2
ENTITIES
 0
POLYLINE
 8
0
 70
64
 66
1
 10
0.0
 20
0.0
 30
0.0
 71
304
 72
310
 0
VERTEX
 8
0
 10
0.14
 20
0.057
 30
0.82
 70
192
 0
VERTEX
 8
0
 10
0.363
 20
0.057
 30
1.895
 70
192
 0
VERTEX
 8
0
 10
0.14
 20
0.042
 30
0.82
 70
192
 0
VERTEX
 8
0
 10
0.363
 20
0.057
 30
0.82
 70
192
 0
VERTEX
 8
0
 10
0.363
 20
0.042
 30
1.895
 70
192
 0
VERTEX
 8
0
 10
0.14
 20
0.042
 30
1.895
 70
192
 0
VERTEX
 8
0
 10
0.14
 20
0.057
 30
1.895
 70
192
 0
VERTEX
 8
0
 10
0.027
 20
0.042
 30
0.82
 70
192
 0
VERTEX
 8
0
 10
0.363
 20
0.042
 30
0.82
 70
192
 0
VERTEX
 8
0
 10
0.14
 20
0.042
 30
2.073
 70
192
 0
VERTEX
 8
0
 10
0.027
 20
0.042
 30
2.073
 70
192
 0
VERTEX
 8
0
 10
0.027
 20
0.042
 30
1.895
 70
192
 0
VERTEX
 8
0
 10
0.363
 20
0.042
 30
0.62
 70
192
 0
VERTEX
 8
0
 10
0.14
 20
0.042
 30
0.62
 70
192
 0
VERTEX
 8
0
 10
0.14
 20
0.057
 30
0.62
 70
192
 0
VERTEX
 8
0
 10
0.463
 20
0.042
 30
0.82
 70
192
 0
VERTEX
 8
0
 10
0.463
 20
0.057
 30
0.82
 70
192
 0
VERTEX
 8
0
 10
0.363
 20
0.042
 30
2.073
 70
192
 0
VERTEX
 8
0
 10
0.363
 20
0.08
 30
2.073
 70
192
 0
VERTEX
 8
0
 10
0.027
 20
0.08
 30
2.073
 70
192
 0
VERTEX
 8
0
 10
0.027
 20
0.08
 30
1.895
 70
192
 0
VERTEX
 8
0
 10
0.027
 20
0.08
 30
0.82
 70
192
 0
VERTEX
 8
0
 10
0.027
 20
0.08
 30
0.62
 70
192
 0
VERTEX
 8
0
 10
0.027
 20
0.042
 30
0.62
 70
192
 0
VERTEX
 8
0
 10
0.686
 20
0.042
 30
0.82
 70
192
 0
VERTEX
 8
0
 10
0.14
 20
0.042
 30
0.225
 70
192
 0
VERTEX
 8
0
 10
0.363
 20
0.057
 30
0.225
 70
192
 0
VERTEX
 8
0
 10
0.363
 20
0.057
 30
0.62
 70
192
 0
VERTEX
 8
0
 10
0.686
 20
0.057
 30
0.82
 70
192
 0
VERTEX
 8
0
 10
0.463
 20
0.042
 30
1.895
 70
192
 0
VERTEX
 8
0
 10
0.463
 20
0.057
 30
1.895
 70
192
 0
VERTEX
 8
0
 10
0.686
 20
0.057
 30
1.895
 70
192
 0
VERTEX
 8
0
 10
0.686
 20
0.042
 30
2.073
 70
192
 0
VERTEX
 8
0
 10
0.463
 20
0.042
 30
2.073
 70
192
 0
VERTEX
 8
0
 10
0.463
 20
0.08
 30
2.073
 70
192
 0
VERTEX
 8
0
 10
0.14
 20
0.08
 30
2.073
 70
192
 0
VERTEX
 8
0
 10
0.14
 20
0.08
 30
1.895
 70
192
 0
VERTEX
 8
0
 10
0.14
 20
0.065
 30
0.82
 70
192
 0
VERTEX
 8
0
 10
0.14
 20
0.08
 30
0.62
 70
192
 0
VERTEX
 8
0
 10
0.027
 20
0.042
 30
0.225
 70
192
 0
VERTEX
 8
0
 10
0.14
 20
0.042
 30
0.0
 70
192
 0
VERTEX
 8
0
 10
0.363
 20
0.042
 30
0.0
 70
192
 0
VERTEX
 8
0
 10
0.463
 20
0.042
 30
0.225
 70
192
 0
VERTEX
 8
0
 10
0.686
 20
0.042
 30
0.62
 70
192
 0
VERTEX
 8
0
 10
0.463
 20
0.042
 30
0.62
 70
192
 0
VERTEX
 8
0
 10
0.463
 20
0.057
 30
0.62
 70
192
 0
VERTEX
 8
0
 10
0.686
 20
0.057
 30
0.62
 70
192
 0
VERTEX
 8
0
 10
0.799
 20
0.042
 30
0.62
 70
192
 0
VERTEX
 8
0
 10
0.363
 20
0.042
 30
0.225
 70
192
 0
VERTEX
 8
0
 10
0.14
 20
0.057
 30
0.225
 70
192
 0
VERTEX
 8
0
 10
0.686
 20
0.042
 30
1.895
 70
192
 0
VERTEX
 8
0
 10
0.799
 20
0.042
 30
2.073
 70
192
 0
VERTEX
 8
0
 10
0.686
 20
0.08
 30
2.073
 70
192
 0
VERTEX
 8
0
 10
0.14
 20
0.065
 30
1.895
 70
192
 0
VERTEX
 8
0
 10
0.14
 20
0.08
 30
0.82
 70
192
 0
VERTEX
 8
0
 10
0.363
 20
0.08
 30
0.82
 70
192
 0
VERTEX
 8
0
 10
0.14
 20
0.08
 30
0.225
 70
192
 0
VERTEX
 8
0
 10
0.027
 20
0.08
 30
0.225
 70
192
 0
VERTEX
 8
0
 10
0.027
 20
0.08
 30
0.0
 70
192
 0
VERTEX
 8
0
 10
0.14
 20
0.08
 30
0.0
 70
192
 0
VERTEX
 8
0
 10
0.027
 20
0.042
 30
0.0
 70
192
 0
VERTEX
 8
0
 10
0.463
 20
0.042
 30
0.0
 70
192
 0
VERTEX
 8
0
 10
0.363
 20
0.08
 30
0.0
 70
192
 0
VERTEX
 8
0
 10
0.686
 20
0.042
 30
0.0
 70
192
 0
VERTEX
 8
0
 10
0.686
 20
0.042
 30
0.225
 70
192
 0
VERTEX
 8
0
 10
0.463
 20
0.057
 30
0.225
 70
192
 0
VERTEX
 8
0
 10
0.686
 20
0.057
 30
0.225
 70
192
 0
VERTEX
 8
0
 10
0.799
 20
0.08
 30
0.62
 70
192
 0
VERTEX
 8
0
 10
0.799
 20
0.042
 30
0.82
 70
192
 0
VERTEX
 8
0
 10
0.799
 20
0.08
 30
1.895
 70
192
 0
VERTEX
 8
0
 10
0.799
 20
0.08
 30
2.073
 70
192
 0
VERTEX
 8
0
 10
0.799
 20
0.042
 30
1.895
 70
192
 0
VERTEX
 8
0
 10
0.463
 20
0.08
 30
0.82
 70
192
 0
VERTEX
 8
0
 10
0.363
 20
0.08
 30
1.895
 70
192
 0
VERTEX
 8
0
 10
0.363
 20
0.065
 30
0.82
 70
192
 0
VERTEX
 8
0
 10
0.363
 20
0.065
 30
1.895
 70
192
 0
VERTEX
 8
0
 10
0.463
 20
0.08
 30
0.62
 70
192
 0
VERTEX
 8
0
 10
0.363
 20
0.08
 30
0.62
 70
192
 0
VERTEX
 8
0
 10
0.363
 20
0.065
 30
0.62
 70
192
 0
VERTEX
 8
0
 10
0.14
 20
0.065
 30
0.62
 70
192
 0
VERTEX
 8
0
 10
0.14
 20
0.065
 30
0.225
 70
192
 0
VERTEX
 8
0
 10
0.463
 20
0.08
 30
0.0
 70
192
 0
VERTEX
 8
0
 10
0.686
 20
0.08
 30
0.0
 70
192
 0
VERTEX
 8
0
 10
0.799
 20
0.042
 30
0.225
 70
192
 0
VERTEX
 8
0
 10
0.686
 20
0.08
 30
0.82
 70
192
 0
VERTEX
 8
0
 10
0.799
 20
0.08
 30
0.82
 70
192
 0
VERTEX
 8
0
 10
0.463
 20
0.08
 30
1.895
 70
192
 0
VERTEX
 8
0
 10
0.686
 20
0.065
 30
1.895
 70
192
 0
VERTEX
 8
0
 10
0.363
 20
0.065
 30
0.225
 70
192
 0
VERTEX
 8
0
 10
0.363
 20
0.08
 30
0.225
 70
192
 0
VERTEX
 8
0
 10
0.799
 20
0.042
 30
0.0
 70
192
 0
VERTEX
 8
0
 10
0.799
 20
0.08
 30
0.0
 70
192
 0
VERTEX
 8
0
 10
0.799
 20
0.08
 30
0.225
 70
192
 0
VERTEX
 8
0
 10
0.686
 20
0.08
 30
1.895
 70
192
 0
VERTEX
 8
0
 10
0.686
 20
0.065
 30
0.82
 70
192
 0
VERTEX
 8
0
 10
0.463
 20
0.065
 30
1.895
 70
192
 0
VERTEX
 8
0
 10
0.463
 20
0.065
 30
0.82
 70
192
 0
VERTEX
 8
0
 10
0.463
 20
0.065
 30
0.62
 70
192
 0
VERTEX
 8
0
 10
0.463
 20
0.08
 30
0.225
 70
192
 0
VERTEX
 8
0
 10
0.686
 20
0.08
 30
0.62
 70
192
 0
VERTEX
 8
0
 10
0.686
 20
0.08
 30
0.225
 70
192
 0
VERTEX
 8
0
 10
0.686
 20
0.065
 30
0.225
 70
192
 0
VERTEX
 8
0
 10
0.463
 20
0.065
 30
0.225
 70
192
 0
VERTEX
 8
0
 10
0.686
 20
0.065
 30
0.62
 70
192
 0
VERTEX
 8
0
 10
1.46
 20
0.08
 30
1.895
 70
192
 0
VERTEX
 8
0
 10
1.237
 20
0.08
 30
1.895
 70
192
 0
VERTEX
 8
0
 10
1.237
 20
0.08
 30
2.073
 70
192
 0
VERTEX
 8
0
 10
1.137
 20
0.08
 30
1.895
 70
192
 0
VERTEX
 8
0
 10
1.137
 20
0.08
 30
2.073
 70
192
 0
VERTEX
 8
0
 10
1.46
 20
0.08
 30
2.073
 70
192
 0
VERTEX
 8
0
 10
1.573
 20
0.08
 30
1.895
 70
192
 0
VERTEX
 8
0
 10
1.573
 20
0.08
 30
2.073
 70
192
 0
VERTEX
 8
0
 10
1.46
 20
0.065
 30
1.895
 70
192
 0
VERTEX
 8
0
 10
1.237
 20
0.065
 30
1.895
 70
192
 0
VERTEX
 8
0
 10
1.237
 20
0.065
 30
0.82
 70
192
 0
VERTEX
 8
0
 10
0.914
 20
0.08
 30
1.895
 70
192
 0
VERTEX
 8
0
 10
1.137
 20
0.042
 30
2.073
 70
192
 0
VERTEX
 8
0
 10
1.237
 20
0.042
 30
1.895
 70
192
 0
VERTEX
 8
0
 10
1.46
 20
0.042
 30
1.895
 70
192
 0
VERTEX
 8
0
 10
1.46
 20
0.042
 30
2.073
 70
192
 0
VERTEX
 8
0
 10
1.237
 20
0.042
 30
2.073
 70
192
 0
VERTEX
 8
0
 10
1.573
 20
0.08
 30
0.82
 70
192
 0
VERTEX
 8
0
 10
1.46
 20
0.08
 30
0.82
 70
192
 0
VERTEX
 8
0
 10
1.237
 20
0.08
 30
0.82
 70
192
 0
VERTEX
 8
0
 10
1.46
 20
0.065
 30
0.82
 70
192
 0
VERTEX
 8
0
 10
1.237
 20
0.08
 30
0.62
 70
192
 0
VERTEX
 8
0
 10
1.137
 20
0.08
 30
0.62
 70
192
 0
VERTEX
 8
0
 10
1.137
 20
0.08
 30
0.82
 70
192
 0
VERTEX
 8
0
 10
1.137
 20
0.065
 30
1.895
 70
192
 0
VERTEX
 8
0
 10
0.914
 20
0.08
 30
2.073
 70
192
 0
VERTEX
 8
0
 10
0.801
 20
0.08
 30
2.073
 70
192
 0
VERTEX
 8
0
 10
1.137
 20
0.042
 30
1.895
 70
192
 0
VERTEX
 8
0
 10
1.237
 20
0.057
 30
1.895
 70
192
 0
VERTEX
 8
0
 10
1.573
 20
0.042
 30
1.895
 70
192
 0
VERTEX
 8
0
 10
1.573
 20
0.042
 30
2.073
 70
192
 0
VERTEX
 8
0
 10
1.573
 20
0.042
 30
0.82
 70
192
 0
VERTEX
 8
0
 10
1.237
 20
0.08
 30
0.225
 70
192
 0
VERTEX
 8
0
 10
1.137
 20
0.08
 30
0.225
 70
192
 0
VERTEX
 8
0
 10
0.914
 20
0.08
 30
0.82
 70
192
 0
VERTEX
 8
0
 10
1.137
 20
0.065
 30
0.82
 70
192
 0
VERTEX
 8
0
 10
0.801
 20
0.042
 30
2.073
 70
192
 0
VERTEX
 8
0
 10
0.914
 20
0.042
 30
2.073
 70
192
 0
VERTEX
 8
0
 10
0.914
 20
0.065
 30
1.895
 70
192
 0
VERTEX
 8
0
 10
0.914
 20
0.065
 30
0.82
 70
192
 0
VERTEX
 8
0
 10
0.801
 20
0.08
 30
0.82
 70
192
 0
VERTEX
 8
0
 10
0.801
 20
0.08
 30
1.895
 70
192
 0
VERTEX
 8
0
 10
1.237
 20
0.057
 30
0.82
 70
192
 0
VERTEX
 8
0
 10
1.46
 20
0.057
 30
1.895
 70
192
 0
VERTEX
 8
0
 10
1.46
 20
0.057
 30
0.82
 70
192
 0
VERTEX
 8
0
 10
1.46
 20
0.042
 30
0.82
 70
192
 0
VERTEX
 8
0
 10
1.573
 20
0.08
 30
0.62
 70
192
 0
VERTEX
 8
0
 10
1.46
 20
0.08
 30
0.62
 70
192
 0
VERTEX
 8
0
 10
1.137
 20
0.08
 30
0.0
 70
192
 0
VERTEX
 8
0
 10
1.137
 20
0.065
 30
0.225
 70
192
 0
VERTEX
 8
0
 10
1.137
 20
0.065
 30
0.62
 70
192
 0
VERTEX
 8
0
 10
0.801
 20
0.042
 30
1.895
 70
192
 0
VERTEX
 8
0
 10
0.914
 20
0.042
 30
1.895
 70
192
 0
VERTEX
 8
0
 10
0.914
 20
0.057
 30
1.895
 70
192
 0
VERTEX
 8
0
 10
0.801
 20
0.042
 30
0.82
 70
192
 0
VERTEX
 8
0
 10
1.237
 20
0.042
 30
0.62
 70
192
 0
VERTEX
 8
0
 10
1.137
 20
0.057
 30
1.895
 70
192
 0
VERTEX
 8
0
 10
1.237
 20
0.042
 30
0.82
 70
192
 0
VERTEX
 8
0
 10
1.573
 20
0.042
 30
0.62
 70
192
 0
VERTEX
 8
0
 10
1.573
 20
0.042
 30
0.225
 70
192
 0
VERTEX
 8
0
 10
1.573
 20
0.08
 30
0.225
 70
192
 0
VERTEX
 8
0
 10
1.237
 20
0.065
 30
0.62
 70
192
 0
VERTEX
 8
0
 10
1.46
 20
0.065
 30
0.62
 70
192
 0
VERTEX
 8
0
 10
1.237
 20
0.042
 30
0.0
 70
192
 0
VERTEX
 8
0
 10
1.137
 20
0.042
 30
0.0
 70
192
 0
VERTEX
 8
0
 10
1.237
 20
0.08
 30
0.0
 70
192
 0
VERTEX
 8
0
 10
0.914
 20
0.08
 30
0.0
 70
192
 0
VERTEX
 8
0
 10
0.914
 20
0.065
 30
0.62
 70
192
 0
VERTEX
 8
0
 10
0.914
 20
0.065
 30
0.225
 70
192
 0
VERTEX
 8
0
 10
1.46
 20
0.08
 30
0.225
 70
192
 0
VERTEX
 8
0
 10
1.237
 20
0.065
 30
0.225
 70
192
 0
VERTEX
 8
0
 10
1.46
 20
0.065
 30
0.225
 70
192
 0
VERTEX
 8
0
 10
0.914
 20
0.08
 30
0.225
 70
192
 0
VERTEX
 8
0
 10
0.914
 20
0.08
 30
0.62
 70
192
 0
VERTEX
 8
0
 10
0.801
 20
0.08
 30
0.62
 70
192
 0
VERTEX
 8
0
 10
0.801
 20
0.042
 30
0.62
 70
192
 0
VERTEX
 8
0
 10
0.914
 20
0.042
 30
0.82
 70
192
 0
VERTEX
 8
0
 10
1.137
 20
0.057
 30
0.82
 70
192
 0
VERTEX
 8
0
 10
1.137
 20
0.042
 30
0.225
 70
192
 0
VERTEX
 8
0
 10
1.137
 20
0.042
 30
0.82
 70
192
 0
VERTEX
 8
0
 10
0.914
 20
0.057
 30
0.82
 70
192
 0
VERTEX
 8
0
 10
1.573
 20
0.042
 30
0.0
 70
192
 0
VERTEX
 8
0
 10
1.46
 20
0.08
 30
0.0
 70
192
 0
VERTEX
 8
0
 10
1.573
 20
0.08
 30
0.0
 70
192
 0
VERTEX
 8
0
 10
0.914
 20
0.042
 30
0.0
 70
192
 0
VERTEX
 8
0
 10
0.801
 20
0.08
 30
0.225
 70
192
 0
VERTEX
 8
0
 10
1.237
 20
0.057
 30
0.225
 70
192
 0
VERTEX
 8
0
 10
1.137
 20
0.057
 30
0.62
 70
192
 0
VERTEX
 8
0
 10
1.46
 20
0.042
 30
0.62
 70
192
 0
VERTEX
 8
0
 10
1.137
 20
0.042
 30
0.62
 70
192
 0
VERTEX
 8
0
 10
1.46
 20
0.042
 30
0.0
 70
192
 0
VERTEX
 8
0
 10
1.46
 20
0.057
 30
0.62
 70
192
 0
VERTEX
 8
0
 10
1.46
 20
0.057
 30
0.225
 70
192
 0
VERTEX
 8
0
 10
0.801
 20
0.08
 30
0.0
 70
192
 0
VERTEX
 8
0
 10
0.801
 20
0.042
 30
0.0
 70
192
 0
VERTEX
 8
0
 10
0.801
 20
0.042
 30
0.225
 70
192
 0
VERTEX
 8
0
 10
1.237
 20
0.042
 30
0.225
 70
192
 0
VERTEX
 8
0
 10
1.46
 20
0.042
 30
0.225
 70
192
 0
VERTEX
 8
0
 10
1.237
 20
0.057
 30
0.62
 70
192
 0
VERTEX
 8
0
 10
1.137
 20
0.057
 30
0.225
 70
192
 0
VERTEX
 8
0
 10
0.914
 20
0.057
 30
0.225
 70
192
 0
VERTEX
 8
0
 10
0.914
 20
0.042
 30
0.62
 70
192
 0
VERTEX
 8
0
 10
0.914
 20
0.042
 30
0.225
 70
192
 0
VERTEX
 8
0
 10
0.914
 20
0.057
 30
0.62
 70
192
 0
VERTEX
 8
0
 10
0.005
 20
0.09
 30
0.0
 70
192
 0
VERTEX
 8
0
 10
0.02
 20
0.085
 30
2.08
 70
192
 0
VERTEX
 8
0
 10
0.005
 20
0.09
 30
2.095
 70
192
 0
VERTEX
 8
0
 10
1.58
 20
0.085
 30
2.08
 70
192
 0
VERTEX
 8
0
 10
0.02
 20
0.08
 30
2.08
 70
192
 0
VERTEX
 8
0
 10
0.02
 20
0.085
 30
0.0
 70
192
 0
VERTEX
 8
0
 10
0.0
 20
0.085
 30
0.0
 70
192
 0
VERTEX
 8
0
 10
1.6
 20
0.085
 30
2.1
 70
192
 0
VERTEX
 8
0
 10
1.595
 20
0.09
 30
2.095
 70
192
 0
VERTEX
 8
0
 10
1.58
 20
0.085
 30
0.0
 70
192
 0
VERTEX
 8
0
 10
1.58
 20
0.08
 30
2.08
 70
192
 0
VERTEX
 8
0
 10
0.02
 20
0.08
 30
0.0
 70
192
 0
VERTEX
 8
0
 10
0.025
 20
0.04
 30
0.0
 70
192
 0
VERTEX
 8
0
 10
-0.032
 20
0.095
 30
0.0
 70
192
 0
VERTEX
 8
0
 10
-0.04
 20
0.09
 30
0.0
 70
192
 0
VERTEX
 8
0
 10
0.0
 20
0.085
 30
2.1
 70
192
 0
VERTEX
 8
0
 10
1.595
 20
0.09
 30
0.0
 70
192
 0
VERTEX
 8
0
 10
1.6
 20
0.085
 30
0.0
 70
192
 0
VERTEX
 8
0
 10
0.025
 20
0.04
 30
2.075
 70
192
 0
VERTEX
 8
0
 10
0.025
 20
0.08
 30
0.0
 70
192
 0
VERTEX
 8
0
 10
0.025
 20
0.08
 30
2.075
 70
192
 0
VERTEX
 8
0
 10
0.0
 20
-0.08
 30
2.1
 70
192
 0
VERTEX
 8
0
 10
0.0
 20
0.08
 30
0.0
 70
192
 0
VERTEX
 8
0
 10
-0.04
 20
0.09
 30
2.14
 70
192
 0
VERTEX
 8
0
 10
-0.032
 20
0.095
 30
2.132
 70
192
 0
VERTEX
 8
0
 10
1.632
 20
0.095
 30
2.132
 70
192
 0
VERTEX
 8
0
 10
1.58
 20
0.08
 30
0.0
 70
192
 0
VERTEX
 8
0
 10
1.575
 20
0.04
 30
2.075
 70
192
 0
VERTEX
 8
0
 10
1.575
 20
0.08
 30
2.075
 70
192
 0
VERTEX
 8
0
 10
-0.06
 20
0.08
 30
0.0
 70
192
 0
VERTEX
 8
0
 10
0.015
 20
-0.085
 30
0.0
 70
192
 0
VERTEX
 8
0
 10
0.04
 20
-0.08
 30
0.0
 70
192
 0
VERTEX
 8
0
 10
0.04
 20
0.04
 30
0.0
 70
192
 0
VERTEX
 8
0
 10
0.0
 20
-0.08
 30
0.0
 70
192
 0
VERTEX
 8
0
 10
0.0
 20
0.08
 30
2.1
 70
192
 0
VERTEX
 8
0
 10
-0.04
 20
0.095
 30
2.14
 70
192
 0
VERTEX
 8
0
 10
-0.04
 20
0.095
 30
0.0
 70
192
 0
VERTEX
 8
0
 10
-0.06
 20
0.095
 30
2.16
 70
192
 0
VERTEX
 8
0
 10
1.64
 20
0.09
 30
2.14
 70
192
 0
VERTEX
 8
0
 10
1.632
 20
0.095
 30
0.0
 70
192
 0
VERTEX
 8
0
 10
1.64
 20
0.09
 30
0.0
 70
192
 0
VERTEX
 8
0
 10
1.6
 20
-0.08
 30
0.0
 70
192
 0
VERTEX
 8
0
 10
1.575
 20
0.08
 30
0.0
 70
192
 0
VERTEX
 8
0
 10
1.56
 20
0.04
 30
2.06
 70
192
 0
VERTEX
 8
0
 10
0.04
 20
-0.08
 30
2.06
 70
192
 0
VERTEX
 8
0
 10
-0.06
 20
0.08
 30
2.16
 70
192
 0
VERTEX
 8
0
 10
-0.06
 20
0.095
 30
0.0
 70
192
 0
VERTEX
 8
0
 10
1.66
 20
0.08
 30
2.16
 70
192
 0
VERTEX
 8
0
 10
-0.017
 20
-0.095
 30
0.0
 70
192
 0
VERTEX
 8
0
 10
-0.025
 20
-0.09
 30
0.0
 70
192
 0
VERTEX
 8
0
 10
0.035
 20
-0.085
 30
0.0
 70
192
 0
VERTEX
 8
0
 10
0.035
 20
-0.08
 30
0.0
 70
192
 0
VERTEX
 8
0
 10
1.645
 20
-0.08
 30
2.145
 70
192
 0
VERTEX
 8
0
 10
1.6
 20
-0.08
 30
2.1
 70
192
 0
VERTEX
 8
0
 10
-0.045
 20
-0.08
 30
0.0
 70
192
 0
VERTEX
 8
0
 10
-0.045
 20
-0.095
 30
2.145
 70
192
 0
VERTEX
 8
0
 10
-0.045
 20
-0.095
 30
0.0
 70
192
 0
VERTEX
 8
0
 10
1.6
 20
0.08
 30
2.1
 70
192
 0
VERTEX
 8
0
 10
1.6
 20
0.08
 30
0.0
 70
192
 0
VERTEX
 8
0
 10
1.64
 20
0.095
 30
2.14
 70
192
 0
VERTEX
 8
0
 10
1.64
 20
0.095
 30
0.0
 70
192
 0
VERTEX
 8
0
 10
1.575
 20
0.04
 30
0.0
 70
192
 0
VERTEX
 8
0
 10
0.04
 20
0.04
 30
2.06
 70
192
 0
VERTEX
 8
0
 10
1.66
 20
0.095
 30
2.16
 70
192
 0
VERTEX
 8
0
 10
-0.017
 20
-0.095
 30
2.117
 70
192
 0
VERTEX
 8
0
 10
-0.025
 20
-0.09
 30
2.125
 70
192
 0
VERTEX
 8
0
 10
0.015
 20
-0.085
 30
2.085
 70
192
 0
VERTEX
 8
0
 10
0.02
 20
-0.09
 30
0.0
 70
192
 0
VERTEX
 8
0
 10
0.035
 20
-0.08
 30
2.065
 70
192
 0
VERTEX
 8
0
 10
0.035
 20
-0.085
 30
2.065
 70
192
 0
VERTEX
 8
0
 10
0.02
 20
-0.09
 30
2.08
 70
192
 0
VERTEX
 8
0
 10
1.565
 20
-0.08
 30
2.065
 70
192
 0
VERTEX
 8
0
 10
1.645
 20
-0.08
 30
0.0
 70
192
 0
VERTEX
 8
0
 10
-0.045
 20
-0.08
 30
2.145
 70
192
 0
VERTEX
 8
0
 10
-0.025
 20
-0.095
 30
0.0
 70
192
 0
VERTEX
 8
0
 10
1.56
 20
0.04
 30
0.0
 70
192
 0
VERTEX
 8
0
 10
1.56
 20
-0.08
 30
2.06
 70
192
 0
VERTEX
 8
0
 10
1.66
 20
0.08
 30
0.0
 70
192
 0
VERTEX
 8
0
 10
1.66
 20
0.095
 30
0.0
 70
192
 0
VERTEX
 8
0
 10
1.617
 20
-0.095
 30
2.117
 70
192
 0
VERTEX
 8
0
 10
1.585
 20
-0.085
 30
2.085
 70
192
 0
VERTEX
 8
0
 10
1.56
 20
-0.08
 30
0.0
 70
192
 0
VERTEX
 8
0
 10
1.625
 20
-0.09
 30
0.0
 70
192
 0
VERTEX
 8
0
 10
1.645
 20
-0.095
 30
0.0
 70
192
 0
VERTEX
 8
0
 10
1.625
 20
-0.095
 30
2.125
 70
192
 0
VERTEX
 8
0
 10
1.645
 20
-0.095
 30
2.145
 70
192
 0
VERTEX
 8
0
 10
-0.025
 20
-0.095
 30
2.125
 70
192
 0
VERTEX
 8
0
 10
1.625
 20
-0.09
 30
2.125
 70
192
 0
VERTEX
 8
0
 10
1.617
 20
-0.095
 30
0.0
 70
192
 0
VERTEX
 8
0
 10
1.585
 20
-0.085
 30
0.0
 70
192
 0
VERTEX
 8
0
 10
1.565
 20
-0.08
 30
0.0
 70
192
 0
VERTEX
 8
0
 10
1.565
 20
-0.085
 30
0.0
 70
192
 0
VERTEX
 8
0
 10
1.58
 20
-0.09
 30
2.08
 70
192
 0
VERTEX
 8
0
 10
1.565
 20
-0.085
 30
2.065
 70
192
 0
VERTEX
 8
0
 10
1.58
 20
-0.09
 30
0.0
 70
192
 0
VERTEX
 8
0
 10
1.625
 20
-0.095
 30
0.0
 70
192
 0
VERTEX
 8
0
 10
0.0
 20
0.0
 30
0.0
 70
128
 71
7
 72
1
 73
4
 74
2
 0
VERTEX
 8
0
 10
0.0
 20
0.0
 30
0.0
 70
128
 71
1
 72
7
 73
6
 74
3
 0
VERTEX
 8
0
 10
0.0
 20
0.0
 30
0.0
 70
128
 71
4
 72
1
 73
3
 74
9
 0
VERTEX
 8
0
 10
0.0
 20
0.0
 30
0.0
 70
128
 71
9
 72
5
 73
2
 74
4
 0
VERTEX
 8
0
 10
0.0
 20
0.0
 30
0.0
 70
128
 71
5
 72
6
 73
7
 74
2
 0
VERTEX
 8
0
 10
0.0
 20
0.0
 30
0.0
 70
128
 71
6
 72
12
 73
8
 74
3
 0
VERTEX
 8
0
 10
0.0
 20
0.0
 30
0.0
 70
128
 71
13
 72
9
 73
3
 74
14
 0
VERTEX
 8
0
 10
0.0
 20
0.0
 30
0.0
 70
128
 71
9
 72
16
 73
30
 74
5
 0
VERTEX
 8
0
 10
0.0
 20
0.0
 30
0.0
 70
128
 71
18
 72
10
 73
6
 74
5
 0
VERTEX
 8
0
 10
0.0
 20
0.0
 30
0.0
 70
128
 71
10
 72
11
 73
12
 74
6
 0
VERTEX
 8
0
 10
0.0
 20
0.0
 30
0.0
 70
128
 71
8
 72
12
 73
21
 74
22
 0
VERTEX
 8
0
 10
0.0
 20
0.0
 30
0.0
 70
128
 71
3
 72
8
 73
24
 74
14
 0
VERTEX
 8
0
 10
0.0
 20
0.0
 30
0.0
 70
128
 71
13
 72
45
 73
16
 74
9
 0
VERTEX
 8
0
 10
0.0
 20
0.0
 30
0.0
 70
128
 71
13
 72
14
 73
15
 74
28
 0
VERTEX
 8
0
 10
0.0
 20
0.0
 30
0.0
 70
128
 71
30
 72
16
 73
17
 74
31
 0
VERTEX
 8
0
 10
0.0
 20
0.0
 30
0.0
 70
128
 71
5
 72
30
 73
34
 74
18
 0
VERTEX
 8
0
 10
0.0
 20
0.0
 30
0.0
 70
128
 71
36
 72
10
 73
18
 74
19
 0
VERTEX
 8
0
 10
0.0
 20
0.0
 30
0.0
 70
128
 71
20
 72
11
 73
10
 74
36
 0
VERTEX
 8
0
 10
0.0
 20
0.0
 30
0.0
 70
128
 71
12
 72
11
 73
20
 74
21
 0
VERTEX
 8
0
 10
0.0
 20
0.0
 30
0.0
 70
128
 71
21
 72
37
 73
55
 74
22
 0
VERTEX
 8
0
 10
0.0
 20
0.0
 30
0.0
 70
128
 71
22
 72
23
 73
24
 74
8
 0
VERTEX
 8
0
 10
0.0
 20
0.0
 30
0.0
 70
128
 71
14
 72
24
 73
40
 74
26
 0
VERTEX
 8
0
 10
0.0
 20
0.0
 30
0.0
 70
128
 71
49
 72
43
 73
45
 74
13
 0
VERTEX
 8
0
 10
0.0
 20
0.0
 30
0.0
 70
128
 71
45
 72
44
 73
25
 74
16
 0
VERTEX
 8
0
 10
0.0
 20
0.0
 30
0.0
 70
128
 71
14
 72
26
 73
50
 74
15
 0
VERTEX
 8
0
 10
0.0
 20
0.0
 30
0.0
 70
128
 71
27
 72
28
 73
15
 74
50
 0
VERTEX
 8
0
 10
0.0
 20
0.0
 30
0.0
 70
128
 71
49
 72
13
 73
28
 74
27
 0
VERTEX
 8
0
 10
0.0
 20
0.0
 30
0.0
 70
128
 71
16
 72
25
 73
29
 74
17
 0
VERTEX
 8
0
 10
0.0
 20
0.0
 30
0.0
 70
128
 71
31
 72
17
 73
29
 74
32
 0
VERTEX
 8
0
 10
0.0
 20
0.0
 30
0.0
 70
128
 71
51
 72
30
 73
31
 74
32
 0
VERTEX
 8
0
 10
0.0
 20
0.0
 30
0.0
 70
128
 71
30
 72
51
 73
33
 74
34
 0
VERTEX
 8
0
 10
0.0
 20
0.0
 30
0.0
 70
128
 71
18
 72
34
 73
35
 74
19
 0
VERTEX
 8
0
 10
0.0
 20
0.0
 30
0.0
 70
128
 71
36
 72
19
 73
74
 74
37
 0
VERTEX
 8
0
 10
0.0
 20
0.0
 30
0.0
 70
128
 71
20
 72
36
 73
37
 74
21
 0
VERTEX
 8
0
 10
0.0
 20
0.0
 30
0.0
 70
128
 71
55
 72
37
 73
54
 74
38
 0
VERTEX
 8
0
 10
0.0
 20
0.0
 30
0.0
 70
128
 71
22
 72
55
 73
39
 74
23
 0
VERTEX
 8
0
 10
0.0
 20
0.0
 30
0.0
 70
128
 71
23
 72
58
 73
40
 74
24
 0
VERTEX
 8
0
 10
0.0
 20
0.0
 30
0.0
 70
128
 71
26
 72
40
 73
61
 74
41
 0
VERTEX
 8
0
 10
0.0
 20
0.0
 30
0.0
 70
128
 71
42
 72
62
 73
43
 74
49
 0
VERTEX
 8
0
 10
0.0
 20
0.0
 30
0.0
 70
128
 71
45
 72
43
 73
66
 74
46
 0
VERTEX
 8
0
 10
0.0
 20
0.0
 30
0.0
 70
128
 71
44
 72
45
 73
46
 74
47
 0
VERTEX
 8
0
 10
0.0
 20
0.0
 30
0.0
 70
128
 71
44
 72
48
 73
69
 74
25
 0
VERTEX
 8
0
 10
0.0
 20
0.0
 30
0.0
 70
128
 71
26
 72
49
 73
27
 74
50
 0
VERTEX
 8
0
 10
0.0
 20
0.0
 30
0.0
 70
128
 71
25
 72
51
 73
32
 74
29
 0
VERTEX
 8
0
 10
0.0
 20
0.0
 30
0.0
 70
128
 71
51
 72
72
 73
52
 74
33
 0
VERTEX
 8
0
 10
0.0
 20
0.0
 30
0.0
 70
128
 71
35
 72
34
 73
33
 74
53
 0
VERTEX
 8
0
 10
0.0
 20
0.0
 30
0.0
 70
128
 71
87
 72
74
 73
19
 74
35
 0
VERTEX
 8
0
 10
0.0
 20
0.0
 30
0.0
 70
128
 71
37
 72
74
 73
76
 74
54
 0
VERTEX
 8
0
 10
0.0
 20
0.0
 30
0.0
 70
128
 71
54
 72
76
 73
75
 74
38
 0
VERTEX
 8
0
 10
0.0
 20
0.0
 30
0.0
 70
128
 71
56
 72
55
 73
38
 74
75
 0
VERTEX
 8
0
 10
0.0
 20
0.0
 30
0.0
 70
128
 71
55
 72
56
 73
78
 74
39
 0
VERTEX
 8
0
 10
0.0
 20
0.0
 30
0.0
 70
128
 71
23
 72
39
 73
57
 74
58
 0
VERTEX
 8
0
 10
0.0
 20
0.0
 30
0.0
 70
128
 71
59
 72
61
 73
40
 74
58
 0
VERTEX
 8
0
 10
0.0
 20
0.0
 30
0.0
 70
128
 71
59
 72
60
 73
41
 74
61
 0
VERTEX
 8
0
 10
0.0
 20
0.0
 30
0.0
 70
128
 71
49
 72
26
 73
41
 74
42
 0
VERTEX
 8
0
 10
0.0
 20
0.0
 30
0.0
 70
128
 71
62
 72
42
 73
63
 74
82
 0
VERTEX
 8
0
 10
0.0
 20
0.0
 30
0.0
 70
128
 71
62
 72
64
 73
65
 74
43
 0
VERTEX
 8
0
 10
0.0
 20
0.0
 30
0.0
 70
128
 71
43
 72
65
 73
67
 74
66
 0
VERTEX
 8
0
 10
0.0
 20
0.0
 30
0.0
 70
128
 71
46
 72
66
 73
67
 74
47
 0
VERTEX
 8
0
 10
0.0
 20
0.0
 30
0.0
 70
128
 71
65
 72
44
 73
47
 74
67
 0
VERTEX
 8
0
 10
0.0
 20
0.0
 30
0.0
 70
128
 71
65
 72
84
 73
48
 74
44
 0
VERTEX
 8
0
 10
0.0
 20
0.0
 30
0.0
 70
128
 71
48
 72
68
 73
86
 74
69
 0
VERTEX
 8
0
 10
0.0
 20
0.0
 30
0.0
 70
128
 71
25
 72
69
 73
72
 74
51
 0
VERTEX
 8
0
 10
0.0
 20
0.0
 30
0.0
 70
128
 71
70
 72
71
 73
52
 74
72
 0
VERTEX
 8
0
 10
0.0
 20
0.0
 30
0.0
 70
128
 71
52
 72
71
 73
53
 74
33
 0
VERTEX
 8
0
 10
0.0
 20
0.0
 30
0.0
 70
128
 71
94
 72
87
 73
35
 74
53
 0
VERTEX
 8
0
 10
0.0
 20
0.0
 30
0.0
 70
128
 71
73
 72
56
 73
74
 74
87
 0
VERTEX
 8
0
 10
0.0
 20
0.0
 30
0.0
 70
128
 71
74
 72
56
 73
75
 74
76
 0
VERTEX
 8
0
 10
0.0
 20
0.0
 30
0.0
 70
128
 71
77
 72
78
 73
56
 74
73
 0
VERTEX
 8
0
 10
0.0
 20
0.0
 30
0.0
 70
128
 71
39
 72
78
 73
79
 74
80
 0
VERTEX
 8
0
 10
0.0
 20
0.0
 30
0.0
 70
128
 71
57
 72
39
 73
80
 74
81
 0
VERTEX
 8
0
 10
0.0
 20
0.0
 30
0.0
 70
128
 71
58
 72
57
 73
60
 74
59
 0
VERTEX
 8
0
 10
0.0
 20
0.0
 30
0.0
 70
128
 71
42
 72
41
 73
60
 74
63
 0
VERTEX
 8
0
 10
0.0
 20
0.0
 30
0.0
 70
128
 71
82
 72
63
 73
90
 74
99
 0
VERTEX
 8
0
 10
0.0
 20
0.0
 30
0.0
 70
128
 71
64
 72
62
 73
82
 74
83
 0
VERTEX
 8
0
 10
0.0
 20
0.0
 30
0.0
 70
128
 71
64
 72
91
 73
84
 74
65
 0
VERTEX
 8
0
 10
0.0
 20
0.0
 30
0.0
 70
128
 71
84
 72
93
 73
68
 74
48
 0
VERTEX
 8
0
 10
0.0
 20
0.0
 30
0.0
 70
128
 71
68
 72
100
 73
85
 74
86
 0
VERTEX
 8
0
 10
0.0
 20
0.0
 30
0.0
 70
128
 71
70
 72
72
 73
69
 74
86
 0
VERTEX
 8
0
 10
0.0
 20
0.0
 30
0.0
 70
128
 71
70
 72
94
 73
53
 74
71
 0
VERTEX
 8
0
 10
0.0
 20
0.0
 30
0.0
 70
128
 71
87
 72
94
 73
88
 74
96
 0
VERTEX
 8
0
 10
0.0
 20
0.0
 30
0.0
 70
128
 71
73
 72
87
 73
96
 74
97
 0
VERTEX
 8
0
 10
0.0
 20
0.0
 30
0.0
 70
128
 71
99
 72
90
 73
78
 74
77
 0
VERTEX
 8
0
 10
0.0
 20
0.0
 30
0.0
 70
128
 71
100
 72
77
 73
73
 74
85
 0
VERTEX
 8
0
 10
0.0
 20
0.0
 30
0.0
 70
128
 71
78
 72
90
 73
89
 74
79
 0
VERTEX
 8
0
 10
0.0
 20
0.0
 30
0.0
 70
128
 71
80
 72
79
 73
89
 74
81
 0
VERTEX
 8
0
 10
0.0
 20
0.0
 30
0.0
 70
128
 71
90
 72
57
 73
81
 74
89
 0
VERTEX
 8
0
 10
0.0
 20
0.0
 30
0.0
 70
128
 71
57
 72
90
 73
63
 74
60
 0
VERTEX
 8
0
 10
0.0
 20
0.0
 30
0.0
 70
128
 71
83
 72
82
 73
99
 74
101
 0
VERTEX
 8
0
 10
0.0
 20
0.0
 30
0.0
 70
128
 71
91
 72
64
 73
83
 74
92
 0
VERTEX
 8
0
 10
0.0
 20
0.0
 30
0.0
 70
128
 71
91
 72
92
 73
93
 74
84
 0
VERTEX
 8
0
 10
0.0
 20
0.0
 30
0.0
 70
128
 71
93
 72
101
 73
100
 74
68
 0
VERTEX
 8
0
 10
0.0
 20
0.0
 30
0.0
 70
128
 71
94
 72
70
 73
86
 74
85
 0
VERTEX
 8
0
 10
0.0
 20
0.0
 30
0.0
 70
128
 71
94
 72
85
 73
95
 74
88
 0
VERTEX
 8
0
 10
0.0
 20
0.0
 30
0.0
 70
128
 71
95
 72
97
 73
96
 74
88
 0
VERTEX
 8
0
 10
0.0
 20
0.0
 30
0.0
 70
128
 71
85
 72
73
 73
97
 74
95
 0
VERTEX
 8
0
 10
0.0
 20
0.0
 30
0.0
 70
128
 71
99
 72
77
 73
98
 74
103
 0
VERTEX
 8
0
 10
0.0
 20
0.0
 30
0.0
 70
128
 71
77
 72
100
 73
104
 74
98
 0
VERTEX
 8
0
 10
0.0
 20
0.0
 30
0.0
 70
128
 71
101
 72
99
 73
103
 74
102
 0
VERTEX
 8
0
 10
0.0
 20
0.0
 30
0.0
 70
128
 71
92
 72
83
 73
101
 74
93
 0
VERTEX
 8
0
 10
0.0
 20
0.0
 30
0.0
 70
128
 71
100
 72
101
 73
102
 74
104
 0
VERTEX
 8
0
 10
0.0
 20
0.0
 30
0.0
 70
128
 71
102
 72
103
 73
98
 74
104
 0
VERTEX
 8
0
 10
0.0
 20
0.0
 30
0.0
 70
128
 71
105
 72
106
 73
107
 74
110
 0
VERTEX
 8
0
 10
0.0
 20
0.0
 30
0.0
 70
128
 71
106
 72
105
 73
113
 74
114
 0
VERTEX
 8
0
 10
0.0
 20
0.0
 30
0.0
 70
128
 71
106
 72
108
 73
109
 74
107
 0
VERTEX
 8
0
 10
0.0
 20
0.0
 30
0.0
 70
128
 71
107
 72
121
 73
120
 74
110
 0
VERTEX
 8
0
 10
0.0
 20
0.0
 30
0.0
 70
128
 71
111
 72
105
 73
110
 74
112
 0
VERTEX
 8
0
 10
0.0
 20
0.0
 30
0.0
 70
128
 71
105
 72
123
 73
125
 74
113
 0
VERTEX
 8
0
 10
0.0
 20
0.0
 30
0.0
 70
128
 71
125
 72
115
 73
114
 74
113
 0
VERTEX
 8
0
 10
0.0
 20
0.0
 30
0.0
 70
128
 71
124
 72
106
 73
114
 74
115
 0
VERTEX
 8
0
 10
0.0
 20
0.0
 30
0.0
 70
128
 71
124
 72
128
 73
108
 74
106
 0
VERTEX
 8
0
 10
0.0
 20
0.0
 30
0.0
 70
128
 71
130
 72
109
 73
108
 74
116
 0
VERTEX
 8
0
 10
0.0
 20
0.0
 30
0.0
 70
128
 71
117
 72
121
 73
107
 74
109
 0
VERTEX
 8
0
 10
0.0
 20
0.0
 30
0.0
 70
128
 71
118
 72
119
 73
120
 74
121
 0
VERTEX
 8
0
 10
0.0
 20
0.0
 30
0.0
 70
128
 71
135
 72
112
 73
110
 74
120
 0
VERTEX
 8
0
 10
0.0
 20
0.0
 30
0.0
 70
128
 71
105
 72
111
 73
122
 74
123
 0
VERTEX
 8
0
 10
0.0
 20
0.0
 30
0.0
 70
128
 71
111
 72
112
 73
135
 74
134
 0
VERTEX
 8
0
 10
0.0
 20
0.0
 30
0.0
 70
128
 71
123
 72
124
 73
115
 74
125
 0
VERTEX
 8
0
 10
0.0
 20
0.0
 30
0.0
 70
128
 71
126
 72
127
 73
128
 74
124
 0
VERTEX
 8
0
 10
0.0
 20
0.0
 30
0.0
 70
128
 71
108
 72
128
 73
140
 74
129
 0
VERTEX
 8
0
 10
0.0
 20
0.0
 30
0.0
 70
128
 71
130
 72
142
 73
117
 74
109
 0
VERTEX
 8
0
 10
0.0
 20
0.0
 30
0.0
 70
128
 71
116
 72
108
 73
129
 74
143
 0
VERTEX
 8
0
 10
0.0
 20
0.0
 30
0.0
 70
128
 71
131
 72
130
 73
116
 74
146
 0
VERTEX
 8
0
 10
0.0
 20
0.0
 30
0.0
 70
128
 71
132
 72
118
 73
121
 74
117
 0
VERTEX
 8
0
 10
0.0
 20
0.0
 30
0.0
 70
128
 71
119
 72
118
 73
133
 74
148
 0
VERTEX
 8
0
 10
0.0
 20
0.0
 30
0.0
 70
128
 71
119
 72
134
 73
135
 74
120
 0
VERTEX
 8
0
 10
0.0
 20
0.0
 30
0.0
 70
128
 71
111
 72
134
 73
136
 74
122
 0
VERTEX
 8
0
 10
0.0
 20
0.0
 30
0.0
 70
128
 71
151
 72
152
 73
123
 74
122
 0
VERTEX
 8
0
 10
0.0
 20
0.0
 30
0.0
 70
128
 71
152
 72
126
 73
124
 74
123
 0
VERTEX
 8
0
 10
0.0
 20
0.0
 30
0.0
 70
128
 71
137
 72
138
 73
127
 74
126
 0
VERTEX
 8
0
 10
0.0
 20
0.0
 30
0.0
 70
128
 71
139
 72
128
 73
127
 74
178
 0
VERTEX
 8
0
 10
0.0
 20
0.0
 30
0.0
 70
128
 71
128
 72
139
 73
144
 74
140
 0
VERTEX
 8
0
 10
0.0
 20
0.0
 30
0.0
 70
128
 71
143
 72
129
 73
140
 74
144
 0
VERTEX
 8
0
 10
0.0
 20
0.0
 30
0.0
 70
128
 71
131
 72
141
 73
142
 74
130
 0
VERTEX
 8
0
 10
0.0
 20
0.0
 30
0.0
 70
128
 71
117
 72
142
 73
157
 74
132
 0
VERTEX
 8
0
 10
0.0
 20
0.0
 30
0.0
 70
128
 71
139
 72
116
 73
143
 74
144
 0
VERTEX
 8
0
 10
0.0
 20
0.0
 30
0.0
 70
128
 71
146
 72
116
 73
139
 74
145
 0
VERTEX
 8
0
 10
0.0
 20
0.0
 30
0.0
 70
128
 71
156
 72
141
 73
131
 74
146
 0
VERTEX
 8
0
 10
0.0
 20
0.0
 30
0.0
 70
128
 71
184
 72
162
 73
118
 74
132
 0
VERTEX
 8
0
 10
0.0
 20
0.0
 30
0.0
 70
128
 71
118
 72
162
 73
147
 74
133
 0
VERTEX
 8
0
 10
0.0
 20
0.0
 30
0.0
 70
128
 71
133
 72
147
 73
149
 74
148
 0
VERTEX
 8
0
 10
0.0
 20
0.0
 30
0.0
 70
128
 71
150
 72
119
 73
148
 74
149
 0
VERTEX
 8
0
 10
0.0
 20
0.0
 30
0.0
 70
128
 71
150
 72
136
 73
134
 74
119
 0
VERTEX
 8
0
 10
0.0
 20
0.0
 30
0.0
 70
128
 71
163
 72
151
 73
122
 74
136
 0
VERTEX
 8
0
 10
0.0
 20
0.0
 30
0.0
 70
128
 71
165
 72
174
 73
152
 74
151
 0
VERTEX
 8
0
 10
0.0
 20
0.0
 30
0.0
 70
128
 71
126
 72
152
 73
167
 74
166
 0
VERTEX
 8
0
 10
0.0
 20
0.0
 30
0.0
 70
128
 71
170
 72
153
 73
138
 74
137
 0
VERTEX
 8
0
 10
0.0
 20
0.0
 30
0.0
 70
128
 71
127
 72
138
 73
154
 74
155
 0
VERTEX
 8
0
 10
0.0
 20
0.0
 30
0.0
 70
128
 71
137
 72
126
 73
166
 74
175
 0
VERTEX
 8
0
 10
0.0
 20
0.0
 30
0.0
 70
128
 71
178
 72
127
 73
155
 74
172
 0
VERTEX
 8
0
 10
0.0
 20
0.0
 30
0.0
 70
128
 71
145
 72
139
 73
178
 74
179
 0
VERTEX
 8
0
 10
0.0
 20
0.0
 30
0.0
 70
128
 71
142
 72
141
 73
156
 74
157
 0
VERTEX
 8
0
 10
0.0
 20
0.0
 30
0.0
 70
128
 71
132
 72
157
 73
158
 74
161
 0
VERTEX
 8
0
 10
0.0
 20
0.0
 30
0.0
 70
128
 71
159
 72
156
 73
146
 74
145
 0
VERTEX
 8
0
 10
0.0
 20
0.0
 30
0.0
 70
128
 71
194
 72
160
 73
162
 74
184
 0
VERTEX
 8
0
 10
0.0
 20
0.0
 30
0.0
 70
128
 71
184
 72
132
 73
161
 74
182
 0
VERTEX
 8
0
 10
0.0
 20
0.0
 30
0.0
 70
128
 71
162
 72
150
 73
149
 74
147
 0
VERTEX
 8
0
 10
0.0
 20
0.0
 30
0.0
 70
128
 71
193
 72
163
 73
136
 74
150
 0
VERTEX
 8
0
 10
0.0
 20
0.0
 30
0.0
 70
128
 71
164
 72
165
 73
151
 74
163
 0
VERTEX
 8
0
 10
0.0
 20
0.0
 30
0.0
 70
128
 71
188
 72
187
 73
174
 74
165
 0
VERTEX
 8
0
 10
0.0
 20
0.0
 30
0.0
 70
128
 71
152
 72
174
 73
176
 74
167
 0
VERTEX
 8
0
 10
0.0
 20
0.0
 30
0.0
 70
128
 71
176
 72
175
 73
166
 74
167
 0
VERTEX
 8
0
 10
0.0
 20
0.0
 30
0.0
 70
128
 71
168
 72
169
 73
153
 74
170
 0
VERTEX
 8
0
 10
0.0
 20
0.0
 30
0.0
 70
128
 71
177
 72
138
 73
153
 74
171
 0
VERTEX
 8
0
 10
0.0
 20
0.0
 30
0.0
 70
128
 71
187
 72
170
 73
137
 74
174
 0
VERTEX
 8
0
 10
0.0
 20
0.0
 30
0.0
 70
128
 71
138
 72
177
 73
173
 74
154
 0
VERTEX
 8
0
 10
0.0
 20
0.0
 30
0.0
 70
128
 71
172
 72
155
 73
154
 74
173
 0
VERTEX
 8
0
 10
0.0
 20
0.0
 30
0.0
 70
128
 71
174
 72
137
 73
175
 74
176
 0
VERTEX
 8
0
 10
0.0
 20
0.0
 30
0.0
 70
128
 71
177
 72
178
 73
172
 74
173
 0
VERTEX
 8
0
 10
0.0
 20
0.0
 30
0.0
 70
128
 71
179
 72
178
 73
177
 74
190
 0
VERTEX
 8
0
 10
0.0
 20
0.0
 30
0.0
 70
128
 71
145
 72
179
 73
180
 74
159
 0
VERTEX
 8
0
 10
0.0
 20
0.0
 30
0.0
 70
128
 71
157
 72
156
 73
159
 74
181
 0
VERTEX
 8
0
 10
0.0
 20
0.0
 30
0.0
 70
128
 71
157
 72
181
 73
185
 74
158
 0
VERTEX
 8
0
 10
0.0
 20
0.0
 30
0.0
 70
128
 71
158
 72
185
 73
182
 74
161
 0
VERTEX
 8
0
 10
0.0
 20
0.0
 30
0.0
 70
128
 71
183
 72
201
 73
160
 74
194
 0
VERTEX
 8
0
 10
0.0
 20
0.0
 30
0.0
 70
128
 71
160
 72
193
 73
150
 74
162
 0
VERTEX
 8
0
 10
0.0
 20
0.0
 30
0.0
 70
128
 71
194
 72
184
 73
181
 74
206
 0
VERTEX
 8
0
 10
0.0
 20
0.0
 30
0.0
 70
128
 71
181
 72
184
 73
182
 74
185
 0
VERTEX
 8
0
 10
0.0
 20
0.0
 30
0.0
 70
128
 71
202
 72
164
 73
163
 74
193
 0
VERTEX
 8
0
 10
0.0
 20
0.0
 30
0.0
 70
128
 71
186
 72
188
 73
165
 74
164
 0
VERTEX
 8
0
 10
0.0
 20
0.0
 30
0.0
 70
128
 71
186
 72
195
 73
187
 74
188
 0
VERTEX
 8
0
 10
0.0
 20
0.0
 30
0.0
 70
128
 71
169
 72
168
 73
201
 74
183
 0
VERTEX
 8
0
 10
0.0
 20
0.0
 30
0.0
 70
128
 71
169
 72
189
 73
171
 74
153
 0
VERTEX
 8
0
 10
0.0
 20
0.0
 30
0.0
 70
128
 71
195
 72
168
 73
170
 74
187
 0
VERTEX
 8
0
 10
0.0
 20
0.0
 30
0.0
 70
128
 71
190
 72
177
 73
171
 74
198
 0
VERTEX
 8
0
 10
0.0
 20
0.0
 30
0.0
 70
128
 71
179
 72
190
 73
200
 74
180
 0
VERTEX
 8
0
 10
0.0
 20
0.0
 30
0.0
 70
128
 71
181
 72
159
 73
180
 74
206
 0
VERTEX
 8
0
 10
0.0
 20
0.0
 30
0.0
 70
128
 71
160
 72
201
 73
191
 74
203
 0
VERTEX
 8
0
 10
0.0
 20
0.0
 30
0.0
 70
128
 71
183
 72
194
 73
192
 74
204
 0
VERTEX
 8
0
 10
0.0
 20
0.0
 30
0.0
 70
128
 71
193
 72
160
 73
203
 74
196
 0
VERTEX
 8
0
 10
0.0
 20
0.0
 30
0.0
 70
128
 71
194
 72
206
 73
208
 74
192
 0
VERTEX
 8
0
 10
0.0
 20
0.0
 30
0.0
 70
128
 71
195
 72
186
 73
164
 74
202
 0
VERTEX
 8
0
 10
0.0
 20
0.0
 30
0.0
 70
128
 71
202
 72
193
 73
196
 74
197
 0
VERTEX
 8
0
 10
0.0
 20
0.0
 30
0.0
 70
128
 71
168
 72
195
 73
202
 74
201
 0
VERTEX
 8
0
 10
0.0
 20
0.0
 30
0.0
 70
128
 71
183
 72
207
 73
189
 74
169
 0
VERTEX
 8
0
 10
0.0
 20
0.0
 30
0.0
 70
128
 71
198
 72
171
 73
189
 74
199
 0
VERTEX
 8
0
 10
0.0
 20
0.0
 30
0.0
 70
128
 71
198
 72
199
 73
200
 74
190
 0
VERTEX
 8
0
 10
0.0
 20
0.0
 30
0.0
 70
128
 71
206
 72
180
 73
200
 74
207
 0
VERTEX
 8
0
 10
0.0
 20
0.0
 30
0.0
 70
128
 71
201
 72
202
 73
197
 74
191
 0
VERTEX
 8
0
 10
0.0
 20
0.0
 30
0.0
 70
128
 71
203
 72
191
 73
197
 74
196
 0
VERTEX
 8
0
 10
0.0
 20
0.0
 30
0.0
 70
128
 71
204
 72
192
 73
208
 74
205
 0
VERTEX
 8
0
 10
0.0
 20
0.0
 30
0.0
 70
128
 71
207
 72
183
 73
204
 74
205
 0
VERTEX
 8
0
 10
0.0
 20
0.0
 30
0.0
 70
128
 71
206
 72
207
 73
205
 74
208
 0
VERTEX
 8
0
 10
0.0
 20
0.0
 30
0.0
 70
128
 71
207
 72
200
 73
199
 74
189
 0
VERTEX
 8
0
 10
0.0
 20
0.0
 30
0.0
 70
128
 71
214
 72
209
 73
211
 74
210
 0
VERTEX
 8
0
 10
0.0
 20
0.0
 30
0.0
 70
128
 71
214
 72
220
 73
215
 74
209
 0
VERTEX
 8
0
 10
0.0
 20
0.0
 30
0.0
 70
128
 71
209
 72
215
 73
224
 74
211
 0
VERTEX
 8
0
 10
0.0
 20
0.0
 30
0.0
 70
128
 71
210
 72
211
 73
217
 74
212
 0
VERTEX
 8
0
 10
0.0
 20
0.0
 30
0.0
 70
128
 71
210
 72
213
 73
220
 74
214
 0
VERTEX
 8
0
 10
0.0
 20
0.0
 30
0.0
 70
128
 71
231
 72
215
 73
220
 0
VERTEX
 8
0
 10
0.0
 20
0.0
 30
0.0
 70
128
 71
215
 72
222
 73
233
 74
224
 0
VERTEX
 8
0
 10
0.0
 20
0.0
 30
0.0
 70
128
 71
211
 72
224
 73
216
 74
217
 0
VERTEX
 8
0
 10
0.0
 20
0.0
 30
0.0
 70
128
 71
212
 72
217
 73
225
 74
218
 0
VERTEX
 8
0
 10
0.0
 20
0.0
 30
0.0
 70
128
 71
213
 72
210
 73
212
 74
219
 0
VERTEX
 8
0
 10
0.0
 20
0.0
 30
0.0
 70
128
 71
228
 72
220
 73
213
 74
229
 0
VERTEX
 8
0
 10
0.0
 20
0.0
 30
0.0
 70
128
 71
222
 72
215
 73
231
 74
223
 0
VERTEX
 8
0
 10
0.0
 20
0.0
 30
0.0
 70
128
 71
231
 72
220
 73
221
 74
242
 0
VERTEX
 8
0
 10
0.0
 20
0.0
 30
0.0
 70
128
 71
222
 72
223
 73
232
 74
233
 0
VERTEX
 8
0
 10
0.0
 20
0.0
 30
0.0
 70
128
 71
224
 72
233
 73
234
 74
216
 0
VERTEX
 8
0
 10
0.0
 20
0.0
 30
0.0
 70
128
 71
217
 72
216
 73
226
 74
225
 0
VERTEX
 8
0
 10
0.0
 20
0.0
 30
0.0
 70
128
 71
225
 72
226
 73
235
 74
218
 0
VERTEX
 8
0
 10
0.0
 20
0.0
 30
0.0
 70
128
 71
219
 72
212
 73
218
 74
235
 0
VERTEX
 8
0
 10
0.0
 20
0.0
 30
0.0
 70
128
 71
229
 72
213
 73
219
 74
237
 0
VERTEX
 8
0
 10
0.0
 20
0.0
 30
0.0
 70
128
 71
228
 72
221
 73
220
 0
VERTEX
 8
0
 10
0.0
 20
0.0
 30
0.0
 70
128
 71
227
 72
221
 73
228
 74
229
 0
VERTEX
 8
0
 10
0.0
 20
0.0
 30
0.0
 70
128
 71
238
 72
223
 73
231
 0
VERTEX
 8
0
 10
0.0
 20
0.0
 30
0.0
 70
128
 71
260
 72
242
 73
221
 0
VERTEX
 8
0
 10
0.0
 20
0.0
 30
0.0
 70
128
 71
242
 72
230
 73
243
 74
231
 0
VERTEX
 8
0
 10
0.0
 20
0.0
 30
0.0
 70
128
 71
223
 72
245
 73
244
 74
232
 0
VERTEX
 8
0
 10
0.0
 20
0.0
 30
0.0
 70
128
 71
233
 72
232
 73
247
 74
234
 0
VERTEX
 8
0
 10
0.0
 20
0.0
 30
0.0
 70
128
 71
216
 72
234
 73
248
 74
226
 0
VERTEX
 8
0
 10
0.0
 20
0.0
 30
0.0
 70
128
 71
267
 72
235
 73
226
 0
VERTEX
 8
0
 10
0.0
 20
0.0
 30
0.0
 70
128
 71
237
 72
219
 73
235
 74
251
 0
VERTEX
 8
0
 10
0.0
 20
0.0
 30
0.0
 70
128
 71
236
 72
227
 73
229
 74
237
 0
VERTEX
 8
0
 10
0.0
 20
0.0
 30
0.0
 70
128
 71
241
 72
221
 73
227
 74
271
 0
VERTEX
 8
0
 10
0.0
 20
0.0
 30
0.0
 70
128
 71
245
 72
223
 73
238
 74
255
 0
VERTEX
 8
0
 10
0.0
 20
0.0
 30
0.0
 70
128
 71
243
 72
254
 73
238
 74
231
 0
VERTEX
 8
0
 10
0.0
 20
0.0
 30
0.0
 70
128
 71
239
 72
242
 73
260
 0
VERTEX
 8
0
 10
0.0
 20
0.0
 30
0.0
 70
128
 71
240
 72
260
 73
221
 74
241
 0
VERTEX
 8
0
 10
0.0
 20
0.0
 30
0.0
 70
128
 71
282
 72
230
 73
242
 74
263
 0
VERTEX
 8
0
 10
0.0
 20
0.0
 30
0.0
 70
128
 71
230
 72
262
 73
266
 74
243
 0
VERTEX
 8
0
 10
0.0
 20
0.0
 30
0.0
 70
128
 71
244
 72
245
 73
246
 0
VERTEX
 8
0
 10
0.0
 20
0.0
 30
0.0
 70
128
 71
232
 72
244
 73
268
 74
247
 0
VERTEX
 8
0
 10
0.0
 20
0.0
 30
0.0
 70
128
 71
234
 72
247
 73
249
 74
248
 0
VERTEX
 8
0
 10
0.0
 20
0.0
 30
0.0
 70
128
 71
249
 72
267
 73
226
 74
248
 0
VERTEX
 8
0
 10
0.0
 20
0.0
 30
0.0
 70
128
 71
250
 72
270
 73
235
 74
267
 0
VERTEX
 8
0
 10
0.0
 20
0.0
 30
0.0
 70
128
 71
251
 72
235
 73
270
 0
VERTEX
 8
0
 10
0.0
 20
0.0
 30
0.0
 70
128
 71
270
 72
236
 73
237
 74
251
 0
VERTEX
 8
0
 10
0.0
 20
0.0
 30
0.0
 70
128
 71
271
 72
227
 73
236
 74
252
 0
VERTEX
 8
0
 10
0.0
 20
0.0
 30
0.0
 70
128
 71
271
 72
253
 73
240
 74
241
 0
VERTEX
 8
0
 10
0.0
 20
0.0
 30
0.0
 70
128
 71
254
 72
246
 73
255
 74
238
 0
VERTEX
 8
0
 10
0.0
 20
0.0
 30
0.0
 70
128
 71
245
 72
255
 73
246
 0
VERTEX
 8
0
 10
0.0
 20
0.0
 30
0.0
 70
128
 71
266
 72
256
 73
254
 74
243
 0
VERTEX
 8
0
 10
0.0
 20
0.0
 30
0.0
 70
128
 71
257
 72
258
 73
242
 74
239
 0
VERTEX
 8
0
 10
0.0
 20
0.0
 30
0.0
 70
128
 71
276
 72
239
 73
260
 74
259
 0
VERTEX
 8
0
 10
0.0
 20
0.0
 30
0.0
 70
128
 71
253
 72
277
 73
260
 74
240
 0
VERTEX
 8
0
 10
0.0
 20
0.0
 30
0.0
 70
128
 71
261
 72
262
 73
230
 74
282
 0
VERTEX
 8
0
 10
0.0
 20
0.0
 30
0.0
 70
128
 71
242
 72
258
 73
263
 0
VERTEX
 8
0
 10
0.0
 20
0.0
 30
0.0
 70
128
 71
264
 72
282
 73
263
 74
265
 0
VERTEX
 8
0
 10
0.0
 20
0.0
 30
0.0
 70
128
 71
266
 72
262
 73
250
 74
267
 0
VERTEX
 8
0
 10
0.0
 20
0.0
 30
0.0
 70
128
 71
272
 72
244
 73
246
 0
VERTEX
 8
0
 10
0.0
 20
0.0
 30
0.0
 70
128
 71
272
 72
268
 73
244
 0
VERTEX
 8
0
 10
0.0
 20
0.0
 30
0.0
 70
128
 71
247
 72
268
 73
269
 74
249
 0
VERTEX
 8
0
 10
0.0
 20
0.0
 30
0.0
 70
128
 71
286
 72
267
 73
249
 0
VERTEX
 8
0
 10
0.0
 20
0.0
 30
0.0
 70
128
 71
250
 72
299
 73
270
 0
VERTEX
 8
0
 10
0.0
 20
0.0
 30
0.0
 70
128
 71
270
 72
284
 73
252
 74
236
 0
VERTEX
 8
0
 10
0.0
 20
0.0
 30
0.0
 70
128
 71
252
 72
285
 73
253
 74
271
 0
VERTEX
 8
0
 10
0.0
 20
0.0
 30
0.0
 70
128
 71
256
 72
272
 73
246
 74
254
 0
VERTEX
 8
0
 10
0.0
 20
0.0
 30
0.0
 70
128
 71
267
 72
286
 73
256
 74
266
 0
VERTEX
 8
0
 10
0.0
 20
0.0
 30
0.0
 70
128
 71
258
 72
257
 73
273
 74
274
 0
VERTEX
 8
0
 10
0.0
 20
0.0
 30
0.0
 70
128
 71
257
 72
239
 73
275
 74
273
 0
VERTEX
 8
0
 10
0.0
 20
0.0
 30
0.0
 70
128
 71
239
 72
276
 73
279
 74
275
 0
VERTEX
 8
0
 10
0.0
 20
0.0
 30
0.0
 70
128
 71
277
 72
278
 73
259
 74
260
 0
VERTEX
 8
0
 10
0.0
 20
0.0
 30
0.0
 70
128
 71
276
 72
259
 73
278
 74
279
 0
VERTEX
 8
0
 10
0.0
 20
0.0
 30
0.0
 70
128
 71
285
 72
280
 73
277
 74
253
 0
VERTEX
 8
0
 10
0.0
 20
0.0
 30
0.0
 70
128
 71
281
 72
250
 73
262
 74
261
 0
VERTEX
 8
0
 10
0.0
 20
0.0
 30
0.0
 70
128
 71
294
 72
261
 73
282
 74
264
 0
VERTEX
 8
0
 10
0.0
 20
0.0
 30
0.0
 70
128
 71
265
 72
263
 73
258
 74
283
 0
VERTEX
 8
0
 10
0.0
 20
0.0
 30
0.0
 70
128
 71
264
 72
265
 73
283
 0
VERTEX
 8
0
 10
0.0
 20
0.0
 30
0.0
 70
128
 71
272
 72
269
 73
268
 0
VERTEX
 8
0
 10
0.0
 20
0.0
 30
0.0
 70
128
 71
287
 72
286
 73
249
 74
269
 0
VERTEX
 8
0
 10
0.0
 20
0.0
 30
0.0
 70
128
 71
299
 72
250
 73
298
 0
VERTEX
 8
0
 10
0.0
 20
0.0
 30
0.0
 70
128
 71
284
 72
270
 73
299
 74
290
 0
VERTEX
 8
0
 10
0.0
 20
0.0
 30
0.0
 70
128
 71
285
 72
252
 73
284
 74
290
 0
VERTEX
 8
0
 10
0.0
 20
0.0
 30
0.0
 70
128
 71
286
 72
287
 73
272
 74
256
 0
VERTEX
 8
0
 10
0.0
 20
0.0
 30
0.0
 70
128
 71
274
 72
273
 73
288
 74
296
 0
VERTEX
 8
0
 10
0.0
 20
0.0
 30
0.0
 70
128
 71
283
 72
258
 73
274
 74
295
 0
VERTEX
 8
0
 10
0.0
 20
0.0
 30
0.0
 70
128
 71
273
 72
275
 73
289
 74
288
 0
VERTEX
 8
0
 10
0.0
 20
0.0
 30
0.0
 70
128
 71
275
 72
279
 73
301
 74
289
 0
VERTEX
 8
0
 10
0.0
 20
0.0
 30
0.0
 70
128
 71
280
 72
302
 73
278
 74
277
 0
VERTEX
 8
0
 10
0.0
 20
0.0
 30
0.0
 70
128
 71
279
 72
278
 73
302
 74
301
 0
VERTEX
 8
0
 10
0.0
 20
0.0
 30
0.0
 70
128
 71
290
 72
299
 73
280
 74
285
 0
VERTEX
 8
0
 10
0.0
 20
0.0
 30
0.0
 70
128
 71
281
 72
291
 73
250
 0
VERTEX
 8
0
 10
0.0
 20
0.0
 30
0.0
 70
128
 71
292
 72
281
 73
261
 74
294
 0
VERTEX
 8
0
 10
0.0
 20
0.0
 30
0.0
 70
128
 71
293
 72
294
 73
264
 0
VERTEX
 8
0
 10
0.0
 20
0.0
 30
0.0
 70
128
 71
264
 72
283
 73
295
 0
VERTEX
 8
0
 10
0.0
 20
0.0
 30
0.0
 70
128
 71
272
 72
287
 73
269
 0
VERTEX
 8
0
 10
0.0
 20
0.0
 30
0.0
 70
128
 71
297
 72
298
 73
250
 74
291
 0
VERTEX
 8
0
 10
0.0
 20
0.0
 30
0.0
 70
128
 71
300
 72
299
 73
298
 74
303
 0
VERTEX
 8
0
 10
0.0
 20
0.0
 30
0.0
 70
128
 71
296
 72
288
 73
297
 74
291
 0
VERTEX
 8
0
 10
0.0
 20
0.0
 30
0.0
 70
128
 71
295
 72
274
 73
296
 74
293
 0
VERTEX
 8
0
 10
0.0
 20
0.0
 30
0.0
 70
128
 71
288
 72
289
 73
298
 74
297
 0
VERTEX
 8
0
 10
0.0
 20
0.0
 30
0.0
 70
128
 71
289
 72
301
 73
303
 74
298
 0
VERTEX
 8
0
 10
0.0
 20
0.0
 30
0.0
 70
128
 71
302
 72
280
 73
299
 74
300
 0
VERTEX
 8
0
 10
0.0
 20
0.0
 30
0.0
 70
128
 71
301
 72
302
 73
300
 74
303
 0
VERTEX
 8
0
 10
0.0
 20
0.0
 30
0.0
 70
128
 71
304
 72
291
 73
281
 74
292
 0
VERTEX
 8
0
 10
0.0
 20
0.0
 30
0.0
 70
128
 71
293
 72
292
 73
294
 0
VERTEX
 8
0
 10
0.0
 20
0.0
 30
0.0
 70
128
 71
264
 72
295
 73
293
 0
VERTEX
 8
0
 10
0.0
 20
0.0
 30
0.0
 70
128
 71
293
 72
296
 73
291
 74
304
 0
VERTEX
 8
0
 10
0.0
 20
0.0
 30
0.0
 70
128
 71
293
 72
304
 73
292
 0
SEQEND
 8
0
 0
ENDSEC
 0
EOF
