 0
SECTION
 2
HEADER
 9
$ACADVER
 1
AC1009
 0
ENDSEC
 0
SECTION
 2
BLOCKS
 0
ENDSEC
 0
SECTION
 2
ENTITIES
 0
POLYLINE
 8
0
 62
0
 66
1
 10
0
 20
0
 30
0
 70
64
 71
85
 72
89
 0
VERTEX
 8
0
 10
0.004142135381698608
 20
0.009999998845160007
 30
-0.0729999989271164
 70
192
 0
VERTEX
 8
0
 10
0.004142135381698608
 20
-0.009999998845160007
 30
-0.0729999989271164
 70
192
 0
VERTEX
 8
0
 10
0.004499776288866997
 20
0.010863421484827995
 30
-0.07769998908042908
 70
192
 0
VERTEX
 8
0
 10
0.004499776288866997
 20
-0.010863421484827995
 30
-0.07769998908042908
 70
192
 0
VERTEX
 8
0
 10
0.007567525841295719
 20
0.018269622698426247
 30
-0.07041338086128235
 70
192
 0
VERTEX
 8
0
 10
0.007567525841295719
 20
-0.018269622698426247
 30
-0.07041338086128235
 70
192
 0
VERTEX
 8
0
 10
0.009999998845160007
 20
0.004142135381698608
 30
-0.0729999989271164
 70
192
 0
VERTEX
 8
0
 10
0.009999998845160007
 20
-0.004142135381698608
 30
-0.0729999989271164
 70
192
 0
VERTEX
 8
0
 10
0.010438951663672924
 20
0.025201860815286636
 30
-0.06521517783403397
 70
192
 0
VERTEX
 8
0
 10
0.010438951663672924
 20
-0.025201860815286636
 30
-0.06521517783403397
 70
192
 0
VERTEX
 8
0
 10
0.010863421484827995
 20
0.004499776754528284
 30
-0.07769998908042908
 70
192
 0
VERTEX
 8
0
 10
0.010863421484827995
 20
-0.004499776288866997
 30
-0.07769998908042908
 70
192
 0
VERTEX
 8
0
 10
0.012344309128820896
 20
0.02980179712176323
 30
-0.058001451194286346
 70
192
 0
VERTEX
 8
0
 10
0.012344309128820896
 20
-0.02980179712176323
 30
-0.058001451194286346
 70
192
 0
VERTEX
 8
0
 10
0.013304139487445354
 20
0.0321190319955349
 30
-0.04959939047694206
 70
192
 0
VERTEX
 8
0
 10
0.013304139487445354
 20
-0.0321190319955349
 30
-0.04959939047694206
 70
192
 0
VERTEX
 8
0
 10
0.014944038353860378
 20
0.03607809916138649
 30
-0.041234493255615234
 70
192
 0
VERTEX
 8
0
 10
0.014944038353860378
 20
-0.03607809916138649
 30
-0.041234493255615234
 70
192
 0
VERTEX
 8
0
 10
0.017071813344955444
 20
0.04121500253677368
 30
-0.03413419425487518
 70
192
 0
VERTEX
 8
0
 10
0.017071815207600594
 20
-0.04121500253677368
 30
-0.03413419425487518
 70
192
 0
VERTEX
 8
0
 10
0.018269622698426247
 20
0.007567525841295719
 30
-0.07041338086128235
 70
192
 0
VERTEX
 8
0
 10
0.018269622698426247
 20
-0.007567525841295719
 30
-0.07041338086128235
 70
192
 0
VERTEX
 8
0
 10
0.020710676908493042
 20
0.04999999701976776
 30
-0.012999998405575752
 70
192
 0
VERTEX
 8
0
 10
0.020710676908493042
 20
0.04999999701976776
 30
-0.028999995440244675
 70
192
 0
VERTEX
 8
0
 10
0.020710676908493042
 20
-0.04999999701976776
 30
-0.012999998405575752
 70
192
 0
VERTEX
 8
0
 10
0.020710676908493042
 20
-0.04999999701976776
 30
-0.028999995440244675
 70
192
 0
VERTEX
 8
0
 10
0.025201860815286636
 20
0.010438951663672924
 30
-0.06521517783403397
 70
192
 0
VERTEX
 8
0
 10
0.025201858952641487
 20
-0.010438951663672924
 30
-0.06521517783403397
 70
192
 0
VERTEX
 8
0
 10
0.02980179712176323
 20
0.012344309128820896
 30
-0.058001451194286346
 70
192
 0
VERTEX
 8
0
 10
0.02980179712176323
 20
-0.012344309128820896
 30
-0.058001451194286346
 70
192
 0
VERTEX
 8
0
 10
0.0321190319955349
 20
0.013304139487445354
 30
-0.04959939047694206
 70
192
 0
VERTEX
 8
0
 10
0.0321190319955349
 20
-0.013304139487445354
 30
-0.04959939047694206
 70
192
 0
VERTEX
 8
0
 10
0.03607809916138649
 20
0.014944038353860378
 30
-0.041234493255615234
 70
192
 0
VERTEX
 8
0
 10
0.03607809916138649
 20
-0.014944038353860378
 30
-0.041234493255615234
 70
192
 0
VERTEX
 8
0
 10
0.04121500253677368
 20
0.017071815207600594
 30
-0.03413419425487518
 70
192
 0
VERTEX
 8
0
 10
0.04121500253677368
 20
-0.017071813344955444
 30
-0.03413419425487518
 70
192
 0
VERTEX
 8
0
 10
0.04999999701976776
 20
0.020710676908493042
 30
-0.012999998405575752
 70
192
 0
VERTEX
 8
0
 10
0.04999999701976776
 20
0.020710676908493042
 30
-0.028999995440244675
 70
192
 0
VERTEX
 8
0
 10
0.04999999701976776
 20
0.04999999701976776
 30
0.0
 70
192
 0
VERTEX
 8
0
 10
0.04999999701976776
 20
-0.020710676908493042
 30
-0.012999998405575752
 70
192
 0
VERTEX
 8
0
 10
0.04999999701976776
 20
-0.020710676908493042
 30
-0.028999995440244675
 70
192
 0
VERTEX
 8
0
 10
0.04999999701976776
 20
-0.04999999701976776
 30
0.0
 70
192
 0
VERTEX
 8
0
 10
-1.7134116188041205e-14
 20
3.036539932260024e-14
 30
-0.08739947527647018
 70
192
 0
VERTEX
 8
0
 10
-0.004142135381698608
 20
0.009999998845160007
 30
-0.0729999989271164
 70
192
 0
VERTEX
 8
0
 10
-0.004142135381698608
 20
-0.009999998845160007
 30
-0.0729999989271164
 70
192
 0
VERTEX
 8
0
 10
-0.004499776288866997
 20
0.010863421484827995
 30
-0.07769998908042908
 70
192
 0
VERTEX
 8
0
 10
-0.004499776754528284
 20
-0.010863421484827995
 30
-0.07769998908042908
 70
192
 0
VERTEX
 8
0
 10
-0.007567525841295719
 20
0.018269622698426247
 30
-0.07041338086128235
 70
192
 0
VERTEX
 8
0
 10
-0.007567525841295719
 20
-0.018269622698426247
 30
-0.07041338086128235
 70
192
 0
VERTEX
 8
0
 10
-0.009999998845160007
 20
0.004142135381698608
 30
-0.0729999989271164
 70
192
 0
VERTEX
 8
0
 10
-0.009999998845160007
 20
-0.004142135381698608
 30
-0.0729999989271164
 70
192
 0
VERTEX
 8
0
 10
-0.010438951663672924
 20
0.025201860815286636
 30
-0.06521517783403397
 70
192
 0
VERTEX
 8
0
 10
-0.010438951663672924
 20
-0.025201860815286636
 30
-0.06521517783403397
 70
192
 0
VERTEX
 8
0
 10
-0.010863421484827995
 20
0.004499776288866997
 30
-0.07769998908042908
 70
192
 0
VERTEX
 8
0
 10
-0.010863421484827995
 20
-0.004499776754528284
 30
-0.07769998908042908
 70
192
 0
VERTEX
 8
0
 10
-0.012344309128820896
 20
0.02980179712176323
 30
-0.05800144374370575
 70
192
 0
VERTEX
 8
0
 10
-0.012344309128820896
 20
-0.02980179712176323
 30
-0.058001451194286346
 70
192
 0
VERTEX
 8
0
 10
-0.013304139487445354
 20
0.0321190319955349
 30
-0.04959939047694206
 70
192
 0
VERTEX
 8
0
 10
-0.013304139487445354
 20
-0.0321190319955349
 30
-0.04959939047694206
 70
192
 0
VERTEX
 8
0
 10
-0.014944038353860378
 20
0.03607809543609619
 30
-0.041234493255615234
 70
192
 0
VERTEX
 8
0
 10
-0.014944038353860378
 20
-0.03607809916138649
 30
-0.041234493255615234
 70
192
 0
VERTEX
 8
0
 10
-0.017071813344955444
 20
0.04121500253677368
 30
-0.03413419425487518
 70
192
 0
VERTEX
 8
0
 10
-0.017071813344955444
 20
-0.04121500253677368
 30
-0.03413419425487518
 70
192
 0
VERTEX
 8
0
 10
-0.018269622698426247
 20
0.007567525841295719
 30
-0.07041338086128235
 70
192
 0
VERTEX
 8
0
 10
-0.018269622698426247
 20
-0.007567525841295719
 30
-0.07041338086128235
 70
192
 0
VERTEX
 8
0
 10
-0.020710676908493042
 20
0.04999999701976776
 30
-0.012999998405575752
 70
192
 0
VERTEX
 8
0
 10
-0.020710676908493042
 20
0.04999999701976776
 30
-0.028999995440244675
 70
192
 0
VERTEX
 8
0
 10
-0.020710676908493042
 20
-0.04999999701976776
 30
-0.012999998405575752
 70
192
 0
VERTEX
 8
0
 10
-0.020710676908493042
 20
-0.04999999701976776
 30
-0.028999995440244675
 70
192
 0
VERTEX
 8
0
 10
-0.025201860815286636
 20
0.010438951663672924
 30
-0.06521517783403397
 70
192
 0
VERTEX
 8
0
 10
-0.025201860815286636
 20
-0.010438951663672924
 30
-0.06521517783403397
 70
192
 0
VERTEX
 8
0
 10
-0.02980179712176323
 20
0.012344309128820896
 30
-0.058001451194286346
 70
192
 0
VERTEX
 8
0
 10
-0.02980179712176323
 20
-0.012344309128820896
 30
-0.05800144374370575
 70
192
 0
VERTEX
 8
0
 10
-0.0321190319955349
 20
0.013304139487445354
 30
-0.04959939047694206
 70
192
 0
VERTEX
 8
0
 10
-0.0321190319955349
 20
-0.013304139487445354
 30
-0.04959939047694206
 70
192
 0
VERTEX
 8
0
 10
-0.03607809543609619
 20
0.014944038353860378
 30
-0.041234493255615234
 70
192
 0
VERTEX
 8
0
 10
-0.03607809543609619
 20
-0.014944038353860378
 30
-0.041234493255615234
 70
192
 0
VERTEX
 8
0
 10
-0.04121500253677368
 20
0.017071813344955444
 30
-0.03413419425487518
 70
192
 0
VERTEX
 8
0
 10
-0.04121500253677368
 20
-0.017071813344955444
 30
-0.03413419425487518
 70
192
 0
VERTEX
 8
0
 10
-0.04999999701976776
 20
0.020710676908493042
 30
-0.012999998405575752
 70
192
 0
VERTEX
 8
0
 10
-0.04999999701976776
 20
0.020710676908493042
 30
-0.028999995440244675
 70
192
 0
VERTEX
 8
0
 10
-0.04999999701976776
 20
0.04999999701976776
 30
0.0
 70
192
 0
VERTEX
 8
0
 10
-0.04999999701976776
 20
-0.020710676908493042
 30
-0.012999998405575752
 70
192
 0
VERTEX
 8
0
 10
-0.04999999701976776
 20
-0.020710676908493042
 30
-0.028999995440244675
 70
192
 0
VERTEX
 8
0
 10
-0.04999999701976776
 20
-0.04999999701976776
 30
0.0
 70
192
 0
VERTEX
 8
0
 10
0
 20
0
 30
0
 62
0
 70
128
 71
84
 72
69
 73
68
 74
83
 0
VERTEX
 8
0
 10
0
 20
0
 30
0
 62
0
 70
128
 71
69
 72
84
 73
79
 74
63
 0
VERTEX
 8
0
 10
0
 20
0
 30
0
 62
0
 70
128
 71
69
 72
26
 73
25
 74
68
 0
VERTEX
 8
0
 10
0
 20
0
 30
0
 62
0
 70
128
 71
68
 72
85
 73
83
 0
VERTEX
 8
0
 10
0
 20
0
 30
0
 62
0
 70
128
 71
81
 72
84
 73
83
 74
80
 0
VERTEX
 8
0
 10
0
 20
0
 30
0
 62
0
 70
128
 71
84
 72
81
 73
78
 74
79
 0
VERTEX
 8
0
 10
0
 20
0
 30
0
 62
0
 70
128
 71
63
 72
79
 73
77
 74
61
 0
VERTEX
 8
0
 10
0
 20
0
 30
0
 62
0
 70
128
 71
26
 72
69
 73
63
 74
20
 0
VERTEX
 8
0
 10
0
 20
0
 30
0
 62
0
 70
128
 71
26
 72
41
 73
40
 74
25
 0
VERTEX
 8
0
 10
0
 20
0
 30
0
 62
0
 70
128
 71
25
 72
42
 73
85
 74
68
 0
VERTEX
 8
0
 10
0
 20
0
 30
0
 62
0
 70
128
 71
83
 72
85
 73
82
 74
80
 0
VERTEX
 8
0
 10
0
 20
0
 30
0
 62
0
 70
128
 71
67
 72
81
 73
80
 74
66
 0
VERTEX
 8
0
 10
0
 20
0
 30
0
 62
0
 70
128
 71
62
 72
78
 73
81
 74
67
 0
VERTEX
 8
0
 10
0
 20
0
 30
0
 62
0
 70
128
 71
79
 72
78
 73
76
 74
77
 0
VERTEX
 8
0
 10
0
 20
0
 30
0
 62
0
 70
128
 71
61
 72
77
 73
75
 74
59
 0
VERTEX
 8
0
 10
0
 20
0
 30
0
 62
0
 70
128
 71
20
 72
63
 73
61
 74
18
 0
VERTEX
 8
0
 10
0
 20
0
 30
0
 62
0
 70
128
 71
20
 72
36
 73
41
 74
26
 0
VERTEX
 8
0
 10
0
 20
0
 30
0
 62
0
 70
128
 71
41
 72
38
 73
37
 74
40
 0
VERTEX
 8
0
 10
0
 20
0
 30
0
 62
0
 70
128
 71
40
 72
42
 73
25
 0
VERTEX
 8
0
 10
0
 20
0
 30
0
 62
0
 70
128
 71
82
 72
85
 73
42
 74
39
 0
VERTEX
 8
0
 10
0
 20
0
 30
0
 62
0
 70
128
 71
80
 72
82
 73
66
 0
VERTEX
 8
0
 10
0
 20
0
 30
0
 62
0
 70
128
 71
24
 72
67
 73
66
 74
23
 0
VERTEX
 8
0
 10
0
 20
0
 30
0
 62
0
 70
128
 71
60
 72
76
 73
78
 74
62
 0
VERTEX
 8
0
 10
0
 20
0
 30
0
 62
0
 70
128
 71
19
 72
62
 73
67
 74
24
 0
VERTEX
 8
0
 10
0
 20
0
 30
0
 62
0
 70
128
 71
77
 72
76
 73
74
 74
75
 0
VERTEX
 8
0
 10
0
 20
0
 30
0
 62
0
 70
128
 71
59
 72
75
 73
73
 74
57
 0
VERTEX
 8
0
 10
0
 20
0
 30
0
 62
0
 70
128
 71
18
 72
61
 73
59
 74
16
 0
VERTEX
 8
0
 10
0
 20
0
 30
0
 62
0
 70
128
 71
18
 72
34
 73
36
 74
20
 0
VERTEX
 8
0
 10
0
 20
0
 30
0
 62
0
 70
128
 71
38
 72
41
 73
36
 74
35
 0
VERTEX
 8
0
 10
0
 20
0
 30
0
 62
0
 70
128
 71
38
 72
24
 73
23
 74
37
 0
VERTEX
 8
0
 10
0
 20
0
 30
0
 62
0
 70
128
 71
37
 72
39
 73
42
 74
40
 0
VERTEX
 8
0
 10
0
 20
0
 30
0
 62
0
 70
128
 71
66
 72
82
 73
39
 74
23
 0
VERTEX
 8
0
 10
0
 20
0
 30
0
 62
0
 70
128
 71
58
 72
74
 73
76
 74
60
 0
VERTEX
 8
0
 10
0
 20
0
 30
0
 62
0
 70
128
 71
17
 72
60
 73
62
 74
19
 0
VERTEX
 8
0
 10
0
 20
0
 30
0
 62
0
 70
128
 71
35
 72
19
 73
24
 74
38
 0
VERTEX
 8
0
 10
0
 20
0
 30
0
 62
0
 70
128
 71
72
 72
73
 73
75
 74
74
 0
VERTEX
 8
0
 10
0
 20
0
 30
0
 62
0
 70
128
 71
71
 72
53
 73
57
 74
73
 0
VERTEX
 8
0
 10
0
 20
0
 30
0
 62
0
 70
128
 71
57
 72
14
 73
16
 74
59
 0
VERTEX
 8
0
 10
0
 20
0
 30
0
 62
0
 70
128
 71
34
 72
18
 73
16
 74
32
 0
VERTEX
 8
0
 10
0
 20
0
 30
0
 62
0
 70
128
 71
34
 72
33
 73
35
 74
36
 0
VERTEX
 8
0
 10
0
 20
0
 30
0
 62
0
 70
128
 71
23
 72
39
 73
37
 0
VERTEX
 8
0
 10
0
 20
0
 30
0
 62
0
 70
128
 71
56
 72
72
 73
74
 74
58
 0
VERTEX
 8
0
 10
0
 20
0
 30
0
 62
0
 70
128
 71
15
 72
58
 73
60
 74
17
 0
VERTEX
 8
0
 10
0
 20
0
 30
0
 62
0
 70
128
 71
19
 72
35
 73
33
 74
17
 0
VERTEX
 8
0
 10
0
 20
0
 30
0
 62
0
 70
128
 71
73
 72
72
 73
70
 74
71
 0
VERTEX
 8
0
 10
0
 20
0
 30
0
 62
0
 70
128
 71
53
 72
71
 73
65
 74
49
 0
VERTEX
 8
0
 10
0
 20
0
 30
0
 62
0
 70
128
 71
53
 72
10
 73
14
 74
57
 0
VERTEX
 8
0
 10
0
 20
0
 30
0
 62
0
 70
128
 71
32
 72
16
 73
14
 74
30
 0
VERTEX
 8
0
 10
0
 20
0
 30
0
 62
0
 70
128
 71
32
 72
31
 73
33
 74
34
 0
VERTEX
 8
0
 10
0
 20
0
 30
0
 62
0
 70
128
 71
52
 72
70
 73
72
 74
56
 0
VERTEX
 8
0
 10
0
 20
0
 30
0
 62
0
 70
128
 71
13
 72
56
 73
58
 74
15
 0
VERTEX
 8
0
 10
0
 20
0
 30
0
 62
0
 70
128
 71
31
 72
15
 73
17
 74
33
 0
VERTEX
 8
0
 10
0
 20
0
 30
0
 62
0
 70
128
 71
64
 72
65
 73
71
 74
70
 0
VERTEX
 8
0
 10
0
 20
0
 30
0
 62
0
 70
128
 71
49
 72
65
 73
51
 74
45
 0
VERTEX
 8
0
 10
0
 20
0
 30
0
 62
0
 70
128
 71
49
 72
6
 73
10
 74
53
 0
VERTEX
 8
0
 10
0
 20
0
 30
0
 62
0
 70
128
 71
30
 72
14
 73
10
 74
28
 0
VERTEX
 8
0
 10
0
 20
0
 30
0
 62
0
 70
128
 71
31
 72
32
 73
30
 74
29
 0
VERTEX
 8
0
 10
0
 20
0
 30
0
 62
0
 70
128
 71
48
 72
64
 73
70
 74
52
 0
VERTEX
 8
0
 10
0
 20
0
 30
0
 62
0
 70
128
 71
9
 72
52
 73
56
 74
13
 0
VERTEX
 8
0
 10
0
 20
0
 30
0
 62
0
 70
128
 71
29
 72
13
 73
15
 74
31
 0
VERTEX
 8
0
 10
0
 20
0
 30
0
 62
0
 70
128
 71
50
 72
51
 73
65
 74
64
 0
VERTEX
 8
0
 10
0
 20
0
 30
0
 62
0
 70
128
 71
55
 72
47
 73
45
 74
51
 0
VERTEX
 8
0
 10
0
 20
0
 30
0
 62
0
 70
128
 71
6
 72
49
 73
45
 74
2
 0
VERTEX
 8
0
 10
0
 20
0
 30
0
 62
0
 70
128
 71
28
 72
10
 73
6
 74
22
 0
VERTEX
 8
0
 10
0
 20
0
 30
0
 62
0
 70
128
 71
29
 72
30
 73
28
 74
27
 0
VERTEX
 8
0
 10
0
 20
0
 30
0
 62
0
 70
128
 71
44
 72
50
 73
64
 74
48
 0
VERTEX
 8
0
 10
0
 20
0
 30
0
 62
0
 70
128
 71
5
 72
48
 73
52
 74
9
 0
VERTEX
 8
0
 10
0
 20
0
 30
0
 62
0
 70
128
 71
27
 72
9
 73
13
 74
29
 0
VERTEX
 8
0
 10
0
 20
0
 30
0
 62
0
 70
128
 71
51
 72
50
 73
54
 74
55
 0
VERTEX
 8
0
 10
0
 20
0
 30
0
 62
0
 70
128
 71
47
 72
55
 73
43
 0
VERTEX
 8
0
 10
0
 20
0
 30
0
 62
0
 70
128
 71
2
 72
45
 73
47
 74
4
 0
VERTEX
 8
0
 10
0
 20
0
 30
0
 62
0
 70
128
 71
2
 72
8
 73
22
 74
6
 0
VERTEX
 8
0
 10
0
 20
0
 30
0
 62
0
 70
128
 71
27
 72
28
 73
22
 74
21
 0
VERTEX
 8
0
 10
0
 20
0
 30
0
 62
0
 70
128
 71
50
 72
44
 73
46
 74
54
 0
VERTEX
 8
0
 10
0
 20
0
 30
0
 62
0
 70
128
 71
1
 72
44
 73
48
 74
5
 0
VERTEX
 8
0
 10
0
 20
0
 30
0
 62
0
 70
128
 71
21
 72
5
 73
9
 74
27
 0
VERTEX
 8
0
 10
0
 20
0
 30
0
 62
0
 70
128
 71
55
 72
54
 73
43
 0
VERTEX
 8
0
 10
0
 20
0
 30
0
 62
0
 70
128
 71
4
 72
47
 73
43
 0
VERTEX
 8
0
 10
0
 20
0
 30
0
 62
0
 70
128
 71
8
 72
2
 73
4
 74
12
 0
VERTEX
 8
0
 10
0
 20
0
 30
0
 62
0
 70
128
 71
21
 72
22
 73
8
 74
7
 0
VERTEX
 8
0
 10
0
 20
0
 30
0
 62
0
 70
128
 71
3
 72
46
 73
44
 74
1
 0
VERTEX
 8
0
 10
0
 20
0
 30
0
 62
0
 70
128
 71
46
 72
43
 73
54
 0
VERTEX
 8
0
 10
0
 20
0
 30
0
 62
0
 70
128
 71
5
 72
21
 73
7
 74
1
 0
VERTEX
 8
0
 10
0
 20
0
 30
0
 62
0
 70
128
 71
4
 72
43
 73
12
 0
VERTEX
 8
0
 10
0
 20
0
 30
0
 62
0
 70
128
 71
7
 72
8
 73
12
 74
11
 0
VERTEX
 8
0
 10
0
 20
0
 30
0
 62
0
 70
128
 71
46
 72
3
 73
43
 0
VERTEX
 8
0
 10
0
 20
0
 30
0
 62
0
 70
128
 71
11
 72
3
 73
1
 74
7
 0
VERTEX
 8
0
 10
0
 20
0
 30
0
 62
0
 70
128
 71
12
 72
43
 73
11
 0
VERTEX
 8
0
 10
0
 20
0
 30
0
 62
0
 70
128
 71
3
 72
11
 73
43
 0
SEQEND
 0
ENDSEC
 0
EOF
