 0
SECTION
 2
HEADER
 9
$ACADVER
 1
AC1009
 0
ENDSEC
 0
SECTION
 2
BLOCKS
 0
BLOCK
 8
0
 2
PARAPET
 70
0
 10
0
 20
0
 30
0
 3
PARAPET
 0
POLYLINE
 8
0
 66
1
 10
0.0
 20
0.0
 30
0.0
 0
VERTEX
 8
0
 10
0.25
 20
0.0
 30
0.0
 0
VERTEX
 8
0
 10
0.25
 20
0.7950000000000002
 30
0.0
 0
VERTEX
 8
0
 10
0.09
 20
0.7950000000000002
 30
0.0
 0
VERTEX
 8
0
 10
0.09
 20
0.02
 30
0.0
 0
VERTEX
 8
0
 10
-0.08
 20
0.02
 30
0.0
 0
VERTEX
 8
0
 10
-0.08
 20
0.0
 30
0.0
 0
SEQEND
 8
0
 0
POLYLINE
 8
0
 62
255
 66
1
 10
0.0
 20
0.0
 30
0.0
 0
VERTEX
 8
0
 62
255
 10
0.265
 20
0.7950000000000002
 30
0.0
 0
VERTEX
 8
0
 62
255
 10
0.268
 20
0.8070000000000001
 30
0.0
 0
VERTEX
 8
0
 62
255
 10
0.274
 20
0.8159999999999999
 30
0.0
 0
VERTEX
 8
0
 62
255
 10
0.283
 20
0.822
 30
0.0
 0
VERTEX
 8
0
 62
255
 10
0.295
 20
0.825
 30
0.0
 0
VERTEX
 8
0
 62
255
 10
0.295
 20
0.84
 30
0.0
 0
VERTEX
 8
0
 62
255
 10
0.305
 20
0.84
 30
0.0
 0
VERTEX
 8
0
 62
255
 10
0.317
 20
0.8420000000000001
 30
0.0
 0
VERTEX
 8
0
 62
255
 10
0.326
 20
0.849
 30
0.0
 0
VERTEX
 8
0
 62
255
 10
0.333
 20
0.858
 30
0.0
 0
VERTEX
 8
0
 62
255
 10
0.335
 20
0.8699999999999999
 30
0.0
 0
VERTEX
 8
0
 62
255
 10
0.333
 20
0.882
 30
0.0
 0
VERTEX
 8
0
 62
255
 10
0.326
 20
0.8909999999999998
 30
0.0
 0
VERTEX
 8
0
 62
255
 10
0.317
 20
0.898
 30
0.0
 0
VERTEX
 8
0
 62
255
 10
0.305
 20
0.9
 30
0.0
 0
VERTEX
 8
0
 62
255
 10
0.035
 20
0.9
 30
0.0
 0
VERTEX
 8
0
 62
255
 10
0.023
 20
0.898
 30
0.0
 0
VERTEX
 8
0
 62
255
 10
0.014
 20
0.8909999999999998
 30
0.0
 0
VERTEX
 8
0
 62
255
 10
0.007
 20
0.882
 30
0.0
 0
VERTEX
 8
0
 62
255
 10
0.005
 20
0.8699999999999999
 30
0.0
 0
VERTEX
 8
0
 62
255
 10
0.007
 20
0.858
 30
0.0
 0
VERTEX
 8
0
 62
255
 10
0.014
 20
0.849
 30
0.0
 0
VERTEX
 8
0
 62
255
 10
0.023
 20
0.8420000000000001
 30
0.0
 0
VERTEX
 8
0
 62
255
 10
0.035
 20
0.84
 30
0.0
 0
VERTEX
 8
0
 62
255
 10
0.045
 20
0.84
 30
0.0
 0
VERTEX
 8
0
 62
255
 10
0.045
 20
0.825
 30
0.0
 0
VERTEX
 8
0
 62
255
 10
0.057
 20
0.822
 30
0.0
 0
VERTEX
 8
0
 62
255
 10
0.066
 20
0.8159999999999999
 30
0.0
 0
VERTEX
 8
0
 62
255
 10
0.072
 20
0.8070000000000001
 30
0.0
 0
VERTEX
 8
0
 62
255
 10
0.075
 20
0.7950000000000002
 30
0.0
 0
SEQEND
 8
0
 62
255
 0
POLYLINE
 8
0
 62
255
 66
1
 10
0.0
 20
0.0
 30
0.0
 0
VERTEX
 8
0
 62
255
 10
0.25
 20
-0.1
 30
0.0
 0
VERTEX
 8
0
 62
255
 10
0.265
 20
-0.1
 30
0.0
 0
VERTEX
 8
0
 62
255
 10
0.265
 20
-0.085
 30
0.0
 0
VERTEX
 8
0
 62
255
 10
0.278
 20
-0.084
 30
0.0
 0
VERTEX
 8
0
 62
255
 10
0.289
 20
-0.081
 30
0.0
 0
VERTEX
 8
0
 62
255
 10
0.301
 20
-0.074
 30
0.0
 0
VERTEX
 8
0
 62
255
 10
0.309
 20
-0.065
 30
0.0
 0
VERTEX
 8
0
 62
255
 10
0.315
 20
-0.055
 30
0.0
 0
VERTEX
 8
0
 62
255
 10
0.324
 20
-0.044
 30
0.0
 0
VERTEX
 8
0
 62
255
 10
0.334
 20
-0.038
 30
0.0
 0
VERTEX
 8
0
 62
255
 10
0.345
 20
-0.035
 30
0.0
 0
VERTEX
 8
0
 62
255
 10
0.345
 20
-0.015
 30
0.0
 0
VERTEX
 8
0
 62
255
 10
0.25
 20
0.0
 30
0.0
 0
SEQEND
 8
0
 62
255
 0
ENDBLK
 8
0
 0
BLOCK
 8
0
 2
$MODEL_SPACE
 70
0
 10
0
 20
0
 30
0
 3
$MODEL_SPACE
 0
ENDBLK
 8
0
 0
BLOCK
 8
0
 2
$PAPER_SPACE
 70
0
 10
0
 20
0
 30
0
 3
$PAPER_SPACE
 0
ENDBLK
 8
0
 0
ENDSEC
 0
SECTION
 2
ENTITIES
 0
POLYLINE
 8
0
 62
0
 66
1
 10
0
 20
0
 30
0
 70
64
 71
0
 72
0
 0
SEQEND
 0
POLYLINE
 8
0
 62
33
 66
1
 10
0.0
 20
0.0
 30
0.0
 70
64
 71
64
 72
66
 0
VERTEX
 8
0
 10
0.0246
 20
0.0615
 30
1.0444444444444441
 70
192
 0
VERTEX
 8
0
 10
0.0246
 20
0.0615
 30
2.17
 70
192
 0
VERTEX
 8
0
 10
0.0246
 20
-0.0615
 30
1.0444444444444441
 70
192
 0
VERTEX
 8
0
 10
0.0246
 20
-0.0615
 30
2.17
 70
192
 0
VERTEX
 8
0
 10
0.04305
 20
0.04305
 30
0.0
 70
192
 0
VERTEX
 8
0
 10
0.04305
 20
0.04305
 30
0.053333333333334
 70
192
 0
VERTEX
 8
0
 10
0.04305
 20
0.04305
 30
2.3411111111111089
 70
192
 0
VERTEX
 8
0
 10
0.04305
 20
0.04305
 30
2.3644444444444379
 70
192
 0
VERTEX
 8
0
 10
0.04305
 20
-0.04305
 30
0.0
 70
192
 0
VERTEX
 8
0
 10
0.04305
 20
-0.04305
 30
0.053333333333334
 70
192
 0
VERTEX
 8
0
 10
0.04305
 20
-0.04305
 30
2.3411111111111089
 70
192
 0
VERTEX
 8
0
 10
0.04305
 20
-0.04305
 30
2.3644444444444379
 70
192
 0
VERTEX
 8
0
 10
0.0615
 20
0.0246
 30
1.0444444444444441
 70
192
 0
VERTEX
 8
0
 10
0.0615
 20
0.0246
 30
2.17
 70
192
 0
VERTEX
 8
0
 10
0.0615
 20
0.0615
 30
0.053333333333334
 70
192
 0
VERTEX
 8
0
 10
0.0615
 20
0.0615
 30
0.9977777777777779
 70
192
 0
VERTEX
 8
0
 10
0.0615
 20
0.0615
 30
2.216666666666669
 70
192
 0
VERTEX
 8
0
 10
0.0615
 20
0.0615
 30
2.3411111111111089
 70
192
 0
VERTEX
 8
0
 10
0.0615
 20
-0.0246
 30
1.0444444444444441
 70
192
 0
VERTEX
 8
0
 10
0.0615
 20
-0.0246
 30
2.17
 70
192
 0
VERTEX
 8
0
 10
0.0615
 20
-0.0615
 30
0.053333333333334
 70
192
 0
VERTEX
 8
0
 10
0.0615
 20
-0.0615
 30
0.9977777777777779
 70
192
 0
VERTEX
 8
0
 10
0.0615
 20
-0.0615
 30
2.216666666666669
 70
192
 0
VERTEX
 8
0
 10
0.0615
 20
-0.0615
 30
2.3411111111111089
 70
192
 0
VERTEX
 8
0
 10
0.07995
 20
0.07995
 30
2.3644444444444379
 70
192
 0
VERTEX
 8
0
 10
0.07995
 20
0.07995
 30
2.4266666666666681
 70
192
 0
VERTEX
 8
0
 10
0.07995
 20
-0.07995
 30
2.3644444444444379
 70
192
 0
VERTEX
 8
0
 10
0.07995
 20
-0.07995
 30
2.4266666666666681
 70
192
 0
VERTEX
 8
0
 10
0.0984
 20
0.0984
 30
2.4266666666666681
 70
192
 0
VERTEX
 8
0
 10
0.0984
 20
0.0984
 30
2.45
 70
192
 0
VERTEX
 8
0
 10
0.0984
 20
-0.0984
 30
2.4266666666666681
 70
192
 0
VERTEX
 8
0
 10
0.0984
 20
-0.0984
 30
2.45
 70
192
 0
VERTEX
 8
0
 10
-0.0246
 20
0.0615
 30
1.0444444444444441
 70
192
 0
VERTEX
 8
0
 10
-0.0246
 20
0.0615
 30
2.17
 70
192
 0
VERTEX
 8
0
 10
-0.0246
 20
-0.0615
 30
1.0444444444444441
 70
192
 0
VERTEX
 8
0
 10
-0.0246
 20
-0.0615
 30
2.17
 70
192
 0
VERTEX
 8
0
 10
-0.04305
 20
0.04305
 30
0.0
 70
192
 0
VERTEX
 8
0
 10
-0.04305
 20
0.04305
 30
0.053333333333334
 70
192
 0
VERTEX
 8
0
 10
-0.04305
 20
0.04305
 30
2.3411111111111089
 70
192
 0
VERTEX
 8
0
 10
-0.04305
 20
0.04305
 30
2.3644444444444379
 70
192
 0
VERTEX
 8
0
 10
-0.04305
 20
-0.04305
 30
0.0
 70
192
 0
VERTEX
 8
0
 10
-0.04305
 20
-0.04305
 30
0.053333333333334
 70
192
 0
VERTEX
 8
0
 10
-0.04305
 20
-0.04305
 30
2.3411111111111089
 70
192
 0
VERTEX
 8
0
 10
-0.04305
 20
-0.04305
 30
2.3644444444444379
 70
192
 0
VERTEX
 8
0
 10
-0.0615
 20
0.0246
 30
1.0444444444444441
 70
192
 0
VERTEX
 8
0
 10
-0.0615
 20
0.0246
 30
2.17
 70
192
 0
VERTEX
 8
0
 10
-0.0615
 20
0.0615
 30
0.053333333333334
 70
192
 0
VERTEX
 8
0
 10
-0.0615
 20
0.0615
 30
0.9977777777777779
 70
192
 0
VERTEX
 8
0
 10
-0.0615
 20
0.0615
 30
2.216666666666669
 70
192
 0
VERTEX
 8
0
 10
-0.0615
 20
0.0615
 30
2.3411111111111089
 70
192
 0
VERTEX
 8
0
 10
-0.0615
 20
-0.0246
 30
1.0444444444444441
 70
192
 0
VERTEX
 8
0
 10
-0.0615
 20
-0.0246
 30
2.17
 70
192
 0
VERTEX
 8
0
 10
-0.0615
 20
-0.0615
 30
0.053333333333334
 70
192
 0
VERTEX
 8
0
 10
-0.0615
 20
-0.0615
 30
0.9977777777777779
 70
192
 0
VERTEX
 8
0
 10
-0.0615
 20
-0.0615
 30
2.216666666666669
 70
192
 0
VERTEX
 8
0
 10
-0.0615
 20
-0.0615
 30
2.3411111111111089
 70
192
 0
VERTEX
 8
0
 10
-0.07995
 20
0.07995
 30
2.3644444444444379
 70
192
 0
VERTEX
 8
0
 10
-0.07995
 20
0.07995
 30
2.4266666666666681
 70
192
 0
VERTEX
 8
0
 10
-0.07995
 20
-0.07995
 30
2.3644444444444379
 70
192
 0
VERTEX
 8
0
 10
-0.07995
 20
-0.07995
 30
2.4266666666666681
 70
192
 0
VERTEX
 8
0
 10
-0.0984
 20
0.0984
 30
2.4266666666666681
 70
192
 0
VERTEX
 8
0
 10
-0.0984
 20
0.0984
 30
2.45
 70
192
 0
VERTEX
 8
0
 10
-0.0984
 20
-0.0984
 30
2.4266666666666681
 70
192
 0
VERTEX
 8
0
 10
-0.0984
 20
-0.0984
 30
2.45
 70
192
 0
VERTEX
 8
0
 62
33
 10
0.0
 20
0.0
 30
0.0
 70
128
 71
4
 72
20
 73
23
 0
VERTEX
 8
0
 62
33
 10
0.0
 20
0.0
 30
0.0
 70
128
 71
19
 72
20
 73
4
 74
3
 0
VERTEX
 8
0
 62
33
 10
0.0
 20
0.0
 30
0.0
 70
128
 71
20
 72
14
 73
17
 74
23
 0
VERTEX
 8
0
 62
33
 10
0.0
 20
0.0
 30
0.0
 70
128
 71
36
 72
4
 73
23
 74
55
 0
VERTEX
 8
0
 62
33
 10
0.0
 20
0.0
 30
0.0
 70
128
 71
3
 72
4
 73
36
 74
35
 0
VERTEX
 8
0
 62
33
 10
0.0
 20
0.0
 30
0.0
 70
128
 71
19
 72
3
 73
22
 0
VERTEX
 8
0
 62
33
 10
0.0
 20
0.0
 30
0.0
 70
128
 71
20
 72
19
 73
13
 74
14
 0
VERTEX
 8
0
 62
33
 10
0.0
 20
0.0
 30
0.0
 70
128
 71
14
 72
2
 73
17
 0
VERTEX
 8
0
 62
33
 10
0.0
 20
0.0
 30
0.0
 70
128
 71
18
 72
24
 73
23
 74
17
 0
VERTEX
 8
0
 62
33
 10
0.0
 20
0.0
 30
0.0
 70
128
 71
56
 72
55
 73
23
 74
24
 0
VERTEX
 8
0
 62
33
 10
0.0
 20
0.0
 30
0.0
 70
128
 71
55
 72
52
 73
36
 0
VERTEX
 8
0
 62
33
 10
0.0
 20
0.0
 30
0.0
 70
128
 71
35
 72
36
 73
52
 74
51
 0
VERTEX
 8
0
 62
33
 10
0.0
 20
0.0
 30
0.0
 70
128
 71
35
 72
54
 73
22
 74
3
 0
VERTEX
 8
0
 62
33
 10
0.0
 20
0.0
 30
0.0
 70
128
 71
19
 72
22
 73
16
 74
13
 0
VERTEX
 8
0
 62
33
 10
0.0
 20
0.0
 30
0.0
 70
128
 71
1
 72
2
 73
14
 74
13
 0
VERTEX
 8
0
 62
33
 10
0.0
 20
0.0
 30
0.0
 70
128
 71
34
 72
49
 73
17
 74
2
 0
VERTEX
 8
0
 62
33
 10
0.0
 20
0.0
 30
0.0
 70
128
 71
24
 72
18
 73
7
 74
11
 0
VERTEX
 8
0
 62
33
 10
0.0
 20
0.0
 30
0.0
 70
128
 71
18
 72
17
 73
49
 74
50
 0
VERTEX
 8
0
 62
33
 10
0.0
 20
0.0
 30
0.0
 70
128
 71
50
 72
49
 73
55
 74
56
 0
VERTEX
 8
0
 62
33
 10
0.0
 20
0.0
 30
0.0
 70
128
 71
43
 72
56
 73
24
 74
11
 0
VERTEX
 8
0
 62
33
 10
0.0
 20
0.0
 30
0.0
 70
128
 71
52
 72
55
 73
49
 74
46
 0
VERTEX
 8
0
 62
33
 10
0.0
 20
0.0
 30
0.0
 70
128
 71
46
 72
45
 73
51
 74
52
 0
VERTEX
 8
0
 62
33
 10
0.0
 20
0.0
 30
0.0
 70
128
 71
51
 72
54
 73
35
 0
VERTEX
 8
0
 62
33
 10
0.0
 20
0.0
 30
0.0
 70
128
 71
21
 72
22
 73
54
 74
53
 0
VERTEX
 8
0
 62
33
 10
0.0
 20
0.0
 30
0.0
 70
128
 71
15
 72
16
 73
22
 74
21
 0
VERTEX
 8
0
 62
33
 10
0.0
 20
0.0
 30
0.0
 70
128
 71
1
 72
13
 73
16
 0
VERTEX
 8
0
 62
33
 10
0.0
 20
0.0
 30
0.0
 70
128
 71
2
 72
1
 73
33
 74
34
 0
VERTEX
 8
0
 62
33
 10
0.0
 20
0.0
 30
0.0
 70
128
 71
34
 72
46
 73
49
 0
VERTEX
 8
0
 62
33
 10
0.0
 20
0.0
 30
0.0
 70
128
 71
39
 72
7
 73
18
 74
50
 0
VERTEX
 8
0
 62
33
 10
0.0
 20
0.0
 30
0.0
 70
128
 71
7
 72
8
 73
12
 74
11
 0
VERTEX
 8
0
 62
33
 10
0.0
 20
0.0
 30
0.0
 70
128
 71
43
 72
39
 73
50
 74
56
 0
VERTEX
 8
0
 62
33
 10
0.0
 20
0.0
 30
0.0
 70
128
 71
44
 72
43
 73
11
 74
12
 0
VERTEX
 8
0
 62
33
 10
0.0
 20
0.0
 30
0.0
 70
128
 71
45
 72
46
 73
34
 74
33
 0
VERTEX
 8
0
 62
33
 10
0.0
 20
0.0
 30
0.0
 70
128
 71
51
 72
45
 73
48
 74
54
 0
VERTEX
 8
0
 62
33
 10
0.0
 20
0.0
 30
0.0
 70
128
 71
47
 72
53
 73
54
 74
48
 0
VERTEX
 8
0
 62
33
 10
0.0
 20
0.0
 30
0.0
 70
128
 71
21
 72
53
 73
42
 74
10
 0
VERTEX
 8
0
 62
33
 10
0.0
 20
0.0
 30
0.0
 70
128
 71
15
 72
47
 73
48
 74
16
 0
VERTEX
 8
0
 62
33
 10
0.0
 20
0.0
 30
0.0
 70
128
 71
10
 72
6
 73
15
 74
21
 0
VERTEX
 8
0
 62
33
 10
0.0
 20
0.0
 30
0.0
 70
128
 71
33
 72
1
 73
16
 74
48
 0
VERTEX
 8
0
 62
33
 10
0.0
 20
0.0
 30
0.0
 70
128
 71
39
 72
40
 73
8
 74
7
 0
VERTEX
 8
0
 62
33
 10
0.0
 20
0.0
 30
0.0
 70
128
 71
25
 72
27
 73
12
 74
8
 0
VERTEX
 8
0
 62
33
 10
0.0
 20
0.0
 30
0.0
 70
128
 71
40
 72
39
 73
43
 74
44
 0
VERTEX
 8
0
 62
33
 10
0.0
 20
0.0
 30
0.0
 70
128
 71
44
 72
12
 73
27
 74
59
 0
VERTEX
 8
0
 62
33
 10
0.0
 20
0.0
 30
0.0
 70
128
 71
45
 72
33
 73
48
 0
VERTEX
 8
0
 62
33
 10
0.0
 20
0.0
 30
0.0
 70
128
 71
38
 72
42
 73
53
 74
47
 0
VERTEX
 8
0
 62
33
 10
0.0
 20
0.0
 30
0.0
 70
128
 71
42
 72
41
 73
9
 74
10
 0
VERTEX
 8
0
 62
33
 10
0.0
 20
0.0
 30
0.0
 70
128
 71
38
 72
47
 73
15
 74
6
 0
VERTEX
 8
0
 62
33
 10
0.0
 20
0.0
 30
0.0
 70
128
 71
5
 72
6
 73
10
 74
9
 0
VERTEX
 8
0
 62
33
 10
0.0
 20
0.0
 30
0.0
 70
128
 71
25
 72
8
 73
40
 74
57
 0
VERTEX
 8
0
 62
33
 10
0.0
 20
0.0
 30
0.0
 70
128
 71
25
 72
26
 73
28
 74
27
 0
VERTEX
 8
0
 62
33
 10
0.0
 20
0.0
 30
0.0
 70
128
 71
59
 72
57
 73
40
 74
44
 0
VERTEX
 8
0
 62
33
 10
0.0
 20
0.0
 30
0.0
 70
128
 71
60
 72
59
 73
27
 74
28
 0
VERTEX
 8
0
 62
33
 10
0.0
 20
0.0
 30
0.0
 70
128
 71
38
 72
37
 73
41
 74
42
 0
VERTEX
 8
0
 62
33
 10
0.0
 20
0.0
 30
0.0
 70
128
 71
37
 72
38
 73
6
 74
5
 0
VERTEX
 8
0
 62
33
 10
0.0
 20
0.0
 30
0.0
 70
128
 71
57
 72
58
 73
26
 74
25
 0
VERTEX
 8
0
 62
33
 10
0.0
 20
0.0
 30
0.0
 70
128
 71
29
 72
31
 73
28
 74
26
 0
VERTEX
 8
0
 62
33
 10
0.0
 20
0.0
 30
0.0
 70
128
 71
58
 72
57
 73
59
 74
60
 0
VERTEX
 8
0
 62
33
 10
0.0
 20
0.0
 30
0.0
 70
128
 71
60
 72
28
 73
31
 74
63
 0
VERTEX
 8
0
 62
33
 10
0.0
 20
0.0
 30
0.0
 70
128
 71
29
 72
26
 73
58
 74
61
 0
VERTEX
 8
0
 62
33
 10
0.0
 20
0.0
 30
0.0
 70
128
 71
29
 72
30
 73
32
 74
31
 0
VERTEX
 8
0
 62
33
 10
0.0
 20
0.0
 30
0.0
 70
128
 71
63
 72
61
 73
58
 74
60
 0
VERTEX
 8
0
 62
33
 10
0.0
 20
0.0
 30
0.0
 70
128
 71
64
 72
63
 73
31
 74
32
 0
VERTEX
 8
0
 62
33
 10
0.0
 20
0.0
 30
0.0
 70
128
 71
61
 72
62
 73
30
 74
29
 0
VERTEX
 8
0
 62
33
 10
0.0
 20
0.0
 30
0.0
 70
128
 71
62
 72
64
 73
32
 74
30
 0
VERTEX
 8
0
 62
33
 10
0.0
 20
0.0
 30
0.0
 70
128
 71
63
 72
64
 73
62
 74
61
 0
VERTEX
 8
0
 62
33
 10
0.0
 20
0.0
 30
0.0
 70
128
 71
41
 72
37
 73
5
 74
9
 0
SEQEND
 8
0
 0
ENDSEC
 0
EOF
