 0
SECTION
 2
HEADER
 9
$ACADVER
 1
AC1009
 0
ENDSEC
 0
SECTION
 2
BLOCKS
 0
BLOCK
 8
0
 2
*Model_Space
 70
0
 10
0
 20
0
 30
0
 3
*Model_Space
 0
ENDBLK
 8
0
 0
BLOCK
 8
0
 2
*Paper_Space
 70
0
 10
0
 20
0
 30
0
 3
*Paper_Space
 0
ENDBLK
 8
0
 0
ENDSEC
 0
SECTION
 2
ENTITIES
 0
POLYLINE
 8
0
 62
255
 66
1
 10
0
 20
0
 30
0
 70
64
 71
122
 72
159
 0
VERTEX
 8
0
 10
0.0
 20
0.08
 30
0.0
 70
192
 0
VERTEX
 8
0
 10
0.0
 20
0.08
 30
0.052167
 70
192
 0
VERTEX
 8
0
 10
0.0
 20
0.08
 30
0.077167
 70
192
 0
VERTEX
 8
0
 10
0.0
 20
-0.06
 30
0.077167
 70
192
 0
VERTEX
 8
0
 10
0.0
 20
-0.06
 30
1.82
 70
192
 0
VERTEX
 8
0
 10
0.0
 20
-0.15
 30
0.026667
 70
192
 0
VERTEX
 8
0
 10
0.0
 20
-0.15
 30
1.82
 70
192
 0
VERTEX
 8
0
 10
0.0
 20
-0.25
 30
0.0
 70
192
 0
VERTEX
 8
0
 10
0.0
 20
-0.25
 30
0.01
 70
192
 0
VERTEX
 8
0
 10
0.01
 20
-0.06
 30
0.077167
 70
192
 0
VERTEX
 8
0
 10
0.01
 20
-0.06
 30
1.81
 70
192
 0
VERTEX
 8
0
 10
0.01
 20
-0.075
 30
0.077167
 70
192
 0
VERTEX
 8
0
 10
0.01
 20
-0.075
 30
0.9752085
 70
192
 0
VERTEX
 8
0
 10
0.01
 20
-0.105
 30
0.077167
 70
192
 0
VERTEX
 8
0
 10
0.01
 20
-0.105
 30
0.9370835
 70
192
 0
VERTEX
 8
0
 10
0.01
 20
-0.105
 30
0.9752085
 70
192
 0
VERTEX
 8
0
 10
0.01
 20
-0.105
 30
1.81
 70
192
 0
VERTEX
 8
0
 10
0.01
 20
-0.135
 30
0.9370835
 70
192
 0
VERTEX
 8
0
 10
0.01
 20
-0.135
 30
1.81
 70
192
 0
VERTEX
 8
0
 10
0.01
 20
-0.15
 30
0.077167
 70
192
 0
VERTEX
 8
0
 10
0.01
 20
-0.15
 30
1.81
 70
192
 0
VERTEX
 8
0
 10
0.033125
 20
-0.075
 30
0.125417
 70
192
 0
VERTEX
 8
0
 10
0.033125
 20
-0.075
 30
0.52625025
 70
192
 0
VERTEX
 8
0
 10
0.033125
 20
-0.075
 30
0.53625025
 70
192
 0
VERTEX
 8
0
 10
0.033125
 20
-0.075
 30
0.9370835
 70
192
 0
VERTEX
 8
0
 10
0.033125
 20
-0.105
 30
0.125417
 70
192
 0
VERTEX
 8
0
 10
0.033125
 20
-0.105
 30
0.52625025
 70
192
 0
VERTEX
 8
0
 10
0.033125
 20
-0.105
 30
0.53625025
 70
192
 0
VERTEX
 8
0
 10
0.033125
 20
-0.105
 30
0.9370835
 70
192
 0
VERTEX
 8
0
 10
0.033125
 20
-0.105
 30
0.9752085
 70
192
 0
VERTEX
 8
0
 10
0.033125
 20
-0.105
 30
1.37604175
 70
192
 0
VERTEX
 8
0
 10
0.033125
 20
-0.105
 30
1.38604175
 70
192
 0
VERTEX
 8
0
 10
0.033125
 20
-0.105
 30
1.786875
 70
192
 0
VERTEX
 8
0
 10
0.033125
 20
-0.135
 30
0.9752085
 70
192
 0
VERTEX
 8
0
 10
0.033125
 20
-0.135
 30
1.37604175
 70
192
 0
VERTEX
 8
0
 10
0.033125
 20
-0.135
 30
1.38604175
 70
192
 0
VERTEX
 8
0
 10
0.033125
 20
-0.135
 30
1.786875
 70
192
 0
VERTEX
 8
0
 10
0.3075
 20
-0.075
 30
0.125417
 70
192
 0
VERTEX
 8
0
 10
0.3075
 20
-0.075
 30
0.52625025
 70
192
 0
VERTEX
 8
0
 10
0.3075
 20
-0.075
 30
0.53625025
 70
192
 0
VERTEX
 8
0
 10
0.3075
 20
-0.075
 30
0.9370835
 70
192
 0
VERTEX
 8
0
 10
0.3075
 20
-0.105
 30
0.125417
 70
192
 0
VERTEX
 8
0
 10
0.3075
 20
-0.105
 30
0.52625025
 70
192
 0
VERTEX
 8
0
 10
0.3075
 20
-0.105
 30
0.53625025
 70
192
 0
VERTEX
 8
0
 10
0.3075
 20
-0.105
 30
0.9370835
 70
192
 0
VERTEX
 8
0
 10
0.3075
 20
-0.105
 30
0.9752085
 70
192
 0
VERTEX
 8
0
 10
0.3075
 20
-0.105
 30
1.37604175
 70
192
 0
VERTEX
 8
0
 10
0.3075
 20
-0.105
 30
1.38604175
 70
192
 0
VERTEX
 8
0
 10
0.3075
 20
-0.105
 30
1.786875
 70
192
 0
VERTEX
 8
0
 10
0.3075
 20
-0.135
 30
0.9752085
 70
192
 0
VERTEX
 8
0
 10
0.3075
 20
-0.135
 30
1.37604175
 70
192
 0
VERTEX
 8
0
 10
0.3075
 20
-0.135
 30
1.38604175
 70
192
 0
VERTEX
 8
0
 10
0.3075
 20
-0.135
 30
1.786875
 70
192
 0
VERTEX
 8
0
 10
0.3175
 20
-0.075
 30
0.125417
 70
192
 0
VERTEX
 8
0
 10
0.3175
 20
-0.075
 30
0.52625025
 70
192
 0
VERTEX
 8
0
 10
0.3175
 20
-0.075
 30
0.53625025
 70
192
 0
VERTEX
 8
0
 10
0.3175
 20
-0.075
 30
0.9370835
 70
192
 0
VERTEX
 8
0
 10
0.3175
 20
-0.105
 30
0.125417
 70
192
 0
VERTEX
 8
0
 10
0.3175
 20
-0.105
 30
0.52625025
 70
192
 0
VERTEX
 8
0
 10
0.3175
 20
-0.105
 30
0.53625025
 70
192
 0
VERTEX
 8
0
 10
0.3175
 20
-0.105
 30
0.9370835
 70
192
 0
VERTEX
 8
0
 10
0.3175
 20
-0.105
 30
0.9752085
 70
192
 0
VERTEX
 8
0
 10
0.3175
 20
-0.105
 30
1.37604175
 70
192
 0
VERTEX
 8
0
 10
0.3175
 20
-0.105
 30
1.38604175
 70
192
 0
VERTEX
 8
0
 10
0.3175
 20
-0.105
 30
1.786875
 70
192
 0
VERTEX
 8
0
 10
0.3175
 20
-0.135
 30
0.9752085
 70
192
 0
VERTEX
 8
0
 10
0.3175
 20
-0.135
 30
1.37604175
 70
192
 0
VERTEX
 8
0
 10
0.3175
 20
-0.135
 30
1.38604175
 70
192
 0
VERTEX
 8
0
 10
0.3175
 20
-0.135
 30
1.786875
 70
192
 0
VERTEX
 8
0
 10
0.591875
 20
-0.075
 30
0.125417
 70
192
 0
VERTEX
 8
0
 10
0.591875
 20
-0.075
 30
0.52625025
 70
192
 0
VERTEX
 8
0
 10
0.591875
 20
-0.075
 30
0.53625025
 70
192
 0
VERTEX
 8
0
 10
0.591875
 20
-0.075
 30
0.9370835
 70
192
 0
VERTEX
 8
0
 10
0.591875
 20
-0.105
 30
0.125417
 70
192
 0
VERTEX
 8
0
 10
0.591875
 20
-0.105
 30
0.52625025
 70
192
 0
VERTEX
 8
0
 10
0.591875
 20
-0.105
 30
0.53625025
 70
192
 0
VERTEX
 8
0
 10
0.591875
 20
-0.105
 30
0.9370835
 70
192
 0
VERTEX
 8
0
 10
0.591875
 20
-0.105
 30
0.9752085
 70
192
 0
VERTEX
 8
0
 10
0.591875
 20
-0.105
 30
1.37604175
 70
192
 0
VERTEX
 8
0
 10
0.591875
 20
-0.105
 30
1.38604175
 70
192
 0
VERTEX
 8
0
 10
0.591875
 20
-0.105
 30
1.786875
 70
192
 0
VERTEX
 8
0
 10
0.591875
 20
-0.135
 30
0.9752085
 70
192
 0
VERTEX
 8
0
 10
0.591875
 20
-0.135
 30
1.37604175
 70
192
 0
VERTEX
 8
0
 10
0.591875
 20
-0.135
 30
1.38604175
 70
192
 0
VERTEX
 8
0
 10
0.591875
 20
-0.135
 30
1.786875
 70
192
 0
VERTEX
 8
0
 10
0.615
 20
-0.06
 30
0.077167
 70
192
 0
VERTEX
 8
0
 10
0.615
 20
-0.06
 30
1.81
 70
192
 0
VERTEX
 8
0
 10
0.615
 20
-0.075
 30
0.077167
 70
192
 0
VERTEX
 8
0
 10
0.615
 20
-0.075
 30
0.9752085
 70
192
 0
VERTEX
 8
0
 10
0.615
 20
-0.105
 30
0.077167
 70
192
 0
VERTEX
 8
0
 10
0.615
 20
-0.105
 30
0.9370835
 70
192
 0
VERTEX
 8
0
 10
0.615
 20
-0.105
 30
0.9752085
 70
192
 0
VERTEX
 8
0
 10
0.615
 20
-0.105
 30
1.81
 70
192
 0
VERTEX
 8
0
 10
0.615
 20
-0.135
 30
0.9370835
 70
192
 0
VERTEX
 8
0
 10
0.615
 20
-0.135
 30
1.81
 70
192
 0
VERTEX
 8
0
 10
0.615
 20
-0.15
 30
0.077167
 70
192
 0
VERTEX
 8
0
 10
0.615
 20
-0.15
 30
1.81
 70
192
 0
VERTEX
 8
0
 10
0.625
 20
0.08
 30
0.0
 70
192
 0
VERTEX
 8
0
 10
0.625
 20
0.08
 30
0.052167
 70
192
 0
VERTEX
 8
0
 10
0.625
 20
0.08
 30
0.077167
 70
192
 0
VERTEX
 8
0
 10
0.625
 20
-0.06
 30
0.077167
 70
192
 0
VERTEX
 8
0
 10
0.625
 20
-0.06
 30
1.82
 70
192
 0
VERTEX
 8
0
 10
0.625
 20
-0.15
 30
0.026667
 70
192
 0
VERTEX
 8
0
 10
0.625
 20
-0.15
 30
1.82
 70
192
 0
VERTEX
 8
0
 10
0.625
 20
-0.25
 30
0.0
 70
192
 0
VERTEX
 8
0
 10
0.625
 20
-0.25
 30
0.01
 70
192
 0
VERTEX
 8
0
 10
0.645
 20
0.08
 30
0.052167
 70
192
 0
VERTEX
 8
0
 10
0.645
 20
0.08
 30
0.077167
 70
192
 0
VERTEX
 8
0
 10
0.645
 20
0.11
 30
0.052167
 70
192
 0
VERTEX
 8
0
 10
0.645
 20
0.11
 30
0.077167
 70
192
 0
VERTEX
 8
0
 10
0.6675
 20
-0.25
 30
0.01
 70
192
 0
VERTEX
 8
0
 10
0.6675
 20
-0.25
 30
-0.123333
 70
192
 0
VERTEX
 8
0
 10
0.6675
 20
-0.3
 30
0.001667
 70
192
 0
VERTEX
 8
0
 10
0.6675
 20
-0.3
 30
-0.123333
 70
192
 0
VERTEX
 8
0
 10
-0.02
 20
0.08
 30
0.052167
 70
192
 0
VERTEX
 8
0
 10
-0.02
 20
0.08
 30
0.077167
 70
192
 0
VERTEX
 8
0
 10
-0.02
 20
0.11
 30
0.052167
 70
192
 0
VERTEX
 8
0
 10
-0.02
 20
0.11
 30
0.077167
 70
192
 0
VERTEX
 8
0
 10
-0.0425
 20
-0.25
 30
0.01
 70
192
 0
VERTEX
 8
0
 10
-0.0425
 20
-0.25
 30
-0.123333
 70
192
 0
VERTEX
 8
0
 10
-0.0425
 20
-0.3
 30
0.001667
 70
192
 0
VERTEX
 8
0
 10
-0.0425
 20
-0.3
 30
-0.123333
 70
192
 0
VERTEX
 8
0
 10
0
 20
0
 30
0
 62
255
 70
128
 71
30
 72
16
 73
31
 0
VERTEX
 8
0
 10
0
 20
0
 30
0
 62
255
 70
128
 71
78
 72
79
 73
92
 0
VERTEX
 8
0
 10
0
 20
0
 30
0
 62
255
 70
128
 71
80
 72
81
 73
93
 0
VERTEX
 8
0
 10
0
 20
0
 30
0
 62
255
 70
128
 71
33
 72
32
 73
17
 0
VERTEX
 8
0
 10
0
 20
0
 30
0
 62
255
 70
128
 71
83
 72
82
 73
94
 0
VERTEX
 8
0
 10
0
 20
0
 30
0
 62
255
 70
128
 71
37
 72
19
 73
36
 0
VERTEX
 8
0
 10
0
 20
0
 30
0
 62
255
 70
128
 71
18
 72
34
 73
35
 0
VERTEX
 8
0
 10
0
 20
0
 30
0
 62
255
 70
128
 71
85
 72
84
 73
95
 0
VERTEX
 8
0
 10
0
 20
0
 30
0
 62
255
 70
128
 71
29
 72
15
 73
28
 0
VERTEX
 8
0
 10
0
 20
0
 30
0
 62
255
 70
128
 71
77
 72
76
 73
91
 0
VERTEX
 8
0
 10
0
 20
0
 30
0
 62
255
 70
128
 71
75
 72
74
 73
90
 0
VERTEX
 8
0
 10
0
 20
0
 30
0
 62
255
 70
128
 71
26
 72
27
 73
14
 0
VERTEX
 8
0
 10
0
 20
0
 30
0
 62
255
 70
128
 71
94
 72
77
 73
91
 0
VERTEX
 8
0
 10
0
 20
0
 30
0
 62
255
 70
128
 71
15
 72
29
 73
18
 0
VERTEX
 8
0
 10
0
 20
0
 30
0
 62
255
 70
128
 71
119
 72
121
 73
9
 0
VERTEX
 8
0
 10
0
 20
0
 30
0
 62
255
 70
128
 71
111
 72
106
 73
113
 0
VERTEX
 8
0
 10
0
 20
0
 30
0
 62
255
 70
128
 71
116
 72
3
 73
118
 0
VERTEX
 8
0
 10
0
 20
0
 30
0
 62
255
 70
128
 71
4
 72
10
 73
3
 0
VERTEX
 8
0
 10
0
 20
0
 30
0
 62
255
 70
128
 71
101
 72
100
 73
86
 0
VERTEX
 8
0
 10
0
 20
0
 30
0
 62
255
 70
128
 71
108
 72
110
 73
100
 0
VERTEX
 8
0
 10
0
 20
0
 30
0
 62
255
 70
128
 71
16
 72
30
 73
13
 0
VERTEX
 8
0
 10
0
 20
0
 30
0
 62
255
 70
128
 71
92
 72
89
 73
78
 0
VERTEX
 8
0
 10
0
 20
0
 30
0
 62
255
 70
128
 71
70
 72
71
 73
88
 0
VERTEX
 8
0
 10
0
 20
0
 30
0
 62
255
 70
128
 71
72
 72
73
 73
89
 0
VERTEX
 8
0
 10
0
 20
0
 30
0
 62
255
 70
128
 71
22
 72
12
 73
23
 0
VERTEX
 8
0
 10
0
 20
0
 30
0
 62
255
 70
128
 71
25
 72
24
 73
13
 0
VERTEX
 8
0
 10
0
 20
0
 30
0
 62
255
 70
128
 71
100
 72
3
 73
10
 74
86
 0
VERTEX
 8
0
 10
0
 20
0
 30
0
 62
255
 70
128
 71
110
 72
118
 73
3
 74
100
 0
VERTEX
 8
0
 10
0
 20
0
 30
0
 62
255
 70
128
 71
115
 72
116
 73
118
 74
117
 0
VERTEX
 8
0
 10
0
 20
0
 30
0
 62
255
 70
128
 71
117
 72
118
 73
110
 74
109
 0
VERTEX
 8
0
 10
0
 20
0
 30
0
 62
255
 70
128
 71
109
 72
110
 73
108
 74
107
 0
VERTEX
 8
0
 10
0
 20
0
 30
0
 62
255
 70
128
 71
117
 72
109
 73
99
 74
2
 0
VERTEX
 8
0
 10
0
 20
0
 30
0
 62
255
 70
128
 71
12
 72
88
 73
86
 74
10
 0
VERTEX
 8
0
 10
0
 20
0
 30
0
 62
255
 70
128
 71
103
 72
6
 73
9
 74
106
 0
VERTEX
 8
0
 10
0
 20
0
 30
0
 62
255
 70
128
 71
121
 72
113
 73
106
 74
9
 0
VERTEX
 8
0
 10
0
 20
0
 30
0
 62
255
 70
128
 71
121
 72
122
 73
114
 74
113
 0
VERTEX
 8
0
 10
0
 20
0
 30
0
 62
255
 70
128
 71
120
 72
112
 73
114
 74
122
 0
VERTEX
 8
0
 10
0
 20
0
 30
0
 62
255
 70
128
 71
93
 72
17
 73
11
 74
87
 0
VERTEX
 8
0
 10
0
 20
0
 30
0
 62
255
 70
128
 71
11
 72
5
 73
102
 74
87
 0
VERTEX
 8
0
 10
0
 20
0
 30
0
 62
255
 70
128
 71
90
 72
14
 73
20
 74
96
 0
VERTEX
 8
0
 10
0
 20
0
 30
0
 62
255
 70
128
 71
96
 72
20
 73
6
 74
103
 0
VERTEX
 8
0
 10
0
 20
0
 30
0
 62
255
 70
128
 71
76
 72
72
 73
56
 74
60
 0
VERTEX
 8
0
 10
0
 20
0
 30
0
 62
255
 70
128
 71
55
 72
54
 73
38
 74
39
 0
VERTEX
 8
0
 10
0
 20
0
 30
0
 62
255
 70
128
 71
40
 72
39
 73
23
 74
24
 0
VERTEX
 8
0
 10
0
 20
0
 30
0
 62
255
 70
128
 71
57
 72
56
 73
40
 74
41
 0
VERTEX
 8
0
 10
0
 20
0
 30
0
 62
255
 70
128
 71
55
 72
56
 73
72
 74
71
 0
VERTEX
 8
0
 10
0
 20
0
 30
0
 62
255
 70
128
 71
43
 72
39
 73
38
 74
42
 0
VERTEX
 8
0
 10
0
 20
0
 30
0
 62
255
 70
128
 71
27
 72
23
 73
39
 74
43
 0
VERTEX
 8
0
 10
0
 20
0
 30
0
 62
255
 70
128
 71
58
 72
54
 73
55
 74
59
 0
VERTEX
 8
0
 10
0
 20
0
 30
0
 62
255
 70
128
 71
44
 72
40
 73
24
 74
28
 0
VERTEX
 8
0
 10
0
 20
0
 30
0
 62
255
 70
128
 71
45
 72
41
 73
40
 74
44
 0
VERTEX
 8
0
 10
0
 20
0
 30
0
 62
255
 70
128
 71
60
 72
56
 73
57
 74
61
 0
VERTEX
 8
0
 10
0
 20
0
 30
0
 62
255
 70
128
 71
59
 72
55
 73
71
 74
75
 0
VERTEX
 8
0
 10
0
 20
0
 30
0
 62
255
 70
128
 71
59
 72
75
 73
76
 74
60
 0
VERTEX
 8
0
 10
0
 20
0
 30
0
 62
255
 70
128
 71
59
 72
43
 73
42
 74
58
 0
VERTEX
 8
0
 10
0
 20
0
 30
0
 62
255
 70
128
 71
44
 72
28
 73
27
 74
43
 0
VERTEX
 8
0
 10
0
 20
0
 30
0
 62
255
 70
128
 71
61
 72
45
 73
44
 74
60
 0
VERTEX
 8
0
 10
0
 20
0
 30
0
 62
255
 70
128
 71
52
 72
36
 73
35
 74
51
 0
VERTEX
 8
0
 10
0
 20
0
 30
0
 62
255
 70
128
 71
67
 72
51
 73
50
 74
66
 0
VERTEX
 8
0
 10
0
 20
0
 30
0
 62
255
 70
128
 71
69
 72
53
 73
52
 74
68
 0
VERTEX
 8
0
 10
0
 20
0
 30
0
 62
255
 70
128
 71
67
 72
83
 73
84
 74
68
 0
VERTEX
 8
0
 10
0
 20
0
 30
0
 62
255
 70
128
 71
64
 72
80
 73
79
 74
63
 0
VERTEX
 8
0
 10
0
 20
0
 30
0
 62
255
 70
128
 71
64
 72
48
 73
49
 74
65
 0
VERTEX
 8
0
 10
0
 20
0
 30
0
 62
255
 70
128
 71
47
 72
31
 73
32
 74
48
 0
VERTEX
 8
0
 10
0
 20
0
 30
0
 62
255
 70
128
 71
62
 72
46
 73
47
 74
63
 0
VERTEX
 8
0
 10
0
 20
0
 30
0
 62
255
 70
128
 71
51
 72
47
 73
46
 74
50
 0
VERTEX
 8
0
 10
0
 20
0
 30
0
 62
255
 70
128
 71
35
 72
31
 73
47
 74
51
 0
VERTEX
 8
0
 10
0
 20
0
 30
0
 62
255
 70
128
 71
66
 72
62
 73
63
 74
67
 0
VERTEX
 8
0
 10
0
 20
0
 30
0
 62
255
 70
128
 71
52
 72
48
 73
32
 74
36
 0
VERTEX
 8
0
 10
0
 20
0
 30
0
 62
255
 70
128
 71
53
 72
49
 73
48
 74
52
 0
VERTEX
 8
0
 10
0
 20
0
 30
0
 62
255
 70
128
 71
68
 72
64
 73
65
 74
69
 0
VERTEX
 8
0
 10
0
 20
0
 30
0
 62
255
 70
128
 71
84
 72
80
 73
64
 74
68
 0
VERTEX
 8
0
 10
0
 20
0
 30
0
 62
255
 70
128
 71
67
 72
63
 73
79
 74
83
 0
VERTEX
 8
0
 10
0
 20
0
 30
0
 62
255
 70
128
 71
56
 72
55
 73
39
 74
40
 0
VERTEX
 8
0
 10
0
 20
0
 30
0
 62
255
 70
128
 71
60
 72
44
 73
43
 74
59
 0
VERTEX
 8
0
 10
0
 20
0
 30
0
 62
255
 70
128
 71
51
 72
67
 73
68
 74
52
 0
VERTEX
 8
0
 10
0
 20
0
 30
0
 62
255
 70
128
 71
63
 72
47
 73
48
 74
64
 0
VERTEX
 8
0
 10
0
 20
0
 30
0
 62
255
 70
128
 71
42
 72
38
 73
22
 74
26
 0
VERTEX
 8
0
 10
0
 20
0
 30
0
 62
255
 70
128
 71
37
 72
33
 73
49
 74
53
 0
VERTEX
 8
0
 10
0
 20
0
 30
0
 62
255
 70
128
 71
69
 72
65
 73
81
 74
85
 0
VERTEX
 8
0
 10
0
 20
0
 30
0
 62
255
 70
128
 71
74
 72
70
 73
54
 74
58
 0
VERTEX
 8
0
 10
0
 20
0
 30
0
 62
255
 70
128
 71
119
 72
120
 73
122
 74
121
 0
VERTEX
 8
0
 10
0
 20
0
 30
0
 62
255
 70
128
 71
111
 72
113
 73
114
 74
112
 0
VERTEX
 8
0
 10
0
 20
0
 30
0
 62
255
 70
128
 71
18
 72
94
 73
66
 74
50
 0
VERTEX
 8
0
 10
0
 20
0
 30
0
 62
255
 70
128
 71
95
 72
19
 73
53
 74
69
 0
VERTEX
 8
0
 10
0
 20
0
 30
0
 62
255
 70
128
 71
54
 72
88
 73
12
 74
38
 0
VERTEX
 8
0
 10
0
 20
0
 30
0
 62
255
 70
128
 71
13
 72
89
 73
57
 74
41
 0
VERTEX
 8
0
 10
0
 20
0
 30
0
 62
255
 70
128
 71
89
 72
13
 73
46
 74
62
 0
VERTEX
 8
0
 10
0
 20
0
 30
0
 62
255
 70
128
 71
17
 72
93
 73
65
 74
49
 0
VERTEX
 8
0
 10
0
 20
0
 30
0
 62
255
 70
128
 71
94
 72
18
 73
45
 74
61
 0
VERTEX
 8
0
 10
0
 20
0
 30
0
 62
255
 70
128
 71
31
 72
16
 73
17
 74
32
 0
VERTEX
 8
0
 10
0
 20
0
 30
0
 62
255
 70
128
 71
93
 72
92
 73
79
 74
80
 0
VERTEX
 8
0
 10
0
 20
0
 30
0
 62
255
 70
128
 71
72
 72
89
 73
88
 74
71
 0
VERTEX
 8
0
 10
0
 20
0
 30
0
 62
255
 70
128
 71
12
 72
13
 73
24
 74
23
 0
VERTEX
 8
0
 10
0
 20
0
 30
0
 62
255
 70
128
 71
28
 72
15
 73
14
 74
27
 0
VERTEX
 8
0
 10
0
 20
0
 30
0
 62
255
 70
128
 71
90
 72
91
 73
76
 74
75
 0
VERTEX
 8
0
 10
0
 20
0
 30
0
 62
255
 70
128
 71
94
 72
95
 73
84
 74
83
 0
VERTEX
 8
0
 10
0
 20
0
 30
0
 62
255
 70
128
 71
18
 72
35
 73
36
 74
19
 0
VERTEX
 8
0
 10
0
 20
0
 30
0
 62
255
 70
128
 71
34
 72
30
 73
31
 74
35
 0
VERTEX
 8
0
 10
0
 20
0
 30
0
 62
255
 70
128
 71
36
 72
32
 73
33
 74
37
 0
VERTEX
 8
0
 10
0
 20
0
 30
0
 62
255
 70
128
 71
83
 72
79
 73
78
 74
82
 0
VERTEX
 8
0
 10
0
 20
0
 30
0
 62
255
 70
128
 71
85
 72
81
 73
80
 74
84
 0
VERTEX
 8
0
 10
0
 20
0
 30
0
 62
255
 70
128
 71
77
 72
73
 73
72
 74
76
 0
VERTEX
 8
0
 10
0
 20
0
 30
0
 62
255
 70
128
 71
75
 72
71
 73
70
 74
74
 0
VERTEX
 8
0
 10
0
 20
0
 30
0
 62
255
 70
128
 71
26
 72
22
 73
23
 74
27
 0
VERTEX
 8
0
 10
0
 20
0
 30
0
 62
255
 70
128
 71
28
 72
24
 73
25
 74
29
 0
VERTEX
 8
0
 10
0
 20
0
 30
0
 62
255
 70
128
 71
92
 72
93
 73
87
 74
89
 0
VERTEX
 8
0
 10
0
 20
0
 30
0
 62
255
 70
128
 71
11
 72
17
 73
16
 74
13
 0
VERTEX
 8
0
 10
0
 20
0
 30
0
 62
255
 70
128
 71
10
 72
4
 73
5
 74
11
 0
VERTEX
 8
0
 10
0
 20
0
 30
0
 62
255
 70
128
 71
86
 72
87
 73
102
 74
101
 0
VERTEX
 8
0
 10
0
 20
0
 30
0
 62
255
 70
128
 71
103
 72
104
 73
97
 74
96
 0
VERTEX
 8
0
 10
0
 20
0
 30
0
 62
255
 70
128
 71
6
 72
20
 73
21
 74
7
 0
VERTEX
 8
0
 10
0
 20
0
 30
0
 62
255
 70
128
 71
34
 72
50
 73
46
 74
30
 0
VERTEX
 8
0
 10
0
 20
0
 30
0
 62
255
 70
128
 71
66
 72
82
 73
78
 74
62
 0
VERTEX
 8
0
 10
0
 20
0
 30
0
 62
255
 70
128
 71
41
 72
45
 73
29
 74
25
 0
VERTEX
 8
0
 10
0
 20
0
 30
0
 62
255
 70
128
 71
91
 72
90
 73
96
 74
94
 0
VERTEX
 8
0
 10
0
 20
0
 30
0
 62
255
 70
128
 71
20
 72
14
 73
15
 74
18
 0
VERTEX
 8
0
 10
0
 20
0
 30
0
 62
255
 70
128
 71
12
 72
10
 73
11
 74
13
 0
VERTEX
 8
0
 10
0
 20
0
 30
0
 62
255
 70
128
 71
87
 72
86
 73
88
 74
89
 0
VERTEX
 8
0
 10
0
 20
0
 30
0
 62
255
 70
128
 71
95
 72
94
 73
96
 74
97
 0
VERTEX
 8
0
 10
0
 20
0
 30
0
 62
255
 70
128
 71
19
 72
21
 73
20
 74
18
 0
VERTEX
 8
0
 10
0
 20
0
 30
0
 62
255
 70
128
 71
42
 72
26
 73
14
 0
VERTEX
 8
0
 10
0
 20
0
 30
0
 62
255
 70
128
 71
90
 72
74
 73
58
 0
VERTEX
 8
0
 10
0
 20
0
 30
0
 62
255
 70
128
 71
90
 72
58
 73
42
 74
14
 0
VERTEX
 8
0
 10
0
 20
0
 30
0
 62
255
 70
128
 71
94
 72
82
 73
66
 0
VERTEX
 8
0
 10
0
 20
0
 30
0
 62
255
 70
128
 71
50
 72
34
 73
18
 0
VERTEX
 8
0
 10
0
 20
0
 30
0
 62
255
 70
128
 71
69
 72
85
 73
95
 0
VERTEX
 8
0
 10
0
 20
0
 30
0
 62
255
 70
128
 71
19
 72
37
 73
53
 0
VERTEX
 8
0
 10
0
 20
0
 30
0
 62
255
 70
128
 71
49
 72
33
 73
17
 0
VERTEX
 8
0
 10
0
 20
0
 30
0
 62
255
 70
128
 71
93
 72
81
 73
65
 0
VERTEX
 8
0
 10
0
 20
0
 30
0
 62
255
 70
128
 71
95
 72
97
 73
21
 74
19
 0
VERTEX
 8
0
 10
0
 20
0
 30
0
 62
255
 70
128
 71
104
 72
7
 73
21
 74
97
 0
VERTEX
 8
0
 10
0
 20
0
 30
0
 62
255
 70
128
 71
41
 72
25
 73
13
 0
VERTEX
 8
0
 10
0
 20
0
 30
0
 62
255
 70
128
 71
73
 72
57
 73
89
 0
VERTEX
 8
0
 10
0
 20
0
 30
0
 62
255
 70
128
 71
77
 72
61
 73
57
 74
73
 0
VERTEX
 8
0
 10
0
 20
0
 30
0
 62
255
 70
128
 71
54
 72
70
 73
88
 0
VERTEX
 8
0
 10
0
 20
0
 30
0
 62
255
 70
128
 71
12
 72
22
 73
38
 0
VERTEX
 8
0
 10
0
 20
0
 30
0
 62
255
 70
128
 71
61
 72
77
 73
94
 0
VERTEX
 8
0
 10
0
 20
0
 30
0
 62
255
 70
128
 71
18
 72
29
 73
45
 0
VERTEX
 8
0
 10
0
 20
0
 30
0
 62
255
 70
128
 71
13
 72
30
 73
46
 0
VERTEX
 8
0
 10
0
 20
0
 30
0
 62
255
 70
128
 71
62
 72
78
 73
89
 0
VERTEX
 8
0
 10
0
 20
0
 30
0
 62
255
 70
128
 71
102
 72
5
 73
7
 74
104
 0
VERTEX
 8
0
 10
0
 20
0
 30
0
 62
255
 70
128
 71
5
 72
4
 73
6
 74
7
 0
VERTEX
 8
0
 10
0
 20
0
 30
0
 62
255
 70
128
 71
104
 72
103
 73
101
 74
102
 0
VERTEX
 8
0
 10
0
 20
0
 30
0
 62
255
 70
128
 71
105
 72
112
 73
120
 74
8
 0
VERTEX
 8
0
 10
0
 20
0
 30
0
 62
255
 70
128
 71
99
 72
109
 73
107
 0
VERTEX
 8
0
 10
0
 20
0
 30
0
 62
255
 70
128
 71
100
 72
99
 73
107
 74
108
 0
VERTEX
 8
0
 10
0
 20
0
 30
0
 62
255
 70
128
 71
2
 72
115
 73
117
 0
VERTEX
 8
0
 10
0
 20
0
 30
0
 62
255
 70
128
 71
116
 72
115
 73
2
 74
3
 0
VERTEX
 8
0
 10
0
 20
0
 30
0
 62
255
 70
128
 71
2
 72
99
 73
98
 74
1
 0
VERTEX
 8
0
 10
0
 20
0
 30
0
 62
255
 70
128
 71
103
 72
99
 73
100
 74
101
 0
VERTEX
 8
0
 10
0
 20
0
 30
0
 62
255
 70
128
 71
105
 72
98
 73
99
 74
103
 0
VERTEX
 8
0
 10
0
 20
0
 30
0
 62
255
 70
128
 71
3
 72
2
 73
6
 74
4
 0
VERTEX
 8
0
 10
0
 20
0
 30
0
 62
255
 70
128
 71
2
 72
1
 73
8
 74
6
 0
VERTEX
 8
0
 10
0
 20
0
 30
0
 62
255
 70
128
 71
98
 72
105
 73
8
 74
1
 0
VERTEX
 8
0
 10
0
 20
0
 30
0
 62
255
 70
128
 71
9
 72
8
 73
120
 74
119
 0
VERTEX
 8
0
 10
0
 20
0
 30
0
 62
255
 70
128
 71
6
 72
8
 73
9
 0
VERTEX
 8
0
 10
0
 20
0
 30
0
 62
255
 70
128
 71
111
 72
112
 73
105
 74
106
 0
VERTEX
 8
0
 10
0
 20
0
 30
0
 62
255
 70
128
 71
106
 72
105
 73
103
 0
SEQEND
 0
ENDSEC
 0
EOF
