 0
SECTION
 2
HEADER
 9
$ACADVER
 1
AC1009
 0
ENDSEC
 0
SECTION
 2
BLOCKS
 0
BLOCK
 8
0
 2
$PAPER_SPACE
 70
0
 10
0
 20
0
 30
0
 3
$PAPER_SPACE
 0
ENDBLK
 8
0
 0
BLOCK
 8
0
 2
$MODEL_SPACE
 70
0
 10
0
 20
0
 30
0
 3
$MODEL_SPACE
 0
ENDBLK
 8
0
 0
ENDSEC
 0
SECTION
 2
ENTITIES
 0
POLYLINE
 8
0
 62
255
 66
1
 10
0
 20
0
 30
0
 70
64
 71
106
 72
147
 0
VERTEX
 8
0
 10
0.0
 20
0.08
 30
0.0
 70
192
 0
VERTEX
 8
0
 10
0.0
 20
0.08
 30
0.052167
 70
192
 0
VERTEX
 8
0
 10
0.0
 20
0.08
 30
0.077167
 70
192
 0
VERTEX
 8
0
 10
0.0
 20
-0.06
 30
0.077167
 70
192
 0
VERTEX
 8
0
 10
0.0
 20
-0.06
 30
1.024999999999999
 70
192
 0
VERTEX
 8
0
 10
0.0
 20
-0.15
 30
0.026667
 70
192
 0
VERTEX
 8
0
 10
0.0
 20
-0.15
 30
1.024999999999999
 70
192
 0
VERTEX
 8
0
 10
0.0
 20
-0.25
 30
0.0
 70
192
 0
VERTEX
 8
0
 10
0.0
 20
-0.25
 30
0.01
 70
192
 0
VERTEX
 8
0
 10
0.01
 20
-0.06
 30
0.077167
 70
192
 0
VERTEX
 8
0
 10
0.01
 20
-0.06
 30
1.0149999999999999
 70
192
 0
VERTEX
 8
0
 10
0.01
 20
-0.075
 30
0.077167
 70
192
 0
VERTEX
 8
0
 10
0.01
 20
-0.075
 30
0.5790973333333332
 70
192
 0
VERTEX
 8
0
 10
0.01
 20
-0.105
 30
0.077167
 70
192
 0
VERTEX
 8
0
 10
0.01
 20
-0.105
 30
0.5409723333333332
 70
192
 0
VERTEX
 8
0
 10
0.01
 20
-0.105
 30
0.5790973333333332
 70
192
 0
VERTEX
 8
0
 10
0.01
 20
-0.105
 30
1.0149999999999999
 70
192
 0
VERTEX
 8
0
 10
0.01
 20
-0.135
 30
0.5409723333333332
 70
192
 0
VERTEX
 8
0
 10
0.01
 20
-0.135
 30
1.0149999999999999
 70
192
 0
VERTEX
 8
0
 10
0.01
 20
-0.15
 30
0.077167
 70
192
 0
VERTEX
 8
0
 10
0.01
 20
-0.15
 30
1.0149999999999999
 70
192
 0
VERTEX
 8
0
 10
0.033125
 20
-0.075
 30
0.125417
 70
192
 0
VERTEX
 8
0
 10
0.033125
 20
-0.075
 30
0.5409723333333332
 70
192
 0
VERTEX
 8
0
 10
0.033125
 20
-0.105
 30
0.125417
 70
192
 0
VERTEX
 8
0
 10
0.033125
 20
-0.105
 30
0.5409723333333332
 70
192
 0
VERTEX
 8
0
 10
0.033125
 20
-0.105
 30
0.5790973333333332
 70
192
 0
VERTEX
 8
0
 10
0.033125
 20
-0.105
 30
0.991875
 70
192
 0
VERTEX
 8
0
 10
0.033125
 20
-0.135
 30
0.5790973333333332
 70
192
 0
VERTEX
 8
0
 10
0.033125
 20
-0.135
 30
0.991875
 70
192
 0
VERTEX
 8
0
 10
0.3077083333333333
 20
-0.075
 30
0.125417
 70
192
 0
VERTEX
 8
0
 10
0.3077083333333333
 20
-0.075
 30
0.5409723333333332
 70
192
 0
VERTEX
 8
0
 10
0.3077083333333333
 20
-0.105
 30
0.125417
 70
192
 0
VERTEX
 8
0
 10
0.3077083333333333
 20
-0.105
 30
0.5409723333333332
 70
192
 0
VERTEX
 8
0
 10
0.3077083333333333
 20
-0.105
 30
0.5790973333333332
 70
192
 0
VERTEX
 8
0
 10
0.3077083333333333
 20
-0.105
 30
0.991875
 70
192
 0
VERTEX
 8
0
 10
0.3077083333333333
 20
-0.135
 30
0.5790973333333332
 70
192
 0
VERTEX
 8
0
 10
0.3077083333333333
 20
-0.135
 30
0.991875
 70
192
 0
VERTEX
 8
0
 10
0.3177083333333334
 20
-0.075
 30
0.125417
 70
192
 0
VERTEX
 8
0
 10
0.3177083333333334
 20
-0.075
 30
0.5409723333333332
 70
192
 0
VERTEX
 8
0
 10
0.3177083333333334
 20
-0.105
 30
0.125417
 70
192
 0
VERTEX
 8
0
 10
0.3177083333333334
 20
-0.105
 30
0.5409723333333332
 70
192
 0
VERTEX
 8
0
 10
0.3177083333333334
 20
-0.105
 30
0.5790973333333332
 70
192
 0
VERTEX
 8
0
 10
0.3177083333333334
 20
-0.105
 30
0.991875
 70
192
 0
VERTEX
 8
0
 10
0.3177083333333334
 20
-0.135
 30
0.5790973333333332
 70
192
 0
VERTEX
 8
0
 10
0.3177083333333334
 20
-0.135
 30
0.991875
 70
192
 0
VERTEX
 8
0
 10
0.5922916666666668
 20
-0.075
 30
0.125417
 70
192
 0
VERTEX
 8
0
 10
0.5922916666666668
 20
-0.075
 30
0.5409723333333332
 70
192
 0
VERTEX
 8
0
 10
0.5922916666666668
 20
-0.105
 30
0.125417
 70
192
 0
VERTEX
 8
0
 10
0.5922916666666668
 20
-0.105
 30
0.5409723333333332
 70
192
 0
VERTEX
 8
0
 10
0.5922916666666668
 20
-0.105
 30
0.5790973333333332
 70
192
 0
VERTEX
 8
0
 10
0.5922916666666668
 20
-0.105
 30
0.991875
 70
192
 0
VERTEX
 8
0
 10
0.5922916666666668
 20
-0.135
 30
0.5790973333333332
 70
192
 0
VERTEX
 8
0
 10
0.5922916666666668
 20
-0.135
 30
0.991875
 70
192
 0
VERTEX
 8
0
 10
0.6022916666666668
 20
-0.075
 30
0.125417
 70
192
 0
VERTEX
 8
0
 10
0.6022916666666668
 20
-0.075
 30
0.5409723333333332
 70
192
 0
VERTEX
 8
0
 10
0.6022916666666668
 20
-0.105
 30
0.125417
 70
192
 0
VERTEX
 8
0
 10
0.6022916666666668
 20
-0.105
 30
0.5409723333333332
 70
192
 0
VERTEX
 8
0
 10
0.6022916666666668
 20
-0.105
 30
0.5790973333333332
 70
192
 0
VERTEX
 8
0
 10
0.6022916666666668
 20
-0.105
 30
0.991875
 70
192
 0
VERTEX
 8
0
 10
0.6022916666666668
 20
-0.135
 30
0.5790973333333332
 70
192
 0
VERTEX
 8
0
 10
0.6022916666666668
 20
-0.135
 30
0.991875
 70
192
 0
VERTEX
 8
0
 10
0.8768749999999998
 20
-0.075
 30
0.125417
 70
192
 0
VERTEX
 8
0
 10
0.8768749999999998
 20
-0.075
 30
0.5409723333333332
 70
192
 0
VERTEX
 8
0
 10
0.8768749999999998
 20
-0.105
 30
0.125417
 70
192
 0
VERTEX
 8
0
 10
0.8768749999999998
 20
-0.105
 30
0.5409723333333332
 70
192
 0
VERTEX
 8
0
 10
0.8768749999999998
 20
-0.105
 30
0.5790973333333332
 70
192
 0
VERTEX
 8
0
 10
0.8768749999999998
 20
-0.105
 30
0.991875
 70
192
 0
VERTEX
 8
0
 10
0.8768749999999998
 20
-0.135
 30
0.5790973333333332
 70
192
 0
VERTEX
 8
0
 10
0.8768749999999998
 20
-0.135
 30
0.991875
 70
192
 0
VERTEX
 8
0
 10
0.9
 20
-0.06
 30
0.077167
 70
192
 0
VERTEX
 8
0
 10
0.9
 20
-0.06
 30
1.0149999999999999
 70
192
 0
VERTEX
 8
0
 10
0.9
 20
-0.075
 30
0.077167
 70
192
 0
VERTEX
 8
0
 10
0.9
 20
-0.075
 30
0.5790973333333332
 70
192
 0
VERTEX
 8
0
 10
0.9
 20
-0.105
 30
0.077167
 70
192
 0
VERTEX
 8
0
 10
0.9
 20
-0.105
 30
0.5409723333333332
 70
192
 0
VERTEX
 8
0
 10
0.9
 20
-0.105
 30
0.5790973333333332
 70
192
 0
VERTEX
 8
0
 10
0.9
 20
-0.105
 30
1.0149999999999999
 70
192
 0
VERTEX
 8
0
 10
0.9
 20
-0.135
 30
0.5409723333333332
 70
192
 0
VERTEX
 8
0
 10
0.9
 20
-0.135
 30
1.0149999999999999
 70
192
 0
VERTEX
 8
0
 10
0.9
 20
-0.15
 30
0.077167
 70
192
 0
VERTEX
 8
0
 10
0.9
 20
-0.15
 30
1.0149999999999999
 70
192
 0
VERTEX
 8
0
 10
0.9099999999999999
 20
0.08
 30
0.0
 70
192
 0
VERTEX
 8
0
 10
0.9099999999999999
 20
0.08
 30
0.052167
 70
192
 0
VERTEX
 8
0
 10
0.9099999999999999
 20
0.08
 30
0.077167
 70
192
 0
VERTEX
 8
0
 10
0.9099999999999999
 20
-0.06
 30
0.077167
 70
192
 0
VERTEX
 8
0
 10
0.9099999999999999
 20
-0.06
 30
1.024999999999999
 70
192
 0
VERTEX
 8
0
 10
0.9099999999999999
 20
-0.15
 30
0.026667
 70
192
 0
VERTEX
 8
0
 10
0.9099999999999999
 20
-0.15
 30
1.024999999999999
 70
192
 0
VERTEX
 8
0
 10
0.9099999999999999
 20
-0.25
 30
0.0
 70
192
 0
VERTEX
 8
0
 10
0.9099999999999999
 20
-0.25
 30
0.01
 70
192
 0
VERTEX
 8
0
 10
0.93
 20
0.08
 30
0.052167
 70
192
 0
VERTEX
 8
0
 10
0.93
 20
0.08
 30
0.077167
 70
192
 0
VERTEX
 8
0
 10
0.93
 20
0.11
 30
0.052167
 70
192
 0
VERTEX
 8
0
 10
0.93
 20
0.11
 30
0.077167
 70
192
 0
VERTEX
 8
0
 10
0.9525
 20
-0.25
 30
0.01
 70
192
 0
VERTEX
 8
0
 10
0.9525
 20
-0.25
 30
-0.123333
 70
192
 0
VERTEX
 8
0
 10
0.9525
 20
-0.3
 30
0.001667
 70
192
 0
VERTEX
 8
0
 10
0.9525
 20
-0.3
 30
-0.123333
 70
192
 0
VERTEX
 8
0
 10
-0.02
 20
0.08
 30
0.052167
 70
192
 0
VERTEX
 8
0
 10
-0.02
 20
0.08
 30
0.077167
 70
192
 0
VERTEX
 8
0
 10
-0.02
 20
0.11
 30
0.052167
 70
192
 0
VERTEX
 8
0
 10
-0.02
 20
0.11
 30
0.077167
 70
192
 0
VERTEX
 8
0
 10
-0.0425
 20
-0.25
 30
0.01
 70
192
 0
VERTEX
 8
0
 10
-0.0425
 20
-0.25
 30
-0.123333
 70
192
 0
VERTEX
 8
0
 10
-0.0425
 20
-0.3
 30
0.001667
 70
192
 0
VERTEX
 8
0
 10
-0.0425
 20
-0.3
 30
-0.123333
 70
192
 0
VERTEX
 8
0
 10
0
 20
0
 30
0
 62
255
 70
128
 71
66
 72
67
 73
77
 0
VERTEX
 8
0
 10
0
 20
0
 30
0
 62
255
 70
128
 71
27
 72
26
 73
17
 0
VERTEX
 8
0
 10
0
 20
0
 30
0
 62
255
 70
128
 71
29
 72
19
 73
28
 0
VERTEX
 8
0
 10
0
 20
0
 30
0
 62
255
 70
128
 71
69
 72
68
 73
79
 0
VERTEX
 8
0
 10
0
 20
0
 30
0
 62
255
 70
128
 71
25
 72
15
 73
24
 0
VERTEX
 8
0
 10
0
 20
0
 30
0
 62
255
 70
128
 71
65
 72
64
 73
75
 0
VERTEX
 8
0
 10
0
 20
0
 30
0
 62
255
 70
128
 71
78
 72
65
 73
75
 0
VERTEX
 8
0
 10
0
 20
0
 30
0
 62
255
 70
128
 71
15
 72
25
 73
18
 0
VERTEX
 8
0
 10
0
 20
0
 30
0
 62
255
 70
128
 71
103
 72
105
 73
9
 0
VERTEX
 8
0
 10
0
 20
0
 30
0
 62
255
 70
128
 71
95
 72
90
 73
97
 0
VERTEX
 8
0
 10
0
 20
0
 30
0
 62
255
 70
128
 71
100
 72
3
 73
102
 0
VERTEX
 8
0
 10
0
 20
0
 30
0
 62
255
 70
128
 71
4
 72
10
 73
3
 0
VERTEX
 8
0
 10
0
 20
0
 30
0
 62
255
 70
128
 71
85
 72
84
 73
70
 0
VERTEX
 8
0
 10
0
 20
0
 30
0
 62
255
 70
128
 71
92
 72
94
 73
84
 0
VERTEX
 8
0
 10
0
 20
0
 30
0
 62
255
 70
128
 71
16
 72
26
 73
13
 0
VERTEX
 8
0
 10
0
 20
0
 30
0
 62
255
 70
128
 71
76
 72
73
 73
66
 0
VERTEX
 8
0
 10
0
 20
0
 30
0
 62
255
 70
128
 71
62
 72
63
 73
73
 0
VERTEX
 8
0
 10
0
 20
0
 30
0
 62
255
 70
128
 71
23
 72
22
 73
13
 0
VERTEX
 8
0
 10
0
 20
0
 30
0
 62
255
 70
128
 71
84
 72
3
 73
10
 74
70
 0
VERTEX
 8
0
 10
0
 20
0
 30
0
 62
255
 70
128
 71
94
 72
102
 73
3
 74
84
 0
VERTEX
 8
0
 10
0
 20
0
 30
0
 62
255
 70
128
 71
99
 72
100
 73
102
 74
101
 0
VERTEX
 8
0
 10
0
 20
0
 30
0
 62
255
 70
128
 71
101
 72
102
 73
94
 74
93
 0
VERTEX
 8
0
 10
0
 20
0
 30
0
 62
255
 70
128
 71
93
 72
94
 73
92
 74
91
 0
VERTEX
 8
0
 10
0
 20
0
 30
0
 62
255
 70
128
 71
101
 72
93
 73
83
 74
2
 0
VERTEX
 8
0
 10
0
 20
0
 30
0
 62
255
 70
128
 71
12
 72
72
 73
70
 74
10
 0
VERTEX
 8
0
 10
0
 20
0
 30
0
 62
255
 70
128
 71
87
 72
6
 73
9
 74
90
 0
VERTEX
 8
0
 10
0
 20
0
 30
0
 62
255
 70
128
 71
105
 72
97
 73
90
 74
9
 0
VERTEX
 8
0
 10
0
 20
0
 30
0
 62
255
 70
128
 71
105
 72
106
 73
98
 74
97
 0
VERTEX
 8
0
 10
0
 20
0
 30
0
 62
255
 70
128
 71
104
 72
96
 73
98
 74
106
 0
VERTEX
 8
0
 10
0
 20
0
 30
0
 62
255
 70
128
 71
77
 72
17
 73
11
 74
71
 0
VERTEX
 8
0
 10
0
 20
0
 30
0
 62
255
 70
128
 71
11
 72
5
 73
86
 74
71
 0
VERTEX
 8
0
 10
0
 20
0
 30
0
 62
255
 70
128
 71
74
 72
14
 73
20
 74
80
 0
VERTEX
 8
0
 10
0
 20
0
 30
0
 62
255
 70
128
 71
80
 72
20
 73
6
 74
87
 0
VERTEX
 8
0
 10
0
 20
0
 30
0
 62
255
 70
128
 71
48
 72
46
 73
38
 74
40
 0
VERTEX
 8
0
 10
0
 20
0
 30
0
 62
255
 70
128
 71
39
 72
38
 73
30
 74
31
 0
VERTEX
 8
0
 10
0
 20
0
 30
0
 62
255
 70
128
 71
55
 72
54
 73
46
 74
47
 0
VERTEX
 8
0
 10
0
 20
0
 30
0
 62
255
 70
128
 71
33
 72
31
 73
30
 74
32
 0
VERTEX
 8
0
 10
0
 20
0
 30
0
 62
255
 70
128
 71
49
 72
47
 73
46
 74
48
 0
VERTEX
 8
0
 10
0
 20
0
 30
0
 62
255
 70
128
 71
40
 72
38
 73
39
 74
41
 0
VERTEX
 8
0
 10
0
 20
0
 30
0
 62
255
 70
128
 71
56
 72
54
 73
55
 74
57
 0
VERTEX
 8
0
 10
0
 20
0
 30
0
 62
255
 70
128
 71
57
 72
49
 73
48
 74
56
 0
VERTEX
 8
0
 10
0
 20
0
 30
0
 62
255
 70
128
 71
41
 72
33
 73
32
 74
40
 0
VERTEX
 8
0
 10
0
 20
0
 30
0
 62
255
 70
128
 71
45
 72
37
 73
36
 74
44
 0
VERTEX
 8
0
 10
0
 20
0
 30
0
 62
255
 70
128
 71
61
 72
53
 73
52
 74
60
 0
VERTEX
 8
0
 10
0
 20
0
 30
0
 62
255
 70
128
 71
42
 72
34
 73
35
 74
43
 0
VERTEX
 8
0
 10
0
 20
0
 30
0
 62
255
 70
128
 71
58
 72
50
 73
51
 74
59
 0
VERTEX
 8
0
 10
0
 20
0
 30
0
 62
255
 70
128
 71
37
 72
35
 73
34
 74
36
 0
VERTEX
 8
0
 10
0
 20
0
 30
0
 62
255
 70
128
 71
53
 72
51
 73
50
 74
52
 0
VERTEX
 8
0
 10
0
 20
0
 30
0
 62
255
 70
128
 71
44
 72
42
 73
43
 74
45
 0
VERTEX
 8
0
 10
0
 20
0
 30
0
 62
255
 70
128
 71
60
 72
58
 73
59
 74
61
 0
VERTEX
 8
0
 10
0
 20
0
 30
0
 62
255
 70
128
 71
44
 72
52
 73
50
 74
42
 0
VERTEX
 8
0
 10
0
 20
0
 30
0
 62
255
 70
128
 71
41
 72
39
 73
47
 74
49
 0
VERTEX
 8
0
 10
0
 20
0
 30
0
 62
255
 70
128
 71
45
 72
43
 73
51
 74
53
 0
VERTEX
 8
0
 10
0
 20
0
 30
0
 62
255
 70
128
 71
32
 72
30
 73
22
 74
24
 0
VERTEX
 8
0
 10
0
 20
0
 30
0
 62
255
 70
128
 71
29
 72
27
 73
35
 74
37
 0
VERTEX
 8
0
 10
0
 20
0
 30
0
 62
255
 70
128
 71
61
 72
59
 73
67
 74
69
 0
VERTEX
 8
0
 10
0
 20
0
 30
0
 62
255
 70
128
 71
64
 72
62
 73
54
 74
56
 0
VERTEX
 8
0
 10
0
 20
0
 30
0
 62
255
 70
128
 71
103
 72
104
 73
106
 74
105
 0
VERTEX
 8
0
 10
0
 20
0
 30
0
 62
255
 70
128
 71
95
 72
97
 73
98
 74
96
 0
VERTEX
 8
0
 10
0
 20
0
 30
0
 62
255
 70
128
 71
18
 72
78
 73
52
 74
44
 0
VERTEX
 8
0
 10
0
 20
0
 30
0
 62
255
 70
128
 71
79
 72
19
 73
45
 74
53
 0
VERTEX
 8
0
 10
0
 20
0
 30
0
 62
255
 70
128
 71
46
 72
72
 73
12
 74
38
 0
VERTEX
 8
0
 10
0
 20
0
 30
0
 62
255
 70
128
 71
13
 72
73
 73
47
 74
39
 0
VERTEX
 8
0
 10
0
 20
0
 30
0
 62
255
 70
128
 71
73
 72
13
 73
42
 74
50
 0
VERTEX
 8
0
 10
0
 20
0
 30
0
 62
255
 70
128
 71
17
 72
77
 73
51
 74
43
 0
VERTEX
 8
0
 10
0
 20
0
 30
0
 62
255
 70
128
 71
78
 72
18
 73
41
 74
49
 0
VERTEX
 8
0
 10
0
 20
0
 30
0
 62
255
 70
128
 71
16
 72
17
 73
26
 0
VERTEX
 8
0
 10
0
 20
0
 30
0
 62
255
 70
128
 71
77
 72
76
 73
66
 0
VERTEX
 8
0
 10
0
 20
0
 30
0
 62
255
 70
128
 71
73
 72
72
 73
62
 0
VERTEX
 8
0
 10
0
 20
0
 30
0
 62
255
 70
128
 71
12
 72
13
 73
22
 0
VERTEX
 8
0
 10
0
 20
0
 30
0
 62
255
 70
128
 71
15
 72
14
 73
24
 0
VERTEX
 8
0
 10
0
 20
0
 30
0
 62
255
 70
128
 71
74
 72
75
 73
64
 0
VERTEX
 8
0
 10
0
 20
0
 30
0
 62
255
 70
128
 71
78
 72
79
 73
68
 0
VERTEX
 8
0
 10
0
 20
0
 30
0
 62
255
 70
128
 71
18
 72
28
 73
19
 0
VERTEX
 8
0
 10
0
 20
0
 30
0
 62
255
 70
128
 71
28
 72
26
 73
27
 74
29
 0
VERTEX
 8
0
 10
0
 20
0
 30
0
 62
255
 70
128
 71
69
 72
67
 73
66
 74
68
 0
VERTEX
 8
0
 10
0
 20
0
 30
0
 62
255
 70
128
 71
65
 72
63
 73
62
 74
64
 0
VERTEX
 8
0
 10
0
 20
0
 30
0
 62
255
 70
128
 71
24
 72
22
 73
23
 74
25
 0
VERTEX
 8
0
 10
0
 20
0
 30
0
 62
255
 70
128
 71
76
 72
77
 73
71
 74
73
 0
VERTEX
 8
0
 10
0
 20
0
 30
0
 62
255
 70
128
 71
11
 72
17
 73
16
 74
13
 0
VERTEX
 8
0
 10
0
 20
0
 30
0
 62
255
 70
128
 71
10
 72
4
 73
5
 74
11
 0
VERTEX
 8
0
 10
0
 20
0
 30
0
 62
255
 70
128
 71
70
 72
71
 73
86
 74
85
 0
VERTEX
 8
0
 10
0
 20
0
 30
0
 62
255
 70
128
 71
87
 72
88
 73
81
 74
80
 0
VERTEX
 8
0
 10
0
 20
0
 30
0
 62
255
 70
128
 71
6
 72
20
 73
21
 74
7
 0
VERTEX
 8
0
 10
0
 20
0
 30
0
 62
255
 70
128
 71
28
 72
36
 73
34
 74
26
 0
VERTEX
 8
0
 10
0
 20
0
 30
0
 62
255
 70
128
 71
60
 72
68
 73
66
 74
58
 0
VERTEX
 8
0
 10
0
 20
0
 30
0
 62
255
 70
128
 71
31
 72
33
 73
25
 74
23
 0
VERTEX
 8
0
 10
0
 20
0
 30
0
 62
255
 70
128
 71
75
 72
74
 73
80
 74
78
 0
VERTEX
 8
0
 10
0
 20
0
 30
0
 62
255
 70
128
 71
20
 72
14
 73
15
 74
18
 0
VERTEX
 8
0
 10
0
 20
0
 30
0
 62
255
 70
128
 71
12
 72
10
 73
11
 74
13
 0
VERTEX
 8
0
 10
0
 20
0
 30
0
 62
255
 70
128
 71
71
 72
70
 73
72
 74
73
 0
VERTEX
 8
0
 10
0
 20
0
 30
0
 62
255
 70
128
 71
79
 72
78
 73
80
 74
81
 0
VERTEX
 8
0
 10
0
 20
0
 30
0
 62
255
 70
128
 71
19
 72
21
 73
20
 74
18
 0
VERTEX
 8
0
 10
0
 20
0
 30
0
 62
255
 70
128
 71
14
 72
40
 73
32
 0
VERTEX
 8
0
 10
0
 20
0
 30
0
 62
255
 70
128
 71
32
 72
24
 73
14
 0
VERTEX
 8
0
 10
0
 20
0
 30
0
 62
255
 70
128
 71
56
 72
48
 73
74
 0
VERTEX
 8
0
 10
0
 20
0
 30
0
 62
255
 70
128
 71
74
 72
64
 73
56
 0
VERTEX
 8
0
 10
0
 20
0
 30
0
 62
255
 70
128
 71
74
 72
48
 73
40
 74
14
 0
VERTEX
 8
0
 10
0
 20
0
 30
0
 62
255
 70
128
 71
60
 72
52
 73
78
 0
VERTEX
 8
0
 10
0
 20
0
 30
0
 62
255
 70
128
 71
78
 72
68
 73
60
 0
VERTEX
 8
0
 10
0
 20
0
 30
0
 62
255
 70
128
 71
18
 72
44
 73
36
 0
VERTEX
 8
0
 10
0
 20
0
 30
0
 62
255
 70
128
 71
36
 72
28
 73
18
 0
VERTEX
 8
0
 10
0
 20
0
 30
0
 62
255
 70
128
 71
61
 72
69
 73
79
 0
VERTEX
 8
0
 10
0
 20
0
 30
0
 62
255
 70
128
 71
79
 72
53
 73
61
 0
VERTEX
 8
0
 10
0
 20
0
 30
0
 62
255
 70
128
 71
19
 72
29
 73
37
 0
VERTEX
 8
0
 10
0
 20
0
 30
0
 62
255
 70
128
 71
37
 72
45
 73
19
 0
VERTEX
 8
0
 10
0
 20
0
 30
0
 62
255
 70
128
 71
17
 72
43
 73
35
 0
VERTEX
 8
0
 10
0
 20
0
 30
0
 62
255
 70
128
 71
35
 72
27
 73
17
 0
VERTEX
 8
0
 10
0
 20
0
 30
0
 62
255
 70
128
 71
59
 72
51
 73
77
 0
VERTEX
 8
0
 10
0
 20
0
 30
0
 62
255
 70
128
 71
77
 72
67
 73
59
 0
VERTEX
 8
0
 10
0
 20
0
 30
0
 62
255
 70
128
 71
79
 72
81
 73
21
 74
19
 0
VERTEX
 8
0
 10
0
 20
0
 30
0
 62
255
 70
128
 71
88
 72
7
 73
21
 74
81
 0
VERTEX
 8
0
 10
0
 20
0
 30
0
 62
255
 70
128
 71
13
 72
39
 73
31
 0
VERTEX
 8
0
 10
0
 20
0
 30
0
 62
255
 70
128
 71
31
 72
23
 73
13
 0
VERTEX
 8
0
 10
0
 20
0
 30
0
 62
255
 70
128
 71
47
 72
73
 73
55
 0
VERTEX
 8
0
 10
0
 20
0
 30
0
 62
255
 70
128
 71
63
 72
55
 73
73
 0
VERTEX
 8
0
 10
0
 20
0
 30
0
 62
255
 70
128
 71
65
 72
57
 73
55
 74
63
 0
VERTEX
 8
0
 10
0
 20
0
 30
0
 62
255
 70
128
 71
72
 72
46
 73
54
 0
VERTEX
 8
0
 10
0
 20
0
 30
0
 62
255
 70
128
 71
54
 72
62
 73
72
 0
VERTEX
 8
0
 10
0
 20
0
 30
0
 62
255
 70
128
 71
30
 72
38
 73
12
 0
VERTEX
 8
0
 10
0
 20
0
 30
0
 62
255
 70
128
 71
12
 72
22
 73
30
 0
VERTEX
 8
0
 10
0
 20
0
 30
0
 62
255
 70
128
 71
57
 72
65
 73
78
 0
VERTEX
 8
0
 10
0
 20
0
 30
0
 62
255
 70
128
 71
78
 72
49
 73
57
 0
VERTEX
 8
0
 10
0
 20
0
 30
0
 62
255
 70
128
 71
33
 72
41
 73
18
 0
VERTEX
 8
0
 10
0
 20
0
 30
0
 62
255
 70
128
 71
18
 72
25
 73
33
 0
VERTEX
 8
0
 10
0
 20
0
 30
0
 62
255
 70
128
 71
34
 72
42
 73
13
 0
VERTEX
 8
0
 10
0
 20
0
 30
0
 62
255
 70
128
 71
13
 72
26
 73
34
 0
VERTEX
 8
0
 10
0
 20
0
 30
0
 62
255
 70
128
 71
58
 72
66
 73
73
 0
VERTEX
 8
0
 10
0
 20
0
 30
0
 62
255
 70
128
 71
73
 72
50
 73
58
 0
VERTEX
 8
0
 10
0
 20
0
 30
0
 62
255
 70
128
 71
86
 72
5
 73
7
 74
88
 0
VERTEX
 8
0
 10
0
 20
0
 30
0
 62
255
 70
128
 71
5
 72
4
 73
6
 74
7
 0
VERTEX
 8
0
 10
0
 20
0
 30
0
 62
255
 70
128
 71
88
 72
87
 73
85
 74
86
 0
VERTEX
 8
0
 10
0
 20
0
 30
0
 62
255
 70
128
 71
89
 72
96
 73
104
 74
8
 0
VERTEX
 8
0
 10
0
 20
0
 30
0
 62
255
 70
128
 71
83
 72
93
 73
91
 0
VERTEX
 8
0
 10
0
 20
0
 30
0
 62
255
 70
128
 71
84
 72
83
 73
91
 74
92
 0
VERTEX
 8
0
 10
0
 20
0
 30
0
 62
255
 70
128
 71
2
 72
99
 73
101
 0
VERTEX
 8
0
 10
0
 20
0
 30
0
 62
255
 70
128
 71
100
 72
99
 73
2
 74
3
 0
VERTEX
 8
0
 10
0
 20
0
 30
0
 62
255
 70
128
 71
2
 72
83
 73
82
 74
1
 0
VERTEX
 8
0
 10
0
 20
0
 30
0
 62
255
 70
128
 71
87
 72
83
 73
84
 74
85
 0
VERTEX
 8
0
 10
0
 20
0
 30
0
 62
255
 70
128
 71
89
 72
82
 73
83
 74
87
 0
VERTEX
 8
0
 10
0
 20
0
 30
0
 62
255
 70
128
 71
3
 72
2
 73
6
 74
4
 0
VERTEX
 8
0
 10
0
 20
0
 30
0
 62
255
 70
128
 71
2
 72
1
 73
8
 74
6
 0
VERTEX
 8
0
 10
0
 20
0
 30
0
 62
255
 70
128
 71
82
 72
89
 73
8
 74
1
 0
VERTEX
 8
0
 10
0
 20
0
 30
0
 62
255
 70
128
 71
9
 72
8
 73
104
 74
103
 0
VERTEX
 8
0
 10
0
 20
0
 30
0
 62
255
 70
128
 71
6
 72
8
 73
9
 0
VERTEX
 8
0
 10
0
 20
0
 30
0
 62
255
 70
128
 71
95
 72
96
 73
89
 74
90
 0
VERTEX
 8
0
 10
0
 20
0
 30
0
 62
255
 70
128
 71
90
 72
89
 73
87
 0
SEQEND
 0
ENDSEC
 0
EOF
