 0
SECTION
 2
HEADER
 9
$ACADVER
 1
AC1009
 9
$INSBASE
 10
0.0
 20
0.0
 30
0.0
 9
$EXTMIN
 10
0.0
 20
0.0
 30
0.0
 9
$EXTMAX
 10
0.0
 20
0.0
 30
0.0
 0
ENDSEC
 0
SECTION
 2
ENTITIES
 0
POLYLINE
 8
0
 70
64
 66
1
 10
0
 20
0
 30
0
 71
16
 72
12
 0
VERTEX
 8
0
 10
0.3
 20
0.3
 30
0.27
 70
192
 0
VERTEX
 8
0
 10
0.3
 20
-0.3
 30
0.27
 70
192
 0
VERTEX
 8
0
 10
-0.3
 20
-0.3
 30
0.27
 70
192
 0
VERTEX
 8
0
 10
-0.3
 20
0.3
 30
0.27
 70
192
 0
VERTEX
 8
0
 10
0.375
 20
0.375
 30
0.8289
 70
192
 0
VERTEX
 8
0
 10
0.375
 20
-0.375
 30
0.8289
 70
192
 0
VERTEX
 8
0
 10
-0.375
 20
0.375
 30
0.8289
 70
192
 0
VERTEX
 8
0
 10
-0.375
 20
-0.375
 30
0.8289
 70
192
 0
VERTEX
 8
0
 10
0.6
 20
0.6
 30
2.502
 70
192
 0
VERTEX
 8
0
 10
0.6
 20
-0.6
 30
2.502
 70
192
 0
VERTEX
 8
0
 10
-0.6
 20
-0.6
 30
2.502
 70
192
 0
VERTEX
 8
0
 10
-0.6
 20
0.6
 30
2.502
 70
192
 0
VERTEX
 8
0
 10
-0.4122
 20
-0.4122
 30
1.1079
 70
192
 0
VERTEX
 8
0
 10
-0.4122
 20
0.4122
 30
1.1079
 70
192
 0
VERTEX
 8
0
 10
0.4122
 20
-0.4122
 30
1.1079
 70
192
 0
VERTEX
 8
0
 10
0.4122
 20
0.4122
 30
1.1079
 70
192
 0
VERTEX
 8
0
 10
0
 20
0
 30
0
 70
128
 71
1
 72
2
 73
3
 74
4
 0
VERTEX
 8
0
 10
0
 20
0
 30
0
 70
128
 71
3
 72
2
 73
6
 74
8
 0
VERTEX
 8
0
 10
0
 20
0
 30
0
 70
128
 71
4
 72
3
 73
8
 74
7
 0
VERTEX
 8
0
 10
0
 20
0
 30
0
 70
128
 71
8
 72
6
 73
5
 74
7
 0
VERTEX
 8
0
 10
0
 20
0
 30
0
 70
128
 71
9
 72
12
 73
11
 74
10
 0
VERTEX
 8
0
 10
0
 20
0
 30
0
 70
128
 71
2
 72
1
 73
5
 74
6
 0
VERTEX
 8
0
 10
0
 20
0
 30
0
 70
128
 71
5
 72
1
 73
4
 74
7
 0
VERTEX
 8
0
 10
0
 20
0
 30
0
 70
128
 71
11
 72
13
 73
15
 74
10
 0
VERTEX
 8
0
 10
0
 20
0
 30
0
 70
128
 71
12
 72
14
 73
13
 74
11
 0
VERTEX
 8
0
 10
0
 20
0
 30
0
 70
128
 71
9
 72
16
 73
14
 74
12
 0
VERTEX
 8
0
 10
0
 20
0
 30
0
 70
128
 71
10
 72
15
 73
16
 74
9
 0
VERTEX
 8
0
 10
0
 20
0
 30
0
 70
128
 71
13
 72
14
 73
16
 74
15
 0
SEQEND
 8
0
 0
ENDSEC
 0
EOF
