  0
SECTION
  2
HEADER
  9
$ACADVER
  1
AC1009
  9
$INSBASE
 10
0.0
 20
0.0
 30
0.0
  9
$EXTMIN
 10
-0.47
 20
-0.3160000000000001
 30
0.0
  9
$EXTMAX
 10
1.3700000000000001
 20
0.05
 30
2.3100000000000001
  9
$LIMMIN
 10
0.0
 20
0.0
  9
$LIMMAX
 10
12.0
 20
9.0
  9
$ORTHOMODE
 70
     1
  9
$REGENMODE
 70
     1
  9
$FILLMODE
 70
     1
  9
$QTEXTMODE
 70
     0
  9
$MIRRTEXT
 70
     0
  9
$DRAGMODE
 70
     2
  9
$LTSCALE
 40
1.0
  9
$OSMODE
 70
    43
  9
$ATTMODE
 70
     1
  9
$TEXTSIZE
 40
1.0
  9
$TRACEWID
 40
0.05
  9
$TEXTSTYLE
  7
STANDARD
  9
$CLAYER
  8
0
  9
$CELTYPE
  6
CONTINUOUS
  9
$CECOLOR
 62
   256
  9
$DIMSCALE
 40
1.0
  9
$DIMASZ
 40
0.18
  9
$DIMEXO
 40
0.0625
  9
$DIMDLI
 40
0.38
  9
$DIMRND
 40
0.0
  9
$DIMDLE
 40
0.0
  9
$DIMEXE
 40
0.18
  9
$DIMTP
 40
0.0
  9
$DIMTM
 40
0.0
  9
$DIMTXT
 40
0.18
  9
$DIMCEN
 40
0.09
  9
$DIMTSZ
 40
0.0
  9
$DIMTOL
 70
     0
  9
$DIMLIM
 70
     0
  9
$DIMTIH
 70
     1
  9
$DIMTOH
 70
     1
  9
$DIMSE1
 70
     0
  9
$DIMSE2
 70
     0
  9
$DIMTAD
 70
     0
  9
$DIMZIN
 70
     0
  9
$DIMBLK
  1

  9
$DIMASO
 70
     1
  9
$DIMSHO
 70
     1
  9
$DIMPOST
  1

  9
$DIMAPOST
  1

  9
$DIMALT
 70
     0
  9
$DIMALTD
 70
     2
  9
$DIMALTF
 40
25.3999999999999986
  9
$DIMLFAC
 40
1.0
  9
$DIMTOFL
 70
     0
  9
$DIMTVP
 40
0.0
  9
$DIMTIX
 70
     0
  9
$DIMSOXD
 70
     0
  9
$DIMSAH
 70
     0
  9
$DIMBLK1
  1

  9
$DIMBLK2
  1

  9
$DIMSTYLE
  2
STANDARD
  9
$DIMCLRD
 70
     0
  9
$DIMCLRE
 70
     0
  9
$DIMCLRT
 70
     0
  9
$DIMTFAC
 40
1.0
  9
$DIMGAP
 40
0.09
  9
$LUNITS
 70
     2
  9
$LUPREC
 70
     4
  9
$SKETCHINC
 40
0.1
  9
$FILLETRAD
 40
0.0
  9
$AUNITS
 70
     0
  9
$AUPREC
 70
     0
  9
$MENU
  1
.
  9
$ELEVATION
 40
0.0
  9
$PELEVATION
 40
0.0
  9
$THICKNESS
 40
0.0
  9
$LIMCHECK
 70
     0
  9
$BLIPMODE
 70
     0
  9
$CHAMFERA
 40
0.0
  9
$CHAMFERB
 40
0.0
  9
$SKPOLY
 70
     0
  9
$TDCREATE
 40
2458918.4637384261004627
  9
$TDUPDATE
 40
2458918.4987615738064051
  9
$TDINDWG
 40
0.003599537
  9
$TDUSRTIMER
 40
0.003599537
  9
$USRTIMER
 70
     1
  9
$ANGBASE
 50
0.0
  9
$ANGDIR
 70
     0
  9
$PDMODE
 70
     0
  9
$PDSIZE
 40
0.0
  9
$PLINEWID
 40
0.0
  9
$COORDS
 70
     1
  9
$SPLFRAME
 70
     0
  9
$SPLINETYPE
 70
     6
  9
$SPLINESEGS
 70
     8
  9
$ATTDIA
 70
     0
  9
$ATTREQ
 70
     1
  9
$HANDLING
 70
     1
  9
$HANDSEED
  5
4B1
  9
$SURFTAB1
 70
     6
  9
$SURFTAB2
 70
     6
  9
$SURFTYPE
 70
     6
  9
$SURFU
 70
     6
  9
$SURFV
 70
     6
  9
$UCSNAME
  2

  9
$UCSORG
 10
0.0
 20
0.0
 30
0.0
  9
$UCSXDIR
 10
1.0
 20
0.0
 30
0.0
  9
$UCSYDIR
 10
0.0
 20
1.0
 30
0.0
  9
$PUCSNAME
  2

  9
$PUCSORG
 10
0.0
 20
0.0
 30
0.0
  9
$PUCSXDIR
 10
1.0
 20
0.0
 30
0.0
  9
$PUCSYDIR
 10
0.0
 20
1.0
 30
0.0
  9
$USERI1
 70
     0
  9
$USERI2
 70
     0
  9
$USERI3
 70
     0
  9
$USERI4
 70
     0
  9
$USERI5
 70
     0
  9
$USERR1
 40
0.0
  9
$USERR2
 40
0.0
  9
$USERR3
 40
0.0
  9
$USERR4
 40
0.0
  9
$USERR5
 40
0.0
  9
$WORLDVIEW
 70
     1
  9
$SHADEDGE
 70
     3
  9
$SHADEDIF
 70
    70
  9
$TILEMODE
 70
     1
  9
$MAXACTVP
 70
    64
  9
$PLIMCHECK
 70
     0
  9
$PEXTMIN
 10
1.0000000000000000E+20
 20
1.0000000000000000E+20
 30
1.0000000000000000E+20
  9
$PEXTMAX
 10
-1.0000000000000000E+20
 20
-1.0000000000000000E+20
 30
-1.0000000000000000E+20
  9
$PLIMMIN
 10
0.0
 20
0.0
  9
$PLIMMAX
 10
12.0
 20
9.0
  9
$UNITMODE
 70
     0
  9
$VISRETAIN
 70
     1
  9
$PLINEGEN
 70
     0
  9
$PSLTSCALE
 70
     1
  0
ENDSEC
  0
SECTION
  2
TABLES
  0
TABLE
  2
VPORT
 70
     1
  0
VPORT
  2
*ACTIVE
 70
     0
 10
0.0
 20
0.0
 11
1.0
 21
1.0
 12
-0.8892100603194601
 22
-0.3394520457693474
 13
0.0
 23
0.0
 14
0.1
 24
0.1
 15
0.1
 25
0.1
 16
0.0
 26
0.0
 36
1.0
 17
1.2971269048067251
 27
0.3182699033352887
 37
0.0973317499159823
 40
1.5841969959142219
 41
1.8654073199527741
 42
50.0
 43
0.0
 44
0.0
 50
0.0
 51
0.0
 71
     0
 72
   100
 73
     1
 74
     1
 75
     0
 76
     0
 77
     0
 78
     0
  0
ENDTAB
  0
TABLE
  2
LTYPE
 70
     9
  0
LTYPE
  2
CONTINUOUS
 70
     0
  3
Solid line
 72
    65
 73
     0
 40
0.0
  0
LTYPE
  2
DOT
 70
     0
  3
. . . . . . .
 72
    65
 73
     2
 40
0.25
 49
0.0
 49
-0.25
  0
LTYPE
  2
DASHED
 70
     0
  3
__ __ __ __ __
 72
    65
 73
     2
 40
0.8
 49
0.5
 49
-0.3
  0
LTYPE
  2
DASHDOT
 70
     0
  3
__ . __ . __ .
 72
    65
 73
     4
 40
1.0
 49
0.5
 49
-0.25
 49
0.0
 49
-0.25
  0
LTYPE
  2
DIVIDE
 70
     0
  3
____ . . ____ . . 
 72
    65
 73
     6
 40
1.25
 49
0.5
 49
-0.25
 49
0.0
 49
-0.25
 49
0.0
 49
-0.25
  0
LTYPE
  2
BORDER
 70
     0
  3
__ __ . __ __ . 
 72
    65
 73
     6
 40
1.75
 49
0.5
 49
-0.25
 49
0.5
 49
-0.25
 49
0.0
 49
-0.25
  0
LTYPE
  2
HIDDEN
 70
     0
  3
__ __ __ __ __
 72
    65
 73
     2
 40
0.4
 49
0.25
 49
-0.25
  0
LTYPE
  2
CENTER
 70
     0
  3
____ _ ____ _ __
 72
    65
 73
     4
 40
2.0
 49
1.25
 49
-0.25
 49
0.25
 49
-0.25
  0
ENDTAB
  0
TABLE
  2
LAYER
 70
     2
  0
LAYER
  2
0
 70
     0
 62
     7
  6
CONTINUOUS
  0
LAYER
  2
PYDXF
 70
     0
 62
     7
  6
CONTINUOUS
  0
ENDTAB
  0
TABLE
  2
STYLE
 70
     2
  0
STYLE
  2
STANDARD
 70
     0
 40
0.0
 41
1.0
 50
0.0
 71
     0
 42
1.0
  3
txt
  4

  0
STYLE
  2
ANNOTATIVE
 70
     0
 40
0.0
 41
1.0
 50
0.0
 71
     0
 42
0.2
  3
txt
  4

  0
ENDTAB
  0
TABLE
  2
VIEW
 70
     1
  0
VIEW
  2
BF_TOPVIEW
 70
     0
 40
120.0
 10
0.0
 20
0.0
 41
200.0
 11
0.0
 21
0.0
 31
1.0
 12
0.0
 22
0.0
 32
0.0
 42
50.0
 43
0.0
 44
0.0
 50
0.0
 71
     0
  0
ENDTAB
  0
TABLE
  2
UCS
 70
     0
  0
ENDTAB
  0
TABLE
  2
APPID
 70
     5
  0
APPID
  2
ACAD
 70
     0
  0
APPID
  2
ACADANNOTATIVE
 70
     0
  0
APPID
  2
ACAD_NAV_VCDISPLAY
 70
     0
  0
APPID
  2
ACAD_MLEADERVER
 70
     0
  0
APPID
  2
ACAD_EXEMPT_FROM_CAD_STANDARDS
 70
     0
  0
ENDTAB
  0
TABLE
  2
DIMSTYLE
 70
     3
  0
DIMSTYLE
  2
STANDARD
 70
     0
  3

  4

  5

  6

  7

 40
1.0
 41
0.18
 42
0.0625
 43
0.38
 44
0.18
 45
0.0
 46
0.0
 47
0.0
 48
0.0
140
0.18
141
0.09
142
0.0
143
25.3999999999999986
144
1.0
145
0.0
146
1.0
147
0.09
 71
     0
 72
     0
 73
     1
 74
     1
 75
     0
 76
     0
 77
     0
 78
     0
170
     0
171
     2
172
     0
173
     0
174
     0
175
     0
176
     0
177
     0
178
     0
  0
DIMSTYLE
  2
ANNOTATIVE
 70
     0
  3

  4

  5

  6

  7

 40
1.0
 41
0.18
 42
0.0625
 43
0.38
 44
0.18
 45
0.0
 46
0.0
 47
0.0
 48
0.0
140
0.18
141
0.09
142
0.0
143
25.3999999999999986
144
1.0
145
0.0
146
1.0
147
0.09
 71
     0
 72
     0
 73
     1
 74
     1
 75
     0
 76
     0
 77
     0
 78
     0
170
     0
171
     2
172
     0
173
     0
174
     0
175
     0
176
     0
177
     0
178
     0
  0
ENDTAB
  0
ENDSEC
  0
SECTION
  2
BLOCKS
  0
BLOCK
  8
0
  2
$MODEL_SPACE
 70
     0
 10
0.0
 20
0.0
 30
0.0
  3
$MODEL_SPACE
  1

  0
ENDBLK
  5
440
  8
0
  0
BLOCK
 67
     1
  8
0
  2
$PAPER_SPACE
 70
     0
 10
0.0
 20
0.0
 30
0.0
  3
$PAPER_SPACE
  1

  0
ENDBLK
  5
43C
 67
     1
  8
0
  0
ENDSEC
  0
SECTION
  2
ENTITIES
  0
POLYLINE
  5
7F
  8
0
 62
   131
 66
     1
 10
0.0
 20
0.0
 30
0.0
 70
    64
 71
   240
 72
   242
  0
VERTEX
  5
80
  8
0
 62
   131
 10
-0.08
 20
-0.27
 30
0.0
 70
   192
  0
VERTEX
  5
81
  8
0
 62
   131
 10
-0.39
 20
-0.27
 30
0.0
 70
   192
  0
VERTEX
  5
82
  8
0
 62
   131
 10
-0.08
 20
-0.27
 30
0.08
 70
   192
  0
VERTEX
  5
83
  8
0
 62
   131
 10
0.0
 20
-0.27
 30
0.0
 70
   192
  0
VERTEX
  5
84
  8
0
 62
   131
 10
-0.08
 20
-0.3160000000000001
 30
0.0
 70
   192
  0
VERTEX
  5
85
  8
0
 62
   131
 10
-0.47
 20
-0.27
 30
0.08
 70
   192
  0
VERTEX
  5
86
  8
0
 62
   131
 10
-0.47
 20
-0.27
 30
0.0
 70
   192
  0
VERTEX
  5
87
  8
0
 62
   131
 10
-0.47
 20
-0.3160000000000001
 30
0.0
 70
   192
  0
VERTEX
  5
88
  8
0
 62
   131
 10
-0.39
 20
-0.27
 30
0.08
 70
   192
  0
VERTEX
  5
89
  8
0
 62
   131
 10
-0.39
 20
-0.27
 30
0.7433332204818726
 70
   192
  0
VERTEX
  5
8A
  8
0
 62
   131
 10
-0.39
 20
-0.2850000000000001
 30
0.08
 70
   192
  0
VERTEX
  5
8B
  8
0
 62
   131
 10
-0.39
 20
-0.2850000000000001
 30
0.7433332204818726
 70
   192
  0
VERTEX
  5
8C
  8
0
 62
   131
 10
-0.08
 20
-0.2850000000000001
 30
0.08
 70
   192
  0
VERTEX
  5
8D
  8
0
 62
   131
 10
0.0
 20
-0.27
 30
0.08
 70
   192
  0
VERTEX
  5
8E
  8
0
 62
   131
 10
0.0
 20
-0.3160000000000001
 30
0.0
 70
   192
  0
VERTEX
  5
8F
  8
0
 62
   131
 10
-0.47
 20
-0.3160000000000001
 30
0.08
 70
   192
  0
VERTEX
  5
90
  8
0
 62
   131
 10
-0.39
 20
-0.3160000000000001
 30
0.0
 70
   192
  0
VERTEX
  5
91
  8
0
 62
   131
 10
-0.47
 20
-0.27
 30
0.7433332204818726
 70
   192
  0
VERTEX
  5
92
  8
0
 62
   131
 10
-0.47
 20
-0.27
 30
0.8233332633972166
 70
   192
  0
VERTEX
  5
93
  8
0
 62
   131
 10
-0.08
 20
-0.2850000000000001
 30
0.7433332204818726
 70
   192
  0
VERTEX
  5
94
  8
0
 62
   131
 10
0.0
 20
-0.27
 30
0.8233332633972166
 70
   192
  0
VERTEX
  5
95
  8
0
 62
   131
 10
0.0
 20
-0.27
 30
0.7433332204818726
 70
   192
  0
VERTEX
  5
96
  8
0
 62
   131
 10
-0.08
 20
-0.3160000000000001
 30
0.08
 70
   192
  0
VERTEX
  5
97
  8
0
 62
   131
 10
-0.39
 20
-0.3010000000000001
 30
0.08
 70
   192
  0
VERTEX
  5
98
  8
0
 62
   131
 10
-0.39
 20
-0.3160000000000001
 30
0.08
 70
   192
  0
VERTEX
  5
99
  8
0
 62
   131
 10
-0.39
 20
-0.3160000000000001
 30
0.7433332204818726
 70
   192
  0
VERTEX
  5
9A
  8
0
 62
   131
 10
-0.08
 20
-0.27
 30
0.7433332204818726
 70
   192
  0
VERTEX
  5
9B
  8
0
 62
   131
 10
0.0
 20
-0.3160000000000001
 30
0.8233332633972166
 70
   192
  0
VERTEX
  5
9C
  8
0
 62
   131
 10
0.0
 20
-0.3160000000000001
 30
0.08
 70
   192
  0
VERTEX
  5
9D
  8
0
 62
   131
 10
-0.08
 20
-0.3010000000000001
 30
0.7433332204818726
 70
   192
  0
VERTEX
  5
9E
  8
0
 62
   131
 10
-0.08
 20
-0.3010000000000001
 30
0.08
 70
   192
  0
VERTEX
  5
9F
  8
0
 62
   131
 10
-0.39
 20
-0.3010000000000001
 30
0.7433332204818726
 70
   192
  0
VERTEX
  5
A0
  8
0
 62
   131
 10
-0.47
 20
-0.3160000000000001
 30
0.7433332204818726
 70
   192
  0
VERTEX
  5
A1
  8
0
 62
   131
 10
-0.47
 20
-0.27
 30
1.4866665601730329
 70
   192
  0
VERTEX
  5
A2
  8
0
 62
   131
 10
-0.47
 20
-0.3160000000000001
 30
0.8233332633972166
 70
   192
  0
VERTEX
  5
A3
  8
0
 62
   131
 10
-0.08
 20
-0.27
 30
0.8233332633972166
 70
   192
  0
VERTEX
  5
A4
  8
0
 62
   131
 10
-0.08
 20
-0.2850000000000001
 30
0.8233332633972166
 70
   192
  0
VERTEX
  5
A5
  8
0
 62
   131
 10
-0.39
 20
-0.27
 30
0.8233332633972166
 70
   192
  0
VERTEX
  5
A6
  8
0
 62
   131
 10
-0.39
 20
-0.27
 30
1.4866665601730329
 70
   192
  0
VERTEX
  5
A7
  8
0
 62
   131
 10
0.0
 20
-0.3160000000000001
 30
0.7433332204818726
 70
   192
  0
VERTEX
  5
A8
  8
0
 62
   131
 10
-0.08
 20
-0.2850000000000001
 30
1.4866665601730329
 70
   192
  0
VERTEX
  5
A9
  8
0
 62
   131
 10
0.0
 20
-0.27
 30
1.566666722297668
 70
   192
  0
VERTEX
  5
AA
  8
0
 62
   131
 10
0.0
 20
-0.27
 30
1.4866665601730329
 70
   192
  0
VERTEX
  5
AB
  8
0
 62
   131
 10
-0.08
 20
-0.27
 30
1.4866665601730329
 70
   192
  0
VERTEX
  5
AC
  8
0
 62
   131
 10
-0.08
 20
-0.3160000000000001
 30
0.7433332204818726
 70
   192
  0
VERTEX
  5
AD
  8
0
 62
   131
 10
-0.47
 20
-0.3160000000000001
 30
1.4866665601730329
 70
   192
  0
VERTEX
  5
AE
  8
0
 62
   131
 10
-0.47
 20
-0.3160000000000001
 30
1.566666722297668
 70
   192
  0
VERTEX
  5
AF
  8
0
 62
   131
 10
-0.39
 20
-0.2850000000000001
 30
0.8233332633972166
 70
   192
  0
VERTEX
  5
B0
  8
0
 62
   131
 10
-0.39
 20
-0.2850000000000001
 30
1.4866665601730329
 70
   192
  0
VERTEX
  5
B1
  8
0
 62
   131
 10
-0.39
 20
-0.27
 30
1.566666722297668
 70
   192
  0
VERTEX
  5
B2
  8
0
 62
   131
 10
0.0
 20
-0.3160000000000001
 30
1.566666722297668
 70
   192
  0
VERTEX
  5
B3
  8
0
 62
   131
 10
0.0
 20
-0.3160000000000001
 30
1.4866665601730329
 70
   192
  0
VERTEX
  5
B4
  8
0
 62
   131
 10
-0.08
 20
-0.3160000000000001
 30
1.4866665601730329
 70
   192
  0
VERTEX
  5
B5
  8
0
 62
   131
 10
0.0
 20
-0.27
 30
2.2299999999999991
 70
   192
  0
VERTEX
  5
B6
  8
0
 62
   131
 10
-0.08
 20
-0.27
 30
1.566666722297668
 70
   192
  0
VERTEX
  5
B7
  8
0
 62
   131
 10
-0.08
 20
-0.27
 30
2.2299999999999991
 70
   192
  0
VERTEX
  5
B8
  8
0
 62
   131
 10
-0.39
 20
-0.3010000000000001
 30
0.8233332633972166
 70
   192
  0
VERTEX
  5
B9
  8
0
 62
   131
 10
-0.39
 20
-0.3160000000000001
 30
0.8233332633972166
 70
   192
  0
VERTEX
  5
BA
  8
0
 62
   131
 10
-0.39
 20
-0.3010000000000001
 30
1.4866665601730329
 70
   192
  0
VERTEX
  5
BB
  8
0
 62
   131
 10
-0.47
 20
-0.27
 30
2.2299999999999991
 70
   192
  0
VERTEX
  5
BC
  8
0
 62
   131
 10
-0.47
 20
-0.27
 30
1.566666722297668
 70
   192
  0
VERTEX
  5
BD
  8
0
 62
   131
 10
-0.39
 20
-0.2850000000000001
 30
1.566666722297668
 70
   192
  0
VERTEX
  5
BE
  8
0
 62
   131
 10
-0.39
 20
-0.27
 30
2.3100000000000001
 70
   192
  0
VERTEX
  5
BF
  8
0
 62
   131
 10
-0.47
 20
-0.27
 30
2.3100000000000001
 70
   192
  0
VERTEX
  5
C0
  8
0
 62
   131
 10
0.0
 20
-0.3160000000000001
 30
2.2299999999999991
 70
   192
  0
VERTEX
  5
C1
  8
0
 62
   131
 10
-0.08
 20
-0.3160000000000001
 30
0.8233332633972166
 70
   192
  0
VERTEX
  5
C2
  8
0
 62
   131
 10
-0.08
 20
-0.3010000000000001
 30
1.4866665601730329
 70
   192
  0
VERTEX
  5
C3
  8
0
 62
   131
 10
-0.08
 20
-0.3010000000000001
 30
0.8233332633972166
 70
   192
  0
VERTEX
  5
C4
  8
0
 62
   131
 10
-0.08
 20
-0.2850000000000001
 30
2.2299999999999991
 70
   192
  0
VERTEX
  5
C5
  8
0
 62
   131
 10
0.0
 20
-0.27
 30
2.3100000000000001
 70
   192
  0
VERTEX
  5
C6
  8
0
 62
   131
 10
-0.39
 20
-0.3160000000000001
 30
1.4866665601730329
 70
   192
  0
VERTEX
  5
C7
  8
0
 62
   131
 10
-0.39
 20
-0.3160000000000001
 30
1.566666722297668
 70
   192
  0
VERTEX
  5
C8
  8
0
 62
   131
 10
-0.39
 20
-0.2850000000000001
 30
2.2299999999999991
 70
   192
  0
VERTEX
  5
C9
  8
0
 62
   131
 10
-0.08
 20
-0.2850000000000001
 30
1.566666722297668
 70
   192
  0
VERTEX
  5
CA
  8
0
 62
   131
 10
-0.08
 20
-0.27
 30
2.3100000000000001
 70
   192
  0
VERTEX
  5
CB
  8
0
 62
   131
 10
-0.39
 20
-0.27
 30
2.2299999999999991
 70
   192
  0
VERTEX
  5
CC
  8
0
 62
   131
 10
-0.47
 20
-0.3160000000000001
 30
2.3100000000000001
 70
   192
  0
VERTEX
  5
CD
  8
0
 62
   131
 10
-0.39
 20
-0.3160000000000001
 30
2.3100000000000001
 70
   192
  0
VERTEX
  5
CE
  8
0
 62
   131
 10
0.0
 20
-0.3160000000000001
 30
2.3100000000000001
 70
   192
  0
VERTEX
  5
CF
  8
0
 62
   131
 10
-0.08
 20
-0.3010000000000001
 30
1.566666722297668
 70
   192
  0
VERTEX
  5
D0
  8
0
 62
   131
 10
-0.39
 20
-0.3160000000000001
 30
2.2299999999999991
 70
   192
  0
VERTEX
  5
D1
  8
0
 62
   131
 10
-0.47
 20
-0.3160000000000001
 30
2.2299999999999991
 70
   192
  0
VERTEX
  5
D2
  8
0
 62
   131
 10
-0.08
 20
-0.3160000000000001
 30
2.3100000000000001
 70
   192
  0
VERTEX
  5
D3
  8
0
 62
   131
 10
-0.08
 20
-0.3160000000000001
 30
1.566666722297668
 70
   192
  0
VERTEX
  5
D4
  8
0
 62
   131
 10
-0.08
 20
-0.3160000000000001
 30
2.2299999999999991
 70
   192
  0
VERTEX
  5
D5
  8
0
 62
   131
 10
-0.39
 20
-0.3010000000000001
 30
1.566666722297668
 70
   192
  0
VERTEX
  5
D6
  8
0
 62
   131
 10
-0.39
 20
-0.3010000000000001
 30
2.2299999999999991
 70
   192
  0
VERTEX
  5
D7
  8
0
 62
   131
 10
-0.08
 20
-0.3010000000000001
 30
2.2299999999999991
 70
   192
  0
VERTEX
  5
D8
  8
0
 62
   131
 10
0.98
 20
-0.27
 30
0.0
 70
   192
  0
VERTEX
  5
D9
  8
0
 62
   131
 10
0.98
 20
-0.27
 30
0.08
 70
   192
  0
VERTEX
  5
DA
  8
0
 62
   131
 10
1.29
 20
-0.27
 30
0.0
 70
   192
  0
VERTEX
  5
DB
  8
0
 62
   131
 10
1.3700000000000001
 20
-0.27
 30
0.08
 70
   192
  0
VERTEX
  5
DC
  8
0
 62
   131
 10
1.3700000000000001
 20
-0.27
 30
0.0
 70
   192
  0
VERTEX
  5
DD
  8
0
 62
   131
 10
0.98
 20
-0.2850000000000001
 30
0.08
 70
   192
  0
VERTEX
  5
DE
  8
0
 62
   131
 10
1.29
 20
-0.2850000000000001
 30
0.08
 70
   192
  0
VERTEX
  5
DF
  8
0
 62
   131
 10
1.29
 20
-0.27
 30
0.08
 70
   192
  0
VERTEX
  5
E0
  8
0
 62
   131
 10
0.9
 20
-0.27
 30
0.0
 70
   192
  0
VERTEX
  5
E1
  8
0
 62
   131
 10
1.3700000000000001
 20
-0.3160000000000001
 30
0.08
 70
   192
  0
VERTEX
  5
E2
  8
0
 62
   131
 10
1.3700000000000001
 20
-0.3160000000000001
 30
0.0
 70
   192
  0
VERTEX
  5
E3
  8
0
 62
   131
 10
1.3700000000000001
 20
-0.27
 30
0.7433332204818726
 70
   192
  0
VERTEX
  5
E4
  8
0
 62
   131
 10
1.29
 20
-0.3160000000000001
 30
0.0
 70
   192
  0
VERTEX
  5
E5
  8
0
 62
   131
 10
1.29
 20
-0.2850000000000001
 30
0.7433332204818726
 70
   192
  0
VERTEX
  5
E6
  8
0
 62
   131
 10
0.98
 20
-0.2850000000000001
 30
0.7433332204818726
 70
   192
  0
VERTEX
  5
E7
  8
0
 62
   131
 10
0.98
 20
-0.27
 30
0.7433332204818726
 70
   192
  0
VERTEX
  5
E8
  8
0
 62
   131
 10
0.9
 20
-0.3160000000000001
 30
0.0
 70
   192
  0
VERTEX
  5
E9
  8
0
 62
   131
 10
0.9
 20
-0.27
 30
0.08
 70
   192
  0
VERTEX
  5
EA
  8
0
 62
   131
 10
1.29
 20
-0.27
 30
0.7433332204818726
 70
   192
  0
VERTEX
  5
EB
  8
0
 62
   131
 10
0.9
 20
-0.27
 30
0.8233332633972166
 70
   192
  0
VERTEX
  5
EC
  8
0
 62
   131
 10
0.98
 20
-0.3160000000000001
 30
0.0
 70
   192
  0
VERTEX
  5
ED
  8
0
 62
   131
 10
0.98
 20
-0.3010000000000001
 30
0.08
 70
   192
  0
VERTEX
  5
EE
  8
0
 62
   131
 10
1.3700000000000001
 20
-0.27
 30
1.4866665601730329
 70
   192
  0
VERTEX
  5
EF
  8
0
 62
   131
 10
1.29
 20
-0.27
 30
1.4866665601730329
 70
   192
  0
VERTEX
  5
F0
  8
0
 62
   131
 10
0.9
 20
-0.3160000000000001
 30
0.7433332204818726
 70
   192
  0
VERTEX
  5
F1
  8
0
 62
   131
 10
0.9
 20
-0.3160000000000001
 30
0.8233332633972166
 70
   192
  0
VERTEX
  5
F2
  8
0
 62
   131
 10
0.9
 20
-0.27
 30
0.7433332204818726
 70
   192
  0
VERTEX
  5
F3
  8
0
 62
   131
 10
0.98
 20
-0.3160000000000001
 30
0.08
 70
   192
  0
VERTEX
  5
F4
  8
0
 62
   131
 10
0.9
 20
-0.3160000000000001
 30
0.08
 70
   192
  0
VERTEX
  5
F5
  8
0
 62
   131
 10
1.29
 20
-0.3010000000000001
 30
0.08
 70
   192
  0
VERTEX
  5
F6
  8
0
 62
   131
 10
1.29
 20
-0.3160000000000001
 30
0.08
 70
   192
  0
VERTEX
  5
F7
  8
0
 62
   131
 10
1.3700000000000001
 20
-0.3160000000000001
 30
0.7433332204818726
 70
   192
  0
VERTEX
  5
F8
  8
0
 62
   131
 10
1.3700000000000001
 20
-0.27
 30
0.8233332633972166
 70
   192
  0
VERTEX
  5
F9
  8
0
 62
   131
 10
1.29
 20
-0.27
 30
0.8233332633972166
 70
   192
  0
VERTEX
  5
FA
  8
0
 62
   131
 10
1.29
 20
-0.2850000000000001
 30
1.4866665601730329
 70
   192
  0
VERTEX
  5
FB
  8
0
 62
   131
 10
0.9
 20
-0.27
 30
1.4866665601730329
 70
   192
  0
VERTEX
  5
FC
  8
0
 62
   131
 10
0.98
 20
-0.2850000000000001
 30
1.4866665601730329
 70
   192
  0
VERTEX
  5
FD
  8
0
 62
   131
 10
0.98
 20
-0.27
 30
0.8233332633972166
 70
   192
  0
VERTEX
  5
FE
  8
0
 62
   131
 10
0.98
 20
-0.27
 30
1.4866665601730329
 70
   192
  0
VERTEX
  5
FF
  8
0
 62
   131
 10
0.98
 20
-0.3010000000000001
 30
0.7433332204818726
 70
   192
  0
VERTEX
  5
100
  8
0
 62
   131
 10
1.29
 20
-0.3010000000000001
 30
0.7433332204818726
 70
   192
  0
VERTEX
  5
101
  8
0
 62
   131
 10
1.29
 20
-0.3160000000000001
 30
0.7433332204818726
 70
   192
  0
VERTEX
  5
102
  8
0
 62
   131
 10
0.98
 20
-0.3160000000000001
 30
0.7433332204818726
 70
   192
  0
VERTEX
  5
103
  8
0
 62
   131
 10
1.3700000000000001
 20
-0.3160000000000001
 30
0.8233332633972166
 70
   192
  0
VERTEX
  5
104
  8
0
 62
   131
 10
1.3700000000000001
 20
-0.3160000000000001
 30
1.566666722297668
 70
   192
  0
VERTEX
  5
105
  8
0
 62
   131
 10
0.98
 20
-0.2850000000000001
 30
0.8233332633972166
 70
   192
  0
VERTEX
  5
106
  8
0
 62
   131
 10
1.29
 20
-0.2850000000000001
 30
0.8233332633972166
 70
   192
  0
VERTEX
  5
107
  8
0
 62
   131
 10
1.29
 20
-0.27
 30
1.566666722297668
 70
   192
  0
VERTEX
  5
108
  8
0
 62
   131
 10
0.9
 20
-0.27
 30
1.566666722297668
 70
   192
  0
VERTEX
  5
109
  8
0
 62
   131
 10
0.98
 20
-0.3160000000000001
 30
1.4866665601730329
 70
   192
  0
VERTEX
  5
10A
  8
0
 62
   131
 10
0.9
 20
-0.3160000000000001
 30
1.4866665601730329
 70
   192
  0
VERTEX
  5
10B
  8
0
 62
   131
 10
0.9
 20
-0.27
 30
2.2299999999999991
 70
   192
  0
VERTEX
  5
10C
  8
0
 62
   131
 10
1.29
 20
-0.3160000000000001
 30
0.8233332633972166
 70
   192
  0
VERTEX
  5
10D
  8
0
 62
   131
 10
1.29
 20
-0.3010000000000001
 30
0.8233332633972166
 70
   192
  0
VERTEX
  5
10E
  8
0
 62
   131
 10
1.29
 20
-0.3160000000000001
 30
1.4866665601730329
 70
   192
  0
VERTEX
  5
10F
  8
0
 62
   131
 10
1.3700000000000001
 20
-0.3160000000000001
 30
1.4866665601730329
 70
   192
  0
VERTEX
  5
110
  8
0
 62
   131
 10
1.3700000000000001
 20
-0.3160000000000001
 30
2.2299999999999991
 70
   192
  0
VERTEX
  5
111
  8
0
 62
   131
 10
1.3700000000000001
 20
-0.27
 30
1.566666722297668
 70
   192
  0
VERTEX
  5
112
  8
0
 62
   131
 10
0.98
 20
-0.27
 30
1.566666722297668
 70
   192
  0
VERTEX
  5
113
  8
0
 62
   131
 10
1.29
 20
-0.2850000000000001
 30
1.566666722297668
 70
   192
  0
VERTEX
  5
114
  8
0
 62
   131
 10
1.29
 20
-0.27
 30
2.2299999999999991
 70
   192
  0
VERTEX
  5
115
  8
0
 62
   131
 10
1.3700000000000001
 20
-0.27
 30
2.2299999999999991
 70
   192
  0
VERTEX
  5
116
  8
0
 62
   131
 10
0.98
 20
-0.3160000000000001
 30
1.566666722297668
 70
   192
  0
VERTEX
  5
117
  8
0
 62
   131
 10
0.98
 20
-0.3010000000000001
 30
0.8233332633972166
 70
   192
  0
VERTEX
  5
118
  8
0
 62
   131
 10
0.98
 20
-0.3160000000000001
 30
0.8233332633972166
 70
   192
  0
VERTEX
  5
119
  8
0
 62
   131
 10
0.98
 20
-0.3010000000000001
 30
1.4866665601730329
 70
   192
  0
VERTEX
  5
11A
  8
0
 62
   131
 10
1.29
 20
-0.3010000000000001
 30
1.4866665601730329
 70
   192
  0
VERTEX
  5
11B
  8
0
 62
   131
 10
1.29
 20
-0.3160000000000001
 30
1.566666722297668
 70
   192
  0
VERTEX
  5
11C
  8
0
 62
   131
 10
1.3700000000000001
 20
-0.27
 30
2.3100000000000001
 70
   192
  0
VERTEX
  5
11D
  8
0
 62
   131
 10
0.98
 20
-0.2850000000000001
 30
1.566666722297668
 70
   192
  0
VERTEX
  5
11E
  8
0
 62
   131
 10
0.98
 20
-0.2850000000000001
 30
2.2299999999999991
 70
   192
  0
VERTEX
  5
11F
  8
0
 62
   131
 10
1.29
 20
-0.2850000000000001
 30
2.2299999999999991
 70
   192
  0
VERTEX
  5
120
  8
0
 62
   131
 10
0.98
 20
-0.27
 30
2.2299999999999991
 70
   192
  0
VERTEX
  5
121
  8
0
 62
   131
 10
1.29
 20
-0.27
 30
2.3100000000000001
 70
   192
  0
VERTEX
  5
122
  8
0
 62
   131
 10
0.9
 20
-0.3160000000000001
 30
2.3100000000000001
 70
   192
  0
VERTEX
  5
123
  8
0
 62
   131
 10
0.9
 20
-0.27
 30
2.3100000000000001
 70
   192
  0
VERTEX
  5
124
  8
0
 62
   131
 10
0.98
 20
-0.3160000000000001
 30
2.2299999999999991
 70
   192
  0
VERTEX
  5
125
  8
0
 62
   131
 10
0.9
 20
-0.3160000000000001
 30
1.566666722297668
 70
   192
  0
VERTEX
  5
126
  8
0
 62
   131
 10
0.98
 20
-0.27
 30
2.3100000000000001
 70
   192
  0
VERTEX
  5
127
  8
0
 62
   131
 10
1.3700000000000001
 20
-0.3160000000000001
 30
2.3100000000000001
 70
   192
  0
VERTEX
  5
128
  8
0
 62
   131
 10
1.29
 20
-0.3160000000000001
 30
2.3100000000000001
 70
   192
  0
VERTEX
  5
129
  8
0
 62
   131
 10
0.98
 20
-0.3160000000000001
 30
2.3100000000000001
 70
   192
  0
VERTEX
  5
12A
  8
0
 62
   131
 10
0.9
 20
-0.3160000000000001
 30
2.2299999999999991
 70
   192
  0
VERTEX
  5
12B
  8
0
 62
   131
 10
0.98
 20
-0.3010000000000001
 30
1.566666722297668
 70
   192
  0
VERTEX
  5
12C
  8
0
 62
   131
 10
0.98
 20
-0.3010000000000001
 30
2.2299999999999991
 70
   192
  0
VERTEX
  5
12D
  8
0
 62
   131
 10
1.29
 20
-0.3010000000000001
 30
1.566666722297668
 70
   192
  0
VERTEX
  5
12E
  8
0
 62
   131
 10
1.29
 20
-0.3010000000000001
 30
2.2299999999999991
 70
   192
  0
VERTEX
  5
12F
  8
0
 62
   131
 10
1.29
 20
-0.3160000000000001
 30
2.2299999999999991
 70
   192
  0
VERTEX
  5
130
  8
0
 62
   131
 10
0.9
 20
-0.22
 30
1.95
 70
   192
  0
VERTEX
  5
131
  8
0
 62
   131
 10
0.84
 20
-0.22
 30
1.78
 70
   192
  0
VERTEX
  5
132
  8
0
 62
   131
 10
0.84
 20
0.05
 30
1.78
 70
   192
  0
VERTEX
  5
133
  8
0
 62
   131
 10
0.84
 20
-0.22
 30
1.95
 70
   192
  0
VERTEX
  5
134
  8
0
 62
   131
 10
0.829
 20
-0.22
 30
2.004
 70
   192
  0
VERTEX
  5
135
  8
0
 62
   131
 10
0.9
 20
-0.22
 30
1.78
 70
   192
  0
VERTEX
  5
136
  8
0
 62
   131
 10
0.9
 20
0.05
 30
1.78
 70
   192
  0
VERTEX
  5
137
  8
0
 62
   131
 10
0.84
 20
0.05
 30
1.95
 70
   192
  0
VERTEX
  5
138
  8
0
 62
   131
 10
0.7990000000000002
 20
-0.22
 30
2.048999999999999
 70
   192
  0
VERTEX
  5
139
  8
0
 62
   131
 10
0.9
 20
-0.22
 30
2.1200000000000001
 70
   192
  0
VERTEX
  5
13A
  8
0
 62
   131
 10
0.9
 20
0.05
 30
1.95
 70
   192
  0
VERTEX
  5
13B
  8
0
 62
   131
 10
0.7990000000000002
 20
0.05
 30
2.048999999999999
 70
   192
  0
VERTEX
  5
13C
  8
0
 62
   131
 10
0.829
 20
0.05
 30
2.004
 70
   192
  0
VERTEX
  5
13D
  8
0
 62
   131
 10
0.9
 20
0.05
 30
2.29
 70
   192
  0
VERTEX
  5
13E
  8
0
 62
   131
 10
0.9
 20
0.05
 30
2.1200000000000001
 70
   192
  0
VERTEX
  5
13F
  8
0
 62
   131
 10
0.58
 20
0.05
 30
2.29
 70
   192
  0
VERTEX
  5
140
  8
0
 62
   131
 10
0.58
 20
-0.22
 30
2.29
 70
   192
  0
VERTEX
  5
141
  8
0
 62
   131
 10
0.754
 20
0.05
 30
2.0790000000000002
 70
   192
  0
VERTEX
  5
142
  8
0
 62
   131
 10
0.754
 20
-0.22
 30
2.0790000000000002
 70
   192
  0
VERTEX
  5
143
  8
0
 62
   131
 10
0.7
 20
-0.22
 30
2.089999999999999
 70
   192
  0
VERTEX
  5
144
  8
0
 62
   131
 10
0.7
 20
-0.22
 30
2.1200000000000001
 70
   192
  0
VERTEX
  5
145
  8
0
 62
   131
 10
0.654
 20
0.05
 30
2.129
 70
   192
  0
VERTEX
  5
146
  8
0
 62
   131
 10
0.6150000000000001
 20
-0.22
 30
2.1549999999999989
 70
   192
  0
VERTEX
  5
147
  8
0
 62
   131
 10
0.654
 20
-0.22
 30
2.129
 70
   192
  0
VERTEX
  5
148
  8
0
 62
   131
 10
0.589
 20
-0.22
 30
2.1939999999999991
 70
   192
  0
VERTEX
  5
149
  8
0
 62
   131
 10
0.9
 20
-0.22
 30
2.29
 70
   192
  0
VERTEX
  5
14A
  8
0
 62
   131
 10
0.7
 20
0.05
 30
2.089999999999999
 70
   192
  0
VERTEX
  5
14B
  8
0
 62
   131
 10
0.7
 20
0.05
 30
2.1200000000000001
 70
   192
  0
VERTEX
  5
14C
  8
0
 62
   131
 10
0.6150000000000001
 20
0.05
 30
2.1549999999999989
 70
   192
  0
VERTEX
  5
14D
  8
0
 62
   131
 10
0.58
 20
-0.22
 30
2.2400000000000002
 70
   192
  0
VERTEX
  5
14E
  8
0
 62
   131
 10
0.58
 20
0.05
 30
2.2400000000000002
 70
   192
  0
VERTEX
  5
14F
  8
0
 62
   131
 10
0.589
 20
0.05
 30
2.1939999999999991
 70
   192
  0
VERTEX
  5
150
  8
0
 62
   131
 10
0.0
 20
-0.22
 30
2.1200000000000001
 70
   192
  0
VERTEX
  5
151
  8
0
 62
   131
 10
0.06
 20
-0.22
 30
1.95
 70
   192
  0
VERTEX
  5
152
  8
0
 62
   131
 10
0.0
 20
-0.22
 30
1.78
 70
   192
  0
VERTEX
  5
153
  8
0
 62
   131
 10
0.06
 20
0.05
 30
1.78
 70
   192
  0
VERTEX
  5
154
  8
0
 62
   131
 10
0.06
 20
-0.22
 30
1.78
 70
   192
  0
VERTEX
  5
155
  8
0
 62
   131
 10
0.06
 20
0.05
 30
1.95
 70
   192
  0
VERTEX
  5
156
  8
0
 62
   131
 10
0.0
 20
0.05
 30
1.78
 70
   192
  0
VERTEX
  5
157
  8
0
 62
   131
 10
0.071
 20
0.05
 30
2.004
 70
   192
  0
VERTEX
  5
158
  8
0
 62
   131
 10
0.071
 20
-0.22
 30
2.004
 70
   192
  0
VERTEX
  5
159
  8
0
 62
   131
 10
0.0
 20
-0.22
 30
1.95
 70
   192
  0
VERTEX
  5
15A
  8
0
 62
   131
 10
0.0
 20
0.05
 30
1.95
 70
   192
  0
VERTEX
  5
15B
  8
0
 62
   131
 10
0.101
 20
0.05
 30
2.048999999999999
 70
   192
  0
VERTEX
  5
15C
  8
0
 62
   131
 10
0.146
 20
-0.22
 30
2.0790000000000002
 70
   192
  0
VERTEX
  5
15D
  8
0
 62
   131
 10
0.101
 20
-0.22
 30
2.048999999999999
 70
   192
  0
VERTEX
  5
15E
  8
0
 62
   131
 10
0.2
 20
-0.22
 30
2.089999999999999
 70
   192
  0
VERTEX
  5
15F
  8
0
 62
   131
 10
0.2
 20
-0.22
 30
2.1200000000000001
 70
   192
  0
VERTEX
  5
160
  8
0
 62
   131
 10
0.32
 20
0.05
 30
2.29
 70
   192
  0
VERTEX
  5
161
  8
0
 62
   131
 10
0.0
 20
-0.22
 30
2.29
 70
   192
  0
VERTEX
  5
162
  8
0
 62
   131
 10
0.246
 20
0.05
 30
2.129
 70
   192
  0
VERTEX
  5
163
  8
0
 62
   131
 10
0.146
 20
0.05
 30
2.0790000000000002
 70
   192
  0
VERTEX
  5
164
  8
0
 62
   131
 10
0.2
 20
0.05
 30
2.089999999999999
 70
   192
  0
VERTEX
  5
165
  8
0
 62
   131
 10
0.246
 20
-0.22
 30
2.129
 70
   192
  0
VERTEX
  5
166
  8
0
 62
   131
 10
0.311
 20
0.05
 30
2.1939999999999991
 70
   192
  0
VERTEX
  5
167
  8
0
 62
   131
 10
0.285
 20
0.05
 30
2.1549999999999989
 70
   192
  0
VERTEX
  5
168
  8
0
 62
   131
 10
0.0
 20
0.05
 30
2.29
 70
   192
  0
VERTEX
  5
169
  8
0
 62
   131
 10
0.0
 20
0.05
 30
2.1200000000000001
 70
   192
  0
VERTEX
  5
16A
  8
0
 62
   131
 10
0.2
 20
0.05
 30
2.1200000000000001
 70
   192
  0
VERTEX
  5
16B
  8
0
 62
   131
 10
0.32
 20
0.05
 30
2.2400000000000002
 70
   192
  0
VERTEX
  5
16C
  8
0
 62
   131
 10
0.311
 20
-0.22
 30
2.1939999999999991
 70
   192
  0
VERTEX
  5
16D
  8
0
 62
   131
 10
0.285
 20
-0.22
 30
2.1549999999999989
 70
   192
  0
VERTEX
  5
16E
  8
0
 62
   131
 10
0.32
 20
-0.22
 30
2.2400000000000002
 70
   192
  0
VERTEX
  5
16F
  8
0
 62
   131
 10
0.32
 20
-0.22
 30
2.29
 70
   192
  0
VERTEX
  5
170
  8
0
 62
   131
 10
0.0
 20
0.0
 30
0.0
 70
   128
 71
     3
 72
     1
 73
     2
 74
     9
  0
VERTEX
  5
171
  8
0
 62
   131
 10
0.0
 20
0.0
 30
0.0
 70
   128
 71
     7
 72
     6
 73
     9
 74
     2
  0
VERTEX
  5
172
  8
0
 62
   131
 10
0.0
 20
0.0
 30
0.0
 70
   128
 71
     3
 72
     9
 73
    11
 74
    13
  0
VERTEX
  5
173
  8
0
 62
   131
 10
0.0
 20
0.0
 30
0.0
 70
   128
 71
     1
 72
     3
 73
    14
 74
     4
  0
VERTEX
  5
174
  8
0
 62
   131
 10
0.0
 20
0.0
 30
0.0
 70
   128
 71
     2
 72
     1
 73
     5
 74
    17
  0
VERTEX
  5
175
  8
0
 62
   131
 10
0.0
 20
0.0
 30
0.0
 70
   128
 71
     6
 72
     7
 73
     8
 74
    16
  0
VERTEX
  5
176
  8
0
 62
   131
 10
0.0
 20
0.0
 30
0.0
 70
   128
 71
    10
 72
     9
 73
     6
 74
    18
  0
VERTEX
  5
177
  8
0
 62
   131
 10
0.0
 20
0.0
 30
0.0
 70
   128
 71
     7
 72
     2
 73
    17
 74
     8
  0
VERTEX
  5
178
  8
0
 62
   131
 10
0.0
 20
0.0
 30
0.0
 70
   128
 71
     9
 72
    10
 73
    12
 74
    11
  0
VERTEX
  5
179
  8
0
 62
   131
 10
0.0
 20
0.0
 30
0.0
 70
   128
 71
    11
 72
    12
 73
    20
 74
    13
  0
VERTEX
  5
17A
  8
0
 62
   131
 10
0.0
 20
0.0
 30
0.0
 70
   128
 71
    27
 72
     3
 73
    13
 74
    20
  0
VERTEX
  5
17B
  8
0
 62
   131
 10
0.0
 20
0.0
 30
0.0
 70
   128
 71
     3
 72
    27
 73
    22
 74
    14
  0
VERTEX
  5
17C
  8
0
 62
   131
 10
0.0
 20
0.0
 30
0.0
 70
   128
 71
     4
 72
    14
 73
    29
 74
    15
  0
VERTEX
  5
17D
  8
0
 62
   131
 10
0.0
 20
0.0
 30
0.0
 70
   128
 71
     1
 72
     4
 73
    15
 74
     5
  0
VERTEX
  5
17E
  8
0
 62
   131
 10
0.0
 20
0.0
 30
0.0
 70
   128
 71
    25
 72
    17
 73
     5
 74
    23
  0
VERTEX
  5
17F
  8
0
 62
   131
 10
0.0
 20
0.0
 30
0.0
 70
   128
 71
    16
 72
     8
 73
    17
 74
    25
  0
VERTEX
  5
180
  8
0
 62
   131
 10
0.0
 20
0.0
 30
0.0
 70
   128
 71
    18
 72
     6
 73
    16
 74
    33
  0
VERTEX
  5
181
  8
0
 62
   131
 10
0.0
 20
0.0
 30
0.0
 70
   128
 71
    38
 72
    10
 73
    18
 74
    19
  0
VERTEX
  5
182
  8
0
 62
   131
 10
0.0
 20
0.0
 30
0.0
 70
   128
 71
    10
 72
    27
 73
    20
 74
    12
  0
VERTEX
  5
183
  8
0
 62
   131
 10
0.0
 20
0.0
 30
0.0
 70
   128
 71
    14
 72
    22
 73
    40
 74
    29
  0
VERTEX
  5
184
  8
0
 62
   131
 10
0.0
 20
0.0
 30
0.0
 70
   128
 71
    21
 72
    22
 73
    27
 74
    36
  0
VERTEX
  5
185
  8
0
 62
   131
 10
0.0
 20
0.0
 30
0.0
 70
   128
 71
    23
 72
     5
 73
    15
 74
    29
  0
VERTEX
  5
186
  8
0
 62
   131
 10
0.0
 20
0.0
 30
0.0
 70
   128
 71
    25
 72
    23
 73
    31
 74
    24
  0
VERTEX
  5
187
  8
0
 62
   131
 10
0.0
 20
0.0
 30
0.0
 70
   128
 71
    25
 72
    26
 73
    33
 74
    16
  0
VERTEX
  5
188
  8
0
 62
   131
 10
0.0
 20
0.0
 30
0.0
 70
   128
 71
    19
 72
    18
 73
    33
 74
    35
  0
VERTEX
  5
189
  8
0
 62
   131
 10
0.0
 20
0.0
 30
0.0
 70
   128
 71
    36
 72
    27
 73
    10
 74
    38
  0
VERTEX
  5
18A
  8
0
 62
   131
 10
0.0
 20
0.0
 30
0.0
 70
   128
 71
    39
 72
    38
 73
    19
 74
    34
  0
VERTEX
  5
18B
  8
0
 62
   131
 10
0.0
 20
0.0
 30
0.0
 70
   128
 71
    22
 72
    21
 73
    28
 74
    40
  0
VERTEX
  5
18C
  8
0
 62
   131
 10
0.0
 20
0.0
 30
0.0
 70
   128
 71
    29
 72
    40
 73
    45
 74
    23
  0
VERTEX
  5
18D
  8
0
 62
   131
 10
0.0
 20
0.0
 30
0.0
 70
   128
 71
    43
 72
    21
 73
    36
 74
    44
  0
VERTEX
  5
18E
  8
0
 62
   131
 10
0.0
 20
0.0
 30
0.0
 70
   128
 71
    23
 72
    45
 73
    30
 74
    31
  0
VERTEX
  5
18F
  8
0
 62
   131
 10
0.0
 20
0.0
 30
0.0
 70
   128
 71
    32
 72
    24
 73
    31
 74
    30
  0
VERTEX
  5
190
  8
0
 62
   131
 10
0.0
 20
0.0
 30
0.0
 70
   128
 71
    26
 72
    25
 73
    24
 74
    32
  0
VERTEX
  5
191
  8
0
 62
   131
 10
0.0
 20
0.0
 30
0.0
 70
   128
 71
    26
 72
    58
 73
    35
 74
    33
  0
VERTEX
  5
192
  8
0
 62
   131
 10
0.0
 20
0.0
 30
0.0
 70
   128
 71
    34
 72
    19
 73
    35
 74
    46
  0
VERTEX
  5
193
  8
0
 62
   131
 10
0.0
 20
0.0
 30
0.0
 70
   128
 71
    36
 72
    38
 73
    48
 74
    37
  0
VERTEX
  5
194
  8
0
 62
   131
 10
0.0
 20
0.0
 30
0.0
 70
   128
 71
    38
 72
    39
 73
    49
 74
    48
  0
VERTEX
  5
195
  8
0
 62
   131
 10
0.0
 20
0.0
 30
0.0
 70
   128
 71
    50
 72
    39
 73
    34
 74
    61
  0
VERTEX
  5
196
  8
0
 62
   131
 10
0.0
 20
0.0
 30
0.0
 70
   128
 71
    21
 72
    43
 73
    52
 74
    28
  0
VERTEX
  5
197
  8
0
 62
   131
 10
0.0
 20
0.0
 30
0.0
 70
   128
 71
    40
 72
    28
 73
    66
 74
    45
  0
VERTEX
  5
198
  8
0
 62
   131
 10
0.0
 20
0.0
 30
0.0
 70
   128
 71
    44
 72
    36
 73
    37
 74
    41
  0
VERTEX
  5
199
  8
0
 62
   131
 10
0.0
 20
0.0
 30
0.0
 70
   128
 71
    42
 72
    43
 73
    44
 74
    55
  0
VERTEX
  5
19A
  8
0
 62
   131
 10
0.0
 20
0.0
 30
0.0
 70
   128
 71
    45
 72
    26
 73
    32
 74
    30
  0
VERTEX
  5
19B
  8
0
 62
   131
 10
0.0
 20
0.0
 30
0.0
 70
   128
 71
    45
 72
    66
 73
    58
 74
    26
  0
VERTEX
  5
19C
  8
0
 62
   131
 10
0.0
 20
0.0
 30
0.0
 70
   128
 71
    58
 72
    71
 73
    46
 74
    35
  0
VERTEX
  5
19D
  8
0
 62
   131
 10
0.0
 20
0.0
 30
0.0
 70
   128
 71
    61
 72
    34
 73
    46
 74
    47
  0
VERTEX
  5
19E
  8
0
 62
   131
 10
0.0
 20
0.0
 30
0.0
 70
   128
 71
    48
 72
    49
 73
    41
 74
    37
  0
VERTEX
  5
19F
  8
0
 62
   131
 10
0.0
 20
0.0
 30
0.0
 70
   128
 71
    39
 72
    44
 73
    41
 74
    49
  0
VERTEX
  5
1A0
  8
0
 62
   131
 10
0.0
 20
0.0
 30
0.0
 70
   128
 71
    39
 72
    50
 73
    55
 74
    44
  0
VERTEX
  5
1A1
  8
0
 62
   131
 10
0.0
 20
0.0
 30
0.0
 70
   128
 71
    76
 72
    50
 73
    61
 74
    60
  0
VERTEX
  5
1A2
  8
0
 62
   131
 10
0.0
 20
0.0
 30
0.0
 70
   128
 71
    43
 72
    42
 73
    51
 74
    52
  0
VERTEX
  5
1A3
  8
0
 62
   131
 10
0.0
 20
0.0
 30
0.0
 70
   128
 71
    28
 72
    52
 73
    53
 74
    66
  0
VERTEX
  5
1A4
  8
0
 62
   131
 10
0.0
 20
0.0
 30
0.0
 70
   128
 71
    54
 72
    42
 73
    55
 74
    56
  0
VERTEX
  5
1A5
  8
0
 62
   131
 10
0.0
 20
0.0
 30
0.0
 70
   128
 71
    58
 72
    66
 73
    68
 74
    57
  0
VERTEX
  5
1A6
  8
0
 62
   131
 10
0.0
 20
0.0
 30
0.0
 70
   128
 71
    71
 72
    58
 73
    57
 74
    59
  0
VERTEX
  5
1A7
  8
0
 62
   131
 10
0.0
 20
0.0
 30
0.0
 70
   128
 71
    71
 72
    72
 73
    47
 74
    46
  0
VERTEX
  5
1A8
  8
0
 62
   131
 10
0.0
 20
0.0
 30
0.0
 70
   128
 71
    60
 72
    61
 73
    47
 74
    82
  0
VERTEX
  5
1A9
  8
0
 62
   131
 10
0.0
 20
0.0
 30
0.0
 70
   128
 71
    55
 72
    50
 73
    62
 74
    74
  0
VERTEX
  5
1AA
  8
0
 62
   131
 10
0.0
 20
0.0
 30
0.0
 70
   128
 71
    50
 72
    76
 73
    73
 74
    62
  0
VERTEX
  5
1AB
  8
0
 62
   131
 10
0.0
 20
0.0
 30
0.0
 70
   128
 71
    63
 72
    76
 73
    60
 74
    64
  0
VERTEX
  5
1AC
  8
0
 62
   131
 10
0.0
 20
0.0
 30
0.0
 70
   128
 71
    42
 72
    54
 73
    65
 74
    51
  0
VERTEX
  5
1AD
  8
0
 62
   131
 10
0.0
 20
0.0
 30
0.0
 70
   128
 71
    52
 72
    51
 73
    84
 74
    53
  0
VERTEX
  5
1AE
  8
0
 62
   131
 10
0.0
 20
0.0
 30
0.0
 70
   128
 71
    66
 72
    53
 73
    67
 74
    68
  0
VERTEX
  5
1AF
  8
0
 62
   131
 10
0.0
 20
0.0
 30
0.0
 70
   128
 71
    56
 72
    55
 73
    74
 74
    69
  0
VERTEX
  5
1B0
  8
0
 62
   131
 10
0.0
 20
0.0
 30
0.0
 70
   128
 71
    70
 72
    54
 73
    56
 74
    75
  0
VERTEX
  5
1B1
  8
0
 62
   131
 10
0.0
 20
0.0
 30
0.0
 70
   128
 71
    59
 72
    57
 73
    68
 74
    67
  0
VERTEX
  5
1B2
  8
0
 62
   131
 10
0.0
 20
0.0
 30
0.0
 70
   128
 71
    53
 72
    71
 73
    59
 74
    67
  0
VERTEX
  5
1B3
  8
0
 62
   131
 10
0.0
 20
0.0
 30
0.0
 70
   128
 71
    72
 72
    71
 73
    53
 74
    84
  0
VERTEX
  5
1B4
  8
0
 62
   131
 10
0.0
 20
0.0
 30
0.0
 70
   128
 71
    72
 72
    81
 73
    82
 74
    47
  0
VERTEX
  5
1B5
  8
0
 62
   131
 10
0.0
 20
0.0
 30
0.0
 70
   128
 71
    64
 72
    60
 73
    82
 74
    77
  0
VERTEX
  5
1B6
  8
0
 62
   131
 10
0.0
 20
0.0
 30
0.0
 70
   128
 71
    62
 72
    73
 73
    69
 74
    74
  0
VERTEX
  5
1B7
  8
0
 62
   131
 10
0.0
 20
0.0
 30
0.0
 70
   128
 71
    76
 72
    56
 73
    69
 74
    73
  0
VERTEX
  5
1B8
  8
0
 62
   131
 10
0.0
 20
0.0
 30
0.0
 70
   128
 71
    75
 72
    56
 73
    76
 74
    63
  0
VERTEX
  5
1B9
  8
0
 62
   131
 10
0.0
 20
0.0
 30
0.0
 70
   128
 71
    63
 72
    64
 73
    77
 74
    78
  0
VERTEX
  5
1BA
  8
0
 62
   131
 10
0.0
 20
0.0
 30
0.0
 70
   128
 71
    54
 72
    70
 73
    79
 74
    65
  0
VERTEX
  5
1BB
  8
0
 62
   131
 10
0.0
 20
0.0
 30
0.0
 70
   128
 71
    51
 72
    65
 73
    85
 74
    84
  0
VERTEX
  5
1BC
  8
0
 62
   131
 10
0.0
 20
0.0
 30
0.0
 70
   128
 71
    70
 72
    75
 73
    83
 74
    79
  0
VERTEX
  5
1BD
  8
0
 62
   131
 10
0.0
 20
0.0
 30
0.0
 70
   128
 71
    72
 72
    84
 73
    80
 74
    86
  0
VERTEX
  5
1BE
  8
0
 62
   131
 10
0.0
 20
0.0
 30
0.0
 70
   128
 71
    81
 72
    72
 73
    86
 74
    87
  0
VERTEX
  5
1BF
  8
0
 62
   131
 10
0.0
 20
0.0
 30
0.0
 70
   128
 71
    81
 72
    78
 73
    77
 74
    82
  0
VERTEX
  5
1C0
  8
0
 62
   131
 10
0.0
 20
0.0
 30
0.0
 70
   128
 71
    75
 72
    63
 73
    78
 74
    83
  0
VERTEX
  5
1C1
  8
0
 62
   131
 10
0.0
 20
0.0
 30
0.0
 70
   128
 71
    65
 72
    79
 73
    83
 74
    85
  0
VERTEX
  5
1C2
  8
0
 62
   131
 10
0.0
 20
0.0
 30
0.0
 70
   128
 71
    84
 72
    85
 73
    88
 74
    80
  0
VERTEX
  5
1C3
  8
0
 62
   131
 10
0.0
 20
0.0
 30
0.0
 70
   128
 71
    87
 72
    86
 73
    80
 74
    88
  0
VERTEX
  5
1C4
  8
0
 62
   131
 10
0.0
 20
0.0
 30
0.0
 70
   128
 71
    85
 72
    81
 73
    87
 74
    88
  0
VERTEX
  5
1C5
  8
0
 62
   131
 10
0.0
 20
0.0
 30
0.0
 70
   128
 71
    85
 72
    83
 73
    78
 74
    81
  0
VERTEX
  5
1C6
  8
0
 62
   131
 10
0.0
 20
0.0
 30
0.0
 70
   128
 71
    96
 72
    91
 73
    89
 74
    90
  0
VERTEX
  5
1C7
  8
0
 62
   131
 10
0.0
 20
0.0
 30
0.0
 70
   128
 71
    91
 72
    96
 73
    92
 74
    93
  0
VERTEX
  5
1C8
  8
0
 62
   131
 10
0.0
 20
0.0
 30
0.0
 70
   128
 71
    94
 72
    95
 73
    96
 74
    90
  0
VERTEX
  5
1C9
  8
0
 62
   131
 10
0.0
 20
0.0
 30
0.0
 70
   128
 71
    97
 72
   106
 73
    90
 74
    89
  0
VERTEX
  5
1CA
  8
0
 62
   131
 10
0.0
 20
0.0
 30
0.0
 70
   128
 71
   101
 72
   109
 73
    89
 74
    91
  0
VERTEX
  5
1CB
  8
0
 62
   131
 10
0.0
 20
0.0
 30
0.0
 70
   128
 71
    98
 72
    99
 73
    93
 74
    92
  0
VERTEX
  5
1CC
  8
0
 62
   131
 10
0.0
 20
0.0
 30
0.0
 70
   128
 71
   100
 72
    92
 73
    96
 74
   107
  0
VERTEX
  5
1CD
  8
0
 62
   131
 10
0.0
 20
0.0
 30
0.0
 70
   128
 71
    99
 72
   101
 73
    91
 74
    93
  0
VERTEX
  5
1CE
  8
0
 62
   131
 10
0.0
 20
0.0
 30
0.0
 70
   128
 71
    95
 72
   102
 73
   107
 74
    96
  0
VERTEX
  5
1CF
  8
0
 62
   131
 10
0.0
 20
0.0
 30
0.0
 70
   128
 71
    94
 72
   103
 73
   102
 74
    95
  0
VERTEX
  5
1D0
  8
0
 62
   131
 10
0.0
 20
0.0
 30
0.0
 70
   128
 71
   103
 72
    94
 73
    90
 74
   104
  0
VERTEX
  5
1D1
  8
0
 62
   131
 10
0.0
 20
0.0
 30
0.0
 70
   128
 71
   106
 72
   115
 73
   104
 74
    90
  0
VERTEX
  5
1D2
  8
0
 62
   131
 10
0.0
 20
0.0
 30
0.0
 70
   128
 71
   105
 72
   117
 73
   106
 74
    97
  0
VERTEX
  5
1D3
  8
0
 62
   131
 10
0.0
 20
0.0
 30
0.0
 70
   128
 71
   109
 72
   105
 73
    97
 74
    89
  0
VERTEX
  5
1D4
  8
0
 62
   131
 10
0.0
 20
0.0
 30
0.0
 70
   128
 71
   116
 72
   109
 73
   101
 74
   119
  0
VERTEX
  5
1D5
  8
0
 62
   131
 10
0.0
 20
0.0
 30
0.0
 70
   128
 71
   119
 72
   101
 73
    99
 74
    98
  0
VERTEX
  5
1D6
  8
0
 62
   131
 10
0.0
 20
0.0
 30
0.0
 70
   128
 71
   120
 72
    98
 73
    92
 74
   100
  0
VERTEX
  5
1D7
  8
0
 62
   131
 10
0.0
 20
0.0
 30
0.0
 70
   128
 71
   121
 72
   100
 73
   107
 74
   122
  0
VERTEX
  5
1D8
  8
0
 62
   131
 10
0.0
 20
0.0
 30
0.0
 70
   128
 71
   102
 72
   103
 73
   104
 74
   107
  0
VERTEX
  5
1D9
  8
0
 62
   131
 10
0.0
 20
0.0
 30
0.0
 70
   128
 71
   117
 72
   113
 73
   115
 74
   106
  0
VERTEX
  5
1DA
  8
0
 62
   131
 10
0.0
 20
0.0
 30
0.0
 70
   128
 71
   126
 72
   104
 73
   115
 74
   108
  0
VERTEX
  5
1DB
  8
0
 62
   131
 10
0.0
 20
0.0
 30
0.0
 70
   128
 71
   117
 72
   105
 73
   109
 74
   116
  0
VERTEX
  5
1DC
  8
0
 62
   131
 10
0.0
 20
0.0
 30
0.0
 70
   128
 71
   118
 72
   110
 73
   116
 74
   119
  0
VERTEX
  5
1DD
  8
0
 62
   131
 10
0.0
 20
0.0
 30
0.0
 70
   128
 71
    98
 72
   120
 73
   130
 74
   119
  0
VERTEX
  5
1DE
  8
0
 62
   131
 10
0.0
 20
0.0
 30
0.0
 70
   128
 71
   132
 72
   120
 73
   100
 74
   121
  0
VERTEX
  5
1DF
  8
0
 62
   131
 10
0.0
 20
0.0
 30
0.0
 70
   128
 71
   122
 72
   107
 73
   104
 74
   126
  0
VERTEX
  5
1E0
  8
0
 62
   131
 10
0.0
 20
0.0
 30
0.0
 70
   128
 71
   111
 72
   121
 73
   122
 74
   112
  0
VERTEX
  5
1E1
  8
0
 62
   131
 10
0.0
 20
0.0
 30
0.0
 70
   128
 71
   113
 72
   114
 73
   108
 74
   115
  0
VERTEX
  5
1E2
  8
0
 62
   131
 10
0.0
 20
0.0
 30
0.0
 70
   128
 71
   116
 72
   131
 73
   113
 74
   117
  0
VERTEX
  5
1E3
  8
0
 62
   131
 10
0.0
 20
0.0
 30
0.0
 70
   128
 71
   127
 72
   126
 73
   108
 74
   124
  0
VERTEX
  5
1E4
  8
0
 62
   131
 10
0.0
 20
0.0
 30
0.0
 70
   128
 71
   110
 72
   128
 73
   131
 74
   116
  0
VERTEX
  5
1E5
  8
0
 62
   131
 10
0.0
 20
0.0
 30
0.0
 70
   128
 71
   128
 72
   110
 73
   118
 74
   129
  0
VERTEX
  5
1E6
  8
0
 62
   131
 10
0.0
 20
0.0
 30
0.0
 70
   128
 71
   129
 72
   118
 73
   119
 74
   130
  0
VERTEX
  5
1E7
  8
0
 62
   131
 10
0.0
 20
0.0
 30
0.0
 70
   128
 71
   120
 72
   132
 73
   141
 74
   130
  0
VERTEX
  5
1E8
  8
0
 62
   131
 10
0.0
 20
0.0
 30
0.0
 70
   128
 71
   144
 72
   132
 73
   121
 74
   111
  0
VERTEX
  5
1E9
  8
0
 62
   131
 10
0.0
 20
0.0
 30
0.0
 70
   128
 71
   134
 72
   135
 73
   122
 74
   126
  0
VERTEX
  5
1EA
  8
0
 62
   131
 10
0.0
 20
0.0
 30
0.0
 70
   128
 71
   135
 72
   123
 73
   112
 74
   122
  0
VERTEX
  5
1EB
  8
0
 62
   131
 10
0.0
 20
0.0
 30
0.0
 70
   128
 71
   146
 72
   111
 73
   112
 74
   136
  0
VERTEX
  5
1EC
  8
0
 62
   131
 10
0.0
 20
0.0
 30
0.0
 70
   128
 71
   114
 72
   139
 73
   124
 74
   108
  0
VERTEX
  5
1ED
  8
0
 62
   131
 10
0.0
 20
0.0
 30
0.0
 70
   128
 71
   131
 72
   153
 73
   114
 74
   113
  0
VERTEX
  5
1EE
  8
0
 62
   131
 10
0.0
 20
0.0
 30
0.0
 70
   128
 71
   125
 72
   134
 73
   126
 74
   127
  0
VERTEX
  5
1EF
  8
0
 62
   131
 10
0.0
 20
0.0
 30
0.0
 70
   128
 71
   147
 72
   127
 73
   124
 74
   137
  0
VERTEX
  5
1F0
  8
0
 62
   131
 10
0.0
 20
0.0
 30
0.0
 70
   128
 71
   128
 72
   129
 73
   130
 74
   131
  0
VERTEX
  5
1F1
  8
0
 62
   131
 10
0.0
 20
0.0
 30
0.0
 70
   128
 71
   130
 72
   141
 73
   153
 74
   131
  0
VERTEX
  5
1F2
  8
0
 62
   131
 10
0.0
 20
0.0
 30
0.0
 70
   128
 71
   132
 72
   144
 73
   143
 74
   141
  0
VERTEX
  5
1F3
  8
0
 62
   131
 10
0.0
 20
0.0
 30
0.0
 70
   128
 71
   133
 72
   144
 73
   111
 74
   146
  0
VERTEX
  5
1F4
  8
0
 62
   131
 10
0.0
 20
0.0
 30
0.0
 70
   128
 71
   134
 72
   125
 73
   123
 74
   135
  0
VERTEX
  5
1F5
  8
0
 62
   131
 10
0.0
 20
0.0
 30
0.0
 70
   128
 71
   123
 72
   125
 73
   127
 74
   112
  0
VERTEX
  5
1F6
  8
0
 62
   131
 10
0.0
 20
0.0
 30
0.0
 70
   128
 71
   127
 72
   147
 73
   136
 74
   112
  0
VERTEX
  5
1F7
  8
0
 62
   131
 10
0.0
 20
0.0
 30
0.0
 70
   128
 71
   150
 72
   146
 73
   136
 74
   149
  0
VERTEX
  5
1F8
  8
0
 62
   131
 10
0.0
 20
0.0
 30
0.0
 70
   128
 71
   139
 72
   166
 73
   137
 74
   124
  0
VERTEX
  5
1F9
  8
0
 62
   131
 10
0.0
 20
0.0
 30
0.0
 70
   128
 71
   153
 72
   138
 73
   139
 74
   114
  0
VERTEX
  5
1FA
  8
0
 62
   131
 10
0.0
 20
0.0
 30
0.0
 70
   128
 71
   161
 72
   147
 73
   137
 74
   140
  0
VERTEX
  5
1FB
  8
0
 62
   131
 10
0.0
 20
0.0
 30
0.0
 70
   128
 71
   142
 72
   152
 73
   153
 74
   141
  0
VERTEX
  5
1FC
  8
0
 62
   131
 10
0.0
 20
0.0
 30
0.0
 70
   128
 71
   155
 72
   142
 73
   141
 74
   143
  0
VERTEX
  5
1FD
  8
0
 62
   131
 10
0.0
 20
0.0
 30
0.0
 70
   128
 71
   144
 72
   133
 73
   156
 74
   143
  0
VERTEX
  5
1FE
  8
0
 62
   131
 10
0.0
 20
0.0
 30
0.0
 70
   128
 71
   145
 72
   133
 73
   146
 74
   150
  0
VERTEX
  5
1FF
  8
0
 62
   131
 10
0.0
 20
0.0
 30
0.0
 70
   128
 71
   158
 72
   148
 73
   136
 74
   147
  0
VERTEX
  5
200
  8
0
 62
   131
 10
0.0
 20
0.0
 30
0.0
 70
   128
 71
   148
 72
   160
 73
   149
 74
   136
  0
VERTEX
  5
201
  8
0
 62
   131
 10
0.0
 20
0.0
 30
0.0
 70
   128
 71
   157
 72
   150
 73
   149
 74
   162
  0
VERTEX
  5
202
  8
0
 62
   131
 10
0.0
 20
0.0
 30
0.0
 70
   128
 71
   166
 72
   171
 73
   140
 74
   137
  0
VERTEX
  5
203
  8
0
 62
   131
 10
0.0
 20
0.0
 30
0.0
 70
   128
 71
   138
 72
   151
 73
   166
 74
   139
  0
VERTEX
  5
204
  8
0
 62
   131
 10
0.0
 20
0.0
 30
0.0
 70
   128
 71
   152
 72
   154
 73
   138
 74
   153
  0
VERTEX
  5
205
  8
0
 62
   131
 10
0.0
 20
0.0
 30
0.0
 70
   128
 71
   159
 72
   158
 73
   147
 74
   161
  0
VERTEX
  5
206
  8
0
 62
   131
 10
0.0
 20
0.0
 30
0.0
 70
   128
 71
   167
 72
   161
 73
   140
 74
   164
  0
VERTEX
  5
207
  8
0
 62
   131
 10
0.0
 20
0.0
 30
0.0
 70
   128
 71
   154
 72
   152
 73
   142
 74
   155
  0
VERTEX
  5
208
  8
0
 62
   131
 10
0.0
 20
0.0
 30
0.0
 70
   128
 71
   154
 72
   155
 73
   143
 74
   138
  0
VERTEX
  5
209
  8
0
 62
   131
 10
0.0
 20
0.0
 30
0.0
 70
   128
 71
   151
 72
   138
 73
   143
 74
   156
  0
VERTEX
  5
20A
  8
0
 62
   131
 10
0.0
 20
0.0
 30
0.0
 70
   128
 71
   133
 72
   145
 73
   176
 74
   156
  0
VERTEX
  5
20B
  8
0
 62
   131
 10
0.0
 20
0.0
 30
0.0
 70
   128
 71
   168
 72
   145
 73
   150
 74
   157
  0
VERTEX
  5
20C
  8
0
 62
   131
 10
0.0
 20
0.0
 30
0.0
 70
   128
 71
   158
 72
   159
 73
   160
 74
   148
  0
VERTEX
  5
20D
  8
0
 62
   131
 10
0.0
 20
0.0
 30
0.0
 70
   128
 71
   160
 72
   159
 73
   161
 74
   149
  0
VERTEX
  5
20E
  8
0
 62
   131
 10
0.0
 20
0.0
 30
0.0
 70
   128
 71
   162
 72
   149
 73
   161
 74
   167
  0
VERTEX
  5
20F
  8
0
 62
   131
 10
0.0
 20
0.0
 30
0.0
 70
   128
 71
   169
 72
   168
 73
   157
 74
   162
  0
VERTEX
  5
210
  8
0
 62
   131
 10
0.0
 20
0.0
 30
0.0
 70
   128
 71
   171
 72
   163
 73
   164
 74
   140
  0
VERTEX
  5
211
  8
0
 62
   131
 10
0.0
 20
0.0
 30
0.0
 70
   128
 71
   151
 72
   165
 73
   171
 74
   166
  0
VERTEX
  5
212
  8
0
 62
   131
 10
0.0
 20
0.0
 30
0.0
 70
   128
 71
   163
 72
   170
 73
   167
 74
   164
  0
VERTEX
  5
213
  8
0
 62
   131
 10
0.0
 20
0.0
 30
0.0
 70
   128
 71
   174
 72
   172
 73
   151
 74
   156
  0
VERTEX
  5
214
  8
0
 62
   131
 10
0.0
 20
0.0
 30
0.0
 70
   128
 71
   175
 72
   174
 73
   156
 74
   176
  0
VERTEX
  5
215
  8
0
 62
   131
 10
0.0
 20
0.0
 30
0.0
 70
   128
 71
   145
 72
   168
 73
   169
 74
   176
  0
VERTEX
  5
216
  8
0
 62
   131
 10
0.0
 20
0.0
 30
0.0
 70
   128
 71
   170
 72
   169
 73
   162
 74
   167
  0
VERTEX
  5
217
  8
0
 62
   131
 10
0.0
 20
0.0
 30
0.0
 70
   128
 71
   165
 72
   170
 73
   163
 74
   171
  0
VERTEX
  5
218
  8
0
 62
   131
 10
0.0
 20
0.0
 30
0.0
 70
   128
 71
   172
 72
   173
 73
   165
 74
   151
  0
VERTEX
  5
219
  8
0
 62
   131
 10
0.0
 20
0.0
 30
0.0
 70
   128
 71
   173
 72
   172
 73
   174
 74
   175
  0
VERTEX
  5
21A
  8
0
 62
   131
 10
0.0
 20
0.0
 30
0.0
 70
   128
 71
   173
 72
   175
 73
   176
 74
   165
  0
VERTEX
  5
21B
  8
0
 62
   131
 10
0.0
 20
0.0
 30
0.0
 70
   128
 71
   176
 72
   169
 73
   170
 74
   165
  0
VERTEX
  5
21C
  8
0
 62
   131
 10
0.0
 20
0.0
 30
0.0
 70
   128
 71
   182
 72
   177
 73
   180
 74
   178
  0
VERTEX
  5
21D
  8
0
 62
   131
 10
0.0
 20
0.0
 30
0.0
 70
   128
 71
   184
 72
   179
 73
   178
 74
   180
  0
VERTEX
  5
21E
  8
0
 62
   131
 10
0.0
 20
0.0
 30
0.0
 70
   128
 71
   177
 72
   186
 73
   181
 74
   180
  0
VERTEX
  5
21F
  8
0
 62
   131
 10
0.0
 20
0.0
 30
0.0
 70
   128
 71
   177
 72
   182
 73
   183
 74
   187
  0
VERTEX
  5
220
  8
0
 62
   131
 10
0.0
 20
0.0
 30
0.0
 70
   128
 71
   179
 72
   183
 73
   182
 74
   178
  0
VERTEX
  5
221
  8
0
 62
   131
 10
0.0
 20
0.0
 30
0.0
 70
   128
 71
   179
 72
   184
 73
   187
 74
   183
  0
VERTEX
  5
222
  8
0
 62
   131
 10
0.0
 20
0.0
 30
0.0
 70
   128
 71
   189
 72
   184
 73
   180
 74
   181
  0
VERTEX
  5
223
  8
0
 62
   131
 10
0.0
 20
0.0
 30
0.0
 70
   128
 71
   186
 72
   185
 73
   181
  0
VERTEX
  5
224
  8
0
 62
   131
 10
0.0
 20
0.0
 30
0.0
 70
   128
 71
   186
 72
   177
 73
   187
 74
   191
  0
VERTEX
  5
225
  8
0
 62
   131
 10
0.0
 20
0.0
 30
0.0
 70
   128
 71
   184
 72
   189
 73
   191
 74
   187
  0
VERTEX
  5
226
  8
0
 62
   131
 10
0.0
 20
0.0
 30
0.0
 70
   128
 71
   188
 72
   189
 73
   181
 74
   185
  0
VERTEX
  5
227
  8
0
 62
   131
 10
0.0
 20
0.0
 30
0.0
 70
   128
 71
   186
 72
   195
 73
   185
  0
VERTEX
  5
228
  8
0
 62
   131
 10
0.0
 20
0.0
 30
0.0
 70
   128
 71
   191
 72
   190
 73
   202
 74
   186
  0
VERTEX
  5
229
  8
0
 62
   131
 10
0.0
 20
0.0
 30
0.0
 70
   128
 71
   191
 72
   189
 73
   188
  0
VERTEX
  5
22A
  8
0
 62
   131
 10
0.0
 20
0.0
 30
0.0
 70
   128
 71
   194
 72
   188
 73
   185
 74
   195
  0
VERTEX
  5
22B
  8
0
 62
   131
 10
0.0
 20
0.0
 30
0.0
 70
   128
 71
   196
 72
   195
 73
   186
 74
   197
  0
VERTEX
  5
22C
  8
0
 62
   131
 10
0.0
 20
0.0
 30
0.0
 70
   128
 71
   186
 72
   202
 73
   200
 74
   197
  0
VERTEX
  5
22D
  8
0
 62
   131
 10
0.0
 20
0.0
 30
0.0
 70
   128
 71
   202
 72
   190
 73
   192
 74
   193
  0
VERTEX
  5
22E
  8
0
 62
   131
 10
0.0
 20
0.0
 30
0.0
 70
   128
 71
   204
 72
   198
 73
   190
 74
   191
  0
VERTEX
  5
22F
  8
0
 62
   131
 10
0.0
 20
0.0
 30
0.0
 70
   128
 71
   191
 72
   188
 73
   194
  0
VERTEX
  5
230
  8
0
 62
   131
 10
0.0
 20
0.0
 30
0.0
 70
   128
 71
   203
 72
   194
 73
   195
 74
   196
  0
VERTEX
  5
231
  8
0
 62
   131
 10
0.0
 20
0.0
 30
0.0
 70
   128
 71
   204
 72
   203
 73
   196
 74
   197
  0
VERTEX
  5
232
  8
0
 62
   131
 10
0.0
 20
0.0
 30
0.0
 70
   128
 71
   198
 72
   204
 73
   197
 74
   200
  0
VERTEX
  5
233
  8
0
 62
   131
 10
0.0
 20
0.0
 30
0.0
 70
   128
 71
   202
 72
   199
 73
   200
  0
VERTEX
  5
234
  8
0
 62
   131
 10
0.0
 20
0.0
 30
0.0
 70
   128
 71
   190
 72
   208
 73
   207
 74
   192
  0
VERTEX
  5
235
  8
0
 62
   131
 10
0.0
 20
0.0
 30
0.0
 70
   128
 71
   202
 72
   193
 73
   206
 74
   201
  0
VERTEX
  5
236
  8
0
 62
   131
 10
0.0
 20
0.0
 30
0.0
 70
   128
 71
   205
 72
   190
 73
   198
  0
VERTEX
  5
237
  8
0
 62
   131
 10
0.0
 20
0.0
 30
0.0
 70
   128
 71
   204
 72
   191
 73
   194
 74
   203
  0
VERTEX
  5
238
  8
0
 62
   131
 10
0.0
 20
0.0
 30
0.0
 70
   128
 71
   205
 72
   198
 73
   200
 74
   199
  0
VERTEX
  5
239
  8
0
 62
   131
 10
0.0
 20
0.0
 30
0.0
 70
   128
 71
   202
 72
   201
 73
   199
  0
VERTEX
  5
23A
  8
0
 62
   131
 10
0.0
 20
0.0
 30
0.0
 70
   128
 71
   207
 72
   208
 73
   201
 74
   206
  0
VERTEX
  5
23B
  8
0
 62
   131
 10
0.0
 20
0.0
 30
0.0
 70
   128
 71
   208
 72
   190
 73
   205
  0
VERTEX
  5
23C
  8
0
 62
   131
 10
0.0
 20
0.0
 30
0.0
 70
   128
 71
   208
 72
   205
 73
   199
 74
   201
  0
VERTEX
  5
23D
  8
0
 62
   131
 10
0.0
 20
0.0
 30
0.0
 70
   128
 71
   213
 72
   210
 73
   218
 74
   211
  0
VERTEX
  5
23E
  8
0
 62
   131
 10
0.0
 20
0.0
 30
0.0
 70
   128
 71
   210
 72
   213
 73
   212
 74
   214
  0
VERTEX
  5
23F
  8
0
 62
   131
 10
0.0
 20
0.0
 30
0.0
 70
   128
 71
   210
 72
   217
 73
   209
 74
   218
  0
VERTEX
  5
240
  8
0
 62
   131
 10
0.0
 20
0.0
 30
0.0
 70
   128
 71
   211
 72
   218
 73
   219
 74
   215
  0
VERTEX
  5
241
  8
0
 62
   131
 10
0.0
 20
0.0
 30
0.0
 70
   128
 71
   213
 72
   211
 73
   215
 74
   212
  0
VERTEX
  5
242
  8
0
 62
   131
 10
0.0
 20
0.0
 30
0.0
 70
   128
 71
   215
 72
   219
 73
   214
 74
   212
  0
VERTEX
  5
243
  8
0
 62
   131
 10
0.0
 20
0.0
 30
0.0
 70
   128
 71
   217
 72
   210
 73
   214
 74
   216
  0
VERTEX
  5
244
  8
0
 62
   131
 10
0.0
 20
0.0
 30
0.0
 70
   128
 71
   217
 72
   222
 73
   209
  0
VERTEX
  5
245
  8
0
 62
   131
 10
0.0
 20
0.0
 30
0.0
 70
   128
 71
   234
 72
   219
 73
   218
 74
   209
  0
VERTEX
  5
246
  8
0
 62
   131
 10
0.0
 20
0.0
 30
0.0
 70
   128
 71
   219
 72
   234
 73
   216
 74
   214
  0
VERTEX
  5
247
  8
0
 62
   131
 10
0.0
 20
0.0
 30
0.0
 70
   128
 71
   222
 72
   217
 73
   216
 74
   220
  0
VERTEX
  5
248
  8
0
 62
   131
 10
0.0
 20
0.0
 30
0.0
 70
   128
 71
   222
 72
   221
 73
   209
  0
VERTEX
  5
249
  8
0
 62
   131
 10
0.0
 20
0.0
 30
0.0
 70
   128
 71
   209
 72
   226
 73
   233
 74
   234
  0
VERTEX
  5
24A
  8
0
 62
   131
 10
0.0
 20
0.0
 30
0.0
 70
   128
 71
   220
 72
   216
 73
   234
  0
VERTEX
  5
24B
  8
0
 62
   131
 10
0.0
 20
0.0
 30
0.0
 70
   128
 71
   221
 72
   222
 73
   220
 74
   228
  0
VERTEX
  5
24C
  8
0
 62
   131
 10
0.0
 20
0.0
 30
0.0
 70
   128
 71
   224
 72
   209
 73
   221
 74
   223
  0
VERTEX
  5
24D
  8
0
 62
   131
 10
0.0
 20
0.0
 30
0.0
 70
   128
 71
   224
 72
   230
 73
   226
 74
   209
  0
VERTEX
  5
24E
  8
0
 62
   131
 10
0.0
 20
0.0
 30
0.0
 70
   128
 71
   240
 72
   225
 73
   233
 74
   226
  0
VERTEX
  5
24F
  8
0
 62
   131
 10
0.0
 20
0.0
 30
0.0
 70
   128
 71
   234
 72
   233
 73
   227
 74
   235
  0
VERTEX
  5
250
  8
0
 62
   131
 10
0.0
 20
0.0
 30
0.0
 70
   128
 71
   228
 72
   220
 73
   234
  0
VERTEX
  5
251
  8
0
 62
   131
 10
0.0
 20
0.0
 30
0.0
 70
   128
 71
   223
 72
   221
 73
   228
 74
   229
  0
VERTEX
  5
252
  8
0
 62
   131
 10
0.0
 20
0.0
 30
0.0
 70
   128
 71
   224
 72
   223
 73
   229
 74
   235
  0
VERTEX
  5
253
  8
0
 62
   131
 10
0.0
 20
0.0
 30
0.0
 70
   128
 71
   230
 72
   224
 73
   235
 74
   227
  0
VERTEX
  5
254
  8
0
 62
   131
 10
0.0
 20
0.0
 30
0.0
 70
   128
 71
   230
 72
   238
 73
   226
  0
VERTEX
  5
255
  8
0
 62
   131
 10
0.0
 20
0.0
 30
0.0
 70
   128
 71
   225
 72
   236
 73
   231
 74
   233
  0
VERTEX
  5
256
  8
0
 62
   131
 10
0.0
 20
0.0
 30
0.0
 70
   128
 71
   237
 72
   239
 73
   240
 74
   226
  0
VERTEX
  5
257
  8
0
 62
   131
 10
0.0
 20
0.0
 30
0.0
 70
   128
 71
   227
 72
   233
 73
   232
  0
VERTEX
  5
258
  8
0
 62
   131
 10
0.0
 20
0.0
 30
0.0
 70
   128
 71
   229
 72
   228
 73
   234
 74
   235
  0
VERTEX
  5
259
  8
0
 62
   131
 10
0.0
 20
0.0
 30
0.0
 70
   128
 71
   238
 72
   230
 73
   227
 74
   232
  0
VERTEX
  5
25A
  8
0
 62
   131
 10
0.0
 20
0.0
 30
0.0
 70
   128
 71
   238
 72
   237
 73
   226
  0
VERTEX
  5
25B
  8
0
 62
   131
 10
0.0
 20
0.0
 30
0.0
 70
   128
 71
   239
 72
   237
 73
   231
 74
   236
  0
VERTEX
  5
25C
  8
0
 62
   131
 10
0.0
 20
0.0
 30
0.0
 70
   128
 71
   232
 72
   233
 73
   231
  0
VERTEX
  5
25D
  8
0
 62
   131
 10
0.0
 20
0.0
 30
0.0
 70
   128
 71
   237
 72
   238
 73
   232
 74
   231
  0
VERTEX
  5
25E
  8
0
 62
   131
 10
0.0
 20
0.0
 30
0.0
 70
   128
 71
   239
 72
   236
 73
   207
 74
   206
  0
VERTEX
  5
25F
  8
0
 62
   131
 10
0.0
 20
0.0
 30
0.0
 70
   128
 71
   236
 72
   225
 73
   192
 74
   207
  0
VERTEX
  5
260
  8
0
 62
   131
 10
0.0
 20
0.0
 30
0.0
 70
   128
 71
   240
 72
   239
 73
   206
 74
   193
  0
VERTEX
  5
261
  8
0
 62
   131
 10
0.0
 20
0.0
 30
0.0
 70
   128
 71
   225
 72
   240
 73
   193
 74
   192
  0
SEQEND
  5
262
  8
0
 62
   131
  0
ENDSEC
  0
EOF
