 0
SECTION
 2
HEADER
 9
$ACADVER
 1
AC1009
 9
$INSBASE
 10
0.0
 20
0.0
 30
0.0
 9
$EXTMIN
 10
0.0
 20
0.0
 30
0.0
 9
$EXTMAX
 10
0.0
 20
0.0
 30
0.0
 0
ENDSEC
 0
SECTION
 2
TABLES
 0
TABLE
 2
VPORT
 70
1
 0
VPORT
 2
*ACTIVE
 70
0
 10
0.0
 20
0.0
 11
1.0
 21
1.0
 12
-5.0
 22
1.0
 13
0.0
 23
0.0
 14
0.1
 24
0.1
 15
0.1
 25
0.1
 16
0.0
 26
0.0
 36
1.0
 17
0.0
 27
0.0
 37
0.0
 40
10.0
 41
1.0
 42
50.0
 43
0.0
 44
0.0
 50
0.0
 51
0.0
 71
0
 72
100
 73
1
 74
1
 75
0
 76
0
 77
0
 78
0
 0
ENDTAB
 0
TABLE
 2
LTYPE
 70
8
 0
LTYPE
 2
CONTINUOUS
 70
0
 3
Solid line
 72
65
 73
0
 40
0.0
 0
LTYPE
 2
DOT
 70
0
 3
. . . . . . .
 72
65
 73
2
 40
0.25
 49
0.0
 49
-0.25
 0
LTYPE
 2
DASHED
 70
0
 3
__ __ __ __ __
 72
65
 73
2
 40
0.8
 49
0.5
 49
-0.3
 0
LTYPE
 2
DASHDOT
 70
0
 3
__ . __ . __ .
 72
65
 73
4
 40
1.0
 49
0.5
 49
-0.25
 49
0.0
 49
-0.25
 0
LTYPE
 2
DIVIDE
 70
0
 3
____ . . ____ . . 
 72
65
 73
6
 40
1.25
 49
0.5
 49
-0.25
 49
0.0
 49
-0.25
 49
0.0
 49
-0.25
 0
LTYPE
 2
BORDER
 70
0
 3
__ __ . __ __ . 
 72
65
 73
6
 40
1.75
 49
0.5
 49
-0.25
 49
0.5
 49
-0.25
 49
0.0
 49
-0.25
 0
LTYPE
 2
HIDDEN
 70
0
 3
__ __ __ __ __
 72
65
 73
2
 40
0.4
 49
0.25
 49
-0.25
 0
LTYPE
 2
CENTER
 70
0
 3
____ _ ____ _ __
 72
65
 73
4
 40
2.0
 49
1.25
 49
-0.25
 49
0.25
 49
-0.25
 0
ENDTAB
 0
TABLE
 2
LAYER
 70
1
 0
LAYER
 2
PYDXF
 70
64
 62
7
 6
continuous
 0
ENDTAB
 0
TABLE
 2
STYLE
 70
1
 0
STYLE
 2
STANDARD
 70
0
 40
0
 41
1.0
 50
0.0
 71
0
 42
1
 3
ARIAL.TTF
 4

 0
ENDTAB
 0
TABLE
 2
VIEW
 70
1
 0
VIEW
 2
BF_TOPVIEW
 70
0
 40
120.0
 10
0.0
 20
0.0
 41
200.0
 11
0.0
 21
0.0
 31
1.0
 12
0.0
 22
0.0
 32
0.0
 42
50.0
 43
0.0
 44
0.0
 50
0.0
 71
0
 0
ENDTAB
 0
ENDSEC
 0
SECTION
 2
BLOCKS
 0
ENDSEC
 0
SECTION
 2
ENTITIES
 0
POLYLINE
 8
0
 70
64
 66
1
 10
0.0
 20
0.0
 30
0.0
 71
65
 72
70
 0
VERTEX
 8
0
 10
2.4
 20
-0.22
 30
1.95
 70
192
 0
VERTEX
 8
0
 10
2.34
 20
-0.22
 30
1.78
 70
192
 0
VERTEX
 8
0
 10
2.34
 20
0.05
 30
1.78
 70
192
 0
VERTEX
 8
0
 10
2.34
 20
-0.22
 30
1.95
 70
192
 0
VERTEX
 8
0
 10
2.329
 20
-0.22
 30
2.004
 70
192
 0
VERTEX
 8
0
 10
2.4
 20
-0.22
 30
1.78
 70
192
 0
VERTEX
 8
0
 10
2.4
 20
0.05
 30
1.78
 70
192
 0
VERTEX
 8
0
 10
2.34
 20
0.05
 30
1.95
 70
192
 0
VERTEX
 8
0
 10
2.299
 20
-0.22
 30
2.049
 70
192
 0
VERTEX
 8
0
 10
2.4
 20
-0.22
 30
2.12
 70
192
 0
VERTEX
 8
0
 10
2.4
 20
0.05
 30
1.95
 70
192
 0
VERTEX
 8
0
 10
2.299
 20
0.05
 30
2.049
 70
192
 0
VERTEX
 8
0
 10
2.329
 20
0.05
 30
2.004
 70
192
 0
VERTEX
 8
0
 10
2.4
 20
0.05
 30
2.29
 70
192
 0
VERTEX
 8
0
 10
2.4
 20
0.05
 30
2.12
 70
192
 0
VERTEX
 8
0
 10
2.08
 20
0.05
 30
2.29
 70
192
 0
VERTEX
 8
0
 10
2.08
 20
-0.22
 30
2.29
 70
192
 0
VERTEX
 8
0
 10
2.254
 20
0.05
 30
2.079
 70
192
 0
VERTEX
 8
0
 10
2.254
 20
-0.22
 30
2.079
 70
192
 0
VERTEX
 8
0
 10
2.2
 20
-0.22
 30
2.09
 70
192
 0
VERTEX
 8
0
 10
2.2
 20
-0.22
 30
2.12
 70
192
 0
VERTEX
 8
0
 10
2.154
 20
0.05
 30
2.129
 70
192
 0
VERTEX
 8
0
 10
2.115
 20
-0.22
 30
2.155
 70
192
 0
VERTEX
 8
0
 10
2.154
 20
-0.22
 30
2.129
 70
192
 0
VERTEX
 8
0
 10
2.089
 20
-0.22
 30
2.194
 70
192
 0
VERTEX
 8
0
 10
2.4
 20
-0.22
 30
2.29
 70
192
 0
VERTEX
 8
0
 10
2.2
 20
0.05
 30
2.09
 70
192
 0
VERTEX
 8
0
 10
2.2
 20
0.05
 30
2.12
 70
192
 0
VERTEX
 8
0
 10
2.115
 20
0.05
 30
2.155
 70
192
 0
VERTEX
 8
0
 10
2.08
 20
-0.22
 30
2.24
 70
192
 0
VERTEX
 8
0
 10
2.08
 20
0.05
 30
2.24
 70
192
 0
VERTEX
 8
0
 10
2.089
 20
0.05
 30
2.194
 70
192
 0
VERTEX
 8
0
 10
0.0
 20
-0.22
 30
2.12
 70
192
 0
VERTEX
 8
0
 10
0.06
 20
-0.22
 30
1.95
 70
192
 0
VERTEX
 8
0
 10
0.0
 20
-0.22
 30
1.78
 70
192
 0
VERTEX
 8
0
 10
0.06
 20
0.05
 30
1.78
 70
192
 0
VERTEX
 8
0
 10
0.06
 20
-0.22
 30
1.78
 70
192
 0
VERTEX
 8
0
 10
0.06
 20
0.05
 30
1.95
 70
192
 0
VERTEX
 8
0
 10
0.0
 20
0.05
 30
1.78
 70
192
 0
VERTEX
 8
0
 10
0.071
 20
0.05
 30
2.004
 70
192
 0
VERTEX
 8
0
 10
0.071
 20
-0.22
 30
2.004
 70
192
 0
VERTEX
 8
0
 10
0.0
 20
-0.22
 30
1.95
 70
192
 0
VERTEX
 8
0
 10
0.0
 20
0.05
 30
1.95
 70
192
 0
VERTEX
 8
0
 10
0.101
 20
0.05
 30
2.049
 70
192
 0
VERTEX
 8
0
 10
0.146
 20
-0.22
 30
2.079
 70
192
 0
VERTEX
 8
0
 10
0.101
 20
-0.22
 30
2.049
 70
192
 0
VERTEX
 8
0
 10
0.2
 20
-0.22
 30
2.09
 70
192
 0
VERTEX
 8
0
 10
0.2
 20
-0.22
 30
2.12
 70
192
 0
VERTEX
 8
0
 10
0.32
 20
0.05
 30
2.29
 70
192
 0
VERTEX
 8
0
 10
0.0
 20
-0.22
 30
2.29
 70
192
 0
VERTEX
 8
0
 10
0.246
 20
0.05
 30
2.129
 70
192
 0
VERTEX
 8
0
 10
0.146
 20
0.05
 30
2.079
 70
192
 0
VERTEX
 8
0
 10
0.2
 20
0.05
 30
2.09
 70
192
 0
VERTEX
 8
0
 10
0.246
 20
-0.22
 30
2.129
 70
192
 0
VERTEX
 8
0
 10
0.311
 20
0.05
 30
2.194
 70
192
 0
VERTEX
 8
0
 10
0.285
 20
0.05
 30
2.155
 70
192
 0
VERTEX
 8
0
 10
0.0
 20
0.05
 30
2.29
 70
192
 0
VERTEX
 8
0
 10
0.0
 20
0.05
 30
2.12
 70
192
 0
VERTEX
 8
0
 10
0.2
 20
0.05
 30
2.12
 70
192
 0
VERTEX
 8
0
 10
0.32
 20
0.05
 30
2.24
 70
192
 0
VERTEX
 8
0
 10
0.311
 20
-0.22
 30
2.194
 70
192
 0
VERTEX
 8
0
 10
0.285
 20
-0.22
 30
2.155
 70
192
 0
VERTEX
 8
0
 10
0.32
 20
-0.22
 30
2.24
 70
192
 0
VERTEX
 8
0
 10
0.32
 20
-0.22
 30
2.29
 70
192
 0
VERTEX
 8
0
 10
0.0
 20
0.0
 30
0.0
 70
192
 0
VERTEX
 8
0
 10
0.0
 20
0.0
 30
0.0
 70
128
 71
6
 72
1
 73
4
 74
2
 0
VERTEX
 8
0
 10
0.0
 20
0.0
 30
0.0
 70
128
 71
8
 72
3
 73
2
 74
4
 0
VERTEX
 8
0
 10
0.0
 20
0.0
 30
0.0
 70
128
 71
1
 72
10
 73
5
 74
4
 0
VERTEX
 8
0
 10
0.0
 20
0.0
 30
0.0
 70
128
 71
1
 72
6
 73
7
 74
11
 0
VERTEX
 8
0
 10
0.0
 20
0.0
 30
0.0
 70
128
 71
3
 72
7
 73
6
 74
2
 0
VERTEX
 8
0
 10
0.0
 20
0.0
 30
0.0
 70
128
 71
3
 72
8
 73
11
 74
7
 0
VERTEX
 8
0
 10
0.0
 20
0.0
 30
0.0
 70
128
 71
13
 72
8
 73
4
 74
5
 0
VERTEX
 8
0
 10
0.0
 20
0.0
 30
0.0
 70
128
 71
10
 72
9
 73
5
 0
VERTEX
 8
0
 10
0.0
 20
0.0
 30
0.0
 70
128
 71
10
 72
1
 73
11
 74
15
 0
VERTEX
 8
0
 10
0.0
 20
0.0
 30
0.0
 70
128
 71
8
 72
13
 73
15
 74
11
 0
VERTEX
 8
0
 10
0.0
 20
0.0
 30
0.0
 70
128
 71
12
 72
13
 73
5
 74
9
 0
VERTEX
 8
0
 10
0.0
 20
0.0
 30
0.0
 70
128
 71
10
 72
19
 73
9
 0
VERTEX
 8
0
 10
0.0
 20
0.0
 30
0.0
 70
128
 71
15
 72
14
 73
26
 74
10
 0
VERTEX
 8
0
 10
0.0
 20
0.0
 30
0.0
 70
128
 71
15
 72
13
 73
12
 0
VERTEX
 8
0
 10
0.0
 20
0.0
 30
0.0
 70
128
 71
18
 72
12
 73
9
 74
19
 0
VERTEX
 8
0
 10
0.0
 20
0.0
 30
0.0
 70
128
 71
20
 72
19
 73
10
 74
21
 0
VERTEX
 8
0
 10
0.0
 20
0.0
 30
0.0
 70
128
 71
10
 72
26
 73
24
 74
21
 0
VERTEX
 8
0
 10
0.0
 20
0.0
 30
0.0
 70
128
 71
26
 72
14
 73
16
 74
17
 0
VERTEX
 8
0
 10
0.0
 20
0.0
 30
0.0
 70
128
 71
28
 72
22
 73
14
 74
15
 0
VERTEX
 8
0
 10
0.0
 20
0.0
 30
0.0
 70
128
 71
15
 72
12
 73
18
 0
VERTEX
 8
0
 10
0.0
 20
0.0
 30
0.0
 70
128
 71
27
 72
18
 73
19
 74
20
 0
VERTEX
 8
0
 10
0.0
 20
0.0
 30
0.0
 70
128
 71
28
 72
27
 73
20
 74
21
 0
VERTEX
 8
0
 10
0.0
 20
0.0
 30
0.0
 70
128
 71
22
 72
28
 73
21
 74
24
 0
VERTEX
 8
0
 10
0.0
 20
0.0
 30
0.0
 70
128
 71
26
 72
23
 73
24
 0
VERTEX
 8
0
 10
0.0
 20
0.0
 30
0.0
 70
128
 71
14
 72
32
 73
31
 74
16
 0
VERTEX
 8
0
 10
0.0
 20
0.0
 30
0.0
 70
128
 71
26
 72
17
 73
30
 74
25
 0
VERTEX
 8
0
 10
0.0
 20
0.0
 30
0.0
 70
128
 71
29
 72
14
 73
22
 0
VERTEX
 8
0
 10
0.0
 20
0.0
 30
0.0
 70
128
 71
28
 72
15
 73
18
 74
27
 0
VERTEX
 8
0
 10
0.0
 20
0.0
 30
0.0
 70
128
 71
29
 72
22
 73
24
 74
23
 0
VERTEX
 8
0
 10
0.0
 20
0.0
 30
0.0
 70
128
 71
26
 72
25
 73
23
 0
VERTEX
 8
0
 10
0.0
 20
0.0
 30
0.0
 70
128
 71
31
 72
32
 73
25
 74
30
 0
VERTEX
 8
0
 10
0.0
 20
0.0
 30
0.0
 70
128
 71
32
 72
14
 73
29
 0
VERTEX
 8
0
 10
0.0
 20
0.0
 30
0.0
 70
128
 71
32
 72
29
 73
23
 74
25
 0
VERTEX
 8
0
 10
0.0
 20
0.0
 30
0.0
 70
128
 71
37
 72
34
 73
42
 74
35
 0
VERTEX
 8
0
 10
0.0
 20
0.0
 30
0.0
 70
128
 71
34
 72
37
 73
36
 74
38
 0
VERTEX
 8
0
 10
0.0
 20
0.0
 30
0.0
 70
128
 71
34
 72
41
 73
33
 74
42
 0
VERTEX
 8
0
 10
0.0
 20
0.0
 30
0.0
 70
128
 71
35
 72
42
 73
43
 74
39
 0
VERTEX
 8
0
 10
0.0
 20
0.0
 30
0.0
 70
128
 71
37
 72
35
 73
39
 74
36
 0
VERTEX
 8
0
 10
0.0
 20
0.0
 30
0.0
 70
128
 71
39
 72
43
 73
38
 74
36
 0
VERTEX
 8
0
 10
0.0
 20
0.0
 30
0.0
 70
128
 71
41
 72
34
 73
38
 74
40
 0
VERTEX
 8
0
 10
0.0
 20
0.0
 30
0.0
 70
128
 71
41
 72
46
 73
33
 0
VERTEX
 8
0
 10
0.0
 20
0.0
 30
0.0
 70
128
 71
58
 72
43
 73
42
 74
33
 0
VERTEX
 8
0
 10
0.0
 20
0.0
 30
0.0
 70
128
 71
43
 72
58
 73
40
 74
38
 0
VERTEX
 8
0
 10
0.0
 20
0.0
 30
0.0
 70
128
 71
46
 72
41
 73
40
 74
44
 0
VERTEX
 8
0
 10
0.0
 20
0.0
 30
0.0
 70
128
 71
46
 72
45
 73
33
 0
VERTEX
 8
0
 10
0.0
 20
0.0
 30
0.0
 70
128
 71
33
 72
50
 73
57
 74
58
 0
VERTEX
 8
0
 10
0.0
 20
0.0
 30
0.0
 70
128
 71
44
 72
40
 73
58
 0
VERTEX
 8
0
 10
0.0
 20
0.0
 30
0.0
 70
128
 71
45
 72
46
 73
44
 74
52
 0
VERTEX
 8
0
 10
0.0
 20
0.0
 30
0.0
 70
128
 71
48
 72
33
 73
45
 74
47
 0
VERTEX
 8
0
 10
0.0
 20
0.0
 30
0.0
 70
128
 71
48
 72
54
 73
50
 74
33
 0
VERTEX
 8
0
 10
0.0
 20
0.0
 30
0.0
 70
128
 71
64
 72
49
 73
57
 74
50
 0
VERTEX
 8
0
 10
0.0
 20
0.0
 30
0.0
 70
128
 71
58
 72
57
 73
51
 74
59
 0
VERTEX
 8
0
 10
0.0
 20
0.0
 30
0.0
 70
128
 71
52
 72
44
 73
58
 0
VERTEX
 8
0
 10
0.0
 20
0.0
 30
0.0
 70
128
 71
47
 72
45
 73
52
 74
53
 0
VERTEX
 8
0
 10
0.0
 20
0.0
 30
0.0
 70
128
 71
48
 72
47
 73
53
 74
59
 0
VERTEX
 8
0
 10
0.0
 20
0.0
 30
0.0
 70
128
 71
54
 72
48
 73
59
 74
51
 0
VERTEX
 8
0
 10
0.0
 20
0.0
 30
0.0
 70
128
 71
54
 72
62
 73
50
 0
VERTEX
 8
0
 10
0.0
 20
0.0
 30
0.0
 70
128
 71
49
 72
60
 73
55
 74
57
 0
VERTEX
 8
0
 10
0.0
 20
0.0
 30
0.0
 70
128
 71
61
 72
63
 73
64
 74
50
 0
VERTEX
 8
0
 10
0.0
 20
0.0
 30
0.0
 70
128
 71
51
 72
57
 73
56
 0
VERTEX
 8
0
 10
0.0
 20
0.0
 30
0.0
 70
128
 71
53
 72
52
 73
58
 74
59
 0
VERTEX
 8
0
 10
0.0
 20
0.0
 30
0.0
 70
128
 71
62
 72
54
 73
51
 74
56
 0
VERTEX
 8
0
 10
0.0
 20
0.0
 30
0.0
 70
128
 71
62
 72
61
 73
50
 0
VERTEX
 8
0
 10
0.0
 20
0.0
 30
0.0
 70
128
 71
63
 72
61
 73
55
 74
60
 0
VERTEX
 8
0
 10
0.0
 20
0.0
 30
0.0
 70
128
 71
56
 72
57
 73
55
 0
VERTEX
 8
0
 10
0.0
 20
0.0
 30
0.0
 70
128
 71
61
 72
62
 73
56
 74
55
 0
VERTEX
 8
0
 10
0.0
 20
0.0
 30
0.0
 70
128
 71
63
 72
60
 73
31
 74
30
 0
VERTEX
 8
0
 10
0.0
 20
0.0
 30
0.0
 70
128
 71
60
 72
49
 73
16
 74
31
 0
VERTEX
 8
0
 10
0.0
 20
0.0
 30
0.0
 70
128
 71
64
 72
63
 73
30
 74
17
 0
VERTEX
 8
0
 10
0.0
 20
0.0
 30
0.0
 70
128
 71
49
 72
64
 73
17
 74
16
 0
SEQEND
 8
0
 0
ENDSEC
 0
EOF
