 0
SECTION
 2
HEADER
 9
$ACADVER
 1
AC1009
 9
$INSBASE
 10
0.0
 20
0.0
 30
0.0
 9
$EXTMIN
 10
-0.21
 20
-0.447
 30
0.0000001937866188
 9
$EXTMAX
 10
1.429999999999999
 20
0.08
 30
3.2272739410400382
 9
$LIMMIN
 10
0.0
 20
0.0
 9
$LIMMAX
 10
12.0
 20
9.0
 9
$ORTHOMODE
 70
0
 9
$REGENMODE
 70
1
 9
$FILLMODE
 70
1
 9
$QTEXTMODE
 70
0
 9
$MIRRTEXT
 70
0
 9
$DRAGMODE
 70
2
 9
$LTSCALE
 40
1.0
 9
$OSMODE
 70
43
 9
$ATTMODE
 70
1
 9
$TEXTSIZE
 40
1.0
 9
$TRACEWID
 40
0.05
 9
$TEXTSTYLE
 7
STANDARD
 9
$CLAYER
 8
0
 9
$CELTYPE
 6
CONTINUOUS
 9
$CECOLOR
 62
256
 9
$DIMSCALE
 40
1.0
 9
$DIMASZ
 40
0.18
 9
$DIMEXO
 40
0.0625
 9
$DIMDLI
 40
0.38
 9
$DIMRND
 40
0.0
 9
$DIMDLE
 40
0.0
 9
$DIMEXE
 40
0.18
 9
$DIMTP
 40
0.0
 9
$DIMTM
 40
0.0
 9
$DIMTXT
 40
0.18
 9
$DIMCEN
 40
0.09
 9
$DIMTSZ
 40
0.0
 9
$DIMTOL
 70
0
 9
$DIMLIM
 70
0
 9
$DIMTIH
 70
1
 9
$DIMTOH
 70
1
 9
$DIMSE1
 70
0
 9
$DIMSE2
 70
0
 9
$DIMTAD
 70
0
 9
$DIMZIN
 70
0
 9
$DIMBLK
 1

 9
$DIMASO
 70
1
 9
$DIMSHO
 70
1
 9
$DIMPOST
 1

 9
$DIMAPOST
 1

 9
$DIMALT
 70
0
 9
$DIMALTD
 70
2
 9
$DIMALTF
 40
25.3999999999999986
 9
$DIMLFAC
 40
1.0
 9
$DIMTOFL
 70
0
 9
$DIMTVP
 40
0.0
 9
$DIMTIX
 70
0
 9
$DIMSOXD
 70
0
 9
$DIMSAH
 70
0
 9
$DIMBLK1
 1

 9
$DIMBLK2
 1

 9
$DIMSTYLE
 2
STANDARD
 9
$DIMCLRD
 70
0
 9
$DIMCLRE
 70
0
 9
$DIMCLRT
 70
0
 9
$DIMTFAC
 40
1.0
 9
$DIMGAP
 40
0.09
 9
$LUNITS
 70
2
 9
$LUPREC
 70
4
 9
$SKETCHINC
 40
0.1
 9
$FILLETRAD
 40
0.0
 9
$AUNITS
 70
0
 9
$AUPREC
 70
0
 9
$MENU
 1
.
 9
$ELEVATION
 40
0.0
 9
$PELEVATION
 40
0.0
 9
$THICKNESS
 40
0.0
 9
$LIMCHECK
 70
0
 9
$BLIPMODE
 70
0
 9
$CHAMFERA
 40
0.0
 9
$CHAMFERB
 40
0.0
 9
$SKPOLY
 70
0
 9
$TDCREATE
 40
2458904.5879861111752689
 9
$TDUPDATE
 40
2458904.5890046302229166
 9
$TDINDWG
 40
0.0010185185
 9
$TDUSRTIMER
 40
0.0010185185
 9
$USRTIMER
 70
1
 9
$ANGBASE
 50
0.0
 9
$ANGDIR
 70
0
 9
$PDMODE
 70
0
 9
$PDSIZE
 40
0.0
 9
$PLINEWID
 40
0.0
 9
$COORDS
 70
1
 9
$SPLFRAME
 70
0
 9
$SPLINETYPE
 70
6
 9
$SPLINESEGS
 70
8
 9
$ATTDIA
 70
0
 9
$ATTREQ
 70
1
 9
$HANDLING
 70
1
 9
$HANDSEED
 5
5CE
 9
$SURFTAB1
 70
6
 9
$SURFTAB2
 70
6
 9
$SURFTYPE
 70
6
 9
$SURFU
 70
6
 9
$SURFV
 70
6
 9
$UCSNAME
 2

 9
$UCSORG
 10
0.0
 20
0.0
 30
0.0
 9
$UCSXDIR
 10
1.0
 20
0.0
 30
0.0
 9
$UCSYDIR
 10
0.0
 20
1.0
 30
0.0
 9
$PUCSNAME
 2

 9
$PUCSORG
 10
0.0
 20
0.0
 30
0.0
 9
$PUCSXDIR
 10
1.0
 20
0.0
 30
0.0
 9
$PUCSYDIR
 10
0.0
 20
1.0
 30
0.0
 9
$USERI1
 70
0
 9
$USERI2
 70
0
 9
$USERI3
 70
0
 9
$USERI4
 70
0
 9
$USERI5
 70
0
 9
$USERR1
 40
0.0
 9
$USERR2
 40
0.0
 9
$USERR3
 40
0.0
 9
$USERR4
 40
0.0
 9
$USERR5
 40
0.0
 9
$WORLDVIEW
 70
1
 9
$SHADEDGE
 70
3
 9
$SHADEDIF
 70
70
 9
$TILEMODE
 70
1
 9
$MAXACTVP
 70
64
 9
$PLIMCHECK
 70
0
 9
$PEXTMIN
 10
1.0000000000000000E+20
 20
1.0000000000000000E+20
 30
1.0000000000000000E+20
 9
$PEXTMAX
 10
-1.0000000000000000E+20
 20
-1.0000000000000000E+20
 30
-1.0000000000000000E+20
 9
$PLIMMIN
 10
0.0
 20
0.0
 9
$PLIMMAX
 10
12.0
 20
9.0
 9
$UNITMODE
 70
0
 9
$VISRETAIN
 70
1
 9
$PLINEGEN
 70
0
 9
$PSLTSCALE
 70
1
 0
ENDSEC
 0
SECTION
 2
ENTITIES
 0
POLYLINE
 5
7F
 8
0
 62
131
 66
1
 10
0.0
 20
0.0
 30
0.0
 70
64
 71
632
 72
635
 0
VERTEX
 5
80
 8
0
 62
131
 10
0.102
 20
0.03
 30
2.282
 70
192
 0
VERTEX
 5
81
 8
0
 62
131
 10
1.118
 20
0.03
 30
2.282
 70
192
 0
VERTEX
 5
82
 8
0
 62
131
 10
0.102
 20
0.03
 30
2.302
 70
192
 0
VERTEX
 5
83
 8
0
 62
131
 10
0.102
 20
0.08
 30
2.352
 70
192
 0
VERTEX
 5
84
 8
0
 62
131
 10
0.102
 20
0.08
 30
2.332
 70
192
 0
VERTEX
 5
85
 8
0
 62
131
 10
1.118
 20
0.08
 30
2.332
 70
192
 0
VERTEX
 5
86
 8
0
 62
131
 10
1.118
 20
0.03
 30
2.302
 70
192
 0
VERTEX
 5
87
 8
0
 62
131
 10
1.118
 20
0.08
 30
2.352
 70
192
 0
VERTEX
 5
88
 8
0
 62
131
 10
0.608
 20
0.08
 30
2.158
 70
192
 0
VERTEX
 5
89
 8
0
 62
131
 10
0.608
 20
0.03
 30
2.158
 70
192
 0
VERTEX
 5
8A
 8
0
 62
131
 10
0.042
 20
0.03
 30
2.158
 70
192
 0
VERTEX
 5
8B
 8
0
 62
131
 10
0.518
 20
0.03
 30
2.038
 70
192
 0
VERTEX
 5
8C
 8
0
 62
131
 10
0.162
 20
0.03
 30
2.038
 70
192
 0
VERTEX
 5
8D
 8
0
 62
131
 10
0.042
 20
0.08
 30
2.158
 70
192
 0
VERTEX
 5
8E
 8
0
 62
131
 10
0.162
 20
0.08
 30
2.038
 70
192
 0
VERTEX
 5
8F
 8
0
 62
131
 10
0.182
 20
0.06
 30
2.018
 70
192
 0
VERTEX
 5
90
 8
0
 62
131
 10
0.503
 20
0.06
 30
2.018
 70
192
 0
VERTEX
 5
91
 8
0
 62
131
 10
0.608
 20
0.08
 30
1.11
 70
192
 0
VERTEX
 5
92
 8
0
 62
131
 10
0.518
 20
0.08
 30
1.11
 70
192
 0
VERTEX
 5
93
 8
0
 62
131
 10
0.608
 20
0.03
 30
1.01
 70
192
 0
VERTEX
 5
94
 8
0
 62
131
 10
0.518
 20
0.03
 30
1.11
 70
192
 0
VERTEX
 5
95
 8
0
 62
131
 10
0.608
 20
0.03
 30
1.11
 70
192
 0
VERTEX
 5
96
 8
0
 62
131
 10
0.162
 20
0.03
 30
1.11
 70
192
 0
VERTEX
 5
97
 8
0
 62
131
 10
0.042
 20
0.03
 30
1.11
 70
192
 0
VERTEX
 5
98
 8
0
 62
131
 10
0.042
 20
0.03
 30
1.01
 70
192
 0
VERTEX
 5
99
 8
0
 62
131
 10
0.162
 20
0.08
 30
1.11
 70
192
 0
VERTEX
 5
9A
 8
0
 62
131
 10
0.518
 20
0.08
 30
2.038
 70
192
 0
VERTEX
 5
9B
 8
0
 62
131
 10
0.503
 20
0.06
 30
1.13
 70
192
 0
VERTEX
 5
9C
 8
0
 62
131
 10
0.608
 20
0.08
 30
1.01
 70
192
 0
VERTEX
 5
9D
 8
0
 62
131
 10
0.042
 20
0.08
 30
1.11
 70
192
 0
VERTEX
 5
9E
 8
0
 62
131
 10
0.042
 20
0.08
 30
1.01
 70
192
 0
VERTEX
 5
9F
 8
0
 62
131
 10
0.608
 20
0.03
 30
0.77
 70
192
 0
VERTEX
 5
A0
 8
0
 62
131
 10
0.503
 20
0.05
 30
2.018
 70
192
 0
VERTEX
 5
A1
 8
0
 62
131
 10
0.182
 20
0.05
 30
1.13
 70
192
 0
VERTEX
 5
A2
 8
0
 62
131
 10
0.182
 20
0.05
 30
2.018
 70
192
 0
VERTEX
 5
A3
 8
0
 62
131
 10
0.162
 20
0.03
 30
1.01
 70
192
 0
VERTEX
 5
A4
 8
0
 62
131
 10
0.042
 20
0.03
 30
0.77
 70
192
 0
VERTEX
 5
A5
 8
0
 62
131
 10
0.182
 20
0.06
 30
1.13
 70
192
 0
VERTEX
 5
A6
 8
0
 62
131
 10
0.042
 20
0.08
 30
0.77
 70
192
 0
VERTEX
 5
A7
 8
0
 62
131
 10
0.518
 20
0.03
 30
0.77
 70
192
 0
VERTEX
 5
A8
 8
0
 62
131
 10
0.503
 20
0.05
 30
1.13
 70
192
 0
VERTEX
 5
A9
 8
0
 62
131
 10
0.162
 20
0.03
 30
0.77
 70
192
 0
VERTEX
 5
AA
 8
0
 62
131
 10
0.042
 20
0.03
 30
0.67
 70
192
 0
VERTEX
 5
AB
 8
0
 62
131
 10
0.518
 20
0.08
 30
1.01
 70
192
 0
VERTEX
 5
AC
 8
0
 62
131
 10
0.162
 20
0.08
 30
1.01
 70
192
 0
VERTEX
 5
AD
 8
0
 62
131
 10
0.182
 20
0.06
 30
0.99
 70
192
 0
VERTEX
 5
AE
 8
0
 62
131
 10
0.503
 20
0.06
 30
0.79
 70
192
 0
VERTEX
 5
AF
 8
0
 62
131
 10
0.608
 20
0.08
 30
0.77
 70
192
 0
VERTEX
 5
B0
 8
0
 62
131
 10
0.608
 20
0.08
 30
0.67
 70
192
 0
VERTEX
 5
B1
 8
0
 62
131
 10
0.162
 20
0.08
 30
0.67
 70
192
 0
VERTEX
 5
B2
 8
0
 62
131
 10
0.042
 20
0.08
 30
0.67
 70
192
 0
VERTEX
 5
B3
 8
0
 62
131
 10
0.182
 20
0.06
 30
0.79
 70
192
 0
VERTEX
 5
B4
 8
0
 62
131
 10
0.608
 20
0.03
 30
0.
 70
192
 0
VERTEX
 5
B5
 8
0
 62
131
 10
0.608
 20
0.03
 30
0.67
 70
192
 0
VERTEX
 5
B6
 8
0
 62
131
 10
0.518
 20
0.03
 30
1.01
 70
192
 0
VERTEX
 5
B7
 8
0
 62
131
 10
0.503
 20
0.05
 30
0.99
 70
192
 0
VERTEX
 5
B8
 8
0
 62
131
 10
0.503
 20
0.06
 30
0.99
 70
192
 0
VERTEX
 5
B9
 8
0
 62
131
 10
0.162
 20
0.08
 30
0.77
 70
192
 0
VERTEX
 5
BA
 8
0
 62
131
 10
0.518
 20
0.08
 30
0.67
 70
192
 0
VERTEX
 5
BB
 8
0
 62
131
 10
0.518
 20
0.08
 30
0.77
 70
192
 0
VERTEX
 5
BC
 8
0
 62
131
 10
0.518
 20
0.08
 30
0.17
 70
192
 0
VERTEX
 5
BD
 8
0
 62
131
 10
0.518
 20
0.03
 30
0.17
 70
192
 0
VERTEX
 5
BE
 8
0
 62
131
 10
0.608
 20
0.08
 30
0.
 70
192
 0
VERTEX
 5
BF
 8
0
 62
131
 10
0.042
 20
0.03
 30
0.
 70
192
 0
VERTEX
 5
C0
 8
0
 62
131
 10
0.503
 20
0.05
 30
0.79
 70
192
 0
VERTEX
 5
C1
 8
0
 62
131
 10
0.182
 20
0.05
 30
0.99
 70
192
 0
VERTEX
 5
C2
 8
0
 62
131
 10
0.182
 20
0.05
 30
0.79
 70
192
 0
VERTEX
 5
C3
 8
0
 62
131
 10
0.202
 20
0.05
 30
0.81
 70
192
 0
VERTEX
 5
C4
 8
0
 62
131
 10
0.162
 20
0.03
 30
0.17
 70
192
 0
VERTEX
 5
C5
 8
0
 62
131
 10
0.503
 20
0.06
 30
0.65
 70
192
 0
VERTEX
 5
C6
 8
0
 62
131
 10
0.162
 20
0.08
 30
0.17
 70
192
 0
VERTEX
 5
C7
 8
0
 62
131
 10
0.042
 20
0.08
 30
0.
 70
192
 0
VERTEX
 5
C8
 8
0
 62
131
 10
0.182
 20
0.06
 30
0.65
 70
192
 0
VERTEX
 5
C9
 8
0
 62
131
 10
0.503
 20
0.05
 30
0.19
 70
192
 0
VERTEX
 5
CA
 8
0
 62
131
 10
0.503
 20
0.05
 30
0.65
 70
192
 0
VERTEX
 5
CB
 8
0
 62
131
 10
0.518
 20
0.03
 30
0.67
 70
192
 0
VERTEX
 5
CC
 8
0
 62
131
 10
0.162
 20
0.03
 30
0.67
 70
192
 0
VERTEX
 5
CD
 8
0
 62
131
 10
0.483
 20
0.05
 30
0.97
 70
192
 0
VERTEX
 5
CE
 8
0
 62
131
 10
0.202
 20
0.05
 30
0.97
 70
192
 0
VERTEX
 5
CF
 8
0
 62
131
 10
0.202
 20
0.04
 30
0.97
 70
192
 0
VERTEX
 5
D0
 8
0
 62
131
 10
0.182
 20
0.05
 30
0.19
 70
192
 0
VERTEX
 5
D1
 8
0
 62
131
 10
0.503
 20
0.06
 30
0.19
 70
192
 0
VERTEX
 5
D2
 8
0
 62
131
 10
0.182
 20
0.06
 30
0.19
 70
192
 0
VERTEX
 5
D3
 8
0
 62
131
 10
0.182
 20
0.05
 30
0.65
 70
192
 0
VERTEX
 5
D4
 8
0
 62
131
 10
0.483
 20
0.05
 30
0.81
 70
192
 0
VERTEX
 5
D5
 8
0
 62
131
 10
0.483
 20
0.04
 30
0.81
 70
192
 0
VERTEX
 5
D6
 8
0
 62
131
 10
0.483
 20
0.04
 30
0.97
 70
192
 0
VERTEX
 5
D7
 8
0
 62
131
 10
0.282
 20
0.01
 30
0.89
 70
192
 0
VERTEX
 5
D8
 8
0
 62
131
 10
0.403
 20
0.01
 30
0.89
 70
192
 0
VERTEX
 5
D9
 8
0
 62
131
 10
0.202
 20
0.04
 30
0.81
 70
192
 0
VERTEX
 5
DA
 8
0
 62
131
 10
1.178
 20
0.08
 30
2.158
 70
192
 0
VERTEX
 5
DB
 8
0
 62
131
 10
1.058
 20
0.08
 30
2.038
 70
192
 0
VERTEX
 5
DC
 8
0
 62
131
 10
0.702
 20
0.08
 30
2.038
 70
192
 0
VERTEX
 5
DD
 8
0
 62
131
 10
0.612
 20
0.03
 30
1.11
 70
192
 0
VERTEX
 5
DE
 8
0
 62
131
 10
0.612
 20
0.03
 30
2.158
 70
192
 0
VERTEX
 5
DF
 8
0
 62
131
 10
0.612
 20
0.08
 30
2.158
 70
192
 0
VERTEX
 5
E0
 8
0
 62
131
 10
0.702
 20
0.03
 30
2.038
 70
192
 0
VERTEX
 5
E1
 8
0
 62
131
 10
1.178
 20
0.08
 30
1.11
 70
192
 0
VERTEX
 5
E2
 8
0
 62
131
 10
1.178
 20
0.03
 30
2.158
 70
192
 0
VERTEX
 5
E3
 8
0
 62
131
 10
0.612
 20
0.08
 30
1.11
 70
192
 0
VERTEX
 5
E4
 8
0
 62
131
 10
0.612
 20
0.03
 30
1.01
 70
192
 0
VERTEX
 5
E5
 8
0
 62
131
 10
0.612
 20
0.08
 30
1.01
 70
192
 0
VERTEX
 5
E6
 8
0
 62
131
 10
1.038
 20
0.05
 30
2.018
 70
192
 0
VERTEX
 5
E7
 8
0
 62
131
 10
0.717
 20
0.05
 30
2.018
 70
192
 0
VERTEX
 5
E8
 8
0
 62
131
 10
1.178
 20
0.03
 30
1.11
 70
192
 0
VERTEX
 5
E9
 8
0
 62
131
 10
1.058
 20
0.08
 30
1.11
 70
192
 0
VERTEX
 5
EA
 8
0
 62
131
 10
1.038
 20
0.06
 30
1.13
 70
192
 0
VERTEX
 5
EB
 8
0
 62
131
 10
1.038
 20
0.06
 30
2.018
 70
192
 0
VERTEX
 5
EC
 8
0
 62
131
 10
0.717
 20
0.06
 30
2.018
 70
192
 0
VERTEX
 5
ED
 8
0
 62
131
 10
0.702
 20
0.08
 30
1.11
 70
192
 0
VERTEX
 5
EE
 8
0
 62
131
 10
0.612
 20
0.03
 30
0.77
 70
192
 0
VERTEX
 5
EF
 8
0
 62
131
 10
0.702
 20
0.03
 30
1.01
 70
192
 0
VERTEX
 5
F0
 8
0
 62
131
 10
0.702
 20
0.03
 30
1.11
 70
192
 0
VERTEX
 5
F1
 8
0
 62
131
 10
1.058
 20
0.03
 30
2.038
 70
192
 0
VERTEX
 5
F2
 8
0
 62
131
 10
1.178
 20
0.03
 30
1.01
 70
192
 0
VERTEX
 5
F3
 8
0
 62
131
 10
1.178
 20
0.03
 30
0.77
 70
192
 0
VERTEX
 5
F4
 8
0
 62
131
 10
0.717
 20
0.06
 30
1.13
 70
192
 0
VERTEX
 5
F5
 8
0
 62
131
 10
0.612
 20
0.08
 30
0.77
 70
192
 0
VERTEX
 5
F6
 8
0
 62
131
 10
1.178
 20
0.08
 30
1.01
 70
192
 0
VERTEX
 5
F7
 8
0
 62
131
 10
0.717
 20
0.05
 30
1.13
 70
192
 0
VERTEX
 5
F8
 8
0
 62
131
 10
1.038
 20
0.05
 30
1.13
 70
192
 0
VERTEX
 5
F9
 8
0
 62
131
 10
1.058
 20
0.03
 30
1.11
 70
192
 0
VERTEX
 5
FA
 8
0
 62
131
 10
1.178
 20
0.03
 30
0.67
 70
192
 0
VERTEX
 5
FB
 8
0
 62
131
 10
1.178
 20
0.08
 30
0.67
 70
192
 0
VERTEX
 5
FC
 8
0
 62
131
 10
1.058
 20
0.08
 30
1.01
 70
192
 0
VERTEX
 5
FD
 8
0
 62
131
 10
0.717
 20
0.06
 30
0.99
 70
192
 0
VERTEX
 5
FE
 8
0
 62
131
 10
0.702
 20
0.08
 30
1.01
 70
192
 0
VERTEX
 5
FF
 8
0
 62
131
 10
0.612
 20
0.08
 30
0.67
 70
192
 0
VERTEX
 5
100
 8
0
 62
131
 10
0.702
 20
0.08
 30
0.67
 70
192
 0
VERTEX
 5
101
 8
0
 62
131
 10
1.178
 20
0.08
 30
0.77
 70
192
 0
VERTEX
 5
102
 8
0
 62
131
 10
1.058
 20
0.08
 30
0.77
 70
192
 0
VERTEX
 5
103
 8
0
 62
131
 10
1.038
 20
0.06
 30
0.99
 70
192
 0
VERTEX
 5
104
 8
0
 62
131
 10
0.612
 20
0.03
 30
0.
 70
192
 0
VERTEX
 5
105
 8
0
 62
131
 10
0.612
 20
0.03
 30
0.67
 70
192
 0
VERTEX
 5
106
 8
0
 62
131
 10
0.717
 20
0.05
 30
0.99
 70
192
 0
VERTEX
 5
107
 8
0
 62
131
 10
1.058
 20
0.03
 30
1.01
 70
192
 0
VERTEX
 5
108
 8
0
 62
131
 10
1.058
 20
0.03
 30
0.77
 70
192
 0
VERTEX
 5
109
 8
0
 62
131
 10
1.038
 20
0.05
 30
0.99
 70
192
 0
VERTEX
 5
10A
 8
0
 62
131
 10
1.178
 20
0.03
 30
0.
 70
192
 0
VERTEX
 5
10B
 8
0
 62
131
 10
1.178
 20
0.08
 30
0.
 70
192
 0
VERTEX
 5
10C
 8
0
 62
131
 10
0.717
 20
0.06
 30
0.79
 70
192
 0
VERTEX
 5
10D
 8
0
 62
131
 10
1.038
 20
0.06
 30
0.79
 70
192
 0
VERTEX
 5
10E
 8
0
 62
131
 10
0.702
 20
0.08
 30
0.77
 70
192
 0
VERTEX
 5
10F
 8
0
 62
131
 10
0.612
 20
0.08
 30
0.
 70
192
 0
VERTEX
 5
110
 8
0
 62
131
 10
1.058
 20
0.08
 30
0.67
 70
192
 0
VERTEX
 5
111
 8
0
 62
131
 10
0.702
 20
0.03
 30
0.77
 70
192
 0
VERTEX
 5
112
 8
0
 62
131
 10
0.717
 20
0.05
 30
0.79
 70
192
 0
VERTEX
 5
113
 8
0
 62
131
 10
1.018
 20
0.05
 30
0.97
 70
192
 0
VERTEX
 5
114
 8
0
 62
131
 10
1.018
 20
0.05
 30
0.81
 70
192
 0
VERTEX
 5
115
 8
0
 62
131
 10
1.038
 20
0.05
 30
0.79
 70
192
 0
VERTEX
 5
116
 8
0
 62
131
 10
1.058
 20
0.03
 30
0.17
 70
192
 0
VERTEX
 5
117
 8
0
 62
131
 10
1.058
 20
0.08
 30
0.17
 70
192
 0
VERTEX
 5
118
 8
0
 62
131
 10
1.038
 20
0.06
 30
0.19
 70
192
 0
VERTEX
 5
119
 8
0
 62
131
 10
1.038
 20
0.06
 30
0.65
 70
192
 0
VERTEX
 5
11A
 8
0
 62
131
 10
0.702
 20
0.03
 30
0.17
 70
192
 0
VERTEX
 5
11B
 8
0
 62
131
 10
0.702
 20
0.03
 30
0.67
 70
192
 0
VERTEX
 5
11C
 8
0
 62
131
 10
0.737
 20
0.05
 30
0.81
 70
192
 0
VERTEX
 5
11D
 8
0
 62
131
 10
0.737
 20
0.05
 30
0.97
 70
192
 0
VERTEX
 5
11E
 8
0
 62
131
 10
1.038
 20
0.05
 30
0.65
 70
192
 0
VERTEX
 5
11F
 8
0
 62
131
 10
1.038
 20
0.05
 30
0.19
 70
192
 0
VERTEX
 5
120
 8
0
 62
131
 10
1.058
 20
0.03
 30
0.67
 70
192
 0
VERTEX
 5
121
 8
0
 62
131
 10
0.717
 20
0.06
 30
0.65
 70
192
 0
VERTEX
 5
122
 8
0
 62
131
 10
0.702
 20
0.08
 30
0.17
 70
192
 0
VERTEX
 5
123
 8
0
 62
131
 10
0.717
 20
0.06
 30
0.19
 70
192
 0
VERTEX
 5
124
 8
0
 62
131
 10
0.717
 20
0.05
 30
0.19
 70
192
 0
VERTEX
 5
125
 8
0
 62
131
 10
0.717
 20
0.05
 30
0.65
 70
192
 0
VERTEX
 5
126
 8
0
 62
131
 10
0.737
 20
0.04
 30
0.81
 70
192
 0
VERTEX
 5
127
 8
0
 62
131
 10
0.938
 20
0.01
 30
0.89
 70
192
 0
VERTEX
 5
128
 8
0
 62
131
 10
0.737
 20
0.04
 30
0.97
 70
192
 0
VERTEX
 5
129
 8
0
 62
131
 10
1.018
 20
0.04
 30
0.97
 70
192
 0
VERTEX
 5
12A
 8
0
 62
131
 10
1.018
 20
0.04
 30
0.81
 70
192
 0
VERTEX
 5
12B
 8
0
 62
131
 10
0.817
 20
0.01
 30
0.89
 70
192
 0
VERTEX
 5
12C
 8
0
 62
131
 10
1.118
 20
0.08
 30
2.422
 70
192
 0
VERTEX
 5
12D
 8
0
 62
131
 10
0.102
 20
0.08
 30
2.422
 70
192
 0
VERTEX
 5
12E
 8
0
 62
131
 10
1.118
 20
0.08
 30
2.402
 70
192
 0
VERTEX
 5
12F
 8
0
 62
131
 10
1.118
 20
0.03
 30
2.352
 70
192
 0
VERTEX
 5
130
 8
0
 62
131
 10
0.102
 20
0.08
 30
2.402
 70
192
 0
VERTEX
 5
131
 8
0
 62
131
 10
0.102
 20
0.03
 30
2.352
 70
192
 0
VERTEX
 5
132
 8
0
 62
131
 10
0.102
 20
0.03
 30
2.372
 70
192
 0
VERTEX
 5
133
 8
0
 62
131
 10
1.118
 20
0.03
 30
2.372
 70
192
 0
VERTEX
 5
134
 8
0
 62
131
 10
1.37
 20
-0.308
 30
2.7650010585784899
 70
192
 0
VERTEX
 5
135
 8
0
 62
131
 10
1.41
 20
-0.29
 30
2.7350010871887198
 70
192
 0
VERTEX
 5
136
 8
0
 62
131
 10
1.41
 20
-0.25
 30
2.83
 70
192
 0
VERTEX
 5
137
 8
0
 62
131
 10
1.41
 20
-0.308
 30
2.7650010585784899
 70
192
 0
VERTEX
 5
138
 8
0
 62
131
 10
1.37
 20
-0.25
 30
2.83
 70
192
 0
VERTEX
 5
139
 8
0
 62
131
 10
1.37
 20
-0.29
 30
2.7350010871887198
 70
192
 0
VERTEX
 5
13A
 8
0
 62
131
 10
1.37
 20
-0.295
 30
2.752001047134399
 70
192
 0
VERTEX
 5
13B
 8
0
 62
131
 10
1.37
 20
-0.25
 30
2.7350010871887198
 70
192
 0
VERTEX
 5
13C
 8
0
 62
131
 10
1.37
 20
-0.325
 30
2.77
 70
192
 0
VERTEX
 5
13D
 8
0
 62
131
 10
1.37
 20
-0.325
 30
2.83
 70
192
 0
VERTEX
 5
13E
 8
0
 62
131
 10
1.41
 20
-0.295
 30
2.752001047134399
 70
192
 0
VERTEX
 5
13F
 8
0
 62
131
 10
1.41
 20
-0.325
 30
2.77
 70
192
 0
VERTEX
 5
140
 8
0
 62
131
 10
1.41
 20
-0.325
 30
2.83
 70
192
 0
VERTEX
 5
141
 8
0
 62
131
 10
1.37
 20
-0.332
 30
2.855
 70
192
 0
VERTEX
 5
142
 8
0
 62
131
 10
1.41
 20
-0.25
 30
2.7350010871887198
 70
192
 0
VERTEX
 5
143
 8
0
 62
131
 10
1.41
 20
-0.332
 30
2.855
 70
192
 0
VERTEX
 5
144
 8
0
 62
131
 10
1.37
 20
-0.35
 30
2.873
 70
192
 0
VERTEX
 5
145
 8
0
 62
131
 10
1.37
 20
-0.25
 30
2.9350011348724361
 70
192
 0
VERTEX
 5
146
 8
0
 62
131
 10
1.41
 20
-0.25
 30
2.9350011348724361
 70
192
 0
VERTEX
 5
147
 8
0
 62
131
 10
1.41
 20
-0.375
 30
2.88
 70
192
 0
VERTEX
 5
148
 8
0
 62
131
 10
1.41
 20
-0.35
 30
2.873
 70
192
 0
VERTEX
 5
149
 8
0
 62
131
 10
1.37
 20
-0.387
 30
2.88
 70
192
 0
VERTEX
 5
14A
 8
0
 62
131
 10
1.37
 20
-0.387
 30
2.9350011348724361
 70
192
 0
VERTEX
 5
14B
 8
0
 62
131
 10
1.37
 20
-0.375
 30
2.88
 70
192
 0
VERTEX
 5
14C
 8
0
 62
131
 10
1.41
 20
-0.387
 30
2.9350011348724361
 70
192
 0
VERTEX
 5
14D
 8
0
 62
131
 10
1.41
 20
-0.387
 30
2.88
 70
192
 0
VERTEX
 5
14E
 8
0
 62
131
 10
1.214
 20
-0.295
 30
2.752001047134399
 70
192
 0
VERTEX
 5
14F
 8
0
 62
131
 10
1.214
 20
-0.29
 30
2.7350010871887198
 70
192
 0
VERTEX
 5
150
 8
0
 62
131
 10
1.254
 20
-0.308
 30
2.7650010585784899
 70
192
 0
VERTEX
 5
151
 8
0
 62
131
 10
1.254
 20
-0.325
 30
2.77
 70
192
 0
VERTEX
 5
152
 8
0
 62
131
 10
1.214
 20
-0.25
 30
2.83
 70
192
 0
VERTEX
 5
153
 8
0
 62
131
 10
1.214
 20
-0.25
 30
2.7350010871887198
 70
192
 0
VERTEX
 5
154
 8
0
 62
131
 10
1.214
 20
-0.325
 30
2.83
 70
192
 0
VERTEX
 5
155
 8
0
 62
131
 10
1.214
 20
-0.308
 30
2.7650010585784899
 70
192
 0
VERTEX
 5
156
 8
0
 62
131
 10
1.254
 20
-0.29
 30
2.7350010871887198
 70
192
 0
VERTEX
 5
157
 8
0
 62
131
 10
1.254
 20
-0.295
 30
2.752001047134399
 70
192
 0
VERTEX
 5
158
 8
0
 62
131
 10
1.254
 20
-0.332
 30
2.855
 70
192
 0
VERTEX
 5
159
 8
0
 62
131
 10
1.254
 20
-0.325
 30
2.83
 70
192
 0
VERTEX
 5
15A
 8
0
 62
131
 10
1.214
 20
-0.325
 30
2.77
 70
192
 0
VERTEX
 5
15B
 8
0
 62
131
 10
1.214
 20
-0.35
 30
2.873
 70
192
 0
VERTEX
 5
15C
 8
0
 62
131
 10
1.214
 20
-0.332
 30
2.855
 70
192
 0
VERTEX
 5
15D
 8
0
 62
131
 10
1.214
 20
-0.25
 30
2.9350011348724361
 70
192
 0
VERTEX
 5
15E
 8
0
 62
131
 10
1.254
 20
-0.25
 30
2.83
 70
192
 0
VERTEX
 5
15F
 8
0
 62
131
 10
1.254
 20
-0.25
 30
2.7350010871887198
 70
192
 0
VERTEX
 5
160
 8
0
 62
131
 10
1.254
 20
-0.25
 30
2.9350011348724361
 70
192
 0
VERTEX
 5
161
 8
0
 62
131
 10
1.254
 20
-0.35
 30
2.873
 70
192
 0
VERTEX
 5
162
 8
0
 62
131
 10
1.254
 20
-0.387
 30
2.9350011348724361
 70
192
 0
VERTEX
 5
163
 8
0
 62
131
 10
1.214
 20
-0.375
 30
2.88
 70
192
 0
VERTEX
 5
164
 8
0
 62
131
 10
1.214
 20
-0.387
 30
2.88
 70
192
 0
VERTEX
 5
165
 8
0
 62
131
 10
1.214
 20
-0.387
 30
2.9350011348724361
 70
192
 0
VERTEX
 5
166
 8
0
 62
131
 10
1.254
 20
-0.387
 30
2.88
 70
192
 0
VERTEX
 5
167
 8
0
 62
131
 10
1.254
 20
-0.375
 30
2.88
 70
192
 0
VERTEX
 5
168
 8
0
 62
131
 10
1.058
 20
-0.308
 30
2.7650010585784899
 70
192
 0
VERTEX
 5
169
 8
0
 62
131
 10
1.098
 20
-0.295
 30
2.752001047134399
 70
192
 0
VERTEX
 5
16A
 8
0
 62
131
 10
1.058
 20
-0.295
 30
2.752001047134399
 70
192
 0
VERTEX
 5
16B
 8
0
 62
131
 10
1.098
 20
-0.25
 30
2.83
 70
192
 0
VERTEX
 5
16C
 8
0
 62
131
 10
1.098
 20
-0.308
 30
2.7650010585784899
 70
192
 0
VERTEX
 5
16D
 8
0
 62
131
 10
1.058
 20
-0.25
 30
2.83
 70
192
 0
VERTEX
 5
16E
 8
0
 62
131
 10
1.058
 20
-0.25
 30
2.7350010871887198
 70
192
 0
VERTEX
 5
16F
 8
0
 62
131
 10
1.058
 20
-0.29
 30
2.7350010871887198
 70
192
 0
VERTEX
 5
170
 8
0
 62
131
 10
1.098
 20
-0.29
 30
2.7350010871887198
 70
192
 0
VERTEX
 5
171
 8
0
 62
131
 10
1.058
 20
-0.325
 30
2.83
 70
192
 0
VERTEX
 5
172
 8
0
 62
131
 10
1.058
 20
-0.325
 30
2.77
 70
192
 0
VERTEX
 5
173
 8
0
 62
131
 10
1.098
 20
-0.325
 30
2.77
 70
192
 0
VERTEX
 5
174
 8
0
 62
131
 10
1.098
 20
-0.332
 30
2.855
 70
192
 0
VERTEX
 5
175
 8
0
 62
131
 10
1.098
 20
-0.325
 30
2.83
 70
192
 0
VERTEX
 5
176
 8
0
 62
131
 10
1.058
 20
-0.332
 30
2.855
 70
192
 0
VERTEX
 5
177
 8
0
 62
131
 10
1.058
 20
-0.35
 30
2.873
 70
192
 0
VERTEX
 5
178
 8
0
 62
131
 10
1.098
 20
-0.25
 30
2.7350010871887198
 70
192
 0
VERTEX
 5
179
 8
0
 62
131
 10
1.098
 20
-0.25
 30
2.9350011348724361
 70
192
 0
VERTEX
 5
17A
 8
0
 62
131
 10
1.098
 20
-0.35
 30
2.873
 70
192
 0
VERTEX
 5
17B
 8
0
 62
131
 10
1.058
 20
-0.25
 30
2.9350011348724361
 70
192
 0
VERTEX
 5
17C
 8
0
 62
131
 10
1.058
 20
-0.387
 30
2.88
 70
192
 0
VERTEX
 5
17D
 8
0
 62
131
 10
1.058
 20
-0.375
 30
2.88
 70
192
 0
VERTEX
 5
17E
 8
0
 62
131
 10
1.058
 20
-0.387
 30
2.9350011348724361
 70
192
 0
VERTEX
 5
17F
 8
0
 62
131
 10
1.098
 20
-0.375
 30
2.88
 70
192
 0
VERTEX
 5
180
 8
0
 62
131
 10
1.098
 20
-0.387
 30
2.9350011348724361
 70
192
 0
VERTEX
 5
181
 8
0
 62
131
 10
1.098
 20
-0.387
 30
2.88
 70
192
 0
VERTEX
 5
182
 8
0
 62
131
 10
0.942
 20
-0.308
 30
2.7650010585784899
 70
192
 0
VERTEX
 5
183
 8
0
 62
131
 10
0.902
 20
-0.295
 30
2.752001047134399
 70
192
 0
VERTEX
 5
184
 8
0
 62
131
 10
0.942
 20
-0.29
 30
2.7350010871887198
 70
192
 0
VERTEX
 5
185
 8
0
 62
131
 10
0.942
 20
-0.295
 30
2.752001047134399
 70
192
 0
VERTEX
 5
186
 8
0
 62
131
 10
0.902
 20
-0.325
 30
2.77
 70
192
 0
VERTEX
 5
187
 8
0
 62
131
 10
0.902
 20
-0.332
 30
2.855
 70
192
 0
VERTEX
 5
188
 8
0
 62
131
 10
0.902
 20
-0.25
 30
2.83
 70
192
 0
VERTEX
 5
189
 8
0
 62
131
 10
0.902
 20
-0.325
 30
2.83
 70
192
 0
VERTEX
 5
18A
 8
0
 62
131
 10
0.902
 20
-0.308
 30
2.7650010585784899
 70
192
 0
VERTEX
 5
18B
 8
0
 62
131
 10
0.942
 20
-0.25
 30
2.7350010871887198
 70
192
 0
VERTEX
 5
18C
 8
0
 62
131
 10
0.902
 20
-0.29
 30
2.7350010871887198
 70
192
 0
VERTEX
 5
18D
 8
0
 62
131
 10
0.942
 20
-0.25
 30
2.83
 70
192
 0
VERTEX
 5
18E
 8
0
 62
131
 10
0.942
 20
-0.325
 30
2.83
 70
192
 0
VERTEX
 5
18F
 8
0
 62
131
 10
0.942
 20
-0.325
 30
2.77
 70
192
 0
VERTEX
 5
190
 8
0
 62
131
 10
0.942
 20
-0.332
 30
2.855
 70
192
 0
VERTEX
 5
191
 8
0
 62
131
 10
0.902
 20
-0.35
 30
2.873
 70
192
 0
VERTEX
 5
192
 8
0
 62
131
 10
0.902
 20
-0.25
 30
2.7350010871887198
 70
192
 0
VERTEX
 5
193
 8
0
 62
131
 10
0.942
 20
-0.25
 30
2.9350011348724361
 70
192
 0
VERTEX
 5
194
 8
0
 62
131
 10
0.902
 20
-0.25
 30
2.9350011348724361
 70
192
 0
VERTEX
 5
195
 8
0
 62
131
 10
0.942
 20
-0.35
 30
2.873
 70
192
 0
VERTEX
 5
196
 8
0
 62
131
 10
0.902
 20
-0.387
 30
2.9350011348724361
 70
192
 0
VERTEX
 5
197
 8
0
 62
131
 10
0.902
 20
-0.387
 30
2.88
 70
192
 0
VERTEX
 5
198
 8
0
 62
131
 10
0.942
 20
-0.375
 30
2.88
 70
192
 0
VERTEX
 5
199
 8
0
 62
131
 10
0.942
 20
-0.387
 30
2.9350011348724361
 70
192
 0
VERTEX
 5
19A
 8
0
 62
131
 10
0.942
 20
-0.387
 30
2.88
 70
192
 0
VERTEX
 5
19B
 8
0
 62
131
 10
0.902
 20
-0.375
 30
2.88
 70
192
 0
VERTEX
 5
19C
 8
0
 62
131
 10
0.746
 20
-0.295
 30
2.752001047134399
 70
192
 0
VERTEX
 5
19D
 8
0
 62
131
 10
0.746
 20
-0.29
 30
2.7350010871887198
 70
192
 0
VERTEX
 5
19E
 8
0
 62
131
 10
0.786
 20
-0.295
 30
2.752001047134399
 70
192
 0
VERTEX
 5
19F
 8
0
 62
131
 10
0.786
 20
-0.308
 30
2.7650010585784899
 70
192
 0
VERTEX
 5
1A0
 8
0
 62
131
 10
0.786
 20
-0.325
 30
2.77
 70
192
 0
VERTEX
 5
1A1
 8
0
 62
131
 10
0.746
 20
-0.325
 30
2.83
 70
192
 0
VERTEX
 5
1A2
 8
0
 62
131
 10
0.746
 20
-0.308
 30
2.7650010585784899
 70
192
 0
VERTEX
 5
1A3
 8
0
 62
131
 10
0.746
 20
-0.25
 30
2.83
 70
192
 0
VERTEX
 5
1A4
 8
0
 62
131
 10
0.746
 20
-0.332
 30
2.855
 70
192
 0
VERTEX
 5
1A5
 8
0
 62
131
 10
0.746
 20
-0.25
 30
2.7350010871887198
 70
192
 0
VERTEX
 5
1A6
 8
0
 62
131
 10
0.746
 20
-0.325
 30
2.77
 70
192
 0
VERTEX
 5
1A7
 8
0
 62
131
 10
0.786
 20
-0.29
 30
2.7350010871887198
 70
192
 0
VERTEX
 5
1A8
 8
0
 62
131
 10
0.786
 20
-0.25
 30
2.7350010871887198
 70
192
 0
VERTEX
 5
1A9
 8
0
 62
131
 10
0.786
 20
-0.25
 30
2.9350011348724361
 70
192
 0
VERTEX
 5
1AA
 8
0
 62
131
 10
0.786
 20
-0.325
 30
2.83
 70
192
 0
VERTEX
 5
1AB
 8
0
 62
131
 10
0.786
 20
-0.332
 30
2.855
 70
192
 0
VERTEX
 5
1AC
 8
0
 62
131
 10
0.746
 20
-0.25
 30
2.9350011348724361
 70
192
 0
VERTEX
 5
1AD
 8
0
 62
131
 10
0.786
 20
-0.25
 30
2.83
 70
192
 0
VERTEX
 5
1AE
 8
0
 62
131
 10
0.746
 20
-0.35
 30
2.873
 70
192
 0
VERTEX
 5
1AF
 8
0
 62
131
 10
0.786
 20
-0.387
 30
2.9350011348724361
 70
192
 0
VERTEX
 5
1B0
 8
0
 62
131
 10
0.786
 20
-0.35
 30
2.873
 70
192
 0
VERTEX
 5
1B1
 8
0
 62
131
 10
0.746
 20
-0.387
 30
2.88
 70
192
 0
VERTEX
 5
1B2
 8
0
 62
131
 10
0.746
 20
-0.387
 30
2.9350011348724361
 70
192
 0
VERTEX
 5
1B3
 8
0
 62
131
 10
0.786
 20
-0.375
 30
2.88
 70
192
 0
VERTEX
 5
1B4
 8
0
 62
131
 10
0.746
 20
-0.375
 30
2.88
 70
192
 0
VERTEX
 5
1B5
 8
0
 62
131
 10
0.786
 20
-0.387
 30
2.88
 70
192
 0
VERTEX
 5
1B6
 8
0
 62
131
 10
0.59
 20
-0.308
 30
2.7650010585784899
 70
192
 0
VERTEX
 5
1B7
 8
0
 62
131
 10
0.63
 20
-0.308
 30
2.7650010585784899
 70
192
 0
VERTEX
 5
1B8
 8
0
 62
131
 10
0.59
 20
-0.295
 30
2.752001047134399
 70
192
 0
VERTEX
 5
1B9
 8
0
 62
131
 10
0.59
 20
-0.325
 30
2.83
 70
192
 0
VERTEX
 5
1BA
 8
0
 62
131
 10
0.63
 20
-0.29
 30
2.7350010871887198
 70
192
 0
VERTEX
 5
1BB
 8
0
 62
131
 10
0.63
 20
-0.295
 30
2.752001047134399
 70
192
 0
VERTEX
 5
1BC
 8
0
 62
131
 10
0.59
 20
-0.25
 30
2.9350011348724361
 70
192
 0
VERTEX
 5
1BD
 8
0
 62
131
 10
0.59
 20
-0.25
 30
2.7350010871887198
 70
192
 0
VERTEX
 5
1BE
 8
0
 62
131
 10
0.59
 20
-0.29
 30
2.7350010871887198
 70
192
 0
VERTEX
 5
1BF
 8
0
 62
131
 10
0.63
 20
-0.25
 30
2.83
 70
192
 0
VERTEX
 5
1C0
 8
0
 62
131
 10
0.63
 20
-0.332
 30
2.855
 70
192
 0
VERTEX
 5
1C1
 8
0
 62
131
 10
0.63
 20
-0.325
 30
2.83
 70
192
 0
VERTEX
 5
1C2
 8
0
 62
131
 10
0.63
 20
-0.325
 30
2.77
 70
192
 0
VERTEX
 5
1C3
 8
0
 62
131
 10
0.59
 20
-0.325
 30
2.77
 70
192
 0
VERTEX
 5
1C4
 8
0
 62
131
 10
0.59
 20
-0.25
 30
2.83
 70
192
 0
VERTEX
 5
1C5
 8
0
 62
131
 10
0.63
 20
-0.25
 30
2.7350010871887198
 70
192
 0
VERTEX
 5
1C6
 8
0
 62
131
 10
0.59
 20
-0.332
 30
2.855
 70
192
 0
VERTEX
 5
1C7
 8
0
 62
131
 10
0.59
 20
-0.387
 30
2.9350011348724361
 70
192
 0
VERTEX
 5
1C8
 8
0
 62
131
 10
0.63
 20
-0.25
 30
2.9350011348724361
 70
192
 0
VERTEX
 5
1C9
 8
0
 62
131
 10
0.63
 20
-0.35
 30
2.873
 70
192
 0
VERTEX
 5
1CA
 8
0
 62
131
 10
0.59
 20
-0.35
 30
2.873
 70
192
 0
VERTEX
 5
1CB
 8
0
 62
131
 10
0.59
 20
-0.375
 30
2.88
 70
192
 0
VERTEX
 5
1CC
 8
0
 62
131
 10
0.59
 20
-0.387
 30
2.88
 70
192
 0
VERTEX
 5
1CD
 8
0
 62
131
 10
0.63
 20
-0.387
 30
2.9350011348724361
 70
192
 0
VERTEX
 5
1CE
 8
0
 62
131
 10
0.63
 20
-0.375
 30
2.88
 70
192
 0
VERTEX
 5
1CF
 8
0
 62
131
 10
0.63
 20
-0.387
 30
2.88
 70
192
 0
VERTEX
 5
1D0
 8
0
 62
131
 10
0.434
 20
-0.295
 30
2.752001047134399
 70
192
 0
VERTEX
 5
1D1
 8
0
 62
131
 10
0.434
 20
-0.25
 30
2.83
 70
192
 0
VERTEX
 5
1D2
 8
0
 62
131
 10
0.474
 20
-0.295
 30
2.752001047134399
 70
192
 0
VERTEX
 5
1D3
 8
0
 62
131
 10
0.434
 20
-0.325
 30
2.77
 70
192
 0
VERTEX
 5
1D4
 8
0
 62
131
 10
0.434
 20
-0.308
 30
2.7650010585784899
 70
192
 0
VERTEX
 5
1D5
 8
0
 62
131
 10
0.434
 20
-0.25
 30
2.7350010871887198
 70
192
 0
VERTEX
 5
1D6
 8
0
 62
131
 10
0.434
 20
-0.29
 30
2.7350010871887198
 70
192
 0
VERTEX
 5
1D7
 8
0
 62
131
 10
0.474
 20
-0.25
 30
2.83
 70
192
 0
VERTEX
 5
1D8
 8
0
 62
131
 10
0.474
 20
-0.29
 30
2.7350010871887198
 70
192
 0
VERTEX
 5
1D9
 8
0
 62
131
 10
0.474
 20
-0.325
 30
2.83
 70
192
 0
VERTEX
 5
1DA
 8
0
 62
131
 10
0.474
 20
-0.25
 30
2.9350011348724361
 70
192
 0
VERTEX
 5
1DB
 8
0
 62
131
 10
0.474
 20
-0.325
 30
2.77
 70
192
 0
VERTEX
 5
1DC
 8
0
 62
131
 10
0.474
 20
-0.308
 30
2.7650010585784899
 70
192
 0
VERTEX
 5
1DD
 8
0
 62
131
 10
0.434
 20
-0.325
 30
2.83
 70
192
 0
VERTEX
 5
1DE
 8
0
 62
131
 10
0.434
 20
-0.332
 30
2.855
 70
192
 0
VERTEX
 5
1DF
 8
0
 62
131
 10
0.474
 20
-0.25
 30
2.7350010871887198
 70
192
 0
VERTEX
 5
1E0
 8
0
 62
131
 10
0.474
 20
-0.332
 30
2.855
 70
192
 0
VERTEX
 5
1E1
 8
0
 62
131
 10
0.434
 20
-0.25
 30
2.9350011348724361
 70
192
 0
VERTEX
 5
1E2
 8
0
 62
131
 10
0.434
 20
-0.387
 30
2.9350011348724361
 70
192
 0
VERTEX
 5
1E3
 8
0
 62
131
 10
0.474
 20
-0.35
 30
2.873
 70
192
 0
VERTEX
 5
1E4
 8
0
 62
131
 10
0.434
 20
-0.35
 30
2.873
 70
192
 0
VERTEX
 5
1E5
 8
0
 62
131
 10
0.434
 20
-0.375
 30
2.88
 70
192
 0
VERTEX
 5
1E6
 8
0
 62
131
 10
0.474
 20
-0.375
 30
2.88
 70
192
 0
VERTEX
 5
1E7
 8
0
 62
131
 10
0.434
 20
-0.387
 30
2.88
 70
192
 0
VERTEX
 5
1E8
 8
0
 62
131
 10
0.474
 20
-0.387
 30
2.9350011348724361
 70
192
 0
VERTEX
 5
1E9
 8
0
 62
131
 10
0.474
 20
-0.387
 30
2.88
 70
192
 0
VERTEX
 5
1EA
 8
0
 62
131
 10
0.278
 20
-0.308
 30
2.7650010585784899
 70
192
 0
VERTEX
 5
1EB
 8
0
 62
131
 10
0.278
 20
-0.295
 30
2.752001047134399
 70
192
 0
VERTEX
 5
1EC
 8
0
 62
131
 10
0.318
 20
-0.325
 30
2.83
 70
192
 0
VERTEX
 5
1ED
 8
0
 62
131
 10
0.318
 20
-0.308
 30
2.7650010585784899
 70
192
 0
VERTEX
 5
1EE
 8
0
 62
131
 10
0.318
 20
-0.325
 30
2.77
 70
192
 0
VERTEX
 5
1EF
 8
0
 62
131
 10
0.278
 20
-0.29
 30
2.7350010871887198
 70
192
 0
VERTEX
 5
1F0
 8
0
 62
131
 10
0.278
 20
-0.325
 30
2.83
 70
192
 0
VERTEX
 5
1F1
 8
0
 62
131
 10
0.278
 20
-0.325
 30
2.77
 70
192
 0
VERTEX
 5
1F2
 8
0
 62
131
 10
0.318
 20
-0.25
 30
2.7350010871887198
 70
192
 0
VERTEX
 5
1F3
 8
0
 62
131
 10
0.318
 20
-0.29
 30
2.7350010871887198
 70
192
 0
VERTEX
 5
1F4
 8
0
 62
131
 10
0.278
 20
-0.25
 30
2.7350010871887198
 70
192
 0
VERTEX
 5
1F5
 8
0
 62
131
 10
0.318
 20
-0.295
 30
2.752001047134399
 70
192
 0
VERTEX
 5
1F6
 8
0
 62
131
 10
0.318
 20
-0.25
 30
2.83
 70
192
 0
VERTEX
 5
1F7
 8
0
 62
131
 10
0.318
 20
-0.332
 30
2.855
 70
192
 0
VERTEX
 5
1F8
 8
0
 62
131
 10
0.278
 20
-0.25
 30
2.9350011348724361
 70
192
 0
VERTEX
 5
1F9
 8
0
 62
131
 10
0.278
 20
-0.25
 30
2.83
 70
192
 0
VERTEX
 5
1FA
 8
0
 62
131
 10
0.318
 20
-0.25
 30
2.9350011348724361
 70
192
 0
VERTEX
 5
1FB
 8
0
 62
131
 10
0.318
 20
-0.35
 30
2.873
 70
192
 0
VERTEX
 5
1FC
 8
0
 62
131
 10
0.278
 20
-0.332
 30
2.855
 70
192
 0
VERTEX
 5
1FD
 8
0
 62
131
 10
0.278
 20
-0.387
 30
2.9350011348724361
 70
192
 0
VERTEX
 5
1FE
 8
0
 62
131
 10
0.278
 20
-0.35
 30
2.873
 70
192
 0
VERTEX
 5
1FF
 8
0
 62
131
 10
0.318
 20
-0.375
 30
2.88
 70
192
 0
VERTEX
 5
200
 8
0
 62
131
 10
0.318
 20
-0.387
 30
2.88
 70
192
 0
VERTEX
 5
201
 8
0
 62
131
 10
0.318
 20
-0.387
 30
2.9350011348724361
 70
192
 0
VERTEX
 5
202
 8
0
 62
131
 10
0.278
 20
-0.375
 30
2.88
 70
192
 0
VERTEX
 5
203
 8
0
 62
131
 10
0.278
 20
-0.387
 30
2.88
 70
192
 0
VERTEX
 5
204
 8
0
 62
131
 10
0.122
 20
-0.308
 30
2.7650010585784899
 70
192
 0
VERTEX
 5
205
 8
0
 62
131
 10
0.122
 20
-0.295
 30
2.752001047134399
 70
192
 0
VERTEX
 5
206
 8
0
 62
131
 10
0.162
 20
-0.295
 30
2.752001047134399
 70
192
 0
VERTEX
 5
207
 8
0
 62
131
 10
0.122
 20
-0.25
 30
2.83
 70
192
 0
VERTEX
 5
208
 8
0
 62
131
 10
0.162
 20
-0.308
 30
2.7650010585784899
 70
192
 0
VERTEX
 5
209
 8
0
 62
131
 10
0.162
 20
-0.325
 30
2.83
 70
192
 0
VERTEX
 5
20A
 8
0
 62
131
 10
0.122
 20
-0.25
 30
2.7350010871887198
 70
192
 0
VERTEX
 5
20B
 8
0
 62
131
 10
0.122
 20
-0.29
 30
2.7350010871887198
 70
192
 0
VERTEX
 5
20C
 8
0
 62
131
 10
0.122
 20
-0.325
 30
2.83
 70
192
 0
VERTEX
 5
20D
 8
0
 62
131
 10
0.162
 20
-0.25
 30
2.7350010871887198
 70
192
 0
VERTEX
 5
20E
 8
0
 62
131
 10
0.162
 20
-0.25
 30
2.83
 70
192
 0
VERTEX
 5
20F
 8
0
 62
131
 10
0.162
 20
-0.29
 30
2.7350010871887198
 70
192
 0
VERTEX
 5
210
 8
0
 62
131
 10
0.122
 20
-0.325
 30
2.77
 70
192
 0
VERTEX
 5
211
 8
0
 62
131
 10
0.162
 20
-0.325
 30
2.77
 70
192
 0
VERTEX
 5
212
 8
0
 62
131
 10
0.122
 20
-0.25
 30
2.9350011348724361
 70
192
 0
VERTEX
 5
213
 8
0
 62
131
 10
0.162
 20
-0.25
 30
2.9350011348724361
 70
192
 0
VERTEX
 5
214
 8
0
 62
131
 10
0.122
 20
-0.35
 30
2.873
 70
192
 0
VERTEX
 5
215
 8
0
 62
131
 10
0.122
 20
-0.332
 30
2.855
 70
192
 0
VERTEX
 5
216
 8
0
 62
131
 10
0.162
 20
-0.332
 30
2.855
 70
192
 0
VERTEX
 5
217
 8
0
 62
131
 10
0.122
 20
-0.375
 30
2.88
 70
192
 0
VERTEX
 5
218
 8
0
 62
131
 10
0.162
 20
-0.35
 30
2.873
 70
192
 0
VERTEX
 5
219
 8
0
 62
131
 10
0.122
 20
-0.387
 30
2.9350011348724361
 70
192
 0
VERTEX
 5
21A
 8
0
 62
131
 10
0.122
 20
-0.387
 30
2.88
 70
192
 0
VERTEX
 5
21B
 8
0
 62
131
 10
0.162
 20
-0.387
 30
2.9350011348724361
 70
192
 0
VERTEX
 5
21C
 8
0
 62
131
 10
0.162
 20
-0.387
 30
2.88
 70
192
 0
VERTEX
 5
21D
 8
0
 62
131
 10
0.162
 20
-0.375
 30
2.88
 70
192
 0
VERTEX
 5
21E
 8
0
 62
131
 10
-0.034
 20
-0.295
 30
2.752001047134399
 70
192
 0
VERTEX
 5
21F
 8
0
 62
131
 10
0.006
 20
-0.308
 30
2.7650010585784899
 70
192
 0
VERTEX
 5
220
 8
0
 62
131
 10
0.006
 20
-0.29
 30
2.7350010871887198
 70
192
 0
VERTEX
 5
221
 8
0
 62
131
 10
0.006
 20
-0.25
 30
2.83
 70
192
 0
VERTEX
 5
222
 8
0
 62
131
 10
-0.034
 20
-0.325
 30
2.77
 70
192
 0
VERTEX
 5
223
 8
0
 62
131
 10
-0.034
 20
-0.25
 30
2.83
 70
192
 0
VERTEX
 5
224
 8
0
 62
131
 10
-0.034
 20
-0.325
 30
2.83
 70
192
 0
VERTEX
 5
225
 8
0
 62
131
 10
-0.034
 20
-0.25
 30
2.7350010871887198
 70
192
 0
VERTEX
 5
226
 8
0
 62
131
 10
-0.034
 20
-0.29
 30
2.7350010871887198
 70
192
 0
VERTEX
 5
227
 8
0
 62
131
 10
-0.034
 20
-0.308
 30
2.7650010585784899
 70
192
 0
VERTEX
 5
228
 8
0
 62
131
 10
0.006
 20
-0.25
 30
2.7350010871887198
 70
192
 0
VERTEX
 5
229
 8
0
 62
131
 10
0.006
 20
-0.295
 30
2.752001047134399
 70
192
 0
VERTEX
 5
22A
 8
0
 62
131
 10
0.006
 20
-0.325
 30
2.83
 70
192
 0
VERTEX
 5
22B
 8
0
 62
131
 10
0.006
 20
-0.325
 30
2.77
 70
192
 0
VERTEX
 5
22C
 8
0
 62
131
 10
-0.034
 20
-0.332
 30
2.855
 70
192
 0
VERTEX
 5
22D
 8
0
 62
131
 10
-0.034
 20
-0.25
 30
2.9350011348724361
 70
192
 0
VERTEX
 5
22E
 8
0
 62
131
 10
-0.034
 20
-0.35
 30
2.873
 70
192
 0
VERTEX
 5
22F
 8
0
 62
131
 10
0.006
 20
-0.25
 30
2.9350011348724361
 70
192
 0
VERTEX
 5
230
 8
0
 62
131
 10
0.006
 20
-0.35
 30
2.873
 70
192
 0
VERTEX
 5
231
 8
0
 62
131
 10
0.006
 20
-0.332
 30
2.855
 70
192
 0
VERTEX
 5
232
 8
0
 62
131
 10
0.006
 20
-0.375
 30
2.88
 70
192
 0
VERTEX
 5
233
 8
0
 62
131
 10
-0.034
 20
-0.375
 30
2.88
 70
192
 0
VERTEX
 5
234
 8
0
 62
131
 10
-0.034
 20
-0.387
 30
2.88
 70
192
 0
VERTEX
 5
235
 8
0
 62
131
 10
-0.034
 20
-0.387
 30
2.9350011348724361
 70
192
 0
VERTEX
 5
236
 8
0
 62
131
 10
0.006
 20
-0.387
 30
2.9350011348724361
 70
192
 0
VERTEX
 5
237
 8
0
 62
131
 10
0.006
 20
-0.387
 30
2.88
 70
192
 0
VERTEX
 5
238
 8
0
 62
131
 10
-0.19
 20
-0.308
 30
2.7650010585784899
 70
192
 0
VERTEX
 5
239
 8
0
 62
131
 10
-0.19
 20
-0.295
 30
2.752001047134399
 70
192
 0
VERTEX
 5
23A
 8
0
 62
131
 10
-0.15
 20
-0.295
 30
2.752001047134399
 70
192
 0
VERTEX
 5
23B
 8
0
 62
131
 10
-0.15
 20
-0.325
 30
2.77
 70
192
 0
VERTEX
 5
23C
 8
0
 62
131
 10
-0.19
 20
-0.332
 30
2.855
 70
192
 0
VERTEX
 5
23D
 8
0
 62
131
 10
-0.19
 20
-0.25
 30
2.83
 70
192
 0
VERTEX
 5
23E
 8
0
 62
131
 10
-0.19
 20
-0.29
 30
2.7350010871887198
 70
192
 0
VERTEX
 5
23F
 8
0
 62
131
 10
-0.19
 20
-0.325
 30
2.77
 70
192
 0
VERTEX
 5
240
 8
0
 62
131
 10
-0.19
 20
-0.25
 30
2.7350010871887198
 70
192
 0
VERTEX
 5
241
 8
0
 62
131
 10
-0.15
 20
-0.25
 30
2.7350010871887198
 70
192
 0
VERTEX
 5
242
 8
0
 62
131
 10
-0.15
 20
-0.29
 30
2.7350010871887198
 70
192
 0
VERTEX
 5
243
 8
0
 62
131
 10
-0.15
 20
-0.325
 30
2.83
 70
192
 0
VERTEX
 5
244
 8
0
 62
131
 10
-0.15
 20
-0.25
 30
2.83
 70
192
 0
VERTEX
 5
245
 8
0
 62
131
 10
-0.15
 20
-0.308
 30
2.7650010585784899
 70
192
 0
VERTEX
 5
246
 8
0
 62
131
 10
-0.19
 20
-0.325
 30
2.83
 70
192
 0
VERTEX
 5
247
 8
0
 62
131
 10
-0.15
 20
-0.332
 30
2.855
 70
192
 0
VERTEX
 5
248
 8
0
 62
131
 10
-0.19
 20
-0.25
 30
2.9350011348724361
 70
192
 0
VERTEX
 5
249
 8
0
 62
131
 10
-0.15
 20
-0.375
 30
2.88
 70
192
 0
VERTEX
 5
24A
 8
0
 62
131
 10
-0.15
 20
-0.35
 30
2.873
 70
192
 0
VERTEX
 5
24B
 8
0
 62
131
 10
-0.15
 20
-0.387
 30
2.9350011348724361
 70
192
 0
VERTEX
 5
24C
 8
0
 62
131
 10
-0.15
 20
-0.25
 30
2.9350011348724361
 70
192
 0
VERTEX
 5
24D
 8
0
 62
131
 10
-0.19
 20
-0.35
 30
2.873
 70
192
 0
VERTEX
 5
24E
 8
0
 62
131
 10
-0.19
 20
-0.387
 30
2.9350011348724361
 70
192
 0
VERTEX
 5
24F
 8
0
 62
131
 10
-0.15
 20
-0.387
 30
2.88
 70
192
 0
VERTEX
 5
250
 8
0
 62
131
 10
-0.19
 20
-0.387
 30
2.88
 70
192
 0
VERTEX
 5
251
 8
0
 62
131
 10
-0.19
 20
-0.375
 30
2.88
 70
192
 0
VERTEX
 5
252
 8
0
 62
131
 10
1.178
 20
0.03
 30
2.503
 70
192
 0
VERTEX
 5
253
 8
0
 62
131
 10
1.178
 20
0.08
 30
2.202
 70
192
 0
VERTEX
 5
254
 8
0
 62
131
 10
1.118
 20
0.08
 30
2.262
 70
192
 0
VERTEX
 5
255
 8
0
 62
131
 10
0.042
 20
0.03
 30
2.503
 70
192
 0
VERTEX
 5
256
 8
0
 62
131
 10
1.178
 20
0.08
 30
2.503
 70
192
 0
VERTEX
 5
257
 8
0
 62
131
 10
0.102
 20
0.03
 30
2.443
 70
192
 0
VERTEX
 5
258
 8
0
 62
131
 10
1.118
 20
0.03
 30
2.262
 70
192
 0
VERTEX
 5
259
 8
0
 62
131
 10
0.042
 20
0.08
 30
2.202
 70
192
 0
VERTEX
 5
25A
 8
0
 62
131
 10
1.178
 20
0.03
 30
2.202
 70
192
 0
VERTEX
 5
25B
 8
0
 62
131
 10
0.042
 20
0.03
 30
2.202
 70
192
 0
VERTEX
 5
25C
 8
0
 62
131
 10
0.042
 20
0.08
 30
2.503
 70
192
 0
VERTEX
 5
25D
 8
0
 62
131
 10
0.102
 20
0.08
 30
2.262
 70
192
 0
VERTEX
 5
25E
 8
0
 62
131
 10
0.102
 20
0.03
 30
2.262
 70
192
 0
VERTEX
 5
25F
 8
0
 62
131
 10
1.118
 20
0.03
 30
2.4430048465728751
 70
192
 0
VERTEX
 5
260
 8
0
 62
131
 10
0.102
 20
0.08
 30
2.443
 70
192
 0
VERTEX
 5
261
 8
0
 62
131
 10
1.118
 20
0.08
 30
2.4430048465728751
 70
192
 0
VERTEX
 5
262
 8
0
 62
131
 10
1.18
 20
0.08
 30
0.
 70
192
 0
VERTEX
 5
263
 8
0
 62
131
 10
1.22
 20
0.08
 30
2.16
 70
192
 0
VERTEX
 5
264
 8
0
 62
131
 10
1.18
 20
0.03
 30
2.16
 70
192
 0
VERTEX
 5
265
 8
0
 62
131
 10
1.18
 20
0.08
 30
2.16
 70
192
 0
VERTEX
 5
266
 8
0
 62
131
 10
1.22
 20
0.
 30
2.16
 70
192
 0
VERTEX
 5
267
 8
0
 62
131
 10
1.22
 20
0.08
 30
0.
 70
192
 0
VERTEX
 5
268
 8
0
 62
131
 10
1.22
 20
0.
 30
0.
 70
192
 0
VERTEX
 5
269
 8
0
 62
131
 10
1.18
 20
0.03
 30
0.
 70
192
 0
VERTEX
 5
26A
 8
0
 62
131
 10
1.16
 20
0.03
 30
0.
 70
192
 0
VERTEX
 5
26B
 8
0
 62
131
 10
1.16
 20
0.03
 30
2.14
 70
192
 0
VERTEX
 5
26C
 8
0
 62
131
 10
1.22
 20
0.08
 30
2.2
 70
192
 0
VERTEX
 5
26D
 8
0
 62
131
 10
1.22
 20
0.
 30
2.2
 70
192
 0
VERTEX
 5
26E
 8
0
 62
131
 10
0.04
 20
0.08
 30
2.16
 70
192
 0
VERTEX
 5
26F
 8
0
 62
131
 10
1.18
 20
0.08
 30
2.505
 70
192
 0
VERTEX
 5
270
 8
0
 62
131
 10
1.16
 20
0.
 30
0.
 70
192
 0
VERTEX
 5
271
 8
0
 62
131
 10
1.16
 20
0.
 30
2.14
 70
192
 0
VERTEX
 5
272
 8
0
 62
131
 10
0.04
 20
0.03
 30
2.16
 70
192
 0
VERTEX
 5
273
 8
0
 62
131
 10
0.04
 20
0.03
 30
0.
 70
192
 0
VERTEX
 5
274
 8
0
 62
131
 10
1.22
 20
0.08
 30
2.545001506805419
 70
192
 0
VERTEX
 5
275
 8
0
 62
131
 10
0.
 20
0.08
 30
2.16
 70
192
 0
VERTEX
 5
276
 8
0
 62
131
 10
0.04
 20
0.08
 30
2.2
 70
192
 0
VERTEX
 5
277
 8
0
 62
131
 10
1.18
 20
0.08
 30
2.2
 70
192
 0
VERTEX
 5
278
 8
0
 62
131
 10
1.18
 20
0.03
 30
2.505
 70
192
 0
VERTEX
 5
279
 8
0
 62
131
 10
1.18
 20
0.03
 30
2.2
 70
192
 0
VERTEX
 5
27A
 8
0
 62
131
 10
0.06
 20
0.03
 30
2.14
 70
192
 0
VERTEX
 5
27B
 8
0
 62
131
 10
0.06
 20
0.03
 30
0.
 70
192
 0
VERTEX
 5
27C
 8
0
 62
131
 10
0.04
 20
0.08
 30
0.
 70
192
 0
VERTEX
 5
27D
 8
0
 62
131
 10
0.06
 20
0.
 30
2.22
 70
192
 0
VERTEX
 5
27E
 8
0
 62
131
 10
1.22
 20
0.
 30
2.545001506805419
 70
192
 0
VERTEX
 5
27F
 8
0
 62
131
 10
0.
 20
0.
 30
2.2
 70
192
 0
VERTEX
 5
280
 8
0
 62
131
 10
0.
 20
0.
 30
2.16
 70
192
 0
VERTEX
 5
281
 8
0
 62
131
 10
0.04
 20
0.08
 30
2.505
 70
192
 0
VERTEX
 5
282
 8
0
 62
131
 10
0.04
 20
0.03
 30
2.2
 70
192
 0
VERTEX
 5
283
 8
0
 62
131
 10
1.16
 20
0.03
 30
2.485
 70
192
 0
VERTEX
 5
284
 8
0
 62
131
 10
0.04
 20
0.03
 30
2.505
 70
192
 0
VERTEX
 5
285
 8
0
 62
131
 10
0.06
 20
0.
 30
2.14
 70
192
 0
VERTEX
 5
286
 8
0
 62
131
 10
0.
 20
0.
 30
0.
 70
192
 0
VERTEX
 5
287
 8
0
 62
131
 10
0.
 20
0.08
 30
0.
 70
192
 0
VERTEX
 5
288
 8
0
 62
131
 10
1.16
 20
0.
 30
2.22
 70
192
 0
VERTEX
 5
289
 8
0
 62
131
 10
1.16
 20
0.03
 30
2.22
 70
192
 0
VERTEX
 5
28A
 8
0
 62
131
 10
0.06
 20
0.03
 30
2.22
 70
192
 0
VERTEX
 5
28B
 8
0
 62
131
 10
0.
 20
0.
 30
2.545001506805419
 70
192
 0
VERTEX
 5
28C
 8
0
 62
131
 10
0.
 20
0.08
 30
2.2
 70
192
 0
VERTEX
 5
28D
 8
0
 62
131
 10
0.
 20
0.08
 30
2.545001506805419
 70
192
 0
VERTEX
 5
28E
 8
0
 62
131
 10
0.06
 20
0.03
 30
2.485
 70
192
 0
VERTEX
 5
28F
 8
0
 62
131
 10
0.06
 20
0.
 30
0.
 70
192
 0
VERTEX
 5
290
 8
0
 62
131
 10
0.06
 20
0.
 30
2.485
 70
192
 0
VERTEX
 5
291
 8
0
 62
131
 10
1.16
 20
0.
 30
2.485
 70
192
 0
VERTEX
 5
292
 8
0
 62
131
 10
-0.19
 20
-0.427
 30
2.975
 70
192
 0
VERTEX
 5
293
 8
0
 62
131
 10
1.41
 20
-0.447
 30
3.015
 70
192
 0
VERTEX
 5
294
 8
0
 62
131
 10
-0.19
 20
-0.447
 30
3.015
 70
192
 0
VERTEX
 5
295
 8
0
 62
131
 10
-0.19
 20
-0.2299138456583023
 30
3.2272739410400382
 70
192
 0
VERTEX
 5
296
 8
0
 62
131
 10
1.41
 20
-0.447
 30
2.975
 70
192
 0
VERTEX
 5
297
 8
0
 62
131
 10
-0.19
 20
-0.447
 30
2.975
 70
192
 0
VERTEX
 5
298
 8
0
 62
131
 10
1.41
 20
-0.427
 30
2.975
 70
192
 0
VERTEX
 5
299
 8
0
 62
131
 10
1.41
 20
-0.2299138456583023
 30
3.2272739410400382
 70
192
 0
VERTEX
 5
29A
 8
0
 62
131
 10
1.41
 20
-0.427
 30
2.935
 70
192
 0
VERTEX
 5
29B
 8
0
 62
131
 10
-0.19
 20
-0.427
 30
2.935
 70
192
 0
VERTEX
 5
29C
 8
0
 62
131
 10
-0.19
 20
-0.2299138456583023
 30
2.9372737407684322
 70
192
 0
VERTEX
 5
29D
 8
0
 62
131
 10
1.41
 20
-0.2299138456583023
 30
2.9372737407684322
 70
192
 0
VERTEX
 5
29E
 8
0
 62
131
 10
-0.02
 20
-0.3
 30
0.48
 70
192
 0
VERTEX
 5
29F
 8
0
 62
131
 10
-0.19
 20
-0.3
 30
0.45
 70
192
 0
VERTEX
 5
2A0
 8
0
 62
131
 10
-0.19
 20
0.
 30
0.45
 70
192
 0
VERTEX
 5
2A1
 8
0
 62
131
 10
0.01
 20
-0.3
 30
2.535
 70
192
 0
VERTEX
 5
2A2
 8
0
 62
131
 10
-0.02
 20
-0.3
 30
2.535
 70
192
 0
VERTEX
 5
2A3
 8
0
 62
131
 10
0.01
 20
-0.3
 30
0.45
 70
192
 0
VERTEX
 5
2A4
 8
0
 62
131
 10
-0.02
 20
-0.28
 30
0.48
 70
192
 0
VERTEX
 5
2A5
 8
0
 62
131
 10
-0.02
 20
-0.28
 30
2.535
 70
192
 0
VERTEX
 5
2A6
 8
0
 62
131
 10
-0.16
 20
-0.28
 30
2.535
 70
192
 0
VERTEX
 5
2A7
 8
0
 62
131
 10
-0.16
 20
-0.28
 30
0.48
 70
192
 0
VERTEX
 5
2A8
 8
0
 62
131
 10
-0.16
 20
-0.3
 30
0.48
 70
192
 0
VERTEX
 5
2A9
 8
0
 62
131
 10
-0.16
 20
-0.3
 30
2.565001249313354
 70
192
 0
VERTEX
 5
2AA
 8
0
 62
131
 10
-0.19
 20
0.
 30
2.535
 70
192
 0
VERTEX
 5
2AB
 8
0
 62
131
 10
0.03
 20
-0.32
 30
0.
 70
192
 0
VERTEX
 5
2AC
 8
0
 62
131
 10
-0.21
 20
-0.32
 30
0.45
 70
192
 0
VERTEX
 5
2AD
 8
0
 62
131
 10
-0.21
 20
-0.32
 30
0.
 70
192
 0
VERTEX
 5
2AE
 8
0
 62
131
 10
0.03
 20
0.
 30
0.45
 70
192
 0
VERTEX
 5
2AF
 8
0
 62
131
 10
0.03
 20
-0.32
 30
0.45
 70
192
 0
VERTEX
 5
2B0
 8
0
 62
131
 10
0.01
 20
0.
 30
0.45
 70
192
 0
VERTEX
 5
2B1
 8
0
 62
131
 10
-0.02
 20
-0.3
 30
2.565001249313354
 70
192
 0
VERTEX
 5
2B2
 8
0
 62
131
 10
-0.16
 20
-0.3
 30
2.535
 70
192
 0
VERTEX
 5
2B3
 8
0
 62
131
 10
-0.19
 20
-0.3
 30
2.535
 70
192
 0
VERTEX
 5
2B4
 8
0
 62
131
 10
-0.21
 20
0.
 30
0.45
 70
192
 0
VERTEX
 5
2B5
 8
0
 62
131
 10
-0.21
 20
0.
 30
0.
 70
192
 0
VERTEX
 5
2B6
 8
0
 62
131
 10
0.03
 20
0.
 30
0.
 70
192
 0
VERTEX
 5
2B7
 8
0
 62
131
 10
-0.02
 20
0.
 30
2.565001249313354
 70
192
 0
VERTEX
 5
2B8
 8
0
 62
131
 10
1.21
 20
-0.3
 30
2.565001249313354
 70
192
 0
VERTEX
 5
2B9
 8
0
 62
131
 10
-0.19
 20
-0.3
 30
2.565001249313354
 70
192
 0
VERTEX
 5
2BA
 8
0
 62
131
 10
-0.19
 20
0.
 30
2.565001249313354
 70
192
 0
VERTEX
 5
2BB
 8
0
 62
131
 10
-0.19
 20
0.
 30
2.7350010871887198
 70
192
 0
VERTEX
 5
2BC
 8
0
 62
131
 10
-0.16
 20
-0.28
 30
2.565001249313354
 70
192
 0
VERTEX
 5
2BD
 8
0
 62
131
 10
-0.16
 20
-0.28
 30
2.705
 70
192
 0
VERTEX
 5
2BE
 8
0
 62
131
 10
0.01
 20
0.
 30
2.7350010871887198
 70
192
 0
VERTEX
 5
2BF
 8
0
 62
131
 10
0.01
 20
0.
 30
2.535
 70
192
 0
VERTEX
 5
2C0
 8
0
 62
131
 10
-0.02
 20
0.
 30
2.7350010871887198
 70
192
 0
VERTEX
 5
2C1
 8
0
 62
131
 10
1.21
 20
-0.28
 30
2.565001249313354
 70
192
 0
VERTEX
 5
2C2
 8
0
 62
131
 10
0.01
 20
-0.3
 30
2.565001249313354
 70
192
 0
VERTEX
 5
2C3
 8
0
 62
131
 10
0.01
 20
-0.28
 30
2.565001249313354
 70
192
 0
VERTEX
 5
2C4
 8
0
 62
131
 10
0.01
 20
-0.3
 30
2.705
 70
192
 0
VERTEX
 5
2C5
 8
0
 62
131
 10
0.01
 20
-0.3
 30
2.7350010871887198
 70
192
 0
VERTEX
 5
2C6
 8
0
 62
131
 10
-0.02
 20
-0.28
 30
2.565001249313354
 70
192
 0
VERTEX
 5
2C7
 8
0
 62
131
 10
-0.02
 20
-0.3
 30
2.705
 70
192
 0
VERTEX
 5
2C8
 8
0
 62
131
 10
-0.19
 20
-0.3
 30
2.7350010871887198
 70
192
 0
VERTEX
 5
2C9
 8
0
 62
131
 10
-0.02
 20
-0.28
 30
2.705
 70
192
 0
VERTEX
 5
2CA
 8
0
 62
131
 10
-0.16
 20
-0.3
 30
2.705
 70
192
 0
VERTEX
 5
2CB
 8
0
 62
131
 10
1.21
 20
0.
 30
2.7350010871887198
 70
192
 0
VERTEX
 5
2CC
 8
0
 62
131
 10
1.21
 20
-0.3
 30
2.7350010871887198
 70
192
 0
VERTEX
 5
2CD
 8
0
 62
131
 10
1.24
 20
-0.3
 30
0.48
 70
192
 0
VERTEX
 5
2CE
 8
0
 62
131
 10
1.21
 20
-0.3
 30
2.535
 70
192
 0
VERTEX
 5
2CF
 8
0
 62
131
 10
1.21
 20
-0.3
 30
0.45
 70
192
 0
VERTEX
 5
2D0
 8
0
 62
131
 10
-0.02
 20
-0.3
 30
2.7350010871887198
 70
192
 0
VERTEX
 5
2D1
 8
0
 62
131
 10
1.21
 20
-0.28
 30
2.705
 70
192
 0
VERTEX
 5
2D2
 8
0
 62
131
 10
0.01
 20
-0.28
 30
2.705
 70
192
 0
VERTEX
 5
2D3
 8
0
 62
131
 10
1.21
 20
-0.3
 30
2.705
 70
192
 0
VERTEX
 5
2D4
 8
0
 62
131
 10
1.41
 20
0.
 30
2.565001249313354
 70
192
 0
VERTEX
 5
2D5
 8
0
 62
131
 10
1.24
 20
0.
 30
2.565001249313354
 70
192
 0
VERTEX
 5
2D6
 8
0
 62
131
 10
1.21
 20
0.
 30
2.535
 70
192
 0
VERTEX
 5
2D7
 8
0
 62
131
 10
1.41
 20
0.
 30
0.45
 70
192
 0
VERTEX
 5
2D8
 8
0
 62
131
 10
1.41
 20
0.
 30
2.535
 70
192
 0
VERTEX
 5
2D9
 8
0
 62
131
 10
1.19
 20
0.
 30
0.
 70
192
 0
VERTEX
 5
2DA
 8
0
 62
131
 10
1.21
 20
0.
 30
0.45
 70
192
 0
VERTEX
 5
2DB
 8
0
 62
131
 10
1.19
 20
0.
 30
0.45
 70
192
 0
VERTEX
 5
2DC
 8
0
 62
131
 10
1.19
 20
-0.32
 30
0.
 70
192
 0
VERTEX
 5
2DD
 8
0
 62
131
 10
1.41
 20
-0.3
 30
0.45
 70
192
 0
VERTEX
 5
2DE
 8
0
 62
131
 10
1.43
 20
-0.32
 30
0.45
 70
192
 0
VERTEX
 5
2DF
 8
0
 62
131
 10
1.24
 20
-0.28
 30
0.48
 70
192
 0
VERTEX
 5
2E0
 8
0
 62
131
 10
1.24
 20
-0.3
 30
2.535
 70
192
 0
VERTEX
 5
2E1
 8
0
 62
131
 10
1.41
 20
-0.3
 30
2.565001249313354
 70
192
 0
VERTEX
 5
2E2
 8
0
 62
131
 10
1.24
 20
-0.28
 30
2.565001249313354
 70
192
 0
VERTEX
 5
2E3
 8
0
 62
131
 10
1.24
 20
-0.28
 30
2.705
 70
192
 0
VERTEX
 5
2E4
 8
0
 62
131
 10
1.24
 20
-0.3
 30
2.565001249313354
 70
192
 0
VERTEX
 5
2E5
 8
0
 62
131
 10
1.24
 20
-0.3
 30
2.705
 70
192
 0
VERTEX
 5
2E6
 8
0
 62
131
 10
1.24
 20
0.
 30
2.7350010871887198
 70
192
 0
VERTEX
 5
2E7
 8
0
 62
131
 10
1.24
 20
-0.3
 30
2.7350010871887198
 70
192
 0
VERTEX
 5
2E8
 8
0
 62
131
 10
1.41
 20
0.
 30
2.7350010871887198
 70
192
 0
VERTEX
 5
2E9
 8
0
 62
131
 10
1.41
 20
-0.3
 30
2.535
 70
192
 0
VERTEX
 5
2EA
 8
0
 62
131
 10
1.38
 20
-0.3
 30
2.535
 70
192
 0
VERTEX
 5
2EB
 8
0
 62
131
 10
1.43
 20
0.
 30
0.
 70
192
 0
VERTEX
 5
2EC
 8
0
 62
131
 10
1.43
 20
0.
 30
0.45
 70
192
 0
VERTEX
 5
2ED
 8
0
 62
131
 10
1.43
 20
-0.32
 30
0.
 70
192
 0
VERTEX
 5
2EE
 8
0
 62
131
 10
1.19
 20
-0.32
 30
0.45
 70
192
 0
VERTEX
 5
2EF
 8
0
 62
131
 10
1.38
 20
-0.28
 30
0.48
 70
192
 0
VERTEX
 5
2F0
 8
0
 62
131
 10
1.24
 20
-0.28
 30
2.535
 70
192
 0
VERTEX
 5
2F1
 8
0
 62
131
 10
1.38
 20
-0.28
 30
2.535
 70
192
 0
VERTEX
 5
2F2
 8
0
 62
131
 10
1.38
 20
-0.3
 30
0.48
 70
192
 0
VERTEX
 5
2F3
 8
0
 62
131
 10
1.38
 20
-0.3
 30
2.705
 70
192
 0
VERTEX
 5
2F4
 8
0
 62
131
 10
1.41
 20
-0.3
 30
2.7350010871887198
 70
192
 0
VERTEX
 5
2F5
 8
0
 62
131
 10
1.38
 20
-0.3
 30
2.565001249313354
 70
192
 0
VERTEX
 5
2F6
 8
0
 62
131
 10
1.38
 20
-0.28
 30
2.705
 70
192
 0
VERTEX
 5
2F7
 8
0
 62
131
 10
1.38
 20
-0.28
 30
2.565001249313354
 70
192
 0
VERTEX
 5
2F8
 8
0
 62
131
 10
0.0
 20
0.0
 30
0.0
 70
128
 71
1
 72
5
 73
6
 74
2
 0
VERTEX
 5
2F9
 8
0
 62
131
 10
0.0
 20
0.0
 30
0.0
 70
128
 71
2
 72
6
 73
8
 74
7
 0
VERTEX
 5
2FA
 8
0
 62
131
 10
0.0
 20
0.0
 30
0.0
 70
128
 71
3
 72
1
 73
2
 74
7
 0
VERTEX
 5
2FB
 8
0
 62
131
 10
0.0
 20
0.0
 30
0.0
 70
128
 71
5
 72
1
 73
3
 74
4
 0
VERTEX
 5
2FC
 8
0
 62
131
 10
0.0
 20
0.0
 30
0.0
 70
128
 71
8
 72
6
 73
5
 74
4
 0
VERTEX
 5
2FD
 8
0
 62
131
 10
0.0
 20
0.0
 30
0.0
 70
128
 71
7
 72
8
 73
4
 74
3
 0
VERTEX
 5
2FE
 8
0
 62
131
 10
0.0
 20
0.0
 30
0.0
 70
128
 71
11
 72
10
 73
9
 74
14
 0
VERTEX
 5
2FF
 8
0
 62
131
 10
0.0
 20
0.0
 30
0.0
 70
128
 71
14
 72
9
 73
27
 74
15
 0
VERTEX
 5
300
 8
0
 62
131
 10
0.0
 20
0.0
 30
0.0
 70
128
 71
10
 72
22
 73
18
 74
9
 0
VERTEX
 5
301
 8
0
 62
131
 10
0.0
 20
0.0
 30
0.0
 70
128
 71
10
 72
11
 73
13
 74
12
 0
VERTEX
 5
302
 8
0
 62
131
 10
0.0
 20
0.0
 30
0.0
 70
128
 71
14
 72
30
 73
24
 74
11
 0
VERTEX
 5
303
 8
0
 62
131
 10
0.0
 20
0.0
 30
0.0
 70
128
 71
17
 72
16
 73
15
 74
27
 0
VERTEX
 5
304
 8
0
 62
131
 10
0.0
 20
0.0
 30
0.0
 70
128
 71
9
 72
18
 73
19
 74
27
 0
VERTEX
 5
305
 8
0
 62
131
 10
0.0
 20
0.0
 30
0.0
 70
128
 71
15
 72
26
 73
30
 74
14
 0
VERTEX
 5
306
 8
0
 62
131
 10
0.0
 20
0.0
 30
0.0
 70
128
 71
22
 72
20
 73
29
 74
18
 0
VERTEX
 5
307
 8
0
 62
131
 10
0.0
 20
0.0
 30
0.0
 70
128
 71
12
 72
21
 73
22
 74
10
 0
VERTEX
 5
308
 8
0
 62
131
 10
0.0
 20
0.0
 30
0.0
 70
128
 71
35
 72
33
 73
12
 74
13
 0
VERTEX
 5
309
 8
0
 62
131
 10
0.0
 20
0.0
 30
0.0
 70
128
 71
11
 72
24
 73
23
 74
13
 0
VERTEX
 5
30A
 8
0
 62
131
 10
0.0
 20
0.0
 30
0.0
 70
128
 71
30
 72
31
 73
25
 74
24
 0
VERTEX
 5
30B
 8
0
 62
131
 10
0.0
 20
0.0
 30
0.0
 70
128
 71
16
 72
38
 73
26
 74
15
 0
VERTEX
 5
30C
 8
0
 62
131
 10
0.0
 20
0.0
 30
0.0
 70
128
 71
38
 72
16
 73
17
 74
28
 0
VERTEX
 5
30D
 8
0
 62
131
 10
0.0
 20
0.0
 30
0.0
 70
128
 71
28
 72
17
 73
27
 74
19
 0
VERTEX
 5
30E
 8
0
 62
131
 10
0.0
 20
0.0
 30
0.0
 70
128
 71
44
 72
19
 73
18
 74
29
 0
VERTEX
 5
30F
 8
0
 62
131
 10
0.0
 20
0.0
 30
0.0
 70
128
 71
26
 72
45
 73
31
 74
30
 0
VERTEX
 5
310
 8
0
 62
131
 10
0.0
 20
0.0
 30
0.0
 70
128
 71
20
 72
32
 73
48
 74
29
 0
VERTEX
 5
311
 8
0
 62
131
 10
0.0
 20
0.0
 30
0.0
 70
128
 71
20
 72
22
 73
21
 74
55
 0
VERTEX
 5
312
 8
0
 62
131
 10
0.0
 20
0.0
 30
0.0
 70
128
 71
33
 72
41
 73
21
 74
12
 0
VERTEX
 5
313
 8
0
 62
131
 10
0.0
 20
0.0
 30
0.0
 70
128
 71
35
 72
34
 73
41
 74
33
 0
VERTEX
 5
314
 8
0
 62
131
 10
0.0
 20
0.0
 30
0.0
 70
128
 71
34
 72
35
 73
13
 74
23
 0
VERTEX
 5
315
 8
0
 62
131
 10
0.0
 20
0.0
 30
0.0
 70
128
 71
24
 72
25
 73
36
 74
23
 0
VERTEX
 5
316
 8
0
 62
131
 10
0.0
 20
0.0
 30
0.0
 70
128
 71
31
 72
39
 73
37
 74
25
 0
VERTEX
 5
317
 8
0
 62
131
 10
0.0
 20
0.0
 30
0.0
 70
128
 71
38
 72
28
 73
19
 74
26
 0
VERTEX
 5
318
 8
0
 62
131
 10
0.0
 20
0.0
 30
0.0
 70
128
 71
19
 72
44
 73
45
 74
26
 0
VERTEX
 5
319
 8
0
 62
131
 10
0.0
 20
0.0
 30
0.0
 70
128
 71
60
 72
44
 73
29
 74
48
 0
VERTEX
 5
31A
 8
0
 62
131
 10
0.0
 20
0.0
 30
0.0
 70
128
 71
45
 72
58
 73
39
 74
31
 0
VERTEX
 5
31B
 8
0
 62
131
 10
0.0
 20
0.0
 30
0.0
 70
128
 71
32
 72
54
 73
49
 74
48
 0
VERTEX
 5
31C
 8
0
 62
131
 10
0.0
 20
0.0
 30
0.0
 70
128
 71
55
 72
40
 73
32
 74
20
 0
VERTEX
 5
31D
 8
0
 62
131
 10
0.0
 20
0.0
 30
0.0
 70
128
 71
55
 72
21
 73
23
 74
36
 0
VERTEX
 5
31E
 8
0
 62
131
 10
0.0
 20
0.0
 30
0.0
 70
128
 71
41
 72
34
 73
23
 74
21
 0
VERTEX
 5
31F
 8
0
 62
131
 10
0.0
 20
0.0
 30
0.0
 70
128
 71
42
 72
36
 73
25
 74
37
 0
VERTEX
 5
320
 8
0
 62
131
 10
0.0
 20
0.0
 30
0.0
 70
128
 71
39
 72
51
 73
43
 74
37
 0
VERTEX
 5
321
 8
0
 62
131
 10
0.0
 20
0.0
 30
0.0
 70
128
 71
57
 72
46
 73
45
 74
44
 0
VERTEX
 5
322
 8
0
 62
131
 10
0.0
 20
0.0
 30
0.0
 70
128
 71
47
 72
57
 73
44
 74
60
 0
VERTEX
 5
323
 8
0
 62
131
 10
0.0
 20
0.0
 30
0.0
 70
128
 71
48
 72
49
 73
59
 74
60
 0
VERTEX
 5
324
 8
0
 62
131
 10
0.0
 20
0.0
 30
0.0
 70
128
 71
58
 72
50
 73
51
 74
39
 0
VERTEX
 5
325
 8
0
 62
131
 10
0.0
 20
0.0
 30
0.0
 70
128
 71
46
 72
52
 73
58
 74
45
 0
VERTEX
 5
326
 8
0
 62
131
 10
0.0
 20
0.0
 30
0.0
 70
128
 71
63
 72
49
 73
54
 74
53
 0
VERTEX
 5
327
 8
0
 62
131
 10
0.0
 20
0.0
 30
0.0
 70
128
 71
40
 72
76
 73
54
 74
32
 0
VERTEX
 5
328
 8
0
 62
131
 10
0.0
 20
0.0
 30
0.0
 70
128
 71
56
 72
65
 73
40
 74
55
 0
VERTEX
 5
329
 8
0
 62
131
 10
0.0
 20
0.0
 30
0.0
 70
128
 71
66
 72
56
 73
55
 74
36
 0
VERTEX
 5
32A
 8
0
 62
131
 10
0.0
 20
0.0
 30
0.0
 70
128
 71
67
 72
66
 73
36
 74
42
 0
VERTEX
 5
32B
 8
0
 62
131
 10
0.0
 20
0.0
 30
0.0
 70
128
 71
77
 72
42
 73
37
 74
43
 0
VERTEX
 5
32C
 8
0
 62
131
 10
0.0
 20
0.0
 30
0.0
 70
128
 71
64
 72
43
 73
51
 74
72
 0
VERTEX
 5
32D
 8
0
 62
131
 10
0.0
 20
0.0
 30
0.0
 70
128
 71
57
 72
47
 73
52
 74
46
 0
VERTEX
 5
32E
 8
0
 62
131
 10
0.0
 20
0.0
 30
0.0
 70
128
 71
52
 72
47
 73
60
 74
58
 0
VERTEX
 5
32F
 8
0
 62
131
 10
0.0
 20
0.0
 30
0.0
 70
128
 71
60
 72
59
 73
50
 74
58
 0
VERTEX
 5
330
 8
0
 62
131
 10
0.0
 20
0.0
 30
0.0
 70
128
 71
61
 72
59
 73
49
 74
63
 0
VERTEX
 5
331
 8
0
 62
131
 10
0.0
 20
0.0
 30
0.0
 70
128
 71
72
 72
51
 73
50
 74
71
 0
VERTEX
 5
332
 8
0
 62
131
 10
0.0
 20
0.0
 30
0.0
 70
128
 71
53
 72
54
 73
76
 74
62
 0
VERTEX
 5
333
 8
0
 62
131
 10
0.0
 20
0.0
 30
0.0
 70
128
 71
53
 72
64
 73
72
 74
63
 0
VERTEX
 5
334
 8
0
 62
131
 10
0.0
 20
0.0
 30
0.0
 70
128
 71
76
 72
40
 73
42
 74
77
 0
VERTEX
 5
335
 8
0
 62
131
 10
0.0
 20
0.0
 30
0.0
 70
128
 71
65
 72
67
 73
42
 74
40
 0
VERTEX
 5
336
 8
0
 62
131
 10
0.0
 20
0.0
 30
0.0
 70
128
 71
78
 72
85
 73
65
 74
56
 0
VERTEX
 5
337
 8
0
 62
131
 10
0.0
 20
0.0
 30
0.0
 70
128
 71
56
 72
66
 73
79
 74
78
 0
VERTEX
 5
338
 8
0
 62
131
 10
0.0
 20
0.0
 30
0.0
 70
128
 71
66
 72
67
 73
68
 74
79
 0
VERTEX
 5
339
 8
0
 62
131
 10
0.0
 20
0.0
 30
0.0
 70
128
 71
69
 72
77
 73
43
 74
64
 0
VERTEX
 5
33A
 8
0
 62
131
 10
0.0
 20
0.0
 30
0.0
 70
128
 71
70
 72
73
 73
50
 74
59
 0
VERTEX
 5
33B
 8
0
 62
131
 10
0.0
 20
0.0
 30
0.0
 70
128
 71
82
 72
70
 73
59
 74
61
 0
VERTEX
 5
33C
 8
0
 62
131
 10
0.0
 20
0.0
 30
0.0
 70
128
 71
71
 72
61
 73
63
 74
72
 0
VERTEX
 5
33D
 8
0
 62
131
 10
0.0
 20
0.0
 30
0.0
 70
128
 71
73
 72
83
 73
71
 74
50
 0
VERTEX
 5
33E
 8
0
 62
131
 10
0.0
 20
0.0
 30
0.0
 70
128
 71
75
 72
74
 73
62
 74
76
 0
VERTEX
 5
33F
 8
0
 62
131
 10
0.0
 20
0.0
 30
0.0
 70
128
 71
64
 72
53
 73
62
 74
69
 0
VERTEX
 5
340
 8
0
 62
131
 10
0.0
 20
0.0
 30
0.0
 70
128
 71
84
 72
75
 73
76
 74
77
 0
VERTEX
 5
341
 8
0
 62
131
 10
0.0
 20
0.0
 30
0.0
 70
128
 71
85
 72
68
 73
67
 74
65
 0
VERTEX
 5
342
 8
0
 62
131
 10
0.0
 20
0.0
 30
0.0
 70
128
 71
87
 72
86
 73
85
 74
78
 0
VERTEX
 5
343
 8
0
 62
131
 10
0.0
 20
0.0
 30
0.0
 70
128
 71
80
 72
87
 73
78
 74
79
 0
VERTEX
 5
344
 8
0
 62
131
 10
0.0
 20
0.0
 30
0.0
 70
128
 71
90
 72
80
 73
79
 74
68
 0
VERTEX
 5
345
 8
0
 62
131
 10
0.0
 20
0.0
 30
0.0
 70
128
 71
81
 72
84
 73
77
 74
69
 0
VERTEX
 5
346
 8
0
 62
131
 10
0.0
 20
0.0
 30
0.0
 70
128
 71
70
 72
82
 73
83
 74
73
 0
VERTEX
 5
347
 8
0
 62
131
 10
0.0
 20
0.0
 30
0.0
 70
128
 71
83
 72
82
 73
61
 74
71
 0
VERTEX
 5
348
 8
0
 62
131
 10
0.0
 20
0.0
 30
0.0
 70
128
 71
74
 72
81
 73
69
 74
62
 0
VERTEX
 5
349
 8
0
 62
131
 10
0.0
 20
0.0
 30
0.0
 70
128
 71
74
 72
75
 73
84
 74
81
 0
VERTEX
 5
34A
 8
0
 62
131
 10
0.0
 20
0.0
 30
0.0
 70
128
 71
86
 72
90
 73
68
 74
85
 0
VERTEX
 5
34B
 8
0
 62
131
 10
0.0
 20
0.0
 30
0.0
 70
128
 71
89
 72
86
 73
87
 0
VERTEX
 5
34C
 8
0
 62
131
 10
0.0
 20
0.0
 30
0.0
 70
128
 71
88
 72
89
 73
87
 74
80
 0
VERTEX
 5
34D
 8
0
 62
131
 10
0.0
 20
0.0
 30
0.0
 70
128
 71
88
 72
80
 73
90
 0
VERTEX
 5
34E
 8
0
 62
131
 10
0.0
 20
0.0
 30
0.0
 70
128
 71
90
 72
86
 73
89
 74
88
 0
VERTEX
 5
34F
 8
0
 62
131
 10
0.0
 20
0.0
 30
0.0
 70
128
 71
91
 72
96
 73
95
 74
99
 0
VERTEX
 5
350
 8
0
 62
131
 10
0.0
 20
0.0
 30
0.0
 70
128
 71
92
 72
93
 73
96
 74
91
 0
VERTEX
 5
351
 8
0
 62
131
 10
0.0
 20
0.0
 30
0.0
 70
128
 71
96
 72
100
 73
94
 74
95
 0
VERTEX
 5
352
 8
0
 62
131
 10
0.0
 20
0.0
 30
0.0
 70
128
 71
97
 72
114
 73
99
 74
95
 0
VERTEX
 5
353
 8
0
 62
131
 10
0.0
 20
0.0
 30
0.0
 70
128
 71
99
 72
105
 73
98
 74
91
 0
VERTEX
 5
354
 8
0
 62
131
 10
0.0
 20
0.0
 30
0.0
 70
128
 71
93
 72
92
 73
108
 74
109
 0
VERTEX
 5
355
 8
0
 62
131
 10
0.0
 20
0.0
 30
0.0
 70
128
 71
93
 72
110
 73
100
 74
96
 0
VERTEX
 5
356
 8
0
 62
131
 10
0.0
 20
0.0
 30
0.0
 70
128
 71
91
 72
98
 73
106
 74
92
 0
VERTEX
 5
357
 8
0
 62
131
 10
0.0
 20
0.0
 30
0.0
 70
128
 71
100
 72
102
 73
101
 74
94
 0
VERTEX
 5
358
 8
0
 62
131
 10
0.0
 20
0.0
 30
0.0
 70
128
 71
95
 72
94
 73
113
 74
97
 0
VERTEX
 5
359
 8
0
 62
131
 10
0.0
 20
0.0
 30
0.0
 70
128
 71
114
 72
97
 73
104
 74
103
 0
VERTEX
 5
35A
 8
0
 62
131
 10
0.0
 20
0.0
 30
0.0
 70
128
 71
114
 72
122
 73
105
 74
99
 0
VERTEX
 5
35B
 8
0
 62
131
 10
0.0
 20
0.0
 30
0.0
 70
128
 71
105
 72
115
 73
119
 74
98
 0
VERTEX
 5
35C
 8
0
 62
131
 10
0.0
 20
0.0
 30
0.0
 70
128
 71
92
 72
106
 73
107
 74
108
 0
VERTEX
 5
35D
 8
0
 62
131
 10
0.0
 20
0.0
 30
0.0
 70
128
 71
117
 72
109
 73
108
 74
107
 0
VERTEX
 5
35E
 8
0
 62
131
 10
0.0
 20
0.0
 30
0.0
 70
128
 71
110
 72
93
 73
109
 74
117
 0
VERTEX
 5
35F
 8
0
 62
131
 10
0.0
 20
0.0
 30
0.0
 70
128
 71
102
 72
100
 73
110
 74
127
 0
VERTEX
 5
360
 8
0
 62
131
 10
0.0
 20
0.0
 30
0.0
 70
128
 71
98
 72
119
 73
125
 74
106
 0
VERTEX
 5
361
 8
0
 62
131
 10
0.0
 20
0.0
 30
0.0
 70
128
 71
102
 72
118
 73
111
 74
101
 0
VERTEX
 5
362
 8
0
 62
131
 10
0.0
 20
0.0
 30
0.0
 70
128
 71
112
 72
113
 73
94
 74
101
 0
VERTEX
 5
363
 8
0
 62
131
 10
0.0
 20
0.0
 30
0.0
 70
128
 71
97
 72
113
 73
120
 74
104
 0
VERTEX
 5
364
 8
0
 62
131
 10
0.0
 20
0.0
 30
0.0
 70
128
 71
104
 72
120
 73
121
 74
103
 0
VERTEX
 5
365
 8
0
 62
131
 10
0.0
 20
0.0
 30
0.0
 70
128
 71
122
 72
114
 73
103
 74
121
 0
VERTEX
 5
366
 8
0
 62
131
 10
0.0
 20
0.0
 30
0.0
 70
128
 71
122
 72
136
 73
115
 74
105
 0
VERTEX
 5
367
 8
0
 62
131
 10
0.0
 20
0.0
 30
0.0
 70
128
 71
115
 72
116
 73
130
 74
119
 0
VERTEX
 5
368
 8
0
 62
131
 10
0.0
 20
0.0
 30
0.0
 70
128
 71
106
 72
110
 73
117
 74
107
 0
VERTEX
 5
369
 8
0
 62
131
 10
0.0
 20
0.0
 30
0.0
 70
128
 71
106
 72
125
 73
127
 74
110
 0
VERTEX
 5
36A
 8
0
 62
131
 10
0.0
 20
0.0
 30
0.0
 70
128
 71
118
 72
102
 73
127
 74
143
 0
VERTEX
 5
36B
 8
0
 62
131
 10
0.0
 20
0.0
 30
0.0
 70
128
 71
119
 72
130
 73
131
 74
125
 0
VERTEX
 5
36C
 8
0
 62
131
 10
0.0
 20
0.0
 30
0.0
 70
128
 71
118
 72
128
 73
134
 74
111
 0
VERTEX
 5
36D
 8
0
 62
131
 10
0.0
 20
0.0
 30
0.0
 70
128
 71
101
 72
111
 73
146
 74
112
 0
VERTEX
 5
36E
 8
0
 62
131
 10
0.0
 20
0.0
 30
0.0
 70
128
 71
136
 72
122
 73
113
 74
112
 0
VERTEX
 5
36F
 8
0
 62
131
 10
0.0
 20
0.0
 30
0.0
 70
128
 71
113
 72
122
 73
121
 74
120
 0
VERTEX
 5
370
 8
0
 62
131
 10
0.0
 20
0.0
 30
0.0
 70
128
 71
116
 72
115
 73
136
 74
137
 0
VERTEX
 5
371
 8
0
 62
131
 10
0.0
 20
0.0
 30
0.0
 70
128
 71
116
 72
123
 73
124
 74
130
 0
VERTEX
 5
372
 8
0
 62
131
 10
0.0
 20
0.0
 30
0.0
 70
128
 71
127
 72
125
 73
132
 74
126
 0
VERTEX
 5
373
 8
0
 62
131
 10
0.0
 20
0.0
 30
0.0
 70
128
 71
143
 72
127
 73
126
 74
141
 0
VERTEX
 5
374
 8
0
 62
131
 10
0.0
 20
0.0
 30
0.0
 70
128
 71
143
 72
129
 73
128
 74
118
 0
VERTEX
 5
375
 8
0
 62
131
 10
0.0
 20
0.0
 30
0.0
 70
128
 71
130
 72
124
 73
145
 74
131
 0
VERTEX
 5
376
 8
0
 62
131
 10
0.0
 20
0.0
 30
0.0
 70
128
 71
125
 72
131
 73
142
 74
132
 0
VERTEX
 5
377
 8
0
 62
131
 10
0.0
 20
0.0
 30
0.0
 70
128
 71
133
 72
134
 73
128
 74
144
 0
VERTEX
 5
378
 8
0
 62
131
 10
0.0
 20
0.0
 30
0.0
 70
128
 71
111
 72
134
 73
156
 74
146
 0
VERTEX
 5
379
 8
0
 62
131
 10
0.0
 20
0.0
 30
0.0
 70
128
 71
112
 72
146
 73
147
 74
135
 0
VERTEX
 5
37A
 8
0
 62
131
 10
0.0
 20
0.0
 30
0.0
 70
128
 71
136
 72
112
 73
135
 74
138
 0
VERTEX
 5
37B
 8
0
 62
131
 10
0.0
 20
0.0
 30
0.0
 70
128
 71
137
 72
136
 73
138
 74
150
 0
VERTEX
 5
37C
 8
0
 62
131
 10
0.0
 20
0.0
 30
0.0
 70
128
 71
123
 72
116
 73
137
 74
161
 0
VERTEX
 5
37D
 8
0
 62
131
 10
0.0
 20
0.0
 30
0.0
 70
128
 71
140
 72
124
 73
123
 74
139
 0
VERTEX
 5
37E
 8
0
 62
131
 10
0.0
 20
0.0
 30
0.0
 70
128
 71
132
 72
142
 73
141
 74
126
 0
VERTEX
 5
37F
 8
0
 62
131
 10
0.0
 20
0.0
 30
0.0
 70
128
 71
131
 72
143
 73
141
 74
142
 0
VERTEX
 5
380
 8
0
 62
131
 10
0.0
 20
0.0
 30
0.0
 70
128
 71
131
 72
145
 73
129
 74
143
 0
VERTEX
 5
381
 8
0
 62
131
 10
0.0
 20
0.0
 30
0.0
 70
128
 71
144
 72
128
 73
129
 74
163
 0
VERTEX
 5
382
 8
0
 62
131
 10
0.0
 20
0.0
 30
0.0
 70
128
 71
152
 72
145
 73
124
 74
140
 0
VERTEX
 5
383
 8
0
 62
131
 10
0.0
 20
0.0
 30
0.0
 70
128
 71
155
 72
156
 73
134
 74
133
 0
VERTEX
 5
384
 8
0
 62
131
 10
0.0
 20
0.0
 30
0.0
 70
128
 71
144
 72
140
 73
139
 74
133
 0
VERTEX
 5
385
 8
0
 62
131
 10
0.0
 20
0.0
 30
0.0
 70
128
 71
161
 72
137
 73
146
 74
156
 0
VERTEX
 5
386
 8
0
 62
131
 10
0.0
 20
0.0
 30
0.0
 70
128
 71
146
 72
137
 73
150
 74
147
 0
VERTEX
 5
387
 8
0
 62
131
 10
0.0
 20
0.0
 30
0.0
 70
128
 71
135
 72
147
 73
157
 74
158
 0
VERTEX
 5
388
 8
0
 62
131
 10
0.0
 20
0.0
 30
0.0
 70
128
 71
158
 72
148
 73
138
 74
135
 0
VERTEX
 5
389
 8
0
 62
131
 10
0.0
 20
0.0
 30
0.0
 70
128
 71
148
 72
149
 73
150
 74
138
 0
VERTEX
 5
38A
 8
0
 62
131
 10
0.0
 20
0.0
 30
0.0
 70
128
 71
139
 72
123
 73
161
 74
151
 0
VERTEX
 5
38B
 8
0
 62
131
 10
0.0
 20
0.0
 30
0.0
 70
128
 71
129
 72
145
 73
154
 74
162
 0
VERTEX
 5
38C
 8
0
 62
131
 10
0.0
 20
0.0
 30
0.0
 70
128
 71
163
 72
129
 73
162
 74
164
 0
VERTEX
 5
38D
 8
0
 62
131
 10
0.0
 20
0.0
 30
0.0
 70
128
 71
140
 72
144
 73
163
 74
152
 0
VERTEX
 5
38E
 8
0
 62
131
 10
0.0
 20
0.0
 30
0.0
 70
128
 71
145
 72
152
 73
153
 74
154
 0
VERTEX
 5
38F
 8
0
 62
131
 10
0.0
 20
0.0
 30
0.0
 70
128
 71
156
 72
155
 73
165
 74
166
 0
VERTEX
 5
390
 8
0
 62
131
 10
0.0
 20
0.0
 30
0.0
 70
128
 71
151
 72
155
 73
133
 74
139
 0
VERTEX
 5
391
 8
0
 62
131
 10
0.0
 20
0.0
 30
0.0
 70
128
 71
161
 72
156
 73
166
 74
159
 0
VERTEX
 5
392
 8
0
 62
131
 10
0.0
 20
0.0
 30
0.0
 70
128
 71
147
 72
150
 73
149
 74
157
 0
VERTEX
 5
393
 8
0
 62
131
 10
0.0
 20
0.0
 30
0.0
 70
128
 71
158
 72
157
 73
167
 74
169
 0
VERTEX
 5
394
 8
0
 62
131
 10
0.0
 20
0.0
 30
0.0
 70
128
 71
148
 72
158
 73
169
 74
170
 0
VERTEX
 5
395
 8
0
 62
131
 10
0.0
 20
0.0
 30
0.0
 70
128
 71
149
 72
148
 73
170
 74
171
 0
VERTEX
 5
396
 8
0
 62
131
 10
0.0
 20
0.0
 30
0.0
 70
128
 71
151
 72
161
 73
159
 74
160
 0
VERTEX
 5
397
 8
0
 62
131
 10
0.0
 20
0.0
 30
0.0
 70
128
 71
154
 72
153
 73
164
 74
162
 0
VERTEX
 5
398
 8
0
 62
131
 10
0.0
 20
0.0
 30
0.0
 70
128
 71
152
 72
163
 73
164
 74
153
 0
VERTEX
 5
399
 8
0
 62
131
 10
0.0
 20
0.0
 30
0.0
 70
128
 71
155
 72
151
 73
160
 74
165
 0
VERTEX
 5
39A
 8
0
 62
131
 10
0.0
 20
0.0
 30
0.0
 70
128
 71
160
 72
159
 73
166
 74
165
 0
VERTEX
 5
39B
 8
0
 62
131
 10
0.0
 20
0.0
 30
0.0
 70
128
 71
157
 72
149
 73
171
 74
167
 0
VERTEX
 5
39C
 8
0
 62
131
 10
0.0
 20
0.0
 30
0.0
 70
128
 71
169
 72
167
 73
172
 0
VERTEX
 5
39D
 8
0
 62
131
 10
0.0
 20
0.0
 30
0.0
 70
128
 71
170
 72
169
 73
172
 74
168
 0
VERTEX
 5
39E
 8
0
 62
131
 10
0.0
 20
0.0
 30
0.0
 70
128
 71
171
 72
170
 73
168
 0
VERTEX
 5
39F
 8
0
 62
131
 10
0.0
 20
0.0
 30
0.0
 70
128
 71
168
 72
172
 73
167
 74
171
 0
VERTEX
 5
3A0
 8
0
 62
131
 10
0.0
 20
0.0
 30
0.0
 70
128
 71
173
 72
175
 73
177
 74
174
 0
VERTEX
 5
3A1
 8
0
 62
131
 10
0.0
 20
0.0
 30
0.0
 70
128
 71
176
 72
175
 73
173
 74
180
 0
VERTEX
 5
3A2
 8
0
 62
131
 10
0.0
 20
0.0
 30
0.0
 70
128
 71
175
 72
176
 73
178
 74
177
 0
VERTEX
 5
3A3
 8
0
 62
131
 10
0.0
 20
0.0
 30
0.0
 70
128
 71
177
 72
178
 73
179
 74
174
 0
VERTEX
 5
3A4
 8
0
 62
131
 10
0.0
 20
0.0
 30
0.0
 70
128
 71
180
 72
173
 73
174
 74
179
 0
VERTEX
 5
3A5
 8
0
 62
131
 10
0.0
 20
0.0
 30
0.0
 70
128
 71
176
 72
180
 73
179
 74
178
 0
VERTEX
 5
3A6
 8
0
 62
131
 10
0.0
 20
0.0
 30
0.0
 70
128
 71
181
 72
187
 73
191
 74
184
 0
VERTEX
 5
3A7
 8
0
 62
131
 10
0.0
 20
0.0
 30
0.0
 70
128
 71
190
 72
185
 73
187
 74
181
 0
VERTEX
 5
3A8
 8
0
 62
131
 10
0.0
 20
0.0
 30
0.0
 70
128
 71
191
 72
187
 73
186
 74
182
 0
VERTEX
 5
3A9
 8
0
 62
131
 10
0.0
 20
0.0
 30
0.0
 70
128
 71
184
 72
191
 73
183
 74
193
 0
VERTEX
 5
3AA
 8
0
 62
131
 10
0.0
 20
0.0
 30
0.0
 70
128
 71
189
 72
181
 73
184
 74
192
 0
VERTEX
 5
3AB
 8
0
 62
131
 10
0.0
 20
0.0
 30
0.0
 70
128
 71
190
 72
194
 73
198
 74
185
 0
VERTEX
 5
3AC
 8
0
 62
131
 10
0.0
 20
0.0
 30
0.0
 70
128
 71
186
 72
187
 73
185
 74
188
 0
VERTEX
 5
3AD
 8
0
 62
131
 10
0.0
 20
0.0
 30
0.0
 70
128
 71
189
 72
190
 73
181
 0
VERTEX
 5
3AE
 8
0
 62
131
 10
0.0
 20
0.0
 30
0.0
 70
128
 71
186
 72
188
 73
195
 74
182
 0
VERTEX
 5
3AF
 8
0
 62
131
 10
0.0
 20
0.0
 30
0.0
 70
128
 71
195
 72
183
 73
191
 74
182
 0
VERTEX
 5
3B0
 8
0
 62
131
 10
0.0
 20
0.0
 30
0.0
 70
128
 71
183
 72
199
 73
196
 74
193
 0
VERTEX
 5
3B1
 8
0
 62
131
 10
0.0
 20
0.0
 30
0.0
 70
128
 71
192
 72
184
 73
193
 0
VERTEX
 5
3B2
 8
0
 62
131
 10
0.0
 20
0.0
 30
0.0
 70
128
 71
190
 72
189
 73
192
 74
193
 0
VERTEX
 5
3B3
 8
0
 62
131
 10
0.0
 20
0.0
 30
0.0
 70
128
 71
194
 72
190
 73
193
 74
196
 0
VERTEX
 5
3B4
 8
0
 62
131
 10
0.0
 20
0.0
 30
0.0
 70
128
 71
194
 72
197
 73
198
 0
VERTEX
 5
3B5
 8
0
 62
131
 10
0.0
 20
0.0
 30
0.0
 70
128
 71
199
 72
183
 73
185
 74
198
 0
VERTEX
 5
3B6
 8
0
 62
131
 10
0.0
 20
0.0
 30
0.0
 70
128
 71
188
 72
185
 73
183
 74
195
 0
VERTEX
 5
3B7
 8
0
 62
131
 10
0.0
 20
0.0
 30
0.0
 70
128
 71
201
 72
196
 73
199
 0
VERTEX
 5
3B8
 8
0
 62
131
 10
0.0
 20
0.0
 30
0.0
 70
128
 71
197
 72
194
 73
196
 74
201
 0
VERTEX
 5
3B9
 8
0
 62
131
 10
0.0
 20
0.0
 30
0.0
 70
128
 71
197
 72
204
 73
203
 74
198
 0
VERTEX
 5
3BA
 8
0
 62
131
 10
0.0
 20
0.0
 30
0.0
 70
128
 71
198
 72
203
 73
205
 74
199
 0
VERTEX
 5
3BB
 8
0
 62
131
 10
0.0
 20
0.0
 30
0.0
 70
128
 71
200
 72
201
 73
199
 74
205
 0
VERTEX
 5
3BC
 8
0
 62
131
 10
0.0
 20
0.0
 30
0.0
 70
128
 71
197
 72
201
 73
200
 74
204
 0
VERTEX
 5
3BD
 8
0
 62
131
 10
0.0
 20
0.0
 30
0.0
 70
128
 71
202
 72
203
 73
204
 0
VERTEX
 5
3BE
 8
0
 62
131
 10
0.0
 20
0.0
 30
0.0
 70
128
 71
206
 72
205
 73
203
 74
202
 0
VERTEX
 5
3BF
 8
0
 62
131
 10
0.0
 20
0.0
 30
0.0
 70
128
 71
206
 72
200
 73
205
 0
VERTEX
 5
3C0
 8
0
 62
131
 10
0.0
 20
0.0
 30
0.0
 70
128
 71
204
 72
200
 73
206
 74
202
 0
VERTEX
 5
3C1
 8
0
 62
131
 10
0.0
 20
0.0
 30
0.0
 70
128
 71
214
 72
207
 73
216
 74
209
 0
VERTEX
 5
3C2
 8
0
 62
131
 10
0.0
 20
0.0
 30
0.0
 70
128
 71
213
 72
211
 73
207
 74
214
 0
VERTEX
 5
3C3
 8
0
 62
131
 10
0.0
 20
0.0
 30
0.0
 70
128
 71
216
 72
207
 73
208
 74
215
 0
VERTEX
 5
3C4
 8
0
 62
131
 10
0.0
 20
0.0
 30
0.0
 70
128
 71
209
 72
216
 73
223
 74
218
 0
VERTEX
 5
3C5
 8
0
 62
131
 10
0.0
 20
0.0
 30
0.0
 70
128
 71
219
 72
214
 73
209
 74
210
 0
VERTEX
 5
3C6
 8
0
 62
131
 10
0.0
 20
0.0
 30
0.0
 70
128
 71
213
 72
221
 73
222
 74
211
 0
VERTEX
 5
3C7
 8
0
 62
131
 10
0.0
 20
0.0
 30
0.0
 70
128
 71
208
 72
207
 73
211
 74
212
 0
VERTEX
 5
3C8
 8
0
 62
131
 10
0.0
 20
0.0
 30
0.0
 70
128
 71
219
 72
213
 73
214
 0
VERTEX
 5
3C9
 8
0
 62
131
 10
0.0
 20
0.0
 30
0.0
 70
128
 71
208
 72
212
 73
224
 74
215
 0
VERTEX
 5
3CA
 8
0
 62
131
 10
0.0
 20
0.0
 30
0.0
 70
128
 71
224
 72
223
 73
216
 74
215
 0
VERTEX
 5
3CB
 8
0
 62
131
 10
0.0
 20
0.0
 30
0.0
 70
128
 71
223
 72
225
 73
217
 74
218
 0
VERTEX
 5
3CC
 8
0
 62
131
 10
0.0
 20
0.0
 30
0.0
 70
128
 71
210
 72
209
 73
218
 0
VERTEX
 5
3CD
 8
0
 62
131
 10
0.0
 20
0.0
 30
0.0
 70
128
 71
213
 72
219
 73
210
 74
218
 0
VERTEX
 5
3CE
 8
0
 62
131
 10
0.0
 20
0.0
 30
0.0
 70
128
 71
221
 72
213
 73
218
 74
217
 0
VERTEX
 5
3CF
 8
0
 62
131
 10
0.0
 20
0.0
 30
0.0
 70
128
 71
221
 72
220
 73
222
 0
VERTEX
 5
3D0
 8
0
 62
131
 10
0.0
 20
0.0
 30
0.0
 70
128
 71
225
 72
223
 73
211
 74
222
 0
VERTEX
 5
3D1
 8
0
 62
131
 10
0.0
 20
0.0
 30
0.0
 70
128
 71
212
 72
211
 73
223
 74
224
 0
VERTEX
 5
3D2
 8
0
 62
131
 10
0.0
 20
0.0
 30
0.0
 70
128
 71
226
 72
217
 73
225
 0
VERTEX
 5
3D3
 8
0
 62
131
 10
0.0
 20
0.0
 30
0.0
 70
128
 71
220
 72
221
 73
217
 74
226
 0
VERTEX
 5
3D4
 8
0
 62
131
 10
0.0
 20
0.0
 30
0.0
 70
128
 71
220
 72
228
 73
230
 74
222
 0
VERTEX
 5
3D5
 8
0
 62
131
 10
0.0
 20
0.0
 30
0.0
 70
128
 71
222
 72
230
 73
227
 74
225
 0
VERTEX
 5
3D6
 8
0
 62
131
 10
0.0
 20
0.0
 30
0.0
 70
128
 71
232
 72
226
 73
225
 74
227
 0
VERTEX
 5
3D7
 8
0
 62
131
 10
0.0
 20
0.0
 30
0.0
 70
128
 71
220
 72
226
 73
232
 74
228
 0
VERTEX
 5
3D8
 8
0
 62
131
 10
0.0
 20
0.0
 30
0.0
 70
128
 71
229
 72
230
 73
228
 0
VERTEX
 5
3D9
 8
0
 62
131
 10
0.0
 20
0.0
 30
0.0
 70
128
 71
231
 72
227
 73
230
 74
229
 0
VERTEX
 5
3DA
 8
0
 62
131
 10
0.0
 20
0.0
 30
0.0
 70
128
 71
231
 72
232
 73
227
 0
VERTEX
 5
3DB
 8
0
 62
131
 10
0.0
 20
0.0
 30
0.0
 70
128
 71
228
 72
232
 73
231
 74
229
 0
VERTEX
 5
3DC
 8
0
 62
131
 10
0.0
 20
0.0
 30
0.0
 70
128
 71
233
 72
235
 73
234
 74
237
 0
VERTEX
 5
3DD
 8
0
 62
131
 10
0.0
 20
0.0
 30
0.0
 70
128
 71
242
 72
238
 73
235
 74
233
 0
VERTEX
 5
3DE
 8
0
 62
131
 10
0.0
 20
0.0
 30
0.0
 70
128
 71
234
 72
235
 73
240
 74
241
 0
VERTEX
 5
3DF
 8
0
 62
131
 10
0.0
 20
0.0
 30
0.0
 70
128
 71
237
 72
234
 73
236
 74
246
 0
VERTEX
 5
3E0
 8
0
 62
131
 10
0.0
 20
0.0
 30
0.0
 70
128
 71
243
 72
233
 73
237
 74
244
 0
VERTEX
 5
3E1
 8
0
 62
131
 10
0.0
 20
0.0
 30
0.0
 70
128
 71
242
 72
247
 73
252
 74
238
 0
VERTEX
 5
3E2
 8
0
 62
131
 10
0.0
 20
0.0
 30
0.0
 70
128
 71
240
 72
235
 73
238
 74
239
 0
VERTEX
 5
3E3
 8
0
 62
131
 10
0.0
 20
0.0
 30
0.0
 70
128
 71
243
 72
242
 73
233
 0
VERTEX
 5
3E4
 8
0
 62
131
 10
0.0
 20
0.0
 30
0.0
 70
128
 71
240
 72
239
 73
249
 74
241
 0
VERTEX
 5
3E5
 8
0
 62
131
 10
0.0
 20
0.0
 30
0.0
 70
128
 71
249
 72
236
 73
234
 74
241
 0
VERTEX
 5
3E6
 8
0
 62
131
 10
0.0
 20
0.0
 30
0.0
 70
128
 71
236
 72
250
 73
245
 74
246
 0
VERTEX
 5
3E7
 8
0
 62
131
 10
0.0
 20
0.0
 30
0.0
 70
128
 71
244
 72
237
 73
246
 0
VERTEX
 5
3E8
 8
0
 62
131
 10
0.0
 20
0.0
 30
0.0
 70
128
 71
242
 72
243
 73
244
 74
246
 0
VERTEX
 5
3E9
 8
0
 62
131
 10
0.0
 20
0.0
 30
0.0
 70
128
 71
247
 72
242
 73
246
 74
245
 0
VERTEX
 5
3EA
 8
0
 62
131
 10
0.0
 20
0.0
 30
0.0
 70
128
 71
247
 72
248
 73
252
 0
VERTEX
 5
3EB
 8
0
 62
131
 10
0.0
 20
0.0
 30
0.0
 70
128
 71
250
 72
236
 73
238
 74
252
 0
VERTEX
 5
3EC
 8
0
 62
131
 10
0.0
 20
0.0
 30
0.0
 70
128
 71
239
 72
238
 73
236
 74
249
 0
VERTEX
 5
3ED
 8
0
 62
131
 10
0.0
 20
0.0
 30
0.0
 70
128
 71
251
 72
245
 73
250
 0
VERTEX
 5
3EE
 8
0
 62
131
 10
0.0
 20
0.0
 30
0.0
 70
128
 71
248
 72
247
 73
245
 74
251
 0
VERTEX
 5
3EF
 8
0
 62
131
 10
0.0
 20
0.0
 30
0.0
 70
128
 71
248
 72
254
 73
255
 74
252
 0
VERTEX
 5
3F0
 8
0
 62
131
 10
0.0
 20
0.0
 30
0.0
 70
128
 71
252
 72
255
 73
257
 74
250
 0
VERTEX
 5
3F1
 8
0
 62
131
 10
0.0
 20
0.0
 30
0.0
 70
128
 71
256
 72
251
 73
250
 74
257
 0
VERTEX
 5
3F2
 8
0
 62
131
 10
0.0
 20
0.0
 30
0.0
 70
128
 71
248
 72
251
 73
256
 74
254
 0
VERTEX
 5
3F3
 8
0
 62
131
 10
0.0
 20
0.0
 30
0.0
 70
128
 71
253
 72
255
 73
254
 0
VERTEX
 5
3F4
 8
0
 62
131
 10
0.0
 20
0.0
 30
0.0
 70
128
 71
258
 72
257
 73
255
 74
253
 0
VERTEX
 5
3F5
 8
0
 62
131
 10
0.0
 20
0.0
 30
0.0
 70
128
 71
258
 72
256
 73
257
 0
VERTEX
 5
3F6
 8
0
 62
131
 10
0.0
 20
0.0
 30
0.0
 70
128
 71
254
 72
256
 73
258
 74
253
 0
VERTEX
 5
3F7
 8
0
 62
131
 10
0.0
 20
0.0
 30
0.0
 70
128
 71
267
 72
260
 73
262
 74
259
 0
VERTEX
 5
3F8
 8
0
 62
131
 10
0.0
 20
0.0
 30
0.0
 70
128
 71
266
 72
265
 73
260
 74
267
 0
VERTEX
 5
3F9
 8
0
 62
131
 10
0.0
 20
0.0
 30
0.0
 70
128
 71
262
 72
260
 73
269
 74
261
 0
VERTEX
 5
3FA
 8
0
 62
131
 10
0.0
 20
0.0
 30
0.0
 70
128
 71
259
 72
262
 73
270
 74
271
 0
VERTEX
 5
3FB
 8
0
 62
131
 10
0.0
 20
0.0
 30
0.0
 70
128
 71
263
 72
267
 73
259
 74
272
 0
VERTEX
 5
3FC
 8
0
 62
131
 10
0.0
 20
0.0
 30
0.0
 70
128
 71
266
 72
264
 73
277
 74
265
 0
VERTEX
 5
3FD
 8
0
 62
131
 10
0.0
 20
0.0
 30
0.0
 70
128
 71
269
 72
260
 73
265
 74
275
 0
VERTEX
 5
3FE
 8
0
 62
131
 10
0.0
 20
0.0
 30
0.0
 70
128
 71
263
 72
266
 73
267
 0
VERTEX
 5
3FF
 8
0
 62
131
 10
0.0
 20
0.0
 30
0.0
 70
128
 71
269
 72
275
 73
268
 74
261
 0
VERTEX
 5
400
 8
0
 62
131
 10
0.0
 20
0.0
 30
0.0
 70
128
 71
268
 72
270
 73
262
 74
261
 0
VERTEX
 5
401
 8
0
 62
131
 10
0.0
 20
0.0
 30
0.0
 70
128
 71
270
 72
276
 73
273
 74
271
 0
VERTEX
 5
402
 8
0
 62
131
 10
0.0
 20
0.0
 30
0.0
 70
128
 71
272
 72
259
 73
271
 0
VERTEX
 5
403
 8
0
 62
131
 10
0.0
 20
0.0
 30
0.0
 70
128
 71
266
 72
263
 73
272
 74
271
 0
VERTEX
 5
404
 8
0
 62
131
 10
0.0
 20
0.0
 30
0.0
 70
128
 71
264
 72
266
 73
271
 74
273
 0
VERTEX
 5
405
 8
0
 62
131
 10
0.0
 20
0.0
 30
0.0
 70
128
 71
264
 72
274
 73
277
 0
VERTEX
 5
406
 8
0
 62
131
 10
0.0
 20
0.0
 30
0.0
 70
128
 71
276
 72
270
 73
265
 74
277
 0
VERTEX
 5
407
 8
0
 62
131
 10
0.0
 20
0.0
 30
0.0
 70
128
 71
275
 72
265
 73
270
 74
268
 0
VERTEX
 5
408
 8
0
 62
131
 10
0.0
 20
0.0
 30
0.0
 70
128
 71
278
 72
273
 73
276
 0
VERTEX
 5
409
 8
0
 62
131
 10
0.0
 20
0.0
 30
0.0
 70
128
 71
274
 72
264
 73
273
 74
278
 0
VERTEX
 5
40A
 8
0
 62
131
 10
0.0
 20
0.0
 30
0.0
 70
128
 71
274
 72
284
 73
279
 74
277
 0
VERTEX
 5
40B
 8
0
 62
131
 10
0.0
 20
0.0
 30
0.0
 70
128
 71
277
 72
279
 73
282
 74
276
 0
VERTEX
 5
40C
 8
0
 62
131
 10
0.0
 20
0.0
 30
0.0
 70
128
 71
281
 72
278
 73
276
 74
282
 0
VERTEX
 5
40D
 8
0
 62
131
 10
0.0
 20
0.0
 30
0.0
 70
128
 71
274
 72
278
 73
281
 74
284
 0
VERTEX
 5
40E
 8
0
 62
131
 10
0.0
 20
0.0
 30
0.0
 70
128
 71
280
 72
279
 73
284
 0
VERTEX
 5
40F
 8
0
 62
131
 10
0.0
 20
0.0
 30
0.0
 70
128
 71
283
 72
282
 73
279
 74
280
 0
VERTEX
 5
410
 8
0
 62
131
 10
0.0
 20
0.0
 30
0.0
 70
128
 71
283
 72
281
 73
282
 0
VERTEX
 5
411
 8
0
 62
131
 10
0.0
 20
0.0
 30
0.0
 70
128
 71
284
 72
281
 73
283
 74
280
 0
VERTEX
 5
412
 8
0
 62
131
 10
0.0
 20
0.0
 30
0.0
 70
128
 71
291
 72
285
 73
287
 74
288
 0
VERTEX
 5
413
 8
0
 62
131
 10
0.0
 20
0.0
 30
0.0
 70
128
 71
290
 72
292
 73
285
 74
291
 0
VERTEX
 5
414
 8
0
 62
131
 10
0.0
 20
0.0
 30
0.0
 70
128
 71
287
 72
285
 73
286
 74
296
 0
VERTEX
 5
415
 8
0
 62
131
 10
0.0
 20
0.0
 30
0.0
 70
128
 71
288
 72
287
 73
302
 74
299
 0
VERTEX
 5
416
 8
0
 62
131
 10
0.0
 20
0.0
 30
0.0
 70
128
 71
295
 72
291
 73
288
 74
289
 0
VERTEX
 5
417
 8
0
 62
131
 10
0.0
 20
0.0
 30
0.0
 70
128
 71
290
 72
293
 73
301
 74
292
 0
VERTEX
 5
418
 8
0
 62
131
 10
0.0
 20
0.0
 30
0.0
 70
128
 71
286
 72
285
 73
292
 74
294
 0
VERTEX
 5
419
 8
0
 62
131
 10
0.0
 20
0.0
 30
0.0
 70
128
 71
295
 72
290
 73
291
 0
VERTEX
 5
41A
 8
0
 62
131
 10
0.0
 20
0.0
 30
0.0
 70
128
 71
286
 72
294
 73
297
 74
296
 0
VERTEX
 5
41B
 8
0
 62
131
 10
0.0
 20
0.0
 30
0.0
 70
128
 71
297
 72
302
 73
287
 74
296
 0
VERTEX
 5
41C
 8
0
 62
131
 10
0.0
 20
0.0
 30
0.0
 70
128
 71
302
 72
298
 73
300
 74
299
 0
VERTEX
 5
41D
 8
0
 62
131
 10
0.0
 20
0.0
 30
0.0
 70
128
 71
289
 72
288
 73
299
 0
VERTEX
 5
41E
 8
0
 62
131
 10
0.0
 20
0.0
 30
0.0
 70
128
 71
290
 72
295
 73
289
 74
299
 0
VERTEX
 5
41F
 8
0
 62
131
 10
0.0
 20
0.0
 30
0.0
 70
128
 71
293
 72
290
 73
299
 74
300
 0
VERTEX
 5
420
 8
0
 62
131
 10
0.0
 20
0.0
 30
0.0
 70
128
 71
293
 72
303
 73
301
 0
VERTEX
 5
421
 8
0
 62
131
 10
0.0
 20
0.0
 30
0.0
 70
128
 71
298
 72
302
 73
292
 74
301
 0
VERTEX
 5
422
 8
0
 62
131
 10
0.0
 20
0.0
 30
0.0
 70
128
 71
294
 72
292
 73
302
 74
297
 0
VERTEX
 5
423
 8
0
 62
131
 10
0.0
 20
0.0
 30
0.0
 70
128
 71
305
 72
300
 73
298
 0
VERTEX
 5
424
 8
0
 62
131
 10
0.0
 20
0.0
 30
0.0
 70
128
 71
303
 72
293
 73
300
 74
305
 0
VERTEX
 5
425
 8
0
 62
131
 10
0.0
 20
0.0
 30
0.0
 70
128
 71
303
 72
309
 73
307
 74
301
 0
VERTEX
 5
426
 8
0
 62
131
 10
0.0
 20
0.0
 30
0.0
 70
128
 71
301
 72
307
 73
304
 74
298
 0
VERTEX
 5
427
 8
0
 62
131
 10
0.0
 20
0.0
 30
0.0
 70
128
 71
308
 72
305
 73
298
 74
304
 0
VERTEX
 5
428
 8
0
 62
131
 10
0.0
 20
0.0
 30
0.0
 70
128
 71
303
 72
305
 73
308
 74
309
 0
VERTEX
 5
429
 8
0
 62
131
 10
0.0
 20
0.0
 30
0.0
 70
128
 71
306
 72
307
 73
309
 0
VERTEX
 5
42A
 8
0
 62
131
 10
0.0
 20
0.0
 30
0.0
 70
128
 71
310
 72
304
 73
307
 74
306
 0
VERTEX
 5
42B
 8
0
 62
131
 10
0.0
 20
0.0
 30
0.0
 70
128
 71
310
 72
308
 73
304
 0
VERTEX
 5
42C
 8
0
 62
131
 10
0.0
 20
0.0
 30
0.0
 70
128
 71
309
 72
308
 73
310
 74
306
 0
VERTEX
 5
42D
 8
0
 62
131
 10
0.0
 20
0.0
 30
0.0
 70
128
 71
311
 72
313
 73
316
 74
312
 0
VERTEX
 5
42E
 8
0
 62
131
 10
0.0
 20
0.0
 30
0.0
 70
128
 71
314
 72
325
 73
313
 74
311
 0
VERTEX
 5
42F
 8
0
 62
131
 10
0.0
 20
0.0
 30
0.0
 70
128
 71
316
 72
313
 73
319
 74
315
 0
VERTEX
 5
430
 8
0
 62
131
 10
0.0
 20
0.0
 30
0.0
 70
128
 71
312
 72
316
 73
320
 74
322
 0
VERTEX
 5
431
 8
0
 62
131
 10
0.0
 20
0.0
 30
0.0
 70
128
 71
324
 72
311
 73
312
 74
323
 0
VERTEX
 5
432
 8
0
 62
131
 10
0.0
 20
0.0
 30
0.0
 70
128
 71
314
 72
327
 73
317
 74
325
 0
VERTEX
 5
433
 8
0
 62
131
 10
0.0
 20
0.0
 30
0.0
 70
128
 71
319
 72
313
 73
325
 74
318
 0
VERTEX
 5
434
 8
0
 62
131
 10
0.0
 20
0.0
 30
0.0
 70
128
 71
324
 72
314
 73
311
 0
VERTEX
 5
435
 8
0
 62
131
 10
0.0
 20
0.0
 30
0.0
 70
128
 71
319
 72
318
 73
326
 74
315
 0
VERTEX
 5
436
 8
0
 62
131
 10
0.0
 20
0.0
 30
0.0
 70
128
 71
326
 72
320
 73
316
 74
315
 0
VERTEX
 5
437
 8
0
 62
131
 10
0.0
 20
0.0
 30
0.0
 70
128
 71
320
 72
329
 73
321
 74
322
 0
VERTEX
 5
438
 8
0
 62
131
 10
0.0
 20
0.0
 30
0.0
 70
128
 71
323
 72
312
 73
322
 0
VERTEX
 5
439
 8
0
 62
131
 10
0.0
 20
0.0
 30
0.0
 70
128
 71
314
 72
324
 73
323
 74
322
 0
VERTEX
 5
43A
 8
0
 62
131
 10
0.0
 20
0.0
 30
0.0
 70
128
 71
327
 72
314
 73
322
 74
321
 0
VERTEX
 5
43B
 8
0
 62
131
 10
0.0
 20
0.0
 30
0.0
 70
128
 71
327
 72
331
 73
317
 0
VERTEX
 5
43C
 8
0
 62
131
 10
0.0
 20
0.0
 30
0.0
 70
128
 71
329
 72
320
 73
325
 74
317
 0
VERTEX
 5
43D
 8
0
 62
131
 10
0.0
 20
0.0
 30
0.0
 70
128
 71
318
 72
325
 73
320
 74
326
 0
VERTEX
 5
43E
 8
0
 62
131
 10
0.0
 20
0.0
 30
0.0
 70
128
 71
330
 72
321
 73
329
 0
VERTEX
 5
43F
 8
0
 62
131
 10
0.0
 20
0.0
 30
0.0
 70
128
 71
331
 72
327
 73
321
 74
330
 0
VERTEX
 5
440
 8
0
 62
131
 10
0.0
 20
0.0
 30
0.0
 70
128
 71
331
 72
332
 73
328
 74
317
 0
VERTEX
 5
441
 8
0
 62
131
 10
0.0
 20
0.0
 30
0.0
 70
128
 71
317
 72
328
 73
334
 74
329
 0
VERTEX
 5
442
 8
0
 62
131
 10
0.0
 20
0.0
 30
0.0
 70
128
 71
335
 72
330
 73
329
 74
334
 0
VERTEX
 5
443
 8
0
 62
131
 10
0.0
 20
0.0
 30
0.0
 70
128
 71
331
 72
330
 73
335
 74
332
 0
VERTEX
 5
444
 8
0
 62
131
 10
0.0
 20
0.0
 30
0.0
 70
128
 71
333
 72
328
 73
332
 0
VERTEX
 5
445
 8
0
 62
131
 10
0.0
 20
0.0
 30
0.0
 70
128
 71
336
 72
334
 73
328
 74
333
 0
VERTEX
 5
446
 8
0
 62
131
 10
0.0
 20
0.0
 30
0.0
 70
128
 71
336
 72
335
 73
334
 0
VERTEX
 5
447
 8
0
 62
131
 10
0.0
 20
0.0
 30
0.0
 70
128
 71
332
 72
335
 73
336
 74
333
 0
VERTEX
 5
448
 8
0
 62
131
 10
0.0
 20
0.0
 30
0.0
 70
128
 71
341
 72
337
 73
339
 74
349
 0
VERTEX
 5
449
 8
0
 62
131
 10
0.0
 20
0.0
 30
0.0
 70
128
 71
350
 72
338
 73
337
 74
341
 0
VERTEX
 5
44A
 8
0
 62
131
 10
0.0
 20
0.0
 30
0.0
 70
128
 71
339
 72
337
 73
343
 74
345
 0
VERTEX
 5
44B
 8
0
 62
131
 10
0.0
 20
0.0
 30
0.0
 70
128
 71
349
 72
339
 73
344
 74
346
 0
VERTEX
 5
44C
 8
0
 62
131
 10
0.0
 20
0.0
 30
0.0
 70
128
 71
340
 72
341
 73
349
 74
348
 0
VERTEX
 5
44D
 8
0
 62
131
 10
0.0
 20
0.0
 30
0.0
 70
128
 71
350
 72
351
 73
354
 74
338
 0
VERTEX
 5
44E
 8
0
 62
131
 10
0.0
 20
0.0
 30
0.0
 70
128
 71
343
 72
337
 73
338
 74
342
 0
VERTEX
 5
44F
 8
0
 62
131
 10
0.0
 20
0.0
 30
0.0
 70
128
 71
340
 72
350
 73
341
 0
VERTEX
 5
450
 8
0
 62
131
 10
0.0
 20
0.0
 30
0.0
 70
128
 71
343
 72
342
 73
352
 74
345
 0
VERTEX
 5
451
 8
0
 62
131
 10
0.0
 20
0.0
 30
0.0
 70
128
 71
352
 72
344
 73
339
 74
345
 0
VERTEX
 5
452
 8
0
 62
131
 10
0.0
 20
0.0
 30
0.0
 70
128
 71
344
 72
347
 73
353
 74
346
 0
VERTEX
 5
453
 8
0
 62
131
 10
0.0
 20
0.0
 30
0.0
 70
128
 71
348
 72
349
 73
346
 0
VERTEX
 5
454
 8
0
 62
131
 10
0.0
 20
0.0
 30
0.0
 70
128
 71
350
 72
340
 73
348
 74
346
 0
VERTEX
 5
455
 8
0
 62
131
 10
0.0
 20
0.0
 30
0.0
 70
128
 71
351
 72
350
 73
346
 74
353
 0
VERTEX
 5
456
 8
0
 62
131
 10
0.0
 20
0.0
 30
0.0
 70
128
 71
351
 72
357
 73
354
 0
VERTEX
 5
457
 8
0
 62
131
 10
0.0
 20
0.0
 30
0.0
 70
128
 71
347
 72
344
 73
338
 74
354
 0
VERTEX
 5
458
 8
0
 62
131
 10
0.0
 20
0.0
 30
0.0
 70
128
 71
342
 72
338
 73
344
 74
352
 0
VERTEX
 5
459
 8
0
 62
131
 10
0.0
 20
0.0
 30
0.0
 70
128
 71
356
 72
353
 73
347
 0
VERTEX
 5
45A
 8
0
 62
131
 10
0.0
 20
0.0
 30
0.0
 70
128
 71
357
 72
351
 73
353
 74
356
 0
VERTEX
 5
45B
 8
0
 62
131
 10
0.0
 20
0.0
 30
0.0
 70
128
 71
357
 72
358
 73
355
 74
354
 0
VERTEX
 5
45C
 8
0
 62
131
 10
0.0
 20
0.0
 30
0.0
 70
128
 71
354
 72
355
 73
361
 74
347
 0
VERTEX
 5
45D
 8
0
 62
131
 10
0.0
 20
0.0
 30
0.0
 70
128
 71
359
 72
356
 73
347
 74
361
 0
VERTEX
 5
45E
 8
0
 62
131
 10
0.0
 20
0.0
 30
0.0
 70
128
 71
357
 72
356
 73
359
 74
358
 0
VERTEX
 5
45F
 8
0
 62
131
 10
0.0
 20
0.0
 30
0.0
 70
128
 71
360
 72
355
 73
358
 0
VERTEX
 5
460
 8
0
 62
131
 10
0.0
 20
0.0
 30
0.0
 70
128
 71
362
 72
361
 73
355
 74
360
 0
VERTEX
 5
461
 8
0
 62
131
 10
0.0
 20
0.0
 30
0.0
 70
128
 71
362
 72
359
 73
361
 0
VERTEX
 5
462
 8
0
 62
131
 10
0.0
 20
0.0
 30
0.0
 70
128
 71
358
 72
359
 73
362
 74
360
 0
VERTEX
 5
463
 8
0
 62
131
 10
0.0
 20
0.0
 30
0.0
 70
128
 71
363
 72
364
 73
374
 74
366
 0
VERTEX
 5
464
 8
0
 62
131
 10
0.0
 20
0.0
 30
0.0
 70
128
 71
369
 72
378
 73
364
 74
363
 0
VERTEX
 5
465
 8
0
 62
131
 10
0.0
 20
0.0
 30
0.0
 70
128
 71
374
 72
364
 73
368
 74
372
 0
VERTEX
 5
466
 8
0
 62
131
 10
0.0
 20
0.0
 30
0.0
 70
128
 71
366
 72
374
 73
375
 74
365
 0
VERTEX
 5
467
 8
0
 62
131
 10
0.0
 20
0.0
 30
0.0
 70
128
 71
370
 72
363
 73
366
 74
367
 0
VERTEX
 5
468
 8
0
 62
131
 10
0.0
 20
0.0
 30
0.0
 70
128
 71
369
 72
381
 73
377
 74
378
 0
VERTEX
 5
469
 8
0
 62
131
 10
0.0
 20
0.0
 30
0.0
 70
128
 71
368
 72
364
 73
378
 74
373
 0
VERTEX
 5
46A
 8
0
 62
131
 10
0.0
 20
0.0
 30
0.0
 70
128
 71
370
 72
369
 73
363
 0
VERTEX
 5
46B
 8
0
 62
131
 10
0.0
 20
0.0
 30
0.0
 70
128
 71
368
 72
373
 73
371
 74
372
 0
VERTEX
 5
46C
 8
0
 62
131
 10
0.0
 20
0.0
 30
0.0
 70
128
 71
371
 72
375
 73
374
 74
372
 0
VERTEX
 5
46D
 8
0
 62
131
 10
0.0
 20
0.0
 30
0.0
 70
128
 71
375
 72
379
 73
376
 74
365
 0
VERTEX
 5
46E
 8
0
 62
131
 10
0.0
 20
0.0
 30
0.0
 70
128
 71
367
 72
366
 73
365
 0
VERTEX
 5
46F
 8
0
 62
131
 10
0.0
 20
0.0
 30
0.0
 70
128
 71
369
 72
370
 73
367
 74
365
 0
VERTEX
 5
470
 8
0
 62
131
 10
0.0
 20
0.0
 30
0.0
 70
128
 71
381
 72
369
 73
365
 74
376
 0
VERTEX
 5
471
 8
0
 62
131
 10
0.0
 20
0.0
 30
0.0
 70
128
 71
381
 72
383
 73
377
 0
VERTEX
 5
472
 8
0
 62
131
 10
0.0
 20
0.0
 30
0.0
 70
128
 71
379
 72
375
 73
378
 74
377
 0
VERTEX
 5
473
 8
0
 62
131
 10
0.0
 20
0.0
 30
0.0
 70
128
 71
373
 72
378
 73
375
 74
371
 0
VERTEX
 5
474
 8
0
 62
131
 10
0.0
 20
0.0
 30
0.0
 70
128
 71
380
 72
376
 73
379
 0
VERTEX
 5
475
 8
0
 62
131
 10
0.0
 20
0.0
 30
0.0
 70
128
 71
383
 72
381
 73
376
 74
380
 0
VERTEX
 5
476
 8
0
 62
131
 10
0.0
 20
0.0
 30
0.0
 70
128
 71
383
 72
387
 73
382
 74
377
 0
VERTEX
 5
477
 8
0
 62
131
 10
0.0
 20
0.0
 30
0.0
 70
128
 71
377
 72
382
 73
386
 74
379
 0
VERTEX
 5
478
 8
0
 62
131
 10
0.0
 20
0.0
 30
0.0
 70
128
 71
384
 72
380
 73
379
 74
386
 0
VERTEX
 5
479
 8
0
 62
131
 10
0.0
 20
0.0
 30
0.0
 70
128
 71
383
 72
380
 73
384
 74
387
 0
VERTEX
 5
47A
 8
0
 62
131
 10
0.0
 20
0.0
 30
0.0
 70
128
 71
388
 72
382
 73
387
 0
VERTEX
 5
47B
 8
0
 62
131
 10
0.0
 20
0.0
 30
0.0
 70
128
 71
385
 72
386
 73
382
 74
388
 0
VERTEX
 5
47C
 8
0
 62
131
 10
0.0
 20
0.0
 30
0.0
 70
128
 71
385
 72
384
 73
386
 0
VERTEX
 5
47D
 8
0
 62
131
 10
0.0
 20
0.0
 30
0.0
 70
128
 71
387
 72
384
 73
385
 74
388
 0
VERTEX
 5
47E
 8
0
 62
131
 10
0.0
 20
0.0
 30
0.0
 70
128
 71
389
 72
390
 73
391
 74
393
 0
VERTEX
 5
47F
 8
0
 62
131
 10
0.0
 20
0.0
 30
0.0
 70
128
 71
397
 72
392
 73
390
 74
389
 0
VERTEX
 5
480
 8
0
 62
131
 10
0.0
 20
0.0
 30
0.0
 70
128
 71
391
 72
390
 73
396
 74
400
 0
VERTEX
 5
481
 8
0
 62
131
 10
0.0
 20
0.0
 30
0.0
 70
128
 71
393
 72
391
 73
399
 74
394
 0
VERTEX
 5
482
 8
0
 62
131
 10
0.0
 20
0.0
 30
0.0
 70
128
 71
401
 72
389
 73
393
 74
402
 0
VERTEX
 5
483
 8
0
 62
131
 10
0.0
 20
0.0
 30
0.0
 70
128
 71
397
 72
406
 73
403
 74
392
 0
VERTEX
 5
484
 8
0
 62
131
 10
0.0
 20
0.0
 30
0.0
 70
128
 71
396
 72
390
 73
392
 74
395
 0
VERTEX
 5
485
 8
0
 62
131
 10
0.0
 20
0.0
 30
0.0
 70
128
 71
401
 72
397
 73
389
 0
VERTEX
 5
486
 8
0
 62
131
 10
0.0
 20
0.0
 30
0.0
 70
128
 71
396
 72
395
 73
398
 74
400
 0
VERTEX
 5
487
 8
0
 62
131
 10
0.0
 20
0.0
 30
0.0
 70
128
 71
398
 72
399
 73
391
 74
400
 0
VERTEX
 5
488
 8
0
 62
131
 10
0.0
 20
0.0
 30
0.0
 70
128
 71
399
 72
404
 73
407
 74
394
 0
VERTEX
 5
489
 8
0
 62
131
 10
0.0
 20
0.0
 30
0.0
 70
128
 71
402
 72
393
 73
394
 0
VERTEX
 5
48A
 8
0
 62
131
 10
0.0
 20
0.0
 30
0.0
 70
128
 71
397
 72
401
 73
402
 74
394
 0
VERTEX
 5
48B
 8
0
 62
131
 10
0.0
 20
0.0
 30
0.0
 70
128
 71
406
 72
397
 73
394
 74
407
 0
VERTEX
 5
48C
 8
0
 62
131
 10
0.0
 20
0.0
 30
0.0
 70
128
 71
406
 72
405
 73
403
 0
VERTEX
 5
48D
 8
0
 62
131
 10
0.0
 20
0.0
 30
0.0
 70
128
 71
404
 72
399
 73
392
 74
403
 0
VERTEX
 5
48E
 8
0
 62
131
 10
0.0
 20
0.0
 30
0.0
 70
128
 71
395
 72
392
 73
399
 74
398
 0
VERTEX
 5
48F
 8
0
 62
131
 10
0.0
 20
0.0
 30
0.0
 70
128
 71
409
 72
407
 73
404
 0
VERTEX
 5
490
 8
0
 62
131
 10
0.0
 20
0.0
 30
0.0
 70
128
 71
405
 72
406
 73
407
 74
409
 0
VERTEX
 5
491
 8
0
 62
131
 10
0.0
 20
0.0
 30
0.0
 70
128
 71
405
 72
408
 73
410
 74
403
 0
VERTEX
 5
492
 8
0
 62
131
 10
0.0
 20
0.0
 30
0.0
 70
128
 71
403
 72
410
 73
412
 74
404
 0
VERTEX
 5
493
 8
0
 62
131
 10
0.0
 20
0.0
 30
0.0
 70
128
 71
414
 72
409
 73
404
 74
412
 0
VERTEX
 5
494
 8
0
 62
131
 10
0.0
 20
0.0
 30
0.0
 70
128
 71
405
 72
409
 73
414
 74
408
 0
VERTEX
 5
495
 8
0
 62
131
 10
0.0
 20
0.0
 30
0.0
 70
128
 71
411
 72
410
 73
408
 0
VERTEX
 5
496
 8
0
 62
131
 10
0.0
 20
0.0
 30
0.0
 70
128
 71
413
 72
412
 73
410
 74
411
 0
VERTEX
 5
497
 8
0
 62
131
 10
0.0
 20
0.0
 30
0.0
 70
128
 71
413
 72
414
 73
412
 0
VERTEX
 5
498
 8
0
 62
131
 10
0.0
 20
0.0
 30
0.0
 70
128
 71
408
 72
414
 73
413
 74
411
 0
VERTEX
 5
499
 8
0
 62
131
 10
0.0
 20
0.0
 30
0.0
 70
128
 71
424
 72
415
 73
426
 74
416
 0
VERTEX
 5
49A
 8
0
 62
131
 10
0.0
 20
0.0
 30
0.0
 70
128
 71
421
 72
420
 73
415
 74
424
 0
VERTEX
 5
49B
 8
0
 62
131
 10
0.0
 20
0.0
 30
0.0
 70
128
 71
426
 72
415
 73
423
 74
417
 0
VERTEX
 5
49C
 8
0
 62
131
 10
0.0
 20
0.0
 30
0.0
 70
128
 71
416
 72
426
 73
418
 74
427
 0
VERTEX
 5
49D
 8
0
 62
131
 10
0.0
 20
0.0
 30
0.0
 70
128
 71
419
 72
424
 73
416
 74
428
 0
VERTEX
 5
49E
 8
0
 62
131
 10
0.0
 20
0.0
 30
0.0
 70
128
 71
421
 72
429
 73
430
 74
420
 0
VERTEX
 5
49F
 8
0
 62
131
 10
0.0
 20
0.0
 30
0.0
 70
128
 71
423
 72
415
 73
420
 74
422
 0
VERTEX
 5
4A0
 8
0
 62
131
 10
0.0
 20
0.0
 30
0.0
 70
128
 71
419
 72
421
 73
424
 0
VERTEX
 5
4A1
 8
0
 62
131
 10
0.0
 20
0.0
 30
0.0
 70
128
 71
423
 72
422
 73
425
 74
417
 0
VERTEX
 5
4A2
 8
0
 62
131
 10
0.0
 20
0.0
 30
0.0
 70
128
 71
425
 72
418
 73
426
 74
417
 0
VERTEX
 5
4A3
 8
0
 62
131
 10
0.0
 20
0.0
 30
0.0
 70
128
 71
418
 72
432
 73
434
 74
427
 0
VERTEX
 5
4A4
 8
0
 62
131
 10
0.0
 20
0.0
 30
0.0
 70
128
 71
428
 72
416
 73
427
 0
VERTEX
 5
4A5
 8
0
 62
131
 10
0.0
 20
0.0
 30
0.0
 70
128
 71
421
 72
419
 73
428
 74
427
 0
VERTEX
 5
4A6
 8
0
 62
131
 10
0.0
 20
0.0
 30
0.0
 70
128
 71
429
 72
421
 73
427
 74
434
 0
VERTEX
 5
4A7
 8
0
 62
131
 10
0.0
 20
0.0
 30
0.0
 70
128
 71
429
 72
431
 73
430
 0
VERTEX
 5
4A8
 8
0
 62
131
 10
0.0
 20
0.0
 30
0.0
 70
128
 71
432
 72
418
 73
420
 74
430
 0
VERTEX
 5
4A9
 8
0
 62
131
 10
0.0
 20
0.0
 30
0.0
 70
128
 71
422
 72
420
 73
418
 74
425
 0
VERTEX
 5
4AA
 8
0
 62
131
 10
0.0
 20
0.0
 30
0.0
 70
128
 71
433
 72
434
 73
432
 0
VERTEX
 5
4AB
 8
0
 62
131
 10
0.0
 20
0.0
 30
0.0
 70
128
 71
431
 72
429
 73
434
 74
433
 0
VERTEX
 5
4AC
 8
0
 62
131
 10
0.0
 20
0.0
 30
0.0
 70
128
 71
431
 72
436
 73
438
 74
430
 0
VERTEX
 5
4AD
 8
0
 62
131
 10
0.0
 20
0.0
 30
0.0
 70
128
 71
430
 72
438
 73
439
 74
432
 0
VERTEX
 5
4AE
 8
0
 62
131
 10
0.0
 20
0.0
 30
0.0
 70
128
 71
435
 72
433
 73
432
 74
439
 0
VERTEX
 5
4AF
 8
0
 62
131
 10
0.0
 20
0.0
 30
0.0
 70
128
 71
431
 72
433
 73
435
 74
436
 0
VERTEX
 5
4B0
 8
0
 62
131
 10
0.0
 20
0.0
 30
0.0
 70
128
 71
437
 72
438
 73
436
 0
VERTEX
 5
4B1
 8
0
 62
131
 10
0.0
 20
0.0
 30
0.0
 70
128
 71
440
 72
439
 73
438
 74
437
 0
VERTEX
 5
4B2
 8
0
 62
131
 10
0.0
 20
0.0
 30
0.0
 70
128
 71
440
 72
435
 73
439
 0
VERTEX
 5
4B3
 8
0
 62
131
 10
0.0
 20
0.0
 30
0.0
 70
128
 71
436
 72
435
 73
440
 74
437
 0
VERTEX
 5
4B4
 8
0
 62
131
 10
0.0
 20
0.0
 30
0.0
 70
128
 71
441
 72
442
 73
443
 74
454
 0
VERTEX
 5
4B5
 8
0
 62
131
 10
0.0
 20
0.0
 30
0.0
 70
128
 71
455
 72
446
 73
442
 74
441
 0
VERTEX
 5
4B6
 8
0
 62
131
 10
0.0
 20
0.0
 30
0.0
 70
128
 71
443
 72
442
 73
447
 74
451
 0
VERTEX
 5
4B7
 8
0
 62
131
 10
0.0
 20
0.0
 30
0.0
 70
128
 71
454
 72
443
 73
453
 74
452
 0
VERTEX
 5
4B8
 8
0
 62
131
 10
0.0
 20
0.0
 30
0.0
 70
128
 71
448
 72
441
 73
454
 74
444
 0
VERTEX
 5
4B9
 8
0
 62
131
 10
0.0
 20
0.0
 30
0.0
 70
128
 71
455
 72
445
 73
457
 74
446
 0
VERTEX
 5
4BA
 8
0
 62
131
 10
0.0
 20
0.0
 30
0.0
 70
128
 71
447
 72
442
 73
446
 74
449
 0
VERTEX
 5
4BB
 8
0
 62
131
 10
0.0
 20
0.0
 30
0.0
 70
128
 71
448
 72
455
 73
441
 0
VERTEX
 5
4BC
 8
0
 62
131
 10
0.0
 20
0.0
 30
0.0
 70
128
 71
447
 72
449
 73
450
 74
451
 0
VERTEX
 5
4BD
 8
0
 62
131
 10
0.0
 20
0.0
 30
0.0
 70
128
 71
450
 72
453
 73
443
 74
451
 0
VERTEX
 5
4BE
 8
0
 62
131
 10
0.0
 20
0.0
 30
0.0
 70
128
 71
453
 72
461
 73
456
 74
452
 0
VERTEX
 5
4BF
 8
0
 62
131
 10
0.0
 20
0.0
 30
0.0
 70
128
 71
444
 72
454
 73
452
 0
VERTEX
 5
4C0
 8
0
 62
131
 10
0.0
 20
0.0
 30
0.0
 70
128
 71
455
 72
448
 73
444
 74
452
 0
VERTEX
 5
4C1
 8
0
 62
131
 10
0.0
 20
0.0
 30
0.0
 70
128
 71
445
 72
455
 73
452
 74
456
 0
VERTEX
 5
4C2
 8
0
 62
131
 10
0.0
 20
0.0
 30
0.0
 70
128
 71
445
 72
462
 73
457
 0
VERTEX
 5
4C3
 8
0
 62
131
 10
0.0
 20
0.0
 30
0.0
 70
128
 71
461
 72
453
 73
446
 74
457
 0
VERTEX
 5
4C4
 8
0
 62
131
 10
0.0
 20
0.0
 30
0.0
 70
128
 71
449
 72
446
 73
453
 74
450
 0
VERTEX
 5
4C5
 8
0
 62
131
 10
0.0
 20
0.0
 30
0.0
 70
128
 71
459
 72
456
 73
461
 0
VERTEX
 5
4C6
 8
0
 62
131
 10
0.0
 20
0.0
 30
0.0
 70
128
 71
462
 72
445
 73
456
 74
459
 0
VERTEX
 5
4C7
 8
0
 62
131
 10
0.0
 20
0.0
 30
0.0
 70
128
 71
462
 72
466
 73
463
 74
457
 0
VERTEX
 5
4C8
 8
0
 62
131
 10
0.0
 20
0.0
 30
0.0
 70
128
 71
457
 72
463
 73
460
 74
461
 0
VERTEX
 5
4C9
 8
0
 62
131
 10
0.0
 20
0.0
 30
0.0
 70
128
 71
458
 72
459
 73
461
 74
460
 0
VERTEX
 5
4CA
 8
0
 62
131
 10
0.0
 20
0.0
 30
0.0
 70
128
 71
462
 72
459
 73
458
 74
466
 0
VERTEX
 5
4CB
 8
0
 62
131
 10
0.0
 20
0.0
 30
0.0
 70
128
 71
465
 72
463
 73
466
 0
VERTEX
 5
4CC
 8
0
 62
131
 10
0.0
 20
0.0
 30
0.0
 70
128
 71
464
 72
460
 73
463
 74
465
 0
VERTEX
 5
4CD
 8
0
 62
131
 10
0.0
 20
0.0
 30
0.0
 70
128
 71
464
 72
458
 73
460
 0
VERTEX
 5
4CE
 8
0
 62
131
 10
0.0
 20
0.0
 30
0.0
 70
128
 71
466
 72
458
 73
464
 74
465
 0
VERTEX
 5
4CF
 8
0
 62
131
 10
0.0
 20
0.0
 30
0.0
 70
128
 71
468
 72
471
 73
467
 74
475
 0
VERTEX
 5
4D0
 8
0
 62
131
 10
0.0
 20
0.0
 30
0.0
 70
128
 71
471
 72
477
 73
470
 74
467
 0
VERTEX
 5
4D1
 8
0
 62
131
 10
0.0
 20
0.0
 30
0.0
 70
128
 71
474
 72
468
 73
475
 74
476
 0
VERTEX
 5
4D2
 8
0
 62
131
 10
0.0
 20
0.0
 30
0.0
 70
128
 71
477
 72
474
 73
476
 74
470
 0
VERTEX
 5
4D3
 8
0
 62
131
 10
0.0
 20
0.0
 30
0.0
 70
128
 71
477
 72
471
 73
482
 74
481
 0
VERTEX
 5
4D4
 8
0
 62
131
 10
0.0
 20
0.0
 30
0.0
 70
128
 71
481
 72
482
 73
480
 74
472
 0
VERTEX
 5
4D5
 8
0
 62
131
 10
0.0
 20
0.0
 30
0.0
 70
128
 71
472
 72
479
 73
478
 74
481
 0
VERTEX
 5
4D6
 8
0
 62
131
 10
0.0
 20
0.0
 30
0.0
 70
128
 71
476
 72
479
 73
472
 74
470
 0
VERTEX
 5
4D7
 8
0
 62
131
 10
0.0
 20
0.0
 30
0.0
 70
128
 71
467
 72
480
 73
473
 74
475
 0
VERTEX
 5
4D8
 8
0
 62
131
 10
0.0
 20
0.0
 30
0.0
 70
128
 71
470
 72
472
 73
480
 74
467
 0
VERTEX
 5
4D9
 8
0
 62
131
 10
0.0
 20
0.0
 30
0.0
 70
128
 71
476
 72
475
 73
473
 74
479
 0
VERTEX
 5
4DA
 8
0
 62
131
 10
0.0
 20
0.0
 30
0.0
 70
128
 71
478
 72
479
 73
473
 74
469
 0
VERTEX
 5
4DB
 8
0
 62
131
 10
0.0
 20
0.0
 30
0.0
 70
128
 71
478
 72
469
 73
468
 74
474
 0
VERTEX
 5
4DC
 8
0
 62
131
 10
0.0
 20
0.0
 30
0.0
 70
128
 71
480
 72
482
 73
469
 74
473
 0
VERTEX
 5
4DD
 8
0
 62
131
 10
0.0
 20
0.0
 30
0.0
 70
128
 71
468
 72
469
 73
482
 74
471
 0
VERTEX
 5
4DE
 8
0
 62
131
 10
0.0
 20
0.0
 30
0.0
 70
128
 71
478
 72
474
 73
477
 74
481
 0
VERTEX
 5
4DF
 8
0
 62
131
 10
0.0
 20
0.0
 30
0.0
 70
128
 71
483
 72
486
 73
484
 74
488
 0
VERTEX
 5
4E0
 8
0
 62
131
 10
0.0
 20
0.0
 30
0.0
 70
128
 71
490
 72
485
 73
486
 74
483
 0
VERTEX
 5
4E1
 8
0
 62
131
 10
0.0
 20
0.0
 30
0.0
 70
128
 71
493
 72
484
 73
486
 74
504
 0
VERTEX
 5
4E2
 8
0
 62
131
 10
0.0
 20
0.0
 30
0.0
 70
128
 71
488
 72
484
 73
487
 74
489
 0
VERTEX
 5
4E3
 8
0
 62
131
 10
0.0
 20
0.0
 30
0.0
 70
128
 71
488
 72
489
 73
490
 74
483
 0
VERTEX
 5
4E4
 8
0
 62
131
 10
0.0
 20
0.0
 30
0.0
 70
128
 71
491
 72
492
 73
485
 74
490
 0
VERTEX
 5
4E5
 8
0
 62
131
 10
0.0
 20
0.0
 30
0.0
 70
128
 71
485
 72
499
 73
495
 74
486
 0
VERTEX
 5
4E6
 8
0
 62
131
 10
0.0
 20
0.0
 30
0.0
 70
128
 71
494
 72
487
 73
484
 74
493
 0
VERTEX
 5
4E7
 8
0
 62
131
 10
0.0
 20
0.0
 30
0.0
 70
128
 71
486
 72
495
 73
503
 74
504
 0
VERTEX
 5
4E8
 8
0
 62
131
 10
0.0
 20
0.0
 30
0.0
 70
128
 71
501
 72
493
 73
504
 74
496
 0
VERTEX
 5
4E9
 8
0
 62
131
 10
0.0
 20
0.0
 30
0.0
 70
128
 71
489
 72
487
 73
498
 74
497
 0
VERTEX
 5
4EA
 8
0
 62
131
 10
0.0
 20
0.0
 30
0.0
 70
128
 71
491
 72
490
 73
489
 74
497
 0
VERTEX
 5
4EB
 8
0
 62
131
 10
0.0
 20
0.0
 30
0.0
 70
128
 71
497
 72
498
 73
492
 74
491
 0
VERTEX
 5
4EC
 8
0
 62
131
 10
0.0
 20
0.0
 30
0.0
 70
128
 71
492
 72
507
 73
499
 74
485
 0
VERTEX
 5
4ED
 8
0
 62
131
 10
0.0
 20
0.0
 30
0.0
 70
128
 71
509
 72
495
 73
499
 74
500
 0
VERTEX
 5
4EE
 8
0
 62
131
 10
0.0
 20
0.0
 30
0.0
 70
128
 71
521
 72
498
 73
487
 74
494
 0
VERTEX
 5
4EF
 8
0
 62
131
 10
0.0
 20
0.0
 30
0.0
 70
128
 71
511
 72
494
 73
493
 74
501
 0
VERTEX
 5
4F0
 8
0
 62
131
 10
0.0
 20
0.0
 30
0.0
 70
128
 71
503
 72
495
 73
502
 74
525
 0
VERTEX
 5
4F1
 8
0
 62
131
 10
0.0
 20
0.0
 30
0.0
 70
128
 71
504
 72
503
 73
515
 74
506
 0
VERTEX
 5
4F2
 8
0
 62
131
 10
0.0
 20
0.0
 30
0.0
 70
128
 71
496
 72
504
 73
506
 74
505
 0
VERTEX
 5
4F3
 8
0
 62
131
 10
0.0
 20
0.0
 30
0.0
 70
128
 71
496
 72
514
 73
526
 74
501
 0
VERTEX
 5
4F4
 8
0
 62
131
 10
0.0
 20
0.0
 30
0.0
 70
128
 71
507
 72
492
 73
498
 74
518
 0
VERTEX
 5
4F5
 8
0
 62
131
 10
0.0
 20
0.0
 30
0.0
 70
128
 71
500
 72
499
 73
507
 74
508
 0
VERTEX
 5
4F6
 8
0
 62
131
 10
0.0
 20
0.0
 30
0.0
 70
128
 71
520
 72
502
 73
495
 74
509
 0
VERTEX
 5
4F7
 8
0
 62
131
 10
0.0
 20
0.0
 30
0.0
 70
128
 71
509
 72
500
 73
519
 74
520
 0
VERTEX
 5
4F8
 8
0
 62
131
 10
0.0
 20
0.0
 30
0.0
 70
128
 71
518
 72
498
 73
521
 74
510
 0
VERTEX
 5
4F9
 8
0
 62
131
 10
0.0
 20
0.0
 30
0.0
 70
128
 71
530
 72
521
 73
494
 74
511
 0
VERTEX
 5
4FA
 8
0
 62
131
 10
0.0
 20
0.0
 30
0.0
 70
128
 71
511
 72
501
 73
526
 74
524
 0
VERTEX
 5
4FB
 8
0
 62
131
 10
0.0
 20
0.0
 30
0.0
 70
128
 71
525
 72
502
 73
513
 74
512
 0
VERTEX
 5
4FC
 8
0
 62
131
 10
0.0
 20
0.0
 30
0.0
 70
128
 71
514
 72
503
 73
525
 74
526
 0
VERTEX
 5
4FD
 8
0
 62
131
 10
0.0
 20
0.0
 30
0.0
 70
128
 71
517
 72
515
 73
503
 74
514
 0
VERTEX
 5
4FE
 8
0
 62
131
 10
0.0
 20
0.0
 30
0.0
 70
128
 71
506
 72
515
 73
523
 74
522
 0
VERTEX
 5
4FF
 8
0
 62
131
 10
0.0
 20
0.0
 30
0.0
 70
128
 71
505
 72
506
 73
522
 74
516
 0
VERTEX
 5
500
 8
0
 62
131
 10
0.0
 20
0.0
 30
0.0
 70
128
 71
496
 72
505
 73
517
 74
514
 0
VERTEX
 5
501
 8
0
 62
131
 10
0.0
 20
0.0
 30
0.0
 70
128
 71
508
 72
507
 73
518
 74
528
 0
VERTEX
 5
502
 8
0
 62
131
 10
0.0
 20
0.0
 30
0.0
 70
128
 71
528
 72
519
 73
500
 74
508
 0
VERTEX
 5
503
 8
0
 62
131
 10
0.0
 20
0.0
 30
0.0
 70
128
 71
519
 72
513
 73
502
 74
520
 0
VERTEX
 5
504
 8
0
 62
131
 10
0.0
 20
0.0
 30
0.0
 70
128
 71
523
 72
510
 73
521
 74
522
 0
VERTEX
 5
505
 8
0
 62
131
 10
0.0
 20
0.0
 30
0.0
 70
128
 71
512
 72
513
 73
518
 74
510
 0
VERTEX
 5
506
 8
0
 62
131
 10
0.0
 20
0.0
 30
0.0
 70
128
 71
516
 72
522
 73
521
 74
530
 0
VERTEX
 5
507
 8
0
 62
131
 10
0.0
 20
0.0
 30
0.0
 70
128
 71
529
 72
530
 73
511
 74
524
 0
VERTEX
 5
508
 8
0
 62
131
 10
0.0
 20
0.0
 30
0.0
 70
128
 71
526
 72
525
 73
512
 74
524
 0
VERTEX
 5
509
 8
0
 62
131
 10
0.0
 20
0.0
 30
0.0
 70
128
 71
527
 72
523
 73
515
 74
517
 0
VERTEX
 5
50A
 8
0
 62
131
 10
0.0
 20
0.0
 30
0.0
 70
128
 71
516
 72
527
 73
517
 74
505
 0
VERTEX
 5
50B
 8
0
 62
131
 10
0.0
 20
0.0
 30
0.0
 70
128
 71
528
 72
518
 73
513
 74
519
 0
VERTEX
 5
50C
 8
0
 62
131
 10
0.0
 20
0.0
 30
0.0
 70
128
 71
529
 72
510
 73
523
 74
527
 0
VERTEX
 5
50D
 8
0
 62
131
 10
0.0
 20
0.0
 30
0.0
 70
128
 71
524
 72
512
 73
510
 74
529
 0
VERTEX
 5
50E
 8
0
 62
131
 10
0.0
 20
0.0
 30
0.0
 70
128
 71
516
 72
530
 73
529
 74
527
 0
VERTEX
 5
50F
 8
0
 62
131
 10
0.0
 20
0.0
 30
0.0
 70
128
 71
533
 72
534
 73
531
 74
536
 0
VERTEX
 5
510
 8
0
 62
131
 10
0.0
 20
0.0
 30
0.0
 70
128
 71
532
 72
538
 73
534
 74
533
 0
VERTEX
 5
511
 8
0
 62
131
 10
0.0
 20
0.0
 30
0.0
 70
128
 71
540
 72
531
 73
534
 74
541
 0
VERTEX
 5
512
 8
0
 62
131
 10
0.0
 20
0.0
 30
0.0
 70
128
 71
535
 72
536
 73
531
 74
537
 0
VERTEX
 5
513
 8
0
 62
131
 10
0.0
 20
0.0
 30
0.0
 70
128
 71
533
 72
536
 73
535
 74
532
 0
VERTEX
 5
514
 8
0
 62
131
 10
0.0
 20
0.0
 30
0.0
 70
128
 71
535
 72
537
 73
538
 74
532
 0
VERTEX
 5
515
 8
0
 62
131
 10
0.0
 20
0.0
 30
0.0
 70
128
 71
542
 72
541
 73
534
 74
538
 0
VERTEX
 5
516
 8
0
 62
131
 10
0.0
 20
0.0
 30
0.0
 70
128
 71
539
 72
537
 73
531
 74
540
 0
VERTEX
 5
517
 8
0
 62
131
 10
0.0
 20
0.0
 30
0.0
 70
128
 71
542
 72
539
 73
540
 74
541
 0
VERTEX
 5
518
 8
0
 62
131
 10
0.0
 20
0.0
 30
0.0
 70
128
 71
542
 72
538
 73
537
 74
539
 0
VERTEX
 5
519
 8
0
 62
131
 10
0.0
 20
0.0
 30
0.0
 70
128
 71
543
 72
553
 73
544
 74
548
 0
VERTEX
 5
51A
 8
0
 62
131
 10
0.0
 20
0.0
 30
0.0
 70
128
 71
553
 72
543
 73
549
 74
552
 0
VERTEX
 5
51B
 8
0
 62
131
 10
0.0
 20
0.0
 30
0.0
 70
128
 71
553
 72
563
 73
564
 74
544
 0
VERTEX
 5
51C
 8
0
 62
131
 10
0.0
 20
0.0
 30
0.0
 70
128
 71
548
 72
544
 73
557
 74
560
 0
VERTEX
 5
51D
 8
0
 62
131
 10
0.0
 20
0.0
 30
0.0
 70
128
 71
548
 72
546
 73
547
 74
543
 0
VERTEX
 5
51E
 8
0
 62
131
 10
0.0
 20
0.0
 30
0.0
 70
128
 71
543
 72
547
 73
550
 74
549
 0
VERTEX
 5
51F
 8
0
 62
131
 10
0.0
 20
0.0
 30
0.0
 70
128
 71
552
 72
549
 73
550
 74
551
 0
VERTEX
 5
520
 8
0
 62
131
 10
0.0
 20
0.0
 30
0.0
 70
128
 71
563
 72
553
 73
552
 74
551
 0
VERTEX
 5
521
 8
0
 62
131
 10
0.0
 20
0.0
 30
0.0
 70
128
 71
570
 72
564
 73
563
 74
554
 0
VERTEX
 5
522
 8
0
 62
131
 10
0.0
 20
0.0
 30
0.0
 70
128
 71
544
 72
564
 73
555
 74
545
 0
VERTEX
 5
523
 8
0
 62
131
 10
0.0
 20
0.0
 30
0.0
 70
128
 71
544
 72
545
 73
565
 74
557
 0
VERTEX
 5
524
 8
0
 62
131
 10
0.0
 20
0.0
 30
0.0
 70
128
 71
558
 72
556
 73
560
 74
557
 0
VERTEX
 5
525
 8
0
 62
131
 10
0.0
 20
0.0
 30
0.0
 70
128
 71
561
 72
548
 73
560
 74
559
 0
VERTEX
 5
526
 8
0
 62
131
 10
0.0
 20
0.0
 30
0.0
 70
128
 71
546
 72
548
 73
561
 74
576
 0
VERTEX
 5
527
 8
0
 62
131
 10
0.0
 20
0.0
 30
0.0
 70
128
 71
567
 72
566
 73
545
 74
561
 0
VERTEX
 5
528
 8
0
 62
131
 10
0.0
 20
0.0
 30
0.0
 70
128
 71
545
 72
555
 73
576
 74
561
 0
VERTEX
 5
529
 8
0
 62
131
 10
0.0
 20
0.0
 30
0.0
 70
128
 71
562
 72
547
 73
546
 74
579
 0
VERTEX
 5
52A
 8
0
 62
131
 10
0.0
 20
0.0
 30
0.0
 70
128
 71
547
 72
563
 73
551
 74
550
 0
VERTEX
 5
52B
 8
0
 62
131
 10
0.0
 20
0.0
 30
0.0
 70
128
 71
571
 72
555
 73
564
 74
570
 0
VERTEX
 5
52C
 8
0
 62
131
 10
0.0
 20
0.0
 30
0.0
 70
128
 71
563
 72
547
 73
562
 74
554
 0
VERTEX
 5
52D
 8
0
 62
131
 10
0.0
 20
0.0
 30
0.0
 70
128
 71
585
 72
570
 73
554
 74
587
 0
VERTEX
 5
52E
 8
0
 62
131
 10
0.0
 20
0.0
 30
0.0
 70
128
 71
565
 72
545
 73
566
 0
VERTEX
 5
52F
 8
0
 62
131
 10
0.0
 20
0.0
 30
0.0
 70
128
 71
558
 72
557
 73
565
 74
566
 0
VERTEX
 5
530
 8
0
 62
131
 10
0.0
 20
0.0
 30
0.0
 70
128
 71
566
 72
567
 73
556
 74
558
 0
VERTEX
 5
531
 8
0
 62
131
 10
0.0
 20
0.0
 30
0.0
 70
128
 71
559
 72
560
 73
556
 74
567
 0
VERTEX
 5
532
 8
0
 62
131
 10
0.0
 20
0.0
 30
0.0
 70
128
 71
559
 72
567
 73
561
 0
VERTEX
 5
533
 8
0
 62
131
 10
0.0
 20
0.0
 30
0.0
 70
128
 71
546
 72
576
 73
599
 74
591
 0
VERTEX
 5
534
 8
0
 62
131
 10
0.0
 20
0.0
 30
0.0
 70
128
 71
571
 72
568
 73
576
 74
555
 0
VERTEX
 5
535
 8
0
 62
131
 10
0.0
 20
0.0
 30
0.0
 70
128
 71
546
 72
591
 73
569
 74
579
 0
VERTEX
 5
536
 8
0
 62
131
 10
0.0
 20
0.0
 30
0.0
 70
128
 71
579
 72
581
 73
584
 74
562
 0
VERTEX
 5
537
 8
0
 62
131
 10
0.0
 20
0.0
 30
0.0
 70
128
 71
572
 72
571
 73
570
 74
585
 0
VERTEX
 5
538
 8
0
 62
131
 10
0.0
 20
0.0
 30
0.0
 70
128
 71
554
 72
562
 73
583
 74
573
 0
VERTEX
 5
539
 8
0
 62
131
 10
0.0
 20
0.0
 30
0.0
 70
128
 71
587
 72
554
 73
573
 74
574
 0
VERTEX
 5
53A
 8
0
 62
131
 10
0.0
 20
0.0
 30
0.0
 70
128
 71
587
 72
584
 73
593
 74
585
 0
VERTEX
 5
53B
 8
0
 62
131
 10
0.0
 20
0.0
 30
0.0
 70
128
 71
599
 72
576
 73
575
 74
588
 0
VERTEX
 5
53C
 8
0
 62
131
 10
0.0
 20
0.0
 30
0.0
 70
128
 71
599
 72
603
 73
592
 74
591
 0
VERTEX
 5
53D
 8
0
 62
131
 10
0.0
 20
0.0
 30
0.0
 70
128
 71
572
 72
577
 73
568
 74
571
 0
VERTEX
 5
53E
 8
0
 62
131
 10
0.0
 20
0.0
 30
0.0
 70
128
 71
577
 72
575
 73
576
 74
568
 0
VERTEX
 5
53F
 8
0
 62
131
 10
0.0
 20
0.0
 30
0.0
 70
128
 71
591
 72
609
 73
613
 74
569
 0
VERTEX
 5
540
 8
0
 62
131
 10
0.0
 20
0.0
 30
0.0
 70
128
 71
579
 72
569
 73
578
 74
580
 0
VERTEX
 5
541
 8
0
 62
131
 10
0.0
 20
0.0
 30
0.0
 70
128
 71
581
 72
579
 73
580
 74
595
 0
VERTEX
 5
542
 8
0
 62
131
 10
0.0
 20
0.0
 30
0.0
 70
128
 71
584
 72
581
 73
582
 74
593
 0
VERTEX
 5
543
 8
0
 62
131
 10
0.0
 20
0.0
 30
0.0
 70
128
 71
562
 72
584
 73
586
 74
583
 0
VERTEX
 5
544
 8
0
 62
131
 10
0.0
 20
0.0
 30
0.0
 70
128
 71
585
 72
593
 73
577
 74
572
 0
VERTEX
 5
545
 8
0
 62
131
 10
0.0
 20
0.0
 30
0.0
 70
128
 71
573
 72
583
 73
586
 74
574
 0
VERTEX
 5
546
 8
0
 62
131
 10
0.0
 20
0.0
 30
0.0
 70
128
 71
584
 72
587
 73
574
 74
586
 0
VERTEX
 5
547
 8
0
 62
131
 10
0.0
 20
0.0
 30
0.0
 70
128
 71
582
 72
589
 73
588
 74
575
 0
VERTEX
 5
548
 8
0
 62
131
 10
0.0
 20
0.0
 30
0.0
 70
128
 71
598
 72
599
 73
588
 74
615
 0
VERTEX
 5
549
 8
0
 62
131
 10
0.0
 20
0.0
 30
0.0
 70
128
 71
603
 72
599
 73
601
 74
600
 0
VERTEX
 5
54A
 8
0
 62
131
 10
0.0
 20
0.0
 30
0.0
 70
128
 71
592
 72
603
 73
604
 74
623
 0
VERTEX
 5
54B
 8
0
 62
131
 10
0.0
 20
0.0
 30
0.0
 70
128
 71
590
 72
609
 73
591
 74
592
 0
VERTEX
 5
54C
 8
0
 62
131
 10
0.0
 20
0.0
 30
0.0
 70
128
 71
593
 72
582
 73
575
 74
577
 0
VERTEX
 5
54D
 8
0
 62
131
 10
0.0
 20
0.0
 30
0.0
 70
128
 71
609
 72
619
 73
630
 74
613
 0
VERTEX
 5
54E
 8
0
 62
131
 10
0.0
 20
0.0
 30
0.0
 70
128
 71
596
 72
569
 73
613
 74
614
 0
VERTEX
 5
54F
 8
0
 62
131
 10
0.0
 20
0.0
 30
0.0
 70
128
 71
569
 72
596
 73
594
 74
578
 0
VERTEX
 5
550
 8
0
 62
131
 10
0.0
 20
0.0
 30
0.0
 70
128
 71
594
 72
595
 73
580
 74
578
 0
VERTEX
 5
551
 8
0
 62
131
 10
0.0
 20
0.0
 30
0.0
 70
128
 71
596
 72
581
 73
595
 74
594
 0
VERTEX
 5
552
 8
0
 62
131
 10
0.0
 20
0.0
 30
0.0
 70
128
 71
581
 72
596
 73
589
 74
582
 0
VERTEX
 5
553
 8
0
 62
131
 10
0.0
 20
0.0
 30
0.0
 70
128
 71
615
 72
588
 73
589
 74
616
 0
VERTEX
 5
554
 8
0
 62
131
 10
0.0
 20
0.0
 30
0.0
 70
128
 71
601
 72
599
 73
598
 74
597
 0
VERTEX
 5
555
 8
0
 62
131
 10
0.0
 20
0.0
 30
0.0
 70
128
 71
617
 72
597
 73
598
 74
615
 0
VERTEX
 5
556
 8
0
 62
131
 10
0.0
 20
0.0
 30
0.0
 70
128
 71
600
 72
601
 73
618
 74
606
 0
VERTEX
 5
557
 8
0
 62
131
 10
0.0
 20
0.0
 30
0.0
 70
128
 71
620
 72
602
 73
603
 74
600
 0
VERTEX
 5
558
 8
0
 62
131
 10
0.0
 20
0.0
 30
0.0
 70
128
 71
604
 72
603
 73
602
 0
VERTEX
 5
559
 8
0
 62
131
 10
0.0
 20
0.0
 30
0.0
 70
128
 71
605
 72
623
 73
604
 74
602
 0
VERTEX
 5
55A
 8
0
 62
131
 10
0.0
 20
0.0
 30
0.0
 70
128
 71
606
 72
592
 73
623
 74
607
 0
VERTEX
 5
55B
 8
0
 62
131
 10
0.0
 20
0.0
 30
0.0
 70
128
 71
609
 72
590
 73
608
 74
625
 0
VERTEX
 5
55C
 8
0
 62
131
 10
0.0
 20
0.0
 30
0.0
 70
128
 71
627
 72
590
 73
592
 74
606
 0
VERTEX
 5
55D
 8
0
 62
131
 10
0.0
 20
0.0
 30
0.0
 70
128
 71
619
 72
609
 73
625
 74
626
 0
VERTEX
 5
55E
 8
0
 62
131
 10
0.0
 20
0.0
 30
0.0
 70
128
 71
630
 72
619
 73
618
 74
610
 0
VERTEX
 5
55F
 8
0
 62
131
 10
0.0
 20
0.0
 30
0.0
 70
128
 71
613
 72
630
 73
632
 74
611
 0
VERTEX
 5
560
 8
0
 62
131
 10
0.0
 20
0.0
 30
0.0
 70
128
 71
614
 72
613
 73
611
 74
612
 0
VERTEX
 5
561
 8
0
 62
131
 10
0.0
 20
0.0
 30
0.0
 70
128
 71
596
 72
614
 73
616
 74
589
 0
VERTEX
 5
562
 8
0
 62
131
 10
0.0
 20
0.0
 30
0.0
 70
128
 71
617
 72
615
 73
616
 74
629
 0
VERTEX
 5
563
 8
0
 62
131
 10
0.0
 20
0.0
 30
0.0
 70
128
 71
610
 72
618
 73
601
 74
597
 0
VERTEX
 5
564
 8
0
 62
131
 10
0.0
 20
0.0
 30
0.0
 70
128
 71
629
 72
610
 73
597
 74
617
 0
VERTEX
 5
565
 8
0
 62
131
 10
0.0
 20
0.0
 30
0.0
 70
128
 71
606
 72
618
 73
619
 74
627
 0
VERTEX
 5
566
 8
0
 62
131
 10
0.0
 20
0.0
 30
0.0
 70
128
 71
600
 72
606
 73
607
 74
621
 0
VERTEX
 5
567
 8
0
 62
131
 10
0.0
 20
0.0
 30
0.0
 70
128
 71
602
 72
620
 73
622
 74
605
 0
VERTEX
 5
568
 8
0
 62
131
 10
0.0
 20
0.0
 30
0.0
 70
128
 71
621
 72
620
 73
600
 0
VERTEX
 5
569
 8
0
 62
131
 10
0.0
 20
0.0
 30
0.0
 70
128
 71
605
 72
622
 73
607
 74
623
 0
VERTEX
 5
56A
 8
0
 62
131
 10
0.0
 20
0.0
 30
0.0
 70
128
 71
590
 72
627
 73
624
 74
608
 0
VERTEX
 5
56B
 8
0
 62
131
 10
0.0
 20
0.0
 30
0.0
 70
128
 71
626
 72
625
 73
608
 74
624
 0
VERTEX
 5
56C
 8
0
 62
131
 10
0.0
 20
0.0
 30
0.0
 70
128
 71
627
 72
619
 73
626
 74
624
 0
VERTEX
 5
56D
 8
0
 62
131
 10
0.0
 20
0.0
 30
0.0
 70
128
 71
628
 72
630
 73
610
 74
629
 0
VERTEX
 5
56E
 8
0
 62
131
 10
0.0
 20
0.0
 30
0.0
 70
128
 71
630
 72
628
 73
631
 74
632
 0
VERTEX
 5
56F
 8
0
 62
131
 10
0.0
 20
0.0
 30
0.0
 70
128
 71
611
 72
632
 73
631
 74
612
 0
VERTEX
 5
570
 8
0
 62
131
 10
0.0
 20
0.0
 30
0.0
 70
128
 71
628
 72
614
 73
612
 74
631
 0
VERTEX
 5
571
 8
0
 62
131
 10
0.0
 20
0.0
 30
0.0
 70
128
 71
629
 72
616
 73
614
 74
628
 0
VERTEX
 5
572
 8
0
 62
131
 10
0.0
 20
0.0
 30
0.0
 70
128
 71
620
 72
621
 73
607
 74
622
 0
SEQEND
 5
573
 8
0
 62
131
 0
ENDSEC
 0
EOF
