 0
SECTION
 2
HEADER
 9
$ACADVER
 1
AC1009
 9
$INSBASE
 10
0.0
 20
0.0
 30
0.0
 9
$EXTMIN
 10
0.0
 20
0.0
 30
0.0
 9
$EXTMAX
 10
0.0
 20
0.0
 30
0.0
 0
ENDSEC
 0
SECTION
 2
TABLES
 0
TABLE
 2
VPORT
 70
1
 0
VPORT
 2
*ACTIVE
 70
0
 10
0.0
 20
0.0
 11
1.0
 21
1.0
 12
-5.0
 22
1.0
 13
0.0
 23
0.0
 14
0.1
 24
0.1
 15
0.1
 25
0.1
 16
0.0
 26
0.0
 36
1.0
 17
0.0
 27
0.0
 37
0.0
 40
10.0
 41
1.0
 42
50.0
 43
0.0
 44
0.0
 50
0.0
 51
0.0
 71
0
 72
100
 73
1
 74
1
 75
0
 76
0
 77
0
 78
0
 0
ENDTAB
 0
TABLE
 2
LTYPE
 70
8
 0
LTYPE
 2
CONTINUOUS
 70
0
 3
Solid line
 72
65
 73
0
 40
0.0
 0
LTYPE
 2
DOT
 70
0
 3
. . . . . . .
 72
65
 73
2
 40
0.25
 49
0.0
 49
-0.25
 0
LTYPE
 2
DASHED
 70
0
 3
__ __ __ __ __
 72
65
 73
2
 40
0.8
 49
0.5
 49
-0.3
 0
LTYPE
 2
DASHDOT
 70
0
 3
__ . __ . __ .
 72
65
 73
4
 40
1.0
 49
0.5
 49
-0.25
 49
0.0
 49
-0.25
 0
LTYPE
 2
DIVIDE
 70
0
 3
____ . . ____ . . 
 72
65
 73
6
 40
1.25
 49
0.5
 49
-0.25
 49
0.0
 49
-0.25
 49
0.0
 49
-0.25
 0
LTYPE
 2
BORDER
 70
0
 3
__ __ . __ __ . 
 72
65
 73
6
 40
1.75
 49
0.5
 49
-0.25
 49
0.5
 49
-0.25
 49
0.0
 49
-0.25
 0
LTYPE
 2
HIDDEN
 70
0
 3
__ __ __ __ __
 72
65
 73
2
 40
0.4
 49
0.25
 49
-0.25
 0
LTYPE
 2
CENTER
 70
0
 3
____ _ ____ _ __
 72
65
 73
4
 40
2.0
 49
1.25
 49
-0.25
 49
0.25
 49
-0.25
 0
ENDTAB
 0
TABLE
 2
LAYER
 70
1
 0
LAYER
 2
PYDXF
 70
64
 62
7
 6
continuous
 0
ENDTAB
 0
TABLE
 2
STYLE
 70
1
 0
STYLE
 2
STANDARD
 70
0
 40
0
 41
1.0
 50
0.0
 71
0
 42
1
 3
ARIAL.TTF
 4

 0
ENDTAB
 0
TABLE
 2
VIEW
 70
1
 0
VIEW
 2
BF_TOPVIEW
 70
0
 40
120.0
 10
0.0
 20
0.0
 41
200.0
 11
0.0
 21
0.0
 31
1.0
 12
0.0
 22
0.0
 32
0.0
 42
50.0
 43
0.0
 44
0.0
 50
0.0
 71
0
 0
ENDTAB
 0
ENDSEC
 0
SECTION
 2
BLOCKS
 0
ENDSEC
 0
SECTION
 2
ENTITIES
 0
POLYLINE
 8
0
 70
64
 66
1
 10
0.0
 20
0.0
 30
0.0
 71
125
 72
124
 0
VERTEX
 8
0
 10
-0.1861087530851364
 20
0.3304
 30
2.0125
 70
192
 0
VERTEX
 8
0
 10
-0.22429051995277405
 20
0.3304
 30
2.0125
 70
192
 0
VERTEX
 8
0
 10
-0.17621810734272003
 20
0.3304
 30
2.1634023189544678
 70
192
 0
VERTEX
 8
0
 10
-0.1405685544013977
 20
0.3177
 30
2.3100759983062744
 70
192
 0
VERTEX
 8
0
 10
-0.1797451376914978
 20
0.3177
 30
2.0125
 70
192
 0
VERTEX
 8
0
 10
-0.16990892589092255
 20
0.3177
 30
2.162571907043457
 70
192
 0
VERTEX
 8
0
 10
-0.1509813666343689
 20
0.305
 30
2.1600799560546875
 70
192
 0
VERTEX
 8
0
 10
-0.16065427660942078
 20
0.305
 30
2.0125
 70
192
 0
VERTEX
 8
0
 10
-0.22429051995277405
 20
0.305
 30
2.0125
 70
192
 0
VERTEX
 8
0
 10
-0.21407319605350494
 20
0.3304
 30
2.168386220932007
 70
192
 0
VERTEX
 8
0
 10
-0.14671531319618225
 20
0.3304
 30
2.311722755432129
 70
192
 0
VERTEX
 8
0
 10
-0.09222602099180222
 20
0.3177
 30
2.452488422393799
 70
192
 0
VERTEX
 8
0
 10
-0.21407319605350494
 20
0.305
 30
2.168386220932007
 70
192
 0
VERTEX
 8
0
 10
-0.09810522943735123
 20
0.3304
 30
2.454923629760742
 70
192
 0
VERTEX
 8
0
 10
-0.03121955692768097
 20
0.3304
 30
2.5905544757843018
 70
192
 0
VERTEX
 8
0
 10
-0.025708507746458054
 20
0.3177
 30
2.5873725414276123
 70
192
 0
VERTEX
 8
0
 10
-0.18359605967998505
 20
0.305
 30
2.3216049671173096
 70
192
 0
VERTEX
 8
0
 10
-0.12212816625833511
 20
0.305
 30
2.3051347732543945
 70
192
 0
VERTEX
 8
0
 10
-0.18359605967998505
 20
0.3304
 30
2.3216049671173096
 70
192
 0
VERTEX
 8
0
 10
-0.13338056206703186
 20
0.3304
 30
2.4695351123809814
 70
192
 0
VERTEX
 8
0
 10
-0.06428593397140503
 20
0.3304
 30
2.609645366668701
 70
192
 0
VERTEX
 8
0
 10
0.052797310054302216
 20
0.3304
 30
2.716294288635254
 70
192
 0
VERTEX
 8
0
 10
-0.009175335988402367
 20
0.305
 30
2.577827215194702
 70
192
 0
VERTEX
 8
0
 10
-0.13338056206703186
 20
0.305
 30
2.4695351123809814
 70
192
 0
VERTEX
 8
0
 10
-0.0745883360505104
 20
0.305
 30
2.4451828002929688
 70
192
 0
VERTEX
 8
0
 10
-0.06428593397140503
 20
0.305
 30
2.609645366668701
 70
192
 0
VERTEX
 8
0
 10
0.02250562608242035
 20
0.305
 30
2.7395377159118652
 70
192
 0
VERTEX
 8
0
 10
0.02250562608242035
 20
0.3304
 30
2.7395377159118652
 70
192
 0
VERTEX
 8
0
 10
0.1255091279745102
 20
0.3304
 30
2.8569905757904053
 70
192
 0
VERTEX
 8
0
 10
0.15250754356384277
 20
0.3304
 30
2.83
 70
192
 0
VERTEX
 8
0
 10
0.07299157232046127
 20
0.305
 30
2.700798749923706
 70
192
 0
VERTEX
 8
0
 10
0.057845816016197205
 20
0.3177
 30
2.7124204635620117
 70
192
 0
VERTEX
 8
0
 10
0.17050674557685852
 20
0.305
 30
2.81199312210083
 70
192
 0
VERTEX
 8
0
 10
0.1255091279745102
 20
0.305
 30
2.8569905757904053
 70
192
 0
VERTEX
 8
0
 10
0.2662055492401123
 20
0.3304
 30
2.9297025203704834
 70
192
 0
VERTEX
 8
0
 10
0.3951273262500763
 20
0.3177
 30
3.0082085132598877
 70
192
 0
VERTEX
 8
0
 10
0.1570073962211609
 20
0.3177
 30
2.8254926204681396
 70
192
 0
VERTEX
 8
0
 10
0.24296200275421143
 20
0.305
 30
2.96
 70
192
 0
VERTEX
 8
0
 10
0.24296200275421143
 20
0.3304
 30
2.96
 70
192
 0
VERTEX
 8
0
 10
0.3919454514980316
 20
0.3304
 30
3.0137195587158203
 70
192
 0
VERTEX
 8
0
 10
0.5300114750862122
 20
0.3177
 30
3.074725866317749
 70
192
 0
VERTEX
 8
0
 10
0.2700795829296112
 20
0.3177
 30
2.924654006958008
 70
192
 0
VERTEX
 8
0
 10
0.40467286109924316
 20
0.305
 30
2.99167537689209
 70
192
 0
VERTEX
 8
0
 10
0.28170135617256165
 20
0.305
 30
2.909508466720581
 70
192
 0
VERTEX
 8
0
 10
0.3728547990322113
 20
0.305
 30
3.046785831451416
 70
192
 0
VERTEX
 8
0
 10
0.3728547990322113
 20
0.3304
 30
3.046785831451416
 70
192
 0
VERTEX
 8
0
 10
0.5275763869285583
 20
0.3304
 30
3.0806052684783936
 70
192
 0
VERTEX
 8
0
 10
0.6707770228385925
 20
0.3304
 30
3.1292152404785156
 70
192
 0
VERTEX
 8
0
 10
0.5129647850990295
 20
0.305
 30
3.1158804893493652
 70
192
 0
VERTEX
 8
0
 10
0.5129647850990295
 20
0.3304
 30
3.1158804893493652
 70
192
 0
VERTEX
 8
0
 10
0.537317276
 20
0.305
 30
3.0570881366729736
 70
192
 0
VERTEX
 8
0
 10
0.6724238991737366
 20
0.3177
 30
3.123068332672119
 70
192
 0
VERTEX
 8
0
 10
0.6608948707580566
 20
0.3304
 30
3.1660959720611572
 70
192
 0
VERTEX
 8
0
 10
0.8190974593162537
 20
0.3304
 30
3.1587181091308594
 70
192
 0
VERTEX
 8
0
 10
0.8199280500411987
 20
0.3177
 30
3.1524085998535156
 70
192
 0
VERTEX
 8
0
 10
0.97
 20
0.3304
 30
3.1686086654663086
 70
192
 0
VERTEX
 8
0
 10
0.6773650050163269
 20
0.305
 30
3.104628086090088
 70
192
 0
VERTEX
 8
0
 10
0.6608948707580566
 20
0.305
 30
3.1660959720611572
 70
192
 0
VERTEX
 8
0
 10
0.8141136765480042
 20
0.305
 30
3.19657301902771
 70
192
 0
VERTEX
 8
0
 10
0.8141136765480042
 20
0.3304
 30
3.19657301902771
 70
192
 0
VERTEX
 8
0
 10
1.1200717687606812
 20
0.3177
 30
3.1524085998535156
 70
192
 0
VERTEX
 8
0
 10
0.8224201202392578
 20
0.305
 30
3.13348126411438
 70
192
 0
VERTEX
 8
0
 10
0.97
 20
0.305
 30
3.2067904472351074
 70
192
 0
VERTEX
 8
0
 10
0.97
 20
0.3304
 30
3.2067904472351074
 70
192
 0
VERTEX
 8
0
 10
1.1209022998809814
 20
0.3304
 30
3.1587181091308594
 70
192
 0
VERTEX
 8
0
 10
0.97
 20
0.305
 30
3.1431541442871094
 70
192
 0
VERTEX
 8
0
 10
0.97
 20
0.3177
 30
3.162245273590088
 70
192
 0
VERTEX
 8
0
 10
1.125886082649231
 20
0.305
 30
3.19657301902771
 70
192
 0
VERTEX
 8
0
 10
1.125886082649231
 20
0.3304
 30
3.19657301902771
 70
192
 0
VERTEX
 8
0
 10
1.4124236106872559
 20
0.3304
 30
3.0806052684783936
 70
192
 0
VERTEX
 8
0
 10
1.2692228555679321
 20
0.3304
 30
3.1292152404785156
 70
192
 0
VERTEX
 8
0
 10
1.2675758600234985
 20
0.3177
 30
3.123068332672119
 70
192
 0
VERTEX
 8
0
 10
1.1175800561904907
 20
0.305
 30
3.13348126411438
 70
192
 0
VERTEX
 8
0
 10
1.409988284111023
 20
0.3177
 30
3.074725866317749
 70
192
 0
VERTEX
 8
0
 10
1.2626347541809082
 20
0.305
 30
3.104628086090088
 70
192
 0
VERTEX
 8
0
 10
1.2791048288345337
 20
0.305
 30
3.1660959720611572
 70
192
 0
VERTEX
 8
0
 10
1.4270349740982056
 20
0.3304
 30
3.1158804893493652
 70
192
 0
VERTEX
 8
0
 10
1.2791048288345337
 20
0.3304
 30
3.1660959720611572
 70
192
 0
VERTEX
 8
0
 10
1.5671452283859253
 20
0.3304
 30
3.046785831451416
 70
192
 0
VERTEX
 8
0
 10
1.5480543375015259
 20
0.3304
 30
3.0137195587158203
 70
192
 0
VERTEX
 8
0
 10
1.544872522354126
 20
0.3177
 30
3.0082085132598877
 70
192
 0
VERTEX
 8
0
 10
1.5353268384933472
 20
0.305
 30
2.99167537689209
 70
192
 0
VERTEX
 8
0
 10
1.4026825428009033
 20
0.305
 30
3.0570881366729736
 70
192
 0
VERTEX
 8
0
 10
1.5671452283859253
 20
0.305
 30
3.046785831451416
 70
192
 0
VERTEX
 8
0
 10
1.4270349740982056
 20
0.305
 30
3.1158804893493652
 70
192
 0
VERTEX
 8
0
 10
1.7829923629760742
 20
0.3177
 30
2.8254926204681396
 70
192
 0
VERTEX
 8
0
 10
1.669920563697815
 20
0.3177
 30
2.924654006958008
 70
192
 0
VERTEX
 8
0
 10
1.673794150352478
 20
0.3304
 30
2.9297025203704834
 70
192
 0
VERTEX
 8
0
 10
1.697037696838379
 20
0.305
 30
2.96
 70
192
 0
VERTEX
 8
0
 10
1.697037696838379
 20
0.3304
 30
2.96
 70
192
 0
VERTEX
 8
0
 10
1.814490556716919
 20
0.3304
 30
2.8569905757904053
 70
192
 0
VERTEX
 8
0
 10
1.8872028589248657
 20
0.3304
 30
2.716294288635254
 70
192
 0
VERTEX
 8
0
 10
1.787492275238037
 20
0.3304
 30
2.83
 70
192
 0
VERTEX
 8
0
 10
1.658298373222351
 20
0.305
 30
2.909508466720581
 70
192
 0
VERTEX
 8
0
 10
1.9174941778182983
 20
0.3304
 30
2.7395377159118652
 70
192
 0
VERTEX
 8
0
 10
1.9712194204330444
 20
0.3304
 30
2.5905544757843018
 70
192
 0
VERTEX
 8
0
 10
1.7694929838180542
 20
0.305
 30
2.81199312210083
 70
192
 0
VERTEX
 8
0
 10
1.814490556716919
 20
0.305
 30
2.8569905757904053
 70
192
 0
VERTEX
 8
0
 10
1.9174941778182983
 20
0.305
 30
2.7395377159118652
 70
192
 0
VERTEX
 8
0
 10
1.9657082557678223
 20
0.3177
 30
2.5873725414276123
 70
192
 0
VERTEX
 8
0
 10
1.949175238609314
 20
0.305
 30
2.577827215194702
 70
192
 0
VERTEX
 8
0
 10
1.882153868675232
 20
0.3177
 30
2.7124204635620117
 70
192
 0
VERTEX
 8
0
 10
1.867008090019226
 20
0.305
 30
2.700798749923706
 70
192
 0
VERTEX
 8
0
 10
2.073380470275879
 20
0.3304
 30
2.4695351123809814
 70
192
 0
VERTEX
 8
0
 10
2.038105010986328
 20
0.3304
 30
2.454923629760742
 70
192
 0
VERTEX
 8
0
 10
2.0322258472442627
 20
0.3177
 30
2.452488422393799
 70
192
 0
VERTEX
 8
0
 10
2.0042858123779297
 20
0.305
 30
2.609645366668701
 70
192
 0
VERTEX
 8
0
 10
2.0042858123779297
 20
0.3304
 30
2.609645366668701
 70
192
 0
VERTEX
 8
0
 10
2.123595952987671
 20
0.3304
 30
2.3216049671173096
 70
192
 0
VERTEX
 8
0
 10
2.116218090057373
 20
0.3304
 30
2.1634023189544678
 70
192
 0
VERTEX
 8
0
 10
2.08671498298645
 20
0.3304
 30
2.311722755432129
 70
192
 0
VERTEX
 8
0
 10
2.080568313598633
 20
0.3177
 30
2.3100759983062744
 70
192
 0
VERTEX
 8
0
 10
2.0145883560180664
 20
0.305
 30
2.4451828002929688
 70
192
 0
VERTEX
 8
0
 10
2.073380470275879
 20
0.305
 30
2.4695351123809814
 70
192
 0
VERTEX
 8
0
 10
2.123595952987671
 20
0.305
 30
2.3216049671173096
 70
192
 0
VERTEX
 8
0
 10
2.1261086463928223
 20
0.3304
 30
2.0125
 70
192
 0
VERTEX
 8
0
 10
2.1099085807800293
 20
0.3177
 30
2.162571907043457
 70
192
 0
VERTEX
 8
0
 10
2.0909810066223145
 20
0.305
 30
2.1600799560546875
 70
192
 0
VERTEX
 8
0
 10
2.0621280670166016
 20
0.305
 30
2.3051347732543945
 70
192
 0
VERTEX
 8
0
 10
2.1540732383728027
 20
0.3304
 30
2.168386220932007
 70
192
 0
VERTEX
 8
0
 10
2.1197450160980225
 20
0.3177
 30
2.0125
 70
192
 0
VERTEX
 8
0
 10
2.164290428161621
 20
0.305
 30
2.0125
 70
192
 0
VERTEX
 8
0
 10
2.164290428161621
 20
0.3304
 30
2.0125
 70
192
 0
VERTEX
 8
0
 10
2.1540732383728027
 20
0.305
 30
2.168386220932007
 70
192
 0
VERTEX
 8
0
 10
2.100654125213623
 20
0.305
 30
2.0125
 70
192
 0
VERTEX
 8
0
 10
0.0
 20
0.0
 30
0.0
 70
128
 71
5
 72
1
 73
3
 74
6
 0
VERTEX
 8
0
 10
0.0
 20
0.0
 30
0.0
 70
128
 71
1
 72
5
 73
9
 74
2
 0
VERTEX
 8
0
 10
0.0
 20
0.0
 30
0.0
 70
128
 71
3
 72
1
 73
2
 74
10
 0
VERTEX
 8
0
 10
0.0
 20
0.0
 30
0.0
 70
128
 71
6
 72
3
 73
11
 74
4
 0
VERTEX
 8
0
 10
0.0
 20
0.0
 30
0.0
 70
128
 71
8
 72
5
 73
6
 74
7
 0
VERTEX
 8
0
 10
0.0
 20
0.0
 30
0.0
 70
128
 71
8
 72
9
 73
5
 0
VERTEX
 8
0
 10
0.0
 20
0.0
 30
0.0
 70
128
 71
2
 72
9
 73
13
 74
10
 0
VERTEX
 8
0
 10
0.0
 20
0.0
 30
0.0
 70
128
 71
10
 72
19
 73
11
 74
3
 0
VERTEX
 8
0
 10
0.0
 20
0.0
 30
0.0
 70
128
 71
4
 72
11
 73
14
 74
12
 0
VERTEX
 8
0
 10
0.0
 20
0.0
 30
0.0
 70
128
 71
7
 72
6
 73
4
 74
18
 0
VERTEX
 8
0
 10
0.0
 20
0.0
 30
0.0
 70
128
 71
8
 72
7
 73
13
 74
9
 0
VERTEX
 8
0
 10
0.0
 20
0.0
 30
0.0
 70
128
 71
10
 72
13
 73
17
 74
19
 0
VERTEX
 8
0
 10
0.0
 20
0.0
 30
0.0
 70
128
 71
19
 72
20
 73
14
 74
11
 0
VERTEX
 8
0
 10
0.0
 20
0.0
 30
0.0
 70
128
 71
12
 72
14
 73
15
 74
16
 0
VERTEX
 8
0
 10
0.0
 20
0.0
 30
0.0
 70
128
 71
18
 72
4
 73
12
 74
25
 0
VERTEX
 8
0
 10
0.0
 20
0.0
 30
0.0
 70
128
 71
17
 72
13
 73
7
 74
18
 0
VERTEX
 8
0
 10
0.0
 20
0.0
 30
0.0
 70
128
 71
19
 72
17
 73
24
 74
20
 0
VERTEX
 8
0
 10
0.0
 20
0.0
 30
0.0
 70
128
 71
20
 72
21
 73
15
 74
14
 0
VERTEX
 8
0
 10
0.0
 20
0.0
 30
0.0
 70
128
 71
16
 72
15
 73
22
 74
32
 0
VERTEX
 8
0
 10
0.0
 20
0.0
 30
0.0
 70
128
 71
25
 72
12
 73
16
 74
23
 0
VERTEX
 8
0
 10
0.0
 20
0.0
 30
0.0
 70
128
 71
24
 72
17
 73
18
 74
25
 0
VERTEX
 8
0
 10
0.0
 20
0.0
 30
0.0
 70
128
 71
20
 72
24
 73
26
 74
21
 0
VERTEX
 8
0
 10
0.0
 20
0.0
 30
0.0
 70
128
 71
21
 72
28
 73
22
 74
15
 0
VERTEX
 8
0
 10
0.0
 20
0.0
 30
0.0
 70
128
 71
32
 72
22
 73
30
 74
37
 0
VERTEX
 8
0
 10
0.0
 20
0.0
 30
0.0
 70
128
 71
23
 72
16
 73
32
 74
31
 0
VERTEX
 8
0
 10
0.0
 20
0.0
 30
0.0
 70
128
 71
25
 72
23
 73
26
 74
24
 0
VERTEX
 8
0
 10
0.0
 20
0.0
 30
0.0
 70
128
 71
21
 72
26
 73
27
 74
28
 0
VERTEX
 8
0
 10
0.0
 20
0.0
 30
0.0
 70
128
 71
28
 72
29
 73
30
 74
22
 0
VERTEX
 8
0
 10
0.0
 20
0.0
 30
0.0
 70
128
 71
37
 72
30
 73
35
 74
42
 0
VERTEX
 8
0
 10
0.0
 20
0.0
 30
0.0
 70
128
 71
31
 72
32
 73
37
 74
33
 0
VERTEX
 8
0
 10
0.0
 20
0.0
 30
0.0
 70
128
 71
27
 72
26
 73
23
 74
31
 0
VERTEX
 8
0
 10
0.0
 20
0.0
 30
0.0
 70
128
 71
28
 72
27
 73
34
 74
29
 0
VERTEX
 8
0
 10
0.0
 20
0.0
 30
0.0
 70
128
 71
29
 72
39
 73
35
 74
30
 0
VERTEX
 8
0
 10
0.0
 20
0.0
 30
0.0
 70
128
 71
42
 72
35
 73
40
 74
36
 0
VERTEX
 8
0
 10
0.0
 20
0.0
 30
0.0
 70
128
 71
33
 72
37
 73
42
 74
44
 0
VERTEX
 8
0
 10
0.0
 20
0.0
 30
0.0
 70
128
 71
34
 72
27
 73
31
 74
33
 0
VERTEX
 8
0
 10
0.0
 20
0.0
 30
0.0
 70
128
 71
29
 72
34
 73
38
 74
39
 0
VERTEX
 8
0
 10
0.0
 20
0.0
 30
0.0
 70
128
 71
39
 72
46
 73
40
 74
35
 0
VERTEX
 8
0
 10
0.0
 20
0.0
 30
0.0
 70
128
 71
36
 72
40
 73
47
 74
41
 0
VERTEX
 8
0
 10
0.0
 20
0.0
 30
0.0
 70
128
 71
44
 72
42
 73
36
 74
43
 0
VERTEX
 8
0
 10
0.0
 20
0.0
 30
0.0
 70
128
 71
38
 72
34
 73
33
 74
44
 0
VERTEX
 8
0
 10
0.0
 20
0.0
 30
0.0
 70
128
 71
39
 72
38
 73
45
 74
46
 0
VERTEX
 8
0
 10
0.0
 20
0.0
 30
0.0
 70
128
 71
46
 72
50
 73
47
 74
40
 0
VERTEX
 8
0
 10
0.0
 20
0.0
 30
0.0
 70
128
 71
41
 72
47
 73
48
 74
52
 0
VERTEX
 8
0
 10
0.0
 20
0.0
 30
0.0
 70
128
 71
43
 72
36
 73
41
 74
51
 0
VERTEX
 8
0
 10
0.0
 20
0.0
 30
0.0
 70
128
 71
45
 72
38
 73
44
 74
43
 0
VERTEX
 8
0
 10
0.0
 20
0.0
 30
0.0
 70
128
 71
46
 72
45
 73
49
 74
50
 0
VERTEX
 8
0
 10
0.0
 20
0.0
 30
0.0
 70
128
 71
50
 72
53
 73
48
 74
47
 0
VERTEX
 8
0
 10
0.0
 20
0.0
 30
0.0
 70
128
 71
52
 72
48
 73
54
 74
55
 0
VERTEX
 8
0
 10
0.0
 20
0.0
 30
0.0
 70
128
 71
51
 72
41
 73
52
 74
57
 0
VERTEX
 8
0
 10
0.0
 20
0.0
 30
0.0
 70
128
 71
43
 72
51
 73
49
 74
45
 0
VERTEX
 8
0
 10
0.0
 20
0.0
 30
0.0
 70
128
 71
50
 72
49
 73
58
 74
53
 0
VERTEX
 8
0
 10
0.0
 20
0.0
 30
0.0
 70
128
 71
53
 72
60
 73
54
 74
48
 0
VERTEX
 8
0
 10
0.0
 20
0.0
 30
0.0
 70
128
 71
55
 72
54
 73
56
 74
67
 0
VERTEX
 8
0
 10
0.0
 20
0.0
 30
0.0
 70
128
 71
57
 72
52
 73
55
 74
62
 0
VERTEX
 8
0
 10
0.0
 20
0.0
 30
0.0
 70
128
 71
51
 72
57
 73
58
 74
49
 0
VERTEX
 8
0
 10
0.0
 20
0.0
 30
0.0
 70
128
 71
53
 72
58
 73
59
 74
60
 0
VERTEX
 8
0
 10
0.0
 20
0.0
 30
0.0
 70
128
 71
60
 72
64
 73
56
 74
54
 0
VERTEX
 8
0
 10
0.0
 20
0.0
 30
0.0
 70
128
 71
65
 72
61
 73
67
 74
56
 0
VERTEX
 8
0
 10
0.0
 20
0.0
 30
0.0
 70
128
 71
62
 72
55
 73
67
 74
66
 0
VERTEX
 8
0
 10
0.0
 20
0.0
 30
0.0
 70
128
 71
57
 72
62
 73
59
 74
58
 0
VERTEX
 8
0
 10
0.0
 20
0.0
 30
0.0
 70
128
 71
60
 72
59
 73
63
 74
64
 0
VERTEX
 8
0
 10
0.0
 20
0.0
 30
0.0
 70
128
 71
64
 72
69
 73
65
 74
56
 0
VERTEX
 8
0
 10
0.0
 20
0.0
 30
0.0
 70
128
 71
71
 72
72
 73
61
 74
65
 0
VERTEX
 8
0
 10
0.0
 20
0.0
 30
0.0
 70
128
 71
61
 72
73
 73
66
 74
67
 0
VERTEX
 8
0
 10
0.0
 20
0.0
 30
0.0
 70
128
 71
62
 72
66
 73
63
 74
59
 0
VERTEX
 8
0
 10
0.0
 20
0.0
 30
0.0
 70
128
 71
68
 72
69
 73
64
 74
63
 0
VERTEX
 8
0
 10
0.0
 20
0.0
 30
0.0
 70
128
 71
69
 72
78
 73
71
 74
65
 0
VERTEX
 8
0
 10
0.0
 20
0.0
 30
0.0
 70
128
 71
70
 72
74
 73
72
 74
71
 0
VERTEX
 8
0
 10
0.0
 20
0.0
 30
0.0
 70
128
 71
72
 72
75
 73
73
 74
61
 0
VERTEX
 8
0
 10
0.0
 20
0.0
 30
0.0
 70
128
 71
66
 72
73
 73
68
 74
63
 0
VERTEX
 8
0
 10
0.0
 20
0.0
 30
0.0
 70
128
 71
76
 72
78
 73
69
 74
68
 0
VERTEX
 8
0
 10
0.0
 20
0.0
 30
0.0
 70
128
 71
78
 72
77
 73
70
 74
71
 0
VERTEX
 8
0
 10
0.0
 20
0.0
 30
0.0
 70
128
 71
80
 72
81
 73
74
 74
70
 0
VERTEX
 8
0
 10
0.0
 20
0.0
 30
0.0
 70
128
 71
74
 72
83
 73
75
 74
72
 0
VERTEX
 8
0
 10
0.0
 20
0.0
 30
0.0
 70
128
 71
73
 72
75
 73
76
 74
68
 0
VERTEX
 8
0
 10
0.0
 20
0.0
 30
0.0
 70
128
 71
85
 72
77
 73
78
 74
76
 0
VERTEX
 8
0
 10
0.0
 20
0.0
 30
0.0
 70
128
 71
77
 72
79
 73
80
 74
70
 0
VERTEX
 8
0
 10
0.0
 20
0.0
 30
0.0
 70
128
 71
88
 72
87
 73
81
 74
80
 0
VERTEX
 8
0
 10
0.0
 20
0.0
 30
0.0
 70
128
 71
81
 72
82
 73
83
 74
74
 0
VERTEX
 8
0
 10
0.0
 20
0.0
 30
0.0
 70
128
 71
75
 72
83
 73
85
 74
76
 0
VERTEX
 8
0
 10
0.0
 20
0.0
 30
0.0
 70
128
 71
84
 72
79
 73
77
 74
85
 0
VERTEX
 8
0
 10
0.0
 20
0.0
 30
0.0
 70
128
 71
79
 72
90
 73
88
 74
80
 0
VERTEX
 8
0
 10
0.0
 20
0.0
 30
0.0
 70
128
 71
93
 72
86
 73
87
 74
88
 0
VERTEX
 8
0
 10
0.0
 20
0.0
 30
0.0
 70
128
 71
87
 72
94
 73
82
 74
81
 0
VERTEX
 8
0
 10
0.0
 20
0.0
 30
0.0
 70
128
 71
83
 72
82
 73
84
 74
85
 0
VERTEX
 8
0
 10
0.0
 20
0.0
 30
0.0
 70
128
 71
89
 72
90
 73
79
 74
84
 0
VERTEX
 8
0
 10
0.0
 20
0.0
 30
0.0
 70
128
 71
90
 72
91
 73
93
 74
88
 0
VERTEX
 8
0
 10
0.0
 20
0.0
 30
0.0
 70
128
 71
92
 72
102
 73
86
 74
93
 0
VERTEX
 8
0
 10
0.0
 20
0.0
 30
0.0
 70
128
 71
86
 72
97
 73
94
 74
87
 0
VERTEX
 8
0
 10
0.0
 20
0.0
 30
0.0
 70
128
 71
89
 72
84
 73
82
 74
94
 0
VERTEX
 8
0
 10
0.0
 20
0.0
 30
0.0
 70
128
 71
98
 72
91
 73
90
 74
89
 0
VERTEX
 8
0
 10
0.0
 20
0.0
 30
0.0
 70
128
 71
91
 72
95
 73
92
 74
93
 0
VERTEX
 8
0
 10
0.0
 20
0.0
 30
0.0
 70
128
 71
96
 72
100
 73
102
 74
92
 0
VERTEX
 8
0
 10
0.0
 20
0.0
 30
0.0
 70
128
 71
102
 72
103
 73
97
 74
86
 0
VERTEX
 8
0
 10
0.0
 20
0.0
 30
0.0
 70
128
 71
98
 72
89
 73
94
 74
97
 0
VERTEX
 8
0
 10
0.0
 20
0.0
 30
0.0
 70
128
 71
99
 72
95
 73
91
 74
98
 0
VERTEX
 8
0
 10
0.0
 20
0.0
 30
0.0
 70
128
 71
95
 72
108
 73
96
 74
92
 0
VERTEX
 8
0
 10
0.0
 20
0.0
 30
0.0
 70
128
 71
105
 72
106
 73
100
 74
96
 0
VERTEX
 8
0
 10
0.0
 20
0.0
 30
0.0
 70
128
 71
100
 72
101
 73
103
 74
102
 0
VERTEX
 8
0
 10
0.0
 20
0.0
 30
0.0
 70
128
 71
97
 72
103
 73
99
 74
98
 0
VERTEX
 8
0
 10
0.0
 20
0.0
 30
0.0
 70
128
 71
107
 72
108
 73
95
 74
99
 0
VERTEX
 8
0
 10
0.0
 20
0.0
 30
0.0
 70
128
 71
108
 72
104
 73
105
 74
96
 0
VERTEX
 8
0
 10
0.0
 20
0.0
 30
0.0
 70
128
 71
111
 72
112
 73
106
 74
105
 0
VERTEX
 8
0
 10
0.0
 20
0.0
 30
0.0
 70
128
 71
106
 72
113
 73
101
 74
100
 0
VERTEX
 8
0
 10
0.0
 20
0.0
 30
0.0
 70
128
 71
103
 72
101
 73
107
 74
99
 0
VERTEX
 8
0
 10
0.0
 20
0.0
 30
0.0
 70
128
 71
114
 72
104
 73
108
 74
107
 0
VERTEX
 8
0
 10
0.0
 20
0.0
 30
0.0
 70
128
 71
104
 72
109
 73
111
 74
105
 0
VERTEX
 8
0
 10
0.0
 20
0.0
 30
0.0
 70
128
 71
110
 72
117
 73
112
 74
111
 0
VERTEX
 8
0
 10
0.0
 20
0.0
 30
0.0
 70
128
 71
112
 72
119
 73
113
 74
106
 0
VERTEX
 8
0
 10
0.0
 20
0.0
 30
0.0
 70
128
 71
101
 72
113
 73
114
 74
107
 0
VERTEX
 8
0
 10
0.0
 20
0.0
 30
0.0
 70
128
 71
115
 72
109
 73
104
 74
114
 0
VERTEX
 8
0
 10
0.0
 20
0.0
 30
0.0
 70
128
 71
109
 72
120
 73
110
 74
111
 0
VERTEX
 8
0
 10
0.0
 20
0.0
 30
0.0
 70
128
 71
116
 72
121
 73
117
 74
110
 0
VERTEX
 8
0
 10
0.0
 20
0.0
 30
0.0
 70
128
 71
117
 72
118
 73
119
 74
112
 0
VERTEX
 8
0
 10
0.0
 20
0.0
 30
0.0
 70
128
 71
113
 72
119
 73
115
 74
114
 0
VERTEX
 8
0
 10
0.0
 20
0.0
 30
0.0
 70
128
 71
124
 72
120
 73
109
 74
115
 0
VERTEX
 8
0
 10
0.0
 20
0.0
 30
0.0
 70
128
 71
116
 72
110
 73
120
 74
123
 0
VERTEX
 8
0
 10
0.0
 20
0.0
 30
0.0
 70
128
 71
121
 72
116
 73
123
 74
122
 0
VERTEX
 8
0
 10
0.0
 20
0.0
 30
0.0
 70
128
 71
121
 72
125
 73
118
 74
117
 0
VERTEX
 8
0
 10
0.0
 20
0.0
 30
0.0
 70
128
 71
124
 72
115
 73
119
 74
118
 0
VERTEX
 8
0
 10
0.0
 20
0.0
 30
0.0
 70
128
 71
122
 72
123
 73
120
 74
124
 0
VERTEX
 8
0
 10
0.0
 20
0.0
 30
0.0
 70
128
 71
122
 72
125
 73
121
 0
VERTEX
 8
0
 10
0.0
 20
0.0
 30
0.0
 70
128
 71
124
 72
118
 73
125
 74
122
 0
SEQEND
 8
0
 0
POLYLINE
 8
0
 70
64
 66
1
 10
0.0
 20
0.0
 30
0.0
 71
125
 72
124
 0
VERTEX
 8
0
 10
2.1261088848114014
 20
-0.33039942383766174
 30
2.0125
 70
192
 0
VERTEX
 8
0
 10
2.1642906665802
 20
-0.33039939403533936
 30
2.0125
 70
192
 0
VERTEX
 8
0
 10
2.116218090057373
 20
-0.33039942383766174
 30
2.1634023189544678
 70
192
 0
VERTEX
 8
0
 10
2.080568552017212
 20
-0.31769946217536926
 30
2.3100759983062744
 70
192
 0
VERTEX
 8
0
 10
2.1197452545166016
 20
-0.3176994323730469
 30
2.0125
 70
192
 0
VERTEX
 8
0
 10
2.1099090576171875
 20
-0.3176994323730469
 30
2.162571907043457
 70
192
 0
VERTEX
 8
0
 10
2.0909814834594727
 20
-0.305
 30
2.1600799560546875
 70
192
 0
VERTEX
 8
0
 10
2.100654363632202
 20
-0.305
 30
2.0125
 70
192
 0
VERTEX
 8
0
 10
2.1642906665802
 20
-0.305
 30
2.0125
 70
192
 0
VERTEX
 8
0
 10
2.1540732383728027
 20
-0.33039939403533936
 30
2.168386220932007
 70
192
 0
VERTEX
 8
0
 10
2.0867154598236084
 20
-0.33039942383766174
 30
2.311722755432129
 70
192
 0
VERTEX
 8
0
 10
2.032226085662842
 20
-0.31769949197769165
 30
2.452488422393799
 70
192
 0
VERTEX
 8
0
 10
2.1540732383728027
 20
-0.305
 30
2.168386220932007
 70
192
 0
VERTEX
 8
0
 10
2.0381052494049072
 20
-0.33039945363998413
 30
2.454923629760742
 70
192
 0
VERTEX
 8
0
 10
1.9712196588516235
 20
-0.3303995132446289
 30
2.5905544757843018
 70
192
 0
VERTEX
 8
0
 10
1.9657084941864014
 20
-0.31769952178001404
 30
2.5873725414276123
 70
192
 0
VERTEX
 8
0
 10
2.12359619140625
 20
-0.305
 30
2.3216049671173096
 70
192
 0
VERTEX
 8
0
 10
2.0621283054351807
 20
-0.305
 30
2.3051347732543945
 70
192
 0
VERTEX
 8
0
 10
2.12359619140625
 20
-0.33039942383766174
 30
2.3216049671173096
 70
192
 0
VERTEX
 8
0
 10
2.073380708694458
 20
-0.33039945363998413
 30
2.4695351123809814
 70
192
 0
VERTEX
 8
0
 10
2.004286050796509
 20
-0.3303994834423065
 30
2.609645366668701
 70
192
 0
VERTEX
 8
0
 10
1.8872028589248657
 20
-0.3303995430469513
 30
2.716294288635254
 70
192
 0
VERTEX
 8
0
 10
1.9491753578186035
 20
-0.305
 30
2.577827215194702
 70
192
 0
VERTEX
 8
0
 10
2.073380708694458
 20
-0.305
 30
2.4695351123809814
 70
192
 0
VERTEX
 8
0
 10
2.0145885944366455
 20
-0.305
 30
2.4451828002929688
 70
192
 0
VERTEX
 8
0
 10
2.004286050796509
 20
-0.305
 30
2.609645366668701
 70
192
 0
VERTEX
 8
0
 10
1.917494297027588
 20
-0.305
 30
2.7395377159118652
 70
192
 0
VERTEX
 8
0
 10
1.9174944162368774
 20
-0.3303995430469513
 30
2.7395377159118652
 70
192
 0
VERTEX
 8
0
 10
1.8144910335540771
 20
-0.33039960265159607
 30
2.8569905757904053
 70
192
 0
VERTEX
 8
0
 10
1.7874925136566162
 20
-0.33039960265159607
 30
2.83
 70
192
 0
VERTEX
 8
0
 10
1.8670084476470947
 20
-0.305
 30
2.700798749923706
 70
192
 0
VERTEX
 8
0
 10
1.8821543455123901
 20
-0.3176995515823364
 30
2.7124204635620117
 70
192
 0
VERTEX
 8
0
 10
1.7694932222366333
 20
-0.305
 30
2.81199312210083
 70
192
 0
VERTEX
 8
0
 10
1.8144909143447876
 20
-0.305
 30
2.8569905757904053
 70
192
 0
VERTEX
 8
0
 10
1.6737945079803467
 20
-0.33039966225624084
 30
2.9297025203704834
 70
192
 0
VERTEX
 8
0
 10
1.544872760772705
 20
-0.31769976019859314
 30
3.0082085132598877
 70
192
 0
VERTEX
 8
0
 10
1.7829927206039429
 20
-0.3176996111869812
 30
2.8254926204681396
 70
192
 0
VERTEX
 8
0
 10
1.697037935256958
 20
-0.305
 30
2.96
 70
192
 0
VERTEX
 8
0
 10
1.6970380544662476
 20
-0.33039966225624084
 30
2.96
 70
192
 0
VERTEX
 8
0
 10
1.548054575920105
 20
-0.330399751663208
 30
3.0137195587158203
 70
192
 0
VERTEX
 8
0
 10
1.409988522529602
 20
-0.3176998198032379
 30
3.074725866317749
 70
192
 0
VERTEX
 8
0
 10
1.6699203252792358
 20
-0.317699670791626
 30
2.924654006958008
 70
192
 0
VERTEX
 8
0
 10
1.5353270769119263
 20
-0.305
 30
2.99167537689209
 70
192
 0
VERTEX
 8
0
 10
1.6582984924316406
 20
-0.305
 30
2.909508466720581
 70
192
 0
VERTEX
 8
0
 10
1.5671451091766357
 20
-0.305
 30
3.046785831451416
 70
192
 0
VERTEX
 8
0
 10
1.5671452283859253
 20
-0.3303997218608856
 30
3.046785831451416
 70
192
 0
VERTEX
 8
0
 10
1.4124237298965454
 20
-0.3303998112678528
 30
3.0806052684783936
 70
192
 0
VERTEX
 8
0
 10
1.2692230939865112
 20
-0.3304
 30
3.1292152404785156
 70
192
 0
VERTEX
 8
0
 10
1.4270352125167847
 20
-0.305
 30
3.1158804893493652
 70
192
 0
VERTEX
 8
0
 10
1.4270353317260742
 20
-0.3303998112678528
 30
3.1158804893493652
 70
192
 0
VERTEX
 8
0
 10
1.4026826620101929
 20
-0.305
 30
3.0570881366729736
 70
192
 0
VERTEX
 8
0
 10
1.2675760984420776
 20
-0.3177
 30
3.123068332672119
 70
192
 0
VERTEX
 8
0
 10
1.2791051864624023
 20
-0.3304
 30
3.1660959720611572
 70
192
 0
VERTEX
 8
0
 10
1.1209025382995605
 20
-0.3304
 30
3.1587181091308594
 70
192
 0
VERTEX
 8
0
 10
1.1200720071792603
 20
-0.3177
 30
3.1524085998535156
 70
192
 0
VERTEX
 8
0
 10
0.97
 20
-0.3304
 30
3.1686086654663086
 70
192
 0
VERTEX
 8
0
 10
1.2626349925994873
 20
-0.305
 30
3.104628086090088
 70
192
 0
VERTEX
 8
0
 10
1.2791050672531128
 20
-0.305
 30
3.1660959720611572
 70
192
 0
VERTEX
 8
0
 10
1.1258862018585205
 20
-0.305
 30
3.19657301902771
 70
192
 0
VERTEX
 8
0
 10
1.12588632106781
 20
-0.3304
 30
3.19657301902771
 70
192
 0
VERTEX
 8
0
 10
0.8199282288551331
 20
-0.3177001476287842
 30
3.1524085998535156
 70
192
 0
VERTEX
 8
0
 10
1.1175798177719116
 20
-0.305
 30
3.13348126411438
 70
192
 0
VERTEX
 8
0
 10
0.97
 20
-0.305
 30
3.2067904472351074
 70
192
 0
VERTEX
 8
0
 10
0.97
 20
-0.3304
 30
3.2067904472351074
 70
192
 0
VERTEX
 8
0
 10
0.819097638130188
 20
-0.33040013909339905
 30
3.1587181091308594
 70
192
 0
VERTEX
 8
0
 10
0.97
 20
-0.305
 30
3.1431541442871094
 70
192
 0
VERTEX
 8
0
 10
0.97
 20
-0.3177
 30
3.162245273590088
 70
192
 0
VERTEX
 8
0
 10
0.814113974571228
 20
-0.305
 30
3.19657301902771
 70
192
 0
VERTEX
 8
0
 10
0.814113974571228
 20
-0.33040016889572144
 30
3.19657301902771
 70
192
 0
VERTEX
 8
0
 10
0.5275763273239136
 20
-0.3304003179073334
 30
3.0806052684783936
 70
192
 0
VERTEX
 8
0
 10
0.6707771420478821
 20
-0.3304002285003662
 30
3.1292152404785156
 70
192
 0
VERTEX
 8
0
 10
0.6724241375923157
 20
-0.31770023703575134
 30
3.123068332672119
 70
192
 0
VERTEX
 8
0
 10
0.82242
 20
-0.305
 30
3.13348126411438
 70
192
 0
VERTEX
 8
0
 10
0.5300115942955017
 20
-0.3177003264427185
 30
3.074725866317749
 70
192
 0
VERTEX
 8
0
 10
0.677365243434906
 20
-0.305
 30
3.104628086090088
 70
192
 0
VERTEX
 8
0
 10
0.6608951091766357
 20
-0.305
 30
3.1660959720611572
 70
192
 0
VERTEX
 8
0
 10
0.5129649639129639
 20
-0.3304003179073334
 30
3.1158804893493652
 70
192
 0
VERTEX
 8
0
 10
0.6608951091766357
 20
-0.3304002285003662
 30
3.1660959720611572
 70
192
 0
VERTEX
 8
0
 10
0.37285473942756653
 20
-0.33040040731430054
 30
3.046785831451416
 70
192
 0
VERTEX
 8
0
 10
0.39194563031196594
 20
-0.33040040731430054
 30
3.0137195587158203
 70
192
 0
VERTEX
 8
0
 10
0.39512741565704346
 20
-0.31770041584968567
 30
3.0082085132598877
 70
192
 0
VERTEX
 8
0
 10
0.40467315912246704
 20
-0.305
 30
2.99167537689209
 70
192
 0
VERTEX
 8
0
 10
0.5373173952102661
 20
-0.305
 30
3.0570881366729736
 70
192
 0
VERTEX
 8
0
 10
0.37285473942756653
 20
-0.305
 30
3.046785831451416
 70
192
 0
VERTEX
 8
0
 10
0.5129649639129639
 20
-0.305
 30
3.1158804893493652
 70
192
 0
VERTEX
 8
0
 10
0.15700764954090118
 20
-0.3177005350589752
 30
2.8254926204681396
 70
192
 0
VERTEX
 8
0
 10
0.270079433918
 20
-0.31770047545433044
 30
2.924654006958008
 70
192
 0
VERTEX
 8
0
 10
0.2662058174610138
 20
-0.3304004669189453
 30
2.9297025203704834
 70
192
 0
VERTEX
 8
0
 10
0.2429622858762741
 20
-0.305
 30
2.96
 70
192
 0
VERTEX
 8
0
 10
0.2429623007774353
 20
-0.3304004669189453
 30
2.96
 70
192
 0
VERTEX
 8
0
 10
0.12550939619541168
 20
-0.3304005563259125
 30
2.8569905757904053
 70
192
 0
VERTEX
 8
0
 10
0.0527971573174
 20
-0.33040058612823486
 30
2.716294288635254
 70
192
 0
VERTEX
 8
0
 10
0.1525077372789383
 20
-0.3304005265235901
 30
2.83
 70
192
 0
VERTEX
 8
0
 10
0.28170159459114075
 20
-0.305
 30
2.909508466720581
 70
192
 0
VERTEX
 8
0
 10
0.022505788132548332
 20
-0.33040061593055725
 30
2.7395377159118652
 70
192
 0
VERTEX
 8
0
 10
-0.031219419091939926
 20
-0.33040064573287964
 30
2.5905544757843018
 70
192
 0
VERTEX
 8
0
 10
0.17050701379776
 20
-0.305
 30
2.81199312210083
 70
192
 0
VERTEX
 8
0
 10
0.1255093812942505
 20
-0.305
 30
2.8569905757904053
 70
192
 0
VERTEX
 8
0
 10
0.02250577323138714
 20
-0.305
 30
2.7395377159118652
 70
192
 0
VERTEX
 8
0
 10
-0.025708328932523727
 20
-0.3177006244659424
 30
2.5873725414276123
 70
192
 0
VERTEX
 8
0
 10
-0.009175236336886883
 20
-0.305
 30
2.577827215194702
 70
192
 0
VERTEX
 8
0
 10
0.0578460656106472
 20
-0.31770059466362
 30
2.7124204635620117
 70
192
 0
VERTEX
 8
0
 10
0.07299184054136276
 20
-0.305
 30
2.700798749923706
 70
192
 0
VERTEX
 8
0
 10
-0.13338042795658112
 20
-0.3304007053375244
 30
2.4695351123809814
 70
192
 0
VERTEX
 8
0
 10
-0.0981050655245781
 20
-0.330400675535202
 30
2.454923629760742
 70
192
 0
VERTEX
 8
0
 10
-0.09222578257322311
 20
-0.31770068407058716
 30
2.452488422393799
 70
192
 0
VERTEX
 8
0
 10
-0.06428582966327667
 20
-0.305
 30
2.609645366668701
 70
192
 0
VERTEX
 8
0
 10
-0.06428581476211548
 20
-0.33040064573287964
 30
2.609645366668701
 70
192
 0
VERTEX
 8
0
 10
-0.1835959553718567
 20
-0.3304007053375244
 30
2.3216049671173096
 70
192
 0
VERTEX
 8
0
 10
-0.17621812224388123
 20
-0.3304007053375244
 30
2.1634023189544678
 70
192
 0
VERTEX
 8
0
 10
-0.14671507477760315
 20
-0.3304007053375244
 30
2.311722755432129
 70
192
 0
VERTEX
 8
0
 10
-0.14056837558746338
 20
-0.31770071387290955
 30
2.3100759983062744
 70
192
 0
VERTEX
 8
0
 10
-0.07458829879760742
 20
-0.305
 30
2.4451828002929688
 70
192
 0
VERTEX
 8
0
 10
-0.1333804428577423
 20
-0.305
 30
2.4695351123809814
 70
192
 0
VERTEX
 8
0
 10
-0.18359597027301788
 20
-0.305
 30
2.3216049671173096
 70
192
 0
VERTEX
 8
0
 10
-0.18610860407352448
 20
-0.3304007351398468
 30
2.0125
 70
192
 0
VERTEX
 8
0
 10
-0.16990862786769867
 20
-0.31770071387290955
 30
2.162571907043457
 70
192
 0
VERTEX
 8
0
 10
-0.1509811133146286
 20
-0.305
 30
2.1600799560546875
 70
192
 0
VERTEX
 8
0
 10
-0.12212803214788437
 20
-0.305
 30
2.3051347732543945
 70
192
 0
VERTEX
 8
0
 10
-0.21407316625118256
 20
-0.3304007351398468
 30
2.168386220932007
 70
192
 0
VERTEX
 8
0
 10
-0.17974504828453064
 20
-0.31770071387290955
 30
2.0125
 70
192
 0
VERTEX
 8
0
 10
-0.2242903858423233
 20
-0.305
 30
2.0125
 70
192
 0
VERTEX
 8
0
 10
-0.2242903709411621
 20
-0.3304007351398468
 30
2.0125
 70
192
 0
VERTEX
 8
0
 10
-0.21407318115234375
 20
-0.305
 30
2.168386220932007
 70
192
 0
VERTEX
 8
0
 10
-0.16065415740013123
 20
-0.305
 30
2.0125
 70
192
 0
VERTEX
 8
0
 10
0.0
 20
0.0
 30
0.0
 70
128
 71
5
 72
1
 73
3
 74
6
 0
VERTEX
 8
0
 10
0.0
 20
0.0
 30
0.0
 70
128
 71
1
 72
5
 73
9
 74
2
 0
VERTEX
 8
0
 10
0.0
 20
0.0
 30
0.0
 70
128
 71
3
 72
1
 73
2
 74
10
 0
VERTEX
 8
0
 10
0.0
 20
0.0
 30
0.0
 70
128
 71
6
 72
3
 73
11
 74
4
 0
VERTEX
 8
0
 10
0.0
 20
0.0
 30
0.0
 70
128
 71
8
 72
5
 73
6
 74
7
 0
VERTEX
 8
0
 10
0.0
 20
0.0
 30
0.0
 70
128
 71
8
 72
9
 73
5
 0
VERTEX
 8
0
 10
0.0
 20
0.0
 30
0.0
 70
128
 71
2
 72
9
 73
13
 74
10
 0
VERTEX
 8
0
 10
0.0
 20
0.0
 30
0.0
 70
128
 71
10
 72
19
 73
11
 74
3
 0
VERTEX
 8
0
 10
0.0
 20
0.0
 30
0.0
 70
128
 71
4
 72
11
 73
14
 74
12
 0
VERTEX
 8
0
 10
0.0
 20
0.0
 30
0.0
 70
128
 71
7
 72
6
 73
4
 74
18
 0
VERTEX
 8
0
 10
0.0
 20
0.0
 30
0.0
 70
128
 71
8
 72
7
 73
13
 74
9
 0
VERTEX
 8
0
 10
0.0
 20
0.0
 30
0.0
 70
128
 71
10
 72
13
 73
17
 74
19
 0
VERTEX
 8
0
 10
0.0
 20
0.0
 30
0.0
 70
128
 71
19
 72
20
 73
14
 74
11
 0
VERTEX
 8
0
 10
0.0
 20
0.0
 30
0.0
 70
128
 71
12
 72
14
 73
15
 74
16
 0
VERTEX
 8
0
 10
0.0
 20
0.0
 30
0.0
 70
128
 71
18
 72
4
 73
12
 74
25
 0
VERTEX
 8
0
 10
0.0
 20
0.0
 30
0.0
 70
128
 71
17
 72
13
 73
7
 74
18
 0
VERTEX
 8
0
 10
0.0
 20
0.0
 30
0.0
 70
128
 71
19
 72
17
 73
24
 74
20
 0
VERTEX
 8
0
 10
0.0
 20
0.0
 30
0.0
 70
128
 71
20
 72
21
 73
15
 74
14
 0
VERTEX
 8
0
 10
0.0
 20
0.0
 30
0.0
 70
128
 71
16
 72
15
 73
22
 74
32
 0
VERTEX
 8
0
 10
0.0
 20
0.0
 30
0.0
 70
128
 71
25
 72
12
 73
16
 74
23
 0
VERTEX
 8
0
 10
0.0
 20
0.0
 30
0.0
 70
128
 71
24
 72
17
 73
18
 74
25
 0
VERTEX
 8
0
 10
0.0
 20
0.0
 30
0.0
 70
128
 71
20
 72
24
 73
26
 74
21
 0
VERTEX
 8
0
 10
0.0
 20
0.0
 30
0.0
 70
128
 71
21
 72
28
 73
22
 74
15
 0
VERTEX
 8
0
 10
0.0
 20
0.0
 30
0.0
 70
128
 71
32
 72
22
 73
30
 74
37
 0
VERTEX
 8
0
 10
0.0
 20
0.0
 30
0.0
 70
128
 71
23
 72
16
 73
32
 74
31
 0
VERTEX
 8
0
 10
0.0
 20
0.0
 30
0.0
 70
128
 71
25
 72
23
 73
26
 74
24
 0
VERTEX
 8
0
 10
0.0
 20
0.0
 30
0.0
 70
128
 71
21
 72
26
 73
27
 74
28
 0
VERTEX
 8
0
 10
0.0
 20
0.0
 30
0.0
 70
128
 71
28
 72
29
 73
30
 74
22
 0
VERTEX
 8
0
 10
0.0
 20
0.0
 30
0.0
 70
128
 71
37
 72
30
 73
35
 74
42
 0
VERTEX
 8
0
 10
0.0
 20
0.0
 30
0.0
 70
128
 71
31
 72
32
 73
37
 74
33
 0
VERTEX
 8
0
 10
0.0
 20
0.0
 30
0.0
 70
128
 71
27
 72
26
 73
23
 74
31
 0
VERTEX
 8
0
 10
0.0
 20
0.0
 30
0.0
 70
128
 71
28
 72
27
 73
34
 74
29
 0
VERTEX
 8
0
 10
0.0
 20
0.0
 30
0.0
 70
128
 71
29
 72
39
 73
35
 74
30
 0
VERTEX
 8
0
 10
0.0
 20
0.0
 30
0.0
 70
128
 71
42
 72
35
 73
40
 74
36
 0
VERTEX
 8
0
 10
0.0
 20
0.0
 30
0.0
 70
128
 71
33
 72
37
 73
42
 74
44
 0
VERTEX
 8
0
 10
0.0
 20
0.0
 30
0.0
 70
128
 71
34
 72
27
 73
31
 74
33
 0
VERTEX
 8
0
 10
0.0
 20
0.0
 30
0.0
 70
128
 71
29
 72
34
 73
38
 74
39
 0
VERTEX
 8
0
 10
0.0
 20
0.0
 30
0.0
 70
128
 71
39
 72
46
 73
40
 74
35
 0
VERTEX
 8
0
 10
0.0
 20
0.0
 30
0.0
 70
128
 71
36
 72
40
 73
47
 74
41
 0
VERTEX
 8
0
 10
0.0
 20
0.0
 30
0.0
 70
128
 71
44
 72
42
 73
36
 74
43
 0
VERTEX
 8
0
 10
0.0
 20
0.0
 30
0.0
 70
128
 71
38
 72
34
 73
33
 74
44
 0
VERTEX
 8
0
 10
0.0
 20
0.0
 30
0.0
 70
128
 71
39
 72
38
 73
45
 74
46
 0
VERTEX
 8
0
 10
0.0
 20
0.0
 30
0.0
 70
128
 71
46
 72
50
 73
47
 74
40
 0
VERTEX
 8
0
 10
0.0
 20
0.0
 30
0.0
 70
128
 71
41
 72
47
 73
48
 74
52
 0
VERTEX
 8
0
 10
0.0
 20
0.0
 30
0.0
 70
128
 71
43
 72
36
 73
41
 74
51
 0
VERTEX
 8
0
 10
0.0
 20
0.0
 30
0.0
 70
128
 71
45
 72
38
 73
44
 74
43
 0
VERTEX
 8
0
 10
0.0
 20
0.0
 30
0.0
 70
128
 71
46
 72
45
 73
49
 74
50
 0
VERTEX
 8
0
 10
0.0
 20
0.0
 30
0.0
 70
128
 71
50
 72
53
 73
48
 74
47
 0
VERTEX
 8
0
 10
0.0
 20
0.0
 30
0.0
 70
128
 71
52
 72
48
 73
54
 74
55
 0
VERTEX
 8
0
 10
0.0
 20
0.0
 30
0.0
 70
128
 71
51
 72
41
 73
52
 74
57
 0
VERTEX
 8
0
 10
0.0
 20
0.0
 30
0.0
 70
128
 71
43
 72
51
 73
49
 74
45
 0
VERTEX
 8
0
 10
0.0
 20
0.0
 30
0.0
 70
128
 71
50
 72
49
 73
58
 74
53
 0
VERTEX
 8
0
 10
0.0
 20
0.0
 30
0.0
 70
128
 71
53
 72
60
 73
54
 74
48
 0
VERTEX
 8
0
 10
0.0
 20
0.0
 30
0.0
 70
128
 71
55
 72
54
 73
56
 74
67
 0
VERTEX
 8
0
 10
0.0
 20
0.0
 30
0.0
 70
128
 71
57
 72
52
 73
55
 74
62
 0
VERTEX
 8
0
 10
0.0
 20
0.0
 30
0.0
 70
128
 71
51
 72
57
 73
58
 74
49
 0
VERTEX
 8
0
 10
0.0
 20
0.0
 30
0.0
 70
128
 71
53
 72
58
 73
59
 74
60
 0
VERTEX
 8
0
 10
0.0
 20
0.0
 30
0.0
 70
128
 71
60
 72
64
 73
56
 74
54
 0
VERTEX
 8
0
 10
0.0
 20
0.0
 30
0.0
 70
128
 71
65
 72
61
 73
67
 74
56
 0
VERTEX
 8
0
 10
0.0
 20
0.0
 30
0.0
 70
128
 71
62
 72
55
 73
67
 74
66
 0
VERTEX
 8
0
 10
0.0
 20
0.0
 30
0.0
 70
128
 71
57
 72
62
 73
59
 74
58
 0
VERTEX
 8
0
 10
0.0
 20
0.0
 30
0.0
 70
128
 71
60
 72
59
 73
63
 74
64
 0
VERTEX
 8
0
 10
0.0
 20
0.0
 30
0.0
 70
128
 71
64
 72
69
 73
65
 74
56
 0
VERTEX
 8
0
 10
0.0
 20
0.0
 30
0.0
 70
128
 71
71
 72
72
 73
61
 74
65
 0
VERTEX
 8
0
 10
0.0
 20
0.0
 30
0.0
 70
128
 71
61
 72
73
 73
66
 74
67
 0
VERTEX
 8
0
 10
0.0
 20
0.0
 30
0.0
 70
128
 71
62
 72
66
 73
63
 74
59
 0
VERTEX
 8
0
 10
0.0
 20
0.0
 30
0.0
 70
128
 71
68
 72
69
 73
64
 74
63
 0
VERTEX
 8
0
 10
0.0
 20
0.0
 30
0.0
 70
128
 71
69
 72
78
 73
71
 74
65
 0
VERTEX
 8
0
 10
0.0
 20
0.0
 30
0.0
 70
128
 71
70
 72
74
 73
72
 74
71
 0
VERTEX
 8
0
 10
0.0
 20
0.0
 30
0.0
 70
128
 71
72
 72
75
 73
73
 74
61
 0
VERTEX
 8
0
 10
0.0
 20
0.0
 30
0.0
 70
128
 71
66
 72
73
 73
68
 74
63
 0
VERTEX
 8
0
 10
0.0
 20
0.0
 30
0.0
 70
128
 71
76
 72
78
 73
69
 74
68
 0
VERTEX
 8
0
 10
0.0
 20
0.0
 30
0.0
 70
128
 71
78
 72
77
 73
70
 74
71
 0
VERTEX
 8
0
 10
0.0
 20
0.0
 30
0.0
 70
128
 71
80
 72
81
 73
74
 74
70
 0
VERTEX
 8
0
 10
0.0
 20
0.0
 30
0.0
 70
128
 71
74
 72
83
 73
75
 74
72
 0
VERTEX
 8
0
 10
0.0
 20
0.0
 30
0.0
 70
128
 71
73
 72
75
 73
76
 74
68
 0
VERTEX
 8
0
 10
0.0
 20
0.0
 30
0.0
 70
128
 71
85
 72
77
 73
78
 74
76
 0
VERTEX
 8
0
 10
0.0
 20
0.0
 30
0.0
 70
128
 71
77
 72
79
 73
80
 74
70
 0
VERTEX
 8
0
 10
0.0
 20
0.0
 30
0.0
 70
128
 71
88
 72
87
 73
81
 74
80
 0
VERTEX
 8
0
 10
0.0
 20
0.0
 30
0.0
 70
128
 71
81
 72
82
 73
83
 74
74
 0
VERTEX
 8
0
 10
0.0
 20
0.0
 30
0.0
 70
128
 71
75
 72
83
 73
85
 74
76
 0
VERTEX
 8
0
 10
0.0
 20
0.0
 30
0.0
 70
128
 71
84
 72
79
 73
77
 74
85
 0
VERTEX
 8
0
 10
0.0
 20
0.0
 30
0.0
 70
128
 71
79
 72
90
 73
88
 74
80
 0
VERTEX
 8
0
 10
0.0
 20
0.0
 30
0.0
 70
128
 71
93
 72
86
 73
87
 74
88
 0
VERTEX
 8
0
 10
0.0
 20
0.0
 30
0.0
 70
128
 71
87
 72
94
 73
82
 74
81
 0
VERTEX
 8
0
 10
0.0
 20
0.0
 30
0.0
 70
128
 71
83
 72
82
 73
84
 74
85
 0
VERTEX
 8
0
 10
0.0
 20
0.0
 30
0.0
 70
128
 71
89
 72
90
 73
79
 74
84
 0
VERTEX
 8
0
 10
0.0
 20
0.0
 30
0.0
 70
128
 71
90
 72
91
 73
93
 74
88
 0
VERTEX
 8
0
 10
0.0
 20
0.0
 30
0.0
 70
128
 71
92
 72
102
 73
86
 74
93
 0
VERTEX
 8
0
 10
0.0
 20
0.0
 30
0.0
 70
128
 71
86
 72
97
 73
94
 74
87
 0
VERTEX
 8
0
 10
0.0
 20
0.0
 30
0.0
 70
128
 71
89
 72
84
 73
82
 74
94
 0
VERTEX
 8
0
 10
0.0
 20
0.0
 30
0.0
 70
128
 71
98
 72
91
 73
90
 74
89
 0
VERTEX
 8
0
 10
0.0
 20
0.0
 30
0.0
 70
128
 71
91
 72
95
 73
92
 74
93
 0
VERTEX
 8
0
 10
0.0
 20
0.0
 30
0.0
 70
128
 71
96
 72
100
 73
102
 74
92
 0
VERTEX
 8
0
 10
0.0
 20
0.0
 30
0.0
 70
128
 71
102
 72
103
 73
97
 74
86
 0
VERTEX
 8
0
 10
0.0
 20
0.0
 30
0.0
 70
128
 71
98
 72
89
 73
94
 74
97
 0
VERTEX
 8
0
 10
0.0
 20
0.0
 30
0.0
 70
128
 71
99
 72
95
 73
91
 74
98
 0
VERTEX
 8
0
 10
0.0
 20
0.0
 30
0.0
 70
128
 71
95
 72
108
 73
96
 74
92
 0
VERTEX
 8
0
 10
0.0
 20
0.0
 30
0.0
 70
128
 71
105
 72
106
 73
100
 74
96
 0
VERTEX
 8
0
 10
0.0
 20
0.0
 30
0.0
 70
128
 71
100
 72
101
 73
103
 74
102
 0
VERTEX
 8
0
 10
0.0
 20
0.0
 30
0.0
 70
128
 71
97
 72
103
 73
99
 74
98
 0
VERTEX
 8
0
 10
0.0
 20
0.0
 30
0.0
 70
128
 71
107
 72
108
 73
95
 74
99
 0
VERTEX
 8
0
 10
0.0
 20
0.0
 30
0.0
 70
128
 71
108
 72
104
 73
105
 74
96
 0
VERTEX
 8
0
 10
0.0
 20
0.0
 30
0.0
 70
128
 71
111
 72
112
 73
106
 74
105
 0
VERTEX
 8
0
 10
0.0
 20
0.0
 30
0.0
 70
128
 71
106
 72
113
 73
101
 74
100
 0
VERTEX
 8
0
 10
0.0
 20
0.0
 30
0.0
 70
128
 71
103
 72
101
 73
107
 74
99
 0
VERTEX
 8
0
 10
0.0
 20
0.0
 30
0.0
 70
128
 71
114
 72
104
 73
108
 74
107
 0
VERTEX
 8
0
 10
0.0
 20
0.0
 30
0.0
 70
128
 71
104
 72
109
 73
111
 74
105
 0
VERTEX
 8
0
 10
0.0
 20
0.0
 30
0.0
 70
128
 71
110
 72
117
 73
112
 74
111
 0
VERTEX
 8
0
 10
0.0
 20
0.0
 30
0.0
 70
128
 71
112
 72
119
 73
113
 74
106
 0
VERTEX
 8
0
 10
0.0
 20
0.0
 30
0.0
 70
128
 71
101
 72
113
 73
114
 74
107
 0
VERTEX
 8
0
 10
0.0
 20
0.0
 30
0.0
 70
128
 71
115
 72
109
 73
104
 74
114
 0
VERTEX
 8
0
 10
0.0
 20
0.0
 30
0.0
 70
128
 71
109
 72
120
 73
110
 74
111
 0
VERTEX
 8
0
 10
0.0
 20
0.0
 30
0.0
 70
128
 71
116
 72
121
 73
117
 74
110
 0
VERTEX
 8
0
 10
0.0
 20
0.0
 30
0.0
 70
128
 71
117
 72
118
 73
119
 74
112
 0
VERTEX
 8
0
 10
0.0
 20
0.0
 30
0.0
 70
128
 71
113
 72
119
 73
115
 74
114
 0
VERTEX
 8
0
 10
0.0
 20
0.0
 30
0.0
 70
128
 71
124
 72
120
 73
109
 74
115
 0
VERTEX
 8
0
 10
0.0
 20
0.0
 30
0.0
 70
128
 71
116
 72
110
 73
120
 74
123
 0
VERTEX
 8
0
 10
0.0
 20
0.0
 30
0.0
 70
128
 71
121
 72
116
 73
123
 74
122
 0
VERTEX
 8
0
 10
0.0
 20
0.0
 30
0.0
 70
128
 71
121
 72
125
 73
118
 74
117
 0
VERTEX
 8
0
 10
0.0
 20
0.0
 30
0.0
 70
128
 71
124
 72
115
 73
119
 74
118
 0
VERTEX
 8
0
 10
0.0
 20
0.0
 30
0.0
 70
128
 71
122
 72
123
 73
120
 74
124
 0
VERTEX
 8
0
 10
0.0
 20
0.0
 30
0.0
 70
128
 71
122
 72
125
 73
121
 0
VERTEX
 8
0
 10
0.0
 20
0.0
 30
0.0
 70
128
 71
124
 72
118
 73
125
 74
122
 0
SEQEND
 8
0
 0
POLYLINE
 8
0
 70
64
 66
1
 10
0.0
 20
0.0
 30
0.0
 71
8
 72
6
 0
VERTEX
 8
0
 10
1.9098002910614014
 20
0.3302
 30
0.0821
 70
192
 0
VERTEX
 8
0
 10
1.9098002910614014
 20
0.3302
 30
-1.2111663671987571e-08
 70
192
 0
VERTEX
 8
0
 10
1.9098002910614014
 20
-0.3302
 30
-1.2111663671987571e-08
 70
192
 0
VERTEX
 8
0
 10
1.9098002910614014
 20
-0.3302
 30
0.0821
 70
192
 0
VERTEX
 8
0
 10
2.24
 20
0.3302
 30
0.0821
 70
192
 0
VERTEX
 8
0
 10
2.24
 20
0.3302
 30
-1.2111663671987571e-08
 70
192
 0
VERTEX
 8
0
 10
2.24
 20
-0.3302
 30
0.0821
 70
192
 0
VERTEX
 8
0
 10
2.24
 20
-0.3302
 30
-1.2111663671987571e-08
 70
192
 0
VERTEX
 8
0
 10
0.0
 20
0.0
 30
0.0
 70
128
 71
4
 72
1
 73
2
 74
3
 0
VERTEX
 8
0
 10
0.0
 20
0.0
 30
0.0
 70
128
 71
1
 72
4
 73
7
 74
5
 0
VERTEX
 8
0
 10
0.0
 20
0.0
 30
0.0
 70
128
 71
1
 72
5
 73
6
 74
2
 0
VERTEX
 8
0
 10
0.0
 20
0.0
 30
0.0
 70
128
 71
3
 72
2
 73
6
 74
8
 0
VERTEX
 8
0
 10
0.0
 20
0.0
 30
0.0
 70
128
 71
7
 72
4
 73
3
 74
8
 0
VERTEX
 8
0
 10
0.0
 20
0.0
 30
0.0
 70
128
 71
5
 72
7
 73
8
 74
6
 0
SEQEND
 8
0
 0
POLYLINE
 8
0
 70
64
 66
1
 10
0.0
 20
0.0
 30
0.0
 71
8
 72
6
 0
VERTEX
 8
0
 10
1.8844002485275269
 20
0.3556
 30
2.0125
 70
192
 0
VERTEX
 8
0
 10
1.8844002485275269
 20
0.3556
 30
1.8093
 70
192
 0
VERTEX
 8
0
 10
1.8844002485275269
 20
-0.3556
 30
1.8093
 70
192
 0
VERTEX
 8
0
 10
1.8844002485275269
 20
-0.3556
 30
2.0125
 70
192
 0
VERTEX
 8
0
 10
2.24
 20
0.3556
 30
2.0125
 70
192
 0
VERTEX
 8
0
 10
2.24
 20
0.3556
 30
1.8093
 70
192
 0
VERTEX
 8
0
 10
2.24
 20
-0.3556
 30
2.0125
 70
192
 0
VERTEX
 8
0
 10
2.24
 20
-0.3556
 30
1.8093
 70
192
 0
VERTEX
 8
0
 10
0.0
 20
0.0
 30
0.0
 70
128
 71
4
 72
1
 73
2
 74
3
 0
VERTEX
 8
0
 10
0.0
 20
0.0
 30
0.0
 70
128
 71
1
 72
4
 73
7
 74
5
 0
VERTEX
 8
0
 10
0.0
 20
0.0
 30
0.0
 70
128
 71
1
 72
5
 73
6
 74
2
 0
VERTEX
 8
0
 10
0.0
 20
0.0
 30
0.0
 70
128
 71
3
 72
2
 73
6
 74
8
 0
VERTEX
 8
0
 10
0.0
 20
0.0
 30
0.0
 70
128
 71
7
 72
4
 73
3
 74
8
 0
VERTEX
 8
0
 10
0.0
 20
0.0
 30
0.0
 70
128
 71
5
 72
7
 73
8
 74
6
 0
SEQEND
 8
0
 0
POLYLINE
 8
0
 70
64
 66
1
 10
0.0
 20
0.0
 30
0.0
 71
8
 72
6
 0
VERTEX
 8
0
 10
-0.3
 20
0.3556
 30
2.0125
 70
192
 0
VERTEX
 8
0
 10
-0.3
 20
0.3556
 30
1.8093
 70
192
 0
VERTEX
 8
0
 10
-0.3
 20
-0.3556
 30
1.8093
 70
192
 0
VERTEX
 8
0
 10
-0.3
 20
-0.3556
 30
2.0125
 70
192
 0
VERTEX
 8
0
 10
0.0556
 20
0.3556
 30
2.0125
 70
192
 0
VERTEX
 8
0
 10
0.0556
 20
0.3556
 30
1.8093
 70
192
 0
VERTEX
 8
0
 10
0.0556
 20
-0.3556
 30
2.0125
 70
192
 0
VERTEX
 8
0
 10
0.0556
 20
-0.3556
 30
1.8093
 70
192
 0
VERTEX
 8
0
 10
0.0
 20
0.0
 30
0.0
 70
128
 71
4
 72
1
 73
2
 74
3
 0
VERTEX
 8
0
 10
0.0
 20
0.0
 30
0.0
 70
128
 71
1
 72
4
 73
7
 74
5
 0
VERTEX
 8
0
 10
0.0
 20
0.0
 30
0.0
 70
128
 71
1
 72
5
 73
6
 74
2
 0
VERTEX
 8
0
 10
0.0
 20
0.0
 30
0.0
 70
128
 71
3
 72
2
 73
6
 74
8
 0
VERTEX
 8
0
 10
0.0
 20
0.0
 30
0.0
 70
128
 71
7
 72
4
 73
3
 74
8
 0
VERTEX
 8
0
 10
0.0
 20
0.0
 30
0.0
 70
128
 71
5
 72
7
 73
8
 74
6
 0
SEQEND
 8
0
 0
POLYLINE
 8
0
 70
64
 66
1
 10
0.0
 20
0.0
 30
0.0
 71
101
 72
102
 0
VERTEX
 8
0
 10
-2.4223327343975143e-08
 20
-0.305
 30
2.140202760696411
 70
192
 0
VERTEX
 8
0
 10
-2.4223327343975143e-08
 20
-0.305
 30
2.2724108695983887
 70
192
 0
VERTEX
 8
0
 10
-2.4223327343975143e-08
 20
0.305
 30
2.140202760696411
 70
192
 0
VERTEX
 8
0
 10
-2.4223327343975143e-08
 20
-0.305
 30
2.0125
 70
192
 0
VERTEX
 8
0
 10
0.037688493728637695
 20
-0.305
 30
2.262312173843384
 70
192
 0
VERTEX
 8
0
 10
-2.4223327343975143e-08
 20
-0.305
 30
2.5725297927856445
 70
192
 0
VERTEX
 8
0
 10
-2.4223327343975143e-08
 20
-0.305
 30
2.4142870903015137
 70
192
 0
VERTEX
 8
0
 10
-2.4223327343975143e-08
 20
0.305
 30
2.4142870903015137
 70
192
 0
VERTEX
 8
0
 10
0.037688493728637695
 20
0.305
 30
2.262312173843384
 70
192
 0
VERTEX
 8
0
 10
-2.4223327343975143e-08
 20
0.305
 30
2.2724108695983887
 70
192
 0
VERTEX
 8
0
 10
0.013057609088718891
 20
0.305
 30
2.138483762741089
 70
192
 0
VERTEX
 8
0
 10
0.0048
 20
-0.305
 30
2.0125
 70
192
 0
VERTEX
 8
0
 10
0.013057609088718891
 20
-0.305
 30
2.138483762741089
 70
192
 0
VERTEX
 8
0
 10
0.0048
 20
0.305
 30
2.0125
 70
192
 0
VERTEX
 8
0
 10
0.13411223888397217
 20
0.305
 30
2.4951
 70
192
 0
VERTEX
 8
0
 10
0.13411223888397217
 20
-0.305
 30
2.4951
 70
192
 0
VERTEX
 8
0
 10
0.07827160507440567
 20
-0.305
 30
2.381865978240967
 70
192
 0
VERTEX
 8
0
 10
0.07827160507440567
 20
0.305
 30
2.381865978240967
 70
192
 0
VERTEX
 8
0
 10
-2.4223327343975143e-08
 20
0.305
 30
2.0125
 70
192
 0
VERTEX
 8
0
 10
-2.4223327343975143e-08
 20
-0.305
 30
2.7568070888519287
 70
192
 0
VERTEX
 8
0
 10
-2.4223327343975143e-08
 20
0.305
 30
2.7568070888519287
 70
192
 0
VERTEX
 8
0
 10
0.2042553424835205
 20
-0.305
 30
2.6
 70
192
 0
VERTEX
 8
0
 10
-2.4223327343975143e-08
 20
0.305
 30
2.5725297927856445
 70
192
 0
VERTEX
 8
0
 10
0.38242363929748535
 20
-0.305
 30
2.778244733810425
 70
192
 0
VERTEX
 8
0
 10
-2.4223327343975143e-08
 20
-0.305
 30
2.999999761581421
 70
192
 0
VERTEX
 8
0
 10
0.2875005304813385
 20
-0.305
 30
2.695
 70
192
 0
VERTEX
 8
0
 10
0.2042553424835205
 20
0.305
 30
2.6
 70
192
 0
VERTEX
 8
0
 10
0.21226473152637482
 20
0.305
 30
2.999999761581421
 70
192
 0
VERTEX
 8
0
 10
-2.4223327343975143e-08
 20
0.305
 30
2.999999761581421
 70
192
 0
VERTEX
 8
0
 10
0.2875005304813385
 20
0.305
 30
2.695
 70
192
 0
VERTEX
 8
0
 10
0.6006340384483337
 20
-0.305
 30
2.904228448867798
 70
192
 0
VERTEX
 8
0
 10
0.21226473152637482
 20
-0.305
 30
2.999999761581421
 70
192
 0
VERTEX
 8
0
 10
0.4874
 20
-0.305
 30
2.8483877182006836
 70
192
 0
VERTEX
 8
0
 10
0.38242363929748535
 20
0.305
 30
2.778244733810425
 70
192
 0
VERTEX
 8
0
 10
0.7054001688957214
 20
-0.305
 30
2.999999761581421
 70
192
 0
VERTEX
 8
0
 10
0.3998665511608124
 20
-0.305
 30
2.999999761581421
 70
192
 0
VERTEX
 8
0
 10
0.5609639883041382
 20
-0.305
 30
2.999999761581421
 70
192
 0
VERTEX
 8
0
 10
0.5609639883041382
 20
0.305
 30
2.999999761581421
 70
192
 0
VERTEX
 8
0
 10
0.4874
 20
0.305
 30
2.8483877182006836
 70
192
 0
VERTEX
 8
0
 10
0.3998665511608124
 20
0.305
 30
2.999999761581421
 70
192
 0
VERTEX
 8
0
 10
0.8440160155296326
 20
-0.305
 30
2.969442367553711
 70
192
 0
VERTEX
 8
0
 10
0.84
 20
-0.305
 30
2.999999761581421
 70
192
 0
VERTEX
 8
0
 10
0.7054001688957214
 20
0.305
 30
2.999999761581421
 70
192
 0
VERTEX
 8
0
 10
0.6006340384483337
 20
0.305
 30
2.904228448867798
 70
192
 0
VERTEX
 8
0
 10
0.7201880216598511
 20
-0.305
 30
2.9448115825653076
 70
192
 0
VERTEX
 8
0
 10
0.7201880216598511
 20
0.305
 30
2.9448115825653076
 70
192
 0
VERTEX
 8
0
 10
0.97
 20
0.305
 30
2.9777
 70
192
 0
VERTEX
 8
0
 10
1.1
 20
-0.305
 30
2.999999761581421
 70
192
 0
VERTEX
 8
0
 10
0.97
 20
-0.305
 30
2.999999761581421
 70
192
 0
VERTEX
 8
0
 10
0.84
 20
0.305
 30
2.999999761581421
 70
192
 0
VERTEX
 8
0
 10
0.8423942923545837
 20
0.305
 30
2.981762647628784
 70
192
 0
VERTEX
 8
0
 10
0.8440160155296326
 20
0.305
 30
2.969442367553711
 70
192
 0
VERTEX
 8
0
 10
1.0959841012954712
 20
0.305
 30
2.969442367553711
 70
192
 0
VERTEX
 8
0
 10
0.97
 20
-0.305
 30
2.9777
 70
192
 0
VERTEX
 8
0
 10
0.97
 20
0.305
 30
2.999999761581421
 70
192
 0
VERTEX
 8
0
 10
1.2346
 20
-0.305
 30
2.999999761581421
 70
192
 0
VERTEX
 8
0
 10
1.0959841012954712
 20
-0.305
 30
2.969442367553711
 70
192
 0
VERTEX
 8
0
 10
1.219812035560608
 20
0.305
 30
2.9448115825653076
 70
192
 0
VERTEX
 8
0
 10
1.1
 20
0.305
 30
2.999999761581421
 70
192
 0
VERTEX
 8
0
 10
1.2346
 20
0.305
 30
2.999999761581421
 70
192
 0
VERTEX
 8
0
 10
1.219812035560608
 20
-0.305
 30
2.9448115825653076
 70
192
 0
VERTEX
 8
0
 10
1.3790359497070312
 20
-0.305
 30
2.999999761581421
 70
192
 0
VERTEX
 8
0
 10
1.3790359497070312
 20
0.305
 30
2.999999761581421
 70
192
 0
VERTEX
 8
0
 10
1.33936607837677
 20
-0.305
 30
2.904228448867798
 70
192
 0
VERTEX
 8
0
 10
1.33936607837677
 20
0.305
 30
2.904228448867798
 70
192
 0
VERTEX
 8
0
 10
1.5401334762573242
 20
-0.305
 30
2.999999761581421
 70
192
 0
VERTEX
 8
0
 10
1.5401334762573242
 20
0.305
 30
2.999999761581421
 70
192
 0
VERTEX
 8
0
 10
1.5575764179229736
 20
-0.305
 30
2.778244733810425
 70
192
 0
VERTEX
 8
0
 10
1.452600121498108
 20
-0.305
 30
2.8483877182006836
 70
192
 0
VERTEX
 8
0
 10
1.452600121498108
 20
0.305
 30
2.8483877182006836
 70
192
 0
VERTEX
 8
0
 10
1.7277354001998901
 20
-0.305
 30
2.999999761581421
 70
192
 0
VERTEX
 8
0
 10
1.6524995565414429
 20
-0.305
 30
2.695
 70
192
 0
VERTEX
 8
0
 10
1.7277354001998901
 20
0.305
 30
2.999999761581421
 70
192
 0
VERTEX
 8
0
 10
1.5575764179229736
 20
0.305
 30
2.778244733810425
 70
192
 0
VERTEX
 8
0
 10
1.94
 20
-0.305
 30
2.7568070888519287
 70
192
 0
VERTEX
 8
0
 10
1.735744833946228
 20
-0.305
 30
2.6
 70
192
 0
VERTEX
 8
0
 10
1.94
 20
-0.305
 30
2.999999761581421
 70
192
 0
VERTEX
 8
0
 10
1.6524995565414429
 20
0.305
 30
2.695
 70
192
 0
VERTEX
 8
0
 10
1.94
 20
0.305
 30
2.999999761581421
 70
192
 0
VERTEX
 8
0
 10
1.94
 20
-0.305
 30
2.5725297927856445
 70
192
 0
VERTEX
 8
0
 10
1.8058878183364868
 20
-0.305
 30
2.4951
 70
192
 0
VERTEX
 8
0
 10
1.94
 20
0.305
 30
2.7568070888519287
 70
192
 0
VERTEX
 8
0
 10
1.735744833946228
 20
0.305
 30
2.6
 70
192
 0
VERTEX
 8
0
 10
1.94
 20
0.305
 30
2.5725297927856445
 70
192
 0
VERTEX
 8
0
 10
1.8058878183364868
 20
0.305
 30
2.4951
 70
192
 0
VERTEX
 8
0
 10
1.94
 20
-0.305
 30
2.4142870903015137
 70
192
 0
VERTEX
 8
0
 10
1.94
 20
0.305
 30
2.4142870903015137
 70
192
 0
VERTEX
 8
0
 10
1.9023115634918213
 20
-0.305
 30
2.262312173843384
 70
192
 0
VERTEX
 8
0
 10
1.94
 20
-0.305
 30
2.2724108695983887
 70
192
 0
VERTEX
 8
0
 10
1.8617284297943115
 20
0.305
 30
2.381865978240967
 70
192
 0
VERTEX
 8
0
 10
1.8617284297943115
 20
-0.305
 30
2.381865978240967
 70
192
 0
VERTEX
 8
0
 10
1.94
 20
0.305
 30
2.2724108695983887
 70
192
 0
VERTEX
 8
0
 10
1.9023115634918213
 20
0.305
 30
2.262312173843384
 70
192
 0
VERTEX
 8
0
 10
1.94
 20
-0.305
 30
2.140202760696411
 70
192
 0
VERTEX
 8
0
 10
1.94
 20
0.305
 30
2.140202760696411
 70
192
 0
VERTEX
 8
0
 10
1.9352
 20
-0.305
 30
2.0125
 70
192
 0
VERTEX
 8
0
 10
1.94
 20
-0.305
 30
2.0125
 70
192
 0
VERTEX
 8
0
 10
1.9269424676895142
 20
0.305
 30
2.138483762741089
 70
192
 0
VERTEX
 8
0
 10
1.9269424676895142
 20
-0.305
 30
2.138483762741089
 70
192
 0
VERTEX
 8
0
 10
1.94
 20
0.305
 30
2.0125
 70
192
 0
VERTEX
 8
0
 10
1.9352
 20
0.305
 30
2.0125
 70
192
 0
VERTEX
 8
0
 10
0.0
 20
0.0
 30
0.0
 70
128
 71
1
 72
13
 73
5
 74
2
 0
VERTEX
 8
0
 10
0.0
 20
0.0
 30
0.0
 70
128
 71
17
 72
7
 73
2
 74
5
 0
VERTEX
 8
0
 10
0.0
 20
0.0
 30
0.0
 70
128
 71
3
 72
1
 73
2
 74
10
 0
VERTEX
 8
0
 10
0.0
 20
0.0
 30
0.0
 70
128
 71
13
 72
1
 73
4
 74
12
 0
VERTEX
 8
0
 10
0.0
 20
0.0
 30
0.0
 70
128
 71
9
 72
5
 73
13
 74
11
 0
VERTEX
 8
0
 10
0.0
 20
0.0
 30
0.0
 70
128
 71
16
 72
6
 73
7
 74
17
 0
VERTEX
 8
0
 10
0.0
 20
0.0
 30
0.0
 70
128
 71
7
 72
8
 73
10
 74
2
 0
VERTEX
 8
0
 10
0.0
 20
0.0
 30
0.0
 70
128
 71
18
 72
17
 73
5
 74
9
 0
VERTEX
 8
0
 10
0.0
 20
0.0
 30
0.0
 70
128
 71
10
 72
9
 73
11
 74
3
 0
VERTEX
 8
0
 10
0.0
 20
0.0
 30
0.0
 70
128
 71
1
 72
3
 73
19
 74
4
 0
VERTEX
 8
0
 10
0.0
 20
0.0
 30
0.0
 70
128
 71
4
 72
19
 73
14
 74
12
 0
VERTEX
 8
0
 10
0.0
 20
0.0
 30
0.0
 70
128
 71
11
 72
13
 73
12
 74
14
 0
VERTEX
 8
0
 10
0.0
 20
0.0
 30
0.0
 70
128
 71
22
 72
20
 73
6
 74
16
 0
VERTEX
 8
0
 10
0.0
 20
0.0
 30
0.0
 70
128
 71
6
 72
23
 73
8
 74
7
 0
VERTEX
 8
0
 10
0.0
 20
0.0
 30
0.0
 70
128
 71
15
 72
16
 73
17
 74
18
 0
VERTEX
 8
0
 10
0.0
 20
0.0
 30
0.0
 70
128
 71
8
 72
18
 73
9
 74
10
 0
VERTEX
 8
0
 10
0.0
 20
0.0
 30
0.0
 70
128
 71
3
 72
11
 73
14
 74
19
 0
VERTEX
 8
0
 10
0.0
 20
0.0
 30
0.0
 70
128
 71
26
 72
25
 73
20
 74
22
 0
VERTEX
 8
0
 10
0.0
 20
0.0
 30
0.0
 70
128
 71
20
 72
21
 73
23
 74
6
 0
VERTEX
 8
0
 10
0.0
 20
0.0
 30
0.0
 70
128
 71
27
 72
22
 73
16
 74
15
 0
VERTEX
 8
0
 10
0.0
 20
0.0
 30
0.0
 70
128
 71
23
 72
15
 73
18
 74
8
 0
VERTEX
 8
0
 10
0.0
 20
0.0
 30
0.0
 70
128
 71
24
 72
32
 73
25
 74
26
 0
VERTEX
 8
0
 10
0.0
 20
0.0
 30
0.0
 70
128
 71
20
 72
25
 73
29
 74
21
 0
VERTEX
 8
0
 10
0.0
 20
0.0
 30
0.0
 70
128
 71
30
 72
26
 73
22
 74
27
 0
VERTEX
 8
0
 10
0.0
 20
0.0
 30
0.0
 70
128
 71
21
 72
27
 73
15
 74
23
 0
VERTEX
 8
0
 10
0.0
 20
0.0
 30
0.0
 70
128
 71
33
 72
36
 73
32
 74
24
 0
VERTEX
 8
0
 10
0.0
 20
0.0
 30
0.0
 70
128
 71
25
 72
32
 73
28
 74
29
 0
VERTEX
 8
0
 10
0.0
 20
0.0
 30
0.0
 70
128
 71
34
 72
24
 73
26
 74
30
 0
VERTEX
 8
0
 10
0.0
 20
0.0
 30
0.0
 70
128
 71
29
 72
30
 73
27
 74
21
 0
VERTEX
 8
0
 10
0.0
 20
0.0
 30
0.0
 70
128
 71
31
 72
37
 73
36
 74
33
 0
VERTEX
 8
0
 10
0.0
 20
0.0
 30
0.0
 70
128
 71
32
 72
36
 73
40
 74
28
 0
VERTEX
 8
0
 10
0.0
 20
0.0
 30
0.0
 70
128
 71
39
 72
33
 73
24
 74
34
 0
VERTEX
 8
0
 10
0.0
 20
0.0
 30
0.0
 70
128
 71
28
 72
34
 73
30
 74
29
 0
VERTEX
 8
0
 10
0.0
 20
0.0
 30
0.0
 70
128
 71
45
 72
35
 73
37
 74
31
 0
VERTEX
 8
0
 10
0.0
 20
0.0
 30
0.0
 70
128
 71
36
 72
37
 73
38
 74
40
 0
VERTEX
 8
0
 10
0.0
 20
0.0
 30
0.0
 70
128
 71
44
 72
31
 73
33
 74
39
 0
VERTEX
 8
0
 10
0.0
 20
0.0
 30
0.0
 70
128
 71
40
 72
39
 73
34
 74
28
 0
VERTEX
 8
0
 10
0.0
 20
0.0
 30
0.0
 70
128
 71
41
 72
42
 73
35
 74
45
 0
VERTEX
 8
0
 10
0.0
 20
0.0
 30
0.0
 70
128
 71
37
 72
35
 73
43
 74
38
 0
VERTEX
 8
0
 10
0.0
 20
0.0
 30
0.0
 70
128
 71
46
 72
45
 73
31
 74
44
 0
VERTEX
 8
0
 10
0.0
 20
0.0
 30
0.0
 70
128
 71
38
 72
44
 73
39
 74
40
 0
VERTEX
 8
0
 10
0.0
 20
0.0
 30
0.0
 70
128
 71
41
 72
54
 73
49
 74
42
 0
VERTEX
 8
0
 10
0.0
 20
0.0
 30
0.0
 70
128
 71
35
 72
42
 73
50
 74
43
 0
VERTEX
 8
0
 10
0.0
 20
0.0
 30
0.0
 70
128
 71
52
 72
41
 73
45
 74
46
 0
VERTEX
 8
0
 10
0.0
 20
0.0
 30
0.0
 70
128
 71
43
 72
46
 73
44
 74
38
 0
VERTEX
 8
0
 10
0.0
 20
0.0
 30
0.0
 70
128
 71
47
 72
54
 73
41
 74
52
 0
VERTEX
 8
0
 10
0.0
 20
0.0
 30
0.0
 70
128
 71
54
 72
57
 73
48
 74
49
 0
VERTEX
 8
0
 10
0.0
 20
0.0
 30
0.0
 70
128
 71
42
 72
49
 73
55
 74
50
 0
VERTEX
 8
0
 10
0.0
 20
0.0
 30
0.0
 70
128
 71
43
 72
50
 73
51
 0
VERTEX
 8
0
 10
0.0
 20
0.0
 30
0.0
 70
128
 71
51
 72
52
 73
46
 0
VERTEX
 8
0
 10
0.0
 20
0.0
 30
0.0
 70
128
 71
51
 72
46
 73
43
 0
VERTEX
 8
0
 10
0.0
 20
0.0
 30
0.0
 70
128
 71
53
 72
57
 73
54
 74
47
 0
VERTEX
 8
0
 10
0.0
 20
0.0
 30
0.0
 70
128
 71
55
 72
47
 73
52
 0
VERTEX
 8
0
 10
0.0
 20
0.0
 30
0.0
 70
128
 71
51
 72
50
 73
55
 0
VERTEX
 8
0
 10
0.0
 20
0.0
 30
0.0
 70
128
 71
52
 72
51
 73
55
 0
VERTEX
 8
0
 10
0.0
 20
0.0
 30
0.0
 70
128
 71
56
 72
48
 73
57
 74
61
 0
VERTEX
 8
0
 10
0.0
 20
0.0
 30
0.0
 70
128
 71
49
 72
48
 73
59
 74
55
 0
VERTEX
 8
0
 10
0.0
 20
0.0
 30
0.0
 70
128
 71
57
 72
53
 73
58
 74
61
 0
VERTEX
 8
0
 10
0.0
 20
0.0
 30
0.0
 70
128
 71
53
 72
47
 73
55
 74
59
 0
VERTEX
 8
0
 10
0.0
 20
0.0
 30
0.0
 70
128
 71
48
 72
56
 73
60
 74
59
 0
VERTEX
 8
0
 10
0.0
 20
0.0
 30
0.0
 70
128
 71
61
 72
64
 73
62
 74
56
 0
VERTEX
 8
0
 10
0.0
 20
0.0
 30
0.0
 70
128
 71
59
 72
60
 73
58
 74
53
 0
VERTEX
 8
0
 10
0.0
 20
0.0
 30
0.0
 70
128
 71
61
 72
58
 73
65
 74
64
 0
VERTEX
 8
0
 10
0.0
 20
0.0
 30
0.0
 70
128
 71
56
 72
62
 73
63
 74
60
 0
VERTEX
 8
0
 10
0.0
 20
0.0
 30
0.0
 70
128
 71
66
 72
62
 73
64
 74
69
 0
VERTEX
 8
0
 10
0.0
 20
0.0
 30
0.0
 70
128
 71
65
 72
58
 73
60
 74
63
 0
VERTEX
 8
0
 10
0.0
 20
0.0
 30
0.0
 70
128
 71
64
 72
65
 73
70
 74
69
 0
VERTEX
 8
0
 10
0.0
 20
0.0
 30
0.0
 70
128
 71
62
 72
66
 73
67
 74
63
 0
VERTEX
 8
0
 10
0.0
 20
0.0
 30
0.0
 70
128
 71
71
 72
66
 73
69
 74
68
 0
VERTEX
 8
0
 10
0.0
 20
0.0
 30
0.0
 70
128
 71
63
 72
67
 73
70
 74
65
 0
VERTEX
 8
0
 10
0.0
 20
0.0
 30
0.0
 70
128
 71
69
 72
70
 73
74
 74
68
 0
VERTEX
 8
0
 10
0.0
 20
0.0
 30
0.0
 70
128
 71
66
 72
71
 73
73
 74
67
 0
VERTEX
 8
0
 10
0.0
 20
0.0
 30
0.0
 70
128
 71
68
 72
72
 73
77
 74
71
 0
VERTEX
 8
0
 10
0.0
 20
0.0
 30
0.0
 70
128
 71
67
 72
73
 73
74
 74
70
 0
VERTEX
 8
0
 10
0.0
 20
0.0
 30
0.0
 70
128
 71
68
 72
74
 73
78
 74
72
 0
VERTEX
 8
0
 10
0.0
 20
0.0
 30
0.0
 70
128
 71
79
 72
73
 73
71
 74
77
 0
VERTEX
 8
0
 10
0.0
 20
0.0
 30
0.0
 70
128
 71
75
 72
77
 73
72
 74
76
 0
VERTEX
 8
0
 10
0.0
 20
0.0
 30
0.0
 70
128
 71
78
 72
74
 73
73
 74
79
 0
VERTEX
 8
0
 10
0.0
 20
0.0
 30
0.0
 70
128
 71
72
 72
78
 73
83
 74
76
 0
VERTEX
 8
0
 10
0.0
 20
0.0
 30
0.0
 70
128
 71
79
 72
77
 73
75
 74
82
 0
VERTEX
 8
0
 10
0.0
 20
0.0
 30
0.0
 70
128
 71
80
 72
75
 73
76
 74
81
 0
VERTEX
 8
0
 10
0.0
 20
0.0
 30
0.0
 70
128
 71
79
 72
82
 73
83
 74
78
 0
VERTEX
 8
0
 10
0.0
 20
0.0
 30
0.0
 70
128
 71
76
 72
83
 73
85
 74
81
 0
VERTEX
 8
0
 10
0.0
 20
0.0
 30
0.0
 70
128
 71
82
 72
75
 73
80
 74
84
 0
VERTEX
 8
0
 10
0.0
 20
0.0
 30
0.0
 70
128
 71
91
 72
86
 73
80
 74
81
 0
VERTEX
 8
0
 10
0.0
 20
0.0
 30
0.0
 70
128
 71
82
 72
84
 73
85
 74
83
 0
VERTEX
 8
0
 10
0.0
 20
0.0
 30
0.0
 70
128
 71
81
 72
85
 73
90
 74
91
 0
VERTEX
 8
0
 10
0.0
 20
0.0
 30
0.0
 70
128
 71
84
 72
80
 73
86
 74
87
 0
VERTEX
 8
0
 10
0.0
 20
0.0
 30
0.0
 70
128
 71
88
 72
89
 73
86
 74
91
 0
VERTEX
 8
0
 10
0.0
 20
0.0
 30
0.0
 70
128
 71
87
 72
90
 73
85
 74
84
 0
VERTEX
 8
0
 10
0.0
 20
0.0
 30
0.0
 70
128
 71
91
 72
90
 73
93
 74
88
 0
VERTEX
 8
0
 10
0.0
 20
0.0
 30
0.0
 70
128
 71
87
 72
86
 73
89
 74
92
 0
VERTEX
 8
0
 10
0.0
 20
0.0
 30
0.0
 70
128
 71
99
 72
94
 73
89
 74
88
 0
VERTEX
 8
0
 10
0.0
 20
0.0
 30
0.0
 70
128
 71
92
 72
93
 73
90
 74
87
 0
VERTEX
 8
0
 10
0.0
 20
0.0
 30
0.0
 70
128
 71
88
 72
93
 73
98
 74
99
 0
VERTEX
 8
0
 10
0.0
 20
0.0
 30
0.0
 70
128
 71
92
 72
89
 73
94
 74
95
 0
VERTEX
 8
0
 10
0.0
 20
0.0
 30
0.0
 70
128
 71
96
 72
97
 73
94
 74
99
 0
VERTEX
 8
0
 10
0.0
 20
0.0
 30
0.0
 70
128
 71
95
 72
98
 73
93
 74
92
 0
VERTEX
 8
0
 10
0.0
 20
0.0
 30
0.0
 70
128
 71
99
 72
98
 73
101
 74
96
 0
VERTEX
 8
0
 10
0.0
 20
0.0
 30
0.0
 70
128
 71
95
 72
94
 73
97
 74
100
 0
VERTEX
 8
0
 10
0.0
 20
0.0
 30
0.0
 70
128
 71
100
 72
97
 73
96
 74
101
 0
VERTEX
 8
0
 10
0.0
 20
0.0
 30
0.0
 70
128
 71
100
 72
101
 73
98
 74
95
 0
SEQEND
 8
0
 0
POLYLINE
 8
0
 70
64
 66
1
 10
0.0
 20
0.0
 30
0.0
 71
8
 72
6
 0
VERTEX
 8
0
 10
-0.3
 20
0.3302
 30
0.0821
 70
192
 0
VERTEX
 8
0
 10
-0.3
 20
0.3302
 30
-1.2111663671987571e-08
 70
192
 0
VERTEX
 8
0
 10
-0.3
 20
-0.3302
 30
-1.2111663671987571e-08
 70
192
 0
VERTEX
 8
0
 10
-0.3
 20
-0.3302
 30
0.0821
 70
192
 0
VERTEX
 8
0
 10
0.0302
 20
0.3302
 30
0.0821
 70
192
 0
VERTEX
 8
0
 10
0.0302
 20
0.3302
 30
-1.2111663671987571e-08
 70
192
 0
VERTEX
 8
0
 10
0.0302
 20
-0.3302
 30
0.0821
 70
192
 0
VERTEX
 8
0
 10
0.0302
 20
-0.3302
 30
-1.2111663671987571e-08
 70
192
 0
VERTEX
 8
0
 10
0.0
 20
0.0
 30
0.0
 70
128
 71
4
 72
1
 73
2
 74
3
 0
VERTEX
 8
0
 10
0.0
 20
0.0
 30
0.0
 70
128
 71
1
 72
4
 73
7
 74
5
 0
VERTEX
 8
0
 10
0.0
 20
0.0
 30
0.0
 70
128
 71
1
 72
5
 73
6
 74
2
 0
VERTEX
 8
0
 10
0.0
 20
0.0
 30
0.0
 70
128
 71
3
 72
2
 73
6
 74
8
 0
VERTEX
 8
0
 10
0.0
 20
0.0
 30
0.0
 70
128
 71
7
 72
4
 73
3
 74
8
 0
VERTEX
 8
0
 10
0.0
 20
0.0
 30
0.0
 70
128
 71
5
 72
7
 73
8
 74
6
 0
SEQEND
 8
0
 0
ENDSEC
 0
EOF
