 0
SECTION
 2
HEADER
 9
$ACADVER
 1
AC1009
 9
$INSBASE
 10
0.0
 20
0.0
 30
0.0
 9
$EXTMIN
 10
0.0
 20
0.0
 30
0.0
 9
$EXTMAX
 10
0.0
 20
0.0
 30
0.0
 0
ENDSEC
 0
SECTION
 2
TABLES
 0
TABLE
 2
VPORT
 70
1
 0
VPORT
 2
*ACTIVE
 70
0
 10
0.0
 20
0.0
 11
1.0
 21
1.0
 12
-5.0
 22
1.0
 13
0.0
 23
0.0
 14
0.1
 24
0.1
 15
0.1
 25
0.1
 16
0.0
 26
0.0
 36
1.0
 17
0.0
 27
0.0
 37
0.0
 40
10.0
 41
1.0
 42
50.0
 43
0.0
 44
0.0
 50
0.0
 51
0.0
 71
0
 72
100
 73
1
 74
1
 75
0
 76
0
 77
0
 78
0
 0
ENDTAB
 0
TABLE
 2
LTYPE
 70
8
 0
LTYPE
 2
CONTINUOUS
 70
0
 3
Solid line
 72
65
 73
0
 40
0.0
 0
LTYPE
 2
DOT
 70
0
 3
. . . . . . .
 72
65
 73
2
 40
0.25
 49
0.0
 49
-0.25
 0
LTYPE
 2
DASHED
 70
0
 3
__ __ __ __ __
 72
65
 73
2
 40
0.8
 49
0.5
 49
-0.3
 0
LTYPE
 2
DASHDOT
 70
0
 3
__ . __ . __ .
 72
65
 73
4
 40
1.0
 49
0.5
 49
-0.25
 49
0.0
 49
-0.25
 0
LTYPE
 2
DIVIDE
 70
0
 3
____ . . ____ . . 
 72
65
 73
6
 40
1.25
 49
0.5
 49
-0.25
 49
0.0
 49
-0.25
 49
0.0
 49
-0.25
 0
LTYPE
 2
BORDER
 70
0
 3
__ __ . __ __ . 
 72
65
 73
6
 40
1.75
 49
0.5
 49
-0.25
 49
0.5
 49
-0.25
 49
0.0
 49
-0.25
 0
LTYPE
 2
HIDDEN
 70
0
 3
__ __ __ __ __
 72
65
 73
2
 40
0.4
 49
0.25
 49
-0.25
 0
LTYPE
 2
CENTER
 70
0
 3
____ _ ____ _ __
 72
65
 73
4
 40
2.0
 49
1.25
 49
-0.25
 49
0.25
 49
-0.25
 0
ENDTAB
 0
TABLE
 2
LAYER
 70
1
 0
LAYER
 2
PYDXF
 70
64
 62
7
 6
continuous
 0
ENDTAB
 0
TABLE
 2
STYLE
 70
1
 0
STYLE
 2
STANDARD
 70
0
 40
0
 41
1.0
 50
0.0
 71
0
 42
1
 3
ARIAL.TTF
 4

 0
ENDTAB
 0
TABLE
 2
VIEW
 70
1
 0
VIEW
 2
BF_TOPVIEW
 70
0
 40
120.0
 10
0.0
 20
0.0
 41
200.0
 11
0.0
 21
0.0
 31
1.0
 12
0.0
 22
0.0
 32
0.0
 42
50.0
 43
0.0
 44
0.0
 50
0.0
 71
0
 0
ENDTAB
 0
ENDSEC
 0
SECTION
 2
BLOCKS
 0
ENDSEC
 0
SECTION
 2
ENTITIES
 0
POLYLINE
 8
0
 70
64
 66
1
 10
0.0
 20
0.0
 30
0.0
 71
8
 72
6
 0
VERTEX
 8
0
 10
0.572300910949707
 20
0.3302
 30
0.0821
 70
192
 0
VERTEX
 8
0
 10
0.572300910949707
 20
0.3302
 30
-1.2111663671987571e-08
 70
192
 0
VERTEX
 8
0
 10
0.572300910949707
 20
-0.3302
 30
-1.2111663671987571e-08
 70
192
 0
VERTEX
 8
0
 10
0.572300910949707
 20
-0.3302
 30
0.0821
 70
192
 0
VERTEX
 8
0
 10
0.902501106262207
 20
0.3302
 30
0.0821
 70
192
 0
VERTEX
 8
0
 10
0.902501106262207
 20
0.3302
 30
-1.2111663671987571e-08
 70
192
 0
VERTEX
 8
0
 10
0.902501106262207
 20
-0.3302
 30
0.0821
 70
192
 0
VERTEX
 8
0
 10
0.902501106262207
 20
-0.3302
 30
-1.2111663671987571e-08
 70
192
 0
VERTEX
 8
0
 10
0.0
 20
0.0
 30
0.0
 70
128
 71
4
 72
1
 73
2
 74
3
 0
VERTEX
 8
0
 10
0.0
 20
0.0
 30
0.0
 70
128
 71
1
 72
4
 73
7
 74
5
 0
VERTEX
 8
0
 10
0.0
 20
0.0
 30
0.0
 70
128
 71
1
 72
5
 73
6
 74
2
 0
VERTEX
 8
0
 10
0.0
 20
0.0
 30
0.0
 70
128
 71
3
 72
2
 73
6
 74
8
 0
VERTEX
 8
0
 10
0.0
 20
0.0
 30
0.0
 70
128
 71
7
 72
4
 73
3
 74
8
 0
VERTEX
 8
0
 10
0.0
 20
0.0
 30
0.0
 70
128
 71
5
 72
7
 73
8
 74
6
 0
SEQEND
 8
0
 0
POLYLINE
 8
0
 70
64
 66
1
 10
0.0
 20
0.0
 30
0.0
 71
8
 72
6
 0
VERTEX
 8
0
 10
-0.2924995422363281
 20
0.3302
 30
0.0821
 70
192
 0
VERTEX
 8
0
 10
-0.2924995422363281
 20
0.3302
 30
-1.2111663671987571e-08
 70
192
 0
VERTEX
 8
0
 10
-0.2924995422363281
 20
-0.3302
 30
-1.2111663671987571e-08
 70
192
 0
VERTEX
 8
0
 10
-0.2924995422363281
 20
-0.3302
 30
0.0821
 70
192
 0
VERTEX
 8
0
 10
0.037700653076171875
 20
0.3302
 30
0.0821
 70
192
 0
VERTEX
 8
0
 10
0.037700653076171875
 20
0.3302
 30
-1.2111663671987571e-08
 70
192
 0
VERTEX
 8
0
 10
0.037700653076171875
 20
-0.3302
 30
0.0821
 70
192
 0
VERTEX
 8
0
 10
0.037700653076171875
 20
-0.3302
 30
-1.2111663671987571e-08
 70
192
 0
VERTEX
 8
0
 10
0.0
 20
0.0
 30
0.0
 70
128
 71
4
 72
1
 73
2
 74
3
 0
VERTEX
 8
0
 10
0.0
 20
0.0
 30
0.0
 70
128
 71
1
 72
4
 73
7
 74
5
 0
VERTEX
 8
0
 10
0.0
 20
0.0
 30
0.0
 70
128
 71
1
 72
5
 73
6
 74
2
 0
VERTEX
 8
0
 10
0.0
 20
0.0
 30
0.0
 70
128
 71
3
 72
2
 73
6
 74
8
 0
VERTEX
 8
0
 10
0.0
 20
0.0
 30
0.0
 70
128
 71
7
 72
4
 73
3
 74
8
 0
VERTEX
 8
0
 10
0.0
 20
0.0
 30
0.0
 70
128
 71
5
 72
7
 73
8
 74
6
 0
SEQEND
 8
0
 0
POLYLINE
 8
0
 70
64
 66
1
 10
0.0
 20
0.0
 30
0.0
 71
8
 72
6
 0
VERTEX
 8
0
 10
-0.2924995422363281
 20
0.3556
 30
2.0125
 70
192
 0
VERTEX
 8
0
 10
-0.2924995422363281
 20
0.3556
 30
1.8093
 70
192
 0
VERTEX
 8
0
 10
-0.2924995422363281
 20
-0.3556
 30
1.8093
 70
192
 0
VERTEX
 8
0
 10
-0.2924995422363281
 20
-0.3556
 30
2.0125
 70
192
 0
VERTEX
 8
0
 10
0.9025001525878906
 20
0.3556
 30
2.0125
 70
192
 0
VERTEX
 8
0
 10
0.9025001525878906
 20
0.3556
 30
1.8093
 70
192
 0
VERTEX
 8
0
 10
0.9025001525878906
 20
-0.3556
 30
2.0125
 70
192
 0
VERTEX
 8
0
 10
0.9025001525878906
 20
-0.3556
 30
1.8093
 70
192
 0
VERTEX
 8
0
 10
0.0
 20
0.0
 30
0.0
 70
128
 71
4
 72
1
 73
2
 74
3
 0
VERTEX
 8
0
 10
0.0
 20
0.0
 30
0.0
 70
128
 71
1
 72
4
 73
7
 74
5
 0
VERTEX
 8
0
 10
0.0
 20
0.0
 30
0.0
 70
128
 71
1
 72
5
 73
6
 74
2
 0
VERTEX
 8
0
 10
0.0
 20
0.0
 30
0.0
 70
128
 71
3
 72
2
 73
6
 74
8
 0
VERTEX
 8
0
 10
0.0
 20
0.0
 30
0.0
 70
128
 71
7
 72
4
 73
3
 74
8
 0
VERTEX
 8
0
 10
0.0
 20
0.0
 30
0.0
 70
128
 71
5
 72
7
 73
8
 74
6
 0
SEQEND
 8
0
 0
POLYLINE
 8
0
 70
64
 66
1
 10
0.0
 20
0.0
 30
0.0
 71
96
 72
96
 0
VERTEX
 8
0
 10
0.305
 20
0.305
 30
3.11
 70
192
 0
VERTEX
 8
0
 10
0.20794296264648438
 20
0.305
 30
3.097222328186035
 70
192
 0
VERTEX
 8
0
 10
0.305
 20
0.305
 30
3.145
 70
192
 0
VERTEX
 8
0
 10
0.1
 20
0.305
 30
3.0900704860687256
 70
192
 0
VERTEX
 8
0
 10
0.305
 20
0.33
 30
3.11
 70
192
 0
VERTEX
 8
0
 10
0.1988840103149414
 20
0.33
 30
3.1310298442840576
 70
192
 0
VERTEX
 8
0
 10
0.11750030517578125
 20
0.33
 30
3.0597596168518066
 70
192
 0
VERTEX
 8
0
 10
0.20794296264648438
 20
0.33
 30
3.097222328186035
 70
192
 0
VERTEX
 8
0
 10
0.11750030517578125
 20
0.305
 30
3.0597596168518066
 70
192
 0
VERTEX
 8
0
 10
0.4111156463623047
 20
0.33
 30
3.1310298442840576
 70
192
 0
VERTEX
 8
0
 10
0.305
 20
0.33
 30
3.145
 70
192
 0
VERTEX
 8
0
 10
0.1988840103149414
 20
0.305
 30
3.1310298442840576
 70
192
 0
VERTEX
 8
0
 10
0.03983497619628906
 20
0.305
 30
3.
 70
192
 0
VERTEX
 8
0
 10
0.1
 20
0.33
 30
3.0900704860687256
 70
192
 0
VERTEX
 8
0
 10
0.4020576477050781
 20
0.33
 30
3.097222328186035
 70
192
 0
VERTEX
 8
0
 10
0.4020576477050781
 20
0.305
 30
3.097222328186035
 70
192
 0
VERTEX
 8
0
 10
0.03983497619628906
 20
0.33
 30
3.
 70
192
 0
VERTEX
 8
0
 10
0.51
 20
0.33
 30
3.0900704860687256
 70
192
 0
VERTEX
 8
0
 10
0.4111156463623047
 20
0.305
 30
3.1310298442840576
 70
192
 0
VERTEX
 8
0
 10
0.51
 20
0.305
 30
3.0900704860687256
 70
192
 0
VERTEX
 8
0
 10
0.015086174011230469
 20
0.33
 30
3.024913787841797
 70
192
 0
VERTEX
 8
0
 10
0.49249935150146484
 20
0.33
 30
3.0597596168518066
 70
192
 0
VERTEX
 8
0
 10
0.570164680480957
 20
0.305
 30
3.
 70
192
 0
VERTEX
 8
0
 10
0.49249935150146484
 20
0.305
 30
3.0597596168518066
 70
192
 0
VERTEX
 8
0
 10
-0.0197601318359375
 20
0.33
 30
2.9225001335144043
 70
192
 0
VERTEX
 8
0
 10
-0.0197601318359375
 20
0.305
 30
2.9225001335144043
 70
192
 0
VERTEX
 8
0
 10
0.6600704193115234
 20
0.305
 30
2.94
 70
192
 0
VERTEX
 8
0
 10
0.5949134826660156
 20
0.305
 30
3.024913787841797
 70
192
 0
VERTEX
 8
0
 10
-0.050070762634277344
 20
0.305
 30
2.94
 70
192
 0
VERTEX
 8
0
 10
0.015086174011230469
 20
0.305
 30
3.024913787841797
 70
192
 0
VERTEX
 8
0
 10
-0.05722236633300781
 20
0.305
 30
2.832057237625122
 70
192
 0
VERTEX
 8
0
 10
0.570164680480957
 20
0.33
 30
3.
 70
192
 0
VERTEX
 8
0
 10
0.6297597885131836
 20
0.33
 30
2.9225001335144043
 70
192
 0
VERTEX
 8
0
 10
-0.05722236633300781
 20
0.33
 30
2.832057237625122
 70
192
 0
VERTEX
 8
0
 10
0.5949134826660156
 20
0.33
 30
3.024913787841797
 70
192
 0
VERTEX
 8
0
 10
-0.050070762634277344
 20
0.33
 30
2.94
 70
192
 0
VERTEX
 8
0
 10
-0.09103012084960938
 20
0.33
 30
2.841115951538086
 70
192
 0
VERTEX
 8
0
 10
0.6600704193115234
 20
0.33
 30
2.94
 70
192
 0
VERTEX
 8
0
 10
0.6672220230102539
 20
0.305
 30
2.832057237625122
 70
192
 0
VERTEX
 8
0
 10
0.6297597885131836
 20
0.305
 30
2.9225001335144043
 70
192
 0
VERTEX
 8
0
 10
-0.07
 20
0.33
 30
2.735
 70
192
 0
VERTEX
 8
0
 10
-0.07
 20
0.305
 30
2.735
 70
192
 0
VERTEX
 8
0
 10
0.68
 20
0.305
 30
2.735
 70
192
 0
VERTEX
 8
0
 10
0.7010297775268555
 20
0.305
 30
2.841115951538086
 70
192
 0
VERTEX
 8
0
 10
-0.09103012084960938
 20
0.305
 30
2.841115951538086
 70
192
 0
VERTEX
 8
0
 10
0.6672220230102539
 20
0.33
 30
2.832057237625122
 70
192
 0
VERTEX
 8
0
 10
-0.05722236633300781
 20
0.305
 30
2.6379427909851074
 70
192
 0
VERTEX
 8
0
 10
0.7010297775268555
 20
0.33
 30
2.841115951538086
 70
192
 0
VERTEX
 8
0
 10
-0.105
 20
0.33
 30
2.735
 70
192
 0
VERTEX
 8
0
 10
-0.09103012084960938
 20
0.305
 30
2.6288840770721436
 70
192
 0
VERTEX
 8
0
 10
-0.105
 20
0.305
 30
2.735
 70
192
 0
VERTEX
 8
0
 10
0.68
 20
0.33
 30
2.735
 70
192
 0
VERTEX
 8
0
 10
0.6672220230102539
 20
0.305
 30
2.6379427909851074
 70
192
 0
VERTEX
 8
0
 10
-0.05722236633300781
 20
0.33
 30
2.6379427909851074
 70
192
 0
VERTEX
 8
0
 10
0.6297597885131836
 20
0.305
 30
2.5475001335144043
 70
192
 0
VERTEX
 8
0
 10
0.715
 20
0.33
 30
2.735
 70
192
 0
VERTEX
 8
0
 10
0.715
 20
0.305
 30
2.735
 70
192
 0
VERTEX
 8
0
 10
0.7010297775268555
 20
0.305
 30
2.6288840770721436
 70
192
 0
VERTEX
 8
0
 10
-0.09103012084960938
 20
0.33
 30
2.6288840770721436
 70
192
 0
VERTEX
 8
0
 10
0.03983497619628906
 20
0.305
 30
2.469835042953491
 70
192
 0
VERTEX
 8
0
 10
-0.0197601318359375
 20
0.33
 30
2.5475001335144043
 70
192
 0
VERTEX
 8
0
 10
0.6672220230102539
 20
0.33
 30
2.6379427909851074
 70
192
 0
VERTEX
 8
0
 10
0.7010297775268555
 20
0.33
 30
2.6288840770721436
 70
192
 0
VERTEX
 8
0
 10
-0.0197601318359375
 20
0.305
 30
2.5475001335144043
 70
192
 0
VERTEX
 8
0
 10
0.570164680480957
 20
0.305
 30
2.469835042953491
 70
192
 0
VERTEX
 8
0
 10
0.6600704193115234
 20
0.33
 30
2.53
 70
192
 0
VERTEX
 8
0
 10
0.6600704193115234
 20
0.305
 30
2.53
 70
192
 0
VERTEX
 8
0
 10
-0.050070762634277344
 20
0.33
 30
2.53
 70
192
 0
VERTEX
 8
0
 10
0.015086174011230469
 20
0.305
 30
2.4450864791870117
 70
192
 0
VERTEX
 8
0
 10
-0.050070762634277344
 20
0.305
 30
2.53
 70
192
 0
VERTEX
 8
0
 10
0.1
 20
0.305
 30
2.379929780960083
 70
192
 0
VERTEX
 8
0
 10
0.015086174011230469
 20
0.33
 30
2.4450864791870117
 70
192
 0
VERTEX
 8
0
 10
0.6297597885131836
 20
0.33
 30
2.5475001335144043
 70
192
 0
VERTEX
 8
0
 10
0.03983497619628906
 20
0.33
 30
2.469835042953491
 70
192
 0
VERTEX
 8
0
 10
0.5949134826660156
 20
0.305
 30
2.4450864791870117
 70
192
 0
VERTEX
 8
0
 10
0.20794296264648438
 20
0.305
 30
2.3727779388427734
 70
192
 0
VERTEX
 8
0
 10
0.11750030517578125
 20
0.33
 30
2.410240650177002
 70
192
 0
VERTEX
 8
0
 10
0.1
 20
0.33
 30
2.379929780960083
 70
192
 0
VERTEX
 8
0
 10
0.570164680480957
 20
0.33
 30
2.469835042953491
 70
192
 0
VERTEX
 8
0
 10
0.5949134826660156
 20
0.33
 30
2.4450864791870117
 70
192
 0
VERTEX
 8
0
 10
0.20794296264648438
 20
0.33
 30
2.3727779388427734
 70
192
 0
VERTEX
 8
0
 10
0.11750030517578125
 20
0.305
 30
2.410240650177002
 70
192
 0
VERTEX
 8
0
 10
0.51
 20
0.33
 30
2.379929780960083
 70
192
 0
VERTEX
 8
0
 10
0.1988840103149414
 20
0.305
 30
2.33897066116333
 70
192
 0
VERTEX
 8
0
 10
0.305
 20
0.305
 30
2.325
 70
192
 0
VERTEX
 8
0
 10
0.1988840103149414
 20
0.33
 30
2.33897066116333
 70
192
 0
VERTEX
 8
0
 10
0.49249935150146484
 20
0.33
 30
2.410240650177002
 70
192
 0
VERTEX
 8
0
 10
0.4020576477050781
 20
0.33
 30
2.3727779388427734
 70
192
 0
VERTEX
 8
0
 10
0.4020576477050781
 20
0.305
 30
2.3727779388427734
 70
192
 0
VERTEX
 8
0
 10
0.49249935150146484
 20
0.305
 30
2.410240650177002
 70
192
 0
VERTEX
 8
0
 10
0.305
 20
0.33
 30
2.36
 70
192
 0
VERTEX
 8
0
 10
0.51
 20
0.305
 30
2.379929780960083
 70
192
 0
VERTEX
 8
0
 10
0.305
 20
0.33
 30
2.325
 70
192
 0
VERTEX
 8
0
 10
0.305
 20
0.305
 30
2.36
 70
192
 0
VERTEX
 8
0
 10
0.4111156463623047
 20
0.33
 30
2.33897066116333
 70
192
 0
VERTEX
 8
0
 10
0.4111156463623047
 20
0.305
 30
2.33897066116333
 70
192
 0
VERTEX
 8
0
 10
0.0
 20
0.0
 30
0.0
 70
128
 71
2
 72
1
 73
3
 74
12
 0
VERTEX
 8
0
 10
0.0
 20
0.0
 30
0.0
 70
128
 71
1
 72
2
 73
8
 74
5
 0
VERTEX
 8
0
 10
0.0
 20
0.0
 30
0.0
 70
128
 71
1
 72
16
 73
19
 74
3
 0
VERTEX
 8
0
 10
0.0
 20
0.0
 30
0.0
 70
128
 71
11
 72
6
 73
12
 74
3
 0
VERTEX
 8
0
 10
0.0
 20
0.0
 30
0.0
 70
128
 71
9
 72
2
 73
12
 74
4
 0
VERTEX
 8
0
 10
0.0
 20
0.0
 30
0.0
 70
128
 71
5
 72
8
 73
6
 74
11
 0
VERTEX
 8
0
 10
0.0
 20
0.0
 30
0.0
 70
128
 71
16
 72
1
 73
5
 74
15
 0
VERTEX
 8
0
 10
0.0
 20
0.0
 30
0.0
 70
128
 71
7
 72
8
 73
2
 74
9
 0
VERTEX
 8
0
 10
0.0
 20
0.0
 30
0.0
 70
128
 71
16
 72
24
 73
20
 74
19
 0
VERTEX
 8
0
 10
0.0
 20
0.0
 30
0.0
 70
128
 71
10
 72
11
 73
3
 74
19
 0
VERTEX
 8
0
 10
0.0
 20
0.0
 30
0.0
 70
128
 71
6
 72
14
 73
4
 74
12
 0
VERTEX
 8
0
 10
0.0
 20
0.0
 30
0.0
 70
128
 71
13
 72
9
 73
4
 74
30
 0
VERTEX
 8
0
 10
0.0
 20
0.0
 30
0.0
 70
128
 71
8
 72
7
 73
14
 74
6
 0
VERTEX
 8
0
 10
0.0
 20
0.0
 30
0.0
 70
128
 71
15
 72
5
 73
11
 74
10
 0
VERTEX
 8
0
 10
0.0
 20
0.0
 30
0.0
 70
128
 71
15
 72
22
 73
24
 74
16
 0
VERTEX
 8
0
 10
0.0
 20
0.0
 30
0.0
 70
128
 71
17
 72
7
 73
9
 74
13
 0
VERTEX
 8
0
 10
0.0
 20
0.0
 30
0.0
 70
128
 71
24
 72
23
 73
28
 74
20
 0
VERTEX
 8
0
 10
0.0
 20
0.0
 30
0.0
 70
128
 71
18
 72
10
 73
19
 74
20
 0
VERTEX
 8
0
 10
0.0
 20
0.0
 30
0.0
 70
128
 71
14
 72
21
 73
30
 74
4
 0
VERTEX
 8
0
 10
0.0
 20
0.0
 30
0.0
 70
128
 71
26
 72
13
 73
30
 74
29
 0
VERTEX
 8
0
 10
0.0
 20
0.0
 30
0.0
 70
128
 71
7
 72
17
 73
21
 74
14
 0
VERTEX
 8
0
 10
0.0
 20
0.0
 30
0.0
 70
128
 71
22
 72
15
 73
10
 74
18
 0
VERTEX
 8
0
 10
0.0
 20
0.0
 30
0.0
 70
128
 71
22
 72
32
 73
23
 74
24
 0
VERTEX
 8
0
 10
0.0
 20
0.0
 30
0.0
 70
128
 71
25
 72
17
 73
13
 74
26
 0
VERTEX
 8
0
 10
0.0
 20
0.0
 30
0.0
 70
128
 71
23
 72
40
 73
27
 74
28
 0
VERTEX
 8
0
 10
0.0
 20
0.0
 30
0.0
 70
128
 71
35
 72
18
 73
20
 74
28
 0
VERTEX
 8
0
 10
0.0
 20
0.0
 30
0.0
 70
128
 71
21
 72
36
 73
29
 74
30
 0
VERTEX
 8
0
 10
0.0
 20
0.0
 30
0.0
 70
128
 71
31
 72
26
 73
29
 74
45
 0
VERTEX
 8
0
 10
0.0
 20
0.0
 30
0.0
 70
128
 71
17
 72
25
 73
36
 74
21
 0
VERTEX
 8
0
 10
0.0
 20
0.0
 30
0.0
 70
128
 71
32
 72
22
 73
18
 74
35
 0
VERTEX
 8
0
 10
0.0
 20
0.0
 30
0.0
 70
128
 71
32
 72
33
 73
40
 74
23
 0
VERTEX
 8
0
 10
0.0
 20
0.0
 30
0.0
 70
128
 71
34
 72
25
 73
26
 74
31
 0
VERTEX
 8
0
 10
0.0
 20
0.0
 30
0.0
 70
128
 71
40
 72
39
 73
44
 74
27
 0
VERTEX
 8
0
 10
0.0
 20
0.0
 30
0.0
 70
128
 71
38
 72
35
 73
28
 74
27
 0
VERTEX
 8
0
 10
0.0
 20
0.0
 30
0.0
 70
128
 71
36
 72
37
 73
45
 74
29
 0
VERTEX
 8
0
 10
0.0
 20
0.0
 30
0.0
 70
128
 71
42
 72
31
 73
45
 74
51
 0
VERTEX
 8
0
 10
0.0
 20
0.0
 30
0.0
 70
128
 71
25
 72
34
 73
37
 74
36
 0
VERTEX
 8
0
 10
0.0
 20
0.0
 30
0.0
 70
128
 71
33
 72
32
 73
35
 74
38
 0
VERTEX
 8
0
 10
0.0
 20
0.0
 30
0.0
 70
128
 71
33
 72
46
 73
39
 74
40
 0
VERTEX
 8
0
 10
0.0
 20
0.0
 30
0.0
 70
128
 71
41
 72
34
 73
31
 74
42
 0
VERTEX
 8
0
 10
0.0
 20
0.0
 30
0.0
 70
128
 71
39
 72
43
 73
57
 74
44
 0
VERTEX
 8
0
 10
0.0
 20
0.0
 30
0.0
 70
128
 71
48
 72
38
 73
27
 74
44
 0
VERTEX
 8
0
 10
0.0
 20
0.0
 30
0.0
 70
128
 71
37
 72
49
 73
51
 74
45
 0
VERTEX
 8
0
 10
0.0
 20
0.0
 30
0.0
 70
128
 71
51
 72
50
 73
47
 74
42
 0
VERTEX
 8
0
 10
0.0
 20
0.0
 30
0.0
 70
128
 71
34
 72
41
 73
49
 74
37
 0
VERTEX
 8
0
 10
0.0
 20
0.0
 30
0.0
 70
128
 71
46
 72
33
 73
38
 74
48
 0
VERTEX
 8
0
 10
0.0
 20
0.0
 30
0.0
 70
128
 71
46
 72
52
 73
43
 74
39
 0
VERTEX
 8
0
 10
0.0
 20
0.0
 30
0.0
 70
128
 71
54
 72
41
 73
42
 74
47
 0
VERTEX
 8
0
 10
0.0
 20
0.0
 30
0.0
 70
128
 71
43
 72
53
 73
58
 74
57
 0
VERTEX
 8
0
 10
0.0
 20
0.0
 30
0.0
 70
128
 71
56
 72
48
 73
44
 74
57
 0
VERTEX
 8
0
 10
0.0
 20
0.0
 30
0.0
 70
128
 71
49
 72
59
 73
50
 74
51
 0
VERTEX
 8
0
 10
0.0
 20
0.0
 30
0.0
 70
128
 71
64
 72
47
 73
50
 74
70
 0
VERTEX
 8
0
 10
0.0
 20
0.0
 30
0.0
 70
128
 71
59
 72
49
 73
41
 74
54
 0
VERTEX
 8
0
 10
0.0
 20
0.0
 30
0.0
 70
128
 71
52
 72
46
 73
48
 74
56
 0
VERTEX
 8
0
 10
0.0
 20
0.0
 30
0.0
 70
128
 71
52
 72
62
 73
53
 74
43
 0
VERTEX
 8
0
 10
0.0
 20
0.0
 30
0.0
 70
128
 71
61
 72
54
 73
47
 74
64
 0
VERTEX
 8
0
 10
0.0
 20
0.0
 30
0.0
 70
128
 71
53
 72
55
 73
67
 74
58
 0
VERTEX
 8
0
 10
0.0
 20
0.0
 30
0.0
 70
128
 71
63
 72
56
 73
57
 74
58
 0
VERTEX
 8
0
 10
0.0
 20
0.0
 30
0.0
 70
128
 71
59
 72
68
 73
70
 74
50
 0
VERTEX
 8
0
 10
0.0
 20
0.0
 30
0.0
 70
128
 71
60
 72
64
 73
70
 74
69
 0
VERTEX
 8
0
 10
0.0
 20
0.0
 30
0.0
 70
128
 71
54
 72
61
 73
68
 74
59
 0
VERTEX
 8
0
 10
0.0
 20
0.0
 30
0.0
 70
128
 71
62
 72
52
 73
56
 74
63
 0
VERTEX
 8
0
 10
0.0
 20
0.0
 30
0.0
 70
128
 71
62
 72
73
 73
55
 74
53
 0
VERTEX
 8
0
 10
0.0
 20
0.0
 30
0.0
 70
128
 71
74
 72
61
 73
64
 74
60
 0
VERTEX
 8
0
 10
0.0
 20
0.0
 30
0.0
 70
128
 71
55
 72
65
 73
75
 74
67
 0
VERTEX
 8
0
 10
0.0
 20
0.0
 30
0.0
 70
128
 71
66
 72
63
 73
58
 74
67
 0
VERTEX
 8
0
 10
0.0
 20
0.0
 30
0.0
 70
128
 71
68
 72
72
 73
69
 74
70
 0
VERTEX
 8
0
 10
0.0
 20
0.0
 30
0.0
 70
128
 71
82
 72
60
 73
69
 74
71
 0
VERTEX
 8
0
 10
0.0
 20
0.0
 30
0.0
 70
128
 71
61
 72
74
 73
72
 74
68
 0
VERTEX
 8
0
 10
0.0
 20
0.0
 30
0.0
 70
128
 71
73
 72
62
 73
63
 74
66
 0
VERTEX
 8
0
 10
0.0
 20
0.0
 30
0.0
 70
128
 71
73
 72
79
 73
65
 74
55
 0
VERTEX
 8
0
 10
0.0
 20
0.0
 30
0.0
 70
128
 71
77
 72
74
 73
60
 74
82
 0
VERTEX
 8
0
 10
0.0
 20
0.0
 30
0.0
 70
128
 71
65
 72
90
 73
92
 74
75
 0
VERTEX
 8
0
 10
0.0
 20
0.0
 30
0.0
 70
128
 71
80
 72
66
 73
67
 74
75
 0
VERTEX
 8
0
 10
0.0
 20
0.0
 30
0.0
 70
128
 71
72
 72
78
 73
71
 74
69
 0
VERTEX
 8
0
 10
0.0
 20
0.0
 30
0.0
 70
128
 71
76
 72
82
 73
71
 74
84
 0
VERTEX
 8
0
 10
0.0
 20
0.0
 30
0.0
 70
128
 71
74
 72
77
 73
78
 74
72
 0
VERTEX
 8
0
 10
0.0
 20
0.0
 30
0.0
 70
128
 71
79
 72
73
 73
66
 74
80
 0
VERTEX
 8
0
 10
0.0
 20
0.0
 30
0.0
 70
128
 71
79
 72
87
 73
90
 74
65
 0
VERTEX
 8
0
 10
0.0
 20
0.0
 30
0.0
 70
128
 71
81
 72
77
 73
82
 74
76
 0
VERTEX
 8
0
 10
0.0
 20
0.0
 30
0.0
 70
128
 71
90
 72
89
 73
96
 74
92
 0
VERTEX
 8
0
 10
0.0
 20
0.0
 30
0.0
 70
128
 71
83
 72
80
 73
75
 74
92
 0
VERTEX
 8
0
 10
0.0
 20
0.0
 30
0.0
 70
128
 71
78
 72
86
 73
84
 74
71
 0
VERTEX
 8
0
 10
0.0
 20
0.0
 30
0.0
 70
128
 71
94
 72
76
 73
84
 74
85
 0
VERTEX
 8
0
 10
0.0
 20
0.0
 30
0.0
 70
128
 71
77
 72
81
 73
86
 74
78
 0
VERTEX
 8
0
 10
0.0
 20
0.0
 30
0.0
 70
128
 71
87
 72
79
 73
80
 74
83
 0
VERTEX
 8
0
 10
0.0
 20
0.0
 30
0.0
 70
128
 71
87
 72
88
 73
89
 74
90
 0
VERTEX
 8
0
 10
0.0
 20
0.0
 30
0.0
 70
128
 71
91
 72
81
 73
76
 74
94
 0
VERTEX
 8
0
 10
0.0
 20
0.0
 30
0.0
 70
128
 71
89
 72
94
 73
85
 74
96
 0
VERTEX
 8
0
 10
0.0
 20
0.0
 30
0.0
 70
128
 71
95
 72
83
 73
92
 74
96
 0
VERTEX
 8
0
 10
0.0
 20
0.0
 30
0.0
 70
128
 71
86
 72
93
 73
85
 74
84
 0
VERTEX
 8
0
 10
0.0
 20
0.0
 30
0.0
 70
128
 71
81
 72
91
 73
93
 74
86
 0
VERTEX
 8
0
 10
0.0
 20
0.0
 30
0.0
 70
128
 71
88
 72
87
 73
83
 74
95
 0
VERTEX
 8
0
 10
0.0
 20
0.0
 30
0.0
 70
128
 71
88
 72
91
 73
94
 74
89
 0
VERTEX
 8
0
 10
0.0
 20
0.0
 30
0.0
 70
128
 71
93
 72
95
 73
96
 74
85
 0
VERTEX
 8
0
 10
0.0
 20
0.0
 30
0.0
 70
128
 71
91
 72
88
 73
95
 74
93
 0
SEQEND
 8
0
 0
POLYLINE
 8
0
 70
64
 66
1
 10
0.0
 20
0.0
 30
0.0
 71
112
 72
115
 0
VERTEX
 8
0
 10
0.0
 20
0.305
 30
2.8167243003845215
 70
192
 0
VERTEX
 8
0
 10
0.0
 20
0.305
 30
2.735
 70
192
 0
VERTEX
 8
0
 10
0.0
 20
-0.3048
 30
2.735
 70
192
 0
VERTEX
 8
0
 10
0.0
 20
-0.3048
 30
2.8167243003845215
 70
192
 0
VERTEX
 8
0
 10
0.0
 20
-0.3048
 30
2.653275489807129
 70
192
 0
VERTEX
 8
0
 10
0.005001068115234375
 20
-0.3048
 30
2.735
 70
192
 0
VERTEX
 8
0
 10
0.005001068115234375
 20
0.305
 30
2.735
 70
192
 0
VERTEX
 8
0
 10
0.04519367218017578
 20
-0.3048
 30
2.885
 70
192
 0
VERTEX
 8
0
 10
0.015223503112792969
 20
0.305
 30
2.812645673751831
 70
192
 0
VERTEX
 8
0
 10
0.0
 20
-0.3048
 30
2.9110915660858154
 70
192
 0
VERTEX
 8
0
 10
0.0
 20
-0.3048
 30
2.558908224105835
 70
192
 0
VERTEX
 8
0
 10
0.015223503112792969
 20
-0.3048
 30
2.812645673751831
 70
192
 0
VERTEX
 8
0
 10
0.09286880493164062
 20
-0.3048
 30
2.947132110595703
 70
192
 0
VERTEX
 8
0
 10
0.0
 20
0.305
 30
2.9110915660858154
 70
192
 0
VERTEX
 8
0
 10
0.04519367218017578
 20
0.305
 30
2.885
 70
192
 0
VERTEX
 8
0
 10
0.0
 20
0.305
 30
2.653275489807129
 70
192
 0
VERTEX
 8
0
 10
0.015223503112792969
 20
-0.3048
 30
2.6573541164398193
 70
192
 0
VERTEX
 8
0
 10
0.015223503112792969
 20
0.305
 30
2.6573541164398193
 70
192
 0
VERTEX
 8
0
 10
0.09286880493164062
 20
-0.3048
 30
2.5228681564331055
 70
192
 0
VERTEX
 8
0
 10
0.09286880493164062
 20
0.305
 30
2.947132110595703
 70
192
 0
VERTEX
 8
0
 10
0.12890911102294922
 20
-0.3048
 30
3.04
 70
192
 0
VERTEX
 8
0
 10
0.0
 20
0.305
 30
3.04
 70
192
 0
VERTEX
 8
0
 10
0.0
 20
0.305
 30
2.558908224105835
 70
192
 0
VERTEX
 8
0
 10
0.04519367218017578
 20
0.305
 30
2.585
 70
192
 0
VERTEX
 8
0
 10
0.0
 20
0.305
 30
2.43
 70
192
 0
VERTEX
 8
0
 10
0.0
 20
-0.3048
 30
2.43
 70
192
 0
VERTEX
 8
0
 10
0.0
 20
-0.3048
 30
3.04
 70
192
 0
VERTEX
 8
0
 10
0.04519367218017578
 20
-0.3048
 30
2.585
 70
192
 0
VERTEX
 8
0
 10
0.12890911102294922
 20
-0.3048
 30
2.43
 70
192
 0
VERTEX
 8
0
 10
0.22327709197998047
 20
-0.3048
 30
3.04
 70
192
 0
VERTEX
 8
0
 10
0.155
 20
0.305
 30
2.994807720184326
 70
192
 0
VERTEX
 8
0
 10
0.12890911102294922
 20
0.305
 30
3.04
 70
192
 0
VERTEX
 8
0
 10
0.09286880493164062
 20
0.305
 30
2.5228681564331055
 70
192
 0
VERTEX
 8
0
 10
0.22327709197998047
 20
0.305
 30
3.04
 70
192
 0
VERTEX
 8
0
 10
0.155
 20
-0.3048
 30
2.4751925468444824
 70
192
 0
VERTEX
 8
0
 10
0.22327709197998047
 20
-0.3048
 30
2.43
 70
192
 0
VERTEX
 8
0
 10
0.2273550033569336
 20
-0.3048
 30
3.02477765083313
 70
192
 0
VERTEX
 8
0
 10
0.155
 20
-0.3048
 30
2.994807720184326
 70
192
 0
VERTEX
 8
0
 10
0.2273550033569336
 20
0.305
 30
3.02477765083313
 70
192
 0
VERTEX
 8
0
 10
0.12890911102294922
 20
0.305
 30
2.43
 70
192
 0
VERTEX
 8
0
 10
0.12890911102294922
 20
0.305
 30
2.0125
 70
192
 0
VERTEX
 8
0
 10
0.12890911102294922
 20
-0.3048
 30
2.0125
 70
192
 0
VERTEX
 8
0
 10
0.0
 20
-0.3048
 30
2.0125
 70
192
 0
VERTEX
 8
0
 10
0.0
 20
0.305
 30
2.0125
 70
192
 0
VERTEX
 8
0
 10
0.30500125885009766
 20
-0.3048
 30
3.04
 70
192
 0
VERTEX
 8
0
 10
0.30500125885009766
 20
0.305
 30
3.04
 70
192
 0
VERTEX
 8
0
 10
0.2273550033569336
 20
-0.3048
 30
2.4452221393585205
 70
192
 0
VERTEX
 8
0
 10
0.2273550033569336
 20
0.305
 30
2.4452221393585205
 70
192
 0
VERTEX
 8
0
 10
0.155
 20
0.305
 30
2.4751925468444824
 70
192
 0
VERTEX
 8
0
 10
0.30500125885009766
 20
-0.3048
 30
2.43
 70
192
 0
VERTEX
 8
0
 10
0.30500125885009766
 20
-0.3048
 30
3.035
 70
192
 0
VERTEX
 8
0
 10
0.3826465606689453
 20
-0.3048
 30
3.02477765083313
 70
192
 0
VERTEX
 8
0
 10
0.22327709197998047
 20
0.305
 30
2.43
 70
192
 0
VERTEX
 8
0
 10
0.22327709197998047
 20
0.305
 30
2.0125
 70
192
 0
VERTEX
 8
0
 10
0.22327709197998047
 20
-0.3048
 30
2.0125
 70
192
 0
VERTEX
 8
0
 10
0.38672542572021484
 20
-0.3048
 30
3.04
 70
192
 0
VERTEX
 8
0
 10
0.38672542572021484
 20
0.305
 30
3.04
 70
192
 0
VERTEX
 8
0
 10
0.30500125885009766
 20
-0.3048
 30
2.435
 70
192
 0
VERTEX
 8
0
 10
0.38672542572021484
 20
-0.3048
 30
2.43
 70
192
 0
VERTEX
 8
0
 10
0.3826465606689453
 20
-0.3048
 30
2.4452221393585205
 70
192
 0
VERTEX
 8
0
 10
0.30500125885009766
 20
0.305
 30
3.035
 70
192
 0
VERTEX
 8
0
 10
0.3826465606689453
 20
0.305
 30
3.02477765083313
 70
192
 0
VERTEX
 8
0
 10
0.30500125885009766
 20
0.305
 30
2.43
 70
192
 0
VERTEX
 8
0
 10
0.30500125885009766
 20
0.305
 30
2.0125
 70
192
 0
VERTEX
 8
0
 10
0.30500125885009766
 20
-0.3048
 30
2.0125
 70
192
 0
VERTEX
 8
0
 10
0.4810924530029297
 20
-0.3048
 30
3.04
 70
192
 0
VERTEX
 8
0
 10
0.30500125885009766
 20
0.305
 30
2.435
 70
192
 0
VERTEX
 8
0
 10
0.4810924530029297
 20
-0.3048
 30
2.43
 70
192
 0
VERTEX
 8
0
 10
0.455
 20
-0.3048
 30
2.4751925468444824
 70
192
 0
VERTEX
 8
0
 10
0.61
 20
-0.3048
 30
3.04
 70
192
 0
VERTEX
 8
0
 10
0.5171327590942383
 20
-0.3048
 30
2.947132110595703
 70
192
 0
VERTEX
 8
0
 10
0.455
 20
0.305
 30
2.994807720184326
 70
192
 0
VERTEX
 8
0
 10
0.4810924530029297
 20
0.305
 30
3.04
 70
192
 0
VERTEX
 8
0
 10
0.3826465606689453
 20
0.305
 30
2.4452221393585205
 70
192
 0
VERTEX
 8
0
 10
0.38672542572021484
 20
0.305
 30
2.43
 70
192
 0
VERTEX
 8
0
 10
0.38672542572021484
 20
0.305
 30
2.0125
 70
192
 0
VERTEX
 8
0
 10
0.38672542572021484
 20
-0.3048
 30
2.0125
 70
192
 0
VERTEX
 8
0
 10
0.4810924530029297
 20
-0.3048
 30
2.0125
 70
192
 0
VERTEX
 8
0
 10
0.61
 20
-0.3048
 30
2.43
 70
192
 0
VERTEX
 8
0
 10
0.455
 20
-0.3048
 30
2.994807720184326
 70
192
 0
VERTEX
 8
0
 10
0.5171327590942383
 20
0.305
 30
2.947132110595703
 70
192
 0
VERTEX
 8
0
 10
0.5648088455200195
 20
-0.3048
 30
2.885
 70
192
 0
VERTEX
 8
0
 10
0.4810924530029297
 20
0.305
 30
2.43
 70
192
 0
VERTEX
 8
0
 10
0.4810924530029297
 20
0.305
 30
2.0125
 70
192
 0
VERTEX
 8
0
 10
0.61
 20
0.305
 30
3.04
 70
192
 0
VERTEX
 8
0
 10
0.61
 20
-0.3048
 30
2.9110915660858154
 70
192
 0
VERTEX
 8
0
 10
0.5171327590942383
 20
-0.3048
 30
2.5228681564331055
 70
192
 0
VERTEX
 8
0
 10
0.455
 20
0.305
 30
2.4751925468444824
 70
192
 0
VERTEX
 8
0
 10
0.61
 20
-0.3048
 30
2.558908224105835
 70
192
 0
VERTEX
 8
0
 10
0.61
 20
-0.3048
 30
2.8167243003845215
 70
192
 0
VERTEX
 8
0
 10
0.61
 20
0.305
 30
2.9110915660858154
 70
192
 0
VERTEX
 8
0
 10
0.5171327590942383
 20
0.305
 30
2.5228681564331055
 70
192
 0
VERTEX
 8
0
 10
0.61
 20
0.305
 30
2.43
 70
192
 0
VERTEX
 8
0
 10
0.61
 20
-0.3048
 30
2.0125
 70
192
 0
VERTEX
 8
0
 10
0.61
 20
0.305
 30
2.0125
 70
192
 0
VERTEX
 8
0
 10
0.61
 20
0.305
 30
2.8167243003845215
 70
192
 0
VERTEX
 8
0
 10
0.61
 20
0.305
 30
2.558908224105835
 70
192
 0
VERTEX
 8
0
 10
0.5648088455200195
 20
0.305
 30
2.885
 70
192
 0
VERTEX
 8
0
 10
0.5947790145874023
 20
0.305
 30
2.812645673751831
 70
192
 0
VERTEX
 8
0
 10
0.61
 20
0.305
 30
2.735
 70
192
 0
VERTEX
 8
0
 10
0.61
 20
-0.3048
 30
2.735
 70
192
 0
VERTEX
 8
0
 10
0.5648088455200195
 20
-0.3048
 30
2.585
 70
192
 0
VERTEX
 8
0
 10
0.5648088455200195
 20
0.305
 30
2.585
 70
192
 0
VERTEX
 8
0
 10
0.61
 20
0.305
 30
2.653275489807129
 70
192
 0
VERTEX
 8
0
 10
0.61
 20
-0.3048
 30
2.653275489807129
 70
192
 0
VERTEX
 8
0
 10
0.5947790145874023
 20
-0.3048
 30
2.812645673751831
 70
192
 0
VERTEX
 8
0
 10
0.6050014495849609
 20
0.305
 30
2.735
 70
192
 0
VERTEX
 8
0
 10
0.5947790145874023
 20
0.305
 30
2.6573541164398193
 70
192
 0
VERTEX
 8
0
 10
0.5947790145874023
 20
-0.3048
 30
2.6573541164398193
 70
192
 0
VERTEX
 8
0
 10
0.6049795150756836
 20
-0.3048
 30
2.7348361015319824
 70
192
 0
VERTEX
 8
0
 10
0.6050014495849609
 20
-0.3048
 30
2.735
 70
192
 0
VERTEX
 8
0
 10
0.6049795150756836
 20
0.305
 30
2.7348361015319824
 70
192
 0
VERTEX
 8
0
 10
0.0
 20
0.0
 30
0.0
 70
128
 71
4
 72
3
 73
6
 74
12
 0
VERTEX
 8
0
 10
0.0
 20
0.0
 30
0.0
 70
128
 71
1
 72
2
 73
3
 74
4
 0
VERTEX
 8
0
 10
0.0
 20
0.0
 30
0.0
 70
128
 71
17
 72
6
 73
3
 74
5
 0
VERTEX
 8
0
 10
0.0
 20
0.0
 30
0.0
 70
128
 71
12
 72
6
 73
7
 74
9
 0
VERTEX
 8
0
 10
0.0
 20
0.0
 30
0.0
 70
128
 71
10
 72
4
 73
12
 74
8
 0
VERTEX
 8
0
 10
0.0
 20
0.0
 30
0.0
 70
128
 71
2
 72
1
 73
9
 74
7
 0
VERTEX
 8
0
 10
0.0
 20
0.0
 30
0.0
 70
128
 71
2
 72
16
 73
5
 74
3
 0
VERTEX
 8
0
 10
0.0
 20
0.0
 30
0.0
 70
128
 71
14
 72
1
 73
4
 74
10
 0
VERTEX
 8
0
 10
0.0
 20
0.0
 30
0.0
 70
128
 71
6
 72
17
 73
18
 74
7
 0
VERTEX
 8
0
 10
0.0
 20
0.0
 30
0.0
 70
128
 71
5
 72
11
 73
28
 74
17
 0
VERTEX
 8
0
 10
0.0
 20
0.0
 30
0.0
 70
128
 71
8
 72
12
 73
9
 74
15
 0
VERTEX
 8
0
 10
0.0
 20
0.0
 30
0.0
 70
128
 71
27
 72
10
 73
8
 74
13
 0
VERTEX
 8
0
 10
0.0
 20
0.0
 30
0.0
 70
128
 71
1
 72
14
 73
15
 74
9
 0
VERTEX
 8
0
 10
0.0
 20
0.0
 30
0.0
 70
128
 71
7
 72
18
 73
16
 74
2
 0
VERTEX
 8
0
 10
0.0
 20
0.0
 30
0.0
 70
128
 71
16
 72
23
 73
11
 74
5
 0
VERTEX
 8
0
 10
0.0
 20
0.0
 30
0.0
 70
128
 71
22
 72
14
 73
10
 74
27
 0
VERTEX
 8
0
 10
0.0
 20
0.0
 30
0.0
 70
128
 71
17
 72
28
 73
24
 74
18
 0
VERTEX
 8
0
 10
0.0
 20
0.0
 30
0.0
 70
128
 71
11
 72
26
 73
19
 74
28
 0
VERTEX
 8
0
 10
0.0
 20
0.0
 30
0.0
 70
128
 71
13
 72
8
 73
15
 74
20
 0
VERTEX
 8
0
 10
0.0
 20
0.0
 30
0.0
 70
128
 71
13
 72
38
 73
21
 74
27
 0
VERTEX
 8
0
 10
0.0
 20
0.0
 30
0.0
 70
128
 71
14
 72
22
 73
20
 74
15
 0
VERTEX
 8
0
 10
0.0
 20
0.0
 30
0.0
 70
128
 71
23
 72
16
 73
18
 74
24
 0
VERTEX
 8
0
 10
0.0
 20
0.0
 30
0.0
 70
128
 71
23
 72
25
 73
26
 74
11
 0
VERTEX
 8
0
 10
0.0
 20
0.0
 30
0.0
 70
128
 71
27
 72
21
 73
32
 74
22
 0
VERTEX
 8
0
 10
0.0
 20
0.0
 30
0.0
 70
128
 71
28
 72
19
 73
33
 74
24
 0
VERTEX
 8
0
 10
0.0
 20
0.0
 30
0.0
 70
128
 71
19
 72
26
 73
29
 74
35
 0
VERTEX
 8
0
 10
0.0
 20
0.0
 30
0.0
 70
128
 71
38
 72
13
 73
20
 74
31
 0
VERTEX
 8
0
 10
0.0
 20
0.0
 30
0.0
 70
128
 71
38
 72
37
 73
30
 74
21
 0
VERTEX
 8
0
 10
0.0
 20
0.0
 30
0.0
 70
128
 71
31
 72
20
 73
22
 74
32
 0
VERTEX
 8
0
 10
0.0
 20
0.0
 30
0.0
 70
128
 71
25
 72
23
 73
24
 74
33
 0
VERTEX
 8
0
 10
0.0
 20
0.0
 30
0.0
 70
128
 71
25
 72
44
 73
43
 74
26
 0
VERTEX
 8
0
 10
0.0
 20
0.0
 30
0.0
 70
128
 71
21
 72
30
 73
34
 74
32
 0
VERTEX
 8
0
 10
0.0
 20
0.0
 30
0.0
 70
128
 71
19
 72
35
 73
49
 74
33
 0
VERTEX
 8
0
 10
0.0
 20
0.0
 30
0.0
 70
128
 71
43
 72
42
 73
29
 74
26
 0
VERTEX
 8
0
 10
0.0
 20
0.0
 30
0.0
 70
128
 71
35
 72
29
 73
36
 74
47
 0
VERTEX
 8
0
 10
0.0
 20
0.0
 30
0.0
 70
128
 71
37
 72
38
 73
31
 74
39
 0
VERTEX
 8
0
 10
0.0
 20
0.0
 30
0.0
 70
128
 71
45
 72
30
 73
37
 74
51
 0
VERTEX
 8
0
 10
0.0
 20
0.0
 30
0.0
 70
128
 71
39
 72
31
 73
32
 74
34
 0
VERTEX
 8
0
 10
0.0
 20
0.0
 30
0.0
 70
128
 71
25
 72
33
 73
49
 74
40
 0
VERTEX
 8
0
 10
0.0
 20
0.0
 30
0.0
 70
128
 71
41
 72
44
 73
25
 74
40
 0
VERTEX
 8
0
 10
0.0
 20
0.0
 30
0.0
 70
128
 71
41
 72
42
 73
43
 74
44
 0
VERTEX
 8
0
 10
0.0
 20
0.0
 30
0.0
 70
128
 71
30
 72
45
 73
46
 74
34
 0
VERTEX
 8
0
 10
0.0
 20
0.0
 30
0.0
 70
128
 71
35
 72
47
 73
48
 74
49
 0
VERTEX
 8
0
 10
0.0
 20
0.0
 30
0.0
 70
128
 71
42
 72
55
 73
36
 74
29
 0
VERTEX
 8
0
 10
0.0
 20
0.0
 30
0.0
 70
128
 71
47
 72
36
 73
50
 74
58
 0
VERTEX
 8
0
 10
0.0
 20
0.0
 30
0.0
 70
128
 71
51
 72
37
 73
39
 74
61
 0
VERTEX
 8
0
 10
0.0
 20
0.0
 30
0.0
 70
128
 71
51
 72
52
 73
56
 74
45
 0
VERTEX
 8
0
 10
0.0
 20
0.0
 30
0.0
 70
128
 71
34
 72
46
 73
61
 74
39
 0
VERTEX
 8
0
 10
0.0
 20
0.0
 30
0.0
 70
128
 71
40
 72
49
 73
48
 74
53
 0
VERTEX
 8
0
 10
0.0
 20
0.0
 30
0.0
 70
128
 71
54
 72
41
 73
40
 74
53
 0
VERTEX
 8
0
 10
0.0
 20
0.0
 30
0.0
 70
128
 71
41
 72
54
 73
55
 74
42
 0
VERTEX
 8
0
 10
0.0
 20
0.0
 30
0.0
 70
128
 71
45
 72
56
 73
57
 74
46
 0
VERTEX
 8
0
 10
0.0
 20
0.0
 30
0.0
 70
128
 71
47
 72
58
 73
67
 74
48
 0
VERTEX
 8
0
 10
0.0
 20
0.0
 30
0.0
 70
128
 71
55
 72
65
 73
50
 74
36
 0
VERTEX
 8
0
 10
0.0
 20
0.0
 30
0.0
 70
128
 71
58
 72
50
 73
59
 74
60
 0
VERTEX
 8
0
 10
0.0
 20
0.0
 30
0.0
 70
128
 71
52
 72
51
 73
61
 74
62
 0
VERTEX
 8
0
 10
0.0
 20
0.0
 30
0.0
 70
128
 71
52
 72
80
 73
66
 74
56
 0
VERTEX
 8
0
 10
0.0
 20
0.0
 30
0.0
 70
128
 71
62
 72
61
 73
46
 74
57
 0
VERTEX
 8
0
 10
0.0
 20
0.0
 30
0.0
 70
128
 71
53
 72
48
 73
67
 74
63
 0
VERTEX
 8
0
 10
0.0
 20
0.0
 30
0.0
 70
128
 71
64
 72
54
 73
53
 74
63
 0
VERTEX
 8
0
 10
0.0
 20
0.0
 30
0.0
 70
128
 71
54
 72
64
 73
65
 74
55
 0
VERTEX
 8
0
 10
0.0
 20
0.0
 30
0.0
 70
128
 71
56
 72
66
 73
73
 74
57
 0
VERTEX
 8
0
 10
0.0
 20
0.0
 30
0.0
 70
128
 71
58
 72
60
 73
74
 74
67
 0
VERTEX
 8
0
 10
0.0
 20
0.0
 30
0.0
 70
128
 71
65
 72
77
 73
59
 74
50
 0
VERTEX
 8
0
 10
0.0
 20
0.0
 30
0.0
 70
128
 71
60
 72
59
 73
68
 74
69
 0
VERTEX
 8
0
 10
0.0
 20
0.0
 30
0.0
 70
128
 71
80
 72
52
 73
62
 74
72
 0
VERTEX
 8
0
 10
0.0
 20
0.0
 30
0.0
 70
128
 71
70
 72
66
 73
80
 74
71
 0
VERTEX
 8
0
 10
0.0
 20
0.0
 30
0.0
 70
128
 71
72
 72
62
 73
57
 74
73
 0
VERTEX
 8
0
 10
0.0
 20
0.0
 30
0.0
 70
128
 71
63
 72
67
 73
74
 74
75
 0
VERTEX
 8
0
 10
0.0
 20
0.0
 30
0.0
 70
128
 71
76
 72
64
 73
63
 74
75
 0
VERTEX
 8
0
 10
0.0
 20
0.0
 30
0.0
 70
128
 71
64
 72
76
 73
77
 74
65
 0
VERTEX
 8
0
 10
0.0
 20
0.0
 30
0.0
 70
128
 71
85
 72
73
 73
66
 74
70
 0
VERTEX
 8
0
 10
0.0
 20
0.0
 30
0.0
 70
128
 71
60
 72
69
 73
88
 74
74
 0
VERTEX
 8
0
 10
0.0
 20
0.0
 30
0.0
 70
128
 71
77
 72
78
 73
68
 74
59
 0
VERTEX
 8
0
 10
0.0
 20
0.0
 30
0.0
 70
128
 71
69
 72
68
 73
79
 74
87
 0
VERTEX
 8
0
 10
0.0
 20
0.0
 30
0.0
 70
128
 71
71
 72
80
 73
72
 74
81
 0
VERTEX
 8
0
 10
0.0
 20
0.0
 30
0.0
 70
128
 71
71
 72
82
 73
86
 74
70
 0
VERTEX
 8
0
 10
0.0
 20
0.0
 30
0.0
 70
128
 71
73
 72
85
 73
81
 74
72
 0
VERTEX
 8
0
 10
0.0
 20
0.0
 30
0.0
 70
128
 71
75
 72
74
 73
88
 74
83
 0
VERTEX
 8
0
 10
0.0
 20
0.0
 30
0.0
 70
128
 71
84
 72
76
 73
75
 74
83
 0
VERTEX
 8
0
 10
0.0
 20
0.0
 30
0.0
 70
128
 71
76
 72
84
 73
78
 74
77
 0
VERTEX
 8
0
 10
0.0
 20
0.0
 30
0.0
 70
128
 71
91
 72
85
 73
70
 74
86
 0
VERTEX
 8
0
 10
0.0
 20
0.0
 30
0.0
 70
128
 71
69
 72
87
 73
92
 74
88
 0
VERTEX
 8
0
 10
0.0
 20
0.0
 30
0.0
 70
128
 71
79
 72
68
 73
78
 74
94
 0
VERTEX
 8
0
 10
0.0
 20
0.0
 30
0.0
 70
128
 71
102
 72
87
 73
79
 74
89
 0
VERTEX
 8
0
 10
0.0
 20
0.0
 30
0.0
 70
128
 71
82
 72
71
 73
81
 74
98
 0
VERTEX
 8
0
 10
0.0
 20
0.0
 30
0.0
 70
128
 71
82
 72
106
 73
90
 74
86
 0
VERTEX
 8
0
 10
0.0
 20
0.0
 30
0.0
 70
128
 71
98
 72
81
 73
85
 74
91
 0
VERTEX
 8
0
 10
0.0
 20
0.0
 30
0.0
 70
128
 71
83
 72
88
 73
92
 74
93
 0
VERTEX
 8
0
 10
0.0
 20
0.0
 30
0.0
 70
128
 71
83
 72
93
 73
95
 74
84
 0
VERTEX
 8
0
 10
0.0
 20
0.0
 30
0.0
 70
128
 71
94
 72
78
 73
84
 74
95
 0
VERTEX
 8
0
 10
0.0
 20
0.0
 30
0.0
 70
128
 71
96
 72
91
 73
86
 74
90
 0
VERTEX
 8
0
 10
0.0
 20
0.0
 30
0.0
 70
128
 71
87
 72
102
 73
103
 74
92
 0
VERTEX
 8
0
 10
0.0
 20
0.0
 30
0.0
 70
128
 71
95
 72
93
 73
79
 74
94
 0
VERTEX
 8
0
 10
0.0
 20
0.0
 30
0.0
 70
128
 71
93
 72
97
 73
89
 74
79
 0
VERTEX
 8
0
 10
0.0
 20
0.0
 30
0.0
 70
128
 71
109
 72
102
 73
89
 74
105
 0
VERTEX
 8
0
 10
0.0
 20
0.0
 30
0.0
 70
128
 71
106
 72
82
 73
98
 74
99
 0
VERTEX
 8
0
 10
0.0
 20
0.0
 30
0.0
 70
128
 71
106
 72
111
 73
101
 74
90
 0
VERTEX
 8
0
 10
0.0
 20
0.0
 30
0.0
 70
128
 71
99
 72
98
 73
91
 74
96
 0
VERTEX
 8
0
 10
0.0
 20
0.0
 30
0.0
 70
128
 71
92
 72
103
 73
97
 74
93
 0
VERTEX
 8
0
 10
0.0
 20
0.0
 30
0.0
 70
128
 71
100
 72
96
 73
90
 74
101
 0
VERTEX
 8
0
 10
0.0
 20
0.0
 30
0.0
 70
128
 71
102
 72
109
 73
108
 74
103
 0
VERTEX
 8
0
 10
0.0
 20
0.0
 30
0.0
 70
128
 71
97
 72
104
 73
105
 74
89
 0
VERTEX
 8
0
 10
0.0
 20
0.0
 30
0.0
 70
128
 71
111
 72
110
 73
109
 0
VERTEX
 8
0
 10
0.0
 20
0.0
 30
0.0
 70
128
 71
109
 72
105
 73
101
 0
VERTEX
 8
0
 10
0.0
 20
0.0
 30
0.0
 70
128
 71
109
 72
101
 73
111
 0
VERTEX
 8
0
 10
0.0
 20
0.0
 30
0.0
 70
128
 71
111
 72
106
 73
99
 74
107
 0
VERTEX
 8
0
 10
0.0
 20
0.0
 30
0.0
 70
128
 71
107
 72
99
 73
96
 74
100
 0
VERTEX
 8
0
 10
0.0
 20
0.0
 30
0.0
 70
128
 71
103
 72
108
 73
104
 74
97
 0
VERTEX
 8
0
 10
0.0
 20
0.0
 30
0.0
 70
128
 71
104
 72
100
 73
101
 74
105
 0
VERTEX
 8
0
 10
0.0
 20
0.0
 30
0.0
 70
128
 71
109
 72
110
 73
112
 74
108
 0
VERTEX
 8
0
 10
0.0
 20
0.0
 30
0.0
 70
128
 71
104
 72
108
 73
112
 0
VERTEX
 8
0
 10
0.0
 20
0.0
 30
0.0
 70
128
 71
112
 72
107
 73
100
 0
VERTEX
 8
0
 10
0.0
 20
0.0
 30
0.0
 70
128
 71
112
 72
100
 73
104
 0
VERTEX
 8
0
 10
0.0
 20
0.0
 30
0.0
 70
128
 71
110
 72
111
 73
107
 74
112
 0
SEQEND
 8
0
 0
POLYLINE
 8
0
 70
64
 66
1
 10
0.0
 20
0.0
 30
0.0
 71
96
 72
96
 0
VERTEX
 8
0
 10
0.305
 20
-0.3298
 30
3.11
 70
192
 0
VERTEX
 8
0
 10
0.20794296264648438
 20
-0.3298
 30
3.097222328186035
 70
192
 0
VERTEX
 8
0
 10
0.305
 20
-0.3298
 30
3.145
 70
192
 0
VERTEX
 8
0
 10
0.1
 20
-0.3298
 30
3.0900704860687256
 70
192
 0
VERTEX
 8
0
 10
0.305
 20
-0.3048
 30
3.11
 70
192
 0
VERTEX
 8
0
 10
0.1988840103149414
 20
-0.3048
 30
3.1310298442840576
 70
192
 0
VERTEX
 8
0
 10
0.11750030517578125
 20
-0.3048
 30
3.0597596168518066
 70
192
 0
VERTEX
 8
0
 10
0.20794296264648438
 20
-0.3048
 30
3.097222328186035
 70
192
 0
VERTEX
 8
0
 10
0.11750030517578125
 20
-0.3298
 30
3.0597596168518066
 70
192
 0
VERTEX
 8
0
 10
0.4111156463623047
 20
-0.3048
 30
3.1310298442840576
 70
192
 0
VERTEX
 8
0
 10
0.305
 20
-0.3048
 30
3.145
 70
192
 0
VERTEX
 8
0
 10
0.1988840103149414
 20
-0.3298
 30
3.1310298442840576
 70
192
 0
VERTEX
 8
0
 10
0.03983497619628906
 20
-0.3298
 30
3.
 70
192
 0
VERTEX
 8
0
 10
0.1
 20
-0.3048
 30
3.0900704860687256
 70
192
 0
VERTEX
 8
0
 10
0.4020576477050781
 20
-0.3048
 30
3.097222328186035
 70
192
 0
VERTEX
 8
0
 10
0.4020576477050781
 20
-0.3298
 30
3.097222328186035
 70
192
 0
VERTEX
 8
0
 10
0.03983497619628906
 20
-0.3048
 30
3.
 70
192
 0
VERTEX
 8
0
 10
0.51
 20
-0.3048
 30
3.0900704860687256
 70
192
 0
VERTEX
 8
0
 10
0.4111156463623047
 20
-0.3298
 30
3.1310298442840576
 70
192
 0
VERTEX
 8
0
 10
0.51
 20
-0.3298
 30
3.0900704860687256
 70
192
 0
VERTEX
 8
0
 10
0.015086174011230469
 20
-0.3048
 30
3.024913787841797
 70
192
 0
VERTEX
 8
0
 10
0.49249935150146484
 20
-0.3048
 30
3.0597596168518066
 70
192
 0
VERTEX
 8
0
 10
0.570164680480957
 20
-0.3298
 30
3.
 70
192
 0
VERTEX
 8
0
 10
0.49249935150146484
 20
-0.3298
 30
3.0597596168518066
 70
192
 0
VERTEX
 8
0
 10
-0.0197601318359375
 20
-0.3048
 30
2.9225001335144043
 70
192
 0
VERTEX
 8
0
 10
-0.0197601318359375
 20
-0.3298
 30
2.9225001335144043
 70
192
 0
VERTEX
 8
0
 10
0.6600704193115234
 20
-0.3298
 30
2.94
 70
192
 0
VERTEX
 8
0
 10
0.5949134826660156
 20
-0.3298
 30
3.024913787841797
 70
192
 0
VERTEX
 8
0
 10
-0.050070762634277344
 20
-0.3298
 30
2.94
 70
192
 0
VERTEX
 8
0
 10
0.015086174011230469
 20
-0.3298
 30
3.024913787841797
 70
192
 0
VERTEX
 8
0
 10
-0.05722236633300781
 20
-0.3298
 30
2.832057237625122
 70
192
 0
VERTEX
 8
0
 10
0.570164680480957
 20
-0.3048
 30
3.
 70
192
 0
VERTEX
 8
0
 10
0.6297597885131836
 20
-0.3048
 30
2.9225001335144043
 70
192
 0
VERTEX
 8
0
 10
-0.05722236633300781
 20
-0.3048
 30
2.832057237625122
 70
192
 0
VERTEX
 8
0
 10
0.5949134826660156
 20
-0.3048
 30
3.024913787841797
 70
192
 0
VERTEX
 8
0
 10
-0.050070762634277344
 20
-0.3048
 30
2.94
 70
192
 0
VERTEX
 8
0
 10
-0.09103012084960938
 20
-0.3048
 30
2.841115951538086
 70
192
 0
VERTEX
 8
0
 10
0.6600704193115234
 20
-0.3048
 30
2.94
 70
192
 0
VERTEX
 8
0
 10
0.6672220230102539
 20
-0.3298
 30
2.832057237625122
 70
192
 0
VERTEX
 8
0
 10
0.6297597885131836
 20
-0.3298
 30
2.9225001335144043
 70
192
 0
VERTEX
 8
0
 10
-0.07
 20
-0.3048
 30
2.735
 70
192
 0
VERTEX
 8
0
 10
-0.07
 20
-0.3298
 30
2.735
 70
192
 0
VERTEX
 8
0
 10
0.68
 20
-0.3298
 30
2.735
 70
192
 0
VERTEX
 8
0
 10
0.7010297775268555
 20
-0.3298
 30
2.841115951538086
 70
192
 0
VERTEX
 8
0
 10
-0.09103012084960938
 20
-0.3298
 30
2.841115951538086
 70
192
 0
VERTEX
 8
0
 10
0.6672220230102539
 20
-0.3048
 30
2.832057237625122
 70
192
 0
VERTEX
 8
0
 10
-0.05722236633300781
 20
-0.3298
 30
2.6379427909851074
 70
192
 0
VERTEX
 8
0
 10
0.7010297775268555
 20
-0.3048
 30
2.841115951538086
 70
192
 0
VERTEX
 8
0
 10
-0.105
 20
-0.3048
 30
2.735
 70
192
 0
VERTEX
 8
0
 10
-0.09103012084960938
 20
-0.3298
 30
2.6288840770721436
 70
192
 0
VERTEX
 8
0
 10
-0.105
 20
-0.3298
 30
2.735
 70
192
 0
VERTEX
 8
0
 10
0.68
 20
-0.3048
 30
2.735
 70
192
 0
VERTEX
 8
0
 10
0.6672220230102539
 20
-0.3298
 30
2.6379427909851074
 70
192
 0
VERTEX
 8
0
 10
-0.05722236633300781
 20
-0.3048
 30
2.6379427909851074
 70
192
 0
VERTEX
 8
0
 10
0.6297597885131836
 20
-0.3298
 30
2.5475001335144043
 70
192
 0
VERTEX
 8
0
 10
0.715
 20
-0.3048
 30
2.735
 70
192
 0
VERTEX
 8
0
 10
0.715
 20
-0.3298
 30
2.735
 70
192
 0
VERTEX
 8
0
 10
0.7010297775268555
 20
-0.3298
 30
2.6288840770721436
 70
192
 0
VERTEX
 8
0
 10
-0.09103012084960938
 20
-0.3048
 30
2.6288840770721436
 70
192
 0
VERTEX
 8
0
 10
0.03983497619628906
 20
-0.3298
 30
2.469835042953491
 70
192
 0
VERTEX
 8
0
 10
-0.0197601318359375
 20
-0.3048
 30
2.5475001335144043
 70
192
 0
VERTEX
 8
0
 10
0.6672220230102539
 20
-0.3048
 30
2.6379427909851074
 70
192
 0
VERTEX
 8
0
 10
0.7010297775268555
 20
-0.3048
 30
2.6288840770721436
 70
192
 0
VERTEX
 8
0
 10
-0.0197601318359375
 20
-0.3298
 30
2.5475001335144043
 70
192
 0
VERTEX
 8
0
 10
0.570164680480957
 20
-0.3298
 30
2.469835042953491
 70
192
 0
VERTEX
 8
0
 10
0.6600704193115234
 20
-0.3048
 30
2.53
 70
192
 0
VERTEX
 8
0
 10
0.6600704193115234
 20
-0.3298
 30
2.53
 70
192
 0
VERTEX
 8
0
 10
-0.050070762634277344
 20
-0.3048
 30
2.53
 70
192
 0
VERTEX
 8
0
 10
0.015086174011230469
 20
-0.3298
 30
2.4450864791870117
 70
192
 0
VERTEX
 8
0
 10
-0.050070762634277344
 20
-0.3298
 30
2.53
 70
192
 0
VERTEX
 8
0
 10
0.1
 20
-0.3298
 30
2.379929780960083
 70
192
 0
VERTEX
 8
0
 10
0.015086174011230469
 20
-0.3048
 30
2.4450864791870117
 70
192
 0
VERTEX
 8
0
 10
0.6297597885131836
 20
-0.3048
 30
2.5475001335144043
 70
192
 0
VERTEX
 8
0
 10
0.03983497619628906
 20
-0.3048
 30
2.469835042953491
 70
192
 0
VERTEX
 8
0
 10
0.5949134826660156
 20
-0.3298
 30
2.4450864791870117
 70
192
 0
VERTEX
 8
0
 10
0.20794296264648438
 20
-0.3298
 30
2.3727779388427734
 70
192
 0
VERTEX
 8
0
 10
0.11750030517578125
 20
-0.3048
 30
2.410240650177002
 70
192
 0
VERTEX
 8
0
 10
0.1
 20
-0.3048
 30
2.379929780960083
 70
192
 0
VERTEX
 8
0
 10
0.570164680480957
 20
-0.3048
 30
2.469835042953491
 70
192
 0
VERTEX
 8
0
 10
0.5949134826660156
 20
-0.3048
 30
2.4450864791870117
 70
192
 0
VERTEX
 8
0
 10
0.20794296264648438
 20
-0.3048
 30
2.3727779388427734
 70
192
 0
VERTEX
 8
0
 10
0.11750030517578125
 20
-0.3298
 30
2.410240650177002
 70
192
 0
VERTEX
 8
0
 10
0.51
 20
-0.3048
 30
2.379929780960083
 70
192
 0
VERTEX
 8
0
 10
0.1988840103149414
 20
-0.3298
 30
2.33897066116333
 70
192
 0
VERTEX
 8
0
 10
0.305
 20
-0.3298
 30
2.325
 70
192
 0
VERTEX
 8
0
 10
0.1988840103149414
 20
-0.3048
 30
2.33897066116333
 70
192
 0
VERTEX
 8
0
 10
0.49249935150146484
 20
-0.3048
 30
2.410240650177002
 70
192
 0
VERTEX
 8
0
 10
0.4020576477050781
 20
-0.3048
 30
2.3727779388427734
 70
192
 0
VERTEX
 8
0
 10
0.4020576477050781
 20
-0.3298
 30
2.3727779388427734
 70
192
 0
VERTEX
 8
0
 10
0.49249935150146484
 20
-0.3298
 30
2.410240650177002
 70
192
 0
VERTEX
 8
0
 10
0.305
 20
-0.3048
 30
2.36
 70
192
 0
VERTEX
 8
0
 10
0.51
 20
-0.3298
 30
2.379929780960083
 70
192
 0
VERTEX
 8
0
 10
0.305
 20
-0.3048
 30
2.325
 70
192
 0
VERTEX
 8
0
 10
0.305
 20
-0.3298
 30
2.36
 70
192
 0
VERTEX
 8
0
 10
0.4111156463623047
 20
-0.3048
 30
2.33897066116333
 70
192
 0
VERTEX
 8
0
 10
0.4111156463623047
 20
-0.3298
 30
2.33897066116333
 70
192
 0
VERTEX
 8
0
 10
0.0
 20
0.0
 30
0.0
 70
128
 71
2
 72
1
 73
3
 74
12
 0
VERTEX
 8
0
 10
0.0
 20
0.0
 30
0.0
 70
128
 71
1
 72
2
 73
8
 74
5
 0
VERTEX
 8
0
 10
0.0
 20
0.0
 30
0.0
 70
128
 71
1
 72
16
 73
19
 74
3
 0
VERTEX
 8
0
 10
0.0
 20
0.0
 30
0.0
 70
128
 71
11
 72
6
 73
12
 74
3
 0
VERTEX
 8
0
 10
0.0
 20
0.0
 30
0.0
 70
128
 71
9
 72
2
 73
12
 74
4
 0
VERTEX
 8
0
 10
0.0
 20
0.0
 30
0.0
 70
128
 71
5
 72
8
 73
6
 74
11
 0
VERTEX
 8
0
 10
0.0
 20
0.0
 30
0.0
 70
128
 71
16
 72
1
 73
5
 74
15
 0
VERTEX
 8
0
 10
0.0
 20
0.0
 30
0.0
 70
128
 71
7
 72
8
 73
2
 74
9
 0
VERTEX
 8
0
 10
0.0
 20
0.0
 30
0.0
 70
128
 71
16
 72
24
 73
20
 74
19
 0
VERTEX
 8
0
 10
0.0
 20
0.0
 30
0.0
 70
128
 71
10
 72
11
 73
3
 74
19
 0
VERTEX
 8
0
 10
0.0
 20
0.0
 30
0.0
 70
128
 71
6
 72
14
 73
4
 74
12
 0
VERTEX
 8
0
 10
0.0
 20
0.0
 30
0.0
 70
128
 71
13
 72
9
 73
4
 74
30
 0
VERTEX
 8
0
 10
0.0
 20
0.0
 30
0.0
 70
128
 71
8
 72
7
 73
14
 74
6
 0
VERTEX
 8
0
 10
0.0
 20
0.0
 30
0.0
 70
128
 71
15
 72
5
 73
11
 74
10
 0
VERTEX
 8
0
 10
0.0
 20
0.0
 30
0.0
 70
128
 71
15
 72
22
 73
24
 74
16
 0
VERTEX
 8
0
 10
0.0
 20
0.0
 30
0.0
 70
128
 71
17
 72
7
 73
9
 74
13
 0
VERTEX
 8
0
 10
0.0
 20
0.0
 30
0.0
 70
128
 71
24
 72
23
 73
28
 74
20
 0
VERTEX
 8
0
 10
0.0
 20
0.0
 30
0.0
 70
128
 71
18
 72
10
 73
19
 74
20
 0
VERTEX
 8
0
 10
0.0
 20
0.0
 30
0.0
 70
128
 71
14
 72
21
 73
30
 74
4
 0
VERTEX
 8
0
 10
0.0
 20
0.0
 30
0.0
 70
128
 71
26
 72
13
 73
30
 74
29
 0
VERTEX
 8
0
 10
0.0
 20
0.0
 30
0.0
 70
128
 71
7
 72
17
 73
21
 74
14
 0
VERTEX
 8
0
 10
0.0
 20
0.0
 30
0.0
 70
128
 71
22
 72
15
 73
10
 74
18
 0
VERTEX
 8
0
 10
0.0
 20
0.0
 30
0.0
 70
128
 71
22
 72
32
 73
23
 74
24
 0
VERTEX
 8
0
 10
0.0
 20
0.0
 30
0.0
 70
128
 71
25
 72
17
 73
13
 74
26
 0
VERTEX
 8
0
 10
0.0
 20
0.0
 30
0.0
 70
128
 71
23
 72
40
 73
27
 74
28
 0
VERTEX
 8
0
 10
0.0
 20
0.0
 30
0.0
 70
128
 71
35
 72
18
 73
20
 74
28
 0
VERTEX
 8
0
 10
0.0
 20
0.0
 30
0.0
 70
128
 71
21
 72
36
 73
29
 74
30
 0
VERTEX
 8
0
 10
0.0
 20
0.0
 30
0.0
 70
128
 71
31
 72
26
 73
29
 74
45
 0
VERTEX
 8
0
 10
0.0
 20
0.0
 30
0.0
 70
128
 71
17
 72
25
 73
36
 74
21
 0
VERTEX
 8
0
 10
0.0
 20
0.0
 30
0.0
 70
128
 71
32
 72
22
 73
18
 74
35
 0
VERTEX
 8
0
 10
0.0
 20
0.0
 30
0.0
 70
128
 71
32
 72
33
 73
40
 74
23
 0
VERTEX
 8
0
 10
0.0
 20
0.0
 30
0.0
 70
128
 71
34
 72
25
 73
26
 74
31
 0
VERTEX
 8
0
 10
0.0
 20
0.0
 30
0.0
 70
128
 71
40
 72
39
 73
44
 74
27
 0
VERTEX
 8
0
 10
0.0
 20
0.0
 30
0.0
 70
128
 71
38
 72
35
 73
28
 74
27
 0
VERTEX
 8
0
 10
0.0
 20
0.0
 30
0.0
 70
128
 71
36
 72
37
 73
45
 74
29
 0
VERTEX
 8
0
 10
0.0
 20
0.0
 30
0.0
 70
128
 71
42
 72
31
 73
45
 74
51
 0
VERTEX
 8
0
 10
0.0
 20
0.0
 30
0.0
 70
128
 71
25
 72
34
 73
37
 74
36
 0
VERTEX
 8
0
 10
0.0
 20
0.0
 30
0.0
 70
128
 71
33
 72
32
 73
35
 74
38
 0
VERTEX
 8
0
 10
0.0
 20
0.0
 30
0.0
 70
128
 71
33
 72
46
 73
39
 74
40
 0
VERTEX
 8
0
 10
0.0
 20
0.0
 30
0.0
 70
128
 71
41
 72
34
 73
31
 74
42
 0
VERTEX
 8
0
 10
0.0
 20
0.0
 30
0.0
 70
128
 71
39
 72
43
 73
57
 74
44
 0
VERTEX
 8
0
 10
0.0
 20
0.0
 30
0.0
 70
128
 71
48
 72
38
 73
27
 74
44
 0
VERTEX
 8
0
 10
0.0
 20
0.0
 30
0.0
 70
128
 71
37
 72
49
 73
51
 74
45
 0
VERTEX
 8
0
 10
0.0
 20
0.0
 30
0.0
 70
128
 71
51
 72
50
 73
47
 74
42
 0
VERTEX
 8
0
 10
0.0
 20
0.0
 30
0.0
 70
128
 71
34
 72
41
 73
49
 74
37
 0
VERTEX
 8
0
 10
0.0
 20
0.0
 30
0.0
 70
128
 71
46
 72
33
 73
38
 74
48
 0
VERTEX
 8
0
 10
0.0
 20
0.0
 30
0.0
 70
128
 71
46
 72
52
 73
43
 74
39
 0
VERTEX
 8
0
 10
0.0
 20
0.0
 30
0.0
 70
128
 71
54
 72
41
 73
42
 74
47
 0
VERTEX
 8
0
 10
0.0
 20
0.0
 30
0.0
 70
128
 71
43
 72
53
 73
58
 74
57
 0
VERTEX
 8
0
 10
0.0
 20
0.0
 30
0.0
 70
128
 71
56
 72
48
 73
44
 74
57
 0
VERTEX
 8
0
 10
0.0
 20
0.0
 30
0.0
 70
128
 71
49
 72
59
 73
50
 74
51
 0
VERTEX
 8
0
 10
0.0
 20
0.0
 30
0.0
 70
128
 71
64
 72
47
 73
50
 74
70
 0
VERTEX
 8
0
 10
0.0
 20
0.0
 30
0.0
 70
128
 71
59
 72
49
 73
41
 74
54
 0
VERTEX
 8
0
 10
0.0
 20
0.0
 30
0.0
 70
128
 71
52
 72
46
 73
48
 74
56
 0
VERTEX
 8
0
 10
0.0
 20
0.0
 30
0.0
 70
128
 71
52
 72
62
 73
53
 74
43
 0
VERTEX
 8
0
 10
0.0
 20
0.0
 30
0.0
 70
128
 71
61
 72
54
 73
47
 74
64
 0
VERTEX
 8
0
 10
0.0
 20
0.0
 30
0.0
 70
128
 71
53
 72
55
 73
67
 74
58
 0
VERTEX
 8
0
 10
0.0
 20
0.0
 30
0.0
 70
128
 71
63
 72
56
 73
57
 74
58
 0
VERTEX
 8
0
 10
0.0
 20
0.0
 30
0.0
 70
128
 71
59
 72
68
 73
70
 74
50
 0
VERTEX
 8
0
 10
0.0
 20
0.0
 30
0.0
 70
128
 71
60
 72
64
 73
70
 74
69
 0
VERTEX
 8
0
 10
0.0
 20
0.0
 30
0.0
 70
128
 71
54
 72
61
 73
68
 74
59
 0
VERTEX
 8
0
 10
0.0
 20
0.0
 30
0.0
 70
128
 71
62
 72
52
 73
56
 74
63
 0
VERTEX
 8
0
 10
0.0
 20
0.0
 30
0.0
 70
128
 71
62
 72
73
 73
55
 74
53
 0
VERTEX
 8
0
 10
0.0
 20
0.0
 30
0.0
 70
128
 71
74
 72
61
 73
64
 74
60
 0
VERTEX
 8
0
 10
0.0
 20
0.0
 30
0.0
 70
128
 71
55
 72
65
 73
75
 74
67
 0
VERTEX
 8
0
 10
0.0
 20
0.0
 30
0.0
 70
128
 71
66
 72
63
 73
58
 74
67
 0
VERTEX
 8
0
 10
0.0
 20
0.0
 30
0.0
 70
128
 71
68
 72
72
 73
69
 74
70
 0
VERTEX
 8
0
 10
0.0
 20
0.0
 30
0.0
 70
128
 71
82
 72
60
 73
69
 74
71
 0
VERTEX
 8
0
 10
0.0
 20
0.0
 30
0.0
 70
128
 71
61
 72
74
 73
72
 74
68
 0
VERTEX
 8
0
 10
0.0
 20
0.0
 30
0.0
 70
128
 71
73
 72
62
 73
63
 74
66
 0
VERTEX
 8
0
 10
0.0
 20
0.0
 30
0.0
 70
128
 71
73
 72
79
 73
65
 74
55
 0
VERTEX
 8
0
 10
0.0
 20
0.0
 30
0.0
 70
128
 71
77
 72
74
 73
60
 74
82
 0
VERTEX
 8
0
 10
0.0
 20
0.0
 30
0.0
 70
128
 71
65
 72
90
 73
92
 74
75
 0
VERTEX
 8
0
 10
0.0
 20
0.0
 30
0.0
 70
128
 71
80
 72
66
 73
67
 74
75
 0
VERTEX
 8
0
 10
0.0
 20
0.0
 30
0.0
 70
128
 71
72
 72
78
 73
71
 74
69
 0
VERTEX
 8
0
 10
0.0
 20
0.0
 30
0.0
 70
128
 71
76
 72
82
 73
71
 74
84
 0
VERTEX
 8
0
 10
0.0
 20
0.0
 30
0.0
 70
128
 71
74
 72
77
 73
78
 74
72
 0
VERTEX
 8
0
 10
0.0
 20
0.0
 30
0.0
 70
128
 71
79
 72
73
 73
66
 74
80
 0
VERTEX
 8
0
 10
0.0
 20
0.0
 30
0.0
 70
128
 71
79
 72
87
 73
90
 74
65
 0
VERTEX
 8
0
 10
0.0
 20
0.0
 30
0.0
 70
128
 71
81
 72
77
 73
82
 74
76
 0
VERTEX
 8
0
 10
0.0
 20
0.0
 30
0.0
 70
128
 71
90
 72
89
 73
96
 74
92
 0
VERTEX
 8
0
 10
0.0
 20
0.0
 30
0.0
 70
128
 71
83
 72
80
 73
75
 74
92
 0
VERTEX
 8
0
 10
0.0
 20
0.0
 30
0.0
 70
128
 71
78
 72
86
 73
84
 74
71
 0
VERTEX
 8
0
 10
0.0
 20
0.0
 30
0.0
 70
128
 71
94
 72
76
 73
84
 74
85
 0
VERTEX
 8
0
 10
0.0
 20
0.0
 30
0.0
 70
128
 71
77
 72
81
 73
86
 74
78
 0
VERTEX
 8
0
 10
0.0
 20
0.0
 30
0.0
 70
128
 71
87
 72
79
 73
80
 74
83
 0
VERTEX
 8
0
 10
0.0
 20
0.0
 30
0.0
 70
128
 71
87
 72
88
 73
89
 74
90
 0
VERTEX
 8
0
 10
0.0
 20
0.0
 30
0.0
 70
128
 71
91
 72
81
 73
76
 74
94
 0
VERTEX
 8
0
 10
0.0
 20
0.0
 30
0.0
 70
128
 71
89
 72
94
 73
85
 74
96
 0
VERTEX
 8
0
 10
0.0
 20
0.0
 30
0.0
 70
128
 71
95
 72
83
 73
92
 74
96
 0
VERTEX
 8
0
 10
0.0
 20
0.0
 30
0.0
 70
128
 71
86
 72
93
 73
85
 74
84
 0
VERTEX
 8
0
 10
0.0
 20
0.0
 30
0.0
 70
128
 71
81
 72
91
 73
93
 74
86
 0
VERTEX
 8
0
 10
0.0
 20
0.0
 30
0.0
 70
128
 71
88
 72
87
 73
83
 74
95
 0
VERTEX
 8
0
 10
0.0
 20
0.0
 30
0.0
 70
128
 71
88
 72
91
 73
94
 74
89
 0
VERTEX
 8
0
 10
0.0
 20
0.0
 30
0.0
 70
128
 71
93
 72
95
 73
96
 74
85
 0
VERTEX
 8
0
 10
0.0
 20
0.0
 30
0.0
 70
128
 71
91
 72
88
 73
95
 74
93
 0
SEQEND
 8
0
 0
ENDSEC
 0
EOF
