 0
SECTION
 2
HEADER
 9
$ACADVER
 1
AC1009
 9
$INSBASE
 10
0.0
 20
0.0
 30
0.0
 9
$EXTMIN
 10
0.0
 20
0.0
 30
0.0
 9
$EXTMAX
 10
0.0
 20
0.0
 30
0.0
 0
ENDSEC
 0
SECTION
 2
TABLES
 0
TABLE
 2
VPORT
 70
1
 0
VPORT
 2
*ACTIVE
 70
0
 10
0.0
 20
0.0
 11
1.0
 21
1.0
 12
-5.0
 22
1.0
 13
0.0
 23
0.0
 14
0.1
 24
0.1
 15
0.1
 25
0.1
 16
0.0
 26
0.0
 36
1.0
 17
0.0
 27
0.0
 37
0.0
 40
10.0
 41
1.0
 42
50.0
 43
0.0
 44
0.0
 50
0.0
 51
0.0
 71
0
 72
100
 73
1
 74
1
 75
0
 76
0
 77
0
 78
0
 0
ENDTAB
 0
TABLE
 2
LTYPE
 70
8
 0
LTYPE
 2
CONTINUOUS
 70
0
 3
Solid line
 72
65
 73
0
 40
0.0
 0
LTYPE
 2
DOT
 70
0
 3
. . . . . . .
 72
65
 73
2
 40
0.25
 49
0.0
 49
-0.25
 0
LTYPE
 2
DASHED
 70
0
 3
__ __ __ __ __
 72
65
 73
2
 40
0.8
 49
0.5
 49
-0.3
 0
LTYPE
 2
DASHDOT
 70
0
 3
__ . __ . __ .
 72
65
 73
4
 40
1.0
 49
0.5
 49
-0.25
 49
0.0
 49
-0.25
 0
LTYPE
 2
DIVIDE
 70
0
 3
____ . . ____ . .
 72
65
 73
6
 40
1.25
 49
0.5
 49
-0.25
 49
0.0
 49
-0.25
 49
0.0
 49
-0.25
 0
LTYPE
 2
BORDER
 70
0
 3
__ __ . __ __ .
 72
65
 73
6
 40
1.75
 49
0.5
 49
-0.25
 49
0.5
 49
-0.25
 49
0.0
 49
-0.25
 0
LTYPE
 2
HIDDEN
 70
0
 3
__ __ __ __ __
 72
65
 73
2
 40
0.4
 49
0.25
 49
-0.25
 0
LTYPE
 2
CENTER
 70
0
 3
____ _ ____ _ __
 72
65
 73
4
 40
2.0
 49
1.25
 49
-0.25
 49
0.25
 49
-0.25
 0
ENDTAB
 0
TABLE
 2
LAYER
 70
1
 0
LAYER
 2
PYDXF
 70
64
 62
7
 6
continuous
 0
ENDTAB
 0
TABLE
 2
STYLE
 70
1
 0
STYLE
 2
STANDARD
 70
0
 40
0
 41
1.0
 50
0.0
 71
0
 42
1
 3
ARIAL.TTF
 4

 0
ENDTAB
 0
TABLE
 2
VIEW
 70
1
 0
VIEW
 2
BF_TOPVIEW
 70
0
 40
120.0
 10
0.0
 20
0.0
 41
200.0
 11
0.0
 21
0.0
 31
1.0
 12
0.0
 22
0.0
 32
0.0
 42
50.0
 43
0.0
 44
0.0
 50
0.0
 71
0
 0
ENDTAB
 0
ENDSEC
 0
SECTION
 2
BLOCKS
 0
ENDSEC
 0
SECTION
 2
ENTITIES
 0
POLYLINE
 8
0
 70
64
 66
1
 10
0
 20
0.305
 30
0
 71
125
 72
124
 0
VERTEX
 8
0
 10
-0.186108753085136
 20
0.6354
 30
2.0125
 70
192
 0
VERTEX
 8
0
 10
-0.224290519952774
 20
0.6354
 30
2.0125
 70
192
 0
VERTEX
 8
0
 10
-0.17621810734272
 20
0.6354
 30
2.16340231895447
 70
192
 0
VERTEX
 8
0
 10
-0.140568554401398
 20
0.6227
 30
2.31007599830627
 70
192
 0
VERTEX
 8
0
 10
-0.179745137691498
 20
0.6227
 30
2.0125
 70
192
 0
VERTEX
 8
0
 10
-0.169908925890923
 20
0.6227
 30
2.16257190704346
 70
192
 0
VERTEX
 8
0
 10
-0.150981366634369
 20
0.61
 30
2.16007995605469
 70
192
 0
VERTEX
 8
0
 10
-0.160654276609421
 20
0.61
 30
2.0125
 70
192
 0
VERTEX
 8
0
 10
-0.224290519952774
 20
0.61
 30
2.0125
 70
192
 0
VERTEX
 8
0
 10
-0.214073196053505
 20
0.6354
 30
2.16838622093201
 70
192
 0
VERTEX
 8
0
 10
-0.146715313196182
 20
0.6354
 30
2.31172275543213
 70
192
 0
VERTEX
 8
0
 10
-0.0922260209918022
 20
0.6227
 30
2.4524884223938
 70
192
 0
VERTEX
 8
0
 10
-0.214073196053505
 20
0.61
 30
2.16838622093201
 70
192
 0
VERTEX
 8
0
 10
-0.0981052294373512
 20
0.6354
 30
2.45492362976074
 70
192
 0
VERTEX
 8
0
 10
-0.031219556927681
 20
0.6354
 30
2.5905544757843
 70
192
 0
VERTEX
 8
0
 10
-0.0257085077464581
 20
0.6227
 30
2.58737254142761
 70
192
 0
VERTEX
 8
0
 10
-0.183596059679985
 20
0.61
 30
2.32160496711731
 70
192
 0
VERTEX
 8
0
 10
-0.122128166258335
 20
0.61
 30
2.30513477325439
 70
192
 0
VERTEX
 8
0
 10
-0.183596059679985
 20
0.6354
 30
2.32160496711731
 70
192
 0
VERTEX
 8
0
 10
-0.133380562067032
 20
0.6354
 30
2.46953511238098
 70
192
 0
VERTEX
 8
0
 10
-0.064285933971405
 20
0.6354
 30
2.6096453666687
 70
192
 0
VERTEX
 8
0
 10
0.0527973100543022
 20
0.6354
 30
2.71629428863525
 70
192
 0
VERTEX
 8
0
 10
-0.00917533598840237
 20
0.61
 30
2.5778272151947
 70
192
 0
VERTEX
 8
0
 10
-0.133380562067032
 20
0.61
 30
2.46953511238098
 70
192
 0
VERTEX
 8
0
 10
-0.0745883360505104
 20
0.61
 30
2.44518280029297
 70
192
 0
VERTEX
 8
0
 10
-0.064285933971405
 20
0.61
 30
2.6096453666687
 70
192
 0
VERTEX
 8
0
 10
0.0225056260824203
 20
0.61
 30
2.73953771591187
 70
192
 0
VERTEX
 8
0
 10
0.0225056260824203
 20
0.6354
 30
2.73953771591187
 70
192
 0
VERTEX
 8
0
 10
0.12550912797451
 20
0.6354
 30
2.85699057579041
 70
192
 0
VERTEX
 8
0
 10
0.152507543563843
 20
0.6354
 30
2.83
 70
192
 0
VERTEX
 8
0
 10
0.0729915723204613
 20
0.61
 30
2.70079874992371
 70
192
 0
VERTEX
 8
0
 10
0.0578458160161972
 20
0.6227
 30
2.71242046356201
 70
192
 0
VERTEX
 8
0
 10
0.170506745576859
 20
0.61
 30
2.81199312210083
 70
192
 0
VERTEX
 8
0
 10
0.12550912797451
 20
0.61
 30
2.85699057579041
 70
192
 0
VERTEX
 8
0
 10
0.266205549240112
 20
0.6354
 30
2.92970252037048
 70
192
 0
VERTEX
 8
0
 10
0.395127326250076
 20
0.6227
 30
3.00820851325989
 70
192
 0
VERTEX
 8
0
 10
0.157007396221161
 20
0.6227
 30
2.82549262046814
 70
192
 0
VERTEX
 8
0
 10
0.242962002754211
 20
0.61
 30
2.96
 70
192
 0
VERTEX
 8
0
 10
0.242962002754211
 20
0.6354
 30
2.96
 70
192
 0
VERTEX
 8
0
 10
0.391945451498032
 20
0.6354
 30
3.01371955871582
 70
192
 0
VERTEX
 8
0
 10
0.530011475086212
 20
0.6227
 30
3.07472586631775
 70
192
 0
VERTEX
 8
0
 10
0.270079582929611
 20
0.6227
 30
2.92465400695801
 70
192
 0
VERTEX
 8
0
 10
0.404672861099243
 20
0.61
 30
2.99167537689209
 70
192
 0
VERTEX
 8
0
 10
0.281701356172562
 20
0.61
 30
2.90950846672058
 70
192
 0
VERTEX
 8
0
 10
0.372854799032211
 20
0.61
 30
3.04678583145142
 70
192
 0
VERTEX
 8
0
 10
0.372854799032211
 20
0.6354
 30
3.04678583145142
 70
192
 0
VERTEX
 8
0
 10
0.527576386928558
 20
0.6354
 30
3.08060526847839
 70
192
 0
VERTEX
 8
0
 10
0.670777022838593
 20
0.6354
 30
3.12921524047852
 70
192
 0
VERTEX
 8
0
 10
0.51296478509903
 20
0.61
 30
3.11588048934937
 70
192
 0
VERTEX
 8
0
 10
0.51296478509903
 20
0.6354
 30
3.11588048934937
 70
192
 0
VERTEX
 8
0
 10
0.537317276
 20
0.61
 30
3.05708813667297
 70
192
 0
VERTEX
 8
0
 10
0.672423899173737
 20
0.6227
 30
3.12306833267212
 70
192
 0
VERTEX
 8
0
 10
0.660894870758057
 20
0.6354
 30
3.16609597206116
 70
192
 0
VERTEX
 8
0
 10
0.819097459316254
 20
0.6354
 30
3.15871810913086
 70
192
 0
VERTEX
 8
0
 10
0.819928050041199
 20
0.6227
 30
3.15240859985352
 70
192
 0
VERTEX
 8
0
 10
0.97
 20
0.6354
 30
3.16860866546631
 70
192
 0
VERTEX
 8
0
 10
0.677365005016327
 20
0.61
 30
3.10462808609009
 70
192
 0
VERTEX
 8
0
 10
0.660894870758057
 20
0.61
 30
3.16609597206116
 70
192
 0
VERTEX
 8
0
 10
0.814113676548004
 20
0.61
 30
3.19657301902771
 70
192
 0
VERTEX
 8
0
 10
0.814113676548004
 20
0.6354
 30
3.19657301902771
 70
192
 0
VERTEX
 8
0
 10
1.12007176876068
 20
0.6227
 30
3.15240859985352
 70
192
 0
VERTEX
 8
0
 10
0.822420120239258
 20
0.61
 30
3.13348126411438
 70
192
 0
VERTEX
 8
0
 10
0.97
 20
0.61
 30
3.20679044723511
 70
192
 0
VERTEX
 8
0
 10
0.97
 20
0.6354
 30
3.20679044723511
 70
192
 0
VERTEX
 8
0
 10
1.12090229988098
 20
0.6354
 30
3.15871810913086
 70
192
 0
VERTEX
 8
0
 10
0.97
 20
0.61
 30
3.14315414428711
 70
192
 0
VERTEX
 8
0
 10
0.97
 20
0.6227
 30
3.16224527359009
 70
192
 0
VERTEX
 8
0
 10
1.12588608264923
 20
0.61
 30
3.19657301902771
 70
192
 0
VERTEX
 8
0
 10
1.12588608264923
 20
0.6354
 30
3.19657301902771
 70
192
 0
VERTEX
 8
0
 10
1.41242361068726
 20
0.6354
 30
3.08060526847839
 70
192
 0
VERTEX
 8
0
 10
1.26922285556793
 20
0.6354
 30
3.12921524047852
 70
192
 0
VERTEX
 8
0
 10
1.2675758600235
 20
0.6227
 30
3.12306833267212
 70
192
 0
VERTEX
 8
0
 10
1.11758005619049
 20
0.61
 30
3.13348126411438
 70
192
 0
VERTEX
 8
0
 10
1.40998828411102
 20
0.6227
 30
3.07472586631775
 70
192
 0
VERTEX
 8
0
 10
1.26263475418091
 20
0.61
 30
3.10462808609009
 70
192
 0
VERTEX
 8
0
 10
1.27910482883453
 20
0.61
 30
3.16609597206116
 70
192
 0
VERTEX
 8
0
 10
1.42703497409821
 20
0.6354
 30
3.11588048934937
 70
192
 0
VERTEX
 8
0
 10
1.27910482883453
 20
0.6354
 30
3.16609597206116
 70
192
 0
VERTEX
 8
0
 10
1.56714522838593
 20
0.6354
 30
3.04678583145142
 70
192
 0
VERTEX
 8
0
 10
1.54805433750153
 20
0.6354
 30
3.01371955871582
 70
192
 0
VERTEX
 8
0
 10
1.54487252235413
 20
0.6227
 30
3.00820851325989
 70
192
 0
VERTEX
 8
0
 10
1.53532683849335
 20
0.61
 30
2.99167537689209
 70
192
 0
VERTEX
 8
0
 10
1.4026825428009
 20
0.61
 30
3.05708813667297
 70
192
 0
VERTEX
 8
0
 10
1.56714522838593
 20
0.61
 30
3.04678583145142
 70
192
 0
VERTEX
 8
0
 10
1.42703497409821
 20
0.61
 30
3.11588048934937
 70
192
 0
VERTEX
 8
0
 10
1.78299236297607
 20
0.6227
 30
2.82549262046814
 70
192
 0
VERTEX
 8
0
 10
1.66992056369781
 20
0.6227
 30
2.92465400695801
 70
192
 0
VERTEX
 8
0
 10
1.67379415035248
 20
0.6354
 30
2.92970252037048
 70
192
 0
VERTEX
 8
0
 10
1.69703769683838
 20
0.61
 30
2.96
 70
192
 0
VERTEX
 8
0
 10
1.69703769683838
 20
0.6354
 30
2.96
 70
192
 0
VERTEX
 8
0
 10
1.81449055671692
 20
0.6354
 30
2.85699057579041
 70
192
 0
VERTEX
 8
0
 10
1.88720285892487
 20
0.6354
 30
2.71629428863525
 70
192
 0
VERTEX
 8
0
 10
1.78749227523804
 20
0.6354
 30
2.83
 70
192
 0
VERTEX
 8
0
 10
1.65829837322235
 20
0.61
 30
2.90950846672058
 70
192
 0
VERTEX
 8
0
 10
1.9174941778183
 20
0.6354
 30
2.73953771591187
 70
192
 0
VERTEX
 8
0
 10
1.97121942043304
 20
0.6354
 30
2.5905544757843
 70
192
 0
VERTEX
 8
0
 10
1.76949298381805
 20
0.61
 30
2.81199312210083
 70
192
 0
VERTEX
 8
0
 10
1.81449055671692
 20
0.61
 30
2.85699057579041
 70
192
 0
VERTEX
 8
0
 10
1.9174941778183
 20
0.61
 30
2.73953771591187
 70
192
 0
VERTEX
 8
0
 10
1.96570825576782
 20
0.6227
 30
2.58737254142761
 70
192
 0
VERTEX
 8
0
 10
1.94917523860931
 20
0.61
 30
2.5778272151947
 70
192
 0
VERTEX
 8
0
 10
1.88215386867523
 20
0.6227
 30
2.71242046356201
 70
192
 0
VERTEX
 8
0
 10
1.86700809001923
 20
0.61
 30
2.70079874992371
 70
192
 0
VERTEX
 8
0
 10
2.07338047027588
 20
0.6354
 30
2.46953511238098
 70
192
 0
VERTEX
 8
0
 10
2.03810501098633
 20
0.6354
 30
2.45492362976074
 70
192
 0
VERTEX
 8
0
 10
2.03222584724426
 20
0.6227
 30
2.4524884223938
 70
192
 0
VERTEX
 8
0
 10
2.00428581237793
 20
0.61
 30
2.6096453666687
 70
192
 0
VERTEX
 8
0
 10
2.00428581237793
 20
0.6354
 30
2.6096453666687
 70
192
 0
VERTEX
 8
0
 10
2.12359595298767
 20
0.6354
 30
2.32160496711731
 70
192
 0
VERTEX
 8
0
 10
2.11621809005737
 20
0.6354
 30
2.16340231895447
 70
192
 0
VERTEX
 8
0
 10
2.08671498298645
 20
0.6354
 30
2.31172275543213
 70
192
 0
VERTEX
 8
0
 10
2.08056831359863
 20
0.6227
 30
2.31007599830627
 70
192
 0
VERTEX
 8
0
 10
2.01458835601807
 20
0.61
 30
2.44518280029297
 70
192
 0
VERTEX
 8
0
 10
2.07338047027588
 20
0.61
 30
2.46953511238098
 70
192
 0
VERTEX
 8
0
 10
2.12359595298767
 20
0.61
 30
2.32160496711731
 70
192
 0
VERTEX
 8
0
 10
2.12610864639282
 20
0.6354
 30
2.0125
 70
192
 0
VERTEX
 8
0
 10
2.10990858078003
 20
0.6227
 30
2.16257190704346
 70
192
 0
VERTEX
 8
0
 10
2.09098100662231
 20
0.61
 30
2.16007995605469
 70
192
 0
VERTEX
 8
0
 10
2.0621280670166
 20
0.61
 30
2.30513477325439
 70
192
 0
VERTEX
 8
0
 10
2.1540732383728
 20
0.6354
 30
2.16838622093201
 70
192
 0
VERTEX
 8
0
 10
2.11974501609802
 20
0.6227
 30
2.0125
 70
192
 0
VERTEX
 8
0
 10
2.16429042816162
 20
0.61
 30
2.0125
 70
192
 0
VERTEX
 8
0
 10
2.16429042816162
 20
0.6354
 30
2.0125
 70
192
 0
VERTEX
 8
0
 10
2.1540732383728
 20
0.61
 30
2.16838622093201
 70
192
 0
VERTEX
 8
0
 10
2.10065412521362
 20
0.61
 30
2.0125
 70
192
 0
VERTEX
 8
0
 10
0
 20
0.305
 30
0
 70
128
 71
5
 72
1
 73
3
 74
6
 0
VERTEX
 8
0
 10
0
 20
0.305
 30
0
 70
128
 71
1
 72
5
 73
9
 74
2
 0
VERTEX
 8
0
 10
0
 20
0.305
 30
0
 70
128
 71
3
 72
1
 73
2
 74
10
 0
VERTEX
 8
0
 10
0
 20
0.305
 30
0
 70
128
 71
6
 72
3
 73
11
 74
4
 0
VERTEX
 8
0
 10
0
 20
0.305
 30
0
 70
128
 71
8
 72
5
 73
6
 74
7
 0
VERTEX
 8
0
 10
0
 20
0.305
 30
0
 70
128
 71
8
 72
9
 73
5
 0
VERTEX
 8
0
 10
0
 20
0.305
 30
0
 70
128
 71
2
 72
9
 73
13
 74
10
 0
VERTEX
 8
0
 10
0
 20
0.305
 30
0
 70
128
 71
10
 72
19
 73
11
 74
3
 0
VERTEX
 8
0
 10
0
 20
0.305
 30
0
 70
128
 71
4
 72
11
 73
14
 74
12
 0
VERTEX
 8
0
 10
0
 20
0.305
 30
0
 70
128
 71
7
 72
6
 73
4
 74
18
 0
VERTEX
 8
0
 10
0
 20
0.305
 30
0
 70
128
 71
8
 72
7
 73
13
 74
9
 0
VERTEX
 8
0
 10
0
 20
0.305
 30
0
 70
128
 71
10
 72
13
 73
17
 74
19
 0
VERTEX
 8
0
 10
0
 20
0.305
 30
0
 70
128
 71
19
 72
20
 73
14
 74
11
 0
VERTEX
 8
0
 10
0
 20
0.305
 30
0
 70
128
 71
12
 72
14
 73
15
 74
16
 0
VERTEX
 8
0
 10
0
 20
0.305
 30
0
 70
128
 71
18
 72
4
 73
12
 74
25
 0
VERTEX
 8
0
 10
0
 20
0.305
 30
0
 70
128
 71
17
 72
13
 73
7
 74
18
 0
VERTEX
 8
0
 10
0
 20
0.305
 30
0
 70
128
 71
19
 72
17
 73
24
 74
20
 0
VERTEX
 8
0
 10
0
 20
0.305
 30
0
 70
128
 71
20
 72
21
 73
15
 74
14
 0
VERTEX
 8
0
 10
0
 20
0.305
 30
0
 70
128
 71
16
 72
15
 73
22
 74
32
 0
VERTEX
 8
0
 10
0
 20
0.305
 30
0
 70
128
 71
25
 72
12
 73
16
 74
23
 0
VERTEX
 8
0
 10
0
 20
0.305
 30
0
 70
128
 71
24
 72
17
 73
18
 74
25
 0
VERTEX
 8
0
 10
0
 20
0.305
 30
0
 70
128
 71
20
 72
24
 73
26
 74
21
 0
VERTEX
 8
0
 10
0
 20
0.305
 30
0
 70
128
 71
21
 72
28
 73
22
 74
15
 0
VERTEX
 8
0
 10
0
 20
0.305
 30
0
 70
128
 71
32
 72
22
 73
30
 74
37
 0
VERTEX
 8
0
 10
0
 20
0.305
 30
0
 70
128
 71
23
 72
16
 73
32
 74
31
 0
VERTEX
 8
0
 10
0
 20
0.305
 30
0
 70
128
 71
25
 72
23
 73
26
 74
24
 0
VERTEX
 8
0
 10
0
 20
0.305
 30
0
 70
128
 71
21
 72
26
 73
27
 74
28
 0
VERTEX
 8
0
 10
0
 20
0.305
 30
0
 70
128
 71
28
 72
29
 73
30
 74
22
 0
VERTEX
 8
0
 10
0
 20
0.305
 30
0
 70
128
 71
37
 72
30
 73
35
 74
42
 0
VERTEX
 8
0
 10
0
 20
0.305
 30
0
 70
128
 71
31
 72
32
 73
37
 74
33
 0
VERTEX
 8
0
 10
0
 20
0.305
 30
0
 70
128
 71
27
 72
26
 73
23
 74
31
 0
VERTEX
 8
0
 10
0
 20
0.305
 30
0
 70
128
 71
28
 72
27
 73
34
 74
29
 0
VERTEX
 8
0
 10
0
 20
0.305
 30
0
 70
128
 71
29
 72
39
 73
35
 74
30
 0
VERTEX
 8
0
 10
0
 20
0.305
 30
0
 70
128
 71
42
 72
35
 73
40
 74
36
 0
VERTEX
 8
0
 10
0
 20
0.305
 30
0
 70
128
 71
33
 72
37
 73
42
 74
44
 0
VERTEX
 8
0
 10
0
 20
0.305
 30
0
 70
128
 71
34
 72
27
 73
31
 74
33
 0
VERTEX
 8
0
 10
0
 20
0.305
 30
0
 70
128
 71
29
 72
34
 73
38
 74
39
 0
VERTEX
 8
0
 10
0
 20
0.305
 30
0
 70
128
 71
39
 72
46
 73
40
 74
35
 0
VERTEX
 8
0
 10
0
 20
0.305
 30
0
 70
128
 71
36
 72
40
 73
47
 74
41
 0
VERTEX
 8
0
 10
0
 20
0.305
 30
0
 70
128
 71
44
 72
42
 73
36
 74
43
 0
VERTEX
 8
0
 10
0
 20
0.305
 30
0
 70
128
 71
38
 72
34
 73
33
 74
44
 0
VERTEX
 8
0
 10
0
 20
0.305
 30
0
 70
128
 71
39
 72
38
 73
45
 74
46
 0
VERTEX
 8
0
 10
0
 20
0.305
 30
0
 70
128
 71
46
 72
50
 73
47
 74
40
 0
VERTEX
 8
0
 10
0
 20
0.305
 30
0
 70
128
 71
41
 72
47
 73
48
 74
52
 0
VERTEX
 8
0
 10
0
 20
0.305
 30
0
 70
128
 71
43
 72
36
 73
41
 74
51
 0
VERTEX
 8
0
 10
0
 20
0.305
 30
0
 70
128
 71
45
 72
38
 73
44
 74
43
 0
VERTEX
 8
0
 10
0
 20
0.305
 30
0
 70
128
 71
46
 72
45
 73
49
 74
50
 0
VERTEX
 8
0
 10
0
 20
0.305
 30
0
 70
128
 71
50
 72
53
 73
48
 74
47
 0
VERTEX
 8
0
 10
0
 20
0.305
 30
0
 70
128
 71
52
 72
48
 73
54
 74
55
 0
VERTEX
 8
0
 10
0
 20
0.305
 30
0
 70
128
 71
51
 72
41
 73
52
 74
57
 0
VERTEX
 8
0
 10
0
 20
0.305
 30
0
 70
128
 71
43
 72
51
 73
49
 74
45
 0
VERTEX
 8
0
 10
0
 20
0.305
 30
0
 70
128
 71
50
 72
49
 73
58
 74
53
 0
VERTEX
 8
0
 10
0
 20
0.305
 30
0
 70
128
 71
53
 72
60
 73
54
 74
48
 0
VERTEX
 8
0
 10
0
 20
0.305
 30
0
 70
128
 71
55
 72
54
 73
56
 74
67
 0
VERTEX
 8
0
 10
0
 20
0.305
 30
0
 70
128
 71
57
 72
52
 73
55
 74
62
 0
VERTEX
 8
0
 10
0
 20
0.305
 30
0
 70
128
 71
51
 72
57
 73
58
 74
49
 0
VERTEX
 8
0
 10
0
 20
0.305
 30
0
 70
128
 71
53
 72
58
 73
59
 74
60
 0
VERTEX
 8
0
 10
0
 20
0.305
 30
0
 70
128
 71
60
 72
64
 73
56
 74
54
 0
VERTEX
 8
0
 10
0
 20
0.305
 30
0
 70
128
 71
65
 72
61
 73
67
 74
56
 0
VERTEX
 8
0
 10
0
 20
0.305
 30
0
 70
128
 71
62
 72
55
 73
67
 74
66
 0
VERTEX
 8
0
 10
0
 20
0.305
 30
0
 70
128
 71
57
 72
62
 73
59
 74
58
 0
VERTEX
 8
0
 10
0
 20
0.305
 30
0
 70
128
 71
60
 72
59
 73
63
 74
64
 0
VERTEX
 8
0
 10
0
 20
0.305
 30
0
 70
128
 71
64
 72
69
 73
65
 74
56
 0
VERTEX
 8
0
 10
0
 20
0.305
 30
0
 70
128
 71
71
 72
72
 73
61
 74
65
 0
VERTEX
 8
0
 10
0
 20
0.305
 30
0
 70
128
 71
61
 72
73
 73
66
 74
67
 0
VERTEX
 8
0
 10
0
 20
0.305
 30
0
 70
128
 71
62
 72
66
 73
63
 74
59
 0
VERTEX
 8
0
 10
0
 20
0.305
 30
0
 70
128
 71
68
 72
69
 73
64
 74
63
 0
VERTEX
 8
0
 10
0
 20
0.305
 30
0
 70
128
 71
69
 72
78
 73
71
 74
65
 0
VERTEX
 8
0
 10
0
 20
0.305
 30
0
 70
128
 71
70
 72
74
 73
72
 74
71
 0
VERTEX
 8
0
 10
0
 20
0.305
 30
0
 70
128
 71
72
 72
75
 73
73
 74
61
 0
VERTEX
 8
0
 10
0
 20
0.305
 30
0
 70
128
 71
66
 72
73
 73
68
 74
63
 0
VERTEX
 8
0
 10
0
 20
0.305
 30
0
 70
128
 71
76
 72
78
 73
69
 74
68
 0
VERTEX
 8
0
 10
0
 20
0.305
 30
0
 70
128
 71
78
 72
77
 73
70
 74
71
 0
VERTEX
 8
0
 10
0
 20
0.305
 30
0
 70
128
 71
80
 72
81
 73
74
 74
70
 0
VERTEX
 8
0
 10
0
 20
0.305
 30
0
 70
128
 71
74
 72
83
 73
75
 74
72
 0
VERTEX
 8
0
 10
0
 20
0.305
 30
0
 70
128
 71
73
 72
75
 73
76
 74
68
 0
VERTEX
 8
0
 10
0
 20
0.305
 30
0
 70
128
 71
85
 72
77
 73
78
 74
76
 0
VERTEX
 8
0
 10
0
 20
0.305
 30
0
 70
128
 71
77
 72
79
 73
80
 74
70
 0
VERTEX
 8
0
 10
0
 20
0.305
 30
0
 70
128
 71
88
 72
87
 73
81
 74
80
 0
VERTEX
 8
0
 10
0
 20
0.305
 30
0
 70
128
 71
81
 72
82
 73
83
 74
74
 0
VERTEX
 8
0
 10
0
 20
0.305
 30
0
 70
128
 71
75
 72
83
 73
85
 74
76
 0
VERTEX
 8
0
 10
0
 20
0.305
 30
0
 70
128
 71
84
 72
79
 73
77
 74
85
 0
VERTEX
 8
0
 10
0
 20
0.305
 30
0
 70
128
 71
79
 72
90
 73
88
 74
80
 0
VERTEX
 8
0
 10
0
 20
0.305
 30
0
 70
128
 71
93
 72
86
 73
87
 74
88
 0
VERTEX
 8
0
 10
0
 20
0.305
 30
0
 70
128
 71
87
 72
94
 73
82
 74
81
 0
VERTEX
 8
0
 10
0
 20
0.305
 30
0
 70
128
 71
83
 72
82
 73
84
 74
85
 0
VERTEX
 8
0
 10
0
 20
0.305
 30
0
 70
128
 71
89
 72
90
 73
79
 74
84
 0
VERTEX
 8
0
 10
0
 20
0.305
 30
0
 70
128
 71
90
 72
91
 73
93
 74
88
 0
VERTEX
 8
0
 10
0
 20
0.305
 30
0
 70
128
 71
92
 72
102
 73
86
 74
93
 0
VERTEX
 8
0
 10
0
 20
0.305
 30
0
 70
128
 71
86
 72
97
 73
94
 74
87
 0
VERTEX
 8
0
 10
0
 20
0.305
 30
0
 70
128
 71
89
 72
84
 73
82
 74
94
 0
VERTEX
 8
0
 10
0
 20
0.305
 30
0
 70
128
 71
98
 72
91
 73
90
 74
89
 0
VERTEX
 8
0
 10
0
 20
0.305
 30
0
 70
128
 71
91
 72
95
 73
92
 74
93
 0
VERTEX
 8
0
 10
0
 20
0.305
 30
0
 70
128
 71
96
 72
100
 73
102
 74
92
 0
VERTEX
 8
0
 10
0
 20
0.305
 30
0
 70
128
 71
102
 72
103
 73
97
 74
86
 0
VERTEX
 8
0
 10
0
 20
0.305
 30
0
 70
128
 71
98
 72
89
 73
94
 74
97
 0
VERTEX
 8
0
 10
0
 20
0.305
 30
0
 70
128
 71
99
 72
95
 73
91
 74
98
 0
VERTEX
 8
0
 10
0
 20
0.305
 30
0
 70
128
 71
95
 72
108
 73
96
 74
92
 0
VERTEX
 8
0
 10
0
 20
0.305
 30
0
 70
128
 71
105
 72
106
 73
100
 74
96
 0
VERTEX
 8
0
 10
0
 20
0.305
 30
0
 70
128
 71
100
 72
101
 73
103
 74
102
 0
VERTEX
 8
0
 10
0
 20
0.305
 30
0
 70
128
 71
97
 72
103
 73
99
 74
98
 0
VERTEX
 8
0
 10
0
 20
0.305
 30
0
 70
128
 71
107
 72
108
 73
95
 74
99
 0
VERTEX
 8
0
 10
0
 20
0.305
 30
0
 70
128
 71
108
 72
104
 73
105
 74
96
 0
VERTEX
 8
0
 10
0
 20
0.305
 30
0
 70
128
 71
111
 72
112
 73
106
 74
105
 0
VERTEX
 8
0
 10
0
 20
0.305
 30
0
 70
128
 71
106
 72
113
 73
101
 74
100
 0
VERTEX
 8
0
 10
0
 20
0.305
 30
0
 70
128
 71
103
 72
101
 73
107
 74
99
 0
VERTEX
 8
0
 10
0
 20
0.305
 30
0
 70
128
 71
114
 72
104
 73
108
 74
107
 0
VERTEX
 8
0
 10
0
 20
0.305
 30
0
 70
128
 71
104
 72
109
 73
111
 74
105
 0
VERTEX
 8
0
 10
0
 20
0.305
 30
0
 70
128
 71
110
 72
117
 73
112
 74
111
 0
VERTEX
 8
0
 10
0
 20
0.305
 30
0
 70
128
 71
112
 72
119
 73
113
 74
106
 0
VERTEX
 8
0
 10
0
 20
0.305
 30
0
 70
128
 71
101
 72
113
 73
114
 74
107
 0
VERTEX
 8
0
 10
0
 20
0.305
 30
0
 70
128
 71
115
 72
109
 73
104
 74
114
 0
VERTEX
 8
0
 10
0
 20
0.305
 30
0
 70
128
 71
109
 72
120
 73
110
 74
111
 0
VERTEX
 8
0
 10
0
 20
0.305
 30
0
 70
128
 71
116
 72
121
 73
117
 74
110
 0
VERTEX
 8
0
 10
0
 20
0.305
 30
0
 70
128
 71
117
 72
118
 73
119
 74
112
 0
VERTEX
 8
0
 10
0
 20
0.305
 30
0
 70
128
 71
113
 72
119
 73
115
 74
114
 0
VERTEX
 8
0
 10
0
 20
0.305
 30
0
 70
128
 71
124
 72
120
 73
109
 74
115
 0
VERTEX
 8
0
 10
0
 20
0.305
 30
0
 70
128
 71
116
 72
110
 73
120
 74
123
 0
VERTEX
 8
0
 10
0
 20
0.305
 30
0
 70
128
 71
121
 72
116
 73
123
 74
122
 0
VERTEX
 8
0
 10
0
 20
0.305
 30
0
 70
128
 71
121
 72
125
 73
118
 74
117
 0
VERTEX
 8
0
 10
0
 20
0.305
 30
0
 70
128
 71
124
 72
115
 73
119
 74
118
 0
VERTEX
 8
0
 10
0
 20
0.305
 30
0
 70
128
 71
122
 72
123
 73
120
 74
124
 0
VERTEX
 8
0
 10
0
 20
0.305
 30
0
 70
128
 71
122
 72
125
 73
121
 0
VERTEX
 8
0
 10
0
 20
0.305
 30
0
 70
128
 71
124
 72
118
 73
125
 74
122
 0
SEQEND
 8
0
 0
POLYLINE
 8
0
 70
64
 66
1
 10
0
 20
0.305
 30
0
 71
125
 72
124
 0
VERTEX
 8
0
 10
2.1261088848114
 20
-0.0253994238376617
 30
2.0125
 70
192
 0
VERTEX
 8
0
 10
2.1642906665802
 20
-0.0253993940353394
 30
2.0125
 70
192
 0
VERTEX
 8
0
 10
2.11621809005737
 20
-0.0253994238376617
 30
2.16340231895447
 70
192
 0
VERTEX
 8
0
 10
2.08056855201721
 20
-0.0126994621753693
 30
2.31007599830627
 70
192
 0
VERTEX
 8
0
 10
2.1197452545166
 20
-0.0126994323730469
 30
2.0125
 70
192
 0
VERTEX
 8
0
 10
2.10990905761719
 20
-0.0126994323730469
 30
2.16257190704346
 70
192
 0
VERTEX
 8
0
 10
2.09098148345947
 20
0
 30
2.16007995605469
 70
192
 0
VERTEX
 8
0
 10
2.1006543636322
 20
0
 30
2.0125
 70
192
 0
VERTEX
 8
0
 10
2.1642906665802
 20
0
 30
2.0125
 70
192
 0
VERTEX
 8
0
 10
2.1540732383728
 20
-0.0253993940353394
 30
2.16838622093201
 70
192
 0
VERTEX
 8
0
 10
2.08671545982361
 20
-0.0253994238376617
 30
2.31172275543213
 70
192
 0
VERTEX
 8
0
 10
2.03222608566284
 20
-0.0126994919776917
 30
2.4524884223938
 70
192
 0
VERTEX
 8
0
 10
2.1540732383728
 20
0
 30
2.16838622093201
 70
192
 0
VERTEX
 8
0
 10
2.03810524940491
 20
-0.0253994536399841
 30
2.45492362976074
 70
192
 0
VERTEX
 8
0
 10
1.97121965885162
 20
-0.0253995132446289
 30
2.5905544757843
 70
192
 0
VERTEX
 8
0
 10
1.9657084941864
 20
-0.012699521780014
 30
2.58737254142761
 70
192
 0
VERTEX
 8
0
 10
2.12359619140625
 20
0
 30
2.32160496711731
 70
192
 0
VERTEX
 8
0
 10
2.06212830543518
 20
0
 30
2.30513477325439
 70
192
 0
VERTEX
 8
0
 10
2.12359619140625
 20
-0.0253994238376617
 30
2.32160496711731
 70
192
 0
VERTEX
 8
0
 10
2.07338070869446
 20
-0.0253994536399841
 30
2.46953511238098
 70
192
 0
VERTEX
 8
0
 10
2.00428605079651
 20
-0.0253994834423065
 30
2.6096453666687
 70
192
 0
VERTEX
 8
0
 10
1.88720285892487
 20
-0.0253995430469513
 30
2.71629428863525
 70
192
 0
VERTEX
 8
0
 10
1.9491753578186
 20
0
 30
2.5778272151947
 70
192
 0
VERTEX
 8
0
 10
2.07338070869446
 20
0
 30
2.46953511238098
 70
192
 0
VERTEX
 8
0
 10
2.01458859443665
 20
0
 30
2.44518280029297
 70
192
 0
VERTEX
 8
0
 10
2.00428605079651
 20
0
 30
2.6096453666687
 70
192
 0
VERTEX
 8
0
 10
1.91749429702759
 20
0
 30
2.73953771591187
 70
192
 0
VERTEX
 8
0
 10
1.91749441623688
 20
-0.0253995430469513
 30
2.73953771591187
 70
192
 0
VERTEX
 8
0
 10
1.81449103355408
 20
-0.0253996026515961
 30
2.85699057579041
 70
192
 0
VERTEX
 8
0
 10
1.78749251365662
 20
-0.0253996026515961
 30
2.83
 70
192
 0
VERTEX
 8
0
 10
1.86700844764709
 20
0
 30
2.70079874992371
 70
192
 0
VERTEX
 8
0
 10
1.88215434551239
 20
-0.0126995515823364
 30
2.71242046356201
 70
192
 0
VERTEX
 8
0
 10
1.76949322223663
 20
0
 30
2.81199312210083
 70
192
 0
VERTEX
 8
0
 10
1.81449091434479
 20
0
 30
2.85699057579041
 70
192
 0
VERTEX
 8
0
 10
1.67379450798035
 20
-0.0253996622562409
 30
2.92970252037048
 70
192
 0
VERTEX
 8
0
 10
1.54487276077271
 20
-0.0126997601985931
 30
3.00820851325989
 70
192
 0
VERTEX
 8
0
 10
1.78299272060394
 20
-0.0126996111869812
 30
2.82549262046814
 70
192
 0
VERTEX
 8
0
 10
1.69703793525696
 20
0
 30
2.96
 70
192
 0
VERTEX
 8
0
 10
1.69703805446625
 20
-0.0253996622562409
 30
2.96
 70
192
 0
VERTEX
 8
0
 10
1.5480545759201
 20
-0.025399751663208
 30
3.01371955871582
 70
192
 0
VERTEX
 8
0
 10
1.4099885225296
 20
-0.0126998198032379
 30
3.07472586631775
 70
192
 0
VERTEX
 8
0
 10
1.66992032527924
 20
-0.012699670791626
 30
2.92465400695801
 70
192
 0
VERTEX
 8
0
 10
1.53532707691193
 20
0
 30
2.99167537689209
 70
192
 0
VERTEX
 8
0
 10
1.65829849243164
 20
0
 30
2.90950846672058
 70
192
 0
VERTEX
 8
0
 10
1.56714510917664
 20
0
 30
3.04678583145142
 70
192
 0
VERTEX
 8
0
 10
1.56714522838593
 20
-0.0253997218608856
 30
3.04678583145142
 70
192
 0
VERTEX
 8
0
 10
1.41242372989655
 20
-0.0253998112678528
 30
3.08060526847839
 70
192
 0
VERTEX
 8
0
 10
1.26922309398651
 20
-0.0254
 30
3.12921524047852
 70
192
 0
VERTEX
 8
0
 10
1.42703521251678
 20
0
 30
3.11588048934937
 70
192
 0
VERTEX
 8
0
 10
1.42703533172607
 20
-0.0253998112678528
 30
3.11588048934937
 70
192
 0
VERTEX
 8
0
 10
1.40268266201019
 20
0
 30
3.05708813667297
 70
192
 0
VERTEX
 8
0
 10
1.26757609844208
 20
-0.0127
 30
3.12306833267212
 70
192
 0
VERTEX
 8
0
 10
1.2791051864624
 20
-0.0254
 30
3.16609597206116
 70
192
 0
VERTEX
 8
0
 10
1.12090253829956
 20
-0.0254
 30
3.15871810913086
 70
192
 0
VERTEX
 8
0
 10
1.12007200717926
 20
-0.0127
 30
3.15240859985352
 70
192
 0
VERTEX
 8
0
 10
0.97
 20
-0.0254
 30
3.16860866546631
 70
192
 0
VERTEX
 8
0
 10
1.26263499259949
 20
0
 30
3.10462808609009
 70
192
 0
VERTEX
 8
0
 10
1.27910506725311
 20
0
 30
3.16609597206116
 70
192
 0
VERTEX
 8
0
 10
1.12588620185852
 20
0
 30
3.19657301902771
 70
192
 0
VERTEX
 8
0
 10
1.12588632106781
 20
-0.0254
 30
3.19657301902771
 70
192
 0
VERTEX
 8
0
 10
0.819928228855133
 20
-0.0127001476287842
 30
3.15240859985352
 70
192
 0
VERTEX
 8
0
 10
1.11757981777191
 20
0
 30
3.13348126411438
 70
192
 0
VERTEX
 8
0
 10
0.97
 20
0
 30
3.20679044723511
 70
192
 0
VERTEX
 8
0
 10
0.97
 20
-0.0254
 30
3.20679044723511
 70
192
 0
VERTEX
 8
0
 10
0.819097638130188
 20
-0.0254001390933991
 30
3.15871810913086
 70
192
 0
VERTEX
 8
0
 10
0.97
 20
0
 30
3.14315414428711
 70
192
 0
VERTEX
 8
0
 10
0.97
 20
-0.0127
 30
3.16224527359009
 70
192
 0
VERTEX
 8
0
 10
0.814113974571228
 20
0
 30
3.19657301902771
 70
192
 0
VERTEX
 8
0
 10
0.814113974571228
 20
-0.0254001688957214
 30
3.19657301902771
 70
192
 0
VERTEX
 8
0
 10
0.527576327323914
 20
-0.0254003179073334
 30
3.08060526847839
 70
192
 0
VERTEX
 8
0
 10
0.670777142047882
 20
-0.0254002285003662
 30
3.12921524047852
 70
192
 0
VERTEX
 8
0
 10
0.672424137592316
 20
-0.0127002370357513
 30
3.12306833267212
 70
192
 0
VERTEX
 8
0
 10
0.82242
 20
0
 30
3.13348126411438
 70
192
 0
VERTEX
 8
0
 10
0.530011594295502
 20
-0.0127003264427185
 30
3.07472586631775
 70
192
 0
VERTEX
 8
0
 10
0.677365243434906
 20
0
 30
3.10462808609009
 70
192
 0
VERTEX
 8
0
 10
0.660895109176636
 20
0
 30
3.16609597206116
 70
192
 0
VERTEX
 8
0
 10
0.512964963912964
 20
-0.0254003179073334
 30
3.11588048934937
 70
192
 0
VERTEX
 8
0
 10
0.660895109176636
 20
-0.0254002285003662
 30
3.16609597206116
 70
192
 0
VERTEX
 8
0
 10
0.372854739427567
 20
-0.0254004073143005
 30
3.04678583145142
 70
192
 0
VERTEX
 8
0
 10
0.391945630311966
 20
-0.0254004073143005
 30
3.01371955871582
 70
192
 0
VERTEX
 8
0
 10
0.395127415657043
 20
-0.0127004158496857
 30
3.00820851325989
 70
192
 0
VERTEX
 8
0
 10
0.404673159122467
 20
0
 30
2.99167537689209
 70
192
 0
VERTEX
 8
0
 10
0.537317395210266
 20
0
 30
3.05708813667297
 70
192
 0
VERTEX
 8
0
 10
0.372854739427567
 20
0
 30
3.04678583145142
 70
192
 0
VERTEX
 8
0
 10
0.512964963912964
 20
0
 30
3.11588048934937
 70
192
 0
VERTEX
 8
0
 10
0.157007649540901
 20
-0.0127005350589752
 30
2.82549262046814
 70
192
 0
VERTEX
 8
0
 10
0.270079433918
 20
-0.0127004754543305
 30
2.92465400695801
 70
192
 0
VERTEX
 8
0
 10
0.266205817461014
 20
-0.0254004669189453
 30
2.92970252037048
 70
192
 0
VERTEX
 8
0
 10
0.242962285876274
 20
0
 30
2.96
 70
192
 0
VERTEX
 8
0
 10
0.242962300777435
 20
-0.0254004669189453
 30
2.96
 70
192
 0
VERTEX
 8
0
 10
0.125509396195412
 20
-0.0254005563259125
 30
2.85699057579041
 70
192
 0
VERTEX
 8
0
 10
0.0527971573174
 20
-0.0254005861282349
 30
2.71629428863525
 70
192
 0
VERTEX
 8
0
 10
0.152507737278938
 20
-0.0254005265235901
 30
2.83
 70
192
 0
VERTEX
 8
0
 10
0.281701594591141
 20
0
 30
2.90950846672058
 70
192
 0
VERTEX
 8
0
 10
0.0225057881325483
 20
-0.0254006159305573
 30
2.73953771591187
 70
192
 0
VERTEX
 8
0
 10
-0.0312194190919399
 20
-0.0254006457328796
 30
2.5905544757843
 70
192
 0
VERTEX
 8
0
 10
0.17050701379776
 20
0
 30
2.81199312210083
 70
192
 0
VERTEX
 8
0
 10
0.12550938129425
 20
0
 30
2.85699057579041
 70
192
 0
VERTEX
 8
0
 10
0.0225057732313871
 20
0
 30
2.73953771591187
 70
192
 0
VERTEX
 8
0
 10
-0.0257083289325237
 20
-0.0127006244659424
 30
2.58737254142761
 70
192
 0
VERTEX
 8
0
 10
-0.00917523633688688
 20
0
 30
2.5778272151947
 70
192
 0
VERTEX
 8
0
 10
0.0578460656106472
 20
-0.01270059466362
 30
2.71242046356201
 70
192
 0
VERTEX
 8
0
 10
0.0729918405413628
 20
0
 30
2.70079874992371
 70
192
 0
VERTEX
 8
0
 10
-0.133380427956581
 20
-0.0254007053375244
 30
2.46953511238098
 70
192
 0
VERTEX
 8
0
 10
-0.0981050655245781
 20
-0.025400675535202
 30
2.45492362976074
 70
192
 0
VERTEX
 8
0
 10
-0.0922257825732231
 20
-0.0127006840705872
 30
2.4524884223938
 70
192
 0
VERTEX
 8
0
 10
-0.0642858296632767
 20
0
 30
2.6096453666687
 70
192
 0
VERTEX
 8
0
 10
-0.0642858147621155
 20
-0.0254006457328796
 30
2.6096453666687
 70
192
 0
VERTEX
 8
0
 10
-0.183595955371857
 20
-0.0254007053375244
 30
2.32160496711731
 70
192
 0
VERTEX
 8
0
 10
-0.176218122243881
 20
-0.0254007053375244
 30
2.16340231895447
 70
192
 0
VERTEX
 8
0
 10
-0.146715074777603
 20
-0.0254007053375244
 30
2.31172275543213
 70
192
 0
VERTEX
 8
0
 10
-0.140568375587463
 20
-0.0127007138729096
 30
2.31007599830627
 70
192
 0
VERTEX
 8
0
 10
-0.0745882987976074
 20
0
 30
2.44518280029297
 70
192
 0
VERTEX
 8
0
 10
-0.133380442857742
 20
0
 30
2.46953511238098
 70
192
 0
VERTEX
 8
0
 10
-0.183595970273018
 20
0
 30
2.32160496711731
 70
192
 0
VERTEX
 8
0
 10
-0.186108604073524
 20
-0.0254007351398468
 30
2.0125
 70
192
 0
VERTEX
 8
0
 10
-0.169908627867699
 20
-0.0127007138729096
 30
2.16257190704346
 70
192
 0
VERTEX
 8
0
 10
-0.150981113314629
 20
0
 30
2.16007995605469
 70
192
 0
VERTEX
 8
0
 10
-0.122128032147884
 20
0
 30
2.30513477325439
 70
192
 0
VERTEX
 8
0
 10
-0.214073166251183
 20
-0.0254007351398468
 30
2.16838622093201
 70
192
 0
VERTEX
 8
0
 10
-0.179745048284531
 20
-0.0127007138729096
 30
2.0125
 70
192
 0
VERTEX
 8
0
 10
-0.224290385842323
 20
0
 30
2.0125
 70
192
 0
VERTEX
 8
0
 10
-0.224290370941162
 20
-0.0254007351398468
 30
2.0125
 70
192
 0
VERTEX
 8
0
 10
-0.214073181152344
 20
0
 30
2.16838622093201
 70
192
 0
VERTEX
 8
0
 10
-0.160654157400131
 20
0
 30
2.0125
 70
192
 0
VERTEX
 8
0
 10
0
 20
0.305
 30
0
 70
128
 71
5
 72
1
 73
3
 74
6
 0
VERTEX
 8
0
 10
0
 20
0.305
 30
0
 70
128
 71
1
 72
5
 73
9
 74
2
 0
VERTEX
 8
0
 10
0
 20
0.305
 30
0
 70
128
 71
3
 72
1
 73
2
 74
10
 0
VERTEX
 8
0
 10
0
 20
0.305
 30
0
 70
128
 71
6
 72
3
 73
11
 74
4
 0
VERTEX
 8
0
 10
0
 20
0.305
 30
0
 70
128
 71
8
 72
5
 73
6
 74
7
 0
VERTEX
 8
0
 10
0
 20
0.305
 30
0
 70
128
 71
8
 72
9
 73
5
 0
VERTEX
 8
0
 10
0
 20
0.305
 30
0
 70
128
 71
2
 72
9
 73
13
 74
10
 0
VERTEX
 8
0
 10
0
 20
0.305
 30
0
 70
128
 71
10
 72
19
 73
11
 74
3
 0
VERTEX
 8
0
 10
0
 20
0.305
 30
0
 70
128
 71
4
 72
11
 73
14
 74
12
 0
VERTEX
 8
0
 10
0
 20
0.305
 30
0
 70
128
 71
7
 72
6
 73
4
 74
18
 0
VERTEX
 8
0
 10
0
 20
0.305
 30
0
 70
128
 71
8
 72
7
 73
13
 74
9
 0
VERTEX
 8
0
 10
0
 20
0.305
 30
0
 70
128
 71
10
 72
13
 73
17
 74
19
 0
VERTEX
 8
0
 10
0
 20
0.305
 30
0
 70
128
 71
19
 72
20
 73
14
 74
11
 0
VERTEX
 8
0
 10
0
 20
0.305
 30
0
 70
128
 71
12
 72
14
 73
15
 74
16
 0
VERTEX
 8
0
 10
0
 20
0.305
 30
0
 70
128
 71
18
 72
4
 73
12
 74
25
 0
VERTEX
 8
0
 10
0
 20
0.305
 30
0
 70
128
 71
17
 72
13
 73
7
 74
18
 0
VERTEX
 8
0
 10
0
 20
0.305
 30
0
 70
128
 71
19
 72
17
 73
24
 74
20
 0
VERTEX
 8
0
 10
0
 20
0.305
 30
0
 70
128
 71
20
 72
21
 73
15
 74
14
 0
VERTEX
 8
0
 10
0
 20
0.305
 30
0
 70
128
 71
16
 72
15
 73
22
 74
32
 0
VERTEX
 8
0
 10
0
 20
0.305
 30
0
 70
128
 71
25
 72
12
 73
16
 74
23
 0
VERTEX
 8
0
 10
0
 20
0.305
 30
0
 70
128
 71
24
 72
17
 73
18
 74
25
 0
VERTEX
 8
0
 10
0
 20
0.305
 30
0
 70
128
 71
20
 72
24
 73
26
 74
21
 0
VERTEX
 8
0
 10
0
 20
0.305
 30
0
 70
128
 71
21
 72
28
 73
22
 74
15
 0
VERTEX
 8
0
 10
0
 20
0.305
 30
0
 70
128
 71
32
 72
22
 73
30
 74
37
 0
VERTEX
 8
0
 10
0
 20
0.305
 30
0
 70
128
 71
23
 72
16
 73
32
 74
31
 0
VERTEX
 8
0
 10
0
 20
0.305
 30
0
 70
128
 71
25
 72
23
 73
26
 74
24
 0
VERTEX
 8
0
 10
0
 20
0.305
 30
0
 70
128
 71
21
 72
26
 73
27
 74
28
 0
VERTEX
 8
0
 10
0
 20
0.305
 30
0
 70
128
 71
28
 72
29
 73
30
 74
22
 0
VERTEX
 8
0
 10
0
 20
0.305
 30
0
 70
128
 71
37
 72
30
 73
35
 74
42
 0
VERTEX
 8
0
 10
0
 20
0.305
 30
0
 70
128
 71
31
 72
32
 73
37
 74
33
 0
VERTEX
 8
0
 10
0
 20
0.305
 30
0
 70
128
 71
27
 72
26
 73
23
 74
31
 0
VERTEX
 8
0
 10
0
 20
0.305
 30
0
 70
128
 71
28
 72
27
 73
34
 74
29
 0
VERTEX
 8
0
 10
0
 20
0.305
 30
0
 70
128
 71
29
 72
39
 73
35
 74
30
 0
VERTEX
 8
0
 10
0
 20
0.305
 30
0
 70
128
 71
42
 72
35
 73
40
 74
36
 0
VERTEX
 8
0
 10
0
 20
0.305
 30
0
 70
128
 71
33
 72
37
 73
42
 74
44
 0
VERTEX
 8
0
 10
0
 20
0.305
 30
0
 70
128
 71
34
 72
27
 73
31
 74
33
 0
VERTEX
 8
0
 10
0
 20
0.305
 30
0
 70
128
 71
29
 72
34
 73
38
 74
39
 0
VERTEX
 8
0
 10
0
 20
0.305
 30
0
 70
128
 71
39
 72
46
 73
40
 74
35
 0
VERTEX
 8
0
 10
0
 20
0.305
 30
0
 70
128
 71
36
 72
40
 73
47
 74
41
 0
VERTEX
 8
0
 10
0
 20
0.305
 30
0
 70
128
 71
44
 72
42
 73
36
 74
43
 0
VERTEX
 8
0
 10
0
 20
0.305
 30
0
 70
128
 71
38
 72
34
 73
33
 74
44
 0
VERTEX
 8
0
 10
0
 20
0.305
 30
0
 70
128
 71
39
 72
38
 73
45
 74
46
 0
VERTEX
 8
0
 10
0
 20
0.305
 30
0
 70
128
 71
46
 72
50
 73
47
 74
40
 0
VERTEX
 8
0
 10
0
 20
0.305
 30
0
 70
128
 71
41
 72
47
 73
48
 74
52
 0
VERTEX
 8
0
 10
0
 20
0.305
 30
0
 70
128
 71
43
 72
36
 73
41
 74
51
 0
VERTEX
 8
0
 10
0
 20
0.305
 30
0
 70
128
 71
45
 72
38
 73
44
 74
43
 0
VERTEX
 8
0
 10
0
 20
0.305
 30
0
 70
128
 71
46
 72
45
 73
49
 74
50
 0
VERTEX
 8
0
 10
0
 20
0.305
 30
0
 70
128
 71
50
 72
53
 73
48
 74
47
 0
VERTEX
 8
0
 10
0
 20
0.305
 30
0
 70
128
 71
52
 72
48
 73
54
 74
55
 0
VERTEX
 8
0
 10
0
 20
0.305
 30
0
 70
128
 71
51
 72
41
 73
52
 74
57
 0
VERTEX
 8
0
 10
0
 20
0.305
 30
0
 70
128
 71
43
 72
51
 73
49
 74
45
 0
VERTEX
 8
0
 10
0
 20
0.305
 30
0
 70
128
 71
50
 72
49
 73
58
 74
53
 0
VERTEX
 8
0
 10
0
 20
0.305
 30
0
 70
128
 71
53
 72
60
 73
54
 74
48
 0
VERTEX
 8
0
 10
0
 20
0.305
 30
0
 70
128
 71
55
 72
54
 73
56
 74
67
 0
VERTEX
 8
0
 10
0
 20
0.305
 30
0
 70
128
 71
57
 72
52
 73
55
 74
62
 0
VERTEX
 8
0
 10
0
 20
0.305
 30
0
 70
128
 71
51
 72
57
 73
58
 74
49
 0
VERTEX
 8
0
 10
0
 20
0.305
 30
0
 70
128
 71
53
 72
58
 73
59
 74
60
 0
VERTEX
 8
0
 10
0
 20
0.305
 30
0
 70
128
 71
60
 72
64
 73
56
 74
54
 0
VERTEX
 8
0
 10
0
 20
0.305
 30
0
 70
128
 71
65
 72
61
 73
67
 74
56
 0
VERTEX
 8
0
 10
0
 20
0.305
 30
0
 70
128
 71
62
 72
55
 73
67
 74
66
 0
VERTEX
 8
0
 10
0
 20
0.305
 30
0
 70
128
 71
57
 72
62
 73
59
 74
58
 0
VERTEX
 8
0
 10
0
 20
0.305
 30
0
 70
128
 71
60
 72
59
 73
63
 74
64
 0
VERTEX
 8
0
 10
0
 20
0.305
 30
0
 70
128
 71
64
 72
69
 73
65
 74
56
 0
VERTEX
 8
0
 10
0
 20
0.305
 30
0
 70
128
 71
71
 72
72
 73
61
 74
65
 0
VERTEX
 8
0
 10
0
 20
0.305
 30
0
 70
128
 71
61
 72
73
 73
66
 74
67
 0
VERTEX
 8
0
 10
0
 20
0.305
 30
0
 70
128
 71
62
 72
66
 73
63
 74
59
 0
VERTEX
 8
0
 10
0
 20
0.305
 30
0
 70
128
 71
68
 72
69
 73
64
 74
63
 0
VERTEX
 8
0
 10
0
 20
0.305
 30
0
 70
128
 71
69
 72
78
 73
71
 74
65
 0
VERTEX
 8
0
 10
0
 20
0.305
 30
0
 70
128
 71
70
 72
74
 73
72
 74
71
 0
VERTEX
 8
0
 10
0
 20
0.305
 30
0
 70
128
 71
72
 72
75
 73
73
 74
61
 0
VERTEX
 8
0
 10
0
 20
0.305
 30
0
 70
128
 71
66
 72
73
 73
68
 74
63
 0
VERTEX
 8
0
 10
0
 20
0.305
 30
0
 70
128
 71
76
 72
78
 73
69
 74
68
 0
VERTEX
 8
0
 10
0
 20
0.305
 30
0
 70
128
 71
78
 72
77
 73
70
 74
71
 0
VERTEX
 8
0
 10
0
 20
0.305
 30
0
 70
128
 71
80
 72
81
 73
74
 74
70
 0
VERTEX
 8
0
 10
0
 20
0.305
 30
0
 70
128
 71
74
 72
83
 73
75
 74
72
 0
VERTEX
 8
0
 10
0
 20
0.305
 30
0
 70
128
 71
73
 72
75
 73
76
 74
68
 0
VERTEX
 8
0
 10
0
 20
0.305
 30
0
 70
128
 71
85
 72
77
 73
78
 74
76
 0
VERTEX
 8
0
 10
0
 20
0.305
 30
0
 70
128
 71
77
 72
79
 73
80
 74
70
 0
VERTEX
 8
0
 10
0
 20
0.305
 30
0
 70
128
 71
88
 72
87
 73
81
 74
80
 0
VERTEX
 8
0
 10
0
 20
0.305
 30
0
 70
128
 71
81
 72
82
 73
83
 74
74
 0
VERTEX
 8
0
 10
0
 20
0.305
 30
0
 70
128
 71
75
 72
83
 73
85
 74
76
 0
VERTEX
 8
0
 10
0
 20
0.305
 30
0
 70
128
 71
84
 72
79
 73
77
 74
85
 0
VERTEX
 8
0
 10
0
 20
0.305
 30
0
 70
128
 71
79
 72
90
 73
88
 74
80
 0
VERTEX
 8
0
 10
0
 20
0.305
 30
0
 70
128
 71
93
 72
86
 73
87
 74
88
 0
VERTEX
 8
0
 10
0
 20
0.305
 30
0
 70
128
 71
87
 72
94
 73
82
 74
81
 0
VERTEX
 8
0
 10
0
 20
0.305
 30
0
 70
128
 71
83
 72
82
 73
84
 74
85
 0
VERTEX
 8
0
 10
0
 20
0.305
 30
0
 70
128
 71
89
 72
90
 73
79
 74
84
 0
VERTEX
 8
0
 10
0
 20
0.305
 30
0
 70
128
 71
90
 72
91
 73
93
 74
88
 0
VERTEX
 8
0
 10
0
 20
0.305
 30
0
 70
128
 71
92
 72
102
 73
86
 74
93
 0
VERTEX
 8
0
 10
0
 20
0.305
 30
0
 70
128
 71
86
 72
97
 73
94
 74
87
 0
VERTEX
 8
0
 10
0
 20
0.305
 30
0
 70
128
 71
89
 72
84
 73
82
 74
94
 0
VERTEX
 8
0
 10
0
 20
0.305
 30
0
 70
128
 71
98
 72
91
 73
90
 74
89
 0
VERTEX
 8
0
 10
0
 20
0.305
 30
0
 70
128
 71
91
 72
95
 73
92
 74
93
 0
VERTEX
 8
0
 10
0
 20
0.305
 30
0
 70
128
 71
96
 72
100
 73
102
 74
92
 0
VERTEX
 8
0
 10
0
 20
0.305
 30
0
 70
128
 71
102
 72
103
 73
97
 74
86
 0
VERTEX
 8
0
 10
0
 20
0.305
 30
0
 70
128
 71
98
 72
89
 73
94
 74
97
 0
VERTEX
 8
0
 10
0
 20
0.305
 30
0
 70
128
 71
99
 72
95
 73
91
 74
98
 0
VERTEX
 8
0
 10
0
 20
0.305
 30
0
 70
128
 71
95
 72
108
 73
96
 74
92
 0
VERTEX
 8
0
 10
0
 20
0.305
 30
0
 70
128
 71
105
 72
106
 73
100
 74
96
 0
VERTEX
 8
0
 10
0
 20
0.305
 30
0
 70
128
 71
100
 72
101
 73
103
 74
102
 0
VERTEX
 8
0
 10
0
 20
0.305
 30
0
 70
128
 71
97
 72
103
 73
99
 74
98
 0
VERTEX
 8
0
 10
0
 20
0.305
 30
0
 70
128
 71
107
 72
108
 73
95
 74
99
 0
VERTEX
 8
0
 10
0
 20
0.305
 30
0
 70
128
 71
108
 72
104
 73
105
 74
96
 0
VERTEX
 8
0
 10
0
 20
0.305
 30
0
 70
128
 71
111
 72
112
 73
106
 74
105
 0
VERTEX
 8
0
 10
0
 20
0.305
 30
0
 70
128
 71
106
 72
113
 73
101
 74
100
 0
VERTEX
 8
0
 10
0
 20
0.305
 30
0
 70
128
 71
103
 72
101
 73
107
 74
99
 0
VERTEX
 8
0
 10
0
 20
0.305
 30
0
 70
128
 71
114
 72
104
 73
108
 74
107
 0
VERTEX
 8
0
 10
0
 20
0.305
 30
0
 70
128
 71
104
 72
109
 73
111
 74
105
 0
VERTEX
 8
0
 10
0
 20
0.305
 30
0
 70
128
 71
110
 72
117
 73
112
 74
111
 0
VERTEX
 8
0
 10
0
 20
0.305
 30
0
 70
128
 71
112
 72
119
 73
113
 74
106
 0
VERTEX
 8
0
 10
0
 20
0.305
 30
0
 70
128
 71
101
 72
113
 73
114
 74
107
 0
VERTEX
 8
0
 10
0
 20
0.305
 30
0
 70
128
 71
115
 72
109
 73
104
 74
114
 0
VERTEX
 8
0
 10
0
 20
0.305
 30
0
 70
128
 71
109
 72
120
 73
110
 74
111
 0
VERTEX
 8
0
 10
0
 20
0.305
 30
0
 70
128
 71
116
 72
121
 73
117
 74
110
 0
VERTEX
 8
0
 10
0
 20
0.305
 30
0
 70
128
 71
117
 72
118
 73
119
 74
112
 0
VERTEX
 8
0
 10
0
 20
0.305
 30
0
 70
128
 71
113
 72
119
 73
115
 74
114
 0
VERTEX
 8
0
 10
0
 20
0.305
 30
0
 70
128
 71
124
 72
120
 73
109
 74
115
 0
VERTEX
 8
0
 10
0
 20
0.305
 30
0
 70
128
 71
116
 72
110
 73
120
 74
123
 0
VERTEX
 8
0
 10
0
 20
0.305
 30
0
 70
128
 71
121
 72
116
 73
123
 74
122
 0
VERTEX
 8
0
 10
0
 20
0.305
 30
0
 70
128
 71
121
 72
125
 73
118
 74
117
 0
VERTEX
 8
0
 10
0
 20
0.305
 30
0
 70
128
 71
124
 72
115
 73
119
 74
118
 0
VERTEX
 8
0
 10
0
 20
0.305
 30
0
 70
128
 71
122
 72
123
 73
120
 74
124
 0
VERTEX
 8
0
 10
0
 20
0.305
 30
0
 70
128
 71
122
 72
125
 73
121
 0
VERTEX
 8
0
 10
0
 20
0.305
 30
0
 70
128
 71
124
 72
118
 73
125
 74
122
 0
SEQEND
 8
0
 0
POLYLINE
 8
0
 70
64
 66
1
 10
0
 20
0.305
 30
0
 71
8
 72
6
 0
VERTEX
 8
0
 10
1.9098002910614
 20
0.6352
 30
0.0821
 70
192
 0
VERTEX
 8
0
 10
1.9098002910614
 20
0.6352
 30
-1.21116636719876e-08
 70
192
 0
VERTEX
 8
0
 10
1.9098002910614
 20
-0.0252
 30
-1.21116636719876e-08
 70
192
 0
VERTEX
 8
0
 10
1.9098002910614
 20
-0.0252
 30
0.0821
 70
192
 0
VERTEX
 8
0
 10
2.24
 20
0.6352
 30
0.0821
 70
192
 0
VERTEX
 8
0
 10
2.24
 20
0.6352
 30
-1.21116636719876e-08
 70
192
 0
VERTEX
 8
0
 10
2.24
 20
-0.0252
 30
0.0821
 70
192
 0
VERTEX
 8
0
 10
2.24
 20
-0.0252
 30
-1.21116636719876e-08
 70
192
 0
VERTEX
 8
0
 10
0
 20
0.305
 30
0
 70
128
 71
4
 72
1
 73
2
 74
3
 0
VERTEX
 8
0
 10
0
 20
0.305
 30
0
 70
128
 71
1
 72
4
 73
7
 74
5
 0
VERTEX
 8
0
 10
0
 20
0.305
 30
0
 70
128
 71
1
 72
5
 73
6
 74
2
 0
VERTEX
 8
0
 10
0
 20
0.305
 30
0
 70
128
 71
3
 72
2
 73
6
 74
8
 0
VERTEX
 8
0
 10
0
 20
0.305
 30
0
 70
128
 71
7
 72
4
 73
3
 74
8
 0
VERTEX
 8
0
 10
0
 20
0.305
 30
0
 70
128
 71
5
 72
7
 73
8
 74
6
 0
SEQEND
 8
0
 0
POLYLINE
 8
0
 70
64
 66
1
 10
0
 20
0.305
 30
0
 71
8
 72
6
 0
VERTEX
 8
0
 10
1.88440024852753
 20
0.6606
 30
2.0125
 70
192
 0
VERTEX
 8
0
 10
1.88440024852753
 20
0.6606
 30
1.8093
 70
192
 0
VERTEX
 8
0
 10
1.88440024852753
 20
-0.0506
 30
1.8093
 70
192
 0
VERTEX
 8
0
 10
1.88440024852753
 20
-0.0506
 30
2.0125
 70
192
 0
VERTEX
 8
0
 10
2.24
 20
0.6606
 30
2.0125
 70
192
 0
VERTEX
 8
0
 10
2.24
 20
0.6606
 30
1.8093
 70
192
 0
VERTEX
 8
0
 10
2.24
 20
-0.0506
 30
2.0125
 70
192
 0
VERTEX
 8
0
 10
2.24
 20
-0.0506
 30
1.8093
 70
192
 0
VERTEX
 8
0
 10
0
 20
0.305
 30
0
 70
128
 71
4
 72
1
 73
2
 74
3
 0
VERTEX
 8
0
 10
0
 20
0.305
 30
0
 70
128
 71
1
 72
4
 73
7
 74
5
 0
VERTEX
 8
0
 10
0
 20
0.305
 30
0
 70
128
 71
1
 72
5
 73
6
 74
2
 0
VERTEX
 8
0
 10
0
 20
0.305
 30
0
 70
128
 71
3
 72
2
 73
6
 74
8
 0
VERTEX
 8
0
 10
0
 20
0.305
 30
0
 70
128
 71
7
 72
4
 73
3
 74
8
 0
VERTEX
 8
0
 10
0
 20
0.305
 30
0
 70
128
 71
5
 72
7
 73
8
 74
6
 0
SEQEND
 8
0
 0
POLYLINE
 8
0
 70
64
 66
1
 10
0
 20
0.305
 30
0
 71
8
 72
6
 0
VERTEX
 8
0
 10
-0.3
 20
0.6606
 30
2.0125
 70
192
 0
VERTEX
 8
0
 10
-0.3
 20
0.6606
 30
1.8093
 70
192
 0
VERTEX
 8
0
 10
-0.3
 20
-0.0506
 30
1.8093
 70
192
 0
VERTEX
 8
0
 10
-0.3
 20
-0.0506
 30
2.0125
 70
192
 0
VERTEX
 8
0
 10
0.0556
 20
0.6606
 30
2.0125
 70
192
 0
VERTEX
 8
0
 10
0.0556
 20
0.6606
 30
1.8093
 70
192
 0
VERTEX
 8
0
 10
0.0556
 20
-0.0506
 30
2.0125
 70
192
 0
VERTEX
 8
0
 10
0.0556
 20
-0.0506
 30
1.8093
 70
192
 0
VERTEX
 8
0
 10
0
 20
0.305
 30
0
 70
128
 71
4
 72
1
 73
2
 74
3
 0
VERTEX
 8
0
 10
0
 20
0.305
 30
0
 70
128
 71
1
 72
4
 73
7
 74
5
 0
VERTEX
 8
0
 10
0
 20
0.305
 30
0
 70
128
 71
1
 72
5
 73
6
 74
2
 0
VERTEX
 8
0
 10
0
 20
0.305
 30
0
 70
128
 71
3
 72
2
 73
6
 74
8
 0
VERTEX
 8
0
 10
0
 20
0.305
 30
0
 70
128
 71
7
 72
4
 73
3
 74
8
 0
VERTEX
 8
0
 10
0
 20
0.305
 30
0
 70
128
 71
5
 72
7
 73
8
 74
6
 0
SEQEND
 8
0
 0
POLYLINE
 8
0
 70
64
 66
1
 10
0
 20
0.305
 30
0
 71
101
 72
102
 0
VERTEX
 8
0
 10
-2.42233273439751e-08
 20
0
 30
2.14020276069641
 70
192
 0
VERTEX
 8
0
 10
-2.42233273439751e-08
 20
0
 30
2.27241086959839
 70
192
 0
VERTEX
 8
0
 10
-2.42233273439751e-08
 20
0.61
 30
2.14020276069641
 70
192
 0
VERTEX
 8
0
 10
-2.42233273439751e-08
 20
0
 30
2.0125
 70
192
 0
VERTEX
 8
0
 10
0.0376884937286377
 20
0
 30
2.26231217384338
 70
192
 0
VERTEX
 8
0
 10
-2.42233273439751e-08
 20
0
 30
2.57252979278564
 70
192
 0
VERTEX
 8
0
 10
-2.42233273439751e-08
 20
0
 30
2.41428709030151
 70
192
 0
VERTEX
 8
0
 10
-2.42233273439751e-08
 20
0.61
 30
2.41428709030151
 70
192
 0
VERTEX
 8
0
 10
0.0376884937286377
 20
0.61
 30
2.26231217384338
 70
192
 0
VERTEX
 8
0
 10
-2.42233273439751e-08
 20
0.61
 30
2.27241086959839
 70
192
 0
VERTEX
 8
0
 10
0.0130576090887189
 20
0.61
 30
2.13848376274109
 70
192
 0
VERTEX
 8
0
 10
0.0048
 20
0
 30
2.0125
 70
192
 0
VERTEX
 8
0
 10
0.0130576090887189
 20
0
 30
2.13848376274109
 70
192
 0
VERTEX
 8
0
 10
0.0048
 20
0.61
 30
2.0125
 70
192
 0
VERTEX
 8
0
 10
0.134112238883972
 20
0.61
 30
2.4951
 70
192
 0
VERTEX
 8
0
 10
0.134112238883972
 20
0
 30
2.4951
 70
192
 0
VERTEX
 8
0
 10
0.0782716050744057
 20
0
 30
2.38186597824097
 70
192
 0
VERTEX
 8
0
 10
0.0782716050744057
 20
0.61
 30
2.38186597824097
 70
192
 0
VERTEX
 8
0
 10
-2.42233273439751e-08
 20
0.61
 30
2.0125
 70
192
 0
VERTEX
 8
0
 10
-2.42233273439751e-08
 20
0
 30
2.75680708885193
 70
192
 0
VERTEX
 8
0
 10
-2.42233273439751e-08
 20
0.61
 30
2.75680708885193
 70
192
 0
VERTEX
 8
0
 10
0.204255342483521
 20
0
 30
2.6
 70
192
 0
VERTEX
 8
0
 10
-2.42233273439751e-08
 20
0.61
 30
2.57252979278564
 70
192
 0
VERTEX
 8
0
 10
0.382423639297485
 20
0
 30
2.77824473381042
 70
192
 0
VERTEX
 8
0
 10
-2.42233273439751e-08
 20
0
 30
2.99999976158142
 70
192
 0
VERTEX
 8
0
 10
0.287500530481339
 20
0
 30
2.695
 70
192
 0
VERTEX
 8
0
 10
0.204255342483521
 20
0.61
 30
2.6
 70
192
 0
VERTEX
 8
0
 10
0.212264731526375
 20
0.61
 30
2.99999976158142
 70
192
 0
VERTEX
 8
0
 10
-2.42233273439751e-08
 20
0.61
 30
2.99999976158142
 70
192
 0
VERTEX
 8
0
 10
0.287500530481339
 20
0.61
 30
2.695
 70
192
 0
VERTEX
 8
0
 10
0.600634038448334
 20
0
 30
2.9042284488678
 70
192
 0
VERTEX
 8
0
 10
0.212264731526375
 20
0
 30
2.99999976158142
 70
192
 0
VERTEX
 8
0
 10
0.4874
 20
0
 30
2.84838771820068
 70
192
 0
VERTEX
 8
0
 10
0.382423639297485
 20
0.61
 30
2.77824473381042
 70
192
 0
VERTEX
 8
0
 10
0.705400168895721
 20
0
 30
2.99999976158142
 70
192
 0
VERTEX
 8
0
 10
0.399866551160812
 20
0
 30
2.99999976158142
 70
192
 0
VERTEX
 8
0
 10
0.560963988304138
 20
0
 30
2.99999976158142
 70
192
 0
VERTEX
 8
0
 10
0.560963988304138
 20
0.61
 30
2.99999976158142
 70
192
 0
VERTEX
 8
0
 10
0.4874
 20
0.61
 30
2.84838771820068
 70
192
 0
VERTEX
 8
0
 10
0.399866551160812
 20
0.61
 30
2.99999976158142
 70
192
 0
VERTEX
 8
0
 10
0.844016015529633
 20
0
 30
2.96944236755371
 70
192
 0
VERTEX
 8
0
 10
0.84
 20
0
 30
2.99999976158142
 70
192
 0
VERTEX
 8
0
 10
0.705400168895721
 20
0.61
 30
2.99999976158142
 70
192
 0
VERTEX
 8
0
 10
0.600634038448334
 20
0.61
 30
2.9042284488678
 70
192
 0
VERTEX
 8
0
 10
0.720188021659851
 20
0
 30
2.94481158256531
 70
192
 0
VERTEX
 8
0
 10
0.720188021659851
 20
0.61
 30
2.94481158256531
 70
192
 0
VERTEX
 8
0
 10
0.97
 20
0.61
 30
2.9777
 70
192
 0
VERTEX
 8
0
 10
1.1
 20
0
 30
2.99999976158142
 70
192
 0
VERTEX
 8
0
 10
0.97
 20
0
 30
2.99999976158142
 70
192
 0
VERTEX
 8
0
 10
0.84
 20
0.61
 30
2.99999976158142
 70
192
 0
VERTEX
 8
0
 10
0.842394292354584
 20
0.61
 30
2.98176264762878
 70
192
 0
VERTEX
 8
0
 10
0.844016015529633
 20
0.61
 30
2.96944236755371
 70
192
 0
VERTEX
 8
0
 10
1.09598410129547
 20
0.61
 30
2.96944236755371
 70
192
 0
VERTEX
 8
0
 10
0.97
 20
0
 30
2.9777
 70
192
 0
VERTEX
 8
0
 10
0.97
 20
0.61
 30
2.99999976158142
 70
192
 0
VERTEX
 8
0
 10
1.2346
 20
0
 30
2.99999976158142
 70
192
 0
VERTEX
 8
0
 10
1.09598410129547
 20
0
 30
2.96944236755371
 70
192
 0
VERTEX
 8
0
 10
1.21981203556061
 20
0.61
 30
2.94481158256531
 70
192
 0
VERTEX
 8
0
 10
1.1
 20
0.61
 30
2.99999976158142
 70
192
 0
VERTEX
 8
0
 10
1.2346
 20
0.61
 30
2.99999976158142
 70
192
 0
VERTEX
 8
0
 10
1.21981203556061
 20
0
 30
2.94481158256531
 70
192
 0
VERTEX
 8
0
 10
1.37903594970703
 20
0
 30
2.99999976158142
 70
192
 0
VERTEX
 8
0
 10
1.37903594970703
 20
0.61
 30
2.99999976158142
 70
192
 0
VERTEX
 8
0
 10
1.33936607837677
 20
0
 30
2.9042284488678
 70
192
 0
VERTEX
 8
0
 10
1.33936607837677
 20
0.61
 30
2.9042284488678
 70
192
 0
VERTEX
 8
0
 10
1.54013347625732
 20
0
 30
2.99999976158142
 70
192
 0
VERTEX
 8
0
 10
1.54013347625732
 20
0.61
 30
2.99999976158142
 70
192
 0
VERTEX
 8
0
 10
1.55757641792297
 20
0
 30
2.77824473381042
 70
192
 0
VERTEX
 8
0
 10
1.45260012149811
 20
0
 30
2.84838771820068
 70
192
 0
VERTEX
 8
0
 10
1.45260012149811
 20
0.61
 30
2.84838771820068
 70
192
 0
VERTEX
 8
0
 10
1.72773540019989
 20
0
 30
2.99999976158142
 70
192
 0
VERTEX
 8
0
 10
1.65249955654144
 20
0
 30
2.695
 70
192
 0
VERTEX
 8
0
 10
1.72773540019989
 20
0.61
 30
2.99999976158142
 70
192
 0
VERTEX
 8
0
 10
1.55757641792297
 20
0.61
 30
2.77824473381042
 70
192
 0
VERTEX
 8
0
 10
1.94
 20
0
 30
2.75680708885193
 70
192
 0
VERTEX
 8
0
 10
1.73574483394623
 20
0
 30
2.6
 70
192
 0
VERTEX
 8
0
 10
1.94
 20
0
 30
2.99999976158142
 70
192
 0
VERTEX
 8
0
 10
1.65249955654144
 20
0.61
 30
2.695
 70
192
 0
VERTEX
 8
0
 10
1.94
 20
0.61
 30
2.99999976158142
 70
192
 0
VERTEX
 8
0
 10
1.94
 20
0
 30
2.57252979278564
 70
192
 0
VERTEX
 8
0
 10
1.80588781833649
 20
0
 30
2.4951
 70
192
 0
VERTEX
 8
0
 10
1.94
 20
0.61
 30
2.75680708885193
 70
192
 0
VERTEX
 8
0
 10
1.73574483394623
 20
0.61
 30
2.6
 70
192
 0
VERTEX
 8
0
 10
1.94
 20
0.61
 30
2.57252979278564
 70
192
 0
VERTEX
 8
0
 10
1.80588781833649
 20
0.61
 30
2.4951
 70
192
 0
VERTEX
 8
0
 10
1.94
 20
0
 30
2.41428709030151
 70
192
 0
VERTEX
 8
0
 10
1.94
 20
0.61
 30
2.41428709030151
 70
192
 0
VERTEX
 8
0
 10
1.90231156349182
 20
0
 30
2.26231217384338
 70
192
 0
VERTEX
 8
0
 10
1.94
 20
0
 30
2.27241086959839
 70
192
 0
VERTEX
 8
0
 10
1.86172842979431
 20
0.61
 30
2.38186597824097
 70
192
 0
VERTEX
 8
0
 10
1.86172842979431
 20
0
 30
2.38186597824097
 70
192
 0
VERTEX
 8
0
 10
1.94
 20
0.61
 30
2.27241086959839
 70
192
 0
VERTEX
 8
0
 10
1.90231156349182
 20
0.61
 30
2.26231217384338
 70
192
 0
VERTEX
 8
0
 10
1.94
 20
0
 30
2.14020276069641
 70
192
 0
VERTEX
 8
0
 10
1.94
 20
0.61
 30
2.14020276069641
 70
192
 0
VERTEX
 8
0
 10
1.9352
 20
0
 30
2.0125
 70
192
 0
VERTEX
 8
0
 10
1.94
 20
0
 30
2.0125
 70
192
 0
VERTEX
 8
0
 10
1.92694246768951
 20
0.61
 30
2.13848376274109
 70
192
 0
VERTEX
 8
0
 10
1.92694246768951
 20
0
 30
2.13848376274109
 70
192
 0
VERTEX
 8
0
 10
1.94
 20
0.61
 30
2.0125
 70
192
 0
VERTEX
 8
0
 10
1.9352
 20
0.61
 30
2.0125
 70
192
 0
VERTEX
 8
0
 10
0
 20
0.305
 30
0
 70
128
 71
1
 72
13
 73
5
 74
2
 0
VERTEX
 8
0
 10
0
 20
0.305
 30
0
 70
128
 71
17
 72
7
 73
2
 74
5
 0
VERTEX
 8
0
 10
0
 20
0.305
 30
0
 70
128
 71
3
 72
1
 73
2
 74
10
 0
VERTEX
 8
0
 10
0
 20
0.305
 30
0
 70
128
 71
13
 72
1
 73
4
 74
12
 0
VERTEX
 8
0
 10
0
 20
0.305
 30
0
 70
128
 71
9
 72
5
 73
13
 74
11
 0
VERTEX
 8
0
 10
0
 20
0.305
 30
0
 70
128
 71
16
 72
6
 73
7
 74
17
 0
VERTEX
 8
0
 10
0
 20
0.305
 30
0
 70
128
 71
7
 72
8
 73
10
 74
2
 0
VERTEX
 8
0
 10
0
 20
0.305
 30
0
 70
128
 71
18
 72
17
 73
5
 74
9
 0
VERTEX
 8
0
 10
0
 20
0.305
 30
0
 70
128
 71
10
 72
9
 73
11
 74
3
 0
VERTEX
 8
0
 10
0
 20
0.305
 30
0
 70
128
 71
1
 72
3
 73
19
 74
4
 0
VERTEX
 8
0
 10
0
 20
0.305
 30
0
 70
128
 71
4
 72
19
 73
14
 74
12
 0
VERTEX
 8
0
 10
0
 20
0.305
 30
0
 70
128
 71
11
 72
13
 73
12
 74
14
 0
VERTEX
 8
0
 10
0
 20
0.305
 30
0
 70
128
 71
22
 72
20
 73
6
 74
16
 0
VERTEX
 8
0
 10
0
 20
0.305
 30
0
 70
128
 71
6
 72
23
 73
8
 74
7
 0
VERTEX
 8
0
 10
0
 20
0.305
 30
0
 70
128
 71
15
 72
16
 73
17
 74
18
 0
VERTEX
 8
0
 10
0
 20
0.305
 30
0
 70
128
 71
8
 72
18
 73
9
 74
10
 0
VERTEX
 8
0
 10
0
 20
0.305
 30
0
 70
128
 71
3
 72
11
 73
14
 74
19
 0
VERTEX
 8
0
 10
0
 20
0.305
 30
0
 70
128
 71
26
 72
25
 73
20
 74
22
 0
VERTEX
 8
0
 10
0
 20
0.305
 30
0
 70
128
 71
20
 72
21
 73
23
 74
6
 0
VERTEX
 8
0
 10
0
 20
0.305
 30
0
 70
128
 71
27
 72
22
 73
16
 74
15
 0
VERTEX
 8
0
 10
0
 20
0.305
 30
0
 70
128
 71
23
 72
15
 73
18
 74
8
 0
VERTEX
 8
0
 10
0
 20
0.305
 30
0
 70
128
 71
24
 72
32
 73
25
 74
26
 0
VERTEX
 8
0
 10
0
 20
0.305
 30
0
 70
128
 71
20
 72
25
 73
29
 74
21
 0
VERTEX
 8
0
 10
0
 20
0.305
 30
0
 70
128
 71
30
 72
26
 73
22
 74
27
 0
VERTEX
 8
0
 10
0
 20
0.305
 30
0
 70
128
 71
21
 72
27
 73
15
 74
23
 0
VERTEX
 8
0
 10
0
 20
0.305
 30
0
 70
128
 71
33
 72
36
 73
32
 74
24
 0
VERTEX
 8
0
 10
0
 20
0.305
 30
0
 70
128
 71
25
 72
32
 73
28
 74
29
 0
VERTEX
 8
0
 10
0
 20
0.305
 30
0
 70
128
 71
34
 72
24
 73
26
 74
30
 0
VERTEX
 8
0
 10
0
 20
0.305
 30
0
 70
128
 71
29
 72
30
 73
27
 74
21
 0
VERTEX
 8
0
 10
0
 20
0.305
 30
0
 70
128
 71
31
 72
37
 73
36
 74
33
 0
VERTEX
 8
0
 10
0
 20
0.305
 30
0
 70
128
 71
32
 72
36
 73
40
 74
28
 0
VERTEX
 8
0
 10
0
 20
0.305
 30
0
 70
128
 71
39
 72
33
 73
24
 74
34
 0
VERTEX
 8
0
 10
0
 20
0.305
 30
0
 70
128
 71
28
 72
34
 73
30
 74
29
 0
VERTEX
 8
0
 10
0
 20
0.305
 30
0
 70
128
 71
45
 72
35
 73
37
 74
31
 0
VERTEX
 8
0
 10
0
 20
0.305
 30
0
 70
128
 71
36
 72
37
 73
38
 74
40
 0
VERTEX
 8
0
 10
0
 20
0.305
 30
0
 70
128
 71
44
 72
31
 73
33
 74
39
 0
VERTEX
 8
0
 10
0
 20
0.305
 30
0
 70
128
 71
40
 72
39
 73
34
 74
28
 0
VERTEX
 8
0
 10
0
 20
0.305
 30
0
 70
128
 71
41
 72
42
 73
35
 74
45
 0
VERTEX
 8
0
 10
0
 20
0.305
 30
0
 70
128
 71
37
 72
35
 73
43
 74
38
 0
VERTEX
 8
0
 10
0
 20
0.305
 30
0
 70
128
 71
46
 72
45
 73
31
 74
44
 0
VERTEX
 8
0
 10
0
 20
0.305
 30
0
 70
128
 71
38
 72
44
 73
39
 74
40
 0
VERTEX
 8
0
 10
0
 20
0.305
 30
0
 70
128
 71
41
 72
54
 73
49
 74
42
 0
VERTEX
 8
0
 10
0
 20
0.305
 30
0
 70
128
 71
35
 72
42
 73
50
 74
43
 0
VERTEX
 8
0
 10
0
 20
0.305
 30
0
 70
128
 71
52
 72
41
 73
45
 74
46
 0
VERTEX
 8
0
 10
0
 20
0.305
 30
0
 70
128
 71
43
 72
46
 73
44
 74
38
 0
VERTEX
 8
0
 10
0
 20
0.305
 30
0
 70
128
 71
47
 72
54
 73
41
 74
52
 0
VERTEX
 8
0
 10
0
 20
0.305
 30
0
 70
128
 71
54
 72
57
 73
48
 74
49
 0
VERTEX
 8
0
 10
0
 20
0.305
 30
0
 70
128
 71
42
 72
49
 73
55
 74
50
 0
VERTEX
 8
0
 10
0
 20
0.305
 30
0
 70
128
 71
43
 72
50
 73
51
 0
VERTEX
 8
0
 10
0
 20
0.305
 30
0
 70
128
 71
51
 72
52
 73
46
 0
VERTEX
 8
0
 10
0
 20
0.305
 30
0
 70
128
 71
51
 72
46
 73
43
 0
VERTEX
 8
0
 10
0
 20
0.305
 30
0
 70
128
 71
53
 72
57
 73
54
 74
47
 0
VERTEX
 8
0
 10
0
 20
0.305
 30
0
 70
128
 71
55
 72
47
 73
52
 0
VERTEX
 8
0
 10
0
 20
0.305
 30
0
 70
128
 71
51
 72
50
 73
55
 0
VERTEX
 8
0
 10
0
 20
0.305
 30
0
 70
128
 71
52
 72
51
 73
55
 0
VERTEX
 8
0
 10
0
 20
0.305
 30
0
 70
128
 71
56
 72
48
 73
57
 74
61
 0
VERTEX
 8
0
 10
0
 20
0.305
 30
0
 70
128
 71
49
 72
48
 73
59
 74
55
 0
VERTEX
 8
0
 10
0
 20
0.305
 30
0
 70
128
 71
57
 72
53
 73
58
 74
61
 0
VERTEX
 8
0
 10
0
 20
0.305
 30
0
 70
128
 71
53
 72
47
 73
55
 74
59
 0
VERTEX
 8
0
 10
0
 20
0.305
 30
0
 70
128
 71
48
 72
56
 73
60
 74
59
 0
VERTEX
 8
0
 10
0
 20
0.305
 30
0
 70
128
 71
61
 72
64
 73
62
 74
56
 0
VERTEX
 8
0
 10
0
 20
0.305
 30
0
 70
128
 71
59
 72
60
 73
58
 74
53
 0
VERTEX
 8
0
 10
0
 20
0.305
 30
0
 70
128
 71
61
 72
58
 73
65
 74
64
 0
VERTEX
 8
0
 10
0
 20
0.305
 30
0
 70
128
 71
56
 72
62
 73
63
 74
60
 0
VERTEX
 8
0
 10
0
 20
0.305
 30
0
 70
128
 71
66
 72
62
 73
64
 74
69
 0
VERTEX
 8
0
 10
0
 20
0.305
 30
0
 70
128
 71
65
 72
58
 73
60
 74
63
 0
VERTEX
 8
0
 10
0
 20
0.305
 30
0
 70
128
 71
64
 72
65
 73
70
 74
69
 0
VERTEX
 8
0
 10
0
 20
0.305
 30
0
 70
128
 71
62
 72
66
 73
67
 74
63
 0
VERTEX
 8
0
 10
0
 20
0.305
 30
0
 70
128
 71
71
 72
66
 73
69
 74
68
 0
VERTEX
 8
0
 10
0
 20
0.305
 30
0
 70
128
 71
63
 72
67
 73
70
 74
65
 0
VERTEX
 8
0
 10
0
 20
0.305
 30
0
 70
128
 71
69
 72
70
 73
74
 74
68
 0
VERTEX
 8
0
 10
0
 20
0.305
 30
0
 70
128
 71
66
 72
71
 73
73
 74
67
 0
VERTEX
 8
0
 10
0
 20
0.305
 30
0
 70
128
 71
68
 72
72
 73
77
 74
71
 0
VERTEX
 8
0
 10
0
 20
0.305
 30
0
 70
128
 71
67
 72
73
 73
74
 74
70
 0
VERTEX
 8
0
 10
0
 20
0.305
 30
0
 70
128
 71
68
 72
74
 73
78
 74
72
 0
VERTEX
 8
0
 10
0
 20
0.305
 30
0
 70
128
 71
79
 72
73
 73
71
 74
77
 0
VERTEX
 8
0
 10
0
 20
0.305
 30
0
 70
128
 71
75
 72
77
 73
72
 74
76
 0
VERTEX
 8
0
 10
0
 20
0.305
 30
0
 70
128
 71
78
 72
74
 73
73
 74
79
 0
VERTEX
 8
0
 10
0
 20
0.305
 30
0
 70
128
 71
72
 72
78
 73
83
 74
76
 0
VERTEX
 8
0
 10
0
 20
0.305
 30
0
 70
128
 71
79
 72
77
 73
75
 74
82
 0
VERTEX
 8
0
 10
0
 20
0.305
 30
0
 70
128
 71
80
 72
75
 73
76
 74
81
 0
VERTEX
 8
0
 10
0
 20
0.305
 30
0
 70
128
 71
79
 72
82
 73
83
 74
78
 0
VERTEX
 8
0
 10
0
 20
0.305
 30
0
 70
128
 71
76
 72
83
 73
85
 74
81
 0
VERTEX
 8
0
 10
0
 20
0.305
 30
0
 70
128
 71
82
 72
75
 73
80
 74
84
 0
VERTEX
 8
0
 10
0
 20
0.305
 30
0
 70
128
 71
91
 72
86
 73
80
 74
81
 0
VERTEX
 8
0
 10
0
 20
0.305
 30
0
 70
128
 71
82
 72
84
 73
85
 74
83
 0
VERTEX
 8
0
 10
0
 20
0.305
 30
0
 70
128
 71
81
 72
85
 73
90
 74
91
 0
VERTEX
 8
0
 10
0
 20
0.305
 30
0
 70
128
 71
84
 72
80
 73
86
 74
87
 0
VERTEX
 8
0
 10
0
 20
0.305
 30
0
 70
128
 71
88
 72
89
 73
86
 74
91
 0
VERTEX
 8
0
 10
0
 20
0.305
 30
0
 70
128
 71
87
 72
90
 73
85
 74
84
 0
VERTEX
 8
0
 10
0
 20
0.305
 30
0
 70
128
 71
91
 72
90
 73
93
 74
88
 0
VERTEX
 8
0
 10
0
 20
0.305
 30
0
 70
128
 71
87
 72
86
 73
89
 74
92
 0
VERTEX
 8
0
 10
0
 20
0.305
 30
0
 70
128
 71
99
 72
94
 73
89
 74
88
 0
VERTEX
 8
0
 10
0
 20
0.305
 30
0
 70
128
 71
92
 72
93
 73
90
 74
87
 0
VERTEX
 8
0
 10
0
 20
0.305
 30
0
 70
128
 71
88
 72
93
 73
98
 74
99
 0
VERTEX
 8
0
 10
0
 20
0.305
 30
0
 70
128
 71
92
 72
89
 73
94
 74
95
 0
VERTEX
 8
0
 10
0
 20
0.305
 30
0
 70
128
 71
96
 72
97
 73
94
 74
99
 0
VERTEX
 8
0
 10
0
 20
0.305
 30
0
 70
128
 71
95
 72
98
 73
93
 74
92
 0
VERTEX
 8
0
 10
0
 20
0.305
 30
0
 70
128
 71
99
 72
98
 73
101
 74
96
 0
VERTEX
 8
0
 10
0
 20
0.305
 30
0
 70
128
 71
95
 72
94
 73
97
 74
100
 0
VERTEX
 8
0
 10
0
 20
0.305
 30
0
 70
128
 71
100
 72
97
 73
96
 74
101
 0
VERTEX
 8
0
 10
0
 20
0.305
 30
0
 70
128
 71
100
 72
101
 73
98
 74
95
 0
SEQEND
 8
0
 0
POLYLINE
 8
0
 70
64
 66
1
 10
0
 20
0.305
 30
0
 71
8
 72
6
 0
VERTEX
 8
0
 10
-0.3
 20
0.6352
 30
0.0821
 70
192
 0
VERTEX
 8
0
 10
-0.3
 20
0.6352
 30
-1.21116636719876e-08
 70
192
 0
VERTEX
 8
0
 10
-0.3
 20
-0.0252
 30
-1.21116636719876e-08
 70
192
 0
VERTEX
 8
0
 10
-0.3
 20
-0.0252
 30
0.0821
 70
192
 0
VERTEX
 8
0
 10
0.0302
 20
0.6352
 30
0.0821
 70
192
 0
VERTEX
 8
0
 10
0.0302
 20
0.6352
 30
-1.21116636719876e-08
 70
192
 0
VERTEX
 8
0
 10
0.0302
 20
-0.0252
 30
0.0821
 70
192
 0
VERTEX
 8
0
 10
0.0302
 20
-0.0252
 30
-1.21116636719876e-08
 70
192
 0
VERTEX
 8
0
 10
0
 20
0.305
 30
0
 70
128
 71
4
 72
1
 73
2
 74
3
 0
VERTEX
 8
0
 10
0
 20
0.305
 30
0
 70
128
 71
1
 72
4
 73
7
 74
5
 0
VERTEX
 8
0
 10
0
 20
0.305
 30
0
 70
128
 71
1
 72
5
 73
6
 74
2
 0
VERTEX
 8
0
 10
0
 20
0.305
 30
0
 70
128
 71
3
 72
2
 73
6
 74
8
 0
VERTEX
 8
0
 10
0
 20
0.305
 30
0
 70
128
 71
7
 72
4
 73
3
 74
8
 0
VERTEX
 8
0
 10
0
 20
0.305
 30
0
 70
128
 71
5
 72
7
 73
8
 74
6
 0
SEQEND
 8
0
 0
ENDSEC
 0
EOF
